<svg xmlns="http://www.w3.org/2000/svg" xmlns:xlink="http://www.w3.org/1999/xlink" xmlns:inkscape="http://www.inkscape.org/namespaces/inkscape" version="1.1" width="411.024" height="595.276" viewBox="0 0 411.024 595.276">
<defs>
<clipPath id="clip_1">
<path transform="matrix(1,0,0,-1,0,595.276)" d="M0 0H411.024V595.276H0Z"/>
</clipPath>
<clipPath id="clip_2">
<path transform="matrix(1,0,0,-1,0,595.276)" d="M0 0H411.024V595.276H0Z"/>
</clipPath>
<path id="font_3_3" d="M.32998658 0V.71191409H.2579956L.125 .5969238V.51493838L.2579956 .63191226V0H.32998658Z"/>
<path id="font_3_4" d="M.46099855 0V.06399536H.15499878L.4039917 .38186646C.44299317 .43185426 .46099855 .46884156 .46099855 .5258179 .46099855 .6427765 .38198854 .71777346 .2649994 .71777346 .1459961 .71777346 .068984989 .6367645 .068984989 .5248108H.14099121C.14099121 .6167755 .19898987 .6537628 .2649994 .6537628 .34298707 .6537628 .3889923 .6027832 .3889923 .5258179 .3889923 .48683167 .37599183 .45584107 .34899903 .42085267L.067993167 .06399536V0H.46099855Z"/>
<path id="font_3_7" d="M.46199037 .23516846C.46199037 .30218507 .45498658 .37419129 .40299989 .42619325 .375 .45419313 .33299256 .4711914 .27999879 .4711914 .22399903 .4711914 .17999268 .4532013 .1519928 .42219544V.64790347H.44699098V.71191409H.08699036V.33818055H.1519928C.1659851 .380188 .20799256 .40820313 .269989 .40820313 .37298585 .40820313 .3899994 .32218934 .3899994 .23516846 .3899994 .18417359 .3880005 .12716675 .35099793 .090164188 .32998658 .06915283 .2979889 .057159425 .2630005 .057159425 .18798828 .057159425 .15098572 .09716797 .14199829 .16816712H.069992069C.07398987 .11715698 .08898926 .076156619 .11999512 .044158937 .15098572 .013153076 .20098877-.0068359377 .2630005-.0068359377 .32598878-.0068359377 .37199403 .013153076 .40499879 .046157838 .45599366 .09716797 .46199037 .16416931 .46199037 .23516846Z"/>
<clipPath id="clip_4">
<path transform="matrix(1,0,0,-1,0,595.276)" d="M0 0H411.024V595.276H0Z"/>
</clipPath>
<clipPath id="clip_5">
<path transform="matrix(1,0,0,-1,0,595.276)" d="M0 0H411.024V595.276H0Z"/>
</clipPath>
<clipPath id="clip_6">
<path transform="matrix(1,0,0,-1,0,595.276)" d="M0 0H411.024V595.276H0Z"/>
</clipPath>
</defs>
<g clip-path="url(#clip_1)">
<g clip-path="url(#clip_2)">
<use data-text="1" xlink:href="#font_3_3" transform="matrix(9,0,0,-9,363.685,567.547)" fill="#f43040"/>
<use data-text="2" xlink:href="#font_3_4" transform="matrix(9,0,0,-9,367.285,567.547)" fill="#f43040"/>
<use data-text="5" xlink:href="#font_3_7" transform="matrix(9,0,0,-9,370.885,567.547)" fill="#f43040"/>
<g clip-path="url(#clip_4)">
<path transform="matrix(1,0,0,-1,244.8311,210.80481)" d="M0 0C.533 .272 .882 .599 1.046 .98H-.43V1.552C-1.005 1.144-1.51 .803-1.947 .531-2.085 .776-2.317 1.007-2.645 1.225-1.934 1.497-1.326 1.838-.82 2.246-.314 2.655 .129 3.131 .513 3.676 .731 3.485 1.031 3.335 1.415 3.226 1.059 3.036 .785 2.831 .595 2.614 .403 2.396 .088 2.069-.348 1.634H4.531C3.629 2.26 3.013 2.818 2.686 3.308 2.931 3.417 3.163 3.539 3.382 3.676 4.011 2.941 4.667 2.436 5.351 2.165 6.033 1.892 6.635 1.715 7.155 1.634 6.826 1.415 6.622 1.13 6.539 .776 5.883 .994 5.282 1.266 4.735 1.593 4.626 .394 4.503-.28 4.366-.429 4.229-.579 3.819-.735 3.137-.898 3.081-.599 2.958-.313 2.768-.041 3.341-.041 3.67-.007 3.751 .061 3.833 .129 3.901 .435 3.957 .98H1.866C1.646 .327 1.23-.17 .615-.51 0-.851-.649-1.117-1.332-1.307-1.388-1.008-1.578-.749-1.907-.531-1.168-.449-.533-.272 0 0M.082-4.737C.697-4.52 1.113-4.173 1.333-3.696 1.551-3.22 1.66-2.736 1.66-2.246 1.961-2.328 2.302-2.383 2.686-2.41 2.521-2.736 2.405-3.05 2.337-3.349 2.268-3.649 2.138-3.969 1.948-4.309 1.756-4.649 1.415-4.962 .923-5.248 .431-5.534-.348-5.799-1.415-6.044-1.442-5.772-1.66-5.499-2.07-5.228-1.25-5.118-.533-4.955 .082-4.737M4.49-4.002V-1.919H-.021V-4.329H-.84C-.814-3.894-.799-3.376-.799-2.777-.799-2.151-.814-1.661-.84-1.307H5.31C5.282-1.743 5.268-2.192 5.268-2.655 5.268-3.118 5.282-3.567 5.31-4.002ZM2.727-4.329C2.917-4.166 3.055-3.948 3.137-3.676 4.503-4.357 5.487-4.887 6.088-5.268 5.815-5.486 5.637-5.718 5.555-5.963 4.298-5.091 3.355-4.547 2.727-4.329" fill="#2c292a"/>
<path transform="matrix(1,0,0,-1,244.8311,210.80481)" stroke-width=".254" stroke-linecap="butt" stroke-miterlimit="10" stroke-linejoin="miter" fill="none" stroke="#2c292a" d="M0 0C.533 .272 .882 .599 1.046 .98H-.43V1.552C-1.005 1.144-1.51 .803-1.947 .531-2.085 .776-2.317 1.007-2.645 1.225-1.934 1.497-1.326 1.838-.82 2.246-.314 2.655 .129 3.131 .513 3.676 .731 3.485 1.031 3.335 1.415 3.226 1.059 3.036 .785 2.831 .595 2.614 .403 2.396 .088 2.069-.348 1.634H4.531C3.629 2.26 3.013 2.818 2.686 3.308 2.931 3.417 3.163 3.539 3.382 3.676 4.011 2.941 4.667 2.436 5.351 2.165 6.033 1.892 6.635 1.715 7.155 1.634 6.826 1.415 6.622 1.13 6.539 .776 5.883 .994 5.282 1.266 4.735 1.593 4.626 .394 4.503-.28 4.366-.429 4.229-.579 3.819-.735 3.137-.898 3.081-.599 2.958-.313 2.768-.041 3.341-.041 3.67-.007 3.751 .061 3.833 .129 3.901 .435 3.957 .98H1.866C1.646 .327 1.23-.17 .615-.51 0-.851-.649-1.117-1.332-1.307-1.388-1.008-1.578-.749-1.907-.531-1.168-.449-.533-.272 0 0ZM.082-4.737C.697-4.52 1.113-4.173 1.333-3.696 1.551-3.22 1.66-2.736 1.66-2.246 1.961-2.328 2.302-2.383 2.686-2.41 2.521-2.736 2.405-3.05 2.337-3.349 2.268-3.649 2.138-3.969 1.948-4.309 1.756-4.649 1.415-4.962 .923-5.248 .431-5.534-.348-5.799-1.415-6.044-1.442-5.772-1.66-5.499-2.07-5.228-1.25-5.118-.533-4.955 .082-4.737ZM4.49-4.002V-1.919H-.021V-4.329H-.84C-.814-3.894-.799-3.376-.799-2.777-.799-2.151-.814-1.661-.84-1.307H5.31C5.282-1.743 5.268-2.192 5.268-2.655 5.268-3.118 5.282-3.567 5.31-4.002H4.49ZM2.727-4.329C2.917-4.166 3.055-3.948 3.137-3.676 4.503-4.357 5.487-4.887 6.088-5.268 5.815-5.486 5.637-5.718 5.555-5.963 4.298-5.091 3.355-4.547 2.727-4.329Z"/>
<path transform="matrix(1,0,0,-1,261.6891,209.8299)" d="M0 0V-4.527C0-5.261 .013-6.022 .041-6.811H-.816V-6.036H-7.546V-6.811H-8.402C-8.375-6.131-8.361-5.37-8.361-4.527V0C-8.361 .734-8.375 1.482-8.402 2.243H.041C.013 1.536 0 .788 0 0M-.816 1.591H-7.546V-5.343H-.816ZM-4.568-.245C-4.568 .326-4.582 .775-4.609 1.101H-3.752C-3.78 .911-3.793 .462-3.793-.245H-2.814C-2.38-.245-1.958-.231-1.55-.204V-.938C-1.958-.911-2.38-.897-2.814-.897H-3.793V-3.508C-3.793-4.024-3.78-4.541-3.752-5.057H-4.609C-4.582-4.541-4.568-4.024-4.568-3.508V-1.876C-4.813-2.311-5.072-2.706-5.343-3.059-5.615-3.413-5.982-3.848-6.445-4.364-6.635-4.147-6.866-3.956-7.138-3.793-6.785-3.548-6.397-3.175-5.975-2.671-5.554-2.169-5.194-1.577-4.894-.897H-5.303C-5.738-.897-6.255-.911-6.852-.938V-.204C-6.255-.231-5.738-.245-5.303-.245ZM-1.346-3.385C-1.618-3.576-1.85-3.766-2.039-3.956-2.284-3.603-2.543-3.263-2.814-2.937-3.087-2.61-3.359-2.325-3.63-2.08-3.413-1.917-3.222-1.74-3.059-1.55-2.406-2.23-1.836-2.842-1.346-3.385" fill="#2c292a"/>
<path transform="matrix(1,0,0,-1,261.6891,209.8299)" stroke-width=".254" stroke-linecap="butt" stroke-miterlimit="10" stroke-linejoin="miter" fill="none" stroke="#2c292a" d="M0 0V-4.527C0-5.261 .013-6.022 .041-6.811H-.816V-6.036H-7.546V-6.811H-8.402C-8.375-6.131-8.361-5.37-8.361-4.527V0C-8.361 .734-8.375 1.482-8.402 2.243H.041C.013 1.536 0 .788 0 0ZM-.816 1.591H-7.546V-5.343H-.816ZM-4.568-.245C-4.568 .326-4.582 .775-4.609 1.101H-3.752C-3.78 .911-3.793 .462-3.793-.245H-2.814C-2.38-.245-1.958-.231-1.55-.204V-.938C-1.958-.911-2.38-.897-2.814-.897H-3.793V-3.508C-3.793-4.024-3.78-4.541-3.752-5.057H-4.609C-4.582-4.541-4.568-4.024-4.568-3.508V-1.876C-4.813-2.311-5.072-2.706-5.343-3.059-5.615-3.413-5.982-3.848-6.445-4.364-6.635-4.147-6.866-3.956-7.138-3.793-6.785-3.548-6.397-3.175-5.975-2.671-5.554-2.169-5.194-1.577-4.894-.897H-5.303C-5.738-.897-6.255-.911-6.852-.938V-.204C-6.255-.231-5.738-.245-5.303-.245H-4.568ZM-1.346-3.385C-1.618-3.576-1.85-3.766-2.039-3.956-2.284-3.603-2.543-3.263-2.814-2.937-3.087-2.61-3.359-2.325-3.63-2.08-3.413-1.917-3.222-1.74-3.059-1.55-2.406-2.23-1.836-2.842-1.346-3.385Z"/>
<path transform="matrix(1,0,0,-1,219.1863,205.49192)" d="M0 0C-.014 1.497 1.21 2.722 2.813 2.814H13.848C15.429 2.722 16.653 1.497 16.661 0V-11.041C16.653-12.465 15.429-13.69 13.848-13.639H2.813C1.21-13.69-.014-12.465 0-11.041Z" fill="#f43040"/>
<path transform="matrix(1,0,0,-1,229.828,215.84601)" d="M0 0C-.396-.396-1.085-.779-2.107-.779-3.128-.779-3.868-.383-4.264 .013-4.915 .664-5.005 1.405-5.056 2.069H-2.962C-2.898 1.469-2.643 1.111-2.107 1.111-1.851 1.111-1.685 1.175-1.519 1.341-1.328 1.533-1.251 1.865-1.251 2.402-1.251 3.411-1.596 3.692-2.107 3.692-2.719 3.692-2.873 3.283-2.962 3.04H-4.89V8.393H.651V6.502H-2.987V5.097C-2.809 5.237-2.324 5.455-1.762 5.455-.97 5.455-.37 5.186 0 4.816 .741 4.075 .843 3.257 .843 2.402 .843 1.303 .677 .677 0 0" fill="#ffffff"/>
<path transform="matrix(1,0,0,-1,152.8472,251.21939)" d="M0 0C-.17-.364-.376-.764-.618-1.2-.763-1.055-.958-.885-1.199-.691-.909-.449-.588 .097-.236 .945 .115 1.794 .351 2.533 .472 3.164 .714 3.018 .993 2.909 1.308 2.836 1.211 2.764 1.109 2.587 .999 2.309 .89 2.03 .763 1.66 .618 1.2V-3.564C.618-4.194 .63-4.703 .654-5.091H-.036C-.013-4.654 0-4.133 0-3.527ZM3.962 2.727C3.937 2.46 3.925 2.06 3.925 1.527 3.925 .994 3.937 .557 3.962 .218H2.072V-.764H2.835C3.053-.764 3.344-.752 3.707-.727V-1.382C3.344-1.358 3.053-1.345 2.835-1.345H2.072V-2.436H2.762C3.126-2.436 3.453-2.424 3.743-2.4V-3.054C3.477-3.031 3.15-3.018 2.762-3.018H2.072V-5.091H1.454C1.478-4.703 1.49-4.303 1.49-3.891V1.636C1.49 2.145 1.478 2.509 1.454 2.727ZM3.307 2.145H2.071V.79999998H3.307ZM6.869-.582C6.748-1.697 6.433-2.703 5.924-3.6 6.36-4.061 6.845-4.412 7.378-4.654 7.184-4.824 7.015-5.018 6.869-5.236 6.481-4.994 6.033-4.606 5.524-4.073 5.016-4.557 4.446-4.945 3.816-5.236 3.695-5.018 3.537-4.824 3.344-4.654 4.071-4.436 4.676-4.073 5.161-3.564 4.797-2.958 4.519-2.158 4.325-1.164L4.143-1.2V-.545C4.434-.57 4.858-.582 5.415-.582ZM6.833 2.8C6.808 2.533 6.79 2.109 6.778 1.527 6.766 .945 6.784 .509 6.833 .218H5.779C5.27 .218 4.809 .206 4.398 .182V.8C4.785 .776 5.234 .764 5.742 .764H6.142V2.255H5.779C5.221 2.255 4.785 2.242 4.47 2.218V2.836C4.809 2.812 5.197 2.8 5.633 2.8ZM5.561-3.018C5.875-2.485 6.07-1.867 6.142-1.164H4.907C5.1-2.061 5.318-2.679 5.561-3.018" fill="#2c292a"/>
<path transform="matrix(1,0,0,-1,161.5412,252.34671)" d="M0 0C-.242 .048-.461 .097-.654 .145-.485 .776-.352 1.527-.254 2.4-.061 2.376 .157 2.339 .4 2.291 .254 1.273 .121 .509 0 0M1.418 2.945V-2.509C1.418-3.018 1.429-3.527 1.454-4.036H.691C.714-3.527 .727-3.018 .727-2.509V2.945C.727 3.454 .714 3.927 .691 4.364H1.454C1.429 3.878 1.418 3.406 1.418 2.945M2.653 1.236C2.435 1.164 2.241 1.078 2.072 .982 1.902 1.515 1.72 2.012 1.526 2.473 1.72 2.569 1.902 2.655 2.072 2.727 2.265 2.339 2.459 1.842 2.653 1.236M3.744 2.327H4.87V3.091C4.87 3.503 4.858 3.903 4.834 4.291H5.597C5.573 3.903 5.561 3.503 5.561 3.091V2.327H6.288C6.602 2.327 6.978 2.339 7.414 2.364V1.673C6.978 1.697 6.602 1.709 6.288 1.709H5.561V-.218H6.215C6.579-.218 6.942-.206 7.305-.182V-.873C6.942-.849 6.579-.836 6.215-.836H5.561V-3.091H6.542C6.954-3.091 7.354-3.079 7.742-3.054V-3.709C7.354-3.685 6.954-3.673 6.542-3.673H3.744C3.307-3.673 2.883-3.685 2.471-3.709V-3.054C2.883-3.079 3.295-3.091 3.707-3.091H4.87V-.836H4.252C3.937-.836 3.574-.849 3.162-.873V-.182C3.477-.206 3.84-.218 4.252-.218H4.87V1.709H3.598C3.526 1.345 3.331 .812 3.017 .109 2.75 .255 2.532 .339 2.362 .364 2.702 1.066 2.92 1.673 3.017 2.182 3.113 2.691 3.198 3.176 3.271 3.636 3.513 3.564 3.756 3.503 3.998 3.454 3.876 3.018 3.792 2.642 3.744 2.327" fill="#2c292a"/>
<path transform="matrix(1,0,0,-1,170.1262,250.5285)" d="M0 0C.364-.024 .727-.036 1.09-.036H1.854C1.829-.497 1.817-.994 1.817-1.527V-3.891C2.108-3.576 2.362-3.285 2.581-3.018 2.653-3.285 2.774-3.515 2.944-3.709 2.629-4.024 2.35-4.309 2.108-4.564 1.865-4.818 1.623-5.115 1.381-5.454 1.187-5.187 .993-4.982 .8-4.836 .993-4.667 1.102-4.449 1.127-4.182V-.545C.739-.545 .364-.558 0-.582ZM2.581 1.345C2.411 1.2 2.229 1.03 2.035 .836 1.575 1.345 1.139 1.782 .727 2.145 .921 2.291 1.09 2.46 1.236 2.654 1.745 2.218 2.193 1.782 2.581 1.345M8.141 1.709C7.633 1.709 7.075 1.678 6.469 1.618 5.864 1.557 5.137 1.491 4.289 1.418V-.255H7.16C7.451-.255 7.863-.243 8.396-.218V-.836C8.032-.812 7.633-.8 7.196-.8H6.724V-2.691C7.426-3.152 8.008-3.54 8.468-3.854 8.25-4.049 8.092-4.254 7.996-4.473 7.535-4.085 7.111-3.77 6.724-3.527V-4.4C6.724-5.03 6.736-5.539 6.76-5.927H5.997C6.021-5.515 6.033-5.006 6.033-4.4V-3.127C5.864-3.006 5.415-2.727 4.688-2.291 4.81-2.122 4.919-1.927 5.016-1.709 5.427-1.952 5.766-2.145 6.033-2.291V-.8H4.325C4.301-1.503 4.258-2.115 4.198-2.636 4.137-3.158 4.046-3.667 3.925-4.164 3.804-4.661 3.537-5.273 3.126-6 2.908-5.806 2.665-5.66 2.399-5.564 2.738-5.103 2.998-4.643 3.18-4.182 3.362-3.721 3.477-3.182 3.526-2.564 3.574-1.945 3.604-1.164 3.616-.218 3.628 .727 3.61 1.466 3.562 2 4.507 2.024 5.306 2.073 5.961 2.145 6.615 2.218 7.196 2.327 7.705 2.473 7.802 2.23 7.947 1.976 8.141 1.709" fill="#2c292a"/>
<path transform="matrix(1,0,0,-1,179.6926,249.61942)" d="M0 0C.387-.024 .8-.036 1.236-.036H3.489C3.489 .667 3.477 1.212 3.453 1.6H4.252C4.228 1.212 4.216 .667 4.216-.036H6.797C7.136-.036 7.511-.024 7.923 0V-.655C7.487-.631 7.111-.618 6.797-.618H4.216C4.24-1.006 4.355-1.418 4.561-1.854 4.767-2.291 4.979-2.654 5.197-2.945 5.73-2.509 6.227-1.952 6.688-1.273 6.857-1.467 7.099-1.661 7.414-1.854 7.124-2 6.481-2.533 5.488-3.454 5.803-3.867 6.184-4.254 6.633-4.618 7.081-4.982 7.572-5.236 8.105-5.382 7.765-5.576 7.523-5.806 7.378-6.073 6.845-5.782 6.306-5.376 5.761-4.854 5.215-4.333 4.701-3.515 4.216-2.4V-5.636C4.24-6 4.125-6.242 3.871-6.364 3.616-6.485 3.247-6.569 2.762-6.618 2.713-6.375 2.604-6.109 2.435-5.818 2.847-5.842 3.131-5.836 3.289-5.8 3.447-5.764 3.513-5.636 3.489-5.418V-3.418C2.52-4.17 1.823-4.715 1.399-5.054 .975-5.394 .63-5.685 .363-5.927 .145-5.685-.061-5.467-.254-5.273 .085-5.103 .521-4.843 1.054-4.491 1.587-4.14 2.399-3.503 3.489-2.582V-.618H1.236C.8-.618 .387-.631 0-.655ZM2.581-2.473 1.963-3.018C1.599-2.606 1.114-2.182 .509-1.745L1.09-1.236C1.623-1.673 2.12-2.085 2.581-2.473M7.015 .582C6.845 .46 6.663 .303 6.469 .109 6.203 .4 5.815 .751 5.306 1.164 5.452 1.285 5.634 1.418 5.852 1.564 6.239 1.297 6.627 .969 7.015 .582" fill="#2c292a"/>
<path transform="matrix(1,0,0,-1,195.7828,249.83762)" d="M0 0C-.254-.267-.612-.631-1.072-1.091H-.055C.357-1.091 .781-1.079 1.218-1.055V-1.709C.781-1.685 .345-1.673-.091-1.673H-1.799C-2.187-1.964-2.623-2.279-3.108-2.618H-.018C-.043-3.055-.055-3.454-.055-3.818V-5.091C-.055-5.527-.043-6-.018-6.509H-.745V-5.964H-4.234V-6.509H-4.997C-4.974-6.121-4.961-5.757-4.961-5.418V-3.745C-5.446-4.012-5.991-4.279-6.597-4.545-6.839-4.206-7.009-4-7.106-3.927-6.936-3.879-6.615-3.764-6.142-3.582-5.67-3.4-5.276-3.2-4.961-2.982V-2.618H-4.271C-3.738-2.327-3.265-2.012-2.853-1.673H-5.434C-5.942-1.673-6.415-1.685-6.851-1.709V-1.055C-6.367-1.079-5.894-1.091-5.434-1.091H-3.507V.036H-4.598C-5.01 .036-5.385 .024-5.724 0V.655C-5.385 .63-5.01 .618-4.598 .618H-3.507C-3.507 .982-3.52 1.394-3.544 1.855H-2.744C-2.768 1.515-2.78 1.103-2.78 .618H-2.235C-1.921 .618-1.557 .63-1.145 .655V0C-1.557 .024-1.921 .036-2.235 .036H-2.78V-1.091H-2.054C-1.714-.824-1.375-.509-1.036-.145-.697 .218-.345 .678 .018 1.236 .284 .969 .503 .776 .672 .655 .478 .485 .254 .267 0 0M-.745-3.2H-4.234V-3.964H-.745ZM-.745-4.545H-4.234V-5.381H-.745ZM-.745-5.382" fill="#2c292a"/>
<path transform="matrix(1,0,0,-1,291.0439,276.7885)" d="M0 0C-.327-.073-.654-.152-.981-.236-1.308-.322-1.648-.418-1.999-.527-2.351-.636-2.684-.751-2.998-.873-3.047-.655-3.132-.364-3.253 0-2.987 .048-2.744 .097-2.526 .145V4.836C-2.526 5.345-2.539 5.842-2.562 6.327H.454C.43 5.891 .418 5.406 .418 4.873V.691C.514 .715 .672 .751 .89 .8V.182C.623 .133 .327 .073 0 0M-.309 5.745H-1.835V4.363H-.309ZM-.309 3.818H-1.835V2.364H-.309ZM-1.054 .4C-.824 .448-.576 .497-.309 .545V1.782H-1.835V.255C-1.545 .303-1.285 .351-1.054 .4M1.326 .345C1.568 .769 1.745 1.212 1.853 1.673 1.963 2.133 2.041 2.606 2.09 3.091 2.138 3.576 2.163 4.036 2.163 4.473 1.75 4.473 1.375 4.46 1.036 4.436V5.091C1.35 5.066 1.726 5.054 2.163 5.054V5.891C2.163 6.157 2.15 6.521 2.126 6.982 2.392 6.957 2.708 6.945 3.071 6.945 2.998 6.63 2.956 6.315 2.944 6 2.931 5.685 2.926 5.369 2.926 5.054H4.961C4.888 4.666 4.852 4.194 4.852 3.636L4.634-.073C4.609-.533 4.452-.806 4.161-.891 3.871-.976 3.495-1.042 3.035-1.091 2.986-.776 2.901-.485 2.78-.218 3.24-.218 3.556-.212 3.725-.2 3.894-.188 3.98 .048 3.98 .509L4.161 4.473H2.926C2.877 3.454 2.792 2.63 2.671 2 2.55 1.369 2.399 .873 2.217 .509 2.035 .145 1.853-.176 1.672-.455 1.49-.733 1.278-1.006 1.036-1.273 .841-1.078 .575-.921 .236-.8 .72-.461 1.084-.079 1.326 .345" fill="#2c292a"/>
<path transform="matrix(1,0,0,-1,299.3926,275.7704)" d="M0 0C.533 .678 .902 1.376 1.108 2.091 1.314 2.806 1.429 3.473 1.454 4.091 1.478 4.709 1.466 5.357 1.417 6.036 1.684 6.012 1.986 5.987 2.326 5.964 2.253 5.575 2.217 5.176 2.217 4.764 2.217 4.351 2.241 3.878 2.29 3.345 2.338 2.812 2.683 2.006 3.326 .927 3.967-.152 4.906-.958 6.142-1.491 5.852-1.782 5.657-2.024 5.561-2.218 3.864-1.394 2.653 .097 1.926 2.255 1.441 .339 .266-1.188-1.599-2.327-1.745-2.133-1.951-1.927-2.217-1.709-1.272-1.249-.533-.679 0 0" fill="#2c292a"/>
<path transform="matrix(1,0,0,-1,313.4279,271.625)" d="M0 0C-.254-.267-.612-.631-1.072-1.091H-.054C.357-1.091 .782-1.079 1.218-1.055V-1.709C.782-1.685 .345-1.673-.091-1.673H-1.799C-2.187-1.964-2.623-2.279-3.107-2.618H-.018C-.043-3.055-.054-3.454-.054-3.818V-5.091C-.054-5.527-.043-6-.018-6.509H-.745V-5.964H-4.234V-6.509H-4.997C-4.974-6.121-4.961-5.757-4.961-5.418V-3.745C-5.446-4.012-5.991-4.279-6.597-4.545-6.839-4.206-7.009-4-7.105-3.927-6.936-3.879-6.615-3.764-6.142-3.582-5.67-3.4-5.276-3.2-4.961-2.982V-2.618H-4.271C-3.738-2.327-3.265-2.012-2.853-1.673H-5.434C-5.942-1.673-6.415-1.685-6.851-1.709V-1.055C-6.367-1.079-5.894-1.091-5.434-1.091H-3.507V.036H-4.598C-5.01 .036-5.385 .024-5.724 0V.655C-5.385 .63-5.01 .618-4.598 .618H-3.507C-3.507 .982-3.52 1.394-3.544 1.855H-2.744C-2.768 1.515-2.78 1.103-2.78 .618H-2.235C-1.92 .618-1.557 .63-1.145 .655V0C-1.557 .024-1.92 .036-2.235 .036H-2.78V-1.091H-2.053C-1.714-.824-1.375-.509-1.036-.145-.697 .218-.345 .678 .018 1.236 .285 .969 .503 .776 .672 .655 .478 .485 .255 .266 0 0M-.745-3.2H-4.234V-3.964H-.745ZM-.745-4.545H-4.234V-5.381H-.745ZM-.745-5.382" fill="#2c292a"/>
<path transform="matrix(1,0,0,-1,304.4843,262.9106)" d="M0 0H.951V-1.308H2.259V-2.26H.951V-3.569H0V-2.26H-1.308V-1.308H0ZM.474 .656C-.177 .656-.789 .402-1.249-.058-1.709-.521-1.962-1.132-1.962-1.784-1.962-2.436-1.709-3.048-1.249-3.509-.788-3.969-.177-4.222 .474-4.222 1.128-4.222 1.74-3.969 2.199-3.509 2.659-3.048 2.913-2.436 2.913-1.784 2.913-1.132 2.659-.518 2.199-.058 1.738 .402 1.128 .656 .474 .656M.474 1.925C2.523 1.925 4.181 .264 4.181-1.784 4.181-3.832 2.523-5.492 .474-5.492-1.572-5.492-3.231-3.832-3.231-1.784-3.231 .264-1.572 1.925 .474 1.925M-5.471 9.651C-6.374 9.651-7.226 9.298-7.866 8.657-8.507 8.017-8.859 7.162-8.859 6.258-8.859 5.354-8.507 4.5-7.866 3.861-7.226 3.22-6.376 2.866-5.471 2.866-4.564 2.866-3.713 3.22-3.072 3.861-2.432 4.5-2.08 5.352-2.08 6.258-2.08 7.164-2.433 8.017-3.075 8.657-3.714 9.298-4.564 9.651-5.471 9.651M-5.471 10.921C-2.896 10.921-.811 8.831-.811 6.258-.811 4.578-1.701 3.104-3.036 2.285-2.904 2.242-2.776 2.195-2.646 2.144-3.005 1.851-3.323 1.508-3.587 1.126-4.195 1.308-4.824 1.402-5.471 1.402-6.352 1.402-7.207 1.229-8.009 .889-8.786 .562-9.483 .09-10.081-.509-10.68-1.108-11.15-1.806-11.479-2.584-11.797-3.332-11.966-4.127-11.988-4.949H-13.257C-13.184-1.57-10.961 1.278-7.904 2.284-9.238 3.102-10.127 4.576-10.127 6.258-10.127 8.834-8.044 10.921-5.471 10.921" fill="#f43040"/>
<path transform="matrix(1,0,0,-1,183.2344,243.7627)" d="M0 0-2.229 2.187C-2.488 2.442-2.874 2.442-3.132 2.187-3.39 1.934-3.39 1.553-3.132 1.298L-2.029 .19H-5.786C-6.139 .19-6.43-.096-6.43-.446-6.43-.795-6.139-1.08-5.786-1.08H-2.029L-3.143-2.205C-3.433-2.49-3.401-2.967-3.045-3.189-2.789-3.379-2.433-3.316-2.208-3.094L0-.89C.258-.636 .258-.255 0 0M-5.944 2.12C-5.834 2.026-5.692 1.967-5.533 1.967-5.186 1.967-4.906 2.243-4.906 2.584-4.905 2.788-5.008 2.969-5.165 3.081V3.088C-5.789 3.552-6.448 3.87-7.069 4.089-5.58 4.993-4.565 6.584-4.565 8.455-4.565 11.294-6.912 13.541-9.764 13.541-12.616 13.541-14.961 11.264-14.961 8.425-14.961 6.584-13.979 4.963-12.49 4.089-16.768 2.559-17.149-1.777-17.149-1.838-17.18-2.182-16.927-2.494-16.579-2.494-16.23-2.525-15.912-2.275-15.882-1.932-15.882-1.714-15.405 3.029-9.827 3.341-9.688 3.341-7.681 3.413-5.946 2.12ZM-9.764 4.587C-11.919 4.587-13.694 6.303-13.694 8.455-13.694 10.608-11.919 12.293-9.764 12.293-7.609 12.293-5.834 10.577-5.834 8.425-5.834 6.272-7.609 4.587-9.764 4.587" fill="#f43040"/>
<path transform="matrix(1,0,0,-1,152.8472,297.1129)" d="M0 0C-.17-.364-.376-.764-.618-1.2-.763-1.055-.958-.885-1.199-.691-.909-.449-.588 .097-.236 .945 .115 1.794 .351 2.533 .472 3.164 .714 3.018 .993 2.909 1.308 2.836 1.211 2.764 1.109 2.587 .999 2.309 .89 2.03 .763 1.66 .618 1.2V-3.564C.618-4.194 .63-4.703 .654-5.091H-.036C-.013-4.654 0-4.134 0-3.527ZM3.962 2.727C3.937 2.46 3.925 2.06 3.925 1.527 3.925 .994 3.937 .557 3.962 .218H2.072V-.764H2.835C3.053-.764 3.344-.752 3.707-.727V-1.382C3.344-1.358 3.053-1.345 2.835-1.345H2.072V-2.436H2.762C3.126-2.436 3.453-2.424 3.743-2.4V-3.055C3.477-3.031 3.15-3.018 2.762-3.018H2.072V-5.091H1.454C1.478-4.703 1.49-4.303 1.49-3.891V1.636C1.49 2.145 1.478 2.509 1.454 2.727ZM3.307 2.145H2.071V.79999998H3.307ZM6.869-.582C6.748-1.697 6.433-2.703 5.924-3.6 6.36-4.061 6.845-4.412 7.378-4.654 7.184-4.824 7.015-5.018 6.869-5.236 6.481-4.994 6.033-4.606 5.524-4.073 5.016-4.557 4.446-4.945 3.816-5.236 3.695-5.018 3.537-4.824 3.344-4.654 4.071-4.436 4.676-4.073 5.161-3.564 4.797-2.958 4.519-2.158 4.325-1.164L4.143-1.2V-.545C4.434-.57 4.858-.582 5.415-.582ZM6.833 2.8C6.808 2.533 6.79 2.109 6.778 1.527 6.766 .945 6.784 .509 6.833 .218H5.779C5.27 .218 4.809 .206 4.398 .182V.8C4.785 .775 5.234 .764 5.742 .764H6.142V2.254H5.779C5.221 2.254 4.785 2.242 4.47 2.218V2.836C4.809 2.812 5.197 2.8 5.633 2.8ZM5.561-3.018C5.875-2.485 6.07-1.867 6.142-1.164H4.907C5.1-2.061 5.318-2.679 5.561-3.018" fill="#2c292a"/>
<path transform="matrix(1,0,0,-1,161.5412,298.2402)" d="M0 0C-.242 .048-.461 .097-.654 .145-.485 .775-.352 1.527-.254 2.4-.061 2.375 .157 2.339 .4 2.291 .254 1.273 .121 .509 0 0M1.418 2.945V-2.509C1.418-3.018 1.429-3.527 1.454-4.036H.691C.714-3.527 .727-3.018 .727-2.509V2.945C.727 3.454 .714 3.927 .691 4.364H1.454C1.429 3.878 1.418 3.406 1.418 2.945M2.653 1.236C2.435 1.164 2.241 1.078 2.072 .982 1.902 1.515 1.72 2.012 1.526 2.473 1.72 2.569 1.902 2.655 2.072 2.727 2.265 2.339 2.459 1.842 2.653 1.236M3.744 2.327H4.87V3.091C4.87 3.503 4.858 3.903 4.834 4.291H5.597C5.573 3.903 5.561 3.503 5.561 3.091V2.327H6.288C6.602 2.327 6.978 2.339 7.414 2.364V1.673C6.978 1.697 6.602 1.709 6.288 1.709H5.561V-.218H6.215C6.579-.218 6.942-.206 7.305-.182V-.873C6.942-.849 6.579-.836 6.215-.836H5.561V-3.091H6.542C6.954-3.091 7.354-3.079 7.742-3.055V-3.709C7.354-3.685 6.954-3.673 6.542-3.673H3.744C3.307-3.673 2.883-3.685 2.471-3.709V-3.055C2.883-3.079 3.295-3.091 3.707-3.091H4.87V-.836H4.252C3.937-.836 3.574-.849 3.162-.873V-.182C3.477-.206 3.84-.218 4.252-.218H4.87V1.709H3.598C3.526 1.345 3.331 .812 3.017 .109 2.75 .255 2.532 .339 2.362 .364 2.702 1.066 2.92 1.673 3.017 2.182 3.113 2.691 3.198 3.175 3.271 3.636 3.513 3.564 3.756 3.503 3.998 3.454 3.876 3.018 3.792 2.642 3.744 2.327" fill="#2c292a"/>
<path transform="matrix(1,0,0,-1,170.1262,296.4221)" d="M0 0C.364-.025 .727-.036 1.09-.036H1.854C1.829-.497 1.817-.994 1.817-1.527V-3.891C2.108-3.576 2.362-3.285 2.581-3.018 2.653-3.285 2.774-3.515 2.944-3.709 2.629-4.024 2.35-4.309 2.108-4.564 1.865-4.818 1.623-5.115 1.381-5.454 1.187-5.187 .993-4.982 .8-4.836 .993-4.667 1.102-4.449 1.127-4.182V-.545C.739-.545 .364-.558 0-.582ZM2.581 1.345C2.411 1.2 2.229 1.03 2.035 .836 1.575 1.345 1.139 1.782 .727 2.145 .921 2.291 1.09 2.46 1.236 2.655 1.745 2.218 2.193 1.782 2.581 1.345M8.141 1.709C7.633 1.709 7.075 1.678 6.469 1.618 5.864 1.557 5.137 1.491 4.289 1.418V-.255H7.16C7.451-.255 7.863-.243 8.396-.218V-.836C8.032-.812 7.633-.8 7.196-.8H6.724V-2.691C7.426-3.152 8.008-3.54 8.468-3.854 8.25-4.049 8.092-4.254 7.996-4.473 7.535-4.085 7.111-3.77 6.724-3.527V-4.4C6.724-5.03 6.736-5.539 6.76-5.927H5.997C6.021-5.515 6.033-5.006 6.033-4.4V-3.127C5.864-3.006 5.415-2.727 4.688-2.291 4.81-2.122 4.919-1.927 5.016-1.709 5.427-1.952 5.766-2.145 6.033-2.291V-.8H4.325C4.301-1.503 4.258-2.115 4.198-2.636 4.137-3.158 4.046-3.667 3.925-4.164 3.804-4.661 3.537-5.273 3.126-6 2.908-5.806 2.665-5.66 2.399-5.564 2.738-5.103 2.998-4.643 3.18-4.182 3.362-3.721 3.477-3.182 3.526-2.564 3.574-1.945 3.604-1.164 3.616-.218 3.628 .727 3.61 1.466 3.562 2 4.507 2.024 5.306 2.073 5.961 2.145 6.615 2.218 7.196 2.327 7.705 2.473 7.802 2.23 7.947 1.975 8.141 1.709" fill="#2c292a"/>
<path transform="matrix(1,0,0,-1,179.6926,295.513)" d="M0 0C.387-.025 .8-.036 1.236-.036H3.489C3.489 .666 3.477 1.212 3.453 1.6H4.252C4.228 1.212 4.216 .666 4.216-.036H6.797C7.136-.036 7.511-.025 7.923 0V-.655C7.487-.631 7.111-.618 6.797-.618H4.216C4.24-1.006 4.355-1.418 4.561-1.855 4.767-2.291 4.979-2.655 5.197-2.945 5.73-2.509 6.227-1.952 6.688-1.273 6.857-1.467 7.099-1.661 7.414-1.855 7.124-2 6.481-2.534 5.488-3.454 5.803-3.867 6.184-4.254 6.633-4.618 7.081-4.982 7.572-5.236 8.105-5.382 7.765-5.576 7.523-5.806 7.378-6.073 6.845-5.782 6.306-5.376 5.761-4.854 5.215-4.334 4.701-3.515 4.216-2.4V-5.636C4.24-6 4.125-6.242 3.871-6.364 3.616-6.484 3.247-6.569 2.762-6.618 2.713-6.375 2.604-6.109 2.435-5.818 2.847-5.843 3.131-5.836 3.289-5.8 3.447-5.764 3.513-5.636 3.489-5.418V-3.418C2.52-4.17 1.823-4.715 1.399-5.054 .975-5.394 .63-5.685 .363-5.927 .145-5.685-.061-5.467-.254-5.273 .085-5.103 .521-4.843 1.054-4.491 1.587-4.14 2.399-3.503 3.489-2.582V-.618H1.236C.8-.618 .387-.631 0-.655ZM2.581-2.473 1.963-3.018C1.599-2.606 1.114-2.182 .509-1.745L1.09-1.236C1.623-1.673 2.12-2.085 2.581-2.473M7.015 .582C6.845 .46 6.663 .303 6.469 .109 6.203 .4 5.815 .751 5.306 1.164 5.452 1.285 5.634 1.418 5.852 1.564 6.239 1.297 6.627 .969 7.015 .582" fill="#2c292a"/>
<path transform="matrix(1,0,0,-1,195.7828,295.7312)" d="M0 0C-.254-.267-.612-.631-1.072-1.091H-.055C.357-1.091 .781-1.079 1.218-1.055V-1.709C.781-1.685 .345-1.673-.091-1.673H-1.799C-2.187-1.964-2.623-2.279-3.108-2.618H-.018C-.043-3.054-.055-3.454-.055-3.818V-5.091C-.055-5.527-.043-6-.018-6.509H-.745V-5.964H-4.234V-6.509H-4.997C-4.974-6.121-4.961-5.757-4.961-5.418V-3.745C-5.446-4.012-5.991-4.279-6.597-4.545-6.839-4.206-7.009-4-7.106-3.927-6.936-3.879-6.615-3.764-6.142-3.582-5.67-3.4-5.276-3.2-4.961-2.982V-2.618H-4.271C-3.738-2.327-3.265-2.012-2.853-1.673H-5.434C-5.942-1.673-6.415-1.685-6.851-1.709V-1.055C-6.367-1.079-5.894-1.091-5.434-1.091H-3.507V.036H-4.598C-5.01 .036-5.385 .024-5.724 0V.655C-5.385 .63-5.01 .618-4.598 .618H-3.507C-3.507 .982-3.52 1.394-3.544 1.855H-2.744C-2.768 1.515-2.78 1.103-2.78 .618H-2.235C-1.921 .618-1.557 .63-1.145 .655V0C-1.557 .024-1.921 .036-2.235 .036H-2.78V-1.091H-2.054C-1.714-.824-1.375-.509-1.036-.145-.697 .218-.345 .678 .018 1.236 .284 .969 .503 .775 .672 .655 .478 .485 .254 .266 0 0M-.745-3.2H-4.234V-3.964H-.745ZM-.745-4.545H-4.234V-5.381H-.745ZM-.745-5.382" fill="#2c292a"/>
<path transform="matrix(1,0,0,-1,183.2344,289.6574)" d="M0 0-2.229 2.187C-2.488 2.442-2.874 2.442-3.132 2.187-3.39 1.934-3.39 1.553-3.132 1.298L-2.029 .19H-5.786C-6.139 .19-6.43-.096-6.43-.446-6.43-.795-6.139-1.08-5.786-1.08H-2.029L-3.143-2.205C-3.433-2.49-3.401-2.967-3.045-3.189-2.789-3.379-2.433-3.316-2.208-3.094L0-.89C.258-.636 .258-.255 0 0M-5.944 2.12C-5.834 2.026-5.692 1.967-5.533 1.967-5.186 1.967-4.906 2.243-4.906 2.584-4.905 2.788-5.008 2.969-5.165 3.081V3.088C-5.789 3.552-6.448 3.87-7.069 4.089-5.58 4.993-4.565 6.584-4.565 8.455-4.565 11.294-6.912 13.541-9.764 13.541-12.616 13.541-14.961 11.264-14.961 8.425-14.961 6.584-13.979 4.963-12.49 4.089-16.768 2.559-17.149-1.777-17.149-1.838-17.18-2.182-16.927-2.494-16.579-2.494-16.23-2.525-15.912-2.275-15.882-1.932-15.882-1.714-15.405 3.029-9.827 3.341-9.688 3.341-7.681 3.413-5.946 2.12ZM-9.764 4.587C-11.919 4.587-13.694 6.303-13.694 8.455-13.694 10.608-11.919 12.293-9.764 12.293-7.609 12.293-5.834 10.577-5.834 8.425-5.834 6.272-7.609 4.587-9.764 4.587" fill="#f43040"/>
<path transform="matrix(1,0,0,-1,293.6216,248.46952)" stroke-width="1" stroke-linecap="butt" stroke-miterlimit="10" stroke-linejoin="miter" fill="none" stroke="#f43040" d="M0 0C0 4.402-3.567 7.971-8.007 7.907H-84.389C-88.578 7.967-91.919 4.863-92.317 .799L-94.559-.536-92.186-1.893C-91.393-5.344-88.241-7.961-84.389-7.897H-8.007C-3.567-7.971 0-4.402 0 0Z"/>
<path transform="matrix(1,0,0,-1,215.1267,251.23459)" d="M0 0V2.873C-.412 2.873-.812 2.848-1.199 2.8V3.418H.727C.703 2.982 .691 2.618 .691 2.327V.145C1.248-.485 2.205-.8 3.562-.8 4.943-.8 6.033-.74 6.833-.618 6.663-.885 6.554-1.188 6.506-1.527 5.585-1.527 4.803-1.521 4.162-1.509 3.519-1.497 2.986-1.46 2.562-1.4 2.138-1.339 1.799-1.255 1.545-1.145 1.29-1.036 1.018-.873 .727-.655 .436-.436 .133-.473-.182-.764-.497-1.055-.739-1.309-.909-1.527-1.127-1.212-1.308-.994-1.454-.873-.727-.388-.242-.097 0 0M.763 4.873C.521 4.727 .315 4.582 .145 4.436-.218 5.066-.618 5.6-1.054 6.036-.86 6.157-.654 6.315-.436 6.509 .218 5.709 .618 5.164 .763 4.873M3.998 2.582C4.337 3.139 4.58 3.745 4.725 4.4 2.883 4.4 1.745 4.387 1.308 4.364V5.018C1.745 4.994 2.084 4.982 2.326 4.982H5.234C5.597 4.982 5.997 4.994 6.433 5.018V4.364C5.948 4.387 5.633 4.4 5.488 4.4 5.221 3.454 4.919 2.678 4.58 2.073L5.343 1.309C5.609 1.042 5.924 .715 6.288 .327 6.021 .157 5.803-.036 5.633-.255 5.367 .085 5.13 .369 4.925 .6 4.719 .83 4.434 1.127 4.071 1.491 3.755 1.103 3.428 .788 3.089 .545 2.75 .303 2.314 .024 1.781-.291 1.708-.122 1.526 .097 1.236 .364 1.672 .485 2.108 .703 2.544 1.018 2.98 1.333 3.319 1.648 3.562 1.964 3.295 2.278 2.69 2.812 1.745 3.564L2.253 4.073C3.077 3.442 3.658 2.945 3.998 2.582M2.726 6.4C2.944 6.545 3.113 6.691 3.235 6.836 3.865 6.182 4.24 5.782 4.361 5.636 4.216 5.515 4.034 5.357 3.816 5.164 3.695 5.406 3.331 5.818 2.726 6.4" fill="#2c292a"/>
<path transform="matrix(1,0,0,-1,231.417,247.962)" d="M0 0C-.243-.291-.424-.57-.545-.836-2.12-.158-3.393 .921-4.361 2.4-5.258 .969-6.457-.145-7.96-.945-8.081-.727-8.287-.497-8.578-.255-7.414 .23-6.512 .848-5.87 1.6-5.228 2.351-4.798 3.03-4.58 3.636-4.289 3.515-3.998 3.406-3.707 3.309-3.805 3.188-3.889 3.078-3.962 2.982-2.944 1.478-1.624 .485 0 0M-4.689-.618C-4.689-.231-4.713 .267-4.761 .873H-3.925C-3.95 .46-3.962-.049-3.962-.655V-3.236C-3.962-3.794-3.95-4.364-3.925-4.945H-4.725C-4.701-4.339-4.689-3.782-4.689-3.273Z" fill="#2c292a"/>
<path transform="matrix(1,0,0,-1,240.5109,249.63462)" d="M0 0V-.655C-.242-.631-.642-.618-1.2-.618-1.2-1.249-1.187-1.745-1.163-2.109H-1.89V-1.745H-3.853V-2.436C-3.877-2.727-3.98-2.921-4.162-3.018-4.343-3.115-4.701-3.2-5.234-3.273-5.283-3.03-5.404-2.764-5.597-2.473-5.161-2.473-4.87-2.46-4.725-2.436-4.58-2.412-4.507-2.34-4.507-2.218V-1.745H-6.542C-6.809-1.745-7.124-1.758-7.487-1.782V-1.127C-7.124-1.152-6.809-1.164-6.542-1.164H-4.507V-.618H-7.233C-7.548-.618-7.851-.631-8.141-.655V0C-7.851-.024-7.548-.036-7.233-.036H-4.507V.473H-6.615C-6.882 .473-7.173 .46-7.487 .436V1.091C-7.173 1.066-6.882 1.055-6.615 1.055H-4.507V1.527H-7.051C-7.027 1.891-7.015 2.218-7.015 2.509-7.015 2.824-7.027 3.127-7.051 3.418H-4.507V3.927H-7.087C-7.475 3.927-7.839 3.915-8.178 3.891V4.545C-7.839 4.521-7.487 4.509-7.124 4.509H-4.507C-4.507 4.678-4.519 4.897-4.543 5.164H-3.816C-3.841 4.969-3.853 4.751-3.853 4.509H-1.381C-.97 4.509-.545 4.521-.109 4.545V3.891C-.545 3.915-.97 3.927-1.381 3.927H-3.853V3.418H-1.236C-1.26 3.127-1.272 2.824-1.272 2.509-1.272 2.194-1.26 1.866-1.236 1.527H-3.853V1.055H-1.163C-1.187 .812-1.2 .448-1.2-.036-.836-.036-.436-.024 0 0M-4.507 2.836H-6.361V2.109H-4.507ZM-1.963 2.836H-3.8530002V2.109H-1.963ZM-1.89 .473H-3.8530002V-.036000015H-1.89ZM-1.89-.618H-3.8530002V-1.163H-1.89ZM-1.89-1.164" fill="#2c292a"/>
<path transform="matrix(1,0,0,-1,242.0086,248.68921)" d="M0 0C-.218 .073-.449 .121-.691 .145-.521 .509-.364 1.285-.218 2.473 0 2.424 .23 2.387 .472 2.364 .423 2.145 .266 1.357 0 0M1.345 3.091V-2.691C1.345-3.2 1.357-3.697 1.381-4.182H.618C.666-3.697 .69-3.2 .69-2.691V2.982C.69 3.466 .666 3.903 .618 4.291H1.381C1.357 3.878 1.345 3.478 1.345 3.091M1.526 2.473C1.696 2.497 1.902 2.545 2.144 2.618 2.29 2.109 2.411 1.721 2.508 1.454 2.241 1.382 2.011 1.309 1.817 1.236 1.768 1.527 1.672 1.939 1.526 2.473M2.399 1.418C2.98 1.394 3.513 1.382 3.998 1.382H4.725V1.964H4.034C3.622 1.964 3.198 1.951 2.762 1.927V2.545C3.198 2.521 3.622 2.509 4.034 2.509H4.725V3.018H3.961C3.574 3.018 3.101 3.006 2.544 2.982V3.6C3.126 3.576 3.598 3.564 3.961 3.564H4.725C4.725 3.806 4.712 4.048 4.689 4.291H5.452C5.427 4.048 5.415 3.806 5.415 3.564H6.397C6.808 3.564 7.196 3.576 7.56 3.6V2.982C7.196 3.006 6.808 3.018 6.397 3.018H5.415V2.509H6.106C6.493 2.509 6.893 2.521 7.305 2.545V1.927C6.869 1.951 6.469 1.964 6.106 1.964H5.415V1.382H6.469C7.051 1.382 7.523 1.394 7.887 1.418V.8C7.523 .824 7.038 .836 6.433 .836H4.034C3.404 .836 2.859 .824 2.399 .8ZM2.98-1.164C2.98-.606 2.968-.097 2.944 .364H7.087C7.063-.049 7.051-.436 7.051-.8V-3.527C7.051-3.794 6.954-3.964 6.76-4.036 6.566-4.109 6.324-4.169 6.033-4.218 6.009-4 5.924-3.769 5.779-3.527 6.118-3.527 6.312-3.491 6.36-3.418 6.409-3.345 6.433-3.079 6.433-2.618H3.634V-4.218H2.944C2.968-3.66 2.98-3.176 2.98-2.764ZM6.397-.182H3.6349998V-.83699998H6.397ZM6.397-1.382H3.6349998V-2.073H6.397ZM6.397-2.073" fill="#2c292a"/>
</g>
<path transform="matrix(1,0,0,-1,0,595.276)" d="M257.455 346.112H258.391V347.044H257.455ZM254.357 346.112H255.289V347.044H254.357ZM251.254 346.112H252.186V347.044H251.254Z" fill="#2c292a"/>
<path transform="matrix(1,0,0,-1,0,595.276)" d="M266.694 346.112H267.63V347.044H266.694ZM263.596 346.112H264.528V347.044H263.596ZM260.493 346.112H261.424V347.044H260.493Z" fill="#2c292a"/>
<g clip-path="url(#clip_5)">
<path transform="matrix(1,0,0,-1,268.661,266.5595)" stroke-width="1" stroke-linecap="butt" stroke-miterlimit="10" stroke-linejoin="miter" fill="none" stroke="#f43040" d="M0 0C-.386 4.023-3.735 7.152-7.93 7.162H-84.312C-88.761 7.151-92.328 3.582-92.328-.82-92.328-5.223-88.761-8.792-84.312-8.858H-7.93C-4.099-8.801-.961-6.185-.147-2.703L2.24-1.281 0 0Z"/>
<path transform="matrix(1,0,0,-1,186.181,265.8965)" d="M0 0C-.267-.388-.485-.727-.654-1.018-.8-.849-1.006-.679-1.272-.509-.812-.024-.406 .527-.054 1.145 .297 1.764 .557 2.412 .727 3.091 .896 2.969 1.175 2.848 1.563 2.727 1.418 2.533 1.127 2.012 .691 1.164V-3.564C.691-4.315 .703-4.921 .727-5.382H-.036C-.012-4.994 0-4.376 0-3.527ZM2.453 1.564C2.756 2.291 2.908 2.764 2.908 2.982 3.198 2.86 3.513 2.764 3.853 2.691 3.707 2.569 3.489 2.194 3.198 1.564H7.015C6.942 1.345 6.833 1.048 6.687 .673 6.542 .297 6.409-.061 6.288-.4 6.045-.327 5.803-.267 5.561-.218 5.73 .145 5.888 .533 6.033 .945H2.944C2.653 .315 2.314-.267 1.926-.8 1.732-.679 1.478-.582 1.163-.509 1.72 .145 2.15 .836 2.453 1.564M2.69-1.236C2.98-1.382 3.21-1.503 3.38-1.6 3.235-1.843 3.017-2.182 2.726-2.618 2.435-3.055 2.108-3.491 1.745-3.927 1.55-3.758 1.357-3.6 1.163-3.454 1.768-2.824 2.277-2.085 2.69-1.236M3.635-4.527C3.78-4.467 3.853-4.34 3.853-4.145V-1.091C3.853-.509 3.84-.085 3.816 .182H4.58C4.555-.085 4.543-.509 4.543-1.091V-4.545C4.543-4.86 4.41-5.073 4.143-5.182 3.876-5.291 3.513-5.382 3.053-5.454 3.004-5.212 2.883-4.933 2.69-4.618 3.174-4.618 3.489-4.587 3.635-4.527M7.233-3.418C7.087-3.515 6.857-3.661 6.542-3.854 6.13-3.079 5.657-2.303 5.125-1.527 5.367-1.382 5.561-1.261 5.706-1.164 6.288-1.964 6.797-2.715 7.233-3.418" fill="#2c292a"/>
<path transform="matrix(1,0,0,-1,195.6747,269.6783)" d="M0 0V2.873C-.412 2.873-.812 2.848-1.199 2.8V3.418H.727C.703 2.982 .691 2.618 .691 2.327V.145C1.248-.485 2.205-.8 3.562-.8 4.943-.8 6.033-.74 6.833-.618 6.663-.885 6.554-1.187 6.506-1.527 5.585-1.527 4.803-1.521 4.162-1.509 3.519-1.497 2.986-1.46 2.562-1.4 2.138-1.339 1.799-1.255 1.545-1.145 1.29-1.036 1.018-.873 .727-.655 .436-.436 .133-.473-.182-.764-.497-1.055-.739-1.309-.909-1.527-1.127-1.212-1.308-.994-1.454-.873-.727-.388-.242-.097 0 0M.763 4.873C.521 4.727 .315 4.582 .145 4.436-.218 5.066-.618 5.6-1.054 6.036-.86 6.157-.654 6.315-.436 6.509 .218 5.709 .618 5.164 .763 4.873M3.998 2.582C4.337 3.139 4.58 3.745 4.725 4.4 2.883 4.4 1.745 4.387 1.308 4.364V5.018C1.745 4.994 2.084 4.982 2.326 4.982H5.234C5.597 4.982 5.997 4.994 6.433 5.018V4.364C5.948 4.387 5.634 4.4 5.488 4.4 5.221 3.454 4.919 2.678 4.58 2.073L5.343 1.309C5.609 1.042 5.924 .715 6.288 .327 6.021 .157 5.803-.036 5.634-.255 5.367 .085 5.13 .369 4.925 .6 4.719 .83 4.434 1.127 4.071 1.491 3.756 1.103 3.428 .788 3.089 .545 2.75 .303 2.314 .024 1.781-.291 1.708-.122 1.526 .097 1.236 .364 1.672 .485 2.108 .703 2.544 1.018 2.98 1.333 3.319 1.648 3.562 1.964 3.295 2.278 2.69 2.812 1.745 3.564L2.253 4.073C3.077 3.442 3.658 2.945 3.998 2.582M2.726 6.4C2.944 6.545 3.113 6.691 3.235 6.836 3.865 6.182 4.24 5.782 4.361 5.636 4.216 5.515 4.034 5.357 3.816 5.164 3.695 5.406 3.331 5.818 2.726 6.4" fill="#2c292a"/>
<path transform="matrix(1,0,0,-1,204.9502,264.11473)" d="M0 0C0 .412-.012 .788-.036 1.127H.727C.703 .739 .691 .364 .691 0V-.873C1.005-.873 1.332-.861 1.672-.836V-1.491C1.332-1.467 1.005-1.455 .691-1.455V-2.8C.884-2.631 1.03-2.509 1.127-2.436 1.393-2.776 1.696-3.212 2.035-3.745 1.89-3.818 1.684-3.964 1.417-4.182 1.151-3.697 .909-3.273 .691-2.909V-5.636C.691-6.145 .703-6.654 .727-7.164H-.036C-.012-6.63 0-6.121 0-5.636V-3.055C-.388-3.976-.776-4.715-1.163-5.273-1.26-5.054-1.406-4.836-1.599-4.618-.897-3.673-.412-2.618-.145-1.455-.533-1.455-.957-1.467-1.417-1.491V-.836C-.957-.861-.485-.873 0-.873ZM4.398-.473C4.64 .06 4.882 .642 5.125 1.273 5.512 1.127 5.766 1.018 5.888 .945 5.67 .678 5.415 .206 5.125-.473H5.27C5.948-.449 6.433-.436 6.724-.436V-1.091C6.457-1.067 6.082-1.055 5.597-1.055H4.689V-2.473H5.27C5.827-2.449 6.239-2.436 6.506-2.436V-3.091C6.191-3.067 5.815-3.055 5.379-3.055H4.689V-4.545H5.815C6.275-4.522 6.651-4.509 6.942-4.509V-5.164C6.675-5.14 6.3-5.127 5.815-5.127H4.689V-5.927C4.689-6.436 4.701-6.86 4.725-7.2H3.998V-5.127H3.126C2.665-5.127 2.217-5.14 1.781-5.164V-4.473C2.217-4.497 2.677-4.522 3.162-4.545H3.998V-3.055H3.38C2.968-3.055 2.604-3.067 2.29-3.091V-2.4C2.581-2.424 2.956-2.449 3.416-2.473H3.998V-1.055H3.126C2.713-1.055 2.362-1.067 2.072-1.091V-.4C2.362-.424 2.713-.449 3.126-.473ZM3.816 0C3.526-.097 3.319-.182 3.198-.255 3.029 .157 2.847 .557 2.653 .945 2.92 1.066 3.126 1.164 3.271 1.236 3.489 .824 3.671 .412 3.816 0" fill="#2c292a"/>
<path transform="matrix(1,0,0,-1,214.1531,269.6783)" d="M0 0V2.873C-.412 2.873-.812 2.848-1.199 2.8V3.418H.727C.703 2.982 .691 2.618 .691 2.327V.145C1.248-.485 2.205-.8 3.562-.8 4.943-.8 6.033-.74 6.833-.618 6.663-.885 6.554-1.187 6.506-1.527 5.585-1.527 4.803-1.521 4.162-1.509 3.519-1.497 2.986-1.46 2.562-1.4 2.138-1.339 1.799-1.255 1.545-1.145 1.29-1.036 1.018-.873 .727-.655 .436-.436 .133-.473-.182-.764-.497-1.055-.739-1.309-.909-1.527-1.127-1.212-1.308-.994-1.454-.873-.727-.388-.242-.097 0 0M.763 4.873C.521 4.727 .315 4.582 .145 4.436-.218 5.066-.618 5.6-1.054 6.036-.86 6.157-.654 6.315-.436 6.509 .218 5.709 .618 5.164 .763 4.873M3.998 2.582C4.337 3.139 4.58 3.745 4.725 4.4 2.883 4.4 1.745 4.387 1.308 4.364V5.018C1.745 4.994 2.084 4.982 2.326 4.982H5.234C5.597 4.982 5.997 4.994 6.433 5.018V4.364C5.948 4.387 5.634 4.4 5.488 4.4 5.221 3.454 4.919 2.678 4.58 2.073L5.343 1.309C5.609 1.042 5.924 .715 6.288 .327 6.021 .157 5.803-.036 5.634-.255 5.367 .085 5.13 .369 4.925 .6 4.719 .83 4.434 1.127 4.071 1.491 3.756 1.103 3.428 .788 3.089 .545 2.75 .303 2.314 .024 1.781-.291 1.708-.122 1.526 .097 1.236 .364 1.672 .485 2.108 .703 2.544 1.018 2.98 1.333 3.319 1.648 3.562 1.964 3.295 2.278 2.69 2.812 1.745 3.564L2.253 4.073C3.077 3.442 3.658 2.945 3.998 2.582M2.726 6.4C2.944 6.545 3.113 6.691 3.235 6.836 3.865 6.182 4.24 5.782 4.361 5.636 4.216 5.515 4.034 5.357 3.816 5.164 3.695 5.406 3.331 5.818 2.726 6.4" fill="#2c292a"/>
<path transform="matrix(1,0,0,-1,223.4286,264.11473)" d="M0 0C0 .412-.012 .788-.036 1.127H.727C.703 .739 .691 .364 .691 0V-.873C1.005-.873 1.332-.861 1.672-.836V-1.491C1.332-1.467 1.005-1.455 .691-1.455V-2.8C.884-2.631 1.03-2.509 1.127-2.436 1.393-2.776 1.696-3.212 2.035-3.745 1.89-3.818 1.684-3.964 1.417-4.182 1.151-3.697 .909-3.273 .691-2.909V-5.636C.691-6.145 .703-6.654 .727-7.164H-.036C-.012-6.63 0-6.121 0-5.636V-3.055C-.388-3.976-.776-4.715-1.163-5.273-1.26-5.054-1.406-4.836-1.599-4.618-.897-3.673-.412-2.618-.145-1.455-.533-1.455-.957-1.467-1.417-1.491V-.836C-.957-.861-.485-.873 0-.873ZM4.398-.473C4.64 .06 4.882 .642 5.125 1.273 5.512 1.127 5.766 1.018 5.888 .945 5.67 .678 5.415 .206 5.125-.473H5.27C5.948-.449 6.433-.436 6.724-.436V-1.091C6.457-1.067 6.082-1.055 5.597-1.055H4.689V-2.473H5.27C5.827-2.449 6.239-2.436 6.506-2.436V-3.091C6.191-3.067 5.815-3.055 5.379-3.055H4.689V-4.545H5.815C6.275-4.522 6.651-4.509 6.942-4.509V-5.164C6.675-5.14 6.3-5.127 5.815-5.127H4.689V-5.927C4.689-6.436 4.7-6.86 4.725-7.2H3.998V-5.127H3.126C2.665-5.127 2.217-5.14 1.781-5.164V-4.473C2.217-4.497 2.677-4.522 3.162-4.545H3.998V-3.055H3.38C2.968-3.055 2.604-3.067 2.29-3.091V-2.4C2.581-2.424 2.956-2.449 3.417-2.473H3.998V-1.055H3.126C2.713-1.055 2.362-1.067 2.072-1.091V-.4C2.362-.424 2.713-.449 3.126-.473ZM3.816 0C3.525-.097 3.319-.182 3.198-.255 3.029 .157 2.847 .557 2.653 .945 2.919 1.066 3.126 1.164 3.271 1.236 3.489 .824 3.671 .412 3.816 0" fill="#2c292a"/>
<path transform="matrix(1,0,0,-1,292.6629,286.0973)" stroke-width="1" stroke-linecap="butt" stroke-miterlimit="10" stroke-linejoin="miter" fill="none" stroke="#f43040" d="M0 0C0 4.403-3.567 7.971-7.913 7.866H-84.512C-88.698 7.967-92.108 4.695-92.455 .62L-94.466-.577-92.243-1.848C-91.352-5.376-88.235-7.966-84.512-7.938H-7.913C-3.567-7.971 0-4.403 0 0Z"/>
<path transform="matrix(1,0,0,-1,213.5636,283.0739)" d="M0 0C-.073-.327-.145-.649-.218-.964H1.599C1.478-1.691 1.345-2.345 1.199-2.927 1.054-3.509 .823-4.115 .509-4.745 .896-5.085 1.345-5.497 1.854-5.982 1.635-6.152 1.441-6.334 1.272-6.527 .909-6.067 .533-5.667 .145-5.327-.17-5.715-.485-6.061-.8-6.364-1.115-6.666-1.442-6.951-1.781-7.218-1.878-7.048-2.06-6.866-2.326-6.673-1.963-6.454-1.617-6.206-1.29-5.927-.963-5.649-.654-5.303-.363-4.891-.8-4.552-1.272-4.224-1.781-3.909-1.466-3.182-1.212-2.394-1.018-1.545-1.406-1.545-1.745-1.558-2.035-1.582V-.927C-1.745-.952-1.357-.964-.872-.964-.727-.382-.606 .309-.509 1.109-.267 1.036 .012 .964 .327 .891 .182 .624 .073 .327 0 0M-.036-4.309C.133-4.018 .291-3.631 .436-3.145 .581-2.661 .702-2.127 .8-1.545H-.327C-.545-2.345-.763-3.049-.981-3.654-.618-3.897-.303-4.115-.036-4.309M5.961 .236V-.418C5.718-.612 5.452-.825 5.161-1.055 4.87-1.285 4.567-1.534 4.252-1.8V-2.927H5.234C5.548-2.927 5.9-2.915 6.288-2.891V-3.582C5.9-3.558 5.548-3.545 5.234-3.545H4.252V-6.164C4.252-6.624 4.113-6.915 3.834-7.036 3.556-7.157 3.174-7.254 2.69-7.327 2.617-7.06 2.508-6.782 2.362-6.491 2.895-6.491 3.229-6.46 3.362-6.4 3.495-6.34 3.562-6.164 3.562-5.873V-3.545H3.017C2.508-3.545 2.011-3.558 1.526-3.582V-2.891C2.011-2.915 2.471-2.927 2.908-2.927H3.562C3.562-2.564 3.556-2.279 3.544-2.073 3.531-1.867 3.501-1.703 3.453-1.582 3.671-1.436 3.925-1.249 4.216-1.018 4.507-.788 4.761-.564 4.979-.345H2.799C2.556-.345 2.229-.358 1.817-.382V.273C2.229 .248 2.556 .236 2.799 .236Z" fill="#2c292a"/>
<path transform="matrix(1,0,0,-1,222.7302,283.7829)" d="M0 0H1.635C1.611-.412 1.599-.934 1.599-1.564V-4.764C1.599-5.127 1.611-5.649 1.635-6.327H.909V-5.6H-.945V-6.4H-1.672C-1.648-5.624-1.635-5.14-1.635-4.945V-1.6C-1.635-.945-1.648-.412-1.672 0H-.618C-.497 .557-.4 1.139-.327 1.745 .012 1.624 .291 1.539 .509 1.491 .387 1.273 .218 .775 0 0M.909-.618H-.945V-2.4359999H.909ZM.909-3.055H-.945V-4.9820005H.909ZM5.743-5.491C5.694-5.927 5.464-6.218 5.052-6.364 4.64-6.509 4.18-6.606 3.671-6.654 3.646-6.387 3.537-6.109 3.344-5.818 3.828-5.842 4.21-5.83 4.489-5.782 4.767-5.734 4.943-5.624 5.015-5.454 5.088-5.285 5.143-4.788 5.179-3.964 5.215-3.14 5.245-1.988 5.27-.509H3.162C2.968-.97 2.69-1.515 2.326-2.145 2.156-1.976 1.95-1.843 1.708-1.745 1.926-1.455 2.132-1.103 2.326-.691 2.52-.279 2.69 .169 2.835 .655 2.98 1.139 3.065 1.515 3.089 1.782 3.429 1.636 3.719 1.527 3.962 1.454 3.84 1.26 3.737 1.048 3.653 .818 3.568 .587 3.477 .364 3.38 .145H5.96C5.936-.364 5.924-.836 5.924-1.273 5.9-2.752 5.839-4.158 5.743-5.491M3.78-2.764C3.925-3.055 4.095-3.431 4.289-3.891 4.119-3.964 3.889-4.085 3.598-4.254 3.429-3.794 3.271-3.4 3.126-3.073 2.98-2.745 2.835-2.473 2.69-2.255 2.859-2.158 3.077-2.036 3.344-1.891Z" fill="#2c292a"/>
<path transform="matrix(1,0,0,-1,292.5905,304.54283)" stroke-width="1" stroke-linecap="butt" stroke-miterlimit="10" stroke-linejoin="miter" fill="none" stroke="#f43040" d="M0 0C0 4.402-3.567 7.971-8.057 7.91H-84.44C-88.59 7.967-91.935 4.85-92.361 .775L-94.609-.533-92.227-1.864C-91.413-5.331-88.259-7.96-84.44-7.894H-8.057C-3.567-7.971 0-4.402 0 0Z"/>
<path transform="matrix(1,0,0,-1,215.1332,304.0591)" d="M0 0C-.024-.461-.036-.934-.036-1.418V-3.491C.739-4.024 1.829-4.297 3.235-4.309 4.64-4.322 5.766-4.279 6.615-4.182 6.469-4.473 6.372-4.751 6.324-5.018 5.33-5.042 4.507-5.042 3.853-5.018 3.198-4.994 2.635-4.957 2.163-4.909 1.69-4.86 1.302-4.782 1-4.673 .696-4.564 .406-4.424 .127-4.254-.152-4.085-.394-4.103-.6-4.309-.806-4.515-1.042-4.812-1.308-5.2-1.478-5.006-1.684-4.824-1.926-4.654-1.369-4.121-.969-3.745-.727-3.527V-.618C-.994-.618-1.369-.631-1.854-.655V.036C-1.345 .012-.945 0-.654 0ZM.436 1.345C.218 1.224 0 1.066-.218 .873-.533 1.406-.909 1.915-1.345 2.4-1.103 2.569-.897 2.727-.727 2.873-.122 2.097 .266 1.587 .436 1.345M4.979 2.473C5.221 2.473 5.597 2.485 6.106 2.509V1.818C5.67 1.842 5.234 1.855 4.798 1.855H3.962L3.489 .909V-2.473C3.489-2.909 3.501-3.358 3.526-3.818H2.762C2.786-3.358 2.799-2.897 2.799-2.436V-.109C2.362-.715 1.659-1.418 .691-2.218 .569-2.024 .387-1.831 .145-1.636 .678-1.345 1.205-.922 1.726-.364 2.247 .194 2.726 .933 3.162 1.855H1.49C1.248 1.855 1.005 1.842 .763 1.818V2.509C1.005 2.509 1.345 2.497 1.781 2.473ZM6.433-1.673C6.215-1.794 5.997-1.952 5.779-2.145 5.536-1.758 4.979-1.055 4.107-.036 4.301 .109 4.47 .266 4.616 .436 4.955 .073 5.561-.631 6.433-1.673" fill="#2c292a"/>
<path transform="matrix(1,0,0,-1,229.4247,305.15)" d="M0 0C.411 0 .872 .012 1.381 .036V-.618C.872-.594 .411-.582 0-.582H-2.326V-1.491C-.897-1.491 .036-1.479 .472-1.455V-2.109C.036-2.085-.897-2.073-2.326-2.073V-3.164C-1.866-3.236-1.297-3.273-.618-3.273 .06-3.273 .811-3.224 1.635-3.127 1.441-3.394 1.32-3.685 1.272-4H-.582C-1.115-4-1.612-3.969-2.072-3.909-2.532-3.848-2.987-3.733-3.435-3.564-3.883-3.394-4.361-3.091-4.871-2.655-4.967-2.849-5.107-3.073-5.288-3.327-5.47-3.582-5.743-3.891-6.106-4.254-6.349-4.06-6.591-3.891-6.833-3.745-6.349-3.454-5.949-3.031-5.634-2.473-5.319-1.915-5.137-1.394-5.088-.909L-4.216-1.164C-4.289-1.261-4.411-1.54-4.58-2-4.144-2.461-3.623-2.788-3.017-2.982V-.582H-5.343C-5.779-.582-6.24-.594-6.724-.618V.036C-6.215 .012-5.755 0-5.343 0ZM-.036 2.436C-.036 1.806-.025 1.212 0 .655H-5.416C-5.392 1.212-5.379 1.806-5.379 2.436-5.379 3.091-5.392 3.6-5.416 3.964H0C-.025 3.6-.036 3.091-.036 2.436M-.763 3.382H-4.652V2.655H-.763ZM-.763 2.036H-4.652V1.2720001H-.763ZM-.763 1.273" fill="#2c292a"/>
<path transform="matrix(1,0,0,-1,239.9723,301.9864)" d="M0 0C-.436 .024-.812 .036-1.127 .036H-3.271C-3.441-.303-3.647-.679-3.889-1.091V-5.636C-3.889-6.121-3.877-6.666-3.853-7.273H-4.652C-4.628-6.691-4.616-6.145-4.616-5.636V-2.073C-5.367-3.115-6.385-4.073-7.669-4.945-7.863-4.654-8.045-4.449-8.214-4.327-7.73-4.109-7.087-3.643-6.288-2.927-5.488-2.212-4.749-1.224-4.071 .036H-6.469C-6.93 .036-7.414 .024-7.923 0V.727C-7.196 .703-6.639 .691-6.252 .691H-1.163C-.848 .691-.461 .703 0 .727ZM-3.235-2.145C-3.041-1.976-2.884-1.806-2.762-1.636-2.181-2.17-1.684-2.636-1.272-3.036-.86-3.436-.473-3.831-.109-4.218-.352-4.412-.57-4.618-.763-4.836-1.224-4.254-2.048-3.358-3.235-2.145" fill="#2c292a"/>
<path transform="matrix(1,0,0,-1,243.3779,303.9864)" d="M0 0C-.109-.194-.261-.436-.454-.727V-4C-.454-4.315-.442-4.8-.418-5.454H-1.181C-1.157-4.727-1.145-4.182-1.145-3.818V-1.491C-1.363-1.855-1.654-2.218-2.017-2.582-2.187-2.34-2.344-2.134-2.49-1.964-1.933-1.431-1.496-.922-1.181-.436-.867 .048-.588 .509-.345 .945-.103 .8 .175 .642 .491 .473 .273 .351 .109 .194 0 0M-.6 1.909C-.915 1.412-1.351 .86-1.908 .255-2.053 .448-2.211 .63-2.38 .8-1.993 1.187-1.642 1.606-1.327 2.055-1.012 2.503-.781 2.897-.636 3.236-.394 3.091-.127 2.909 .164 2.691-.031 2.666-.285 2.406-.6 1.909M4.852 .036C5.312 .036 5.736 .048 6.124 .073V-.655C5.736-.631 5.325-.618 4.888-.618H4.38V-4.582C4.404-4.873 4.313-5.073 4.107-5.182 3.901-5.291 3.495-5.382 2.89-5.454 2.841-5.164 2.708-4.873 2.49-4.582 2.901-4.63 3.192-4.648 3.362-4.636 3.531-4.624 3.628-4.497 3.653-4.254V-.618H2.199C1.738-.618 1.302-.631 .89-.655V.073C1.327 .048 1.763 .036 2.199 .036ZM4.234 2.509C4.646 2.509 5.07 2.521 5.506 2.545V1.855C5.07 1.878 4.621 1.891 4.162 1.891H2.817C2.283 1.891 1.823 1.878 1.436 1.855V2.545C1.823 2.521 2.283 2.509 2.817 2.509Z" fill="#2c292a"/>
<path transform="matrix(1,0,0,-1,192.9141,400.04573)" d="M0 0C-.17-.364-.376-.764-.618-1.2-.763-1.055-.957-.885-1.199-.691-.909-.449-.588 .097-.236 .945 .115 1.794 .351 2.533 .473 3.164 .714 3.018 .993 2.909 1.308 2.836 1.211 2.764 1.109 2.587 1 2.309 .891 2.03 .763 1.66 .618 1.2V-3.564C.618-4.194 .63-4.703 .654-5.091H-.036C-.012-4.654 0-4.134 0-3.527ZM3.962 2.727C3.937 2.46 3.925 2.06 3.925 1.527 3.925 .994 3.937 .557 3.962 .218H2.072V-.764H2.835C3.053-.764 3.344-.752 3.707-.727V-1.382C3.344-1.358 3.053-1.345 2.835-1.345H2.072V-2.436H2.762C3.126-2.436 3.453-2.424 3.744-2.4V-3.054C3.477-3.031 3.15-3.018 2.762-3.018H2.072V-5.091H1.454C1.478-4.703 1.49-4.303 1.49-3.891V1.636C1.49 2.145 1.478 2.509 1.454 2.727ZM3.307 2.145H2.071V.79999998H3.307ZM6.869-.582C6.748-1.697 6.433-2.703 5.924-3.6 6.36-4.061 6.845-4.412 7.378-4.654 7.184-4.824 7.015-5.018 6.869-5.236 6.481-4.994 6.033-4.606 5.524-4.073 5.016-4.557 4.446-4.945 3.816-5.236 3.695-5.018 3.537-4.824 3.344-4.654 4.071-4.436 4.676-4.073 5.161-3.564 4.798-2.958 4.519-2.158 4.325-1.164L4.143-1.2V-.545C4.434-.57 4.858-.582 5.415-.582ZM6.833 2.8C6.808 2.533 6.79 2.109 6.778 1.527 6.766 .945 6.784 .509 6.833 .218H5.779C5.27 .218 4.809 .206 4.398 .182V.8C4.785 .775 5.234 .764 5.743 .764H6.142V2.255H5.779C5.221 2.255 4.785 2.242 4.47 2.218V2.836C4.809 2.812 5.197 2.8 5.633 2.8ZM5.561-3.018C5.875-2.485 6.07-1.867 6.142-1.164H4.907C5.1-2.061 5.318-2.679 5.561-3.018" fill="#2c292a"/>
<path transform="matrix(1,0,0,-1,201.6082,401.173)" d="M0 0C-.242 .048-.461 .097-.654 .145-.485 .775-.352 1.527-.254 2.4-.061 2.375 .157 2.339 .4 2.291 .254 1.273 .121 .509 0 0M1.417 2.945V-2.509C1.417-3.018 1.429-3.527 1.454-4.036H.691C.714-3.527 .727-3.018 .727-2.509V2.945C.727 3.454 .714 3.927 .691 4.364H1.454C1.429 3.878 1.417 3.406 1.417 2.945M2.653 1.236C2.435 1.164 2.241 1.078 2.072 .982 1.902 1.515 1.72 2.012 1.526 2.473 1.72 2.569 1.902 2.654 2.072 2.727 2.265 2.339 2.459 1.842 2.653 1.236M3.744 2.327H4.87V3.091C4.87 3.503 4.858 3.903 4.834 4.291H5.597C5.573 3.903 5.561 3.503 5.561 3.091V2.327H6.288C6.602 2.327 6.978 2.339 7.414 2.364V1.673C6.978 1.697 6.602 1.709 6.288 1.709H5.561V-.218H6.215C6.578-.218 6.942-.206 7.305-.182V-.873C6.942-.849 6.578-.836 6.215-.836H5.561V-3.091H6.542C6.954-3.091 7.354-3.079 7.742-3.054V-3.709C7.354-3.685 6.954-3.673 6.542-3.673H3.744C3.307-3.673 2.883-3.685 2.471-3.709V-3.054C2.883-3.079 3.295-3.091 3.707-3.091H4.87V-.836H4.252C3.937-.836 3.574-.849 3.162-.873V-.182C3.477-.206 3.84-.218 4.252-.218H4.87V1.709H3.598C3.526 1.345 3.331 .812 3.017 .109 2.75 .255 2.532 .339 2.362 .364 2.702 1.066 2.92 1.673 3.017 2.182 3.113 2.691 3.198 3.175 3.271 3.636 3.513 3.564 3.755 3.503 3.998 3.454 3.876 3.018 3.792 2.642 3.744 2.327" fill="#2c292a"/>
<path transform="matrix(1,0,0,-1,210.1932,399.3548)" d="M0 0C.364-.025 .727-.036 1.09-.036H1.854C1.829-.497 1.817-.994 1.817-1.527V-3.891C2.108-3.576 2.362-3.285 2.581-3.018 2.653-3.285 2.774-3.515 2.944-3.709 2.629-4.024 2.35-4.309 2.108-4.564 1.865-4.818 1.623-5.115 1.381-5.454 1.187-5.187 .993-4.982 .8-4.836 .993-4.667 1.102-4.449 1.127-4.182V-.545C.739-.545 .364-.558 0-.582ZM2.581 1.345C2.411 1.2 2.229 1.03 2.035 .836 1.575 1.345 1.139 1.782 .727 2.145 .921 2.291 1.09 2.46 1.236 2.654 1.745 2.218 2.193 1.782 2.581 1.345M8.141 1.709C7.633 1.709 7.075 1.678 6.469 1.618 5.864 1.557 5.137 1.491 4.289 1.418V-.255H7.16C7.451-.255 7.863-.243 8.396-.218V-.836C8.032-.812 7.633-.8 7.196-.8H6.724V-2.691C7.426-3.152 8.008-3.54 8.468-3.854 8.25-4.049 8.092-4.254 7.996-4.473 7.535-4.085 7.111-3.77 6.724-3.527V-4.4C6.724-5.03 6.736-5.539 6.76-5.927H5.997C6.021-5.515 6.033-5.006 6.033-4.4V-3.127C5.864-3.006 5.415-2.727 4.688-2.291 4.81-2.122 4.919-1.927 5.016-1.709 5.427-1.952 5.766-2.145 6.033-2.291V-.8H4.325C4.301-1.503 4.258-2.115 4.198-2.636 4.137-3.158 4.046-3.667 3.925-4.164 3.804-4.661 3.537-5.273 3.126-6 2.908-5.806 2.665-5.66 2.399-5.564 2.738-5.103 2.998-4.643 3.18-4.182 3.362-3.722 3.477-3.182 3.526-2.564 3.574-1.945 3.604-1.164 3.616-.218 3.628 .727 3.61 1.466 3.562 2 4.507 2.024 5.306 2.073 5.961 2.145 6.615 2.218 7.196 2.327 7.705 2.473 7.802 2.23 7.947 1.975 8.141 1.709" fill="#2c292a"/>
<path transform="matrix(1,0,0,-1,219.7596,398.4458)" d="M0 0C.387-.025 .8-.036 1.236-.036H3.489C3.489 .666 3.477 1.212 3.453 1.6H4.252C4.228 1.212 4.216 .666 4.216-.036H6.797C7.135-.036 7.511-.025 7.923 0V-.655C7.487-.631 7.111-.618 6.797-.618H4.216C4.24-1.006 4.355-1.418 4.561-1.855 4.767-2.291 4.979-2.654 5.197-2.945 5.73-2.509 6.227-1.952 6.688-1.273 6.857-1.467 7.099-1.661 7.414-1.855 7.124-2 6.481-2.534 5.488-3.454 5.803-3.867 6.184-4.254 6.633-4.618 7.081-4.982 7.572-5.236 8.105-5.382 7.765-5.576 7.523-5.806 7.378-6.073 6.845-5.782 6.306-5.376 5.761-4.854 5.215-4.334 4.7-3.515 4.216-2.4V-5.636C4.24-6 4.125-6.242 3.871-6.364 3.616-6.484 3.247-6.569 2.762-6.618 2.713-6.375 2.604-6.109 2.435-5.818 2.847-5.843 3.131-5.836 3.289-5.8 3.447-5.764 3.513-5.636 3.489-5.418V-3.418C2.52-4.17 1.823-4.715 1.399-5.054 .975-5.394 .63-5.685 .363-5.927 .145-5.685-.061-5.467-.254-5.273 .085-5.103 .521-4.843 1.054-4.491 1.587-4.14 2.399-3.503 3.489-2.582V-.618H1.236C.8-.618 .387-.631 0-.655ZM2.581-2.473 1.963-3.018C1.599-2.606 1.114-2.182 .509-1.745L1.09-1.236C1.623-1.673 2.12-2.085 2.581-2.473M7.015 .582C6.845 .46 6.663 .303 6.469 .109 6.203 .4 5.815 .751 5.306 1.164 5.452 1.285 5.633 1.418 5.852 1.564 6.239 1.297 6.627 .969 7.015 .582" fill="#2c292a"/>
<path transform="matrix(1,0,0,-1,235.8497,398.66389)" d="M0 0C-.254-.267-.612-.631-1.072-1.091H-.054C.357-1.091 .782-1.079 1.218-1.055V-1.709C.782-1.685 .345-1.673-.091-1.673H-1.799C-2.187-1.964-2.623-2.279-3.107-2.618H-.018C-.043-3.055-.054-3.454-.054-3.818V-5.091C-.054-5.527-.043-6-.018-6.509H-.745V-5.964H-4.234V-6.509H-4.997C-4.974-6.121-4.961-5.757-4.961-5.418V-3.745C-5.446-4.012-5.991-4.279-6.597-4.545-6.839-4.206-7.009-4-7.105-3.927-6.936-3.879-6.615-3.764-6.142-3.582-5.67-3.4-5.276-3.2-4.961-2.982V-2.618H-4.271C-3.738-2.327-3.265-2.012-2.853-1.673H-5.434C-5.942-1.673-6.415-1.685-6.851-1.709V-1.055C-6.367-1.079-5.894-1.091-5.434-1.091H-3.507V.036H-4.598C-5.01 .036-5.385 .024-5.724 0V.655C-5.385 .63-5.01 .618-4.598 .618H-3.507C-3.507 .982-3.52 1.394-3.544 1.855H-2.744C-2.768 1.515-2.78 1.103-2.78 .618H-2.235C-1.92 .618-1.557 .63-1.145 .655V0C-1.557 .024-1.92 .036-2.235 .036H-2.78V-1.091H-2.053C-1.714-.825-1.375-.509-1.036-.145-.697 .218-.345 .678 .018 1.236 .285 .969 .503 .775 .672 .655 .478 .485 .255 .266 0 0M-.745-3.2H-4.234V-3.964H-.745ZM-.745-4.545H-4.234V-5.381H-.745ZM-.745-5.382" fill="#2c292a"/>
</g>
<path transform="matrix(1,0,0,-1,242.4821,404.3002)" d="M0 0H-1.263L1.649 2.914H-4.184V3.813H1.649L-1.263 6.727H0L3.362 3.364Z" fill="#2c292a"/>
<g clip-path="url(#clip_6)">
<path transform="matrix(1,0,0,-1,248.0275,404.26393)" d="M0 0C.206 .024 .309 .218 .309 .582V2.545C-.224 2.351-.576 2.194-.745 2.073-.867 2.364-1 2.642-1.145 2.909-.903 2.933-.418 3.066 .309 3.309V4.909C-.224 4.909-.685 4.897-1.072 4.873V5.6C-.636 5.575-.176 5.564 .309 5.564 .309 6.46 .284 7.139 .236 7.6H1.108C1.06 7.139 1.036 6.46 1.036 5.564 1.302 5.564 1.678 5.575 2.163 5.6V4.873C1.678 4.897 1.302 4.909 1.036 4.909V3.527C1.375 3.648 1.702 3.782 2.017 3.927 2.017 3.709 2.029 3.478 2.053 3.236 1.665 3.115 1.326 2.994 1.036 2.873V.4C1.06-.109 .951-.436 .709-.582 .466-.727 .042-.836-.563-.909-.612-.569-.721-.266-.89 0-.503-.025-.206-.025 0 0M6.342 .218C6.754 .218 7.142 .23 7.505 .255V-.436C7.069-.412 6.657-.4 6.269-.4H3.107C2.622-.4 2.174-.412 1.763-.436V.255C2.199 .23 2.635 .218 3.071 .218ZM2.744 1.564C2.768 2.073 2.78 3.006 2.78 4.364 2.78 5.721 2.768 6.606 2.744 7.018H6.778C6.754 6.557 6.742 5.673 6.742 4.364 6.742 3.055 6.754 2.121 6.778 1.564ZM6.051 6.364H3.434V4.619H6.051ZM6.051 3.964H3.434V2.2189999H6.051ZM6.051 2.218" fill="#2c292a"/>
<path transform="matrix(1,0,0,-1,260.7375,397.5003)" d="M0 0C1.696 0 2.738 .012 3.126 .036V-.582C2.69-.558 1.648-.545 0-.545V-1.236C1.43-1.236 2.302-1.225 2.617-1.2V-1.818C2.302-1.794 1.43-1.782 0-1.782V-2.473C2.108-2.473 3.38-2.461 3.816-2.436V-3.054C3.38-3.031 2.944-3.018 2.508-3.018H-3.198C-3.683-3.018-4.083-3.031-4.398-3.054V-2.436C-4.059-2.461-2.835-2.473-.727-2.473V-1.782C-2.108-1.782-2.968-1.794-3.307-1.818V-1.2C-2.968-1.225-2.108-1.236-.727-1.236V-.545C-2.399-.545-3.453-.558-3.889-.582V.036C-3.55 .012-2.496 0-.727 0-.727 .194-.739 .436-.763 .727H.036C.012 .436 0 .194 0 0M-2.598-6.854C-2.175-6.77-1.793-6.624-1.454-6.418-1.115-6.212-.885-5.94-.763-5.6-.642-5.261-.57-4.873-.545-4.436-.376-4.485-.121-4.545 .218-4.618 .121-4.909 .024-5.236-.073-5.6-.17-5.964-.315-6.267-.509-6.509-.703-6.752-1.066-6.987-1.599-7.218-2.132-7.448-2.884-7.612-3.853-7.709-3.95-7.442-4.083-7.212-4.252-7.018-3.574-6.994-3.023-6.939-2.598-6.854M2.581-4.582C2.581-5.043 2.593-5.515 2.617-6H1.89V-4.036H-2.471V-6.145H-3.162C-3.138-5.491-3.126-4.982-3.126-4.618-3.126-4.231-3.138-3.843-3.162-3.454H2.617C2.593-3.745 2.581-4.122 2.581-4.582M3.489-7.2C3.319-7.394 3.162-7.6 3.017-7.818 2.508-7.503 1.587-7.006 .255-6.327 .375-6.182 .509-6 .654-5.782 1.163-6.049 2.108-6.521 3.489-7.2" fill="#2c292a"/>
<path transform="matrix(1,0,0,-1,267.4327,398.70033)" d="M0 0V-4.618C0-5.249 .012-5.878 .036-6.509H-.763C-.739-5.878-.727-5.261-.727-4.654V-1.127C-1.018-1.564-1.296-1.94-1.563-2.255-1.684-2.061-1.853-1.879-2.072-1.709-1.684-1.37-1.272-.818-.836-.055-.4 .709-.085 1.406 .109 2.036 .4 1.891 .678 1.769 .945 1.673 .727 1.406 .412 .848 0 0M5.815 .764C4.919 .594 4.264 .473 3.853 .4V-1.891H5.343C5.706-1.891 6.057-1.879 6.397-1.855V-2.545C6.057-2.522 5.718-2.509 5.379-2.509H3.853V-5.2H4.979C5.318-5.2 5.682-5.188 6.07-5.164V-5.854C5.682-5.83 5.318-5.818 4.979-5.818H2.108C1.72-5.818 1.32-5.83 .909-5.854V-5.164C1.32-5.188 1.72-5.2 2.108-5.2H3.126V-2.509H1.527C1.114-2.509 .763-2.522 .473-2.545V-1.855C.787-1.879 1.139-1.891 1.527-1.891H3.126V.291C2.181 .169 1.563 .097 1.272 .073 1.2 .339 1.09 .557 .945 .727 1.454 .727 2.199 .806 3.18 .964 4.162 1.121 4.907 1.297 5.416 1.491 5.585 1.127 5.718 .885 5.815 .764" fill="#2c292a"/>
<path transform="matrix(1,0,0,-1,84.04,236.0459)" d="M0 0C-.487 .027-.907 .041-1.258 .041H-3.651C-3.841-.339-4.071-.758-4.341-1.218V-6.292C-4.341-6.833-4.328-7.441-4.301-8.118H-5.193C-5.167-7.469-5.153-6.86-5.153-6.292V-2.314C-5.991-3.477-7.127-4.546-8.561-5.52-8.777-5.196-8.98-4.966-9.169-4.83-8.628-4.587-7.911-4.066-7.019-3.268-6.126-2.47-5.302-1.367-4.544 .041H-7.222C-7.736 .041-8.277 .027-8.845 0V.812C-8.033 .785-7.411 .771-6.978 .771H-1.298C-.947 .771-.514 .785 0 .812ZM-3.611-2.395C-3.395-2.206-3.219-2.016-3.083-1.827-2.434-2.422-1.88-2.943-1.42-3.389-.96-3.836-.527-4.276-.122-4.709-.392-4.925-.636-5.155-.852-5.399-1.366-4.749-2.286-3.748-3.611-2.395" fill="#2c292a"/>
<path transform="matrix(1,0,0,-1,87.0017,234.7876)" d="M0 0H.852C.825-.271 .812-.758 .812-1.461 1.163-1.461 1.568-1.448 2.029-1.421V-2.07C1.596-2.043 1.19-2.03 .812-2.03 .812-4.059 .825-5.277 .852-5.683H0C.027-5.007 .041-4.289 .041-3.531-.446-4.343-.866-4.952-1.217-5.358-1.407-5.142-1.637-4.966-1.907-4.83-1.312-4.371-.704-3.437-.081-2.03-.622-2.03-1.109-2.043-1.542-2.07V-1.421C-1.109-1.448-.582-1.461 .041-1.461 .041-1.001 .027-.514 0 0M-.527-9.255C-.771-9.174-1.069-9.078-1.42-8.971-1.095-8.43-.811-7.618-.568-6.535-.243-6.616 .041-6.684 .284-6.738-.04-7.848-.311-8.687-.527-9.255M2.434-4.059C2.245-4.195 2.042-4.357 1.826-4.546 1.664-4.195 1.393-3.762 1.014-3.247 1.203-3.112 1.406-2.963 1.623-2.801 1.974-3.315 2.245-3.734 2.434-4.059M1.907-7.631C1.907-7.956 1.913-8.199 1.927-8.362 1.94-8.524 2.123-8.619 2.475-8.646H4.463C4.625-8.646 4.747-8.605 4.828-8.524 4.909-8.443 4.963-8.159 4.99-7.672 5.206-7.834 5.504-7.956 5.883-8.037 5.693-8.605 5.538-8.95 5.416-9.072 5.295-9.194 4.99-9.255 4.503-9.255H1.907C1.474-9.228 1.237-9.078 1.197-8.808 1.156-8.537 1.136-8.186 1.136-7.753 1.136-7.32 1.122-6.901 1.095-6.495H1.947C1.92-6.901 1.907-7.28 1.907-7.631M6.857-3.166C6.857-4.14 6.87-4.966 6.897-5.642H2.637C2.664-5.074 2.678-4.249 2.678-3.166 2.678-2.084 2.664-1.164 2.637-.406H6.897C6.87-1.272 6.857-2.192 6.857-3.166M4.219-7.469C3.976-7.55 3.733-7.686 3.489-7.875 3.408-7.686 3.165-7.252 2.759-6.576 2.921-6.441 3.151-6.306 3.449-6.17 3.8-6.793 4.057-7.225 4.219-7.469M6.086-1.055H3.449V-2.0289999H6.086ZM6.086-2.638H3.449V-3.5310002H6.086ZM6.086-4.14H3.449V-5.074H6.086ZM7.668-8.24C7.397-8.43 7.154-8.619 6.938-8.808 6.721-8.402 6.221-7.74 5.437-6.819 5.734-6.657 5.95-6.481 6.086-6.292 6.789-7.103 7.316-7.753 7.668-8.24" fill="#2c292a"/>
<path transform="matrix(1,0,0,-1,97.7531,235.8429)" d="M0 0H2.11C1.974-.19 1.798-.447 1.582-.771 1.365-1.096 1.217-1.34 1.136-1.502H2.597C2.542-2.044 2.515-2.585 2.515-3.126V-7.306C2.515-7.631 2.427-7.84 2.252-7.936 2.075-8.03 1.798-8.104 1.42-8.159 1.365-7.861 1.284-7.577 1.177-7.306 1.393-7.306 1.555-7.3 1.663-7.286 1.771-7.273 1.826-7.144 1.826-6.901V-5.561H.974V-7.469H.284V-5.561H-.568C-.595-5.967-.663-6.387-.771-6.819-.879-7.253-1.055-7.726-1.298-8.24-1.542-8.104-1.799-7.969-2.069-7.834-1.799-7.455-1.596-6.989-1.461-6.434-1.326-5.879-1.244-5.169-1.217-4.303-1.191-3.437-1.191-2.571-1.217-1.705-1.434-1.948-1.61-2.138-1.745-2.273-1.907-2.057-2.096-1.867-2.313-1.705-1.907-1.38-1.535-.981-1.197-.507-.859-.034-.582 .528-.365 1.177-.149 1.041 .135 .893 .487 .731 .27 .622 .108 .379 0 0M.325-1.502C.541-1.232 .73-.934 .893-.609H-.406C-.649-.934-.866-1.232-1.055-1.502ZM.284-4.912V-3.816H-.487L-.527-4.912ZM.284-2.111H-.48700003V-3.207H.284ZM1.826-2.111H.974V-3.207H1.826ZM1.826-3.816H.974V-4.9119999H1.826ZM5.031-1.745C5.328-1.745 5.565-1.732 5.741-1.705 5.916-1.678 6.018-1.597 6.045-1.461 6.072-1.326 6.112-.852 6.167-.041H4.706C4.544-.798 4.382-1.346 4.219-1.685 4.057-2.023 3.8-2.395 3.449-2.801 3.286-2.585 3.069-2.382 2.799-2.192 3.097-1.976 3.34-1.698 3.53-1.36 3.719-1.022 3.854-.582 3.935-.041 3.611-.041 3.218-.055 2.759-.081V.609C3.191 .582 3.584 .568 3.935 .568H6.978C6.897-.758 6.822-1.556 6.755-1.827 6.687-2.097 6.518-2.287 6.248-2.395 5.977-2.503 5.666-2.571 5.315-2.598 5.26-2.3 5.166-2.016 5.031-1.745M4.098-3.978H4.787C4.787-3.41 4.773-3.031 4.747-2.841H5.558C5.504-3.085 5.477-3.464 5.477-3.978H6.045C6.451-3.978 6.775-3.965 7.019-3.937V-4.668C6.667-4.614 6.315-4.587 5.964-4.587H5.477V-5.764H5.761C6.275-5.764 6.802-5.751 7.343-5.723V-6.413C6.829-6.387 6.302-6.373 5.761-6.373H5.477V-7.063C5.477-7.442 5.49-7.915 5.518-8.484H4.747C4.773-7.915 4.787-7.442 4.787-7.063V-6.373H3.895C3.597-6.373 3.218-6.387 2.759-6.413V-5.723C3.165-5.751 3.543-5.764 3.895-5.764H4.787V-4.587H3.773C3.692-4.804 3.57-5.074 3.408-5.399 3.218-5.291 3.002-5.142 2.759-4.952 2.948-4.736 3.11-4.452 3.246-4.1 3.381-3.748 3.489-3.41 3.57-3.085L4.382-3.491C4.246-3.599 4.152-3.762 4.098-3.978" fill="#2c292a"/>
<path transform="matrix(1,0,0,-1,107.5309,241.5054)" d="M0 0C-.325-.636-.568-1.144-.73-1.522-.974-1.306-1.272-1.103-1.623-.913-1.326-.562-1.001-.088-.649 .507-.298 1.102-.014 1.698 .203 2.293 .392 2.077 .635 1.887 .933 1.725 .635 1.211 .325 .635 0 0M.04 4.932C.311 4.607 .595 4.268 .892 3.917 .676 3.755 .446 3.552 .203 3.308-.041 3.66-.595 4.323-1.461 5.297-1.245 5.486-1.028 5.689-.812 5.906-.514 5.581-.23 5.257 .04 4.932M1.582 4.201V4.972C2.069 4.945 2.704 4.932 3.489 4.932 3.489 5.689 3.475 6.271 3.448 6.677 3.746 6.65 4.057 6.623 4.382 6.596 4.327 6.217 4.301 5.662 4.301 4.932H6.694C6.667 4.499 6.654 3.511 6.654 1.969 7.086 1.969 7.465 1.982 7.79 2.009V1.238C7.384 1.265 6.978 1.279 6.573 1.279H4.503C5.288-.4 6.464-1.387 8.033-1.685 7.735-1.901 7.532-2.212 7.424-2.618 5.747-2.05 4.598-.954 3.976 .67 3.381-.792 2.353-1.955 .892-2.821 .73-2.55 .5-2.334 .203-2.172 1.798-1.36 2.84-.21 3.327 1.279H2.678C2.191 1.279 1.704 1.265 1.217 1.238V2.009C1.704 1.982 2.191 1.969 2.678 1.969H3.408C3.462 2.862 3.489 3.619 3.489 4.242 2.704 4.242 2.069 4.228 1.582 4.201M5.842 1.969V4.242H4.301C4.273 3.322 4.246 2.564 4.219 1.969Z" fill="#2c292a"/>
<path transform="matrix(1,0,0,-1,117.7547,238.116)" d="M0 0V-6.129H-.893C-.866-5.588-.852-5.088-.852-4.627V-.203C-.852 .284-.866 .731-.893 1.137H.041C.013 .676 0 .297 0 0M1.582 1.867C1.393 1.731 1.149 1.556 .852 1.34 .473 1.934 .094 2.408-.284 2.76-.014 2.977 .216 3.152 .406 3.288 .73 2.855 1.122 2.381 1.582 1.867M5.193-1.745C5.193-2.368 5.206-2.937 5.234-3.45H1.217C1.244-2.882 1.258-2.328 1.258-1.786 1.258-1.245 1.244-.623 1.217 .081H5.234C5.206-.514 5.193-1.123 5.193-1.745M4.382-.609H2.029V-2.76H4.382ZM7.546 2.679C7.519 2.165 7.506 1.637 7.506 1.096V-4.993C7.506-5.506 7.357-5.811 7.059-5.906 6.762-6.001 6.343-6.089 5.802-6.17 5.774-5.791 5.653-5.466 5.437-5.196 6.005-5.196 6.343-5.182 6.451-5.155 6.559-5.128 6.626-5.007 6.654-4.79V1.989H4.301C3.624 1.989 3.016 1.975 2.475 1.948V2.72C3.016 2.692 3.611 2.679 4.26 2.679Z" fill="#2c292a"/>
<path transform="matrix(1,0,0,-1,129.9667,239.41501)" d="M0 0C.378 0 .771 .013 1.177 .041V-.69C.797-.636 .284-.609-.365-.609V-1.664C.176-1.664 .609-1.651 .933-1.624V-2.354C.609-2.328 .176-2.314-.365-2.314V-3.572C.581-3.897 1.684-4.045 2.941-4.019 4.199-3.991 5.288-3.897 6.207-3.734 6.099-4.032 6.031-4.357 6.005-4.709 4.95-4.735 4.03-4.742 3.246-4.729 2.461-4.715 1.745-4.668 1.095-4.587 .446-4.506-.129-4.364-.629-4.161-1.13-3.958-1.637-3.653-2.15-3.247-2.286-3.816-2.462-4.37-2.678-4.912-2.921-4.722-3.151-4.6-3.367-4.546-3.124-3.923-2.962-3.376-2.881-2.902-2.799-2.429-2.732-1.881-2.678-1.258-2.408-1.34-2.137-1.394-1.866-1.421-1.947-1.664-2.015-2.03-2.069-2.517-1.691-2.869-1.353-3.112-1.055-3.247V-.609C-2.029-.609-2.718-.636-3.124-.69V.041C-2.718 .013-2.326 0-1.947 0ZM.73 2.395C.73 1.827 .744 1.244 .771 .649H-2.678C-2.651 1.272-2.637 1.867-2.637 2.435-2.637 3.004-2.651 3.572-2.678 4.14H.771C.744 3.545 .73 2.963 .73 2.395M0 3.491H-1.907V2.7199999H0ZM0 2.07H-1.907V1.2579999H0ZM3.956-.183C3.942-.521 3.895-.887 3.814-1.279 3.733-1.671 3.556-2.084 3.286-2.517 3.016-2.95 2.569-3.383 1.947-3.816 1.785-3.545 1.568-3.342 1.298-3.207 1.839-2.909 2.238-2.612 2.495-2.314 2.752-2.016 2.941-1.691 3.063-1.34 3.185-.988 3.246-.623 3.246-.244 3.246 .162 3.232 .582 3.205 1.015 3.449 .96 3.733 .92 4.057 .893 4.003 .514 3.969 .155 3.956-.183M4.625 4.14C4.976 4.14 5.396 4.154 5.883 4.181V3.45C5.396 3.477 4.706 3.491 3.814 3.491L3.651 2.273H5.477C5.423 1.867 5.396 1.244 5.396 .406 5.396-.433 5.423-1.096 5.477-1.583H4.706V1.664H2.353V-1.908H1.623C1.649-1.367 1.663-.636 1.663 .284 1.663 1.204 1.649 1.867 1.623 2.273H2.921L3.083 3.491C2.434 3.491 1.852 3.477 1.339 3.45V4.181C1.852 4.154 2.299 4.14 2.678 4.14ZM5.639-2.963C5.423-3.126 5.26-3.315 5.153-3.531 4.909-3.288 4.449-2.936 3.773-2.476 3.962-2.314 4.111-2.125 4.219-1.908 4.814-2.287 5.288-2.638 5.639-2.963" fill="#2c292a"/>
<path transform="matrix(1,0,0,-1,233.6651,342.7624)" stroke-width="1.233" stroke-linecap="butt" stroke-miterlimit="8" stroke-linejoin="miter" fill="none" stroke="#2c292a" d="M0 0 2.49-4.307H59.056C63.179-4.307 66.522-7.661 66.522-11.798V-41.76C66.522-45.897 63.179-49.25 59.056-49.25H-59.056C-63.179-49.25-66.522-45.897-66.522-41.76V-11.798C-66.522-7.661-63.179-4.307-59.056-4.307H-2.49L0 0Z"/>
<path transform="matrix(1,0,0,-1,223.9664,329.0804)" d="M0 0C.519-.027 1.188-.041 2.008-.041 2.854-.041 3.469-.027 3.852 0V-.694C3.469-.667 2.936-.653 2.254-.653 2.117-1.334 1.898-2 1.598-2.653H3.442C3.414-3.089 3.401-3.47 3.401-3.796V-5.756C3.401-6.164 3.414-6.613 3.442-7.103H2.704V-6.45H1.598V-7.674H.86C.887-7.13 .901-6.64 .901-6.205V-3.878C.656-4.259 .41-4.599 .164-4.898 .054-4.681-.15-4.49-.451-4.327-.15-4.082 .143-3.749 .43-3.327 .717-2.905 .935-2.484 1.086-2.061 1.236-1.64 1.366-1.17 1.475-.653 .928-.653 .437-.667 0-.694ZM2.704-3.266H1.598V-5.797H2.704ZM4.773-6.307C4.623-6.865 4.329-7.511 3.893-8.246 3.729-8.055 3.455-7.919 3.073-7.837 3.483-7.374 3.77-6.913 3.933-6.45 4.097-5.987 4.22-5.375 4.302-4.613 4.384-3.851 4.425-3.076 4.425-2.286 4.425-1.47 4.411-.816 4.384-.327H6.187C6.187 .245 6.173 .789 6.146 1.306H6.925C6.897 .843 6.884 .299 6.884-.327H8.973C8.918-.517 8.857-.769 8.789-1.082 8.72-1.395 8.659-1.742 8.604-2.123 8.304-2.068 8.058-2.028 7.867-2 7.949-1.701 8.031-1.361 8.113-.98H6.884V-2.898H8.563C8.482-3.688 8.352-4.347 8.174-4.878 7.996-5.409 7.716-5.96 7.334-6.531 8.017-7.184 8.686-7.592 9.342-7.756 8.932-7.973 8.713-8.191 8.686-8.409 8.085-8.137 7.457-7.687 6.802-7.062 6.201-7.606 5.668-8.055 5.204-8.409 5.067-8.164 4.821-7.987 4.466-7.878 5.04-7.633 5.668-7.184 6.351-6.531 5.777-5.77 5.436-4.776 5.327-3.551H5.122C5.04-4.831 4.923-5.749 4.773-6.307M6.187-.98H5.1219999V-2.8990002H6.187ZM7.703-3.551H5.941C6.078-4.504 6.378-5.307 6.843-5.96 7.334-5.252 7.621-4.449 7.703-3.551" fill="#f43040"/>
<path transform="matrix(1,0,0,-1,223.9664,329.0804)" stroke-width=".254" stroke-linecap="butt" stroke-miterlimit="10" stroke-linejoin="miter" fill="none" stroke="#f43040" d="M0 0C.519-.027 1.188-.041 2.008-.041 2.854-.041 3.469-.027 3.852 0V-.694C3.469-.667 2.936-.653 2.254-.653 2.117-1.334 1.898-2 1.598-2.653H3.442C3.414-3.089 3.401-3.47 3.401-3.796V-5.756C3.401-6.164 3.414-6.613 3.442-7.103H2.704V-6.45H1.598V-7.674H.86C.887-7.13 .901-6.64 .901-6.205V-3.878C.656-4.259 .41-4.599 .164-4.898 .054-4.681-.15-4.49-.451-4.327-.15-4.082 .143-3.749 .43-3.327 .717-2.905 .935-2.484 1.086-2.061 1.236-1.64 1.366-1.17 1.475-.653 .928-.653 .437-.667 0-.694V0ZM2.704-3.266H1.598V-5.797H2.704ZM4.773-6.307C4.623-6.865 4.329-7.511 3.893-8.246 3.729-8.055 3.455-7.919 3.073-7.837 3.483-7.374 3.77-6.913 3.933-6.45 4.097-5.987 4.22-5.375 4.302-4.613 4.384-3.851 4.425-3.076 4.425-2.286 4.425-1.47 4.411-.816 4.384-.327H6.187C6.187 .245 6.173 .789 6.146 1.306H6.925C6.897 .843 6.884 .299 6.884-.327H8.973C8.918-.517 8.857-.769 8.789-1.082 8.72-1.395 8.659-1.742 8.604-2.123 8.304-2.068 8.058-2.028 7.867-2 7.949-1.701 8.031-1.361 8.113-.98H6.884V-2.898H8.563C8.482-3.688 8.352-4.347 8.174-4.878 7.996-5.409 7.716-5.96 7.334-6.531 8.017-7.184 8.686-7.592 9.342-7.756 8.932-7.973 8.713-8.191 8.686-8.409 8.085-8.137 7.457-7.687 6.802-7.062 6.201-7.606 5.668-8.055 5.204-8.409 5.067-8.164 4.821-7.987 4.466-7.878 5.04-7.633 5.668-7.184 6.351-6.531 5.777-5.77 5.436-4.776 5.327-3.551H5.122C5.04-4.831 4.923-5.749 4.773-6.307ZM6.187-.98H5.1219999V-2.8990002H6.187ZM7.703-3.551H5.941C6.078-4.504 6.378-5.307 6.843-5.96 7.334-5.252 7.621-4.449 7.703-3.551Z"/>
<path transform="matrix(1,0,0,-1,242.6607,337.0925)" d="M0 0C-.313-.122-.715-.197-1.205-.224-1.26 .157-1.382 .496-1.572 .795-.919 .741-.538 .755-.429 .836-.32 .918-.239 1.094-.184 1.366L-.102 4.548H-6.351C-6.46 3.243-6.644 2.25-6.902 1.57-7.161 .89-7.453 .333-7.78-.102-8.025 .143-8.311 .306-8.638 .387-8.229 .85-7.917 1.373-7.698 1.958-7.481 2.542-7.331 3.127-7.249 3.712-7.167 4.296-7.126 4.86-7.126 5.404V6.669C-7.126 6.94-7.141 7.702-7.167 8.953H.02C-.007 8.518-.02 8.082-.02 7.648-.02 7.212-.007 6.777 .02 6.343H-6.31V5.241H.755L.592 1.081C.511 .483 .313 .122 0 0M-.755 8.26H-6.309V7.0360004H-.755ZM-1.715 2.386C-1.702 1.978-1.695 1.53-1.695 1.04H-5.656C-5.602 1.393-5.575 1.801-5.575 2.264-5.575 2.753-5.589 3.256-5.616 3.773H-1.695C-1.722 3.256-1.729 2.794-1.715 2.386M-2.471 3.079H-4.799V1.692H-2.471ZM-2.471 1.693" fill="#f43040"/>
<path transform="matrix(1,0,0,-1,242.6607,337.0925)" stroke-width=".254" stroke-linecap="butt" stroke-miterlimit="10" stroke-linejoin="miter" fill="none" stroke="#f43040" d="M0 0C-.313-.122-.715-.197-1.205-.224-1.26 .157-1.382 .496-1.572 .795-.919 .741-.538 .755-.429 .836-.32 .918-.239 1.094-.184 1.366L-.102 4.548H-6.351C-6.46 3.243-6.644 2.25-6.902 1.57-7.161 .89-7.453 .333-7.78-.102-8.025 .143-8.311 .306-8.638 .387-8.229 .85-7.917 1.373-7.698 1.958-7.481 2.542-7.331 3.127-7.249 3.712-7.167 4.296-7.126 4.86-7.126 5.404V6.669C-7.126 6.94-7.141 7.702-7.167 8.953H.02C-.007 8.518-.02 8.082-.02 7.648-.02 7.212-.007 6.777 .02 6.343H-6.31V5.241H.755L.592 1.081C.511 .483 .313 .122 0 0ZM-.755 8.26H-6.309V7.0360004H-.755ZM-1.715 2.386C-1.702 1.978-1.695 1.53-1.695 1.04H-5.656C-5.602 1.393-5.575 1.801-5.575 2.264-5.575 2.753-5.589 3.256-5.616 3.773H-1.695C-1.722 3.256-1.729 2.794-1.715 2.386ZM-2.471 3.079H-4.799V1.692H-2.471ZM-2.471 1.693"/>
<path transform="matrix(1,0,0,-1,195.2843,214.14859)" d="M0 0C-.095-.298-.203-.643-.325-1.035-.446-1.427-.548-1.84-.629-2.273-.981-2.056-1.292-1.908-1.562-1.827-1.237-1.258-1.008-.758-.872-.325-.737 .108-.629 .473-.548 .771-.467 1.069-.385 1.393-.304 1.745-.034 1.583 .223 1.447 .467 1.34 .25 .744 .094 .297 0 0M-.588 3.227C-.832 3.375-1.13 3.531-1.481 3.694-1.319 3.91-1.17 4.126-1.035 4.343-.818 4.208-.555 4.052-.243 3.876 .067 3.7 .358 3.517 .629 3.328 .467 3.085 .318 2.868 .183 2.679-.088 2.895-.345 3.078-.588 3.227M-.081 6.474C.203 6.271 .453 6.075 .669 5.886 .453 5.642 .277 5.425 .142 5.236-.129 5.534-.588 5.912-1.237 6.373-1.075 6.589-.913 6.792-.75 6.982-.588 6.846-.365 6.677-.081 6.474M2.901-1.218C2.982-1.164 3.023-1.055 3.023-.893V2.72H2.13C2.13 2.233 2.103 1.752 2.049 1.279 1.994 .805 1.92 .365 1.826-.041 1.731-.447 1.596-.826 1.42-1.177 1.244-1.529 1.007-1.894 .71-2.273 .548-2.03 .318-1.84 .02-1.705 .426-1.353 .73-.913 .933-.386 1.136 .142 1.264 .676 1.319 1.218 1.372 1.759 1.406 2.327 1.42 2.923 1.433 3.517 1.44 4.126 1.44 4.749 1.251 4.749 .98 4.735 .629 4.709V5.358C1.197 5.331 1.562 5.317 1.724 5.317H3.144C3.388 5.317 3.685 5.331 4.037 5.358V4.709C3.712 4.735 3.401 4.749 3.104 4.749H2.171V3.369H3.793C3.766 2.936 3.753 2.53 3.753 2.151V-1.055C3.753-1.326 3.665-1.535 3.489-1.685 3.313-1.833 2.927-1.962 2.333-2.07 2.306-1.827 2.197-1.556 2.008-1.258 2.522-1.285 2.82-1.272 2.901-1.218M2.941 5.967C2.725 5.886 2.495 5.764 2.252 5.602 2.171 5.818 2.075 6.028 1.968 6.231 1.859 6.434 1.724 6.643 1.562 6.86 1.778 6.968 1.981 7.09 2.171 7.225 2.603 6.576 2.86 6.156 2.941 5.967M4.219 4.506C4.368 4.776 4.496 5.054 4.605 5.338 4.713 5.622 4.814 5.926 4.909 6.251 5.004 6.576 5.078 6.901 5.132 7.225 5.43 7.09 5.754 6.995 6.106 6.941 5.97 6.751 5.863 6.562 5.781 6.373 5.7 6.183 5.632 5.98 5.579 5.764H6.309C6.85 5.764 7.431 5.777 8.053 5.805V5.115C7.431 5.141 6.836 5.155 6.268 5.155H5.376C5.267 4.938 5.173 4.742 5.092 4.567 5.011 4.39 4.915 4.194 4.808 3.978H7.688V3.207C7.553 3.071 7.397 2.923 7.222 2.76 7.045 2.598 6.85 2.381 6.633 2.111V1.624H7.08C7.269 1.624 7.607 1.637 8.094 1.664V.974C7.661 1.001 7.323 1.015 7.08 1.015H6.633V-1.258C6.633-1.664 6.512-1.928 6.268-2.05 6.025-2.172 5.619-2.273 5.051-2.354 5.024-2.111 4.915-1.813 4.727-1.461 5.159-1.488 5.457-1.488 5.619-1.461 5.781-1.434 5.863-1.258 5.863-.934V1.015H5.497C5.173 1.015 4.78 1.001 4.321 .974V1.664C4.753 1.637 5.132 1.624 5.457 1.624H5.863C5.863 1.867 5.849 2.097 5.822 2.314 6.147 2.584 6.471 2.936 6.796 3.369H5.619L4.808 3.328V3.937C4.645 3.72 4.51 3.504 4.402 3.288 4.212 3.477 3.982 3.653 3.712 3.816 3.901 4.005 4.07 4.235 4.219 4.506" fill="#2c292a"/>
<path transform="matrix(1,0,0,-1,207.7194,208.26212)" d="M0 0C-.027-.406-.081-.994-.162-1.765-.243-2.535-.42-3.394-.69-4.341-.122-5.207 .311-5.882 .609-6.369 .338-6.505 .094-6.667-.122-6.856-.339-6.288-.649-5.734-1.055-5.193-1.731-6.302-2.367-7.181-2.962-7.83-3.151-7.532-3.381-7.288-3.651-7.099-3.083-6.64-2.657-6.214-2.373-5.821-2.089-5.43-1.84-4.99-1.623-4.503-1.84-4.071-2.353-3.354-3.165-2.353-2.976-2.245-2.786-2.083-2.596-1.866-1.947-2.705-1.501-3.286-1.258-3.611-1.095-3.124-.947-2.137-.811-.649H-1.947C-2.461-.649-2.962-.663-3.448-.69V.041C-2.989 .013-2.502 0-1.988 0ZM1.42 1.298C1.798 1.244 2.096 1.217 2.313 1.217 2.231 .027 2.245-.988 2.353-1.826 4.057-1.42 5.098-1.163 5.477-1.055L5.599-1.866C5.274-1.893 4.219-2.11 2.434-2.515 2.542-3.543 2.732-4.355 3.002-4.949 3.489-4.111 3.814-3.367 3.976-2.718 4.192-2.88 4.517-3.016 4.95-3.124 4.706-3.394 4.497-3.739 4.321-4.158 4.145-4.578 3.827-5.125 3.367-5.801 3.854-6.45 4.233-6.863 4.503-7.039 4.773-7.214 4.95-7.221 5.031-7.059 5.112-6.897 5.179-6.626 5.234-6.247 5.477-6.437 5.747-6.586 6.045-6.694 5.856-7.207 5.693-7.579 5.558-7.809 5.423-8.039 5.247-8.174 5.031-8.215 4.814-8.256 4.469-8.073 3.996-7.667 3.523-7.262 3.124-6.802 2.799-6.288 1.961-7.127 1.312-7.734 .852-8.114 .662-7.87 .406-7.667 .081-7.505 .676-7.153 1.17-6.802 1.562-6.45 1.954-6.099 2.245-5.815 2.434-5.598 2.11-4.842 1.866-3.881 1.704-2.718 1.298-2.799 .798-2.921 .203-3.083L.081-2.272C.513-2.218 1.028-2.11 1.623-1.947 1.542-1.325 1.474-.243 1.42 1.298M4.828-.325C4.611-.433 4.368-.568 4.098-.73 3.962-.541 3.665-.176 3.205 .365 3.449 .527 3.665 .69 3.854 .852 4.314 .284 4.638-.108 4.828-.325" fill="#2c292a"/>
<path transform="matrix(1,0,0,-1,223.2653,362.213)" d="M0 0C-.327-.073-.654-.152-.981-.236-1.308-.322-1.648-.418-1.999-.527-2.351-.636-2.684-.751-2.998-.873-3.047-.655-3.132-.364-3.253 0-2.987 .048-2.744 .097-2.526 .145V4.836C-2.526 5.345-2.538 5.842-2.562 6.327H.454C.43 5.891 .418 5.406 .418 4.873V.691C.515 .715 .672 .751 .891 .8V.182C.624 .133 .327 .073 0 0M-.309 5.745H-1.835V4.363H-.309ZM-.309 3.818H-1.835V2.363H-.309ZM-1.054 .4C-.824 .448-.576 .497-.309 .545V1.782H-1.835V.255C-1.545 .303-1.285 .351-1.054 .4M1.326 .345C1.569 .769 1.745 1.212 1.854 1.673 1.963 2.133 2.041 2.606 2.09 3.091 2.138 3.575 2.163 4.036 2.163 4.473 1.75 4.473 1.375 4.46 1.036 4.436V5.091C1.35 5.066 1.727 5.054 2.163 5.054V5.891C2.163 6.157 2.15 6.521 2.126 6.982 2.392 6.957 2.708 6.945 3.071 6.945 2.999 6.63 2.956 6.315 2.944 6 2.932 5.684 2.926 5.369 2.926 5.054H4.961C4.888 4.666 4.852 4.194 4.852 3.636L4.634-.073C4.61-.533 4.452-.806 4.162-.891 3.871-.975 3.495-1.042 3.035-1.091 2.986-.775 2.901-.485 2.78-.218 3.24-.218 3.556-.212 3.725-.2 3.895-.188 3.98 .048 3.98 .509L4.162 4.473H2.926C2.877 3.454 2.792 2.63 2.671 2 2.55 1.369 2.399 .873 2.217 .509 2.035 .145 1.854-.176 1.672-.455 1.49-.733 1.278-1.006 1.036-1.273 .841-1.078 .575-.921 .236-.8 .721-.461 1.084-.079 1.326 .345" fill="#2c292a"/>
<path transform="matrix(1,0,0,-1,231.6141,361.1948)" d="M0 0C.533 .678 .902 1.375 1.108 2.091 1.314 2.806 1.429 3.473 1.454 4.091 1.478 4.709 1.466 5.357 1.417 6.036 1.684 6.012 1.986 5.987 2.326 5.964 2.253 5.575 2.217 5.175 2.217 4.764 2.217 4.351 2.241 3.878 2.29 3.345 2.338 2.812 2.683 2.006 3.326 .927 3.967-.152 4.906-.958 6.142-1.491 5.852-1.782 5.657-2.024 5.561-2.218 3.864-1.394 2.653 .097 1.926 2.255 1.441 .339 .266-1.188-1.599-2.327-1.745-2.133-1.951-1.927-2.217-1.709-1.272-1.249-.533-.679 0 0" fill="#2c292a"/>
<path transform="matrix(1,0,0,-1,245.669,357.0494)" d="M0 0C-.254-.267-.612-.631-1.072-1.091H-.054C.357-1.091 .782-1.079 1.218-1.055V-1.709C.782-1.685 .345-1.673-.091-1.673H-1.799C-2.187-1.964-2.623-2.279-3.107-2.618H-.018C-.042-3.055-.054-3.454-.054-3.818V-5.091C-.054-5.527-.042-6-.018-6.509H-.745V-5.964H-4.234V-6.509H-4.997C-4.974-6.121-4.961-5.757-4.961-5.418V-3.745C-5.446-4.012-5.991-4.279-6.596-4.545-6.839-4.206-7.009-4-7.105-3.927-6.936-3.879-6.615-3.764-6.142-3.582-5.67-3.4-5.276-3.2-4.961-2.982V-2.618H-4.271C-3.738-2.327-3.265-2.012-2.853-1.673H-5.434C-5.942-1.673-6.415-1.685-6.851-1.709V-1.055C-6.367-1.079-5.894-1.091-5.434-1.091H-3.507V.036H-4.598C-5.01 .036-5.385 .024-5.724 0V.655C-5.385 .63-5.01 .618-4.598 .618H-3.507C-3.507 .982-3.52 1.394-3.543 1.855H-2.744C-2.768 1.515-2.78 1.103-2.78 .618H-2.235C-1.92 .618-1.557 .63-1.145 .655V0C-1.557 .024-1.92 .036-2.235 .036H-2.78V-1.091H-2.053C-1.714-.825-1.375-.509-1.036-.145-.697 .218-.345 .678 .018 1.236 .285 .969 .503 .775 .673 .655 .478 .485 .255 .266 0 0M-.745-3.2H-4.234V-3.964H-.745ZM-.745-4.545H-4.234V-5.381H-.745ZM-.745-5.382" fill="#2c292a"/>
<path transform="matrix(1,0,0,-1,218.5815,367.66743)" d="M0 0V-5.091C0-5.624 .012-6.157 .036-6.691H-.654C-.63-6.182-.618-5.661-.618-5.127V-1.2C-.788-1.54-1.03-2-1.345-2.582-1.563-2.34-1.757-2.158-1.926-2.036-1.708-1.745-1.399-1.212-1-.436-.6 .339-.352 1.055-.254 1.709L.581 1.455C.412 1.309 .218 .824 0 0M6.633-3.145C6.645-3.376 6.651-3.564 6.651-3.709H6.033V-3.054H1.163V-3.709H.509C.533-3.491 .545-3.285 .545-3.091 .545-2.873 .533-2.679 .509-2.509H6.651C6.627-2.703 6.62-2.915 6.633-3.145M4.107 .873H5.161C5.718 .873 6.166 .885 6.506 .909V.291C6.118 .315 5.67 .327 5.161 .327H2.035C1.647 .327 1.26 .315 .872 .291V.909C1.236 .885 1.623 .873 2.035 .873H3.307C3.235 1.139 3.15 1.369 3.053 1.564 3.295 1.612 3.549 1.685 3.816 1.782 3.913 1.515 4.01 1.212 4.107 .873M5.597-1.236C5.597-1.576 5.609-1.843 5.634-2.036H1.454C1.478-1.77 1.49-1.479 1.49-1.164 1.49-.849 1.478-.545 1.454-.255H5.634C5.609-.545 5.597-.873 5.597-1.236M4.725-3.782C5.064-3.782 5.403-3.758 5.742-3.709V-4.364C5.403-4.34 5.076-4.327 4.761-4.327H4.034V-6C4.01-6.364 3.876-6.582 3.635-6.654 3.392-6.727 3.065-6.787 2.653-6.836 2.629-6.545 2.532-6.266 2.362-6 2.774-6.024 3.047-6.024 3.18-6 3.313-5.975 3.38-5.879 3.38-5.709V-4.327H2.544C2.181-4.327 1.829-4.34 1.49-4.364V-3.709C1.829-3.758 2.193-3.782 2.581-3.782ZM4.979-.8H2.108V-1.4909999H4.979ZM4.979-1.491" fill="#2c292a"/>
<path transform="matrix(1,0,0,-1,228.2932,369.4856)" d="M0 0V-3.745H1.89V1.855C1.89 2.315 1.877 2.775 1.854 3.236H2.653C2.629 2.8 2.617 2.339 2.617 1.855V.618H4.071C4.482 .618 4.943 .63 5.452 .655V-.073C4.943-.049 4.482-.036 4.071-.036H2.617V-3.745H4.616C5.1-3.745 5.597-3.734 6.106-3.709V-4.436C5.597-4.412 5.1-4.4 4.616-4.4H-.691C-1.199-4.4-1.708-4.412-2.217-4.436V-3.709C-1.83-3.734-1.345-3.745-.763-3.745V0C-.763 .412-.776 .836-.8 1.273H.036C.012 .836 0 .412 0 0" fill="#2c292a"/>
<path transform="matrix(1,0,0,-1,235.4609,371.19459)" d="M0 0C.387 .145 .739 .333 1.054 .564 1.368 .794 1.611 1.055 1.781 1.345H1.345C.884 1.345 .472 1.333 .109 1.309V1.891C.423 1.866 .836 1.855 1.345 1.855H1.963C2.059 2.145 2.108 2.375 2.108 2.545 1.55 2.545 1.041 2.533 .581 2.509V3.091C.993 3.066 1.514 3.055 2.144 3.055V3.709H1.526C1.163 3.709 .787 3.697 .4 3.673V4.254C.787 4.23 1.236 4.218 1.744 4.218H2.144C2.144 4.484 2.132 4.812 2.108 5.2 2.447 5.127 2.713 5.091 2.908 5.091 2.835 4.969 2.798 4.678 2.798 4.218H3.017C3.428 4.218 3.913 4.23 4.47 4.254V3.673C4.034 3.697 3.61 3.709 3.198 3.709H2.798V3.055C3.404 3.055 3.901 3.078 4.289 3.127V2.509C3.828 2.533 3.331 2.545 2.798 2.545 2.774 2.351 2.738 2.121 2.689 1.855H3.344C3.804 1.855 4.203 1.866 4.543 1.891V1.309C4.107 1.333 3.695 1.345 3.307 1.345H2.544C2.253 .812 1.914 .412 1.526 .145 1.502 .121 1.478 .097 1.454 .073H3.853C3.853 .291 3.84 .497 3.816 .691H4.543C4.518 .497 4.507 .291 4.507 .073H7.342C7.317-.291 7.305-.667 7.305-1.055V-1.782C7.305-2.122 7.166-2.352 6.887-2.473 6.609-2.594 6.251-2.678 5.815-2.727 5.742-2.364 5.645-2.122 5.524-2 5.888-2.024 6.166-2.006 6.36-1.945 6.554-1.885 6.651-1.734 6.651-1.491V-.509H4.507V-1.855C4.507-2.291 4.518-2.8 4.543-3.382H3.816C3.84-2.775 3.853-2.255 3.853-1.818V-.509H1.926V-2.654H1.236C1.26-2.291 1.272-1.891 1.272-1.455V-.073C.981-.243 .702-.388 .436-.509 .315-.267 .169-.097 0 0M7.087 2.945C7.814 2.436 8.129 1.933 8.032 1.436 7.935 .939 7.438 .63 6.542 .509 6.493 .824 6.384 1.055 6.215 1.2 7.038 1.151 7.432 1.303 7.396 1.655 7.36 2.006 7.014 2.4 6.36 2.836 6.578 3.2 6.82 3.636 7.087 4.145H5.706V.291H5.016C5.039 .873 5.052 1.357 5.052 1.745V3.564C5.052 3.951 5.039 4.327 5.016 4.691H8.105C7.983 4.424 7.644 3.842 7.087 2.945" fill="#2c292a"/>
<path transform="matrix(1,0,0,-1,245.0999,370.6855)" d="M0 0C-.267 .073-.497 .133-.691 .182-.449 .957-.242 1.782-.073 2.655 .145 2.582 .375 2.533 .618 2.509 .4 1.709 .194 .873 0 0M1.49 3.345V-1.964C1.49-2.473 1.502-3.03 1.526-3.636H.763C.787-3.03 .8-2.473 .8-1.964V3.345C.8 3.782 .787 4.206 .763 4.618H1.526C1.502 4.206 1.49 3.782 1.49 3.345M2.908 1.2C2.738 1.151 2.52 1.055 2.253 .909 2.059 1.564 1.841 2.157 1.599 2.691 1.817 2.787 1.999 2.885 2.144 2.982 2.362 2.594 2.617 2 2.908 1.2M6.687 2.655C7.124 2.655 7.487 2.666 7.778 2.691V1.964C7.487 1.988 7.099 2 6.615 2H4.289V-2.473H6.106C6.59-2.473 7.051-2.461 7.487-2.436V-3.164C7.075-3.139 6.615-3.127 6.106-3.127H3.525C3.549-2.764 3.562-2.364 3.562-1.927V2C3.344 2 3.053 1.988 2.689 1.964V2.691C3.368 2.666 3.937 2.655 4.398 2.655ZM5.997 3.273C5.779 3.2 5.536 3.078 5.27 2.909 4.93 3.539 4.628 4.012 4.361 4.327 4.603 4.424 4.821 4.545 5.016 4.691 5.33 4.327 5.657 3.854 5.997 3.273" fill="#2c292a"/>
<path transform="matrix(1,0,0,-1,204.1845,380.05793)" d="M0 0V-5.491H-.8C-.776-5.006-.763-4.558-.763-4.145V-.182C-.763 .255-.776 .655-.8 1.018H.036C.012 .606 0 .266 0 0M1.417 1.673C1.248 1.551 1.03 1.394 .763 1.2 .424 1.733 .085 2.157-.254 2.473-.013 2.666 .194 2.824 .364 2.945 .654 2.557 1.005 2.133 1.417 1.673M4.652-1.564C4.652-2.122 4.664-2.631 4.688-3.091H1.09C1.114-2.582 1.127-2.085 1.127-1.6 1.127-1.115 1.114-.558 1.09 .073H4.688C4.664-.461 4.652-1.006 4.652-1.564M3.925-.545H1.8169999V-2.4720002H3.925ZM6.76 2.4C6.736 1.939 6.724 1.466 6.724 .982V-4.473C6.724-4.933 6.59-5.206 6.324-5.291 6.057-5.375 5.682-5.454 5.197-5.527 5.173-5.187 5.064-4.897 4.87-4.654 5.379-4.654 5.682-4.642 5.779-4.618 5.875-4.594 5.936-4.485 5.961-4.291V1.782H3.853C3.247 1.782 2.702 1.769 2.217 1.745V2.436C2.702 2.412 3.235 2.4 3.816 2.4Z" fill="#2c292a"/>
<path transform="matrix(1,0,0,-1,214.1507,379.18519)" d="M0 0V-4.8C0-5.406 .024-5.915 .073-6.327H-.691C-.667-5.915-.654-5.406-.654-4.8V-1.236C-.969-1.818-1.212-2.243-1.381-2.509-1.551-2.291-1.745-2.122-1.963-2-1.648-1.661-1.278-1.061-.854-.2-.43 .66-.145 1.406 0 2.036 .387 1.866 .678 1.745 .872 1.673 .654 1.382 .363 .824 0 0M1.199 .655H1.963C1.938 .339 1.926-.243 1.926-1.091L3.089-.727V.764C3.089 1.248 3.065 1.66 3.017 2H3.78C3.755 1.66 3.744 1.236 3.744 .727V-.473L5.706 .218C5.682-1.067 5.67-1.964 5.67-2.473 5.67-2.982 5.536-3.297 5.27-3.418 5.003-3.54 4.664-3.636 4.252-3.709 4.204-3.467 4.107-3.212 3.962-2.945 4.422-2.945 4.7-2.927 4.797-2.891 4.894-2.855 4.943-2.74 4.943-2.545L4.979-.727 3.744-1.164V-3.491C3.744-3.903 3.755-4.254 3.78-4.545H3.053C3.077-4.254 3.089-3.903 3.089-3.491V-1.345L1.926-1.745V-4.873C1.926-5.212 2.096-5.37 2.435-5.345H5.016C5.209-5.345 5.355-5.291 5.452-5.182 5.548-5.073 5.621-4.727 5.67-4.145 5.961-4.364 6.239-4.497 6.506-4.545 6.336-5.176 6.154-5.575 5.961-5.745 5.766-5.915 5.488-5.987 5.125-5.964H2.29C1.635-5.987 1.284-5.697 1.236-5.091V-1.964C.872-2.085 .581-2.206 .363-2.327L.073-1.636C.387-1.588 .775-1.479 1.236-1.309 1.236-.364 1.223 .291 1.199 .655" fill="#2c292a"/>
<path transform="matrix(1,0,0,-1,222.7357,383.4397)" d="M0 0C-.218-.558-.424-1.031-.618-1.418-.836-1.248-1.078-1.091-1.345-.945-1.078-.509-.836-.067-.618 .382-.4 .83-.182 1.406 .036 2.109 .206 1.939 .424 1.818 .691 1.745 .448 1.139 .218 .557 0 0M-.055 5.036C.248 4.733 .533 4.436 .8 4.145 .581 3.927 .4 3.733 .254 3.564-.012 3.951-.509 4.509-1.236 5.236-1.042 5.382-.86 5.539-.691 5.709-.57 5.564-.358 5.339-.055 5.036M1.563 4.273C1.926 4.987 2.181 5.66 2.326 6.291 2.592 6.169 2.883 6.06 3.198 5.964 3.053 5.794 2.859 5.382 2.617 4.727H5.27C5.827 4.727 6.336 4.739 6.796 4.764V4.109C6.311 4.133 5.803 4.145 5.27 4.145H4.834V2.909C5.536 2.909 6.106 2.921 6.542 2.945V2.291C6.106 2.315 5.536 2.327 4.834 2.327V1.091C5.561 1.091 6.13 1.103 6.542 1.127V.509C6.13 .533 5.561 .545 4.834 .545V-.691C5.851-.691 6.591-.679 7.051-.655V-1.382C6.591-1.357 6.07-1.345 5.488-1.345H2.544V-2.109H1.781C1.805-1.673 1.817-1.055 1.817-.255V3.2C1.672 2.933 1.49 2.618 1.272 2.255 1.078 2.497 .848 2.678 .581 2.8 .872 3.066 1.199 3.557 1.563 4.273M4.107 4.145H2.544V2.909H4.107ZM4.107 2.327H2.544V1.091H4.107ZM4.107 .545H2.544V-.6909999H4.107ZM5.234 5.309C5.064 5.212 4.87 5.066 4.652 4.873 4.482 5.164 4.18 5.515 3.744 5.927 3.889 6 4.07 6.145 4.289 6.364 4.725 5.951 5.04 5.6 5.234 5.309" fill="#2c292a"/>
<path transform="matrix(1,0,0,-1,230.5937,381.2579)" d="M0 0C.606 .048 1.266 .145 1.981 .291 2.695 .436 3.271 .63 3.707 .873 3.15 1.333 2.69 1.745 2.326 2.109 2.035 1.818 1.696 1.503 1.308 1.164 1.091 1.357 .896 1.491 .727 1.564 1.672 2.291 2.411 3.2 2.944 4.291 3.186 4.145 3.44 4.024 3.707 3.927L3.416 3.636C3.344 3.564 3.222 3.418 3.053 3.2H7.087C6.869 2.787 6.584 2.382 6.233 1.982 5.882 1.582 5.464 1.2 4.979 .836 5.367 .642 5.93 .485 6.669 .364 7.408 .242 8.056 .206 8.614 .255 8.468 .012 8.359-.243 8.287-.509 7.414-.412 6.688-.309 6.106-.2 5.524-.091 4.931 .121 4.325 .436 3.646 .121 2.938-.122 2.199-.291 1.46-.461 .86-.594 .4-.691 .351-.473 .218-.243 0 0M7.015-2.4C7.015-3.224 7.027-3.866 7.051-4.327H6.36V-3.854H2.253V-4.327H1.563C1.587-3.866 1.599-3.224 1.599-2.4 1.599-1.552 1.587-.909 1.563-.473H7.051C7.027-.909 7.015-1.552 7.015-2.4M3.962-1.018H2.254V-1.891H3.962ZM3.962-2.436H2.254V-3.272H3.962ZM4.398 1.2C4.907 1.515 5.439 2.012 5.997 2.691H2.799L2.69 2.582C3.198 2.097 3.767 1.636 4.398 1.2M6.36-1.018H4.6150004V-1.891H6.36ZM6.36-2.436H4.6150004V-3.272H6.36ZM6.36-3.273" fill="#2c292a"/>
<path transform="matrix(1,0,0,-1,240.6689,385.1124)" d="M0 0C-.242 .145-.46 .255-.654 .327-.34 .86-.012 1.575 .327 2.473 .545 2.351 .775 2.242 1.018 2.145 .654 1.321 .315 .606 0 0M5.416 6.945C5.973 6.945 6.482 6.957 6.942 6.982V6.291C6.482 6.315 5.973 6.327 5.416 6.327H2.435V5.527H4.907C5.391 5.527 5.888 5.539 6.397 5.564V4.909C5.936 4.933 5.439 4.945 4.907 4.945H2.435V4.109H5.197C5.779 4.109 6.288 4.121 6.724 4.145V3.491C6.166 3.515 5.657 3.527 5.197 3.527H2.435V2.836H1.708C1.732 3.442 1.745 3.964 1.745 4.4V6.254C1.284 5.673 .739 5.115 .109 4.582-.085 4.8-.279 4.957-.473 5.054 .666 5.903 1.478 6.897 1.963 8.036 2.229 7.866 2.471 7.721 2.69 7.6 2.52 7.406 2.363 7.187 2.217 6.945ZM2.399 1.309C2.399 1.018 2.404 .806 2.417 .673 2.429 .539 2.581 .46 2.871 .436H4.761C5.003 .436 5.167 .491 5.252 .6 5.336 .709 5.439 .921 5.561 1.236 5.779 .994 6.009 .824 6.251 .727 6.057 .34 5.852 .091 5.634-.018 5.416-.127 5.173-.182 4.907-.182H2.326C1.938-.182 1.726-.066 1.69 .164 1.654 .394 1.641 .709 1.654 1.109 1.666 1.509 1.659 1.915 1.635 2.327H2.435C2.411 1.964 2.399 1.624 2.399 1.309M4.543 1.6C4.301 1.455 4.107 1.321 3.962 1.2 3.695 1.612 3.38 2.024 3.017 2.436 3.186 2.557 3.368 2.703 3.562 2.873 3.876 2.509 4.204 2.085 4.543 1.6M7.596 .873C7.426 .751 7.233 .606 7.015 .436 6.579 1.018 6.106 1.564 5.597 2.073 5.743 2.194 5.912 2.351 6.106 2.545 6.615 1.987 7.111 1.43 7.596 .873" fill="#2c292a"/>
<path transform="matrix(1,0,0,-1,253.0883,378.6579)" d="M0 0C-.327-.522-.745-1.073-1.254-1.655-1.763-2.236-2.453-2.891-3.326-3.618-3.496-3.352-3.689-3.134-3.907-2.964-3.302-2.624-2.623-2.012-1.872-1.127-1.121-.243-.563 .612-.2 1.436 .115 1.218 .382 1.06 .6 .964 .527 .842 .327 .521 0 0M1.272-2.018C.872-2.576 .369-3.182-.236-3.836-.842-4.491-1.375-5.024-1.836-5.436-1.303-5.412-.606-5.376 .254-5.327 1.114-5.279 1.944-5.231 2.744-5.182 2.356-4.503 2.029-3.982 1.763-3.618 2.005-3.473 2.211-3.315 2.38-3.145 2.768-3.679 3.144-4.218 3.507-4.764 3.871-5.309 4.185-5.824 4.452-6.309 4.282-6.357 4.028-6.515 3.689-6.782 3.544-6.491 3.362-6.175 3.144-5.836 1.956-5.885 .69-5.97-.654-6.091-1.999-6.212-2.744-6.321-2.889-6.418-2.987-6.127-3.096-5.824-3.217-5.509-2.853-5.485-2.217-5-1.308-4.054-.4-3.109 .466-1.885 1.29-.382 1.532-.6 1.811-.794 2.126-.964 1.956-1.109 1.672-1.461 1.272-2.018" fill="#2c292a"/>
<path transform="matrix(1,0,0,-1,259.402,379.4579)" d="M0 0C.412 .764 .727 1.533 .945 2.309 1.187 2.164 1.429 2.055 1.672 1.982 1.478 1.666 1.223 1.073 .908 .2V-4.2C.908-5 .921-5.582 .945-5.945H.218C.242-5.533 .254-4.94 .254-4.164V-1C.012-1.388-.231-1.764-.473-2.127-.642-1.861-.824-1.667-1.018-1.545-.751-1.279-.412-.764 0 0M2.544 1.036C2.544 1.448 2.532 1.764 2.508 1.982H3.235C3.21 1.764 3.198 1.448 3.198 1.036V.055C3.465 .055 3.767 .066 4.107 .091V-.564C3.695-.54 3.392-.527 3.198-.527V-1.836H4.107C4.083-2.176 4.071-2.661 4.071-3.291 4.071-3.921 4.083-4.394 4.107-4.709H3.416V-4.345H2.29V-5.109H1.599C1.623-4.77 1.635-4.224 1.635-3.473 1.635-2.722 1.623-2.176 1.599-1.836H2.544V-.527C2.108-.527 1.745-.54 1.454-.564V.091C1.72 .066 2.083 .055 2.544 .055ZM3.416-2.382H2.289V-3.8H3.416ZM4.488 0C4.743 .691 4.93 1.424 5.052 2.2 5.294 2.103 5.584 2.006 5.924 1.909 5.754 1.739 5.536 1.206 5.27 .309H6.142C6.602 .309 6.978 .321 7.269 .345V-.236C7.027-.212 6.82-.2 6.651-.2 6.675-1.703 6.457-3.012 5.997-4.127 6.409-4.709 6.869-5.109 7.378-5.327 7.111-5.545 6.929-5.751 6.833-5.945 6.445-5.678 6.021-5.254 5.561-4.673 5.148-5.182 4.603-5.654 3.925-6.091 3.78-5.897 3.598-5.715 3.38-5.545 4.01-5.303 4.603-4.831 5.161-4.127 4.87-3.57 4.64-2.722 4.47-1.582L4.325-1.909C4.18-1.74 3.998-1.582 3.78-1.436 3.998-1.17 4.234-.691 4.488 0M4.979-.964C5.173-2.224 5.367-3.049 5.561-3.436 5.827-2.734 5.972-1.667 5.997-.236H5.088C5.016-.431 4.906-.709 4.761-1.073Z" fill="#2c292a"/>
<path transform="matrix(1,0,0,-1,143.3334,237.4708)" d="M0 0C-1.195 0-2.164-.969-2.164-2.165-2.164-3.361-1.195-4.33 0-4.33 1.195-4.33 2.164-3.361 2.164-2.165 2.164-.969 1.195 0 0 0M18.351-1.443H0V-2.886H18.351Z" fill="#2c292a"/>
</g>
<path transform="matrix(1,0,0,-1,0,595.276)" d="M239.282 327.372H240.218V328.30403H239.282ZM236.184 327.372H237.11602V328.30403H236.184ZM233.081 327.372H234.013V328.30403H233.081Z" fill="#2c292a"/>
<path transform="matrix(1,0,0,-1,0,595.276)" d="M248.521 327.372H249.457V328.30403H248.521ZM245.423 327.372H246.354V328.30403H245.423ZM242.32 327.372H243.251V328.30403H242.32Z" fill="#2c292a"/>
<path transform="matrix(1,0,0,-1,0,595.276)" d="M237.262 308.382H238.198V309.313H237.262ZM234.163 308.382H235.094V309.313H234.163ZM231.061 308.382H231.992V309.313H231.061Z" fill="#2c292a"/>
<path transform="matrix(1,0,0,-1,0,595.276)" d="M246.501 308.382H247.43701V309.313H246.501ZM243.402 308.382H244.334V309.313H243.402ZM240.299 308.382H241.23V309.313H240.299Z" fill="#2c292a"/>
<path transform="matrix(1,0,0,-1,0,595.276)" d="M257.455 289.561H258.391V290.493H257.455ZM254.357 289.561H255.289V290.493H254.357ZM251.254 289.561H252.186V290.493H251.254Z" fill="#2c292a"/>
<path transform="matrix(1,0,0,-1,0,595.276)" d="M266.694 289.561H267.63V290.493H266.694ZM263.596 289.561H264.528V290.493H263.596ZM260.493 289.561H261.424V290.493H260.493Z" fill="#2c292a"/>
</g>
</g>
</svg>
