<svg xmlns="http://www.w3.org/2000/svg" xmlns:xlink="http://www.w3.org/1999/xlink" xmlns:inkscape="http://www.inkscape.org/namespaces/inkscape" version="1.1" width="411.024" height="595.276" viewBox="0 0 411.024 595.276">
<defs>
<clipPath id="clip_1">
<path transform="matrix(1,0,0,-1,0,595.276)" d="M0 0H411.024V595.276H0Z"/>
</clipPath>
<clipPath id="clip_2">
<path transform="matrix(1,0,0,-1,0,595.276)" d="M0 0H411.024V595.276H0Z"/>
</clipPath>
<path id="font_3_3" d="M.32998658 0V.71191409H.2579956L.125 .5969238V.51493838L.2579956 .63191226V0H.32998658Z"/>
<path id="font_3_4" d="M.46099855 0V.06399536H.15499878L.4039917 .38186646C.44299317 .43185426 .46099855 .46884156 .46099855 .5258179 .46099855 .6427765 .38198854 .71777346 .2649994 .71777346 .1459961 .71777346 .068984989 .6367645 .068984989 .5248108H.14099121C.14099121 .6167755 .19898987 .6537628 .2649994 .6537628 .34298707 .6537628 .3889923 .6027832 .3889923 .5258179 .3889923 .48683167 .37599183 .45584107 .34899903 .42085267L.067993167 .06399536V0H.46099855Z"/>
<path id="font_3_9" d="M.47099305 .64790347V.71191409H.07598877V.5359192H.14698792V.64790347H.394989L.147995 0H.22399903L.47099305 .64790347Z"/>
<clipPath id="clip_4">
<path transform="matrix(1,0,0,-1,0,595.276)" d="M0 0H411.024V595.276H0Z"/>
</clipPath>
<clipPath id="clip_5">
<path transform="matrix(1,0,0,-1,0,595.276)" d="M0 0H411.024V595.276H0Z"/>
</clipPath>
<clipPath id="clip_6">
<path transform="matrix(1,0,0,-1,0,595.276)" d="M0 0H411.024V595.276H0Z"/>
</clipPath>
<clipPath id="clip_7">
<path transform="matrix(1,0,0,-1,0,595.276)" d="M0 0H411.024V595.276H0Z"/>
</clipPath>
<clipPath id="clip_8">
<path transform="matrix(1,0,0,-1,0,595.276)" d="M0 0H411.024V595.276H0Z"/>
</clipPath>
</defs>
<g clip-path="url(#clip_1)">
<g clip-path="url(#clip_2)">
<use data-text="1" xlink:href="#font_3_3" transform="matrix(9,0,0,-9,363.685,567.547)" fill="#f43040"/>
<use data-text="2" xlink:href="#font_3_4" transform="matrix(9,0,0,-9,367.285,567.547)" fill="#f43040"/>
<use data-text="7" xlink:href="#font_3_9" transform="matrix(9,0,0,-9,370.885,567.547)" fill="#f43040"/>
<g clip-path="url(#clip_4)">
<path transform="matrix(1,0,0,-1,174.3483,186.93051)" d="M0 0C-.246-.082-.765-.204-1.556-.368V-1.922H.573C.573-1.186 .559-.164 .532 1.145 .832 1.09 1.133 1.063 1.433 1.063 1.378 .654 1.351 .19 1.351-.327V-1.922H3.194C3.604-1.922 4.081-1.909 4.627-1.881V-2.617C4.081-2.591 3.617-2.577 3.235-2.577H1.392C1.474-3.885 1.651-4.826 1.925-5.399 2.498-4.854 2.989-4.049 3.399-2.986 3.617-3.177 3.904-3.354 4.259-3.517 4.04-3.763 3.753-4.165 3.399-4.724 3.044-5.283 2.675-5.753 2.293-6.135 2.511-6.462 2.744-6.735 2.989-6.953 3.235-7.171 3.433-7.3 3.583-7.341 3.733-7.382 3.842-7.3 3.911-7.096 3.979-6.891 4.026-6.599 4.054-6.217 4.327-6.408 4.613-6.571 4.914-6.707 4.695-7.47 4.464-7.948 4.218-8.139 3.972-8.329 3.617-8.302 3.153-8.057 2.689-7.812 2.211-7.348 1.72-6.666 .791-7.321 .054-7.784-.491-8.057-.655-7.757-.86-7.511-1.106-7.321-.287-7.049 .518-6.599 1.31-5.971 .928-5.208 .696-4.076 .614-2.577H-1.556V-4.172C-.928-4.036-.45-3.899-.123-3.763-.096-4.036-.068-4.294-.041-4.54-.396-4.622-.901-4.744-1.556-4.908V-6.994C-1.529-7.511-1.693-7.845-2.047-7.996-2.403-8.145-2.812-8.262-3.276-8.343-3.303-8.043-3.44-7.73-3.685-7.403-3.14-7.403-2.778-7.368-2.6-7.3-2.423-7.233-2.334-7.075-2.334-6.83V-5.112C-3.372-5.385-4.054-5.576-4.382-5.685-4.409-5.303-4.491-4.99-4.627-4.744-4.136-4.69-3.372-4.554-2.334-4.335V-2.577C-3.399-2.577-4.136-2.591-4.545-2.617V-1.881C-4.109-1.909-3.372-1.922-2.334-1.922V-.573L-4.054-.941C-4.136-.641-4.245-.382-4.382-.164-3.972-.164-3.337-.068-2.477 .123-1.618 .313-.969 .532-.532 .777-.26 .395-.082 .136 0 0M4.013-.818C3.794-.982 3.576-1.173 3.358-1.391 2.921-.791 2.457-.3 1.966 .082 2.184 .272 2.361 .463 2.498 .654 3.208 0 3.712-.491 4.013-.818" fill="#2c292a"/>
<path transform="matrix(1,0,0,-1,174.3483,186.93051)" stroke-width=".259" stroke-linecap="butt" stroke-miterlimit="10" stroke-linejoin="miter" fill="none" stroke="#2c292a" d="M0 0C-.246-.082-.765-.204-1.556-.368V-1.922H.573C.573-1.186 .559-.164 .532 1.145 .832 1.09 1.133 1.063 1.433 1.063 1.378 .654 1.351 .19 1.351-.327V-1.922H3.194C3.604-1.922 4.081-1.909 4.627-1.881V-2.617C4.081-2.591 3.617-2.577 3.235-2.577H1.392C1.474-3.885 1.651-4.826 1.925-5.399 2.498-4.854 2.989-4.049 3.399-2.986 3.617-3.177 3.904-3.354 4.259-3.517 4.04-3.763 3.753-4.165 3.399-4.724 3.044-5.283 2.675-5.753 2.293-6.135 2.511-6.462 2.744-6.735 2.989-6.953 3.235-7.171 3.433-7.3 3.583-7.341 3.733-7.382 3.842-7.3 3.911-7.096 3.979-6.891 4.026-6.599 4.054-6.217 4.327-6.408 4.613-6.571 4.914-6.707 4.695-7.47 4.464-7.948 4.218-8.139 3.972-8.329 3.617-8.302 3.153-8.057 2.689-7.812 2.211-7.348 1.72-6.666 .791-7.321 .054-7.784-.491-8.057-.655-7.757-.86-7.511-1.106-7.321-.287-7.049 .518-6.599 1.31-5.971 .928-5.208 .696-4.076 .614-2.577H-1.556V-4.172C-.928-4.036-.45-3.899-.123-3.763-.096-4.036-.068-4.294-.041-4.54-.396-4.622-.901-4.744-1.556-4.908V-6.994C-1.529-7.511-1.693-7.845-2.047-7.996-2.403-8.145-2.812-8.262-3.276-8.343-3.303-8.043-3.44-7.73-3.685-7.403-3.14-7.403-2.778-7.368-2.6-7.3-2.423-7.233-2.334-7.075-2.334-6.83V-5.112C-3.372-5.385-4.054-5.576-4.382-5.685-4.409-5.303-4.491-4.99-4.627-4.744-4.136-4.69-3.372-4.554-2.334-4.335V-2.577C-3.399-2.577-4.136-2.591-4.545-2.617V-1.881C-4.109-1.909-3.372-1.922-2.334-1.922V-.573L-4.054-.941C-4.136-.641-4.245-.382-4.382-.164-3.972-.164-3.337-.068-2.477 .123-1.618 .313-.969 .532-.532 .777-.26 .395-.082 .136 0 0ZM4.013-.818C3.794-.982 3.576-1.173 3.358-1.391 2.921-.791 2.457-.3 1.966 .082 2.184 .272 2.361 .463 2.498 .654 3.208 0 3.712-.491 4.013-.818Z"/>
<path transform="matrix(1,0,0,-1,182.5229,193.66242)" d="M0 0C-.52-.559-1.052-1.111-1.599-1.657-1.79-1.466-2.023-1.248-2.296-1.002-1.804-.648-1.298-.191-.779 .368-.26 .927 .191 1.493 .574 2.066 .902 1.821 1.148 1.602 1.312 1.412 .956 1.029 .519 .559 0 0M5.493 5.012C5.493 3.975 5.506 3.143 5.534 2.516H-.902C-.875 3.007-.861 3.785-.861 4.848-.861 5.912-.875 6.73-.902 7.303H5.534C5.506 6.839 5.493 6.076 5.493 5.012M4.632 6.608H0V3.2529999H4.632ZM6.805-.88C6.723-.934 6.449-1.152 5.985-1.534 5.493-.88 4.577 .116 3.238 1.452 3.484 1.616 3.716 1.807 3.935 2.025 5.274 .634 6.231-.334 6.805-.88" fill="#2c292a"/>
<path transform="matrix(1,0,0,-1,182.5229,193.66242)" stroke-width=".259" stroke-linecap="butt" stroke-miterlimit="10" stroke-linejoin="miter" fill="none" stroke="#2c292a" d="M0 0C-.52-.559-1.052-1.111-1.599-1.657-1.79-1.466-2.023-1.248-2.296-1.002-1.804-.648-1.298-.191-.779 .368-.26 .927 .191 1.493 .574 2.066 .902 1.821 1.148 1.602 1.312 1.412 .956 1.029 .519 .559 0 0ZM5.493 5.012C5.493 3.975 5.506 3.143 5.534 2.516H-.902C-.875 3.007-.861 3.785-.861 4.848-.861 5.912-.875 6.73-.902 7.303H5.534C5.506 6.839 5.493 6.076 5.493 5.012ZM4.632 6.608H0V3.2529999H4.632ZM6.805-.88C6.723-.934 6.449-1.152 5.985-1.534 5.493-.88 4.577 .116 3.238 1.452 3.484 1.616 3.716 1.807 3.935 2.025 5.274 .634 6.231-.334 6.805-.88Z"/>
<path transform="matrix(1,0,0,-1,198.4037,190.49192)" d="M0 0C.465 0 .985 .013 1.56 .041V-.695C.985-.668 .465-.654 0-.654H-2.627V-1.677C-1.013-1.677 .041-1.664 .534-1.636V-2.372C.041-2.345-1.013-2.331-2.627-2.331V-3.558C-2.108-3.64-1.464-3.681-.698-3.681 .068-3.681 .917-3.627 1.847-3.518 1.628-3.817 1.491-4.145 1.437-4.499H-.657C-1.259-4.499-1.82-4.465-2.34-4.397-2.86-4.329-3.373-4.199-3.879-4.008-4.386-3.817-4.926-3.477-5.501-2.986-5.611-3.204-5.768-3.456-5.973-3.742-6.178-4.029-6.486-4.376-6.897-4.785-7.171-4.567-7.445-4.376-7.718-4.213-7.171-3.886-6.719-3.409-6.363-2.781-6.008-2.154-5.803-1.568-5.747-1.023L-4.762-1.309C-4.844-1.418-4.982-1.732-5.173-2.25-4.68-2.768-4.092-3.136-3.407-3.354V-.654H-6.035C-6.527-.654-7.048-.668-7.595-.695V.041C-7.02 .013-6.5 0-6.035 0ZM-.041 2.74C-.041 2.031-.028 1.363 0 .736H-6.117C-6.09 1.363-6.076 2.031-6.076 2.74-6.076 3.477-6.09 4.049-6.117 4.458H0C-.028 4.049-.041 3.477-.041 2.74M-.862 3.804H-5.255V2.9859999H-.862ZM-.862 2.29H-5.255V1.431H-.862ZM-.862 1.432" fill="#2c292a"/>
<path transform="matrix(1,0,0,-1,198.4037,190.49192)" stroke-width=".259" stroke-linecap="butt" stroke-miterlimit="10" stroke-linejoin="miter" fill="none" stroke="#2c292a" d="M0 0C.465 0 .985 .013 1.56 .041V-.695C.985-.668 .465-.654 0-.654H-2.627V-1.677C-1.013-1.677 .041-1.664 .534-1.636V-2.372C.041-2.345-1.013-2.331-2.627-2.331V-3.558C-2.108-3.64-1.464-3.681-.698-3.681 .068-3.681 .917-3.627 1.847-3.518 1.628-3.817 1.491-4.145 1.437-4.499H-.657C-1.259-4.499-1.82-4.465-2.34-4.397-2.86-4.329-3.373-4.199-3.879-4.008-4.386-3.817-4.926-3.477-5.501-2.986-5.611-3.204-5.768-3.456-5.973-3.742-6.178-4.029-6.486-4.376-6.897-4.785-7.171-4.567-7.445-4.376-7.718-4.213-7.171-3.886-6.719-3.409-6.363-2.781-6.008-2.154-5.803-1.568-5.747-1.023L-4.762-1.309C-4.844-1.418-4.982-1.732-5.173-2.25-4.68-2.768-4.092-3.136-3.407-3.354V-.654H-6.035C-6.527-.654-7.048-.668-7.595-.695V.041C-7.02 .013-6.5 0-6.035 0H0ZM-.041 2.74C-.041 2.031-.028 1.363 0 .736H-6.117C-6.09 1.363-6.076 2.031-6.076 2.74-6.076 3.477-6.09 4.049-6.117 4.458H0C-.028 4.049-.041 3.477-.041 2.74ZM-.862 3.804H-5.255V2.9859999H-.862ZM-.862 2.29H-5.255V1.431H-.862ZM-.862 1.432"/>
<path transform="matrix(1,0,0,-1,202.8338,185.6673)" d="M0 0H.861C.833-.273 .82-.764 .82-1.472 1.174-1.472 1.584-1.459 2.049-1.431V-2.085C1.612-2.059 1.202-2.045 .82-2.045 .82-4.089 .833-5.316 .861-5.725H0C.027-5.044 .041-4.321 .041-3.558-.451-4.375-.875-4.989-1.229-5.398-1.421-5.18-1.653-5.003-1.926-4.866-1.326-4.403-.711-3.462-.082-2.045-.629-2.045-1.121-2.059-1.557-2.085V-1.431C-1.121-1.459-.588-1.472 .041-1.472 .041-1.009 .027-.518 0 0M-.533-9.323C-.779-9.241-1.08-9.146-1.434-9.037-1.107-8.492-.82-7.674-.574-6.584-.246-6.665 .041-6.734 .287-6.788-.041-7.906-.315-8.751-.533-9.323M2.459-4.089C2.267-4.226 2.063-4.389 1.844-4.58 1.68-4.226 1.407-3.789 1.024-3.271 1.215-3.135 1.42-2.985 1.639-2.822 1.994-3.34 2.267-3.762 2.459-4.089M1.926-7.688C1.926-8.015 1.932-8.26 1.947-8.424 1.96-8.587 2.145-8.682 2.5-8.71H4.508C4.672-8.71 4.795-8.669 4.877-8.587 4.959-8.505 5.013-8.219 5.041-7.728 5.259-7.892 5.56-8.015 5.943-8.096 5.751-8.669 5.594-9.017 5.471-9.139 5.348-9.262 5.041-9.323 4.549-9.323H1.926C1.489-9.296 1.25-9.146 1.209-8.873 1.168-8.601 1.147-8.247 1.147-7.81 1.147-7.375 1.133-6.952 1.106-6.543H1.967C1.94-6.952 1.926-7.334 1.926-7.688M6.926-3.19C6.926-4.171 6.94-5.003 6.967-5.684H2.664C2.691-5.111 2.705-4.28 2.705-3.19 2.705-2.1 2.691-1.172 2.664-.409H6.967C6.94-1.282 6.926-2.208 6.926-3.19M4.262-7.524C4.016-7.606 3.77-7.743 3.525-7.933 3.443-7.743 3.197-7.306 2.787-6.624 2.951-6.488 3.182-6.352 3.484-6.216 3.838-6.843 4.098-7.279 4.262-7.524M6.148-1.063H3.4839998V-2.044H6.148ZM6.148-2.658H3.4839998V-3.558H6.148ZM6.148-4.171H3.4839998V-5.111H6.148ZM7.746-8.301C7.472-8.492 7.227-8.682 7.008-8.873 6.789-8.465 6.284-7.797 5.492-6.87 5.792-6.706 6.01-6.529 6.148-6.338 6.858-7.156 7.391-7.81 7.746-8.301" fill="#2c292a"/>
<path transform="matrix(1,0,0,-1,202.8338,185.6673)" stroke-width=".259" stroke-linecap="butt" stroke-miterlimit="10" stroke-linejoin="miter" fill="none" stroke="#2c292a" d="M0 0H.861C.833-.273 .82-.764 .82-1.472 1.174-1.472 1.584-1.459 2.049-1.431V-2.085C1.612-2.059 1.202-2.045 .82-2.045 .82-4.089 .833-5.316 .861-5.725H0C.027-5.044 .041-4.321 .041-3.558-.451-4.375-.875-4.989-1.229-5.398-1.421-5.18-1.653-5.003-1.926-4.866-1.326-4.403-.711-3.462-.082-2.045-.629-2.045-1.121-2.059-1.557-2.085V-1.431C-1.121-1.459-.588-1.472 .041-1.472 .041-1.009 .027-.518 0 0ZM-.533-9.323C-.779-9.241-1.08-9.146-1.434-9.037-1.107-8.492-.82-7.674-.574-6.584-.246-6.665 .041-6.734 .287-6.788-.041-7.906-.315-8.751-.533-9.323ZM2.459-4.089C2.267-4.226 2.063-4.389 1.844-4.58 1.68-4.226 1.407-3.789 1.024-3.271 1.215-3.135 1.42-2.985 1.639-2.822 1.994-3.34 2.267-3.762 2.459-4.089ZM1.926-7.688C1.926-8.015 1.932-8.26 1.947-8.424 1.96-8.587 2.145-8.682 2.5-8.71H4.508C4.672-8.71 4.795-8.669 4.877-8.587 4.959-8.505 5.013-8.219 5.041-7.728 5.259-7.892 5.56-8.015 5.943-8.096 5.751-8.669 5.594-9.017 5.471-9.139 5.348-9.262 5.041-9.323 4.549-9.323H1.926C1.489-9.296 1.25-9.146 1.209-8.873 1.168-8.601 1.147-8.247 1.147-7.81 1.147-7.375 1.133-6.952 1.106-6.543H1.967C1.94-6.952 1.926-7.334 1.926-7.688ZM6.926-3.19C6.926-4.171 6.94-5.003 6.967-5.684H2.664C2.691-5.111 2.705-4.28 2.705-3.19 2.705-2.1 2.691-1.172 2.664-.409H6.967C6.94-1.282 6.926-2.208 6.926-3.19ZM4.262-7.524C4.016-7.606 3.77-7.743 3.525-7.933 3.443-7.743 3.197-7.306 2.787-6.624 2.951-6.488 3.182-6.352 3.484-6.216 3.838-6.843 4.098-7.279 4.262-7.524ZM6.148-1.063H3.4839998V-2.044H6.148ZM6.148-2.658H3.4839998V-3.558H6.148ZM6.148-4.171H3.4839998V-5.111H6.148ZM7.746-8.301C7.472-8.492 7.227-8.682 7.008-8.873 6.789-8.465 6.284-7.797 5.492-6.87 5.792-6.706 6.01-6.529 6.148-6.338 6.858-7.156 7.391-7.81 7.746-8.301Z"/>
<path transform="matrix(1,0,0,-1,211.6895,191.50879)" d="M0 0C.437 .164 .834 .374 1.191 .634 1.546 .892 1.82 1.186 2.012 1.513H1.519C.999 1.513 .534 1.499 .123 1.472V2.126C.479 2.099 .944 2.085 1.519 2.085H2.217C2.326 2.412 2.381 2.671 2.381 2.862 1.751 2.862 1.177 2.848 .657 2.821V3.475C1.122 3.448 1.71 3.434 2.422 3.434V4.17H1.724C1.314 4.17 .889 4.156 .452 4.129V4.784C.889 4.756 1.396 4.743 1.971 4.743H2.422C2.422 5.042 2.408 5.41 2.381 5.847 2.764 5.765 3.065 5.724 3.284 5.724 3.202 5.587 3.161 5.26 3.161 4.743H3.407C3.872 4.743 4.419 4.756 5.049 4.784V4.129C4.557 4.156 4.078 4.17 3.612 4.17H3.161V3.434C3.845 3.434 4.406 3.461 4.844 3.516V2.821C4.324 2.848 3.763 2.862 3.161 2.862 3.133 2.643 3.092 2.385 3.038 2.085H3.777C4.296 2.085 4.748 2.099 5.131 2.126V1.472C4.639 1.499 4.173 1.513 3.736 1.513H2.874C2.545 .913 2.162 .463 1.724 .164 1.697 .136 1.669 .109 1.642 .082H4.351C4.351 .327 4.337 .558 4.31 .777H5.131C5.104 .558 5.09 .327 5.09 .082H8.292C8.264-.327 8.251-.75 8.251-1.186V-2.003C8.251-2.385 8.093-2.644 7.779-2.78 7.464-2.916 7.061-3.011 6.568-3.066 6.486-2.658 6.376-2.385 6.24-2.249 6.65-2.276 6.964-2.256 7.184-2.187 7.402-2.12 7.512-1.949 7.512-1.676V-.572H5.09V-2.085C5.09-2.576 5.104-3.148 5.131-3.802H4.31C4.337-3.121 4.351-2.535 4.351-2.044V-.572H2.176V-2.985H1.396C1.423-2.576 1.437-2.126 1.437-1.635V-.082C1.108-.273 .794-.436 .493-.572 .356-.3 .191-.109 0 0M8.005 3.312C8.826 2.739 9.181 2.173 9.072 1.615 8.962 1.056 8.401 .708 7.389 .572 7.334 .926 7.211 1.186 7.02 1.349 7.95 1.294 8.395 1.465 8.354 1.86 8.313 2.255 7.923 2.698 7.184 3.189 7.43 3.598 7.703 4.089 8.005 4.661H6.445V.327H5.665C5.692 .981 5.706 1.526 5.706 1.962V4.007C5.706 4.442 5.692 4.865 5.665 5.274H9.154C9.017 4.974 8.634 4.32 8.005 3.312" fill="#2c292a"/>
<path transform="matrix(1,0,0,-1,211.6895,191.50879)" stroke-width=".259" stroke-linecap="butt" stroke-miterlimit="10" stroke-linejoin="miter" fill="none" stroke="#2c292a" d="M0 0C.437 .164 .834 .374 1.191 .634 1.546 .892 1.82 1.186 2.012 1.513H1.519C.999 1.513 .534 1.499 .123 1.472V2.126C.479 2.099 .944 2.085 1.519 2.085H2.217C2.326 2.412 2.381 2.671 2.381 2.862 1.751 2.862 1.177 2.848 .657 2.821V3.475C1.122 3.448 1.71 3.434 2.422 3.434V4.17H1.724C1.314 4.17 .889 4.156 .452 4.129V4.784C.889 4.756 1.396 4.743 1.971 4.743H2.422C2.422 5.042 2.408 5.41 2.381 5.847 2.764 5.765 3.065 5.724 3.284 5.724 3.202 5.587 3.161 5.26 3.161 4.743H3.407C3.872 4.743 4.419 4.756 5.049 4.784V4.129C4.557 4.156 4.078 4.17 3.612 4.17H3.161V3.434C3.845 3.434 4.406 3.461 4.844 3.516V2.821C4.324 2.848 3.763 2.862 3.161 2.862 3.133 2.643 3.092 2.385 3.038 2.085H3.777C4.296 2.085 4.748 2.099 5.131 2.126V1.472C4.639 1.499 4.173 1.513 3.736 1.513H2.874C2.545 .913 2.162 .463 1.724 .164 1.697 .136 1.669 .109 1.642 .082H4.351C4.351 .327 4.337 .558 4.31 .777H5.131C5.104 .558 5.09 .327 5.09 .082H8.292C8.264-.327 8.251-.75 8.251-1.186V-2.003C8.251-2.385 8.093-2.644 7.779-2.78 7.464-2.916 7.061-3.011 6.568-3.066 6.486-2.658 6.376-2.385 6.24-2.249 6.65-2.276 6.964-2.256 7.184-2.187 7.402-2.12 7.512-1.949 7.512-1.676V-.572H5.09V-2.085C5.09-2.576 5.104-3.148 5.131-3.802H4.31C4.337-3.121 4.351-2.535 4.351-2.044V-.572H2.176V-2.985H1.396C1.423-2.576 1.437-2.126 1.437-1.635V-.082C1.108-.273 .794-.436 .493-.572 .356-.3 .191-.109 0 0ZM8.005 3.312C8.826 2.739 9.181 2.173 9.072 1.615 8.962 1.056 8.401 .708 7.389 .572 7.334 .926 7.211 1.186 7.02 1.349 7.95 1.294 8.395 1.465 8.354 1.86 8.313 2.255 7.923 2.698 7.184 3.189 7.43 3.598 7.703 4.089 8.005 4.661H6.445V.327H5.665C5.692 .981 5.706 1.526 5.706 1.962V4.007C5.706 4.442 5.692 4.865 5.665 5.274H9.154C9.017 4.974 8.634 4.32 8.005 3.312Z"/>
<path transform="matrix(1,0,0,-1,223.3176,189.09272)" d="M0 0C-.301-.437-.547-.819-.737-1.146-.901-.956-1.134-.764-1.434-.573-.915-.027-.458 .594-.062 1.289 .334 1.985 .628 2.715 .819 3.479 1.01 3.342 1.324 3.206 1.761 3.07 1.597 2.851 1.27 2.265 .778 1.31V-4.011C.778-4.857 .792-5.539 .819-6.058H-.041C-.014-5.621 0-4.926 0-3.97ZM2.765 1.76C3.106 2.579 3.277 3.111 3.277 3.356 3.604 3.22 3.959 3.111 4.342 3.029 4.178 2.892 3.932 2.469 3.604 1.76H7.905C7.823 1.514 7.7 1.18 7.536 .757 7.372 .334 7.222-.068 7.086-.45 6.812-.368 6.539-.301 6.266-.246 6.457 .164 6.635 .6 6.799 1.064H3.318C2.99 .354 2.607-.301 2.171-.9 1.952-.764 1.665-.655 1.311-.573 1.938 .164 2.423 .941 2.765 1.76M3.031-1.392C3.359-1.555 3.618-1.692 3.809-1.801 3.645-2.074 3.399-2.456 3.072-2.947 2.744-3.438 2.375-3.929 1.966-4.421 1.747-4.23 1.529-4.052 1.311-3.889 1.993-3.179 2.566-2.347 3.031-1.392M4.096-5.096C4.26-5.028 4.342-4.885 4.342-4.666V-1.228C4.342-.573 4.327-.096 4.301 .205H5.161C5.133-.096 5.12-.573 5.12-1.228V-5.116C5.12-5.471 4.969-5.71 4.669-5.833 4.368-5.956 3.959-6.058 3.44-6.14 3.385-5.867 3.249-5.553 3.031-5.198 3.577-5.198 3.932-5.164 4.096-5.096M8.151-3.848C7.987-3.957 7.727-4.121 7.372-4.339 6.908-3.466 6.375-2.593 5.775-1.719 6.048-1.555 6.266-1.419 6.43-1.31 7.086-2.21 7.659-3.056 8.151-3.848" fill="#2c292a"/>
<path transform="matrix(1,0,0,-1,223.3176,189.09272)" stroke-width=".259" stroke-linecap="butt" stroke-miterlimit="10" stroke-linejoin="miter" fill="none" stroke="#2c292a" d="M0 0C-.301-.437-.547-.819-.737-1.146-.901-.956-1.134-.764-1.434-.573-.915-.027-.458 .594-.062 1.289 .334 1.985 .628 2.715 .819 3.479 1.01 3.342 1.324 3.206 1.761 3.07 1.597 2.851 1.27 2.265 .778 1.31V-4.011C.778-4.857 .792-5.539 .819-6.058H-.041C-.014-5.621 0-4.926 0-3.97V0ZM2.765 1.76C3.106 2.579 3.277 3.111 3.277 3.356 3.604 3.22 3.959 3.111 4.342 3.029 4.178 2.892 3.932 2.469 3.604 1.76H7.905C7.823 1.514 7.7 1.18 7.536 .757 7.372 .334 7.222-.068 7.086-.45 6.812-.368 6.539-.301 6.266-.246 6.457 .164 6.635 .6 6.799 1.064H3.318C2.99 .354 2.607-.301 2.171-.9 1.952-.764 1.665-.655 1.311-.573 1.938 .164 2.423 .941 2.765 1.76ZM3.031-1.392C3.359-1.555 3.618-1.692 3.809-1.801 3.645-2.074 3.399-2.456 3.072-2.947 2.744-3.438 2.375-3.929 1.966-4.421 1.747-4.23 1.529-4.052 1.311-3.889 1.993-3.179 2.566-2.347 3.031-1.392ZM4.096-5.096C4.26-5.028 4.342-4.885 4.342-4.666V-1.228C4.342-.573 4.327-.096 4.301 .205H5.161C5.133-.096 5.12-.573 5.12-1.228V-5.116C5.12-5.471 4.969-5.71 4.669-5.833 4.368-5.956 3.959-6.058 3.44-6.14 3.385-5.867 3.249-5.553 3.031-5.198 3.577-5.198 3.932-5.164 4.096-5.096ZM8.151-3.848C7.987-3.957 7.727-4.121 7.372-4.339 6.908-3.466 6.375-2.593 5.775-1.719 6.048-1.555 6.266-1.419 6.43-1.31 7.086-2.21 7.659-3.056 8.151-3.848Z"/>
</g>
<path transform="matrix(1,0,0,-1,0,595.276)" d="M241.842 409.273H243.85599V401.083H241.842Z" fill="#2c292a"/>
<path transform="matrix(1,0,0,-1,249.0928,187.79721)" d="M0 0V-6.396H-2.014V0H-4.028V1.794H2.014V0Z" fill="#2c292a"/>
<path transform="matrix(1,0,0,-1,256.4814,194.1929)" d="M0 0V3.244H-2.141V0H-4.155V8.19H-2.141V5.038H0V8.19H2.014V0Z" fill="#2c292a"/>
<path transform="matrix(1,0,0,-1,263.8704,190.857)" d="M0 0V-3.336H-2.014V0L-4.489 4.854H-2.291L-1.001 1.909 .276 4.854H2.475Z" fill="#2c292a"/>
<g clip-path="url(#clip_5)">
<path transform="matrix(1,0,0,-1,162.2698,184.2396)" d="M0 0C.075 1.536-1.153 2.764-2.606 2.822H-13.898C-15.422 2.764-16.651 1.536-16.721 0V-10.853C-16.651-12.463-15.422-13.691-13.898-13.675H-2.606C-1.153-13.691 .075-12.463 0-10.853Z" fill="#f43040"/>
<path transform="matrix(1,0,0,-1,154.1539,195.85532)" d="M0 0C-1.64 0-3.037 .999-3.037 2.933-3.037 3.868-2.588 4.726-2.165 5.584L-.41 9.196H1.896L.09 5.623C.269 5.687 .461 5.687 .602 5.687 1.717 5.687 3.037 4.739 3.037 2.933 3.037 .999 1.64 0 0 0M0 3.97C-.513 3.97-.935 3.612-.935 2.933-.935 2.254-.513 1.896 0 1.896 .512 1.896 .935 2.254 .935 2.933 .935 3.612 .512 3.97 0 3.97" fill="#ffffff"/>
<path transform="matrix(1,0,0,-1,104.8818,238.99289)" d="M0 0C.365-.024 .73-.036 1.094-.036H1.86C1.836-.498 1.824-.997 1.824-1.531V-3.901C2.116-3.586 2.371-3.294 2.59-3.026 2.663-3.294 2.784-3.525 2.955-3.719 2.638-4.035 2.358-4.32 2.116-4.576 1.872-4.831 1.629-5.128 1.386-5.469 1.191-5.201 .997-4.995 .803-4.849 .997-4.679 1.106-4.461 1.131-4.193V-.547C.742-.547 .365-.559 0-.583ZM2.59 1.349C2.419 1.203 2.237 1.033 2.043 .839 1.58 1.349 1.143 1.787 .73 2.151 .924 2.297 1.094 2.467 1.24 2.662 1.751 2.224 2.201 1.787 2.59 1.349M8.17 1.714C7.66 1.714 7.1 1.683 6.493 1.622 5.884 1.562 5.155 1.495 4.304 1.422V-.255H7.186C7.477-.255 7.891-.243 8.426-.219V-.839C8.061-.815 7.66-.802 7.222-.802H6.748V-2.698C7.453-3.16 8.036-3.549 8.499-3.865 8.28-4.06 8.121-4.266 8.024-4.485 7.562-4.096 7.137-3.78 6.748-3.537V-4.412C6.748-5.043 6.76-5.554 6.784-5.943H6.018C6.042-5.529 6.055-5.019 6.055-4.412V-3.136C5.884-3.014 5.435-2.734 4.705-2.297 4.827-2.127 4.936-1.932 5.034-1.714 5.447-1.957 5.787-2.151 6.055-2.297V-.802H4.341C4.316-1.507 4.273-2.121 4.213-2.643 4.152-3.166 4.061-3.677 3.939-4.175 3.817-4.673 3.55-5.287 3.137-6.016 2.918-5.821 2.675-5.675 2.407-5.578 2.748-5.116 3.009-4.655 3.192-4.193 3.374-3.731 3.489-3.19 3.538-2.57 3.587-1.951 3.617-1.167 3.629-.219 3.641 .729 3.623 1.47 3.575 2.005 4.523 2.029 5.325 2.078 5.982 2.151 6.638 2.224 7.222 2.333 7.733 2.479 7.83 2.236 7.975 1.981 8.17 1.714" fill="#2c292a"/>
<path transform="matrix(1,0,0,-1,114.4824,238.08139)" d="M0 0C.389-.024 .802-.036 1.24-.036H3.502C3.502 .668 3.489 1.215 3.465 1.604H4.268C4.243 1.215 4.231 .668 4.231-.036H6.821C7.161-.036 7.538-.024 7.951 0V-.656C7.514-.632 7.136-.62 6.821-.62H4.231C4.255-1.009 4.371-1.422 4.578-1.859 4.784-2.297 4.997-2.662 5.216-2.953 5.75-2.516 6.249-1.957 6.711-1.276 6.881-1.471 7.125-1.665 7.441-1.859 7.149-2.005 6.504-2.54 5.508-3.464 5.823-3.877 6.206-4.266 6.657-4.63 7.106-4.995 7.599-5.25 8.134-5.396 7.793-5.591 7.55-5.822 7.404-6.089 6.869-5.797 6.328-5.39 5.781-4.867 5.234-4.345 4.717-3.525 4.231-2.406V-5.651C4.255-6.016 4.14-6.259 3.885-6.38 3.629-6.502 3.258-6.587 2.772-6.636 2.723-6.392 2.614-6.125 2.444-5.834 2.857-5.858 3.143-5.852 3.301-5.815 3.459-5.779 3.525-5.651 3.502-5.433V-3.427C2.529-4.181 1.829-4.728 1.404-5.068 .979-5.409 .632-5.7 .365-5.943 .146-5.7-.061-5.482-.255-5.287 .085-5.117 .523-4.855 1.058-4.503 1.592-4.151 2.407-3.513 3.502-2.589V-.62H1.24C.802-.62 .389-.632 0-.656ZM2.59-2.479 1.97-3.026C1.605-2.613 1.118-2.188 .511-1.75L1.094-1.24C1.629-1.677 2.128-2.091 2.59-2.479M7.04 .583C6.869 .461 6.687 .304 6.492 .109 6.225 .401 5.836 .753 5.325 1.167 5.471 1.288 5.654 1.422 5.872 1.568 6.261 1.3 6.65 .972 7.04 .583" fill="#2c292a"/>
<path transform="matrix(1,0,0,-1,130.6171,238.30011)" d="M0 0C-.255-.268-.614-.632-1.076-1.094H-.055C.358-1.094 .784-1.082 1.222-1.057V-1.714C.784-1.69 .346-1.677-.091-1.677H-1.806C-2.195-1.969-2.632-2.285-3.119-2.625H-.018C-.043-3.063-.055-3.464-.055-3.828V-5.104C-.055-5.542-.043-6.016-.018-6.526H-.748V-5.979H-4.249V-6.526H-5.015C-4.991-6.137-4.979-5.773-4.979-5.433V-3.755C-5.466-4.023-6.013-4.29-6.62-4.557-6.863-4.217-7.034-4.011-7.131-3.938-6.961-3.889-6.638-3.774-6.164-3.591-5.69-3.409-5.295-3.208-4.979-2.99V-2.625H-4.286C-3.751-2.333-3.277-2.018-2.863-1.677H-5.453C-5.964-1.677-6.438-1.69-6.875-1.714V-1.057C-6.389-1.082-5.915-1.094-5.453-1.094H-3.52V.036H-4.614C-5.028 .036-5.404 .024-5.745 0V.656C-5.404 .632-5.028 .62-4.614 .62H-3.52C-3.52 .984-3.532 1.397-3.556 1.859H-2.754C-2.778 1.519-2.79 1.106-2.79 .62H-2.243C-1.927 .62-1.563 .632-1.149 .656V0C-1.563 .024-1.927 .036-2.243 .036H-2.79V-1.094H-2.061C-1.721-.827-1.38-.51-1.039-.146-.699 .219-.347 .68 .018 1.24 .285 .972 .504 .778 .675 .656 .48 .486 .255 .267 0 0M-.748-3.208H-4.25V-3.974H-.748ZM-.748-4.557H-4.25V-5.396H-.748ZM-.748-5.396" fill="#2c292a"/>
<path transform="matrix(1,0,0,-1,233.7661,265.3195)" d="M0 0C-.328-.073-.657-.152-.985-.237-1.313-.322-1.654-.419-2.006-.529-2.359-.638-2.693-.753-3.009-.875-3.058-.656-3.143-.365-3.265 0-2.997 .048-2.754 .097-2.535 .146V4.849C-2.535 5.36-2.548 5.858-2.571 6.344H.456C.431 5.907 .419 5.42 .419 4.886V.693C.516 .717 .675 .753 .894 .802V.182C.626 .133 .328 .073 0 0M-.31 5.761H-1.842V4.3760006H-.31ZM-.31 3.828H-1.842V2.3700002H-.31ZM-1.058 .401C-.827 .449-.578 .498-.31 .547V1.787H-1.842V.255C-1.55 .304-1.289 .352-1.058 .401M1.331 .346C1.574 .771 1.751 1.215 1.86 1.677 1.97 2.139 2.048 2.613 2.097 3.099 2.146 3.585 2.17 4.047 2.17 4.485 1.756 4.485 1.38 4.472 1.039 4.448V5.104C1.355 5.08 1.733 5.068 2.17 5.068V5.907C2.17 6.174 2.158 6.538 2.134 7 2.401 6.976 2.717 6.964 3.082 6.964 3.009 6.648 2.966 6.332 2.954 6.016 2.942 5.7 2.936 5.384 2.936 5.068H4.979C4.906 4.679 4.869 4.205 4.869 3.646L4.651-.073C4.626-.534 4.468-.808 4.176-.893 3.885-.978 3.507-1.045 3.046-1.094 2.996-.778 2.912-.486 2.79-.219 3.252-.219 3.568-.213 3.739-.201 3.908-.189 3.994 .048 3.994 .51L4.176 4.485H2.936C2.887 3.464 2.802 2.637 2.681 2.005 2.559 1.373 2.407 .875 2.225 .51 2.043 .146 1.86-.177 1.678-.456 1.495-.735 1.282-1.008 1.039-1.276 .844-1.081 .577-.923 .237-.802 .723-.462 1.088-.079 1.331 .346" fill="#2c292a"/>
<path transform="matrix(1,0,0,-1,242.1445,264.2987)" d="M0 0C.534 .68 .906 1.379 1.112 2.096 1.319 2.813 1.434 3.482 1.459 4.102 1.483 4.722 1.471 5.371 1.422 6.052 1.69 6.028 1.994 6.003 2.334 5.979 2.261 5.59 2.225 5.189 2.225 4.776 2.225 4.363 2.249 3.889 2.298 3.354 2.346 2.819 2.693 2.011 3.337 .93 3.981-.152 4.924-.96 6.164-1.495 5.872-1.787 5.677-2.029 5.581-2.224 3.878-1.398 2.662 .097 1.933 2.261 1.446 .34 .267-1.191-1.605-2.333-1.751-2.139-1.958-1.932-2.225-1.714-1.277-1.252-.535-.681 0 0" fill="#2c292a"/>
<path transform="matrix(1,0,0,-1,256.2496,260.1422)" d="M0 0C-.255-.268-.614-.632-1.076-1.094H-.055C.359-1.094 .784-1.082 1.222-1.057V-1.714C.784-1.69 .347-1.677-.091-1.677H-1.805C-2.195-1.969-2.632-2.285-3.118-2.625H-.018C-.043-3.063-.055-3.464-.055-3.828V-5.104C-.055-5.542-.043-6.016-.018-6.526H-.748V-5.979H-4.249V-6.526H-5.015C-4.991-6.137-4.979-5.773-4.979-5.433V-3.755C-5.465-4.023-6.013-4.29-6.62-4.557-6.863-4.217-7.034-4.011-7.131-3.938-6.961-3.889-6.638-3.774-6.164-3.591-5.69-3.409-5.295-3.208-4.979-2.99V-2.625H-4.286C-3.751-2.333-3.277-2.018-2.863-1.677H-5.453C-5.964-1.677-6.438-1.69-6.875-1.714V-1.057C-6.389-1.082-5.915-1.094-5.453-1.094H-3.52V.036H-4.614C-5.028 .036-5.405 .024-5.745 0V.656C-5.405 .632-5.028 .62-4.614 .62H-3.52C-3.52 .984-3.532 1.397-3.556 1.859H-2.754C-2.778 1.519-2.79 1.106-2.79 .62H-2.243C-1.927 .62-1.563 .632-1.149 .656V0C-1.563 .024-1.927 .036-2.243 .036H-2.79V-1.094H-2.061C-1.72-.827-1.38-.51-1.039-.146-.699 .219-.346 .68 .018 1.24 .286 .972 .505 .778 .675 .656 .48 .486 .255 .267 0 0M-.748-3.208H-4.25V-3.974H-.748ZM-.748-4.557H-4.25V-5.396H-.748ZM-.748-5.396" fill="#2c292a"/>
<path transform="matrix(1,0,0,-1,247.2582,251.4082)" d="M0 0H.955V-1.312H2.267V-2.266H.955V-3.578H0V-2.266H-1.312V-1.312H0ZM.476 .658C-.178 .658-.792 .403-1.253-.058-1.715-.523-1.969-1.135-1.969-1.789-1.969-2.443-1.715-3.057-1.253-3.518-.79-3.979-.178-4.234 .476-4.234 1.132-4.234 1.746-3.979 2.207-3.518 2.669-3.057 2.923-2.443 2.923-1.789 2.923-1.135 2.669-.519 2.207-.058 1.744 .403 1.132 .658 .476 .658M.476 1.93C2.532 1.93 4.196 .265 4.196-1.789 4.196-3.842 2.532-5.506 .476-5.506-1.578-5.506-3.242-3.842-3.242-1.789-3.242 .265-1.578 1.93 .476 1.93M-5.49 9.677C-6.397 9.677-7.252 9.322-7.894 8.68-8.537 8.039-8.89 7.181-8.89 6.275-8.89 5.368-8.537 4.512-7.894 3.871-7.252 3.228-6.399 2.874-5.49 2.874-4.58 2.874-3.726 3.228-3.083 3.871-2.44 4.512-2.087 5.366-2.087 6.275-2.087 7.183-2.442 8.039-3.086 8.68-3.727 9.322-4.58 9.677-5.49 9.677M-5.49 10.95C-2.906 10.95-.814 8.855-.814 6.275-.814 4.59-1.707 3.112-3.046 2.291-2.914 2.248-2.786 2.201-2.655 2.15-3.016 1.856-3.334 1.512-3.6 1.129-4.209 1.311-4.841 1.405-5.49 1.405-6.375 1.405-7.232 1.232-8.038 .892-8.817 .564-9.517 .09-10.117-.51-10.718-1.111-11.189-1.811-11.52-2.591-11.839-3.341-12.009-4.138-12.031-4.962H-13.304C-13.231-1.574-11 1.281-7.933 2.29-9.271 3.111-10.163 4.588-10.163 6.275-10.163 8.858-8.073 10.95-5.49 10.95" fill="#f43040"/>
<path transform="matrix(1,0,0,-1,127.0638,232.20929)" d="M0 0-2.237 2.193C-2.496 2.448-2.884 2.448-3.143 2.193-3.402 1.939-3.402 1.557-3.143 1.302L-2.036 .19H-5.806C-6.161 .19-6.453-.096-6.453-.447-6.453-.797-6.161-1.083-5.806-1.083H-2.036L-3.154-2.211C-3.446-2.497-3.413-2.975-3.056-3.198-2.799-3.388-2.442-3.325-2.216-3.102L0-.893C.259-.637 .259-.255 0 0M-5.966 2.126C-5.855 2.032-5.712 1.972-5.552 1.972-5.205 1.972-4.924 2.249-4.924 2.591-4.922 2.796-5.025 2.977-5.183 3.089V3.096C-5.81 3.562-6.471 3.88-7.094 4.1-5.6 5.007-4.581 6.602-4.581 8.478-4.581 11.324-6.937 13.577-9.799 13.577-12.661 13.577-15.015 11.294-15.015 8.447-15.015 6.602-14.029 4.976-12.534 4.1-16.828 2.566-17.21-1.782-17.21-1.843-17.241-2.187-16.987-2.501-16.638-2.501-16.288-2.531-15.969-2.282-15.938-1.938-15.938-1.718-15.46 3.037-9.862 3.35-9.723 3.35-7.708 3.422-5.967 2.126ZM-9.799 4.599C-11.962 4.599-13.743 6.319-13.743 8.478-13.743 10.636-11.962 12.326-9.799 12.326-7.636 12.326-5.855 10.605-5.855 8.447-5.855 6.289-7.636 4.599-9.799 4.599" fill="#f43040"/>
<path transform="matrix(1,0,0,-1,104.8818,285.0105)" d="M0 0C.365-.025 .73-.036 1.094-.036H1.86C1.836-.499 1.824-.997 1.824-1.531V-3.901C2.116-3.586 2.371-3.294 2.59-3.026 2.663-3.294 2.784-3.525 2.955-3.719 2.638-4.035 2.358-4.321 2.116-4.576 1.872-4.831 1.629-5.128 1.386-5.469 1.191-5.201 .997-4.995 .803-4.849 .997-4.679 1.106-4.461 1.131-4.193V-.547C.742-.547 .365-.559 0-.583ZM2.59 1.349C2.419 1.203 2.237 1.033 2.043 .839 1.58 1.349 1.143 1.787 .73 2.151 .924 2.297 1.094 2.467 1.24 2.662 1.751 2.224 2.201 1.787 2.59 1.349M8.17 1.714C7.66 1.714 7.1 1.683 6.493 1.622 5.884 1.561 5.155 1.495 4.304 1.422V-.255H7.186C7.477-.255 7.891-.243 8.426-.219V-.839C8.061-.815 7.66-.802 7.222-.802H6.748V-2.698C7.453-3.16 8.036-3.549 8.499-3.865 8.28-4.06 8.121-4.266 8.024-4.485 7.562-4.096 7.137-3.78 6.748-3.537V-4.412C6.748-5.043 6.76-5.554 6.784-5.943H6.018C6.042-5.529 6.055-5.019 6.055-4.412V-3.136C5.884-3.014 5.435-2.734 4.705-2.297 4.827-2.127 4.936-1.932 5.034-1.714 5.447-1.957 5.787-2.151 6.055-2.297V-.802H4.341C4.316-1.507 4.273-2.121 4.213-2.643 4.152-3.166 4.061-3.677 3.939-4.175 3.817-4.673 3.55-5.287 3.137-6.016 2.918-5.821 2.675-5.675 2.407-5.578 2.748-5.116 3.009-4.655 3.192-4.193 3.374-3.731 3.489-3.19 3.538-2.57 3.587-1.951 3.617-1.167 3.629-.219 3.641 .729 3.623 1.47 3.575 2.005 4.523 2.029 5.325 2.078 5.982 2.151 6.638 2.224 7.222 2.333 7.733 2.479 7.83 2.236 7.975 1.981 8.17 1.714" fill="#2c292a"/>
<path transform="matrix(1,0,0,-1,114.4824,284.099)" d="M0 0C.389-.025 .802-.036 1.24-.036H3.502C3.502 .668 3.489 1.215 3.465 1.604H4.268C4.243 1.215 4.231 .668 4.231-.036H6.821C7.161-.036 7.538-.025 7.951 0V-.656C7.514-.632 7.136-.62 6.821-.62H4.231C4.255-1.009 4.371-1.422 4.578-1.859 4.784-2.297 4.997-2.662 5.216-2.953 5.75-2.516 6.249-1.957 6.711-1.276 6.881-1.471 7.125-1.665 7.441-1.859 7.149-2.005 6.504-2.54 5.508-3.464 5.823-3.877 6.206-4.266 6.657-4.63 7.106-4.995 7.599-5.25 8.134-5.396 7.793-5.591 7.55-5.822 7.404-6.089 6.869-5.797 6.328-5.39 5.781-4.867 5.234-4.345 4.717-3.525 4.231-2.406V-5.651C4.255-6.016 4.14-6.259 3.885-6.38 3.629-6.502 3.258-6.587 2.772-6.636 2.723-6.392 2.614-6.125 2.444-5.834 2.857-5.858 3.143-5.852 3.301-5.815 3.459-5.779 3.525-5.651 3.502-5.433V-3.427C2.529-4.181 1.829-4.728 1.404-5.068 .979-5.409 .632-5.7 .365-5.943 .146-5.7-.061-5.482-.255-5.287 .085-5.117 .523-4.856 1.058-4.503 1.592-4.151 2.407-3.513 3.502-2.589V-.62H1.24C.802-.62 .389-.632 0-.656ZM2.59-2.479 1.97-3.026C1.605-2.613 1.118-2.188 .511-1.75L1.094-1.24C1.629-1.677 2.128-2.091 2.59-2.479M7.04 .583C6.869 .461 6.687 .304 6.492 .109 6.225 .401 5.836 .753 5.325 1.167 5.471 1.288 5.654 1.422 5.872 1.568 6.261 1.3 6.65 .972 7.04 .583" fill="#2c292a"/>
<path transform="matrix(1,0,0,-1,130.63,284.3177)" d="M0 0C-.255-.268-.614-.632-1.076-1.094H-.055C.358-1.094 .784-1.082 1.222-1.057V-1.714C.784-1.69 .346-1.677-.091-1.677H-1.806C-2.195-1.969-2.633-2.285-3.119-2.625H-.018C-.043-3.063-.055-3.464-.055-3.828V-5.104C-.055-5.542-.043-6.016-.018-6.526H-.748V-5.979H-4.249V-6.526H-5.015C-4.991-6.137-4.979-5.773-4.979-5.433V-3.755C-5.466-4.023-6.013-4.29-6.62-4.558-6.864-4.217-7.034-4.011-7.131-3.938-6.961-3.889-6.638-3.774-6.164-3.591-5.69-3.409-5.295-3.208-4.979-2.99V-2.625H-4.286C-3.751-2.333-3.277-2.018-2.863-1.677H-5.453C-5.964-1.677-6.438-1.69-6.875-1.714V-1.057C-6.389-1.082-5.915-1.094-5.453-1.094H-3.52V.036H-4.614C-5.028 .036-5.405 .024-5.745 0V.656C-5.405 .632-5.028 .62-4.614 .62H-3.52C-3.52 .984-3.532 1.397-3.556 1.859H-2.754C-2.778 1.519-2.79 1.106-2.79 .62H-2.243C-1.927 .62-1.563 .632-1.149 .656V0C-1.563 .024-1.927 .036-2.243 .036H-2.79V-1.094H-2.061C-1.721-.827-1.38-.51-1.04-.146-.699 .219-.347 .68 .018 1.24 .285 .972 .504 .778 .675 .656 .48 .486 .255 .267 0 0M-.748-3.208H-4.25V-3.974H-.748ZM-.748-4.558H-4.25V-5.3970005H-.748ZM-.748-5.396" fill="#2c292a"/>
<path transform="matrix(1,0,0,-1,127.0638,278.2264)" d="M0 0-2.237 2.193C-2.496 2.448-2.884 2.448-3.143 2.193-3.402 1.939-3.402 1.557-3.143 1.302L-2.036 .19H-5.806C-6.161 .19-6.453-.096-6.453-.447-6.453-.797-6.161-1.083-5.806-1.083H-2.036L-3.154-2.211C-3.446-2.497-3.413-2.975-3.056-3.198-2.799-3.388-2.442-3.325-2.216-3.102L0-.893C.259-.637 .259-.255 0 0M-5.966 2.126C-5.855 2.032-5.712 1.972-5.552 1.972-5.205 1.972-4.924 2.249-4.924 2.591-4.922 2.796-5.025 2.977-5.183 3.089V3.096C-5.81 3.562-6.471 3.88-7.094 4.1-5.6 5.007-4.581 6.602-4.581 8.478-4.581 11.324-6.937 13.577-9.799 13.577-12.661 13.577-15.015 11.294-15.015 8.447-15.015 6.602-14.029 4.976-12.534 4.1-16.828 2.566-17.21-1.782-17.21-1.843-17.241-2.187-16.987-2.501-16.638-2.501-16.288-2.531-15.969-2.282-15.938-1.937-15.938-1.718-15.46 3.037-9.862 3.35-9.723 3.35-7.708 3.422-5.967 2.126ZM-9.799 4.599C-11.962 4.599-13.743 6.32-13.743 8.478-13.743 10.636-11.962 12.326-9.799 12.326-7.636 12.326-5.855 10.606-5.855 8.447-5.855 6.289-7.636 4.599-9.799 4.599" fill="#f43040"/>
<path transform="matrix(1,0,0,-1,236.3568,236.92871)" stroke-width="1" stroke-linecap="butt" stroke-miterlimit="10" stroke-linejoin="miter" fill="none" stroke="#f43040" d="M0 0C0 4.414-3.58 7.993-8.073 7.974H-84.727C-88.911 7.992-92.271 4.854-92.681 .795L-94.934-.492-92.542-1.858C-91.727-5.356-88.566-8.006-84.727-8.089H-8.073C-3.58-7.993 0-4.414 0 0Z"/>
<path transform="matrix(1,0,0,-1,157.585,239.7026)" d="M0 0V2.88C-.414 2.88-.815 2.856-1.204 2.807V3.427H.729C.705 2.99 .693 2.625 .693 2.333V.146C1.252-.486 2.212-.802 3.575-.802 4.961-.802 6.055-.742 6.857-.62 6.687-.887 6.577-1.191 6.529-1.531 5.605-1.531 4.82-1.525 4.176-1.513 3.532-1.501 2.997-1.464 2.571-1.404 2.146-1.343 1.806-1.258 1.55-1.148 1.295-1.039 1.021-.875 .729-.656 .438-.437 .133-.474-.182-.766-.499-1.057-.742-1.313-.912-1.531-1.131-1.215-1.313-.996-1.459-.875-.729-.389-.243-.097 0 0M.766 4.886C.523 4.74 .316 4.594 .146 4.448-.219 5.08-.62 5.615-1.058 6.052-.863 6.174-.657 6.332-.438 6.526 .219 5.724 .62 5.177 .766 4.886M4.012 2.589C4.352 3.148 4.596 3.755 4.742 4.412 2.893 4.412 1.751 4.399 1.313 4.375V5.031C1.751 5.007 2.091 4.995 2.334 4.995H5.252C5.617 4.995 6.018 5.007 6.456 5.031V4.375C5.969 4.399 5.654 4.412 5.508 4.412 5.24 3.464 4.936 2.686 4.596 2.078L5.362 1.313C5.629 1.045 5.945 .717 6.31 .328 6.042 .158 5.823-.036 5.654-.255 5.386 .085 5.149 .37 4.942 .602 4.735 .832 4.45 1.13 4.085 1.495 3.769 1.106 3.441 .79 3.1 .547 2.76 .304 2.322 .024 1.787-.292 1.714-.122 1.532 .097 1.24 .365 1.678 .486 2.115 .705 2.553 1.021 2.991 1.337 3.331 1.653 3.575 1.969 3.307 2.285 2.699 2.819 1.751 3.573L2.261 4.084C3.088 3.451 3.671 2.953 4.012 2.589M2.736 6.417C2.954 6.563 3.124 6.709 3.246 6.854 3.878 6.198 4.255 5.797 4.377 5.651 4.231 5.529 4.049 5.372 3.83 5.177 3.708 5.42 3.343 5.834 2.736 6.417" fill="#2c292a"/>
<path transform="matrix(1,0,0,-1,173.9333,236.4212)" d="M0 0C-.243-.292-.426-.571-.547-.839-2.128-.158-3.405 .923-4.377 2.406-5.277 .972-6.481-.146-7.988-.948-8.11-.729-8.316-.499-8.608-.255-7.441 .231-6.535 .851-5.891 1.604-5.247 2.357-4.815 3.038-4.596 3.646-4.304 3.524-4.012 3.415-3.72 3.318-3.818 3.196-3.903 3.087-3.976 2.99-2.954 1.482-1.629 .486 0 0M-4.705-.62C-4.705-.231-4.73 .267-4.778 .875H-3.939C-3.964 .461-3.976-.049-3.976-.656V-3.245C-3.976-3.804-3.964-4.375-3.939-4.959H-4.742C-4.718-4.351-4.705-3.792-4.705-3.281Z" fill="#2c292a"/>
<path transform="matrix(1,0,0,-1,183.0595,238.09839)" d="M0 0V-.656C-.243-.632-.645-.62-1.204-.62-1.204-1.252-1.192-1.75-1.167-2.115H-1.897V-1.75H-3.866V-2.443C-3.891-2.734-3.994-2.929-4.176-3.026-4.359-3.123-4.718-3.208-5.252-3.281-5.301-3.038-5.423-2.771-5.617-2.479-5.179-2.479-4.888-2.467-4.742-2.443-4.596-2.418-4.523-2.346-4.523-2.224V-1.75H-6.565C-6.833-1.75-7.149-1.763-7.514-1.787V-1.13C-7.149-1.155-6.833-1.167-6.565-1.167H-4.523V-.62H-7.258C-7.575-.62-7.878-.632-8.17-.656V0C-7.878-.024-7.575-.036-7.258-.036H-4.523V.474H-6.638C-6.906 .474-7.198 .461-7.514 .438V1.094C-7.198 1.069-6.906 1.057-6.638 1.057H-4.523V1.531H-7.076C-7.052 1.896-7.04 2.224-7.04 2.516-7.04 2.831-7.052 3.136-7.076 3.427H-4.523V3.938H-7.113C-7.502 3.938-7.867 3.925-8.207 3.901V4.558C-7.867 4.533-7.514 4.521-7.149 4.521H-4.523C-4.523 4.691-4.535 4.91-4.559 5.177H-3.83C-3.854 4.983-3.866 4.764-3.866 4.521H-1.386C-.973 4.521-.547 4.533-.109 4.558V3.901C-.547 3.925-.973 3.938-1.386 3.938H-3.866V3.427H-1.24C-1.265 3.136-1.277 2.831-1.277 2.516-1.277 2.2-1.265 1.871-1.24 1.531H-3.866V1.057H-1.167C-1.192 .814-1.204 .449-1.204-.036-.839-.036-.438-.024 0 0M-4.523 2.844H-6.383V2.1150003H-4.523ZM-1.97 2.844H-3.867V2.1150003H-1.97ZM-1.897 .474H-3.867V-.035999985H-1.897ZM-1.897-.62H-3.867V-1.167H-1.897ZM-1.897-1.167" fill="#2c292a"/>
<path transform="matrix(1,0,0,-1,184.5626,237.15039)" d="M0 0C-.219 .073-.45 .121-.693 .146-.523 .51-.365 1.288-.219 2.479 0 2.43 .231 2.394 .474 2.37 .425 2.151 .267 1.361 0 0M1.35 3.099V-2.698C1.35-3.208 1.362-3.706 1.386-4.193H.62C.669-3.706 .693-3.208 .693-2.698V2.99C.693 3.476 .669 3.913 .62 4.302H1.386C1.362 3.889 1.35 3.488 1.35 3.099M1.532 2.479C1.702 2.503 1.909 2.552 2.152 2.625 2.298 2.115 2.419 1.726 2.517 1.458 2.249 1.385 2.018 1.313 1.824 1.24 1.775 1.531 1.678 1.944 1.532 2.479M2.407 1.422C2.991 1.397 3.525 1.385 4.012 1.385H4.742V1.969H4.049C3.635 1.969 3.21 1.956 2.772 1.932V2.552C3.21 2.528 3.635 2.516 4.049 2.516H4.742V3.026H3.976C3.587 3.026 3.112 3.014 2.553 2.99V3.61C3.137 3.585 3.611 3.573 3.976 3.573H4.742C4.742 3.816 4.729 4.059 4.705 4.302H5.471C5.447 4.059 5.435 3.816 5.435 3.573H6.42C6.833 3.573 7.222 3.585 7.587 3.61V2.99C7.222 3.014 6.833 3.026 6.42 3.026H5.435V2.516H6.128C6.516 2.516 6.918 2.528 7.332 2.552V1.932C6.894 1.956 6.492 1.969 6.128 1.969H5.435V1.385H6.492C7.076 1.385 7.55 1.397 7.915 1.422V.802C7.55 .826 7.064 .839 6.456 .839H4.049C3.416 .839 2.869 .826 2.407 .802ZM2.991-1.167C2.991-.608 2.978-.097 2.954 .365H7.113C7.088-.049 7.076-.438 7.076-.802V-3.537C7.076-3.804 6.979-3.974 6.784-4.047 6.589-4.12 6.347-4.18 6.055-4.229 6.03-4.011 5.945-3.779 5.799-3.537 6.14-3.537 6.334-3.5 6.383-3.427 6.432-3.354 6.456-3.087 6.456-2.625H3.647V-4.229H2.954C2.978-3.67 2.991-3.185 2.991-2.771ZM6.42-.182H3.648V-.838H6.42ZM6.42-1.386H3.648V-2.079H6.42ZM6.42-2.078" fill="#2c292a"/>
</g>
<path transform="matrix(1,0,0,-1,0,595.276)" d="M200.063 357.642H201.003V358.577H200.063ZM196.953 357.642H197.888V358.577H196.953ZM193.839 357.642H194.77301V358.577H193.839Z" fill="#2c292a"/>
<path transform="matrix(1,0,0,-1,0,595.276)" d="M171.358 338.458H172.298V339.392H171.358ZM168.249 338.458H169.18399V339.392H168.249ZM165.135 338.458H166.06999V339.392H165.135Z" fill="#2c292a"/>
<path transform="matrix(1,0,0,-1,0,595.276)" d="M209.335 357.642H210.27501V358.577H209.335ZM206.225 357.642H207.16V358.577H206.225ZM203.111 357.642H204.04599V358.577H203.111Z" fill="#2c292a"/>
<path transform="matrix(1,0,0,-1,0,595.276)" d="M180.631 338.458H181.56999V339.392H180.631ZM177.52 338.458H178.455V339.392H177.52ZM174.407 338.458H175.341V339.392H174.407Z" fill="#2c292a"/>
<g clip-path="url(#clip_6)">
<path transform="matrix(1,0,0,-1,211.2758,255.02442)" stroke-width="1" stroke-linecap="butt" stroke-miterlimit="10" stroke-linejoin="miter" fill="none" stroke="#f43040" d="M0 0C-.358 3.994-3.707 7.132-7.747 7.185H-84.619C-89.046 7.128-92.626 3.549-92.626-.865-92.626-5.279-89.046-8.858-84.619-8.878H-7.747C-4.045-8.86-.907-6.228-.13-2.692L2.242-1.28 0 0Z"/>
<path transform="matrix(1,0,0,-1,131.5202,252.46952)" d="M0 0C-.219-.073-.681-.182-1.386-.328V-1.714H.511C.511-1.057 .498-.146 .474 1.021 .742 .972 1.009 .948 1.277 .948 1.228 .583 1.204 .17 1.204-.292V-1.714H2.845C3.21-1.714 3.635-1.702 4.122-1.677V-2.333C3.635-2.309 3.222-2.297 2.882-2.297H1.24C1.313-3.464 1.471-4.302 1.714-4.813 2.225-4.327 2.663-3.61 3.027-2.662 3.222-2.832 3.477-2.99 3.793-3.136 3.599-3.354 3.343-3.713 3.027-4.211 2.711-4.71 2.383-5.129 2.043-5.469 2.237-5.761 2.444-6.004 2.663-6.198 2.882-6.393 3.058-6.508 3.192-6.545 3.325-6.581 3.422-6.508 3.483-6.326 3.544-6.143 3.587-5.883 3.611-5.542 3.854-5.712 4.109-5.858 4.377-5.979 4.182-6.66 3.976-7.085 3.757-7.256 3.538-7.425 3.222-7.401 2.809-7.183 2.395-6.964 1.97-6.55 1.532-5.943 .705-6.526 .049-6.939-.438-7.183-.584-6.915-.766-6.696-.985-6.526-.255-6.284 .462-5.883 1.167-5.323 .826-4.643 .62-3.634 .547-2.297H-1.386V-3.719C-.827-3.598-.401-3.476-.109-3.354-.085-3.598-.061-3.828-.036-4.047-.353-4.12-.802-4.229-1.386-4.375V-6.235C-1.362-6.696-1.508-6.994-1.824-7.128-2.14-7.261-2.505-7.365-2.918-7.438-2.942-7.17-3.064-6.891-3.283-6.599-2.797-6.599-2.474-6.569-2.316-6.508-2.158-6.448-2.079-6.308-2.079-6.089V-4.557C-3.003-4.801-3.611-4.971-3.903-5.068-3.927-4.728-4-4.448-4.122-4.229-3.684-4.181-3.003-4.06-2.079-3.865V-2.297C-3.027-2.297-3.684-2.309-4.049-2.333V-1.677C-3.66-1.702-3.003-1.714-2.079-1.714V-.51L-3.611-.839C-3.684-.571-3.781-.341-3.903-.146-3.538-.146-2.973-.061-2.207 .109-1.441 .279-.863 .474-.474 .693-.231 .352-.073 .121 0 0M3.575-.729C3.38-.875 3.185-1.045 2.991-1.24 2.602-.705 2.189-.268 1.751 .073 1.945 .243 2.103 .413 2.225 .583 2.857 0 3.307-.437 3.575-.729" fill="#2c292a"/>
<path transform="matrix(1,0,0,-1,141.1937,251.4851)" d="M0 0C-.024-.243-.036-.498-.036-.766V-1.203H2.152C2.444-1.203 2.76-1.191 3.1-1.167V-1.896C2.76-1.847 2.444-1.823 2.152-1.823H-.036V-3.938H2.48C2.845-3.938 3.246-3.926 3.684-3.901V-4.594C3.27-4.57 2.869-4.557 2.48-4.557H.584C.753-4.801 .96-5.031 1.204-5.25 1.446-5.469 1.708-5.682 1.988-5.888 2.267-6.095 2.577-6.271 2.918-6.417 3.258-6.563 3.586-6.672 3.903-6.745 3.659-6.964 3.502-7.134 3.429-7.256 3.356-7.377 3.307-7.486 3.283-7.584 2.772-7.365 2.353-7.14 2.024-6.909 1.696-6.679 1.392-6.429 1.112-6.162 .833-5.895 .596-5.639 .401-5.396 .206-5.153 .06-4.922-.036-4.703V-6.782C-.036-7.171-.024-7.632 0-8.167H-.839C-.791-7.632-.766-7.171-.766-6.782V-4.63C-1.277-5.433-1.812-6.083-2.371-6.581-2.931-7.08-3.441-7.462-3.903-7.73-4.049-7.511-4.268-7.292-4.559-7.073-3.684-6.685-2.979-6.216-2.444-5.67-1.909-5.123-1.593-4.752-1.495-4.557H-3.392C-3.684-4.557-4.025-4.582-4.413-4.63V-3.901C-4.025-3.926-3.684-3.938-3.392-3.938H-.766V-1.823H-2.845C-3.259-1.823-3.611-1.847-3.903-1.896V-1.167C-3.611-1.191-3.271-1.203-2.882-1.203H-.766V-.729C-.815-.462-.839-.219-.839 0ZM-1.532-3.464C-1.751-3.561-1.958-3.67-2.152-3.792-2.371-3.354-2.651-2.917-2.991-2.479-2.821-2.358-2.651-2.224-2.48-2.078-2.092-2.516-1.775-2.978-1.532-3.464M1.313-3.828C1.094-3.731 .887-3.646 .693-3.573 1.082-2.868 1.373-2.358 1.568-2.042 1.787-2.115 1.994-2.224 2.188-2.37 1.945-2.783 1.653-3.269 1.313-3.828" fill="#2c292a"/>
<path transform="matrix(1,0,0,-1,146.0524,256.553)" d="M0 0C.389 .146 .742 .334 1.058 .565 1.373 .796 1.617 1.057 1.787 1.349H1.35C.887 1.349 .474 1.337 .109 1.313V1.896C.425 1.871 .839 1.859 1.35 1.859H1.97C2.067 2.151 2.116 2.382 2.116 2.552 1.556 2.552 1.045 2.54 .584 2.516V3.099C.997 3.075 1.519 3.063 2.152 3.063V3.719H1.532C1.167 3.719 .79 3.706 .401 3.682V4.266C.79 4.241 1.24 4.229 1.751 4.229H2.152C2.152 4.497 2.139 4.825 2.116 5.214 2.456 5.141 2.723 5.104 2.918 5.104 2.845 4.982 2.809 4.691 2.809 4.229H3.027C3.441 4.229 3.927 4.241 4.486 4.266V3.682C4.049 3.706 3.623 3.719 3.21 3.719H2.809V3.063C3.416 3.063 3.915 3.087 4.304 3.136V2.516C3.842 2.54 3.343 2.552 2.809 2.552 2.784 2.357 2.748 2.127 2.699 1.859H3.356C3.817 1.859 4.219 1.871 4.559 1.896V1.313C4.122 1.337 3.708 1.349 3.319 1.349H2.553C2.261 .814 1.921 .413 1.532 .146 1.507 .121 1.483 .097 1.459 .073H3.866C3.866 .292 3.854 .498 3.83 .693H4.559C4.535 .498 4.523 .292 4.523 .073H7.368C7.343-.292 7.331-.669 7.331-1.057V-1.787C7.331-2.127 7.191-2.358 6.912-2.479 6.632-2.601 6.274-2.686 5.836-2.734 5.763-2.37 5.666-2.127 5.544-2.005 5.909-2.03 6.188-2.012 6.383-1.951 6.577-1.89 6.675-1.738 6.675-1.495V-.51H4.523V-1.859C4.523-2.297 4.535-2.807 4.559-3.391H3.83C3.854-2.783 3.866-2.261 3.866-1.823V-.51H1.933V-2.662H1.24C1.264-2.297 1.277-1.896 1.277-1.458V-.073C.985-.243 .705-.389 .438-.51 .316-.268 .17-.098 0 0M7.113 2.953C7.842 2.443 8.158 1.938 8.061 1.44 7.963 .942 7.465 .632 6.565 .51 6.516 .826 6.407 1.057 6.237 1.203 7.064 1.154 7.459 1.306 7.423 1.659 7.386 2.011 7.04 2.406 6.383 2.844 6.602 3.208 6.845 3.646 7.113 4.156H5.727V.292H5.034C5.057 .875 5.07 1.361 5.07 1.75V3.573C5.07 3.962 5.057 4.339 5.034 4.703H8.134C8.012 4.436 7.672 3.852 7.113 2.953" fill="#2c292a"/>
<path transform="matrix(1,0,0,-1,156.3458,254.40189)" d="M0 0C-.268-.389-.487-.729-.657-1.021-.802-.851-1.009-.681-1.277-.51-.815-.024-.407 .529-.055 1.148 .298 1.768 .559 2.418 .73 3.099 .899 2.977 1.179 2.856 1.568 2.735 1.423 2.54 1.131 2.017 .693 1.167V-3.573C.693-4.327 .705-4.934 .73-5.396H-.036C-.013-5.007 0-4.388 0-3.537ZM2.462 1.568C2.766 2.297 2.918 2.771 2.918 2.99 3.21 2.868 3.526 2.771 3.866 2.698 3.72 2.576 3.502 2.2 3.21 1.568H7.04C6.967 1.349 6.857 1.051 6.711 .675 6.565 .297 6.432-.061 6.31-.401 6.067-.328 5.823-.268 5.581-.219 5.75 .146 5.909 .534 6.055 .948H2.955C2.663 .316 2.322-.268 1.933-.802 1.738-.681 1.483-.583 1.167-.51 1.726 .146 2.158 .839 2.462 1.568M2.699-1.24C2.991-1.385 3.222-1.507 3.392-1.604 3.246-1.847 3.027-2.188 2.736-2.625 2.444-3.063 2.116-3.5 1.751-3.938 1.556-3.768 1.362-3.61 1.167-3.464 1.775-2.832 2.285-2.091 2.699-1.24M3.647-4.539C3.793-4.479 3.866-4.351 3.866-4.156V-1.094C3.866-.51 3.854-.085 3.83 .182H4.596C4.571-.085 4.559-.51 4.559-1.094V-4.557C4.559-4.873 4.425-5.086 4.158-5.196 3.89-5.305 3.526-5.396 3.064-5.469 3.015-5.226 2.894-4.946 2.699-4.63 3.185-4.63 3.502-4.6 3.647-4.539M7.259-3.427C7.113-3.525 6.881-3.671 6.565-3.865 6.152-3.087 5.678-2.309 5.143-1.531 5.386-1.385 5.581-1.264 5.727-1.167 6.31-1.969 6.821-2.723 7.259-3.427" fill="#2c292a"/>
<path transform="matrix(1,0,0,-1,235.3947,276.1106)" stroke-width="1" stroke-linecap="butt" stroke-miterlimit="10" stroke-linejoin="miter" fill="none" stroke="#f43040" d="M0 0C0 4.414-3.58 7.993-7.979 8.084H-84.851C-89.015 7.997-92.437 4.708-92.818 .605L-94.84-.598-92.59-1.884C-91.666-5.4-88.549-7.991-84.851-7.979H-7.979C-3.58-7.993 0-4.414 0 0Z"/>
<path transform="matrix(1,0,0,-1,155.2851,278.1704)" d="M0 0V2.88C-.414 2.88-.815 2.856-1.204 2.807V3.427H.73C.705 2.99 .693 2.625 .693 2.333V.146C1.252-.486 2.212-.802 3.575-.802 4.961-.802 6.055-.742 6.857-.62 6.687-.887 6.578-1.191 6.529-1.531 5.605-1.531 4.82-1.525 4.176-1.513 3.532-1.501 2.997-1.464 2.571-1.404 2.146-1.343 1.806-1.258 1.55-1.148 1.295-1.039 1.021-.875 .73-.656 .438-.438 .133-.474-.182-.766-.499-1.057-.742-1.313-.912-1.531-1.131-1.215-1.313-.996-1.459-.875-.729-.389-.243-.098 0 0M.766 4.886C.523 4.74 .316 4.594 .146 4.448-.219 5.08-.62 5.615-1.058 6.052-.863 6.174-.657 6.332-.438 6.526 .219 5.724 .62 5.177 .766 4.886M4.012 2.589C4.353 3.147 4.596 3.755 4.742 4.412 2.894 4.412 1.751 4.399 1.313 4.375V5.031C1.751 5.007 2.091 4.995 2.334 4.995H5.252C5.617 4.995 6.018 5.007 6.456 5.031V4.375C5.969 4.399 5.654 4.412 5.508 4.412 5.24 3.464 4.936 2.686 4.596 2.078L5.362 1.313C5.629 1.045 5.945 .717 6.31 .328 6.042 .158 5.823-.036 5.654-.255 5.386 .085 5.149 .37 4.942 .602 4.735 .832 4.45 1.13 4.085 1.495 3.769 1.106 3.441 .79 3.1 .547 2.76 .304 2.322 .024 1.787-.292 1.714-.122 1.532 .097 1.24 .365 1.678 .486 2.116 .705 2.553 1.021 2.991 1.337 3.331 1.653 3.575 1.969 3.307 2.284 2.699 2.819 1.751 3.573L2.261 4.084C3.088 3.451 3.671 2.953 4.012 2.589M2.736 6.417C2.954 6.563 3.124 6.709 3.246 6.854 3.878 6.198 4.255 5.797 4.377 5.651 4.231 5.529 4.049 5.371 3.83 5.177 3.708 5.42 3.343 5.834 2.736 6.417" fill="#2c292a"/>
<path transform="matrix(1,0,0,-1,171.6334,274.889)" d="M0 0C-.243-.292-.426-.571-.547-.839-2.128-.158-3.405 .923-4.377 2.406-5.277 .972-6.481-.146-7.988-.948-8.11-.729-8.316-.499-8.608-.255-7.441 .231-6.535 .85-5.891 1.604-5.247 2.357-4.815 3.038-4.596 3.646-4.304 3.524-4.012 3.415-3.72 3.318-3.818 3.196-3.903 3.087-3.976 2.99-2.954 1.482-1.629 .486 0 0M-4.705-.62C-4.705-.231-4.73 .267-4.778 .875H-3.939C-3.964 .461-3.976-.049-3.976-.656V-3.245C-3.976-3.804-3.964-4.375-3.939-4.959H-4.742C-4.718-4.351-4.705-3.792-4.705-3.281Z" fill="#2c292a"/>
<path transform="matrix(1,0,0,-1,180.7596,276.5662)" d="M0 0V-.656C-.243-.632-.645-.62-1.204-.62-1.204-1.252-1.192-1.75-1.167-2.115H-1.897V-1.75H-3.866V-2.443C-3.891-2.734-3.994-2.929-4.176-3.026-4.359-3.123-4.718-3.208-5.252-3.281-5.301-3.038-5.423-2.771-5.617-2.479-5.179-2.479-4.888-2.467-4.742-2.443-4.596-2.418-4.523-2.346-4.523-2.224V-1.75H-6.565C-6.833-1.75-7.149-1.763-7.514-1.787V-1.13C-7.149-1.155-6.833-1.167-6.565-1.167H-4.523V-.62H-7.258C-7.575-.62-7.878-.632-8.17-.656V0C-7.878-.025-7.575-.036-7.258-.036H-4.523V.474H-6.638C-6.906 .474-7.198 .461-7.514 .438V1.094C-7.198 1.069-6.906 1.057-6.638 1.057H-4.523V1.531H-7.076C-7.052 1.896-7.04 2.224-7.04 2.516-7.04 2.831-7.052 3.136-7.076 3.427H-4.523V3.938H-7.113C-7.502 3.938-7.867 3.925-8.207 3.901V4.557C-7.867 4.533-7.514 4.521-7.149 4.521H-4.523C-4.523 4.691-4.535 4.91-4.559 5.177H-3.83C-3.854 4.983-3.866 4.764-3.866 4.521H-1.386C-.973 4.521-.547 4.533-.109 4.557V3.901C-.547 3.925-.973 3.938-1.386 3.938H-3.866V3.427H-1.24C-1.265 3.136-1.277 2.831-1.277 2.516-1.277 2.199-1.265 1.871-1.24 1.531H-3.866V1.057H-1.167C-1.192 .814-1.204 .449-1.204-.036-.839-.036-.438-.025 0 0M-4.523 2.844H-6.383V2.1150003H-4.523ZM-1.97 2.844H-3.867V2.1150003H-1.97ZM-1.897 .474H-3.867V-.035999985H-1.897ZM-1.897-.62H-3.867V-1.167H-1.897ZM-1.897-1.167" fill="#2c292a"/>
<path transform="matrix(1,0,0,-1,182.2628,275.6182)" d="M0 0C-.219 .073-.45 .121-.693 .146-.523 .51-.365 1.288-.219 2.479 0 2.43 .231 2.394 .474 2.37 .425 2.151 .267 1.361 0 0M1.35 3.099V-2.698C1.35-3.208 1.362-3.706 1.386-4.193H.62C.669-3.706 .693-3.208 .693-2.698V2.99C.693 3.476 .669 3.913 .62 4.302H1.386C1.362 3.889 1.35 3.488 1.35 3.099M1.532 2.479C1.702 2.503 1.909 2.552 2.152 2.625 2.298 2.115 2.419 1.725 2.517 1.458 2.249 1.385 2.018 1.313 1.824 1.24 1.775 1.531 1.678 1.944 1.532 2.479M2.407 1.422C2.991 1.397 3.525 1.385 4.012 1.385H4.742V1.969H4.049C3.635 1.969 3.21 1.956 2.772 1.932V2.552C3.21 2.528 3.635 2.516 4.049 2.516H4.742V3.026H3.976C3.586 3.026 3.112 3.014 2.553 2.99V3.61C3.137 3.585 3.611 3.573 3.976 3.573H4.742C4.742 3.816 4.729 4.059 4.705 4.302H5.471C5.447 4.059 5.435 3.816 5.435 3.573H6.42C6.833 3.573 7.222 3.585 7.587 3.61V2.99C7.222 3.014 6.833 3.026 6.42 3.026H5.435V2.516H6.128C6.516 2.516 6.918 2.528 7.331 2.552V1.932C6.894 1.956 6.492 1.969 6.128 1.969H5.435V1.385H6.492C7.076 1.385 7.55 1.397 7.915 1.422V.802C7.55 .826 7.064 .839 6.456 .839H4.049C3.416 .839 2.869 .826 2.407 .802ZM2.991-1.167C2.991-.608 2.978-.098 2.954 .365H7.113C7.088-.049 7.076-.438 7.076-.802V-3.537C7.076-3.804 6.979-3.974 6.784-4.047 6.589-4.12 6.347-4.18 6.055-4.229 6.03-4.011 5.945-3.779 5.799-3.537 6.14-3.537 6.334-3.5 6.383-3.427 6.432-3.354 6.456-3.087 6.456-2.625H3.647V-4.229H2.954C2.978-3.67 2.991-3.185 2.991-2.771ZM6.42-.182H3.648V-.838H6.42ZM6.42-1.385H3.648V-2.078H6.42ZM6.42-2.078" fill="#2c292a"/>
</g>
<path transform="matrix(1,0,0,-1,0,595.276)" d="M197.763 319.174H198.702V320.109H197.763ZM194.654 319.174H195.58802V320.109H194.654ZM191.54 319.174H192.474V320.109H191.54Z" fill="#2c292a"/>
<path transform="matrix(1,0,0,-1,0,595.276)" d="M207.035 319.174H207.974V320.109H207.035ZM203.926 319.174H204.861V320.109H203.926ZM200.812 319.174H201.746V320.109H200.812Z" fill="#2c292a"/>
<g clip-path="url(#clip_7)">
<path transform="matrix(1,0,0,-1,153.55,382.2849)" d="M0 0C-.328-.073-.656-.152-.985-.237-1.313-.322-1.654-.419-2.006-.529-2.359-.638-2.693-.753-3.009-.875-3.058-.656-3.143-.365-3.264 0-2.997 .048-2.754 .097-2.535 .146V4.849C-2.535 5.36-2.547 5.858-2.571 6.344H.456C.431 5.907 .419 5.42 .419 4.886V.693C.516 .717 .675 .753 .894 .802V.182C.626 .133 .328 .073 0 0M-.31 5.761H-1.842V4.3760006H-.31ZM-.31 3.828H-1.842V2.3700002H-.31ZM-1.058 .401C-.827 .449-.578 .498-.31 .547V1.787H-1.842V.255C-1.55 .304-1.289 .352-1.058 .401M1.331 .346C1.574 .771 1.751 1.215 1.86 1.677 1.97 2.139 2.048 2.613 2.097 3.099 2.146 3.585 2.17 4.047 2.17 4.485 1.757 4.485 1.38 4.472 1.04 4.448V5.104C1.355 5.08 1.733 5.068 2.17 5.068V5.907C2.17 6.174 2.158 6.538 2.134 7 2.401 6.976 2.717 6.964 3.082 6.964 3.009 6.648 2.966 6.332 2.954 6.016 2.942 5.7 2.936 5.384 2.936 5.068H4.979C4.906 4.679 4.869 4.205 4.869 3.646L4.651-.073C4.626-.534 4.468-.808 4.176-.893 3.885-.978 3.507-1.045 3.046-1.094 2.997-.778 2.912-.486 2.79-.219 3.252-.219 3.568-.213 3.739-.201 3.909-.189 3.994 .048 3.994 .51L4.176 4.485H2.936C2.887 3.464 2.802 2.637 2.681 2.005 2.559 1.373 2.407 .875 2.225 .51 2.043 .146 1.86-.177 1.678-.456 1.495-.735 1.282-1.008 1.04-1.276 .845-1.081 .577-.923 .237-.802 .723-.462 1.088-.079 1.331 .346" fill="#2c292a"/>
<path transform="matrix(1,0,0,-1,161.9286,381.2641)" d="M0 0C.535 .68 .906 1.379 1.112 2.096 1.319 2.813 1.435 3.482 1.459 4.102 1.483 4.722 1.471 5.371 1.423 6.052 1.69 6.028 1.994 6.003 2.334 5.979 2.261 5.59 2.225 5.189 2.225 4.776 2.225 4.363 2.249 3.889 2.298 3.354 2.346 2.819 2.693 2.011 3.337 .93 3.982-.152 4.924-.96 6.164-1.495 5.872-1.787 5.678-2.029 5.581-2.224 3.878-1.398 2.663 .097 1.933 2.261 1.446 .34 .267-1.191-1.605-2.333-1.751-2.139-1.958-1.932-2.225-1.714-1.277-1.252-.535-.681 0 0" fill="#2c292a"/>
<path transform="matrix(1,0,0,-1,176.0336,377.1076)" d="M0 0C-.255-.268-.614-.632-1.076-1.094H-.055C.358-1.094 .784-1.082 1.222-1.057V-1.714C.784-1.69 .346-1.677-.091-1.677H-1.806C-2.195-1.969-2.632-2.285-3.119-2.625H-.018C-.043-3.063-.055-3.464-.055-3.828V-5.104C-.055-5.542-.043-6.016-.018-6.526H-.748V-5.979H-4.249V-6.526H-5.015C-4.991-6.137-4.979-5.773-4.979-5.433V-3.755C-5.466-4.023-6.013-4.29-6.62-4.557-6.863-4.217-7.034-4.011-7.131-3.938-6.961-3.889-6.638-3.774-6.164-3.591-5.69-3.409-5.295-3.208-4.979-2.99V-2.625H-4.286C-3.751-2.333-3.277-2.018-2.863-1.677H-5.453C-5.964-1.677-6.438-1.69-6.875-1.714V-1.057C-6.389-1.082-5.915-1.094-5.453-1.094H-3.52V.036H-4.614C-5.028 .036-5.405 .024-5.745 0V.656C-5.405 .632-5.028 .62-4.614 .62H-3.52C-3.52 .984-3.532 1.397-3.556 1.859H-2.754C-2.778 1.519-2.79 1.106-2.79 .62H-2.243C-1.927 .62-1.563 .632-1.149 .656V0C-1.563 .024-1.927 .036-2.243 .036H-2.79V-1.094H-2.061C-1.721-.827-1.38-.51-1.039-.146-.699 .219-.347 .68 .018 1.24 .285 .972 .504 .778 .675 .656 .48 .486 .255 .267 0 0M-.748-3.208H-4.249V-3.974H-.748ZM-.748-4.557H-4.249V-5.396H-.748ZM-.748-5.396" fill="#2c292a"/>
</g>
<path transform="matrix(1,0,0,-1,182.7042,382.7589)" d="M0 0H-1.268L1.654 2.921H-4.199V3.824H1.654L-1.268 6.745H0L3.374 3.373Z" fill="#2c292a"/>
<g clip-path="url(#clip_8)">
<path transform="matrix(1,0,0,-1,193.7222,377.1441)" d="M0 0C.389 0 .875 .012 1.459 .036V-.656C.875-.632 .389-.62 0-.62H-1.933V-2.443H-.474C-.086-2.443 .377-2.431 .912-2.406V-3.099C.377-3.075-.086-3.063-.474-3.063H-1.933V-5.396H.365C.802-5.396 1.313-5.384 1.897-5.36V-6.052C1.313-6.028 .802-6.016 .365-6.016H-6.419V-5.323C-5.836-5.372-5.313-5.396-4.851-5.396H-2.699V-3.063H-4.122C-4.511-3.063-4.973-3.075-5.508-3.099V-2.406C-4.924-2.431-4.463-2.443-4.122-2.443H-2.699V-.62H-4.523C-5.033-.62-5.532-.632-6.018-.656V.036C-5.484 .012-4.973 0-4.486 0ZM-3.429 1.495C-3.186 1.665-2.991 1.823-2.845 1.969-2.334 1.385-1.933 .887-1.641 .474-1.787 .401-2.006 .267-2.298 .073-2.59 .51-2.967 .984-3.429 1.495" fill="#2c292a"/>
<path transform="matrix(1,0,0,-1,196.4653,378.3473)" d="M0 0C.365-.025 .802-.036 1.313-.036H2.699C3.137-.036 3.635-.025 4.195 0V-.656C3.635-.632 3.149-.62 2.736-.62H2.334C2.188-1.009 2.024-1.422 1.842-1.859 1.66-2.297 1.447-2.735 1.204-3.172 2.152-3.075 2.869-2.978 3.356-2.88 3.234-2.589 3.039-2.224 2.772-1.787 3.039-1.641 3.234-1.519 3.356-1.422 3.599-1.859 3.805-2.23 3.976-2.534 4.146-2.838 4.328-3.208 4.523-3.646 4.328-3.768 4.109-3.889 3.866-4.011 3.769-3.792 3.684-3.61 3.611-3.464 2.832-3.586 2.207-3.682 1.733-3.755 1.258-3.828 .851-3.926 .511-4.047 .413-3.804 .292-3.573 .146-3.354 .462-3.16 .748-2.771 1.003-2.188 1.258-1.604 1.447-1.082 1.568-.62H1.313C.802-.62 .365-.632 0-.656ZM2.517 2.042C2.93 2.042 3.392 2.054 3.903 2.078V1.385C3.392 1.409 2.93 1.422 2.517 1.422H1.641C1.252 1.422 .875 1.409 .511 1.385V2.078C.851 2.054 1.216 2.042 1.605 2.042ZM6.456 2.99C6.407 2.746 6.377 2.473 6.365 2.169 6.352 1.865 6.347 1.495 6.347 1.057H8.389C8.365 .741 8.34 .389 8.316 0L8.134-4.156C8.061-4.642 7.86-4.94 7.532-5.05 7.204-5.159 6.833-5.238 6.419-5.287 6.347-4.995 6.225-4.727 6.055-4.485 6.589-4.509 6.954-4.478 7.149-4.393 7.343-4.309 7.441-4.145 7.441-3.901L7.66 .437H6.347C6.298-.632 6.219-1.447 6.11-2.005 6-2.565 5.83-3.081 5.599-3.555 5.367-4.029 4.9-4.642 4.195-5.396 3.951-5.153 3.732-4.995 3.538-4.922 4-4.558 4.377-4.175 4.669-3.774 4.961-3.373 5.167-2.96 5.289-2.534 5.41-2.109 5.495-1.665 5.544-1.203 5.593-.742 5.629-.195 5.654 .437H5.033C4.766 .437 4.45 .425 4.085 .401V1.094C4.45 1.069 4.79 1.057 5.106 1.057H5.654V2.078C5.654 2.418 5.641 2.758 5.617 3.099 5.909 3.026 6.188 2.99 6.456 2.99" fill="#2c292a"/>
<path transform="matrix(1,0,0,-1,207.4884,376.6337)" d="M0 0C-.219-.389-.487-.875-.802-1.458-.268-1.434 .121-1.422 .365-1.422 .584-1.033 .766-.656 .912-.292 1.155-.462 1.423-.62 1.714-.766 1.592-.863 1.38-1.13 1.076-1.568 .772-2.005 .292-2.723-.365-3.719 .438-3.598 1.07-3.5 1.532-3.427 1.459-3.695 1.423-3.926 1.423-4.12 1.204-4.145 .815-4.193 .255-4.266-.304-4.339-.851-4.448-1.386-4.594-1.483-4.351-1.568-4.108-1.641-3.865-1.35-3.792-1.058-3.567-.766-3.19-.474-2.814-.219-2.419 0-2.005-.17-2.005-.419-2.024-.748-2.06-1.076-2.096-1.362-2.151-1.605-2.224-1.678-1.981-1.751-1.75-1.824-1.531-1.556-1.313-1.271-.936-.967-.401-.663 .133-.426 .717-.255 1.349 .036 1.203 .328 1.069 .62 .948 .425 .705 .219 .389 0 0M1.532-5.87C1.07-5.943 .547-6.028-.036-6.125-.62-6.222-1.119-6.332-1.532-6.453-1.629-6.137-1.727-5.858-1.824-5.615-1.313-5.591-.851-5.548-.438-5.487-.024-5.427 .656-5.323 1.605-5.177 1.532-5.396 1.507-5.627 1.532-5.87M3.793-.036C3.793 .376 3.781 .863 3.757 1.422H4.523C4.498 .984 4.486 .498 4.486-.036H5.544C6.006-.036 6.432-.025 6.821 0V-.656C6.432-.632 6.018-.62 5.581-.62H4.486V-1.823H5.325C5.665-1.823 6.006-1.811 6.346-1.787V-2.443C6.055-2.419 5.702-2.406 5.289-2.406H3.173C2.759-2.406 2.395-2.419 2.079-2.443V-1.787C2.395-1.811 2.736-1.823 3.1-1.823H3.793V-.62H2.991C2.553-.62 2.139-.632 1.751-.656V0C2.066-.025 2.456-.036 2.918-.036ZM6.164-4.375V-5.615C6.164-6.077 6.176-6.477 6.201-6.818H5.471V-6.125H2.991V-6.891H2.261C2.285-6.259 2.298-5.846 2.298-5.651V-4.302C2.298-4.011 2.285-3.682 2.261-3.318H6.201C6.176-3.634 6.164-3.987 6.164-4.375M5.471-3.901H2.9910002V-5.542H5.471ZM5.471-5.542" fill="#2c292a"/>
<path transform="matrix(1,0,0,-1,218.9125,376.37843)" d="M0 0C0 .413-.013 .766-.036 1.057H.802C.753 .79 .729 .437 .729 0H3.319C3.659 0 4.049 .012 4.487 .036V-.656C4.049-.632 3.659-.62 3.319-.62H.729V-1.422H3.648C3.623-1.714 3.611-2.066 3.611-2.479 3.611-2.893 3.623-3.306 3.648-3.719H1.423C1.909-4.473 2.407-5.02 2.918-5.36 3.429-5.7 4-5.943 4.632-6.089 4.341-6.332 4.158-6.575 4.085-6.818 3.064-6.381 2.292-5.876 1.769-5.305 1.246-4.734 .912-4.254 .766-3.865V-5.578C.766-5.992 .778-6.49 .802-7.073H-.036C-.013-6.465 0-5.968 0-5.578V-4.011C-.462-4.667-.985-5.226-1.568-5.688-2.152-6.15-2.724-6.526-3.283-6.818-3.38-6.575-3.562-6.357-3.83-6.162-3.271-5.943-2.669-5.591-2.024-5.104-1.38-4.619-.912-4.156-.62-3.719H-2.881C-2.857-3.33-2.845-2.941-2.845-2.552-2.845-2.164-2.857-1.787-2.881-1.422H0V-.62H-2.48C-2.87-.62-3.271-.632-3.684-.656V.036C-3.246 .012-2.845 0-2.48 0ZM0-2.042H-2.152V-3.099H0ZM2.918-2.042H.7290001V-3.099H2.918ZM2.918-3.099" fill="#2c292a"/>
<path transform="matrix(1,0,0,-1,274.7032,246.56409)" d="M0 0C1.199 0 2.172-.972 2.172-2.171 2.172-3.369 1.199-4.341 0-4.341-1.199-4.341-2.171-3.369-2.171-2.171-2.171-.972-1.199 0 0 0M-20.086-1.447H0V-2.894H-20.086Z" fill="#2c292a"/>
<path transform="matrix(1,0,0,-1,287.3326,248.3487)" d="M0 0V-.733C-.679-.869-1.269-1.052-1.771-1.282-2.274-1.513-2.674-1.696-2.972-1.831H-.326C.244-1.831 .774-1.818 1.262-1.791V-2.523C.8-2.497 .271-2.483-.326-2.483H-3.013V-3.785C-2.986-4.056-3.088-4.259-3.318-4.396-3.549-4.531-3.963-4.64-4.56-4.721-4.56-4.45-4.669-4.165-4.886-3.866-4.262-3.893-3.923-3.859-3.868-3.765-3.814-3.669-3.787-3.243-3.787-2.483H-6.8C-7.343-2.483-7.817-2.497-8.225-2.523V-1.791C-7.791-1.818-7.288-1.831-6.718-1.831H-3.787C-3.787-1.75-3.801-1.642-3.827-1.506L-2.036-.651H-5.822C-6.176-.651-6.61-.665-7.125-.692V.041C-6.773 .013-6.311 0-5.741 0ZM-2.891 3.866H-.733C-.218 3.866 .271 3.88 .733 3.907V3.175C.271 3.201-.218 3.215-.733 3.215H-6.23C-6.718 3.215-7.248 3.201-7.817 3.175V3.907C-7.166 3.88-6.555 3.866-5.985 3.866H-3.787C-3.841 4.029-3.963 4.314-4.153 4.721L-3.257 4.965C-3.068 4.422-2.946 4.056-2.891 3.866M-.652 1.547C-.652 1.248-.638 .949-.611 .651H-6.515C-6.488 .977-6.474 1.288-6.474 1.587-6.474 1.913-6.488 2.238-6.515 2.564H-.611C-.638 2.211-.652 1.872-.652 1.547M-1.384 1.994H-5.7409999V1.221H-1.384ZM-1.384 1.221" fill="#2c292a"/>
<path transform="matrix(1,0,0,-1,296.9009,246.1102)" d="M0 0C-.19-.272-.394-.556-.611-.855H1.588C1.56-1.208 1.547-1.52 1.547-1.791 1.547-2.062 1.56-2.361 1.588-2.686H.774V-1.587H-6.189V-2.808H-7.003C-6.976-2.456-6.962-2.144-6.962-1.872-6.962-1.601-6.976-1.262-7.003-.855H-1.547C-1.33-.584-1.12-.272-.916 .081-.713 .434-.516 .841-.326 1.302-.109 1.166 .244 1.017 .733 .855 .434 .556 .189 .271 0 0M-.163-2.523C-.597-3.69-1.208-4.626-1.995-5.332-1.154-5.739 .081-5.942 1.71-5.942 1.438-6.213 1.248-6.485 1.14-6.756 .326-6.701-.394-6.593-1.018-6.431-1.643-6.268-2.213-6.05-2.728-5.779-3.434-6.132-4.045-6.376-4.56-6.512-5.076-6.647-5.728-6.769-6.515-6.878-6.542-6.634-6.705-6.376-7.003-6.105-6.107-6.05-5.361-5.948-4.764-5.8-4.167-5.651-3.705-5.481-3.38-5.291-3.923-4.83-4.411-4.151-4.845-3.256-5.008-3.256-5.226-3.27-5.497-3.297V-2.483C-4.954-2.51-4.316-2.523-3.583-2.523ZM-2.423 1.384C-3.658 1.275-5.022 1.153-6.515 1.017-6.569 1.316-6.692 1.587-6.881 1.831-5.334 1.831-3.841 1.899-2.402 2.035-.964 2.17 .054 2.333 .651 2.523 .841 2.116 1.031 1.818 1.221 1.628 .027 1.573-1.188 1.492-2.423 1.384M-4.479-.407C-4.805-.488-5.076-.584-5.293-.692-5.348-.421-5.538 .027-5.863 .651-5.592 .733-5.334 .827-5.09 .936-4.791 .339-4.588-.109-4.479-.407M-1.384-3.256H-3.99C-3.665-4.016-3.231-4.572-2.687-4.925-2.199-4.599-1.765-4.043-1.384-3.256M-2.077-.203C-2.376-.285-2.647-.394-2.891-.529-3-.177-3.217 .271-3.542 .814-3.271 .922-3.013 1.044-2.769 1.18-2.443 .556-2.213 .095-2.077-.203" fill="#2c292a"/>
<path transform="matrix(1,0,0,-1,303.4359,251.48252)" d="M0 0C-.367-.081-.733-.17-1.099-.265-1.466-.36-1.846-.468-2.239-.59-2.633-.712-3.007-.841-3.359-.977-3.414-.733-3.509-.407-3.644 0-3.346 .054-3.074 .108-2.83 .163V5.413C-2.83 5.983-2.844 6.539-2.871 7.082H.509C.481 6.593 .468 6.05 .468 5.454V.773C.576 .8 .753 .841 .997 .895V.203C.698 .149 .366 .081 0 0M-.346 6.431H-2.056V4.8840005H-.346ZM-.346 4.273H-2.056V2.6449998H-.346ZM-1.181 .448C-.923 .502-.645 .556-.346 .61V1.994H-2.056V.285C-1.73 .339-1.439 .393-1.181 .448M1.486 .387C1.757 .861 1.954 1.356 2.076 1.872 2.198 2.387 2.286 2.916 2.341 3.459 2.395 4.002 2.423 4.518 2.423 5.006 1.961 5.006 1.54 4.992 1.16 4.965V5.698C1.513 5.671 1.934 5.657 2.423 5.657V6.593C2.423 6.892 2.409 7.299 2.382 7.814 2.68 7.787 3.033 7.774 3.44 7.774 3.359 7.421 3.311 7.068 3.298 6.715 3.284 6.362 3.278 6.01 3.278 5.657H5.558C5.476 5.223 5.435 4.694 5.435 4.07L5.191-.081C5.164-.597 4.988-.902 4.662-.997 4.336-1.092 3.915-1.166 3.4-1.221 3.345-.868 3.25-.542 3.115-.244 3.63-.244 3.983-.238 4.173-.224 4.363-.211 4.458 .054 4.458 .57L4.662 5.006H3.278C3.223 3.866 3.128 2.944 2.993 2.238 2.856 1.533 2.687 .977 2.484 .57 2.28 .163 2.076-.197 1.873-.509 1.669-.82 1.431-1.126 1.16-1.424 .943-1.207 .644-1.031 .265-.895 .807-.516 1.214-.088 1.486 .387" fill="#2c292a"/>
<path transform="matrix(1,0,0,-1,312.8616,250.34299)" d="M0 0C.597 .759 1.011 1.54 1.242 2.34 1.472 3.14 1.601 3.887 1.629 4.579 1.655 5.271 1.642 5.996 1.588 6.756 1.886 6.729 2.225 6.701 2.606 6.675 2.524 6.24 2.484 5.793 2.484 5.332 2.484 4.87 2.51 4.341 2.565 3.744 2.619 3.147 3.006 2.245 3.725 1.038 4.444-.17 5.497-1.072 6.881-1.669 6.555-1.994 6.338-2.265 6.229-2.483 4.329-1.561 2.972 .108 2.158 2.523 1.615 .38 .298-1.33-1.792-2.605-1.954-2.387-2.185-2.157-2.484-1.913-1.425-1.398-.597-.76 0 0" fill="#2c292a"/>
<path transform="matrix(1,0,0,-1,323.0405,250.72962)" d="M0 0C-.543-.584-.991-1.052-1.343-1.404-1.48-1.241-1.697-1.038-1.995-.794-1.588-.468-1.188-.095-.794 .326-.401 .746-.014 1.241 .367 1.811 .665 1.512 .922 1.295 1.14 1.16 .922 .97 .543 .583 0 0M2.239 3.114V3.927C2.239 4.144 2.225 4.605 2.199 5.311H3.135C3.108 4.741 3.094 4.28 3.094 3.927V3.114H5.212C5.754 3.114 6.27 3.127 6.759 3.154V2.34C6.026 2.367 5.483 2.381 5.13 2.381H3.094V-1.241C3.094-1.702 2.918-1.987 2.565-2.096 2.212-2.204 1.71-2.286 1.059-2.34 .977-1.96 .868-1.648 .733-1.404 1.248-1.431 1.629-1.424 1.873-1.384 2.117-1.343 2.239-1.215 2.239-.997V2.381H.204C-.584 2.354-1.086 2.272-1.303 2.137-1.357 2.326-1.493 2.557-1.71 2.829-1.493 2.991-1.337 3.201-1.242 3.459-1.147 3.717-1.032 4.646-.896 6.247 .407 6.247 1.663 6.335 2.871 6.512 4.078 6.688 4.953 6.858 5.497 7.021 5.686 6.586 5.863 6.288 6.026 6.125 5.13 6.017 4.119 5.908 2.993 5.8 1.866 5.691 .841 5.61-.081 5.555-.217 4.416-.326 3.602-.407 3.114ZM5.741 .488C6.121 .122 6.515-.265 6.922-.672 6.541-.943 6.284-1.16 6.148-1.323 5.768-.834 5.049-.075 3.99 .956 4.153 1.092 4.343 1.295 4.56 1.567 4.967 1.214 5.361 .855 5.741 .488" fill="#2c292a"/>
<path transform="matrix(1,0,0,-1,337.3723,252.84601)" d="M0 0C-.814 .014-1.52 .075-2.117 .183-2.714 .292-3.251 .488-3.725 .773-4.201 1.058-4.656 1.512-5.089 2.137-5.28 1.268-5.483 .59-5.7 .102-5.918 .319-6.135 .482-6.352 .59-6.162 .888-6.013 1.194-5.904 1.506-5.796 1.818-5.694 2.224-5.598 2.727-5.504 3.229-5.456 3.751-5.456 4.294-5.158 4.239-4.872 4.198-4.601 4.172-4.9 3.439-4.954 2.93-4.764 2.645-4.574 2.361-4.343 2.096-4.071 1.852V5.189C-5.13 5.189-5.796 5.162-6.067 5.108V5.759C-5.659 5.732-5.089 5.718-4.356 5.718V7.183C-4.9 7.183-5.374 7.169-5.782 7.143V7.753C-5.348 7.726-4.872 7.713-4.356 7.713-4.356 8.282-4.37 8.825-4.397 9.341H-3.705C-3.732 8.825-3.746 8.282-3.746 7.713-3.393 7.713-3.054 7.726-2.728 7.753V7.143C-3.162 7.169-3.501 7.183-3.746 7.183V5.718C-3.203 5.718-2.755 5.732-2.402 5.759V5.108C-2.809 5.162-3.162 5.189-3.461 5.189V3.846C-3.244 3.846-2.931 3.859-2.524 3.887V3.236C-2.905 3.262-3.216 3.276-3.461 3.276V1.363C-3.027 .956-2.022 .74-.448 .712 1.126 .686 2.362 .74 3.257 .875 3.094 .577 2.986 .265 2.932-.061 1.792-.034 .815-.013 0 0M.815 2.91C.624 2.883 .434 2.815 .244 2.707 .244 2.191 .258 1.675 .285 1.16H-.407C-.38 1.675-.366 2.123-.366 2.503-1.317 2.15-1.941 1.879-2.239 1.689-2.321 1.933-2.457 2.163-2.646 2.381-2.375 2.435-2.158 2.489-1.995 2.544V8.282H-2.646V8.852H.774V8.282H.244V3.398C.434 3.48 .624 3.547 .815 3.602ZM-.366 8.282H-1.3840001V6.8169996H-.366ZM-.366 6.288H-1.3840001V4.8640005H-.366ZM-.366 3.114V4.335H-1.384V2.788C-.842 2.951-.502 3.059-.366 3.114M2.117 3.439C1.792 2.761 1.479 2.218 1.181 1.811 .963 1.974 .746 2.096 .529 2.177 .909 2.503 1.303 3.14 1.71 4.09 1.52 4.497 1.113 5.175 .489 6.125 .678 6.207 .868 6.315 1.059 6.451 1.466 5.8 1.764 5.271 1.954 4.864 2.09 5.46 2.199 6.329 2.28 7.468H.774V8.038H2.972C2.891 7.251 2.823 6.6 2.769 6.085 2.714 5.569 2.592 4.931 2.402 4.172 2.836 3.439 3.162 2.869 3.38 2.462 3.162 2.354 2.958 2.218 2.769 2.055 2.633 2.381 2.416 2.842 2.117 3.439" fill="#2c292a"/>
<path transform="matrix(1,0,0,-1,183.2563,321.4531)" stroke-width="1.259" stroke-linecap="butt" stroke-miterlimit="8" stroke-linejoin="miter" fill="none" stroke="#2c292a" d="M0 0 2.499-4.317H59.257C63.395-4.317 66.749-7.678 66.749-11.824V-41.852C66.749-45.998 63.395-49.36 59.257-49.36H-59.257C-63.395-49.36-66.749-45.998-66.749-41.852V-11.824C-66.749-7.678-63.395-4.317-59.257-4.317H-2.499L0 0Z"/>
<path transform="matrix(1,0,0,-1,173.5274,307.725)" d="M0 0C.52-.027 1.191-.041 2.013-.041 2.861-.041 3.477-.027 3.861 0V-.695C3.477-.669 2.944-.654 2.259-.654 2.122-1.336 1.903-2.004 1.602-2.659H3.451C3.423-3.095 3.41-3.477 3.41-3.804V-5.768C3.41-6.177 3.423-6.627 3.451-7.117H2.711V-6.463H1.602V-7.69H.863C.89-7.145 .904-6.654 .904-6.218V-3.886C.657-4.268 .411-4.609 .164-4.909 .055-4.691-.151-4.5-.452-4.336-.151-4.09 .144-3.757 .431-3.334 .719-2.911 .938-2.489 1.089-2.066 1.239-1.643 1.369-1.173 1.479-.654 .931-.654 .438-.669 0-.695ZM2.711-3.272H1.602V-5.808H2.711ZM4.786-6.32C4.635-6.879 4.34-7.526 3.902-8.263 3.738-8.072 3.464-7.936 3.081-7.854 3.492-7.39 3.779-6.927 3.943-6.463 4.108-6 4.231-5.386 4.313-4.622 4.395-3.859 4.436-3.082 4.436-2.291 4.436-1.473 4.422-.818 4.395-.327H6.203C6.203 .245 6.189 .791 6.162 1.309H6.942C6.915 .845 6.901 .3 6.901-.327H8.996C8.941-.518 8.879-.771 8.811-1.084 8.742-1.398 8.681-1.745 8.626-2.127 8.325-2.073 8.078-2.032 7.887-2.004 7.969-1.705 8.051-1.364 8.133-.982H6.901V-2.904H8.585C8.503-3.695 8.373-4.356 8.195-4.888 8.017-5.42 7.736-5.972 7.353-6.545 8.037-7.199 8.708-7.608 9.366-7.772 8.955-7.99 8.735-8.208 8.708-8.426 8.106-8.153 7.476-7.704 6.819-7.077 6.216-7.622 5.682-8.072 5.217-8.426 5.08-8.181 4.833-8.003 4.478-7.895 5.053-7.649 5.682-7.199 6.367-6.545 5.792-5.782 5.449-4.786 5.34-3.559H5.135C5.053-4.841 4.936-5.761 4.786-6.32M6.203-.982H5.135V-2.905H6.203ZM7.723-3.559H5.956C6.093-4.514 6.394-5.318 6.86-5.972 7.353-5.263 7.64-4.459 7.723-3.559" fill="#f43040"/>
<path transform="matrix(1,0,0,-1,173.5274,307.725)" stroke-width=".259" stroke-linecap="butt" stroke-miterlimit="10" stroke-linejoin="miter" fill="none" stroke="#f43040" d="M0 0C.52-.027 1.191-.041 2.013-.041 2.861-.041 3.477-.027 3.861 0V-.695C3.477-.669 2.944-.654 2.259-.654 2.122-1.336 1.903-2.004 1.602-2.659H3.451C3.423-3.095 3.41-3.477 3.41-3.804V-5.768C3.41-6.177 3.423-6.627 3.451-7.117H2.711V-6.463H1.602V-7.69H.863C.89-7.145 .904-6.654 .904-6.218V-3.886C.657-4.268 .411-4.609 .164-4.909 .055-4.691-.151-4.5-.452-4.336-.151-4.09 .144-3.757 .431-3.334 .719-2.911 .938-2.489 1.089-2.066 1.239-1.643 1.369-1.173 1.479-.654 .931-.654 .438-.669 0-.695V0ZM2.711-3.272H1.602V-5.808H2.711ZM4.786-6.32C4.635-6.879 4.34-7.526 3.902-8.263 3.738-8.072 3.464-7.936 3.081-7.854 3.492-7.39 3.779-6.927 3.943-6.463 4.108-6 4.231-5.386 4.313-4.622 4.395-3.859 4.436-3.082 4.436-2.291 4.436-1.473 4.422-.818 4.395-.327H6.203C6.203 .245 6.189 .791 6.162 1.309H6.942C6.915 .845 6.901 .3 6.901-.327H8.996C8.941-.518 8.879-.771 8.811-1.084 8.742-1.398 8.681-1.745 8.626-2.127 8.325-2.073 8.078-2.032 7.887-2.004 7.969-1.705 8.051-1.364 8.133-.982H6.901V-2.904H8.585C8.503-3.695 8.373-4.356 8.195-4.888 8.017-5.42 7.736-5.972 7.353-6.545 8.037-7.199 8.708-7.608 9.366-7.772 8.955-7.99 8.735-8.208 8.708-8.426 8.106-8.153 7.476-7.704 6.819-7.077 6.216-7.622 5.682-8.072 5.217-8.426 5.08-8.181 4.833-8.003 4.478-7.895 5.053-7.649 5.682-7.199 6.367-6.545 5.792-5.782 5.449-4.786 5.34-3.559H5.135C5.053-4.841 4.936-5.761 4.786-6.32ZM6.203-.982H5.135V-2.905H6.203ZM7.723-3.559H5.956C6.093-4.514 6.394-5.318 6.86-5.972 7.353-5.263 7.64-4.459 7.723-3.559Z"/>
<path transform="matrix(1,0,0,-1,192.2833,315.7546)" d="M0 0C-.314-.123-.717-.197-1.208-.225-1.263 .157-1.386 .498-1.577 .797-.922 .742-.54 .756-.43 .838-.321 .92-.239 1.097-.184 1.369L-.102 4.558H-6.369C-6.479 3.25-6.663 2.255-6.922 1.574-7.182 .892-7.475 .334-7.803-.102-8.048 .143-8.335 .307-8.663 .388-8.253 .851-7.94 1.376-7.721 1.962-7.502 2.548-7.352 3.133-7.27 3.72-7.188 4.305-7.147 4.871-7.147 5.416V6.683C-7.147 6.955-7.161 7.719-7.188 8.972H.021C-.007 8.536-.02 8.1-.02 7.664-.02 7.228-.007 6.792 .021 6.356H-6.328V5.253H.758L.594 1.083C.512 .484 .313 .123 0 0M-.758 8.277H-6.329V7.0510008H-.758ZM-1.72 2.391C-1.707 1.982-1.7 1.533-1.7 1.042H-5.673C-5.618 1.396-5.591 1.805-5.591 2.269-5.591 2.759-5.605 3.263-5.632 3.781H-1.7C-1.727 3.263-1.734 2.8-1.72 2.391M-2.478 3.086H-4.8129999V1.696H-2.478ZM-2.478 1.696" fill="#f43040"/>
<path transform="matrix(1,0,0,-1,192.2833,315.7546)" stroke-width=".259" stroke-linecap="butt" stroke-miterlimit="10" stroke-linejoin="miter" fill="none" stroke="#f43040" d="M0 0C-.314-.123-.717-.197-1.208-.225-1.263 .157-1.386 .498-1.577 .797-.922 .742-.54 .756-.43 .838-.321 .92-.239 1.097-.184 1.369L-.102 4.558H-6.369C-6.479 3.25-6.663 2.255-6.922 1.574-7.182 .892-7.475 .334-7.803-.102-8.048 .143-8.335 .307-8.663 .388-8.253 .851-7.94 1.376-7.721 1.962-7.502 2.548-7.352 3.133-7.27 3.72-7.188 4.305-7.147 4.871-7.147 5.416V6.683C-7.147 6.955-7.161 7.719-7.188 8.972H.021C-.007 8.536-.02 8.1-.02 7.664-.02 7.228-.007 6.792 .021 6.356H-6.328V5.253H.758L.594 1.083C.512 .484 .313 .123 0 0ZM-.758 8.277H-6.329V7.0510008H-.758ZM-1.72 2.391C-1.707 1.982-1.7 1.533-1.7 1.042H-5.673C-5.618 1.396-5.591 1.805-5.591 2.269-5.591 2.759-5.605 3.263-5.632 3.781H-1.7C-1.727 3.263-1.734 2.8-1.72 2.391ZM-2.478 3.086H-4.8129999V1.696H-2.478ZM-2.478 1.696"/>
<path transform="matrix(1,0,0,-1,124.3801,192.71921)" d="M0 0C-.095-.299-.204-.645-.326-1.038-.448-1.431-.55-1.845-.631-2.279-.984-2.062-1.297-1.913-1.568-1.831-1.242-1.262-1.011-.76-.875-.326-.74 .108-.631 .474-.55 .773-.468 1.072-.387 1.397-.305 1.75-.034 1.587 .224 1.451 .468 1.343 .251 .746 .095 .298 0 0M-.59 3.236C-.835 3.384-1.134 3.541-1.486 3.704-1.323 3.92-1.174 4.137-1.038 4.355-.821 4.219-.557 4.063-.244 3.887 .068 3.71 .359 3.527 .631 3.337 .468 3.093 .319 2.876 .183 2.686-.088 2.903-.346 3.086-.59 3.236M-.081 6.492C.204 6.288 .454 6.091 .672 5.901 .454 5.657 .278 5.44 .142 5.25-.129 5.548-.59 5.928-1.242 6.39-1.079 6.607-.916 6.81-.753 7-.59 6.864-.366 6.695-.081 6.492M2.911-1.221C2.993-1.167 3.033-1.058 3.033-.895V2.727H2.138C2.138 2.238 2.11 1.756 2.056 1.282 2.001 .807 1.927 .366 1.832-.041 1.737-.448 1.601-.828 1.425-1.18 1.248-1.533 1.011-1.899 .713-2.279 .55-2.035 .319-1.845 .02-1.709 .428-1.356 .733-.916 .937-.387 1.14 .142 1.269 .678 1.323 1.221 1.377 1.763 1.411 2.333 1.425 2.93 1.438 3.527 1.445 4.137 1.445 4.762 1.255 4.762 .984 4.748 .631 4.721V5.372C1.201 5.345 1.568 5.332 1.73 5.332H3.155C3.4 5.332 3.698 5.345 4.051 5.372V4.721C3.726 4.748 3.413 4.762 3.115 4.762H2.178V3.378H3.807C3.78 2.944 3.766 2.537 3.766 2.157V-1.058C3.766-1.329 3.678-1.54 3.502-1.689 3.325-1.838 2.938-1.967 2.341-2.076 2.314-1.831 2.205-1.56 2.016-1.262 2.531-1.288 2.83-1.275 2.911-1.221M2.952 5.983C2.734 5.901 2.504 5.779 2.26 5.617 2.178 5.833 2.083 6.044 1.975 6.247 1.866 6.451 1.73 6.661 1.568 6.878 1.785 6.986 1.988 7.108 2.178 7.245 2.612 6.593 2.871 6.172 2.952 5.983M4.234 4.518C4.383 4.789 4.512 5.067 4.621 5.352 4.729 5.637 4.831 5.942 4.927 6.268 5.021 6.593 5.096 6.919 5.151 7.245 5.449 7.108 5.775 7.014 6.128 6.96 5.992 6.769 5.883 6.579 5.802 6.39 5.721 6.2 5.653 5.996 5.598 5.779H6.331C6.874 5.779 7.457 5.793 8.082 5.82V5.128C7.457 5.155 6.861 5.169 6.291 5.169H5.395C5.286 4.951 5.191 4.755 5.11 4.579 5.028 4.402 4.933 4.205 4.825 3.989H7.716V3.215C7.58 3.079 7.424 2.93 7.247 2.768 7.071 2.605 6.874 2.387 6.657 2.116V1.628H7.105C7.294 1.628 7.634 1.641 8.123 1.669V.977C7.688 1.003 7.349 1.017 7.105 1.017H6.657V-1.262C6.657-1.669 6.535-1.933 6.291-2.055 6.046-2.177 5.639-2.279 5.069-2.361 5.042-2.116 4.933-1.818 4.743-1.465 5.177-1.492 5.476-1.492 5.639-1.465 5.802-1.438 5.883-1.262 5.883-.936V1.017H5.517C5.191 1.017 4.798 1.003 4.336 .977V1.669C4.77 1.641 5.151 1.628 5.476 1.628H5.883C5.883 1.872 5.87 2.102 5.843 2.32 6.168 2.591 6.494 2.944 6.82 3.378H5.639L4.825 3.337V3.948C4.662 3.73 4.526 3.513 4.418 3.297 4.227 3.486 3.997 3.663 3.726 3.826 3.915 4.015 4.085 4.246 4.234 4.518" fill="#2c292a"/>
<path transform="matrix(1,0,0,-1,136.8595,186.81769)" d="M0 0C-.027-.407-.081-.997-.163-1.77-.244-2.544-.421-3.405-.692-4.355-.122-5.224 .312-5.901 .611-6.39 .339-6.526 .095-6.689-.122-6.878-.34-6.308-.651-5.753-1.059-5.21-1.737-6.322-2.375-7.204-2.972-7.855-3.162-7.556-3.393-7.312-3.664-7.122-3.094-6.661-2.667-6.234-2.382-5.84-2.097-5.447-1.846-5.006-1.629-4.518-1.846-4.084-2.362-3.365-3.176-2.361-2.986-2.253-2.796-2.09-2.606-1.872-1.954-2.714-1.506-3.297-1.262-3.622-1.099-3.134-.95-2.144-.814-.651H-1.954C-2.47-.651-2.972-.665-3.461-.692V.041C-3 .013-2.511 0-1.995 0ZM1.425 1.302C1.805 1.248 2.103 1.221 2.321 1.221 2.239 .027 2.253-.991 2.362-1.831 4.072-1.424 5.116-1.167 5.497-1.058L5.619-1.872C5.293-1.9 4.235-2.116 2.443-2.523 2.551-3.555 2.741-4.369 3.013-4.965 3.502-4.125 3.827-3.378 3.99-2.727 4.207-2.89 4.533-3.026 4.967-3.134 4.723-3.405 4.513-3.751 4.336-4.172 4.159-4.593 3.841-5.142 3.38-5.82 3.868-6.471 4.248-6.885 4.519-7.061 4.791-7.238 4.967-7.245 5.049-7.082 5.13-6.919 5.198-6.648 5.252-6.268 5.497-6.458 5.768-6.607 6.067-6.715 5.876-7.231 5.714-7.604 5.578-7.835 5.442-8.065 5.266-8.201 5.049-8.242 4.831-8.282 4.485-8.099 4.011-7.692 3.535-7.285 3.135-6.824 2.809-6.308 1.968-7.15 1.316-7.76 .855-8.14 .665-7.896 .407-7.692 .081-7.529 .678-7.177 1.174-6.824 1.568-6.471 1.961-6.119 2.253-5.834 2.443-5.617 2.117-4.857 1.873-3.894 1.71-2.727 1.303-2.808 .8-2.93 .204-3.093L.081-2.279C.515-2.225 1.031-2.116 1.629-1.954 1.547-1.33 1.479-.244 1.425 1.302M4.845-.326C4.628-.434 4.383-.57 4.112-.733 3.976-.543 3.678-.177 3.217 .366 3.461 .529 3.678 .692 3.868 .855 4.329 .285 4.655-.109 4.845-.326" fill="#2c292a"/>
<path transform="matrix(1,0,0,-1,172.3223,341.4786)" d="M0 0C-.328-.073-.657-.152-.985-.237-1.313-.322-1.654-.419-2.006-.529-2.359-.638-2.693-.753-3.009-.875-3.058-.656-3.143-.365-3.265 0-2.997 .048-2.754 .097-2.535 .146V4.849C-2.535 5.36-2.547 5.858-2.571 6.344H.456C.431 5.907 .419 5.42 .419 4.886V.693C.516 .717 .675 .753 .894 .802V.182C.626 .133 .328 .073 0 0M-.31 5.761H-1.842V4.3760006H-.31ZM-.31 3.828H-1.842V2.3700002H-.31ZM-1.058 .401C-.827 .449-.578 .498-.31 .547V1.787H-1.842V.255C-1.55 .304-1.289 .352-1.058 .401M1.331 .346C1.574 .771 1.751 1.215 1.86 1.677 1.97 2.139 2.048 2.613 2.097 3.099 2.146 3.585 2.17 4.047 2.17 4.485 1.757 4.485 1.38 4.472 1.039 4.448V5.104C1.355 5.08 1.733 5.068 2.17 5.068V5.907C2.17 6.174 2.158 6.538 2.134 7 2.401 6.976 2.717 6.964 3.082 6.964 3.009 6.648 2.966 6.332 2.954 6.016 2.942 5.7 2.936 5.384 2.936 5.068H4.979C4.906 4.679 4.869 4.205 4.869 3.646L4.651-.073C4.626-.534 4.468-.808 4.176-.893 3.885-.978 3.507-1.045 3.046-1.094 2.997-.778 2.912-.486 2.79-.219 3.252-.219 3.568-.213 3.739-.201 3.909-.189 3.994 .048 3.994 .51L4.176 4.485H2.936C2.887 3.464 2.802 2.637 2.681 2.005 2.559 1.373 2.407 .875 2.225 .51 2.043 .146 1.86-.177 1.678-.456 1.495-.735 1.282-1.008 1.039-1.276 .845-1.081 .577-.923 .237-.802 .723-.462 1.088-.079 1.331 .346" fill="#2c292a"/>
<path transform="matrix(1,0,0,-1,180.7008,340.4577)" d="M0 0C.535 .68 .906 1.379 1.112 2.096 1.319 2.813 1.435 3.482 1.459 4.102 1.483 4.722 1.471 5.371 1.423 6.052 1.69 6.028 1.994 6.003 2.334 5.979 2.261 5.59 2.225 5.189 2.225 4.776 2.225 4.363 2.249 3.889 2.298 3.354 2.346 2.819 2.693 2.011 3.338 .93 3.982-.152 4.924-.96 6.164-1.495 5.872-1.787 5.678-2.029 5.581-2.224 3.878-1.398 2.663 .097 1.933 2.261 1.446 .34 .267-1.191-1.605-2.333-1.751-2.139-1.958-1.932-2.225-1.714-1.277-1.252-.535-.681 0 0" fill="#2c292a"/>
<path transform="matrix(1,0,0,-1,194.8058,336.3012)" d="M0 0C-.255-.268-.614-.632-1.076-1.094H-.055C.359-1.094 .784-1.082 1.222-1.057V-1.714C.784-1.69 .347-1.677-.091-1.677H-1.805C-2.195-1.969-2.632-2.285-3.118-2.625H-.018C-.043-3.063-.055-3.464-.055-3.828V-5.104C-.055-5.542-.043-6.016-.018-6.526H-.748V-5.979H-4.249V-6.526H-5.015C-4.991-6.137-4.979-5.773-4.979-5.433V-3.755C-5.465-4.023-6.013-4.29-6.62-4.558-6.863-4.217-7.034-4.011-7.131-3.938-6.961-3.889-6.638-3.774-6.164-3.591-5.69-3.409-5.295-3.208-4.979-2.99V-2.625H-4.286C-3.751-2.333-3.277-2.018-2.863-1.677H-5.453C-5.964-1.677-6.438-1.69-6.875-1.714V-1.057C-6.389-1.082-5.915-1.094-5.453-1.094H-3.52V.036H-4.614C-5.028 .036-5.404 .024-5.745 0V.656C-5.404 .632-5.028 .62-4.614 .62H-3.52C-3.52 .984-3.532 1.397-3.556 1.859H-2.754C-2.778 1.519-2.79 1.106-2.79 .62H-2.243C-1.927 .62-1.563 .632-1.149 .656V0C-1.563 .024-1.927 .036-2.243 .036H-2.79V-1.094H-2.061C-1.72-.827-1.38-.51-1.039-.146-.699 .219-.346 .68 .018 1.24 .286 .972 .505 .778 .675 .656 .48 .486 .255 .267 0 0M-.748-3.208H-4.25V-3.974H-.748ZM-.748-4.558H-4.25V-5.3970005H-.748ZM-.748-5.396" fill="#2c292a"/>
<path transform="matrix(1,0,0,-1,161.5875,347.28083)" d="M0 0C.389 0 .875 .012 1.459 .036V-.656C.875-.632 .389-.62 0-.62H-1.933V-2.443H-.474C-.086-2.443 .377-2.431 .912-2.406V-3.099C.377-3.075-.086-3.063-.474-3.063H-1.933V-5.396H.365C.802-5.396 1.313-5.384 1.897-5.36V-6.052C1.313-6.028 .802-6.016 .365-6.016H-6.42V-5.323C-5.836-5.372-5.313-5.396-4.851-5.396H-2.699V-3.063H-4.122C-4.511-3.063-4.973-3.075-5.508-3.099V-2.406C-4.924-2.431-4.463-2.443-4.122-2.443H-2.699V-.62H-4.523C-5.034-.62-5.532-.632-6.018-.656V.036C-5.484 .012-4.973 0-4.486 0ZM-3.429 1.495C-3.186 1.665-2.991 1.823-2.845 1.969-2.334 1.385-1.933 .887-1.641 .474-1.787 .401-2.006 .267-2.298 .073-2.59 .51-2.967 .984-3.429 1.495" fill="#2c292a"/>
<path transform="matrix(1,0,0,-1,164.3307,348.484)" d="M0 0C.365-.025 .802-.036 1.313-.036H2.699C3.137-.036 3.635-.025 4.195 0V-.656C3.635-.632 3.149-.62 2.736-.62H2.334C2.188-1.009 2.024-1.422 1.842-1.859 1.66-2.297 1.446-2.734 1.204-3.172 2.152-3.075 2.869-2.978 3.356-2.88 3.234-2.589 3.039-2.224 2.772-1.787 3.039-1.641 3.234-1.519 3.356-1.422 3.598-1.859 3.805-2.23 3.976-2.534 4.146-2.838 4.328-3.208 4.523-3.646 4.328-3.768 4.109-3.889 3.866-4.011 3.769-3.792 3.684-3.61 3.611-3.464 2.833-3.586 2.207-3.682 1.733-3.755 1.258-3.828 .851-3.926 .511-4.047 .413-3.804 .292-3.573 .146-3.354 .462-3.16 .748-2.771 1.003-2.188 1.258-1.604 1.446-1.082 1.568-.62H1.313C.802-.62 .365-.632 0-.656ZM2.517 2.042C2.93 2.042 3.392 2.054 3.903 2.078V1.385C3.392 1.409 2.93 1.422 2.517 1.422H1.641C1.252 1.422 .875 1.409 .511 1.385V2.078C.851 2.054 1.216 2.042 1.605 2.042ZM6.456 2.99C6.407 2.746 6.377 2.473 6.365 2.169 6.352 1.865 6.347 1.495 6.347 1.057H8.389C8.365 .741 8.34 .389 8.316 0L8.134-4.156C8.061-4.642 7.86-4.94 7.532-5.05 7.204-5.159 6.833-5.238 6.419-5.287 6.347-4.995 6.225-4.727 6.055-4.485 6.589-4.509 6.954-4.478 7.149-4.393 7.343-4.309 7.441-4.145 7.441-3.901L7.66 .438H6.347C6.298-.632 6.219-1.447 6.11-2.005 6-2.565 5.83-3.081 5.599-3.555 5.367-4.029 4.9-4.642 4.195-5.396 3.951-5.153 3.732-4.995 3.538-4.922 4-4.557 4.377-4.175 4.669-3.774 4.961-3.373 5.167-2.96 5.289-2.534 5.41-2.109 5.495-1.665 5.544-1.203 5.593-.742 5.629-.195 5.654 .438H5.034C4.766 .438 4.45 .425 4.085 .401V1.094C4.45 1.069 4.79 1.057 5.106 1.057H5.654V2.078C5.654 2.418 5.641 2.758 5.617 3.099 5.909 3.026 6.188 2.99 6.456 2.99" fill="#2c292a"/>
<path transform="matrix(1,0,0,-1,175.3536,346.7704)" d="M0 0C-.219-.389-.487-.875-.802-1.458-.268-1.434 .121-1.422 .365-1.422 .584-1.033 .766-.656 .912-.292 1.155-.462 1.422-.62 1.714-.766 1.592-.863 1.38-1.13 1.076-1.568 .772-2.005 .292-2.723-.365-3.719 .438-3.598 1.07-3.5 1.532-3.427 1.459-3.695 1.422-3.926 1.422-4.12 1.204-4.145 .814-4.193 .255-4.266-.304-4.339-.851-4.448-1.386-4.594-1.483-4.351-1.568-4.108-1.641-3.865-1.35-3.792-1.058-3.567-.766-3.19-.474-2.814-.219-2.419 0-2.005-.17-2.005-.419-2.024-.748-2.06-1.076-2.096-1.362-2.151-1.605-2.224-1.678-1.981-1.751-1.75-1.824-1.531-1.556-1.313-1.271-.936-.967-.401-.663 .133-.426 .717-.255 1.349 .036 1.203 .328 1.069 .62 .948 .425 .705 .219 .389 0 0M1.532-5.87C1.07-5.943 .547-6.028-.036-6.125-.62-6.222-1.119-6.332-1.532-6.453-1.629-6.137-1.727-5.858-1.824-5.615-1.313-5.591-.851-5.548-.438-5.487-.025-5.427 .657-5.323 1.605-5.177 1.532-5.396 1.507-5.627 1.532-5.87M3.793-.036C3.793 .376 3.781 .863 3.757 1.422H4.523C4.498 .984 4.486 .498 4.486-.036H5.544C6.006-.036 6.432-.025 6.821 0V-.656C6.432-.632 6.018-.62 5.581-.62H4.486V-1.823H5.325C5.666-1.823 6.006-1.811 6.347-1.787V-2.443C6.055-2.419 5.702-2.406 5.289-2.406H3.173C2.76-2.406 2.395-2.419 2.079-2.443V-1.787C2.395-1.811 2.736-1.823 3.1-1.823H3.793V-.62H2.991C2.553-.62 2.139-.632 1.751-.656V0C2.066-.025 2.456-.036 2.918-.036ZM6.164-4.375V-5.615C6.164-6.077 6.176-6.477 6.201-6.818H5.471V-6.125H2.991V-6.891H2.261C2.285-6.259 2.298-5.846 2.298-5.651V-4.302C2.298-4.011 2.285-3.682 2.261-3.318H6.201C6.176-3.634 6.164-3.987 6.164-4.375M5.471-3.901H2.9910002V-5.542H5.471ZM5.471-5.542" fill="#2c292a"/>
<path transform="matrix(1,0,0,-1,186.7778,346.5151)" d="M0 0C0 .413-.013 .766-.036 1.057H.802C.753 .79 .73 .438 .73 0H3.319C3.659 0 4.049 .012 4.487 .036V-.656C4.049-.632 3.659-.62 3.319-.62H.73V-1.422H3.648C3.623-1.714 3.611-2.066 3.611-2.479 3.611-2.893 3.623-3.306 3.648-3.719H1.422C1.909-4.473 2.407-5.02 2.918-5.36 3.429-5.7 4-5.943 4.632-6.089 4.341-6.332 4.158-6.575 4.085-6.818 3.064-6.381 2.292-5.876 1.769-5.305 1.246-4.734 .912-4.254 .766-3.865V-5.578C.766-5.992 .778-6.49 .802-7.073H-.036C-.013-6.465 0-5.968 0-5.578V-4.011C-.462-4.667-.985-5.226-1.568-5.688-2.152-6.15-2.724-6.526-3.283-6.818-3.38-6.575-3.563-6.357-3.83-6.162-3.271-5.943-2.669-5.591-2.024-5.104-1.38-4.619-.912-4.156-.62-3.719H-2.882C-2.858-3.33-2.845-2.941-2.845-2.552-2.845-2.164-2.858-1.787-2.882-1.422H0V-.62H-2.48C-2.87-.62-3.271-.632-3.684-.656V.036C-3.246 .012-2.845 0-2.48 0ZM0-2.042H-2.152V-3.099H0ZM2.918-2.042H.73V-3.099H2.918ZM2.918-3.099" fill="#2c292a"/>
<path transform="matrix(1,0,0,-1,193.4785,351.76539)" d="M0 0C-.086-.268-.182-.578-.292-.93-.401-1.282-.492-1.653-.565-2.042-.882-1.847-1.161-1.714-1.404-1.641-1.112-1.13-.906-.681-.784-.292-.663 .097-.565 .425-.492 .693-.419 .96-.346 1.252-.273 1.568-.031 1.422 .201 1.3 .419 1.203 .224 .668 .085 .267 0 0M-.529 2.899C-.748 3.032-1.016 3.172-1.331 3.318-1.185 3.512-1.052 3.706-.93 3.901-.736 3.779-.499 3.64-.219 3.482 .06 3.324 .322 3.16 .565 2.99 .419 2.771 .286 2.576 .164 2.406-.079 2.601-.31 2.765-.529 2.899M-.073 5.815C.182 5.633 .407 5.456 .602 5.287 .407 5.068 .249 4.873 .128 4.703-.116 4.97-.529 5.311-1.112 5.724-.967 5.918-.821 6.101-.675 6.271-.529 6.149-.328 5.998-.073 5.815M2.608-1.094C2.681-1.045 2.717-.948 2.717-.802V2.443H1.915C1.915 2.005 1.89 1.574 1.842 1.148 1.793 .723 1.726 .328 1.641-.036 1.556-.401 1.434-.742 1.277-1.057 1.118-1.373 .906-1.701 .638-2.042 .492-1.823 .286-1.653 .018-1.531 .383-1.215 .656-.82 .839-.346 1.021 .128 1.136 .607 1.185 1.094 1.234 1.58 1.264 2.09 1.277 2.625 1.288 3.16 1.295 3.706 1.295 4.266 1.124 4.266 .881 4.253 .565 4.229V4.813C1.076 4.788 1.404 4.776 1.55 4.776H2.827C3.046 4.776 3.313 4.788 3.629 4.813V4.229C3.337 4.253 3.057 4.266 2.79 4.266H1.951V3.026H3.41C3.386 2.637 3.374 2.272 3.374 1.932V-.948C3.374-1.191 3.295-1.379 3.137-1.513 2.978-1.646 2.632-1.762 2.097-1.859 2.073-1.641 1.975-1.397 1.806-1.13 2.267-1.154 2.535-1.142 2.608-1.094M2.644 5.36C2.449 5.287 2.243 5.177 2.024 5.031 1.951 5.226 1.866 5.414 1.769 5.597 1.672 5.779 1.55 5.967 1.404 6.162 1.599 6.259 1.781 6.368 1.951 6.49 2.34 5.907 2.571 5.529 2.644 5.36M3.793 4.047C3.927 4.29 4.042 4.539 4.14 4.794 4.237 5.05 4.328 5.323 4.413 5.615 4.498 5.907 4.565 6.198 4.614 6.49 4.881 6.368 5.173 6.283 5.489 6.235 5.367 6.064 5.271 5.894 5.198 5.724 5.125 5.554 5.064 5.371 5.015 5.177H5.672C6.158 5.177 6.68 5.189 7.24 5.214V4.594C6.68 4.618 6.146 4.63 5.635 4.63H4.833C4.735 4.436 4.65 4.259 4.577 4.102 4.505 3.943 4.419 3.767 4.322 3.573H6.912V2.88C6.79 2.758 6.65 2.625 6.492 2.479 6.334 2.333 6.158 2.139 5.964 1.896V1.458H6.365C6.535 1.458 6.839 1.47 7.277 1.495V.875C6.887 .899 6.584 .911 6.365 .911H5.964V-1.13C5.964-1.495 5.854-1.732 5.635-1.841 5.416-1.951 5.052-2.042 4.541-2.115 4.517-1.896 4.419-1.628 4.249-1.313 4.638-1.337 4.906-1.337 5.052-1.313 5.198-1.288 5.271-1.13 5.271-.839V.911H4.942C4.65 .911 4.298 .899 3.885 .875V1.495C4.273 1.47 4.614 1.458 4.906 1.458H5.271C5.271 1.677 5.258 1.883 5.234 2.078 5.526 2.321 5.818 2.637 6.109 3.026H5.052L4.322 2.99V3.537C4.176 3.342 4.054 3.147 3.958 2.953 3.787 3.123 3.58 3.281 3.337 3.427 3.507 3.597 3.659 3.804 3.793 4.047" fill="#2c292a"/>
<path transform="matrix(1,0,0,-1,204.5926,346.478)" d="M0 0C-.025-.364-.073-.893-.146-1.585-.219-2.277-.377-3.049-.62-3.899-.109-4.677 .279-5.284 .547-5.721 .304-5.843 .085-5.988-.109-6.158-.305-5.648-.584-5.15-.948-4.664-1.556-5.661-2.128-6.45-2.663-7.033-2.833-6.765-3.04-6.546-3.283-6.377-2.772-5.964-2.389-5.581-2.134-5.229-1.879-4.877-1.654-4.482-1.459-4.045-1.654-3.656-2.116-3.013-2.845-2.113-2.675-2.017-2.505-1.871-2.334-1.676-1.751-2.43-1.35-2.952-1.131-3.243-.985-2.806-.851-1.919-.73-.583H-1.751C-2.213-.583-2.663-.596-3.1-.619V.036C-2.687 .012-2.25 0-1.787 0ZM1.277 1.166C1.617 1.117 1.884 1.093 2.079 1.093 2.006 .024 2.018-.887 2.115-1.64 3.647-1.275 4.583-1.045 4.924-.947L5.033-1.676C4.742-1.701 3.793-1.895 2.188-2.259 2.285-3.183 2.456-3.911 2.699-4.446 3.137-3.693 3.429-3.024 3.574-2.441 3.769-2.587 4.061-2.709 4.45-2.806 4.231-3.049 4.042-3.359 3.885-3.735 3.726-4.112 3.44-4.604 3.027-5.211 3.465-5.794 3.805-6.165 4.049-6.322 4.291-6.48 4.45-6.486 4.523-6.34 4.596-6.195 4.656-5.952 4.705-5.612 4.924-5.782 5.167-5.916 5.435-6.012 5.264-6.474 5.118-6.808 4.997-7.014 4.875-7.221 4.717-7.342 4.523-7.379 4.328-7.415 4.018-7.251 3.593-6.887 3.167-6.523 2.808-6.11 2.517-5.648 1.763-6.401 1.179-6.947 .766-7.288 .596-7.069 .365-6.887 .073-6.741 .607-6.425 1.051-6.11 1.404-5.794 1.757-5.478 2.018-5.223 2.188-5.029 1.897-4.349 1.678-3.486 1.532-2.441 1.167-2.514 .717-2.624 .182-2.769L.073-2.041C.462-1.992 .924-1.895 1.459-1.749 1.386-1.191 1.325-.219 1.277 1.166M4.34-.292C4.146-.389 3.927-.51 3.684-.656 3.562-.486 3.294-.158 2.881 .328 3.1 .474 3.294 .619 3.465 .765 3.878 .255 4.17-.097 4.34-.292" fill="#2c292a"/>
<path transform="matrix(1,0,0,-1,157.174,363.6255)" d="M0 0C-.341-.304-.62-.577-.839-.82-1.009-.553-1.18-.335-1.349-.164-1.107 .006-.985 .237-.985 .529V3.628C-1.349 3.628-1.727 3.615-2.115 3.591V4.248C-1.8 4.223-1.544 4.211-1.349 4.211H-.292C-.316 3.822-.328 3.384-.328 2.899V.529C.06 .869 .365 1.172 .584 1.44 .681 1.197 .814 .99 .985 .82 .669 .577 .34 .304 0 0M-1.459 6.508C-1.289 6.629-1.131 6.763-.985 6.909-.426 6.423 .012 5.973 .328 5.56 .109 5.365-.073 5.207-.219 5.086-.584 5.621-.997 6.095-1.459 6.508M.62 4.211C1.009 4.187 1.836 4.175 3.1 4.175V4.867C2.176 4.867 1.519 4.855 1.131 4.831V5.378C1.519 5.353 2.176 5.341 3.1 5.341V5.888C2.055 5.888 1.325 5.876 .912 5.852V6.435C1.35 6.411 2.079 6.399 3.1 6.399 3.1 6.666 3.088 6.921 3.064 7.164H3.83C3.805 6.897 3.793 6.641 3.793 6.399 4.936 6.399 5.702 6.411 6.091 6.435V5.852C5.702 5.876 4.936 5.888 3.793 5.888V5.341C4.863 5.341 5.556 5.353 5.872 5.378V4.831C5.508 4.855 4.815 4.867 3.793 4.867V4.175C5.179 4.175 6.055 4.187 6.42 4.211V3.628C6.103 3.652 5.155 3.664 3.575 3.664 2.018 3.664 1.033 3.652 .62 3.628ZM1.386 1.732C1.386 2.145 1.374 2.631 1.35 3.19H5.581C5.556 2.777 5.544 2.364 5.544 1.951V-.674C5.544-.893 5.465-1.033 5.307-1.094 5.149-1.154 4.875-1.221 4.486-1.294 4.437-1.076 4.341-.857 4.195-.638 4.632-.638 4.851-.565 4.851-.419V.31H2.079V-1.221H1.35C1.374-.735 1.386-.262 1.386 .201ZM4.851 2.643H2.0789998V2.0229998H4.851ZM4.851 1.513H2.0789998V.82H4.851ZM4.851 .82" fill="#2c292a"/>
<path transform="matrix(1,0,0,-1,164.2942,359.04969)" d="M0 0C.365-.025 .729-.036 1.094-.036H1.86C1.836-.499 1.824-.997 1.824-1.531V-3.901C2.115-3.586 2.371-3.294 2.59-3.026 2.663-3.294 2.784-3.525 2.955-3.719 2.638-4.035 2.358-4.321 2.115-4.576 1.872-4.831 1.629-5.128 1.386-5.469 1.191-5.201 .997-4.995 .802-4.849 .997-4.679 1.106-4.461 1.131-4.193V-.547C.742-.547 .365-.559 0-.583ZM2.59 1.349C2.419 1.203 2.237 1.033 2.043 .839 1.58 1.349 1.143 1.787 .729 2.151 .924 2.297 1.094 2.467 1.24 2.662 1.751 2.224 2.201 1.787 2.59 1.349M8.17 1.714C7.66 1.714 7.1 1.683 6.492 1.622 5.884 1.561 5.155 1.495 4.304 1.422V-.255H7.186C7.477-.255 7.891-.243 8.426-.219V-.839C8.061-.815 7.66-.802 7.222-.802H6.748V-2.698C7.453-3.16 8.036-3.549 8.499-3.865 8.28-4.06 8.121-4.266 8.024-4.485 7.562-4.096 7.137-3.78 6.748-3.537V-4.412C6.748-5.043 6.76-5.554 6.784-5.943H6.018C6.042-5.529 6.055-5.019 6.055-4.412V-3.136C5.884-3.014 5.435-2.734 4.705-2.297 4.827-2.127 4.936-1.932 5.034-1.714 5.447-1.957 5.787-2.151 6.055-2.297V-.802H4.341C4.316-1.507 4.273-2.121 4.213-2.643 4.152-3.166 4.061-3.677 3.939-4.175 3.817-4.673 3.55-5.287 3.137-6.016 2.918-5.821 2.675-5.675 2.407-5.578 2.748-5.116 3.009-4.655 3.192-4.193 3.374-3.731 3.489-3.19 3.538-2.57 3.587-1.951 3.617-1.167 3.629-.219 3.641 .729 3.623 1.47 3.575 2.005 4.523 2.029 5.325 2.078 5.982 2.151 6.638 2.224 7.222 2.333 7.733 2.479 7.83 2.236 7.975 1.981 8.17 1.714" fill="#2c292a"/>
<path transform="matrix(1,0,0,-1,173.8946,358.13819)" d="M0 0C.389-.025 .802-.036 1.24-.036H3.502C3.502 .668 3.489 1.215 3.465 1.604H4.268C4.243 1.215 4.231 .668 4.231-.036H6.821C7.161-.036 7.538-.025 7.951 0V-.656C7.514-.632 7.136-.62 6.821-.62H4.231C4.255-1.009 4.371-1.422 4.578-1.859 4.784-2.297 4.997-2.662 5.216-2.953 5.75-2.516 6.249-1.957 6.711-1.276 6.881-1.471 7.125-1.665 7.441-1.859 7.149-2.005 6.504-2.54 5.508-3.464 5.823-3.877 6.206-4.266 6.657-4.63 7.106-4.995 7.599-5.25 8.134-5.396 7.793-5.591 7.55-5.822 7.404-6.089 6.869-5.797 6.328-5.39 5.781-4.867 5.234-4.345 4.717-3.525 4.231-2.406V-5.651C4.255-6.016 4.14-6.259 3.885-6.381 3.629-6.502 3.258-6.587 2.772-6.636 2.723-6.392 2.614-6.125 2.444-5.834 2.857-5.858 3.143-5.852 3.301-5.815 3.459-5.779 3.525-5.651 3.502-5.433V-3.427C2.529-4.181 1.829-4.728 1.404-5.068 .979-5.409 .632-5.7 .365-5.943 .146-5.7-.061-5.482-.255-5.287 .085-5.117 .523-4.856 1.058-4.503 1.592-4.151 2.407-3.513 3.502-2.589V-.62H1.24C.802-.62 .389-.632 0-.656ZM2.59-2.479 1.97-3.026C1.605-2.613 1.118-2.188 .511-1.75L1.094-1.24C1.629-1.677 2.128-2.091 2.59-2.479M7.04 .583C6.869 .461 6.687 .304 6.493 .109 6.225 .401 5.836 .753 5.325 1.167 5.471 1.288 5.654 1.422 5.872 1.568 6.261 1.3 6.65 .972 7.04 .583" fill="#2c292a"/>
<path transform="matrix(1,0,0,-1,190.0422,358.357)" d="M0 0C-.255-.268-.614-.632-1.076-1.094H-.055C.359-1.094 .784-1.082 1.222-1.057V-1.714C.784-1.69 .347-1.677-.091-1.677H-1.805C-2.195-1.969-2.632-2.285-3.119-2.625H-.018C-.043-3.063-.055-3.464-.055-3.828V-5.104C-.055-5.542-.043-6.016-.018-6.526H-.748V-5.979H-4.249V-6.526H-5.015C-4.991-6.137-4.979-5.773-4.979-5.433V-3.755C-5.465-4.023-6.012-4.29-6.62-4.558-6.863-4.217-7.034-4.011-7.131-3.938-6.961-3.889-6.638-3.774-6.164-3.591-5.69-3.409-5.295-3.208-4.979-2.99V-2.625H-4.286C-3.751-2.333-3.277-2.018-2.863-1.677H-5.453C-5.963-1.677-6.438-1.69-6.875-1.714V-1.057C-6.389-1.082-5.915-1.094-5.453-1.094H-3.52V.036H-4.614C-5.028 .036-5.404 .024-5.745 0V.656C-5.404 .632-5.028 .62-4.614 .62H-3.52C-3.52 .984-3.532 1.397-3.556 1.859H-2.754C-2.778 1.519-2.79 1.106-2.79 .62H-2.243C-1.927 .62-1.563 .632-1.149 .656V0C-1.563 .024-1.927 .036-2.243 .036H-2.79V-1.094H-2.061C-1.72-.827-1.38-.51-1.039-.146-.699 .219-.346 .68 .018 1.24 .286 .972 .505 .778 .675 .656 .48 .486 .255 .267 0 0M-.748-3.208H-4.249V-3.974H-.748ZM-.748-4.558H-4.249V-5.3970005H-.748ZM-.748-5.396" fill="#2c292a"/>
<path transform="matrix(1,0,0,-1,196.8888,357.22669)" d="M0 0H2.079C2.492 0 2.978 .012 3.538 .036V-.547C2.978-.523 2.407-.51 1.824-.51H-2.918C-3.38-.51-3.891-.523-4.45-.547V.036C-3.915 .012-3.635 0-3.611 0H-.802C-.875 .243-.985 .486-1.131 .729-.863 .778-.596 .839-.328 .911-.231 .644-.122 .34 0 0M-.146-3.792C-.292-3.938-.426-4.096-.547-4.266H3.356V-6.782C3.356-7.243 3.252-7.504 3.046-7.565 2.839-7.626 2.468-7.681 1.933-7.73 1.86-7.438 1.763-7.17 1.641-6.927 2.2-6.951 2.517-6.946 2.59-6.909 2.663-6.873 2.699-6.745 2.699-6.526V-4.813H-.839C-.961-5.008-1.094-5.196-1.24-5.378-1.386-5.56-1.544-5.773-1.714-6.016-1.423-6.016-.584-5.943 .802-5.797 .705-5.676 .596-5.542 .474-5.396 .596-5.275 .766-5.141 .985-4.995 1.131-5.141 1.295-5.336 1.477-5.578 1.66-5.822 1.836-6.077 2.006-6.344 1.763-6.442 1.556-6.563 1.386-6.709 1.264-6.563 1.167-6.417 1.094-6.271 .024-6.393-.742-6.49-1.204-6.563-1.666-6.636-2.079-6.721-2.444-6.818-2.493-6.526-2.578-6.223-2.699-5.907-2.505-5.81-2.31-5.664-2.115-5.469-1.921-5.275-1.739-5.056-1.568-4.813H-3.502V-7.693H-4.195C-4.171-7.304-4.158-6.891-4.158-6.453V-5.323C-4.158-4.886-4.171-4.534-4.195-4.266H-1.313C-1.143-3.999-.997-3.731-.875-3.464H-3.647C-3.624-3.221-3.611-3.002-3.611-2.807V-1.932C-3.611-1.714-3.624-1.483-3.647-1.24H-2.918C-2.943-1.507-2.954-1.763-2.954-2.005V-2.917H2.225V-1.932C2.225-1.69 2.212-1.471 2.188-1.276H2.918C2.894-1.471 2.881-1.69 2.881-1.932V-2.771C2.881-2.966 2.894-3.197 2.918-3.464H-.766C-.62-3.561-.414-3.671-.146-3.792M-1.131-1.039C-.839-1.148-.547-1.252-.255-1.349 .231-1.057 .608-.802 .875-.583 1.118-.729 1.374-.888 1.641-1.057 1.204-1.179 .802-1.362 .438-1.604 .851-1.799 1.325-2.018 1.86-2.261 1.69-2.406 1.483-2.565 1.24-2.734 .899-2.516 .614-2.352 .383-2.242 .152-2.133-.073-2.042-.292-1.969-.487-2.091-.729-2.212-1.021-2.333-1.313-2.455-1.641-2.589-2.006-2.734-2.152-2.54-2.322-2.37-2.517-2.224-2.152-2.151-1.855-2.073-1.623-1.987-1.392-1.902-1.131-1.811-.839-1.714-1.155-1.617-1.41-1.538-1.605-1.477-1.8-1.416-2.079-1.349-2.444-1.276-2.249-1.106-2.092-.936-1.97-.766-1.702-.839-1.423-.93-1.131-1.039" fill="#2c292a"/>
<path transform="matrix(1,0,0,-1,202.1851,357.5549)" d="M0 0V.729C.608 .705 1.167 .693 1.678 .693H5.617C6.103 .693 6.626 .705 7.186 .729V0C6.65 .024 6.055 .036 5.398 .036V-2.662H6.091C6.577-2.662 7.1-2.65 7.66-2.625V-3.354C7.1-3.306 6.577-3.281 6.091-3.281H5.398V-5.25C5.398-5.858 5.41-6.538 5.435-7.292H4.596C4.62-6.538 4.632-5.858 4.632-5.25V-3.281H2.809C2.736-3.744 2.638-4.175 2.517-4.576 2.395-4.977 2.201-5.384 1.933-5.797 1.665-6.211 1.167-6.709 .438-7.292 .243-7.073-.049-6.866-.438-6.672 .049-6.477 .468-6.205 .821-5.852 1.173-5.5 1.453-5.086 1.66-4.612 1.866-4.138 1.982-3.695 2.006-3.281H1.167C.535-3.281-.073-3.318-.656-3.391V-2.625C-.049-2.65 .559-2.662 1.167-2.662H2.043V.036C1.313 .036 .632 .024 0 0M4.632 .036H2.808V-2.662H4.632ZM4.632-2.662" fill="#2c292a"/>
</g>
</g>
</g>
</svg>
