<svg xmlns="http://www.w3.org/2000/svg" xmlns:xlink="http://www.w3.org/1999/xlink" xmlns:inkscape="http://www.inkscape.org/namespaces/inkscape" version="1.1" width="411.024" height="595.276" viewBox="0 0 411.024 595.276">
<defs>
<clipPath id="clip_1">
<path transform="matrix(1,0,0,-1,0,595.276)" d="M0 0H411.024V595.276H0Z"/>
</clipPath>
<clipPath id="clip_2">
<path transform="matrix(1,0,0,-1,0,595.276)" d="M0 0H411.024V595.276H0Z"/>
</clipPath>
<path id="font_3_3" d="M.32998658 0V.71191409H.2579956L.125 .5969238V.51493838L.2579956 .63191226V0H.32998658Z"/>
<path id="font_3_9" d="M.47099305 .64790347V.71191409H.07598877V.5359192H.14698792V.64790347H.394989L.147995 0H.22399903L.47099305 .64790347Z"/>
<path id="font_3_4" d="M.46099855 0V.06399536H.15499878L.4039917 .38186646C.44299317 .43185426 .46099855 .46884156 .46099855 .5258179 .46099855 .6427765 .38198854 .71777346 .2649994 .71777346 .1459961 .71777346 .068984989 .6367645 .068984989 .5248108H.14099121C.14099121 .6167755 .19898987 .6537628 .2649994 .6537628 .34298707 .6537628 .3889923 .6027832 .3889923 .5258179 .3889923 .48683167 .37599183 .45584107 .34899903 .42085267L.067993167 .06399536V0H.46099855Z"/>
<clipPath id="clip_4">
<path transform="matrix(1,0,0,-1,0,595.276)" d="M0 0H411.024V595.276H0Z"/>
</clipPath>
<clipPath id="clip_5">
<path transform="matrix(1,0,0,-1,0,595.276)" d="M0 0H411.024V595.276H0Z"/>
</clipPath>
<clipPath id="clip_6">
<path transform="matrix(1,0,0,-1,0,595.276)" d="M0 0H411.024V595.276H0Z"/>
</clipPath>
<clipPath id="clip_7">
<path transform="matrix(1,0,0,-1,0,595.276)" d="M0 0H411.024V595.276H0Z"/>
</clipPath>
<clipPath id="clip_8">
<path transform="matrix(1,0,0,-1,0,595.276)" d="M0 0H411.024V595.276H0Z"/>
</clipPath>
</defs>
<g clip-path="url(#clip_1)">
<g clip-path="url(#clip_2)">
<use data-text="1" xlink:href="#font_3_3" transform="matrix(9,0,0,-9,35.4331,567.547)" fill="#f43040"/>
<use data-text="7" xlink:href="#font_3_9" transform="matrix(9,0,0,-9,39.0331,567.547)" fill="#f43040"/>
<use data-text="2" xlink:href="#font_3_4" transform="matrix(9,0,0,-9,42.6331,567.547)" fill="#f43040"/>
<path transform="matrix(1,0,0,-1,0,595.276)" d="M0 0H411.024V595.275H0Z" fill="#f43040"/>
<g clip-path="url(#clip_4)">
<path transform="matrix(1,0,0,-1,110.5252,276.8453)" d="M0 0V-13.429C0-15.247 .033-16.727 .101-17.872H-1.917C-1.917-16.727-1.884-15.247-1.817-13.429V-3.231C-2.624-4.713-3.365-5.891-4.037-6.765-4.374-6.295-4.945-5.823-5.753-5.352-4.34-3.804-3.129-1.986-2.119 .101-1.11 2.187-.438 4.039-.101 5.654 .773 5.251 1.547 4.981 2.22 4.847 1.817 4.173 1.075 2.557 0 0M10.193 3.736C12.01 .571 14.667-1.784 18.166-3.332 17.561-3.872 17.056-4.477 16.652-5.15 13.826-3.534 11.37-1.111 9.285 2.12 7.535-1.044 5.248-3.67 2.422-5.755 2.085-5.285 1.615-4.78 1.009-4.241 3.498-2.625 5.314-.842 6.459 1.111 7.602 3.062 8.276 4.544 8.478 5.553 9.553 5.014 10.327 4.678 10.799 4.544ZM6.762-10.854C6.56-13.514 5.213-15.886 2.725-17.973 2.321-17.367 1.782-16.862 1.11-16.458 3.599-14.709 4.928-12.606 5.097-10.148 5.264-7.691 5.314-5.755 5.248-4.342 6.122-4.477 6.828-4.544 7.367-4.544 7.166-6.093 6.964-8.196 6.762-10.854M13.726-8.28V-14.641C13.726-15.651 13.759-16.727 13.826-17.872H11.707C11.773-16.727 11.808-15.616 11.808-14.54V-7.674C11.808-6.934 11.773-5.823 11.707-4.342H13.826C13.759-5.823 13.726-7.136 13.726-8.28" fill="#ffffff"/>
<path transform="matrix(1,0,0,-1,136.2839,276.9463)" d="M0 0V-13.328C0-14.742 .033-16.088 .101-17.367H-2.018C-1.952-16.222-1.918-14.979-1.918-13.631V-3.231C-2.725-4.578-3.466-5.654-4.138-6.462-4.677-5.722-5.182-5.15-5.652-4.746-4.98-4.074-4.054-2.777-2.876-.858-1.7 1.06-.774 3.231-.101 5.654 .841 5.183 1.648 4.847 2.321 4.645 1.782 4.039 1.009 2.49 0 0M8.175 2.827V5.453C8.982 5.385 9.89 5.317 10.9 5.251 10.562 4.779 10.36 3.971 10.294 2.827H14.028C15.172 2.827 16.181 2.86 17.056 2.928V1.111C16.113 1.177 15.104 1.212 14.028 1.212H10.193L9.991-1.01H15.138C15.07-1.817 15.037-2.895 15.037-4.241V-14.54C16.383-14.54 17.359-14.507 17.964-14.439V-16.257C17.089-16.189 15.878-16.156 14.331-16.156H4.844C3.296-16.156 2.018-16.189 1.009-16.257V-14.439C1.615-14.507 2.556-14.54 3.835-14.54V-4.241C3.835-2.963 3.8-1.885 3.734-1.01H7.872L8.074 1.212H6.257C4.575 1.212 3.263 1.177 2.321 1.111V2.928C3.195 2.86 4.507 2.827 6.257 2.827ZM13.221-2.423H5.753V-4.4420006H13.221ZM13.221-5.957H5.753V-7.7749998H13.221ZM13.221-9.289H5.753V-11.106H13.221ZM13.221-12.621H5.753V-14.5390009H13.221ZM13.221-14.54" fill="#ffffff"/>
</g>
<path transform="matrix(1,0,0,-1,0,595.276)" d="M167.379 314.897H155.874V316.513H167.379ZM167.379 308.737H155.874V310.353H167.379Z" fill="#ffffff"/>
<g clip-path="url(#clip_5)">
<path transform="matrix(1,0,0,-1,171.54,289.6688)" d="M0 0C.437 1.278 .706 2.557 .807 3.837 .908 5.115 .959 7.27 .959 10.299 .959 13.328 .924 15.752 .858 17.569H18.923C18.855 15.616 18.822 13.866 18.822 12.319V-.909C18.822-2.322 18.418-3.196 17.611-3.534 16.804-3.87 15.861-4.105 14.785-4.241 14.65-3.231 14.415-2.456 14.079-1.918 15.424-1.986 16.214-1.936 16.45-1.767 16.685-1.6 16.804-1.28 16.804-.808V4.241H10.647V.303C10.647-1.179 10.68-2.524 10.748-3.736H8.528C8.594-2.591 8.629-1.28 8.629 .202V4.241H2.876C2.607 1.346 1.698-1.583 .151-4.544-.59-4.072-1.261-3.769-1.867-3.635-1.06-2.49-.438-1.28 0 0M8.629 15.954H2.876V11.612H8.629ZM8.629 10.097H2.876V5.856H8.629ZM16.804 15.954H10.648001V11.612H16.804ZM16.804 10.097H10.648001V5.856H16.804ZM16.804 5.856" fill="#ffffff"/>
<path transform="matrix(1,0,0,-1,217.231,281.2881)" d="M0 0C0-2.019 .033-3.602 .1-4.746H-2.119V-3.231H-16.148C-16.417-5.386-16.753-7.002-17.157-8.078-17.561-9.155-17.999-10.115-18.469-10.955-18.941-11.796-19.445-12.587-19.983-13.328-20.656-12.789-21.396-12.385-22.203-12.117-20.858-10.703-19.932-9.375-19.428-8.128-18.923-6.884-18.587-5.705-18.419-4.594-18.251-3.484-18.166-2.289-18.166-1.01-18.166 .268-18.201 2.456-18.267 5.553H.1C.033 3.938 0 2.086 0 0M-2.22 3.736H-16.248V-1.414H-2.22ZM-7.771 6.664C-8.646 6.462-9.32 6.226-9.79 5.957-10.261 7.371-10.799 8.616-11.405 9.693-10.733 9.895-10.092 10.164-9.487 10.501-8.679 8.886-8.109 7.606-7.771 6.664" fill="#ffffff"/>
</g>
<path transform="matrix(1,0,0,-1,225.6188,274.422)" d="M0 0 6.863-7.068 13.826 0 14.836-1.313 8.074-8.28 14.836-15.247 13.826-16.458 6.863-9.39 .101-16.458H0L-1.009-15.247 5.854-8.179-1.009-1.212Z" fill="#ffffff"/>
<g clip-path="url(#clip_6)">
<path transform="matrix(1,0,0,-1,252.4908,281.0861)" d="M0 0C-.539-.54-1.009-1.145-1.413-1.818-2.624-.674-4.037 .303-5.652 1.111-5.248 1.649-4.844 2.254-4.44 2.928-2.893 1.985-1.413 1.01 0 0M-1.514-8.734C-2.321-10.451-2.994-11.779-3.532-12.722-4.138-12.251-4.844-11.847-5.652-11.511-4.98-10.703-4.205-9.526-3.33-7.977-2.457-6.429-1.716-4.814-1.11-3.13-.572-3.602 .033-4.039 .707-4.443 .033-5.588-.706-7.018-1.514-8.734M.707 6.361C.235 5.755-.236 5.183-.706 4.645-1.783 5.721-3.027 6.664-4.44 7.472-3.97 8.078-3.567 8.616-3.229 9.087-1.683 8.144-.37 7.235 .707 6.361M5.298-6.109C5.198-7.489 4.895-8.819 4.39-10.097 3.886-11.375 2.725-12.622 .909-13.833 .437-13.227-.068-12.722-.605-12.319 .74-11.713 1.732-10.889 2.372-9.845 3.011-8.802 3.364-7.623 3.431-6.311 3.498-4.998 3.498-3.837 3.431-2.827 4.103-2.963 4.844-3.029 5.652-3.029 5.516-3.703 5.399-4.73 5.298-6.109M10.092 6.967H13.322C14.397 6.967 15.608 7 16.955 7.068V5.251C15.34 5.317 14.129 5.352 13.322 5.352H6.863C7.4 4.948 7.872 4.645 8.276 4.443 7.938 4.173 7.501 3.701 6.964 3.029 6.424 2.355 5.617 1.414 4.542 .202 6.964 .268 9.553 .369 12.313 .505 11.639 1.313 10.966 2.019 10.294 2.625 10.966 3.095 11.437 3.499 11.707 3.837 13.59 1.884 15.172 .134 16.45-1.414 15.845-1.885 15.306-2.322 14.836-2.726 14.297-1.986 13.827-1.347 13.423-.808 11.942-.943 9.941-1.095 7.418-1.262 4.895-1.431 3.195-1.65 2.321-1.918 2.119-1.313 1.817-.741 1.413-.202 2.085 0 2.892 .672 3.835 1.818 4.777 2.961 5.551 4.14 6.156 5.352H5.046C3.835 5.352 2.589 5.284 1.312 5.15V7.068C2.589 7 3.835 6.967 5.046 6.967H7.872C7.333 7.909 6.863 8.649 6.459 9.188 7.131 9.524 7.67 9.861 8.074 10.198 8.746 9.188 9.419 8.111 10.092 6.967M9.083-5.352V-9.794C9.083-10.67 9.116-11.746 9.184-13.025H7.065C7.131-11.814 7.166-10.738 7.166-9.794V-5.352C7.166-4.208 7.131-3.367 7.065-2.827H9.184C9.116-3.231 9.083-4.074 9.083-5.352M13.221-5.453V-10.4C13.221-11.006 13.524-11.309 14.129-11.309H15.139C15.676-11.309 15.979-10.536 16.047-8.987 16.584-9.39 17.258-9.693 18.065-9.895 17.662-11.577 17.241-12.521 16.804-12.722 16.365-12.924 15.845-13.025 15.239-13.025H13.322C12.043-13.025 11.404-12.385 11.404-11.107V-5.251C11.404-4.443 11.37-3.635 11.303-2.827H13.322C13.254-3.703 13.221-4.578 13.221-5.453" fill="#ffffff"/>
<path transform="matrix(1,0,0,-1,276.7864,271.9481)" d="M0 0C1.446 .303 2.674 .689 3.684 1.161 4.154 .285 4.625-.454 5.096-1.06 4.625-.994 4.138-1.01 3.633-1.111 3.128-1.212 2.573-1.297 1.968-1.363V-6.311C2.909-6.311 3.919-6.278 4.996-6.21V-8.128C3.919-8.062 2.909-8.027 1.968-8.027V-16.913C1.968-18.394 2.001-20.379 2.069-22.87H.05C.117-20.379 .151-18.427 .151-17.014V-12.369C-.792-14.255-1.834-16.039-2.977-17.721-3.449-17.048-3.987-16.443-4.592-15.903-3.651-14.961-2.81-13.884-2.069-12.672-1.329-11.46-.656-9.913-.051-8.027-1.733-8.027-2.977-8.062-3.785-8.128V-6.21C-2.642-6.278-1.801-6.311-1.262-6.311H.151V-1.767C-.724-1.969-1.834-2.171-3.179-2.373-3.381-1.767-3.618-1.196-3.886-.656-2.742-.522-1.448-.303 0 0M5.904-13.985C5.5-14.255 4.961-14.658 4.289-15.196 3.616-13.716 2.942-12.505 2.271-11.561 2.674-11.225 3.179-10.855 3.785-10.451 4.456-11.46 5.163-12.639 5.904-13.985M15.088-10.047C16.163-10.047 17.308-10.014 18.519-9.946V-11.763C17.308-11.697 16.163-11.662 15.088-11.662H13.17V-14.893H14.28C15.29-14.893 16.466-14.86 17.813-14.792V-16.711C16.466-16.645 15.39-16.61 14.583-16.61H13.17V-20.144H15.592C16.803-20.144 18.081-20.111 19.427-20.043V-21.961C18.35-21.893 17.072-21.86 15.592-21.86H8.831C7.35-21.86 6.071-21.927 4.996-22.062V-20.043C6.071-20.111 7.35-20.144 8.831-20.144H11.253V-16.61H9.84C8.763-16.61 7.754-16.678 6.812-16.812V-14.792C7.754-14.86 8.763-14.893 9.84-14.893H11.253V-11.662H9.638C8.427-11.662 7.282-11.697 6.207-11.763V-9.946C7.282-10.014 8.427-10.047 9.638-10.047ZM17.914-4.089C17.914-5.235 17.947-6.379 18.015-7.522H6.711C6.777-6.244 6.812-5.033 6.812-3.887 6.812-2.744 6.777-1.464 6.711-.051H18.015C17.947-1.532 17.914-2.878 17.914-4.089M15.794-1.767H8.629V-5.705H15.794ZM15.794-5.705" fill="#ffffff"/>
<path transform="matrix(1,0,0,-1,163.2542,359.10169)" d="M0 0V-7.402C0-8.102-.15-8.527-.45-8.677-.75-8.828-1.167-8.969-1.7-9.103-1.833-8.602-2-8.202-2.2-7.902-1.733-7.902-1.4-7.886-1.2-7.852-1-7.819-.9-7.569-.9-7.102V-4.601H-2.849C-2.917-5.435-3.033-6.202-3.199-6.902-3.367-7.602-3.599-8.285-3.899-8.953-4.166-8.719-4.483-8.519-4.849-8.352-4.449-7.619-4.174-6.927-4.024-6.277-3.874-5.627-3.774-4.969-3.724-4.301-3.674-3.635-3.649-2.584-3.649-1.15-3.649 .283-3.667 1.283-3.699 1.851H.05C.016 1.583 0 .967 0 0M-.9-3.751V-1.751H-2.75L-2.799-3.751ZM-.9 1H-2.75V-.901H-.9ZM2.099-9.153H1.15C1.182-8.352 1.2-7.602 1.2-6.902V.05C1.2 .617 1.182 1.233 1.15 1.901H5.799C5.765 1.433 5.732 .925 5.699 .375 5.665-.175 5.615-.592 5.549-.875 5.482-1.159 5.282-1.368 4.949-1.5 4.615-1.634 4.182-1.734 3.649-1.801 3.549-1.4 3.399-1.068 3.199-.8 4.032-.8 4.499-.709 4.599-.525 4.699-.342 4.749 .183 4.749 1.05H2.099V-2.301H6.249C6.115-3.168 5.949-3.943 5.749-4.626 5.549-5.31 5.282-5.985 4.949-6.652 5.515-7.319 6.165-7.819 6.898-8.152 6.665-8.352 6.431-8.635 6.199-9.003 5.565-8.569 4.965-8.035 4.399-7.402 3.999-7.969 3.449-8.569 2.749-9.203 2.582-8.903 2.399-8.635 2.2-8.402 2.666-8.069 3.182-7.502 3.749-6.702 3.316-6.135 2.882-4.951 2.449-3.151H2.099ZM4.299-5.902C4.699-5.135 4.982-4.218 5.149-3.151H3.349C3.616-4.418 3.932-5.335 4.299-5.902" fill="#ffffff"/>
<path transform="matrix(1,0,0,-1,175.8283,358.0014)" d="M0 0H5.549C5.249-.5 4.857-1.034 4.374-1.6 3.891-2.168 3.282-2.701 2.549-3.201 3.016-3.501 3.649-3.726 4.449-3.876 5.249-4.026 6.199-4.118 7.299-4.151 7.031-4.451 6.849-4.801 6.749-5.201 5.815-5.135 4.899-4.969 3.999-4.701 3.099-4.435 2.349-4.118 1.75-3.751 .683-4.251-.284-4.619-1.15-4.851-2.017-5.085-2.867-5.269-3.699-5.402-3.833-5.001-4.033-4.651-4.299-4.351-3.566-4.351-2.733-4.251-1.8-4.051-.867-3.851 .05-3.568 .95-3.201 .25-2.534-.35-1.851-.85-1.15-1.417-1.851-2-2.434-2.599-2.901-2.833-2.634-3.133-2.434-3.499-2.301-2.567-1.634-1.883-.992-1.45-.375-1.017 .242-.7 .817-.5 1.35-.067 1.117 .333 .933 .7 .8 .433 .567 .2 .3 0 0M.6-5.802C.666-5.402 .7-4.935 .7-4.401 1.1-4.468 1.5-4.518 1.9-4.551 1.8-4.751 1.7-5.169 1.6-5.802H5.649C5.615-6.202 5.582-6.66 5.549-7.177 5.515-7.694 5.457-8.252 5.374-8.853 5.29-9.453 5.049-9.803 4.649-9.903 4.249-10.003 3.616-10.103 2.75-10.203 2.682-9.769 2.516-9.403 2.25-9.103 3.216-9.103 3.799-9.07 3.999-9.003 4.199-8.936 4.332-8.752 4.399-8.452L4.549-6.552H1.5C1.033-7.986 .375-8.92-.475-9.353-1.325-9.786-2.233-10.169-3.199-10.503-3.299-10.203-3.533-9.853-3.899-9.453-3.099-9.385-2.267-9.135-1.4-8.702-.534-8.27 .083-7.552 .45-6.552H-.7C-1.7-6.552-2.433-6.585-2.899-6.652V-5.752C-2.399-5.785-1.65-5.802-.65-5.802ZM3.749-.75H0C.633-1.584 1.233-2.218 1.8-2.651 2.466-2.251 3.116-1.618 3.749-.75" fill="#ffffff"/>
<path transform="matrix(1,0,0,-1,185.903,366.4038)" d="M0 0V4.201C-.433 4.201-.883 4.184-1.35 4.151V5.001C-.883 4.968-.417 4.951 .05 4.951H7.848C8.448 4.951 9.031 4.968 9.598 5.001V4.151C9.031 4.184 8.448 4.201 7.848 4.201H3.899V.65L4.599 .85C4.599 .55 4.615 .3 4.649 .1 4.382 .033 4.132-.017 3.899-.05 3.899-.65 3.916-1.233 3.949-1.801H2.999C3.032-1.233 3.049-.7 3.049-.2 2.682-.267 2.141-.375 1.425-.525 .708-.675-.067-.85-.9-1.05-1-.684-1.117-.384-1.25-.15-.983-.117-.567-.067 0 0M7.948 7.952V7.052C7.948 6.685 7.965 6.268 7.998 5.802H.35C.383 6.268 .4 6.685 .4 7.052V7.952C.4 8.319 .383 8.719 .35 9.153H7.998C7.965 8.719 7.948 8.319 7.948 7.952M3.049 4.201H.849V3.3510004H3.049ZM3.049 2.651H.849V1.801H3.049ZM3.049 .45V1.15H.85V.15ZM6.999 8.502H1.3000002V7.802H6.999ZM6.999 7.102H1.3000002V6.452H6.999ZM4.399 3.401C4.999 3.367 5.549 3.351 6.049 3.351H8.548C8.181 1.951 7.748 .867 7.249 .1 8.081-.434 8.881-.767 9.648-.9 9.348-1.133 9.165-1.4 9.098-1.7 8.265-1.433 7.481-1 6.749-.4 6.315-.867 5.732-1.35 4.999-1.851 4.865-1.65 4.632-1.45 4.299-1.25 4.999-1.017 5.599-.6 6.099 0 5.532 .567 5.099 1.45 4.799 2.651H4.399ZM6.599 .55C6.999 1.117 7.298 1.817 7.498 2.651H5.599C5.732 1.851 6.065 1.15 6.599 .55" fill="#ffffff"/>
<path transform="matrix(1,0,0,-1,200.1769,358.22639)" d="M0 0C-.1-.45-.2-.892-.3-1.325H2.2C2.032-2.326 1.85-3.226 1.65-4.026 1.45-4.826 1.133-5.66 .7-6.527 1.233-6.994 1.85-7.561 2.549-8.227 2.25-8.461 1.982-8.711 1.75-8.978 1.25-8.345 .733-7.794 .2-7.327-.234-7.861-.667-8.336-1.1-8.752-1.533-9.169-1.983-9.56-2.45-9.928-2.583-9.694-2.833-9.444-3.199-9.178-2.699-8.878-2.225-8.536-1.775-8.152-1.325-7.769-.9-7.294-.5-6.727-1.1-6.26-1.75-5.81-2.45-5.377-2.017-4.376-1.667-3.293-1.4-2.126-1.933-2.126-2.4-2.143-2.799-2.176V-1.275C-2.4-1.309-1.867-1.325-1.2-1.325-1-.525-.833 .425-.7 1.525-.367 1.425 .016 1.325 .45 1.225 .25 .858 .1 .45 0 0M-.05-5.927C.183-5.527 .4-4.994 .6-4.326 .8-3.66 .966-2.926 1.1-2.126H-.45C-.75-3.226-1.05-4.193-1.35-5.026-.85-5.36-.417-5.66-.05-5.927M8.198 .325V-.575C7.865-.842 7.499-1.134 7.098-1.45 6.699-1.768 6.281-2.109 5.849-2.476V-4.026H7.199C7.631-4.026 8.115-4.01 8.648-3.976V-4.926C8.115-4.894 7.631-4.876 7.199-4.876H5.849V-8.477C5.849-9.11 5.657-9.51 5.274-9.678 4.89-9.844 4.366-9.978 3.699-10.078 3.599-9.711 3.449-9.328 3.249-8.928 3.982-8.928 4.441-8.885 4.624-8.802 4.807-8.72 4.899-8.477 4.899-8.077V-4.876H4.149C3.449-4.876 2.766-4.894 2.1-4.926V-3.976C2.766-4.01 3.399-4.026 3.999-4.026H4.899C4.899-3.526 4.89-3.134 4.874-2.851 4.857-2.568 4.815-2.343 4.749-2.176 5.049-1.976 5.399-1.718 5.799-1.4 6.199-1.084 6.549-.775 6.848-.475H3.849C3.516-.475 3.066-.492 2.5-.525V.375C3.066 .342 3.516 .325 3.849 .325Z" fill="#ffffff"/>
<path transform="matrix(1,0,0,-1,212.951,359.20173)" d="M0 0H2.249C2.216-.567 2.199-1.284 2.199-2.151V-6.552C2.199-7.052 2.216-7.769 2.249-8.702H1.25V-7.702H-1.3V-8.802H-2.3C-2.267-7.736-2.25-7.069-2.25-6.802V-2.201C-2.25-1.3-2.267-.567-2.3 0H-.85C-.683 .767-.55 1.567-.45 2.401 .016 2.233 .4 2.117 .7 2.051 .533 1.751 .3 1.067 0 0M1.25-.85H-1.3V-3.3509999H1.25ZM1.25-4.201H-1.3V-6.852H1.25ZM7.898-7.552C7.831-8.152 7.515-8.552 6.948-8.752 6.381-8.953 5.749-9.085 5.049-9.153 5.015-8.785 4.865-8.402 4.599-8.002 5.265-8.035 5.79-8.019 6.174-7.952 6.556-7.886 6.799-7.736 6.898-7.502 6.998-7.269 7.073-6.585 7.123-5.452 7.173-4.318 7.215-2.734 7.249-.7H4.349C4.082-1.334 3.699-2.084 3.199-2.951 2.966-2.718 2.682-2.534 2.349-2.401 2.649-2.001 2.932-1.518 3.199-.95 3.466-.384 3.699 .233 3.899 .9 4.099 1.567 4.215 2.083 4.249 2.451 4.715 2.251 5.115 2.101 5.449 2.001 5.282 1.733 5.14 1.442 5.024 1.125 4.907 .808 4.782 .5 4.649 .2H8.198C8.165-.5 8.148-1.15 8.148-1.75 8.115-3.785 8.031-5.719 7.898-7.552M5.199-3.801C5.399-4.201 5.632-4.719 5.899-5.352 5.665-5.452 5.349-5.619 4.949-5.852 4.715-5.219 4.499-4.676 4.299-4.226 4.099-3.776 3.899-3.401 3.699-3.101 3.932-2.968 4.232-2.801 4.599-2.601Z" fill="#ffffff"/>
<path transform="matrix(1,0,0,-1,223.9506,365.9036)" d="M0 0C.216 .633 .35 1.267 .4 1.901 .45 2.534 .475 3.601 .475 5.101 .475 6.602 .458 7.802 .425 8.702H9.373C9.339 7.735 9.323 6.868 9.323 6.102V-.45C9.323-1.15 9.123-1.583 8.723-1.75 8.323-1.917 7.856-2.033 7.323-2.101 7.256-1.6 7.14-1.217 6.973-.95 7.64-.984 8.031-.959 8.148-.875 8.265-.792 8.323-.634 8.323-.4V2.101H5.274V.15C5.274-.584 5.29-1.25 5.324-1.851H4.224C4.257-1.283 4.274-.634 4.274 .1V2.101H1.425C1.291 .667 .841-.784 .075-2.251-.292-2.017-.625-1.867-.925-1.801-.525-1.233-.217-.634 0 0M4.274 7.902H1.4250002V5.751H4.274ZM4.274 5.001H1.4250002V2.8999999H4.274ZM8.323 7.902H5.274V5.751H8.323ZM8.323 5.001H5.274V2.8999999H8.323ZM8.323 2.901" fill="#ffffff"/>
<path transform="matrix(1,0,0,-1,246.6976,361.75239)" d="M0 0C0-1 .017-1.784 .05-2.351H-1.05V-1.6H-7.998C-8.132-2.668-8.298-3.468-8.498-4.001-8.698-4.535-8.915-5.01-9.148-5.427-9.382-5.843-9.632-6.235-9.898-6.602-10.231-6.335-10.598-6.135-10.998-6.002-10.331-5.301-9.873-4.644-9.623-4.026-9.373-3.409-9.207-2.826-9.123-2.276-9.04-1.725-8.998-1.134-8.998-.5-8.998 .133-9.015 1.217-9.048 2.751H.05C.017 1.951 0 1.033 0 0M-1.1 1.851H-8.048V-.70000019H-1.1ZM-3.849 3.301C-4.283 3.201-4.616 3.084-4.849 2.951-5.083 3.651-5.349 4.268-5.649 4.801-5.316 4.901-4.999 5.034-4.699 5.201-4.299 4.401-4.016 3.768-3.849 3.301" fill="#ffffff"/>
<path transform="matrix(1,0,0,-1,118.8663,195.32032)" d="M0 0V-5.101H-3.749V-6.302H-.45C.283-6.302 .916-6.286 1.45-6.252V-7.252C.883-7.219 .25-7.202-.45-7.202H-3.749C-3.749-8.235-3.733-8.969-3.699-9.403H-4.799C-4.733-8.969-4.699-8.235-4.699-7.202H-7.948C-8.748-7.202-9.332-7.219-9.698-7.252V-6.252C-9.365-6.286-8.815-6.302-8.048-6.302H-4.699V-5.101H-8.298C-8.265-4.535-8.248-3.718-8.248-2.651-8.248-1.584-8.265-.7-8.298 0H-3.349C-2.983 .766-2.667 1.55-2.399 2.351-2.067 2.183-1.683 2.001-1.25 1.801-1.383 1.633-1.55 1.375-1.75 1.025-1.95 .675-2.15 .333-2.349 0ZM-4.699-.85H-7.299V-2.15H-4.699ZM-4.699-2.951H-7.299V-4.301H-4.699ZM-5.199 .55C-5.566 .383-5.866 .233-6.099 .1-6.432 .833-6.766 1.4-7.098 1.801-6.866 1.933-6.616 2.101-6.349 2.301-6.016 1.933-5.632 1.35-5.199 .55M-1-.85H-3.749V-2.15H-1ZM-1-2.951H-3.749V-4.301H-1ZM-1-4.301" fill="#ffffff"/>
<path transform="matrix(1,0,0,-1,122.8423,204.7229)" d="M0 0C-.267 .2-.6 .367-1 .5-.567 1.068-.15 1.933 .25 3.101 .583 2.934 .95 2.817 1.35 2.751 .716 1.417 .266 .5 0 0M4.949 10.003H8.148C8.648 10.003 9.198 10.019 9.798 10.053V9.103C9.231 9.135 8.681 9.153 8.148 9.153H4.949V7.702H8.798C8.765 7.002 8.748 6.285 8.748 5.552 8.748 4.851 8.765 4.201 8.798 3.601H.7C.733 4.201 .75 4.868 .75 5.602 .75 6.335 .733 7.035 .7 7.702H3.899V10.253C3.899 10.786 3.882 11.253 3.849 11.653H4.999C4.965 11.286 4.949 10.736 4.949 10.003M7.748 6.852H1.7990003V4.451H7.748ZM2.3 2.351C2.599 2.451 2.899 2.601 3.199 2.801 3.699 1.667 4.016 .917 4.149 .55 3.782 .417 3.432 .267 3.099 .1 3.066 .467 2.799 1.218 2.3 2.351M5.149 2.401C5.382 2.534 5.665 2.701 5.999 2.901 6.699 1.7 7.115 .934 7.249 .6 6.915 .434 6.599 .267 6.299 .1 6.032 .734 5.649 1.5 5.149 2.401M10.498 .55C10.298 .45 9.964 .267 9.498 0 9.231 .634 8.781 1.433 8.148 2.401 8.481 2.567 8.765 2.751 8.998 2.951 9.598 2.017 10.098 1.218 10.498 .55" fill="#ffffff"/>
<path transform="matrix(1,0,0,-1,137.366,195.92041)" d="M0 0V-6.652C0-7.552 .016-8.285 .05-8.853H-.95C-.95-8.285-.933-7.552-.9-6.652V-1.6C-1.3-2.334-1.667-2.918-2-3.351-2.167-3.118-2.449-2.885-2.849-2.651-2.15-1.884-1.55-.984-1.05 .05-.55 1.083-.217 2.001-.05 2.801 .383 2.601 .766 2.467 1.1 2.401 .9 2.067 .533 1.267 0 0M5.049 1.851C5.949 .283 7.265-.884 8.998-1.65 8.698-1.918 8.448-2.218 8.248-2.551 6.849-1.751 5.632-.55 4.599 1.05 3.732-.517 2.599-1.818 1.2-2.851 1.033-2.618 .8-2.368 .5-2.101 1.732-1.3 2.632-.417 3.199 .55 3.766 1.517 4.099 2.251 4.199 2.751 4.732 2.483 5.115 2.317 5.349 2.251ZM3.349-5.377C3.249-6.694 2.582-7.869 1.35-8.903 1.15-8.602 .883-8.352 .55-8.152 1.782-7.286 2.441-6.244 2.525-5.026 2.607-3.81 2.632-2.851 2.599-2.151 3.032-2.218 3.382-2.251 3.649-2.251 3.549-3.018 3.449-4.06 3.349-5.377M6.799-4.101V-7.252C6.799-7.752 6.815-8.285 6.849-8.853H5.799C5.832-8.285 5.849-7.735 5.849-7.202V-3.801C5.849-3.435 5.832-2.885 5.799-2.151H6.849C6.815-2.885 6.799-3.535 6.799-4.101" fill="#ffffff"/>
<path transform="matrix(1,0,0,-1,150.2402,195.97049)" d="M0 0V-6.602C0-7.302 .016-7.969 .05-8.602H-1C-.967-8.035-.95-7.419-.95-6.752V-1.6C-1.35-2.268-1.717-2.801-2.049-3.201-2.317-2.835-2.567-2.551-2.799-2.351-2.467-2.018-2.008-1.375-1.425-.425-.842 .525-.383 1.6-.05 2.801 .416 2.567 .816 2.401 1.15 2.301 .883 2.001 .5 1.233 0 0M4.049 1.4V2.701C4.449 2.667 4.899 2.634 5.399 2.601 5.232 2.367 5.132 1.967 5.099 1.4H6.949C7.515 1.4 8.015 1.417 8.448 1.45V.55C7.981 .583 7.481 .6 6.949 .6H5.049L4.949-.5H7.498C7.465-.9 7.448-1.434 7.448-2.101V-7.202C8.115-7.202 8.598-7.186 8.898-7.152V-8.052C8.465-8.019 7.865-8.002 7.099-8.002H2.399C1.633-8.002 1-8.019 .5-8.052V-7.152C.8-7.186 1.266-7.202 1.9-7.202V-2.101C1.9-1.468 1.883-.934 1.85-.5H3.899L3.999 .6H3.099C2.266 .6 1.616 .583 1.15 .55V1.45C1.583 1.417 2.232 1.4 3.099 1.4ZM6.549-1.2H2.85V-2.2H6.549ZM6.549-2.951H2.85V-3.8509999H6.549ZM6.549-4.601H2.85V-5.501H6.549ZM6.549-6.252H2.85V-7.2019999H6.549ZM6.549-7.202" fill="#ffffff"/>
<path transform="matrix(1,0,0,-1,163.0143,197.6709)" d="M0 0C-.2-.2-.4-.467-.6-.8-1.2-.167-1.883 .35-2.649 .75-2.483 .983-2.3 1.233-2.1 1.5-1.333 1.033-.634 .533 0 0M-.475-4.826C-.825-5.71-1.083-6.385-1.25-6.852-1.583-6.618-1.983-6.435-2.45-6.302-2.117-5.902-1.733-5.26-1.3-4.376-.867-3.493-.534-2.734-.3-2.101-.067-2.368 .2-2.584 .5-2.751 .2-3.251-.125-3.943-.475-4.826M.7 3.001C.466 2.801 .25 2.551 .05 2.251-.55 2.917-1.183 3.467-1.85 3.901-1.617 4.034-1.4 4.234-1.2 4.501-.6 4.101 .033 3.601 .7 3.001M4.149-7.052C4.182-6.452 4.199-6.018 4.199-5.752V-2.451C3.732-3.385 3.216-4.185 2.649-4.851 2.082-5.519 1.566-6.052 1.1-6.452 .9-6.218 .6-6.002 .2-5.802 .8-5.435 1.4-4.901 1.999-4.201 2.599-3.501 3.016-2.818 3.249-2.151 2.416-2.151 1.682-2.168 1.05-2.201V-1.3C1.582-1.334 2.632-1.35 4.199-1.35 4.199-.75 4.182-.2 4.149 .3H5.199C5.165-.2 5.149-.75 5.149-1.35 6.781-1.35 7.998-1.334 8.798-1.3V-2.201C8.265-2.168 7.315-2.151 5.949-2.151 6.181-2.818 6.581-3.46 7.148-4.076 7.715-4.694 8.348-5.135 9.048-5.402 8.648-5.569 8.381-5.834 8.248-6.202 7.548-5.802 6.931-5.294 6.399-4.676 5.865-4.06 5.449-3.268 5.149-2.301V-5.752C5.149-5.952 5.182-6.385 5.249-7.052ZM3.199 .825C2.799 .375 2.332-.1 1.8-.6 1.566-.367 1.266-.167 .9 0 1.4 .3 1.882 .691 2.349 1.175 2.816 1.658 3.132 2.033 3.299 2.301 3.532 2.101 3.832 1.901 4.199 1.7 3.932 1.567 3.599 1.275 3.199 .825M8.498 2.801C8.498 2.433 8.515 2.051 8.548 1.65H7.548V3.101H1.9V1.5H.95C.983 2.001 1 2.417 1 2.751 1 3.084 .983 3.467 .95 3.901H8.548C8.515 3.567 8.498 3.201 8.498 2.801M8.198 .15C7.865-.05 7.598-.284 7.398-.55 6.699 .416 5.999 1.183 5.299 1.751 5.565 1.951 5.815 2.151 6.049 2.351 6.681 1.783 7.398 1.05 8.198 .15" fill="#ffffff"/>
<path transform="matrix(1,0,0,-1,176.8383,194.7951)" d="M0 0C-.134-.284-.3-.659-.5-1.125V-7.327C-.5-8.327-.484-9.144-.45-9.778H-1.5C-1.467-9.21-1.45-8.411-1.45-7.377V-2.576C-1.75-3.01-2.008-3.36-2.225-3.626-2.442-3.893-2.633-4.126-2.799-4.326-3.033-4.06-3.299-3.826-3.599-3.626-3.133-3.193-2.733-2.734-2.4-2.251-2.067-1.768-1.775-1.3-1.525-.85-1.275-.4-1.067 .041-.9 .475-.734 .908-.6 1.258-.5 1.525-.3 1.358 .083 1.192 .65 1.025 .35 .625 .133 .283 0 0M3.649 .125V-3.426C4.282-2.893 4.865-2.343 5.399-1.776 5.932-1.209 6.349-.642 6.649-.075 6.915-.342 7.248-.592 7.648-.825 7.381-1.125 6.931-1.6 6.299-2.251 5.665-2.901 5.174-3.368 4.824-3.651 4.474-3.935 4.082-4.26 3.649-4.626V-7.777C3.649-8.311 3.866-8.577 4.299-8.577H6.249C6.515-8.545 6.69-8.402 6.773-8.152 6.856-7.902 6.931-7.511 6.998-6.977 7.298-7.244 7.681-7.411 8.148-7.477 7.948-8.411 7.731-8.978 7.498-9.178 7.265-9.378 6.949-9.478 6.549-9.478H3.749C3.049-9.478 2.682-9.078 2.649-8.277V-5.327C2.416-5.527 2.125-5.744 1.775-5.977 1.425-6.211 1.033-6.461 .6-6.727 .4-6.394 .166-6.11-.1-5.877 .333-5.677 .808-5.419 1.325-5.101 1.841-4.785 2.282-4.476 2.649-4.176V.325C2.649 .725 2.632 1.075 2.599 1.375H3.699C3.666 1.208 3.649 .792 3.649 .125" fill="#ffffff"/>
<path transform="matrix(1,0,0,-1,147.3322,212.547)" d="M0 0C0 1.334-1.081 2.416-2.415 2.416-3.748 2.416-4.829 1.334-4.829 0-4.829-1.334-3.748-2.416-2.415-2.416-1.081-2.416 0-1.334 0 0M-1.61 0H-3.22V-51.602H-1.61ZM-1.61-51.602" fill="#ffffff"/>
<path transform="matrix(1,0,0,-1,235.4897,200.3085)" d="M0 0V-2.701C0-3.067 .017-3.584 .05-4.251H-.9C-.867-3.384-.85-2.818-.85-2.551V-.6C-1.317-.9-1.817-1.218-2.349-1.55-2.417-1.318-2.583-1.1-2.849-.9-2.117-.534-1.5-.167-1 .2-.5 .566-.067 .983 .3 1.45 .5 1.217 .75 .967 1.05 .7 .816 .666 .466 .433 0 0M0 2.226C-.5 1.842-1.133 1.417-1.9 .95-2.067 1.217-2.267 1.433-2.5 1.6-1.833 1.901-1.267 2.233-.8 2.601-.334 2.967 .05 3.334 .35 3.701 .583 3.467 .85 3.234 1.15 3.001 .883 2.867 .5 2.609 0 2.226M7.399-1.3C7.131-1.701 6.865-2.051 6.599-2.351 6.332-2.651 5.982-2.951 5.549-3.251 6.015-3.351 6.515-3.426 7.049-3.476 7.581-3.526 8.148-3.518 8.748-3.451 8.615-3.684 8.498-3.968 8.398-4.301 7.665-4.301 6.999-4.243 6.399-4.126 5.799-4.009 5.265-3.868 4.799-3.701 3.866-4.034 2.7-4.251 1.3-4.351 1.233-4.084 1.066-3.801 .8-3.501 1.4-3.534 1.966-3.526 2.5-3.476 3.032-3.426 3.549-3.334 4.049-3.201 3.682-2.935 3.316-2.534 2.949-2.001 2.516-2.334 2.066-2.618 1.6-2.851 1.432-2.584 1.233-2.351 1-2.151 1.432-2.051 1.833-1.868 2.2-1.6 2.566-1.334 2.849-1.05 3.049-.75H1.85C1.882-.184 1.9 .25 1.9 .55V1.701C1.733 1.567 1.55 1.433 1.35 1.3 1.216 1.533 1.033 1.75 .8 1.951 1.166 2.183 1.508 2.451 1.825 2.751 2.141 3.051 2.432 3.384 2.7 3.751H-1.5C-1.467 4.117-1.45 4.484-1.45 4.851-1.45 5.218-1.467 5.568-1.5 5.902H1.3V6.602H-.25C-.783 6.602-1.367 6.585-2 6.552V7.302C-1.367 7.268-.65 7.252 .15 7.252H6.549C7.249 7.252 7.865 7.268 8.398 7.302V6.552C7.998 6.585 7.481 6.602 6.849 6.602H4.999V5.902H7.898C7.865 5.568 7.848 5.234 7.848 4.901 7.848 4.568 7.865 4.184 7.898 3.751H3.049C3.182 3.651 3.366 3.551 3.599 3.451L3.299 3.201H6.499C6.999 3.201 7.548 3.217 8.148 3.251V2.501C7.648 2.534 7.098 2.551 6.499 2.551H2.799C2.6 2.383 2.432 2.233 2.299 2.101H7.598C7.565 1.6 7.548 1.1 7.548 .6 7.548 .133 7.565-.317 7.598-.75H4.099C3.899-1.018 3.749-1.2 3.649-1.3ZM1.3 5.251H-.6500001V4.401H1.3ZM4.099 6.602H2.199V5.9020006H4.099ZM4.099 5.251H2.199V4.401H4.099ZM6.749 1.5H2.75V.95H6.749ZM6.749 .35H2.75V-.15H6.749ZM5.949-1.951H3.799C4.032-2.284 4.382-2.601 4.849-2.901 5.315-2.601 5.682-2.284 5.949-1.951M7.049 5.251H4.9989998V4.401H7.049ZM7.049 4.401" fill="#ffffff"/>
<path transform="matrix(1,0,0,-1,255.8125,201.85889)" d="M0 0V-1.6C.666-1.6 1.216-1.567 1.65-1.5V-2.451C.95-2.417-.017-2.401-1.25-2.401H-7.898C-8.832-2.401-9.632-2.417-10.298-2.451V-1.5C-9.765-1.567-9.232-1.6-8.698-1.6V0C-8.698 .566-8.715 1.1-8.748 1.6H.05C.016 1 0 .466 0 0M-2.799 9.103C-2.5 8.903-2.1 8.735-1.6 8.602-1.833 8.402-2.025 8.177-2.175 7.927-2.324 7.677-2.467 7.452-2.6 7.252H-.95C-.417 7.252 .133 7.268 .7 7.302V6.402C.133 6.435-.417 6.452-.95 6.452H-3.849V5.251H-1.7C-1.2 5.251-.65 5.268-.05 5.302V4.401C-.65 4.434-1.2 4.451-1.7 4.451H-3.849V3.351H-1C-.4 3.351 .316 3.367 1.15 3.401V2.551C.316 2.584-.25 2.601-.55 2.601H-7.999C-8.565 2.601-9.115 2.584-9.648 2.551V3.401C-9.182 3.367-8.632 3.351-7.999 3.351H-4.799V4.451H-7.049C-7.449 4.451-7.932 4.434-8.498 4.401V5.302C-7.932 5.268-7.466 5.251-7.099 5.251H-4.799V6.452H-7.249C-8.049 6.452-8.748 6.435-9.348 6.402V7.302C-8.748 7.268-8.082 7.252-7.349 7.252H-3.599C-3.299 7.685-3.033 8.302-2.799 9.103M-6.049 .8H-7.7489998V-1.6010001H-6.049ZM-5.199 7.802C-5.532 7.635-5.849 7.468-6.149 7.302-6.316 7.768-6.549 8.219-6.849 8.652-6.482 8.819-6.182 8.969-5.949 9.103-5.616 8.535-5.366 8.102-5.199 7.802M-3.549 .8H-5.049V-1.6010001H-3.549ZM-.95 .8H-2.6V-1.6010001H-.95ZM-.95-1.6" fill="#ffffff"/>
<path transform="matrix(1,0,0,-1,268.3366,193.8566)" d="M0 0C.3 0 .716 .016 1.25 .05V-.85C.816-.817 .4-.8 0-.8H-3.399V-1.851H.25C.217-2.418 .2-3.185 .2-4.151 .2-5.085 .217-5.835 .25-6.402H-3.549C-3.649-7.102-3.883-7.752-4.249-8.352-3.749-8.652-3.024-8.92-2.074-9.153-1.125-9.386-.392-9.519 .125-9.553 .641-9.586 1.15-9.603 1.65-9.603 1.45-9.769 1.283-10.119 1.15-10.653 .25-10.586-.75-10.428-1.85-10.178-2.949-9.928-3.933-9.569-4.799-9.103-5.132-9.403-5.624-9.711-6.274-10.028-6.923-10.344-7.882-10.603-9.148-10.803-9.282-10.436-9.448-10.119-9.648-9.853-8.682-9.819-7.84-9.678-7.124-9.428-6.407-9.178-5.882-8.903-5.549-8.602-6.182-8.17-6.848-7.619-7.548-6.952-7.348-6.819-7.148-6.636-6.948-6.402H-8.148C-8.116-5.769-8.098-4.985-8.098-4.051-8.098-3.085-8.116-2.351-8.148-1.851H-4.349V-.8H-7.448C-7.982-.8-8.548-.817-9.148-.85V.05C-8.548 .016-7.998 0-7.498 0ZM-4.349-2.601H-7.098V-3.651H-4.349ZM-4.399-5.552C-4.366-5.185-4.349-4.819-4.349-4.451H-7.098V-5.552ZM-6.798-6.402C-6.199-7.036-5.599-7.536-4.999-7.902-4.732-7.402-4.566-6.902-4.499-6.402ZM-.8-5.552V-4.451H-3.399C-3.399-4.685-3.416-5.051-3.449-5.552ZM-.8-2.601H-3.3999999V-3.651H-.8ZM-.8-3.651" fill="#ffffff"/>
<path transform="matrix(1,0,0,-1,272.0126,198.70801)" d="M0 0C.633 .033 1.4 .166 2.299 .4 3.199 .633 3.899 .883 4.399 1.15 3.999 1.683 3.549 2.151 3.049 2.551 3.316 2.751 3.532 2.967 3.699 3.201 4.332 2.601 4.849 2.067 5.249 1.6 5.749 1.901 6.199 2.226 6.599 2.576 6.998 2.926 7.348 3.301 7.648 3.701H3.349C2.649 3.101 1.832 2.501 .9 1.901 .7 2.201 .45 2.433 .15 2.601 1.05 3.001 1.866 3.517 2.599 4.151 3.332 4.784 3.815 5.334 4.049 5.802 4.315 5.602 4.599 5.402 4.899 5.201 4.732 5.068 4.465 4.818 4.099 4.451H9.298C8.331 3.051 7.381 2.033 6.449 1.4 5.515 .766 4.607 .291 3.724-.025 2.841-.342 1.816-.65 .65-.95 .516-.617 .3-.3 0 0M7.398 .65C7.098 .383 6.815 .133 6.549-.1H10.698C10.298-1.1 9.773-1.968 9.123-2.701 8.473-3.435 7.748-4.001 6.948-4.401 6.149-4.801 5.265-5.134 4.299-5.402 3.332-5.668 2.149-5.868 .75-6.002 .616-5.634 .416-5.284 .15-4.951 .983-4.984 1.974-4.901 3.124-4.701 4.274-4.501 5.315-4.185 6.249-3.751 5.649-3.151 5.149-2.668 4.749-2.301 5.015-2.101 5.249-1.884 5.449-1.65 5.915-2.118 6.449-2.668 7.048-3.301 7.481-3.035 7.89-2.693 8.273-2.276 8.656-1.859 8.981-1.384 9.248-.85H5.799C5.465-1.118 4.999-1.443 4.399-1.826 3.799-2.209 2.966-2.634 1.9-3.101 1.732-2.768 1.516-2.501 1.25-2.301 2.349-1.968 3.391-1.45 4.374-.75 5.357-.05 6.049 .616 6.449 1.25 6.715 .983 7.031 .783 7.398 .65" fill="#ffffff"/>
<path transform="matrix(1,0,0,-1,287.1862,197.9078)" d="M0 0C-.267-.267-.5-.567-.7-.9-1.3-.334-2 .15-2.799 .55-2.6 .816-2.4 1.117-2.2 1.45-1.433 .983-.7 .5 0 0M-.75-4.326C-1.15-5.176-1.483-5.834-1.75-6.302-2.05-6.068-2.4-5.868-2.799-5.702-2.467-5.302-2.083-4.719-1.65-3.951-1.217-3.185-.85-2.384-.55-1.55-.284-1.784 .016-2.001 .35-2.201 .016-2.768-.35-3.476-.75-4.326M.35 3.151C.116 2.851-.117 2.567-.35 2.301-.883 2.834-1.5 3.301-2.2 3.701-1.967 4.001-1.767 4.267-1.6 4.501-.833 4.034-.184 3.584 .35 3.151M2.624-3.026C2.574-3.71 2.425-4.368 2.174-5.001 1.925-5.634 1.35-6.252 .45-6.852 .216-6.552-.034-6.302-.3-6.102 .366-5.802 .858-5.394 1.175-4.876 1.491-4.36 1.666-3.776 1.7-3.126 1.732-2.476 1.732-1.901 1.7-1.4 2.032-1.468 2.4-1.5 2.799-1.5 2.732-1.834 2.674-2.343 2.624-3.026M4.999 3.451H6.599C7.131 3.451 7.731 3.467 8.398 3.501V2.601C7.598 2.634 6.998 2.651 6.599 2.651H3.399C3.666 2.451 3.899 2.301 4.099 2.201 3.932 2.067 3.716 1.833 3.449 1.5 3.182 1.167 2.782 .7 2.249 .1 3.449 .133 4.732 .183 6.099 .25 5.765 .65 5.432 1 5.099 1.3 5.432 1.533 5.665 1.733 5.799 1.901 6.731 .933 7.515 .066 8.148-.7 7.848-.934 7.581-1.15 7.348-1.35 7.081-.984 6.849-.667 6.649-.4 5.915-.467 4.924-.542 3.674-.625 2.425-.709 1.583-.817 1.15-.95 1.05-.65 .9-.367 .7-.1 1.033 0 1.432 .333 1.9 .9 2.366 1.467 2.749 2.051 3.049 2.651H2.5C1.9 2.651 1.282 2.617 .65 2.551V3.501C1.282 3.467 1.9 3.451 2.5 3.451H3.899C3.632 3.917 3.399 4.284 3.199 4.551 3.532 4.718 3.799 4.884 3.999 5.051 4.332 4.551 4.665 4.017 4.999 3.451M4.499-2.651V-4.851C4.499-5.285 4.515-5.818 4.549-6.452H3.499C3.532-5.852 3.549-5.319 3.549-4.851V-2.651C3.549-2.084 3.532-1.668 3.499-1.4H4.549C4.515-1.6 4.499-2.018 4.499-2.651M6.549-2.701V-5.151C6.549-5.452 6.699-5.602 6.998-5.602H7.498C7.765-5.602 7.915-5.219 7.948-4.451 8.215-4.651 8.548-4.801 8.948-4.901 8.748-5.734 8.54-6.202 8.323-6.302 8.106-6.402 7.848-6.452 7.548-6.452H6.599C5.965-6.452 5.649-6.135 5.649-5.502V-2.601C5.649-2.201 5.632-1.801 5.599-1.4H6.599C6.565-1.834 6.549-2.268 6.549-2.701" fill="#ffffff"/>
<path transform="matrix(1,0,0,-1,299.3354,193.3815)" d="M0 0C.716 .15 1.325 .341 1.825 .575 2.057 .141 2.291-.225 2.525-.525 2.291-.492 2.05-.5 1.8-.55 1.55-.6 1.275-.642 .975-.675V-3.126C1.441-3.126 1.941-3.11 2.475-3.076V-4.026C1.941-3.993 1.441-3.976 .975-3.976V-8.377C.975-9.111 .991-10.094 1.025-11.328H.025C.058-10.094 .075-9.128 .075-8.427V-6.127C-.392-7.061-.908-7.944-1.475-8.777-1.708-8.445-1.975-8.145-2.274-7.877-1.808-7.411-1.392-6.877-1.025-6.277-.658-5.677-.325-4.91-.025-3.976-.858-3.976-1.475-3.993-1.875-4.026V-3.076C-1.308-3.11-.892-3.126-.625-3.126H.075V-.875C-.358-.975-.908-1.075-1.574-1.175-1.675-.875-1.792-.592-1.925-.325-1.358-.259-.717-.15 0 0M2.924-6.927C2.725-7.061 2.457-7.261 2.125-7.527 1.791-6.794 1.457-6.194 1.125-5.727 1.325-5.56 1.575-5.377 1.875-5.176 2.207-5.677 2.557-6.261 2.924-6.927M7.474-4.976C8.006-4.976 8.573-4.96 9.173-4.926V-5.827C8.573-5.794 8.006-5.777 7.474-5.777H6.524V-7.377H7.074C7.574-7.377 8.156-7.361 8.823-7.327V-8.277C8.156-8.245 7.623-8.227 7.224-8.227H6.524V-9.978H7.723C8.323-9.978 8.956-9.962 9.623-9.928V-10.878C9.09-10.845 8.456-10.828 7.723-10.828H4.374C3.641-10.828 3.007-10.861 2.475-10.928V-9.928C3.007-9.962 3.641-9.978 4.374-9.978H5.574V-8.227H4.874C4.341-8.227 3.841-8.261 3.374-8.327V-7.327C3.841-7.361 4.341-7.377 4.874-7.377H5.574V-5.777H4.774C4.174-5.777 3.607-5.794 3.074-5.827V-4.926C3.607-4.96 4.174-4.976 4.774-4.976ZM8.873-2.026C8.873-2.593 8.89-3.16 8.923-3.726H3.324C3.357-3.093 3.374-2.493 3.374-1.926 3.374-1.359 3.357-.725 3.324-.025H8.923C8.89-.759 8.873-1.425 8.873-2.026M7.823-.875H4.274V-2.826H7.823ZM7.823-2.826" fill="#ffffff"/>
<path transform="matrix(1,0,0,-1,201.419,349.54853)" d="M0 0C0-1.334-1.081-2.416-2.415-2.416-3.748-2.416-4.829-1.334-4.829 0-4.829 1.334-3.748 2.416-2.415 2.416-1.081 2.416 0 1.334 0 0M-1.61 0H-3.22V51.337H-1.61ZM-1.61 51.337" fill="#ffffff"/>
<path transform="matrix(1,0,0,-1,274.0168,212.97641)" d="M0 0C0 1.334-1.081 2.416-2.415 2.416-3.748 2.416-4.829 1.334-4.829 0-4.829-1.334-3.748-2.416-2.415-2.416-1.081-2.416 0-1.334 0 0M-1.61 0H-3.22V-51.173H-1.61ZM-1.61-51.173" fill="#ffffff"/>
</g>
<path transform="matrix(1,0,0,-1,0,595.276)" d="M87.892 364.417H198.963V347.99H87.892Z" fill="#f43040"/>
<g clip-path="url(#clip_7)">
<path transform="matrix(1,0,0,-1,110.3824,239.2695)" d="M0 0C.226 .317 .49 .747 .792 1.291 .581 1.291 .332 1.26 .045 1.2-.242 1.139-.506 1.064-.747 .974-.838 1.275-.959 1.592-1.109 1.925-.808 2.136-.506 2.604-.204 3.329 .098 4.054 .324 4.808 .475 5.594 .807 5.443 1.139 5.322 1.471 5.232 1.29 4.839 1.079 4.401 .838 3.918 .596 3.435 .279 2.786-.113 1.97 .46 1.97 .883 1.985 1.154 2.016 1.456 2.589 1.682 3.118 1.834 3.601 2.075 3.389 2.361 3.193 2.694 3.012 2.452 2.65 2.173 2.174 1.856 1.585 1.539 .997 1.048 .234 .385-.702 .717-.612 1.411-.491 2.467-.34V-1.11C1.954-1.171 1.471-1.246 1.019-1.336 .566-1.427 .083-1.578-.43-1.789-.551-1.427-.687-1.11-.838-.838-.506-.597-.226-.317 0 0M.339-2.718C.883-2.552 1.546-2.333 2.332-2.061 2.332-2.303 2.361-2.575 2.422-2.876 1.909-2.967 1.373-3.125 .815-3.352 .256-3.578-.219-3.797-.611-4.009-.763-3.646-.913-3.345-1.064-3.103-.672-3.012-.204-2.884 .339-2.718M4.324 3.692C4.324 3.118 4.308 2.197 4.278 .929 4.912 .204 5.41-.415 5.772-.929 5.501-1.171 5.274-1.412 5.093-1.653 4.791-1.019 4.474-.491 4.142-.068 3.961-1.367 3.719-2.355 3.418-3.035 3.116-3.714 2.799-4.31 2.467-4.824 2.256-4.612 1.954-4.462 1.562-4.371 2.075-3.737 2.467-3.05 2.739-2.31 3.011-1.57 3.207-.778 3.328 .068 3.448 .913 3.501 1.796 3.486 2.718 3.47 3.639 3.448 4.567 3.418 5.503 3.81 5.443 4.142 5.413 4.414 5.413 4.353 4.839 4.324 4.265 4.324 3.692M7.244 3.375C7.228 2.559 7.281 1.706 7.402 .815 7.522-.076 7.771-.974 8.149-1.88 8.526-2.786 8.971-3.45 9.485-3.873 9.213-4.054 8.956-4.341 8.715-4.733 8.383-4.371 8.059-3.873 7.742-3.239 7.425-2.605 7.131-1.684 6.859-.476 6.617-1.744 6.27-2.748 5.818-3.488 5.365-4.227 5.048-4.688 4.867-4.869 4.565-4.627 4.278-4.462 4.007-4.371 4.58-3.857 5.048-3.216 5.41-2.446 5.772-1.676 6.014-.883 6.135-.068 6.255 .747 6.316 1.608 6.316 2.514 6.316 3.42 6.3 4.371 6.27 5.368L7.312 5.277C7.281 4.824 7.259 4.19 7.244 3.375" fill="#ffffff"/>
<path transform="matrix(1,0,0,-1,124.1908,234.6041)" d="M0 0C.075 .287 .143 .612 .204 .974 .747 .793 1.124 .687 1.336 .657 1.003-.068 .777-.582 .657-.883H6.633C6.602-1.427 6.587-1.956 6.587-2.469V-7.995C6.587-8.659 6.384-9.044 5.976-9.15 5.569-9.255 5.093-9.323 4.55-9.354 4.46-8.93 4.308-8.584 4.097-8.312 4.851-8.342 5.312-8.342 5.478-8.312 5.644-8.282 5.712-8.116 5.682-7.814V-1.699H-1.698V-9.308H-2.648C-2.648-8.523-2.634-7.889-2.603-7.406V-2.514C-2.634-1.97-2.648-1.427-2.648-.883H-.294C-.174-.582-.076-.287 0 0M4.052-4.462V-5.503C4.052-5.896 4.067-6.319 4.097-6.772H-.294C-.264-6.349-.249-5.927-.249-5.503V-4.371C-.249-4.009-.264-3.646-.294-3.284H4.097C4.067-3.677 4.052-4.07 4.052-4.462M3.101-4.009H.65600016V-6.047H3.101ZM3.101-6.047" fill="#ffffff"/>
<path transform="matrix(1,0,0,-1,134.1509,242.9838)" d="M0 0C.256 .015 .385 .204 .385 .566V2.967C-.4 2.634-1.034 2.333-1.517 2.061-1.577 2.423-1.698 2.755-1.879 3.057-1.487 3.148-.732 3.404 .385 3.827V6.092C-.43 6.092-1.094 6.077-1.607 6.047V6.998C-1.125 6.937-.461 6.908 .385 6.908 .385 7.874 .369 8.689 .34 9.354H1.381C1.35 8.659 1.336 7.843 1.336 6.908 2.09 6.908 2.709 6.922 3.192 6.953V6.047C2.709 6.077 2.09 6.092 1.336 6.092V4.19C1.607 4.31 2.135 4.552 2.92 4.915 2.89 4.673 2.89 4.386 2.92 4.054 2.135 3.721 1.607 3.465 1.336 3.284V.204C1.336-.279 1.215-.596 .973-.747 .731-.898 .173-1.004-.702-1.064-.732-.702-.808-.324-.928 .068-.566 .007-.257-.016 0 0M5.274 7.678V.657C5.244 .173 5.485-.068 5.999-.068H6.859C7.16-.098 7.38-.023 7.515 .159 7.651 .34 7.734 .702 7.764 1.246 8.127 1.004 8.489 .853 8.851 .793 8.67 .098 8.458-.34 8.217-.521 7.975-.702 7.658-.822 7.266-.883H5.41C4.686-.883 4.324-.551 4.324 .113V7.632C4.324 8.176 4.308 8.719 4.278 9.263H5.32C5.289 8.81 5.274 8.281 5.274 7.678" fill="#ffffff"/>
<path transform="matrix(1,0,0,-1,145.0393,239.08829)" d="M0 0C.301 .709 .528 1.411 .679 2.106 .166 2.106-.332 2.091-.815 2.061V2.922C-.302 2.891 .256 2.876 .86 2.876V3.918C.86 4.371 .845 4.808 .815 5.232H1.811C1.75 4.869 1.72 4.431 1.72 3.918V2.876C2.112 2.876 2.55 2.891 3.033 2.922V2.061C2.55 2.091 2.112 2.106 1.72 2.106V-3.057C1.75-3.993 1.766-4.627 1.766-4.96H.815C.845-4.295 .86-3.662 .86-3.057V.023C.618-.823 .166-1.744-.498-2.74-.71-2.499-.966-2.242-1.268-1.97-.724-1.367-.302-.71 0 0M3.577-.838C3.305-.959 3.033-1.125 2.762-1.336 2.429-.521 2.112 .143 1.811 .657L2.626 1.11C2.927 .536 3.244-.113 3.577-.838M8.919-.566C8.677-.687 8.405-.891 8.104-1.178 7.802-1.465 7.47-1.789 7.108-2.152 7.349-2.514 7.696-2.839 8.149-3.125 8.602-3.413 9.024-3.601 9.417-3.692 9.115-3.933 8.874-4.25 8.693-4.643 8.059-4.28 7.538-3.895 7.131-3.488 6.723-3.08 6.413-2.672 6.202-2.265 5.991-1.857 5.825-1.412 5.704-.929 5.583-.446 5.508 .007 5.478 .43H4.573V-3.51C4.995-3.269 5.417-3.012 5.84-2.74 5.87-3.043 5.931-3.345 6.021-3.646 5.779-3.767 5.44-3.956 5.003-4.213 4.565-4.469 4.211-4.733 3.939-5.005 3.727-4.703 3.516-4.446 3.305-4.235 3.516-3.963 3.652-3.662 3.712-3.329V2.922C3.712 3.585 3.697 4.235 3.667 4.869H8.33C8.3 4.326 8.285 3.585 8.285 2.65 8.285 1.713 8.3 .974 8.33 .43H6.293C6.293-.113 6.429-.718 6.7-1.382 6.942-1.171 7.183-.936 7.425-.679 7.666-.423 7.907-.129 8.149 .204ZM7.47 4.145H4.5719997V3.013H7.47ZM7.47 2.333H4.5719997V1.1099999H7.47ZM7.47 1.11" fill="#ffffff"/>
<path transform="matrix(1,0,0,-1,157.8969,237.7521)" d="M0 0C-.181-.181-.362-.423-.543-.725-1.087-.151-1.706 .317-2.399 .679-2.249 .89-2.083 1.117-1.901 1.359-1.208 .936-.574 .483 0 0M-.43-4.371C-.747-5.172-.981-5.782-1.132-6.206-1.434-5.994-1.796-5.828-2.218-5.707-1.917-5.345-1.57-4.764-1.177-3.963-.785-3.164-.483-2.476-.272-1.902-.061-2.144 .181-2.341 .453-2.491 .181-2.944-.113-3.571-.43-4.371M.634 2.718C.422 2.537 .226 2.31 .045 2.038-.498 2.642-1.072 3.14-1.675 3.533-1.464 3.653-1.268 3.835-1.087 4.077-.543 3.714 .03 3.261 .634 2.718M3.758-6.387C3.787-5.843 3.803-5.45 3.803-5.209V-2.219C3.38-3.065 2.912-3.79 2.4-4.394 1.886-4.998 1.418-5.481 .996-5.843 .815-5.632 .543-5.435 .181-5.254 .724-4.922 1.268-4.439 1.811-3.805 2.354-3.171 2.731-2.552 2.943-1.948 2.188-1.948 1.524-1.963 .951-1.993V-1.178C1.433-1.208 2.384-1.223 3.803-1.223 3.803-.679 3.787-.181 3.758 .272H4.708C4.678-.181 4.663-.679 4.663-1.223 6.142-1.223 7.244-1.208 7.968-1.178V-1.993C7.485-1.963 6.625-1.948 5.388-1.948 5.598-2.552 5.961-3.133 6.474-3.692 6.987-4.251 7.561-4.651 8.195-4.892 7.832-5.043 7.59-5.284 7.47-5.617 6.836-5.254 6.278-4.794 5.795-4.235 5.312-3.677 4.935-2.96 4.663-2.084V-5.209C4.663-5.39 4.693-5.782 4.754-6.387ZM2.898 .747C2.535 .34 2.112-.091 1.63-.544 1.418-.333 1.147-.151 .815 0 1.268 .272 1.705 .626 2.128 1.064 2.55 1.502 2.837 1.842 2.988 2.084 3.199 1.902 3.47 1.721 3.803 1.54 3.561 1.419 3.26 1.155 2.898 .747M7.697 2.537C7.697 2.204 7.711 1.857 7.742 1.495H6.836V2.808H1.72V1.359H.86C.89 1.812 .905 2.189 .905 2.491 .905 2.793 .89 3.14 .86 3.533H7.742C7.711 3.231 7.697 2.899 7.697 2.537M7.425 .136C7.123-.045 6.882-.257 6.701-.498 6.067 .377 5.433 1.072 4.799 1.585 5.04 1.767 5.267 1.948 5.478 2.129 6.051 1.615 6.701 .951 7.425 .136" fill="#ffffff"/>
<path transform="matrix(1,0,0,-1,172.8826,233.4943)" d="M0 0C.181-.333 .362-.77 .543-1.314H2.218C2.55-1.314 3.154-1.299 4.029-1.268V-2.084C3.184-2.054 2.55-2.038 2.128-2.038H-3.803C-3.803-3.397-3.819-4.492-3.848-5.322-3.879-6.153-3.961-6.976-4.097-7.791-4.233-8.606-4.527-9.497-4.98-10.463-5.252-10.282-5.539-10.146-5.84-10.056-5.358-9.211-5.048-8.38-4.912-7.564-4.776-6.749-4.701-5.707-4.686-4.439-4.671-3.171-4.679-2.129-4.709-1.314H-.498C-.619-.921-.755-.589-.905-.317-.574-.226-.272-.121 0 0M-3.124-6.477C-2.279-6.508-1.6-6.523-1.087-6.523H3.124C2.852-7.006 2.52-7.489 2.128-7.972 1.735-8.455 1.358-8.848 .996-9.15 1.388-9.331 1.947-9.482 2.671-9.603 3.396-9.723 4.089-9.784 4.754-9.784 4.573-9.965 4.406-10.267 4.256-10.69 3.38-10.569 2.61-10.425 1.947-10.26 1.282-10.093 .724-9.904 .272-9.693-.362-9.965-.989-10.184-1.607-10.35-2.226-10.516-2.868-10.645-3.531-10.735-3.622-10.493-3.803-10.237-4.075-9.965-3.531-9.965-2.913-9.889-2.218-9.739-1.524-9.587-.921-9.392-.408-9.15-.921-8.727-1.434-8.078-1.947-7.202L-3.124-7.247ZM-1.856-2.401H-.905C-.936-2.643-.951-3.02-.951-3.533H1.494C1.494-3.05 1.478-2.658 1.449-2.355H2.399C2.369-2.718 2.354-3.111 2.354-3.533 3.018-3.533 3.591-3.518 4.075-3.488V-4.258C3.622-4.228 3.048-4.213 2.354-4.213 2.354-5.028 2.369-5.617 2.399-5.979H-1.856C-1.827-5.496-1.811-4.908-1.811-4.213-2.173-4.213-2.702-4.228-3.396-4.258V-3.488C-2.702-3.518-2.173-3.533-1.811-3.533-1.811-3.05-1.827-2.672-1.856-2.401M-1.087-7.202C-.695-7.806-.226-8.32 .317-8.742 .77-8.41 1.237-7.897 1.72-7.202H-1.041ZM1.494-4.213H-.951V-5.255H1.494ZM1.494-5.254" fill="#ffffff"/>
</g>
<path transform="matrix(1,0,0,-1,0,595.276)" d="M145.359 279.623H256.43V263.19599H145.359Z" fill="#f43040"/>
<g clip-path="url(#clip_8)">
<path transform="matrix(1,0,0,-1,168.059,319.74153)" d="M0 0C0 .332-.016 .74-.045 1.223H.815C.784 .83 .77 .423 .77 0V-1.132C1.071-1.132 1.418-1.118 1.811-1.087V-1.857C1.418-1.827 1.071-1.812 .77-1.812V-3.805C.951-3.654 1.101-3.503 1.222-3.352 1.524-3.745 1.841-4.167 2.173-4.62 1.992-4.741 1.78-4.908 1.539-5.118 1.237-4.636 .98-4.273 .77-4.031V-7.61C.77-8.183 .784-8.697 .815-9.15H-.045C-.016-8.727 0-8.213 0-7.61V-3.895C-.121-4.348-.272-4.764-.453-5.141-.634-5.519-.845-5.919-1.087-6.341-1.238-6.07-1.434-5.783-1.675-5.481-1.253-4.968-.921-4.409-.679-3.805-.438-3.201-.257-2.537-.136-1.812-.589-1.812-.981-1.827-1.313-1.857V-1.087C-.981-1.118-.543-1.132 0-1.132ZM3.509-8.448C3.101-8.734 2.671-8.983 2.218-9.195 2.097-8.893 1.947-8.636 1.766-8.425 2.188-8.244 2.55-8.063 2.852-7.881 3.154-7.7 3.531-7.414 3.984-7.021 4.195-7.263 4.421-7.504 4.663-7.746 4.301-7.927 3.916-8.16 3.509-8.448M8.376 .136V-.589C7.983-.559 7.409-.544 6.655-.544V-1.812H7.651C8.134-1.812 8.572-1.797 8.964-1.767V-2.491C8.541-2.462 8.104-2.446 7.651-2.446H5.569V-3.216H8.013C7.983-3.639 7.968-4.258 7.968-5.073 7.968-5.859 7.983-6.462 8.013-6.885H2.535C2.565-6.553 2.581-5.964 2.581-5.118 2.581-4.273 2.565-3.639 2.535-3.216H4.799V-2.446H3.169C2.746-2.446 2.384-2.462 2.083-2.491V-1.767C2.414-1.797 2.776-1.812 3.169-1.812H3.803V-.544C3.289-.544 2.822-.559 2.4-.589V.136C2.852 .105 3.32 .091 3.803 .091 3.803 .544 3.787 .921 3.758 1.223H4.573C4.542 .951 4.527 .573 4.527 .091H5.931C5.931 .604 5.915 1.011 5.885 1.314H6.701C6.67 1.042 6.655 .634 6.655 .091 7.44 .091 8.013 .105 8.376 .136M4.799-3.85H3.3049999V-4.756H4.799ZM4.799-5.345H3.3049999V-6.251H4.799ZM5.931-.544H4.5270006V-1.812H5.931ZM7.244-3.85H5.5690004V-4.756H7.244ZM7.244-5.345H5.5690004V-6.251H7.244ZM7.448-7.564C7.825-7.776 8.24-8.032 8.692-8.334 8.451-8.636 8.269-8.893 8.149-9.104 7.425-8.591 6.979-8.289 6.814-8.199 6.647-8.108 6.353-7.957 5.931-7.746 6.112-7.535 6.263-7.278 6.384-6.976 6.715-7.157 7.07-7.354 7.448-7.564" fill="#ffffff"/>
<path transform="matrix(1,0,0,-1,181.6184,319.3564)" d="M0 0C.075 .287 .143 .612 .204 .974 .747 .793 1.124 .687 1.336 .657 1.003-.068 .777-.582 .657-.883H6.633C6.602-1.427 6.587-1.956 6.587-2.469V-7.995C6.587-8.659 6.384-9.044 5.976-9.15 5.569-9.255 5.093-9.323 4.55-9.354 4.46-8.93 4.308-8.584 4.097-8.312 4.851-8.342 5.312-8.342 5.478-8.312 5.644-8.282 5.712-8.116 5.682-7.814V-1.699H-1.698V-9.308H-2.648C-2.648-8.523-2.634-7.889-2.603-7.406V-2.514C-2.634-1.97-2.648-1.427-2.648-.883H-.294C-.174-.582-.076-.287 0 0M4.052-4.462V-5.503C4.052-5.896 4.067-6.319 4.097-6.772H-.294C-.264-6.349-.249-5.927-.249-5.503V-4.371C-.249-4.009-.264-3.646-.294-3.284H4.097C4.067-3.677 4.052-4.07 4.052-4.462M3.101-4.009H.65600016V-6.047H3.101ZM3.101-6.047" fill="#ffffff"/>
<path transform="matrix(1,0,0,-1,192.1898,324.9958)" d="M0 0V-2.446C0-2.778 .015-3.246 .045-3.85H-.815C-.785-3.065-.77-2.552-.77-2.31V-.544C-1.193-.815-1.645-1.103-2.128-1.404-2.189-1.193-2.339-.996-2.581-.815-1.917-.483-1.358-.151-.906 .181-.453 .513-.061 .89 .272 1.314 .453 1.102 .679 .875 .951 .634 .739 .604 .422 .392 0 0M0 2.016C-.453 1.668-1.026 1.283-1.72 .861-1.872 1.102-2.053 1.298-2.264 1.449-1.66 1.721-1.147 2.023-.724 2.355-.302 2.687 .045 3.019 .317 3.352 .528 3.14 .77 2.929 1.041 2.718 .799 2.597 .453 2.362 0 2.016M6.701-1.178C6.459-1.54 6.217-1.857 5.976-2.129 5.734-2.401 5.417-2.672 5.025-2.944 5.448-3.035 5.9-3.103 6.384-3.148 6.866-3.193 7.38-3.186 7.923-3.125 7.802-3.336 7.697-3.593 7.606-3.895 6.942-3.895 6.338-3.842 5.795-3.737 5.252-3.631 4.769-3.503 4.346-3.352 3.501-3.653 2.445-3.85 1.177-3.941 1.116-3.699 .966-3.442 .724-3.171 1.268-3.2 1.78-3.193 2.264-3.148 2.746-3.103 3.214-3.019 3.667-2.899 3.335-2.658 3.003-2.295 2.671-1.812 2.278-2.114 1.871-2.371 1.449-2.582 1.297-2.341 1.116-2.129 .905-1.948 1.297-1.857 1.66-1.691 1.992-1.449 2.324-1.208 2.581-.951 2.762-.679H1.675C1.705-.166 1.72 .227 1.72 .498V1.54C1.569 1.419 1.403 1.298 1.222 1.178 1.101 1.389 .935 1.585 .724 1.767 1.056 1.977 1.365 2.22 1.652 2.491 1.939 2.763 2.203 3.065 2.445 3.397H-1.358C-1.329 3.729-1.313 4.061-1.313 4.394-1.313 4.726-1.329 5.043-1.358 5.345H1.177V5.979H-.226C-.71 5.979-1.238 5.964-1.811 5.934V6.613C-1.238 6.583-.589 6.568 .136 6.568H5.931C6.565 6.568 7.123 6.583 7.606 6.613V5.934C7.244 5.964 6.775 5.979 6.202 5.979H4.527V5.345H7.153C7.123 5.043 7.108 4.741 7.108 4.439 7.108 4.137 7.123 3.789 7.153 3.397H2.762C2.882 3.307 3.048 3.216 3.26 3.125L2.988 2.899H5.886C6.338 2.899 6.836 2.914 7.38 2.944V2.265C6.927 2.295 6.429 2.31 5.886 2.31H2.535C2.354 2.159 2.203 2.023 2.083 1.902H6.882C6.851 1.449 6.836 .997 6.836 .544 6.836 .12 6.851-.287 6.882-.679H3.712C3.531-.921 3.396-1.087 3.305-1.178ZM1.177 4.756H-.589V3.986H1.177ZM3.712 5.979H1.9919999V5.3450005H3.712ZM3.712 4.756H1.9919999V3.986H3.712ZM6.112 1.359H2.49V.86099997H6.112ZM6.112 .317H2.49V-.136H6.112ZM5.387-1.767H3.441C3.652-2.069 3.968-2.355 4.391-2.627 4.814-2.355 5.146-2.069 5.387-1.767M6.384 4.756H4.528V3.986H6.384ZM6.384 3.986" fill="#ffffff"/>
<path transform="matrix(1,0,0,-1,210.5258,326.3999)" d="M0 0V-1.449C.603-1.449 1.101-1.419 1.494-1.359V-2.22C.86-2.189-.016-2.174-1.132-2.174H-7.153C-7.999-2.174-8.723-2.189-9.327-2.22V-1.359C-8.844-1.419-8.361-1.449-7.878-1.449V0C-7.878 .513-7.893 .996-7.923 1.449H.045C.015 .906 0 .423 0 0M-2.536 8.244C-2.264 8.063-1.901 7.911-1.449 7.791-1.66 7.61-1.834 7.406-1.969 7.179-2.105 6.953-2.234 6.749-2.354 6.568H-.86C-.378 6.568 .12 6.583 .634 6.613V5.798C.12 5.828-.378 5.843-.86 5.843H-3.486V4.756H-1.54C-1.087 4.756-.589 4.771-.045 4.801V3.986C-.589 4.016-1.087 4.031-1.54 4.031H-3.486V3.035H-.905C-.362 3.035 .286 3.05 1.041 3.08V2.31C.286 2.34-.227 2.355-.498 2.355H-7.244C-7.758 2.355-8.256 2.34-8.738 2.31V3.08C-8.316 3.05-7.818 3.035-7.244 3.035H-4.347V4.031H-6.384C-6.746 4.031-7.184 4.016-7.697 3.986V4.801C-7.184 4.771-6.761 4.756-6.429 4.756H-4.347V5.843H-6.565C-7.289 5.843-7.923 5.828-8.466 5.798V6.613C-7.923 6.583-7.32 6.568-6.655 6.568H-3.26C-2.988 6.96-2.747 7.519-2.536 8.244M-5.478 .725H-7.017V-1.449H-5.478ZM-4.708 7.066C-5.011 6.915-5.297 6.764-5.569 6.613-5.72 7.036-5.931 7.443-6.203 7.836-5.871 7.987-5.599 8.123-5.388 8.244-5.086 7.73-4.86 7.338-4.708 7.066M-3.215 .725H-4.573V-1.449H-3.215ZM-.86 .725H-2.354V-1.449H-.86ZM-.86-1.449" fill="#ffffff"/>
<path transform="matrix(1,0,0,-1,217.5882,326.9208)" d="M0 0C-.302-.529-.747-.951-1.336-1.268-1.924-1.585-2.807-1.864-3.984-2.106-4.105-1.683-4.256-1.321-4.437-1.019-3.683-.989-3.049-.906-2.535-.77-2.023-.634-1.6-.423-1.268-.136-.936 .151-.695 .513-.543 .951-.393 1.389-.287 1.97-.226 2.695 .226 2.574 .589 2.498 .86 2.469 .589 1.351 .301 .528 0 0M4.573 5.503V6.726H-3.441V5.322H-4.392C-4.362 5.714-4.346 6.047-4.346 6.319-4.346 6.62-4.362 6.998-4.392 7.451H.317C.256 7.602 .075 7.934-.226 8.448 .166 8.538 .513 8.644 .815 8.765 1.056 8.281 1.252 7.843 1.403 7.451H5.523C5.493 7.058 5.478 6.696 5.478 6.364 5.478 6.031 5.493 5.745 5.523 5.503ZM-1.177 6.273H-.272C-.302 6.002-.317 5.76-.317 5.549H1.449C1.449 5.73 1.433 5.986 1.403 6.319H2.309C2.278 5.986 2.264 5.73 2.264 5.549 2.898 5.549 3.501 5.564 4.075 5.594V4.733C3.441 4.794 2.837 4.824 2.264 4.824V3.646H3.939C3.908 3.284 3.894 2.922 3.894 2.559V1.834C3.894 1.532 3.908 1.139 3.939 .657H3.033V2.967H-1.901V.521H-2.807C-2.777 1.064-2.762 1.487-2.762 1.789V2.514C-2.762 2.906-2.777 3.284-2.807 3.646H-1.132V4.824H-1.766C-1.977 4.824-2.37 4.779-2.943 4.688V5.594C-2.37 5.564-1.977 5.549-1.766 5.549H-1.132C-1.132 5.76-1.147 6.002-1.177 6.273M1.449 4.824H-.31700004V3.646H1.449ZM1.992 .385V-.566C1.992-.838 2.143-.989 2.445-1.019H3.803C4.165-1.019 4.437-.958 4.618-.838 4.799-.718 4.95-.385 5.071 .159 5.342-.023 5.629-.174 5.931-.294 5.689-1.26 5.116-1.759 4.21-1.789H2.128C1.494-1.759 1.147-1.457 1.087-.883V.476C1.087 .717 1.071 1.034 1.041 1.427H2.037C2.007 1.034 1.992 .687 1.992 .385" fill="#ffffff"/>
<path transform="matrix(1,0,0,-1,230.3102,318.2467)" d="M0 0C.181-.333 .362-.77 .543-1.314H2.218C2.55-1.314 3.153-1.299 4.029-1.268V-2.084C3.184-2.054 2.55-2.038 2.128-2.038H-3.803C-3.803-3.397-3.819-4.492-3.848-5.322-3.879-6.153-3.962-6.976-4.097-7.791-4.233-8.606-4.527-9.497-4.98-10.463-5.252-10.282-5.539-10.146-5.84-10.056-5.358-9.211-5.048-8.38-4.912-7.564-4.776-6.749-4.701-5.707-4.686-4.439-4.671-3.171-4.679-2.129-4.708-1.314H-.498C-.619-.922-.755-.589-.905-.317-.574-.227-.272-.121 0 0M-3.124-6.477C-2.279-6.508-1.6-6.523-1.087-6.523H3.124C2.852-7.006 2.52-7.489 2.128-7.972 1.735-8.455 1.358-8.848 .996-9.15 1.388-9.331 1.947-9.482 2.671-9.603 3.396-9.723 4.089-9.784 4.754-9.784 4.573-9.965 4.406-10.267 4.256-10.69 3.38-10.569 2.61-10.425 1.947-10.26 1.282-10.093 .724-9.904 .272-9.693-.362-9.965-.989-10.184-1.607-10.35-2.226-10.516-2.868-10.645-3.531-10.735-3.622-10.493-3.803-10.237-4.075-9.965-3.531-9.965-2.913-9.889-2.219-9.739-1.525-9.587-.921-9.392-.407-9.15-.921-8.727-1.434-8.078-1.947-7.202L-3.124-7.247ZM-1.856-2.401H-.905C-.936-2.643-.951-3.02-.951-3.533H1.494C1.494-3.05 1.478-2.658 1.449-2.355H2.399C2.369-2.718 2.354-3.111 2.354-3.533 3.018-3.533 3.591-3.518 4.074-3.488V-4.258C3.622-4.228 3.048-4.213 2.354-4.213 2.354-5.028 2.369-5.617 2.399-5.979H-1.856C-1.826-5.496-1.811-4.908-1.811-4.213-2.173-4.213-2.701-4.228-3.396-4.258V-3.488C-2.701-3.518-2.173-3.533-1.811-3.533-1.811-3.05-1.826-2.672-1.856-2.401M-1.087-7.202C-.695-7.806-.227-8.32 .317-8.742 .77-8.41 1.237-7.897 1.72-7.202H-1.041ZM1.494-4.213H-.951V-5.255H1.494ZM1.494-5.254" fill="#ffffff"/>
</g>
</g>
</g>
</svg>
