<svg xmlns="http://www.w3.org/2000/svg" xmlns:xlink="http://www.w3.org/1999/xlink" xmlns:inkscape="http://www.inkscape.org/namespaces/inkscape" version="1.1" width="411.024" height="595.276" viewBox="0 0 411.024 595.276">
<defs>
<clipPath id="clip_1">
<path transform="matrix(1,0,0,-1,0,595.276)" d="M0 0H411.024V595.276H0Z"/>
</clipPath>
<clipPath id="clip_2">
<path transform="matrix(1,0,0,-1,0,595.276)" d="M0 0H411.024V595.276H0Z"/>
</clipPath>
<path id="font_3_5" d="M.45999146 .19407654C.45999146 .28303529 .4229889 .34100343 .35099793 .36799623 .4149933 .39700318 .44699098 .450943 .44699098 .52586367 .44699098 .64175418 .36698915 .71875 .25099183 .71875 .14299011 .71875 .05899048 .6507416 .050994874 .53585818H.12298584C.12998963 .60879519 .17599488 .6547394 .25099183 .6547394 .31999208 .6547394 .375 .609787 .375 .5248718 .375 .4449463 .33499146 .3959961 .24798584 .3959961H.23298645V.3330078H.24798584C.34498597 .3330078 .3880005 .28103639 .3880005 .19508362 .3880005 .10812378 .32798768 .057159425 .25099183 .057159425 .18299866 .057159425 .11999512 .09213257 .11399841 .18109131H.041992189C.04798889 .05215454 .13899231-.0068359377 .25099183-.0068359377 .36698915-.0068359377 .45999146 .06315613 .45999146 .19407654Z"/>
<path id="font_3_8" d="M.45999146 .20516968C.45999146 .32221986 .38598634 .40722657 .2749939 .40722657 .24699402 .40722657 .22200012 .40222169 .19999695 .3922119L.35899354 .71191409H.2849884L.10998535 .3592224C.07998657 .2992096 .06498718 .25019837 .06498718 .19917298 .06498718 .07614136 .14199829-.005859375 .2630005-.005859375 .38398744-.005859375 .45999146 .08413696 .45999146 .20516968M.3880005 .20217896C.3880005 .11514282 .33799745 .058135988 .2619934 .058135988 .18598938 .058135988 .13699341 .11514282 .13699341 .20217896 .13699341 .2902069 .18598938 .34622193 .2619934 .34622193 .34399415 .34622193 .3880005 .28120423 .3880005 .20217896Z"/>
<clipPath id="clip_4">
<path transform="matrix(1,0,0,-1,0,595.276)" d="M0 0H411.024V595.276H0Z"/>
</clipPath>
<clipPath id="clip_5">
<path transform="matrix(1,0,0,-1,0,595.276)" d="M0 0H411.024V595.276H0Z"/>
</clipPath>
<clipPath id="clip_6">
<path transform="matrix(1,0,0,-1,0,595.276)" d="M0 0H411.024V595.276H0Z"/>
</clipPath>
<clipPath id="clip_7">
<path transform="matrix(1,0,0,-1,0,595.276)" d="M0 0H411.024V595.276H0Z"/>
</clipPath>
</defs>
<g clip-path="url(#clip_1)">
<g clip-path="url(#clip_2)">
<use data-text="3" xlink:href="#font_3_5" transform="matrix(9,0,0,-9,363.685,567.547)" fill="#f43040"/>
<use data-text="6" xlink:href="#font_3_8" transform="matrix(9,0,0,-9,367.285,567.547)" fill="#f43040"/>
<use data-text="3" xlink:href="#font_3_5" transform="matrix(9,0,0,-9,370.885,567.547)" fill="#f43040"/>
<g clip-path="url(#clip_4)">
<path transform="matrix(1,0,0,-1,122.7997,230.4791)" stroke-width="1" stroke-linecap="butt" stroke-dasharray="2.748,1.748" stroke-miterlimit="4" stroke-linejoin="miter" fill="none" stroke="#2c292a" d="M0 0C-.933-.5-1.843-1.328-2.324-2.672"/>
<path transform="matrix(1,0,0,-1,120.1239,238.74481)" stroke-width="1" stroke-linecap="butt" stroke-dasharray="2.919,1.919" stroke-miterlimit="4" stroke-linejoin="miter" fill="none" stroke="#2c292a" d="M0 0V-61.938"/>
<path transform="matrix(1,0,0,-1,120.9151,306.0885)" stroke-width="1" stroke-linecap="butt" stroke-dasharray="2.748,1.748" stroke-miterlimit="4" stroke-linejoin="miter" fill="none" stroke="#2c292a" d="M0 0C.503-.937 1.325-1.844 2.669-2.328"/>
<path transform="matrix(1,0,0,-1,129.2442,308.7604)" stroke-width="1" stroke-linecap="butt" stroke-dasharray="2.967,1.967" stroke-miterlimit="4" stroke-linejoin="miter" fill="none" stroke="#2c292a" d="M0 0H156.924"/>
<path transform="matrix(1,0,0,-1,291.6293,307.9791)" stroke-width="1" stroke-linecap="butt" stroke-dasharray="2.748,1.748" stroke-miterlimit="4" stroke-linejoin="miter" fill="none" stroke="#2c292a" d="M0 0C.933 .516 1.843 1.328 2.324 2.672"/>
<path transform="matrix(1,0,0,-1,294.3051,299.7135)" stroke-width="1" stroke-linecap="butt" stroke-dasharray="2.919,1.919" stroke-miterlimit="4" stroke-linejoin="miter" fill="none" stroke="#2c292a" d="M0 0V61.938"/>
<path transform="matrix(1,0,0,-1,293.5139,232.36981)" stroke-width="1" stroke-linecap="butt" stroke-dasharray="2.748,1.748" stroke-miterlimit="4" stroke-linejoin="miter" fill="none" stroke="#2c292a" d="M0 0C-.503 .937-1.325 1.844-2.669 2.328"/>
<path transform="matrix(1,0,0,-1,285.1848,229.6979)" stroke-width="1" stroke-linecap="butt" stroke-dasharray="2.967,1.967" stroke-miterlimit="4" stroke-linejoin="miter" fill="none" stroke="#2c292a" d="M0 0H-156.924"/>
<path transform="matrix(1,0,0,-1,120.2475,233.99481)" stroke-width="1" stroke-linecap="butt" stroke-miterlimit="4" stroke-linejoin="miter" fill="none" stroke="#2c292a" d="M0 0C-.08-.406-.124-.859-.124-1.359V-2.828M-.124-67.641V-69.094C-.124-69.094-.124-69.672 .06-70.453M4.179-74.641C4.593-74.719 5.048-74.766 5.546-74.766H7.029M166.905-74.766H168.388C168.388-74.766 168.964-74.766 169.748-74.594M173.934-70.469C174.014-70.047 174.058-69.594 174.058-69.094V-67.641M174.058-2.828V-1.359C174.058-1.359 174.058-.797 173.874 0M169.755 4.187C169.341 4.266 168.886 4.297 168.388 4.297H166.905M7.029 4.297H5.546C5.546 4.297 4.97 4.297 4.186 4.125"/>
<path transform="matrix(1,0,0,-1,348.0923,281.2757)" d="M0 0H-43.297C-45.174 0-46.701 1.528-46.701 3.405V14.903C-46.701 16.781-45.174 18.308-43.297 18.308H0C1.877 18.308 3.404 16.781 3.404 14.903V3.405C3.404 1.528 1.877 0 0 0M-43.297 17.247C-44.589 17.247-45.64 16.196-45.64 14.903V3.405C-45.64 2.113-44.589 1.061-43.297 1.061H0C1.292 1.061 2.343 2.113 2.343 3.405V14.903C2.343 16.196 1.292 17.247 0 17.247Z" fill="#f43040"/>
<path transform="matrix(1,0,0,-1,285.9904,281.2757)" d="M0 0H-46.804C-48.681 0-50.208 1.528-50.208 3.405V14.903C-50.208 16.781-48.681 18.308-46.804 18.308H0C1.877 18.308 3.404 16.781 3.404 14.903V3.405C3.404 1.528 1.877 0 0 0M-46.804 17.247C-48.096 17.247-49.147 16.196-49.147 14.903V3.405C-49.147 2.113-48.096 1.061-46.804 1.061H0C1.292 1.061 2.343 2.113 2.343 3.405V14.903C2.343 16.196 1.292 17.247 0 17.247Z" fill="#f43040"/>
<path transform="matrix(1,0,0,-1,229.2027,298.342)" d="M0 0H-43.297C-45.174 0-46.701 1.527-46.701 3.405V14.903C-46.701 16.781-45.174 18.308-43.297 18.308H0C1.877 18.308 3.404 16.781 3.404 14.903V3.405C3.404 1.527 1.877 0 0 0M-43.297 17.247C-44.589 17.247-45.64 16.196-45.64 14.903V3.405C-45.64 2.113-44.589 1.061-43.297 1.061H0C1.292 1.061 2.343 2.113 2.343 3.405V14.903C2.343 16.196 1.292 17.247 0 17.247Z" fill="#f43040"/>
<path transform="matrix(1,0,0,-1,237.949,261.6713)" d="M0 0H-62.107C-63.984 0-65.51 1.528-65.51 3.405V14.903C-65.51 16.781-63.984 18.308-62.107 18.308H0C1.877 18.308 3.404 16.781 3.404 14.903V3.405C3.404 1.528 1.877 0 0 0M-62.107 17.247C-63.399 17.247-64.45 16.196-64.45 14.903V3.405C-64.45 2.113-63.399 1.061-62.107 1.061H0C1.292 1.061 2.343 2.113 2.343 3.405V14.903C2.343 16.196 1.292 17.247 0 17.247Z" fill="#f43040"/>
<path transform="matrix(1,0,0,-1,171.5835,281.2757)" d="M0 0H-43.297C-45.174 0-46.701 1.528-46.701 3.405V14.903C-46.701 16.781-45.174 18.308-43.297 18.308H0C1.877 18.308 3.404 16.781 3.404 14.903V3.405C3.404 1.528 1.877 0 0 0M-43.297 17.247C-44.589 17.247-45.64 16.196-45.64 14.903V3.405C-45.64 2.113-44.589 1.061-43.297 1.061H0C1.292 1.061 2.343 2.113 2.343 3.405V14.903C2.343 16.196 1.292 17.247 0 17.247Z" fill="#f43040"/>
<path transform="matrix(1,0,0,-1,112.7892,281.2757)" d="M0 0H-37.949C-39.826 0-41.352 1.528-41.352 3.405V14.903C-41.352 16.781-39.826 18.308-37.949 18.308H0C1.877 18.308 3.404 16.781 3.404 14.903V3.405C3.404 1.528 1.877 0 0 0M-37.949 17.247C-39.24 17.247-40.291 16.196-40.291 14.903V3.405C-40.291 2.113-39.24 1.061-37.949 1.061H0C1.292 1.061 2.343 2.113 2.343 3.405V14.903C2.343 16.196 1.292 17.247 0 17.247Z" fill="#f43040"/>
<path transform="matrix(1,0,0,-1,90.4778,270.6588)" d="M0 0C.464 0 .941 .012 1.43 .037V-.66C.99-.636 .464-.623-.147-.623H-.953V-2.091H.587C.855-2.091 1.234-2.079 1.723-2.054V-2.751C1.234-2.727 .843-2.714 .55-2.714H-.953V-4.438C.073-4.56 1.295-4.548 2.713-4.401 2.517-4.719 2.395-5.012 2.346-5.281 1.368-5.281 .562-5.269-.073-5.245-.709-5.22-1.246-5.147-1.686-5.025-2.126-4.902-2.517-4.719-2.859-4.475-3.202-4.23-3.519-3.937-3.813-3.594-4.204-4.304-4.656-4.915-5.169-5.428-5.389-5.208-5.633-5.049-5.902-4.951-5.218-4.414-4.717-3.778-4.399-3.044-4.082-2.311-3.91-1.748-3.886-1.357-3.642-1.504-3.349-1.614-3.006-1.687-3.079-1.785-3.159-1.938-3.244-2.146-3.33-2.354-3.434-2.617-3.556-2.934-3.385-3.154-3.129-3.405-2.786-3.686-2.444-3.967-2.078-4.169-1.686-4.291V-.623H-2.859C-3.275-.623-3.69-.636-4.106-.66V.037C-3.69 .012-3.202 0-2.639 0ZM2.236 .917C2.236 .746 2.248 .513 2.273 .22H1.503V1.1H-4.362V.22H-5.132C-5.108 .415-5.096 .635-5.096 .88-5.096 1.124-5.108 1.394-5.132 1.687H2.273C2.248 1.344 2.236 1.088 2.236 .917M-1.613 3.191C-1.344 2.873-1.1 2.506-.88 2.091-1.222 1.944-1.466 1.821-1.613 1.724-1.662 1.944-1.882 2.311-2.273 2.824-2.053 2.898-1.833 3.02-1.613 3.191" fill="#2c292a"/>
<path transform="matrix(1,0,0,-1,96.0397,269.7418)" d="M0 0V-4.658C0-5.441 .012-6.039 .037-6.455H-.77C-.721-6.015-.697-5.428-.697-4.695V-1.174C-1.063-1.834-1.356-2.323-1.576-2.641-1.748-2.323-1.919-2.091-2.09-1.944-1.772-1.602-1.424-1.04-1.045-.257-.666 .525-.379 1.32-.183 2.127 .134 1.931 .44 1.797 .733 1.724 .562 1.552 .317 .978 0 0M5.096-2.201C4.924-2.812 4.68-3.766 4.362-5.061H5.609C6.073-5.061 6.391-5.049 6.562-5.025V-5.758C6.342-5.734 6.024-5.722 5.609-5.722H1.87C1.258-5.722 .843-5.734 .623-5.758V-5.025C.843-5.049 1.234-5.061 1.796-5.061H3.593C3.91-3.986 4.216-2.58 4.509-.844 4.9-.942 5.23-1.015 5.499-1.064 5.401-1.21 5.266-1.59 5.096-2.201M5.315 .403C5.755 .403 6.085 .415 6.305 .44V-.257C6.085-.233 5.743-.22 5.279-.22H2.016C1.674-.22 1.32-.233 .953-.257V.44C1.344 .415 1.698 .403 2.016 .403ZM3.116-4.438C2.823-4.536 2.578-4.621 2.383-4.695 2.26-4.133 2.12-3.582 1.961-3.044 1.802-2.507 1.6-1.92 1.356-1.284 1.6-1.235 1.845-1.15 2.09-1.027 2.529-2.274 2.871-3.411 3.116-4.438M4.069 .807C3.873 .758 3.617 .648 3.299 .477 3.128 .917 2.896 1.344 2.603 1.76 2.847 1.858 3.079 1.981 3.299 2.127 3.593 1.614 3.849 1.174 4.069 .807" fill="#2c292a"/>
<path transform="matrix(1,0,0,-1,133.9657,268.13243)" d="M0 0C-.049-.685-.073-1.272-.073-1.76V-7.152H1.136V-1.32C1.136-.93 1.112-.489 1.063 0H1.98C1.93-.391 1.906-.807 1.906-1.247V-7.152H3.336C3.727-7.152 4.203-7.128 4.766-7.079V-7.885C4.203-7.836 3.739-7.812 3.373-7.812H-2.2C-2.542-7.812-3.031-7.836-3.666-7.885V-7.079C-3.031-7.128-2.554-7.152-2.236-7.152H-.88V-1.724C-.88-1.21-.916-.636-.99 0ZM-1.43-5.171C-1.699-5.221-1.98-5.318-2.273-5.465-2.713-4.047-3.104-2.947-3.446-2.164-3.202-2.066-2.933-1.956-2.639-1.834-2.346-2.592-1.943-3.704-1.43-5.171M3.116-5.538C2.871-5.391 2.615-5.281 2.346-5.208 2.859-4.255 3.25-3.106 3.519-1.76 3.788-1.859 4.093-1.956 4.436-2.054 4.118-2.885 3.678-4.047 3.116-5.538" fill="#2c292a"/>
<path transform="matrix(1,0,0,-1,142.8269,268.8292)" d="M0 0H4.069C3.849-.367 3.562-.758 3.208-1.174 2.853-1.59 2.407-1.981 1.87-2.347 2.212-2.567 2.676-2.732 3.263-2.842 3.849-2.953 4.546-3.02 5.352-3.044 5.156-3.264 5.022-3.521 4.949-3.814 4.264-3.766 3.593-3.644 2.933-3.448 2.273-3.252 1.723-3.02 1.283-2.751 .501-3.118-.208-3.387-.843-3.558-1.479-3.729-2.102-3.864-2.713-3.961-2.811-3.668-2.957-3.411-3.153-3.191-2.615-3.191-2.004-3.118-1.32-2.971-.636-2.824 .037-2.617 .696-2.347 .183-1.859-.257-1.357-.623-.844-1.039-1.357-1.466-1.785-1.906-2.127-2.078-1.932-2.297-1.785-2.566-1.687-1.882-1.198-1.381-.728-1.063-.275-.746 .177-.513 .599-.367 .99-.049 .819 .244 .684 .513 .587 .317 .415 .147 .22 0 0M.44-4.255C.489-3.961 .513-3.619 .513-3.228 .807-3.277 1.1-3.314 1.393-3.338 1.32-3.484 1.246-3.79 1.173-4.255H4.142C4.118-4.548 4.093-4.884 4.069-5.263 4.044-5.642 4.002-6.052 3.941-6.492 3.88-6.932 3.703-7.189 3.409-7.262 3.116-7.335 2.651-7.409 2.016-7.482 1.967-7.164 1.845-6.895 1.65-6.675 2.358-6.675 2.786-6.651 2.933-6.602 3.079-6.553 3.177-6.418 3.226-6.198L3.336-4.805H1.1C.757-5.856 .275-6.541-.348-6.859-.971-7.176-1.638-7.457-2.346-7.702-2.419-7.482-2.591-7.225-2.859-6.932-2.273-6.883-1.662-6.699-1.026-6.382-.391-6.064 .061-5.538 .33-4.805H-.513C-1.246-4.805-1.784-4.829-2.126-4.878V-4.218C-1.76-4.243-1.21-4.255-.477-4.255ZM2.749-.55H0C.464-1.162 .904-1.626 1.32-1.944 1.808-1.65 2.285-1.186 2.749-.55" fill="#2c292a"/>
<path transform="matrix(1,0,0,-1,150.7532,274.9543)" d="M0 0C-.355-.343-.715-.672-1.081-.99-1.301-.77-1.509-.611-1.705-.513-1.021-.098-.385 .489 .202 1.247 .422 1.076 .678 .904 .971 .734 .678 .587 .354 .342 0 0M6.14 6.308C5.407 6.284 4.778 6.241 4.252 6.18 3.727 6.119 3.085 6.052 2.328 5.978 2.45 5.856 2.621 5.746 2.841 5.648 2.523 5.452 2.212 5.226 1.906 4.97 1.6 4.713 1.301 4.475 1.008 4.255H2.841C3.452 4.67 3.965 5.049 4.381 5.392 4.625 5.196 4.918 5.025 5.26 4.878 4.918 4.731 4.588 4.572 4.271 4.401 3.953 4.23 3.433 3.918 2.713 3.466 1.992 3.013 1.375 2.641 .861 2.347 2.303 2.421 3.648 2.481 4.894 2.531 4.771 2.653 4.454 2.909 3.941 3.301 4.185 3.398 4.393 3.521 4.564 3.668 4.857 3.448 5.193 3.173 5.572 2.842 5.951 2.512 6.311 2.188 6.654 1.871 6.36 1.699 6.128 1.54 5.957 1.394 5.761 1.638 5.578 1.834 5.407 1.981 4.747 1.956 3.965 1.919 3.061 1.871V-.33C3.061-.794 2.945-1.069 2.713-1.155 2.48-1.241 2.059-1.332 1.448-1.43 1.399-1.137 1.289-.855 1.118-.587 1.68-.587 2.028-.568 2.163-.532 2.297-.495 2.364-.355 2.364-.11V1.871C.873 1.846-.141 1.785-.678 1.687-.752 1.931-.837 2.188-.935 2.457-.398 2.506 .079 2.628 .495 2.824 .91 3.019 1.411 3.313 1.998 3.704 1.435 3.704 1.014 3.692 .733 3.668 .452 3.643 .14 3.606-.202 3.558-.275 3.826-.348 4.083-.422 4.328-.006 4.328 .409 4.493 .825 4.823 1.24 5.153 1.558 5.514 1.778 5.905 .409 5.856-.483 5.807-.898 5.758-.971 6.002-1.057 6.222-1.155 6.418 .214 6.418 1.435 6.467 2.511 6.565 3.586 6.663 4.588 6.834 5.517 7.079 5.664 6.834 5.871 6.577 6.14 6.308M5.554 .532C5.944 .25 6.274-.025 6.544-.293 6.348-.465 6.152-.66 5.957-.88 5.639-.538 5.309-.233 4.967 .037 4.625 .305 4.307 .538 4.014 .734 4.234 .904 4.405 1.088 4.527 1.284 4.821 1.064 5.163 .813 5.554 .532" fill="#2c292a"/>
<path transform="matrix(1,0,0,-1,160.0359,269.2693)" d="M0 0C-.196-.343-.489-.832-.88-1.467-.416-1.443-.049-1.43 .22-1.43 .415-1.088 .574-.746 .697-.403 .965-.575 1.246-.722 1.54-.844 1.368-1.015 1.136-1.327 .843-1.779 .55-2.232 .134-2.873-.403-3.704 .305-3.631 .928-3.546 1.466-3.448 1.344-3.741 1.283-3.974 1.283-4.145 1.063-4.169 .678-4.218 .128-4.291-.422-4.365-.904-4.463-1.32-4.585-1.393-4.34-1.479-4.096-1.576-3.851-1.308-3.778-1.051-3.558-.806-3.191-.562-2.824-.318-2.421-.073-1.981-.293-2.005-.55-2.036-.843-2.072-1.136-2.109-1.381-2.152-1.576-2.201-1.674-1.956-1.784-1.724-1.906-1.504-1.613-1.43-1.289-1.04-.935-.33-.581 .379-.379 .892-.33 1.21-.037 1.064 .257 .941 .55 .844 .379 .623 .195 .342 0 0M1.54-5.722C.977-5.868 .422-6.021-.128-6.18-.678-6.339-1.1-6.479-1.393-6.602-1.491-6.357-1.626-6.101-1.796-5.832-1.186-5.734-.611-5.624-.073-5.502 .464-5.38 1.002-5.221 1.54-5.025 1.515-5.27 1.515-5.502 1.54-5.722M5.352 .073C5.719 .073 6.109 .085 6.525 .11V-.55C6.134-.526 5.755-.513 5.389-.513H3.336C3.531-.66 3.763-.807 4.033-.954 3.837-1.1 3.635-1.315 3.428-1.595 3.22-1.877 2.92-2.262 2.529-2.751 3.091-2.751 3.971-2.69 5.169-2.567 5.071-2.445 4.876-2.213 4.582-1.871 4.802-1.749 4.998-1.614 5.169-1.467 5.584-1.907 6.036-2.47 6.525-3.154 6.281-3.301 6.073-3.46 5.902-3.631 5.755-3.436 5.633-3.264 5.535-3.118 5.193-3.142 4.973-3.167 4.876-3.191V-5.942C4.876-6.235 4.998-6.382 5.242-6.382H5.609C5.829-6.382 5.975-6.052 6.049-5.392 6.269-5.563 6.525-5.685 6.819-5.758 6.599-6.589 6.293-7.005 5.902-7.005H4.912C4.423-7.005 4.179-6.749 4.179-6.235V-3.264C3.837-3.289 3.605-3.314 3.483-3.338 3.507-4.243 3.391-4.982 3.134-5.557 2.878-6.131 2.383-6.699 1.65-7.262 1.527-7.066 1.307-6.907 .99-6.785 1.38-6.54 1.71-6.272 1.98-5.978 2.248-5.685 2.456-5.355 2.603-4.988 2.749-4.621 2.81-4.096 2.786-3.411 2.419-3.436 2.09-3.484 1.796-3.558 1.723-3.191 1.625-2.873 1.503-2.604 1.796-2.58 2.12-2.335 2.474-1.871 2.828-1.406 3.067-.954 3.189-.513H2.603C2.285-.513 1.894-.526 1.43-.55V.11C1.82 .085 2.2 .073 2.566 .073ZM4.399 .477C4.228 .403 3.996 .293 3.703 .147 3.507 .611 3.323 .966 3.153 1.21 3.446 1.308 3.666 1.406 3.813 1.504 4.081 1.064 4.276 .721 4.399 .477" fill="#2c292a"/>
<path transform="matrix(1,0,0,-1,183.6203,249.39249)" d="M0 0C-.159-.293-.3-.563-.422-.807H.385C.898-.807 1.35-.795 1.741-.77V-1.467C1.423-1.443 1.008-1.43 .495-1.43H-1.411V-3.264H.898C1.387-3.264 1.827-3.252 2.218-3.228V-3.924C1.827-3.9 1.411-3.888 .971-3.888H-1.265C-.531-5.135 .69-5.942 2.401-6.308 2.181-6.553 1.985-6.846 1.815-7.189 .275-6.675-.886-5.783-1.668-4.511-2.084-5.587-3.232-6.516-5.114-7.299-5.212-7.054-5.395-6.834-5.664-6.638-3.782-6.125-2.621-5.208-2.181-3.888H-4.124C-4.687-3.888-5.151-3.9-5.517-3.924V-3.264C-5.248-3.289-4.833-3.301-4.271-3.301H-2.108V-1.43H-3.831C-4.295-1.43-4.711-1.443-5.077-1.467V-.77C-4.711-.795-4.283-.807-3.794-.807H-1.155C-.813-.025-.568 .624-.422 1.137-.178 .99 .116 .844 .458 .697 .312 .526 .159 .293 0 0M-2.291-.293C-2.584-.44-2.817-.587-2.988-.734-3.281-.171-3.574 .293-3.867 .66-3.647 .807-3.452 .954-3.281 1.1-2.964 .709-2.634 .244-2.291-.293" fill="#2c292a"/>
<path transform="matrix(1,0,0,-1,187.2943,251.1529)" d="M0 0C-.147 .171-.306 .342-.477 .513-.257 .684-.013 .996 .257 1.449 .525 1.901 .757 2.408 .953 2.971 1.1 2.897 1.344 2.787 1.686 2.641 1.49 2.323 1.295 1.981 1.1 1.614 1.515 1.614 1.882 1.626 2.199 1.65V.99C1.833 1.014 1.356 1.027 .77 1.027 .574 .734 .317 .391 0 0M1.705-4.42C1.448-4.652 1.185-4.915 .917-5.208 .77-5.037 .599-4.853 .403-4.658 .599-4.462 .709-4.267 .733-4.071V-2.274C.562-2.274 .293-2.287-.073-2.311V-1.687C.269-1.712 .537-1.724 .733-1.724V-.55C.611-.55 .464-.563 .293-.587V.037C.611 .012 .917 0 1.21 0 1.527 0 1.882 .024 2.273 .073V-.55C1.857-.526 1.54-.513 1.32-.513V-1.687C1.613-1.687 1.894-1.675 2.163-1.65V-2.274C1.845-2.25 1.564-2.237 1.32-2.237V-3.888C1.662-3.619 1.906-3.387 2.053-3.191 2.126-3.338 2.273-3.534 2.493-3.778 2.224-3.974 1.961-4.187 1.705-4.42M8.175 .88V.22C7.93 .244 7.735 .257 7.588 .257 7.588-.428 7.6-.868 7.625-1.064H6.159V-1.76H6.892C7.087-1.76 7.307-1.748 7.552-1.724V-2.347C7.454-2.323 7.246-2.311 6.928-2.311H6.159V-3.081H7.148C7.344-3.057 7.564-3.044 7.808-3.044V-3.668C7.539-3.644 7.307-3.631 7.112-3.631H6.159V-4.731C6.867-4.78 7.576-4.755 8.285-4.658 8.162-4.878 8.089-5.122 8.065-5.391 7.209-5.416 6.507-5.397 5.957-5.336 5.407-5.275 4.955-5.196 4.601-5.098 4.246-5 3.873-4.768 3.483-4.401 3.263-4.817 2.945-5.208 2.529-5.575 2.334-5.379 2.15-5.208 1.98-5.061 2.395-4.817 2.749-4.462 3.043-3.998 2.725-3.509 2.505-2.897 2.383-2.164 2.603-2.115 2.81-2.066 3.006-2.017 3.055-2.482 3.153-2.91 3.299-3.301 3.446-2.592 3.531-1.871 3.556-1.137 3.14-1.137 2.81-1.198 2.566-1.32 2.468-1.1 2.383-.905 2.31-.734 2.529-.636 2.719-.373 2.878 .055 3.036 .483 3.177 .966 3.299 1.504 3.03 1.504 2.725 1.491 2.383 1.467V2.127C2.7 2.103 2.969 2.091 3.189 2.091H4.106C4.033 1.797 3.922 1.424 3.776 .972 3.629 .519 3.47 0 3.299-.587H4.216C4.167-1.076 4.118-1.59 4.069-2.127 4.02-2.665 3.898-3.252 3.703-3.888 4.045-4.181 4.35-4.371 4.619-4.456 4.888-4.542 5.193-4.621 5.535-4.695V-3.631C5.144-3.631 4.729-3.644 4.289-3.668V-3.044C4.778-3.069 5.193-3.081 5.535-3.081V-2.311C5.218-2.311 4.863-2.323 4.472-2.347V-1.724C4.863-1.748 5.218-1.76 5.535-1.76V-1.064C5.169-1.064 4.863-1.088 4.619-1.137V-.477C4.912-.501 5.218-.513 5.535-.513V.293H4.729C4.533 .293 4.35 .281 4.179 .257V.88C4.374 .856 4.558 .844 4.729 .844H5.535V1.577C5.266 1.577 4.949 1.565 4.582 1.54V2.164C4.9 2.139 5.23 2.127 5.572 2.127 5.572 2.518 5.56 2.799 5.535 2.971H6.195C6.171 2.775 6.159 2.494 6.159 2.127H7.662C7.612 1.883 7.588 1.454 7.588 .844 7.735 .844 7.93 .856 8.175 .88M6.965 1.577H6.1590006V.843H6.965ZM6.965 .293H6.1590006V-.51399996H6.965ZM6.965-.513" fill="#2c292a"/>
<path transform="matrix(1,0,0,-1,197.1819,252.8034)" d="M0 0C-.245 .269-.44 .452-.587 .55 .195 1.161 .806 1.748 1.246 2.311 1.368 2.188 1.54 2.041 1.76 1.871 1.148 1.308 .562 .684 0 0M3.611-1.797C3.55-2.066 3.391-2.342 3.134-2.622 2.878-2.904 2.505-3.166 2.016-3.411 1.527-3.655 .819-3.851-.11-3.998-.183-3.753-.33-3.521-.55-3.301 .159-3.276 .751-3.185 1.228-3.026 1.705-2.867 2.065-2.69 2.309-2.494 2.553-2.299 2.731-2.06 2.841-1.779 2.951-1.498 3.006-1.198 3.006-.88 3.299-.93 3.593-.966 3.886-.99 3.763-1.26 3.672-1.528 3.611-1.797M-.367 3.851C-.196 4.022-.049 4.193 .073 4.365 .293 4.218 .819 3.888 1.65 3.374 1.503 3.228 1.356 3.044 1.21 2.824 .819 3.118 .293 3.46-.367 3.851M6.452-.88C6.452-1.247 6.464-1.675 6.489-2.164H5.755V-.477H1.21V-2.384H.477C.501-1.822 .513-1.357 .513-.99 .513-.599 .501-.22 .477 .147H6.489C6.464-.171 6.452-.513 6.452-.88M4.876 2.219C5.022 2.011 5.224 1.815 5.48 1.632 5.737 1.449 6.054 1.296 6.434 1.174 6.812 1.051 7.234 .978 7.698 .954 7.502 .684 7.356 .428 7.258 .183 6.647 .305 6.104 .489 5.627 .734 5.151 .978 4.753 1.369 4.436 1.907 4.216 1.344 3.898 .954 3.483 .734 3.067 .513 2.615 .33 2.126 .183 1.93 .403 1.735 .599 1.54 .77 2.566 .966 3.238 1.259 3.556 1.65 3.873 2.041 4.044 2.518 4.069 3.081L4.912 2.971C4.741 2.677 4.729 2.426 4.876 2.219M2.456 2.347C2.285 2.518 2.102 2.665 1.906 2.787 2.2 2.983 2.474 3.246 2.731 3.576 2.988 3.906 3.189 4.254 3.336 4.621 3.556 4.523 3.825 4.45 4.142 4.401 4.02 4.181 3.873 3.985 3.702 3.814H7.148C7.075 3.668 6.855 3.191 6.489 2.384 6.195 2.457 5.951 2.506 5.755 2.531 5.877 2.799 5.987 3.032 6.085 3.228H3.299C3.006 2.836 2.725 2.543 2.456 2.347M5.682-2.494C6.122-2.665 6.647-2.885 7.258-3.154 7.112-3.35 6.977-3.594 6.855-3.888 6.391-3.618 5.932-3.386 5.48-3.191 5.028-2.995 4.546-2.812 4.032-2.641 4.154-2.445 4.252-2.225 4.326-1.981 4.79-2.152 5.242-2.323 5.682-2.494" fill="#2c292a"/>
<path transform="matrix(1,0,0,-1,206.9228,254.96732)" d="M0 0C-.22-.685-.379-1.186-.477-1.504-.696-1.332-.978-1.174-1.32-1.027-1.173-.832-.978-.434-.733 .165-.489 .764-.281 1.454-.11 2.237 .134 2.041 .367 1.883 .587 1.76 .415 1.271 .22 .684 0 0M-.44 3.448-1.246 3.888C-1.149 4.059-1.039 4.255-.916 4.475-.696 4.352-.434 4.212-.128 4.053 .177 3.893 .452 3.741 .697 3.594L.257 2.934C.061 3.13-.171 3.301-.44 3.448M-.88 6.162C-.733 6.332-.574 6.504-.403 6.675 .257 6.162 .697 5.782 .917 5.538 .745 5.367 .574 5.183 .403 4.988-.037 5.477-.465 5.868-.88 6.162M.843-.055C1.014 .324 1.142 .77 1.228 1.284 1.313 1.797 1.362 2.329 1.375 2.879 1.387 3.429 1.393 4.022 1.393 4.658 1.393 5.318 1.38 5.917 1.356 6.455H5.535C6.097 6.455 6.635 6.467 7.148 6.492V5.795C6.635 5.819 6.097 5.832 5.535 5.832H2.09V3.374C2.09 2.787 2.071 2.256 2.035 1.779 1.998 1.302 1.912 .837 1.778 .385 1.643-.068 1.49-.458 1.32-.789 1.148-1.119 .941-1.442 .697-1.76 .574-1.516 .367-1.296 .073-1.1 .415-.783 .672-.434 .843-.055M2.273-.238C2.493 .067 2.713 .428 2.933 .844 3.103 .672 3.348 .513 3.666 .367 3.421 .147 3.201-.116 3.006-.422 2.81-.728 2.566-1.064 2.273-1.43 2.053-1.259 1.845-1.112 1.65-.99 1.845-.795 2.053-.544 2.273-.238M4.509 4.731H6.599C6.574 4.365 6.562 3.998 6.562 3.631V2.714C6.562 2.445 6.574 2.066 6.599 1.577H5.022V-.88C5.022-1.174 4.931-1.399 4.747-1.559 4.564-1.717 4.277-1.821 3.886-1.871 3.813-1.601 3.703-1.332 3.556-1.064 4.069-1.137 4.326-1.014 4.326-.697V1.577H2.786C2.81 1.968 2.823 2.335 2.823 2.677V3.668C2.823 3.985 2.81 4.34 2.786 4.731H3.776C3.873 4.951 3.971 5.257 4.069 5.648 4.313 5.575 4.582 5.514 4.876 5.465 4.753 5.269 4.631 5.025 4.509 4.731M5.865 4.145H3.5189999V3.411H5.865ZM5.865 2.824H3.5189999V2.1639999H5.865ZM7.368-.697C7.148-.868 6.953-1.039 6.782-1.21 6.586-.941 6.403-.691 6.232-.458 6.061-.226 5.829 .049 5.535 .367 5.706 .489 5.89 .636 6.085 .807 6.769 .049 7.197-.453 7.368-.697" fill="#2c292a"/>
</g>
<path transform="matrix(1,0,0,-1,218.9457,249.13571)" d="M0 0-3.886-6.932-4.252-6.712-.367 .22Z" fill="#2c292a"/>
<g clip-path="url(#clip_5)">
<path transform="matrix(1,0,0,-1,223.3577,250.89621)" d="M0 0C-.807-.049-1.479-.098-2.016-.147-2.554-.196-2.957-.257-3.226-.33-3.299-.037-3.385 .22-3.483 .44-3.312 .513-3.049 .776-2.695 1.229-2.34 1.681-2.053 2.164-1.833 2.677-1.711 2.579-1.576 2.506-1.43 2.457-1.283 2.408-1.124 2.347-.953 2.274-1.149 2.127-1.351 1.907-1.558 1.614-1.766 1.32-2.102 .904-2.566 .367-1.54 .415-.783 .452-.293 .477-.587 .868-.794 1.124-.916 1.247-.746 1.344-.55 1.479-.33 1.65-.135 1.381 .055 1.137 .238 .917 .422 .697 .66 .415 .953 .073 .684-.123 .464-.281 .293-.403 .22-.281 .122-.147 0 0M-.44-5.006C-.391-4.92-.367-4.793-.367-4.621V-4.108H-2.346V-5.832H-3.043C-3.019-5.342-3.006-4.903-3.006-4.511V-2.054C-3.006-1.614-3.019-1.223-3.043-.88H.33C.305-1.247 .293-1.65 .293-2.091V-5.171C.269-5.44 .159-5.612-.037-5.685-.233-5.758-.513-5.819-.88-5.868-.929-5.648-1.026-5.404-1.173-5.135-.733-5.135-.489-5.092-.44-5.006M-.367-1.467H-2.3470002V-2.164H-.367ZM-.367-2.751H-2.3470002V-3.521H-.367ZM1.87 1.1C2.211 1.247 2.541 1.399 2.859 1.559 3.177 1.718 3.495 1.919 3.813 2.164 4.008 1.919 4.179 1.711 4.326 1.54 4.179 1.491 3.868 1.351 3.391 1.119 2.914 .886 2.407 .684 1.87 .513V-.037C1.87-.33 2.04-.477 2.383-.477H3.446C3.69-.477 3.849-.159 3.922 .477 4.167 .354 4.411 .244 4.656 .147 4.484-.636 4.179-1.027 3.739-1.027H2.089C1.503-1.027 1.21-.758 1.21-.22V1.65C1.21 1.944 1.197 2.261 1.173 2.604H1.906C1.882 2.433 1.87 2.078 1.87 1.54ZM3.501-2.897C3.024-3.118 2.48-3.326 1.87-3.521V-4.548C1.87-4.841 2.004-4.988 2.273-4.988H3.592C3.788-4.939 3.922-4.634 3.996-4.071 4.191-4.169 4.436-4.267 4.729-4.365 4.558-5.147 4.276-5.538 3.886-5.538H1.906C1.442-5.538 1.21-5.306 1.21-4.841V-2.457C1.21-2.091 1.197-1.76 1.173-1.467H1.906C1.882-1.76 1.87-2.079 1.87-2.421V-2.897C2.114-2.824 2.438-2.69 2.841-2.494 3.244-2.299 3.568-2.091 3.813-1.871 4.032-2.164 4.216-2.384 4.362-2.531 4.264-2.555 3.977-2.677 3.501-2.897" fill="#2c292a"/>
<path transform="matrix(1,0,0,-1,233.3552,251.0062)" d="M0 0C-.073-.856-.183-1.54-.33-2.054-.477-2.567-.678-3.038-.935-3.466-1.191-3.894-1.528-4.297-1.943-4.676-2.359-5.055-2.859-5.428-3.446-5.795-3.569-5.599-3.813-5.391-4.179-5.171-3.593-4.878-3.104-4.573-2.713-4.255-2.322-3.937-1.986-3.576-1.705-3.173-1.424-2.769-1.216-2.311-1.081-1.797-.947-1.284-.856-.685-.807 0H-1.87C-2.579 0-3.226-.013-3.813-.037V.697C-3.226 .672-2.579 .66-1.87 .66H-.77V1.76C-.77 2.103-.783 2.457-.807 2.824-.538 2.775-.233 2.738 .11 2.714 .061 2.494 .03 2.176 .018 1.76 .006 1.344 0 .978 0 .66H3.739C3.641-.66 3.58-1.571 3.556-2.072 3.531-2.574 3.483-3.185 3.409-3.906 3.336-4.628 3.134-5.073 2.804-5.245 2.474-5.416 1.906-5.538 1.1-5.612 1.075-5.318 .953-5 .733-4.658 1.442-4.683 1.918-4.646 2.163-4.548 2.407-4.45 2.548-4.267 2.584-3.998 2.621-3.729 2.658-3.381 2.694-2.952 2.731-2.525 2.786-1.54 2.859 0Z" fill="#2c292a"/>
<path transform="matrix(1,0,0,-1,196.7241,290.5556)" d="M0 0V-1.21C.489-1.21 .88-1.198 1.173-1.174V-1.87C.733-1.821 .171-1.797-.513-1.797H-6.342C-6.806-1.797-7.21-1.821-7.552-1.87V-1.174C-7.234-1.198-6.831-1.21-6.342-1.21V-.037C-6.342 .232-6.355 .562-6.379 .954H.037C.012 .684 0 .367 0 0M-3.373 3.044C-3.177 3.338-3.031 3.631-2.933 3.924H-4.729C-4.852 3.484-5.077 3.056-5.407 2.641-5.737 2.225-6.171 1.821-6.709 1.43-6.88 1.65-7.088 1.834-7.332 1.981-6.941 2.176-6.617 2.378-6.36 2.586-6.104 2.793-5.89 3.044-5.719 3.338-5.548 3.631-5.413 3.961-5.315 4.328-5.218 4.695-5.157 5.098-5.132 5.538H-5.572C-5.988 5.538-6.428 5.526-6.892 5.502V6.198C-6.428 6.149-5.988 6.125-5.572 6.125H-.587C-.636 5.88-.684 5.624-.733 5.355-.782 5.086-.819 4.805-.843 4.511H.587C.537 4.267 .489 4.034 .44 3.814L.183 2.164C.134 1.821 .012 1.614-.183 1.54-.379 1.467-.672 1.381-1.063 1.284-1.136 1.552-1.234 1.809-1.356 2.054-1.014 2.054-.788 2.066-.678 2.091-.568 2.115-.489 2.249-.44 2.494L-.183 3.924H-1.576C-1.503 4.487-1.43 5.025-1.356 5.538H-4.436C-4.485 5.122-4.534 4.78-4.582 4.511H-2.016C-2.139 4.169-2.254 3.869-2.365 3.613-2.474 3.356-2.627 3.068-2.823 2.751-2.701 2.677-2.505 2.573-2.236 2.439-1.967 2.304-1.736 2.164-1.54 2.017-1.76 1.846-1.943 1.662-2.089 1.467-2.432 1.809-2.823 2.078-3.263 2.274-3.434 2.103-3.648 1.926-3.904 1.742-4.161 1.559-4.448 1.381-4.766 1.21-4.864 1.43-5.059 1.601-5.352 1.724-5.01 1.821-4.717 1.937-4.472 2.072-4.228 2.206-4.008 2.371-3.813 2.567-4.106 2.714-4.424 2.836-4.766 2.934-4.668 3.105-4.558 3.276-4.436 3.448-4.045 3.301-3.69 3.166-3.373 3.044M-4.436 .367H-5.646V-1.21H-4.436ZM-2.566 .367H-3.7389999V-1.21H-2.566ZM-.696 .367H-1.869V-1.21H-.696ZM-.696-1.21" fill="#2c292a"/>
<path transform="matrix(1,0,0,-1,203.3491,289.4919)" d="M0 0C-.171-.147-.354-.33-.55-.55-.892-.037-1.246 .415-1.613 .807V-1.907C-1.613-2.494-1.601-2.934-1.576-3.228H-2.383C-2.359-2.909-2.346-2.469-2.346-1.907V.66C-2.615 .147-2.872-.281-3.116-.624-3.361-.966-3.678-1.37-4.069-1.834-4.216-1.59-4.424-1.382-4.692-1.21-4.155-.77-3.672-.214-3.244 .458-2.817 1.131-2.542 1.675-2.419 2.091H-3.116C-3.702 2.091-4.13 2.078-4.399 2.054V2.751C-4.106 2.726-3.678 2.714-3.116 2.714H-2.346V4.144C-2.835 4.046-3.361 3.948-3.922 3.851-3.996 4.095-4.094 4.328-4.216 4.548-3.8 4.572-3.226 4.658-2.493 4.805-1.76 4.951-1.063 5.135-.403 5.355-.281 5.061-.123 4.805 .073 4.585-.416 4.511-.978 4.413-1.613 4.291V2.714H-.99C-.477 2.714-.025 2.726 .367 2.751V2.054C-.025 2.078-.465 2.091-.953 2.091H-1.613V1.65C-1.076 1.161-.538 .611 0 0M1.613 2.604V.293C1.613-.22 1.625-.66 1.65-1.027H.843C.867-.587 .88-.147 .88 .293V2.604C.88 2.995 .867 3.386 .843 3.778H1.65C1.625 3.484 1.613 3.093 1.613 2.604M3.299 4.034V-2.384C3.299-2.677 3.183-2.867 2.951-2.953 2.719-3.038 2.31-3.13 1.723-3.228 1.65-2.861 1.564-2.567 1.466-2.347 1.98-2.371 2.291-2.359 2.401-2.311 2.511-2.261 2.566-2.164 2.566-2.017V4.071C2.566 4.413 2.554 4.817 2.529 5.281H3.336C3.311 5.037 3.299 4.621 3.299 4.034" fill="#2c292a"/>
<path transform="matrix(1,0,0,-1,210.0107,288.0249)" d="M0 0V-3.264C0-3.851 .012-4.266 .037-4.511H-.733C-.709-4.242-.696-3.851-.696-3.338V-.44C-.77-.66-.886-.911-1.045-1.192-1.204-1.473-1.381-1.797-1.576-2.164-1.723-1.944-1.919-1.76-2.163-1.614-1.772-1.223-1.454-.734-1.21-.147-.966 .44-.806 .929-.733 1.32H-1.063C-1.308 1.32-1.576 1.308-1.87 1.284V1.907C-1.601 1.883-1.393 1.871-1.246 1.871H-.696V2.677C-.696 3.093-.709 3.484-.733 3.851H.037C.012 3.533 0 3.178 0 2.787V1.871C.391 1.871 .733 1.883 1.026 1.907V1.284C.709 1.308 .367 1.32 0 1.32V.073C.171 .171 .33 .269 .477 .367 .623 .122 .764-.098 .898-.293 1.032-.489 1.161-.685 1.283-.88 1.063-1.027 .88-1.162 .733-1.284 .587-.966 .342-.538 0 0M5.865 .293C5.865-.367 5.878-.856 5.902-1.174H3.959C3.935-1.443 3.91-1.7 3.886-1.944H5.206C5.719-1.944 6.109-1.932 6.379-1.907V-2.494C6.085-2.47 5.694-2.457 5.206-2.457H4.436C4.802-2.922 5.163-3.271 5.517-3.503 5.871-3.735 6.244-3.9 6.635-3.998 6.415-4.169 6.244-4.376 6.122-4.621 5.56-4.401 5.077-4.083 4.674-3.668 4.271-3.252 3.996-2.885 3.849-2.567H3.739C3.519-3.057 3.183-3.466 2.731-3.796 2.279-4.126 1.76-4.401 1.173-4.621 1.051-4.376 .88-4.169 .66-3.998 1.295-3.875 1.82-3.68 2.236-3.411 2.652-3.142 2.933-2.824 3.079-2.457H2.42C1.906-2.457 1.454-2.47 1.063-2.494V-1.907C1.454-1.932 1.918-1.944 2.456-1.944H3.226C3.275-1.675 3.299-1.418 3.299-1.174H1.576C1.6-.832 1.613-.355 1.613 .257 1.613 .892 1.6 1.369 1.576 1.687H5.902C5.878 1.418 5.865 .954 5.865 .293M2.493 2.604H2.2C1.735 2.604 1.368 2.591 1.1 2.567V3.154C1.368 3.13 1.723 3.118 2.163 3.118H2.493C2.493 3.46 2.48 3.741 2.456 3.961H3.153C3.128 3.741 3.116 3.46 3.116 3.118H4.216C4.216 3.435 4.203 3.704 4.179 3.924H4.912C4.888 3.655 4.876 3.386 4.876 3.118H5.426C5.694 3.118 5.975 3.13 6.269 3.154V2.567C5.975 2.591 5.694 2.604 5.426 2.604H4.876V1.944H4.216V2.604H3.116V1.981H2.493ZM5.279 1.174H2.2359999V.514H5.279ZM5.279 0H2.2359999V-.66H5.279ZM5.279-.66" fill="#2c292a"/>
<path transform="matrix(1,0,0,-1,221.7313,286.0077)" d="M0 0C-.049 .856-.086 1.504-.11 1.944 .037 1.919 .354 1.895 .843 1.871 .794 1.699 .782 1.076 .806 0H2.273C2.737 0 3.213 .012 3.702 .037V-.697C3.263-.673 2.798-.66 2.309-.66H.843C.916-1.296 1.02-1.889 1.155-2.439 1.289-2.989 1.466-3.509 1.686-3.998 1.906-4.487 2.193-4.921 2.548-5.3 2.902-5.679 3.116-5.697 3.189-5.355 3.263-5.013 3.287-4.671 3.263-4.328 3.483-4.499 3.788-4.658 4.179-4.805 4.008-5.856 3.758-6.418 3.428-6.492 3.098-6.565 2.768-6.485 2.438-6.253 2.108-6.021 1.796-5.685 1.503-5.245 1.21-4.805 .971-4.322 .788-3.796 .605-3.271 .452-2.727 .33-2.164 .207-1.602 .122-1.1 .073-.66H-2.603C-3.312-.66-3.886-.673-4.326-.697V.037C-3.862 .012-3.299 0-2.639 0ZM-1.54-1.944C-1.076-1.944-.636-1.932-.22-1.907V-2.604C-.66-2.58-1.124-2.567-1.613-2.567V-4.878C-1.1-4.756-.513-4.609 .147-4.438V-5.098C-.733-5.27-1.43-5.435-1.943-5.593-2.456-5.752-3.079-5.978-3.813-6.272L-4.179-5.392C-3.886-5.367-3.275-5.257-2.346-5.061V-2.567C-3.055-2.567-3.544-2.58-3.813-2.604V-1.907C-3.544-1.932-3.165-1.944-2.676-1.944ZM3.043 .587C2.92 .538 2.688 .391 2.346 .147 2.175 .44 1.87 .807 1.43 1.247 1.552 1.344 1.76 1.504 2.053 1.724 2.517 1.21 2.847 .831 3.043 .587" fill="#2c292a"/>
</g>
<path transform="matrix(1,0,0,-1,182.1544,270.4346)" d="M0 0V-1.591-3.183L-3.181-1.591ZM49.482-3.183V-1.591 0L52.664-1.591ZM-.795-1.061H50.278005V-2.122H-.795Z" fill="#2c292a"/>
<path transform="matrix(1,0,0,-1,207.3705,267.263)" d="M0 0H-1.591-3.181L-1.591 3.183ZM-3.181-9.713H-1.591 0L-1.591-12.896ZM-1.06-10.509H-2.12V.7960005H-1.06Z" fill="#2c292a"/>
<g clip-path="url(#clip_6)">
<path transform="matrix(1,0,0,-1,209.0779,267.7867)" d="M0 0C0-.01-.002-.019-.007-.026-.011-.034-.018-.039-.029-.044-.039-.048-.053-.052-.071-.054-.088-.057-.109-.058-.134-.058-.16-.058-.182-.057-.199-.054-.217-.052-.231-.048-.242-.044-.253-.039-.262-.034-.267-.026-.272-.019-.274-.01-.274 0V.222C-.362 .126-.454 .052-.549-.002-.644-.055-.748-.082-.861-.082-.984-.082-1.089-.058-1.176-.01-1.263 .038-1.334 .102-1.388 .184-1.442 .265-1.481 .361-1.506 .471-1.531 .581-1.543 .697-1.543 .819-1.543 .963-1.528 1.093-1.497 1.209-1.466 1.326-1.42 1.425-1.359 1.507-1.298 1.589-1.222 1.652-1.132 1.696-1.042 1.74-.938 1.762-.82 1.762-.722 1.762-.632 1.741-.551 1.698-.469 1.655-.389 1.592-.309 1.509V2.484C-.309 2.493-.307 2.501-.303 2.509-.299 2.517-.29 2.524-.278 2.528-.265 2.532-.25 2.536-.23 2.539-.211 2.542-.186 2.544-.157 2.544-.125 2.544-.1 2.542-.08 2.539-.06 2.536-.045 2.532-.034 2.528-.022 2.524-.014 2.517-.008 2.509-.003 2.501 0 2.493 0 2.484ZM-.309 1.18C-.393 1.284-.473 1.362-.551 1.416-.628 1.47-.71 1.498-.794 1.498-.872 1.498-.939 1.479-.994 1.442-1.048 1.404-1.093 1.355-1.127 1.294-1.161 1.233-1.186 1.164-1.201 1.087-1.217 1.01-1.225 .932-1.225 .852-1.225 .768-1.218 .685-1.205 .604-1.192 .523-1.169 .452-1.137 .389-1.105 .326-1.062 .276-1.008 .238-.955 .2-.888 .181-.807 .181-.766 .181-.727 .186-.689 .198-.651 .209-.612 .228-.572 .254-.533 .28-.491 .314-.447 .355-.404 .397-.358 .448-.309 .509Z" fill="#ffffff"/>
<path transform="matrix(1,0,0,-1,242.1125,268.7192)" d="M0 0C.269 0 .599 .012 .99 .037V-.66C.599-.636 .183-.623-.257-.623V-2.641C.085-2.641 .452-2.629 .843-2.604V-3.301C.452-3.277 .085-3.264-.257-3.264V-5.501C.159-5.404 .587-5.281 1.026-5.135 1.002-5.404 .99-5.636 .99-5.832 .183-6.028-.465-6.211-.953-6.382-1.442-6.553-1.809-6.7-2.053-6.822-2.126-6.48-2.224-6.186-2.346-5.942-1.956-5.893-1.479-5.807-.916-5.685V-3.264C-1.308-3.264-1.686-3.277-2.053-3.301V-2.604C-1.686-2.629-1.308-2.641-.916-2.641V-.623C-1.356-.623-1.748-.636-2.089-.66V.037C-1.796 .012-1.516 0-1.246 0ZM3.904-2.421C3.868-3.007 3.788-3.631 3.666-4.291H4.399C4.374-4.536 4.363-4.866 4.363-5.281V-6.455C4.363-6.822 4.43-7.017 4.564-7.042 4.698-7.066 4.851-7.072 5.022-7.06 5.193-7.048 5.316-6.962 5.389-6.804 5.462-6.645 5.511-6.358 5.536-5.942 5.78-6.088 6.049-6.186 6.342-6.235 6.22-6.749 6.098-7.097 5.975-7.28 5.853-7.464 5.596-7.579 5.206-7.629H4.472C3.935-7.629 3.666-7.396 3.666-6.932V-4.365C3.446-5.147 3.128-5.801 2.713-6.327 2.297-6.852 1.674-7.335 .843-7.775 .721-7.579 .513-7.409 .22-7.262 1.002-6.944 1.576-6.596 1.943-6.217 2.31-5.838 2.603-5.355 2.823-4.768 3.043-4.181 3.171-3.57 3.208-2.934 3.244-2.299 3.25-1.663 3.226-1.027 3.543-1.076 3.837-1.113 4.106-1.137 4.008-1.406 3.941-1.834 3.904-2.421M5.682-.807V-3.264C5.682-3.729 5.694-4.132 5.719-4.475H5.022V-.22H2.236V-4.511H1.54C1.564-4.096 1.576-3.631 1.576-3.117V-1.1C1.576-.563 1.564-.073 1.54 .367H5.719C5.694-.025 5.682-.416 5.682-.807" fill="#2c292a"/>
<path transform="matrix(1,0,0,-1,252.4034,275.1743)" d="M0 0C-.171-.098-.343-.233-.513-.403H.623V1.724H-.623C-.966 1.724-1.442 1.711-2.053 1.687V2.384C-1.442 2.359-.978 2.347-.66 2.347H.623V3.484C-.183 3.484-.819 3.472-1.283 3.448V4.034C-1.674 3.741-2.151 3.435-2.713 3.118-2.859 3.338-3.043 3.545-3.263 3.741-2.799 3.912-2.322 4.169-1.833 4.511-1.344 4.853-.868 5.275-.403 5.777 .061 6.277 .44 6.809 .733 7.372 .782 7.323 1.039 7.189 1.503 6.969L1.283 6.749C1.552 6.455 1.882 6.125 2.273 5.758 2.664 5.391 3.128 5.067 3.666 4.786 4.203 4.505 4.766 4.279 5.352 4.108 5.156 3.912 4.998 3.68 4.876 3.411 4.386 3.582 3.886 3.802 3.373 4.071V3.448C2.883 3.472 2.493 3.484 2.2 3.484H1.32V2.347H2.603C3.018 2.347 3.531 2.359 4.142 2.384V1.687C3.556 1.711 3.043 1.724 2.603 1.724H1.32V-.403H2.016C2.578 .574 2.883 1.234 2.933 1.577 3.153 1.43 3.421 1.284 3.739 1.137 3.568 .917 3.238 .403 2.75-.403 3.507-.403 4.24-.391 4.949-.367V-1.064C4.24-1.039 3.666-1.027 3.226-1.027H-1.136C-1.65-1.027-2.151-1.039-2.639-1.064V-.367C-2.126-.391-1.626-.403-1.136-.403H-.696C-.868-.013-1.173 .477-1.613 1.064-1.393 1.21-1.198 1.357-1.026 1.504-.636 .966-.293 .464 0 0M-.147 4.108H2.053C2.42 4.132 2.81 4.144 3.226 4.144 2.81 4.438 2.389 4.786 1.961 5.19 1.533 5.593 1.185 5.966 .916 6.308 .647 5.942 .324 5.568-.055 5.19-.434 4.81-.806 4.462-1.173 4.144-.806 4.12-.465 4.108-.147 4.108" fill="#2c292a"/>
<path transform="matrix(1,0,0,-1,260.6048,271.5067)" d="M0 0C-.196-.196-.367-.416-.513-.66-.953-.245-1.466 .11-2.053 .403-1.906 .599-1.76 .819-1.613 1.064-1.051 .721-.513 .367 0 0M-.55-3.173C-.843-3.796-1.088-4.279-1.283-4.621-1.503-4.45-1.76-4.303-2.053-4.181-1.809-3.888-1.528-3.46-1.21-2.897-.892-2.335-.623-1.749-.403-1.137-.208-1.308 .012-1.467 .257-1.614 .012-2.03-.257-2.549-.55-3.173M.257 2.311C.085 2.091-.086 1.883-.257 1.687-.648 2.078-1.1 2.421-1.613 2.714-1.442 2.934-1.296 3.129-1.173 3.301-.611 2.958-.135 2.628 .257 2.311M1.925-2.219C1.888-2.72 1.778-3.203 1.595-3.668 1.411-4.132 .99-4.585 .33-5.025 .159-4.805-.025-4.621-.22-4.475 .269-4.255 .629-3.955 .861-3.576 1.093-3.197 1.222-2.769 1.246-2.292 1.27-1.815 1.27-1.394 1.246-1.027 1.49-1.076 1.76-1.1 2.053-1.1 2.004-1.345 1.961-1.718 1.925-2.219M3.666 2.531H4.839C5.23 2.531 5.669 2.543 6.159 2.567V1.907C5.572 1.931 5.132 1.944 4.839 1.944H2.493C2.688 1.797 2.859 1.687 3.006 1.614 2.883 1.516 2.725 1.344 2.529 1.1 2.333 .856 2.04 .513 1.65 .073 2.529 .097 3.47 .134 4.472 .183 4.228 .477 3.983 .734 3.739 .954 3.983 1.124 4.154 1.271 4.252 1.394 4.936 .684 5.511 .049 5.975-.513 5.755-.685 5.559-.844 5.389-.99 5.193-.722 5.022-.489 4.876-.293 4.338-.343 3.611-.398 2.694-.458 1.778-.52 1.16-.599 .843-.697 .77-.477 .66-.269 .513-.073 .757 0 1.051 .244 1.393 .66 1.735 1.076 2.016 1.504 2.236 1.944H1.833C1.393 1.944 .941 1.919 .476 1.871V2.567C.941 2.543 1.393 2.531 1.833 2.531H2.859C2.663 2.873 2.493 3.142 2.346 3.338 2.59 3.46 2.786 3.582 2.933 3.704 3.177 3.338 3.421 2.946 3.666 2.531M3.299-1.944V-3.558C3.299-3.876 3.311-4.266 3.336-4.731H2.566C2.59-4.291 2.603-3.9 2.603-3.558V-1.944C2.603-1.528 2.59-1.223 2.566-1.027H3.336C3.311-1.174 3.299-1.48 3.299-1.944M4.802-1.981V-3.778C4.802-3.998 4.912-4.108 5.132-4.108H5.499C5.694-4.108 5.804-3.827 5.829-3.264 6.024-3.411 6.269-3.521 6.562-3.594 6.415-4.205 6.262-4.548 6.104-4.621 5.944-4.695 5.755-4.731 5.535-4.731H4.839C4.374-4.731 4.142-4.499 4.142-4.034V-1.907C4.142-1.614 4.13-1.32 4.106-1.027H4.839C4.814-1.345 4.802-1.663 4.802-1.981" fill="#2c292a"/>
<path transform="matrix(1,0,0,-1,269.5759,269.3427)" d="M0 0C-.22-.391-.489-.88-.806-1.467-.269-1.443 .122-1.43 .367-1.43 .587-1.04 .77-.66 .916-.293 1.16-.465 1.43-.624 1.723-.77 1.6-.868 1.387-1.137 1.082-1.577 .776-2.017 .293-2.739-.367-3.741 .44-3.619 1.075-3.521 1.54-3.448 1.466-3.717 1.43-3.949 1.43-4.144 1.21-4.169 .819-4.218 .257-4.291-.306-4.365-.856-4.475-1.393-4.621-1.491-4.377-1.576-4.133-1.65-3.888-1.356-3.814-1.063-3.589-.77-3.209-.477-2.831-.22-2.433 0-2.017-.171-2.017-.422-2.036-.751-2.072-1.081-2.109-1.369-2.164-1.613-2.237-1.686-1.993-1.76-1.76-1.833-1.54-1.564-1.32-1.277-.942-.971-.403-.666 .134-.428 .721-.257 1.357 .037 1.21 .33 1.076 .623 .954 .427 .709 .22 .391 0 0M1.54-5.905C1.075-5.978 .55-6.064-.037-6.162-.623-6.259-1.124-6.369-1.54-6.492-1.638-6.174-1.735-5.893-1.833-5.648-1.32-5.624-.856-5.581-.44-5.52-.025-5.459 .66-5.355 1.613-5.208 1.54-5.428 1.515-5.661 1.54-5.905M3.813-.037C3.813 .379 3.8 .868 3.776 1.43H4.546C4.521 .99 4.509 .501 4.509-.037H5.572C6.036-.037 6.464-.025 6.855 0V-.66C6.464-.636 6.049-.624 5.609-.624H4.509V-1.834H5.352C5.694-1.834 6.036-1.822 6.379-1.797V-2.457C6.085-2.433 5.731-2.421 5.315-2.421H3.189C2.773-2.421 2.407-2.433 2.09-2.457V-1.797C2.407-1.822 2.749-1.834 3.116-1.834H3.813V-.624H3.006C2.566-.624 2.15-.636 1.76-.66V0C2.077-.025 2.468-.037 2.933-.037ZM6.195-4.401V-5.648C6.195-6.113 6.207-6.516 6.232-6.859H5.499V-6.162H3.006V-6.932H2.273C2.297-6.296 2.31-5.881 2.31-5.685V-4.328C2.31-4.034 2.297-3.704 2.273-3.338H6.232C6.207-3.656 6.195-4.01 6.195-4.401M5.499-3.924H3.006V-5.574H5.499ZM5.499-5.575" fill="#2c292a"/>
<path transform="matrix(1,0,0,-1,279.4268,271.8734)" d="M0 0V-2.787C0-3.301 .012-3.826 .037-4.365H-.733C-.709-3.802-.697-3.277-.697-2.787V-.147C-.966-.758-1.369-1.43-1.906-2.164-2.053-1.969-2.224-1.773-2.42-1.577-1.98-1.088-1.619-.544-1.338 .055-1.057 .654-.893 1.137-.843 1.504-1.234 1.504-1.613 1.491-1.98 1.467V2.127C-1.613 2.103-1.186 2.091-.697 2.091V2.934C-.697 3.301-.709 3.631-.733 3.924H.037C.012 3.68 0 3.35 0 2.934V2.091C.317 2.091 .66 2.103 1.026 2.127V1.467C.66 1.491 .317 1.504 0 1.504V.073C.195 .171 .391 .281 .587 .403 .831-.037 1.063-.465 1.283-.88 1.063-.978 .843-1.1 .623-1.247 .427-.783 .22-.367 0 0M2.841 3.154C2.731 2.909 2.627 2.665 2.529 2.421H6.159C6.134 2.054 6.109 1.601 6.085 1.064 6.085-.428 6.036-1.822 5.939-3.118 5.841-3.655 5.639-3.991 5.334-4.126 5.028-4.26 4.558-4.352 3.922-4.401 3.873-4.132 3.776-3.851 3.629-3.558 4.142-3.582 4.533-3.57 4.802-3.521 5.071-3.472 5.23-3.154 5.279-2.567 5.376-1.198 5.413 .257 5.389 1.797H2.273C2.053 1.308 1.808 .844 1.54 .403 1.344 .55 1.136 .66 .916 .734 1.283 1.271 1.588 1.846 1.833 2.457 2.077 3.068 2.248 3.606 2.346 4.071 2.639 3.924 2.92 3.826 3.189 3.778 3.067 3.606 2.951 3.398 2.841 3.154M2.694-2.237C2.193-2.311 1.772-2.421 1.43-2.567 1.332-2.274 1.222-1.993 1.1-1.724 1.246-1.675 1.417-1.492 1.613-1.174 1.808-.856 1.967-.532 2.089-.202 2.211 .128 2.333 .525 2.456 .99 2.749 .868 3.03 .734 3.299 .587 3.153 .44 2.938 .092 2.658-.458 2.376-1.009 2.15-1.406 1.979-1.65 2.517-1.626 3.103-1.59 3.739-1.54 3.641-1.198 3.519-.832 3.373-.44L4.106-.22C4.252-.636 4.386-1.027 4.509-1.394 4.631-1.76 4.716-2.115 4.766-2.457 4.496-2.507 4.24-2.58 3.996-2.677 3.946-2.457 3.898-2.262 3.849-2.091 3.58-2.115 3.195-2.164 2.694-2.237" fill="#2c292a"/>
<path transform="matrix(1,0,0,-1,312.8268,268.20143)" d="M0 0C.806-1.247 2.126-2.127 3.959-2.641 3.715-2.812 3.531-3.081 3.409-3.448 1.503-2.641 .232-1.65-.403-.477-1.234-1.7-2.505-2.763-4.216-3.668-4.387-3.35-4.57-3.106-4.766-2.934-3.519-2.445-2.56-1.84-1.888-1.119-1.216-.398-.806 .183-.66 .624-.513 .525-.232 .403 .183 .257ZM-2.933-7.482C-3.079-7.482-3.446-7.494-4.032-7.519V-6.822C-3.373-6.847-3.055-6.859-3.079-6.859H-2.676V-4.511C-2.676-4.218-2.701-3.839-2.749-3.374H-1.87C-1.919-3.839-1.943-4.218-1.943-4.511V-6.859H-.513V-3.301C-.513-3.007-.526-2.629-.55-2.164H.257C.232-2.604 .22-3.216 .22-3.998H1.356C1.747-3.998 2.175-3.986 2.639-3.961V-4.658C2.2-4.634 1.784-4.621 1.393-4.621H.22V-6.859H2.493C2.566-6.859 2.823-6.847 3.263-6.822V-7.519C2.823-7.494 2.554-7.482 2.456-7.482Z" fill="#2c292a"/>
<path transform="matrix(1,0,0,-1,321.248,267.8713)" d="M0 0C-.049-.685-.073-1.272-.073-1.76V-7.152H1.136V-1.32C1.136-.93 1.112-.489 1.063 0H1.98C1.93-.391 1.906-.807 1.906-1.247V-7.152H3.336C3.727-7.152 4.203-7.128 4.766-7.079V-7.886C4.203-7.836 3.739-7.812 3.373-7.812H-2.2C-2.542-7.812-3.031-7.836-3.666-7.886V-7.079C-3.031-7.128-2.554-7.152-2.236-7.152H-.88V-1.724C-.88-1.21-.916-.636-.99 0ZM-1.43-5.171C-1.699-5.221-1.98-5.318-2.273-5.465-2.713-4.047-3.104-2.947-3.446-2.164-3.202-2.066-2.933-1.956-2.639-1.834-2.346-2.592-1.943-3.704-1.43-5.171M3.116-5.538C2.871-5.391 2.615-5.281 2.346-5.208 2.859-4.255 3.25-3.106 3.519-1.76 3.788-1.859 4.093-1.956 4.436-2.054 4.118-2.885 3.678-4.047 3.116-5.538" fill="#2c292a"/>
<path transform="matrix(1,0,0,-1,328.8628,269.7051)" d="M0 0V-4.878C0-5.538 .012-6.076 .037-6.492H-.696C-.696-6.076-.684-5.538-.66-4.878V-1.174C-.953-1.712-1.222-2.14-1.466-2.457-1.589-2.287-1.796-2.115-2.09-1.944-1.576-1.382-1.136-.722-.77 .037-.403 .794-.159 1.467-.037 2.054 .281 1.907 .562 1.809 .807 1.76 .66 1.516 .391 .929 0 0M3.703 1.357C4.363 .207 5.328-.648 6.599-1.21 6.379-1.406 6.195-1.626 6.049-1.871 5.022-1.284 4.13-.403 3.373 .77 2.737-.379 1.906-1.333 .88-2.091 .757-1.92 .587-1.736 .367-1.54 1.27-.954 1.93-.306 2.346 .403 2.761 1.112 3.006 1.65 3.079 2.017 3.47 1.821 3.751 1.699 3.923 1.65ZM2.456-3.943C2.383-4.909 1.894-5.77 .99-6.528 .843-6.308 .647-6.125 .403-5.978 1.307-5.343 1.79-4.579 1.851-3.686 1.912-2.794 1.93-2.091 1.906-1.577 2.224-1.626 2.48-1.65 2.676-1.65 2.603-2.213 2.529-2.977 2.456-3.943M4.986-3.008V-5.318C4.986-5.685 4.998-6.076 5.022-6.492H4.252C4.277-6.076 4.289-5.672 4.289-5.281V-2.787C4.289-2.519 4.277-2.115 4.252-1.577H5.022C4.998-2.115 4.986-2.592 4.986-3.008" fill="#2c292a"/>
<path transform="matrix(1,0,0,-1,338.2005,269.7418)" d="M0 0V-4.841C0-5.355 .012-5.844 .037-6.308H-.733C-.709-5.892-.696-5.441-.696-4.951V-1.174C-.99-1.663-1.259-2.054-1.503-2.347-1.699-2.079-1.882-1.871-2.053-1.724-1.809-1.48-1.473-1.009-1.045-.312-.617 .385-.281 1.174-.037 2.054 .305 1.883 .599 1.76 .843 1.687 .647 1.467 .367 .904 0 0M2.969 1.027V1.981C3.263 1.956 3.593 1.931 3.959 1.907 3.837 1.736 3.763 1.442 3.739 1.027H5.096C5.511 1.027 5.877 1.039 6.195 1.064V.403C5.853 .428 5.486 .44 5.096 .44H3.703L3.629-.367H5.499C5.474-.66 5.462-1.052 5.462-1.54V-5.281C5.951-5.281 6.305-5.269 6.525-5.245V-5.905C6.207-5.88 5.767-5.868 5.206-5.868H1.76C1.197-5.868 .733-5.88 .367-5.905V-5.245C.587-5.269 .929-5.281 1.393-5.281V-1.54C1.393-1.076 1.381-.685 1.356-.367H2.859L2.933 .44H2.273C1.662 .44 1.185 .428 .843 .403V1.064C1.161 1.039 1.637 1.027 2.273 1.027ZM4.802-.88H2.089V-1.6140001H4.802ZM4.802-2.164H2.089V-2.8240002H4.802ZM4.802-3.374H2.089V-4.034H4.802ZM4.802-4.585H2.089V-5.282H4.802ZM4.802-5.281" fill="#2c292a"/>
</g>
<path transform="matrix(1,0,0,-1,299.2007,273.9003)" d="M0 0V1.591 3.183L3.181 1.591ZM-11.468 2.122H.7949991V1.061H-11.468Z" fill="#2c292a"/>
<path transform="matrix(1,0,0,-1,122.4754,273.6174)" d="M0 0V1.591 3.183L3.181 1.591ZM-6.155 2.122H.7949996V1.061H-6.155Z" fill="#2c292a"/>
<path transform="matrix(1,0,0,-1,158.9998,260.3458)" d="M0 0-.832 1.356-1.665 2.712-3.543-.309ZM8.15 8.742 8.983 7.386 9.815 6.03 11.693 9.052ZM-1.233 .488 9.938 7.351 9.383 8.255-1.788 1.392Z" fill="#2c292a"/>
<path transform="matrix(1,0,0,-1,158.9998,282.8812)" d="M0 0-.832-1.356-1.665-2.712-3.543 .309ZM8.15-8.742 8.983-7.386 9.815-6.03 11.693-9.052ZM-1.233-.488 9.938-7.351 9.383-8.255-1.788-1.392Z" fill="#2c292a"/>
<path transform="matrix(1,0,0,-1,0,595.276)" d="M184.53 371.339H226.999V358.44898H184.53Z" fill="#ffffff"/>
<g clip-path="url(#clip_7)">
<path transform="matrix(1,0,0,-1,187.9867,232.60752)" d="M0 0V2.934C-.44 2.934-.868 2.922-1.283 2.897V3.594C-.819 3.57-.367 3.558 .073 3.558H.697C.672 3.093 .66 2.726 .66 2.457V.147C1.173-.489 2.145-.813 3.574-.825 5.004-.838 6.109-.783 6.892-.66 6.721-.978 6.611-1.271 6.562-1.54H4.179C3.543-1.54 3.012-1.509 2.584-1.449 2.157-1.387 1.796-1.302 1.503-1.192 1.21-1.082 .941-.923 .697-.715 .452-.508 .165-.55-.165-.844-.495-1.137-.746-1.381-.916-1.577-1.088-1.381-1.283-1.149-1.503-.88-.746-.391-.245-.098 0 0M.183 4.658C-.11 5.147-.477 5.612-.916 6.052L-.403 6.492C.232 5.807 .623 5.342 .77 5.098ZM2.823 .385C2.358 .324 2.04 .244 1.87 .147L1.503 .917C1.747 1.014 2.004 1.284 2.273 1.724 2.542 2.164 2.749 2.726 2.896 3.411 2.065 3.411 1.43 3.398 .99 3.374V4.071C1.454 4.047 2.395 4.034 3.813 4.034 5.23 4.034 6.146 4.047 6.562 4.071V3.374C6.146 3.398 5.193 3.411 3.703 3.411 3.629 3.142 3.488 2.787 3.281 2.347 3.073 1.907 2.823 1.454 2.529 .99 3.433 1.064 4.301 1.137 5.132 1.21 4.961 1.528 4.716 1.883 4.399 2.274 4.594 2.371 4.778 2.506 4.949 2.677 5.413 2.091 5.914 1.357 6.452 .477 6.232 .354 6.012 .22 5.792 .073 5.67 .293 5.548 .501 5.426 .697 4.155 .55 3.287 .446 2.823 .385M5.939 5.391C5.474 5.416 4.778 5.428 3.849 5.428 2.945 5.428 2.236 5.416 1.723 5.391V6.088C2.163 6.064 2.859 6.052 3.813 6.052 4.766 6.052 5.474 6.064 5.939 6.088Z" fill="#2c292a"/>
<path transform="matrix(1,0,0,-1,198.2226,228.9765)" d="M0 0C-.11-.196-.263-.44-.458-.734V-4.034C-.458-4.353-.446-4.841-.422-5.502H-1.191C-1.167-4.768-1.155-4.218-1.155-3.851V-1.504C-1.375-1.871-1.668-2.237-2.035-2.604-2.206-2.36-2.364-2.152-2.511-1.981-1.949-1.443-1.509-.93-1.191-.44-.874 .049-.593 .513-.348 .954-.104 .807 .177 .648 .495 .477 .275 .354 .11 .195 0 0M-.605 1.926C-.923 1.424-1.363 .868-1.925 .257-2.071 .452-2.23 .636-2.401 .807-2.011 1.198-1.656 1.62-1.338 2.072-1.021 2.524-.788 2.922-.642 3.264-.398 3.118-.128 2.934 .165 2.714-.031 2.689-.288 2.426-.605 1.926M4.894 .037C5.358 .037 5.786 .049 6.177 .073V-.66C5.786-.636 5.371-.624 4.931-.624H4.417V-4.621C4.441-4.915 4.35-5.116 4.142-5.226 3.935-5.336 3.525-5.428 2.914-5.502 2.865-5.208 2.731-4.915 2.511-4.621 2.926-4.67 3.22-4.688 3.391-4.676 3.562-4.664 3.66-4.535 3.684-4.291V-.624H2.218C1.753-.624 1.313-.636 .898-.66V.073C1.338 .049 1.778 .037 2.218 .037ZM4.271 2.531C4.686 2.531 5.114 2.543 5.554 2.567V1.871C5.114 1.895 4.661 1.907 4.197 1.907H2.841C2.303 1.907 1.839 1.895 1.448 1.871V2.567C1.839 2.543 2.303 2.531 2.841 2.531Z" fill="#2c292a"/>
<path transform="matrix(1,0,0,-1,208.715,230.737)" d="M0 0C-.171-.147-.379-.306-.623-.477-.77-.159-1.026 .269-1.393 .807V-1.871C-1.393-2.36-1.381-2.91-1.356-3.521H-2.163C-2.139-2.91-2.126-2.36-2.126-1.871V.477C-2.249 .11-2.383-.238-2.529-.568-2.676-.899-2.884-1.272-3.153-1.687-3.373-1.443-3.568-1.247-3.739-1.1-3.544-.88-3.287-.453-2.969 .183-2.652 .819-2.407 1.528-2.236 2.311H-2.456C-2.799 2.311-3.141 2.286-3.483 2.237V2.934C-3.141 2.91-2.811 2.897-2.493 2.897H-2.126V3.631C-2.126 4.022-2.139 4.389-2.163 4.731H-1.32C-1.369 4.487-1.393 4.12-1.393 3.631V2.897H-.99C-.721 2.897-.416 2.91-.073 2.934V2.274C-.611 2.298-1.051 2.311-1.393 2.311V.844C-1.246 .966-1.076 1.1-.88 1.247-.489 .709-.196 .293 0 0M3.409 2.494V-2.274C3.409-2.592 3.483-2.763 3.629-2.787 3.776-2.812 3.898-2.818 3.996-2.806 4.093-2.793 4.161-2.708 4.197-2.549 4.234-2.39 4.252-2.152 4.252-1.834 4.472-1.956 4.729-2.054 5.022-2.127 4.924-2.641 4.827-2.983 4.729-3.154 4.631-3.325 4.472-3.411 4.252-3.411H3.483C3.189-3.411 2.975-3.343 2.841-3.209 2.706-3.075 2.652-2.799 2.676-2.384V3.631H1.283C1.283 2.237 1.265 1.155 1.228 .385 1.191-.385 1.081-1.082 .898-1.705 .715-2.329 .354-2.958-.183-3.594-.306-3.448-.526-3.252-.843-3.008-.501-2.739-.226-2.409-.018-2.017 .189-1.626 .33-1.223 .403-.807 .477-.391 .525 .049 .55 .513 .574 .978 .587 1.565 .587 2.274 .587 3.008 .574 3.668 .55 4.255H3.446C3.421 3.57 3.409 2.983 3.409 2.494" fill="#2c292a"/>
<path transform="matrix(1,0,0,-1,215.5966,227.39942)" d="M0 0H1.063C1.063 .611 1.051 1.088 1.026 1.43H1.87C1.845 1.112 1.833 .636 1.833 0H2.383C2.871 0 3.311 .012 3.703 .037V-.624C3.36-.599 2.933-.587 2.419-.587H1.833V-1.65H2.749C3.116-1.65 3.507-1.638 3.923-1.614V-2.237H1.833V-3.228H3.813C3.788-3.521 3.77-3.924 3.758-4.438 3.745-4.951 3.733-5.3 3.721-5.483 3.708-5.667 3.605-5.801 3.409-5.887 3.213-5.973 2.933-6.052 2.566-6.125 2.517-5.856 2.432-5.575 2.31-5.281 2.627-5.281 2.823-5.263 2.896-5.226 2.969-5.19 3.006-5.001 3.006-4.658V-3.814H1.833V-5.832C1.833-6.247 1.845-6.602 1.87-6.895H1.026C1.051-6.43 1.063-6.076 1.063-5.832V-3.814H-.073V-6.125H-.843C-.819-5.808-.806-5.477-.806-5.135V-4.328C-.806-3.864-.819-3.497-.843-3.228H1.063V-2.237H-.11C-.55-2.237-.929-2.25-1.246-2.274V-1.614C-.929-1.638-.55-1.65-.11-1.65H1.063V-.587H-.22C-.342-.88-.465-1.125-.587-1.32-.806-1.174-1.026-1.052-1.246-.954-1.076-.709-.929-.428-.806-.11-.684 .207-.575 .562-.476 .954-.232 .856 .049 .77 .367 .697 .22 .452 .097 .22 0 0M5.242-.66V-3.704C5.242-4.047 5.254-4.463 5.279-4.951H4.472C4.521-4.536 4.546-4.12 4.546-3.704V-.66C4.546-.416 4.521-.11 4.472 .257H5.279C5.254-.086 5.242-.391 5.242-.66M7.002 .293V-6.052C7.002-6.394 6.874-6.608 6.617-6.694 6.36-6.779 5.987-6.859 5.499-6.932 5.426-6.614 5.328-6.332 5.206-6.088 5.621-6.088 5.902-6.076 6.049-6.052 6.195-6.028 6.269-5.868 6.269-5.575V.293C6.269 .709 6.256 1.064 6.232 1.357H7.039C7.014 1.112 7.002 .758 7.002 .293" fill="#2c292a"/>
</g>
<path transform="matrix(1,0,0,-1,257.6325,260.3458)" d="M0 0 .832 1.356 1.665 2.712 3.543-.309ZM-8.15 8.742-8.983 7.386-9.815 6.03-11.693 9.052ZM1.233 .488-9.938 7.351-9.383 8.255 1.788 1.392Z" fill="#2c292a"/>
<path transform="matrix(1,0,0,-1,257.6325,282.8812)" d="M0 0 .832-1.356 1.665-2.712 3.543 .309ZM-8.15-8.742-8.983-7.386-9.815-6.03-11.693-9.052ZM1.233-.488-9.938-7.351-9.383-8.255 1.788-1.392Z" fill="#2c292a"/>
</g>
</g>
</svg>
