<svg xmlns="http://www.w3.org/2000/svg" xmlns:xlink="http://www.w3.org/1999/xlink" xmlns:inkscape="http://www.inkscape.org/namespaces/inkscape" version="1.1" width="411.024" height="595.276" viewBox="0 0 411.024 595.276">
<defs>
<clipPath id="clip_1">
<path transform="matrix(1,0,0,-1,0,595.276)" d="M0 0H411.024V595.276H0Z"/>
</clipPath>
<clipPath id="clip_2">
<path transform="matrix(1,0,0,-1,0,595.276)" d="M0 0H411.024V595.276H0Z"/>
</clipPath>
<path id="font_3_2" d="M.45599366 .19004822V.5218506C.45599366 .6397705 .37199403 .71777346 .26098634 .71777346 .1499939 .71777346 .06599426 .6397705 .06599426 .5218506V.19004822C.06599426 .072128299 .1499939-.005859375 .26098634-.005859375 .37199403-.005859375 .45599366 .072128299 .45599366 .19004822M.38398744 .19404602C.38398744 .116104129 .33999635 .058135988 .26098634 .058135988 .18199158 .058135988 .13798523 .116104129 .13798523 .19404602V.5178528C.13798523 .5957947 .18199158 .6537628 .26098634 .6537628 .33999635 .6537628 .38398744 .5957947 .38398744 .5178528V.19404602Z"/>
<path id="font_3_9" d="M.47099305 .64790347V.71191409H.07598877V.5359192H.14698792V.64790347H.394989L.147995 0H.22399903L.47099305 .64790347Z"/>
<path id="font_3_11" d="M.45700074 .51272585C.45700074 .63575747 .37998963 .71777346 .25898744 .71777346 .13798523 .71777346 .06199646 .62776187 .06199646 .5067291 .06199646 .3896942 .1349945 .3046875 .24598694 .3046875 .27398683 .3046875 .2999878 .30967713 .32199098 .3196869L.1619873 0H.23699951L.4119873 .3526764C.44198609 .4126892 .45700074 .4617157 .45700074 .51272585M.3849945 .50971987C.3849945 .4216919 .33499146 .36567689 .25898744 .36567689 .1769867 .36567689 .13398743 .43069459 .13398743 .50971987 .13398743 .596756 .18299866 .6537628 .25898744 .6537628 .33499146 .6537628 .3849945 .596756 .3849945 .50971987Z"/>
<clipPath id="clip_4">
<path transform="matrix(1,0,0,-1,0,595.276)" d="M0 0H411.024V595.276H0Z"/>
</clipPath>
<clipPath id="clip_5">
<path transform="matrix(1,0,0,-1,0,595.276)" d="M0 0H411.024V595.276H0Z"/>
</clipPath>
<clipPath id="clip_6">
<path transform="matrix(1,0,0,-1,0,595.276)" d="M0 0H411.024V595.276H0Z"/>
</clipPath>
<clipPath id="clip_7">
<path transform="matrix(1,0,0,-1,0,595.276)" d="M0 0H411.024V595.276H0Z"/>
</clipPath>
<clipPath id="clip_8">
<path transform="matrix(1,0,0,-1,0,595.276)" d="M0 0H411.024V595.276H0Z"/>
</clipPath>
<clipPath id="clip_9">
<path transform="matrix(1,0,0,-1,0,595.276)" d="M0 0H411.024V595.276H0Z"/>
</clipPath>
<clipPath id="clip_10">
<path transform="matrix(1,0,0,-1,0,595.276)" d="M0 0H411.024V595.276H0Z"/>
</clipPath>
<clipPath id="clip_11">
<path transform="matrix(1,0,0,-1,0,595.276)" d="M0 0H411.024V595.276H0Z"/>
</clipPath>
<clipPath id="clip_12">
<path transform="matrix(1,0,0,-1,0,595.276)" d="M0 0H411.024V595.276H0Z"/>
</clipPath>
<clipPath id="clip_13">
<path transform="matrix(1,0,0,-1,0,595.276)" d="M0 0H411.024V595.276H0Z"/>
</clipPath>
<clipPath id="clip_14">
<path transform="matrix(1,0,0,-1,0,595.276)" d="M0 0H411.024V595.276H0Z"/>
</clipPath>
<clipPath id="clip_15">
<path transform="matrix(1,0,0,-1,0,595.276)" d="M0 0H411.024V595.276H0Z"/>
</clipPath>
</defs>
<g clip-path="url(#clip_1)">
<g clip-path="url(#clip_2)">
<use data-text="0" xlink:href="#font_3_2" transform="matrix(9,0,0,-9,363.685,567.547)" fill="#f43040"/>
<use data-text="7" xlink:href="#font_3_9" transform="matrix(9,0,0,-9,367.285,567.547)" fill="#f43040"/>
<use data-text="9" xlink:href="#font_3_11" transform="matrix(9,0,0,-9,370.885,567.547)" fill="#f43040"/>
<path transform="matrix(1,0,0,-1,0,595.276)" d="M0 0H411.024V595.275H0Z" fill="#f43040"/>
<g clip-path="url(#clip_4)">
<path transform="matrix(1,0,0,-1,75.8069,256.1191)" d="M0 0C-.593-1.055-1.319-2.373-2.174-3.955-.726-3.89 .329-3.856 .988-3.856 1.581-2.802 2.075-1.78 2.47-.791 3.128-1.253 3.854-1.681 4.644-2.076 4.314-2.34 3.738-3.065 2.915-4.251 2.091-5.438 .791-7.382-.988-10.084 1.186-9.755 2.898-9.491 4.15-9.293 3.953-10.019 3.854-10.645 3.854-11.172 3.261-11.238 2.206-11.369 .692-11.567-.824-11.765-2.307-12.061-3.755-12.457-4.019-11.799-4.249-11.139-4.447-10.48-3.656-10.282-2.866-9.673-2.075-8.651-1.285-7.63-.593-6.559 0-5.438-.462-5.438-1.136-5.487-2.026-5.586-2.915-5.685-3.69-5.833-4.348-6.031-4.546-5.373-4.743-4.746-4.941-4.152-4.217-3.559-3.443-2.538-2.619-1.088-1.796 .361-1.153 1.943-.692 3.658 .099 3.263 .889 2.9 1.68 2.57 1.152 1.911 .593 1.054 0 0M4.15-15.917C2.898-16.115 1.482-16.347-.099-16.609-1.68-16.872-3.031-17.168-4.15-17.499-4.414-16.642-4.678-15.885-4.941-15.225-3.557-15.16-2.307-15.044-1.186-14.879-.066-14.715 1.779-14.434 4.348-14.039 4.15-14.632 4.084-15.259 4.15-15.917M10.277-.099C10.277 1.021 10.243 2.339 10.178 3.856H12.253C12.187 2.669 12.154 1.35 12.154-.099H15.02C16.271-.099 17.424-.066 18.479 0V-1.78C17.424-1.715 16.305-1.681 15.119-1.681H12.154V-4.943H14.427C15.349-4.943 16.271-4.911 17.194-4.844V-6.624C16.404-6.559 15.448-6.525 14.328-6.525H8.597C7.476-6.525 6.488-6.559 5.633-6.624V-4.844C6.488-4.911 7.411-4.943 8.399-4.943H10.277V-1.681H8.103C6.917-1.681 5.796-1.715 4.743-1.78V0C5.599-.066 6.653-.099 7.905-.099ZM16.7-11.864V-15.225C16.7-16.478 16.732-17.564 16.799-18.488H14.822V-16.609H8.103V-18.685H6.127C6.191-16.971 6.225-15.852 6.225-15.324V-11.666C6.225-10.875 6.191-9.985 6.127-8.997H16.799C16.732-9.854 16.7-10.81 16.7-11.864M14.822-10.579H8.103V-15.028H14.822ZM14.822-15.027" fill="#ffffff"/>
<path transform="matrix(1,0,0,-1,107.0327,274.8045)" d="M0 0C.065 1.186 .099 2.635 .099 4.35V8.404H-.296C-.758 7.546-1.285 6.755-1.878 6.031-2.47 5.305-3.147 4.662-3.903 4.103-4.661 3.542-5.484 2.998-6.374 2.472-7.263 1.945-8.169 1.483-9.091 1.088-9.355 1.814-9.718 2.504-10.178 3.164-9.388 3.361-8.631 3.641-7.905 4.004-7.181 4.366-6.457 4.761-5.731 5.19-5.007 5.618-4.382 6.096-3.854 6.624-3.327 7.151-2.833 7.744-2.372 8.404H-6.324C-7.312 8.404-8.532 8.337-9.98 8.206V10.183C-8.663 10.05-7.445 9.985-6.324 9.985H.099V11.765H-7.214C-7.149 13.347-7.115 15.092-7.115 17.005-7.115 18.916-7.149 20.53-7.214 21.849H9.289C9.222 20.53 9.19 18.916 9.19 17.005 9.19 15.092 9.222 13.347 9.289 11.765H1.976V9.985H8.202C9.519 9.985 10.672 10.018 11.66 10.084V8.206C10.539 8.337 9.452 8.404 8.399 8.404H4.546C5.401 7.019 6.455 5.964 7.708 5.24 8.958 4.514 10.441 3.955 12.154 3.559 11.693 2.966 11.33 2.24 11.068 1.384 8.827 2.24 7.048 3.196 5.731 4.251 4.413 5.305 3.425 6.689 2.767 8.404H1.976V4.251C1.976 2.801 2.009 1.384 2.075 0ZM.099 20.366H-5.138V17.4H.099ZM.099 15.917H-5.138V13.248H.099ZM7.312 20.366H1.9759998V17.4H7.312ZM7.312 15.917H1.9759998V13.248H7.312ZM7.312 13.248" fill="#ffffff"/>
</g>
<path transform="matrix(1,0,0,-1,0,595.276)" d="M132.342 334.016H121.076999V335.598H132.342ZM132.342 327.985H121.076999V329.567H132.342Z" fill="#ffffff"/>
<g clip-path="url(#clip_5)">
<path transform="matrix(1,0,0,-1,140.9866,260.568)" d="M0 0C-.296-.528-.709-1.186-1.235-1.977V-10.875C-1.235-11.732-1.203-13.05-1.136-14.83H-3.211C-3.147-12.852-3.113-11.369-3.113-10.381V-4.053C-3.706-5.042-4.496-6.031-5.484-7.019-5.946-6.361-6.374-5.801-6.769-5.339-5.254-3.89-4.068-2.506-3.211-1.186-2.356 .131-1.598 1.384-.939 2.57-.281 2.175 .477 1.746 1.334 1.285 .741 .955 .296 .527 0 0M-1.63 5.19C-2.487 3.839-3.673 2.339-5.188 .692-5.583 1.219-6.012 1.713-6.472 2.175-5.419 3.229-4.464 4.366-3.607 5.586-2.751 6.805-2.125 7.875-1.729 8.799-1.072 8.404-.346 7.909 .445 7.316-.083 7.25-.775 6.541-1.63 5.19M13.192 .099C14.443 .099 15.596 .131 16.651 .198V-1.78C15.596-1.715 14.477-1.681 13.291-1.681H11.907V-12.457C11.972-13.248 11.725-13.792 11.166-14.088 10.606-14.385 9.502-14.632 7.856-14.83 7.723-14.039 7.362-13.248 6.769-12.457 7.888-12.588 8.679-12.638 9.141-12.605 9.601-12.571 9.865-12.225 9.931-11.567V-1.681H5.978C4.726-1.681 3.54-1.715 2.421-1.78V.198C3.607 .131 4.793 .099 5.978 .099ZM11.512 6.822C12.632 6.822 13.785 6.854 14.971 6.921V5.042C13.785 5.107 12.565 5.141 11.314 5.141H7.658C6.208 5.141 4.956 5.107 3.903 5.042V6.921C4.956 6.854 6.208 6.822 7.658 6.822Z" fill="#ffffff"/>
<path transform="matrix(1,0,0,-1,171.9161,255.03162)" d="M0 0C-.099-1.122-.247-2.604-.445-4.449H9.733C9.601-5.57 9.502-6.525 9.437-7.316L8.35-17.202C8.152-18.389 7.525-19.146 6.472-19.476 5.418-19.805 4.101-20.003 2.52-20.07 2.322-19.146 1.992-18.355 1.532-17.697 3.508-17.828 4.792-17.796 5.385-17.598 5.978-17.4 6.34-16.807 6.472-15.818L7.461-6.13H-.642C-1.235-9.162-2.339-11.799-3.953-14.039-5.568-16.28-7.593-18.29-10.03-20.07-10.689-19.212-11.282-18.619-11.809-18.29-9.701-17.236-7.806-15.67-6.127-13.594-4.447-11.518-3.31-9.031-2.718-6.13H-5.978C-7.099-6.13-8.548-6.164-10.326-6.228V-4.35C-8.548-4.417-7.329-4.449-6.67-4.449H-2.421C-2.159-2.209-2.026 .263-2.026 2.966-.973 2.768-.116 2.635 .543 2.57 .279 1.977 .099 1.12 0 0M-7.461 1.681C-5.617-.099-4.365-1.384-3.706-2.175-4.234-2.637-4.793-3.131-5.386-3.658-6.111-2.604-7.297-1.285-8.943 .297-8.35 .757-7.856 1.219-7.461 1.681M5.385-12.358C4.99-12.754 4.528-13.413 4.002-14.335 2.552-13.018 1.038-11.864-.544-10.875-.083-10.151 .247-9.557 .445-9.096 2.091-10.151 3.738-11.238 5.385-12.358" fill="#ffffff"/>
</g>
<path transform="matrix(1,0,0,-1,195.9698,263.4351)" d="M0 0-.988-1.78-5.04 .791-4.842-4.251H-6.818L-6.621 .791-10.672-1.78-11.66 0-7.411 2.175-11.66 4.35-10.672 6.13-6.621 3.559-6.818 8.305H-4.842L-5.04 3.559-.988 6.13 0 4.35-4.249 2.175Z" fill="#ffffff"/>
<g clip-path="url(#clip_6)">
<path transform="matrix(1,0,0,-1,200.4144,255.22931)" d="M0 0C0 .856-.034 1.681-.099 2.472H1.878C1.745 1.614 1.68 .626 1.68-.494V-2.472C2.206-2.472 2.866-2.439 3.656-2.373V-4.053C2.799-3.989 2.14-3.955 1.68-3.955V-7.019C2.009-6.822 2.372-6.591 2.767-6.327 3.293-7.58 3.787-8.833 4.249-10.084 3.656-10.217 3.162-10.447 2.767-10.776 2.503-9.854 2.14-8.865 1.68-7.81V-16.313C1.68-17.434 1.712-18.587 1.779-19.773H-.099C-.034-18.389 0-17.236 0-16.313V-9.491C-.462-11.008-1.055-12.424-1.779-13.742-2.043-13.215-2.537-12.689-3.261-12.16-2.405-10.909-1.763-9.689-1.334-8.502-.906-7.316-.528-5.801-.198-3.955-1.383-3.955-2.174-3.989-2.569-4.053V-2.373C-2.043-2.439-1.186-2.472 0-2.472ZM7.51-11.666C7.97-11.337 8.464-11.008 8.992-10.677 9.388-11.337 9.734-11.947 10.03-12.506 10.326-13.067 10.705-13.742 11.166-14.533 10.771-14.864 10.243-15.259 9.585-15.719 9.452-15.324 9.255-14.864 8.992-14.335 8.464-14.797 7.807-15.309 7.016-15.868 6.226-16.429 5.534-17.039 4.941-17.697 4.479-17.039 4.052-16.51 3.656-16.115 4.117-15.655 4.38-14.963 4.447-14.039V-1.681C4.447-.561 4.413 .361 4.348 1.088H10.178C10.112 .099 10.079-1.517 10.079-3.757 10.079-5.932 10.112-7.613 10.178-8.799H6.127V-14.533C6.587-14.271 7.312-13.742 8.301-12.951 8.037-12.424 7.773-11.997 7.51-11.666M8.399-.395H6.1260006V-3.064H8.399ZM8.399-4.548H6.1260006V-7.316H8.399ZM7.708-18.784C8.893-18.125 10.079-16.856 11.265-14.978 12.451-13.1 13.306-10.843 13.834-8.206H11.067C11.132-7.217 11.166-6.262 11.166-5.339 11.166-4.416 11.132-3.527 11.067-2.669H12.945C12.812-3.198 12.747-3.856 12.747-4.647V-6.723H14.23C14.427-4.681 14.526-2.472 14.526-.099H13.538C12.615-.099 11.792-.133 11.067-.198V1.483C11.858 1.417 12.681 1.384 13.538 1.384H16.404C17.654 1.384 18.578 1.417 19.17 1.483V-.198C18.642-.133 17.654-.099 16.206-.099 16.206-1.945 16.107-4.152 15.909-6.723H17.293C17.886-6.723 18.61-6.69 19.467-6.624V-8.305C18.61-8.24 17.951-8.206 17.491-8.206H15.613C14.756-11.567 13.884-14.056 12.995-15.67 12.105-17.286 10.836-18.817 9.19-20.267 8.859-19.739 8.365-19.245 7.708-18.784M16.898-16.609C16.898-17.335 17.078-17.729 17.441-17.796 17.802-17.861 18.083-17.878 18.281-17.845 18.479-17.811 18.627-17.647 18.726-17.351 18.824-17.054 18.874-16.478 18.874-15.621 19.467-15.951 20.092-16.181 20.752-16.313 20.487-17.697 20.224-18.553 19.961-18.883 19.697-19.212 19.17-19.378 18.38-19.378H17.194C15.744-19.311 15.085-18.619 15.218-17.301V-10.677H16.996C16.93-12.457 16.898-14.434 16.898-16.609" fill="#ffffff"/>
<path transform="matrix(1,0,0,-1,235.7908,254.8338)" d="M0 0H4.941C6.127 0 7.444 .032 8.893 .099V-1.582C7.444-1.451 6.093-1.384 4.842-1.384H-2.964C-2.504-1.715-1.845-2.076-.988-2.472-1.581-2.867-2.142-3.346-2.668-3.905-3.196-4.466-3.723-5.01-4.249-5.536H-1.087C-.296-4.746 .361-3.89 .889-2.966 1.482-3.428 2.14-3.89 2.866-4.35 2.009-4.812 1.119-5.536 .198-6.525-.726-7.514-2.01-8.668-3.656-9.985L1.186-9.59C.856-9.194 .526-8.767 .198-8.305 .593-8.173 1.119-7.877 1.779-7.415 2.437-8.206 3.36-9.459 4.545-11.172 3.953-11.369 3.326-11.7 2.668-12.16 2.535-11.765 2.273-11.337 1.878-10.875 1.021-10.942 .23-10.974-.494-10.974V-13.742H6.324C7.708-13.742 8.958-13.71 10.079-13.643V-15.324C9.025-15.259 7.74-15.225 6.225-15.225H-.494V-17.202C-.494-18.454-.462-19.509-.395-20.366H-2.569C-2.504-19.509-2.47-18.454-2.47-17.202V-15.225H-8.795C-10.113-15.225-11.43-15.259-12.747-15.324V-13.643C-11.43-13.71-10.079-13.742-8.696-13.742H-2.47V-11.172C-3.063-11.238-3.656-11.32-4.249-11.419-4.842-11.518-5.435-11.666-6.028-11.864-6.225-11.206-6.457-10.579-6.719-9.985-6.127-9.92-5.501-9.656-4.842-9.194-4.184-8.734-3.327-7.943-2.273-6.822-4.051-7.019-5.304-7.251-6.028-7.514-6.161-6.856-6.391-6.13-6.719-5.339-6.127-5.339-5.501-4.928-4.842-4.103-4.184-3.28-3.624-2.373-3.162-1.384H-7.312C-8.762-1.384-10.146-1.451-11.463-1.582V.099C-10.146 .032-8.96 0-7.905 0H-2.273C-2.47 .791-2.702 1.449-2.964 1.977-2.371 2.109-1.68 2.274-.889 2.472-.627 1.812-.33 .989 0 0M-6.818-9.194C-7.478-9.59-8.137-10.035-8.795-10.529-9.454-11.023-10.146-11.601-10.87-12.259-11.331-11.601-11.759-11.008-12.154-10.48-11.299-10.084-10.475-9.639-9.684-9.145-8.893-8.651-8.202-8.173-7.609-7.711-7.346-8.173-7.082-8.668-6.818-9.194M-7.016-4.943C-7.544-5.405-8.004-5.867-8.399-6.327-9.323-5.339-10.311-4.548-11.364-3.955-10.837-3.494-10.343-3.065-9.882-2.669-8.893-3.329-7.939-4.087-7.016-4.943M6.917-4.993C6.258-5.487 5.598-6.065 4.941-6.723 4.479-6.13 4.051-5.669 3.656-5.339 4.249-4.943 4.776-4.532 5.237-4.103 5.697-3.675 6.258-3.099 6.917-2.373 7.51-2.966 8.069-3.494 8.597-3.955 8.135-4.152 7.575-4.498 6.917-4.993M7.065-8.651C7.624-9.014 8.333-9.525 9.19-10.183 8.662-10.579 8.168-11.04 7.708-11.567 7.18-11.107 6.604-10.613 5.978-10.084 5.352-9.557 4.709-9.096 4.051-8.7 4.447-8.305 4.808-7.877 5.138-7.415 5.863-7.877 6.505-8.289 7.065-8.651" fill="#ffffff"/>
</g>
<path transform="matrix(1,0,0,-1,167.543,186.70072)" d="M0 0H2.635 5.27L2.635 5.273ZM3.513 1.318H1.756V-58.667H3.513Z" fill="#ffffff"/>
<path transform="matrix(1,0,0,-1,219.2827,332.4518)" d="M0 0H2.635 5.27L2.635-5.273ZM3.513-1.318H1.756V54.938H3.513Z" fill="#ffffff"/>
<path transform="matrix(1,0,0,-1,0,595.276)" d="M198.094 305.861H245.789V286.352H198.094Z" fill="#f43040"/>
<g clip-path="url(#clip_7)">
<path transform="matrix(1,0,0,-1,203.749,301.8513)" d="M0 0C-.309-.982-.791-2.001-1.446-3.057-1.664-2.838-2.01-2.62-2.482-2.402-1.901-1.602-1.446-.692-1.118 .327-.791 1.346-.592 2.41-.518 3.521-.446 4.63-.419 5.503-.436 6.14-.455 6.777-.464 7.423-.464 8.078 .3 8.042 1.037 8.042 1.746 8.078 2.455 8.114 3.428 8.187 4.664 8.296 5.901 8.406 7.083 8.605 8.21 8.897 8.429 8.46 8.665 8.059 8.92 7.696 7.792 7.623 6.401 7.513 4.746 7.369 3.091 7.223 1.719 7.15 .627 7.15V5.076H8.538C8.32 4.312 7.946 3.384 7.419 2.292 6.892 1.201 6.265 .236 5.537-.6 6.01-.964 6.728-1.31 7.692-1.637 8.656-1.965 9.356-2.147 9.793-2.183 9.429-2.437 9.174-2.819 9.029-3.329 8.447-3.184 7.747-2.947 6.929-2.62 6.11-2.292 5.374-1.856 4.719-1.31 4.137-1.747 3.455-2.147 2.673-2.511 1.891-2.874 1.027-3.184 .082-3.439 .008-3.111-.21-2.784-.573-2.456 .3-2.274 1.154-2.011 1.991-1.665 2.827-1.319 3.464-.964 3.901-.6 3.355 .018 2.873 .7 2.455 1.446 2.036 2.192 1.664 3.075 1.336 4.094H.627C.518 2.347 .309 .982 0 0M4.719 .164C5.701 1.291 6.446 2.601 6.956 4.094H2.428C3.046 2.383 3.809 1.073 4.719 .164" fill="#ffffff"/>
<path transform="matrix(1,0,0,-1,219.2991,301.25093)" d="M0 0C-.327-.328-.646-.628-.955-.901-1.264-1.173-1.691-1.492-2.237-1.856-2.383-1.674-2.655-1.438-3.055-1.146-2.328-.746-1.701-.309-1.173 .164-.646 .636-.255 1.127 0 1.637H-1.473C-1.437 2.074-1.418 2.529-1.418 3.002V5.731C-1.855 5.294-2.419 4.803-3.11 4.257-3.365 4.585-3.637 4.858-3.928 5.076-3.055 5.549-2.318 6.113-1.719 6.768-1.118 7.423-.655 8.078-.327 8.733 .036 8.515 .4 8.351 .764 8.242 .581 8.096 .328 7.823 0 7.423H5.947C6.383 7.423 7.038 7.441 7.91 7.478V6.55C7.328 6.586 6.783 6.604 6.274 6.604H-.491C-.782 6.313-1.073 6.04-1.364 5.786H6.765C6.728 5.276 6.71 4.566 6.71 3.657 6.71 2.784 6.728 2.11 6.765 1.637H1.2C1.055 1.419 .854 1.146 .6 .819H6.547C6.11 .127 5.664-.455 5.21-.928 4.755-1.401 4.273-1.82 3.764-2.183 4.346-2.366 5.064-2.53 5.919-2.674 6.773-2.819 7.71-2.911 8.729-2.947 8.546-3.202 8.365-3.566 8.183-4.039 6.656-3.821 5.464-3.602 4.61-3.384 3.755-3.166 3.128-2.965 2.728-2.784 1.818-3.147 .936-3.42 .082-3.602-.773-3.784-1.819-3.948-3.055-4.094-3.238-3.62-3.401-3.275-3.546-3.057-2.492-3.057-1.437-2.965-.382-2.784 .672-2.602 1.4-2.42 1.8-2.238 1.037-1.801 .291-1.274-.436-.655-.073-.437 .182-.218 .328 0ZM5.728 4.967H-.4369998V4.094H5.728ZM5.728 3.275H-.4369998V2.456H5.728ZM2.837-1.747C3.527-1.347 4.164-.764 4.746 0H.436C1.127-.692 1.927-1.274 2.837-1.747" fill="#ffffff"/>
<path transform="matrix(1,0,0,-1,230.8941,296.0383)" d="M0 0C.618 1.146 1.091 2.301 1.418 3.466 1.782 3.248 2.145 3.084 2.509 2.975 2.218 2.501 1.836 1.61 1.364 .3V-6.304C1.364-7.505 1.382-8.378 1.418-8.924H.327C.363-8.305 .382-7.415 .382-6.25V-1.501C.018-2.083-.346-2.647-.709-3.193-.964-2.793-1.237-2.502-1.528-2.32-1.128-1.92-.619-1.146 0 0M3.819 1.556C3.819 2.174 3.8 2.647 3.764 2.975H4.855C4.819 2.647 4.801 2.174 4.801 1.556V.082C5.2 .082 5.655 .1 6.165 .136V-.846C5.546-.81 5.092-.791 4.801-.791V-2.756H6.165C6.128-3.266 6.11-3.994 6.11-4.94 6.11-5.886 6.128-6.596 6.165-7.068H5.128V-6.522H3.437V-7.669H2.4C2.436-7.159 2.455-6.341 2.455-5.213 2.455-4.085 2.436-3.266 2.4-2.756H3.819V-.791C3.164-.791 2.619-.81 2.182-.846V.136C2.582 .1 3.127 .082 3.819 .082ZM5.128-3.575H3.4369999V-5.704H5.128ZM6.737 0C7.119 1.037 7.401 2.137 7.583 3.302 7.946 3.156 8.383 3.01 8.892 2.866 8.638 2.611 8.31 1.81 7.91 .464H9.22C9.91 .464 10.475 .482 10.911 .519V-.355C10.547-.319 10.237-.3 9.984-.3 10.019-2.557 9.692-4.522 9.002-6.195 9.62-7.068 10.311-7.669 11.075-7.996 10.674-8.324 10.401-8.632 10.256-8.924 9.674-8.523 9.037-7.887 8.347-7.014 7.728-7.778 6.91-8.487 5.892-9.142 5.674-8.851 5.401-8.578 5.074-8.324 6.019-7.96 6.91-7.251 7.747-6.195 7.31-5.358 6.964-4.085 6.71-2.374L6.492-2.866C6.274-2.611 6.001-2.374 5.674-2.156 6.001-1.756 6.356-1.037 6.737 0M7.474-1.446C7.765-3.339 8.055-4.576 8.347-5.158 8.747-4.103 8.965-2.502 9.002-.355H7.638C7.528-.646 7.365-1.064 7.147-1.61Z" fill="#ffffff"/>
</g>
<path transform="matrix(1,0,0,-1,0,595.276)" d="M137.486 379.152H199.411V359.379H137.486Z" fill="#f43040"/>
<g clip-path="url(#clip_8)">
<path transform="matrix(1,0,0,-1,150.5969,220.63379)" d="M0 0C.69 0 1.309 .018 1.855 .055V-1.037C1.309-1.001 .655-.982-.109-.982H-2.728V-4.421H.055C.636-4.421 1.146-4.403 1.582-4.367V-5.404C1.146-5.368 .636-5.349 .055-5.349H-2.728V-9.77H.055C.818-9.77 1.582-9.752 2.346-9.716V-10.807C1.582-10.771 .909-10.753 .327-10.753H-7.965C-8.656-10.753-9.239-10.771-9.711-10.807V-9.716C-9.239-9.752-8.656-9.77-7.965-9.77H-7.638V-4.967C-7.638-4.312-7.656-3.748-7.692-3.275H-6.438C-6.474-3.712-6.492-4.276-6.492-4.967V-9.77H-3.819V-.982H-6.983C-7.674-.982-8.275-1.001-8.783-1.037V.055C-8.275 .018-7.674 0-6.983 0Z" fill="#ffffff"/>
<path transform="matrix(1,0,0,-1,155.9725,224.5364)" d="M0 0C.436 .782 .764 1.792 .982 3.029 .291 3.029-.273 3.011-.709 2.975V3.957C-.2 3.921 .291 3.903 .764 3.903H2.291C2.909 3.903 3.437 3.921 3.873 3.957V2.975C3.437 3.011 2.837 3.029 2.073 3.029 1.855 2.01 1.563 1.064 1.2 .191H3.655C3.618-.428 3.601-1.01 3.601-1.556V-3.848C3.601-4.467 3.618-5.158 3.655-5.922H2.673V-4.885H1.091V-6.85H.109C.145-6.086 .164-5.431 .164-4.885V-1.61C-.019-1.902-.237-2.247-.491-2.647-.709-2.356-1.019-2.101-1.418-1.883-.909-1.411-.436-.783 0 0M2.673-.573H1.0910001V-4.066H2.673ZM9.847-6.468C10.011-6.395 10.093-6.213 10.093-5.922V-4.066H8.238V-7.068H7.31V-4.066H5.783C5.746-4.576 5.619-5.113 5.401-5.676 5.183-6.24 4.801-6.85 4.255-7.505 4-7.141 3.655-6.94 3.219-6.905 3.691-6.504 4.046-6.077 4.283-5.622 4.519-5.167 4.673-4.631 4.746-4.012 4.819-3.393 4.864-2.53 4.883-1.419 4.901-.309 4.891 .591 4.855 1.283H7.419C7.747 1.864 8.037 2.447 8.292 3.029H6.056C5.619 2.519 5.055 1.81 4.364 .901 4.073 1.155 3.764 1.337 3.437 1.446 4.092 2.137 4.637 2.811 5.074 3.466 5.51 4.121 5.837 4.757 6.056 5.376 6.455 5.194 6.874 5.049 7.31 4.94 7.128 4.831 6.855 4.448 6.492 3.793H9.82C9.165 2.628 8.729 1.792 8.51 1.283H11.129C11.093 .628 11.075-.082 11.075-.846V-6.304C11.11-6.741 11.001-7.041 10.747-7.205 10.492-7.368 10.056-7.523 9.438-7.669 9.401-7.305 9.256-6.959 9.001-6.632 9.401-6.595 9.683-6.54 9.847-6.468M7.31 .519H5.782V-1.0639999H7.31ZM7.31-1.828H5.782V-3.302H7.31ZM10.093 .519H8.238001V-1.0639999H10.093ZM10.093-1.828H8.238001V-3.302H10.093ZM10.093-3.302" fill="#ffffff"/>
<path transform="matrix(1,0,0,-1,171.9861,222.10752)" d="M0 0H2.455C2.418-.619 2.4-1.401 2.4-2.347V-7.15C2.4-7.696 2.418-8.479 2.455-9.497H1.364V-8.406H-1.418V-9.606H-2.509C-2.474-8.442-2.455-7.715-2.455-7.423V-2.402C-2.455-1.419-2.474-.619-2.509 0H-.927C-.746 .837-.6 1.71-.491 2.62 .018 2.437 .437 2.31 .764 2.238 .581 1.91 .327 1.164 0 0M1.364-.928H-1.4180001V-3.657H1.364ZM1.364-4.585H-1.4180001V-7.4779999H1.364ZM8.62-8.242C8.546-8.897 8.201-9.333 7.583-9.552 6.964-9.77 6.274-9.915 5.51-9.988 5.473-9.588 5.31-9.17 5.019-8.733 5.746-8.769 6.319-8.751 6.738-8.678 7.155-8.606 7.419-8.442 7.529-8.187 7.638-7.933 7.72-7.187 7.774-5.949 7.829-4.713 7.874-2.984 7.91-.764H4.746C4.455-1.456 4.037-2.275 3.492-3.22 3.237-2.966 2.927-2.766 2.564-2.62 2.891-2.183 3.2-1.656 3.492-1.037 3.782-.419 4.037 .254 4.255 .982 4.474 1.71 4.601 2.274 4.637 2.675 5.146 2.456 5.583 2.292 5.947 2.183 5.764 1.892 5.61 1.573 5.483 1.228 5.355 .882 5.219 .546 5.074 .218H8.947C8.91-.546 8.892-1.255 8.892-1.91 8.856-4.13 8.765-6.241 8.62-8.242M5.674-4.148C5.892-4.585 6.146-5.149 6.438-5.84 6.183-5.949 5.837-6.132 5.401-6.386 5.146-5.695 4.91-5.103 4.692-4.612 4.474-4.121 4.255-3.712 4.037-3.384 4.291-3.239 4.618-3.057 5.019-2.838Z" fill="#ffffff"/>
<path transform="matrix(1,0,0,-1,195.4197,227.1836)" d="M0 0V-.982C-.364-.947-.964-.928-1.801-.928-1.801-1.875-1.783-2.62-1.746-3.166H-2.837V-2.62H-5.783V-3.657C-5.82-4.094-5.974-4.385-6.247-4.53-6.52-4.675-7.056-4.803-7.856-4.912-7.929-4.548-8.111-4.148-8.402-3.712-7.747-3.712-7.311-3.693-7.092-3.657-6.874-3.62-6.765-3.512-6.765-3.329V-2.62H-9.82C-10.221-2.62-10.693-2.639-11.239-2.674V-1.692C-10.693-1.729-10.221-1.747-9.82-1.747H-6.765V-.928H-10.857C-11.33-.928-11.784-.947-12.22-.982V0C-11.784-.037-11.33-.055-10.857-.055H-6.765V.71H-9.929C-10.33 .71-10.766 .691-11.239 .655V1.637C-10.766 1.601-10.33 1.583-9.929 1.583H-6.765V2.292H-10.584C-10.548 2.838-10.529 3.329-10.529 3.766-10.529 4.239-10.548 4.694-10.584 5.131H-6.765V5.895H-10.638C-11.221 5.895-11.766 5.876-12.275 5.84V6.823C-11.766 6.786-11.239 6.768-10.693 6.768H-6.765C-6.765 7.022-6.784 7.35-6.819 7.751H-5.729C-5.765 7.459-5.783 7.131-5.783 6.768H-2.073C-1.455 6.768-.819 6.786-.164 6.823V5.84C-.819 5.876-1.455 5.895-2.073 5.895H-5.783V5.131H-1.855C-1.892 4.694-1.91 4.239-1.91 3.766-1.91 3.293-1.892 2.802-1.855 2.292H-5.783V1.583H-1.746C-1.783 1.219-1.801 .673-1.801-.055-1.255-.055-.655-.037 0 0M-6.765 4.257H-9.547V3.165H-6.765ZM-2.946 4.257H-5.783V3.165H-2.946ZM-2.837 .71H-5.783V-.05400002H-2.837ZM-2.837-.928H-5.783V-1.747H-2.837ZM-2.837-1.747" fill="#ffffff"/>
</g>
<path transform="matrix(1,0,0,-1,0,595.276)" d="M202.573 251.814H244.734V232.041H202.573Z" fill="#f43040"/>
<g clip-path="url(#clip_9)">
<path transform="matrix(1,0,0,-1,207.233,348.3898)" d="M0 0C0 .472-.019 .928-.055 1.365H1.037C.963 .891 .927 .346 .927-.273V-1.365C1.218-1.365 1.582-1.347 2.018-1.31V-2.238C1.545-2.202 1.182-2.183 .927-2.183V-3.875C1.109-3.766 1.309-3.639 1.528-3.493 1.818-4.185 2.091-4.877 2.346-5.567 2.018-5.641 1.746-5.768 1.528-5.949 1.382-5.44 1.182-4.894 .927-4.312V-9.006C.927-9.625 .945-10.261 .982-10.916H-.055C-.019-10.152 0-9.516 0-9.006V-5.24C-.255-6.077-.582-6.859-.982-7.587-1.128-7.296-1.401-7.005-1.8-6.714-1.328-6.023-.973-5.349-.737-4.694-.5-4.039-.291-3.202-.109-2.183-.764-2.183-1.2-2.202-1.418-2.238V-1.31C-1.128-1.347-.655-1.365 0-1.365ZM4.146-6.441C4.4-6.259 4.673-6.077 4.964-5.895 5.183-6.259 5.374-6.596 5.537-6.905 5.701-7.214 5.91-7.587 6.165-8.023 5.946-8.206 5.655-8.424 5.292-8.678 5.219-8.46 5.109-8.206 4.964-7.914 4.673-8.169 4.31-8.452 3.873-8.76 3.437-9.07 3.055-9.407 2.728-9.77 2.473-9.407 2.237-9.115 2.018-8.897 2.273-8.643 2.418-8.261 2.455-7.751V-.928C2.455-.309 2.436 .2 2.4 .6H5.619C5.583 .055 5.565-.838 5.565-2.074 5.565-3.275 5.583-4.203 5.619-4.858H3.382V-8.023C3.636-7.879 4.037-7.587 4.583-7.15 4.437-6.859 4.291-6.623 4.146-6.441M4.637-.218H3.382V-1.6919999H4.637ZM4.637-2.511H3.382V-4.039H4.637ZM4.255-10.371C4.91-10.006 5.565-9.306 6.219-8.269 6.874-7.232 7.346-5.986 7.638-4.53H6.11C6.146-3.984 6.165-3.457 6.165-2.947 6.165-2.438 6.146-1.947 6.11-1.474H7.147C7.073-1.765 7.037-2.129 7.037-2.565V-3.712H7.856C7.965-2.584 8.019-1.365 8.019-.055H7.474C6.964-.055 6.51-.073 6.11-.109V.819C6.546 .782 7.001 .764 7.474 .764H9.056C9.746 .764 10.256 .782 10.584 .819V-.109C10.292-.073 9.746-.055 8.947-.055 8.947-1.074 8.892-2.292 8.783-3.712H9.547C9.874-3.712 10.274-3.694 10.747-3.657V-4.585C10.274-4.549 9.91-4.53 9.656-4.53H8.62C8.147-6.386 7.665-7.76 7.174-8.651 6.683-9.543 5.982-10.389 5.074-11.189 4.891-10.898 4.618-10.625 4.255-10.371M9.329-9.17C9.329-9.571 9.428-9.788 9.629-9.825 9.828-9.86 9.984-9.87 10.093-9.852 10.202-9.833 10.284-9.743 10.338-9.579 10.393-9.415 10.42-9.097 10.42-8.624 10.747-8.806 11.092-8.933 11.456-9.006 11.311-9.77 11.165-10.243 11.02-10.425 10.874-10.607 10.584-10.698 10.147-10.698H9.493C8.692-10.661 8.328-10.279 8.401-9.552V-5.895H9.383C9.347-6.877 9.329-7.969 9.329-9.17" fill="#ffffff"/>
<path transform="matrix(1,0,0,-1,226.8474,348.1715)" d="M0 0H2.728C3.383 0 4.11 .018 4.91 .055V-.873C4.11-.801 3.364-.764 2.673-.764H-1.637C-1.383-.947-1.018-1.146-.546-1.365-.873-1.583-1.182-1.847-1.473-2.156-1.764-2.465-2.055-2.766-2.346-3.057H-.6C-.164-2.62 .2-2.147 .491-1.637 .818-1.892 1.182-2.147 1.582-2.402 1.109-2.656 .618-3.057 .109-3.602-.401-4.148-1.11-4.785-2.018-5.513L.655-5.294C.472-5.076 .291-4.84 .109-4.585 .328-4.512 .618-4.349 .982-4.094 1.345-4.53 1.855-5.222 2.509-6.168 2.182-6.277 1.836-6.459 1.473-6.714 1.4-6.495 1.255-6.259 1.037-6.004 .564-6.041 .127-6.059-.273-6.059V-7.587H3.492C4.255-7.587 4.946-7.569 5.565-7.532V-8.46C4.982-8.424 4.273-8.406 3.437-8.406H-.273V-9.497C-.273-10.188-.255-10.771-.218-11.244H-1.418C-1.383-10.771-1.364-10.188-1.364-9.497V-8.406H-4.855C-5.583-8.406-6.31-8.424-7.037-8.46V-7.532C-6.31-7.569-5.565-7.587-4.801-7.587H-1.364V-6.168C-1.691-6.204-2.018-6.25-2.346-6.304-2.673-6.359-3-6.441-3.328-6.55-3.437-6.187-3.565-5.84-3.71-5.513-3.382-5.477-3.037-5.331-2.673-5.076-2.31-4.822-1.837-4.385-1.255-3.766-2.237-3.875-2.928-4.003-3.328-4.148-3.401-3.785-3.528-3.384-3.71-2.947-3.382-2.947-3.037-2.721-2.673-2.265-2.31-1.81-2-1.31-1.746-.764H-4.037C-4.837-.764-5.601-.801-6.328-.873V.055C-5.601 .018-4.947 0-4.364 0H-1.255C-1.364 .437-1.492 .8-1.637 1.092-1.309 1.164-.927 1.255-.491 1.365-.346 1-.182 .546 0 0M-3.764-5.076C-4.128-5.294-4.492-5.54-4.855-5.813-5.219-6.086-5.601-6.405-6.001-6.768-6.256-6.405-6.492-6.077-6.71-5.786-6.238-5.567-5.783-5.322-5.346-5.049-4.91-4.776-4.528-4.512-4.201-4.257-4.056-4.512-3.91-4.785-3.764-5.076M-3.873-2.729C-4.165-2.984-4.419-3.239-4.637-3.493-5.147-2.947-5.692-2.511-6.274-2.183-5.983-1.929-5.71-1.692-5.455-1.474-4.91-1.838-4.383-2.257-3.873-2.729M3.819-2.756C3.455-3.029 3.091-3.348 2.728-3.712 2.473-3.384 2.237-3.13 2.018-2.947 2.346-2.729 2.637-2.502 2.892-2.265 3.145-2.029 3.455-1.711 3.819-1.31 4.146-1.637 4.455-1.929 4.746-2.183 4.491-2.292 4.182-2.483 3.819-2.756M3.901-4.776C4.209-4.976 4.601-5.259 5.074-5.622 4.782-5.84 4.509-6.095 4.255-6.386 3.964-6.132 3.646-5.859 3.301-5.567 2.955-5.276 2.6-5.022 2.237-4.803 2.455-4.585 2.654-4.349 2.837-4.094 3.237-4.349 3.591-4.576 3.901-4.776" fill="#ffffff"/>
</g>
<path transform="matrix(1,0,0,-1,239.7016,353.41133)" d="M0 0H-2.673V-2.674H-3.601V0H-6.274V.873H-3.601V3.548H-2.673V.873H0Z" fill="#ffffff"/>
<path transform="matrix(1,0,0,-1,0,595.276)" d="M158.304 251.814H191.77V232.041H158.304Z" fill="#f43040"/>
<g clip-path="url(#clip_10)">
<path transform="matrix(1,0,0,-1,163.8093,351.7739)" d="M0 0V-5.24C0-5.895 .018-6.64 .054-7.478H-.927C-.892-6.64-.873-5.895-.873-5.24V-1.255C-1.2-1.692-1.51-2.129-1.8-2.565-1.983-2.202-2.182-1.91-2.4-1.692-1.964-1.255-1.492-.674-.982 .055-.473 .782-.073 1.528 .218 2.292 .472 1.892 .764 1.619 1.091 1.474 .764 1.219 .4 .728 0 0M-1.528 1.637C-1.746 1.892-2.019 2.11-2.346 2.292-1.291 3.238-.564 4.129-.164 4.967 .054 4.749 .345 4.53 .709 4.312 .09 3.511-.655 2.62-1.528 1.637M4.473-4.694C4.801-4.44 5.109-4.148 5.401-3.821L5.837-4.694C5.582-4.84 5.282-5.058 4.937-5.349 4.591-5.641 4.255-5.949 3.928-6.277L3.382-5.458C3.564-5.313 3.655-5.076 3.655-4.749V-2.674H2.455C2.455-3.475 2.391-4.194 2.264-4.83 2.136-5.467 1.836-6.15 1.364-6.877 1.109-6.586 .818-6.367 .491-6.222 1.037-5.604 1.354-4.867 1.446-4.012 1.536-3.157 1.563-2.475 1.528-1.965H4.528C4.491-2.656 4.473-3.567 4.473-4.694M5.074-.873C4.528-.838 3.837-.819 3-.819 2.163-.819 1.473-.838 .927-.873V-.055C1.473-.091 2.163-.109 3-.109 3.837-.109 4.528-.091 5.074-.055ZM2.073 1.528H2.891C2.891 2.983 2.873 4.094 2.837 4.858H3.764C3.728 4.129 3.71 3.02 3.71 1.528H4.637C4.637 2.256 4.618 3.002 4.583 3.766H5.455C5.419 3.365 5.401 2.874 5.401 2.292 5.401 1.747 5.419 1.255 5.455 .819H1.146C1.181 1.328 1.2 1.819 1.2 2.292 1.2 2.765 1.181 3.256 1.146 3.766H2.128C2.091 3.147 2.073 2.402 2.073 1.528M5.837-1.747C5.546-1.492 5.273-1.329 5.019-1.255 5.565-.2 5.992 .919 6.301 2.101 6.61 3.283 6.783 4.257 6.819 5.022 7.219 4.876 7.601 4.784 7.965 4.749 7.747 4.239 7.529 3.365 7.31 2.129H9.056C9.456 2.129 9.838 2.147 10.202 2.183V1.31C9.656 1.346 9.329 1.365 9.22 1.365 9.22 .346 9.165-.628 9.056-1.556 8.947-2.483 8.638-3.493 8.129-4.585 8.31-4.949 8.592-5.286 8.974-5.595 9.356-5.904 9.82-6.187 10.365-6.441 9.929-6.732 9.692-7.059 9.656-7.423 8.747-6.877 8.02-6.204 7.474-5.404 6.71-6.241 5.855-6.968 4.91-7.587 4.655-7.295 4.31-7.022 3.873-6.768 4.637-6.441 5.237-6.113 5.674-5.786 6.11-5.458 6.528-5.04 6.928-4.53 6.528-3.548 6.274-2.347 6.165-.928ZM6.874-.109C7.019-1.637 7.256-2.82 7.583-3.657 7.874-2.929 8.065-2.193 8.156-1.446 8.246-.701 8.31 .236 8.347 1.365H7.092C6.946 .891 6.746 .363 6.492-.218Z" fill="#ffffff"/>
<path transform="matrix(1,0,0,-1,180.5323,347.6802)" d="M0 0C-.146-1.237-.3-2.274-.464-3.111-.627-3.949-.855-4.803-1.146-5.677-.637-6.441-.109-7.278 .437-8.187 .109-8.442-.218-8.715-.546-9.006-.909-8.169-1.309-7.405-1.746-6.714-2.037-7.296-2.4-7.851-2.837-8.378-3.273-8.906-3.746-9.443-4.255-9.988-4.474-9.698-4.801-9.37-5.237-9.006-4.547-8.534-3.982-8.042-3.546-7.532-3.11-7.023-2.728-6.441-2.4-5.786-3.019-4.877-3.655-4.076-4.31-3.384-3.982-3.13-3.692-2.893-3.437-2.675-2.928-3.22-2.419-3.894-1.909-4.694-1.546-3.53-1.291-2.257-1.146-.873H-2.837C-3.491-.873-4.092-.892-4.637-.928V.055C-4.128 .018-3.546 0-2.891 0ZM4.746-9.879C4.746-10.207 4.828-10.389 4.992-10.425 5.156-10.461 5.401-10.48 5.728-10.48 6.091-10.48 6.319-10.416 6.41-10.289 6.501-10.161 6.582-9.698 6.656-8.897 6.983-9.115 7.365-9.279 7.801-9.388 7.583-10.48 7.346-11.098 7.092-11.244 6.837-11.389 6.51-11.462 6.11-11.462H4.855C4.419-11.462 4.128-11.334 3.983-11.08 3.837-10.825 3.764-10.552 3.764-10.261V-6.877C3.582-7.569 3.273-8.233 2.837-8.87 2.4-9.506 1.882-10.07 1.282-10.562 .682-11.053 .055-11.462-.6-11.79-.746-11.426-1.037-11.061-1.473-10.698-.455-10.443 .39-9.988 1.064-9.333 1.736-8.678 2.21-7.988 2.482-7.259 2.755-6.532 2.919-5.704 2.973-4.776 3.028-3.848 3.036-2.893 3.001-1.91 3.509-1.984 3.928-2.038 4.255-2.074 4.11-2.656 4.018-3.421 3.983-4.367 3.946-5.313 3.873-6.077 3.764-6.659H4.855C4.819-6.877 4.782-7.369 4.746-8.133ZM6.71-3.057C6.71-4.949 6.728-6.241 6.765-6.932H5.674V-.218H1.855V-6.986H.764C.8-6.113 .818-4.84 .818-3.166 .818-1.456 .8-.183 .764 .655H6.765C6.728 .073 6.71-1.165 6.71-3.057" fill="#ffffff"/>
</g>
<path transform="matrix(1,0,0,-1,0,595.276)" d="M252.904 251.287H286.37V231.778H252.904Z" fill="#f43040"/>
<g clip-path="url(#clip_11)">
<path transform="matrix(1,0,0,-1,261.7827,352.332)" d="M0 0H4.31C5.037 0 5.709 .018 6.328 .055V-1.092C5.746-1.019 5.092-.982 4.364-.982H-.436C-1.055-2.292-1.71-3.366-2.401-4.203-3.092-5.04-3.838-5.822-4.637-6.55-4.929-6.222-5.274-5.931-5.674-5.676-5.165-5.422-4.519-4.877-3.737-4.039-2.955-3.202-2.256-2.183-1.637-.982H-2.673C-3.51-.982-4.329-1.019-5.128-1.092V.055C-4.329 .018-3.51 0-2.673 0H-1.2C-.837 .8-.564 1.583-.382 2.347-.019 2.129 .4 1.946 .873 1.801 .764 1.619 .472 1.018 0 0M.327 5.513C.836 4.821 1.218 4.293 1.473 3.93 1.037 3.675 .709 3.474 .491 3.329H5.892C5.855 2.819 5.837 2.437 5.837 2.183 5.837 1.928 5.855 1.583 5.892 1.146H4.746V2.456H-3.383V1.146H-4.528C-4.492 1.437-4.474 1.765-4.474 2.129-4.474 2.492-4.492 2.893-4.528 3.329H.327C.182 3.657-.146 4.184-.655 4.912-.401 5.057-.073 5.258 .327 5.513M1.064-3.903C.609-4.576 .09-5.276-.491-6.004-.019-6.004 1.545-5.931 4.201-5.786 3.946-5.24 3.546-4.567 3-3.766 3.291-3.621 3.636-3.403 4.037-3.111 5.055-4.713 5.783-5.968 6.219-6.877 5.819-7.059 5.437-7.277 5.074-7.532 4.891-7.131 4.746-6.841 4.637-6.659 3.036-6.804 1.691-6.923 .6-7.014-.491-7.104-1.274-7.241-1.746-7.423-1.928-6.913-2.11-6.459-2.291-6.059-1.564-5.731-.937-5.14-.409-4.285 .118-3.43 .546-2.547 .873-1.637 1.2-1.892 1.618-2.147 2.128-2.402 1.873-2.729 1.518-3.23 1.064-3.903" fill="#ffffff"/>
<path transform="matrix(1,0,0,-1,275.1232,348.02009)" d="M0 0C-.146-1.237-.3-2.274-.464-3.111-.627-3.949-.855-4.803-1.146-5.676-.637-6.441-.109-7.278 .436-8.187 .109-8.442-.218-8.715-.546-9.006-.91-8.169-1.309-7.405-1.746-6.714-2.037-7.296-2.4-7.851-2.837-8.378-3.273-8.906-3.746-9.443-4.255-9.988-4.473-9.697-4.801-9.37-5.237-9.006-4.547-8.534-3.982-8.042-3.546-7.532-3.11-7.023-2.728-6.441-2.4-5.786-3.019-4.877-3.655-4.076-4.31-3.384-3.982-3.13-3.692-2.893-3.437-2.674-2.928-3.22-2.419-3.894-1.909-4.694-1.546-3.53-1.291-2.257-1.146-.873H-2.837C-3.491-.873-4.092-.892-4.637-.928V.055C-4.128 .018-3.546 0-2.891 0ZM4.746-9.879C4.746-10.207 4.828-10.389 4.992-10.425 5.155-10.461 5.401-10.48 5.728-10.48 6.092-10.48 6.319-10.416 6.41-10.289 6.501-10.161 6.583-9.697 6.656-8.897 6.983-9.115 7.365-9.279 7.801-9.388 7.583-10.48 7.346-11.098 7.092-11.244 6.837-11.389 6.51-11.462 6.11-11.462H4.855C4.419-11.462 4.127-11.334 3.983-11.08 3.837-10.825 3.764-10.552 3.764-10.261V-6.877C3.582-7.569 3.273-8.233 2.837-8.87 2.401-9.506 1.882-10.07 1.282-10.562 .682-11.053 .055-11.462-.6-11.79-.746-11.426-1.036-11.061-1.473-10.698-.455-10.443 .391-9.988 1.064-9.333 1.736-8.678 2.21-7.988 2.482-7.259 2.755-6.532 2.919-5.704 2.973-4.776 3.028-3.848 3.036-2.893 3-1.91 3.509-1.984 3.928-2.038 4.255-2.074 4.11-2.656 4.018-3.421 3.983-4.367 3.946-5.313 3.874-6.077 3.764-6.659H4.855C4.819-6.877 4.782-7.369 4.746-8.133ZM6.71-3.057C6.71-4.949 6.728-6.241 6.765-6.932H5.674V-.218H1.855V-6.986H.764C.8-6.113 .818-4.84 .818-3.166 .818-1.456 .8-.183 .764 .655H6.765C6.728 .073 6.71-1.165 6.71-3.057" fill="#ffffff"/>
<path transform="matrix(1,0,0,-1,116.5552,164.9029)" d="M0 0C-.218-.401-.436-.837-.655-1.31V-8.788C-.655-9.733-.637-10.48-.6-11.025H-1.855C-1.819-10.406-1.8-9.697-1.8-8.897V-3.329C-2.237-4.094-2.71-4.822-3.219-5.513-3.437-5.259-3.71-4.986-4.037-4.694-3.382-4.039-2.692-3.002-1.964-1.583-1.237-.164-.783 .928-.6 1.692-.2 1.437 .218 1.237 .655 1.092 .436 .764 .218 .4 0 0M3.491-2.784V-.055C3.491 .455 3.473 1 3.437 1.583H4.692C4.618 1 4.583 .455 4.583-.055V-2.784H6.819C7.292-2.784 7.856-2.766 8.51-2.729V-3.821C7.892-3.785 7.346-3.766 6.874-3.766H4.583V-9.115C4.583-9.697 4.6-10.297 4.637-10.916H3.437C3.473-10.334 3.491-9.751 3.491-9.17V-3.766H1.582C1-3.766 .436-3.785-.109-3.821V-2.729C.436-2.766 .982-2.784 1.528-2.784Z" fill="#ffffff"/>
<path transform="matrix(1,0,0,-1,132.4326,165.53061)" d="M0 0C-.491-.783-1.118-1.61-1.882-2.483-2.646-3.357-3.682-4.339-4.992-5.431-5.247-5.031-5.537-4.703-5.865-4.448-4.956-3.939-3.937-3.021-2.81-1.692-1.683-.364-.846 .918-.3 2.156 .172 1.828 .573 1.591 .9 1.446 .791 1.264 .491 .782 0 0M1.909-3.029C1.309-3.867 .554-4.776-.355-5.758-1.264-6.741-2.065-7.542-2.755-8.16-1.955-8.124-.91-8.07 .382-7.996 1.672-7.924 2.919-7.851 4.119-7.778 3.537-6.76 3.046-5.977 2.646-5.431 3.009-5.213 3.318-4.976 3.573-4.721 4.155-5.522 4.719-6.331 5.265-7.15 5.81-7.969 6.282-8.742 6.683-9.47 6.428-9.542 6.046-9.779 5.537-10.179 5.319-9.743 5.046-9.269 4.719-8.76 2.937-8.834 1.037-8.961-.982-9.142-3.001-9.324-4.119-9.488-4.337-9.634-4.483-9.197-4.646-8.742-4.828-8.269-4.283-8.233-3.328-7.505-1.964-6.086-.6-4.667 .7-2.83 1.937-.573 2.3-.901 2.718-1.192 3.191-1.446 2.937-1.665 2.509-2.193 1.909-3.029" fill="#ffffff"/>
<path transform="matrix(1,0,0,-1,145.364,169.324)" d="M0 0C0-1.856 .018-3.312 .055-4.367H-1.091V-3.329H-3.273V-5.131H-4.419C-4.383-3.457-4.364-1.783-4.364-.109-4.364 1.601-4.383 3.22-4.419 4.749H.055C.018 3.439 0 1.856 0 0M-1.091 3.821H-3.2729998V1.256H-1.091ZM-1.091 .327H-3.2729998V-2.4020003H-1.091ZM5.128 6.168H6.328C6.292 5.221 6.274 4.203 6.274 3.111 6.819 3.111 7.401 3.129 8.02 3.166V2.129C7.401 2.164 6.819 2.183 6.274 2.183V-5.131C6.274-5.677 6.056-6.022 5.619-6.168 5.183-6.313 4.618-6.422 3.928-6.495 3.928-6.059 3.728-5.64 3.328-5.24 4.018-5.312 4.501-5.33 4.774-5.294 5.046-5.258 5.183-5.022 5.183-4.585V2.183C3.364 2.183 1.836 2.164 .6 2.129V3.166C1.764 3.129 3.291 3.111 5.183 3.111 5.183 4.203 5.164 5.221 5.128 6.168M3.655-1.747C3.291-1.856 2.909-2.02 2.51-2.238 2.218-1.365 1.8-.546 1.255 .218 1.582 .363 1.927 .527 2.291 .71 2.764-.055 3.219-.873 3.655-1.747" fill="#ffffff"/>
<path transform="matrix(1,0,0,-1,155.1585,175.71012)" d="M0 0C.073 .728 .109 1.492 .109 2.292V8.023C.109 8.788 .073 9.424 0 9.934H1.255C1.218 9.388 1.2 8.86 1.2 8.351V2.238C1.2 1.509 1.218 .764 1.255 0ZM3.655 10.643C3.255 10.461 2.873 10.261 2.51 10.043 2.146 10.77 1.691 11.462 1.146 12.117 1.546 12.408 1.873 12.608 2.128 12.718 2.455 12.281 2.964 11.589 3.655 10.643M8.456 7.096V4.203C8.456 3.729 8.474 3.166 8.511 2.511H3.001C3.036 3.166 3.055 3.747 3.055 4.257V7.096C3.055 7.605 3.036 8.205 3.001 8.897H8.511C8.474 8.205 8.456 7.605 8.456 7.096M7.419 8.023H4.091V6.276H7.419ZM7.419 5.404H4.091V3.3839999H7.419ZM11.457 11.79C11.42 11.098 11.402 10.406 11.402 9.716V1.692C11.438 .855 11.211 .346 10.72 .164 10.229-.018 9.692-.145 9.111-.218 9.074 .218 8.928 .655 8.674 1.092 9.365 1.056 9.811 1.092 10.011 1.201 10.21 1.31 10.311 1.546 10.311 1.91V10.862H7.038C6.165 10.862 5.346 10.843 4.583 10.807V11.844C5.346 11.808 6.165 11.79 7.038 11.79Z" fill="#ffffff"/>
<path transform="matrix(1,0,0,-1,170.1904,166.73142)" d="M0 0C.618 1.146 1.091 2.301 1.418 3.466 1.781 3.248 2.146 3.084 2.509 2.975 2.218 2.501 1.836 1.61 1.364 .3V-6.304C1.364-7.505 1.382-8.378 1.418-8.924H.327C.363-8.305 .382-7.415 .382-6.25V-1.501C.018-2.084-.346-2.647-.709-3.193-.964-2.793-1.237-2.502-1.528-2.32-1.128-1.92-.619-1.146 0 0M3.819 1.556C3.819 2.174 3.8 2.647 3.764 2.975H4.855C4.819 2.647 4.801 2.174 4.801 1.556V.082C5.201 .082 5.655 .1 6.165 .136V-.846C5.546-.81 5.091-.791 4.801-.791V-2.756H6.165C6.128-3.266 6.11-3.994 6.11-4.94 6.11-5.886 6.128-6.596 6.165-7.068H5.128V-6.523H3.437V-7.669H2.4C2.436-7.16 2.455-6.341 2.455-5.213 2.455-4.085 2.436-3.266 2.4-2.756H3.819V-.791C3.164-.791 2.619-.81 2.182-.846V.136C2.582 .1 3.128 .082 3.819 .082ZM5.128-3.575H3.4369999V-5.704H5.128ZM6.737 0C7.119 1.037 7.401 2.137 7.583 3.302 7.946 3.156 8.383 3.01 8.892 2.866 8.638 2.611 8.31 1.81 7.91 .464H9.22C9.91 .464 10.474 .482 10.911 .519V-.355C10.547-.319 10.237-.3 9.983-.3 10.019-2.557 9.692-4.522 9.001-6.195 9.62-7.068 10.311-7.669 11.075-7.996 10.674-8.324 10.401-8.632 10.256-8.924 9.674-8.523 9.037-7.887 8.347-7.014 7.728-7.778 6.91-8.487 5.892-9.142 5.674-8.851 5.401-8.578 5.073-8.324 6.019-7.96 6.91-7.251 7.747-6.195 7.31-5.358 6.964-4.085 6.71-2.374L6.492-2.866C6.274-2.611 6.001-2.374 5.674-2.156 6.001-1.756 6.356-1.037 6.737 0M7.474-1.446C7.765-3.339 8.055-4.576 8.347-5.158 8.747-4.103 8.965-2.502 9.001-.355H7.638C7.529-.646 7.365-1.064 7.147-1.61Z" fill="#ffffff"/>
<path transform="matrix(1,0,0,-1,183.2037,165.285)" d="M0 0C.546-.037 1.181-.055 1.909-.055H5.019C4.655-2.384 4.201-4.185 3.655-5.458 4.564-6.732 5.237-7.715 5.674-8.406 5.419-8.588 5.128-8.824 4.801-9.115 4.037-7.805 3.473-6.914 3.11-6.441 2.673-7.205 2.237-7.842 1.8-8.351 1.364-8.861 .818-9.424 .164-10.043-.091-9.716-.382-9.478-.709-9.333-.091-8.897 .472-8.388 .982-7.805 1.491-7.224 1.982-6.477 2.455-5.567 1.582-4.512 .782-3.639 .054-2.947 .273-2.766 .527-2.53 .818-2.238 1.873-3.403 2.582-4.185 2.946-4.585 3.418-3.275 3.728-2.056 3.873-.928H1.909C1.181-.928 .546-.947 0-.982ZM5.237-1.201C6.11-1.237 6.71-1.255 7.037-1.255H9.383V.382C9.383 .854 9.347 1.365 9.274 1.91H10.529C10.492 1.474 10.475 .928 10.475 .273V-1.255C10.838-1.255 11.438-1.237 12.275-1.201V-2.183C11.438-2.147 10.838-2.129 10.475-2.129V-9.006C10.51-9.697 10.284-10.133 9.793-10.316 9.302-10.498 8.747-10.625 8.129-10.698 8.019-10.261 7.856-9.86 7.638-9.497 8.437-9.497 8.938-9.451 9.138-9.361 9.337-9.27 9.419-9.006 9.383-8.569V-2.129H7.092C6.765-2.129 6.146-2.165 5.237-2.238ZM7.965-6.386C7.492-6.569 7.147-6.75 6.929-6.932 6.601-5.949 6.128-4.931 5.51-3.875 5.764-3.766 6.055-3.585 6.383-3.329 7.001-4.421 7.528-5.44 7.965-6.386" fill="#ffffff"/>
<path transform="matrix(1,0,0,-1,208.3282,164.0842)" d="M0 0V-1.201C-.401-1.347-1.146-1.783-2.237-2.511-3.328-3.239-4.11-3.785-4.583-4.148V-10.371C-4.619-10.989-4.937-11.38-5.537-11.544-6.138-11.708-6.747-11.825-7.365-11.899-7.547-11.135-7.729-10.625-7.91-10.371-7.002-10.407-6.42-10.398-6.165-10.343-5.911-10.289-5.783-10.043-5.783-9.606V-5.24C-5.783-4.403-5.837-3.821-5.947-3.493-5.329-3.239-3.983-2.402-1.91-.982H-7.692C-8.565-1.019-9.402-1.037-10.202-1.037V.055C-9.402 .018-8.748 0-8.238 0Z" fill="#ffffff"/>
<path transform="matrix(1,0,0,-1,214.9037,164.9029)" d="M0 0C-.218-.401-.436-.837-.655-1.31V-8.788C-.655-9.733-.637-10.48-.6-11.025H-1.855C-1.819-10.406-1.8-9.697-1.8-8.897V-3.329C-2.237-4.094-2.71-4.822-3.219-5.513-3.437-5.259-3.71-4.986-4.037-4.694-3.383-4.039-2.692-3.002-1.964-1.583-1.237-.164-.782 .928-.6 1.692-.2 1.437 .218 1.237 .655 1.092 .436 .764 .218 .4 0 0M3.491-2.784V-.055C3.491 .455 3.473 1 3.437 1.583H4.692C4.618 1 4.583 .455 4.583-.055V-2.784H6.819C7.292-2.784 7.856-2.766 8.511-2.729V-3.821C7.892-3.785 7.346-3.766 6.874-3.766H4.583V-9.115C4.583-9.697 4.601-10.297 4.637-10.916H3.437C3.473-10.334 3.491-9.751 3.491-9.17V-3.766H1.582C1-3.766 .436-3.785-.109-3.821V-2.729C.436-2.766 .982-2.784 1.528-2.784Z" fill="#ffffff"/>
<path transform="matrix(1,0,0,-1,230.7811,165.53061)" d="M0 0C-.491-.783-1.118-1.61-1.882-2.483-2.646-3.357-3.682-4.339-4.992-5.431-5.247-5.031-5.537-4.703-5.864-4.448-4.956-3.939-3.937-3.021-2.809-1.692-1.682-.364-.845 .918-.3 2.156 .172 1.828 .573 1.591 .9 1.446 .791 1.264 .491 .782 0 0M1.91-3.029C1.309-3.867 .554-4.776-.354-5.758-1.264-6.741-2.065-7.542-2.755-8.16-1.955-8.124-.909-8.07 .382-7.996 1.672-7.924 2.919-7.851 4.119-7.778 3.537-6.76 3.046-5.977 2.646-5.431 3.009-5.213 3.319-4.976 3.574-4.721 4.155-5.522 4.719-6.331 5.265-7.15 5.81-7.969 6.283-8.742 6.683-9.47 6.428-9.542 6.046-9.779 5.537-10.179 5.319-9.743 5.047-9.269 4.719-8.76 2.937-8.834 1.037-8.961-.982-9.142-3-9.324-4.119-9.488-4.337-9.634-4.483-9.197-4.646-8.742-4.828-8.269-4.282-8.233-3.328-7.505-1.964-6.086-.6-4.667 .7-2.83 1.937-.573 2.3-.901 2.719-1.192 3.192-1.446 2.937-1.665 2.51-2.193 1.91-3.029" fill="#ffffff"/>
</g>
<path transform="matrix(1,0,0,-1,196.9936,372.4552)" stroke-width="1.757" stroke-linecap="butt" stroke-miterlimit="8" stroke-linejoin="miter" fill="none" stroke="#ffffff" d="M0 0V16.656L-2.588 18.829 0 21.001V38.2M51.511 0V16.656L54.099 18.829 51.511 21.001V38.2"/>
<path transform="matrix(1,0,0,-1,0,595.276)" d="M300.599 251.287H348.294V231.778H300.599Z" fill="#f43040"/>
<g clip-path="url(#clip_12)">
<path transform="matrix(1,0,0,-1,307.1019,348.7024)" d="M0 0C-.109-.491-.218-.974-.327-1.446H2.401C2.218-2.538 2.019-3.521 1.8-4.394 1.582-5.267 1.236-6.177 .764-7.123 1.345-7.633 2.019-8.251 2.782-8.979 2.455-9.234 2.163-9.506 1.91-9.797 1.364-9.107 .8-8.506 .218-7.996-.255-8.579-.728-9.097-1.2-9.552-1.673-10.006-2.164-10.434-2.673-10.834-2.819-10.58-3.092-10.307-3.491-10.016-2.946-9.688-2.428-9.315-1.937-8.897-1.446-8.479-.982-7.96-.545-7.341-1.2-6.832-1.909-6.341-2.673-5.868-2.201-4.776-1.819-3.594-1.527-2.32-2.11-2.32-2.619-2.339-3.055-2.374V-1.392C-2.619-1.428-2.037-1.446-1.309-1.446-1.091-.573-.909 .464-.764 1.665-.401 1.556 .018 1.446 .491 1.337 .273 .936 .109 .491 0 0M-.054-6.468C.2-6.031 .437-5.45 .655-4.721 .873-3.994 1.055-3.193 1.2-2.32H-.491C-.818-3.521-1.145-4.576-1.473-5.485-.927-5.85-.455-6.177-.054-6.468M8.947 .355V-.628C8.583-.919 8.183-1.237 7.747-1.583 7.311-1.929 6.855-2.302 6.383-2.702V-4.394H7.856C8.328-4.394 8.856-4.376 9.438-4.339V-5.376C8.856-5.34 8.328-5.322 7.856-5.322H6.383V-9.252C6.383-9.942 6.173-10.379 5.756-10.562 5.337-10.743 4.764-10.889 4.037-10.998 3.928-10.597 3.764-10.179 3.546-9.743 4.346-9.743 4.846-9.697 5.047-9.606 5.246-9.516 5.346-9.252 5.346-8.815V-5.322H4.528C3.764-5.322 3.018-5.34 2.291-5.376V-4.339C3.018-4.376 3.71-4.394 4.365-4.394H5.346C5.346-3.848 5.337-3.421 5.319-3.111 5.3-2.802 5.255-2.557 5.183-2.374 5.51-2.156 5.892-1.875 6.328-1.528 6.765-1.183 7.147-.846 7.474-.519H4.201C3.837-.519 3.346-.537 2.728-.573V.409C3.346 .373 3.837 .355 4.201 .355Z" fill="#ffffff"/>
<path transform="matrix(1,0,0,-1,320.1698,357.0806)" d="M0 0V4.367C-.654 4.367-1.291 4.348-1.909 4.312V5.349C-1.219 5.312-.546 5.294 .109 5.294H1.037C1 4.603 .982 4.057 .982 3.657V.218C1.746-.728 3.191-1.21 5.319-1.228 7.447-1.247 9.092-1.165 10.256-.982 10.002-1.455 9.838-1.892 9.766-2.292H6.219C5.273-2.292 4.482-2.246 3.846-2.156 3.21-2.065 2.673-1.938 2.237-1.774 1.8-1.61 1.4-1.373 1.037-1.064 .673-.756 .246-.819-.245-1.255-.736-1.692-1.11-2.055-1.364-2.347-1.619-2.055-1.909-1.71-2.237-1.31-1.11-.582-.364-.146 0 0M.273 6.932C-.163 7.659-.709 8.351-1.364 9.006L-.6 9.661C.345 8.642 .928 7.95 1.146 7.587ZM4.201 .573C3.509 .482 3.036 .363 2.782 .218L2.237 1.365C2.6 1.509 2.982 1.91 3.383 2.565 3.782 3.22 4.092 4.057 4.31 5.076 3.073 5.076 2.128 5.057 1.473 5.022V6.059C2.163 6.022 3.564 6.004 5.674 6.004 7.783 6.004 9.147 6.022 9.766 6.059V5.022C9.147 5.057 7.728 5.076 5.51 5.076 5.401 4.675 5.191 4.148 4.883 3.493 4.573 2.838 4.201 2.164 3.764 1.474 5.11 1.583 6.401 1.692 7.638 1.801 7.383 2.274 7.019 2.802 6.547 3.384 6.837 3.529 7.11 3.73 7.365 3.984 8.055 3.111 8.801 2.02 9.602 .71 9.274 .527 8.947 .327 8.62 .109 8.437 .437 8.256 .745 8.074 1.037 6.183 .819 4.891 .663 4.201 .573M8.838 8.023C8.147 8.059 7.11 8.078 5.728 8.078 4.383 8.078 3.328 8.059 2.564 8.023V9.061C3.219 9.024 4.255 9.006 5.674 9.006 7.092 9.006 8.147 9.024 8.838 9.061Z" fill="#ffffff"/>
<path transform="matrix(1,0,0,-1,335.5837,348.4545)" d="M0 0H6.001C6.656 0 7.274 .018 7.856 .055V-.927C7.274-.891 6.656-.872 6.001-.872H-.436C-.619-1.236-.9-1.699-1.282-2.262-1.664-2.826-2.037-3.307-2.401-3.706-2.692-3.416-3.055-3.216-3.492-3.107-3.019-2.707-2.474-2.026-1.855-1.063-1.237-.101-.8 .781-.546 1.581-.146 1.398 .273 1.235 .709 1.09 .491 .763 .254 .4 0 0M7.583-11.201C7.073-11.291 6.637-11.046 6.274-10.465 5.91-9.884 5.655-9.22 5.51-8.475 5.364-7.731 5.328-6.649 5.401-5.232H-.6C-1.182-5.232-1.8-5.251-2.455-5.287V-4.306C-1.8-4.342-1.182-4.36-.6-4.36H6.546C6.473-5.487 6.446-6.359 6.465-6.977 6.483-7.595 6.574-8.148 6.737-8.639 6.901-9.129 7.083-9.502 7.283-9.756 7.483-10.01 7.747-9.429 8.074-8.012 8.474-8.485 8.819-8.757 9.111-8.83 8.601-10.319 8.092-11.11 7.583-11.201M5.074-2.126C5.655-2.126 6.237-2.108 6.819-2.071V-3.052C6.237-3.016 5.655-2.998 5.074-2.998H1.037C.454-2.998-.128-3.016-.709-3.052V-2.126C-.128-2.162 .454-2.162 1.037-2.126Z" fill="#ffffff"/>
</g>
<path transform="matrix(1,0,0,-1,0,595.276)" d="M77.67 251.814H139.595V232.041H77.67Z" fill="#f43040"/>
<g clip-path="url(#clip_13)">
<path transform="matrix(1,0,0,-1,87.6595,346.6432)" d="M0 0C.437-.037 .854-.073 1.255-.109 1.182-.582 1.164-1.438 1.2-2.674H2.782C3.546-2.674 4.382-2.656 5.292-2.62V-3.657C4.346-3.621 3.509-3.602 2.782-3.602H1.255C1.291-4.986 1.528-6.495 1.964-8.133 2.654-7.078 3.2-5.859 3.601-4.476 3.964-4.767 4.382-5.022 4.855-5.24 4.564-5.567 4.237-6.113 3.873-6.877 3.509-7.641 3.036-8.442 2.455-9.279 2.782-9.934 3.137-10.452 3.519-10.834 3.901-11.217 4.164-11.38 4.31-11.326 4.455-11.271 4.601-10.643 4.746-9.443 5.109-9.734 5.491-9.953 5.892-10.098 5.637-11.589 5.355-12.417 5.046-12.581 4.737-12.745 4.364-12.745 3.928-12.581 3.492-12.417 3.082-12.108 2.701-11.653 2.319-11.199 2-10.698 1.746-10.152 .873-11.099-.237-11.989-1.582-12.827-1.765-12.499-2.037-12.207-2.4-11.953-1.673-11.626-.973-11.189-.3-10.643 .373-10.098 .873-9.588 1.2-9.115 .945-8.424 .727-7.578 .546-6.577 .363-5.577 .254-4.585 .218-3.602H-4.474V-5.513H-.927C-1.001-6.168-1.055-6.842-1.091-7.532L-1.255-9.716C-1.291-10.407-1.482-10.826-1.828-10.971-2.174-11.117-2.764-11.226-3.601-11.298-3.637-10.971-3.783-10.571-4.037-10.098-3.128-10.134-2.601-10.08-2.455-9.934-2.31-9.789-2.219-9.37-2.182-8.678L-2.073-6.495H-4.474C-4.474-7.914-4.583-9.097-4.801-10.043-5.019-10.99-5.42-11.862-6.001-12.663-6.402-12.371-6.765-12.172-7.092-12.063-6.62-11.48-6.292-10.926-6.11-10.398-5.929-9.871-5.792-9.298-5.701-8.678-5.611-8.06-5.556-7.187-5.537-6.059-5.519-4.931-5.529-3.803-5.565-2.674H.109C.072-1.619 .036-.728 0 0M4.746-1.747C4.419-2.002 4.128-2.257 3.873-2.511 3.437-1.929 2.855-1.329 2.128-.71 2.382-.491 2.619-.255 2.837 0 3.564-.582 4.201-1.165 4.746-1.747" fill="#ffffff"/>
<path transform="matrix(1,0,0,-1,100.5092,355.8675)" d="M0 0C-.619-.146-1.128-.264-1.528-.355-1.928-.446-2.556-.619-3.41-.873-4.265-1.128-4.874-1.31-5.237-1.419-5.383-.91-5.529-.51-5.674-.218-5.455-.218-4.674-.073-3.328 .218V6.331H-3.764C-4.201 6.331-4.728 6.313-5.346 6.277V7.314C-4.765 7.277-4.237 7.259-3.764 7.259H-1.746C-1.237 7.259-.783 7.277-.382 7.314V6.277C-.818 6.313-1.255 6.331-1.691 6.331H-2.237V.437L-1.146 .71C-.855 .782-.51 .873-.109 .982ZM5.073-2.866C4.564-3.029 4-3.147 3.382-3.22 3.309-2.784 3.128-2.365 2.837-1.965 3.601-2.002 4.137-1.974 4.446-1.883 4.755-1.793 4.928-1.583 4.964-1.255 5.146 .71 5.292 2.784 5.401 4.967H2.946C2.909 3.911 2.818 2.929 2.673 2.02 2.527 1.11 2.282 .327 1.937-.327 1.591-.982 1.2-1.565 .764-2.074 .327-2.583-.182-3.092-.764-3.602-1.019-3.238-1.346-2.947-1.746-2.729-.946-2.219-.346-1.729 .055-1.255 .454-.783 .8-.246 1.091 .355 1.382 .955 1.582 1.619 1.691 2.347 1.8 3.075 1.873 3.948 1.909 4.967H1.091C.655 4.967 .218 4.948-.218 4.912V5.949C.254 5.913 .727 5.895 1.2 5.895H1.909V7.805C1.909 8.242 1.891 8.678 1.855 9.115 2.327 9.006 2.746 8.933 3.11 8.897 3.036 8.642 2.991 8.242 2.973 7.696 2.954 7.15 2.946 6.55 2.946 5.895H6.547C6.51 5.385 6.473 4.903 6.437 4.448 6.401 3.993 6.274 1.983 6.056-1.583 5.91-2.274 5.583-2.702 5.073-2.866" fill="#ffffff"/>
<path transform="matrix(1,0,0,-1,110.4128,348.3898)" d="M0 0C0 .472-.019 .928-.055 1.365H1.037C.963 .891 .927 .346 .927-.273V-1.365C1.218-1.365 1.582-1.347 2.018-1.31V-2.238C1.545-2.202 1.181-2.183 .927-2.183V-3.875C1.109-3.766 1.309-3.639 1.528-3.493 1.818-4.185 2.091-4.877 2.346-5.567 2.018-5.641 1.746-5.768 1.528-5.949 1.382-5.44 1.181-4.894 .927-4.312V-9.006C.927-9.625 .945-10.261 .982-10.916H-.055C-.019-10.152 0-9.516 0-9.006V-5.24C-.255-6.077-.582-6.859-.982-7.587-1.128-7.296-1.401-7.005-1.8-6.714-1.328-6.023-.973-5.349-.737-4.694-.5-4.039-.292-3.202-.109-2.183-.764-2.183-1.2-2.202-1.418-2.238V-1.31C-1.128-1.347-.655-1.365 0-1.365ZM4.146-6.441C4.4-6.259 4.673-6.077 4.965-5.895 5.183-6.259 5.374-6.596 5.537-6.905 5.701-7.214 5.91-7.587 6.165-8.023 5.946-8.206 5.655-8.424 5.292-8.678 5.219-8.46 5.109-8.206 4.965-7.914 4.673-8.169 4.31-8.452 3.873-8.76 3.437-9.07 3.055-9.407 2.728-9.77 2.473-9.407 2.237-9.115 2.018-8.897 2.273-8.643 2.418-8.261 2.455-7.751V-.928C2.455-.309 2.436 .2 2.4 .6H5.619C5.582 .055 5.565-.838 5.565-2.074 5.565-3.275 5.582-4.203 5.619-4.858H3.382V-8.023C3.636-7.879 4.037-7.587 4.583-7.15 4.437-6.859 4.291-6.623 4.146-6.441M4.637-.218H3.382V-1.6919999H4.637ZM4.637-2.511H3.382V-4.039H4.637ZM4.255-10.371C4.91-10.006 5.565-9.306 6.219-8.269 6.874-7.232 7.346-5.986 7.638-4.53H6.11C6.146-3.984 6.165-3.457 6.165-2.947 6.165-2.438 6.146-1.947 6.11-1.474H7.147C7.073-1.765 7.038-2.129 7.038-2.565V-3.712H7.856C7.965-2.584 8.02-1.365 8.02-.055H7.474C6.964-.055 6.51-.073 6.11-.109V.819C6.547 .782 7.001 .764 7.474 .764H9.056C9.747 .764 10.256 .782 10.584 .819V-.109C10.292-.073 9.747-.055 8.947-.055 8.947-1.074 8.892-2.292 8.783-3.712H9.547C9.874-3.712 10.274-3.694 10.747-3.657V-4.585C10.274-4.549 9.91-4.53 9.656-4.53H8.62C8.147-6.386 7.665-7.76 7.174-8.651 6.683-9.543 5.982-10.389 5.074-11.189 4.891-10.898 4.618-10.625 4.255-10.371M9.329-9.17C9.329-9.571 9.429-9.788 9.629-9.825 9.828-9.86 9.983-9.87 10.093-9.852 10.202-9.833 10.284-9.743 10.338-9.579 10.393-9.415 10.42-9.097 10.42-8.624 10.747-8.806 11.092-8.933 11.456-9.006 11.311-9.77 11.165-10.243 11.02-10.425 10.874-10.607 10.584-10.698 10.147-10.698H9.492C8.692-10.661 8.328-10.279 8.401-9.552V-5.895H9.383C9.347-6.877 9.329-7.969 9.329-9.17" fill="#ffffff"/>
<path transform="matrix(1,0,0,-1,130.0272,348.1715)" d="M0 0H2.728C3.382 0 4.11 .018 4.91 .055V-.873C4.11-.801 3.364-.764 2.673-.764H-1.637C-1.383-.947-1.019-1.146-.546-1.365-.873-1.583-1.182-1.847-1.473-2.156-1.764-2.465-2.055-2.766-2.346-3.057H-.6C-.164-2.62 .2-2.147 .491-1.637 .818-1.892 1.182-2.147 1.582-2.402 1.109-2.656 .618-3.057 .109-3.602-.401-4.148-1.11-4.785-2.018-5.513L.655-5.294C.472-5.076 .291-4.84 .109-4.585 .327-4.512 .618-4.349 .982-4.094 1.345-4.53 1.855-5.222 2.51-6.168 2.182-6.277 1.836-6.459 1.473-6.714 1.4-6.495 1.255-6.259 1.037-6.004 .563-6.041 .127-6.059-.273-6.059V-7.587H3.492C4.255-7.587 4.946-7.569 5.565-7.532V-8.46C4.982-8.424 4.273-8.406 3.437-8.406H-.273V-9.497C-.273-10.188-.255-10.771-.218-11.244H-1.418C-1.383-10.771-1.364-10.188-1.364-9.497V-8.406H-4.855C-5.583-8.406-6.31-8.424-7.038-8.46V-7.532C-6.31-7.569-5.564-7.587-4.801-7.587H-1.364V-6.168C-1.691-6.204-2.018-6.25-2.346-6.304-2.673-6.359-3-6.441-3.328-6.55-3.437-6.187-3.565-5.84-3.71-5.513-3.382-5.477-3.037-5.331-2.673-5.076-2.31-4.822-1.837-4.385-1.255-3.766-2.237-3.875-2.928-4.003-3.328-4.148-3.401-3.785-3.528-3.384-3.71-2.947-3.382-2.947-3.037-2.721-2.673-2.265-2.31-1.81-2.001-1.31-1.746-.764H-4.037C-4.837-.764-5.601-.801-6.328-.873V.055C-5.601 .018-4.947 0-4.364 0H-1.255C-1.364 .437-1.492 .8-1.637 1.092-1.309 1.164-.927 1.255-.491 1.365-.346 1-.182 .546 0 0M-3.764-5.076C-4.128-5.294-4.492-5.54-4.855-5.813-5.219-6.086-5.601-6.405-6.001-6.768-6.256-6.405-6.492-6.077-6.71-5.786-6.238-5.567-5.783-5.322-5.346-5.049-4.91-4.776-4.528-4.512-4.201-4.257-4.056-4.512-3.91-4.785-3.764-5.076M-3.873-2.729C-4.165-2.984-4.419-3.239-4.637-3.493-5.147-2.947-5.692-2.511-6.274-2.183-5.983-1.929-5.71-1.692-5.455-1.474-4.91-1.838-4.383-2.257-3.873-2.729M3.819-2.756C3.455-3.029 3.091-3.348 2.728-3.712 2.473-3.384 2.237-3.13 2.019-2.947 2.346-2.729 2.637-2.502 2.891-2.265 3.146-2.029 3.455-1.711 3.819-1.31 4.146-1.637 4.455-1.929 4.746-2.183 4.491-2.292 4.182-2.483 3.819-2.756M3.901-4.776C4.209-4.976 4.601-5.259 5.074-5.622 4.782-5.84 4.509-6.095 4.255-6.386 3.964-6.132 3.646-5.859 3.301-5.567 2.955-5.276 2.6-5.022 2.237-4.803 2.455-4.585 2.654-4.349 2.837-4.094 3.237-4.349 3.591-4.576 3.901-4.776" fill="#ffffff"/>
</g>
<path transform="matrix(1,0,0,-1,146.0764,355.9913)" d="M0 0V2.636 5.273L-5.27 2.636ZM12.45 3.515H-1.3179998V1.7570001H12.45Z" fill="#ffffff"/>
<path transform="matrix(1,0,0,-1,296.1937,355.9913)" d="M0 0V2.636 5.273L5.27 2.636ZM-10.279 3.515H1.3179998V1.7570001H-10.279Z" fill="#ffffff"/>
<g clip-path="url(#clip_14)">
<path transform="matrix(1,0,0,-1,172.8132,303.0906)" d="M0 0C0-1.456-1.18-2.636-2.635-2.636-4.09-2.636-5.27-1.456-5.27 0-5.27 1.456-4.09 2.636-2.635 2.636-1.18 2.636 0 1.456 0 0M-1.757 0H-3.514V25.088H-1.757ZM-1.757 25.088" fill="#ffffff"/>
<path transform="matrix(1,0,0,-1,224.4118,216.50589)" d="M0 0C0 1.456-1.18 2.636-2.635 2.636-4.09 2.636-5.27 1.456-5.27 0-5.27-1.456-4.09-2.636-2.635-2.636-1.18-2.636 0-1.456 0 0M-1.757 0H-3.514V-28.928H-1.757ZM-1.757-28.928" fill="#ffffff"/>
</g>
<path transform="matrix(1,0,0,-1,0,595.276)" d="M140.649 286.878H202.574V267.369H140.649Z" fill="#f43040"/>
<g clip-path="url(#clip_15)">
<path transform="matrix(1,0,0,-1,145.7419,321.8271)" d="M0 0V5.185H-.491C-.964 5.185-1.383 5.166-1.746 5.131V6.113C-1.383 6.077-.982 6.059-.546 6.059H1.036C1 5.476 .982 4.821 .982 4.094V.164C1.309 .455 1.709 .837 2.182 1.31 2.327 .982 2.51 .691 2.728 .437 2.364 .182 1.964-.146 1.527-.546 1.091-.947 .727-1.346 .437-1.747 .109-1.419-.182-1.146-.436-.928-.146-.674 0-.364 0 0M-1.364 9.224C-1.11 9.443-.892 9.679-.709 9.934-.055 9.424 .69 8.751 1.527 7.914 1.309 7.732 1.054 7.478 .764 7.15 .509 7.55-.2 8.242-1.364 9.224M8.101-.218C7.574 .327 7.147 .873 6.819 1.419 6.819-.655 6.837-1.892 6.874-2.292H5.783C5.819-1.892 5.837-.637 5.837 1.474 5.582 .964 5.155 .391 4.555-.246 3.955-.883 3.309-1.455 2.619-1.965 2.436-1.673 2.182-1.4 1.855-1.146 2.473-.819 3.082-.374 3.682 .191 4.283 .755 4.746 1.346 5.074 1.965 3.873 1.965 2.891 1.946 2.128 1.91V2.838C2.927 2.802 4.164 2.784 5.837 2.784V3.984H3.492C3.527 4.566 3.546 5.858 3.546 7.86 3.11 7.86 2.619 7.841 2.073 7.805V8.678C2.51 8.642 3.001 8.624 3.546 8.624 3.546 9.206 3.527 9.679 3.492 10.043H4.583C4.546 9.642 4.528 9.17 4.528 8.624H8.183C8.183 9.17 8.164 9.642 8.129 10.043H9.22C9.183 9.533 9.165 9.061 9.165 8.624 9.711 8.624 10.237 8.642 10.747 8.678V7.805C10.274 7.841 9.747 7.86 9.165 7.86 9.165 5.858 9.183 4.566 9.22 3.984H6.819V2.784C8.674 2.784 10.001 2.802 10.802 2.838V1.91C9.929 1.946 8.819 1.965 7.474 1.965 7.91 1.273 8.401 .71 8.947 .273 9.493-.164 10.128-.565 10.856-.928 10.529-1.219 10.256-1.528 10.038-1.856 9.274-1.31 8.628-.764 8.101-.218M8.183 7.86H4.528V6.714H8.183ZM8.183 5.895H4.528V4.803H8.183ZM8.183 4.803" fill="#ffffff"/>
<path transform="matrix(1,0,0,-1,170.4299,319.2618)" d="M0 0V-.982C-.364-.947-.964-.928-1.8-.928-1.8-1.875-1.782-2.62-1.746-3.166H-2.837V-2.62H-5.783V-3.657C-5.819-4.094-5.974-4.385-6.247-4.53-6.519-4.675-7.056-4.803-7.856-4.912-7.929-4.548-8.111-4.148-8.401-3.712-7.747-3.712-7.31-3.693-7.092-3.657-6.874-3.62-6.765-3.512-6.765-3.329V-2.62H-9.82C-10.22-2.62-10.693-2.639-11.238-2.674V-1.692C-10.693-1.729-10.22-1.747-9.82-1.747H-6.765V-.928H-10.856C-11.329-.928-11.784-.947-12.22-.982V0C-11.784-.037-11.329-.055-10.856-.055H-6.765V.71H-9.929C-10.33 .71-10.766 .691-11.238 .655V1.637C-10.766 1.601-10.33 1.583-9.929 1.583H-6.765V2.292H-10.584C-10.548 2.838-10.529 3.329-10.529 3.766-10.529 4.239-10.548 4.694-10.584 5.131H-6.765V5.895H-10.638C-11.22 5.895-11.766 5.876-12.275 5.84V6.823C-11.766 6.786-11.238 6.768-10.693 6.768H-6.765C-6.765 7.022-6.783 7.35-6.819 7.751H-5.728C-5.765 7.459-5.783 7.131-5.783 6.768H-2.073C-1.455 6.768-.818 6.786-.164 6.823V5.84C-.818 5.876-1.455 5.895-2.073 5.895H-5.783V5.131H-1.855C-1.891 4.694-1.909 4.239-1.909 3.766-1.909 3.293-1.891 2.802-1.855 2.292H-5.783V1.583H-1.746C-1.782 1.219-1.8 .673-1.8-.055-1.255-.055-.655-.037 0 0M-6.765 4.257H-9.547V3.165H-6.765ZM-2.946 4.257H-5.783V3.165H-2.946ZM-2.837 .71H-5.783V-.05400002H-2.837ZM-2.837-.928H-5.783V-1.747H-2.837ZM-2.837-1.747" fill="#ffffff"/>
<path transform="matrix(1,0,0,-1,176.5693,313.6399)" d="M0 0C.145 .472 .273 .882 .382 1.228 .491 1.574 .563 1.928 .6 2.292 1.109 2.183 1.563 2.074 1.964 1.965 1.781 1.601 1.655 1.318 1.582 1.119 1.509 .919 1.382 .546 1.2 0H5.619C6.383 0 7.073 .018 7.692 .055V-.982C7.073-.947 6.383-.928 5.619-.928H.873C.655-1.438 .372-2.001 .027-2.62-.319-3.239-.764-3.912-1.309-4.639V-8.46C-1.309-9.188-1.291-9.897-1.255-10.589H-2.4C-2.365-9.897-2.346-9.188-2.346-8.46V-5.622C-2.928-6.168-3.456-6.623-3.928-6.986-4.183-6.659-4.492-6.386-4.855-6.168-4.419-5.914-3.983-5.604-3.546-5.24-3.11-4.877-2.71-4.458-2.346-3.984-2.346-3.657-2.365-3.329-2.4-3.002H-1.528C-1.274-2.711-1.046-2.384-.846-2.02-.646-1.656-.473-1.292-.327-.928H-1.637C-2.51-.928-3.273-.947-3.928-.982V.055C-3.238 .018-2.474 0-1.637 0ZM2.782-4.257V-3.493C2.782-2.766 2.763-2.183 2.728-1.747H3.928C3.891-2.183 3.873-2.766 3.873-3.493V-4.257H5.128C5.783-4.257 6.383-4.239 6.928-4.203V-5.24C6.383-5.204 5.783-5.185 5.128-5.185H3.873V-8.842H5.946C6.637-8.842 7.256-8.824 7.801-8.788V-9.77C7.256-9.734 6.637-9.716 5.946-9.716H1.528C.581-9.716-.164-9.734-.709-9.77V-8.788C-.164-8.824 .581-8.842 1.528-8.842H2.782V-5.185H1.746C1.091-5.185 .454-5.204-.164-5.24V-4.203C.454-4.239 1.091-4.257 1.746-4.257Z" fill="#ffffff"/>
<path transform="matrix(1,0,0,-1,189.4189,320.5717)" d="M0 0C.799 1.018 1.355 2.065 1.664 3.138 1.973 4.211 2.146 5.213 2.182 6.14 2.218 7.068 2.2 8.042 2.128 9.061 2.528 9.024 2.982 8.987 3.492 8.951 3.382 8.369 3.328 7.769 3.328 7.15 3.328 6.531 3.364 5.821 3.437 5.022 3.51 4.221 4.028 3.01 4.992 1.392 5.955-.228 7.365-1.438 9.22-2.238 8.783-2.674 8.492-3.038 8.347-3.329 5.801-2.093 3.983 .145 2.892 3.384 2.164 .509 .4-1.783-2.4-3.493-2.619-3.202-2.928-2.893-3.328-2.565-1.909-1.875-.8-1.019 0 0" fill="#ffffff"/>
<path transform="matrix(1,0,0,-1,200.901,197.07932)" d="M0 0C.436-.037 .854-.073 1.255-.109 1.181-.582 1.163-1.438 1.2-2.674H2.782C3.546-2.674 4.382-2.657 5.292-2.62V-3.657C4.345-3.621 3.509-3.602 2.782-3.602H1.255C1.29-4.986 1.528-6.495 1.964-8.133 2.654-7.078 3.2-5.859 3.601-4.476 3.964-4.767 4.382-5.021 4.855-5.24 4.564-5.567 4.237-6.113 3.873-6.877 3.509-7.641 3.036-8.442 2.455-9.279 2.782-9.934 3.137-10.452 3.519-10.834 3.901-11.217 4.164-11.38 4.31-11.326 4.455-11.271 4.6-10.643 4.746-9.443 5.109-9.734 5.491-9.953 5.892-10.098 5.637-11.589 5.355-12.417 5.046-12.581 4.737-12.745 4.364-12.745 3.928-12.581 3.491-12.417 3.082-12.108 2.7-11.653 2.318-11.199 2-10.698 1.746-10.152 .873-11.099-.237-11.989-1.582-12.827-1.765-12.499-2.037-12.207-2.401-11.953-1.673-11.626-.973-11.189-.3-10.643 .372-10.098 .873-9.588 1.2-9.115 .945-8.424 .727-7.578 .546-6.577 .363-5.577 .254-4.585 .218-3.602H-4.474V-5.513H-.928C-1.001-6.168-1.055-6.841-1.091-7.532L-1.255-9.716C-1.291-10.407-1.482-10.826-1.828-10.971-2.174-11.117-2.765-11.226-3.601-11.298-3.637-10.971-3.783-10.571-4.037-10.098-3.128-10.134-2.601-10.08-2.455-9.934-2.31-9.789-2.219-9.37-2.182-8.678L-2.073-6.495H-4.474C-4.474-7.914-4.583-9.097-4.801-10.043-5.019-10.99-5.42-11.862-6.001-12.663-6.402-12.371-6.765-12.172-7.092-12.063-6.62-11.48-6.293-10.926-6.11-10.398-5.929-9.871-5.792-9.298-5.701-8.678-5.611-8.06-5.556-7.187-5.537-6.059-5.519-4.931-5.529-3.803-5.565-2.674H.109C.072-1.62 .036-.728 0 0M4.746-1.747C4.419-2.002 4.127-2.257 3.873-2.511 3.437-1.929 2.855-1.329 2.128-.71 2.382-.491 2.619-.255 2.837 0 3.564-.582 4.201-1.165 4.746-1.747" fill="#ffffff"/>
<path transform="matrix(1,0,0,-1,220.6245,204.93909)" d="M0 0V-.982C-.364-.947-.964-.928-1.8-.928-1.8-1.875-1.782-2.62-1.746-3.166H-2.837V-2.62H-5.783V-3.657C-5.82-4.094-5.974-4.384-6.246-4.53-6.519-4.675-7.056-4.803-7.856-4.912-7.929-4.548-8.111-4.148-8.401-3.712-7.747-3.712-7.31-3.693-7.092-3.657-6.874-3.62-6.765-3.512-6.765-3.329V-2.62H-9.82C-10.221-2.62-10.693-2.639-11.238-2.674V-1.692C-10.693-1.729-10.221-1.747-9.82-1.747H-6.765V-.928H-10.856C-11.33-.928-11.784-.947-12.22-.982V0C-11.784-.037-11.33-.055-10.856-.055H-6.765V.71H-9.929C-10.33 .71-10.766 .691-11.238 .655V1.637C-10.766 1.601-10.33 1.583-9.929 1.583H-6.765V2.292H-10.584C-10.548 2.838-10.529 3.329-10.529 3.766-10.529 4.239-10.548 4.694-10.584 5.131H-6.765V5.895H-10.638C-11.22 5.895-11.766 5.876-12.275 5.84V6.823C-11.766 6.786-11.238 6.768-10.693 6.768H-6.765C-6.765 7.022-6.784 7.35-6.819 7.751H-5.728C-5.765 7.459-5.783 7.131-5.783 6.768H-2.073C-1.455 6.768-.818 6.786-.164 6.823V5.84C-.818 5.876-1.455 5.895-2.073 5.895H-5.783V5.131H-1.855C-1.892 4.694-1.91 4.239-1.91 3.766-1.91 3.293-1.892 2.802-1.855 2.292H-5.783V1.583H-1.746C-1.782 1.219-1.8 .673-1.8-.055-1.255-.055-.655-.037 0 0M-6.765 4.257H-9.547V3.165H-6.765ZM-2.946 4.257H-5.783V3.165H-2.946ZM-2.837 .71H-5.783V-.05400002H-2.837ZM-2.837-.928H-5.783V-1.747H-2.837ZM-2.837-1.747" fill="#ffffff"/>
<path transform="matrix(1,0,0,-1,226.7639,199.31711)" d="M0 0C.145 .472 .273 .882 .382 1.228 .491 1.573 .563 1.928 .6 2.292 1.109 2.183 1.563 2.074 1.964 1.965 1.782 1.601 1.654 1.318 1.582 1.119 1.509 .918 1.382 .546 1.2 0H5.619C6.383 0 7.073 .018 7.692 .055V-.982C7.073-.947 6.383-.928 5.619-.928H.873C.655-1.438 .373-2.002 .027-2.62-.319-3.239-.764-3.912-1.309-4.639V-8.46C-1.309-9.188-1.291-9.897-1.255-10.589H-2.401C-2.365-9.897-2.346-9.188-2.346-8.46V-5.622C-2.928-6.168-3.456-6.623-3.928-6.986-4.183-6.659-4.492-6.386-4.855-6.168-4.419-5.914-3.983-5.604-3.546-5.24-3.11-4.877-2.71-4.458-2.346-3.984-2.346-3.657-2.365-3.33-2.401-3.002H-1.527C-1.274-2.711-1.046-2.384-.846-2.02-.646-1.656-.473-1.292-.327-.928H-1.637C-2.509-.928-3.273-.947-3.928-.982V.055C-3.238 .018-2.474 0-1.637 0ZM2.782-4.257V-3.493C2.782-2.766 2.764-2.183 2.728-1.747H3.928C3.891-2.183 3.873-2.766 3.873-3.493V-4.257H5.128C5.783-4.257 6.383-4.24 6.929-4.203V-5.24C6.383-5.204 5.783-5.185 5.128-5.185H3.873V-8.842H5.947C6.637-8.842 7.256-8.824 7.801-8.788V-9.77C7.256-9.733 6.637-9.716 5.947-9.716H1.528C.581-9.716-.164-9.733-.709-9.77V-8.788C-.164-8.824 .581-8.842 1.528-8.842H2.782V-5.185H1.746C1.091-5.185 .454-5.204-.164-5.24V-4.203C.454-4.24 1.091-4.257 1.746-4.257Z" fill="#ffffff"/>
<path transform="matrix(1,0,0,-1,245.2869,197.78879)" d="M0 0C.655 0 1.309 .018 1.964 .055V-1.092C1.309-1.056 .655-1.037 0-1.037H-2.237V-3.984H1.255C1.945-3.984 2.564-3.967 3.11-3.93V-5.076C2.6-5.04 2-5.021 1.309-5.021H-2.073C-1.564-6.405-.837-7.587 .109-8.569 1.055-9.552 2.273-10.226 3.764-10.589 3.255-10.989 2.946-11.353 2.837-11.68 1.709-11.28 .673-10.653-.273-9.797-1.219-8.943-2.037-7.715-2.728-6.113-3.164-7.606-3.855-8.797-4.801-9.688-5.747-10.58-6.928-11.334-8.347-11.953-8.493-11.589-8.802-11.244-9.274-10.916-8.22-10.626-7.111-10.016-5.946-9.088-4.783-8.16-3.965-6.805-3.491-5.021H-6.492C-7.292-5.021-7.965-5.04-8.51-5.076V-3.93C-7.929-3.967-7.256-3.984-6.492-3.984H-3.328V-1.037H-5.619C-6.383-1.037-7.037-1.056-7.583-1.092V.055C-7.002 .018-6.347 0-5.619 0Z" fill="#ffffff"/>
</g>
</g>
</g>
</svg>
