<svg xmlns="http://www.w3.org/2000/svg" xmlns:xlink="http://www.w3.org/1999/xlink" xmlns:inkscape="http://www.inkscape.org/namespaces/inkscape" version="1.1" width="411.024" height="595.276" viewBox="0 0 411.024 595.276">
<defs>
<clipPath id="clip_1">
<path transform="matrix(1,0,0,-1,0,595.276)" d="M0 0H411.024V595.276H0Z"/>
</clipPath>
<clipPath id="clip_2">
<path transform="matrix(1,0,0,-1,0,595.276)" d="M0 0H411.024V595.276H0Z"/>
</clipPath>
<path id="font_3_4" d="M.46099855 0V.06399536H.15499878L.4039917 .38186646C.44299317 .43185426 .46099855 .46884156 .46099855 .5258179 .46099855 .6427765 .38198854 .71777346 .2649994 .71777346 .1459961 .71777346 .068984989 .6367645 .068984989 .5248108H.14099121C.14099121 .6167755 .19898987 .6537628 .2649994 .6537628 .34298707 .6537628 .3889923 .6027832 .3889923 .5258179 .3889923 .48683167 .37599183 .45584107 .34899903 .42085267L.067993167 .06399536V0H.46099855Z"/>
<path id="font_3_3" d="M.32998658 0V.71191409H.2579956L.125 .5969238V.51493838L.2579956 .63191226V0H.32998658Z"/>
<path id="font_3_11" d="M.45700074 .51272585C.45700074 .63575747 .37998963 .71777346 .25898744 .71777346 .13798523 .71777346 .06199646 .62776187 .06199646 .5067291 .06199646 .3896942 .1349945 .3046875 .24598694 .3046875 .27398683 .3046875 .2999878 .30967713 .32199098 .3196869L.1619873 0H.23699951L.4119873 .3526764C.44198609 .4126892 .45700074 .4617157 .45700074 .51272585M.3849945 .50971987C.3849945 .4216919 .33499146 .36567689 .25898744 .36567689 .1769867 .36567689 .13398743 .43069459 .13398743 .50971987 .13398743 .596756 .18299866 .6537628 .25898744 .6537628 .33499146 .6537628 .3849945 .596756 .3849945 .50971987Z"/>
<clipPath id="clip_4">
<path transform="matrix(1,0,0,-1,0,595.276)" d="M0 0H411.024V595.276H0Z"/>
</clipPath>
<clipPath id="clip_5">
<path transform="matrix(1,0,0,-1,0,595.276)" d="M0 0H411.024V595.276H0Z"/>
</clipPath>
<clipPath id="clip_6">
<path transform="matrix(1,0,0,-1,0,595.276)" d="M0 0H411.024V595.276H0Z"/>
</clipPath>
<clipPath id="clip_7">
<path transform="matrix(1,0,0,-1,0,595.276)" d="M0 0H411.024V595.276H0Z"/>
</clipPath>
</defs>
<g clip-path="url(#clip_1)">
<g clip-path="url(#clip_2)">
<use data-text="2" xlink:href="#font_3_4" transform="matrix(9,0,0,-9,363.685,567.547)" fill="#f43040"/>
<use data-text="1" xlink:href="#font_3_3" transform="matrix(9,0,0,-9,367.285,567.547)" fill="#f43040"/>
<use data-text="9" xlink:href="#font_3_11" transform="matrix(9,0,0,-9,370.885,567.547)" fill="#f43040"/>
<g clip-path="url(#clip_4)">
<path transform="matrix(1,0,0,-1,154.7047,294.90953)" stroke-width="1" stroke-linecap="butt" stroke-miterlimit="10" stroke-linejoin="miter" fill="none" stroke="#f43040" d="M0 0C.076 1.93 1.581 3.435 3.377 3.378H39.206C41.106 3.435 42.61 1.93 42.582 0V-13.325C42.61-15.232 41.106-16.737 39.206-16.704H3.377C1.581-16.737 .076-15.232 0-13.325V0Z"/>
</g>
<path transform="matrix(1,0,0,-1,0,595.276)" d="M176.729 303.803H175.41501V316.833H176.729Z" fill="#2c292a"/>
<path transform="matrix(1,0,0,-1,0,595.276)" d="M176.705 338.327H175.391V387.637H176.705Z" fill="#2c292a"/>
<path transform="matrix(1,0,0,-1,0,595.276)" d="M248.288 271H246.974V282.808H248.288Z" fill="#2c292a"/>
<g clip-path="url(#clip_5)">
<path transform="matrix(1,0,0,-1,161.6823,264.8854)" d="M0 0C.562 0 1.161 .017 1.794 .053V-.95C1.231-.915 .65-.897 .053-.897H-.264V-9.607C-.264-10.24-.448-10.654-.818-10.847-1.187-11.04-1.935-11.19-3.06-11.296-3.131-10.838-3.271-10.416-3.482-10.029-2.743-10.064-2.216-10.046-1.899-9.976-1.583-9.905-1.424-9.712-1.424-9.396V-.897H-7.756C-8.671-.897-9.497-.915-10.235-.95V.053C-9.497 .017-8.688 0-7.808 0ZM-3.429-4.012V-6.598C-3.429-7.197-3.412-7.707-3.377-8.129H-4.485V-7.179H-7.492V-8.604H-8.547C-8.512-8.358-8.494-7.953-8.494-7.39V-4.012C-8.494-3.449-8.512-2.939-8.547-2.481H-3.377C-3.412-2.939-3.429-3.449-3.429-4.012M-4.485-3.378H-7.492V-6.281H-4.485ZM-4.485-6.281" fill="#2c292a"/>
<path transform="matrix(1,0,0,-1,170.5986,271.2196)" d="M0 0C-1.161-.88-2.568-2.182-4.221-3.906-4.537-3.554-4.801-3.291-5.012-3.114-4.731-2.763-4.59-2.375-4.59-1.953V3.906C-4.59 4.434-4.608 5.015-4.643 5.648H-3.429C-3.465 5.401-3.482 4.996-3.482 4.434V-1.689C-2.462-.774-1.565 .123-.791 1.003-.546 .615-.282 .281 0 0M4.511 3.378C4.353 1.724 4.01 .369 3.482-.686 4.924-2.094 5.909-3.15 6.437-3.853 6.12-4.064 5.803-4.31 5.487-4.592 4.854-3.677 3.974-2.692 2.849-1.636 1.477-3.15-.053-4.276-1.741-5.015-2.093-4.487-2.374-4.135-2.585-3.959-1.073-3.502 .211-2.763 1.266-1.742 2.321-.722 2.972 .66 3.218 2.402 3.464 4.144 3.569 5.63 3.535 6.862 4.132 6.721 4.625 6.615 5.012 6.545 4.836 6.088 4.669 5.032 4.511 3.378M0 5.674C.422 5.164 .897 4.539 1.424 3.801 1.108 3.589 .791 3.343 .475 3.062 .017 3.871-.827 4.979-2.058 6.387-1.777 6.563-1.495 6.791-1.214 7.073-.827 6.651-.422 6.184 0 5.674" fill="#2c292a"/>
<path transform="matrix(1,0,0,-1,183.2081,265.2549)" d="M0 0C-.035-.81-.053-1.619-.053-2.428-.053-3.238-.035-3.994 0-4.698H-3.113V-8.815C-1.812-8.112-.844-7.514-.211-7.02-.141-7.443-.035-7.778 .105-8.023-.563-8.411-1.214-8.798-1.847-9.185-2.48-9.571-3.131-9.994-3.799-10.451-4.01-10.135-4.256-9.835-4.537-9.554-4.221-9.273-4.081-8.903-4.115-8.446V-5.542C-4.115-5.05-4.133-4.487-4.168-3.853H-1.002V-.845H-2.744C-3.342-.845-3.957-.863-4.59-.897V.053C-3.957 .017-3.342 0-2.744 0ZM5.777-8.973C6.463-9.431 7.052-9.747 7.544-9.924 7.298-10.099 7.017-10.433 6.7-10.926 6.243-10.644 5.759-10.31 5.249-9.924 4.739-9.536 4.168-9.026 3.535-8.393 2.936-8.956 2.312-9.431 1.662-9.818 1.011-10.205 .281-10.574-.528-10.926-.669-10.61-.915-10.293-1.266-9.976-.528-9.765 .237-9.449 1.029-9.026 1.82-8.604 2.48-8.094 3.007-7.495 2.725-7.073 2.427-6.564 2.11-5.965 1.794-5.367 1.494-4.786 1.213-4.223L.95-4.592C.598-4.347 .317-4.153 .105-4.012 .457-3.589 .871-2.912 1.345-1.979 1.82-1.047 2.216 .053 2.532 1.32 2.954 1.108 3.341 .985 3.693 .95 3.482 .598 3.288 .202 3.113-.238 2.936-.678 2.761-1.108 2.585-1.531H5.223C5.962-1.531 6.577-1.513 7.07-1.478V-2.428C6.718-2.393 6.26-2.375 5.698-2.375 5.487-4.522 4.994-6.264 4.221-7.601 4.572-8.059 5.091-8.517 5.777-8.973M2.058-3.695C2.303-4.294 2.567-4.865 2.849-5.41 3.13-5.956 3.394-6.405 3.64-6.757 4.203-5.701 4.555-4.241 4.695-2.375H2.269C1.952-2.939 1.617-3.502 1.266-4.064 1.583-3.959 1.847-3.836 2.058-3.695" fill="#2c292a"/>
<path transform="matrix(1,0,0,-1,194.2346,268.3692)" d="M0 0C-.387-.493-.81-1.003-1.266-1.531-1.618-1.285-1.935-1.074-2.216-.897-1.372-.124-.721 .739-.264 1.689 .053 1.443 .422 1.214 .844 1.003 .668 .826 .387 .492 0 0M7.967-2.217C7.615-2.745 7.149-3.335 6.569-3.985 5.988-4.637 5.381-5.173 4.748-5.595 5.099-5.806 5.751-6.009 6.7-6.202 7.65-6.395 8.634-6.51 9.655-6.545 9.233-7.002 8.986-7.39 8.916-7.707 7.79-7.566 6.779-7.345 5.883-7.047 4.986-6.747 4.291-6.44 3.799-6.123 3.2-6.474 2.444-6.791 1.53-7.073 .615-7.354-.405-7.601-1.53-7.812-1.671-7.46-1.882-7.108-2.163-6.757-1.39-6.721-.484-6.589 .554-6.361 1.591-6.132 2.391-5.877 2.954-5.595 2.18-5.033 1.372-4.188 .528-3.062 .07-3.062-.405-3.08-.897-3.114V-2.164C-.264-2.2 .492-2.217 1.372-2.217ZM4.485 3.062H6.859C7.878 3.062 8.793 3.079 9.602 3.114V2.111C8.758 2.146 7.878 2.164 6.964 2.164H5.698V-.158C5.698-.722 5.715-1.285 5.751-1.847H4.59C4.625-1.285 4.643-.722 4.643-.158V2.164H2.796V-.158C2.796-.546 2.814-1.108 2.849-1.847H1.688C1.723-1.108 1.741-.546 1.741-.158V2.164H.58C-.44 2.164-1.337 2.146-2.11 2.111V3.114C-1.372 3.079-.475 3.062 .58 3.062H3.271C3.2 3.343 3.007 3.801 2.691 4.434 3.042 4.469 3.411 4.574 3.799 4.751 4.044 4.223 4.273 3.659 4.485 3.062M3.851-5.12C4.696-4.558 5.416-3.871 6.015-3.062H1.635C2.269-3.906 3.007-4.592 3.851-5.12M9.549-.739C9.267-.95 8.951-1.214 8.6-1.531 8.001-.827 7.263-.053 6.384 .792 6.7 1.038 6.981 1.284 7.228 1.531 7.967 .862 8.74 .106 9.549-.739" fill="#2c292a"/>
<path transform="matrix(1,0,0,-1,228.2115,328.5016)" d="M0 0C.457-.211 .932-.388 1.425-.528 1.248-.775 1.064-1.108 .871-1.531 .677-1.953 .492-2.375 .317-2.798 1.583-2.798 2.514-2.78 3.113-2.745V-3.801C2.585-3.766 1.723-3.748 .528-3.748V-6.598C2.18-6.598 3.358-6.581 4.063-6.545V-7.601C3.535-7.566 2.356-7.548 .528-7.548V-10.24C.528-10.804 .545-11.472 .58-12.246H-.527C-.493-11.507-.475-10.892-.475-10.399V-7.548H-3.588C-3.693-8.71-3.992-9.642-4.484-10.346-4.977-11.05-5.733-11.753-6.753-12.457-7.07-12.035-7.404-11.718-7.756-11.507-6.771-11.05-6.024-10.496-5.513-9.844-5.004-9.194-4.714-8.428-4.643-7.548-6.191-7.548-7.333-7.566-8.072-7.601V-6.545C-7.369-6.581-6.191-6.598-4.537-6.598V-3.748C-5.592-3.748-6.489-3.766-7.228-3.801V-2.745C-6.806-2.78-5.839-2.798-4.326-2.798-4.678-2.024-5.1-1.355-5.592-.792-5.1-.511-4.766-.299-4.59-.158-3.851-1.108-3.376-1.813-3.165-2.27-3.447-2.446-3.729-2.622-4.01-2.798H-.844C-.493-1.953-.211-1.021 0 0M-.475-3.748H-3.5349999V-6.5979998H-.475ZM-.475-6.598" fill="#2c292a"/>
<path transform="matrix(1,0,0,-1,237.4973,331.0353)" d="M0 0V1.161C0 1.407-.018 1.742-.053 2.164H1.108C1.072 1.812 1.055 1.231 1.055 .422V-7.548C1.055-8.358 1.072-9.061 1.108-9.66H-.053C-.018-9.061 0-8.586 0-8.234V-7.02H-2.374C-2.867-7.02-3.342-7.056-3.799-7.126V-6.07C-3.342-6.106-2.884-6.123-2.427-6.123H0V-3.748H-1.583C-2.076-3.748-2.603-3.766-3.166-3.801V-2.85C-2.603-2.886-2.058-2.903-1.53-2.903H0V-.897H-2.216C-2.638-.897-3.113-.915-3.64-.95V.053C-3.113 .017-2.638 0-2.216 0ZM8.019-7.126C7.667-7.056 7.193-7.02 6.595-7.02H3.957V-8.234C3.957-8.903 3.974-9.43 4.01-9.818H2.902C2.936-9.43 2.954-8.938 2.954-8.34V.317C2.954 1.267 2.936 1.917 2.902 2.27H4.062C3.992 1.917 3.957 1.548 3.957 1.161V0H6.437C6.964 0 7.439 .017 7.861 .053V-.95C7.439-.915 6.929-.897 6.331-.897H3.957V-2.903H6.173C6.665-2.903 7.087-2.886 7.439-2.85V-3.801C7.122-3.766 6.7-3.748 6.173-3.748H3.957V-6.123H6.595C7.122-6.123 7.597-6.106 8.019-6.07Z" fill="#2c292a"/>
<path transform="matrix(1,0,0,-1,259.2339,336.1554)" d="M0 0V-.95C-.352-.915-.932-.897-1.741-.897-1.741-1.813-1.724-2.534-1.688-3.062H-2.744V-2.534H-5.592V-3.537C-5.628-3.959-5.777-4.24-6.041-4.381-6.305-4.521-6.824-4.645-7.597-4.751-7.668-4.398-7.844-4.012-8.125-3.589-7.492-3.589-7.07-3.571-6.859-3.537-6.648-3.501-6.542-3.396-6.542-3.22V-2.534H-9.497C-9.884-2.534-10.341-2.552-10.868-2.586V-1.636C-10.341-1.672-9.884-1.689-9.497-1.689H-6.542V-.897H-10.499C-10.957-.897-11.396-.915-11.818-.95V0C-11.396-.036-10.957-.053-10.499-.053H-6.542V.686H-9.602C-9.99 .686-10.412 .668-10.868 .633V1.584C-10.412 1.548-9.99 1.531-9.602 1.531H-6.542V2.217H-10.235C-10.201 2.745-10.183 3.22-10.183 3.642-10.183 4.099-10.201 4.539-10.235 4.962H-6.542V5.701H-10.288C-10.851 5.701-11.379 5.683-11.871 5.648V6.598C-11.379 6.563-10.868 6.545-10.341 6.545H-6.542C-6.542 6.791-6.56 7.108-6.595 7.495H-5.54C-5.575 7.213-5.592 6.897-5.592 6.545H-2.005C-1.407 6.545-.791 6.563-.158 6.598V5.648C-.791 5.683-1.407 5.701-2.005 5.701H-5.592V4.962H-1.794C-1.829 4.539-1.847 4.099-1.847 3.642-1.847 3.184-1.829 2.709-1.794 2.217H-5.592V1.531H-1.688C-1.724 1.178-1.741 .651-1.741-.053-1.214-.053-.633-.036 0 0M-6.542 4.117H-9.233V3.061H-6.542ZM-2.849 4.117H-5.592V3.061H-2.849ZM-2.744 .686H-5.593V-.053000034H-2.744ZM-2.744-.897H-5.593V-1.689H-2.744ZM-2.744-1.689" fill="#2c292a"/>
<path transform="matrix(1,0,0,-1,268.4139,333.9385)" d="M0 0C-.071-.739-.176-1.531-.317-2.375H2.163C2.796-2.375 3.464-2.358 4.168-2.323V-3.325C3.429-3.291 2.744-3.273 2.11-3.273H-.58C-.897-3.977-1.372-4.592-2.005-5.12-2.638-5.648-3.377-6.061-4.221-6.361-5.065-6.659-5.822-6.897-6.489-7.073-6.63-6.651-6.93-6.316-7.386-6.07-6.366-5.965-5.276-5.674-4.115-5.199-2.954-4.724-2.146-4.083-1.688-3.273H-5.434C-6.067-3.273-6.771-3.291-7.544-3.325V-2.323C-6.736-2.358-6.033-2.375-5.434-2.375H-1.319C-1.213-1.777-1.134-1.135-1.082-.449-1.029 .238-1.021 1.073-1.055 2.059-.633 1.918-.194 1.812 .264 1.742 .158 1.32 .07 .739 0 0M-.844 3.589H3.746C3.711 3.202 3.693 2.815 3.693 2.428 3.693 2.076 3.711 1.689 3.746 1.267H2.533V2.745H-5.856V1.161H-7.017C-6.982 1.584-6.964 1.988-6.964 2.375-6.964 2.798-6.982 3.202-7.017 3.589H-2.163C-2.269 4.012-2.462 4.504-2.743 5.067-2.462 5.173-2.076 5.296-1.583 5.437-1.302 4.873-1.055 4.257-.844 3.589M-3.482-1.32C-3.623-1.531-3.834-1.813-4.115-2.164-5.1-1.425-5.892-.933-6.489-.686-6.278-.475-6.103-.194-5.962 .158-5.364-.124-4.537-.616-3.482-1.32M-1.794 .317C-2.04 .035-2.251-.247-2.427-.528-3.553 .281-4.379 .774-4.906 .95-4.731 1.196-4.537 1.478-4.326 1.795ZM2.216-5.094C2.919-5.463 3.535-5.806 4.062-6.123 3.816-6.404 3.552-6.704 3.271-7.02 2.638-6.563 1.952-6.131 1.214-5.727 .475-5.323-.158-5.015-.686-4.803-.405-4.452-.176-4.153 0-3.906 .773-4.328 1.512-4.724 2.216-5.094" fill="#2c292a"/>
<path transform="matrix(1,0,0,-1,227.3011,295.0972)" stroke-width="1" stroke-linecap="butt" stroke-miterlimit="10" stroke-linejoin="miter" fill="none" stroke="#f43040" d="M0 0C.042 1.799 1.547 3.304 3.377 3.378H39.206C41.072 3.304 42.576 1.799 42.582 0V-13.513C42.576-15.363 41.072-16.868 39.206-16.891H3.377C1.547-16.868 .042-15.363 0-13.513V0Z"/>
<path transform="matrix(1,0,0,-1,143.9473,303.983)" d="M0 0C.687 .875 1.164 1.775 1.43 2.698 1.696 3.62 1.844 4.481 1.876 5.279 1.907 6.076 1.891 6.913 1.829 7.789 2.173 7.757 2.563 7.726 3.001 7.695 2.908 7.194 2.861 6.678 2.861 6.147 2.861 5.614 2.892 5.004 2.954 4.317 3.017 3.628 3.462 2.588 4.291 1.196 5.119-.196 6.331-1.236 7.926-1.924 7.55-2.299 7.3-2.611 7.175-2.862 4.986-1.799 3.424 .125 2.486 2.909 1.86 .438 .344-1.533-2.063-3.003-2.251-2.752-2.517-2.487-2.861-2.205-1.641-1.611-.688-.876 0 0" fill="#2c292a"/>
<path transform="matrix(1,0,0,-1,169.644,297.5549)" d="M0 0C-.563 .031-1.048 .047-1.454 .047H-4.221C-4.44-.392-4.706-.876-5.018-1.408V-7.273C-5.018-7.899-5.003-8.602-4.971-9.384H-6.003C-5.972-8.633-5.956-7.929-5.956-7.273V-2.674C-6.925-4.02-8.238-5.255-9.895-6.381-10.146-6.006-10.38-5.74-10.599-5.583-9.974-5.302-9.145-4.7-8.113-3.777-7.081-2.855-6.128-1.58-5.252 .047H-8.348C-8.942 .047-9.567 .031-10.224 0V.938C-9.286 .907-8.567 .891-8.066 .891H-1.501C-1.095 .891-.594 .907 0 .938ZM-4.174-2.768C-3.924-2.55-3.721-2.331-3.564-2.111-2.814-2.8-2.173-3.402-1.641-3.918-1.11-4.434-.61-4.943-.141-5.443-.454-5.693-.735-5.959-.985-6.24-1.579-5.49-2.642-4.333-4.174-2.768" fill="#2c292a"/>
<path transform="matrix(1,0,0,-1,180.1959,297.1327)" d="M0 0C.5 0 1.032 .015 1.594 .047V-.845C1.094-.814 .578-.798 .047-.798H-.235V-8.539C-.235-9.102-.399-9.47-.727-9.642-1.055-9.814-1.72-9.947-2.72-10.041-2.783-9.634-2.908-9.259-3.095-8.915-2.439-8.946-1.97-8.93-1.688-8.868-1.407-8.805-1.266-8.633-1.266-8.352V-.798H-6.894C-7.707-.798-8.441-.814-9.098-.845V.047C-8.441 .015-7.723 0-6.941 0ZM-3.048-3.566V-5.865C-3.048-6.397-3.033-6.85-3.001-7.226H-3.986V-6.381H-6.659V-7.648H-7.597C-7.567-7.429-7.55-7.07-7.55-6.569V-3.566C-7.55-3.066-7.567-2.612-7.597-2.205H-3.001C-3.033-2.612-3.048-3.066-3.048-3.566M-3.986-3.003H-6.6590006V-5.584H-3.986ZM-3.986-5.583" fill="#2c292a"/>
<path transform="matrix(1,0,0,-1,187.7462,299.61943)" d="M0 0C-1.032-.063-1.892-.125-2.579-.188-3.267-.251-3.783-.328-4.127-.422-4.221-.047-4.331 .282-4.455 .563-4.237 .657-3.901 .993-3.447 1.572-2.994 2.15-2.626 2.768-2.345 3.425-2.189 3.3-2.017 3.206-1.829 3.144-1.641 3.081-1.438 3.003-1.219 2.909-1.47 2.721-1.728 2.44-1.993 2.064-2.259 1.689-2.689 1.157-3.283 .469-1.97 .532-1.001 .578-.375 .61-.75 1.11-1.016 1.438-1.172 1.595-.954 1.72-.704 1.892-.422 2.111-.172 1.767 .07 1.455 .305 1.173 .539 .891 .844 .532 1.219 .094 .875-.157 .593-.36 .375-.516 .281-.36 .156-.188 0 0M-.563-6.405C-.501-6.295-.469-6.131-.469-5.912V-5.255H-3.001V-7.46H-3.893C-3.862-6.834-3.846-6.272-3.846-5.771V-2.628C-3.846-2.064-3.862-1.564-3.893-1.126H.422C.39-1.595 .375-2.111 .375-2.674V-6.616C.344-6.96 .203-7.179-.047-7.273-.298-7.366-.657-7.444-1.126-7.507-1.189-7.226-1.313-6.913-1.501-6.569-.938-6.569-.626-6.514-.563-6.405M-.469-1.877H-3.0010002V-2.768H-.469ZM-.469-3.519H-3.0010002V-4.504H-.469ZM2.392 1.408C2.829 1.595 3.251 1.79 3.658 1.994 4.064 2.197 4.471 2.455 4.877 2.768 5.127 2.455 5.346 2.189 5.534 1.971 5.346 1.908 4.948 1.728 4.338 1.431 3.728 1.133 3.079 .875 2.392 .657V-.047C2.392-.422 2.61-.61 3.048-.61H4.408C4.72-.61 4.924-.204 5.018 .61 5.33 .453 5.643 .312 5.956 .188 5.737-.814 5.346-1.314 4.783-1.314H2.673C1.923-1.314 1.548-.97 1.548-.282V2.111C1.548 2.487 1.531 2.893 1.501 3.331H2.439C2.407 3.112 2.392 2.658 2.392 1.971ZM4.479-3.707C3.869-3.988 3.173-4.254 2.392-4.504V-5.818C2.392-6.193 2.563-6.381 2.908-6.381H4.596C4.846-6.318 5.018-5.928 5.112-5.208 5.362-5.333 5.674-5.459 6.05-5.583 5.831-6.584 5.471-7.085 4.971-7.085H2.439C1.844-7.085 1.548-6.787 1.548-6.193V-3.144C1.548-2.674 1.531-2.252 1.501-1.877H2.439C2.407-2.252 2.392-2.659 2.392-3.097V-3.707C2.704-3.613 3.119-3.441 3.634-3.191 4.15-2.941 4.564-2.674 4.877-2.393 5.159-2.768 5.393-3.05 5.581-3.237 5.455-3.269 5.088-3.425 4.479-3.707" fill="#2c292a"/>
<path transform="matrix(1,0,0,-1,203.0376,296.1473)" d="M0 0H1.032C1-.469 .985-1.33 .985-2.581 1.735-2.581 2.313-2.565 2.72-2.534V-3.425C2.345-3.394 1.766-3.378 .985-3.378V-5.161C1.141-5.005 1.313-4.817 1.501-4.598 2.063-5.193 2.548-5.771 2.954-6.334 2.767-6.46 2.533-6.663 2.251-6.944 1.907-6.35 1.485-5.803 .985-5.302V-8.868C.985-9.4 1-10.088 1.032-10.932H0C.031-10.088 .047-9.416 .047-8.915V-5.724C-.36-6.882-.829-7.805-1.36-8.493-1.579-8.149-1.798-7.883-2.017-7.695-1.798-7.507-1.485-7.015-1.079-6.217-.673-5.419-.36-4.474-.141-3.378-.829-3.378-1.391-3.394-1.829-3.425V-2.534C-1.266-2.565-.641-2.581 .047-2.581 .047-1.298 .031-.438 0 0M8.441-3.05V-8.352C8.441-9.196 8.457-10.025 8.488-10.839H7.55V-9.947H4.033V-10.932H3.095C3.126-9.994 3.142-9.181 3.142-8.493V-3.003C3.142-2.19 3.126-1.424 3.095-.704H8.488C8.457-1.455 8.441-2.237 8.441-3.05M7.55-1.501H4.033V-3.565H7.55ZM7.55-4.317H4.033V-6.194H7.55ZM7.55-6.991H4.033V-9.149H7.55ZM7.55-9.149" fill="#2c292a"/>
<path transform="matrix(1,0,0,-1,215.5592,298.4464)" d="M0 0V-6.428C0-7.366 .015-8.101 .047-8.633H-.985C-.891-8.07-.844-7.32-.844-6.381V-1.642C-1.219-2.393-1.579-3.019-1.923-3.519-2.11-3.207-2.345-2.956-2.626-2.768-2.283-2.393-1.861-1.729-1.36-.774-.86 .18-.485 1.188-.235 2.252 .109 2.127 .484 2.001 .891 1.877 .703 1.689 .406 1.063 0 0M8.301-.141C7.675-.11 6.44-.094 4.596-.094 2.751-.094 1.501-.11 .844-.141V.657H8.301ZM7.597-1.83C7.065-1.799 6.096-1.783 4.69-1.783 3.283-1.783 2.235-1.799 1.548-1.83V-1.032C2.141-1.064 3.157-1.079 4.596-1.079 6.065-1.079 7.065-1.064 7.597-1.032ZM7.597-3.472C7.159-3.441 6.206-3.425 4.737-3.425 3.298-3.425 2.235-3.441 1.548-3.472V-2.674C2.204-2.706 3.267-2.721 4.737-2.721 6.237-2.721 7.19-2.706 7.597-2.674ZM7.457-6.381C7.457-7.226 7.472-7.866 7.504-8.305H6.612V-7.507H2.579V-8.493H1.641C1.672-8.023 1.688-7.366 1.688-6.522 1.688-5.647 1.672-4.974 1.641-4.504H7.504C7.472-4.88 7.457-5.506 7.457-6.381M6.612-5.161H2.579V-6.7559998H6.612ZM4.737 1.689C4.83 1.47 4.924 1.235 5.018 .985 4.737 .891 4.455 .813 4.174 .751 3.955 1.408 3.767 1.814 3.611 1.971 3.923 2.095 4.204 2.205 4.455 2.299 4.549 2.111 4.643 1.908 4.737 1.689" fill="#2c292a"/>
<path transform="matrix(1,0,0,-1,241.6808,297.5549)" d="M0 0C-.563 .031-1.048 .047-1.454 .047H-4.221C-4.44-.392-4.706-.876-5.018-1.408V-7.273C-5.018-7.899-5.003-8.602-4.971-9.384H-6.003C-5.972-8.633-5.956-7.929-5.956-7.273V-2.674C-6.925-4.02-8.238-5.255-9.895-6.381-10.146-6.006-10.38-5.74-10.599-5.583-9.974-5.302-9.145-4.7-8.113-3.777-7.081-2.855-6.128-1.58-5.252 .047H-8.348C-8.942 .047-9.567 .031-10.224 0V.938C-9.286 .907-8.567 .891-8.066 .891H-1.501C-1.095 .891-.594 .907 0 .938ZM-4.174-2.768C-3.924-2.55-3.721-2.331-3.564-2.111-2.814-2.8-2.173-3.402-1.641-3.918-1.11-4.434-.61-4.943-.141-5.443-.454-5.693-.735-5.959-.985-6.24-1.579-5.49-2.642-4.333-4.174-2.768" fill="#2c292a"/>
<path transform="matrix(1,0,0,-1,252.2327,297.1327)" d="M0 0C.5 0 1.032 .015 1.595 .047V-.845C1.094-.814 .578-.798 .047-.798H-.235V-8.539C-.235-9.102-.399-9.47-.727-9.642-1.055-9.814-1.72-9.947-2.72-10.041-2.783-9.634-2.908-9.259-3.095-8.915-2.439-8.946-1.97-8.93-1.688-8.868-1.407-8.805-1.266-8.633-1.266-8.352V-.798H-6.894C-7.707-.798-8.442-.814-9.098-.845V.047C-8.442 .015-7.723 0-6.941 0ZM-3.048-3.566V-5.865C-3.048-6.397-3.033-6.85-3.001-7.226H-3.986V-6.381H-6.659V-7.648H-7.597C-7.567-7.429-7.55-7.07-7.55-6.569V-3.566C-7.55-3.066-7.567-2.612-7.597-2.205H-3.001C-3.033-2.612-3.048-3.066-3.048-3.566M-3.986-3.003H-6.6590006V-5.584H-3.986ZM-3.986-5.583" fill="#2c292a"/>
<path transform="matrix(1,0,0,-1,259.7832,299.61943)" d="M0 0C-1.032-.063-1.892-.125-2.579-.188-3.267-.251-3.783-.328-4.127-.422-4.221-.047-4.331 .282-4.455 .563-4.237 .657-3.901 .993-3.447 1.572-2.994 2.15-2.626 2.768-2.345 3.425-2.189 3.3-2.017 3.206-1.829 3.144-1.641 3.081-1.438 3.003-1.219 2.909-1.47 2.721-1.728 2.44-1.993 2.064-2.259 1.689-2.689 1.157-3.283 .469-1.97 .532-1.001 .578-.375 .61-.75 1.11-1.016 1.438-1.172 1.595-.954 1.72-.703 1.892-.422 2.111-.172 1.767 .07 1.455 .305 1.173 .539 .891 .844 .532 1.219 .094 .875-.157 .593-.36 .375-.516 .281-.36 .156-.188 0 0M-.563-6.405C-.501-6.295-.469-6.131-.469-5.912V-5.255H-3.001V-7.46H-3.893C-3.862-6.834-3.846-6.272-3.846-5.771V-2.628C-3.846-2.064-3.862-1.564-3.893-1.126H.422C.391-1.595 .375-2.111 .375-2.674V-6.616C.344-6.96 .203-7.179-.047-7.273-.297-7.366-.657-7.444-1.126-7.507-1.189-7.226-1.313-6.913-1.501-6.569-.938-6.569-.626-6.514-.563-6.405M-.469-1.877H-3.0010002V-2.768H-.469ZM-.469-3.519H-3.0010002V-4.504H-.469ZM2.392 1.408C2.829 1.595 3.251 1.79 3.658 1.994 4.064 2.197 4.471 2.455 4.877 2.768 5.127 2.455 5.346 2.189 5.534 1.971 5.346 1.908 4.947 1.728 4.338 1.431 3.728 1.133 3.079 .875 2.392 .657V-.047C2.392-.422 2.61-.61 3.048-.61H4.408C4.72-.61 4.924-.204 5.018 .61 5.33 .453 5.643 .312 5.956 .188 5.737-.814 5.346-1.314 4.783-1.314H2.673C1.923-1.314 1.548-.97 1.548-.282V2.111C1.548 2.487 1.531 2.893 1.501 3.331H2.439C2.407 3.112 2.392 2.658 2.392 1.971ZM4.479-3.707C3.869-3.988 3.173-4.254 2.392-4.504V-5.818C2.392-6.193 2.563-6.381 2.908-6.381H4.596C4.846-6.318 5.018-5.928 5.112-5.208 5.362-5.333 5.675-5.459 6.05-5.583 5.831-6.584 5.471-7.085 4.971-7.085H2.439C1.844-7.085 1.548-6.787 1.548-6.193V-3.144C1.548-2.674 1.531-2.252 1.501-1.877H2.439C2.407-2.252 2.392-2.659 2.392-3.097V-3.707C2.704-3.613 3.119-3.441 3.634-3.191 4.15-2.941 4.564-2.674 4.877-2.393 5.159-2.768 5.393-3.05 5.581-3.237 5.455-3.269 5.088-3.425 4.479-3.707" fill="#2c292a"/>
<path transform="matrix(1,0,0,-1,275.7706,298.4933)" d="M0 0H2.111C2.079-.532 2.064-1.205 2.064-2.018V-6.147C2.064-6.616 2.079-7.289 2.111-8.164H1.172V-7.226H-1.219V-8.258H-2.157C-2.126-7.257-2.11-6.632-2.11-6.381V-2.064C-2.11-1.22-2.126-.532-2.157 0H-.797C-.641 .719-.516 1.47-.422 2.252 .015 2.095 .375 1.986 .657 1.924 .5 1.642 .281 1.001 0 0M1.172-.798H-1.2199999V-3.144H1.172ZM1.172-3.941H-1.2199999V-6.428H1.172ZM7.41-7.085C7.347-7.648 7.05-8.023 6.519-8.211 5.987-8.399 5.393-8.523 4.737-8.586 4.705-8.242 4.564-7.883 4.315-7.507 4.94-7.538 5.432-7.523 5.792-7.46 6.151-7.398 6.378-7.257 6.472-7.038 6.566-6.82 6.636-6.178 6.683-5.114 6.73-4.051 6.769-2.565 6.8-.657H4.08C3.829-1.251 3.47-1.955 3.001-2.768 2.782-2.55 2.516-2.378 2.204-2.252 2.486-1.877 2.751-1.424 3.001-.891 3.251-.36 3.47 .218 3.658 .845 3.846 1.47 3.955 1.955 3.986 2.299 4.424 2.111 4.799 1.971 5.112 1.877 4.955 1.626 4.822 1.353 4.713 1.056 4.603 .758 4.486 .469 4.361 .188H7.691C7.66-.469 7.644-1.079 7.644-1.642 7.613-3.551 7.534-5.365 7.41-7.085M4.877-3.566C5.065-3.941 5.283-4.427 5.534-5.02 5.315-5.114 5.018-5.271 4.643-5.49 4.424-4.896 4.221-4.387 4.033-3.965 3.846-3.542 3.658-3.191 3.47-2.909 3.689-2.784 3.97-2.628 4.315-2.44Z" fill="#2c292a"/>
<path transform="matrix(1,0,0,-1,295.8427,302.8569)" d="M0 0V-.845C-.313-.814-.829-.798-1.548-.798-1.548-1.611-1.532-2.252-1.501-2.721H-2.439V-2.252H-4.971V-3.144C-5.003-3.519-5.135-3.769-5.37-3.894-5.604-4.019-6.066-4.129-6.753-4.223-6.816-3.91-6.972-3.566-7.222-3.191-6.66-3.191-6.284-3.174-6.097-3.144-5.909-3.112-5.815-3.019-5.815-2.862V-2.252H-8.442C-8.786-2.252-9.192-2.268-9.661-2.299V-1.455C-9.192-1.486-8.786-1.501-8.442-1.501H-5.815V-.798H-9.332C-9.739-.798-10.13-.814-10.505-.845V0C-10.13-.032-9.739-.047-9.332-.047H-5.815V.61H-8.535C-8.88 .61-9.255 .594-9.661 .563V1.408C-9.255 1.376-8.88 1.361-8.535 1.361H-5.815V1.971H-9.098C-9.067 2.44-9.051 2.862-9.051 3.237-9.051 3.644-9.067 4.035-9.098 4.41H-5.815V5.067H-9.145C-9.646 5.067-10.114 5.051-10.552 5.02V5.865C-10.114 5.833-9.661 5.818-9.192 5.818H-5.815C-5.815 6.037-5.831 6.318-5.862 6.663H-4.924C-4.956 6.412-4.971 6.13-4.971 5.818H-1.782C-1.251 5.818-.704 5.833-.141 5.865V5.02C-.704 5.051-1.251 5.067-1.782 5.067H-4.971V4.41H-1.595C-1.626 4.035-1.641 3.644-1.641 3.237-1.641 2.831-1.626 2.408-1.595 1.971H-4.971V1.361H-1.501C-1.532 1.048-1.548 .578-1.548-.047-1.079-.047-.563-.032 0 0M-5.815 3.66H-8.207V2.7220002H-5.815ZM-2.533 3.66H-4.972V2.7220002H-2.533ZM-2.439 .61H-4.9709999V-.04699999H-2.439ZM-2.439-.798H-4.9709999V-1.502H-2.439ZM-2.439-1.501" fill="#2c292a"/>
<path transform="matrix(1,0,0,-1,118.749,215.63849)" d="M0 0V-4.645C0-5.232 .023-5.724 .07-6.123H-.668C-.645-5.724-.633-5.232-.633-4.645V-1.196C-.938-1.759-1.173-2.17-1.337-2.428-1.501-2.217-1.688-2.053-1.899-1.935-1.595-1.607-1.237-1.027-.827-.194-.417 .639-.141 1.36 0 1.971 .375 1.806 .656 1.689 .844 1.619 .633 1.337 .352 .797 0 0M1.161 .633H1.899C1.876 .328 1.864-.235 1.864-1.056L2.99-.704V.739C2.99 1.208 2.966 1.607 2.919 1.935H3.658C3.634 1.607 3.623 1.196 3.623 .704V-.457L5.522 .211C5.498-1.033 5.487-1.9 5.487-2.393 5.487-2.886 5.358-3.191 5.1-3.308 4.842-3.426 4.514-3.519 4.115-3.589 4.068-3.355 3.974-3.109 3.834-2.85 4.279-2.85 4.549-2.833 4.643-2.798 4.736-2.762 4.783-2.651 4.783-2.463L4.819-.704 3.623-1.126V-3.378C3.623-3.777 3.634-4.117 3.658-4.399H2.955C2.978-4.117 2.99-3.777 2.99-3.378V-1.302L1.864-1.689V-4.715C1.864-5.044 2.028-5.197 2.357-5.173H4.854C5.041-5.173 5.182-5.12 5.276-5.015 5.369-4.909 5.44-4.575 5.487-4.012 5.768-4.223 6.038-4.352 6.296-4.399 6.132-5.009 5.956-5.396 5.768-5.56 5.58-5.724 5.311-5.794 4.959-5.771H2.216C1.583-5.794 1.243-5.513 1.196-4.927V-1.9C.844-2.018 .563-2.135 .352-2.252L.07-1.584C.375-1.537 .75-1.431 1.196-1.267 1.196-.352 1.184 .282 1.161 .633" fill="#2c292a"/>
<path transform="matrix(1,0,0,-1,127.2607,213.73819)" d="M0 0H.703C.68-.329 .668-.915 .668-1.76 1.02-1.76 1.43-1.748 1.899-1.724V-2.323C1.313-2.299 .902-2.287 .668-2.287V-3.871C.879-3.801 1.219-3.613 1.688-3.308 1.735-3.519 1.805-3.719 1.899-3.906 1.477-4.094 1.067-4.293 .668-4.504V-6.897C.691-7.366 .586-7.659 .352-7.777 .117-7.894-.281-7.988-.844-8.059-.914-7.73-1.008-7.495-1.126-7.355-.563-7.355-.229-7.32-.123-7.249-.018-7.179 .035-7.026 .035-6.792V-4.751C-.551-5.032-.938-5.232-1.126-5.349-1.196-5.138-1.313-4.915-1.477-4.68-1.126-4.587-.622-4.399 .035-4.117V-2.287C-.457-2.287-.927-2.299-1.372-2.323V-1.724C-.95-1.748-.481-1.76 .035-1.76 .035-1.009 .023-.422 0 0M6.19-2.886C6.19-4.035 6.202-4.786 6.226-5.138H5.522V-4.575H2.814V-6.792C2.814-7.167 2.978-7.366 3.306-7.39H5.311C5.592-7.39 5.78-7.32 5.874-7.179 5.967-7.038 6.05-6.721 6.12-6.229 6.354-6.417 6.6-6.545 6.859-6.616 6.694-7.156 6.53-7.507 6.366-7.671 6.202-7.835 5.991-7.918 5.733-7.918H3.095C2.462-7.918 2.157-7.566 2.181-6.862V-1.935C2.181-1.302 2.169-.88 2.146-.669H6.226C6.202-.997 6.19-1.736 6.19-2.886M3.834-1.196H2.8140002V-4.011H3.834ZM5.522-1.196H4.467V-4.011H5.522ZM5.522-4.012" fill="#2c292a"/>
<path transform="matrix(1,0,0,-1,138.9029,214.68842)" d="M0 0C-.211-.07-.657-.176-1.337-.317V-1.654H.492C.492-1.021 .48-.141 .457 .985 .715 .938 .973 .915 1.231 .915 1.184 .563 1.161 .164 1.161-.282V-1.654H2.743C3.095-1.654 3.505-1.642 3.975-1.619V-2.252C3.505-2.229 3.107-2.217 2.779-2.217H1.196C1.266-3.343 1.418-4.152 1.653-4.645 2.145-4.176 2.568-3.484 2.919-2.569 3.107-2.733 3.353-2.886 3.658-3.026 3.47-3.237 3.224-3.584 2.919-4.064 2.614-4.546 2.298-4.95 1.97-5.279 2.157-5.56 2.357-5.795 2.568-5.982 2.779-6.17 2.948-6.281 3.078-6.317 3.206-6.352 3.3-6.281 3.359-6.105 3.417-5.93 3.458-5.678 3.482-5.349 3.716-5.513 3.962-5.654 4.221-5.771 4.033-6.428 3.834-6.838 3.623-7.003 3.412-7.167 3.107-7.144 2.708-6.932 2.309-6.721 1.899-6.322 1.477-5.736 .68-6.299 .047-6.698-.422-6.932-.563-6.674-.739-6.463-.95-6.299-.246-6.065 .445-5.678 1.126-5.138 .797-4.481 .598-3.507 .528-2.217H-1.337V-3.589C-.797-3.472-.387-3.355-.105-3.237-.082-3.472-.059-3.695-.035-3.906-.34-3.976-.774-4.082-1.337-4.223V-6.017C-1.313-6.463-1.454-6.75-1.759-6.88-2.064-7.008-2.415-7.108-2.814-7.179-2.837-6.92-2.954-6.651-3.166-6.369-2.697-6.369-2.386-6.34-2.233-6.281-2.081-6.223-2.005-6.088-2.005-5.877V-4.399C-2.896-4.634-3.482-4.798-3.763-4.891-3.787-4.563-3.857-4.293-3.975-4.082-3.552-4.035-2.896-3.918-2.005-3.73V-2.217C-2.919-2.217-3.552-2.229-3.904-2.252V-1.619C-3.529-1.642-2.896-1.654-2.005-1.654V-.493L-3.482-.809C-3.552-.552-3.646-.329-3.763-.141-3.412-.141-2.867-.059-2.128 .106-1.389 .269-.833 .457-.457 .669-.223 .34-.07 .117 0 0M3.447-.704C3.259-.845 3.072-1.009 2.884-1.196 2.509-.681 2.11-.258 1.688 .07 1.876 .234 2.028 .399 2.145 .563 2.755 0 3.189-.422 3.447-.704" fill="#2c292a"/>
<path transform="matrix(1,0,0,-1,146.2188,214.54611)" d="M0 0H3.869C4.291 0 4.69 .012 5.065 .035V-.597C4.69-.574 4.291-.562 3.869-.562H-.281C-.399-.797-.58-1.095-.827-1.458-1.073-1.822-1.313-2.132-1.548-2.39-1.736-2.202-1.97-2.073-2.251-2.003-1.947-1.745-1.595-1.306-1.196-.685-.797-.065-.516 .503-.352 1.019-.094 .902 .176 .796 .457 .703 .317 .492 .164 .258 0 0M4.889-7.221C4.56-7.279 4.279-7.121 4.045-6.747 3.81-6.372 3.646-5.945 3.552-5.464 3.458-4.984 3.435-4.287 3.482-3.373H-.387C-.762-3.373-1.161-3.385-1.583-3.409V-2.776C-1.161-2.8-.762-2.811-.387-2.811H4.221C4.173-3.538 4.156-4.1 4.168-4.498 4.18-4.897 4.238-5.253 4.344-5.57 4.449-5.886 4.566-6.126 4.696-6.29 4.824-6.454 4.995-6.079 5.206-5.166 5.463-5.47 5.686-5.646 5.874-5.693 5.545-6.653 5.217-7.163 4.889-7.221M3.271-1.37C3.646-1.37 4.021-1.359 4.397-1.335V-1.968C4.021-1.945 3.646-1.933 3.271-1.933H.668C.293-1.933-.082-1.945-.457-1.968V-1.37C-.082-1.394 .293-1.394 .668-1.37Z" fill="#2c292a"/>
<path transform="matrix(1,0,0,-1,154.0622,216.3775)" d="M0 0-.528-.422C-.739-.094-1.008 .258-1.337 .633-1.149 .797-.997 .938-.879 1.056-.621 .774-.329 .422 0 0M-.615-1.619C-.393-1.548-.153-1.466 .106-1.372V.246C.106 .88 .093 1.408 .07 1.83H3.166C3.095 2.134 3.013 2.393 2.919 2.604 3.177 2.651 3.447 2.71 3.728 2.78 3.822 2.475 3.904 2.158 3.975 1.83H5.628C6.026 1.83 6.437 1.841 6.859 1.865V1.232C6.46 1.255 6.061 1.267 5.663 1.267H.774V-.211C.774-.774 .762-1.372 .739-2.006 .715-2.639 .627-3.261 .475-3.871 .322-4.481 .07-5.044-.281-5.56-.516-5.396-.762-5.243-1.02-5.103-.575-4.68-.293-4.229-.176-3.748-.059-3.267 .023-2.687 .07-2.006-.54-2.287-.914-2.487-1.055-2.604-1.126-2.323-1.208-2.065-1.301-1.83-1.067-1.759-.839-1.689-.615-1.619M5.821-1.654C5.833-2.499 5.909-3.214 6.05-3.801 6.19-4.387 6.284-4.61 6.331-4.469 6.378-4.328 6.425-4.047 6.472-3.625 6.659-3.883 6.87-4.035 7.105-4.082 6.941-4.903 6.724-5.343 6.454-5.402 6.184-5.46 5.927-5.208 5.68-4.645 5.434-4.082 5.294-3.314 5.258-2.34 5.223-1.367 5.217-.657 5.241-.211H2.146C2.146-1.079 2.133-1.772 2.11-2.287 2.087-2.804 2.016-3.314 1.899-3.818 1.782-4.323 1.524-4.879 1.126-5.49 .938-5.325 .715-5.184 .457-5.067 .809-4.739 1.073-4.323 1.249-3.818 1.425-3.314 1.512-2.639 1.512-1.795 1.512-.95 1.5-.235 1.477 .352H5.874C5.827-.141 5.809-.809 5.821-1.654M3.799-2.076C3.986-1.678 4.138-1.196 4.256-.633 4.49-.727 4.736-.798 4.995-.845 4.83-1.126 4.69-1.42 4.573-1.724 4.455-2.029 4.326-2.335 4.186-2.639 4.467-3.132 4.771-3.707 5.1-4.364 4.889-4.481 4.678-4.586 4.467-4.68 4.279-4.188 4.056-3.707 3.799-3.237 3.447-3.824 3.072-4.328 2.673-4.751 2.556-4.657 2.368-4.528 2.11-4.364 2.368-4.152 2.608-3.901 2.831-3.607 3.054-3.314 3.259-3.003 3.447-2.674 3.142-2.182 2.802-1.713 2.427-1.267 2.591-1.126 2.767-.985 2.954-.845 3.259-1.267 3.54-1.678 3.799-2.076" fill="#2c292a"/>
<path transform="matrix(1,0,0,-1,169.3273,214.19571)" d="M0 0V-.774C-.258-.868-.739-1.15-1.442-1.619-2.146-2.088-2.65-2.44-2.954-2.674V-6.686C-2.978-7.085-3.183-7.337-3.57-7.443-3.957-7.548-4.35-7.624-4.748-7.671-4.866-7.179-4.983-6.85-5.1-6.686-4.514-6.71-4.139-6.704-3.975-6.669-3.811-6.633-3.728-6.475-3.728-6.193V-3.378C-3.728-2.839-3.763-2.463-3.834-2.252-3.435-2.088-2.568-1.548-1.231-.633H-4.959C-5.522-.657-6.062-.669-6.577-.669V.035C-6.062 .012-5.64 0-5.311 0Z" fill="#2c292a"/>
<path transform="matrix(1,0,0,-1,186.6191,214.68842)" d="M0 0C-.211-.07-.657-.176-1.337-.317V-1.654H.492C.492-1.021 .48-.141 .457 .985 .715 .938 .973 .915 1.231 .915 1.184 .563 1.161 .164 1.161-.282V-1.654H2.743C3.095-1.654 3.505-1.642 3.975-1.619V-2.252C3.505-2.229 3.107-2.217 2.779-2.217H1.196C1.266-3.343 1.418-4.152 1.653-4.645 2.146-4.176 2.568-3.484 2.919-2.569 3.107-2.733 3.353-2.886 3.658-3.026 3.47-3.237 3.224-3.584 2.919-4.064 2.614-4.546 2.298-4.95 1.97-5.279 2.157-5.56 2.357-5.795 2.568-5.982 2.779-6.17 2.948-6.281 3.078-6.317 3.206-6.352 3.3-6.281 3.359-6.105 3.417-5.93 3.458-5.678 3.482-5.349 3.716-5.513 3.962-5.654 4.221-5.771 4.033-6.428 3.834-6.838 3.623-7.003 3.412-7.167 3.107-7.144 2.708-6.932 2.309-6.721 1.899-6.322 1.477-5.736 .68-6.299 .047-6.698-.422-6.932-.563-6.674-.739-6.463-.95-6.299-.246-6.065 .445-5.678 1.126-5.138 .797-4.481 .598-3.507 .528-2.217H-1.337V-3.589C-.797-3.472-.387-3.355-.105-3.237-.082-3.472-.059-3.695-.035-3.906-.34-3.976-.774-4.082-1.337-4.223V-6.017C-1.313-6.463-1.454-6.75-1.759-6.88-2.064-7.008-2.415-7.108-2.814-7.179-2.837-6.92-2.954-6.651-3.166-6.369-2.697-6.369-2.386-6.34-2.233-6.281-2.081-6.223-2.005-6.088-2.005-5.877V-4.399C-2.896-4.634-3.482-4.798-3.763-4.891-3.787-4.563-3.857-4.293-3.975-4.082-3.552-4.035-2.896-3.918-2.005-3.73V-2.217C-2.919-2.217-3.552-2.229-3.904-2.252V-1.619C-3.529-1.642-2.896-1.654-2.005-1.654V-.493L-3.482-.809C-3.552-.552-3.646-.329-3.763-.141-3.412-.141-2.867-.059-2.128 .106-1.389 .269-.833 .457-.457 .669-.223 .34-.07 .117 0 0M3.447-.704C3.259-.845 3.072-1.009 2.884-1.196 2.509-.681 2.11-.258 1.688 .07 1.876 .234 2.028 .399 2.146 .563 2.755 0 3.189-.422 3.447-.704" fill="#2c292a"/>
<path transform="matrix(1,0,0,-1,198.4724,214.37162)" d="M0 0C.375 0 .774 .012 1.196 .035V-.633C.82-.61 .434-.598 .035-.598H-.176V-6.405C-.176-6.827-.299-7.102-.545-7.232-.791-7.36-1.29-7.46-2.04-7.531-2.087-7.225-2.181-6.944-2.321-6.686-1.829-6.709-1.477-6.698-1.266-6.651-1.055-6.604-.95-6.475-.95-6.264V-.598H-5.17C-5.78-.598-6.331-.61-6.824-.633V.035C-6.331 .012-5.792 0-5.206 0ZM-2.286-2.674V-4.399C-2.286-4.798-2.275-5.138-2.251-5.419H-2.99V-4.786H-4.995V-5.736H-5.698C-5.675-5.572-5.663-5.302-5.663-4.927V-2.674C-5.663-2.299-5.675-1.959-5.698-1.654H-2.251C-2.275-1.959-2.286-2.299-2.286-2.674M-2.99-2.252H-4.995V-4.1870005H-2.99ZM-2.99-4.188" fill="#2c292a"/>
<path transform="matrix(1,0,0,-1,204.4165,218.59452)" d="M0 0C-.774-.587-1.712-1.455-2.814-2.604-3.025-2.369-3.201-2.194-3.341-2.076-3.154-1.842-3.06-1.584-3.06-1.302V2.604C-3.06 2.956-3.072 3.343-3.095 3.765H-2.286C-2.31 3.601-2.321 3.331-2.321 2.956V-1.126C-1.642-.516-1.044 .082-.528 .669-.364 .41-.188 .187 0 0M3.007 2.252C2.902 1.149 2.673 .246 2.321-.457 3.283-1.396 3.939-2.1 4.291-2.569 4.08-2.71 3.869-2.873 3.658-3.062 3.236-2.451 2.65-1.795 1.899-1.091 .985-2.1-.035-2.85-1.161-3.343-1.395-2.991-1.583-2.756-1.723-2.639-.716-2.335 .141-1.842 .844-1.161 1.548-.481 1.981 .44 2.146 1.601 2.309 2.762 2.38 3.753 2.357 4.575 2.755 4.481 3.083 4.41 3.341 4.364 3.224 4.058 3.113 3.355 3.007 2.252M0 3.783C.281 3.443 .598 3.026 .95 2.534 .739 2.393 .528 2.229 .317 2.041 .012 2.58-.551 3.319-1.372 4.258-1.184 4.375-.997 4.527-.809 4.715-.551 4.434-.281 4.123 0 3.783" fill="#2c292a"/>
<path transform="matrix(1,0,0,-1,209.4813,218.3129)" d="M0 0C.469 .117 .879 .234 1.231 .352V2.076H.985C.633 2.076 .352 2.064 .141 2.041V2.674C.352 2.651 .633 2.639 .985 2.639H1.231V3.449C1.231 3.847 1.207 4.234 1.161 4.61H1.97C1.922 4.328 1.899 3.988 1.899 3.589V2.639C2.157 2.639 2.415 2.651 2.673 2.674V2.041C2.415 2.064 2.157 2.076 1.899 2.076V.598C2.251 .786 2.509 .915 2.673 .985 2.673 .891 2.685 .669 2.708 .317 2.427 .199 2.157 .082 1.899-.035V-2.463C1.876-2.956 1.753-3.237 1.53-3.308 1.307-3.378 1.02-3.449 .668-3.519 .598-3.143 .504-2.862 .387-2.674 .762-2.721 1.002-2.727 1.108-2.692 1.214-2.657 1.254-2.511 1.231-2.252V-.317C1.043-.387 .715-.552 .246-.809 .199-.481 .117-.211 0 0M6.507 .211C6.929 .211 7.316 .223 7.668 .246V-.387C7.316-.364 6.941-.352 6.542-.352H5.874V-2.534H7.035C7.457-2.534 7.879-2.511 8.301-2.463V-3.132C7.879-3.108 7.48-3.097 7.105-3.097H4.186C3.623-3.097 3.201-3.108 2.919-3.132V-2.463C3.201-2.511 3.588-2.534 4.08-2.534H5.206V-.352H4.397C3.974-.352 3.623-.376 3.341-.422V.246C3.599 .223 3.939 .211 4.361 .211ZM5.17 3.66C5.1 3.918 4.995 4.199 4.854 4.504 5.065 4.551 5.334 4.61 5.663 4.68 5.756 4.399 5.85 4.058 5.944 3.66H8.195C8.172 3.401 8.16 3.132 8.16 2.85 8.16 2.569 8.172 2.323 8.195 2.111H7.492V3.026H3.728V2.111H3.025C3.048 2.346 3.06 2.58 3.06 2.815 3.06 3.073 3.048 3.355 3.025 3.66ZM4.713 1.478C4.478 1.196 4.127 .809 3.658 .317L3.095 .809C3.681 1.302 4.186 1.877 4.608 2.534 4.842 2.346 5.065 2.193 5.276 2.076 5.135 1.959 4.947 1.76 4.713 1.478M7.984 .845C7.867 .751 7.668 .61 7.386 .422 6.776 1.267 6.307 1.818 5.979 2.076 6.12 2.17 6.307 2.31 6.542 2.498 7.316 1.677 7.796 1.126 7.984 .845" fill="#2c292a"/>
<path transform="matrix(1,0,0,-1,219.6814,215.11069)" d="M0 0H1.02C1.02 .586 1.008 1.044 .985 1.372H1.794C1.77 1.067 1.759 .61 1.759 0H2.286C2.755 0 3.177 .012 3.552 .035V-.598C3.224-.575 2.814-.563 2.321-.563H1.759V-1.584H2.638C2.99-1.584 3.364-1.572 3.763-1.548V-2.147H1.759V-3.097H3.658C3.634-3.378 3.617-3.765 3.605-4.258 3.593-4.751 3.581-5.085 3.57-5.261 3.558-5.437 3.458-5.566 3.271-5.648 3.083-5.73 2.814-5.806 2.462-5.877 2.415-5.619 2.333-5.349 2.216-5.067 2.52-5.067 2.708-5.05 2.779-5.015 2.849-4.979 2.884-4.798 2.884-4.469V-3.66H1.759V-5.595C1.759-5.994 1.77-6.334 1.794-6.616H.985C1.008-6.17 1.02-5.83 1.02-5.595V-3.66H-.07V-5.877H-.809C-.786-5.572-.774-5.255-.774-4.927V-4.152C-.774-3.707-.786-3.355-.809-3.097H1.02V-2.147H-.106C-.528-2.147-.892-2.159-1.196-2.182V-1.548C-.892-1.572-.528-1.584-.106-1.584H1.02V-.563H-.211C-.329-.845-.446-1.079-.563-1.267-.774-1.126-.985-1.009-1.196-.915-1.032-.681-.892-.411-.774-.106-.657 .199-.551 .539-.457 .915-.223 .821 .047 .739 .352 .669 .211 .434 .093 .211 0 0M5.03-.633V-3.554C5.03-3.883 5.041-4.282 5.065-4.751H4.291C4.338-4.352 4.361-3.953 4.361-3.554V-.633C4.361-.399 4.338-.106 4.291 .246H5.065C5.041-.082 5.03-.376 5.03-.633M6.718 .282V-5.806C6.718-6.135 6.595-6.34 6.349-6.422 6.103-6.504 5.745-6.581 5.276-6.651 5.206-6.346 5.112-6.076 4.995-5.842 5.393-5.842 5.663-5.83 5.803-5.806 5.944-5.783 6.015-5.63 6.015-5.349V.282C6.015 .68 6.002 1.021 5.979 1.302H6.753C6.73 1.067 6.718 .727 6.718 .282" fill="#2c292a"/>
<path transform="matrix(1,0,0,-1,228.1932,217.74991)" d="M0 0C-.211 .07-.434 .117-.668 .141-.504 .493-.352 1.243-.211 2.393 0 2.346 .223 2.31 .457 2.287 .41 2.076 .258 1.314 0 0M1.301 2.991V-2.604C1.301-3.097 1.313-3.577 1.337-4.047H.598C.645-3.577 .668-3.097 .668-2.604V2.886C.668 3.355 .645 3.777 .598 4.152H1.337C1.313 3.753 1.301 3.366 1.301 2.991M1.477 2.393C1.641 2.416 1.841 2.463 2.075 2.534 2.216 2.041 2.333 1.665 2.427 1.408 2.169 1.337 1.946 1.267 1.759 1.196 1.711 1.478 1.618 1.877 1.477 2.393M2.321 1.372C2.884 1.349 3.4 1.337 3.869 1.337H4.573V1.9H3.904C3.505 1.9 3.095 1.888 2.673 1.865V2.463C3.095 2.44 3.505 2.428 3.904 2.428H4.573V2.921H3.834C3.459 2.921 3.001 2.909 2.462 2.886V3.484C3.025 3.46 3.482 3.449 3.834 3.449H4.573C4.573 3.683 4.56 3.918 4.537 4.152H5.276C5.252 3.918 5.241 3.683 5.241 3.449H6.191C6.589 3.449 6.964 3.46 7.316 3.484V2.886C6.964 2.909 6.589 2.921 6.191 2.921H5.241V2.428H5.909C6.284 2.428 6.671 2.44 7.07 2.463V1.865C6.648 1.888 6.261 1.9 5.909 1.9H5.241V1.337H6.261C6.824 1.337 7.281 1.349 7.633 1.372V.774C7.281 .797 6.811 .809 6.226 .809H3.904C3.294 .809 2.767 .797 2.321 .774ZM2.884-1.126C2.884-.587 2.872-.094 2.849 .352H6.859C6.835-.047 6.824-.422 6.824-.774V-3.413C6.824-3.671 6.73-3.836 6.542-3.906 6.354-3.976 6.12-4.035 5.839-4.082 5.815-3.871 5.733-3.648 5.592-3.413 5.921-3.413 6.108-3.378 6.155-3.308 6.202-3.237 6.226-2.98 6.226-2.534H3.517V-4.082H2.849C2.872-3.542 2.884-3.074 2.884-2.674ZM6.191-.176H3.518V-.809H6.191ZM6.191-1.337H3.518V-2.006H6.191ZM6.191-2.006" fill="#2c292a"/>
<path transform="matrix(1,0,0,-1,239.6244,220.6355)" d="M0 0C-.352-.047-.78-.129-1.284-.246-1.788-.363-2.286-.504-2.779-.669-2.873-.363-2.99-.106-3.13 .106-2.497 .176-1.987 .246-1.6 .317-1.214 .387-.668 .493 .035 .633-.012 .399-.024 .187 0 0M-1.354 5.49C-1.577 5.044-1.829 4.575-2.11 4.082H-1.055C-.821 4.457-.622 4.891-.457 5.384-.246 5.266 .023 5.173 .352 5.103 .234 4.985 .023 4.686-.282 4.205-.586 3.724-1.055 2.991-1.688 2.006-1.079 2.076-.54 2.134-.07 2.182-.141 1.947-.188 1.724-.211 1.513-.563 1.513-.938 1.496-1.337 1.46-1.736 1.425-2.134 1.349-2.532 1.232-2.58 1.443-2.638 1.677-2.708 1.935-2.544 1.982-2.334 2.158-2.075 2.463-1.817 2.768-1.571 3.132-1.337 3.554-1.899 3.554-2.392 3.484-2.814 3.343-2.884 3.577-2.978 3.836-3.095 4.117-2.838 4.258-2.568 4.598-2.286 5.138-2.005 5.677-1.771 6.24-1.583 6.827-1.325 6.709-1.032 6.604-.703 6.51-.915 6.275-1.132 5.935-1.354 5.49M1.723 6.968H2.427C2.403 6.592 2.392 6.217 2.392 5.842 2.579 5.842 2.86 5.853 3.236 5.877V5.279C2.884 5.302 2.603 5.314 2.392 5.314V4.188H2.638C2.919 4.54 3.189 4.915 3.447 5.314 3.705 5.712 3.916 6.099 4.08 6.475 4.314 6.287 4.584 6.135 4.889 6.017 4.654 5.783 4.402 5.478 4.133 5.103 3.863 4.727 3.634 4.422 3.447 4.188H3.974C4.397 4.188 4.83 4.199 5.276 4.223V3.625C4.854 3.648 4.42 3.66 3.974 3.66H3.06C2.779 3.378 2.52 3.085 2.286 2.78H4.467C4.443 2.428 4.432 1.947 4.432 1.337V.246C4.432-.012 4.443-.422 4.467-.985H3.799V-.598H1.407V-1.161H.739C.762-.645 .774-.164 .774 .282V1.478C.633 1.36 .41 1.161 .105 .88-.035 1.044-.2 1.208-.387 1.372 .152 1.771 .539 2.076 .774 2.287 .774 2.428 .762 2.592 .739 2.78H1.372C1.676 3.038 1.957 3.331 2.216 3.66H1.442C.926 3.66 .457 3.648 .035 3.625V4.223C.457 4.199 .926 4.188 1.442 4.188H1.759V5.314C1.266 5.314 .856 5.302 .527 5.279V5.877C.926 5.853 1.336 5.842 1.759 5.842 1.759 6.146 1.746 6.522 1.723 6.968M3.799 2.252H1.4779999V1.3720001H3.799ZM3.799 .774H1.4779999V.034999968H3.799ZM3.799 .035" fill="#2c292a"/>
<path transform="matrix(1,0,0,-1,138.8971,227.3201)" d="M0 0C-.211-.07-.657-.176-1.337-.317V-1.654H.492C.492-1.021 .48-.141 .457 .985 .715 .938 .973 .915 1.231 .915 1.184 .563 1.161 .164 1.161-.282V-1.654H2.743C3.095-1.654 3.505-1.642 3.975-1.619V-2.252C3.505-2.229 3.107-2.217 2.779-2.217H1.196C1.266-3.343 1.418-4.152 1.653-4.645 2.145-4.176 2.568-3.484 2.919-2.569 3.107-2.733 3.353-2.886 3.658-3.026 3.47-3.237 3.224-3.584 2.919-4.064 2.614-4.546 2.298-4.95 1.97-5.279 2.157-5.56 2.357-5.795 2.568-5.982 2.779-6.17 2.948-6.281 3.078-6.317 3.206-6.352 3.3-6.281 3.359-6.105 3.417-5.93 3.458-5.678 3.482-5.349 3.716-5.513 3.962-5.654 4.221-5.771 4.033-6.428 3.834-6.838 3.623-7.003 3.412-7.167 3.107-7.144 2.708-6.932 2.309-6.721 1.899-6.322 1.477-5.736 .68-6.299 .047-6.698-.422-6.932-.563-6.674-.739-6.463-.95-6.299-.246-6.065 .445-5.678 1.126-5.138 .797-4.481 .598-3.507 .528-2.217H-1.337V-3.589C-.797-3.472-.387-3.355-.105-3.237-.082-3.472-.059-3.695-.035-3.906-.34-3.976-.774-4.082-1.337-4.223V-6.017C-1.314-6.463-1.454-6.75-1.759-6.88-2.064-7.008-2.415-7.108-2.814-7.179-2.837-6.92-2.954-6.651-3.166-6.369-2.697-6.369-2.386-6.34-2.233-6.281-2.081-6.223-2.005-6.088-2.005-5.877V-4.399C-2.896-4.634-3.482-4.798-3.764-4.891-3.787-4.563-3.857-4.293-3.975-4.082-3.552-4.035-2.896-3.918-2.005-3.73V-2.217C-2.919-2.217-3.552-2.229-3.904-2.252V-1.619C-3.529-1.642-2.896-1.654-2.005-1.654V-.493L-3.482-.809C-3.552-.551-3.646-.329-3.764-.141-3.412-.141-2.867-.059-2.128 .106-1.389 .269-.833 .457-.457 .669-.223 .34-.07 .117 0 0M3.447-.704C3.259-.845 3.072-1.009 2.884-1.196 2.509-.681 2.11-.258 1.688 .07 1.876 .234 2.028 .399 2.145 .563 2.755 0 3.189-.422 3.447-.704" fill="#2c292a"/>
<path transform="matrix(1,0,0,-1,144.8413,228.53409)" d="M0 0C.398 .739 .704 1.483 .915 2.235 1.149 2.094 1.383 1.988 1.618 1.918 1.43 1.613 1.184 1.038 .879 .194V-4.064C.879-4.839 .891-5.402 .915-5.754H.211C.234-5.354 .246-4.78 .246-4.029V-.968C.012-1.343-.223-1.707-.457-2.059-.622-1.801-.797-1.613-.985-1.496-.727-1.238-.399-.739 0 0M2.462 1.003C2.462 1.402 2.45 1.707 2.427 1.918H3.13C3.107 1.707 3.095 1.402 3.095 1.003V.053C3.353 .053 3.646 .064 3.975 .088V-.545C3.576-.522 3.283-.51 3.095-.51V-1.777H3.975C3.951-2.106 3.939-2.575 3.939-3.185 3.939-3.795 3.951-4.253 3.975-4.557H3.306V-4.205H2.216V-4.944H1.548C1.571-4.616 1.583-4.088 1.583-3.361 1.583-2.634 1.571-2.106 1.548-1.777H2.462V-.51C2.04-.51 1.688-.522 1.407-.545V.088C1.665 .064 2.016 .053 2.462 .053ZM3.306-2.305H2.216V-3.677H3.306ZM4.344 0C4.59 .669 4.771 1.378 4.889 2.129 5.123 2.035 5.404 1.941 5.733 1.847 5.569 1.683 5.358 1.167 5.1 .299H5.944C6.389 .299 6.753 .311 7.035 .334V-.229C6.8-.206 6.6-.194 6.437-.194 6.46-1.648 6.249-2.915 5.803-3.994 6.202-4.557 6.648-4.944 7.14-5.155 6.882-5.366 6.706-5.566 6.612-5.754 6.237-5.495 5.827-5.085 5.382-4.522 4.982-5.015 4.455-5.472 3.799-5.894 3.658-5.706 3.482-5.53 3.271-5.366 3.881-5.132 4.455-4.675 4.995-3.994 4.713-3.455 4.49-2.634 4.326-1.531L4.186-1.847C4.045-1.684 3.869-1.531 3.658-1.39 3.869-1.132 4.098-.669 4.344 0M4.819-.933C5.006-2.153 5.194-2.95 5.382-3.325 5.639-2.645 5.78-1.613 5.803-.229H4.924C4.854-.417 4.748-.686 4.608-1.038Z" fill="#2c292a"/>
<path transform="matrix(1,0,0,-1,160.8448,227.3201)" d="M0 0C-.422 .023-.786 .035-1.09 .035H-3.166C-3.33-.294-3.529-.657-3.763-1.056V-5.454C-3.763-5.924-3.752-6.451-3.728-7.038H-4.502C-4.479-6.475-4.467-5.947-4.467-5.454V-2.006C-5.194-3.015-6.179-3.941-7.421-4.786-7.609-4.504-7.785-4.305-7.949-4.188-7.48-3.976-6.859-3.525-6.085-2.833-5.311-2.141-4.596-1.185-3.939 .035H-6.261C-6.706 .035-7.175 .023-7.668 0V.704C-6.964 .68-6.425 .669-6.05 .669H-1.126C-.821 .669-.446 .68 0 .704ZM-3.13-2.076C-2.943-1.912-2.791-1.748-2.673-1.584-2.11-2.1-1.63-2.551-1.231-2.938-.833-3.325-.457-3.707-.106-4.082-.34-4.27-.551-4.469-.739-4.68-1.184-4.117-1.982-3.25-3.13-2.076" fill="#2c292a"/>
<path transform="matrix(1,0,0,-1,163.6059,233.83029)" d="M0 0C-.692-.117-1.178-.223-1.46-.317-1.53-.012-1.612 .282-1.706 .563-1.284 .586-.938 .61-.668 .633-.399 .657-.076 .692 .299 .739V2.111H-.193C-.663 2.111-1.061 2.088-1.389 2.041V2.71C-.991 2.686-.628 2.674-.299 2.674H.299V3.836C-.17 3.812-.504 3.788-.703 3.765-.903 3.742-1.12 3.707-1.354 3.66-1.401 3.964-1.472 4.234-1.565 4.469-1.19 4.563-.856 4.797-.563 5.173-.27 5.548-.041 5.97 .123 6.44H-.404C-.803 6.44-1.178 6.428-1.53 6.405V7.073C-1.155 7.05-.791 7.038-.44 7.038H1.811C2.233 7.038 2.608 7.05 2.937 7.073V6.405C2.585 6.428 2.21 6.44 1.811 6.44H.369L1.002 6.018C.768 5.829 .545 5.595 .334 5.314 .123 5.032-.123 4.727-.404 4.399 .44 4.445 1.225 4.492 1.952 4.54 1.764 4.844 1.553 5.149 1.319 5.454 1.553 5.572 1.764 5.701 1.952 5.842 2.186 5.513 2.409 5.196 2.62 4.891 2.831 4.586 3.03 4.305 3.218 4.047 3.007 3.882 2.773 3.73 2.515 3.589 2.421 3.753 2.339 3.894 2.269 4.012 1.776 3.941 1.366 3.894 1.038 3.871V2.674H1.706C2.104 2.674 2.445 2.686 2.726 2.71V2.041C2.421 2.088 2.093 2.111 1.741 2.111H1.038V.809C1.694 .903 2.386 1.008 3.113 1.126 3.066 .891 3.03 .669 3.007 .457 1.694 .269 .691 .118 0 0M4.238 5.138V2.499C4.238 2.006 4.25 1.595 4.273 1.267H3.535C3.558 1.595 3.57 2.006 3.57 2.499V5.279C3.57 5.748 3.558 6.123 3.535 6.405H4.309C4.261 6.099 4.238 5.677 4.238 5.138M6.032 6.334V.563C6.032 .024 5.932-.293 5.733-.387 5.534-.481 5.106-.586 4.449-.704 4.379-.399 4.273-.117 4.133 .141 4.625 .141 4.947 .158 5.1 .194 5.252 .229 5.329 .422 5.329 .774V6.334C5.329 6.85 5.317 7.249 5.294 7.531H6.103C6.055 7.179 6.032 6.78 6.032 6.334" fill="#2c292a"/>
<path transform="matrix(1,0,0,-1,186.6191,227.3201)" d="M0 0C-.211-.07-.657-.176-1.337-.317V-1.654H.492C.492-1.021 .48-.141 .457 .985 .715 .938 .973 .915 1.231 .915 1.184 .563 1.161 .164 1.161-.282V-1.654H2.743C3.095-1.654 3.505-1.642 3.975-1.619V-2.252C3.505-2.229 3.107-2.217 2.779-2.217H1.196C1.266-3.343 1.418-4.152 1.653-4.645 2.146-4.176 2.568-3.484 2.919-2.569 3.107-2.733 3.353-2.886 3.658-3.026 3.47-3.237 3.224-3.584 2.919-4.064 2.614-4.546 2.298-4.95 1.97-5.279 2.157-5.56 2.357-5.795 2.568-5.982 2.779-6.17 2.948-6.281 3.078-6.317 3.206-6.352 3.3-6.281 3.359-6.105 3.417-5.93 3.458-5.678 3.482-5.349 3.716-5.513 3.962-5.654 4.221-5.771 4.033-6.428 3.834-6.838 3.623-7.003 3.412-7.167 3.107-7.144 2.708-6.932 2.309-6.721 1.899-6.322 1.477-5.736 .68-6.299 .047-6.698-.422-6.932-.563-6.674-.739-6.463-.95-6.299-.246-6.065 .445-5.678 1.126-5.138 .797-4.481 .598-3.507 .528-2.217H-1.337V-3.589C-.797-3.472-.387-3.355-.105-3.237-.082-3.472-.059-3.695-.035-3.906-.34-3.976-.774-4.082-1.337-4.223V-6.017C-1.313-6.463-1.454-6.75-1.759-6.88-2.064-7.008-2.415-7.108-2.814-7.179-2.837-6.92-2.954-6.651-3.166-6.369-2.697-6.369-2.386-6.34-2.233-6.281-2.081-6.223-2.005-6.088-2.005-5.877V-4.399C-2.896-4.634-3.482-4.798-3.763-4.891-3.787-4.563-3.857-4.293-3.975-4.082-3.552-4.035-2.896-3.918-2.005-3.73V-2.217C-2.919-2.217-3.552-2.229-3.904-2.252V-1.619C-3.529-1.642-2.896-1.654-2.005-1.654V-.493L-3.482-.809C-3.552-.551-3.646-.329-3.763-.141-3.412-.141-2.867-.059-2.128 .106-1.389 .269-.833 .457-.457 .669-.223 .34-.07 .117 0 0M3.447-.704C3.259-.845 3.072-1.009 2.884-1.196 2.509-.681 2.11-.258 1.688 .07 1.876 .234 2.028 .399 2.146 .563 2.755 0 3.189-.422 3.447-.704" fill="#2c292a"/>
<path transform="matrix(1,0,0,-1,196.1861,231.0502)" d="M0 0V.774H-2.181C-2.158 1.173-2.145 1.571-2.145 1.971-2.145 2.393-2.158 2.827-2.181 3.273H-.457L-.317 3.871H-3.025C-3.025 2.017-3.049 .774-3.095 .141-3.142-.493-3.242-1.103-3.394-1.689-3.547-2.276-3.776-2.803-4.08-3.273-4.268-3.038-4.467-2.838-4.678-2.674-4.444-2.393-4.262-2.076-4.133-1.724-4.004-1.372-3.899-.98-3.816-.545-3.734-.112-3.688 .581-3.676 1.531-3.664 2.481-3.67 3.425-3.693 4.364H1.935C2.357 4.364 2.779 4.375 3.201 4.399V3.871H.457L.246 3.273H2.638C2.614 2.827 2.603 2.393 2.603 1.971 2.603 1.571 2.614 1.173 2.638 .774H.633V-.246C.656-.481 .568-.651 .369-.757 .17-.862-.129-.939-.528-.985-.551-.774-.61-.552-.703-.317-.211-.364 .023-.258 0 0M-2.321-1.372C-2.158-1.537-1.958-1.678-1.723-1.795-2.052-2.1-2.462-2.592-2.954-3.273-3.119-3.132-3.283-3.003-3.447-2.886-3.166-2.58-2.791-2.076-2.321-1.372M-1.266 .528C-1.102 .387-.914 .234-.703 .07-1.079-.211-1.618-.587-2.321-1.056L-2.743-.563C-2.11-.282-1.618 .082-1.266 .528M2.04 2.745H-1.5120001V2.2519999H2.04ZM2.075 1.724H-1.513V1.267H2.075ZM-.668-2.076C-.668-2.241-.663-2.399-.651-2.551-.639-2.704-.492-2.78-.211-2.78H1.126C1.383-2.756 1.559-2.522 1.653-2.076 1.841-2.217 2.075-2.358 2.357-2.499 2.169-2.827 2.016-3.038 1.899-3.132 1.782-3.225 1.559-3.273 1.231-3.273H-.492C-.962-3.249-1.219-3.15-1.266-2.974-1.313-2.798-1.337-2.557-1.337-2.252-1.337-1.948-1.349-1.631-1.372-1.302H-.633C-.657-1.631-.668-1.889-.668-2.076M1.055-1.9C.821-2.018 .633-2.135 .492-2.252 .328-1.971 .129-1.701-.105-1.443 .082-1.349 .246-1.244 .387-1.126 .551-1.314 .774-1.572 1.055-1.9M3.236-.387C3.095-.598 2.978-.798 2.884-.985 2.392-.61 1.841-.27 1.231 .035 1.348 .223 1.454 .387 1.548 .528 2.321 .082 2.884-.223 3.236-.387M3.658-2.428C3.47-2.569 3.294-2.71 3.13-2.85 2.825-2.381 2.474-1.959 2.075-1.584 2.263-1.42 2.392-1.29 2.462-1.196 2.931-1.642 3.329-2.053 3.658-2.428" fill="#2c292a"/>
<path transform="matrix(1,0,0,-1,201.2861,234.3581)" d="M0 0C-.281 .118-.516 .2-.703 .246-.422 .622-.188 1.138 0 1.795 .211 1.701 .434 1.63 .668 1.584 .457 1.138 .234 .61 0 0M1.09 6.756C.668 6.756 .223 6.744-.246 6.721V7.32C.246 7.296 .691 7.284 1.09 7.284H3.201C3.177 7.472 3.095 7.718 2.954 8.023 3.212 8.046 3.482 8.094 3.764 8.164 3.857 7.742 3.927 7.448 3.975 7.284H5.592C6.061 7.284 6.472 7.296 6.823 7.32V6.721C6.424 6.744 6.015 6.756 5.592 6.756H2.075C2.239 6.522 2.38 6.299 2.497 6.088L2.005 5.877H4.221C4.314 5.994 4.42 6.264 4.537 6.686 4.819 6.616 5.076 6.545 5.311 6.475 5.147 6.264 5.018 6.064 4.924 5.877H5.979C6.495 5.877 6.976 5.888 7.421 5.912V5.314C6.976 5.337 6.495 5.349 5.979 5.349H.703C.211 5.349-.246 5.337-.668 5.314V5.912C-.223 5.888 .234 5.877 .703 5.877H1.864C1.794 6.064 1.676 6.264 1.512 6.475 1.653 6.545 1.817 6.639 2.005 6.756ZM6.12 3.554C6.12 3.155 6.132 2.721 6.155 2.252H.563C.586 2.721 .598 3.167 .598 3.589 .598 4.012 .586 4.434 .563 4.856H6.155C6.132 4.41 6.12 3.976 6.12 3.554M5.417 4.364H1.302V3.8009999H5.417ZM5.417 3.273H1.302V2.78H5.417ZM2.11 1.161C2.11 1.021 2.116 .891 2.128 .774 2.139 .657 2.251 .598 2.462 .598H4.537C4.678 .646 4.795 .915 4.889 1.408 5.076 1.243 5.334 1.114 5.663 1.021 5.498 .575 5.358 .305 5.241 .211 5.123 .118 4.924 .07 4.643 .07H2.075C1.676 .094 1.465 .194 1.442 .37 1.418 .545 1.407 .751 1.407 .985 1.407 1.22 1.383 1.49 1.337 1.795H2.146C2.122 1.536 2.11 1.325 2.11 1.161M4.186 1.267C3.975 1.126 3.764 .997 3.552 .88 3.482 1.091 3.283 1.384 2.954 1.759 3.095 1.877 3.294 2.006 3.552 2.147 3.81 1.795 4.021 1.501 4.186 1.267M7.492 .669C7.281 .505 7.093 .364 6.929 .246 6.765 .505 6.424 .95 5.909 1.584 6.05 1.701 6.237 1.83 6.472 1.971 6.917 1.384 7.257 .95 7.492 .669" fill="#2c292a"/>
<path transform="matrix(1,0,0,-1,212.9986,232.1235)" d="M0 0C-.305-.387-.751-.862-1.337-1.425-.657-1.355-.024-1.29 .563-1.232 1.149-1.173 1.794-1.097 2.497-1.003 1.981-.393 1.618-.006 1.407 .158 1.618 .252 1.841 .393 2.075 .581 2.356 .275 2.685-.094 3.06-.528 3.435-.962 3.834-1.402 4.256-1.847 3.974-1.988 3.716-2.141 3.482-2.305 3.294-2.023 3.083-1.753 2.849-1.496 1.231-1.659 .064-1.806-.651-1.935-1.366-2.064-1.876-2.187-2.181-2.305-2.275-2.047-2.404-1.765-2.568-1.46-2.286-1.39-1.859-1.062-1.284-.475-.709 .111-.305 .709-.07 1.32H-1.794C-2.451 1.32-3.013 1.308-3.482 1.284V1.918C-2.99 1.894-2.427 1.883-1.794 1.883H.352V3.537H-.915C-1.501 3.537-2.017 3.525-2.462 3.501V4.135C-2.017 4.111-1.512 4.1-.95 4.1H.352V4.803C.352 5.155 .34 5.495 .317 5.824H1.161C1.113 5.519 1.09 5.202 1.09 4.874V4.1H2.146C2.731 4.1 3.283 4.111 3.799 4.135V3.501C3.283 3.525 2.743 3.537 2.181 3.537H1.09V1.883H3.236C3.799 1.883 4.338 1.894 4.854 1.918V1.284C4.338 1.308 3.799 1.32 3.236 1.32H.176C.434 1.132 .656 .968 .844 .827 .586 .663 .304 .387 0 0" fill="#2c292a"/>
<path transform="matrix(1,0,0,-1,224.6056,228.30539)" d="M0 0H1.899C1.876-.235 1.864-.493 1.864-.774 1.864-1.056 1.876-1.408 1.899-1.83H1.231V-.563H-5.03V-1.83H-5.698C-5.675-1.502-5.663-1.173-5.663-.845-5.663-.516-5.675-.235-5.698 0H-2.251V.915C-2.251 1.22-2.263 1.56-2.286 1.935H-1.583C-1.606 1.536-1.618 1.196-1.618 .915V0H-.703C-.305 .61 .012 1.173 .246 1.689 .434 1.571 .691 1.431 1.02 1.267 .809 1.079 .469 .656 0 0M.633-2.956C1.032-2.956 1.43-2.944 1.829-2.921V-3.554C1.43-3.531 1.032-3.519 .633-3.519H-2.04C-2.556-4.176-3.13-4.751-3.763-5.243-3.248-5.22-2.029-5.15-.106-5.032-.317-4.774-.575-4.504-.879-4.223-.716-4.106-.551-3.953-.387-3.765 .387-4.469 1.032-5.103 1.548-5.666 1.36-5.806 1.161-5.982 .95-6.193 .762-5.959 .574-5.747 .387-5.56-1.255-5.654-2.409-5.736-3.078-5.806-3.746-5.877-4.221-5.947-4.502-6.017-4.596-5.689-4.713-5.419-4.854-5.208-4.69-5.185-4.385-4.991-3.939-4.628-3.494-4.264-3.143-3.895-2.884-3.519H-4.537C-4.983-3.519-5.37-3.531-5.698-3.554V-2.921C-5.253-2.944-4.866-2.956-4.537-2.956ZM-3.306 .598C-3.494 .457-3.67 .293-3.834 .106-4.068 .434-4.444 .809-4.959 1.232-4.819 1.349-4.667 1.501-4.502 1.689-3.869 1.149-3.471 .786-3.306 .598M-.915-1.408C-.282-1.408 .211-1.396 .563-1.372V-2.006C0-1.983-.492-1.971-.915-1.971H-3.201C-3.6-1.971-3.975-1.983-4.326-2.006V-1.372C-3.975-1.396-3.623-1.408-3.271-1.408Z" fill="#2c292a"/>
<path transform="matrix(1,0,0,-1,229.2835,229.1148)" d="M0 0C-.024-.47-.035-.939-.035-1.408V-3.589C.293-3.285 .598-3.003 .879-2.745 .973-2.956 1.09-3.156 1.231-3.343 .785-3.695 .199-4.235-.527-4.962-.645-4.751-.786-4.563-.95-4.399-.762-4.282-.668-4.059-.668-3.73V-.633C-1.044-.633-1.384-.646-1.688-.669V.035C-1.384 .012-1.138 0-.95 0ZM.282 1.302C.117 1.138-.059 .985-.246 .845-.387 1.102-.739 1.513-1.301 2.076-1.114 2.24-.95 2.393-.809 2.534-.481 2.229-.117 1.818 .282 1.302M3.447 .915C3.423 1.384 3.412 1.724 3.412 1.935 3.412 2.17 3.4 2.486 3.377 2.886 3.658 2.815 3.916 2.768 4.15 2.745 4.127 2.463 4.115 2.217 4.115 2.006V.915H5.135C5.463 .915 5.804 .927 6.155 .95V.317C5.827 .34 5.475 .352 5.1 .352H4.15C4.197-.281 4.261-.851 4.344-1.355 4.426-1.86 4.543-2.375 4.696-2.903 4.848-3.431 5.024-3.848 5.223-4.152 5.422-4.458 5.557-4.469 5.628-4.188 5.698-3.906 5.745-3.578 5.768-3.202 5.956-3.461 6.191-3.637 6.472-3.73 6.354-4.481 6.191-4.956 5.979-5.155 5.768-5.354 5.534-5.378 5.276-5.226 5.018-5.073 4.777-4.791 4.555-4.381 4.332-3.971 4.144-3.496 3.992-2.956 3.839-2.417 3.728-1.86 3.658-1.284 3.588-.71 3.529-.164 3.482 .352H1.829C1.36 .352 .926 .34 .528 .317V.95C.902 .927 1.325 .915 1.794 .915ZM3.201-1.408C2.942-1.384 2.696-1.372 2.462-1.372V-3.66C2.767-3.566 3.072-3.461 3.377-3.343 3.377-3.601 3.4-3.824 3.447-4.012 3.095-4.082 2.72-4.176 2.321-4.293 1.922-4.411 1.512-4.551 1.09-4.715 1.02-4.458 .902-4.235 .739-4.047 1.113-4 1.477-3.918 1.829-3.801V-1.372C1.571-1.372 1.301-1.384 1.02-1.408V-.739C1.372-.763 1.735-.774 2.111-.774 2.509-.774 2.872-.763 3.201-.739ZM6.12 1.689C5.862 1.525 5.663 1.372 5.522 1.232 5.241 1.677 4.936 2.064 4.608 2.393 4.748 2.486 4.924 2.616 5.135 2.78 5.299 2.639 5.628 2.275 6.12 1.689" fill="#2c292a"/>
<path transform="matrix(1,0,0,-1,189.5001,259.8043)" d="M0 0C-4.95 0-8.977 4.029-8.977 8.981-8.977 13.934-4.95 17.962 0 17.962 4.95 17.962 8.977 13.934 8.977 8.981 8.977 4.029 4.95 0 0 0M0 16.711C-4.26 16.711-7.726 13.244-7.726 8.981-7.726 4.719-4.26 1.251 0 1.251 4.26 1.251 7.726 4.719 7.726 8.981 7.726 13.244 4.26 16.711 0 16.711" fill="#f43040"/>
</g>
<path transform="matrix(1,0,0,-1,192.0367,245.2167)" d="M0 0 .528-.37-2.585-9.924-5.17-6.334-5.962-7.126-6.226-6.862-4.854-5.49-2.691-8.234Z" fill="#2c292a"/>
<g clip-path="url(#clip_6)">
<path transform="matrix(1,0,0,-1,153.9543,250.05402)" d="M0 0C-.018 4.654 3.721 8.395 8.334 8.395 12.946 8.395 16.685 4.654 16.685 .039 16.685-4.575 12.946-8.316 8.334-8.316 3.721-8.316-.018-4.575 0 0" fill="#ffffff"/>
<path transform="matrix(1,0,0,-1,162.2879,258.9958)" d="M0 0C-4.95 0-8.977 4.029-8.977 8.981-8.977 13.934-4.95 17.962 0 17.962 4.95 17.962 8.977 13.934 8.977 8.981 8.977 4.029 4.95 0 0 0M0 16.711C-4.26 16.711-7.726 13.244-7.726 8.981-7.726 4.719-4.26 1.251 0 1.251 4.26 1.251 7.726 4.719 7.726 8.981 7.726 13.244 4.26 16.711 0 16.711" fill="#2c292a"/>
</g>
<path transform="matrix(1,0,0,-1,157.8387,244.7915)" d="M0 0 4.643-4.645 9.092 0 9.672-.516 5.159-5.161 9.802-9.742 9.221-10.322 4.643-5.677 0-10.322-.516-9.806 4.127-5.161-.516-.516Z" fill="#2c292a"/>
<g clip-path="url(#clip_7)">
<path transform="matrix(1,0,0,-1,217.7637,358.9043)" d="M0 0H.703C.68-.493 .668-1.138 .668-1.935 1.043-1.935 1.407-1.924 1.759-1.9V-2.569C1.407-2.546 1.043-2.534 .668-2.534V-4.012C.879-3.965 1.207-3.848 1.653-3.66 1.653-3.871 1.676-4.106 1.723-4.364 1.512-4.411 1.161-4.528 .668-4.715V-7.39C.645-7.695 .539-7.883 .352-7.953 .164-8.023-.211-8.094-.774-8.164-.774-7.883-.844-7.613-.985-7.355-.563-7.378-.294-7.378-.176-7.355-.059-7.331 .012-7.214 .035-7.003V-4.891C-.457-5.079-.821-5.255-1.055-5.419-1.126-5.115-1.231-4.845-1.372-4.61-.997-4.563-.528-4.446 .035-4.258V-2.534C-.457-2.534-.856-2.546-1.161-2.569V-1.9C-.856-1.924-.457-1.935 .035-1.935 .035-1.185 .023-.54 0 0M2.075-3.66C2.591-3.683 3.048-3.695 3.447-3.695H6.085C5.991-4.165 5.815-4.651 5.557-5.155 5.299-5.66 4.982-6.135 4.608-6.581 4.889-6.815 5.264-6.997 5.733-7.126 6.202-7.255 6.648-7.331 7.07-7.355 6.859-7.589 6.706-7.847 6.612-8.129 6.143-8.011 5.703-7.865 5.293-7.689 4.883-7.513 4.478-7.296 4.08-7.038 3.728-7.296 3.388-7.513 3.06-7.689 2.731-7.865 2.309-8.046 1.794-8.234 1.7-8.023 1.535-7.8 1.301-7.566 1.606-7.495 1.946-7.401 2.321-7.284 2.696-7.167 3.118-6.932 3.588-6.581 3.118-5.971 2.802-5.208 2.638-4.293H2.075ZM5.909-2.956C5.604-2.956 5.334-2.944 5.1-2.921 4.865-2.898 4.748-2.698 4.748-2.323V-.88H3.482C3.482-1.537 3.406-2.053 3.253-2.428 3.101-2.804 2.86-3.156 2.532-3.484 2.344-3.296 2.122-3.156 1.864-3.062 2.356-2.663 2.632-2.252 2.691-1.83 2.749-1.408 2.766-.903 2.743-.317H5.417C5.393-.552 5.381-.868 5.381-1.267V-2.111C5.381-2.276 5.463-2.358 5.627-2.358H6.155C6.366-2.358 6.53-2.346 6.648-2.323 6.6-2.511 6.577-2.722 6.577-2.956ZM4.115-6.158C4.326-5.924 4.52-5.678 4.695-5.419 4.871-5.161 5.041-4.786 5.206-4.293H3.236C3.447-5.138 3.74-5.76 4.115-6.158" fill="#2c292a"/>
<path transform="matrix(1,0,0,-1,231.4459,365.3089)" d="M0 0C-.516 .586-1.09 1.712-1.723 3.378-2.38 1.431-3.6-.223-5.382-1.584-5.475-1.349-5.686-1.102-6.015-.845-4.491-.118-3.201 1.513-2.145 4.047-2.216 4.234-2.427 4.516-2.779 4.891-3.13 5.266-3.494 5.525-3.869 5.666-3.611 5.877-3.412 6.088-3.271 6.299-2.685 5.853-2.216 5.431-1.864 5.032-1.512 4.633-1.067 3.765-.528 2.428 .012 1.091 .95 .093 2.286-.563 1.958-.798 1.735-1.091 1.618-1.443 1.055-1.067 .516-.587 0 0" fill="#2c292a"/>
<path transform="matrix(1,0,0,-1,237.6364,362.84559)" d="M0 0C0-1.196 .012-2.135 .035-2.815H-.704V-2.147H-2.111V-3.308H-2.849C-2.826-2.229-2.814-1.15-2.814-.07-2.814 1.032-2.826 2.076-2.849 3.062H.035C.012 2.217 0 1.196 0 0M-.704 2.463H-2.111V.809H-.704ZM-.704 .211H-2.111V-1.548H-.704ZM3.306 3.976H4.08C4.056 3.366 4.045 2.71 4.045 2.006 4.397 2.006 4.771 2.017 5.17 2.041V1.372C4.771 1.396 4.397 1.408 4.045 1.408V-3.308C4.045-3.66 3.904-3.882 3.623-3.976 3.341-4.07 2.978-4.14 2.532-4.188 2.532-3.906 2.403-3.636 2.145-3.378 2.591-3.425 2.902-3.437 3.077-3.413 3.253-3.39 3.341-3.237 3.341-2.956V1.408C2.169 1.408 1.184 1.396 .387 1.372V2.041C1.137 2.017 2.122 2.006 3.341 2.006 3.341 2.71 3.329 3.366 3.306 3.976M2.356-1.126C2.122-1.196 1.876-1.302 1.618-1.443 1.43-.88 1.161-.352 .809 .141 1.02 .234 1.242 .34 1.477 .457 1.782-.035 2.075-.563 2.356-1.126" fill="#2c292a"/>
<path transform="matrix(1,0,0,-1,243.8969,366.9628)" d="M0 0C.047 .47 .07 .962 .07 1.478V5.173C.07 5.666 .047 6.076 0 6.405H.809C.785 6.053 .774 5.712 .774 5.384V1.443C.774 .973 .785 .493 .809 0ZM2.357 6.862C2.098 6.744 1.852 6.616 1.618 6.475 1.383 6.944 1.09 7.39 .739 7.812 .996 8 1.207 8.129 1.372 8.199 1.583 7.918 1.911 7.472 2.357 6.862M5.452 4.575V2.71C5.452 2.404 5.463 2.041 5.487 1.619H1.935C1.958 2.041 1.97 2.416 1.97 2.745V4.575C1.97 4.903 1.958 5.29 1.935 5.736H5.487C5.463 5.29 5.452 4.903 5.452 4.575M4.783 5.173H2.637V4.047H4.783ZM4.783 3.484H2.637V2.182H4.783ZM7.386 7.601C7.363 7.155 7.351 6.709 7.351 6.264V1.091C7.374 .552 7.228 .223 6.911 .106 6.595-.012 6.249-.093 5.874-.141 5.85 .141 5.756 .422 5.592 .704 6.038 .681 6.325 .704 6.454 .774 6.583 .845 6.648 .997 6.648 1.232V7.003H4.537C3.974 7.003 3.447 6.991 2.954 6.968V7.636C3.447 7.613 3.974 7.601 4.537 7.601Z" fill="#2c292a"/>
<path transform="matrix(1,0,0,-1,255.2928,360.136)" d="M0 0V-1.584H.528C.879-1.584 1.254-1.572 1.653-1.548V-2.182C1.254-2.159 .891-2.147 .563-2.147H0V-5.771C0-6.17 .012-6.533 .035-6.862H-.668C-.645-6.487-.633-6.123-.633-5.771V-3.484C-.985-4.141-1.512-4.891-2.216-5.736-2.333-5.572-2.521-5.408-2.779-5.243-2.263-4.751-1.811-4.182-1.424-3.537-1.038-2.892-.821-2.428-.774-2.147H-1.407C-1.923-2.147-2.298-2.159-2.532-2.182V-1.548C-2.275-1.572-1.899-1.584-1.407-1.584H-.633V-.106C-.938-.153-1.419-.211-2.075-.282-2.122-.047-2.193 .164-2.286 .352-1.841 .375-1.278 .434-.598 .528 .082 .621 .656 .762 1.126 .95 1.172 .692 1.278 .434 1.442 .176 1.231 .176 .75 .117 0 0M.106-3.132C.246-3.038 .422-2.898 .633-2.71 1.078-3.202 1.454-3.707 1.759-4.223 1.524-4.364 1.325-4.516 1.161-4.68 .856-4.094 .504-3.578 .106-3.132M5.065-1.478V-5.103C5.065-5.525 5.077-5.865 5.1-6.123H4.397V-5.279H2.708V-6.193H2.04C2.063-5.654 2.075-5.326 2.075-5.208V-1.478C2.075-1.079 2.063-.646 2.04-.176H5.1C5.077-.646 5.065-1.079 5.065-1.478M4.397-.774H2.7089999V-4.715H4.397ZM4.397-4.715" fill="#2c292a"/>
<path transform="matrix(1,0,0,-1,262.9254,359.96003)" d="M0 0C0 .399-.012 .715-.035 .95H.668C.645 .528 .633 .199 .633-.035V-1.795C1.008-1.795 1.348-1.783 1.653-1.76V-2.393C1.348-2.37 1.008-2.358 .633-2.358V-5.806C.633-6.182 .645-6.639 .668-7.179H-.035C-.012-6.639 0-6.182 0-5.806V-3.554C-.211-4.094-.54-4.68-.985-5.314-1.149-5.173-1.325-5.021-1.512-4.856-1.278-4.598-1.038-4.253-.791-3.818-.545-3.384-.34-2.898-.176-2.358-.598-2.358-.973-2.37-1.301-2.393V-1.76C-.973-1.783-.54-1.795 0-1.795ZM-.141-1.161C-.281-1.232-.457-1.337-.668-1.478-.856-1.103-1.102-.681-1.407-.211-1.196-.094-1.02 .012-.879 .106-.645-.246-.399-.669-.141-1.161M1.266-1.513C1.078-1.42 .891-1.349 .703-1.302 .938-.809 1.137-.329 1.301 .141 1.559 .047 1.77-.035 1.935-.106 1.606-.786 1.383-1.255 1.266-1.513M2.11-4.188C1.946-4.305 1.77-4.434 1.583-4.575 1.325-4.106 1.031-3.695 .703-3.343 .891-3.226 1.055-3.097 1.196-2.956 1.524-3.378 1.829-3.789 2.11-4.188M3.904 .141C3.904 .422 3.892 .692 3.869 .95H4.572C4.549 .645 4.537 .375 4.537 .141H5.311C5.71 .141 6.061 .152 6.366 .176V-.387C6.038-.364 5.686-.352 5.311-.352H4.537V-1.021H5.03C5.405-1.021 5.768-1.009 6.12-.985V-1.548C5.768-1.525 5.393-1.513 4.995-1.513H4.537V-2.111H5.382C5.804-2.111 6.261-2.1 6.753-2.076V-2.639C6.284-2.616 5.827-2.604 5.382-2.604H3.271C2.896-2.604 2.439-2.616 1.899-2.639V-2.076C2.392-2.1 2.837-2.111 3.236-2.111H3.904V-1.513H3.377C3.025-1.513 2.696-1.525 2.392-1.548V-.985C2.72-1.009 3.001-1.021 3.236-1.021H3.904V-.352H3.341C2.966-.352 2.568-.364 2.145-.387V.176C2.568 .152 2.966 .141 3.341 .141ZM6.05-4.293V-6.405C6.05-6.757 5.938-6.968 5.716-7.038 5.492-7.108 5.229-7.167 4.924-7.214 4.854-6.932 4.748-6.698 4.608-6.51 4.936-6.51 5.153-6.493 5.258-6.457 5.364-6.422 5.417-6.322 5.417-6.158V-5.806H3.025V-7.144H2.392C2.415-6.487 2.427-5.76 2.427-4.962 2.427-4.165 2.415-3.519 2.392-3.026H6.085C6.061-3.472 6.05-3.895 6.05-4.293M5.417-3.519H3.0249999V-4.117H5.417ZM5.417-4.61H3.0249999V-5.314H5.417ZM5.417-5.314" fill="#2c292a"/>
<path transform="matrix(1,0,0,-1,274.7435,361.6139)" d="M0 0C-.07-.821-.176-1.478-.317-1.971-.457-2.463-.651-2.915-.897-3.325-1.143-3.736-1.466-4.123-1.864-4.487-2.263-4.85-2.744-5.208-3.306-5.56-3.424-5.372-3.658-5.173-4.01-4.962-3.447-4.68-2.978-4.387-2.603-4.082-2.228-3.777-1.905-3.431-1.636-3.044-1.366-2.657-1.167-2.217-1.038-1.724-.909-1.232-.821-.657-.774 0H-1.794C-2.474 0-3.095-.012-3.658-.035V.669C-3.095 .645-2.474 .633-1.794 .633H-.739V1.689C-.739 2.017-.751 2.358-.774 2.71-.516 2.662-.223 2.627 .105 2.604 .058 2.393 .029 2.088 .018 1.689 .005 1.29 0 .938 0 .633H3.588C3.494-.633 3.435-1.508 3.412-1.988 3.388-2.469 3.341-3.056 3.271-3.748 3.201-4.44 3.007-4.868 2.691-5.032 2.374-5.196 1.829-5.314 1.055-5.384 1.031-5.103 .914-4.797 .703-4.469 1.383-4.493 1.841-4.458 2.075-4.364 2.309-4.27 2.444-4.094 2.48-3.836 2.515-3.578 2.55-3.244 2.585-2.833 2.62-2.423 2.673-1.478 2.743 0Z" fill="#2c292a"/>
<path transform="matrix(1,0,0,-1,212.9112,374.3953)" d="M0 0C0 .164-.012 .375-.035 .633H.739C.691 .352 .668 .141 .668 0H1.583C1.981 0 2.345 .012 2.673 .035V-.598C2.345-.575 1.981-.563 1.583-.563H.668V-2.569C.691-2.921 .563-3.155 .282-3.273 0-3.39-.387-3.484-.879-3.554-.903-3.273-1.008-3.003-1.196-2.745-.61-2.768-.264-2.745-.158-2.674-.053-2.604 0-2.452 0-2.217V-.563H-4.115C-4.537-.563-4.924-.575-5.276-.598V.035C-4.924 .012-4.537 0-4.115 0ZM1.512 4.399C1.489 4.07 1.477 3.73 1.477 3.378V2.147C1.477 1.747 1.489 1.384 1.512 1.056H-3.095C-3.47 1.056-3.857 1.044-4.256 1.021V1.654C-3.857 1.63-3.47 1.619-3.095 1.619H.809V2.393H-2.814C-3.189 2.393-3.576 2.381-3.974 2.358V3.026C-3.576 3.003-3.189 2.991-2.814 2.991H.809V3.836H-2.99C-3.412 3.836-3.834 3.824-4.256 3.801V4.434C-3.74 4.41-3.33 4.399-3.025 4.399ZM-2.427-2.252C-2.638-2.393-2.849-2.522-3.06-2.639-3.295-2.123-3.588-1.654-3.939-1.232-3.799-1.138-3.6-1.009-3.341-.845-3.013-1.267-2.708-1.736-2.427-2.252" fill="#2c292a"/>
<path transform="matrix(1,0,0,-1,219.5238,373.9026)" d="M0 0C-.329-.188-.633-.352-.915-.493V-3.097C-.915-3.472-1.014-3.713-1.214-3.818-1.413-3.924-1.782-3.976-2.321-3.976-2.369-3.718-2.451-3.46-2.568-3.202-2.122-3.225-1.847-3.225-1.741-3.202-1.636-3.179-1.583-3.05-1.583-2.815V-.809C-2.075-1.044-2.439-1.22-2.673-1.337-2.767-1.079-2.873-.857-2.99-.669-2.732-.622-2.263-.446-1.583-.141V1.478C-2.146 1.478-2.544 1.466-2.779 1.443V2.076C-2.544 2.053-2.146 2.041-1.583 2.041-1.583 2.815-1.595 3.495-1.618 4.082H-.879C-.903 3.542-.915 2.862-.915 2.041-.61 2.041-.281 2.053 .07 2.076V1.443C-.352 1.466-.68 1.478-.915 1.478V.141C-.703 .234-.434 .375-.106 .563-.082 .352-.047 .164 0 0M2.814-1.865C3.142-2.522 3.417-2.915 3.64-3.044 3.863-3.173 4.015-3.109 4.098-2.85 4.18-2.592 4.244-2.335 4.291-2.076 4.572-2.264 4.819-2.405 5.03-2.499 4.842-3.109 4.678-3.513 4.537-3.713 4.397-3.912 4.215-4.023 3.992-4.047 3.769-4.07 3.476-3.9 3.113-3.537 2.749-3.173 2.474-2.792 2.286-2.393 1.981-2.674 1.665-2.927 1.336-3.15 1.008-3.372 .656-3.577 .281-3.765 .164-3.531-.012-3.331-.246-3.167 .106-3.05 .498-2.856 .932-2.586 1.366-2.317 1.711-2.029 1.97-1.724 1.759-1.138 1.583-.317 1.442 .739 1.137 .669 .691 .575 .106 .457 .082 .692 .023 .915-.07 1.126 .469 1.196 .95 1.278 1.372 1.372 1.324 2.006 1.289 2.944 1.266 4.188 1.5 4.164 1.759 4.14 2.04 4.117 2.016 2.897 2.028 2.029 2.075 1.513 2.919 1.677 3.751 1.841 4.572 2.006 4.595 1.771 4.631 1.548 4.678 1.337 3.763 1.196 2.919 1.044 2.145 .88 2.239 .012 2.368-.681 2.532-1.196 3.095-.493 3.493 .141 3.728 .704 3.962 .445 4.173 .258 4.361 .141 3.658-.798 3.142-1.466 2.814-1.865M4.326 2.674C4.138 2.534 3.986 2.381 3.869 2.217 3.658 2.475 3.224 2.886 2.568 3.449 2.685 3.542 2.825 3.695 2.99 3.906 3.575 3.46 4.021 3.049 4.326 2.674" fill="#2c292a"/>
<path transform="matrix(1,0,0,-1,227.4025,370.5947)" d="M0 0H1.829C1.711-.164 1.559-.387 1.372-.669 1.184-.95 1.055-1.161 .985-1.302H2.251C2.204-1.772 2.181-2.241 2.181-2.71V-6.334C2.181-6.616 2.104-6.797 1.952-6.88 1.799-6.962 1.559-7.026 1.231-7.073 1.184-6.815 1.113-6.568 1.02-6.334 1.207-6.334 1.348-6.329 1.442-6.317 1.536-6.305 1.583-6.193 1.583-5.982V-4.821H.844V-6.475H.246V-4.821H-.492C-.516-5.173-.575-5.537-.668-5.912-.762-6.287-.915-6.698-1.126-7.144-1.337-7.026-1.56-6.909-1.794-6.792-1.56-6.463-1.384-6.059-1.266-5.578-1.149-5.097-1.079-4.481-1.055-3.73-1.032-2.98-1.032-2.229-1.055-1.478-1.243-1.689-1.395-1.854-1.512-1.971-1.653-1.783-1.817-1.619-2.005-1.478-1.653-1.196-1.331-.851-1.038-.44-.745-.03-.505 .457-.317 1.021-.129 .903 .117 .774 .422 .633 .234 .539 .093 .328 0 0M.281-1.302C.469-1.068 .633-.809 .774-.528H-.352C-.563-.809-.751-1.068-.915-1.302ZM.246-4.258V-3.308H-.422L-.457-4.258ZM.246-1.83H-.422V-2.78H.246ZM1.583-1.83H.8439999V-2.78H1.583ZM1.583-3.308H.8439999V-4.258H1.583ZM4.361-1.513C4.619-1.513 4.824-1.502 4.977-1.478 5.129-1.455 5.217-1.384 5.241-1.267 5.264-1.15 5.299-.739 5.346-.035H4.08C3.939-.692 3.799-1.167 3.658-1.46 3.517-1.754 3.294-2.076 2.99-2.428 2.849-2.241 2.661-2.065 2.427-1.9 2.685-1.713 2.896-1.472 3.06-1.179 3.224-.886 3.341-.505 3.412-.035 3.13-.035 2.79-.047 2.392-.07V.528C2.766 .504 3.107 .493 3.412 .493H6.05C5.979-.657 5.914-1.349 5.856-1.584 5.797-1.818 5.651-1.983 5.417-2.076 5.182-2.17 4.912-2.229 4.608-2.252 4.56-1.994 4.478-1.748 4.361-1.513M3.552-3.449H4.15C4.15-2.956 4.138-2.628 4.115-2.463H4.819C4.771-2.674 4.748-3.003 4.748-3.449H5.241C5.592-3.449 5.874-3.437 6.085-3.413V-4.047C5.78-4 5.475-3.976 5.17-3.976H4.748V-4.997H4.994C5.44-4.997 5.897-4.985 6.366-4.962V-5.56C5.921-5.537 5.463-5.525 4.994-5.525H4.748V-6.123C4.748-6.451 4.76-6.862 4.783-7.355H4.115C4.138-6.862 4.15-6.451 4.15-6.123V-5.525H3.377C3.118-5.525 2.79-5.537 2.392-5.56V-4.962C2.743-4.985 3.072-4.997 3.377-4.997H4.15V-3.976H3.271C3.201-4.165 3.095-4.399 2.954-4.68 2.79-4.587 2.603-4.458 2.392-4.293 2.555-4.106 2.696-3.859 2.814-3.554 2.931-3.25 3.025-2.956 3.095-2.674L3.799-3.026C3.681-3.12 3.599-3.261 3.552-3.449" fill="#2c292a"/>
<path transform="matrix(1,0,0,-1,235.8789,375.50373)" d="M0 0C-.281-.551-.492-.991-.633-1.32-.844-1.132-1.102-.956-1.407-.792-1.149-.487-.868-.076-.563 .44-.258 .956-.012 1.472 .176 1.988 .34 1.8 .551 1.636 .809 1.496 .551 1.05 .281 .551 0 0M.035 4.276C.269 3.994 .516 3.7 .774 3.396 .586 3.255 .387 3.079 .176 2.868-.035 3.173-.516 3.748-1.266 4.592-1.079 4.756-.891 4.932-.703 5.12-.446 4.839-.199 4.557 .035 4.276M1.372 3.642V4.311C1.794 4.287 2.345 4.276 3.025 4.276 3.025 4.932 3.013 5.437 2.99 5.789 3.248 5.765 3.517 5.741 3.799 5.718 3.751 5.39 3.728 4.909 3.728 4.276H5.804C5.78 3.9 5.768 3.044 5.768 1.707 6.143 1.707 6.472 1.718 6.753 1.742V1.073C6.401 1.096 6.05 1.108 5.698 1.108H3.904C4.584-.346 5.604-1.202 6.964-1.46 6.706-1.648 6.53-1.918 6.437-2.27 4.982-1.777 3.986-.827 3.447 .581 2.931-.686 2.04-1.695 .774-2.446 .633-2.211 .434-2.023 .176-1.883 1.559-1.179 2.462-.182 2.884 1.108H2.321C1.899 1.108 1.477 1.096 1.055 1.073V1.742C1.477 1.718 1.899 1.707 2.321 1.707H2.954C3.001 2.481 3.025 3.137 3.025 3.677 2.345 3.677 1.794 3.665 1.372 3.642M5.065 1.707V3.677H3.728C3.705 2.88 3.681 2.222 3.658 1.707Z" fill="#2c292a"/>
<path transform="matrix(1,0,0,-1,244.7426,372.5654)" d="M0 0V-5.314H-.774C-.751-4.844-.739-4.411-.739-4.012V-.176C-.739 .246-.751 .633-.774 .985H.035C.012 .586 0 .258 0 0M1.372 1.619C1.207 1.501 .996 1.349 .739 1.161 .41 1.677 .082 2.088-.246 2.393-.012 2.58 .187 2.733 .352 2.85 .633 2.475 .973 2.064 1.372 1.619M4.502-1.513C4.502-2.053 4.514-2.546 4.537-2.991H1.055C1.078-2.499 1.09-2.018 1.09-1.548 1.09-1.079 1.078-.54 1.055 .07H4.537C4.514-.446 4.502-.974 4.502-1.513M3.798-.528H1.7580001V-2.3930002H3.798ZM6.542 2.323C6.518 1.877 6.507 1.419 6.507 .95V-4.328C6.507-4.774 6.378-5.038 6.12-5.12 5.862-5.202 5.498-5.279 5.03-5.349 5.006-5.02 4.9-4.739 4.713-4.504 5.206-4.504 5.498-4.492 5.592-4.469 5.686-4.446 5.745-4.34 5.768-4.152V1.724H3.728C3.142 1.724 2.614 1.712 2.146 1.689V2.358C2.614 2.334 3.13 2.323 3.693 2.323Z" fill="#2c292a"/>
<path transform="matrix(1,0,0,-1,255.3294,373.6914)" d="M0 0C.328 0 .668 .012 1.02 .035V-.598C.692-.551 .246-.528-.317-.528V-1.443C.152-1.443 .528-1.431 .809-1.408V-2.041C.528-2.018 .152-2.006-.317-2.006V-3.097C.504-3.378 1.46-3.507 2.55-3.484 3.641-3.46 4.584-3.378 5.382-3.237 5.287-3.495 5.229-3.777 5.206-4.082 4.291-4.105 3.494-4.111 2.814-4.1 2.134-4.088 1.512-4.047 .95-3.976 .387-3.906-.111-3.783-.545-3.607-.979-3.431-1.419-3.167-1.864-2.815-1.982-3.308-2.134-3.788-2.321-4.258-2.532-4.094-2.732-3.988-2.919-3.941-2.708-3.401-2.568-2.927-2.497-2.516-2.427-2.106-2.369-1.631-2.321-1.091-2.087-1.161-1.853-1.209-1.618-1.232-1.688-1.443-1.747-1.76-1.794-2.182-1.466-2.487-1.173-2.698-.914-2.815V-.528C-1.759-.528-2.356-.551-2.708-.598V.035C-2.356 .012-2.017 0-1.688 0ZM.633 2.076C.633 1.584 .645 1.079 .668 .563H-2.321C-2.298 1.102-2.286 1.619-2.286 2.111-2.286 2.604-2.298 3.097-2.321 3.589H.668C.645 3.073 .633 2.569 .633 2.076M0 3.026H-1.653V2.3569999H0ZM0 1.795H-1.653V1.091H0ZM3.429-.158C3.417-.452 3.377-.769 3.306-1.108 3.236-1.449 3.083-1.807 2.849-2.182 2.614-2.557 2.227-2.933 1.688-3.308 1.548-3.074 1.36-2.898 1.126-2.78 1.594-2.522 1.94-2.264 2.163-2.006 2.386-1.748 2.55-1.466 2.656-1.161 2.761-.857 2.814-.54 2.814-.211 2.814 .141 2.802 .504 2.779 .88 2.99 .832 3.236 .797 3.517 .774 3.47 .445 3.441 .135 3.429-.158M4.01 3.589C4.314 3.589 4.678 3.601 5.1 3.625V2.991C4.678 3.014 4.08 3.026 3.306 3.026L3.166 1.971H4.748C4.701 1.619 4.678 1.079 4.678 .352 4.678-.376 4.701-.95 4.748-1.372H4.08V1.443H2.04V-1.654H1.407C1.43-1.185 1.442-.551 1.442 .246 1.442 1.044 1.43 1.619 1.407 1.971H2.533L2.673 3.026C2.11 3.026 1.606 3.014 1.161 2.991V3.625C1.606 3.601 1.993 3.589 2.321 3.589ZM4.889-2.569C4.701-2.71 4.56-2.874 4.467-3.062 4.256-2.85 3.857-2.546 3.271-2.147 3.435-2.006 3.564-1.842 3.658-1.654 4.173-1.983 4.584-2.287 4.889-2.569" fill="#2c292a"/>
<path transform="matrix(1,0,0,-1,263.5951,371.4745)" d="M0 0H1.583C1.559-.399 1.548-.903 1.548-1.513V-4.61C1.548-4.962 1.559-5.467 1.583-6.123H.879V-5.419H-.914V-6.193H-1.618C-1.595-5.443-1.583-4.974-1.583-4.786V-1.548C-1.583-.915-1.595-.399-1.618 0H-.598C-.481 .539-.387 1.102-.317 1.689 .012 1.571 .281 1.49 .492 1.443 .375 1.232 .211 .751 0 0M.879-.598H-.915V-2.358H.879ZM.879-2.956H-.915V-4.821H.879ZM5.557-5.314C5.51-5.736 5.287-6.018 4.889-6.158 4.49-6.299 4.045-6.392 3.553-6.44 3.529-6.181 3.423-5.912 3.236-5.63 3.705-5.654 4.074-5.642 4.344-5.595 4.613-5.548 4.784-5.443 4.854-5.279 4.924-5.115 4.977-4.634 5.012-3.836 5.047-3.038 5.077-1.924 5.1-.493H3.06C2.872-.939 2.603-1.466 2.251-2.076 2.087-1.912 1.887-1.783 1.653-1.689 1.864-1.408 2.063-1.068 2.251-.669 2.439-.27 2.603 .164 2.744 .633 2.884 1.102 2.966 1.466 2.99 1.724 3.318 1.584 3.599 1.478 3.834 1.408 3.716 1.22 3.617 1.014 3.535 .792 3.452 .569 3.364 .352 3.271 .141H5.768C5.745-.352 5.733-.809 5.733-1.232 5.71-2.663 5.651-4.024 5.557-5.314M3.658-2.674C3.799-2.956 3.963-3.32 4.15-3.765 3.986-3.836 3.763-3.953 3.482-4.117 3.318-3.672 3.166-3.29 3.025-2.974 2.884-2.657 2.744-2.393 2.603-2.182 2.767-2.088 2.978-1.971 3.236-1.83Z" fill="#2c292a"/>
<path transform="matrix(1,0,0,-1,271.2276,375.6269)" d="M0 0C-.258 .141-.481 .269-.668 .387-.27 1.067 .093 1.783 .422 2.534 .68 2.393 .926 2.264 1.161 2.147 .691 1.302 .304 .586 0 0M3.306 4.962C3.283 4.68 3.271 4.34 3.271 3.941H5.909C5.862 3.683 5.815 3.273 5.768 2.71L5.557-.704C5.487-1.267 5.323-1.636 5.065-1.812 4.807-1.988 4.303-2.134 3.553-2.252 3.482-1.971 3.353-1.689 3.166-1.408 3.892-1.431 4.344-1.384 4.52-1.267 4.695-1.15 4.795-.845 4.819-.352L5.065 3.308H3.236C3.142 1.947 2.931 .903 2.603 .176 2.274-.481 1.905-.991 1.495-1.355 1.084-1.718 .621-2.064 .106-2.393-.082-2.158-.329-1.947-.633-1.76 .07-1.454 .633-1.115 1.055-.739 1.454-.364 1.776 .129 2.023 .739 2.269 1.349 2.427 2.205 2.497 3.308H1.723C1.231 3.308 .75 3.296 .281 3.273V3.941C.68 3.918 1.149 3.906 1.688 3.906H2.532C2.532 4.727 2.52 5.407 2.497 5.947 2.872 5.877 3.189 5.829 3.447 5.806 3.377 5.525 3.329 5.243 3.306 4.962M7.633 .106C7.421 .035 7.175-.082 6.894-.246 6.565 .669 6.213 1.478 5.839 2.182 6.12 2.299 6.331 2.416 6.472 2.534 6.87 1.853 7.257 1.044 7.633 .106" fill="#2c292a"/>
<path transform="matrix(1,0,0,-1,280.5658,376.1548)" d="M0 0C.34 .493 .674 1.008 1.002 1.548 1.119 1.337 1.284 1.173 1.495 1.056 1.284 .774 1.014 .357 .686-.194 .357-.745 .053-1.267-.229-1.759-.417-1.571-.674-1.395-1.002-1.232-.674-.903-.34-.493 0 0M1.108 2.85C.897 2.71 .709 2.522 .545 2.287 .1 2.686-.393 3.062-.932 3.413-.768 3.554-.615 3.73-.475 3.941 .018 3.636 .545 3.273 1.108 2.85M1.53 4.927C1.342 4.786 1.166 4.598 1.002 4.364 .557 4.786 .088 5.161-.405 5.49-.241 5.654-.088 5.829 .053 6.018 .522 5.712 1.014 5.349 1.53 4.927M6.489-1.759C6.325-1.454 6.184-1.22 6.067-1.056 5.317-1.102 4.502-1.167 3.623-1.249 2.744-1.331 2.151-1.419 1.847-1.513 1.776-1.232 1.682-.985 1.565-.774 1.87-.681 2.198-.376 2.55 .141 2.902 .657 3.218 1.302 3.5 2.076H2.515C2.093 2.076 1.694 2.064 1.319 2.041V2.674C1.694 2.651 2.104 2.639 2.55 2.639H3.816V4.188H3.007C2.562 4.188 2.175 4.176 1.847 4.152V4.786C2.221 4.762 2.597 4.751 2.972 4.751H3.816C3.816 5.407 3.804 5.947 3.781 6.369H4.555C4.531 6.018 4.52 5.478 4.52 4.751H5.575C5.927 4.751 6.29 4.762 6.665 4.786V4.152C6.29 4.176 5.95 4.188 5.645 4.188H4.52V2.639H5.786C6.208 2.639 6.63 2.651 7.052 2.674V2.041C6.63 2.064 6.208 2.076 5.786 2.076H3.992L4.344 1.865C4.203 1.701 3.98 1.349 3.676 .809 3.371 .269 3.03-.246 2.656-.739 3.687-.692 4.707-.633 5.716-.563 5.434-.141 5.141 .234 4.836 .563 5.024 .704 5.199 .856 5.364 1.021 5.786 .504 6.372-.27 7.122-1.302 6.912-1.419 6.7-1.571 6.489-1.759" fill="#2c292a"/>
<path transform="matrix(1,0,0,-1,249.5074,354.7154)" d="M0 0C0-1.037-.84-1.877-1.876-1.877-2.912-1.877-3.752-1.037-3.752 0-3.752 1.036-2.912 1.877-1.876 1.877-.84 1.877 0 1.036 0 0M-1.251 0H-2.502V11.808H-1.251ZM-1.251 11.808" fill="#2c292a"/>
<path transform="matrix(1,0,0,-1,295.1094,358.458)" d="M0 0C.504 0 .912-.407 .912-.91 .912-1.412 .504-1.82 0-1.82-.504-1.82-.912-1.412-.912-.91-.912-.407-.504 0 0 0M6.09 .141C6.177 .164 6.276 .149 6.367 .088L7.307-.457C7.489-.548 7.55-.76 7.459-.942 7.398-1.063 7.246-1.124 7.125-1.124 7.064-1.124 7.004-1.124 6.943-1.063L6.003-.518C5.821-.427 5.76-.215 5.881-.033 5.927 .058 6.003 .118 6.09 .141M-6.071 .141C-5.98 .118-5.897 .058-5.851-.033-5.76-.215-5.821-.427-5.973-.518L-6.944-1.063C-7.005-1.124-7.065-1.124-7.126-1.124-7.247-1.124-7.369-1.063-7.429-.942-7.52-.76-7.46-.548-7.308-.457L-6.337 .088C-6.261 .149-6.162 .164-6.071 .141M7.155 3.722H8.246C8.428 3.722 8.61 3.541 8.61 3.359 8.61 3.148 8.428 2.997 8.246 2.997H7.155C6.943 2.997 6.791 3.148 6.791 3.359 6.791 3.541 6.943 3.722 7.155 3.722M-8.217 3.722H-7.126C-6.913 3.722-6.762 3.541-6.762 3.359-6.762 3.148-6.913 2.997-7.126 2.997H-8.217C-8.429 2.997-8.581 3.148-8.581 3.359-8.581 3.541-8.429 3.722-8.217 3.722M0 6.417C.575 6.417 .878 6.115 .878 5.569V4.268C.878 4.116 .878 3.934 .847 3.753L.515 1.149C.454 .816 .303 .725 0 .725-.272 .725-.424 .816-.484 1.149L-.817 3.753C-.848 3.934-.878 4.116-.878 4.268V5.569C-.878 6.115-.545 6.417 0 6.417M-.001 7.536C-2.365 7.536-4.305 5.689-4.305 3.418-4.305 1.874-3.699 .995-3.153 .208-2.729-.428-2.335-1.033-2.335-1.821-2.335-2.154-2.001-2.457-1.789-2.608H1.788C2.03-2.426 2.334-2.154 2.334-1.821 2.334-1.033 2.758-.428 3.182 .178 3.728 .995 4.334 1.874 4.334 3.418 4.334 5.689 2.394 7.536-.001 7.536M6.943 7.781C7.125 7.872 7.337 7.811 7.459 7.63 7.55 7.478 7.489 7.236 7.307 7.145L6.367 6.599C6.306 6.569 6.245 6.539 6.185 6.539 6.063 6.539 5.942 6.599 5.881 6.721 5.76 6.902 5.821 7.115 6.003 7.236ZM-6.944 7.781-5.973 7.236C-5.821 7.115-5.76 6.902-5.851 6.721-5.912 6.599-6.033 6.539-6.155 6.539-6.215 6.539-6.276 6.569-6.337 6.599L-7.308 7.145C-7.46 7.236-7.52 7.478-7.429 7.63-7.338 7.811-7.096 7.872-6.944 7.781M-.001 9.02C3.182 9.02 5.789 6.507 5.789 3.418 5.789 1.419 4.971 .238 4.395-.64 4.001-1.185 3.819-1.488 3.819-1.821 3.819-2.548 3.425-3.214 2.728-3.728 2.697-4.152 2.637-5.212 2.637-5.212 2.637-5.485 2.485-6.121 1.454-6.454 1.333-6.636 1.182-6.787 .969-6.938 .848-6.999 .727-7.059 .575-7.059H-.546C-.698-7.059-.849-6.999-.971-6.938-1.152-6.787-1.304-6.636-1.425-6.454-2.456-6.121-2.607-5.515-2.638-5.212-2.638-5.212-2.698-4.152-2.698-3.728-3.396-3.214-3.79-2.548-3.79-1.821-3.79-1.488-4.002-1.185-4.366-.64-4.972 .238-5.76 1.419-5.76 3.418-5.76 6.507-3.183 9.02-.001 9.02M4.306 10.778C4.488 10.687 4.549 10.445 4.428 10.293L3.882 9.324C3.821 9.202 3.7 9.142 3.578 9.142 3.518 9.142 3.457 9.172 3.396 9.202 3.214 9.293 3.154 9.536 3.275 9.687L3.821 10.657C3.912 10.808 4.124 10.869 4.306 10.778M-4.273 10.778C-4.122 10.869-3.88 10.808-3.79 10.657L-3.245 9.687C-3.124 9.536-3.185 9.293-3.366 9.202-3.427 9.172-3.487 9.142-3.548 9.142-3.669 9.142-3.79 9.202-3.88 9.324L-4.424 10.293C-4.515 10.445-4.455 10.687-4.273 10.778M0 11.93C.211 11.93 .362 11.778 .362 11.567V10.478C.362 10.266 .211 10.115 0 10.115-.181 10.115-.362 10.266-.362 10.478V11.567C-.362 11.778-.181 11.93 0 11.93" fill="#f43040"/>
<path transform="matrix(1,0,0,-1,133.5449,252.1247)" d="M0 0H2.544C2.873 0 3.134-.261 3.134-.589V-4.701C3.134-5.028 2.873-5.289 2.544-5.289H2.434V-8.321C2.434-8.644 2.172-8.91 1.844-8.91H.7C.372-8.91 .111-8.644 .111-8.321V-5.289H0C-.328-5.289-.59-5.028-.59-4.701V-.589C-.59-.261-.328 0 0 0M1.272 5.657C2.589 5.657 3.657 4.591 3.657 3.275 3.657 1.96 2.589 .893 1.272 .893-.045 .893-1.112 1.96-1.112 3.275-1.112 4.591-.045 5.657 1.272 5.657M1.272 9.031C4.467 9.031 7.064 6.437 7.064 3.25 7.064 1.054 5.832-.863 4.02-1.841V-.589C4.02-.518 4.015-.451 4.006-.381 5.11 .447 5.823 1.767 5.823 3.25 5.823 5.755 3.781 7.791 1.272 7.791-1.236 7.791-3.279 5.755-3.279 3.25-3.279 1.767-2.565 .447-1.462-.381-1.471-.451-1.475-.518-1.475-.589V-1.841C-3.288-.863-4.52 1.054-4.52 3.25-4.52 6.437-1.923 9.031 1.272 9.031M1.273 11.54C5.852 11.54 9.574 7.821 9.574 3.248 9.574-.364 7.252-3.441 4.021-4.578V-3.25C6.556-2.179 8.333 .331 8.333 3.248 8.333 7.135 5.169 10.3 1.273 10.3-2.622 10.3-5.787 7.135-5.787 3.248-5.787 .331-4.009-2.179-1.474-3.25V-4.578C-4.705-3.441-7.028-.364-7.028 3.248-7.028 7.821-3.305 11.54 1.273 11.54" fill="#f43040"/>
</g>
</g>
</g>
</svg>
