<svg xmlns="http://www.w3.org/2000/svg" xmlns:xlink="http://www.w3.org/1999/xlink" xmlns:inkscape="http://www.inkscape.org/namespaces/inkscape" version="1.1" width="411.024" height="595.276" viewBox="0 0 411.024 595.276">
<defs>
<clipPath id="clip_1">
<path transform="matrix(1,0,0,-1,0,595.276)" d="M0 0H411.024V595.276H0Z"/>
</clipPath>
<clipPath id="clip_2">
<path transform="matrix(1,0,0,-1,0,595.276)" d="M0 0H411.024V595.276H0Z"/>
</clipPath>
<path id="font_3_5" d="M.45999146 .19407654C.45999146 .28303529 .4229889 .34100343 .35099793 .36799623 .4149933 .39700318 .44699098 .450943 .44699098 .52586367 .44699098 .64175418 .36698915 .71875 .25099183 .71875 .14299011 .71875 .05899048 .6507416 .050994874 .53585818H.12298584C.12998963 .60879519 .17599488 .6547394 .25099183 .6547394 .31999208 .6547394 .375 .609787 .375 .5248718 .375 .4449463 .33499146 .3959961 .24798584 .3959961H.23298645V.3330078H.24798584C.34498597 .3330078 .3880005 .28103639 .3880005 .19508362 .3880005 .10812378 .32798768 .057159425 .25099183 .057159425 .18299866 .057159425 .11999512 .09213257 .11399841 .18109131H.041992189C.04798889 .05215454 .13899231-.0068359377 .25099183-.0068359377 .36698915-.0068359377 .45999146 .06315613 .45999146 .19407654Z"/>
<path id="font_3_10" d="M.47099305 .19602967C.47099305 .27897645 .4249878 .33493043 .36499024 .368927 .42099 .40092469 .45700074 .45289613 .45700074 .52685549 .45700074 .6377716 .37399293 .71777346 .26098634 .71777346 .147995 .71777346 .06498718 .6377716 .06498718 .52685549 .06498718 .45289613 .101989749 .40092469 .1579895 .368927 .09799194 .33493043 .050994874 .27897645 .050994874 .19602967 .050994874 .0761261 .14299011-.005859375 .26098634-.005859375 .3789978-.005859375 .47099305 .0761261 .47099305 .19602967M.39898683 .19703675C.39898683 .11808777 .33898927 .058135988 .26098634 .058135988 .18299866 .058135988 .12298584 .11808777 .12298584 .19703675 .12298584 .27597047 .18299866 .3359375 .26098634 .3359375 .33898927 .3359375 .39898683 .27597047 .39898683 .19703675M.3849945 .5258484C.3849945 .45089723 .33399964 .39892579 .26098634 .39892579 .18798828 .39892579 .13699341 .45089723 .13699341 .5258484 .13699341 .59980776 .18798828 .6537628 .26098634 .6537628 .33399964 .6537628 .3849945 .59980776 .3849945 .5258484Z"/>
<clipPath id="clip_4">
<path transform="matrix(1,0,0,-1,0,595.276)" d="M0 0H411.024V595.276H0Z"/>
</clipPath>
<clipPath id="clip_5">
<path transform="matrix(1,0,0,-1,0,595.276)" d="M0 0H411.024V595.276H0Z"/>
</clipPath>
<clipPath id="clip_6">
<path transform="matrix(1,0,0,-1,0,595.276)" d="M0 0H411.024V595.276H0Z"/>
</clipPath>
<clipPath id="clip_7">
<path transform="matrix(1,0,0,-1,0,595.276)" d="M0 0H411.024V595.276H0Z"/>
</clipPath>
<clipPath id="clip_8">
<path transform="matrix(1,0,0,-1,0,595.276)" d="M0 0H411.024V595.276H0Z"/>
</clipPath>
<clipPath id="clip_9">
<path transform="matrix(1,0,0,-1,0,595.276)" d="M0 0H411.024V595.276H0Z"/>
</clipPath>
<clipPath id="clip_10">
<path transform="matrix(1,0,0,-1,0,595.276)" d="M0 0H411.024V595.276H0Z"/>
</clipPath>
<clipPath id="clip_11">
<path transform="matrix(1,0,0,-1,0,595.276)" d="M0 0H411.024V595.276H0Z"/>
</clipPath>
<clipPath id="clip_12">
<path transform="matrix(1,0,0,-1,0,595.276)" d="M0 0H411.024V595.276H0Z"/>
</clipPath>
<clipPath id="clip_13">
<path transform="matrix(1,0,0,-1,0,595.276)" d="M0 0H411.024V595.276H0Z"/>
</clipPath>
<clipPath id="clip_14">
<path transform="matrix(1,0,0,-1,0,595.276)" d="M0 0H411.024V595.276H0Z"/>
</clipPath>
<clipPath id="clip_15">
<path transform="matrix(1,0,0,-1,0,595.276)" d="M0 0H411.024V595.276H0Z"/>
</clipPath>
<clipPath id="clip_16">
<path transform="matrix(1,0,0,-1,0,595.276)" d="M0 0H411.024V595.276H0Z"/>
</clipPath>
<clipPath id="clip_17">
<path transform="matrix(1,0,0,-1,0,595.276)" d="M0 0H411.024V595.276H0Z"/>
</clipPath>
<clipPath id="clip_18">
<path transform="matrix(1,0,0,-1,0,595.276)" d="M0 0H411.024V595.276H0Z"/>
</clipPath>
</defs>
<g clip-path="url(#clip_1)">
<g clip-path="url(#clip_2)">
<use data-text="3" xlink:href="#font_3_5" transform="matrix(9,0,0,-9,35.4331,567.547)" fill="#f43040"/>
<use data-text="8" xlink:href="#font_3_10" transform="matrix(9,0,0,-9,39.0331,567.547)" fill="#f43040"/>
<use data-text="8" xlink:href="#font_3_10" transform="matrix(9,0,0,-9,42.6331,567.547)" fill="#f43040"/>
<path transform="matrix(1,0,0,-1,0,595.276)" d="M0 0H411.024V595.275H0Z" fill="#f43040"/>
<g clip-path="url(#clip_4)">
<path transform="matrix(1,0,0,-1,114.6082,291.6945)" d="M0 0C-11.512 0-20.877 9.37-20.877 20.887-20.877 32.404-11.512 41.773 0 41.773 11.512 41.773 20.877 32.404 20.877 20.887 20.877 9.37 11.512 0 0 0M0 40.346C-10.724 40.346-19.449 31.616-19.449 20.887-19.449 10.157-10.724 1.428 0 1.428 10.724 1.428 19.449 10.157 19.449 20.887 19.449 31.616 10.724 40.346 0 40.346" fill="#ffffff"/>
<path transform="matrix(1,0,0,-1,118.9473,268.8328)" d="M0 0C0-1.285-.375-2.303-1.124-3.052-1.874-3.803-2.918-4.177-4.255-4.177H-6.583V-9.558H-8.43V4.177H-4.255C-2.918 4.177-1.874 3.801-1.124 3.052-.375 2.302 0 1.285 0 0M-1.846 0C-1.846 1.017-2.087 1.713-2.569 2.088-3.051 2.462-3.773 2.651-4.737 2.651H-6.583V-2.651H-4.737C-3.773-2.651-3.051-2.464-2.569-2.088-2.087-1.714-1.846-1.018-1.846 0" fill="#ffffff"/>
<path transform="matrix(1,0,0,-1,162.1709,268.9083)" stroke-width="1.385" stroke-linecap="butt" stroke-miterlimit="10" stroke-linejoin="miter" fill="none" stroke="#2c292a" d="M0 0C-.105 18.855 15.183 34.151 34.042 34.151 52.902 34.151 68.19 18.855 68.19-.013 68.19-18.882 52.902-34.178 34.042-34.178 15.183-34.178-.105-18.882 0 0"/>
<path transform="matrix(1,0,0,-1,196.2133,303.7998)" d="M0 0C-19.223 0-34.861 15.646-34.861 34.878-34.861 54.11-19.223 69.757 0 69.757 19.223 69.757 34.862 54.11 34.862 34.878 34.862 15.646 19.223 0 0 0M0 68.329C-18.435 68.329-33.433 53.323-33.433 34.878-33.433 16.434-18.435 1.428 0 1.428 18.435 1.428 33.434 16.434 33.434 34.878 33.434 53.323 18.435 68.329 0 68.329" fill="#ffffff"/>
<path transform="matrix(1,0,0,-1,183.9902,265.83763)" d="M0 0C0-1.285-.375-2.303-1.124-3.052-1.874-3.803-2.918-4.177-4.255-4.177H-6.583V-9.558H-8.429V4.177H-4.255C-2.918 4.177-1.874 3.801-1.124 3.052-.375 2.302 0 1.285 0 0M-1.846 0C-1.846 1.017-2.087 1.713-2.569 2.088-3.051 2.462-3.773 2.651-4.737 2.651H-6.583V-2.651H-4.737C-3.773-2.651-3.051-2.464-2.569-2.088-2.087-1.714-1.846-1.018-1.846 0" fill="#ffffff"/>
</g>
<path transform="matrix(1,0,0,-1,194.1057,275.3957)" d="M0 0H-8.189V13.735H-.401V12.209H-6.342V7.952H-.883V6.426H-6.342V1.526H0Z" fill="#ffffff"/>
<g clip-path="url(#clip_5)">
<path transform="matrix(1,0,0,-1,204.3817,271.5403)" d="M0 0C0-1.232-.389-2.209-1.164-2.932-1.941-3.655-2.998-4.016-4.335-4.016-5.674-4.016-6.717-3.642-7.466-2.892-8.217-2.142-8.59-1.205-8.59-.08V.482H-6.744V0C-6.744-.803-6.503-1.419-6.021-1.847-5.54-2.277-4.977-2.49-4.335-2.49-3.48-2.49-2.85-2.263-2.449-1.807-2.047-1.353-1.847-.803-1.847-.161-1.847 .374-2.087 .87-2.569 1.325-3.051 1.78-3.747 2.195-4.656 2.57-5.941 3.052-6.864 3.587-7.426 4.177-7.988 4.765-8.269 5.462-8.269 6.265-8.269 7.389-7.881 8.299-7.105 8.996-6.33 9.691-5.407 10.04-4.335 10.04-2.944 10.04-1.941 9.625-1.325 8.795-.71 7.964-.402 7.068-.402 6.104H-2.248C-2.195 6.693-2.356 7.229-2.73 7.711-3.105 8.193-3.64 8.434-4.335 8.434-4.977 8.434-5.487 8.259-5.86 7.912-6.236 7.563-6.423 7.095-6.423 6.506-6.423 6.024-6.276 5.609-5.981 5.261-5.688 4.912-4.925 4.498-3.693 4.016-2.516 3.534-1.606 2.958-.963 2.289-.321 1.619 0 .856 0 0" fill="#ffffff"/>
</g>
<path transform="matrix(1,0,0,-1,214.4969,263.1869)" d="M0 0H-3.211V-12.209H-5.058V0H-8.269V1.526H0Z" fill="#ffffff"/>
<g clip-path="url(#clip_6)">
<path transform="matrix(1,0,0,-1,91.2723,305.6322)" d="M0 0C-1.004-.296-1.621-.494-1.85-.592-1.982-.231-2.114 .148-2.245 .543-1.85 .608-1.489 .674-1.16 .74V4.196C-1.16 4.854-1.176 5.397-1.209 5.825H-.173C-.206 5.397-.222 4.854-.222 4.196V.938L.913 1.185V7.898C-.14 7.898-.946 7.881-1.505 7.849V8.737C-.979 8.704-.469 8.688 .025 8.688H2.294C2.754 8.688 3.264 8.704 3.824 8.737V7.849C3.264 7.881 2.606 7.898 1.85 7.898V5.084C2.277 5.084 2.754 5.101 3.281 5.134V4.245C2.754 4.278 2.277 4.295 1.85 4.295V1.382L3.626 1.826V.987C2.212 .625 1.003 .296 0 0M3.947 0C4.555 .329 5.073 .757 5.501 1.283 5.238 1.81 5.008 2.402 4.811 3.061 4.613 3.718 4.465 4.393 4.366 5.084L4.12 4.69C3.856 4.854 3.577 5.035 3.281 5.233 3.676 5.792 4.046 6.458 4.391 7.232 4.737 8.005 5.04 8.885 5.304 9.873 5.534 9.741 5.928 9.56 6.488 9.33 6.323 9.198 6.15 8.935 5.97 8.54 5.789 8.145 5.632 7.783 5.501 7.454H7.623C8.247 7.454 8.807 7.47 9.3 7.503V6.615C8.839 6.647 8.412 6.664 8.018 6.664 7.984 5.413 7.836 4.311 7.574 3.357 7.31 2.402 6.998 1.694 6.636 1.234 7.031 .773 7.475 .411 7.968 .148 8.462-.116 9.004-.313 9.596-.444 9.169-.839 8.906-1.217 8.807-1.58 8.247-1.283 7.762-.987 7.352-.691 6.94-.395 6.521 0 6.093 .494 5.567-.033 5.049-.46 4.539-.79 4.029-1.118 3.511-1.415 2.985-1.678 2.788-1.217 2.524-.872 2.195-.642 2.754-.543 3.338-.329 3.947 0M5.304 5.282C5.468 4.13 5.731 3.093 6.093 2.172 6.356 2.797 6.57 3.431 6.735 4.073 6.899 4.714 7.014 5.578 7.08 6.664H5.205C4.975 6.203 4.712 5.709 4.416 5.183 4.744 5.216 5.04 5.249 5.304 5.282" fill="#ffffff"/>
<path transform="matrix(1,0,0,-1,101.8418,300.0541)" d="M0 0C.131 .263 .296 .559 .493 .889 1.414 .395 2.22-.083 2.911-.543 2.714-.807 2.516-1.119 2.319-1.481 1.628-.922 .855-.428 0 0M1.258-4.739C1.702-3.818 2.023-3.028 2.22-2.369 2.483-2.6 2.779-2.814 3.108-3.011 2.911-3.242 2.598-3.884 2.171-4.936 1.743-5.99 1.431-6.795 1.233-7.355 .904-7.091 .526-6.862 .099-6.664 .427-6.302 .814-5.661 1.258-4.739M.74 3.159C.937 3.389 1.135 3.636 1.332 3.9 2.122 3.406 2.845 2.896 3.503 2.369 3.273 2.172 3.042 1.892 2.812 1.53 2.253 2.089 1.562 2.632 .74 3.159M6.759 2.468C6.365 1.843 5.723 1.003 4.835-.049 6.48 .115 8.025 .247 9.473 .346 9.144 .872 8.815 1.333 8.486 1.728 8.782 1.925 9.029 2.106 9.227 2.271 10.411 .79 11.151-.214 11.447-.74 11.151-.872 10.855-1.054 10.559-1.283 10.394-1.021 10.18-.724 9.917-.395 8.601-.494 7.483-.585 6.562-.666 5.641-.749 4.786-.905 3.996-1.135 3.832-.708 3.667-.313 3.503 .049 3.799 .148 4.12 .362 4.465 .691 4.811 1.02 5.205 1.58 5.649 2.369 6.093 3.159 6.381 3.784 6.513 4.245 6.907 4.015 7.302 3.817 7.697 3.653 7.466 3.488 7.154 3.093 6.759 2.468M10.411-3.604V-5.726C10.411-6.187 10.427-6.73 10.46-7.355H9.375V-6.319H5.329V-7.355H4.293C4.325-6.862 4.342-6.319 4.342-5.726V-3.653C4.342-3.094 4.325-2.551 4.293-2.024H10.46C10.427-2.551 10.411-3.078 10.411-3.604M9.375-2.962H5.329V-5.3809998H9.375ZM9.375-5.381" fill="#ffffff"/>
<path transform="matrix(1,0,0,-1,117.4686,296.4999)" d="M0 0C.328 0 .707 .016 1.135 .049V-.839C.707-.807 .328-.79 0-.79H-.345V-3.159C.115-3.159 .624-3.143 1.184-3.11V-3.998C.592-3.966 .082-3.949-.345-3.949V-6.763C-.049-6.697 .444-6.5 1.135-6.17 1.135-6.434 1.151-6.747 1.184-7.108 .197-7.471-.551-7.734-1.061-7.898-1.571-8.063-2.122-8.277-2.714-8.54-2.846-8.211-3.01-7.866-3.207-7.503-2.977-7.503-2.319-7.355-1.234-7.059V-3.949C-1.793-3.949-2.319-3.982-2.812-4.048V-3.11C-2.319-3.143-1.793-3.159-1.234-3.159V-.79H-1.678C-2.106-.79-2.533-.807-2.96-.839V.049C-2.533 .016-2.122 0-1.727 0ZM6.513 0C7.006 0 7.565 .016 8.19 .049V-.889C7.631-.856 7.072-.839 6.513-.839H5.575C5.279-1.893 5.082-2.616 4.983-3.011V-9.034C4.983-9.691 4.999-10.284 5.033-10.811H3.996C4.029-10.317 4.046-9.725 4.046-9.034V-5.084C3.355-6.434 2.516-7.57 1.529-8.491 1.332-8.293 1.036-8.08 .641-7.849 1.102-7.52 1.537-7.101 1.949-6.59 2.36-6.08 2.763-5.479 3.158-4.788 3.552-4.097 3.84-3.455 4.021-2.863 4.202-2.271 4.374-1.597 4.539-.839H3.158C2.631-.839 2.088-.856 1.529-.889V.049C2.088 .016 2.631 0 3.158 0ZM8.486-6.763C8.157-6.96 7.845-7.158 7.549-7.355 7.055-6.467 6.668-5.809 6.389-5.381 6.11-4.953 5.773-4.492 5.378-3.998 5.674-3.834 5.937-3.637 6.167-3.406 7.186-4.788 7.96-5.908 8.486-6.763" fill="#ffffff"/>
<path transform="matrix(1,0,0,-1,128.7041,304.719)" d="M0 0C-.625-.247-1.119-.486-1.48-.716-1.645-.288-1.776 .074-1.875 .37-1.579 .403-1.324 .452-1.11 .518-.897 .584-.691 .649-.493 .716V4.862C-.823 4.862-1.217 4.829-1.677 4.764V5.652C-1.217 5.619-.823 5.603-.493 5.603V7.38C-.493 7.708-.51 8.103-.543 8.565H.395C.362 8.071 .345 7.676 .345 7.38V5.603C.608 5.603 .97 5.619 1.431 5.652V4.764C.97 4.829 .608 4.862 .345 4.862V1.012C.839 1.176 1.283 1.341 1.678 1.506 1.71 1.275 1.759 .995 1.826 .666 1.233 .469 .625 .247 0 0M8.092-1.654C8.321-1.654 8.469-1.53 8.536-1.283 8.601-1.037 8.667-.782 8.733-.518 9.029-.782 9.375-.946 9.769-1.012 9.506-1.9 9.234-2.369 8.955-2.419 8.675-2.468 8.437-2.493 8.24-2.493H6.809C6.052-2.493 5.69-2.13 5.723-1.407V.568H4.737C4.605-.288 4.235-.963 3.626-1.456 3.017-1.95 2.171-2.361 1.086-2.69 .987-2.361 .806-2.032 .543-1.703 1.727-1.538 2.549-1.251 3.01-.839 3.47-.428 3.75 .041 3.849 .568H2.319C2.351 1.259 2.368 1.884 2.368 2.444 2.368 3.036 2.351 3.628 2.319 4.221H8.486C8.453 3.727 8.437 3.167 8.437 2.542 8.437 1.917 8.453 1.259 8.486 .568H6.661V-1.012C6.628-1.472 6.792-1.686 7.154-1.654ZM4.737 5.998C4.473 5.866 4.21 5.734 3.947 5.603H6.019C6.151 5.964 6.282 6.474 6.414 7.133H3.799C3.075 7.133 2.483 7.116 2.023 7.084V7.923C2.45 7.89 3.042 7.874 3.799 7.874H5.082C5.049 8.235 4.966 8.581 4.835 8.91 5.098 8.943 5.46 9.009 5.921 9.108 6.019 8.646 6.101 8.235 6.167 7.874H7.253C7.845 7.874 8.404 7.89 8.93 7.923V7.084C8.404 7.116 7.861 7.133 7.302 7.133H6.513C6.809 7.001 7.137 6.853 7.5 6.689 7.269 6.393 7.072 6.03 6.907 5.603H7.944C8.469 5.603 8.98 5.619 9.473 5.652V4.764C8.98 4.829 8.469 4.862 7.944 4.862H3.454C2.862 4.862 2.319 4.829 1.826 4.764V5.652C2.319 5.619 2.845 5.603 3.404 5.603H3.849C3.717 6.03 3.552 6.359 3.355 6.59 3.618 6.721 3.881 6.869 4.144 7.034 4.309 6.771 4.506 6.425 4.737 5.998M7.598 3.53H3.3049999V2.74H7.598ZM7.598 2.049H3.3049999V1.2590001H7.598ZM7.598 1.259" fill="#ffffff"/>
<path transform="matrix(1,0,0,-1,91.3172,315.0322)" d="M0 0C0-.79-.231-1.415-.691-1.876-1.152-2.337-1.793-2.567-2.615-2.567H-4.046V-5.874H-5.181V2.567H-2.615C-1.793 2.567-1.152 2.336-.691 1.876-.231 1.415 0 .79 0 0M-1.135 0C-1.135 .625-1.283 1.053-1.579 1.283-1.875 1.513-2.319 1.629-2.911 1.629H-4.046V-1.629H-2.911C-2.319-1.629-1.875-1.514-1.579-1.283-1.283-1.054-1.135-.626-1.135 0" fill="#ffffff"/>
<path transform="matrix(1,0,0,-1,97.558,318.1421)" d="M0 0C0-.856-.264-1.547-.789-2.073-1.316-2.6-1.941-2.863-2.664-2.863-3.388-2.863-4.014-2.6-4.539-2.073-5.066-1.547-5.329-.856-5.329 0-5.329 .855-5.066 1.546-4.539 2.073-4.014 2.599-3.388 2.863-2.664 2.863-1.941 2.863-1.316 2.599-.789 2.073-.264 1.546 0 .855 0 0M-1.086 0C-1.086 .658-1.25 1.151-1.579 1.481-1.908 1.81-2.27 1.975-2.664 1.975-3.059 1.975-3.421 1.81-3.75 1.481-4.079 1.151-4.243 .658-4.243 0-4.243-.659-4.079-1.152-3.75-1.481-3.421-1.81-3.059-1.975-2.664-1.975-2.27-1.975-1.908-1.81-1.579-1.481-1.25-1.152-1.086-.659-1.086 0" fill="#ffffff"/>
</g>
<path transform="matrix(1,0,0,-1,0,595.276)" d="M100.69 274.369H101.677V282.81H100.69Z" fill="#ffffff"/>
<path transform="matrix(1,0,0,-1,0,595.276)" d="M106.932 281.478H107.918V282.761H106.932ZM106.932 274.369H107.918V279.89799H106.932Z" fill="#ffffff"/>
<g clip-path="url(#clip_7)">
<path transform="matrix(1,0,0,-1,116.0831,320.7584)" d="M0 0C-.165-.066-.354-.123-.567-.173-.782-.222-1.069-.247-1.431-.247-2.023-.247-2.5-.083-2.862 .247-3.224 .575-3.404 1.037-3.404 1.629V4.591H-5.082V5.381H-3.404V7.306H-2.418V5.381H-.395V4.591H-2.418V1.58C-2.418 1.316-2.352 1.094-2.22 .913-2.089 .732-1.842 .642-1.48 .642-1.119 .642-.823 .674-.592 .74-.362 .806-.165 .889 0 .987Z" fill="#ffffff"/>
</g>
<path transform="matrix(1,0,0,-1,0,595.276)" d="M119.512 281.478H120.498V282.761H119.512ZM119.512 274.369H120.498V279.89799H119.512Z" fill="#ffffff"/>
<g clip-path="url(#clip_8)">
<path transform="matrix(1,0,0,-1,128.8609,318.6851)" d="M0 0C0-.691-.239-1.251-.715-1.678-1.193-2.107-1.793-2.32-2.516-2.32-3.24-2.32-3.866-2.066-4.391-1.555-4.918-1.045-5.181-.346-5.181 .543-5.181 1.432-4.918 2.13-4.391 2.641-3.866 3.151-3.24 3.406-2.516 3.406-1.793 3.406-1.217 3.216-.789 2.838-.362 2.46-.148 2.007-.148 1.481H-1.234C-1.267 1.876-1.406 2.147-1.653 2.295-1.9 2.443-2.188 2.518-2.516 2.518-2.911 2.518-3.273 2.361-3.602 2.049-3.931 1.735-4.095 1.234-4.095 .543-4.095-.148-3.931-.65-3.602-.963-3.273-1.276-2.911-1.432-2.516-1.432-2.089-1.432-1.744-1.317-1.48-1.086-1.217-.856-1.086-.494-1.086 0Z" fill="#ffffff"/>
<path transform="matrix(1,0,0,-1,135.2004,320.9065)" d="M0 0H-1.184C-1.25 .065-1.3 .156-1.332 .271-1.365 .386-1.381 .526-1.381 .691-1.612 .427-1.892 .23-2.22 .099-2.549-.033-2.895-.099-3.256-.099-3.783-.099-4.227 .032-4.589 .296-4.951 .559-5.131 .938-5.131 1.432-5.131 1.925-4.967 2.32-4.638 2.616-4.31 2.912-3.799 3.11-3.108 3.209-2.648 3.274-2.245 3.357-1.9 3.455-1.554 3.554-1.381 3.685-1.381 3.85-1.381 4.048-1.456 4.245-1.604 4.443-1.751 4.64-2.072 4.739-2.566 4.739-2.96 4.739-3.249 4.665-3.429 4.517-3.61 4.369-3.734 4.163-3.799 3.9H-4.885C-4.819 4.426-4.581 4.845-4.169 5.159-3.758 5.471-3.224 5.627-2.566 5.627-1.842 5.627-1.3 5.462-.937 5.134-.576 4.804-.395 4.344-.395 3.752V1.037C-.395 .839-.362 .658-.296 .494-.231 .329-.132 .164 0 0M-1.381 1.826V2.814C-1.579 2.747-1.769 2.69-1.949 2.641-2.13 2.592-2.435 2.534-2.862 2.468-3.355 2.402-3.676 2.287-3.824 2.123-3.972 1.958-4.046 1.76-4.046 1.53-4.046 1.333-3.972 1.16-3.824 1.012-3.676 .864-3.454 .79-3.158 .79-2.862 .79-2.541 .872-2.196 1.037-1.85 1.201-1.579 1.464-1.381 1.826" fill="#ffffff"/>
</g>
<path transform="matrix(1,0,0,-1,0,595.276)" d="M138.432 274.369H139.418V282.81H138.432Z" fill="#ffffff"/>
<path transform="matrix(1,0,0,-1,142.8478,270.48033)" d="M0 0V2.142 4.284L-4.282 2.142ZM15.792 2.856H-1.071001V1.428H15.792Z" fill="#ffffff"/>
<path transform="matrix(1,0,0,-1,247.5592,271.4022)" d="M0 0V2.142 4.284L4.282 2.142ZM-15.235 2.856H1.0700007V1.428H-15.235Z" fill="#ffffff"/>
<path transform="matrix(1,0,0,-1,192.6448,217.37149)" d="M0 0H2.141 4.282L2.141 4.284ZM2.854 1.071H1.427V-14.848H2.854Z" fill="#ffffff"/>
<path transform="matrix(1,0,0,-1,192.6448,321.1781)" d="M0 0H2.141 4.282L2.141-4.284ZM2.854-1.071H1.427V16.396H2.854Z" fill="#ffffff"/>
<g clip-path="url(#clip_9)">
<path transform="matrix(1,0,0,-1,275.9098,291.6945)" d="M0 0C-11.512 0-20.877 9.37-20.877 20.887-20.877 32.404-11.512 41.773 0 41.773 11.512 41.773 20.877 32.404 20.877 20.887 20.877 9.37 11.512 0 0 0M0 40.346C-10.724 40.346-19.449 31.616-19.449 20.887-19.449 10.157-10.724 1.428 0 1.428 10.724 1.428 19.449 10.157 19.449 20.887 19.449 31.616 10.724 40.346 0 40.346" fill="#ffffff"/>
</g>
<path transform="matrix(1,0,0,-1,279.9198,266.1823)" d="M0 0H-3.211V-12.209H-5.058V0H-8.269V1.526H0Z" fill="#ffffff"/>
<g clip-path="url(#clip_10)">
<path transform="matrix(1,0,0,-1,195.9374,370.6374)" d="M0 0C-11.512 0-20.877 9.37-20.877 20.887-20.877 32.404-11.512 41.774 0 41.774 11.511 41.774 20.877 32.404 20.877 20.887 20.877 9.37 11.511 0 0 0M0 40.346C-10.724 40.346-19.449 31.616-19.449 20.887-19.449 10.157-10.724 1.428 0 1.428 10.724 1.428 19.449 10.157 19.449 20.887 19.449 31.616 10.724 40.346 0 40.346" fill="#ffffff"/>
<path transform="matrix(1,0,0,-1,200.1113,353.484)" d="M0 0C0-1.232-.389-2.209-1.164-2.932-1.94-3.655-2.998-4.016-4.335-4.016-5.674-4.016-6.717-3.642-7.466-2.892-8.216-2.142-8.59-1.205-8.59-.08V.482H-6.744V0C-6.744-.803-6.503-1.419-6.021-1.847-5.539-2.277-4.977-2.49-4.335-2.49-3.48-2.49-2.85-2.263-2.449-1.807-2.047-1.353-1.847-.803-1.847-.161-1.847 .374-2.087 .87-2.569 1.325-3.051 1.78-3.747 2.195-4.656 2.57-5.941 3.052-6.864 3.587-7.426 4.177-7.988 4.765-8.269 5.462-8.269 6.265-8.269 7.389-7.881 8.299-7.105 8.996-6.33 9.691-5.406 10.04-4.335 10.04-2.944 10.04-1.94 9.625-1.325 8.795-.71 7.964-.401 7.068-.401 6.104H-2.248C-2.195 6.693-2.356 7.229-2.729 7.711-3.105 8.193-3.64 8.434-4.335 8.434-4.977 8.434-5.487 8.259-5.86 7.912-6.236 7.563-6.423 7.095-6.423 6.506-6.423 6.024-6.276 5.609-5.981 5.261-5.687 4.912-4.925 4.498-3.693 4.016-2.516 3.534-1.606 2.958-.963 2.289-.321 1.619 0 .856 0 0" fill="#ffffff"/>
<path transform="matrix(1,0,0,-1,195.9374,183.23972)" d="M0 0C-11.512 0-20.877 9.37-20.877 20.887-20.877 32.404-11.512 41.773 0 41.773 11.511 41.773 20.877 32.404 20.877 20.887 20.877 9.37 11.511 0 0 0M0 40.345C-10.724 40.345-19.449 31.616-19.449 20.887-19.449 10.157-10.724 1.428 0 1.428 10.724 1.428 19.449 10.157 19.449 20.887 19.449 31.616 10.724 40.345 0 40.345" fill="#ffffff"/>
</g>
<path transform="matrix(1,0,0,-1,200.1113,169.9415)" d="M0 0H-8.189V13.735H-.401V12.209H-6.342V7.952H-.883V6.426H-6.342V1.526H0Z" fill="#ffffff"/>
<g clip-path="url(#clip_11)">
<path transform="matrix(1,0,0,-1,256.4434,301.4857)" d="M0 0C-.461-.231-.937-.461-1.431-.691V-4.393C-1.398-4.788-1.513-5.084-1.776-5.282-2.04-5.479-2.566-5.644-3.355-5.776-3.421-5.446-3.552-5.084-3.75-4.69-3.092-4.722-2.689-4.665-2.541-4.517-2.393-4.369-2.319-4.196-2.319-3.998V-1.135C-2.846-1.366-3.355-1.629-3.848-1.925-3.947-1.564-4.112-1.251-4.342-.987-4.014-.922-3.339-.659-2.319-.197V2.221C-3.01 2.221-3.586 2.204-4.046 2.172V3.061C-3.586 3.027-3.01 3.011-2.319 3.011-2.319 4.196-2.336 5.068-2.368 5.627H-1.382C-1.415 5.134-1.431 4.261-1.431 3.011-1.069 3.011-.625 3.027-.099 3.061V2.172C-.625 2.204-1.069 2.221-1.431 2.221V.197C-.971 .395-.543 .625-.148 .889-.116 .658-.066 .362 0 0M.543 .938C1.233 .905 2.039 .889 2.96 .889V2.863H1.825C1.233 2.863 .74 2.846 .345 2.814V3.702C.839 3.669 1.299 3.653 1.727 3.653H2.96C2.96 4.147 2.943 4.755 2.911 5.479H3.947C3.914 4.887 3.898 4.278 3.898 3.653H5.625C5.986 3.653 6.397 3.669 6.858 3.702V2.814C6.397 2.846 5.986 2.863 5.625 2.863H3.898V.889H6.414C6.249 .23 5.986-.494 5.625-1.283 5.262-2.073 4.786-2.814 4.194-3.505 4.719-3.9 5.262-4.213 5.822-4.443 6.381-4.673 6.89-4.838 7.351-4.936 7.121-5.233 6.924-5.545 6.759-5.874 5.674-5.545 4.589-4.952 3.503-4.097 2.812-4.656 1.661-5.233 .049-5.825-.083-5.627-.329-5.314-.691-4.887-.197-4.821 .345-4.673 .937-4.443 1.529-4.213 2.154-3.9 2.812-3.505 2.055-2.419 1.513-1.218 1.184 .099H.543ZM3.503-2.863C3.799-2.6 4.103-2.189 4.416-1.629 4.728-1.07 4.983-.478 5.18 .148H2.072C2.499-1.267 2.976-2.271 3.503-2.863" fill="#ffffff"/>
<path transform="matrix(1,0,0,-1,269.9484,298.86943)" d="M0 0V.938C0 1.728-.017 2.386-.049 2.912H1.086C1.052 2.32 1.036 1.661 1.036 .938V0H4.145C4.704 0 5.312 .016 5.97 .049V-.938C5.345-.905 4.753-.889 4.194-.889H1.924C2.122-1.514 2.376-2.09 2.689-2.616 3.001-3.143 3.355-3.62 3.75-4.048 4.145-4.476 4.572-4.846 5.033-5.159 5.493-5.472 5.921-5.694 6.316-5.825 5.921-6.154 5.608-6.467 5.378-6.763 4.786-6.401 4.276-6.031 3.848-5.652 3.421-5.274 3.01-4.822 2.615-4.295 2.22-3.769 1.9-3.233 1.653-2.69 1.406-2.147 1.2-1.613 1.036-1.086V-6.516C1.036-7.01 1.052-7.585 1.086-8.244H-.049C-.017-7.585 0-7.01 0-6.516V-1.333C-.197-1.826-.428-2.337-.691-2.863-.954-3.39-1.242-3.867-1.554-4.295-1.867-4.723-2.245-5.159-2.689-5.603-3.133-6.047-3.7-6.533-4.391-7.059-4.589-6.763-4.901-6.484-5.329-6.22-4.868-5.99-4.4-5.677-3.922-5.282-3.446-4.887-3.018-4.451-2.639-3.974-2.262-3.497-1.924-2.987-1.628-2.444-1.332-1.901-1.102-1.382-.937-.889H-3.01C-3.536-.889-4.161-.905-4.884-.938V.049C-4.161 .016-3.552 0-3.059 0ZM4.194 2.024C4.424 1.76 4.687 1.415 4.983 .987 4.555 .691 4.26 .46 4.095 .296 3.766 .822 3.495 1.234 3.281 1.53 3.067 1.826 2.862 2.073 2.664 2.271L3.454 2.814C3.717 2.55 3.964 2.287 4.194 2.024" fill="#ffffff"/>
<path transform="matrix(1,0,0,-1,280.444,296.4999)" d="M0 0C.328 0 .707 .016 1.135 .049V-.839C.707-.807 .328-.79 0-.79H-.345V-3.159C.115-3.159 .625-3.143 1.184-3.11V-3.998C.592-3.966 .082-3.949-.345-3.949V-6.763C-.049-6.697 .444-6.5 1.135-6.17 1.135-6.434 1.151-6.747 1.184-7.108 .197-7.471-.551-7.734-1.061-7.898-1.571-8.063-2.122-8.277-2.714-8.54-2.846-8.211-3.01-7.866-3.207-7.503-2.977-7.503-2.319-7.355-1.233-7.059V-3.949C-1.793-3.949-2.319-3.982-2.812-4.048V-3.11C-2.319-3.143-1.793-3.159-1.233-3.159V-.79H-1.678C-2.105-.79-2.533-.807-2.96-.839V.049C-2.533 .016-2.122 0-1.727 0ZM6.513 0C7.006 0 7.565 .016 8.19 .049V-.889C7.631-.856 7.072-.839 6.513-.839H5.575C5.279-1.893 5.082-2.616 4.983-3.011V-9.034C4.983-9.691 5-10.284 5.033-10.811H3.997C4.029-10.317 4.046-9.725 4.046-9.034V-5.084C3.355-6.434 2.516-7.57 1.53-8.491 1.332-8.293 1.036-8.08 .642-7.849 1.102-7.52 1.537-7.101 1.949-6.59 2.36-6.08 2.763-5.479 3.158-4.788 3.553-4.097 3.84-3.455 4.021-2.863 4.202-2.271 4.374-1.597 4.539-.839H3.158C2.631-.839 2.089-.856 1.53-.889V.049C2.089 .016 2.631 0 3.158 0ZM8.486-6.763C8.157-6.96 7.845-7.158 7.549-7.355 7.056-6.467 6.669-5.809 6.389-5.381 6.11-4.953 5.773-4.492 5.378-3.998 5.674-3.834 5.937-3.637 6.168-3.406 7.187-4.788 7.96-5.908 8.486-6.763" fill="#ffffff"/>
<path transform="matrix(1,0,0,-1,291.6795,304.719)" d="M0 0C-.625-.247-1.119-.486-1.48-.716-1.645-.288-1.776 .074-1.875 .37-1.579 .403-1.324 .452-1.11 .518-.896 .584-.691 .649-.493 .716V4.862C-.822 4.862-1.217 4.829-1.678 4.764V5.652C-1.217 5.619-.822 5.603-.493 5.603V7.38C-.493 7.708-.51 8.103-.543 8.565H.395C.362 8.071 .346 7.676 .346 7.38V5.603C.608 5.603 .97 5.619 1.431 5.652V4.764C.97 4.829 .608 4.862 .346 4.862V1.012C.839 1.176 1.283 1.341 1.678 1.506 1.71 1.275 1.759 .995 1.826 .666 1.234 .469 .625 .247 0 0M8.092-1.654C8.322-1.654 8.469-1.53 8.536-1.283 8.601-1.037 8.667-.782 8.733-.518 9.029-.782 9.375-.946 9.769-1.012 9.506-1.9 9.234-2.369 8.955-2.419 8.675-2.468 8.437-2.493 8.24-2.493H6.809C6.052-2.493 5.69-2.13 5.723-1.407V.568H4.737C4.605-.288 4.235-.963 3.627-1.456 3.017-1.95 2.171-2.361 1.086-2.69 .987-2.361 .806-2.032 .543-1.703 1.727-1.538 2.549-1.251 3.01-.839 3.47-.428 3.75 .041 3.848 .568H2.319C2.351 1.259 2.368 1.884 2.368 2.444 2.368 3.036 2.351 3.628 2.319 4.221H8.486C8.453 3.727 8.437 3.167 8.437 2.542 8.437 1.917 8.453 1.259 8.486 .568H6.661V-1.012C6.628-1.472 6.792-1.686 7.154-1.654ZM4.737 5.998C4.473 5.866 4.21 5.734 3.947 5.603H6.019C6.151 5.964 6.282 6.474 6.414 7.133H3.799C3.075 7.133 2.483 7.116 2.023 7.084V7.923C2.45 7.89 3.042 7.874 3.799 7.874H5.082C5.049 8.235 4.966 8.581 4.835 8.91 5.098 8.943 5.46 9.009 5.921 9.108 6.019 8.646 6.101 8.235 6.168 7.874H7.253C7.845 7.874 8.404 7.89 8.93 7.923V7.084C8.404 7.116 7.861 7.133 7.302 7.133H6.513C6.809 7.001 7.137 6.853 7.5 6.689 7.269 6.393 7.072 6.03 6.908 5.603H7.944C8.469 5.603 8.98 5.619 9.473 5.652V4.764C8.98 4.829 8.469 4.862 7.944 4.862H3.454C2.862 4.862 2.319 4.829 1.826 4.764V5.652C2.319 5.619 2.845 5.603 3.404 5.603H3.848C3.717 6.03 3.553 6.359 3.355 6.59 3.618 6.721 3.881 6.869 4.145 7.034 4.309 6.771 4.506 6.425 4.737 5.998M7.598 3.53H3.3049999V2.74H7.598ZM7.598 2.049H3.3049999V1.2590001H7.598ZM7.598 1.259" fill="#ffffff"/>
</g>
<path transform="matrix(1,0,0,-1,247.8119,313.4032)" d="M0 0H-1.974V-7.503H-3.108V0H-5.082V.938H0Z" fill="#ffffff"/>
<g clip-path="url(#clip_12)">
<path transform="matrix(1,0,0,-1,254.102,319.0307)" d="M0 0C-.066-.592-.329-1.07-.789-1.432-1.25-1.794-1.793-1.975-2.418-1.975-3.207-1.975-3.857-1.72-4.367-1.209-4.877-.7-5.131 0-5.131 .889-5.131 1.777-4.877 2.476-4.367 2.987-3.857 3.496-3.207 3.752-2.418 3.752-1.727 3.752-1.16 3.53-.716 3.085-.271 2.641-.049 1.908-.049 .889H-4.046C-4.046 .164-3.89-.346-3.577-.642-3.265-.938-2.879-1.086-2.418-1.086-2.056-1.086-1.76-.996-1.53-.814-1.3-.634-1.152-.362-1.086 0ZM-1.184 1.678C-1.25 2.139-1.398 2.46-1.628 2.641-1.859 2.821-2.155 2.912-2.516 2.912-2.846 2.912-3.141 2.821-3.404 2.641-3.668 2.46-3.865 2.139-3.997 1.678Z" fill="#ffffff"/>
<path transform="matrix(1,0,0,-1,260.3923,318.6851)" d="M0 0C0-.691-.239-1.251-.716-1.678-1.193-2.107-1.793-2.32-2.516-2.32-3.24-2.32-3.865-2.066-4.391-1.555-4.918-1.045-5.181-.346-5.181 .543-5.181 1.432-4.918 2.13-4.391 2.641-3.865 3.151-3.24 3.406-2.516 3.406-1.793 3.406-1.217 3.216-.789 2.838-.362 2.46-.148 2.007-.148 1.481H-1.233C-1.267 1.876-1.406 2.147-1.653 2.295-1.9 2.443-2.188 2.518-2.516 2.518-2.911 2.518-3.273 2.361-3.602 2.049-3.931 1.735-4.095 1.234-4.095 .543-4.095-.148-3.931-.65-3.602-.963-3.273-1.276-2.911-1.432-2.516-1.432-2.089-1.432-1.744-1.317-1.48-1.086-1.217-.856-1.086-.494-1.086 0Z" fill="#ffffff"/>
<path transform="matrix(1,0,0,-1,266.5837,320.9065)" d="M0 0H-.987V3.554C-.987 3.949-1.085 4.261-1.283 4.492-1.48 4.722-1.744 4.838-2.072 4.838-2.5 4.838-2.903 4.616-3.281 4.171-3.66 3.727-3.849 3.175-3.849 2.518V0H-4.835V8.441H-3.849V4.492C-3.586 4.854-3.298 5.134-2.985 5.331-2.673 5.529-2.27 5.627-1.776 5.627-1.184 5.627-.74 5.462-.444 5.134-.148 4.804 0 4.393 0 3.9Z" fill="#ffffff"/>
<path transform="matrix(1,0,0,-1,272.8738,320.9065)" d="M0 0H-.987V3.554C-.987 3.949-1.085 4.261-1.283 4.492-1.48 4.722-1.744 4.838-2.072 4.838-2.5 4.838-2.903 4.616-3.281 4.171-3.66 3.727-3.848 3.175-3.848 2.518V0H-4.835V5.529H-3.848V4.492C-3.586 4.854-3.298 5.134-2.985 5.331-2.673 5.529-2.27 5.627-1.776 5.627-1.184 5.627-.74 5.462-.444 5.134-.148 4.804 0 4.393 0 3.9Z" fill="#ffffff"/>
<path transform="matrix(1,0,0,-1,279.4107,318.1421)" d="M0 0C0-.856-.264-1.547-.789-2.073-1.316-2.6-1.941-2.863-2.664-2.863-3.388-2.863-4.013-2.6-4.539-2.073-5.066-1.547-5.329-.856-5.329 0-5.329 .855-5.066 1.546-4.539 2.073-4.013 2.599-3.388 2.863-2.664 2.863-1.941 2.863-1.316 2.599-.789 2.073-.264 1.546 0 .855 0 0M-1.085 0C-1.085 .658-1.25 1.151-1.579 1.481-1.908 1.81-2.27 1.975-2.664 1.975-3.059 1.975-3.421 1.81-3.75 1.481-4.079 1.151-4.243 .658-4.243 0-4.243-.659-4.079-1.152-3.75-1.481-3.421-1.81-3.059-1.975-2.664-1.975-2.27-1.975-1.908-1.81-1.579-1.481-1.25-1.152-1.085-.659-1.085 0" fill="#ffffff"/>
</g>
<path transform="matrix(1,0,0,-1,0,595.276)" d="M282.543 274.369H283.529V282.81H282.543Z" fill="#ffffff"/>
<g clip-path="url(#clip_13)">
<path transform="matrix(1,0,0,-1,291.9909,318.1421)" d="M0 0C0-.856-.264-1.547-.789-2.073-1.316-2.6-1.941-2.863-2.664-2.863-3.388-2.863-4.013-2.6-4.539-2.073-5.066-1.547-5.329-.856-5.329 0-5.329 .855-5.066 1.546-4.539 2.073-4.013 2.599-3.388 2.863-2.664 2.863-1.941 2.863-1.316 2.599-.789 2.073-.264 1.546 0 .855 0 0M-1.085 0C-1.085 .658-1.25 1.151-1.579 1.481-1.908 1.81-2.269 1.975-2.664 1.975-3.059 1.975-3.421 1.81-3.75 1.481-4.079 1.151-4.243 .658-4.243 0-4.243-.659-4.079-1.152-3.75-1.481-3.421-1.81-3.059-1.975-2.664-1.975-2.269-1.975-1.908-1.81-1.579-1.481-1.25-1.152-1.085-.659-1.085 0" fill="#ffffff"/>
<path transform="matrix(1,0,0,-1,298.38,316.2169)" d="M0 0C-.23 .065-.452 .106-.666 .123-.88 .139-1.102 .115-1.332 .049-1.233-.049-1.152-.173-1.085-.321-1.02-.469-.987-.691-.987-.987-.987-1.547-1.176-2.008-1.554-2.369-1.933-2.732-2.401-2.912-2.96-2.912-3.092-2.912-3.265-2.888-3.478-2.838-3.693-2.789-3.865-2.732-3.996-2.666-4.095-2.732-4.161-2.798-4.194-2.863-4.227-2.929-4.243-3.011-4.243-3.11-4.243-3.275-4.128-3.398-3.898-3.48-3.668-3.563-3.256-3.604-2.664-3.604-1.711-3.604-1.061-3.736-.715-3.998-.37-4.262-.197-4.591-.197-4.986-.197-5.512-.452-5.899-.962-6.146-1.472-6.393-2.072-6.516-2.763-6.516-3.651-6.516-4.309-6.4-4.737-6.17-5.164-5.94-5.378-5.627-5.378-5.233-5.378-5.035-5.296-4.838-5.131-4.64-4.967-4.443-4.754-4.279-4.49-4.147-4.687-4.048-4.844-3.924-4.959-3.776-5.074-3.628-5.131-3.439-5.131-3.209-5.131-3.011-5.057-2.838-4.909-2.69-4.761-2.542-4.589-2.419-4.391-2.32-4.556-2.156-4.687-1.958-4.786-1.728-4.884-1.498-4.934-1.251-4.934-.987-4.934-.428-4.745 .032-4.367 .395-3.989 .757-3.52 .938-2.96 .938-2.664 .938-2.41 .896-2.196 .814-1.982 .732-1.793 .608-1.628 .444-1.365 .642-1.102 .781-.839 .864-.576 .946-.296 .97 0 .938ZM-1.135-5.084C-1.135-4.952-1.209-4.822-1.357-4.69-1.505-4.558-1.875-4.492-2.467-4.492-2.599-4.492-2.78-4.484-3.01-4.467-3.24-4.451-3.503-4.427-3.799-4.393-4.063-4.492-4.243-4.608-4.342-4.739-4.44-4.871-4.49-5.002-4.49-5.134-4.49-5.331-4.359-5.496-4.095-5.627-3.832-5.759-3.372-5.825-2.714-5.825-2.155-5.825-1.752-5.751-1.505-5.603-1.258-5.455-1.135-5.282-1.135-5.084M-1.974-.987C-1.974-.659-2.056-.395-2.22-.197-2.385 0-2.632 .099-2.96 .099-3.29 .099-3.536 0-3.7-.197-3.865-.395-3.947-.659-3.947-.987-3.947-1.317-3.865-1.58-3.7-1.777-3.536-1.975-3.29-2.073-2.96-2.073-2.632-2.073-2.385-1.975-2.22-1.777-2.056-1.58-1.974-1.317-1.974-.987" fill="#ffffff"/>
</g>
<path transform="matrix(1,0,0,-1,0,595.276)" d="M301.364 281.478H302.351V282.761H301.364ZM301.364 274.369H302.351V279.89799H301.364Z" fill="#ffffff"/>
<g clip-path="url(#clip_14)">
<path transform="matrix(1,0,0,-1,310.7138,318.6851)" d="M0 0C0-.691-.239-1.251-.716-1.678-1.193-2.107-1.793-2.32-2.516-2.32-3.24-2.32-3.865-2.066-4.391-1.555-4.918-1.045-5.181-.346-5.181 .543-5.181 1.432-4.918 2.13-4.391 2.641-3.865 3.151-3.24 3.406-2.516 3.406-1.793 3.406-1.217 3.216-.789 2.838-.362 2.46-.148 2.007-.148 1.481H-1.233C-1.267 1.876-1.406 2.147-1.653 2.295-1.9 2.443-2.188 2.518-2.516 2.518-2.911 2.518-3.273 2.361-3.602 2.049-3.931 1.735-4.095 1.234-4.095 .543-4.095-.148-3.931-.65-3.602-.963-3.273-1.276-2.911-1.432-2.516-1.432-2.089-1.432-1.744-1.317-1.48-1.086-1.217-.856-1.086-.494-1.086 0Z" fill="#ffffff"/>
<path transform="matrix(1,0,0,-1,175.8842,376.8648)" d="M0 0C-.099-.264-.288-.659-.567-1.185-.847-1.712-1.135-2.189-1.431-2.616V-7.059C-1.431-7.585-1.415-8.079-1.381-8.54H-2.418C-2.385-8.079-2.368-7.585-2.368-7.059V-3.752C-2.533-3.949-2.755-4.171-3.034-4.418-3.314-4.665-3.651-4.97-4.046-5.331-4.211-5.068-4.408-4.756-4.638-4.393-3.816-3.867-3.166-3.3-2.689-2.69-2.213-2.082-1.809-1.465-1.48-.839H-2.911C-3.536-.839-4.046-.856-4.441-.889V.099C-4.046 .032-3.536 0-2.911 0ZM-.888 1.283C-1.283 1.217-1.645 1.118-1.974 .987-2.04 1.546-2.22 2.123-2.516 2.715-2.155 2.814-1.809 2.912-1.48 3.011-1.25 2.386-1.053 1.81-.888 1.283M.74-4.245C.444-4.41 .148-4.624-.148-4.887-.378-4.328-.757-3.719-1.283-3.061-1.086-2.962-.823-2.781-.493-2.518 .066-3.209 .476-3.785 .74-4.245M2.96 1.728C2.96 2.353 2.943 2.814 2.911 3.11H4.046C3.979 2.78 3.947 2.336 3.947 1.777V-.74C4.966-.74 5.773-.724 6.365-.691V-1.678C5.805-1.646 4.999-1.629 3.947-1.629V-6.713H5.575C6.134-6.713 6.628-6.697 7.056-6.664V-7.602C6.628-7.569 6.15-7.553 5.625-7.553H1.579C.92-7.553 .345-7.569-.148-7.602V-6.664C.378-6.697 .954-6.713 1.579-6.713H2.96V-1.629C1.809-1.629 1.003-1.646 .543-1.678V-.691C1.003-.724 1.809-.74 2.96-.74Z" fill="#ffffff"/>
<path transform="matrix(1,0,0,-1,195.4581,378.3457)" d="M0 0C-.296-.264-.527-.56-.691-.889-2.928 .131-4.622 1.448-5.773 3.061-7.319 1.316-9.013-.083-10.855-1.135-11.184-.675-11.464-.395-11.693-.296-10.477 .131-9.317 .839-8.215 1.826-7.113 2.814-6.365 3.718-5.97 4.541-5.674 4.344-5.329 4.163-4.934 3.998L-5.23 3.702C-4.079 2.056-2.336 .822 0 0M-8.486-5.677C-6.315-5.611-4.638-5.546-3.454-5.479-3.75-5.151-4.194-4.723-4.786-4.196-4.556-3.998-4.326-3.785-4.095-3.554-3.635-3.982-3.191-4.402-2.763-4.813-2.336-5.225-1.842-5.726-1.283-6.319-1.513-6.516-1.793-6.763-2.122-7.059-2.418-6.631-2.664-6.335-2.862-6.17-3.619-6.203-4.844-6.269-6.537-6.368-8.232-6.467-9.325-6.582-9.819-6.713-9.983-6.285-10.115-5.956-10.213-5.726-9.688-5.562-9.062-5.142-8.338-4.467-7.615-3.793-7.105-3.242-6.809-2.814H-8.24C-9.128-2.814-9.95-2.831-10.707-2.863V-2.024C-9.917-2.057-9.112-2.073-8.289-2.073H-3.355C-2.533-2.073-1.727-2.057-.937-2.024V-2.863C-1.727-2.831-2.599-2.814-3.552-2.814H-6.513C-6.25-3.078-6.003-3.275-5.773-3.406-6.003-3.571-6.907-4.328-8.486-5.677M-4.885 .197C-4.161 .197-3.569 .214-3.108 .247V-.642C-3.602-.609-4.194-.592-4.885-.592H-7.006C-7.631-.592-8.158-.609-8.585-.642V.247C-8.158 .214-7.648 .197-7.056 .197Z" fill="#ffffff"/>
<path transform="matrix(1,0,0,-1,199.6382,374.5447)" d="M0 0C.328 0 .707 .016 1.135 .049V-.839C.707-.807 .328-.79 0-.79H-.345V-3.159C.115-3.159 .625-3.143 1.184-3.11V-3.998C.592-3.966 .082-3.949-.345-3.949V-6.763C-.049-6.697 .444-6.5 1.135-6.17 1.135-6.434 1.151-6.747 1.184-7.108 .197-7.471-.551-7.734-1.061-7.898-1.571-8.063-2.122-8.277-2.714-8.54-2.846-8.211-3.01-7.866-3.207-7.503-2.977-7.503-2.319-7.355-1.233-7.059V-3.949C-1.793-3.949-2.319-3.982-2.812-4.048V-3.11C-2.319-3.143-1.793-3.159-1.233-3.159V-.79H-1.678C-2.105-.79-2.533-.807-2.96-.839V.049C-2.533 .016-2.122 0-1.727 0ZM6.513 0C7.006 0 7.565 .016 8.19 .049V-.889C7.631-.856 7.072-.839 6.513-.839H5.575C5.279-1.893 5.082-2.616 4.983-3.011V-9.034C4.983-9.691 5-10.284 5.033-10.811H3.997C4.029-10.317 4.046-9.725 4.046-9.034V-5.084C3.355-6.434 2.516-7.57 1.53-8.491 1.332-8.293 1.036-8.08 .642-7.849 1.102-7.52 1.537-7.101 1.949-6.59 2.36-6.08 2.763-5.479 3.158-4.788 3.552-4.097 3.84-3.455 4.021-2.863 4.202-2.271 4.374-1.597 4.539-.839H3.158C2.631-.839 2.089-.856 1.53-.889V.049C2.089 .016 2.631 0 3.158 0ZM8.486-6.763C8.157-6.96 7.845-7.158 7.549-7.355 7.056-6.467 6.668-5.809 6.389-5.381 6.11-4.953 5.773-4.492 5.378-3.998 5.674-3.834 5.937-3.637 6.168-3.406 7.187-4.788 7.96-5.908 8.486-6.763" fill="#ffffff"/>
<path transform="matrix(1,0,0,-1,210.8736,382.7638)" d="M0 0C-.625-.247-1.119-.486-1.48-.716-1.645-.288-1.776 .074-1.875 .37-1.579 .403-1.324 .452-1.11 .518-.896 .584-.691 .649-.493 .716V4.862C-.822 4.862-1.217 4.829-1.678 4.764V5.652C-1.217 5.619-.822 5.603-.493 5.603V7.38C-.493 7.708-.51 8.103-.543 8.565H.395C.362 8.071 .346 7.676 .346 7.38V5.603C.608 5.603 .97 5.619 1.431 5.652V4.764C.97 4.829 .608 4.862 .346 4.862V1.012C.839 1.176 1.283 1.341 1.678 1.506 1.71 1.275 1.759 .995 1.826 .666 1.234 .469 .625 .247 0 0M8.092-1.654C8.322-1.654 8.469-1.53 8.536-1.283 8.601-1.037 8.667-.782 8.733-.518 9.029-.782 9.375-.947 9.769-1.012 9.506-1.901 9.234-2.369 8.955-2.419 8.675-2.468 8.437-2.493 8.24-2.493H6.809C6.052-2.493 5.69-2.13 5.723-1.407V.568H4.737C4.605-.288 4.235-.963 3.627-1.456 3.017-1.95 2.171-2.361 1.086-2.69 .987-2.361 .806-2.032 .543-1.703 1.727-1.538 2.549-1.251 3.01-.839 3.47-.428 3.75 .041 3.849 .568H2.319C2.351 1.259 2.368 1.884 2.368 2.443 2.368 3.036 2.351 3.628 2.319 4.221H8.486C8.453 3.727 8.437 3.167 8.437 2.542 8.437 1.917 8.453 1.259 8.486 .568H6.661V-1.012C6.628-1.472 6.792-1.686 7.154-1.654ZM4.737 5.998C4.473 5.866 4.21 5.734 3.947 5.603H6.019C6.151 5.964 6.282 6.474 6.414 7.133H3.799C3.075 7.133 2.483 7.116 2.023 7.084V7.923C2.45 7.89 3.042 7.874 3.799 7.874H5.082C5.049 8.235 4.966 8.581 4.835 8.91 5.098 8.943 5.46 9.009 5.921 9.108 6.019 8.646 6.101 8.235 6.168 7.874H7.253C7.845 7.874 8.404 7.89 8.93 7.923V7.084C8.404 7.116 7.861 7.133 7.302 7.133H6.513C6.809 7.001 7.137 6.853 7.5 6.689 7.269 6.393 7.072 6.03 6.908 5.603H7.944C8.469 5.603 8.98 5.619 9.473 5.652V4.764C8.98 4.829 8.469 4.862 7.944 4.862H3.454C2.862 4.862 2.319 4.829 1.826 4.764V5.652C2.319 5.619 2.845 5.603 3.404 5.603H3.849C3.717 6.03 3.553 6.359 3.355 6.59 3.618 6.721 3.881 6.869 4.145 7.034 4.309 6.771 4.506 6.425 4.737 5.998M7.598 3.529H3.3049999V2.739H7.598ZM7.598 2.049H3.3049999V1.2590001H7.598ZM7.598 1.259" fill="#ffffff"/>
<path transform="matrix(1,0,0,-1,182.8007,396.5902)" d="M0 0C0-.757-.239-1.357-.715-1.802-1.193-2.246-1.843-2.468-2.664-2.468-3.487-2.468-4.128-2.238-4.589-1.777-5.05-1.317-5.279-.74-5.279-.049V.296H-4.144V0C-4.144-.494-3.996-.872-3.701-1.135-3.404-1.399-3.059-1.53-2.664-1.53-2.139-1.53-1.752-1.391-1.505-1.111-1.258-.831-1.135-.494-1.135-.099-1.135 .23-1.283 .534-1.579 .815-1.875 1.094-2.303 1.349-2.862 1.58-3.651 1.876-4.219 2.204-4.564 2.567-4.909 2.929-5.082 3.357-5.082 3.85-5.082 4.541-4.844 5.101-4.367 5.529-3.89 5.956-3.323 6.17-2.664 6.17-1.809 6.17-1.193 5.915-.814 5.405-.436 4.895-.247 4.344-.247 3.752H-1.381C-1.349 4.113-1.448 4.443-1.678 4.739-1.908 5.035-2.237 5.183-2.664 5.183-3.059 5.183-3.372 5.076-3.602 4.862-3.832 4.648-3.947 4.36-3.947 3.998-3.947 3.702-3.857 3.447-3.676 3.233-3.495 3.019-3.027 2.764-2.27 2.468-1.547 2.172-.987 1.818-.592 1.407-.197 .995 0 .526 0 0" fill="#ffffff"/>
<path transform="matrix(1,0,0,-1,189.1403,396.1953)" d="M0 0C0-.856-.264-1.547-.789-2.073-1.316-2.6-1.941-2.863-2.664-2.863-3.388-2.863-4.014-2.6-4.539-2.073-5.066-1.547-5.329-.856-5.329 0-5.329 .855-5.066 1.546-4.539 2.073-4.014 2.599-3.388 2.863-2.664 2.863-1.941 2.863-1.316 2.599-.789 2.073-.264 1.546 0 .855 0 0M-1.086 0C-1.086 .658-1.251 1.151-1.579 1.481-1.908 1.81-2.27 1.975-2.664 1.975-3.059 1.975-3.421 1.81-3.75 1.481-4.079 1.151-4.243 .658-4.243 0-4.243-.659-4.079-1.152-3.75-1.481-3.421-1.81-3.059-1.975-2.664-1.975-2.27-1.975-1.908-1.81-1.579-1.481-1.251-1.152-1.086-.659-1.086 0" fill="#ffffff"/>
<path transform="matrix(1,0,0,-1,195.2823,396.73829)" d="M0 0C0-.691-.239-1.251-.715-1.678-1.193-2.107-1.793-2.32-2.516-2.32-3.24-2.32-3.866-2.066-4.391-1.555-4.918-1.045-5.181-.346-5.181 .543-5.181 1.432-4.918 2.13-4.391 2.641-3.866 3.151-3.24 3.406-2.516 3.406-1.793 3.406-1.217 3.216-.789 2.838-.362 2.46-.148 2.007-.148 1.481H-1.234C-1.267 1.876-1.406 2.147-1.653 2.295-1.9 2.443-2.188 2.518-2.516 2.518-2.911 2.518-3.273 2.361-3.602 2.049-3.931 1.735-4.095 1.234-4.095 .543-4.095-.148-3.931-.65-3.602-.963-3.273-1.276-2.911-1.432-2.516-1.432-2.089-1.432-1.744-1.317-1.48-1.086-1.217-.856-1.085-.494-1.085 0Z" fill="#ffffff"/>
</g>
<path transform="matrix(1,0,0,-1,0,595.276)" d="M198.514 203.424H199.5V204.707H198.514ZM198.514 196.316H199.5V201.845H198.514Z" fill="#ffffff"/>
<g clip-path="url(#clip_15)">
<path transform="matrix(1,0,0,-1,207.912,398.95973)" d="M0 0H-1.184C-1.251 .065-1.3 .156-1.332 .271-1.365 .386-1.382 .526-1.382 .691-1.612 .427-1.892 .23-2.22 .099-2.55-.033-2.895-.099-3.257-.099-3.783-.099-4.227 .032-4.589 .296-4.951 .559-5.131 .938-5.131 1.432-5.131 1.925-4.967 2.32-4.638 2.616-4.309 2.912-3.799 3.11-3.108 3.209-2.648 3.274-2.245 3.357-1.9 3.455-1.554 3.554-1.382 3.685-1.382 3.85-1.382 4.048-1.456 4.245-1.604 4.443-1.752 4.64-2.072 4.739-2.566 4.739-2.96 4.739-3.249 4.665-3.429 4.517-3.61 4.369-3.734 4.163-3.799 3.9H-4.885C-4.819 4.426-4.581 4.845-4.169 5.159-3.758 5.471-3.224 5.627-2.566 5.627-1.843 5.627-1.3 5.462-.937 5.134-.576 4.804-.395 4.344-.395 3.752V1.037C-.395 .839-.362 .658-.296 .494-.23 .329-.132 .164 0 0M-1.382 1.826V2.814C-1.579 2.747-1.769 2.69-1.949 2.641-2.13 2.592-2.435 2.534-2.862 2.468-3.355 2.402-3.676 2.287-3.824 2.123-3.972 1.958-4.046 1.76-4.046 1.53-4.046 1.333-3.972 1.16-3.824 1.012-3.676 .864-3.454 .79-3.158 .79-2.862 .79-2.541 .872-2.196 1.037-1.85 1.201-1.579 1.464-1.382 1.826" fill="#ffffff"/>
</g>
<path transform="matrix(1,0,0,-1,0,595.276)" d="M211.144 196.316H212.12999V204.75699H211.144Z" fill="#ffffff"/>
<g clip-path="url(#clip_16)">
<path transform="matrix(1,0,0,-1,174.0587,188.90631)" d="M0 0C-.296-.494-.773-1.234-1.431-2.221-1.201-2.221-.56-2.189 .493-2.123 .855-1.597 1.167-1.054 1.431-.494 1.694-.757 2.006-.955 2.368-1.086 2.039-1.481 1.644-1.991 1.184-2.616 .723-3.242 .032-4.114-.888-5.233 .395-5.068 1.315-4.92 1.875-4.788 1.842-4.986 1.826-5.266 1.826-5.627 1.529-5.694 .987-5.776 .197-5.874-.592-5.973-1.332-6.105-2.023-6.269-2.056-6.039-2.171-5.743-2.368-5.381-2.007-5.216-1.637-4.92-1.258-4.492-.88-4.065-.477-3.538-.049-2.912-.412-2.912-.798-2.937-1.209-2.986-1.62-3.036-1.957-3.094-2.22-3.159-2.287-2.929-2.418-2.633-2.615-2.271-2.253-2.041-1.843-1.53-1.382-.74-.921 .049-.543 .855-.247 1.678-.017 1.481 .312 1.3 .74 1.135 .543 .872 .296 .494 0 0M2.023-7.799C1.431-7.898 .748-8.03-.025-8.194-.798-8.359-1.497-8.523-2.122-8.688-2.287-8.293-2.435-7.948-2.566-7.651-1.645-7.553-.954-7.462-.493-7.38-.033-7.298 .789-7.158 1.974-6.96 1.974-7.158 1.99-7.438 2.023-7.799M7.598 .938C7.433 .609 7.22 .247 6.957-.148 6.693-.543 6.348-.987 5.921-1.481 7.368-2.436 8.321-3.061 8.782-3.357 8.519-3.62 8.272-3.9 8.042-4.196 7.615-3.769 6.743-3.061 5.427-2.073 4.999-2.468 4.564-2.822 4.12-3.135 3.676-3.448 3.075-3.834 2.319-4.295 2.122-3.966 1.891-3.686 1.628-3.455 2.187-3.258 2.689-3.028 3.133-2.764 3.577-2.501 4.095-2.09 4.687-1.53 5.279-.971 5.756-.412 6.118 .148H3.997C3.404 .148 2.845 .131 2.319 .099V.987C2.845 .954 3.404 .938 3.997 .938ZM6.463-4.541C6.989-4.541 7.483-4.525 7.944-4.492V-5.381C7.516-5.348 7.039-5.331 6.513-5.331H5.723V-8.244H7.154C7.615-8.244 8.108-8.228 8.634-8.194V-9.083C8.108-9.05 7.615-9.034 7.154-9.034H3.306C2.878-9.034 2.319-9.05 1.628-9.083V-8.194C2.319-8.228 2.878-8.244 3.306-8.244H4.786V-5.331H4.095C3.535-5.331 2.993-5.348 2.467-5.381V-4.492C2.993-4.525 3.535-4.541 4.095-4.541Z" fill="#ffffff"/>
<path transform="matrix(1,0,0,-1,185.9357,195.9407)" d="M0 0C-.461-.938-.789-1.587-.987-1.95-1.25-1.686-1.579-1.472-1.974-1.308-1.645-1.012-1.226-.395-.715 .543-.206 1.481 .148 2.229 .345 2.789 .608 2.525 .888 2.312 1.184 2.147 .855 1.654 .46 .938 0 0M.888 4.517C.592 4.221 .362 3.957 .197 3.727-.428 4.253-1.119 4.747-1.875 5.208-1.678 5.372-1.48 5.619-1.283 5.948-.527 5.455 .197 4.977 .888 4.517M1.431 7.084C1.135 6.82 .904 6.573 .74 6.343-.017 7.034-.675 7.577-1.233 7.972-1.036 8.137-.856 8.35-.691 8.614 .065 8.12 .772 7.61 1.431 7.084M4.169 1.629C4.152 1.25 4.111 .839 4.046 .395 3.98-.049 3.84-.477 3.626-.889 3.412-1.3 2.894-1.851 2.072-2.542 1.776-2.18 1.496-1.95 1.233-1.851 1.826-1.555 2.294-1.177 2.64-.716 2.985-.255 3.174 .272 3.207 .864 3.273 1.456 3.273 2.015 3.207 2.542 2.779 2.377 2.286 2.213 1.727 2.049 1.562 2.444 1.365 2.74 1.135 2.937 2.582 3.167 3.717 3.579 4.539 4.171 3.849 4.829 3.223 5.619 2.664 6.541 2.335 6.508 2.072 6.491 1.875 6.491V7.38C2.236 7.347 2.697 7.331 3.256 7.331H4.934C4.769 7.758 4.539 8.202 4.243 8.663 4.605 8.794 4.901 8.943 5.131 9.108 5.46 8.482 5.74 7.89 5.97 7.331H7.598C8.256 7.331 8.799 7.347 9.226 7.38V6.491C8.864 6.524 8.404 6.541 7.845 6.541 7.253 5.586 6.612 4.813 5.921 4.221 6.414 3.957 6.998 3.719 7.672 3.505 8.346 3.29 8.963 3.151 9.522 3.085 9.259 2.855 9.045 2.542 8.881 2.147 8.453 2.278 7.96 2.444 7.401 2.641 7.368 2.213 7.352 1.752 7.352 1.259V-.963C7.352-1.39 7.368-1.917 7.401-2.542H6.365C6.397-1.917 6.414-1.39 6.414-.963V1.259C6.414 1.752 6.397 2.229 6.365 2.69H7.302C7.204 2.723 7.105 2.756 7.006 2.789 6.315 3.085 5.723 3.381 5.23 3.678 4.638 3.283 4.078 2.97 3.552 2.74 3.519 2.707 3.486 2.673 3.454 2.641H4.293C4.226 2.345 4.185 2.007 4.169 1.629M3.552 6.541C4.046 5.718 4.589 5.092 5.181 4.665 5.773 5.092 6.315 5.718 6.809 6.541Z" fill="#ffffff"/>
<path transform="matrix(1,0,0,-1,199.6382,187.57349)" d="M0 0C.328 0 .707 .016 1.135 .049V-.839C.707-.807 .328-.79 0-.79H-.345V-3.159C.115-3.159 .625-3.143 1.184-3.11V-3.998C.592-3.966 .082-3.949-.345-3.949V-6.763C-.049-6.697 .444-6.5 1.135-6.17 1.135-6.434 1.151-6.747 1.184-7.108 .197-7.471-.551-7.734-1.061-7.898-1.571-8.063-2.122-8.277-2.714-8.54-2.846-8.211-3.01-7.866-3.207-7.503-2.977-7.503-2.319-7.355-1.233-7.059V-3.949C-1.793-3.949-2.319-3.982-2.812-4.048V-3.11C-2.319-3.143-1.793-3.159-1.233-3.159V-.79H-1.678C-2.105-.79-2.533-.807-2.96-.839V.049C-2.533 .016-2.122 0-1.727 0ZM6.513 0C7.006 0 7.565 .016 8.19 .049V-.889C7.631-.856 7.072-.839 6.513-.839H5.575C5.279-1.893 5.082-2.616 4.983-3.011V-9.034C4.983-9.691 5-10.284 5.033-10.811H3.997C4.029-10.317 4.046-9.725 4.046-9.034V-5.084C3.355-6.434 2.516-7.57 1.53-8.491 1.332-8.293 1.036-8.079 .642-7.849 1.102-7.52 1.537-7.101 1.949-6.59 2.36-6.08 2.763-5.479 3.158-4.788 3.552-4.097 3.84-3.455 4.021-2.863 4.202-2.271 4.374-1.597 4.539-.839H3.158C2.631-.839 2.089-.856 1.53-.889V.049C2.089 .016 2.631 0 3.158 0ZM8.486-6.763C8.157-6.96 7.845-7.158 7.549-7.355 7.056-6.467 6.668-5.809 6.389-5.381 6.11-4.953 5.773-4.492 5.378-3.998 5.674-3.834 5.937-3.637 6.168-3.406 7.187-4.788 7.96-5.907 8.486-6.763" fill="#ffffff"/>
<path transform="matrix(1,0,0,-1,210.8736,195.7926)" d="M0 0C-.625-.247-1.119-.486-1.48-.716-1.645-.288-1.776 .074-1.875 .37-1.579 .403-1.324 .452-1.11 .518-.896 .584-.691 .649-.493 .716V4.862C-.822 4.862-1.217 4.829-1.678 4.764V5.652C-1.217 5.619-.822 5.603-.493 5.603V7.38C-.493 7.708-.51 8.103-.543 8.565H.395C.362 8.071 .346 7.676 .346 7.38V5.603C.608 5.603 .97 5.619 1.431 5.652V4.764C.97 4.829 .608 4.862 .346 4.862V1.012C.839 1.176 1.283 1.341 1.678 1.506 1.71 1.275 1.759 .995 1.826 .666 1.234 .469 .625 .247 0 0M8.092-1.654C8.322-1.654 8.469-1.53 8.536-1.283 8.601-1.037 8.667-.782 8.733-.518 9.029-.782 9.375-.946 9.769-1.012 9.506-1.9 9.234-2.369 8.955-2.419 8.675-2.468 8.437-2.493 8.24-2.493H6.809C6.052-2.493 5.69-2.13 5.723-1.407V.568H4.737C4.605-.288 4.235-.963 3.627-1.456 3.017-1.95 2.171-2.361 1.086-2.69 .987-2.361 .806-2.032 .543-1.703 1.727-1.538 2.549-1.251 3.01-.839 3.47-.428 3.75 .041 3.849 .568H2.319C2.351 1.259 2.368 1.884 2.368 2.444 2.368 3.036 2.351 3.628 2.319 4.221H8.486C8.453 3.727 8.437 3.167 8.437 2.542 8.437 1.917 8.453 1.259 8.486 .568H6.661V-1.012C6.628-1.472 6.792-1.686 7.154-1.654ZM4.737 5.998C4.473 5.866 4.21 5.734 3.947 5.603H6.019C6.151 5.965 6.282 6.474 6.414 7.133H3.799C3.075 7.133 2.483 7.116 2.023 7.084V7.923C2.45 7.89 3.042 7.874 3.799 7.874H5.082C5.049 8.235 4.966 8.581 4.835 8.91 5.098 8.943 5.46 9.009 5.921 9.108 6.019 8.646 6.101 8.235 6.168 7.874H7.253C7.845 7.874 8.404 7.89 8.93 7.923V7.084C8.404 7.116 7.861 7.133 7.302 7.133H6.513C6.809 7.001 7.137 6.853 7.5 6.689 7.269 6.393 7.072 6.03 6.908 5.603H7.944C8.469 5.603 8.98 5.619 9.473 5.652V4.764C8.98 4.829 8.469 4.862 7.944 4.862H3.454C2.862 4.862 2.319 4.829 1.826 4.764V5.652C2.319 5.619 2.845 5.603 3.404 5.603H3.849C3.717 6.03 3.553 6.359 3.355 6.59 3.618 6.721 3.881 6.869 4.145 7.034 4.309 6.771 4.506 6.425 4.737 5.998M7.598 3.53H3.3049999V2.74H7.598ZM7.598 2.049H3.3049999V1.2590001H7.598ZM7.598 1.259" fill="#ffffff"/>
</g>
<path transform="matrix(1,0,0,-1,176.5256,211.9801)" d="M0 0H-5.033V8.441H-.247V7.503H-3.898V4.887H-.543V3.949H-3.898V.938H0Z" fill="#ffffff"/>
<g clip-path="url(#clip_17)">
<path transform="matrix(1,0,0,-1,182.7172,209.7587)" d="M0 0C0-.691-.239-1.251-.716-1.678-1.193-2.106-1.793-2.32-2.516-2.32-3.24-2.32-3.866-2.066-4.391-1.555-4.918-1.045-5.181-.346-5.181 .543-5.181 1.432-4.918 2.13-4.391 2.641-3.866 3.151-3.24 3.406-2.516 3.406-1.793 3.406-1.217 3.216-.79 2.838-.362 2.46-.148 2.007-.148 1.481H-1.234C-1.267 1.876-1.406 2.147-1.653 2.295-1.9 2.444-2.188 2.518-2.516 2.518-2.911 2.518-3.273 2.361-3.602 2.049-3.931 1.735-4.095 1.234-4.095 .543-4.095-.148-3.931-.65-3.602-.963-3.273-1.276-2.911-1.432-2.516-1.432-2.089-1.432-1.744-1.317-1.48-1.086-1.217-.856-1.086-.494-1.086 0Z" fill="#ffffff"/>
<path transform="matrix(1,0,0,-1,189.1553,209.2157)" d="M0 0C0-.856-.264-1.547-.789-2.073-1.316-2.6-1.941-2.863-2.664-2.863-3.388-2.863-4.013-2.6-4.539-2.073-5.066-1.547-5.329-.856-5.329 0-5.329 .855-5.066 1.546-4.539 2.073-4.013 2.599-3.388 2.863-2.664 2.863-1.941 2.863-1.316 2.599-.789 2.073-.264 1.546 0 .855 0 0M-1.085 0C-1.085 .658-1.25 1.152-1.579 1.481-1.908 1.81-2.27 1.975-2.664 1.975-3.059 1.975-3.421 1.81-3.75 1.481-4.079 1.152-4.243 .658-4.243 0-4.243-.659-4.079-1.152-3.75-1.481-3.421-1.81-3.059-1.975-2.664-1.975-2.27-1.975-1.908-1.81-1.579-1.481-1.25-1.152-1.085-.659-1.085 0" fill="#ffffff"/>
<path transform="matrix(1,0,0,-1,195.1988,211.9801)" d="M0 0H-.987V3.554C-.987 3.949-1.086 4.262-1.283 4.492-1.48 4.722-1.744 4.838-2.072 4.838-2.5 4.838-2.903 4.616-3.281 4.171-3.66 3.727-3.849 3.176-3.849 2.518V0H-4.835V5.529H-3.849V4.492C-3.586 4.854-3.298 5.134-2.985 5.331-2.673 5.529-2.27 5.627-1.776 5.627-1.184 5.627-.74 5.462-.444 5.134-.148 4.805 0 4.393 0 3.9Z" fill="#ffffff"/>
<path transform="matrix(1,0,0,-1,201.7355,209.2157)" d="M0 0C0-.856-.264-1.547-.789-2.073-1.316-2.6-1.941-2.863-2.664-2.863-3.388-2.863-4.013-2.6-4.539-2.073-5.066-1.547-5.329-.856-5.329 0-5.329 .855-5.066 1.546-4.539 2.073-4.013 2.599-3.388 2.863-2.664 2.863-1.941 2.863-1.316 2.599-.789 2.073-.264 1.546 0 .855 0 0M-1.085 0C-1.085 .658-1.25 1.152-1.579 1.481-1.908 1.81-2.269 1.975-2.664 1.975-3.059 1.975-3.421 1.81-3.75 1.481-4.079 1.152-4.243 .658-4.243 0-4.243-.659-4.079-1.152-3.75-1.481-3.421-1.81-3.059-1.975-2.664-1.975-2.269-1.975-1.908-1.81-1.579-1.481-1.25-1.152-1.085-.659-1.085 0" fill="#ffffff"/>
<path transform="matrix(1,0,0,-1,208.2726,211.9801)" d="M0 0H-.987V3.998C-.987 4.196-1.02 4.36-1.086 4.492-1.152 4.623-1.283 4.69-1.48 4.69-1.711 4.69-1.924 4.566-2.122 4.319-2.319 4.073-2.418 3.752-2.418 3.357V0H-3.404V3.998C-3.404 4.196-3.438 4.36-3.503 4.492-3.569 4.623-3.7 4.69-3.898 4.69-4.128 4.69-4.342 4.566-4.539 4.319-4.737 4.073-4.835 3.752-4.835 3.357V0H-5.822V5.529H-4.835V4.788C-4.671 5.051-4.474 5.257-4.243 5.405-4.014 5.553-3.767 5.627-3.503 5.627-3.24 5.627-3.018 5.553-2.837 5.405-2.657 5.257-2.533 5.051-2.467 4.788-2.303 5.051-2.114 5.257-1.9 5.405-1.686 5.553-1.448 5.627-1.184 5.627-.789 5.627-.493 5.52-.296 5.307-.099 5.092 0 4.788 0 4.393Z" fill="#ffffff"/>
</g>
<path transform="matrix(1,0,0,-1,0,595.276)" d="M211.108 390.405H212.095V391.688H211.108ZM211.108 383.296H212.095V388.82499H211.108Z" fill="#ffffff"/>
<g clip-path="url(#clip_18)">
<path transform="matrix(1,0,0,-1,220.4581,209.7587)" d="M0 0C0-.691-.239-1.251-.716-1.678-1.193-2.106-1.793-2.32-2.516-2.32-3.24-2.32-3.865-2.066-4.391-1.555-4.918-1.045-5.181-.346-5.181 .543-5.181 1.432-4.918 2.13-4.391 2.641-3.865 3.151-3.24 3.406-2.516 3.406-1.793 3.406-1.217 3.216-.789 2.838-.362 2.46-.148 2.007-.148 1.481H-1.233C-1.267 1.876-1.406 2.147-1.653 2.295-1.9 2.444-2.188 2.518-2.516 2.518-2.911 2.518-3.273 2.361-3.602 2.049-3.931 1.735-4.095 1.234-4.095 .543-4.095-.148-3.931-.65-3.602-.963-3.273-1.276-2.911-1.432-2.516-1.432-2.089-1.432-1.744-1.317-1.48-1.086-1.217-.856-1.086-.494-1.086 0Z" fill="#ffffff"/>
</g>
</g>
</g>
</svg>
