<svg xmlns="http://www.w3.org/2000/svg" xmlns:xlink="http://www.w3.org/1999/xlink" xmlns:inkscape="http://www.inkscape.org/namespaces/inkscape" version="1.1" width="411.024" height="595.276" viewBox="0 0 411.024 595.276">
<defs>
<clipPath id="clip_1">
<path transform="matrix(1,0,0,-1,0,595.276)" d="M0 0H411.024V595.276H0Z"/>
</clipPath>
<clipPath id="clip_2">
<path transform="matrix(1,0,0,-1,0,595.276)" d="M0 0H411.024V595.276H0Z"/>
</clipPath>
<path id="font_3_3" d="M.32998658 0V.71191409H.2579956L.125 .5969238V.51493838L.2579956 .63191226V0H.32998658Z"/>
<path id="font_3_8" d="M.45999146 .20516968C.45999146 .32221986 .38598634 .40722657 .2749939 .40722657 .24699402 .40722657 .22200012 .40222169 .19999695 .3922119L.35899354 .71191409H.2849884L.10998535 .3592224C.07998657 .2992096 .06498718 .25019837 .06498718 .19917298 .06498718 .07614136 .14199829-.005859375 .2630005-.005859375 .38398744-.005859375 .45999146 .08413696 .45999146 .20516968M.3880005 .20217896C.3880005 .11514282 .33799745 .058135988 .2619934 .058135988 .18598938 .058135988 .13699341 .11514282 .13699341 .20217896 .13699341 .2902069 .18598938 .34622193 .2619934 .34622193 .34399415 .34622193 .3880005 .28120423 .3880005 .20217896Z"/>
<clipPath id="clip_4">
<path transform="matrix(1,0,0,-1,0,595.276)" d="M0 0H411.024V595.276H0Z"/>
</clipPath>
<clipPath id="clip_5">
<path transform="matrix(1,0,0,-1,0,595.276)" d="M0 0H411.024V595.276H0Z"/>
</clipPath>
<clipPath id="clip_6">
<path transform="matrix(1,0,0,-1,0,595.276)" d="M0 0H411.024V595.276H0Z"/>
</clipPath>
<clipPath id="clip_7">
<path transform="matrix(1,0,0,-1,0,595.276)" d="M0 0H411.024V595.276H0Z"/>
</clipPath>
<clipPath id="clip_8">
<path transform="matrix(1,0,0,-1,0,595.276)" d="M0 0H411.024V595.276H0Z"/>
</clipPath>
</defs>
<g clip-path="url(#clip_1)">
<g clip-path="url(#clip_2)">
<use data-text="1" xlink:href="#font_3_3" transform="matrix(9,0,0,-9,35.4331,567.547)" fill="#f43040"/>
<use data-text="1" xlink:href="#font_3_3" transform="matrix(9,0,0,-9,39.0331,567.547)" fill="#f43040"/>
<use data-text="6" xlink:href="#font_3_8" transform="matrix(9,0,0,-9,42.6331,567.547)" fill="#f43040"/>
<g clip-path="url(#clip_4)">
<path transform="matrix(1,0,0,-1,193.133,196.01581)" d="M0 0V-2.556C.76-3.133 1.939-3.434 3.538-3.461 5.136-3.487 6.394-3.434 7.311-3.303 7.18-3.592 7.088-3.906 7.036-4.247 4.625-4.247 3.125-4.201 2.535-4.11 1.946-4.017 1.487-3.926 1.16-3.834 .832-3.742 .524-3.611 .236-3.441-.053-3.271-.295-3.271-.491-3.441-.688-3.611-.93-3.906-1.219-4.326-1.376-4.116-1.586-3.933-1.847-3.775-1.586-3.539-1.219-3.199-.747-2.753V.551C-1.088 .551-1.441 .537-1.808 .511V1.258C-1.441 1.232-.825 1.219 .039 1.219 .013 .799 0 .393 0 0M.197 2.635C-.013 2.503-.236 2.346-.472 2.163-.812 2.792-1.193 3.382-1.612 3.933L-.904 4.405C-.485 3.749-.118 3.159 .197 2.635M1.061-2.792C.956-2.609 .799-2.399 .59-2.163 1.113-1.953 1.873-1.455 2.869-.669 2.974-.905 3.079-1.101 3.184-1.258 2.398-1.835 1.69-2.347 1.061-2.792M1.061 .511V1.219C1.507 1.193 2.253 1.18 3.302 1.18V1.966C1.991 1.966 1.101 1.953 .629 1.927V2.635C1.101 2.608 1.991 2.596 3.302 2.596V3.343C2.384 3.343 1.703 3.329 1.258 3.303V4.011C1.703 3.985 2.384 3.972 3.302 3.972 3.302 4.181 3.288 4.457 3.262 4.798H4.049C4.022 4.43 4.009 4.155 4.009 3.972H6.407C6.381 3.552 6.368 3.093 6.368 2.596 6.551 2.596 6.852 2.608 7.272 2.635V1.927C6.852 1.953 6.551 1.966 6.368 1.966 6.368 1.416 6.381 .944 6.407 .551H4.009V-.433C4.192-.538 4.35-.629 4.481-.708 5.057-.21 5.464 .197 5.699 .511 5.883 .328 6.093 .131 6.328-.079 6.145-.157 5.699-.485 4.992-1.062 5.699-1.508 6.276-1.888 6.721-2.202 6.538-2.36 6.368-2.57 6.211-2.832 5.555-2.281 4.821-1.717 4.009-1.14V-2.281C4.009-2.674 3.911-2.924 3.715-3.028 3.518-3.133 3.157-3.225 2.634-3.303 2.607-3.015 2.489-2.714 2.28-2.399 2.777-2.425 3.072-2.419 3.164-2.379 3.256-2.34 3.302-2.15 3.302-1.809V.551C2.253 .551 1.507 .537 1.061 .511M2.594-.472C2.384-.682 2.214-.865 2.083-1.022 1.795-.682 1.441-.354 1.022-.039 1.205 .144 1.349 .315 1.454 .472 1.821 .183 2.201-.132 2.594-.472M5.66 3.343H4.009V2.596H5.66ZM5.66 1.966H4.009V1.1789999H5.66ZM5.66 1.18" fill="#2c292a"/>
<path transform="matrix(1,0,0,-1,193.133,196.01581)" stroke-width=".288" stroke-linecap="butt" stroke-miterlimit="10" stroke-linejoin="miter" fill="none" stroke="#2c292a" d="M0 0V-2.556C.76-3.133 1.939-3.434 3.538-3.461 5.136-3.487 6.394-3.434 7.311-3.303 7.18-3.592 7.088-3.906 7.036-4.247 4.625-4.247 3.125-4.201 2.535-4.11 1.946-4.017 1.487-3.926 1.16-3.834 .832-3.742 .524-3.611 .236-3.441-.053-3.271-.295-3.271-.491-3.441-.688-3.611-.93-3.906-1.219-4.326-1.376-4.116-1.586-3.933-1.847-3.775-1.586-3.539-1.219-3.199-.747-2.753V.551C-1.088 .551-1.441 .537-1.808 .511V1.258C-1.441 1.232-.825 1.219 .039 1.219 .013 .799 0 .393 0 0ZM.197 2.635C-.013 2.503-.236 2.346-.472 2.163-.812 2.792-1.193 3.382-1.612 3.933L-.904 4.405C-.485 3.749-.118 3.159 .197 2.635ZM1.061-2.792C.956-2.609 .799-2.399 .59-2.163 1.113-1.953 1.873-1.455 2.869-.669 2.974-.905 3.079-1.101 3.184-1.258 2.398-1.835 1.69-2.347 1.061-2.792ZM1.061 .511V1.219C1.507 1.193 2.253 1.18 3.302 1.18V1.966C1.991 1.966 1.101 1.953 .629 1.927V2.635C1.101 2.608 1.991 2.596 3.302 2.596V3.343C2.384 3.343 1.703 3.329 1.258 3.303V4.011C1.703 3.985 2.384 3.972 3.302 3.972 3.302 4.181 3.288 4.457 3.262 4.798H4.049C4.022 4.43 4.009 4.155 4.009 3.972H6.407C6.381 3.552 6.368 3.093 6.368 2.596 6.551 2.596 6.852 2.608 7.272 2.635V1.927C6.852 1.953 6.551 1.966 6.368 1.966 6.368 1.416 6.381 .944 6.407 .551H4.009V-.433C4.192-.538 4.35-.629 4.481-.708 5.057-.21 5.464 .197 5.699 .511 5.883 .328 6.093 .131 6.328-.079 6.145-.157 5.699-.485 4.992-1.062 5.699-1.508 6.276-1.888 6.721-2.202 6.538-2.36 6.368-2.57 6.211-2.832 5.555-2.281 4.821-1.717 4.009-1.14V-2.281C4.009-2.674 3.911-2.924 3.715-3.028 3.518-3.133 3.157-3.225 2.634-3.303 2.607-3.015 2.489-2.714 2.28-2.399 2.777-2.425 3.072-2.419 3.164-2.379 3.256-2.34 3.302-2.15 3.302-1.809V.551C2.253 .551 1.507 .537 1.061 .511ZM2.594-.472C2.384-.682 2.214-.865 2.083-1.022 1.795-.682 1.441-.354 1.022-.039 1.205 .144 1.349 .315 1.454 .472 1.821 .183 2.201-.132 2.594-.472ZM5.66 3.343H4.009V2.596H5.66ZM5.66 1.966H4.009V1.1789999H5.66ZM5.66 1.18"/>
<path transform="matrix(1,0,0,-1,203.511,193.3023)" d="M0 0V-5.27C0-6.135 .013-6.764 .039-7.157H-.825C-.8-6.764-.786-6.148-.786-5.309V-1.258C-1.258-2.019-1.586-2.504-1.769-2.714-1.952-2.452-2.136-2.202-2.319-1.966-1.743-1.39-1.252-.643-.845 .275-.439 1.193-.223 1.822-.197 2.163 .065 2.031 .419 1.888 .865 1.73 .681 1.468 .393 .891 0 0M4.717 .315C5.267 .315 5.896 .328 6.604 .354V-.433C5.922-.407 5.293-.393 4.717-.393H3.97V-2.517H4.56C4.9-2.517 5.398-2.504 6.053-2.478V-3.264C5.529-3.238 5.031-3.225 4.56-3.225H3.97V-6.017H4.835C5.516-6.017 6.211-6.004 6.918-5.978V-6.764C6.211-6.738 5.516-6.725 4.835-6.725H2.123C1.467-6.725 .983-6.738 .668-6.764V-5.978C1.114-6.004 1.612-6.017 2.162-6.017H3.145V-3.225H2.752C2.175-3.225 1.637-3.238 1.14-3.264V-2.478C1.637-2.504 2.175-2.517 2.752-2.517H3.145V-.393H2.555C1.952-.393 1.349-.407 .747-.433V.354C1.349 .328 1.952 .315 2.555 .315ZM2.673 1.691C2.935 1.822 3.197 1.966 3.459 2.124 3.538 1.992 3.636 1.822 3.754 1.612 3.872 1.402 3.983 1.18 4.088 .944 3.852 .812 3.59 .681 3.302 .551 3.17 .812 2.961 1.193 2.673 1.691" fill="#2c292a"/>
<path transform="matrix(1,0,0,-1,203.511,193.3023)" stroke-width=".288" stroke-linecap="butt" stroke-miterlimit="10" stroke-linejoin="miter" fill="none" stroke="#2c292a" d="M0 0V-5.27C0-6.135 .013-6.764 .039-7.157H-.825C-.8-6.764-.786-6.148-.786-5.309V-1.258C-1.258-2.019-1.586-2.504-1.769-2.714-1.952-2.452-2.136-2.202-2.319-1.966-1.743-1.39-1.252-.643-.845 .275-.439 1.193-.223 1.822-.197 2.163 .065 2.031 .419 1.888 .865 1.73 .681 1.468 .393 .891 0 0ZM4.717 .315C5.267 .315 5.896 .328 6.604 .354V-.433C5.922-.407 5.293-.393 4.717-.393H3.97V-2.517H4.56C4.9-2.517 5.398-2.504 6.053-2.478V-3.264C5.529-3.238 5.031-3.225 4.56-3.225H3.97V-6.017H4.835C5.516-6.017 6.211-6.004 6.918-5.978V-6.764C6.211-6.738 5.516-6.725 4.835-6.725H2.123C1.467-6.725 .983-6.738 .668-6.764V-5.978C1.114-6.004 1.612-6.017 2.162-6.017H3.145V-3.225H2.752C2.175-3.225 1.637-3.238 1.14-3.264V-2.478C1.637-2.504 2.175-2.517 2.752-2.517H3.145V-.393H2.555C1.952-.393 1.349-.407 .747-.433V.354C1.349 .328 1.952 .315 2.555 .315H4.717ZM2.673 1.691C2.935 1.822 3.197 1.966 3.459 2.124 3.538 1.992 3.636 1.822 3.754 1.612 3.872 1.402 3.983 1.18 4.088 .944 3.852 .812 3.59 .681 3.302 .551 3.17 .812 2.961 1.193 2.673 1.691Z"/>
<path transform="matrix(1,0,0,-1,212.749,194.5214)" d="M0 0C-.289-.42-.524-.787-.707-1.101-.865-.918-1.088-.734-1.376-.551-.878-.026-.439 .57-.059 1.239 .321 1.907 .603 2.608 .786 3.343 .969 3.211 1.271 3.08 1.69 2.949 1.533 2.739 1.219 2.176 .747 1.258V-3.854C.747-4.667 .76-5.322 .786-5.82H-.039C-.013-5.401 0-4.733 0-3.815ZM2.653 1.691C2.981 2.478 3.144 2.989 3.144 3.225 3.459 3.093 3.799 2.989 4.167 2.91 4.009 2.779 3.774 2.372 3.459 1.691H7.586C7.508 1.455 7.39 1.134 7.232 .728 7.075 .321 6.931-.066 6.8-.433 6.538-.354 6.276-.289 6.014-.236 6.197 .157 6.368 .576 6.525 1.022H3.184C2.869 .34 2.502-.289 2.083-.865 1.873-.734 1.598-.629 1.258-.551 1.86 .157 2.325 .904 2.653 1.691M2.909-1.337C3.223-1.494 3.472-1.626 3.656-1.73 3.498-1.993 3.262-2.36 2.948-2.832 2.634-3.303 2.28-3.775 1.887-4.247 1.677-4.064 1.467-3.893 1.258-3.736 1.913-3.055 2.463-2.255 2.909-1.337M3.931-4.896C4.088-4.831 4.167-4.693 4.167-4.483V-1.18C4.167-.551 4.153-.092 4.127 .197H4.953C4.926-.092 4.913-.551 4.913-1.18V-4.916C4.913-5.256 4.769-5.486 4.481-5.604 4.192-5.722 3.799-5.82 3.302-5.899 3.249-5.637 3.118-5.335 2.909-4.994 3.432-4.994 3.774-4.961 3.931-4.896M7.822-3.697C7.665-3.802 7.415-3.959 7.075-4.169 6.629-3.33 6.119-2.491 5.542-1.652 5.804-1.494 6.014-1.364 6.171-1.258 6.8-2.124 7.35-2.937 7.822-3.697" fill="#2c292a"/>
<path transform="matrix(1,0,0,-1,212.749,194.5214)" stroke-width=".288" stroke-linecap="butt" stroke-miterlimit="10" stroke-linejoin="miter" fill="none" stroke="#2c292a" d="M0 0C-.289-.42-.524-.787-.707-1.101-.865-.918-1.088-.734-1.376-.551-.878-.026-.439 .57-.059 1.239 .321 1.907 .603 2.608 .786 3.343 .969 3.211 1.271 3.08 1.69 2.949 1.533 2.739 1.219 2.176 .747 1.258V-3.854C.747-4.667 .76-5.322 .786-5.82H-.039C-.013-5.401 0-4.733 0-3.815V0ZM2.653 1.691C2.981 2.478 3.144 2.989 3.144 3.225 3.459 3.093 3.799 2.989 4.167 2.91 4.009 2.779 3.774 2.372 3.459 1.691H7.586C7.508 1.455 7.39 1.134 7.232 .728 7.075 .321 6.931-.066 6.8-.433 6.538-.354 6.276-.289 6.014-.236 6.197 .157 6.368 .576 6.525 1.022H3.184C2.869 .34 2.502-.289 2.083-.865 1.873-.734 1.598-.629 1.258-.551 1.86 .157 2.325 .904 2.653 1.691ZM2.909-1.337C3.223-1.494 3.472-1.626 3.656-1.73 3.498-1.993 3.262-2.36 2.948-2.832 2.634-3.303 2.28-3.775 1.887-4.247 1.677-4.064 1.467-3.893 1.258-3.736 1.913-3.055 2.463-2.255 2.909-1.337ZM3.931-4.896C4.088-4.831 4.167-4.693 4.167-4.483V-1.18C4.167-.551 4.153-.092 4.127 .197H4.953C4.926-.092 4.913-.551 4.913-1.18V-4.916C4.913-5.256 4.769-5.486 4.481-5.604 4.192-5.722 3.799-5.82 3.302-5.899 3.249-5.637 3.118-5.335 2.909-4.994 3.432-4.994 3.774-4.961 3.931-4.896ZM7.822-3.697C7.665-3.802 7.415-3.959 7.075-4.169 6.629-3.33 6.119-2.491 5.542-1.652 5.804-1.494 6.014-1.364 6.171-1.258 6.8-2.124 7.35-2.937 7.822-3.697Z"/>
<path transform="matrix(1,0,0,-1,229.8879,191.8866)" d="M0 0V-.865C-.289-.97-.825-1.285-1.612-1.809-2.398-2.334-2.962-2.727-3.302-2.989V-7.472C-3.328-7.918-3.557-8.2-3.99-8.318-4.422-8.436-4.861-8.52-5.306-8.573-5.438-8.023-5.569-7.655-5.699-7.472-5.045-7.498-4.625-7.492-4.442-7.452-4.259-7.413-4.167-7.236-4.167-6.921V-3.775C-4.167-3.173-4.206-2.753-4.285-2.517-3.839-2.334-2.869-1.73-1.376-.708H-5.542C-6.171-.734-6.774-.747-7.35-.747V.039C-6.774 .013-6.303 0-5.935 0Z" fill="#2c292a"/>
<path transform="matrix(1,0,0,-1,229.8879,191.8866)" stroke-width=".288" stroke-linecap="butt" stroke-miterlimit="10" stroke-linejoin="miter" fill="none" stroke="#2c292a" d="M0 0V-.865C-.289-.97-.825-1.285-1.612-1.809-2.398-2.334-2.962-2.727-3.302-2.989V-7.472C-3.328-7.918-3.557-8.2-3.99-8.318-4.422-8.436-4.861-8.52-5.306-8.573-5.438-8.023-5.569-7.655-5.699-7.472-5.045-7.498-4.625-7.492-4.442-7.452-4.259-7.413-4.167-7.236-4.167-6.921V-3.775C-4.167-3.173-4.206-2.753-4.285-2.517-3.839-2.334-2.869-1.73-1.376-.708H-5.542C-6.171-.734-6.774-.747-7.35-.747V.039C-6.774 .013-6.303 0-5.935 0H0Z"/>
<path transform="matrix(1,0,0,-1,182.8375,190.0813)" d="M0 0C.031 1.422-1.154 2.608-2.516 2.517H-13.417C-14.93 2.608-16.116 1.422-16.142 0V-10.697C-16.116-12.106-14.93-13.292-13.417-13.214H-2.516C-1.154-13.292 .031-12.106 0-10.697Z" fill="#f43040"/>
<path transform="matrix(1,0,0,-1,172.2175,201.29709)" d="M0 0V1.832L3.191 5.297C3.513 5.643 3.637 5.866 3.637 6.237 3.637 6.72 3.365 7.054 2.845 7.054 2.474 7.054 2.029 6.881 2.029 6.2H0C0 7.933 1.311 8.886 2.845 8.886 4.478 8.886 5.665 7.883 5.665 6.225 5.665 5.297 5.282 4.802 4.577 4.059L2.474 1.832H5.665V0Z" fill="#ffffff"/>
</g>
<path transform="matrix(1,0,0,-1,241.0169,200.1582)" d="M0 0-2.294 3.604V0H-4.055V7.169H-2.515L-.221 3.564V7.169H1.539V0Z" fill="#2c292a"/>
<path transform="matrix(1,0,0,-1,0,595.276)" d="M244.016 402.286H245.77701V395.117H244.016Z" fill="#2c292a"/>
<g clip-path="url(#clip_5)">
<path transform="matrix(1,0,0,-1,251.804,199.41321)" d="M0 0C-.614-.634-1.298-.805-2.083-.805-2.918-.805-3.552-.524-4.075 0-4.83 .755-4.8 1.762-4.8 2.839-4.8 3.917-4.83 4.923-4.075 5.679-3.552 6.202-2.948 6.484-2.083 6.484-.242 6.484 .543 5.286 .714 4.108H-1.057C-1.197 4.652-1.479 4.913-2.083 4.913-2.405 4.913-2.646 4.772-2.777 4.601-2.938 4.39-3.039 4.148-3.039 2.839-3.039 1.53-2.938 1.279-2.777 1.067-2.646 .896-2.405 .765-2.083 .765-1.711 .765-1.459 .876-1.298 1.047-1.097 1.249-1.026 1.54-1.026 1.812V1.913H-2.083V3.383H.724V2.386C.724 1.228 .543 .554 0 0" fill="#2c292a"/>
</g>
<path transform="matrix(1,0,0,-1,256.8554,197.23831)" d="M0 0V-2.92H-1.761V0L-3.924 4.249H-2.002L-.875 1.671 .241 4.249H2.163Z" fill="#2c292a"/>
<g clip-path="url(#clip_6)">
<path transform="matrix(1,0,0,-1,261.796,200.2186)" d="M0 0C-1.097 0-1.992 .201-2.717 .946L-1.59 2.074C-1.217 1.702-.563 1.571 .01 1.571 .704 1.571 1.036 1.802 1.036 2.215 1.036 2.386 .996 2.527 .896 2.638 .805 2.729 .654 2.799 .423 2.829L-.443 2.95C-1.077 3.041-1.56 3.252-1.881 3.584-2.214 3.927-2.375 4.41-2.375 5.024-2.375 6.333-1.388 7.289 .242 7.289 1.268 7.289 2.043 7.048 2.656 6.434L1.55 5.326C1.097 5.779 .503 5.749 .191 5.749-.423 5.749-.674 5.397-.674 5.085-.674 4.994-.644 4.863-.533 4.752-.443 4.662-.292 4.571-.04 4.541L.825 4.42C1.469 4.329 1.932 4.128 2.234 3.826 2.616 3.453 2.767 2.92 2.767 2.255 2.767 .795 1.509 0 0 0" fill="#2c292a"/>
<path transform="matrix(1,0,0,-1,270.2282,199.41321)" d="M0 0C-.523-.524-1.127-.805-2.002-.805-2.878-.805-3.481-.524-4.005 0-4.759 .755-4.729 1.762-4.729 2.839-4.729 3.917-4.759 4.923-4.005 5.679-3.481 6.202-2.878 6.484-2.002 6.484-1.127 6.484-.523 6.202 0 5.679 .755 4.923 .724 3.917 .724 2.839 .724 1.762 .755 .755 0 0M-1.298 4.601C-1.429 4.772-1.68 4.913-2.002 4.913-2.324 4.913-2.576 4.772-2.707 4.601-2.868 4.39-2.968 4.148-2.968 2.839-2.968 1.53-2.868 1.299-2.707 1.087-2.576 .916-2.324 .765-2.002 .765-1.68 .765-1.429 .916-1.298 1.087-1.137 1.299-1.036 1.53-1.036 2.839-1.036 4.148-1.137 4.39-1.298 4.601" fill="#2c292a"/>
<path transform="matrix(1,0,0,-1,275.2999,200.1582)" d="M0 0H-3.119V7.169H-.151C1.338 7.169 2.133 6.333 2.133 5.095 2.133 4.279 1.57 3.826 1.348 3.675 1.64 3.494 2.234 3.121 2.234 2.114 2.234 .745 1.278 0 0 0M-.262 5.588H-1.358V4.42H-.262C.221 4.42 .372 4.722 .372 5.004 .372 5.286 .221 5.588-.262 5.588M-.171 2.839H-1.358V1.581H-.171C.312 1.581 .473 1.913 .473 2.215 .473 2.517 .312 2.839-.171 2.839" fill="#2c292a"/>
<path transform="matrix(1,0,0,-1,167.3055,227.3818)" d="M0 0C.113-.095 .255-.153 .413-.153 .759-.153 1.042 .125 1.042 .466 1.042 .67 .939 .851 .782 .964V.971C.156 1.435-.503 1.753-1.127 1.973 .366 2.878 1.382 4.472 1.382 6.348 1.382 9.191-.968 11.442-3.826 11.442-6.682 11.442-9.032 9.161-9.032 6.316-9.032 4.472-8.048 2.849-6.556 1.973-10.843 .441-11.224-3.904-11.224-3.965-11.254-4.31-11.001-4.621-10.651-4.621-10.303-4.653-9.985-4.403-9.953-4.058-9.953-3.84-9.477 .911-3.89 1.222-3.751 1.222-1.738 1.296-.002 0ZM-3.826 2.472C-5.985 2.472-7.763 4.192-7.763 6.348-7.763 8.504-5.985 10.192-3.826 10.192-1.666 10.192 .111 8.474 .111 6.316 .111 4.16-1.666 2.472-3.826 2.472M5.113-1.741H.369C.079-1.741-.156-1.976-.156-2.268-.156-2.558 .079-2.796 .369-2.796H5.113C5.405-2.796 5.64-2.558 5.64-2.268 5.64-1.976 5.405-1.741 5.113-1.741M5.113-3.849H.369C.079-3.849-.156-4.085-.156-4.377-.156-4.669 .079-4.904 .369-4.904H5.113C5.405-4.904 5.64-4.669 5.64-4.377 5.64-4.085 5.405-3.849 5.113-3.849M3.006-.686H5.113C5.405-.686 5.64-.45 5.64-.158 5.64 .132 5.405 .369 5.113 .369H3.006C2.714 .369 2.478 .132 2.478-.158 2.478-.45 2.714-.686 3.006-.686" fill="#f43040"/>
<path transform="matrix(1,0,0,-1,158.5117,240.62839)" d="M0 0V-1.339C.328-1.339 .645-1.316 .951-1.268V-2.008C.387-1.961-.223-1.938-.88-1.938H-5.74C-6.397-1.938-6.961-1.961-7.43-2.008V-1.268C-7.078-1.316-6.749-1.339-6.444-1.339V0C-6.444 .375-6.456 .763-6.479 1.163H.035C.012 .763 0 .375 0 0M-5.775 4.474V3.171C-5.775 2.818-5.763 2.407-5.74 1.938H-6.479C-6.456 2.407-6.444 2.818-6.444 3.171V4.58C-6.444 4.909-6.456 5.237-6.479 5.566H-5.704C-5.752 5.261-5.775 4.897-5.775 4.474M-4.507 .528H-5.775V-1.374H-4.507ZM-3.944 4.967V2.959C-3.944 2.537-3.932 2.079-3.909 1.585H-4.648C-4.625 2.079-4.613 2.537-4.613 2.959V4.897C-4.613 5.226-4.625 5.589-4.648 5.989H-3.873C-3.921 5.754-3.944 5.413-3.944 4.967M-2.606 .528H-3.8379999V-1.374H-2.606ZM-1.637 5.091C-1.72 4.867-1.796 4.662-1.866 4.474H-.282C.117 4.474 .516 4.486 .915 4.509V3.84C.54 3.887 .129 3.911-.317 3.911H-2.042C-2.277 3.347-2.594 2.736-2.993 2.079-3.181 2.219-3.404 2.337-3.662 2.431-3.475 2.665-3.281 2.988-3.081 3.4-2.882 3.81-2.7 4.263-2.535 4.756-2.371 5.249-2.242 5.684-2.148 6.06-1.843 5.942-1.549 5.836-1.268 5.742-1.432 5.531-1.555 5.314-1.637 5.091M-.669 .528H-1.937V-1.374H-.669ZM-.563 2.942C-.329 2.695-.083 2.431 .176 2.149 .012 2.008-.176 1.843-.387 1.656L-1.092 2.431C-1.327 2.689-1.549 2.912-1.761 3.1-1.62 3.288-1.467 3.453-1.303 3.593-1.045 3.405-.798 3.188-.563 2.942" fill="#2c292a"/>
<path transform="matrix(1,0,0,-1,162.3924,236.9292)" d="M0 0H1.831C1.761-.282 1.655-.587 1.514-.916 1.373-1.245 1.185-1.574 .951-1.902H2.958C2.817-1.691 2.659-1.374 2.482-.951 2.306-.528 2.16 .023 2.042 .705 2.3 .728 2.512 .751 2.676 .775L2.817 .141H5.141C5.047-.118 4.912-.423 4.736-.775 4.56-1.127 4.307-1.562 3.979-2.079 4.19-2.243 4.466-2.408 4.807-2.572 5.146-2.736 5.47-2.866 5.775-2.959 5.587-3.124 5.423-3.324 5.282-3.558 4.906-3.417 4.513-3.212 4.102-2.942 3.691-2.672 3.38-2.408 3.169-2.149V-2.431H.704V-2.184C.352-2.56-.024-2.877-.423-3.135 0-3.159 .516-3.171 1.127-3.171H2.676C3.216-3.171 3.732-3.159 4.226-3.135V-3.734C3.732-3.711 3.251-3.699 2.782-3.699H2.183V-5.073C2.183-5.378 2.107-5.589 1.954-5.707 1.801-5.824 1.467-5.919 .951-5.989 .903-5.754 .821-5.507 .704-5.249 1.15-5.272 1.402-5.261 1.461-5.214 1.52-5.167 1.549-5.049 1.549-4.862V-3.699H1.127C.563-3.699 .023-3.711-.493-3.734V-3.171C-.939-3.453-1.327-3.664-1.655-3.805-1.773-3.593-1.937-3.417-2.148-3.276-1.562-3.089-1.056-2.842-.634-2.537-.822-2.349-1.045-2.149-1.303-1.938-1.115-1.82-.963-1.691-.845-1.55-.587-1.785-.352-1.985-.141-2.149-.024-2.079 .129-1.938 .317-1.726 .176-1.609-.07-1.433-.423-1.198-.282-1.057-.153-.916-.035-.775 .317-1.034 .551-1.198 .669-1.268 .88-.94 1.009-.681 1.056-.493H-.317C-.834-1.081-1.209-1.48-1.444-1.691-1.608-1.527-1.784-1.386-1.972-1.268-1.597-1.01-1.25-.675-.933-.264-.616 .146-.387 .516-.247 .846-.083 .728 .129 .622 .387 .528 .27 .411 .141 .235 0 0M2.218 1.515H5.423C5.399 1.303 5.388 1.104 5.388 .916 5.388 .728 5.399 .54 5.423 .352H4.754V.986H-.986V.141H-1.69C-1.667 .352-1.655 .575-1.655 .81-1.655 1.068-1.667 1.303-1.69 1.515H1.479C1.408 1.773 1.303 1.996 1.162 2.184 1.467 2.255 1.69 2.325 1.831 2.396 1.972 2.161 2.101 1.867 2.218 1.515M-1.232-5.883C-1.35-5.695-1.491-5.507-1.655-5.32-.951-4.991-.317-4.58 .246-4.087 .387-4.275 .54-4.463 .704-4.65 .07-5.026-.576-5.437-1.232-5.883M4.261-.352H2.923C3.04-.845 3.251-1.268 3.556-1.621 3.861-1.151 4.096-.728 4.261-.352M5.211-5.32C5.047-5.484 4.895-5.683 4.754-5.919 4.402-5.613 3.815-5.202 2.993-4.686 3.134-4.522 3.263-4.345 3.38-4.157 3.991-4.509 4.601-4.897 5.211-5.32" fill="#2c292a"/>
<path transform="matrix(1,0,0,-1,175.9741,236.5065)" d="M0 0C-.247-.259-.593-.611-1.039-1.057H-.053C.346-1.057 .757-1.045 1.18-1.022V-1.656C.757-1.633 .334-1.621-.088-1.621H-1.743C-2.119-1.902-2.541-2.208-3.011-2.537H-.018C-.041-2.959-.053-3.347-.053-3.699V-4.932C-.053-5.355-.041-5.813-.018-6.306H-.722V-5.778H-4.102V-6.306H-4.842C-4.819-5.93-4.807-5.578-4.807-5.249V-3.629C-5.276-3.887-5.805-4.146-6.391-4.404-6.626-4.075-6.791-3.875-6.884-3.805-6.72-3.758-6.409-3.646-5.951-3.47-5.493-3.294-5.112-3.1-4.807-2.889V-2.537H-4.137C-3.621-2.255-3.164-1.95-2.764-1.621H-5.264C-5.757-1.621-6.215-1.633-6.638-1.656V-1.022C-6.168-1.045-5.711-1.057-5.264-1.057H-3.398V.035H-4.454C-4.854 .035-5.218 .023-5.546 0V.634C-5.218 .611-4.854 .599-4.454 .599H-3.398C-3.398 .951-3.41 1.35-3.433 1.797H-2.659C-2.682 1.468-2.694 1.068-2.694 .599H-2.166C-1.861 .599-1.509 .611-1.109 .634V0C-1.509 .023-1.861 .035-2.166 .035H-2.694V-1.057H-1.99C-1.661-.799-1.333-.493-1.004-.141-.675 .211-.335 .657 .018 1.198 .276 .939 .487 .751 .651 .634 .463 .47 .247 .258 0 0M-.722-3.1H-4.102V-3.84H-.722ZM-.722-4.404H-4.102V-5.2139999H-.722ZM-.722-5.214" fill="#2c292a"/>
<path transform="matrix(1,0,0,-1,273.4127,250.01831)" d="M0 0C.493 0 .939 .011 1.338 .035V-.634C.986-.611 .54-.599 0-.599H-1.655C-1.655-1.374-1.679-2.079-1.725-2.713H.986C1.409-2.713 1.796-2.701 2.148-2.677V-3.347C1.796-3.324 1.42-3.312 1.021-3.312H-.563V-6.06C-.563-6.365-.387-6.518-.035-6.518H1.162C1.42-6.518 1.561-6.165 1.584-5.461 1.819-5.602 2.078-5.707 2.359-5.778 2.242-6.694 1.972-7.152 1.549-7.152H-.387C-.928-7.128-1.197-6.823-1.197-6.236V-3.312H-1.796C-1.984-4.204-2.213-4.879-2.482-5.337-2.753-5.795-3.063-6.183-3.416-6.5-3.768-6.817-4.296-7.175-5-7.574-5.118-7.316-5.317-7.116-5.599-6.976-5.035-6.717-4.578-6.453-4.226-6.183-3.873-5.913-3.539-5.578-3.222-5.179-2.905-4.78-2.653-4.157-2.465-3.312H-4.014C-4.601-3.312-5.024-3.324-5.282-3.347V-2.677C-5.024-2.701-4.601-2.713-4.014-2.713H-2.394C-2.371-2.008-2.359-1.304-2.359-.599H-3.31C-3.78-.599-4.214-.611-4.613-.634V.035C-4.214 .011-3.78 0-3.31 0Z" fill="#2c292a"/>
<path transform="matrix(1,0,0,-1,279.7407,256.2188)" d="M0 0C-.317-.07-.634-.147-.951-.229-1.268-.312-1.597-.405-1.937-.511-2.277-.617-2.6-.728-2.905-.846-2.952-.634-3.034-.352-3.152 0-2.894 .047-2.659 .094-2.447 .141V4.686C-2.447 5.179-2.46 5.66-2.482 6.13H.44C.416 5.707 .405 5.237 .405 4.721V.669C.498 .693 .651 .728 .863 .775V.176C.604 .129 .317 .07 0 0M-.299 5.566H-1.778V4.227H-.299ZM-.299 3.699H-1.778V2.29H-.299ZM-1.021 .388C-.798 .434-.558 .481-.299 .528V1.726H-1.778V.247C-1.497 .293-1.245 .34-1.021 .388M1.285 .335C1.52 .745 1.69 1.174 1.796 1.621 1.901 2.066 1.977 2.524 2.025 2.995 2.071 3.464 2.095 3.911 2.095 4.333 1.695 4.333 1.332 4.321 1.003 4.298V4.932C1.308 4.908 1.673 4.897 2.095 4.897V5.707C2.095 5.965 2.083 6.318 2.06 6.764 2.318 6.74 2.623 6.729 2.975 6.729 2.905 6.423 2.864 6.118 2.852 5.813 2.84 5.507 2.835 5.202 2.835 4.897H4.806C4.736 4.521 4.701 4.063 4.701 3.523L4.49-.07C4.466-.516 4.313-.781 4.032-.863 3.75-.945 3.386-1.01 2.94-1.057 2.893-.751 2.811-.469 2.694-.211 3.139-.211 3.445-.206 3.609-.194 3.773-.182 3.856 .047 3.856 .493L4.032 4.333H2.835C2.787 3.347 2.705 2.548 2.588 1.938 2.47 1.327 2.324 .846 2.148 .493 1.972 .141 1.796-.171 1.62-.44 1.444-.71 1.238-.974 1.003-1.233 .815-1.045 .557-.892 .229-.775 .698-.447 1.05-.077 1.285 .335" fill="#2c292a"/>
<path transform="matrix(1,0,0,-1,292.4949,251.21619)" d="M0 0C-.246-.259-.593-.611-1.039-1.057H-.053C.346-1.057 .757-1.045 1.18-1.022V-1.656C.757-1.633 .335-1.621-.088-1.621H-1.743C-2.119-1.902-2.541-2.208-3.01-2.537H-.018C-.041-2.959-.053-3.347-.053-3.699V-4.932C-.053-5.355-.041-5.813-.018-6.306H-.722V-5.778H-4.102V-6.306H-4.842C-4.818-5.93-4.806-5.578-4.806-5.249V-3.629C-5.276-3.887-5.805-4.146-6.391-4.404-6.626-4.075-6.79-3.875-6.884-3.805-6.72-3.758-6.409-3.646-5.951-3.47-5.493-3.294-5.112-3.1-4.806-2.889V-2.537H-4.137C-3.621-2.255-3.164-1.95-2.764-1.621H-5.264C-5.757-1.621-6.215-1.633-6.638-1.656V-1.022C-6.168-1.045-5.71-1.057-5.264-1.057H-3.398V.035H-4.454C-4.854 .035-5.217 .023-5.546 0V.634C-5.217 .61-4.854 .599-4.454 .599H-3.398C-3.398 .951-3.41 1.35-3.433 1.797H-2.658C-2.682 1.468-2.694 1.068-2.694 .599H-2.165C-1.861 .599-1.509 .61-1.109 .634V0C-1.509 .023-1.861 .035-2.165 .035H-2.694V-1.057H-1.989C-1.661-.799-1.332-.493-1.003-.141-.675 .211-.334 .657 .018 1.198 .276 .939 .487 .751 .652 .634 .463 .469 .247 .258 0 0M-.722-3.1H-4.102V-3.84H-.722ZM-.722-4.404H-4.102V-5.2139999H-.722ZM-.722-5.214" fill="#2c292a"/>
<path transform="matrix(1,0,0,-1,287.6138,245.33371)" d="M0 0-2.16 2.119C-2.41 2.366-2.784 2.366-3.034 2.119-3.284 1.874-3.284 1.505-3.034 1.258L-1.966 .184H-5.605C-5.948 .184-6.23-.093-6.23-.432-6.23-.77-5.948-1.046-5.605-1.046H-1.966L-3.045-2.136C-3.326-2.413-3.295-2.875-2.95-3.09-2.702-3.274-2.358-3.212-2.139-2.997L0-.863C.25-.616 .25-.247 0 0M-5.759 2.054C-5.652 1.963-5.514 1.905-5.36 1.905-5.025 1.905-4.754 2.173-4.754 2.504-4.752 2.701-4.852 2.876-5.004 2.985V2.992C-5.609 3.442-6.247 3.75-6.849 3.961-5.406 4.838-4.423 6.379-4.423 8.192-4.423 10.942-6.697 13.119-9.46 13.119-12.223 13.119-14.495 10.913-14.495 8.162-14.495 6.379-13.544 4.808-12.101 3.961-16.246 2.479-16.615-1.722-16.615-1.781-16.644-2.114-16.399-2.416-16.062-2.416-15.724-2.446-15.417-2.205-15.387-1.872-15.387-1.66-14.925 2.934-9.521 3.237-9.386 3.237-7.442 3.307-5.761 2.054ZM-9.46 4.444C-11.548 4.444-13.267 6.106-13.267 8.192-13.267 10.277-11.548 11.91-9.46 11.91-7.372 11.91-5.652 10.248-5.652 8.162-5.652 6.077-7.372 4.444-9.46 4.444" fill="#f43040"/>
<path transform="matrix(1,0,0,-1,270.772,231.6336)" stroke-width="1" stroke-linecap="butt" stroke-miterlimit="10" stroke-linejoin="miter" fill="none" stroke="#f43040" d="M0 0C0 4.265-3.456 7.723-7.643 7.784H-81.855C-85.875 7.727-89.14 4.636-89.535 .727L-91.498-.396-89.411-1.639C-88.628-5.123-85.548-7.725-81.855-7.737H-7.643C-3.456-7.723 0-4.265 0 0Z"/>
<path transform="matrix(1,0,0,-1,173.8494,250.63242)" stroke-width="1" stroke-linecap="butt" stroke-miterlimit="10" stroke-linejoin="miter" fill="none" stroke="#f43040" d="M0 0C0 4.265 3.456 7.723 7.643 7.784H81.855C85.875 7.727 89.14 4.636 89.535 .727L91.498-.396 89.411-1.639C88.628-5.123 85.548-7.725 81.855-7.737H7.643C3.456-7.723 0-4.265 0 0Z"/>
<path transform="matrix(1,0,0,-1,196.6285,228.0419)" d="M0 0C-.611-.059-1.245-.1-1.901-.123-1.949-.382-1.996-.617-2.042-.828H-.07C.305-.828 .739-.816 1.232-.793V-1.392C.739-1.368 .305-1.356-.07-1.356H-2.183C-2.254-1.568-2.348-1.791-2.465-2.026H.599C1.138-2.026 1.667-2.003 2.183-1.955V-2.589C1.596-2.566 1.068-2.554 .599-2.554H-2.641C-2.805-2.836-2.946-3.047-3.063-3.188H1.162C1.138-3.588 1.127-4.022 1.127-4.492V-6.112C1.127-6.488 1.138-6.934 1.162-7.451H.458V-6.958H-3.275V-7.451H-3.979C-3.956-7.028-3.944-6.617-3.944-6.218V-4.104C-4.32-4.527-4.859-4.973-5.564-5.443-5.752-5.185-5.939-4.985-6.127-4.844-5.611-4.61-5.1-4.28-4.595-3.858-4.091-3.435-3.697-3.001-3.416-2.554H-4.754C-5.176-2.554-5.576-2.566-5.951-2.589V-1.99C-5.552-2.014-5.153-2.026-4.754-2.026H-3.134C-3.04-1.814-2.958-1.591-2.887-1.356H-3.803C-4.155-1.356-4.531-1.368-4.93-1.392V-.793C-4.531-.816-4.155-.828-3.803-.828H-2.747C-2.7-.57-2.665-.358-2.641-.194-2.946-.194-3.316-.206-3.75-.229-4.185-.253-4.66-.288-5.176-.335-5.247-.147-5.341 .076-5.458 .335-4.801 .311-3.762 .335-2.342 .405-.922 .476 .247 .617 1.162 .828 1.303 .593 1.467 .346 1.655 .088 1.162 .088 .61 .058 0 0M.458-3.717H-3.275V-4.245H.458ZM.458-4.774H-3.275V-5.3380005H.458ZM.458-5.831H-3.275V-6.395H.458ZM.458-6.394" fill="#2c292a"/>
<path transform="matrix(1,0,0,-1,200.3685,233.23819)" d="M0 0H1.268V-1.409C1.197-1.996 .903-2.431 .387-2.713L.035-2.396C.458-2.161 .669-1.808 .669-1.339H0Z" fill="#2c292a"/>
<path transform="matrix(1,0,0,-1,212.5592,228.30609)" d="M0 0C-.211-.07-.657-.176-1.338-.317V-1.656H.493C.493-1.022 .481-.141 .458 .986 .716 .939 .974 .916 1.233 .916 1.185 .564 1.162 .164 1.162-.282V-1.656H2.747C3.099-1.656 3.509-1.644 3.979-1.621V-2.255C3.509-2.232 3.11-2.219 2.782-2.219H1.197C1.268-3.347 1.42-4.157 1.655-4.65 2.148-4.181 2.571-3.488 2.923-2.572 3.11-2.736 3.357-2.889 3.662-3.03 3.474-3.241 3.228-3.588 2.923-4.069 2.617-4.551 2.3-4.956 1.972-5.284 2.16-5.566 2.359-5.801 2.571-5.989 2.782-6.177 2.952-6.289 3.081-6.324 3.21-6.359 3.304-6.289 3.363-6.112 3.421-5.936 3.462-5.684 3.486-5.355 3.721-5.52 3.967-5.66 4.226-5.778 4.037-6.435 3.838-6.846 3.627-7.011 3.416-7.175 3.11-7.152 2.711-6.94 2.312-6.729 1.902-6.329 1.479-5.742 .681-6.306 .047-6.705-.422-6.94-.563-6.682-.739-6.47-.951-6.306-.246-6.072 .446-5.684 1.127-5.144 .798-4.486 .599-3.511 .528-2.219H-1.338V-3.593C-.798-3.476-.387-3.359-.106-3.241-.082-3.476-.059-3.699-.035-3.911-.341-3.981-.775-4.087-1.338-4.228V-6.024C-1.315-6.47-1.456-6.758-1.761-6.887-2.066-7.016-2.418-7.116-2.817-7.187-2.841-6.928-2.958-6.658-3.169-6.377-2.7-6.377-2.389-6.347-2.236-6.289-2.084-6.23-2.007-6.095-2.007-5.883V-4.404C-2.899-4.639-3.486-4.803-3.768-4.897-3.791-4.568-3.862-4.298-3.979-4.087-3.556-4.04-2.899-3.923-2.007-3.734V-2.219C-2.922-2.219-3.556-2.232-3.909-2.255V-1.621C-3.533-1.644-2.899-1.656-2.007-1.656V-.493L-3.486-.81C-3.556-.552-3.65-.329-3.768-.141-3.416-.141-2.87-.059-2.13 .106-1.391 .27-.833 .458-.458 .669-.223 .34-.07 .117 0 0M3.451-.705C3.263-.846 3.075-1.01 2.888-1.198 2.512-.681 2.113-.259 1.69 .07 1.878 .235 2.03 .399 2.148 .564 2.758 0 3.192-.423 3.451-.705" fill="#2c292a"/>
<path transform="matrix(1,0,0,-1,219.1514,231.512)" d="M0 0V-2.29C.681-2.807 1.737-3.077 3.169-3.1 4.601-3.123 5.728-3.077 6.549-2.959 6.432-3.217 6.35-3.499 6.303-3.805 4.143-3.805 2.799-3.764 2.271-3.682 1.743-3.599 1.332-3.517 1.039-3.435 .745-3.352 .469-3.235 .211-3.083-.047-2.93-.264-2.93-.44-3.083-.616-3.235-.834-3.499-1.091-3.875-1.232-3.687-1.421-3.523-1.655-3.382-1.421-3.171-1.091-2.866-.669-2.466V.493C-.974 .493-1.291 .481-1.62 .458V1.127C-1.291 1.104-.739 1.092 .035 1.092 .011 .716 0 .352 0 0M.176 2.36C-.012 2.243-.211 2.102-.423 1.938-.728 2.501-1.069 3.03-1.444 3.523L-.81 3.946C-.435 3.358-.106 2.83 .176 2.36M.951-2.501C.857-2.337 .716-2.149 .528-1.938 .997-1.75 1.678-1.304 2.571-.599 2.664-.81 2.758-.986 2.852-1.127 2.148-1.644 1.514-2.102 .951-2.501M.951 .458V1.092C1.35 1.068 2.019 1.057 2.958 1.057V1.762C1.784 1.762 .986 1.749 .563 1.726V2.36C.986 2.337 1.784 2.325 2.958 2.325V2.995C2.136 2.995 1.526 2.982 1.127 2.959V3.593C1.526 3.57 2.136 3.558 2.958 3.558 2.958 3.746 2.946 3.993 2.923 4.298H3.627C3.603 3.969 3.592 3.722 3.592 3.558H5.74C5.716 3.182 5.704 2.771 5.704 2.325 5.868 2.325 6.139 2.337 6.514 2.36V1.726C6.139 1.749 5.868 1.762 5.704 1.762 5.704 1.268 5.716 .845 5.74 .493H3.592V-.388C3.756-.482 3.896-.564 4.014-.634 4.53-.188 4.894 .176 5.106 .458 5.27 .293 5.458 .117 5.669-.07 5.505-.141 5.106-.435 4.472-.951 5.106-1.351 5.622-1.691 6.021-1.973 5.857-2.114 5.704-2.302 5.564-2.537 4.976-2.043 4.319-1.539 3.592-1.022V-2.043C3.592-2.396 3.504-2.619 3.328-2.713 3.151-2.807 2.829-2.889 2.359-2.959 2.336-2.701 2.23-2.431 2.042-2.149 2.488-2.173 2.752-2.167 2.835-2.131 2.917-2.096 2.958-1.926 2.958-1.621V.493C2.019 .493 1.35 .481 .951 .458M2.324-.423C2.136-.611 1.984-.775 1.866-.916 1.608-.611 1.291-.317 .916-.035 1.079 .129 1.209 .282 1.303 .423 1.631 .164 1.972-.118 2.324-.423M5.071 2.995H3.592V2.3259998H5.071ZM5.071 1.762H3.592V1.0569999H5.071ZM5.071 1.057" fill="#2c292a"/>
<path transform="matrix(1,0,0,-1,228.1555,234.82361)" d="M0 0C-.693-.117-1.18-.223-1.461-.317-1.532-.012-1.614 .282-1.708 .564-1.285 .587-.939 .61-.669 .634-.399 .657-.077 .693 .299 .74V2.114H-.194C-.664 2.114-1.062 2.09-1.391 2.043V2.713C-.992 2.689-.628 2.677-.299 2.677H.299V3.84C-.171 3.816-.505 3.793-.704 3.77-.904 3.746-1.121 3.711-1.356 3.664-1.403 3.969-1.474 4.239-1.567 4.474-1.192 4.568-.857 4.803-.563 5.179-.27 5.554-.041 5.977 .123 6.447H-.405C-.804 6.447-1.18 6.435-1.532 6.412V7.081C-1.157 7.058-.792 7.046-.44 7.046H1.813C2.236 7.046 2.611 7.058 2.94 7.081V6.412C2.588 6.435 2.212 6.447 1.813 6.447H.37L1.003 6.024C.768 5.836 .546 5.602 .334 5.32 .123 5.038-.123 4.732-.405 4.404 .44 4.451 1.226 4.497 1.954 4.545 1.766 4.85 1.555 5.155 1.32 5.461 1.555 5.578 1.766 5.707 1.954 5.848 2.189 5.519 2.412 5.202 2.623 4.897 2.835 4.591 3.034 4.31 3.222 4.051 3.011 3.887 2.776 3.734 2.518 3.593 2.424 3.758 2.342 3.898 2.271 4.016 1.778 3.946 1.367 3.898 1.039 3.875V2.677H1.708C2.107 2.677 2.447 2.689 2.729 2.713V2.043C2.424 2.09 2.095 2.114 1.743 2.114H1.039V.81C1.696 .904 2.388 1.01 3.116 1.127 3.069 .892 3.034 .669 3.011 .458 1.696 .27 .692 .118 0 0M4.243 5.144V2.501C4.243 2.008 4.255 1.597 4.278 1.268H3.539C3.562 1.597 3.574 2.008 3.574 2.501V5.284C3.574 5.754 3.562 6.13 3.539 6.412H4.313C4.266 6.106 4.243 5.684 4.243 5.144M6.039 6.341V.564C6.039 .024 5.939-.293 5.74-.388 5.54-.481 5.111-.587 4.454-.705 4.384-.399 4.278-.117 4.137 .141 4.63 .141 4.953 .159 5.106 .194 5.258 .229 5.335 .423 5.335 .775V6.341C5.335 6.858 5.323 7.257 5.299 7.539H6.109C6.062 7.187 6.039 6.787 6.039 6.341" fill="#2c292a"/>
<path transform="matrix(1,0,0,-1,236.5257,230.17331)" d="M0 0C-.258-.376-.47-.705-.634-.986-.775-.822-.974-.658-1.232-.493-.787-.024-.393 .511-.053 1.11 .287 1.709 .54 2.337 .704 2.995 .868 2.877 1.138 2.76 1.514 2.642 1.373 2.454 1.092 1.949 .669 1.127V-3.453C.669-4.181 .681-4.768 .704-5.214H-.035C-.012-4.838 0-4.24 0-3.417ZM2.377 1.515C2.67 2.219 2.817 2.677 2.817 2.889 3.099 2.771 3.404 2.677 3.733 2.607 3.592 2.489 3.38 2.125 3.099 1.515H6.796C6.726 1.304 6.62 1.016 6.479 .652 6.338 .287 6.209-.059 6.092-.388 5.857-.317 5.622-.259 5.388-.211 5.552 .141 5.704 .516 5.845 .916H2.852C2.571 .305 2.242-.259 1.866-.775 1.678-.658 1.432-.564 1.127-.493 1.667 .141 2.083 .81 2.377 1.515M2.606-1.198C2.887-1.339 3.11-1.457 3.275-1.55 3.134-1.785 2.923-2.114 2.641-2.537 2.359-2.959 2.042-3.382 1.69-3.805 1.502-3.641 1.314-3.488 1.127-3.347 1.713-2.736 2.206-2.02 2.606-1.198M3.521-4.386C3.662-4.328 3.733-4.204 3.733-4.016V-1.057C3.733-.493 3.72-.083 3.697 .176H4.437C4.413-.083 4.402-.493 4.402-1.057V-4.404C4.402-4.709 4.272-4.915 4.014-5.02 3.756-5.126 3.404-5.214 2.958-5.284 2.911-5.049 2.793-4.779 2.606-4.474 3.075-4.474 3.38-4.444 3.521-4.386M7.007-3.312C6.867-3.406 6.643-3.547 6.338-3.734 5.939-2.983 5.481-2.232 4.965-1.48 5.199-1.339 5.388-1.221 5.528-1.127 6.092-1.902 6.585-2.631 7.007-3.312" fill="#2c292a"/>
<path transform="matrix(1,0,0,-1,251.7803,227.8129)" d="M0 0V-.775C-.259-.869-.739-1.151-1.444-1.621-2.148-2.091-2.653-2.443-2.958-2.677V-6.694C-2.981-7.093-3.187-7.345-3.574-7.451-3.961-7.557-4.355-7.633-4.754-7.68-4.871-7.187-4.989-6.858-5.106-6.694-4.519-6.717-4.144-6.711-3.979-6.676-3.815-6.641-3.733-6.482-3.733-6.2V-3.382C-3.733-2.842-3.768-2.466-3.838-2.255-3.439-2.091-2.571-1.55-1.232-.634H-4.965C-5.528-.658-6.069-.669-6.585-.669V.035C-6.069 .012-5.646 0-5.317 0Z" fill="#2c292a"/>
<path transform="matrix(1,0,0,-1,255.837,230.63129)" d="M0 0C0-1.433 .011-2.419 .035-2.959H-.599V-2.29H-1.585V-3.593H-2.254C-2.231-3.1-2.219-2.067-2.219-.493-2.219 1.08-2.231 2.066-2.254 2.466H.035C.011 2.255 0 1.432 0 0M-.599 1.902H-1.585V-1.727H-.599ZM5.053 .634C5.041-.517 5.047-1.257 5.071-1.585H4.401V-1.092H1.514V-3.241C1.514-3.782 1.737-4.063 2.183-4.087H4.085C4.343-4.087 4.525-4.016 4.63-3.875 4.736-3.734 4.812-3.394 4.859-2.854 5.094-3.065 5.364-3.194 5.669-3.241 5.505-3.852 5.358-4.233 5.229-4.386 5.1-4.539 4.882-4.615 4.578-4.615H2.042C1.291-4.591 .903-4.215 .88-3.488V1.409C.88 2.043 .868 2.513 .845 2.818H5.071C5.071 2.513 5.064 1.785 5.053 .634M2.676 2.325H1.5140002V-.52900007H2.676ZM4.401 2.325H3.31V-.52900007H4.401ZM4.401-.528" fill="#2c292a"/>
<path transform="matrix(1,0,0,-1,188.6652,348.13203)" d="M0 0V-1.339C.328-1.339 .645-1.316 .951-1.268V-2.008C.387-1.961-.223-1.938-.88-1.938H-5.74C-6.397-1.938-6.961-1.961-7.43-2.008V-1.268C-7.078-1.316-6.749-1.339-6.444-1.339V0C-6.444 .375-6.456 .763-6.479 1.163H.035C.012 .763 0 .375 0 0M-5.775 4.474V3.171C-5.775 2.818-5.763 2.407-5.74 1.938H-6.479C-6.456 2.407-6.444 2.818-6.444 3.171V4.58C-6.444 4.908-6.456 5.237-6.479 5.566H-5.704C-5.752 5.261-5.775 4.897-5.775 4.474M-4.507 .528H-5.775V-1.374H-4.507ZM-3.944 4.967V2.959C-3.944 2.537-3.932 2.079-3.909 1.585H-4.648C-4.625 2.079-4.613 2.537-4.613 2.959V4.897C-4.613 5.225-4.625 5.589-4.648 5.989H-3.873C-3.921 5.754-3.944 5.413-3.944 4.967M-2.606 .528H-3.8379999V-1.374H-2.606ZM-1.637 5.091C-1.72 4.867-1.796 4.662-1.866 4.474H-.282C.117 4.474 .516 4.486 .915 4.509V3.84C.54 3.887 .129 3.911-.317 3.911H-2.042C-2.277 3.347-2.594 2.736-2.993 2.079-3.181 2.219-3.404 2.337-3.662 2.431-3.475 2.665-3.281 2.988-3.081 3.4-2.882 3.81-2.7 4.263-2.535 4.756-2.371 5.249-2.242 5.683-2.148 6.06-1.843 5.942-1.549 5.836-1.268 5.742-1.432 5.531-1.555 5.314-1.637 5.091M-.669 .528H-1.937V-1.374H-.669ZM-.563 2.942C-.329 2.695-.083 2.431 .176 2.149 .012 2.008-.176 1.843-.387 1.656L-1.092 2.431C-1.327 2.689-1.549 2.912-1.761 3.1-1.62 3.288-1.467 3.453-1.303 3.593-1.045 3.405-.798 3.188-.563 2.942" fill="#2c292a"/>
<path transform="matrix(1,0,0,-1,192.5459,344.4328)" d="M0 0H1.831C1.761-.282 1.655-.587 1.514-.916 1.373-1.245 1.185-1.574 .951-1.902H2.958C2.817-1.691 2.659-1.374 2.482-.951 2.306-.528 2.16 .023 2.042 .705 2.3 .728 2.512 .751 2.676 .775L2.817 .141H5.141C5.047-.118 4.912-.423 4.736-.775 4.56-1.127 4.307-1.562 3.979-2.079 4.19-2.243 4.466-2.408 4.807-2.572 5.147-2.736 5.47-2.866 5.775-2.959 5.587-3.124 5.423-3.324 5.282-3.558 4.906-3.417 4.513-3.212 4.102-2.942 3.691-2.672 3.38-2.408 3.169-2.149V-2.431H.704V-2.184C.352-2.56-.024-2.877-.423-3.135 0-3.159 .516-3.171 1.127-3.171H2.676C3.216-3.171 3.733-3.159 4.226-3.135V-3.734C3.733-3.711 3.251-3.699 2.782-3.699H2.183V-5.073C2.183-5.378 2.107-5.589 1.954-5.707 1.801-5.824 1.467-5.919 .951-5.989 .903-5.754 .821-5.507 .704-5.249 1.15-5.272 1.402-5.261 1.461-5.214 1.52-5.167 1.549-5.049 1.549-4.862V-3.699H1.127C.563-3.699 .023-3.711-.493-3.734V-3.171C-.939-3.453-1.327-3.664-1.655-3.805-1.773-3.593-1.937-3.417-2.148-3.276-1.562-3.089-1.056-2.842-.634-2.537-.822-2.349-1.045-2.149-1.303-1.938-1.115-1.82-.963-1.691-.845-1.55-.587-1.785-.352-1.985-.141-2.149-.024-2.079 .129-1.938 .317-1.726 .176-1.609-.07-1.433-.423-1.198-.282-1.057-.153-.916-.035-.775 .317-1.034 .551-1.198 .669-1.268 .88-.94 1.009-.681 1.056-.493H-.317C-.834-1.081-1.209-1.48-1.444-1.691-1.608-1.527-1.784-1.386-1.972-1.268-1.597-1.01-1.25-.676-.933-.264-.616 .146-.387 .516-.247 .846-.083 .728 .129 .622 .387 .528 .27 .411 .141 .235 0 0M2.218 1.515H5.423C5.399 1.303 5.388 1.104 5.388 .916 5.388 .728 5.399 .54 5.423 .352H4.754V.986H-.986V.141H-1.69C-1.667 .352-1.655 .575-1.655 .81-1.655 1.068-1.667 1.303-1.69 1.515H1.479C1.408 1.773 1.303 1.996 1.162 2.184 1.467 2.255 1.69 2.325 1.831 2.396 1.972 2.16 2.101 1.867 2.218 1.515M-1.232-5.883C-1.35-5.695-1.491-5.507-1.655-5.32-.951-4.991-.317-4.58 .247-4.087 .387-4.275 .54-4.463 .704-4.65 .07-5.026-.575-5.437-1.232-5.883M4.261-.352H2.923C3.04-.846 3.251-1.268 3.556-1.621 3.861-1.151 4.096-.728 4.261-.352M5.211-5.32C5.047-5.484 4.895-5.683 4.754-5.919 4.402-5.613 3.815-5.202 2.993-4.686 3.134-4.522 3.263-4.345 3.38-4.157 3.991-4.509 4.601-4.897 5.211-5.32" fill="#2c292a"/>
<path transform="matrix(1,0,0,-1,206.1152,344.0101)" d="M0 0C-.247-.259-.593-.611-1.039-1.057H-.053C.346-1.057 .757-1.045 1.18-1.022V-1.656C.757-1.633 .334-1.621-.088-1.621H-1.743C-2.119-1.902-2.541-2.208-3.011-2.537H-.018C-.041-2.959-.053-3.347-.053-3.699V-4.932C-.053-5.355-.041-5.813-.018-6.306H-.722V-5.778H-4.102V-6.306H-4.842C-4.819-5.93-4.807-5.578-4.807-5.249V-3.629C-5.276-3.887-5.805-4.146-6.391-4.404-6.626-4.075-6.791-3.875-6.884-3.805-6.72-3.758-6.409-3.646-5.951-3.47-5.493-3.294-5.112-3.1-4.807-2.889V-2.537H-4.137C-3.621-2.255-3.164-1.95-2.764-1.621H-5.264C-5.757-1.621-6.215-1.633-6.638-1.656V-1.022C-6.168-1.045-5.711-1.057-5.264-1.057H-3.398V.035H-4.454C-4.854 .035-5.218 .023-5.546 0V.634C-5.218 .61-4.854 .599-4.454 .599H-3.398C-3.398 .951-3.41 1.35-3.433 1.797H-2.659C-2.682 1.468-2.694 1.068-2.694 .599H-2.166C-1.861 .599-1.509 .61-1.109 .634V0C-1.509 .023-1.861 .035-2.166 .035H-2.694V-1.057H-1.99C-1.661-.799-1.333-.493-1.004-.141-.675 .211-.335 .657 .018 1.198 .276 .939 .487 .751 .651 .634 .463 .469 .247 .258 0 0M-.722-3.1H-4.102V-3.84H-.722ZM-.722-4.404H-4.102V-5.2139999H-.722ZM-.722-5.214" fill="#2c292a"/>
</g>
<path transform="matrix(1,0,0,-1,212.5707,349.4707)" d="M0 0H-1.224L1.597 2.823H-4.054V3.695H1.597L-1.224 6.518H0L3.257 3.259Z" fill="#2c292a"/>
<g clip-path="url(#clip_7)">
<path transform="matrix(1,0,0,-1,217.1157,342.9884)" d="M0 0C.305-.024 .634-.035 .986-.035H3.521C3.451 .247 3.368 .493 3.275 .705 3.556 .728 3.838 .775 4.12 .846 4.167 .61 4.248 .317 4.366-.035H6.796C7.124-.035 7.465-.024 7.817 0V-.634C7.465-.611 7.03-.599 6.514-.599H1.021C.645-.599 .305-.611 0-.634ZM7.606-6.518C7.629-6.87 7.5-7.093 7.218-7.187 6.937-7.281 6.667-7.339 6.409-7.363 6.315-7.081 6.197-6.835 6.056-6.623 6.291-6.623 6.502-6.617 6.69-6.606 6.878-6.594 6.96-6.436 6.937-6.13V-3.911H.951V-7.293H.246C.27-6.963 .282-6.295 .282-5.284 .282-4.251 .27-3.617 .246-3.382H7.641C7.617-3.711 7.606-4.075 7.606-4.474ZM6.303-2.008C6.303-2.267 6.315-2.537 6.338-2.818H1.373C1.396-2.607 1.408-2.337 1.408-2.008 1.408-1.68 1.396-1.386 1.373-1.127H6.338C6.315-1.433 6.303-1.726 6.303-2.008M5.669-1.656H2.0770002V-2.29H5.669ZM5.704-5.355C5.704-5.637 5.716-5.919 5.74-6.2H2.148C2.195-5.919 2.218-5.637 2.218-5.355 2.218-5.05 2.195-4.768 2.148-4.509H5.74C5.716-4.768 5.704-5.05 5.704-5.355M5.07-5.003H2.7810002V-5.7079999H5.07ZM5.07-5.707" fill="#2c292a"/>
<path transform="matrix(1,0,0,-1,227.2994,343.51679)" d="M0 0C-.211-.517-.435-1.022-.669-1.515-.341-1.468-.012-1.433 .317-1.409 .551-.893 .692-.482 .739-.176L1.514-.458C1.373-.623 1.173-.951 .915-1.444 .657-1.938 .27-2.701-.247-3.734L1.338-3.523C1.244-3.805 1.185-4.028 1.162-4.192 .857-4.192 .51-4.222 .123-4.28-.264-4.339-.646-4.428-1.021-4.545-1.115-4.263-1.186-4.016-1.232-3.805-1.021-3.711-.81-3.494-.599-3.153-.387-2.813-.176-2.431 .035-2.008-.224-2.032-.464-2.061-.687-2.096-.91-2.131-1.104-2.184-1.268-2.255-1.338-2.067-1.432-1.832-1.549-1.55-1.338-1.409-1.109-1.057-.863-.493-.616 .07-.4 .681-.211 1.339 .047 1.245 .328 1.163 .634 1.092 .423 .881 .211 .516 0 0M1.62-5.672C1.197-5.742 .727-5.831 .211-5.936-.305-6.042-.775-6.177-1.197-6.341-1.291-6.083-1.385-5.813-1.479-5.531-1.01-5.484-.57-5.432-.159-5.373 .252-5.314 .857-5.203 1.655-5.038 1.631-5.273 1.62-5.484 1.62-5.672M3.063 .581C2.969 .335 2.887 .106 2.817-.106H5.07C5.54-.106 5.962-.094 6.338-.07V-.705C5.939-.681 5.516-.669 5.07-.669H4.718V-1.867C5.282-1.867 5.74-1.856 6.092-1.832V-2.466C5.74-2.443 5.282-2.431 4.718-2.431V-3.699C5.305-3.699 5.775-3.688 6.127-3.664V-4.263C5.775-4.24 5.305-4.228 4.718-4.228V-5.496H5.282C5.751-5.496 6.221-5.484 6.69-5.461V-6.06C6.221-6.036 5.751-6.024 5.282-6.024H2.746V-6.835H2.078C2.1-6.388 2.113-5.79 2.113-5.038V-1.621C1.972-1.973 1.819-2.302 1.655-2.607 1.42-2.443 1.22-2.314 1.056-2.219 1.268-1.915 1.455-1.603 1.62-1.286 1.784-.969 1.966-.528 2.165 .035 2.365 .599 2.488 1.068 2.535 1.444 2.793 1.35 3.075 1.268 3.38 1.198 3.263 1.033 3.157 .828 3.063 .581M4.085-.669H2.747V-1.867H4.085ZM4.085-2.431H2.747V-3.699H4.085ZM4.085-4.228H2.747V-5.4960005H4.085ZM5.07 .352C4.882 .282 4.683 .188 4.472 .07 4.354 .352 4.178 .681 3.944 1.057L4.507 1.409C4.601 1.268 4.789 .916 5.07 .352" fill="#2c292a"/>
<path transform="matrix(1,0,0,-1,239.3142,342.0724)" d="M0 0C.141-.259 .282-.599 .423-1.022H1.725C1.984-1.022 2.453-1.01 3.134-.986V-1.621C2.477-1.597 1.984-1.585 1.655-1.585H-2.958C-2.958-2.642-2.97-3.494-2.993-4.14-3.017-4.786-3.081-5.425-3.187-6.06-3.292-6.694-3.521-7.387-3.873-8.138-4.085-7.997-4.308-7.891-4.542-7.821-4.167-7.164-3.926-6.518-3.821-5.883-3.715-5.249-3.657-4.439-3.644-3.453-3.633-2.466-3.639-1.656-3.662-1.022H-.387C-.481-.717-.587-.458-.704-.247-.446-.176-.211-.094 0 0M-2.43-5.038C-1.773-5.062-1.245-5.073-.845-5.073H2.43C2.218-5.449 1.96-5.825 1.655-6.2 1.35-6.577 1.056-6.882 .775-7.116 1.08-7.257 1.514-7.375 2.078-7.469 2.641-7.562 3.181-7.61 3.697-7.61 3.557-7.751 3.427-7.985 3.31-8.314 2.629-8.22 2.03-8.108 1.514-7.98 .997-7.85 .563-7.703 .211-7.539-.282-7.751-.769-7.921-1.25-8.05-1.731-8.179-2.231-8.279-2.747-8.349-2.817-8.161-2.958-7.962-3.169-7.751-2.747-7.751-2.266-7.692-1.725-7.574-1.186-7.457-.716-7.305-.317-7.116-.716-6.788-1.115-6.283-1.514-5.602L-2.43-5.637ZM-1.444-1.867H-.704C-.728-2.055-.739-2.349-.739-2.748H1.162C1.162-2.372 1.15-2.067 1.127-1.832H1.866C1.843-2.114 1.831-2.419 1.831-2.748 2.347-2.748 2.793-2.736 3.169-2.713V-3.312C2.817-3.288 2.371-3.276 1.831-3.276 1.831-3.911 1.843-4.368 1.866-4.65H-1.444C-1.42-4.275-1.408-3.817-1.408-3.276-1.69-3.276-2.101-3.288-2.641-3.312V-2.713C-2.101-2.736-1.69-2.748-1.408-2.748-1.408-2.372-1.42-2.079-1.444-1.867M-.845-5.602C-.54-6.072-.176-6.471 .247-6.799 .599-6.541 .962-6.142 1.338-5.602H-.81ZM1.162-3.276H-.7390001V-4.086H1.162ZM1.162-4.087" fill="#2c292a"/>
<path transform="matrix(1,0,0,-1,244.4272,349.5412)" d="M0 0C-.258 .141-.493 .258-.704 .352-.352 .869 0 1.597 .352 2.537 .563 2.348 .81 2.243 1.092 2.219 .763 1.538 .399 .798 0 0M6.585 5.038C6.585 4.38 6.596 3.722 6.62 3.065H.458C.481 3.746 .493 4.415 .493 5.073 .493 5.73 .481 6.388 .458 7.046H6.62C6.596 6.365 6.585 5.695 6.585 5.038M3.204 6.447H1.197V5.39H3.204ZM3.204 4.756H1.197V3.664H3.204ZM2.359 1.339V.493C2.336 .164 2.512 .012 2.888 .035H4.683C4.847 .035 4.988 .076 5.106 .159 5.223 .24 5.317 .552 5.388 1.092 5.622 .881 5.88 .74 6.162 .669 5.998 .129 5.804-.211 5.581-.352 5.358-.493 5.106-.564 4.824-.564H2.359C1.937-.564 1.713-.34 1.69 .106V1.339C1.69 1.597 1.678 1.879 1.655 2.184H2.395C2.371 1.902 2.359 1.621 2.359 1.339M4.578 1.444C4.272 1.28 4.05 1.139 3.909 1.022 3.65 1.562 3.392 2.008 3.134 2.36 3.345 2.454 3.544 2.572 3.732 2.713 3.991 2.337 4.272 1.914 4.578 1.444M5.916 6.447H3.8739999V5.39H5.916ZM5.916 4.756H3.8739999V3.664H5.916ZM7.606 .846C7.395 .705 7.195 .54 7.007 .352 6.655 .916 6.221 1.491 5.705 2.079 5.845 2.149 6.033 2.29 6.268 2.501 6.784 1.914 7.23 1.362 7.606 .846" fill="#2c292a"/>
<path transform="matrix(1,0,0,-1,259.6111,347.6387)" d="M0 0C-.047-.282-.123-.693-.229-1.233-.334-1.774-.446-2.114-.563-2.255-.681-2.396-.927-2.501-1.303-2.572-1.679-2.642-2.195-2.701-2.852-2.748-2.876-2.442-2.958-2.184-3.099-1.973-1.855-2.02-1.18-1.938-1.074-1.726-.968-1.515-.88-1.127-.81-.564H-2.746C-3.24-.564-3.639-.611-3.944-.705-3.991-.493-4.073-.294-4.19-.106-4.026-.083-3.885 .006-3.768 .159-3.65 .311-3.521 .54-3.38 .846H-4.085C-4.343 .705-4.678 .54-5.088 .352-5.499 .164-5.974-.035-6.514-.247-6.585-.059-6.725 .141-6.937 .352-6.397 .493-5.763 .722-5.035 1.039-4.308 1.356-3.592 1.785-2.887 2.325H-5.282C-5.587 2.325-6.045 2.313-6.655 2.29V2.924C-6.045 2.9-5.587 2.889-5.282 2.889H-3.451V4.016H-4.437C-4.648 4.016-4.965 4.004-5.387 3.981V4.58C-4.965 4.556-4.66 4.545-4.472 4.545H-3.451C-3.451 4.991-3.463 5.32-3.486 5.531H-2.817C-2.84 5.202-2.852 4.873-2.852 4.545H-2.324C-2.16 4.545-1.784 4.556-1.197 4.58V3.981C-1.831 4.004-2.195 4.016-2.289 4.016H-2.852V2.889H-2.183C-1.737 3.264-1.332 3.64-.968 4.016-.605 4.392-.329 4.721-.141 5.003 .047 4.814 .27 4.65 .528 4.509 .364 4.392 .111 4.186-.229 3.893-.569 3.599-.939 3.264-1.338 2.889H.106C.434 2.889 .798 2.9 1.197 2.924V2.29C.798 2.313 .434 2.325 .106 2.325H-1.972C-2.253 2.114-2.665 1.808-3.204 1.409H-.704C-.329 1.409-.035 1.421 .176 1.444V.81C-.035 .833-.317 .846-.669 .846H-2.711C-2.829 .587-2.97 .305-3.134 0Z" fill="#2c292a"/>
<path transform="matrix(1,0,0,-1,87.36,223.3182)" d="M0 0C0 .367-.013 .708-.039 1.022H.826C.747 .655 .708 .236 .708-.236V-.983C.969-.983 1.271-.97 1.612-.944V-1.652C1.297-1.626 .996-1.612 .708-1.612V-3.067C.838-2.91 .956-2.779 1.061-2.674 1.454-3.173 1.808-3.71 2.122-4.287 1.86-4.392 1.651-4.51 1.494-4.641 1.231-4.116 .969-3.657 .708-3.264V-6.41C.708-6.882 .72-7.393 .747-7.944H-.039C-.013-7.393 0-6.882 0-6.41V-3.893C-.157-4.392-.446-4.994-.865-5.702-.97-5.466-1.14-5.23-1.376-4.994-1.035-4.549-.747-3.992-.511-3.323-.275-2.655-.131-2.084-.079-1.612-.419-1.612-.773-1.626-1.14-1.652V-.944C-.747-.97-.367-.983 0-.983ZM4.324-.236C4.245-1.075 4.14-1.796 4.009-2.399 3.878-3.002 3.747-3.461 3.616-3.775 4.009-4.379 4.428-5.047 4.874-5.781 4.638-5.912 4.415-6.083 4.206-6.292 4.022-5.847 3.721-5.283 3.302-4.601 3.118-4.994 2.902-5.394 2.653-5.801 2.404-6.207 2.109-6.594 1.769-6.961 1.533-6.751 1.297-6.581 1.061-6.45 1.48-6.109 1.834-5.716 2.122-5.27 2.411-4.824 2.646-4.365 2.83-3.893 2.699-3.579 2.332-3.002 1.729-2.163 1.939-2.084 2.122-1.966 2.28-1.809 2.62-2.229 2.909-2.648 3.145-3.067 3.354-2.334 3.485-1.599 3.538-.865H2.673C2.306-.865 1.991-.879 1.729-.905V-.197C1.965-.223 2.28-.236 2.673-.236ZM6.053-4.641C5.712-4.798 5.489-4.929 5.385-5.034 5.123-4.3 4.795-3.605 4.402-2.949 4.717-2.766 4.939-2.648 5.071-2.596 5.437-3.356 5.765-4.038 6.053-4.641M6.171 1.022H6.957C6.931 .629 6.918-.053 6.918-1.022 7.18-1.022 7.468-.997 7.783-.944V-1.691C7.442-1.665 7.154-1.652 6.918-1.652V-7.197C6.892-7.458 6.787-7.649 6.604-7.767 6.42-7.885 6.093-7.97 5.621-8.023 5.568-7.734 5.45-7.446 5.267-7.157 5.66-7.183 5.922-7.177 6.053-7.138 6.184-7.098 6.236-6.921 6.211-6.607V-1.652C5.45-1.652 4.887-1.665 4.52-1.691V-.983C4.861-1.01 5.424-1.022 6.211-1.022 6.184-.053 6.171 .629 6.171 1.022" fill="#2c292a"/>
<path transform="matrix(1,0,0,-1,102.9453,227.7424)" d="M0 0C-.328-.957-.636-1.764-.924-2.419H.688C1.16-2.419 1.683-2.406 2.26-2.379V-3.166C1.683-3.139 1.225-3.126 .884-3.126H-5.365C-5.811-3.126-6.244-3.139-6.663-3.166V-2.379C-6.244-2.406-5.824-2.419-5.405-2.419H-1.749C-1.304-1.396-.957-.479-.707 .334-.459 1.147-.282 1.829-.177 2.379 .006 2.248 .334 2.117 .806 1.986 .596 1.619 .327 .957 0 0M.413 3.598C.622 3.598 1.015 3.611 1.592 3.638V2.89C1.042 2.916 .544 2.93 .098 2.93H-4.619C-4.933 2.93-5.405 2.916-6.034 2.89V3.638C-5.405 3.611-4.933 3.598-4.619 3.598ZM-2.81-1.75C-2.994-1.855-3.269-1.986-3.636-2.143-3.925-1.331-4.2-.629-4.461-.039-4.724 .551-4.999 1.134-5.287 1.711-5.051 1.842-4.789 1.972-4.501 2.104-3.636 .347-3.073-.938-2.81-1.75M-1.749 4.188C-1.959 4.057-2.208 3.913-2.496 3.756-2.68 4.201-2.955 4.673-3.321 5.171-3.086 5.302-2.85 5.447-2.614 5.604-2.09 4.817-1.802 4.346-1.749 4.188" fill="#2c292a"/>
<path transform="matrix(1,0,0,-1,107.0529,226.7789)" d="M0 0C.262 .551 .484 1.166 .668 1.848 .222 1.848-.21 1.835-.629 1.809V2.517C-.157 2.49 .314 2.478 .786 2.478 .786 3.579 .773 4.312 .747 4.68H1.612C1.559 4.365 1.533 3.631 1.533 2.478 1.926 2.478 2.345 2.49 2.791 2.517V1.809C2.345 1.835 1.926 1.848 1.533 1.848V.393C1.716 .498 1.913 .629 2.123 .787 2.594 .157 2.895-.315 3.027-.629 2.738-.787 2.516-.944 2.358-1.101 2.227-.734 1.952-.315 1.533 .157V-2.753C1.533-3.303 1.546-3.893 1.572-4.523H.707C.76-3.893 .786-3.303 .786-2.753V.157C.576-.577 .183-1.351-.393-2.163-.55-1.823-.747-1.587-.983-1.455-.59-1.036-.262-.551 0 0M2.948 3.618C3.524 3.592 4.061 3.579 4.56 3.579H7.626C7.521 2.478 7.344 1.527 7.095 .728 6.846-.073 6.393-.944 5.739-1.888 6.053-2.307 6.433-2.648 6.879-2.91 7.324-3.173 7.835-3.396 8.412-3.579 8.044-3.867 7.822-4.129 7.744-4.365 7.14-4.076 6.629-3.762 6.211-3.421 5.791-3.081 5.464-2.753 5.228-2.438 4.887-2.832 4.533-3.179 4.167-3.48 3.799-3.781 3.288-4.129 2.634-4.523 2.529-4.26 2.319-4.011 2.005-3.775 2.398-3.644 2.843-3.435 3.341-3.146 3.839-2.858 4.31-2.438 4.756-1.888 4.52-1.573 4.284-1.069 4.049-.374 3.813 .321 3.629 1.416 3.498 2.91H2.948ZM4.658 .216C4.776-.243 4.979-.734 5.267-1.258 5.582-.787 5.883-.203 6.171 .492 6.459 1.186 6.643 2.006 6.721 2.949H4.245C4.402 1.586 4.54 .675 4.658 .216" fill="#2c292a"/>
<path transform="matrix(1,0,0,-1,116.2114,230.79019)" d="M0 0C.236 .393 .413 .799 .531 1.219 .649 1.638 .747 2.058 .825 2.478 .904 2.897 .956 3.493 .983 4.267 1.008 5.04 1.008 5.964 .983 7.039H5.542C5.516 7.826 5.477 8.363 5.424 8.652 5.712 8.599 6.014 8.573 6.328 8.573 6.302 8.232 6.302 7.721 6.328 7.039H7.39C7.835 7.039 8.333 7.052 8.883 7.079V6.332C8.359 6.357 7.861 6.371 7.39 6.371H6.368C6.42 5.794 6.479 5.276 6.545 4.817 6.61 4.358 6.747 3.71 6.957 2.871 7.088 3.185 7.226 3.579 7.37 4.051 7.514 4.523 7.625 5.047 7.704 5.624 7.992 5.492 8.333 5.388 8.726 5.309 8.569 5.099 8.398 4.745 8.215 4.247 8.031 3.749 7.73 2.989 7.311 1.966 7.861 .917 8.208 .537 8.353 .826 8.496 1.114 8.595 1.376 8.648 1.612 8.857 1.35 9.093 1.166 9.355 1.062 9.066 .249 8.739-.19 8.372-.256 8.005-.321 7.508 .171 6.879 1.219 6.616 .852 6.374 .544 6.152 .295 5.929 .046 5.673-.222 5.385-.511 5.175-.328 4.926-.183 4.638-.079 4.953 .157 5.273 .445 5.601 .787 5.929 1.127 6.236 1.547 6.525 2.045 6.211 2.831 5.994 3.604 5.876 4.365 5.758 5.125 5.673 5.794 5.621 6.371H1.73V4.011C1.624 2.621 1.48 1.625 1.297 1.022 1.114 .42 .917-.052 .708-.393 .524-.21 .288-.079 0 0M3.066 4.011C3.17 4.352 3.249 4.641 3.302 4.876 3.066 4.876 2.686 4.863 2.162 4.837V5.545C2.659 5.519 3.223 5.506 3.852 5.506 4.481 5.506 4.992 5.519 5.385 5.545V4.837C4.966 4.863 4.533 4.876 4.088 4.876 3.983 4.588 3.891 4.299 3.813 4.011H5.542C5.359 3.198 5.123 2.517 4.835 1.966 5.096 1.835 5.372 1.665 5.66 1.455 5.503 1.271 5.359 1.075 5.228 .865 4.992 1.022 4.73 1.18 4.442 1.337 4.049 .944 3.708 .655 3.42 .472 3.131 .289 2.777 .092 2.358-.118 2.201 .092 2.018 .302 1.808 .511 2.201 .616 2.555 .76 2.869 .944 3.184 1.127 3.485 1.35 3.773 1.612 3.197 1.901 2.712 2.11 2.319 2.242 2.502 2.608 2.673 2.989 2.83 3.382 2.541 3.382 2.24 3.369 1.926 3.343V4.051C2.24 4.024 2.62 4.011 3.066 4.011M4.167 2.202C4.376 2.517 4.52 2.91 4.599 3.382H3.498C3.393 3.12 3.262 2.844 3.105 2.556ZM8.254 7.747C7.992 7.642 7.756 7.511 7.547 7.354 7.363 7.694 7.18 7.996 6.997 8.259 7.206 8.389 7.429 8.507 7.665 8.612 7.901 8.298 8.097 8.009 8.254 7.747" fill="#2c292a"/>
<path transform="matrix(1,0,0,-1,217.8148,288.3752)" stroke-width="1.398" stroke-linecap="butt" stroke-miterlimit="8" stroke-linejoin="miter" fill="none" stroke="#2c292a" d="M0 0 2.409-4.155H57.125C61.114-4.155 64.348-7.391 64.348-11.382V-40.286C64.348-44.277 61.114-47.512 57.125-47.512H-57.125C-61.114-47.512-64.348-44.277-64.348-40.286V-11.382C-64.348-7.391-61.114-4.155-57.125-4.155H-2.409L0 0Z"/>
<path transform="matrix(1,0,0,-1,208.453,275.0324)" d="M0 0C.497-.026 1.14-.039 1.926-.039 2.738-.039 3.328-.026 3.695 0V-.669C3.328-.643 2.817-.629 2.162-.629 2.031-1.285 1.821-1.927 1.533-2.556H3.302C3.275-2.976 3.263-3.343 3.263-3.657V-5.545C3.263-5.938 3.275-6.371 3.302-6.843H2.594V-6.214H1.533V-7.393H.825C.851-6.869 .865-6.397 .865-5.978V-3.736C.629-4.103 .393-4.431 .157-4.719 .052-4.51-.144-4.326-.432-4.169-.144-3.933 .138-3.612 .413-3.205 .688-2.799 .897-2.393 1.042-1.986 1.185-1.58 1.31-1.128 1.415-.629 .891-.629 .419-.643 0-.669ZM2.594-3.146H1.5330001V-5.5839998H2.594ZM4.579-6.076C4.435-6.614 4.153-7.236 3.734-7.944 3.577-7.76 3.315-7.629 2.948-7.551 3.341-7.105 3.616-6.66 3.773-6.214 3.931-5.768 4.049-5.178 4.127-4.444 4.206-3.71 4.245-2.963 4.245-2.202 4.245-1.416 4.232-.786 4.206-.315H5.935C5.935 .236 5.922 .76 5.896 1.258H6.643C6.617 .812 6.604 .288 6.604-.315H8.608C8.556-.498 8.497-.741 8.431-1.042 8.366-1.344 8.307-1.678 8.254-2.045 7.966-1.993 7.73-1.953 7.547-1.927 7.626-1.639 7.704-1.311 7.783-.944H6.604V-2.792H8.215C8.137-3.553 8.012-4.188 7.842-4.699 7.671-5.211 7.403-5.742 7.036-6.292 7.691-6.921 8.333-7.315 8.962-7.472 8.569-7.682 8.359-7.891 8.333-8.101 7.757-7.839 7.154-7.406 6.525-6.803 5.948-7.328 5.437-7.76 4.992-8.101 4.861-7.865 4.625-7.694 4.285-7.59 4.835-7.354 5.437-6.921 6.093-6.292 5.542-5.559 5.214-4.601 5.11-3.421H4.913C4.835-4.654 4.723-5.539 4.579-6.076M5.935-.944H4.913V-2.792H5.935ZM7.39-3.421H5.7C5.83-4.339 6.118-5.112 6.564-5.742 7.036-5.06 7.311-4.287 7.39-3.421" fill="#f43040"/>
<path transform="matrix(1,0,0,-1,208.453,275.0324)" stroke-width=".288" stroke-linecap="butt" stroke-miterlimit="10" stroke-linejoin="miter" fill="none" stroke="#f43040" d="M0 0C.497-.026 1.14-.039 1.926-.039 2.738-.039 3.328-.026 3.695 0V-.669C3.328-.643 2.817-.629 2.162-.629 2.031-1.285 1.821-1.927 1.533-2.556H3.302C3.275-2.976 3.263-3.343 3.263-3.657V-5.545C3.263-5.938 3.275-6.371 3.302-6.843H2.594V-6.214H1.533V-7.393H.825C.851-6.869 .865-6.397 .865-5.978V-3.736C.629-4.103 .393-4.431 .157-4.719 .052-4.51-.144-4.326-.432-4.169-.144-3.933 .138-3.612 .413-3.205 .688-2.799 .897-2.393 1.042-1.986 1.185-1.58 1.31-1.128 1.415-.629 .891-.629 .419-.643 0-.669V0ZM2.594-3.146H1.5330001V-5.5839998H2.594ZM4.579-6.076C4.435-6.614 4.153-7.236 3.734-7.944 3.577-7.76 3.315-7.629 2.948-7.551 3.341-7.105 3.616-6.66 3.773-6.214 3.931-5.768 4.049-5.178 4.127-4.444 4.206-3.71 4.245-2.963 4.245-2.202 4.245-1.416 4.232-.786 4.206-.315H5.935C5.935 .236 5.922 .76 5.896 1.258H6.643C6.617 .812 6.604 .288 6.604-.315H8.608C8.556-.498 8.497-.741 8.431-1.042 8.366-1.344 8.307-1.678 8.254-2.045 7.966-1.993 7.73-1.953 7.547-1.927 7.626-1.639 7.704-1.311 7.783-.944H6.604V-2.792H8.215C8.137-3.553 8.012-4.188 7.842-4.699 7.671-5.211 7.403-5.742 7.036-6.292 7.691-6.921 8.333-7.315 8.962-7.472 8.569-7.682 8.359-7.891 8.333-8.101 7.757-7.839 7.154-7.406 6.525-6.803 5.948-7.328 5.437-7.76 4.992-8.101 4.861-7.865 4.625-7.694 4.285-7.59 4.835-7.354 5.437-6.921 6.093-6.292 5.542-5.559 5.214-4.601 5.11-3.421H4.913C4.835-4.654 4.723-5.539 4.579-6.076ZM5.935-.944H4.913V-2.792H5.935ZM7.39-3.421H5.7C5.83-4.339 6.118-5.112 6.564-5.742 7.036-5.06 7.311-4.287 7.39-3.421Z"/>
<path transform="matrix(1,0,0,-1,226.5155,282.76)" d="M0 0C-.302-.118-.688-.19-1.16-.216-1.212 .151-1.33 .479-1.513 .767-.884 .714-.518 .728-.413 .806-.308 .885-.23 1.055-.177 1.317L-.098 4.385H-6.112C-6.217 3.126-6.394 2.169-6.643 1.514-6.892 .858-7.174 .321-7.488-.098-7.724 .138-7.999 .295-8.313 .374-7.92 .819-7.62 1.324-7.409 1.888-7.2 2.451-7.056 3.015-6.977 3.579-6.898 4.142-6.859 4.686-6.859 5.211V6.43C-6.859 6.692-6.872 7.426-6.898 8.632H.02C-.007 8.212-.02 7.793-.02 7.374-.02 6.954-.007 6.534 .02 6.115H-6.073V5.053H.727L.57 1.042C.491 .466 .301 .118 0 0M-.727 7.964H-6.073V6.7840006H-.727ZM-1.651 2.301C-1.638 1.907-1.631 1.475-1.631 1.003H-5.444C-5.392 1.343-5.365 1.737-5.365 2.183-5.365 2.655-5.379 3.139-5.405 3.638H-1.631C-1.658 3.139-1.664 2.694-1.651 2.301M-2.378 2.969H-4.619V1.6320001H-2.378ZM-2.378 1.632" fill="#f43040"/>
<path transform="matrix(1,0,0,-1,226.5155,282.76)" stroke-width=".288" stroke-linecap="butt" stroke-miterlimit="10" stroke-linejoin="miter" fill="none" stroke="#f43040" d="M0 0C-.302-.118-.688-.19-1.16-.216-1.212 .151-1.33 .479-1.513 .767-.884 .714-.518 .728-.413 .806-.308 .885-.23 1.055-.177 1.317L-.098 4.385H-6.112C-6.217 3.126-6.394 2.169-6.643 1.514-6.892 .858-7.174 .321-7.488-.098-7.724 .138-7.999 .295-8.313 .374-7.92 .819-7.62 1.324-7.409 1.888-7.2 2.451-7.056 3.015-6.977 3.579-6.898 4.142-6.859 4.686-6.859 5.211V6.43C-6.859 6.692-6.872 7.426-6.898 8.632H.02C-.007 8.212-.02 7.793-.02 7.374-.02 6.954-.007 6.534 .02 6.115H-6.073V5.053H.727L.57 1.042C.491 .466 .301 .118 0 0ZM-.727 7.964H-6.073V6.7840006H-.727ZM-1.651 2.301C-1.638 1.907-1.631 1.475-1.631 1.003H-5.444C-5.392 1.343-5.365 1.737-5.365 2.183-5.365 2.655-5.379 3.139-5.405 3.638H-1.631C-1.658 3.139-1.664 2.694-1.651 2.301ZM-2.378 2.969H-4.619V1.6320001H-2.378ZM-2.378 1.632"/>
<path transform="matrix(1,0,0,-1,212.3461,305.2433)" d="M0 0V-1.339C.328-1.339 .645-1.316 .951-1.268V-2.008C.387-1.961-.223-1.938-.88-1.938H-5.74C-6.397-1.938-6.961-1.961-7.43-2.008V-1.268C-7.078-1.316-6.749-1.339-6.444-1.339V0C-6.444 .375-6.456 .763-6.479 1.163H.035C.012 .763 0 .375 0 0M-5.775 4.474V3.171C-5.775 2.818-5.763 2.407-5.74 1.938H-6.479C-6.456 2.407-6.444 2.818-6.444 3.171V4.58C-6.444 4.908-6.456 5.237-6.479 5.566H-5.705C-5.752 5.261-5.775 4.897-5.775 4.474M-4.507 .528H-5.775V-1.374H-4.507ZM-3.944 4.967V2.959C-3.944 2.537-3.932 2.079-3.909 1.585H-4.648C-4.625 2.079-4.613 2.537-4.613 2.959V4.897C-4.613 5.225-4.625 5.589-4.648 5.989H-3.873C-3.921 5.754-3.944 5.413-3.944 4.967M-2.606 .528H-3.8379999V-1.374H-2.606ZM-1.637 5.091C-1.72 4.867-1.796 4.662-1.866 4.474H-.282C.117 4.474 .516 4.486 .915 4.509V3.84C.54 3.887 .129 3.911-.317 3.911H-2.042C-2.277 3.347-2.594 2.736-2.993 2.079-3.181 2.219-3.404 2.337-3.662 2.431-3.475 2.665-3.281 2.988-3.081 3.4-2.882 3.81-2.7 4.263-2.535 4.756-2.371 5.249-2.242 5.683-2.148 6.06-1.843 5.942-1.549 5.836-1.268 5.742-1.432 5.531-1.555 5.314-1.637 5.091M-.669 .528H-1.937V-1.374H-.669ZM-.563 2.942C-.329 2.695-.083 2.431 .176 2.149 .012 2.008-.176 1.843-.387 1.656L-1.092 2.431C-1.327 2.689-1.549 2.912-1.761 3.1-1.62 3.288-1.467 3.453-1.303 3.593-1.045 3.405-.798 3.188-.563 2.942" fill="#2c292a"/>
<path transform="matrix(1,0,0,-1,216.2268,301.5441)" d="M0 0H1.831C1.761-.282 1.655-.587 1.514-.916 1.373-1.245 1.185-1.574 .951-1.902H2.958C2.817-1.691 2.659-1.374 2.482-.951 2.306-.528 2.16 .023 2.042 .705 2.3 .728 2.512 .751 2.676 .775L2.817 .141H5.141C5.047-.118 4.912-.423 4.736-.775 4.56-1.127 4.307-1.562 3.979-2.079 4.19-2.243 4.466-2.408 4.806-2.572 5.146-2.736 5.47-2.866 5.775-2.959 5.587-3.124 5.423-3.324 5.282-3.558 4.906-3.417 4.513-3.212 4.102-2.942 3.691-2.672 3.38-2.408 3.169-2.149V-2.431H.704V-2.184C.352-2.56-.024-2.877-.423-3.135 0-3.159 .516-3.171 1.127-3.171H2.676C3.216-3.171 3.733-3.159 4.226-3.135V-3.734C3.733-3.711 3.251-3.699 2.782-3.699H2.183V-5.073C2.183-5.378 2.107-5.589 1.954-5.707 1.801-5.824 1.467-5.919 .951-5.989 .904-5.754 .821-5.507 .704-5.249 1.15-5.272 1.402-5.261 1.461-5.214 1.52-5.167 1.549-5.049 1.549-4.862V-3.699H1.127C.563-3.699 .023-3.711-.493-3.734V-3.171C-.939-3.453-1.327-3.664-1.655-3.805-1.773-3.593-1.937-3.417-2.148-3.276-1.561-3.089-1.056-2.842-.634-2.537-.822-2.349-1.045-2.149-1.303-1.938-1.115-1.82-.963-1.691-.845-1.55-.587-1.785-.352-1.985-.141-2.149-.024-2.079 .129-1.938 .317-1.726 .176-1.609-.07-1.433-.423-1.198-.282-1.057-.153-.916-.035-.775 .317-1.034 .551-1.198 .669-1.268 .88-.94 1.009-.681 1.056-.493H-.317C-.833-1.081-1.209-1.48-1.444-1.691-1.608-1.527-1.784-1.386-1.972-1.268-1.597-1.01-1.25-.676-.933-.264-.616 .146-.387 .516-.247 .846-.083 .728 .129 .622 .387 .528 .27 .411 .141 .235 0 0M2.218 1.515H5.423C5.399 1.304 5.388 1.104 5.388 .916 5.388 .728 5.399 .54 5.423 .352H4.754V.986H-.986V.141H-1.69C-1.667 .352-1.655 .575-1.655 .81-1.655 1.068-1.667 1.304-1.69 1.515H1.479C1.409 1.773 1.303 1.996 1.162 2.184 1.467 2.255 1.69 2.325 1.831 2.396 1.972 2.16 2.101 1.867 2.218 1.515M-1.232-5.883C-1.35-5.695-1.491-5.507-1.655-5.32-.951-4.991-.317-4.58 .247-4.087 .387-4.275 .54-4.463 .704-4.65 .07-5.026-.575-5.437-1.232-5.883M4.261-.352H2.923C3.04-.846 3.251-1.268 3.557-1.621 3.861-1.151 4.096-.728 4.261-.352M5.212-5.32C5.047-5.484 4.895-5.683 4.754-5.919 4.402-5.613 3.815-5.202 2.993-4.686 3.134-4.522 3.263-4.345 3.38-4.157 3.991-4.509 4.601-4.897 5.212-5.32" fill="#2c292a"/>
<path transform="matrix(1,0,0,-1,229.8085,301.1214)" d="M0 0C-.246-.259-.593-.611-1.039-1.057H-.053C.346-1.057 .757-1.045 1.18-1.022V-1.656C.757-1.633 .335-1.621-.088-1.621H-1.743C-2.119-1.902-2.541-2.208-3.01-2.537H-.018C-.041-2.959-.053-3.347-.053-3.699V-4.932C-.053-5.355-.041-5.813-.018-6.306H-.722V-5.778H-4.102V-6.306H-4.842C-4.818-5.93-4.806-5.578-4.806-5.249V-3.629C-5.276-3.887-5.805-4.146-6.391-4.404-6.626-4.075-6.79-3.875-6.884-3.805-6.72-3.758-6.409-3.646-5.951-3.47-5.493-3.294-5.112-3.1-4.806-2.889V-2.537H-4.137C-3.621-2.255-3.164-1.95-2.764-1.621H-5.264C-5.757-1.621-6.215-1.633-6.638-1.656V-1.022C-6.168-1.045-5.71-1.057-5.264-1.057H-3.398V.035H-4.454C-4.854 .035-5.217 .023-5.546 0V.634C-5.217 .61-4.854 .599-4.454 .599H-3.398C-3.398 .951-3.41 1.35-3.433 1.797H-2.658C-2.682 1.468-2.694 1.068-2.694 .599H-2.165C-1.861 .599-1.508 .61-1.109 .634V0C-1.508 .023-1.861 .035-2.165 .035H-2.694V-1.057H-1.989C-1.661-.799-1.332-.493-1.003-.141-.675 .211-.334 .657 .018 1.198 .276 .939 .487 .751 .652 .634 .463 .469 .247 .258 0 0M-.722-3.1H-4.102V-3.84H-.722ZM-.722-4.404H-4.102V-5.2139999H-.722ZM-.722-5.214" fill="#2c292a"/>
<path transform="matrix(1,0,0,-1,184.9112,310.3901)" d="M0 0C-.141-.259-.323-.617-.546-1.074-.769-1.533-.998-1.961-1.232-2.36H.458C.129-3.324-.17-4.034-.44-4.492-.71-4.95-.986-5.343-1.268-5.672-1.01-5.86-.628-6.06-.123-6.271 .381-6.482 .892-6.647 1.409-6.764 1.15-7.046 .986-7.293 .916-7.504 .047-7.222-.845-6.764-1.761-6.13-2.254-6.506-2.753-6.793-3.257-6.993-3.762-7.192-4.308-7.375-4.894-7.539-4.942-7.421-5.083-7.222-5.317-6.94-3.979-6.658-2.97-6.248-2.289-5.707-2.618-5.355-2.935-4.962-3.24-4.527-3.545-4.093-3.815-3.664-4.049-3.241-4.143-3.641-4.261-4.022-4.402-4.386-4.542-4.75-4.701-5.091-4.877-5.408-5.053-5.725-5.247-6.019-5.458-6.289-5.669-6.559-5.974-6.905-6.373-7.328-6.491-7.163-6.667-6.963-6.902-6.729-6.315-6.283-5.845-5.755-5.493-5.144-5.141-4.533-4.894-3.952-4.754-3.4-4.613-2.848-4.513-2.32-4.454-1.814-4.396-1.31-4.366-.893-4.366-.564H-4.789C-5.141-.564-5.528-.576-5.951-.599V.035C-5.528 .011-5.141 0-4.789 0ZM-2.887-3.946C-2.442-4.58-2.078-5.015-1.796-5.249-1.584-5.038-1.362-4.738-1.127-4.351-.892-3.963-.669-3.488-.458-2.924H-2.289C-2.125-2.666-1.949-2.355-1.761-1.99-1.573-1.627-1.35-1.151-1.092-.564H-3.697C-3.721-.94-3.78-1.539-3.873-2.36-3.662-2.783-3.334-3.312-2.887-3.946" fill="#2c292a"/>
<path transform="matrix(1,0,0,-1,190.1301,313.7722)" d="M0 0C0-1.198 .012-2.138 .035-2.818H-.704V-2.149H-2.113V-3.312H-2.852C-2.829-2.232-2.817-1.151-2.817-.07-2.817 1.033-2.829 2.079-2.852 3.065H.035C.012 2.219 0 1.198 0 0M-.704 2.466H-2.113V.81000009H-.704ZM-.704 .211H-2.113V-1.551H-.704ZM3.31 3.981H4.085C4.061 3.37 4.049 2.713 4.049 2.008 4.402 2.008 4.777 2.02 5.176 2.043V1.374C4.777 1.397 4.402 1.409 4.049 1.409V-3.312C4.049-3.664 3.909-3.887 3.627-3.981 3.345-4.075 2.981-4.145 2.535-4.192 2.535-3.911 2.406-3.64 2.148-3.382 2.594-3.429 2.905-3.44 3.081-3.417 3.257-3.394 3.345-3.241 3.345-2.959V1.409C2.171 1.409 1.185 1.397 .387 1.374V2.043C1.138 2.02 2.124 2.008 3.345 2.008 3.345 2.713 3.333 3.37 3.31 3.981M2.359-1.127C2.124-1.198 1.878-1.304 1.62-1.444 1.432-.881 1.162-.352 .81 .141 1.021 .234 1.244 .34 1.479 .458 1.784-.035 2.078-.564 2.359-1.127" fill="#2c292a"/>
<path transform="matrix(1,0,0,-1,197.2151,317.1014)" d="M0 0C.093 .058 .141 .17 .141 .335V2.308C-.07 2.237-.235 2.172-.352 2.114-.47 2.055-.681 1.932-.986 1.744-1.056 1.978-1.174 2.225-1.338 2.484-.963 2.577-.681 2.66-.493 2.73-.305 2.801-.094 2.871 .141 2.942V4.598H-.106C-.411 4.598-.716 4.585-1.021 4.562V5.196C-.739 5.173-.435 5.161-.106 5.161H.141V6.218C.141 6.547 .129 6.864 .106 7.169H.845C.821 6.911 .81 6.594 .81 6.218V5.161C1.115 5.161 1.432 5.173 1.761 5.196V4.562C1.408 4.585 1.092 4.598 .81 4.598V3.224C.903 3.247 1.033 3.294 1.197 3.364L1.69 3.576C1.667 3.317 1.667 3.094 1.69 2.906 1.549 2.859 1.402 2.806 1.25 2.748 1.097 2.689 .951 2.625 .81 2.554V.088C.786-.194 .704-.399 .563-.528 .423-.657 0-.745-.704-.793-.752-.534-.834-.276-.951-.018-.411-.064-.094-.058 0 0M3.028 7.028C3.005 6.699 2.993 6.276 2.993 5.76 3.768 5.901 4.337 6.036 4.701 6.165 5.065 6.294 5.399 6.441 5.704 6.606 5.798 6.37 5.962 6.148 6.197 5.936 6.08 5.913 5.921 5.877 5.722 5.831 5.522 5.783 5.282 5.725 5 5.654 4.718 5.584 4.396 5.507 4.032 5.425 3.668 5.343 3.322 5.267 2.993 5.196V4.421C2.969 4.186 3.157 4.069 3.556 4.069H5.282C5.634 4.069 5.851 4.145 5.933 4.298 6.015 4.45 6.092 4.691 6.162 5.02 6.35 4.832 6.585 4.691 6.866 4.598 6.655 4.057 6.491 3.746 6.373 3.664 6.256 3.581 6.057 3.529 5.775 3.505H3.063C2.782 3.505 2.588 3.581 2.482 3.734 2.377 3.887 2.324 4.022 2.324 4.14V5.76C2.324 6.37 2.312 6.793 2.289 7.028ZM6.233 1.85V.37C6.233-.123 6.244-.511 6.268-.793H5.564V-.229H2.993V-.934H2.289C2.312-.628 2.324-.194 2.324 .37V1.85C2.324 2.389 2.312 2.801 2.289 3.083H6.268C6.244 2.801 6.233 2.389 6.233 1.85M5.564 2.519H2.9940003V1.7090001H5.564ZM5.564 1.18H2.9940003V.33399994H5.564ZM5.564 .335" fill="#2c292a"/>
<path transform="matrix(1,0,0,-1,206.5538,311.5879)" d="M0 0V-1.409H2.078V.669C2.078 .998 2.065 1.327 2.042 1.656H2.782C2.758 1.374 2.747 1.045 2.747 .669V-1.409H4.859V-.106C4.859 .27 4.847 .575 4.824 .81H5.564C5.54 .575 5.528 .258 5.528-.141V-1.092C5.528-1.468 5.54-1.774 5.564-2.008H2.747V-5.249H5.176V-3.77C5.176-3.417 5.164-3.112 5.141-2.854H5.88C5.857-3.112 5.845-3.406 5.845-3.734V-5.32C5.845-5.789 5.857-6.177 5.88-6.482H5.176V-5.848H-1.092C-1.068-5.566-1.056-5.226-1.056-4.827V-3.77C-1.056-3.371-1.068-3.054-1.092-2.818H-.352C-.376-3.054-.387-3.371-.387-3.77V-5.249H2.078V-2.008H-.704C-.681-1.774-.669-1.48-.669-1.127V-.035C-.669 .27-.681 .564-.704 .846H.035C.012 .54 0 .258 0 0" fill="#2c292a"/>
<path transform="matrix(1,0,0,-1,220.5052,310.531)" d="M0 0C.446 0 .904 .011 1.373 .035V-.705C.857-.681 .399-.669 0-.669H-2.43V-6.095C-2.43-6.4-2.418-6.787-2.394-7.257H-3.204C-3.181-6.835-3.169-6.447-3.169-6.095V-.669H-5.106C-5.576-.669-6.033-.681-6.479-.705V.035C-6.033 .011-5.576 0-5.106 0ZM.282-5.214C-.094-4.721-.822-3.981-1.901-2.995L-1.373-2.466C-.739-2.983 .023-3.711 .916-4.65 .681-4.815 .469-5.003 .282-5.214" fill="#2c292a"/>
<path transform="matrix(1,0,0,-1,230.1606,311.0947)" d="M0 0C0-.259 .012-.517 .035-.775H-5.669C-5.669-1.433-5.675-2.026-5.687-2.554-5.699-3.083-5.74-3.576-5.81-4.034-5.88-4.492-5.98-4.927-6.109-5.337-6.239-5.749-6.432-6.2-6.69-6.694-6.902-6.576-7.137-6.47-7.395-6.377-6.996-5.742-6.72-5.12-6.567-4.509-6.415-3.899-6.333-3.247-6.32-2.554-6.309-1.862-6.303-1.303-6.303-.881-6.303-.458-6.315 .164-6.338 .986H.035C.012 .61 0 .282 0 0M-.634 .423H-5.6689999V-.28199999H-.634ZM-2.359-1.797V-2.29H-.176C-.2-2.549-.211-2.807-.211-3.065-.211-3.324-.2-3.582-.176-3.84H-2.359V-4.298H.528C.505-4.674 .493-5.015 .493-5.32V-6.271C.469-6.482 .393-6.629 .264-6.711 .135-6.793-.188-6.881-.704-6.976-.752-6.74-.857-6.505-1.021-6.271-.716-6.271-.487-6.265-.334-6.253-.182-6.241-.118-6.118-.141-5.883V-4.791H-2.359V-5.425C-2.007-5.402-1.725-5.379-1.514-5.355-1.585-5.238-1.643-5.144-1.69-5.073-1.479-5.003-1.315-4.921-1.197-4.827-.939-5.203-.716-5.555-.528-5.883-.693-5.954-.88-6.048-1.091-6.165-1.139-6.071-1.197-5.966-1.268-5.848-1.479-5.848-1.855-5.878-2.394-5.936-2.935-5.995-3.498-6.071-4.085-6.165-4.108-5.978-4.179-5.766-4.296-5.531-3.78-5.531-3.334-5.508-2.958-5.461V-4.791H-4.648V-6.835H-5.282C-5.259-6.505-5.247-6.095-5.247-5.602-5.247-5.108-5.259-4.674-5.282-4.298H-2.958V-3.84H-4.93C-4.907-3.558-4.894-3.3-4.894-3.065-4.894-2.807-4.907-2.549-4.93-2.29H-2.958V-1.832C-3.827-1.879-4.507-1.914-5-1.938-5.047-1.726-5.129-1.527-5.247-1.339-4.378-1.339-3.516-1.316-2.658-1.268-1.802-1.222-1.033-1.139-.352-1.022-.235-1.257-.094-1.48 .07-1.691-.963-1.738-1.773-1.774-2.359-1.797M-2.958-2.748H-4.331V-3.347H-2.958ZM-.775-2.748H-2.3600002V-3.347H-.775ZM-.775-3.347" fill="#2c292a"/>
<path transform="matrix(1,0,0,-1,233.8303,311.5879)" d="M0 0H1.585C1.561-.4 1.549-.905 1.549-1.515V-4.615C1.549-4.967 1.561-5.473 1.585-6.13H.88V-5.425H-.916V-6.2H-1.62C-1.597-5.449-1.584-4.979-1.584-4.791V-1.55C-1.584-.916-1.597-.4-1.62 0H-.598C-.481 .54-.387 1.104-.317 1.691 .011 1.573 .282 1.491 .493 1.444 .375 1.233 .211 .751 0 0M.88-.599H-.916V-2.361H.88ZM.88-2.959H-.916V-4.826H.88ZM5.564-5.32C5.516-5.742 5.294-6.024 4.895-6.165 4.495-6.306 4.049-6.4 3.557-6.447 3.533-6.188 3.427-5.919 3.24-5.637 3.709-5.66 4.079-5.648 4.349-5.602 4.618-5.555 4.789-5.449 4.859-5.284 4.93-5.12 4.983-4.639 5.018-3.84 5.053-3.042 5.082-1.926 5.106-.493H3.064C2.875-.94 2.606-1.468 2.254-2.079 2.089-1.914 1.889-1.785 1.655-1.691 1.866-1.409 2.065-1.069 2.254-.669 2.441-.27 2.606 .164 2.747 .634 2.887 1.104 2.969 1.468 2.993 1.726 3.322 1.585 3.603 1.48 3.838 1.409 3.72 1.221 3.621 1.016 3.539 .793 3.456 .569 3.368 .352 3.275 .141H5.775C5.751-.352 5.74-.81 5.74-1.233 5.716-2.666 5.657-4.028 5.564-5.32M3.662-2.677C3.803-2.959 3.967-3.324 4.155-3.77 3.991-3.84 3.768-3.958 3.486-4.122 3.322-3.676 3.169-3.294 3.028-2.977 2.887-2.66 2.747-2.396 2.606-2.184 2.77-2.091 2.981-1.973 3.24-1.832Z" fill="#2c292a"/>
<path transform="matrix(1,0,0,-1,241.602,311.1299)" d="M0 0C.246 .446 .44 .857 .581 1.233 .886 1.068 1.156 .927 1.391 .81 1.086 .505 .851 .188 .687-.141 1.18-.141 1.614-.129 1.989-.106V-.74C1.567-.717 1.027-.705 .37-.705 .064-1.127-.241-1.527-.546-1.902-.687-1.715-.84-1.527-1.004-1.339-.581-.893-.246-.447 0 0M1.884-2.149C1.625-2.126 1.344-2.114 1.039-2.114V-3.135C1.484-3.135 1.884-3.124 2.236-3.1V-3.699C1.86-3.676 1.461-3.664 1.039-3.664V-5.39C1.414-5.085 1.719-4.791 1.954-4.509 2.048-4.768 2.142-4.991 2.236-5.179 1.977-5.39 1.696-5.619 1.391-5.866 1.086-6.112 .792-6.377 .511-6.658 .346-6.423 .194-6.224 .053-6.06 .264-5.848 .37-5.614 .37-5.355V-3.664C-.006-3.664-.347-3.676-.652-3.699V-3.1C-.323-3.124 .018-3.135 .37-3.135V-2.114C.205-2.114 .029-2.126-.159-2.149V-1.515C.076-1.539 .311-1.55 .546-1.55H1.285C1.473-1.55 1.673-1.539 1.884-1.515ZM3.398 1.127H4.102C4.079 .657 4.067 .27 4.067-.035H5.335C5.335 .364 5.323 .74 5.299 1.092H6.039C6.015 .833 6.004 .458 6.004-.035 6.379-.035 6.708-.024 6.99 0V-.634C6.661-.611 6.332-.599 6.004-.599V-1.761C6.638-1.761 7.083-1.75 7.342-1.726V-2.325C7.06-2.302 6.684-2.29 6.215-2.29H3.257C3.093-2.29 2.787-2.302 2.342-2.325V-1.726C2.6-1.75 2.963-1.761 3.433-1.761V-.599C3.292-.599 2.987-.611 2.518-.634V0C2.94-.024 3.245-.035 3.433-.035 3.433 .481 3.421 .869 3.398 1.127M6.567-4.932C6.567-5.825 6.579-6.447 6.602-6.799H5.933V-6.341H3.503V-6.905H2.835C2.858-6.224 2.87-5.555 2.87-4.897 2.87-4.216 2.858-3.629 2.835-3.135H6.602C6.579-3.417 6.567-4.016 6.567-4.932M5.933-3.664H3.503V-4.474H5.933ZM5.933-5.003H3.503V-5.8129999H5.933ZM5.335-.599H4.067V-1.762H5.335ZM5.335-1.761" fill="#2c292a"/>
<path transform="matrix(1,0,0,-1,251.4512,312.4687)" d="M0 0C-.024-.306-.035-.693-.035-1.163V-3.734L.493-3.135C.61-3.347 .763-3.535 .951-3.699 .434-4.075-.024-4.557-.423-5.144-.563-4.932-.763-4.756-1.021-4.615-.834-4.427-.728-4.216-.704-3.981V-.599C-1.033-.599-1.373-.611-1.725-.634V.035C-1.514 .011-1.315 0-1.127 0ZM.493 1.339C.328 1.198 .164 1.033 0 .846-.376 1.291-.787 1.691-1.232 2.043-1.045 2.231-.904 2.396-.81 2.537-.646 2.419-.211 2.02 .493 1.339M4.331-.81C4.988-.81 5.54-.799 5.986-.775V-1.374C5.516-1.351 4.965-1.339 4.331-1.339H3.662C3.662-1.574 3.638-1.915 3.592-2.36H4.894C5.411-2.36 5.916-2.349 6.409-2.325V-2.959C5.916-2.936 5.411-2.924 4.894-2.924H3.803C4.108-3.535 4.483-3.987 4.93-4.28 5.375-4.574 5.881-4.768 6.444-4.862 6.233-5.073 6.068-5.308 5.951-5.566 5.106-5.237 4.483-4.862 4.085-4.439 3.685-4.016 3.427-3.629 3.31-3.276 3.028-3.911 2.664-4.41 2.218-4.774 1.772-5.137 1.256-5.425 .669-5.637 .622-5.425 .481-5.202 .246-4.967 .951-4.85 1.52-4.551 1.954-4.069 2.388-3.588 2.641-3.206 2.711-2.924H2.007C1.467-2.924 1.021-2.936 .669-2.959V-2.325C1.091-2.349 1.502-2.36 1.901-2.36H2.887C2.934-2.008 2.958-1.668 2.958-1.339H2.5C1.889-1.339 1.373-1.351 .951-1.374V-.775C1.396-.799 1.831-.81 2.253-.81ZM5.423 1.057C5.423 .61 5.434 .258 5.458 0H1.268C1.291 .235 1.303 .575 1.303 1.022 1.303 1.468 1.291 1.855 1.268 2.184H5.458C5.434 1.879 5.423 1.503 5.423 1.057M4.824 1.621H1.9009998V.52900007H4.824ZM4.824 .528" fill="#2c292a"/>
<path transform="matrix(1,0,0,-1,179.4885,320.6682)" d="M0 0H.704C.681-.329 .669-.916 .669-1.762 1.021-1.762 1.432-1.75 1.901-1.726V-2.325C1.314-2.302 .904-2.29 .669-2.29V-3.875C.88-3.805 1.22-3.617 1.69-3.312 1.737-3.523 1.807-3.723 1.901-3.911 1.479-4.099 1.068-4.298 .669-4.509V-6.905C.692-7.375 .587-7.668 .352-7.786 .117-7.903-.282-7.997-.845-8.068-.915-7.738-1.01-7.504-1.127-7.363-.563-7.363-.229-7.328-.123-7.257-.018-7.187 .035-7.035 .035-6.799V-4.756C-.552-5.038-.939-5.238-1.127-5.355-1.197-5.144-1.315-4.921-1.479-4.686-1.127-4.592-.622-4.404 .035-4.122V-2.29C-.458-2.29-.928-2.302-1.373-2.325V-1.726C-.951-1.75-.481-1.762 .035-1.762 .035-1.01 .023-.423 0 0M6.197-2.889C6.197-4.04 6.209-4.791 6.233-5.144H5.528V-4.58H2.817V-6.799C2.817-7.175 2.981-7.375 3.31-7.398H5.317C5.599-7.398 5.786-7.328 5.881-7.187 5.974-7.046 6.057-6.729 6.127-6.236 6.361-6.424 6.608-6.553 6.866-6.623 6.702-7.164 6.538-7.515 6.374-7.68 6.209-7.844 5.998-7.927 5.74-7.927H3.099C2.465-7.927 2.16-7.574 2.183-6.87V-1.938C2.183-1.304 2.171-.881 2.148-.669H6.233C6.209-.999 6.197-1.738 6.197-2.889M3.838-1.198H2.817V-4.016H3.838ZM5.528-1.198H4.472V-4.016H5.528ZM5.528-4.016" fill="#2c292a"/>
<path transform="matrix(1,0,0,-1,187.8941,321.866)" d="M0 0C.247 .446 .44 .857 .581 1.233 .886 1.068 1.156 .927 1.391 .81 1.085 .505 .851 .188 .687-.141 1.18-.141 1.614-.129 1.989-.106V-.74C1.567-.717 1.027-.705 .37-.705 .064-1.127-.241-1.527-.546-1.902-.687-1.715-.84-1.527-1.004-1.339-.581-.893-.247-.447 0 0M1.884-2.149C1.625-2.126 1.344-2.114 1.039-2.114V-3.135C1.484-3.135 1.884-3.124 2.236-3.1V-3.699C1.86-3.676 1.461-3.664 1.039-3.664V-5.39C1.414-5.085 1.719-4.791 1.954-4.509 2.048-4.768 2.142-4.991 2.236-5.179 1.977-5.39 1.696-5.619 1.391-5.866 1.085-6.112 .792-6.377 .51-6.658 .346-6.423 .194-6.224 .053-6.06 .264-5.848 .37-5.614 .37-5.355V-3.664C-.006-3.664-.347-3.676-.651-3.699V-3.1C-.323-3.124 .018-3.135 .37-3.135V-2.114C.205-2.114 .029-2.126-.158-2.149V-1.515C.076-1.539 .311-1.55 .546-1.55H1.285C1.473-1.55 1.673-1.539 1.884-1.515ZM3.398 1.127H4.102C4.079 .657 4.067 .27 4.067-.035H5.335C5.335 .364 5.323 .74 5.299 1.092H6.039C6.015 .833 6.004 .458 6.004-.035 6.379-.035 6.708-.024 6.99 0V-.634C6.661-.611 6.332-.599 6.004-.599V-1.762C6.638-1.762 7.083-1.75 7.342-1.726V-2.325C7.06-2.302 6.684-2.29 6.215-2.29H3.257C3.093-2.29 2.787-2.302 2.342-2.325V-1.726C2.6-1.75 2.963-1.762 3.433-1.762V-.599C3.292-.599 2.987-.611 2.518-.634V0C2.94-.024 3.245-.035 3.433-.035 3.433 .481 3.421 .869 3.398 1.127M6.567-4.932C6.567-5.825 6.579-6.447 6.602-6.799H5.933V-6.341H3.504V-6.905H2.835C2.858-6.224 2.87-5.555 2.87-4.897 2.87-4.216 2.858-3.629 2.835-3.135H6.602C6.579-3.417 6.567-4.016 6.567-4.932M5.933-3.664H3.503V-4.474H5.933ZM5.933-5.003H3.503V-5.8129999H5.933ZM5.335-.599H4.067V-1.762H5.335ZM5.335-1.762" fill="#2c292a"/>
<path transform="matrix(1,0,0,-1,197.7433,323.2048)" d="M0 0C-.024-.306-.035-.693-.035-1.163V-3.734L.493-3.135C.61-3.347 .763-3.535 .951-3.699 .434-4.075-.024-4.557-.423-5.144-.563-4.932-.763-4.756-1.021-4.615-.834-4.427-.728-4.216-.704-3.981V-.599C-1.033-.599-1.373-.611-1.725-.634V.035C-1.514 .011-1.315 0-1.127 0ZM.493 1.339C.328 1.198 .164 1.033 0 .846-.376 1.291-.787 1.691-1.233 2.043-1.045 2.231-.904 2.396-.81 2.537-.646 2.419-.211 2.02 .493 1.339M4.331-.81C4.988-.81 5.54-.799 5.986-.775V-1.374C5.516-1.351 4.965-1.339 4.331-1.339H3.662C3.662-1.574 3.638-1.914 3.592-2.36H4.895C5.411-2.36 5.916-2.349 6.409-2.325V-2.959C5.916-2.936 5.411-2.924 4.895-2.924H3.803C4.108-3.535 4.484-3.987 4.93-4.28 5.375-4.574 5.88-4.768 6.444-4.862 6.233-5.073 6.068-5.308 5.951-5.566 5.106-5.237 4.484-4.862 4.085-4.439 3.685-4.016 3.427-3.629 3.31-3.276 3.028-3.911 2.664-4.41 2.218-4.774 1.772-5.137 1.255-5.425 .669-5.637 .622-5.425 .481-5.202 .246-4.967 .951-4.85 1.52-4.551 1.954-4.069 2.388-3.588 2.641-3.206 2.711-2.924H2.007C1.467-2.924 1.021-2.936 .669-2.959V-2.325C1.092-2.349 1.502-2.36 1.901-2.36H2.887C2.934-2.008 2.958-1.668 2.958-1.339H2.5C1.889-1.339 1.373-1.351 .951-1.374V-.775C1.396-.799 1.831-.81 2.254-.81ZM5.423 1.057C5.423 .61 5.434 .258 5.458 0H1.268C1.291 .235 1.303 .575 1.303 1.022 1.303 1.468 1.291 1.855 1.268 2.184H5.458C5.434 1.879 5.423 1.503 5.423 1.057M4.824 1.621H1.9009998V.52900007H4.824ZM4.824 .528" fill="#2c292a"/>
<path transform="matrix(1,0,0,-1,206.1664,320.5977)" d="M0 0H.775C.751-.493 .739-1.151 .739-1.973 .997-1.973 1.326-1.961 1.725-1.938V-2.607C1.326-2.584 .997-2.572 .739-2.572V-3.911C1.021-3.793 1.291-3.676 1.549-3.558 1.549-3.723 1.561-3.934 1.585-4.192 1.232-4.333 .951-4.463 .739-4.58V-7.081C.739-7.434 .639-7.663 .44-7.768 .24-7.874-.118-7.985-.634-8.103-.634-7.868-.728-7.574-.916-7.222-.493-7.222-.229-7.205-.123-7.169-.018-7.134 .035-6.988 .035-6.729V-4.862C-.411-5.05-.728-5.203-.916-5.32-1.033-5.062-1.151-4.827-1.268-4.615-1.01-4.568-.576-4.416 .035-4.157V-2.572C-.435-2.572-.857-2.584-1.232-2.607V-1.938C-.88-1.961-.458-1.973 .035-1.973 .035-1.198 .023-.541 0 0M2.782-1.092C2.782-2.924 2.741-4.175 2.659-4.844 2.576-5.513 2.441-6.142 2.254-6.729 2.065-7.316 1.843-7.797 1.585-8.173 1.42-7.962 1.209-7.797 .951-7.68 1.209-7.351 1.42-6.976 1.585-6.553 1.748-6.13 1.878-5.608 1.972-4.985 2.065-4.363 2.118-3.67 2.13-2.906 2.142-2.143 2.136-1.339 2.113-.493H5.388C5.88-.493 6.338-.47 6.761-.423V-1.127C6.315-1.104 5.857-1.092 5.388-1.092ZM6.708-7.574C6.579-7.738 6.373-7.821 6.092-7.821H4.402C3.861-7.821 3.58-7.504 3.556-6.87V-3.558C3.556-3.135 3.544-2.713 3.521-2.29H6.373L6.268-4.65C6.244-5.026 6.086-5.255 5.792-5.337 5.499-5.42 5.188-5.484 4.859-5.531 4.789-5.249 4.706-5.003 4.613-4.791 5.035-4.791 5.305-4.768 5.423-4.721 5.54-4.674 5.61-4.545 5.634-4.333L5.669-2.854H4.261V-6.764C4.261-7.07 4.413-7.222 4.718-7.222H5.845C6.033-7.222 6.15-7.169 6.197-7.064 6.244-6.958 6.291-6.741 6.338-6.412 6.596-6.577 6.843-6.706 7.078-6.799 6.96-7.152 6.837-7.41 6.708-7.574" fill="#2c292a"/>
<path transform="matrix(1,0,0,-1,217.7586,324.6492)" d="M0 0C0 .329-.024 .681-.07 1.057H.74C.716 .681 .704 .329 .704 0H2.958C3.403 0 3.838 .011 4.261 .035V-.634C3.768-.611 3.345-.599 2.993-.599H.704V-3.241C.704-3.734 .223-4.004-.739-4.051-.739-3.793-.822-3.511-.986-3.206-.305-3.3 .023-3.206 0-2.924V-.599H-2.535C-2.911-.599-3.334-.611-3.803-.634V.035C-3.334 .011-2.911 0-2.535 0ZM-1.62-2.431C-1.949-2.807-2.313-3.171-2.711-3.523-2.852-3.358-3.063-3.206-3.345-3.065-2.9-2.76-2.53-2.443-2.236-2.114-1.943-1.785-1.738-1.492-1.62-1.233L-.775-1.691C-1.01-1.809-1.291-2.055-1.62-2.431M2.095 3.188C1.801 2.988 1.467 2.748 1.092 2.466 2.148 1.879 2.934 1.444 3.451 1.163 3.24 .998 3.051 .787 2.888 .528 2.418 .904 1.631 1.409 .528 2.043-.763 1.268-1.761 .751-2.465 .493-2.489 .705-2.618 .892-2.852 1.057-2.195 1.221-1.268 1.667-.07 2.396-.939 2.865-1.69 3.206-2.324 3.417L-1.937 3.981C-.834 3.488-.024 3.088 .493 2.783 1.314 3.37 1.831 3.816 2.042 4.122L2.852 3.558C2.641 3.511 2.388 3.388 2.095 3.188M4.085-2.713C3.779-2.877 3.556-3.077 3.416-3.312 2.993-2.795 2.347-2.255 1.479-1.691 1.713-1.503 1.925-1.303 2.113-1.092 2.84-1.609 3.498-2.149 4.085-2.713" fill="#2c292a"/>
<path transform="matrix(1,0,0,-1,225.8296,321.9717)" d="M0 0C.093 .305 .176 .569 .246 .793 .317 1.016 .364 1.245 .387 1.48 .716 1.409 1.009 1.339 1.268 1.268 1.15 1.033 1.068 .851 1.021 .722 .974 .593 .892 .352 .775 0H3.627C4.12 0 4.566 .011 4.965 .035V-.634C4.566-.611 4.12-.599 3.627-.599H.563C.423-.928 .24-1.292 .018-1.691-.206-2.091-.493-2.525-.845-2.995V-5.461C-.845-5.93-.834-6.388-.81-6.835H-1.549C-1.526-6.388-1.514-5.93-1.514-5.461V-3.629C-1.89-3.981-2.231-4.275-2.535-4.509-2.7-4.298-2.899-4.122-3.134-3.981-2.852-3.817-2.57-3.617-2.289-3.382-2.007-3.148-1.749-2.877-1.514-2.572-1.514-2.36-1.526-2.149-1.549-1.938H-.986C-.822-1.75-.675-1.539-.546-1.303-.417-1.069-.305-.834-.211-.599H-1.056C-1.62-.599-2.113-.611-2.535-.634V.035C-2.09 .011-1.597 0-1.056 0ZM1.796-2.748V-2.255C1.796-1.785 1.784-1.409 1.761-1.127H2.535C2.512-1.409 2.5-1.785 2.5-2.255V-2.748H3.31C3.733-2.748 4.12-2.736 4.472-2.713V-3.382C4.12-3.359 3.733-3.347 3.31-3.347H2.5V-5.707H3.838C4.284-5.707 4.683-5.696 5.035-5.672V-6.306C4.683-6.282 4.284-6.271 3.838-6.271H.986C.375-6.271-.106-6.282-.458-6.306V-5.672C-.106-5.696 .375-5.707 .986-5.707H1.796V-3.347H1.127C.704-3.347 .293-3.359-.106-3.382V-2.713C.293-2.736 .704-2.748 1.127-2.748Z" fill="#2c292a"/>
<path transform="matrix(1,0,0,-1,233.0557,322.5354)" d="M0 0V.81C0 1.186-.012 1.515-.035 1.797H.704C.657 1.608 .634 1.327 .634 .951V0C.939 0 1.244 .011 1.549 .035V-.564C1.244-.541 .939-.528 .634-.528V-1.902L1.479-1.48C1.479-1.574 1.49-1.797 1.514-2.149 1.068-2.337 .775-2.478 .634-2.572V-5.39C.61-5.695 .499-5.895 .299-5.989 .1-6.083-.246-6.153-.739-6.2-.763-5.919-.845-5.672-.986-5.461-.517-5.484-.235-5.466-.141-5.408-.047-5.349 0-5.214 0-5.003V-2.889C-.164-2.959-.481-3.124-.951-3.382-1.021-3.171-1.139-2.936-1.303-2.677-1.021-2.607-.587-2.443 0-2.184V-.528H-.246C-.622-.528-.916-.541-1.127-.564V.035C-.916 .011-.622 0-.246 0ZM3.134-1.656H5.176C5.646-1.656 6.068-1.644 6.444-1.621V-2.219C6.092-2.196 5.669-2.184 5.176-2.184H4.507V-3.206H5.423C6.033-3.206 6.549-3.194 6.972-3.171V-3.77C6.549-3.746 6.044-3.734 5.458-3.734H4.507V-5.39L5.775-5.355V-4.932C5.775-4.627 5.763-4.345 5.74-4.087H6.444C6.42-4.416 6.409-4.745 6.409-5.073 6.409-5.402 6.42-5.766 6.444-6.165H5.775V-5.883L2.007-5.989C2.03-5.589 2.042-5.249 2.042-4.967 2.042-4.662 2.03-4.381 2.007-4.122H2.676C2.652-4.381 2.641-4.686 2.641-5.038V-5.425L3.838-5.39V-3.734H2.746C2.23-3.734 1.772-3.746 1.373-3.77V-3.171C1.796-3.194 2.265-3.206 2.782-3.206H3.838V-2.184H2.887C2.817-2.325 2.641-2.596 2.359-2.995 2.195-2.877 1.995-2.772 1.761-2.677 2.065-2.325 2.306-1.997 2.482-1.691 2.659-1.386 2.77-1.127 2.817-.916 2.934-1.034 3.157-1.139 3.486-1.233 3.368-1.303 3.251-1.444 3.134-1.656M5.053 1.075C4.266 .945 3.192 .798 1.831 .634 1.807 .775 1.69 .974 1.479 1.233 1.924 1.233 2.523 1.28 3.275 1.374 4.026 1.468 4.624 1.568 5.071 1.673 5.516 1.779 5.868 1.89 6.127 2.008 6.315 1.608 6.491 1.362 6.655 1.268 6.374 1.268 5.839 1.203 5.053 1.075M3.064-.669C2.805-.81 2.629-.905 2.535-.951 2.206-.458 1.984-.141 1.866 0 2.078 .117 2.23 .223 2.324 .317 2.699-.153 2.946-.482 3.064-.669M4.648-.599C4.601-.646 4.425-.752 4.12-.916 3.791-.329 3.533 .047 3.345 .211 3.603 .352 3.779 .458 3.873 .528 4.037 .364 4.296-.012 4.648-.599M6.585 .423C6.467 .305 6.162-.259 5.669-1.268 5.505-1.175 5.293-1.092 5.035-1.022 5.434-.435 5.727 .152 5.916 .74 6.197 .599 6.42 .493 6.585 .423" fill="#2c292a"/>
<path transform="matrix(1,0,0,-1,245.0352,321.9013)" d="M0 0C-.493 .023-.986 .035-1.479 .035-1.362-.223-1.245-.493-1.127-.775-1.409-.846-1.643-.928-1.831-1.022-1.902-.693-1.996-.341-2.113 .035H-2.571C-2.735-.2-2.923-.405-3.134-.581-3.345-.757-3.569-.916-3.803-1.057-3.944-.893-4.144-.752-4.402-.634-3.885-.376-3.481-.053-3.187 .335-2.894 .722-2.688 1.092-2.571 1.444-2.289 1.304-2.019 1.198-1.761 1.127L-2.183 .564H-1.056C-.775 .564-.423 .575 0 .599ZM2.852-5.284V-6.165C3.181-6.165 3.521-6.153 3.873-6.13V-6.729C3.427-6.705 2.934-6.694 2.394-6.694H-2.852C-3.275-6.694-3.756-6.705-4.296-6.729V-6.13C-3.78-6.153-3.428-6.165-3.24-6.165V-5.249C-3.24-4.921-3.252-4.568-3.275-4.192H2.887C2.864-4.568 2.852-4.932 2.852-5.284M-3.31-3.734C-3.287-3.453-3.275-3.23-3.275-3.065V-1.973C-3.275-1.832-3.287-1.633-3.31-1.374H-2.606C-2.63-1.609-2.641-1.82-2.641-2.008V-3.1C-2.641-3.288-2.63-3.5-2.606-3.734ZM-1.409-4.721H-2.571V-6.165H-1.409ZM-.916-1.127C-.939-1.433-.951-1.703-.951-1.938V-3.241C-.951-3.429-.939-3.664-.916-3.946H-1.62C-1.597-3.688-1.585-3.465-1.585-3.276V-1.973C-1.585-1.738-1.597-1.457-1.62-1.127ZM.352-4.721H-.775V-6.165H.352ZM1.092-1.691H2.218C2.688-1.691 3.146-1.68 3.592-1.656V-2.255C3.146-2.232 2.688-2.219 2.218-2.219H.845C.61-2.619 .328-3.007 0-3.382-.165-3.241-.376-3.124-.634-3.03-.305-2.701-.035-2.343 .176-1.955 .387-1.568 .54-1.186 .634-.81 .892-.905 1.173-.999 1.479-1.092 1.314-1.257 1.185-1.457 1.092-1.691M2.113-.986C2.042-.705 1.948-.364 1.831 .035H1.092C.857-.247 .622-.517 .387-.775 .129-.634-.094-.517-.282-.423 .047-.165 .305 .1 .493 .37 .68 .64 .868 .974 1.056 1.374 1.291 1.304 1.561 1.221 1.866 1.127 1.678 .963 1.537 .775 1.444 .564H2.817C3.005 .564 3.333 .575 3.803 .599V0C3.146 .023 2.688 .035 2.43 .035 2.547-.176 2.676-.435 2.817-.74 2.558-.81 2.324-.893 2.113-.986M2.183-4.721H.98600009V-6.165H2.183ZM2.641-3.664C2.382-3.805 2.183-3.934 2.042-4.051 1.831-3.723 1.561-3.347 1.232-2.924 1.444-2.807 1.62-2.677 1.76-2.537 2.113-2.959 2.406-3.335 2.641-3.664" fill="#2c292a"/>
<path transform="matrix(1,0,0,-1,256.733,322.9582)" d="M0 0C0-.846 .011-1.515 .035-2.008H-2.676V-2.959H-1.021C-.716-2.959-.317-2.936 .176-2.889V-3.593C-.317-3.57-.716-3.558-1.021-3.558H-2.676V-4.756H-.246C.106-4.756 .516-4.745 .986-4.721V-5.425C.516-5.402 .106-5.39-.246-5.39H-5.423C-5.845-5.39-6.327-5.413-6.866-5.461V-4.721C-6.468-4.745-5.986-4.756-5.423-4.756H-3.345V-3.558H-4.894C-5.2-3.558-5.599-3.57-6.092-3.593V-2.889C-5.74-2.936-5.341-2.959-4.894-2.959H-3.345V-2.008H-5.951C-5.928-1.515-5.91-.922-5.898-.229-5.886 .464-5.904 1.209-5.951 2.008H.035C.011 1.515 0 .846 0 0M-3.345 1.409H-5.211V.24600005H-3.345ZM-3.345-.317H-5.211V-1.409H-3.345ZM-.669 1.409H-2.676V.24600005H-.669ZM-.669-.317H-2.676V-1.409H-.669ZM-.669-1.409" fill="#2c292a"/>
<path transform="matrix(1,0,0,-1,145.155,198.341)" d="M0 0C-.092-.289-.197-.623-.314-1.003-.432-1.383-.531-1.783-.609-2.202-.95-1.992-1.252-1.848-1.513-1.77-1.199-1.219-.977-.734-.845-.315-.714 .104-.609 .458-.531 .747-.452 1.035-.373 1.35-.295 1.691-.033 1.534 .216 1.402 .452 1.298 .242 .721 .092 .288 0 0M-.57 3.126C-.806 3.27-1.094 3.421-1.435 3.579-1.278 3.788-1.134 3.998-1.002 4.208-.793 4.076-.537 3.926-.236 3.756 .065 3.585 .347 3.408 .609 3.225 .452 2.989 .308 2.779 .177 2.596-.085 2.805-.334 2.982-.57 3.126M-.079 6.273C.197 6.076 .439 5.885 .649 5.702 .439 5.466 .268 5.256 .138 5.073-.125 5.361-.57 5.728-1.199 6.174-1.042 6.384-.884 6.58-.727 6.764-.57 6.633-.354 6.469-.079 6.273M2.81-1.18C2.889-1.128 2.928-1.022 2.928-.865V2.635H2.064C2.064 2.163 2.037 1.697 1.985 1.239 1.932 .78 1.86 .354 1.769-.039 1.677-.433 1.546-.8 1.376-1.14 1.205-1.481 .976-1.835 .688-2.202 .531-1.966 .308-1.783 .02-1.652 .413-1.311 .708-.885 .904-.374 1.101 .138 1.225 .655 1.277 1.18 1.33 1.704 1.362 2.255 1.376 2.832 1.389 3.408 1.395 3.998 1.395 4.601 1.212 4.601 .949 4.588 .609 4.562V5.191C1.159 5.165 1.513 5.152 1.671 5.152H3.046C3.282 5.152 3.57 5.165 3.911 5.191V4.562C3.597 4.588 3.295 4.601 3.007 4.601H2.103V3.264H3.675C3.649 2.844 3.636 2.451 3.636 2.084V-1.022C3.636-1.284 3.551-1.488 3.38-1.632 3.21-1.776 2.836-1.901 2.26-2.006 2.234-1.77 2.129-1.507 1.946-1.219 2.443-1.245 2.732-1.232 2.81-1.18M2.85 5.781C2.64 5.702 2.417 5.584 2.182 5.427 2.103 5.637 2.011 5.84 1.906 6.037 1.801 6.233 1.671 6.436 1.513 6.646 1.723 6.751 1.919 6.869 2.103 7 2.522 6.371 2.771 5.964 2.85 5.781M4.088 4.365C4.232 4.627 4.356 4.896 4.461 5.171 4.566 5.447 4.664 5.742 4.756 6.056 4.848 6.371 4.919 6.685 4.972 7 5.26 6.869 5.575 6.777 5.916 6.725 5.784 6.541 5.68 6.357 5.601 6.174 5.523 5.991 5.457 5.794 5.405 5.584H6.112C6.636 5.584 7.199 5.597 7.802 5.624V4.955C7.199 4.981 6.623 4.994 6.073 4.994H5.208C5.103 4.784 5.012 4.594 4.933 4.424 4.854 4.253 4.762 4.064 4.658 3.854H7.449V3.107C7.317 2.975 7.167 2.832 6.997 2.674 6.826 2.517 6.636 2.307 6.427 2.045V1.573H6.859C7.042 1.573 7.37 1.586 7.842 1.612V.944C7.422 .97 7.095 .983 6.859 .983H6.427V-1.219C6.427-1.612 6.309-1.868 6.073-1.986 5.837-2.104 5.444-2.202 4.894-2.281 4.867-2.045 4.762-1.756 4.579-1.416 4.998-1.442 5.287-1.442 5.444-1.416 5.601-1.389 5.68-1.219 5.68-.905V.983H5.326C5.012 .983 4.631 .97 4.186 .944V1.612C4.605 1.586 4.972 1.573 5.287 1.573H5.68C5.68 1.809 5.666 2.031 5.641 2.242 5.955 2.503 6.269 2.844 6.584 3.264H5.444L4.658 3.225V3.815C4.501 3.604 4.369 3.395 4.265 3.185 4.081 3.369 3.858 3.539 3.597 3.697 3.78 3.88 3.944 4.103 4.088 4.365" fill="#2c292a"/>
<path transform="matrix(1,0,0,-1,157.2026,192.6387)" d="M0 0C-.026-.393-.079-.964-.157-1.711-.236-2.458-.407-3.291-.668-4.208-.118-5.047 .301-5.702 .59-6.174 .327-6.306 .092-6.463-.118-6.646-.328-6.096-.629-5.559-1.022-5.034-1.677-6.109-2.293-6.961-2.869-7.59-3.053-7.301-3.276-7.065-3.538-6.882-2.987-6.437-2.575-6.024-2.299-5.643-2.024-5.264-1.782-4.837-1.572-4.365-1.782-3.946-2.28-3.251-3.066-2.281-2.883-2.176-2.699-2.019-2.516-1.809-1.887-2.622-1.454-3.185-1.219-3.5-1.061-3.028-.918-2.071-.786-.629H-1.887C-2.385-.629-2.869-.643-3.341-.669V.039C-2.896 .013-2.424 0-1.926 0ZM1.376 1.258C1.742 1.206 2.031 1.18 2.241 1.18 2.162 .026 2.175-.957 2.28-1.77 3.931-1.376 4.939-1.128 5.307-1.022L5.424-1.809C5.11-1.835 4.088-2.045 2.358-2.438 2.463-3.435 2.647-4.221 2.909-4.798 3.38-3.986 3.695-3.264 3.852-2.635 4.062-2.792 4.376-2.924 4.795-3.028 4.56-3.291 4.356-3.625 4.186-4.031 4.016-4.438 3.708-4.969 3.263-5.624 3.734-6.253 4.101-6.653 4.363-6.823 4.625-6.993 4.795-7 4.874-6.843 4.953-6.685 5.018-6.424 5.071-6.056 5.307-6.24 5.568-6.384 5.857-6.489 5.673-6.987 5.516-7.347 5.385-7.57 5.254-7.793 5.084-7.924 4.874-7.964 4.664-8.003 4.33-7.826 3.872-7.433 3.413-7.039 3.027-6.594 2.712-6.096 1.9-6.909 1.271-7.498 .826-7.865 .642-7.629 .393-7.433 .079-7.275 .655-6.934 1.133-6.594 1.513-6.253 1.893-5.912 2.175-5.637 2.358-5.427 2.044-4.693 1.808-3.762 1.651-2.635 1.258-2.714 .773-2.831 .197-2.989L.079-2.202C.497-2.15 .996-2.045 1.572-1.888 1.494-1.285 1.428-.236 1.376 1.258M4.678-.315C4.468-.42 4.232-.551 3.97-.708 3.839-.525 3.551-.171 3.105 .354 3.341 .511 3.551 .669 3.734 .826 4.179 .275 4.494-.105 4.678-.315" fill="#2c292a"/>
<path transform="matrix(1,0,0,-1,133.0375,224.39511)" d="M0 0C-1.158 0-2.096-.939-2.096-2.097-2.096-3.256-1.158-4.195 0-4.195 1.158-4.195 2.096-3.256 2.096-2.097 2.096-.939 1.158 0 0 0M22.013-1.398H0V-2.797H22.013Z" fill="#2c292a"/>
</g>
<path transform="matrix(1,0,0,-1,0,595.276)" d="M218.319 344.668H219.17V345.51499H218.319ZM215.503 344.668H216.349V345.51499H215.503ZM212.683 344.668H213.52899V345.51499H212.683Z" fill="#2c292a"/>
<path transform="matrix(1,0,0,-1,0,595.276)" d="M226.716 344.668H227.567V345.51499H226.716ZM223.9 344.668H224.747V345.51499H223.9ZM221.081 344.668H221.92699V345.51499H221.081Z" fill="#2c292a"/>
<g clip-path="url(#clip_8)">
<path transform="matrix(1,0,0,-1,265.6451,232.96121)" d="M0 0C-.3 .117-.586 .123-.859 .02-1.133-.085-1.335-.241-1.465-.449-1.595-.658-1.66-.898-1.66-1.172-1.66-1.445-1.543-1.699-1.309-1.934-1.074-2.168-.814-2.285-.527-2.285-.241-2.285 .006-2.213 .215-2.07 .423-1.927 .566-1.719 .645-1.445 .723-1.172 .709-.892 .605-.605 .501-.319 .299-.117 0 0M-.82-1.719C-1.068-1.576-1.191-1.374-1.191-1.113-1.191-.853-1.081-.645-.859-.488-.638-.332-.404-.319-.156-.449 .091-.58 .221-.781 .234-1.055 .247-1.328 .137-1.543-.098-1.699-.332-1.855-.573-1.862-.82-1.719" fill="#2c292a"/>
</g>
</g>
</g>
</svg>
