<svg xmlns="http://www.w3.org/2000/svg" xmlns:xlink="http://www.w3.org/1999/xlink" xmlns:inkscape="http://www.inkscape.org/namespaces/inkscape" version="1.1" width="411.024" height="595.276" viewBox="0 0 411.024 595.276">
<defs>
<clipPath id="clip_1">
<path transform="matrix(1,0,0,-1,0,595.276)" d="M0 0H411.024V595.276H0Z"/>
</clipPath>
<clipPath id="clip_2">
<path transform="matrix(1,0,0,-1,0,595.276)" d="M0 0H411.024V595.276H0Z"/>
</clipPath>
<path id="font_3_5" d="M.45999146 .19407654C.45999146 .28303529 .4229889 .34100343 .35099793 .36799623 .4149933 .39700318 .44699098 .450943 .44699098 .52586367 .44699098 .64175418 .36698915 .71875 .25099183 .71875 .14299011 .71875 .05899048 .6507416 .050994874 .53585818H.12298584C.12998963 .60879519 .17599488 .6547394 .25099183 .6547394 .31999208 .6547394 .375 .609787 .375 .5248718 .375 .4449463 .33499146 .3959961 .24798584 .3959961H.23298645V.3330078H.24798584C.34498597 .3330078 .3880005 .28103639 .3880005 .19508362 .3880005 .10812378 .32798768 .057159425 .25099183 .057159425 .18299866 .057159425 .11999512 .09213257 .11399841 .18109131H.041992189C.04798889 .05215454 .13899231-.0068359377 .25099183-.0068359377 .36698915-.0068359377 .45999146 .06315613 .45999146 .19407654Z"/>
<path id="font_3_8" d="M.45999146 .20516968C.45999146 .32221986 .38598634 .40722657 .2749939 .40722657 .24699402 .40722657 .22200012 .40222169 .19999695 .3922119L.35899354 .71191409H.2849884L.10998535 .3592224C.07998657 .2992096 .06498718 .25019837 .06498718 .19917298 .06498718 .07614136 .14199829-.005859375 .2630005-.005859375 .38398744-.005859375 .45999146 .08413696 .45999146 .20516968M.3880005 .20217896C.3880005 .11514282 .33799745 .058135988 .2619934 .058135988 .18598938 .058135988 .13699341 .11514282 .13699341 .20217896 .13699341 .2902069 .18598938 .34622193 .2619934 .34622193 .34399415 .34622193 .3880005 .28120423 .3880005 .20217896Z"/>
<path id="font_3_2" d="M.45599366 .19004822V.5218506C.45599366 .6397705 .37199403 .71777346 .26098634 .71777346 .1499939 .71777346 .06599426 .6397705 .06599426 .5218506V.19004822C.06599426 .072128299 .1499939-.005859375 .26098634-.005859375 .37199403-.005859375 .45599366 .072128299 .45599366 .19004822M.38398744 .19404602C.38398744 .116104129 .33999635 .058135988 .26098634 .058135988 .18199158 .058135988 .13798523 .116104129 .13798523 .19404602V.5178528C.13798523 .5957947 .18199158 .6537628 .26098634 .6537628 .33999635 .6537628 .38398744 .5957947 .38398744 .5178528V.19404602Z"/>
<clipPath id="clip_4">
<path transform="matrix(1,0,0,-1,0,595.276)" d="M0 0H411.024V595.276H0Z"/>
</clipPath>
<clipPath id="clip_5">
<path transform="matrix(1,0,0,-1,0,595.276)" d="M0 0H411.024V595.276H0Z"/>
</clipPath>
</defs>
<g clip-path="url(#clip_1)">
<g clip-path="url(#clip_2)">
<use data-text="3" xlink:href="#font_3_5" transform="matrix(9,0,0,-9,35.4331,567.547)" fill="#f43040"/>
<use data-text="6" xlink:href="#font_3_8" transform="matrix(9,0,0,-9,39.0331,567.547)" fill="#f43040"/>
<use data-text="0" xlink:href="#font_3_2" transform="matrix(9,0,0,-9,42.6331,567.547)" fill="#f43040"/>
<g clip-path="url(#clip_4)">
<path transform="matrix(1,0,0,-1,311.4535,248.63269)" d="M0 0H-54.239C-56.59 0-58.503 1.914-58.503 4.266V18.67C-58.503 21.022-56.59 22.935-54.239 22.935H0C2.351 22.935 4.264 21.022 4.264 18.67V4.266C4.264 1.914 2.351 0 0 0M-54.239 21.606C-55.857 21.606-57.174 20.289-57.174 18.67V4.266C-57.174 2.646-55.857 1.329-54.239 1.329H0C1.618 1.329 2.935 2.646 2.935 4.266V18.67C2.935 20.289 1.618 21.606 0 21.606Z" fill="#f43040"/>
<path transform="matrix(1,0,0,-1,214.534,325.7052)" d="M0 0H-54.239C-56.59 0-58.503 1.914-58.503 4.266V18.67C-58.503 21.022-56.59 22.935-54.239 22.935H0C2.351 22.935 4.264 21.022 4.264 18.67V4.266C4.264 1.914 2.351 0 0 0M-54.239 21.606C-55.857 21.606-57.174 20.289-57.174 18.67V4.266C-57.174 2.646-55.857 1.329-54.239 1.329H0C1.618 1.329 2.935 2.646 2.935 4.266V18.67C2.935 20.289 1.618 21.606 0 21.606Z" fill="#f43040"/>
<path transform="matrix(1,0,0,-1,218.2914,248.63269)" d="M0 0H-54.239C-56.59 0-58.503 1.914-58.503 4.266V18.67C-58.503 21.022-56.59 22.935-54.239 22.935H0C2.351 22.935 4.264 21.022 4.264 18.67V4.266C4.264 1.914 2.351 0 0 0M-54.239 21.606C-55.857 21.606-57.174 20.289-57.174 18.67V4.266C-57.174 2.646-55.857 1.329-54.239 1.329H0C1.618 1.329 2.935 2.646 2.935 4.266V18.67C2.935 20.289 1.618 21.606 0 21.606Z" fill="#f43040"/>
<path transform="matrix(1,0,0,-1,129.986,248.6326)" d="M0 0H-54.239C-56.59 0-58.503 1.914-58.503 4.266V18.67C-58.503 21.022-56.59 22.935-54.239 22.935H0C2.351 22.935 4.264 21.022 4.264 18.67V4.266C4.264 1.914 2.351 0 0 0M-54.239 21.606C-55.857 21.606-57.174 20.289-57.174 18.67V4.266C-57.174 2.646-55.857 1.329-54.239 1.329H0C1.618 1.329 2.935 2.646 2.935 4.266V18.67C2.935 20.289 1.618 21.606 0 21.606Z" fill="#f43040"/>
<path transform="matrix(1,0,0,-1,96.1714,232.70801)" d="M0 0C-.429 .03-.919 .046-1.47 .046H-3.123C-3.123-2.098-3.139-3.531-3.169-4.25-3.2-4.97-3.268-5.674-3.375-6.364-3.483-7.053-3.705-7.75-4.041-8.454-4.256-8.178-4.5-7.964-4.776-7.811-4.531-7.382-4.348-6.915-4.225-6.409-4.103-5.904-4.018-5.3-3.972-4.595-3.926-3.89-3.904-3.109-3.904-2.251-3.904-1.394-3.919-.398-3.949 .735H-1.47C-.919 .735-.429 .75 0 .781ZM-.896-7.65C-1.309-7.972-1.715-8.346-2.113-8.776-2.296-8.469-2.48-8.209-2.664-7.995-2.48-7.781-2.388-7.474-2.388-7.076V-2.803C-2.388-2.405-2.404-1.884-2.434-1.241H.23C.199-1.731 .184-2.205 .184-2.665V-4.273C.184-4.671 .076-4.924-.138-5.031-.352-5.139-.659-5.238-1.056-5.33-1.118-4.993-1.225-4.686-1.378-4.411-1.133-4.411-.941-4.396-.804-4.365-.666-4.335-.597-4.166-.597-3.859V-1.93H-1.607V-7.168C-1.393-7.015-1.179-6.846-.964-6.662-.751-6.478-.521-6.295-.276-6.111-.215-6.417-.123-6.708 0-6.984-.184-7.107-.482-7.328-.896-7.65M1.469-7.742C1.837-7.39 2.112-6.992 2.296-6.547 2.48-6.104 2.587-5.575 2.618-4.962 2.648-4.35 2.648-3.661 2.618-2.895 2.923-2.925 3.245-2.971 3.582-3.032 3.52-3.584 3.482-4.074 3.467-4.503 3.451-4.932 3.39-5.452 3.283-6.065 3.176-6.678 2.923-7.259 2.526-7.811 2.128-8.362 1.515-8.898 .689-9.419 .474-9.143 .23-8.898-.046-8.684 .597-8.408 1.102-8.094 1.469-7.742M4.409-6.846V-2.159H1.607V-6.708H.781C.811-6.218 .827-5.361 .827-4.135 .827-2.91 .811-2.037 .781-1.516H2.066C2.219-.904 2.311-.383 2.342 .046H1.745C1.316 .046 .857 .03 .367 0V.781C.857 .75 1.332 .735 1.791 .735H4.363C4.914 .735 5.403 .75 5.832 .781V0C5.403 .03 4.914 .046 4.363 .046H3.215C3.123-.475 3.015-.996 2.893-1.516H5.281C5.25-1.945 5.235-2.803 5.235-4.089 5.235-5.345 5.25-6.264 5.281-6.846ZM4.317-8.316C4.01-8.01 3.689-7.735 3.352-7.489 3.536-7.275 3.72-7.076 3.903-6.892 4.179-7.076 4.477-7.313 4.799-7.604 5.12-7.895 5.495-8.239 5.924-8.638 5.679-8.852 5.465-9.082 5.281-9.327 4.944-8.959 4.622-8.622 4.317-8.316" fill="#2c292a"/>
<path transform="matrix(1,0,0,-1,112.0939,240.7945)" d="M0 0C0-.459 .03-1.011 .092-1.654H-.872V-.965H-5.603V-1.7H-6.567C-6.537-1.057-6.521-.52-6.521-.092V.965C-6.521 1.149-6.537 1.424-6.567 1.792-6.781 1.7-7.44 1.485-8.542 1.149-8.634 1.516-8.787 1.868-9.001 2.205-7.899 2.358-6.98 2.527-6.245 2.711-5.511 2.895-4.822 3.154-4.179 3.492-4.546 3.676-5.097 4.073-5.832 4.686-6.2 4.319-6.613 3.951-7.072 3.584-7.287 3.89-7.547 4.119-7.853 4.273-7.21 4.671-6.652 5.123-6.177 5.628-5.702 6.134-5.358 6.646-5.143 7.168-4.746 6.984-4.348 6.83-3.949 6.708-4.133 6.585-4.348 6.386-4.592 6.111H-.184C-.521 5.59-.842 5.153-1.148 4.801-1.454 4.449-1.929 4.012-2.572 3.492-2.143 3.308-1.569 3.124-.849 2.941-.131 2.757 .796 2.634 1.929 2.573 1.714 2.205 1.576 1.822 1.516 1.424 .934 1.577 .459 1.7 .092 1.792 .03 1.485 0 1.164 0 .827ZM1.516 8.132C1.485 7.611 1.47 7.229 1.47 6.984 1.47 6.769 1.485 6.432 1.516 5.973H.551V7.305H-7.485V5.927H-8.496C-8.466 6.233-8.45 6.524-8.45 6.8-8.45 7.076-8.466 7.519-8.496 8.132H-3.857C-3.949 8.438-4.072 8.73-4.225 9.005-3.766 9.097-3.398 9.173-3.123 9.235-2.909 8.622-2.786 8.254-2.755 8.132ZM-6.475 1.792H0C-.949 2.006-1.661 2.205-2.135 2.389-2.61 2.573-3.047 2.741-3.444 2.895-3.965 2.649-4.47 2.435-4.96 2.251-5.45 2.068-5.955 1.914-6.475 1.792M-.872 1.057H-5.602V-.27499999H-.872ZM-5.281 5.238C-4.516 4.595-3.857 4.165-3.306 3.951-2.725 4.38-2.22 4.854-1.791 5.376H-5.189C-5.22 5.345-5.251 5.299-5.281 5.238" fill="#2c292a"/>
<path transform="matrix(1,0,0,-1,86.0368,259.1704)" d="M0 0C0-.413 .027-.908 .083-1.486H-.784V-.867H-5.033V-1.527H-5.899C-5.872-.949-5.858-.468-5.858-.083V.867C-5.858 1.032-5.872 1.279-5.899 1.61-6.092 1.527-6.683 1.334-7.673 1.032-7.756 1.362-7.894 1.678-8.086 1.981-7.096 2.118-6.27 2.27-5.61 2.435-4.95 2.6-4.332 2.834-3.754 3.137-4.084 3.302-4.579 3.659-5.239 4.21-5.569 3.88-5.94 3.549-6.353 3.219-6.546 3.494-6.78 3.7-7.054 3.838-6.477 4.196-5.975 4.602-5.549 5.056-5.122 5.51-4.813 5.97-4.62 6.439-4.263 6.274-3.906 6.135-3.548 6.026-3.713 5.916-3.906 5.737-4.125 5.489H-.165C-.468 5.021-.757 4.629-1.031 4.313-1.307 3.996-1.733 3.604-2.31 3.137-1.925 2.972-1.41 2.807-.763 2.641-.117 2.476 .715 2.366 1.733 2.311 1.54 1.981 1.416 1.637 1.361 1.279 .839 1.417 .413 1.527 .083 1.61 .027 1.334 0 1.045 0 .743ZM1.361 7.305C1.334 6.837 1.32 6.493 1.32 6.274 1.32 6.081 1.334 5.778 1.361 5.366H.495V6.562H-6.724V5.324H-7.632C-7.605 5.599-7.591 5.861-7.591 6.108-7.591 6.356-7.605 6.755-7.632 7.305H-3.465C-3.548 7.58-3.658 7.842-3.795 8.09-3.383 8.172-3.053 8.24-2.805 8.296-2.613 7.745-2.503 7.415-2.475 7.305ZM-5.817 1.61H0C-.853 1.802-1.492 1.981-1.918 2.146-2.345 2.311-2.737 2.462-3.094 2.6-3.562 2.38-4.016 2.188-4.455 2.022-4.896 1.857-5.349 1.719-5.817 1.61M-.784 .949H-5.033V-.24800003H-.784ZM-4.744 4.705C-4.057 4.127-3.465 3.742-2.97 3.549-2.448 3.935-1.994 4.361-1.609 4.829H-4.662C-4.689 4.801-4.717 4.76-4.744 4.705" fill="#2c292a"/>
<path transform="matrix(1,0,0,-1,97.6923,255.20819)" d="M0 0C0-.825 .014-1.472 .041-1.94H-.866V-1.321H-6.601C-6.711-2.202-6.848-2.862-7.013-3.302-7.178-3.742-7.357-4.134-7.549-4.478-7.742-4.822-7.948-5.145-8.168-5.448-8.443-5.227-8.746-5.062-9.076-4.953-8.526-4.375-8.148-3.832-7.941-3.322-7.735-2.814-7.598-2.332-7.529-1.878-7.46-1.424-7.425-.936-7.425-.413-7.425 .11-7.44 1.004-7.467 2.27H.041C.014 1.61 0 .853 0 0M-.908 1.527H-6.642V-.57800009H-.908ZM-3.177 2.724C-3.534 2.642-3.809 2.545-4.002 2.435-4.194 3.013-4.414 3.522-4.662 3.962-4.387 4.045-4.125 4.154-3.878 4.292-3.548 3.632-3.314 3.109-3.177 2.724" fill="#2c292a"/>
<path transform="matrix(1,0,0,-1,107.2026,255.8685)" d="M0 0C.467 0 .99 .014 1.568 .041V-.702C.99-.675 .467-.66 0-.66H-2.64V-1.692C-1.018-1.692 .041-1.679 .536-1.651V-2.394C.041-2.367-1.018-2.353-2.64-2.353V-3.591C-2.118-3.673-1.472-3.715-.701-3.715 .068-3.715 .921-3.66 1.856-3.549 1.636-3.852 1.499-4.182 1.444-4.54H-.66C-1.265-4.54-1.829-4.505-2.351-4.437-2.874-4.368-3.39-4.237-3.898-4.045-4.408-3.852-4.95-3.508-5.528-3.013-5.638-3.234-5.796-3.488-6.002-3.777-6.209-4.065-6.518-4.416-6.93-4.829-7.206-4.608-7.481-4.416-7.756-4.251-7.206-3.921-6.752-3.44-6.394-2.807-6.037-2.174-5.831-1.583-5.775-1.032L-4.785-1.321C-4.868-1.431-5.006-1.748-5.198-2.27-4.703-2.793-4.112-3.165-3.424-3.384V-.66H-6.064C-6.559-.66-7.082-.675-7.632-.702V.041C-7.054 .014-6.532 0-6.064 0ZM-.041 2.765C-.041 2.049-.028 1.376 0 .743H-6.147C-6.12 1.376-6.105 2.049-6.105 2.765-6.105 3.508-6.12 4.086-6.147 4.499H0C-.028 4.086-.041 3.508-.041 2.765M-.866 3.838H-5.28V3.013H-.866ZM-.866 2.311H-5.28V1.4440001H-.866ZM-.866 1.445" fill="#2c292a"/>
<path transform="matrix(1,0,0,-1,109.8649,254.1351)" d="M0 0C.385-.028 .77-.041 1.155-.041H2.021C1.994-.537 1.98-1.073 1.98-1.651V-4.416C2.31-4.031 2.558-3.688 2.723-3.384 2.915-3.715 3.094-3.962 3.259-4.127 2.984-4.403 2.681-4.733 2.351-5.118 2.021-5.503 1.718-5.833 1.444-6.108 1.196-5.861 .99-5.668 .825-5.531 1.1-5.366 1.223-5.104 1.196-4.746V-.702C.784-.702 .385-.716 0-.743ZM2.434 1.445C2.186 1.334 1.952 1.183 1.733 .991 1.292 1.733 .935 2.242 .66 2.518 .88 2.627 1.086 2.765 1.279 2.93 1.609 2.6 1.994 2.105 2.434 1.445M4.992 2.043C4.881 1.781 4.771 1.527 4.662 1.279 7.467 1.279 9.13 1.293 9.653 1.321V.578C9.103 .605 8.305 .619 7.26 .619V-.743C8.03-.743 8.663-.729 9.158-.702V-1.486C8.663-1.459 8.03-1.445 7.26-1.445V-2.848C8.113-2.848 8.759-2.834 9.199-2.807V-3.549C8.704-3.522 8.058-3.508 7.26-3.508V-4.911C8.388-4.911 9.226-4.898 9.777-4.87V-5.654C9.226-5.627 8.635-5.613 8.003-5.613H4.62V-6.604H3.795C3.822-6.053 3.837-5.311 3.837-4.375V-.413C3.616-.716 3.341-1.087 3.011-1.527 2.791-1.307 2.53-1.142 2.228-1.032 2.558-.702 2.867-.31 3.156 .144 3.445 .598 3.706 1.094 3.94 1.63 4.173 2.167 4.345 2.683 4.455 3.178 4.73 3.013 5.074 2.889 5.487 2.807 5.266 2.559 5.101 2.304 4.992 2.043M6.435 .619H4.62V-.743H6.435ZM6.435-1.445H4.62V-2.848H6.435ZM6.435-3.508H4.62V-4.911H6.435ZM7.838 2.146C7.563 2.036 7.302 1.884 7.054 1.692 6.807 2.049 6.518 2.407 6.188 2.765 6.462 2.903 6.71 3.054 6.93 3.219 7.095 3.026 7.398 2.669 7.838 2.146" fill="#2c292a"/>
<path transform="matrix(1,0,0,-1,123.3766,252.04141)" d="M0 0C.715 .082 1.292-.288 1.733-1.113 2.007-2.047 1.636-2.981 .619-3.915 .289-4.41 .124-4.945 .124-5.522H-.619C-.646-4.506-.193-3.544 .743-2.638 .962-2.308 1.058-1.951 1.031-1.566 .866-1.017 .55-.756 .083-.783H-.082C-.66-.811-.935-1.236-.908-2.061H-1.691C-1.719-1.044-1.375-.412-.66-.165-.55-.082-.33-.028 0 0M-.784-6.388H.371V-7.583H-.784Z" fill="#2c292a"/>
<path transform="matrix(1,0,0,-1,168.8734,234.22422)" d="M0 0V-6.111C0-6.938 .015-7.611 .046-8.132H-.873C-.873-7.611-.857-6.938-.827-6.111V-1.47C-1.194-2.144-1.531-2.681-1.837-3.078-1.991-2.864-2.25-2.65-2.618-2.435-1.975-1.731-1.424-.904-.964 .046-.505 .995-.2 1.838-.046 2.573 .352 2.389 .704 2.266 1.01 2.205 .827 1.899 .489 1.164 0 0M4.638 1.7C5.465 .26 6.674-.812 8.266-1.516 7.991-1.762 7.761-2.037 7.577-2.343 6.291-1.608 5.173-.505 4.225 .965 3.428-.475 2.388-1.67 1.102-2.619 .949-2.405 .735-2.175 .459-1.93 1.591-1.195 2.418-.383 2.939 .505 3.459 1.393 3.766 2.068 3.858 2.527 4.347 2.282 4.699 2.129 4.914 2.068ZM3.077-4.939C2.985-6.15 2.372-7.229 1.24-8.178 1.056-7.903 .811-7.673 .505-7.489 1.637-6.693 2.242-5.736 2.319-4.618 2.395-3.5 2.418-2.619 2.388-1.976 2.785-2.037 3.107-2.068 3.352-2.068 3.26-2.772 3.169-3.729 3.077-4.939M6.246-3.768V-6.662C6.246-7.122 6.261-7.611 6.291-8.132H5.327C5.357-7.611 5.373-7.106 5.373-6.616V-3.492C5.373-3.155 5.357-2.65 5.327-1.976H6.291C6.261-2.65 6.246-3.247 6.246-3.768" fill="#2c292a"/>
<path transform="matrix(1,0,0,-1,180.571,234.36209)" d="M0 0V-6.065C0-6.708 .015-7.32 .046-7.903H-.919C-.888-7.381-.873-6.816-.873-6.203V-1.47C-1.24-2.083-1.577-2.573-1.883-2.941-2.128-2.604-2.358-2.343-2.572-2.159-2.266-1.854-1.845-1.263-1.309-.391-.774 .482-.352 1.47-.046 2.573 .382 2.358 .75 2.205 1.056 2.114 .811 1.838 .459 1.133 0 0M3.72 1.286V2.481C4.087 2.45 4.5 2.419 4.96 2.389 4.806 2.175 4.714 1.807 4.684 1.286H6.383C6.904 1.286 7.363 1.302 7.761 1.332V.505C7.332 .536 6.873 .551 6.383 .551H4.638L4.546-.459H6.888C6.858-.827 6.843-1.317 6.843-1.93V-6.616C7.455-6.616 7.899-6.601 8.174-6.57V-7.397C7.776-7.366 7.225-7.351 6.521-7.351H2.204C1.5-7.351 .918-7.366 .459-7.397V-6.57C.735-6.601 1.163-6.616 1.745-6.616V-1.93C1.745-1.348 1.729-.858 1.699-.459H3.582L3.674 .551H2.847C2.082 .551 1.485 .536 1.056 .505V1.332C1.454 1.302 2.051 1.286 2.847 1.286ZM6.016-1.103H2.6179999V-2.022H6.016ZM6.016-2.711H2.6179999V-3.538H6.016ZM6.016-4.227H2.6179999V-5.0540006H6.016ZM6.016-5.743H2.6179999V-6.616H6.016ZM6.016-6.616" fill="#2c292a"/>
<path transform="matrix(1,0,0,-1,191.3041,232.98361)" d="M0 0C0 .52-.016 .965-.046 1.332H.918C.888 .995 .872 .566 .872 .046V-1.195C1.332-1.195 1.791-1.18 2.25-1.149V-1.976C1.791-1.945 1.332-1.93 .872-1.93V-3.997C1.27-3.783 1.622-3.584 1.929-3.4 1.929-3.646 1.944-3.921 1.975-4.227 1.699-4.381 1.332-4.579 .872-4.824V-8.224C.811-8.653 .658-8.921 .413-9.028 .168-9.135-.26-9.219-.873-9.281-.873-8.914-.964-8.561-1.148-8.224-.689-8.254-.383-8.254-.23-8.224-.077-8.194 0-8.056 0-7.811V-5.146C-.367-5.3-.797-5.529-1.286-5.835-1.409-5.437-1.546-5.131-1.699-4.916-1.148-4.794-.582-4.595 0-4.319V-1.93C-.551-1.93-1.026-1.945-1.424-1.976V-1.149C-1.026-1.18-.551-1.195 0-1.195ZM7.577-3.859C8.097-3.859 8.603-3.844 9.093-3.814V-4.641C8.634-4.61 8.143-4.595 7.623-4.595H6.016V-5.881H6.705C7.256-5.881 7.776-5.866 8.266-5.835V-6.662C7.776-6.632 7.271-6.616 6.751-6.616H6.016V-8.086C6.352-8.148 6.812-8.178 7.394-8.178 7.975-8.178 8.588-8.132 9.23-8.041 9.108-8.254 8.985-8.592 8.863-9.051 7.945-9.051 7.148-9.043 6.475-9.028 5.801-9.013 5.219-8.898 4.73-8.684 4.24-8.469 3.781-8.163 3.352-7.765 3.077-8.346 2.618-8.898 1.975-9.419 1.76-9.173 1.5-8.975 1.194-8.822 1.837-8.423 2.303-7.88 2.595-7.191 2.885-6.501 3.031-5.82 3.031-5.146 3.398-5.3 3.735-5.391 4.041-5.422 3.949-5.605 3.827-6.096 3.674-6.892 4.071-7.413 4.561-7.75 5.143-7.903V-4.595H4.133C3.49-4.595 2.862-4.61 2.25-4.641V-3.814C2.862-3.844 3.505-3.859 4.179-3.859ZM8.174-1.057C8.174-1.915 8.189-2.573 8.22-3.032H2.985C3.015-2.42 3.031-1.762 3.031-1.057 3.031-.322 3.015 .368 2.985 1.011H8.22C8.189 .52 8.174-.169 8.174-1.057M7.348 .23H3.858V-.597H7.348ZM7.348-1.378H3.858V-2.297H7.348ZM7.348-2.297" fill="#2c292a"/>
<path transform="matrix(1,0,0,-1,202.9557,242.3107)" d="M0 0C.03 .551 .046 1.087 .046 1.608V6.478C-.169 6.08-.444 5.62-.781 5.1-.964 5.284-1.24 5.483-1.607 5.697-1.24 6.065-.812 6.677-.321 7.535 .168 8.392 .551 9.434 .827 10.659 1.224 10.445 1.607 10.276 1.975 10.154 1.76 9.97 1.424 9.25 .964 7.995V1.7C.964 1.087 .979 .521 1.01 0ZM3.444 1.264C3.077 .82 2.679 .368 2.25-.092 1.944 .215 1.638 .429 1.332 .551 2.158 1.164 2.923 2.006 3.628 3.078 3.934 2.864 4.225 2.665 4.501 2.481 4.163 2.114 3.812 1.707 3.444 1.264M8.679 6.938C8.465 6.968 8.082 6.984 7.531 6.984H6.934V4.365H7.945C8.25 4.365 8.603 4.38 9.001 4.411V3.446C8.572 3.476 8.158 3.492 7.761 3.492H3.077C2.495 3.492 2.021 3.476 1.653 3.446V4.411C2.021 4.38 2.48 4.365 3.031 4.365H3.49V6.984H3.169C2.679 6.984 2.28 6.968 1.975 6.938V7.811C2.311 7.78 2.709 7.765 3.169 7.765H3.49V9.005C3.49 9.587 3.474 10.016 3.444 10.292H4.363C4.332 10.077 4.317 9.618 4.317 8.913V7.765H6.016V9.097C6.016 9.434 6 9.817 5.97 10.246H7.026C6.964 9.847 6.934 9.449 6.934 9.051V7.765H7.623C7.991 7.765 8.342 7.78 8.679 7.811ZM6.016 6.984H4.317V4.3650004H6.016ZM7.899 2.022C8.296 1.562 8.648 1.118 8.955 .689 8.648 .505 8.358 .291 8.082 .046 7.623 .781 6.964 1.592 6.108 2.481 6.352 2.665 6.613 2.864 6.888 3.078 7.164 2.833 7.5 2.481 7.899 2.022" fill="#2c292a"/>
<path transform="matrix(1,0,0,-1,169.9884,254.4653)" d="M0 0C-.303-.44-.55-.825-.743-1.156-.908-.964-1.142-.771-1.444-.578-.922-.028-.461 .598-.062 1.3 .336 2.002 .632 2.738 .825 3.508 1.017 3.37 1.334 3.233 1.774 3.096 1.609 2.875 1.279 2.284 .784 1.321V-4.045C.784-4.898 .797-5.585 .825-6.108H-.041C-.014-5.668 0-4.967 0-4.003ZM2.785 1.775C3.128 2.6 3.3 3.137 3.3 3.384 3.63 3.246 3.987 3.137 4.373 3.054 4.208 2.916 3.96 2.49 3.63 1.775H7.962C7.879 1.527 7.755 1.19 7.59 .764 7.425 .337 7.274-.069 7.137-.454 6.861-.371 6.586-.303 6.312-.248 6.504 .165 6.683 .605 6.848 1.073H3.341C3.011 .357 2.626-.303 2.186-.908 1.966-.771 1.677-.66 1.32-.578 1.952 .165 2.44 .949 2.785 1.775M3.053-1.403C3.383-1.568 3.644-1.706 3.836-1.816 3.671-2.091 3.424-2.476 3.094-2.972 2.764-3.467 2.393-3.962 1.98-4.458 1.76-4.265 1.54-4.086 1.32-3.921 2.007-3.206 2.585-2.367 3.053-1.403M4.125-5.138C4.29-5.07 4.373-4.926 4.373-4.705V-1.238C4.373-.578 4.359-.097 4.332 .206H5.198C5.17-.097 5.157-.578 5.157-1.238V-5.159C5.157-5.516 5.005-5.758 4.703-5.881 4.4-6.005 3.987-6.108 3.465-6.191 3.41-5.916 3.272-5.599 3.053-5.242 3.603-5.242 3.96-5.207 4.125-5.138M8.209-3.88C8.044-3.99 7.783-4.155 7.425-4.375 6.958-3.495 6.421-2.614 5.817-1.733 6.091-1.568 6.312-1.431 6.477-1.321 7.137-2.229 7.714-3.082 8.209-3.88" fill="#2c292a"/>
<path transform="matrix(1,0,0,-1,181.2313,252.71109)" d="M0 0C-.275-.702-.55-1.287-.825-1.754L.371-1.713C.591-1.356 .784-.887 .949-.31 1.251-.448 1.568-.557 1.898-.64 1.733-.805 1.568-1.032 1.403-1.321 1.238-1.61 .983-2.099 .639-2.786 .295-3.474 .027-3.956-.165-4.231 .495-4.148 1.086-4.065 1.609-3.983 1.499-4.313 1.43-4.602 1.403-4.85 1.073-4.85 .681-4.884 .227-4.953-.227-5.022-.688-5.111-1.155-5.221-1.265-4.891-1.375-4.575-1.485-4.272-1.21-4.272-.949-4.1-.701-3.756-.454-3.412-.193-2.965 .083-2.414-.193-2.414-.481-2.435-.784-2.476-1.087-2.518-1.361-2.58-1.609-2.662-1.691-2.414-1.802-2.14-1.939-1.837-1.719-1.727-1.464-1.431-1.176-.949-.887-.468-.592 .392-.289 1.63 .041 1.492 .357 1.368 .66 1.259 .495 1.121 .275 .702 0 0M-.124-6.232C.454-6.108 1.045-5.964 1.65-5.799 1.595-6.074 1.581-6.335 1.609-6.583 1.251-6.666 .756-6.797 .124-6.975-.509-7.154-1.018-7.326-1.402-7.491-1.485-7.105-1.582-6.762-1.691-6.459-1.224-6.432-.701-6.356-.124-6.232M4.744 1.011C5.101 .241 5.528-.406 6.023-.929 6.518-1.452 7.096-1.864 7.756-2.167 7.508-2.387 7.302-2.635 7.137-2.91 6.697-2.662 6.339-2.401 6.064-2.126V-2.827C5.761-2.8 5.487-2.786 5.239-2.786H3.919C3.589-2.786 3.259-2.8 2.929-2.827V-2.249C2.736-2.553 2.448-2.896 2.063-3.281 1.87-3.007 1.609-2.772 1.279-2.58 1.636-2.36 1.966-2.064 2.269-1.692 2.571-1.321 2.826-.956 3.032-.598 3.238-.241 3.417 .137 3.568 .537 3.719 .935 3.85 1.355 3.96 1.795 4.317 1.685 4.675 1.589 5.033 1.506 4.923 1.368 4.827 1.203 4.744 1.011M5.775-7.78V-7.037H3.342V-7.945H2.475C2.502-7.615 2.517-6.955 2.517-5.964 2.517-4.973 2.502-4.258 2.475-3.818H6.601C6.573-4.176 6.559-4.808 6.559-5.716 6.559-6.624 6.573-7.312 6.601-7.78ZM4.971-.887C4.737-.502 4.538-.117 4.373 .268 4.152-.144 3.946-.544 3.754-.929 3.561-1.314 3.327-1.699 3.053-2.084 3.3-2.112 3.589-2.126 3.919-2.126H5.157C5.431-2.099 5.72-2.084 6.023-2.084 5.555-1.672 5.204-1.273 4.971-.887M5.775-4.561H3.341V-6.377H5.775ZM5.775-6.377" fill="#2c292a"/>
<path transform="matrix(1,0,0,-1,197.8371,259.1704)" d="M0 0C0-.413 .027-.908 .083-1.486H-.784V-.867H-5.033V-1.527H-5.899C-5.872-.949-5.858-.468-5.858-.083V.867C-5.858 1.032-5.872 1.279-5.899 1.61-6.092 1.527-6.683 1.334-7.673 1.032-7.756 1.362-7.894 1.678-8.086 1.981-7.096 2.118-6.27 2.27-5.61 2.435-4.95 2.6-4.332 2.834-3.754 3.137-4.084 3.302-4.579 3.659-5.239 4.21-5.569 3.88-5.94 3.549-6.353 3.219-6.546 3.494-6.78 3.7-7.054 3.838-6.477 4.196-5.975 4.602-5.549 5.056-5.122 5.51-4.813 5.97-4.62 6.439-4.263 6.274-3.905 6.135-3.548 6.026-3.713 5.916-3.905 5.737-4.125 5.489H-.165C-.468 5.021-.757 4.629-1.031 4.313-1.307 3.996-1.733 3.604-2.31 3.137-1.925 2.972-1.41 2.807-.763 2.641-.117 2.476 .715 2.366 1.733 2.311 1.54 1.981 1.416 1.637 1.361 1.279 .839 1.417 .413 1.527 .083 1.61 .027 1.334 0 1.045 0 .743ZM1.361 7.305C1.334 6.837 1.32 6.493 1.32 6.274 1.32 6.081 1.334 5.778 1.361 5.366H.495V6.562H-6.724V5.324H-7.632C-7.605 5.599-7.59 5.861-7.59 6.108-7.59 6.356-7.605 6.755-7.632 7.305H-3.465C-3.548 7.58-3.658 7.842-3.795 8.09-3.383 8.172-3.053 8.24-2.805 8.296-2.613 7.745-2.503 7.415-2.475 7.305ZM-5.817 1.61H0C-.853 1.802-1.492 1.981-1.918 2.146-2.345 2.311-2.737 2.462-3.094 2.6-3.562 2.38-4.016 2.188-4.455 2.022-4.896 1.857-5.349 1.719-5.817 1.61M-.784 .949H-5.033V-.24800003H-.784ZM-4.744 4.705C-4.057 4.127-3.465 3.742-2.97 3.549-2.448 3.935-1.994 4.361-1.609 4.829H-4.662C-4.689 4.801-4.717 4.76-4.744 4.705" fill="#2c292a"/>
<path transform="matrix(1,0,0,-1,209.4925,255.20819)" d="M0 0C0-.825 .014-1.472 .041-1.94H-.866V-1.321H-6.6C-6.71-2.202-6.848-2.862-7.013-3.302-7.178-3.742-7.357-4.134-7.549-4.478-7.742-4.822-7.948-5.145-8.168-5.448-8.443-5.227-8.746-5.062-9.076-4.953-8.526-4.375-8.147-3.832-7.941-3.322-7.735-2.814-7.597-2.332-7.529-1.878-7.46-1.424-7.425-.936-7.425-.413-7.425 .11-7.44 1.004-7.467 2.27H.041C.014 1.61 0 .853 0 0M-.908 1.527H-6.642V-.57800009H-.908ZM-3.177 2.724C-3.534 2.642-3.809 2.545-4.002 2.435-4.194 3.013-4.414 3.522-4.662 3.962-4.387 4.045-4.125 4.154-3.878 4.292-3.548 3.632-3.314 3.109-3.177 2.724" fill="#2c292a"/>
<path transform="matrix(1,0,0,-1,154.0476,264.9923)" d="M0 0C0 .468-.014 .867-.041 1.197H.825C.797 .894 .784 .509 .784 .041V-1.073C1.196-1.073 1.609-1.06 2.021-1.032V-1.775C1.609-1.748 1.196-1.733 .784-1.733V-3.591C1.141-3.399 1.457-3.219 1.733-3.054 1.733-3.275 1.746-3.522 1.774-3.797 1.526-3.935 1.196-4.114 .784-4.334V-7.388C.728-7.773 .591-8.013 .371-8.11 .151-8.206-.234-8.282-.784-8.337-.784-8.007-.866-7.69-1.031-7.388-.619-7.415-.344-7.415-.206-7.388-.069-7.361 0-7.237 0-7.016V-4.623C-.33-4.761-.716-4.967-1.155-5.242-1.265-4.884-1.389-4.609-1.526-4.416-1.031-4.307-.523-4.127 0-3.88V-1.733C-.495-1.733-.922-1.748-1.279-1.775V-1.032C-.922-1.06-.495-1.073 0-1.073ZM6.807-3.467C7.274-3.467 7.728-3.453 8.168-3.426V-4.169C7.755-4.142 7.315-4.127 6.848-4.127H5.404V-5.283H6.023C6.518-5.283 6.985-5.269 7.426-5.242V-5.985C6.985-5.958 6.531-5.943 6.064-5.943H5.404V-7.264C5.706-7.32 6.119-7.347 6.642-7.347 7.164-7.347 7.714-7.305 8.292-7.223 8.182-7.415 8.071-7.718 7.962-8.131 7.137-8.131 6.421-8.124 5.817-8.11 5.211-8.096 4.689-7.993 4.249-7.801 3.809-7.608 3.396-7.333 3.011-6.975 2.764-7.498 2.351-7.993 1.774-8.461 1.581-8.24 1.347-8.062 1.073-7.924 1.65-7.567 2.069-7.078 2.331-6.459 2.592-5.84 2.723-5.228 2.723-4.623 3.053-4.761 3.355-4.843 3.63-4.87 3.548-5.035 3.437-5.476 3.3-6.191 3.657-6.659 4.098-6.962 4.62-7.099V-4.127H3.713C3.135-4.127 2.571-4.142 2.021-4.169V-3.426C2.571-3.453 3.149-3.467 3.754-3.467ZM7.343-.949C7.343-1.72 7.357-2.311 7.384-2.724H2.681C2.708-2.174 2.723-1.583 2.723-.949 2.723-.289 2.708 .33 2.681 .908H7.384C7.357 .468 7.343-.152 7.343-.949M6.6 .206H3.465V-.53699997H6.6ZM6.6-1.238H3.465V-2.063H6.6ZM6.6-2.064" fill="#2c292a"/>
<path transform="matrix(1,0,0,-1,164.6305,273.3295)" d="M0 0C.027 .495 .041 .976 .041 1.445V5.82C-.151 5.462-.399 5.049-.701 4.581-.866 4.746-1.114 4.925-1.444 5.118-1.114 5.448-.729 5.998-.289 6.769 .151 7.539 .495 8.475 .743 9.575 1.1 9.383 1.444 9.231 1.774 9.121 1.581 8.956 1.279 8.309 .866 7.182V1.527C.866 .976 .88 .468 .908 0ZM3.094 1.135C2.764 .736 2.406 .33 2.021-.083 1.746 .193 1.471 .386 1.196 .495 1.939 1.045 2.626 1.802 3.259 2.765 3.534 2.572 3.795 2.394 4.043 2.229 3.74 1.899 3.424 1.534 3.094 1.135M7.797 6.232C7.604 6.259 7.26 6.274 6.766 6.274H6.229V3.921H7.137C7.411 3.921 7.728 3.934 8.086 3.962V3.095C7.7 3.123 7.329 3.137 6.972 3.137H2.764C2.241 3.137 1.815 3.123 1.485 3.095V3.962C1.815 3.934 2.228 3.921 2.723 3.921H3.135V6.274H2.846C2.406 6.274 2.048 6.259 1.774 6.232V7.016C2.076 6.989 2.434 6.975 2.846 6.975H3.135V8.09C3.135 8.612 3.121 8.998 3.094 9.245H3.919C3.891 9.052 3.878 8.64 3.878 8.007V6.975H5.404V8.172C5.404 8.475 5.39 8.818 5.363 9.204H6.312C6.256 8.846 6.229 8.488 6.229 8.131V6.975H6.848C7.178 6.975 7.494 6.989 7.797 7.016ZM5.404 6.274H3.8779999V3.9210003H5.404ZM7.095 1.816C7.453 1.403 7.769 1.004 8.044 .619 7.769 .454 7.508 .262 7.26 .041 6.848 .702 6.256 1.43 5.487 2.229 5.706 2.394 5.94 2.572 6.188 2.765 6.435 2.545 6.738 2.229 7.095 1.816" fill="#2c292a"/>
<path transform="matrix(1,0,0,-1,177.0284,265.0748)" d="M0 0C-.165-.303-.33-.633-.495-.991V-6.645C-.495-7.36-.482-7.924-.454-8.337H-1.403C-1.376-7.869-1.361-7.332-1.361-6.728V-2.518C-1.691-3.095-2.049-3.646-2.434-4.169-2.599-3.976-2.805-3.77-3.053-3.549-2.558-3.054-2.036-2.27-1.485-1.197-.935-.124-.592 .702-.454 1.279-.151 1.087 .165 .935 .495 .825 .33 .578 .165 .302 0 0M2.64-2.105V-.041C2.64 .344 2.626 .756 2.599 1.197H3.548C3.492 .756 3.465 .344 3.465-.041V-2.105H5.157C5.514-2.105 5.94-2.091 6.435-2.064V-2.889C5.967-2.862 5.555-2.848 5.198-2.848H3.465V-6.893C3.465-7.332 3.479-7.786 3.506-8.255H2.599C2.626-7.814 2.64-7.374 2.64-6.934V-2.848H1.196C.756-2.848 .33-2.862-.083-2.889V-2.064C.33-2.091 .743-2.105 1.155-2.105Z" fill="#2c292a"/>
<path transform="matrix(1,0,0,-1,189.0346,265.5495)" d="M0 0C-.371-.592-.846-1.218-1.423-1.878-2.001-2.538-2.785-3.281-3.775-4.107-3.967-3.804-4.187-3.557-4.435-3.364-3.748-2.979-2.977-2.284-2.124-1.279-1.272-.275-.639 .695-.227 1.63 .13 1.383 .433 1.203 .681 1.094 .598 .956 .371 .591 0 0M1.444-2.291C.99-2.924 .419-3.611-.268-4.354-.956-5.097-1.561-5.703-2.083-6.17-1.479-6.143-.688-6.102 .289-6.047 1.265-5.992 2.207-5.937 3.115-5.881 2.674-5.111 2.303-4.519 2.001-4.107 2.275-3.942 2.509-3.763 2.702-3.57 3.142-4.176 3.568-4.788 3.981-5.407 4.393-6.026 4.751-6.611 5.053-7.161 4.861-7.216 4.572-7.394 4.187-7.697 4.022-7.367 3.816-7.009 3.568-6.624 2.221-6.68 .784-6.776-.743-6.913-2.269-7.051-3.115-7.174-3.28-7.285-3.39-6.955-3.514-6.611-3.651-6.253-3.238-6.226-2.516-5.675-1.485-4.602-.454-3.529 .529-2.14 1.464-.433 1.739-.681 2.056-.902 2.413-1.094 2.221-1.259 1.898-1.658 1.444-2.291" fill="#2c292a"/>
<path transform="matrix(1,0,0,-1,197.4103,266.1479)" d="M0 0V-5.489C0-6.232 .014-6.837 .041-7.305H-.784C-.784-6.837-.77-6.232-.743-5.489V-1.321C-1.073-1.926-1.376-2.408-1.65-2.765-1.788-2.573-2.021-2.38-2.351-2.187-1.774-1.555-1.279-.812-.866 .041-.454 .894-.179 1.651-.041 2.311 .316 2.146 .632 2.036 .908 1.981 .743 1.706 .44 1.045 0 0M4.167 1.527C4.909 .233 5.995-.729 7.425-1.362 7.178-1.583 6.972-1.83 6.807-2.105 5.652-1.445 4.647-.454 3.795 .867 3.08-.427 2.145-1.5 .99-2.353 .852-2.16 .66-1.954 .413-1.733 1.43-1.073 2.172-.344 2.64 .454 3.108 1.252 3.383 1.857 3.465 2.27 3.905 2.049 4.221 1.912 4.414 1.857ZM2.764-4.437C2.681-5.524 2.131-6.493 1.114-7.347 .949-7.099 .728-6.893 .454-6.728 1.471-6.012 2.014-5.153 2.083-4.148 2.152-3.144 2.172-2.353 2.145-1.775 2.502-1.83 2.791-1.857 3.011-1.857 2.929-2.491 2.846-3.35 2.764-4.437M5.61-3.384V-5.985C5.61-6.397 5.624-6.837 5.652-7.305H4.785C4.812-6.837 4.827-6.383 4.827-5.943V-3.137C4.827-2.834 4.812-2.38 4.785-1.775H5.652C5.624-2.38 5.61-2.917 5.61-3.384" fill="#2c292a"/>
<path transform="matrix(1,0,0,-1,208.0345,266.1892)" d="M0 0V-5.448C0-6.026 .014-6.576 .041-7.099H-.825C-.798-6.631-.784-6.123-.784-5.572V-1.321C-1.114-1.872-1.417-2.311-1.691-2.641-1.912-2.339-2.118-2.105-2.31-1.94-2.036-1.665-1.657-1.135-1.176-.351-.695 .433-.317 1.321-.041 2.311 .344 2.118 .674 1.981 .949 1.899 .728 1.651 .413 1.018 0 0M3.342 1.156V2.229C3.672 2.201 4.043 2.173 4.455 2.146 4.317 1.953 4.235 1.623 4.208 1.156H5.734C6.202 1.156 6.614 1.169 6.972 1.197V.454C6.586 .481 6.174 .495 5.734 .495H4.167L4.084-.413H6.188C6.16-.743 6.147-1.183 6.147-1.733V-5.943C6.697-5.943 7.095-5.93 7.343-5.902V-6.645C6.985-6.617 6.49-6.604 5.858-6.604H1.98C1.347-6.604 .825-6.617 .413-6.645V-5.902C.66-5.93 1.045-5.943 1.568-5.943V-1.733C1.568-1.211 1.553-.771 1.526-.413H3.218L3.3 .495H2.558C1.87 .495 1.334 .481 .949 .454V1.197C1.306 1.169 1.842 1.156 2.558 1.156ZM5.404-.991H2.3509999V-1.8169999H5.404ZM5.404-2.435H2.3509999V-3.178H5.404ZM5.404-3.797H2.3509999V-4.54H5.404ZM5.404-5.159H2.3509999V-5.943H5.404ZM5.404-5.943" fill="#2c292a"/>
<path transform="matrix(1,0,0,-1,219.1941,264.7971)" d="M0 0C.697 .082 1.26-.288 1.689-1.113 1.957-2.047 1.595-2.981 .603-3.915 .282-4.41 .121-4.945 .121-5.522H-.603C-.63-4.506-.188-3.544 .724-2.638 .938-2.308 1.032-1.951 1.006-1.566 .845-1.017 .536-.756 .08-.783H-.08C-.644-.811-.912-1.236-.885-2.061H-1.649C-1.676-1.044-1.341-.412-.644-.165-.537-.082-.322-.028 0 0M-.764-6.388H.36200006V-7.583H-.764Z" fill="#2c292a"/>
<path transform="matrix(1,0,0,-1,172.3214,316.87123)" d="M0 0V-1.516C.612-1.516 1.102-1.5 1.47-1.47V-2.343C.919-2.282 .214-2.251-.643-2.251H-7.945C-8.527-2.251-9.032-2.282-9.46-2.343V-1.47C-9.063-1.5-8.557-1.516-7.945-1.516V-.046C-7.945 .291-7.961 .704-7.991 1.195H.046C.015 .857 0 .459 0 0M-4.225 3.813C-3.98 4.181-3.797 4.549-3.674 4.916H-5.924C-6.078 4.365-6.36 3.828-6.774 3.308-7.187 2.787-7.731 2.281-8.404 1.792-8.618 2.068-8.879 2.297-9.185 2.481-8.695 2.726-8.289 2.978-7.968 3.239-7.646 3.499-7.379 3.813-7.164 4.181-6.95 4.549-6.782 4.962-6.659 5.422-6.537 5.881-6.46 6.386-6.429 6.938H-6.98C-7.501 6.938-8.052 6.922-8.634 6.892V7.765C-8.052 7.703-7.501 7.673-6.98 7.673H-.735C-.796 7.366-.857 7.045-.918 6.708-.98 6.371-1.026 6.019-1.056 5.651H.735C.673 5.345 .612 5.054 .551 4.778L.23 2.711C.168 2.281 .015 2.022-.23 1.93-.475 1.838-.842 1.73-1.332 1.608-1.424 1.945-1.546 2.266-1.699 2.573-1.271 2.573-.987 2.588-.85 2.619-.712 2.649-.613 2.818-.551 3.124L-.23 4.916H-1.975C-1.883 5.62-1.791 6.295-1.699 6.938H-5.557C-5.618 6.417-5.679 5.988-5.74 5.651H-2.526C-2.679 5.222-2.824 4.847-2.962 4.526-3.1 4.204-3.291 3.844-3.536 3.446-3.383 3.354-3.139 3.223-2.801 3.055-2.465 2.887-2.174 2.711-1.929 2.527-2.204 2.312-2.434 2.083-2.618 1.838-3.047 2.266-3.536 2.603-4.087 2.849-4.302 2.634-4.569 2.412-4.891 2.182-5.212 1.953-5.572 1.73-5.97 1.516-6.093 1.792-6.337 2.006-6.705 2.159-6.276 2.281-5.909 2.427-5.603 2.596-5.297 2.764-5.021 2.971-4.776 3.216-5.143 3.4-5.542 3.553-5.97 3.676-5.848 3.89-5.71 4.104-5.557 4.319-5.067 4.135-4.623 3.966-4.225 3.813M-5.557 .459H-7.072V-1.517H-5.557ZM-3.215 .459H-4.685V-1.517H-3.215ZM-.872 .459H-2.342V-1.517H-.872ZM-.872-1.516" fill="#2c292a"/>
<path transform="matrix(1,0,0,-1,180.6207,315.5388)" d="M0 0C-.215-.184-.444-.414-.689-.689-1.118-.046-1.561 .52-2.021 1.011V-2.389C-2.021-3.124-2.006-3.676-1.975-4.043H-2.985C-2.955-3.645-2.939-3.093-2.939-2.389V.827C-3.276 .184-3.598-.353-3.903-.781-4.21-1.21-4.608-1.716-5.097-2.297-5.281-1.991-5.542-1.731-5.878-1.516-5.205-.965-4.6-.268-4.064 .574-3.529 1.416-3.184 2.098-3.031 2.619H-3.903C-4.638 2.619-5.174 2.603-5.511 2.573V3.446C-5.143 3.415-4.608 3.4-3.903 3.4H-2.939V5.192C-3.552 5.069-4.21 4.946-4.914 4.824-5.006 5.13-5.128 5.422-5.281 5.697-4.761 5.727-4.041 5.835-3.123 6.019-2.204 6.203-1.332 6.432-.505 6.708-.352 6.341-.154 6.019 .092 5.743-.521 5.651-1.225 5.528-2.021 5.376V3.4H-1.24C-.597 3.4-.031 3.415 .459 3.446V2.573C-.031 2.603-.582 2.619-1.194 2.619H-2.021V2.068C-1.348 1.454-.674 .765 0 0M2.021 3.262V.368C2.021-.276 2.036-.827 2.067-1.286H1.056C1.086-.735 1.102-.184 1.102 .368V3.262C1.102 3.752 1.086 4.242 1.056 4.732H2.067C2.036 4.365 2.021 3.874 2.021 3.262M4.133 5.054V-2.986C4.133-3.354 3.987-3.591 3.697-3.699 3.406-3.806 2.893-3.92 2.158-4.043 2.067-3.584 1.959-3.216 1.837-2.941 2.48-2.971 2.87-2.956 3.008-2.895 3.146-2.833 3.215-2.711 3.215-2.527V5.1C3.215 5.528 3.199 6.034 3.169 6.616H4.179C4.148 6.31 4.133 5.789 4.133 5.054" fill="#2c292a"/>
<path transform="matrix(1,0,0,-1,186.6696,311.0361)" d="M0 0C.489-.031 1.025-.046 1.607-.046H8.45C9.185-.046 9.782-.031 10.241 0V-.919C9.843-.889 9.292-.873 8.588-.873H3.858C3.858-1.21 3.842-1.823 3.812-2.711H8.955C8.893-3.109 8.832-3.691 8.771-4.457L8.496-6.984C8.434-7.535 8.174-7.895 7.715-8.063 7.256-8.232 6.582-8.362 5.694-8.454 5.664-8.055 5.541-7.703 5.327-7.397 6.031-7.427 6.567-7.397 6.934-7.305 7.302-7.214 7.531-6.954 7.623-6.524L7.899-3.538H3.766C3.643-4.396 3.451-5.116 3.192-5.697 2.931-6.28 2.572-6.816 2.112-7.305 1.653-7.795 1.194-8.224 .735-8.592 .612-8.408 .337-8.193-.092-7.949 .306-7.734 .727-7.397 1.171-6.938 1.615-6.478 1.982-5.958 2.273-5.376 2.564-4.794 2.747-4.151 2.824-3.446 2.9-2.742 2.939-1.884 2.939-.873H1.653C.979-.873 .428-.889 0-.919ZM3.949 1.884C4.225 2.037 4.5 2.205 4.776 2.389 5.113 1.868 5.449 1.301 5.786 .689 5.48 .566 5.174 .398 4.868 .184 4.592 .796 4.286 1.363 3.949 1.884" fill="#2c292a"/>
<path transform="matrix(1,0,0,-1,203.6484,311.174)" d="M0 0C-.062 1.072-.108 1.884-.138 2.435 .046 2.404 .443 2.373 1.056 2.343 .994 2.128 .979 1.347 1.01 0H2.847C3.428 0 4.025 .015 4.638 .046V-.873C4.087-.843 3.505-.827 2.893-.827H1.056C1.148-1.624 1.278-2.366 1.447-3.055 1.614-3.745 1.837-4.396 2.112-5.008 2.388-5.621 2.747-6.165 3.192-6.639 3.635-7.114 3.903-7.137 3.995-6.708 4.087-6.28 4.117-5.851 4.087-5.422 4.363-5.636 4.745-5.835 5.235-6.019 5.021-7.336 4.707-8.04 4.294-8.132 3.88-8.224 3.467-8.124 3.054-7.834 2.641-7.542 2.25-7.122 1.883-6.57 1.515-6.019 1.217-5.414 .987-4.755 .758-4.097 .566-3.416 .413-2.711 .26-2.007 .153-1.378 .092-.827H-3.261C-4.149-.827-4.868-.843-5.419-.873V.046C-4.838 .015-4.133 0-3.307 0ZM-1.929-2.435C-1.348-2.435-.796-2.42-.276-2.389V-3.262C-.827-3.232-1.409-3.216-2.021-3.216V-6.111C-1.378-5.958-.643-5.774 .184-5.559V-6.386C-.919-6.601-1.791-6.808-2.434-7.007-3.077-7.205-3.858-7.489-4.776-7.857L-5.235-6.754C-4.868-6.724-4.103-6.586-2.939-6.341V-3.216C-3.828-3.216-4.44-3.232-4.776-3.262V-2.389C-4.44-2.42-3.965-2.435-3.352-2.435ZM3.812 .735C3.658 .673 3.367 .49 2.939 .184 2.724 .551 2.342 1.011 1.791 1.562 1.944 1.684 2.204 1.884 2.572 2.159 3.153 1.516 3.566 1.041 3.812 .735" fill="#2c292a"/>
<path transform="matrix(1,0,0,-1,159.9693,339.44233)" d="M0 0C-.275 .165-.523 .289-.743 .371-.385 .976-.014 1.788 .371 2.807 .619 2.669 .88 2.545 1.155 2.435 .743 1.499 .357 .687 0 0M6.147 7.883C6.779 7.883 7.357 7.897 7.879 7.924V7.14C7.357 7.167 6.779 7.182 6.147 7.182H2.764V6.274H5.569C6.119 6.274 6.683 6.287 7.26 6.315V5.572C6.738 5.599 6.174 5.613 5.569 5.613H2.764V4.664H5.899C6.559 4.664 7.137 4.678 7.632 4.705V3.962C6.999 3.989 6.421 4.004 5.899 4.004H2.764V3.219H1.939C1.966 3.907 1.98 4.499 1.98 4.994V7.099C1.457 6.439 .839 5.805 .124 5.2-.097 5.448-.316 5.627-.536 5.737 .756 6.7 1.677 7.828 2.228 9.121 2.53 8.929 2.805 8.764 3.053 8.626 2.86 8.406 2.681 8.158 2.516 7.883ZM2.723 1.486C2.723 1.156 2.729 .914 2.743 .764 2.757 .612 2.929 .522 3.259 .495H5.404C5.679 .495 5.864 .557 5.961 .681 6.057 .805 6.174 1.045 6.312 1.403 6.559 1.128 6.82 .935 7.095 .825 6.875 .386 6.642 .103 6.394-.021 6.147-.144 5.872-.206 5.569-.206H2.64C2.2-.206 1.96-.076 1.918 .186 1.877 .448 1.863 .805 1.877 1.259 1.891 1.713 1.883 2.173 1.856 2.642H2.764C2.736 2.229 2.723 1.843 2.723 1.486M5.157 1.816C4.881 1.651 4.662 1.499 4.497 1.362 4.194 1.83 3.837 2.297 3.424 2.765 3.616 2.903 3.822 3.068 4.043 3.261 4.4 2.848 4.771 2.366 5.157 1.816M8.622 .991C8.429 .853 8.209 .687 7.962 .495 7.467 1.156 6.931 1.775 6.353 2.353 6.518 2.49 6.71 2.669 6.931 2.889 7.508 2.256 8.071 1.623 8.622 .991" fill="#2c292a"/>
<path transform="matrix(1,0,0,-1,174.2032,332.1163)" d="M0 0C-.371-.592-.846-1.218-1.423-1.878-2.001-2.538-2.785-3.281-3.775-4.107-3.967-3.804-4.187-3.557-4.435-3.364-3.748-2.979-2.977-2.284-2.124-1.279-1.272-.275-.639 .695-.227 1.63 .13 1.383 .433 1.203 .681 1.094 .598 .956 .371 .591 0 0M1.444-2.291C.99-2.924 .419-3.611-.268-4.354-.956-5.097-1.561-5.703-2.083-6.17-1.479-6.143-.688-6.102 .289-6.047 1.265-5.992 2.207-5.937 3.115-5.881 2.674-5.111 2.303-4.519 2.001-4.107 2.275-3.942 2.509-3.763 2.702-3.57 3.142-4.176 3.568-4.788 3.981-5.407 4.393-6.026 4.751-6.611 5.053-7.161 4.861-7.216 4.572-7.394 4.187-7.697 4.022-7.367 3.816-7.009 3.568-6.624 2.221-6.68 .784-6.776-.743-6.913-2.269-7.051-3.115-7.175-3.28-7.285-3.39-6.955-3.514-6.611-3.651-6.253-3.238-6.226-2.516-5.675-1.485-4.602-.454-3.529 .529-2.14 1.464-.433 1.739-.681 2.056-.902 2.413-1.094 2.221-1.259 1.898-1.658 1.444-2.291" fill="#2c292a"/>
<path transform="matrix(1,0,0,-1,188.6844,337.6263)" d="M0 0V-1.362C.55-1.362 .99-1.348 1.32-1.321V-2.105C.825-2.049 .192-2.022-.578-2.022H-7.137C-7.66-2.022-8.113-2.049-8.498-2.105V-1.321C-8.141-1.348-7.687-1.362-7.137-1.362V-.041C-7.137 .261-7.151 .633-7.178 1.073H.041C.014 .77 0 .413 0 0M-3.795 3.426C-3.575 3.756-3.41 4.086-3.3 4.416H-5.322C-5.46 3.921-5.714 3.439-6.085 2.972-6.456 2.503-6.945 2.049-7.549 1.61-7.742 1.857-7.976 2.064-8.251 2.229-7.811 2.449-7.446 2.676-7.157 2.91-6.869 3.143-6.628 3.426-6.435 3.756-6.243 4.086-6.092 4.458-5.982 4.87-5.872 5.283-5.803 5.737-5.775 6.232H-6.27C-6.738 6.232-7.233 6.218-7.755 6.191V6.975C-7.233 6.92-6.738 6.893-6.27 6.893H-.66C-.715 6.617-.77 6.328-.825 6.026-.88 5.723-.922 5.407-.949 5.077H.66C.605 4.801 .55 4.54 .495 4.292L.206 2.435C.151 2.049 .014 1.816-.206 1.733-.427 1.651-.757 1.554-1.196 1.445-1.279 1.747-1.389 2.036-1.526 2.311-1.142 2.311-.887 2.325-.763 2.353-.639 2.38-.55 2.531-.495 2.807L-.206 4.416H-1.774C-1.691 5.049-1.609 5.654-1.526 6.232H-4.992C-5.047 5.764-5.102 5.379-5.157 5.077H-2.269C-2.407 4.691-2.537 4.354-2.661 4.065-2.785 3.776-2.957 3.453-3.176 3.096-3.039 3.013-2.819 2.896-2.516 2.745-2.214 2.593-1.953 2.435-1.733 2.27-1.98 2.077-2.186 1.871-2.351 1.651-2.737 2.036-3.176 2.338-3.671 2.559-3.864 2.366-4.105 2.167-4.393 1.961-4.682 1.754-5.006 1.554-5.363 1.362-5.473 1.61-5.693 1.802-6.023 1.94-5.638 2.049-5.308 2.18-5.033 2.332-4.758 2.483-4.511 2.669-4.29 2.889-4.62 3.054-4.978 3.192-5.363 3.302-5.253 3.494-5.129 3.687-4.992 3.88-4.552 3.715-4.153 3.563-3.795 3.426M-4.992 .413H-6.353V-1.362H-4.992ZM-2.888 .413H-4.208V-1.362H-2.888ZM-.784 .413H-2.104V-1.362H-.784ZM-.784-1.362" fill="#2c292a"/>
<path transform="matrix(1,0,0,-1,196.2559,336.4293)" d="M0 0C-.193-.165-.399-.371-.619-.619-1.004-.041-1.403 .468-1.815 .908V-2.146C-1.815-2.807-1.802-3.302-1.774-3.632H-2.682C-2.654-3.274-2.64-2.779-2.64-2.146V.743C-2.943 .165-3.232-.317-3.506-.702-3.782-1.087-4.139-1.541-4.579-2.064-4.744-1.789-4.978-1.555-5.28-1.362-4.676-.867-4.132-.241-3.651 .516-3.17 1.272-2.861 1.884-2.723 2.353H-3.506C-4.167 2.353-4.648 2.338-4.95 2.311V3.095C-4.62 3.068-4.139 3.054-3.506 3.054H-2.64V4.664C-3.191 4.554-3.782 4.443-4.414 4.334-4.497 4.608-4.607 4.87-4.744 5.118-4.277 5.145-3.63 5.242-2.805 5.407-1.98 5.572-1.196 5.778-.454 6.026-.316 5.696-.138 5.407 .082 5.159-.468 5.077-1.1 4.966-1.815 4.829V3.054H-1.114C-.536 3.054-.028 3.068 .413 3.095V2.311C-.028 2.338-.523 2.353-1.073 2.353H-1.815V1.857C-1.211 1.307-.605 .687 0 0M1.815 2.93V.33C1.815-.248 1.829-.743 1.856-1.156H.949C.976-.66 .99-.165 .99 .33V2.93C.99 3.37 .976 3.811 .949 4.251H1.856C1.829 3.921 1.815 3.481 1.815 2.93M3.713 4.54V-2.683C3.713-3.013 3.582-3.226 3.321-3.323 3.059-3.419 2.599-3.522 1.939-3.632 1.856-3.219 1.76-2.889 1.65-2.642 2.228-2.669 2.578-2.655 2.702-2.6 2.826-2.545 2.888-2.435 2.888-2.27V4.581C2.888 4.966 2.873 5.42 2.846 5.943H3.754C3.726 5.668 3.713 5.2 3.713 4.54" fill="#2c292a"/>
<path transform="matrix(1,0,0,-1,203.9922,332.4258)" d="M0 0H1.856C1.829-.468 1.815-1.059 1.815-1.775V-5.407C1.815-5.82 1.829-6.412 1.856-7.182H1.031V-6.356H-1.073V-7.264H-1.898C-1.871-6.384-1.857-5.834-1.857-5.613V-1.816C-1.857-1.073-1.871-.468-1.898 0H-.701C-.564 .633-.454 1.293-.371 1.981 .013 1.843 .33 1.747 .577 1.692 .44 1.445 .247 .88 0 0M1.031-.702H-1.0730001V-2.7659999H1.031ZM1.031-3.467H-1.0730001V-5.6540005H1.031ZM6.518-6.232C6.462-6.728 6.202-7.058 5.734-7.223 5.266-7.388 4.744-7.498 4.166-7.553 4.139-7.25 4.015-6.934 3.795-6.604 4.345-6.631 4.778-6.617 5.095-6.562 5.411-6.508 5.61-6.384 5.693-6.191 5.775-5.999 5.837-5.434 5.879-4.499 5.92-3.564 5.954-2.256 5.982-.578H3.589C3.368-1.101 3.053-1.72 2.64-2.435 2.447-2.243 2.213-2.091 1.939-1.981 2.186-1.651 2.42-1.252 2.64-.784 2.86-.317 3.053 .192 3.218 .743 3.383 1.293 3.479 1.719 3.507 2.022 3.891 1.857 4.221 1.733 4.496 1.651 4.359 1.43 4.242 1.19 4.146 .929 4.049 .667 3.946 .413 3.836 .165H6.766C6.738-.413 6.724-.949 6.724-1.445 6.696-3.123 6.628-4.719 6.518-6.232M4.29-3.137C4.455-3.467 4.647-3.894 4.868-4.416 4.675-4.499 4.414-4.637 4.084-4.829 3.891-4.307 3.713-3.859 3.548-3.488 3.383-3.116 3.218-2.807 3.053-2.559 3.245-2.449 3.492-2.311 3.795-2.146Z" fill="#2c292a"/>
<path transform="matrix(1,0,0,-1,214.9868,331.364)" d="M0 0C.697 .082 1.26-.289 1.689-1.113 1.957-2.047 1.595-2.981 .603-3.915 .282-4.41 .121-4.945 .121-5.522H-.603C-.63-4.506-.188-3.544 .724-2.638 .938-2.308 1.032-1.951 1.006-1.566 .845-1.017 .536-.756 .08-.783H-.081C-.644-.811-.912-1.236-.885-2.061H-1.649C-1.676-1.044-1.341-.412-.644-.165-.537-.082-.322-.028 0 0M-.764-6.388H.36200006V-7.583H-.764Z" fill="#2c292a"/>
<path transform="matrix(1,0,0,-1,260.385,233.9945)" d="M0 0C1.102 0 1.913 .03 2.434 .092V-.781C1.913-.751 1.117-.735 .046-.735V-2.619H1.929C1.898-3.293 1.883-4.013 1.883-4.778 1.883-5.513 1.898-6.325 1.929-7.213H1.01V-6.478H-1.332V-7.351H-2.25C-2.22-6.555-2.204-5.759-2.204-4.962-2.204-4.135-2.22-3.354-2.25-2.619H-.873C-.873-.108-.888 1.516-.919 2.251H.046C.015 1.546 0 .796 0 0M1.056-3.354H-1.332V-5.697H1.056ZM6.544-3.882C6.253-4.45 5.893-5.039 5.465-5.651 5.985-6.54 6.413-7.045 6.751-7.168 7.087-7.29 7.363-6.877 7.577-5.927 7.822-6.203 8.113-6.448 8.45-6.662 8.021-7.611 7.538-8.125 7.003-8.201 6.467-8.277 5.755-7.642 4.868-6.295 4.5-6.693 4.125-7.045 3.743-7.351 3.359-7.657 2.877-8.01 2.296-8.408 2.112-8.163 1.883-7.918 1.607-7.673 1.975-7.519 2.449-7.229 3.031-6.8 3.612-6.371 4.087-5.927 4.454-5.468 4.301-5.162 4.133-4.648 3.949-3.928 3.766-3.209 3.643-2.558 3.582-1.976 3.031-2.068 2.495-2.175 1.975-2.297 1.913-1.991 1.852-1.716 1.791-1.47 2.25-1.409 2.816-1.317 3.49-1.195 3.428 .122 3.367 1.302 3.306 2.343 3.674 2.312 4.01 2.297 4.317 2.297 4.255 1.409 4.255 .291 4.317-1.057 4.99-.965 6.123-.751 7.715-.414 7.715-.689 7.745-.965 7.807-1.241 7.102-1.363 5.97-1.562 4.408-1.838 4.561-3.063 4.776-4.028 5.052-4.732 5.357-4.304 5.587-3.89 5.74-3.492 5.893-3.094 6.046-2.665 6.2-2.205 6.567-2.42 6.904-2.573 7.21-2.665 7.056-2.91 6.835-3.316 6.544-3.882M7.026 .505C6.751 .322 6.49 .107 6.246-.138 6.062 .168 5.694 .643 5.143 1.286 5.388 1.439 5.633 1.608 5.878 1.792 6.459 1.118 6.842 .689 7.026 .505" fill="#2c292a"/>
<path transform="matrix(1,0,0,-1,273.9653,234.8215)" d="M0 0V-4.135C0-4.656 .015-5.284 .046-6.019H-.781V-5.422H-3.215V-6.295H-4.087C-4.026-5.805-3.995-5.254-3.995-4.641V0C-3.995 .704-4.026 1.332-4.087 1.884H.046C.015 1.179 0 .551 0 0M-2.388 1.195H-3.2150002V-1.3319999H-2.388ZM-2.388-2.068H-3.2150002V-4.6870005H-2.388ZM-.781 1.195H-1.608V-1.3319999H-.781ZM-.781-2.068H-1.608V-4.6870005H-.781ZM2.434 1.884H5.511C5.327 1.302 5.074 .719 4.753 .138 4.432-.444 4.071-.95 3.674-1.378 4.01-1.685 4.432-1.923 4.937-2.091 5.442-2.259 5.924-2.374 6.383-2.435 6.138-2.773 5.97-3.078 5.878-3.354 5.449-3.262 4.975-3.101 4.455-2.872 3.934-2.642 3.474-2.343 3.077-1.976 2.832-2.159 2.51-2.389 2.112-2.665 1.714-2.941 1.209-3.216 .597-3.492 .474-3.186 .306-2.91 .092-2.665 .551-2.512 .957-2.351 1.309-2.182 1.66-2.014 2.082-1.731 2.572-1.332 2.388-1.088 2.219-.827 2.067-.551 1.913-.276 1.775-.016 1.653 .23 1.469-.108 1.209-.521 .873-1.011 .75-.827 .489-.643 .092-.459 .52 0 .896 .574 1.217 1.264 1.538 1.953 1.76 2.603 1.883 3.216 2.219 3.063 2.587 2.925 2.985 2.803 2.801 2.619 2.618 2.312 2.434 1.884M5.235-4.503V-6.295C5.235-6.692 5.25-7.122 5.281-7.581H4.409V-6.708H2.021V-7.627H1.148C1.178-7.106 1.194-6.631 1.194-6.203V-4.549C1.194-4.089 1.178-3.661 1.148-3.262H5.281C5.25-3.63 5.235-4.043 5.235-4.503M4.409-3.997H2.021V-5.927H4.409ZM4.363 1.195H2.112C2.357 .429 2.709-.23 3.169-.781 3.628-.261 4.025 .398 4.363 1.195" fill="#2c292a"/>
</g>
<path transform="matrix(1,0,0,-1,282.2581,242.08512)" d="M0 0H-1.434L1.916 10.116H3.351Z" fill="#2c292a"/>
<g clip-path="url(#clip_5)">
<path transform="matrix(1,0,0,-1,287.1501,237.41739)" d="M0 0C-.306 .337-.551 .566-.735 .689 .245 1.454 1.01 2.19 1.561 2.895 1.714 2.741 1.929 2.557 2.204 2.343 1.439 1.638 .704 .857 0 0M4.523-2.251C4.447-2.589 4.248-2.933 3.926-3.285 3.605-3.638 3.138-3.966 2.526-4.273 1.913-4.579 1.025-4.824-.138-5.008-.23-4.702-.413-4.411-.689-4.135 .199-4.104 .941-3.989 1.538-3.791 2.135-3.592 2.587-3.37 2.893-3.124 3.199-2.879 3.421-2.581 3.559-2.228 3.697-1.877 3.766-1.501 3.766-1.103 4.133-1.164 4.501-1.21 4.868-1.241 4.714-1.578 4.599-1.915 4.523-2.251M-.459 4.824C-.245 5.038-.062 5.253 .092 5.468 .367 5.284 1.025 4.87 2.067 4.227 1.883 4.043 1.699 3.814 1.515 3.538 1.025 3.905 .367 4.334-.459 4.824M8.082-1.103C8.082-1.562 8.098-2.098 8.128-2.711H7.21V-.597H1.515V-2.986H.597C.627-2.282 .643-1.7 .643-1.241 .643-.751 .627-.276 .597 .184H8.128C8.098-.215 8.082-.643 8.082-1.103M6.108 2.78C6.291 2.519 6.544 2.274 6.866 2.045 7.187 1.815 7.585 1.623 8.06 1.47 8.534 1.317 9.062 1.225 9.644 1.195 9.398 .857 9.215 .536 9.093 .23 8.327 .383 7.646 .612 7.049 .919 6.452 1.225 5.954 1.715 5.557 2.389 5.281 1.684 4.883 1.195 4.363 .919 3.842 .643 3.276 .414 2.663 .23 2.418 .505 2.173 .75 1.929 .965 3.215 1.21 4.056 1.577 4.455 2.068 4.852 2.557 5.067 3.154 5.097 3.859L6.154 3.722C5.939 3.354 5.924 3.04 6.108 2.78M3.077 2.941C2.862 3.154 2.633 3.338 2.388 3.492 2.755 3.737 3.1 4.066 3.421 4.48 3.743 4.893 3.995 5.33 4.179 5.789 4.455 5.666 4.791 5.575 5.189 5.513 5.036 5.238 4.852 4.992 4.638 4.778H8.955C8.863 4.595 8.588 3.997 8.128 2.986 7.761 3.078 7.455 3.139 7.21 3.17 7.363 3.507 7.5 3.798 7.623 4.043H4.133C3.766 3.553 3.413 3.185 3.077 2.941M7.118-3.124C7.669-3.339 8.327-3.615 9.093-3.951 8.909-4.196 8.74-4.503 8.588-4.87 8.006-4.533 7.432-4.242 6.866-3.997 6.299-3.752 5.695-3.523 5.052-3.308 5.204-3.063 5.327-2.788 5.419-2.481 6-2.696 6.567-2.91 7.118-3.124" fill="#2c292a"/>
<path transform="matrix(1,0,0,-1,299.3528,240.03632)" d="M0 0C-.276-.858-.475-1.485-.597-1.884-.873-1.669-1.225-1.47-1.653-1.286-1.47-1.042-1.225-.544-.919 .207-.613 .957-.352 1.822-.138 2.803 .168 2.557 .459 2.358 .735 2.205 .52 1.592 .275 .857 0 0M-.551 4.319-1.561 4.87C-1.44 5.084-1.302 5.33-1.148 5.605-.873 5.452-.544 5.276-.161 5.077 .222 4.877 .566 4.686 .872 4.503L.321 3.676C.076 3.92-.215 4.135-.551 4.319M-1.102 7.719C-.919 7.933-.72 8.147-.505 8.362 .321 7.719 .872 7.244 1.148 6.938 .934 6.723 .719 6.493 .505 6.249-.046 6.861-.582 7.351-1.102 7.719M1.056-.069C1.27 .406 1.431 .965 1.538 1.608 1.645 2.251 1.706 2.918 1.722 3.607 1.737 4.296 1.745 5.038 1.745 5.835 1.745 6.662 1.729 7.412 1.699 8.086H6.934C7.638 8.086 8.312 8.102 8.955 8.132V7.259C8.312 7.29 7.638 7.305 6.934 7.305H2.618V4.227C2.618 3.492 2.595 2.826 2.549 2.228 2.503 1.631 2.395 1.049 2.227 .482 2.059-.085 1.867-.574 1.653-.988 1.439-1.401 1.178-1.807 .872-2.205 .719-1.899 .459-1.623 .092-1.378 .52-.981 .842-.544 1.056-.069M2.847-.299C3.123 .084 3.398 .536 3.674 1.057 3.888 .842 4.194 .643 4.592 .459 4.286 .184 4.01-.146 3.766-.528 3.52-.912 3.215-1.332 2.847-1.792 2.572-1.577 2.311-1.393 2.066-1.241 2.311-.996 2.572-.682 2.847-.299M5.648 5.927H8.266C8.235 5.468 8.22 5.008 8.22 4.549V3.4C8.22 3.063 8.235 2.588 8.266 1.976H6.291V-1.103C6.291-1.47 6.177-1.753 5.947-1.953 5.717-2.152 5.357-2.282 4.868-2.343 4.776-2.006 4.638-1.669 4.454-1.332 5.097-1.424 5.419-1.271 5.419-.873V1.976H3.49C3.52 2.465 3.536 2.925 3.536 3.354V4.595C3.536 4.992 3.52 5.437 3.49 5.927H4.73C4.852 6.203 4.975 6.585 5.097 7.076 5.403 6.984 5.74 6.907 6.108 6.846 5.954 6.6 5.801 6.295 5.648 5.927M7.348 5.192H4.4090006V4.273H7.348ZM7.348 3.538H4.4090006V2.711H7.348ZM9.23-.873C8.955-1.087 8.71-1.302 8.496-1.516 8.25-1.179 8.021-.866 7.807-.574 7.592-.284 7.302 .061 6.934 .459 7.148 .612 7.378 .796 7.623 1.011 8.48 .061 9.016-.567 9.23-.873" fill="#2c292a"/>
<path transform="matrix(1,0,0,-1,253.8665,254.4653)" d="M0 0C-.303-.44-.55-.825-.743-1.156-.907-.964-1.141-.771-1.444-.578-.922-.028-.461 .598-.062 1.3 .337 2.002 .632 2.738 .825 3.508 1.017 3.37 1.334 3.233 1.774 3.096 1.609 2.875 1.279 2.284 .784 1.321V-4.045C.784-4.898 .797-5.585 .825-6.108H-.041C-.014-5.668 0-4.967 0-4.003ZM2.785 1.775C3.128 2.6 3.3 3.137 3.3 3.384 3.63 3.246 3.987 3.137 4.373 3.054 4.208 2.916 3.96 2.49 3.63 1.775H7.962C7.879 1.527 7.756 1.19 7.591 .764 7.426 .337 7.274-.069 7.137-.454 6.862-.371 6.586-.303 6.312-.248 6.504 .165 6.683 .605 6.848 1.073H3.342C3.012 .357 2.626-.303 2.187-.908 1.966-.771 1.677-.66 1.32-.578 1.953 .165 2.44 .949 2.785 1.775M3.053-1.403C3.383-1.568 3.644-1.706 3.837-1.816 3.672-2.091 3.424-2.476 3.094-2.972 2.764-3.467 2.393-3.962 1.98-4.458 1.76-4.265 1.54-4.086 1.32-3.921 2.007-3.206 2.585-2.367 3.053-1.403M4.125-5.138C4.29-5.07 4.373-4.926 4.373-4.705V-1.238C4.373-.578 4.359-.097 4.332 .206H5.198C5.17-.097 5.157-.578 5.157-1.238V-5.159C5.157-5.516 5.005-5.758 4.703-5.881 4.4-6.005 3.987-6.108 3.465-6.191 3.41-5.916 3.273-5.599 3.053-5.242 3.603-5.242 3.96-5.207 4.125-5.138M8.21-3.88C8.044-3.99 7.783-4.155 7.426-4.375 6.958-3.495 6.421-2.614 5.817-1.733 6.091-1.568 6.312-1.431 6.477-1.321 7.137-2.229 7.714-3.082 8.21-3.88" fill="#2c292a"/>
<path transform="matrix(1,0,0,-1,265.5222,253.10321)" d="M0 0H1.856C1.829-.468 1.815-1.06 1.815-1.775V-5.407C1.815-5.82 1.829-6.412 1.856-7.182H1.031V-6.356H-1.073V-7.264H-1.898C-1.871-6.384-1.857-5.834-1.857-5.613V-1.816C-1.857-1.073-1.871-.468-1.898 0H-.701C-.564 .633-.454 1.293-.371 1.981 .013 1.843 .33 1.747 .577 1.692 .44 1.445 .247 .88 0 0M1.031-.702H-1.0730001V-2.7659999H1.031ZM1.031-3.467H-1.0730001V-5.6549999H1.031ZM6.518-6.232C6.462-6.728 6.202-7.058 5.734-7.223 5.266-7.388 4.744-7.498 4.166-7.553 4.139-7.25 4.015-6.934 3.795-6.604 4.345-6.631 4.778-6.617 5.095-6.562 5.411-6.508 5.61-6.384 5.693-6.191 5.775-5.999 5.837-5.435 5.879-4.499 5.92-3.564 5.954-2.257 5.982-.578H3.589C3.368-1.101 3.053-1.72 2.64-2.435 2.447-2.243 2.213-2.091 1.939-1.981 2.186-1.651 2.42-1.252 2.64-.784 2.86-.317 3.053 .192 3.218 .743 3.383 1.293 3.479 1.719 3.507 2.022 3.891 1.857 4.221 1.733 4.496 1.651 4.359 1.43 4.242 1.19 4.146 .929 4.049 .667 3.946 .413 3.836 .165H6.766C6.738-.413 6.724-.949 6.724-1.445 6.696-3.123 6.628-4.719 6.518-6.232M4.29-3.137C4.455-3.467 4.647-3.894 4.868-4.416 4.675-4.499 4.414-4.637 4.084-4.829 3.891-4.307 3.713-3.859 3.548-3.488 3.383-3.116 3.218-2.807 3.053-2.559 3.245-2.449 3.492-2.311 3.795-2.146Z" fill="#2c292a"/>
<path transform="matrix(1,0,0,-1,275.3625,252.40161)" d="M0 0C0 .468-.014 .894-.041 1.279H.825C.797 .949 .784 .522 .784 0V-.908C1.141-.908 1.526-.894 1.939-.867V-1.692C1.526-1.665 1.141-1.651 .784-1.651V-3.095C.839-3.041 1.004-2.917 1.279-2.724 1.636-3.275 1.952-3.756 2.228-4.169 1.952-4.334 1.718-4.485 1.526-4.623 1.251-4.127 1.004-3.701 .784-3.343V-6.397C.784-6.975 .797-7.553 .825-8.131H-.041C.013-7.525 .027-6.948 0-6.397V-3.549C-.275-4.21-.688-4.926-1.238-5.696-1.458-5.338-1.637-5.077-1.774-4.911-1.472-4.609-1.155-4.183-.825-3.632-.495-3.082-.234-2.422-.041-1.651-.454-1.651-.894-1.665-1.361-1.692V-.867C-.866-.894-.413-.908 0-.908ZM2.393-2.848C2.558-2.848 2.805-2.69 3.135-2.373 3.465-2.057 3.795-1.568 4.125-.908L4.992-1.403C4.771-1.541 4.558-1.733 4.352-1.981 4.146-2.229 3.878-2.518 3.548-2.848L5.363-2.807C5.637-2.449 5.858-2.05 6.023-1.61L6.972-2.022C6.834-2.105 6.642-2.339 6.394-2.724 6.147-3.11 5.789-3.564 5.322-4.086 4.854-4.609 4.4-5.042 3.96-5.386 3.52-5.731 3.053-6.054 2.558-6.356 2.365-6.136 2.131-5.916 1.856-5.696 2.434-5.476 2.984-5.166 3.506-4.767 4.029-4.369 4.482-3.935 4.868-3.467 4.428-3.467 4.043-3.481 3.713-3.508 3.383-3.536 3.025-3.591 2.64-3.673ZM7.157-4.457C6.951-4.761 6.669-5.146 6.312-5.613 6.861-6.108 7.281-6.508 7.57-6.81 7.859-7.113 8.017-7.278 8.044-7.305 7.797-7.47 7.535-7.69 7.26-7.966 7.095-7.718 6.896-7.456 6.662-7.182 6.428-6.907 6.119-6.577 5.734-6.191 5.349-6.549 4.992-6.845 4.662-7.078 4.332-7.312 3.981-7.525 3.61-7.718 3.238-7.91 2.86-8.09 2.475-8.255 2.337-7.979 2.131-7.732 1.856-7.512 2.599-7.291 3.259-7.003 3.836-6.645 4.414-6.288 4.909-5.896 5.322-5.469 5.734-5.042 6.057-4.65 6.291-4.292 6.524-3.935 6.696-3.618 6.807-3.343 7.081-3.536 7.384-3.701 7.714-3.838 7.549-3.949 7.364-4.155 7.157-4.457M2.269-.867V-.041C2.626-.097 2.997-.124 3.383-.124H6.477C6.916-.124 7.37-.097 7.838-.041V-.867C7.37-.84 6.916-.825 6.477-.825H3.011C2.764-.825 2.516-.84 2.269-.867M5.693 .33C5.28 .165 5.005 .027 4.868-.083 4.675 .385 4.469 .756 4.249 1.032 4.662 1.224 4.936 1.348 5.074 1.403 5.239 1.128 5.445 .77 5.693 .33" fill="#2c292a"/>
<path transform="matrix(1,0,0,-1,285.9865,255.8479)" d="M0 0C-.138-.702-.33-1.548-.578-2.538-.908-2.429-1.238-2.346-1.568-2.291-1.183-1.19-.894 .075-.701 1.506-.454 1.451-.11 1.383 .33 1.3 .247 1.135 .137 .702 0 0M2.31 .392V-3.157C2.31-3.488 2.475-3.653 2.805-3.653H4.744C5.046-3.68 5.246-3.605 5.342-3.426 5.438-3.247 5.514-2.841 5.569-2.208 5.844-2.429 6.16-2.58 6.518-2.662 6.325-3.543 6.132-4.072 5.94-4.251 5.748-4.43 5.514-4.505 5.239-4.478H2.228C1.733-4.478 1.457-4.175 1.403-3.57V.351C1.403 .901 1.388 1.41 1.361 1.878H2.351C2.324 1.548 2.31 1.052 2.31 .392M4.373 2.703C4.043 2.538 3.74 2.359 3.465 2.167 3.025 3.075 2.599 3.818 2.186 4.396 2.434 4.533 2.681 4.698 2.929 4.891 3.231 4.368 3.713 3.638 4.373 2.703M8.085-.97C7.783-1.108 7.494-1.3 7.219-1.548 6.642-.448 6.078 .46 5.528 1.176 5.775 1.314 6.023 1.479 6.27 1.672 6.903 .791 7.508-.09 8.085-.97" fill="#2c292a"/>
<path transform="matrix(1,0,0,-1,301.3961,254.09381)" d="M0 0H1.403C1.98 0 2.599 .014 3.259 .041V-.743C2.599-.688 1.98-.66 1.403-.66H-4.95C-5.446-.66-5.955-.688-6.477-.743V.041C-5.927 .014-5.418 0-4.95 0H-3.589C-3.727 .357-3.933 .702-4.208 1.032-3.96 1.114-3.686 1.238-3.383 1.403-3.135 1.018-2.915 .646-2.723 .289L-3.465 0H-.784C-.647 .413-.509 .88-.371 1.403-.014 1.321 .33 1.238 .66 1.156 .357 .715 .137 .33 0 0M1.815-2.6C1.815-2.93 1.829-3.33 1.856-3.797H-.165V-5.035C-.138-5.476 .082-5.709 .495-5.737H1.279C1.746-5.709 2.021-5.627 2.104-5.489 2.186-5.352 2.282-5.063 2.393-4.623 2.612-4.788 2.915-4.939 3.3-5.077 3.135-5.517 2.949-5.847 2.743-6.067 2.537-6.287 2.255-6.397 1.898-6.397H-.165C-.688-6.397-.949-6.15-.949-5.654V-3.797H-2.187C-2.242-4.292-2.372-4.705-2.578-5.035-2.785-5.366-3.053-5.627-3.383-5.82-3.713-6.012-4.084-6.177-4.497-6.315-4.909-6.452-5.349-6.562-5.817-6.645-5.899-6.37-6.051-6.108-6.271-5.861-4.95-5.696-4.105-5.448-3.733-5.118-3.362-4.788-3.149-4.348-3.094-3.797H-5.033C-5.006-3.412-4.992-3.027-4.992-2.641-4.992-2.256-5.006-1.844-5.033-1.403H1.856C1.829-1.844 1.815-2.243 1.815-2.6M-.866 2.146H1.237C1.65 2.146 2.117 2.16 2.64 2.188V1.445C2.117 1.472 1.65 1.486 1.237 1.486H-4.249C-4.909 1.486-5.501 1.472-6.023 1.445V2.188C-5.501 2.16-4.923 2.146-4.29 2.146H-1.857C-1.967 2.366-2.104 2.669-2.269 3.054-1.939 3.081-1.595 3.123-1.238 3.178-1.073 2.738-.949 2.394-.866 2.146M.99-2.064H-4.167V-3.1369999H.99ZM.99-3.137" fill="#2c292a"/>
<path transform="matrix(1,0,0,-1,313.7527,253.84619)" d="M0 0C-.028-.386-.041-.922-.041-1.61H.413C.797-1.61 1.141-1.596 1.444-1.568V-2.27C1.169-2.243 .839-2.229 .454-2.229H-.041C-.041-3.302-.028-4.018 0-4.375H-.825V-3.962H-3.094V-5.778C-3.122-6.191-3.266-6.439-3.527-6.521-3.789-6.604-4.181-6.686-4.703-6.769-4.785-6.439-4.923-6.122-5.115-5.82-4.511-5.847-4.153-5.826-4.043-5.758-3.933-5.689-3.878-5.558-3.878-5.366V-3.962H-6.848V-3.302C-6.436-3.33-5.996-3.343-5.528-3.343H-3.878V-2.229H-6.477C-6.945-2.229-7.412-2.243-7.879-2.27V-1.568C-7.412-1.596-7-1.61-6.642-1.61H-3.878V-.578H-5.198C-5.583-.578-6.009-.592-6.477-.619V-.083C-6.697-.303-6.958-.537-7.26-.784-7.316-.675-7.508-.509-7.838-.289-7.316 .068-6.807 .557-6.312 1.176-5.817 1.795-5.432 2.394-5.157 2.972-4.964 2.807-4.676 2.683-4.29 2.6-4.455 2.462-4.586 2.332-4.682 2.208-4.779 2.084-4.882 1.953-4.992 1.816H-1.32C-1.541 1.513-1.939 .908-2.516 0ZM-5.404 1.114C-5.679 .784-5.996 .426-6.353 .041-6.023 .014-5.693 0-5.363 0H-3.341C-3.149 .357-2.943 .729-2.723 1.114ZM-.825-.578H-3.094V-1.6099999H-.825ZM-.825-2.229H-3.094V-3.343H-.825ZM-.825-3.343" fill="#2c292a"/>
<path transform="matrix(1,0,0,-1,321.1591,254.21759)" d="M0 0C-.082-.963-.206-1.733-.371-2.311-.536-2.889-.763-3.419-1.052-3.9-1.341-4.382-1.719-4.836-2.186-5.262-2.654-5.689-3.218-6.108-3.878-6.521-4.016-6.301-4.29-6.067-4.703-5.82-4.043-5.489-3.493-5.146-3.053-4.788-2.613-4.43-2.235-4.024-1.918-3.57-1.602-3.116-1.368-2.6-1.217-2.022-1.066-1.445-.963-.771-.907 0H-2.104C-2.902 0-3.63-.014-4.29-.041V.784C-3.63 .756-2.902 .743-2.104 .743H-.866V1.981C-.866 2.366-.88 2.765-.907 3.178-.605 3.123-.262 3.081 .124 3.054 .068 2.807 .034 2.449 .021 1.981 .006 1.513 0 1.1 0 .743H4.208C4.098-.743 4.029-1.768 4.002-2.332 3.974-2.896 3.919-3.584 3.837-4.396 3.754-5.208 3.527-5.709 3.156-5.902 2.785-6.094 2.145-6.232 1.238-6.315 1.21-5.985 1.073-5.627 .825-5.242 1.622-5.269 2.159-5.228 2.434-5.118 2.709-5.008 2.867-4.802 2.908-4.499 2.95-4.196 2.991-3.804 3.032-3.322 3.073-2.841 3.135-1.733 3.218 0Z" fill="#2c292a"/>
<path transform="matrix(1,0,0,-1,276.3254,268.6243)" d="M0 0C.467 0 .99 .014 1.568 .041V-.702C.99-.675 .467-.66 0-.66H-2.64V-1.692C-1.018-1.692 .041-1.679 .536-1.651V-2.394C.041-2.367-1.018-2.353-2.64-2.353V-3.591C-2.118-3.673-1.472-3.715-.701-3.715 .068-3.715 .921-3.66 1.856-3.549 1.636-3.852 1.499-4.182 1.444-4.54H-.66C-1.265-4.54-1.829-4.505-2.351-4.437-2.874-4.368-3.39-4.237-3.898-4.045-4.408-3.852-4.95-3.508-5.528-3.013-5.638-3.234-5.796-3.488-6.002-3.776-6.208-4.065-6.518-4.416-6.931-4.829-7.206-4.608-7.481-4.416-7.756-4.251-7.206-3.921-6.752-3.44-6.394-2.807-6.037-2.174-5.831-1.583-5.776-1.032L-4.785-1.321C-4.868-1.431-5.006-1.748-5.198-2.27-4.703-2.793-4.112-3.165-3.424-3.384V-.66H-6.064C-6.559-.66-7.082-.675-7.632-.702V.041C-7.054 .014-6.532 0-6.064 0ZM-.041 2.765C-.041 2.049-.028 1.376 0 .743H-6.147C-6.12 1.376-6.105 2.049-6.105 2.765-6.105 3.508-6.12 4.086-6.147 4.499H0C-.028 4.086-.041 3.508-.041 2.765M-.866 3.838H-5.28V3.013H-.866ZM-.866 2.311H-5.28V1.4440001H-.866ZM-.866 1.445" fill="#2c292a"/>
<path transform="matrix(1,0,0,-1,282.1643,265.0748)" d="M0 0C-.165-.303-.33-.633-.495-.991V-6.645C-.495-7.36-.481-7.924-.454-8.337H-1.403C-1.375-7.869-1.361-7.332-1.361-6.728V-2.518C-1.691-3.095-2.049-3.646-2.434-4.169-2.599-3.976-2.805-3.77-3.053-3.549-2.558-3.054-2.036-2.27-1.485-1.197-.935-.124-.592 .702-.454 1.279-.151 1.087 .165 .935 .495 .825 .33 .578 .165 .302 0 0M2.64-2.105V-.041C2.64 .344 2.626 .756 2.599 1.197H3.548C3.492 .756 3.465 .344 3.465-.041V-2.105H5.157C5.514-2.105 5.94-2.091 6.436-2.064V-2.889C5.967-2.862 5.555-2.848 5.198-2.848H3.465V-6.893C3.465-7.332 3.479-7.786 3.506-8.255H2.599C2.626-7.814 2.64-7.374 2.64-6.934V-2.848H1.196C.756-2.848 .33-2.862-.083-2.889V-2.064C.33-2.091 .743-2.105 1.155-2.105Z" fill="#2c292a"/>
<path transform="matrix(1,0,0,-1,294.1703,265.5495)" d="M0 0C-.371-.592-.846-1.218-1.423-1.878-2.001-2.538-2.785-3.281-3.775-4.107-3.967-3.804-4.187-3.557-4.435-3.364-3.747-2.979-2.977-2.284-2.124-1.279-1.272-.275-.639 .695-.227 1.63 .13 1.383 .433 1.203 .681 1.094 .598 .956 .371 .591 0 0M1.444-2.291C.99-2.924 .419-3.611-.268-4.354-.956-5.097-1.561-5.703-2.083-6.17-1.479-6.143-.688-6.102 .289-6.047 1.265-5.992 2.207-5.937 3.115-5.881 2.674-5.111 2.303-4.519 2.001-4.107 2.275-3.942 2.509-3.763 2.702-3.57 3.142-4.176 3.568-4.788 3.981-5.407 4.393-6.026 4.751-6.611 5.054-7.161 4.861-7.216 4.572-7.394 4.187-7.697 4.022-7.367 3.816-7.009 3.568-6.624 2.221-6.68 .784-6.776-.743-6.913-2.269-7.051-3.115-7.174-3.279-7.285-3.39-6.955-3.513-6.611-3.651-6.253-3.238-6.226-2.516-5.675-1.485-4.602-.454-3.529 .529-2.14 1.465-.433 1.739-.681 2.056-.902 2.413-1.094 2.221-1.259 1.898-1.658 1.444-2.291" fill="#2c292a"/>
<path transform="matrix(1,0,0,-1,303.0815,264.7971)" d="M0 0C.697 .082 1.26-.288 1.689-1.113 1.957-2.047 1.595-2.981 .603-3.915 .281-4.41 .121-4.945 .121-5.522H-.603C-.63-4.506-.188-3.544 .724-2.638 .938-2.308 1.032-1.951 1.006-1.566 .845-1.017 .536-.756 .08-.783H-.081C-.644-.811-.912-1.236-.885-2.061H-1.649C-1.676-1.045-1.341-.412-.644-.165-.537-.082-.322-.028 0 0M-.764-6.388H.36200006V-7.583H-.764Z" fill="#2c292a"/>
</g>
<path transform="matrix(1,0,0,-1,138.2356,237.33899)" d="M0 0H6.775V6.579H8.967V0H15.542V-2.392H8.967V-8.971H6.775V-2.392H0Z" fill="#2c292a"/>
<path transform="matrix(1,0,0,-1,228.8987,237.93701)" d="M0 0H6.775V6.778H8.967V0H15.542V-2.193H8.967V-8.971H6.775V-2.193H0Z" fill="#2c292a"/>
<path transform="matrix(1,0,0,-1,192.7375,293.7858)" d="M0 0H-3.188-6.376L-3.188-6.379ZM-2.125 14.885H-4.25V-1.5949993H-2.125Z" fill="#2c292a"/>
</g>
</g>
</svg>
