<svg xmlns="http://www.w3.org/2000/svg" xmlns:xlink="http://www.w3.org/1999/xlink" xmlns:inkscape="http://www.inkscape.org/namespaces/inkscape" version="1.1" width="411.024" height="595.276" viewBox="0 0 411.024 595.276">
<defs>
<clipPath id="clip_1">
<path transform="matrix(1,0,0,-1,0,595.276)" d="M0 0H411.024V595.276H0Z"/>
</clipPath>
<clipPath id="clip_2">
<path transform="matrix(1,0,0,-1,0,595.276)" d="M0 0H411.024V595.276H0Z"/>
</clipPath>
<path id="font_3_5" d="M.45999146 .19407654C.45999146 .28303529 .4229889 .34100343 .35099793 .36799623 .4149933 .39700318 .44699098 .450943 .44699098 .52586367 .44699098 .64175418 .36698915 .71875 .25099183 .71875 .14299011 .71875 .05899048 .6507416 .050994874 .53585818H.12298584C.12998963 .60879519 .17599488 .6547394 .25099183 .6547394 .31999208 .6547394 .375 .609787 .375 .5248718 .375 .4449463 .33499146 .3959961 .24798584 .3959961H.23298645V.3330078H.24798584C.34498597 .3330078 .3880005 .28103639 .3880005 .19508362 .3880005 .10812378 .32798768 .057159425 .25099183 .057159425 .18299866 .057159425 .11999512 .09213257 .11399841 .18109131H.041992189C.04798889 .05215454 .13899231-.0068359377 .25099183-.0068359377 .36698915-.0068359377 .45999146 .06315613 .45999146 .19407654Z"/>
<path id="font_3_6" d="M.48199464 .11273193V.17773438H.394989V.37979127H.32398988V.17773438H.116989139L.37399293 .71191409H.29699708L.039993287 .17773438V.11273193H.32398988V0H.394989V.11273193H.48199464Z"/>
<clipPath id="clip_4">
<path transform="matrix(1,0,0,-1,0,595.276)" d="M0 0H411.024V595.276H0Z"/>
</clipPath>
<clipPath id="clip_5">
<path transform="matrix(1,0,0,-1,0,595.276)" d="M0 0H411.024V595.276H0Z"/>
</clipPath>
<clipPath id="clip_6">
<path transform="matrix(1,0,0,-1,0,595.276)" d="M0 0H411.024V595.276H0Z"/>
</clipPath>
<clipPath id="clip_7">
<path transform="matrix(1,0,0,-1,0,595.276)" d="M0 0H411.024V595.276H0Z"/>
</clipPath>
</defs>
<g clip-path="url(#clip_1)">
<g clip-path="url(#clip_2)">
<use data-text="3" xlink:href="#font_3_5" transform="matrix(9,0,0,-9,363.685,567.547)" fill="#f43040"/>
<use data-text="4" xlink:href="#font_3_6" transform="matrix(9,0,0,-9,367.285,567.547)" fill="#f43040"/>
<use data-text="3" xlink:href="#font_3_5" transform="matrix(9,0,0,-9,370.885,567.547)" fill="#f43040"/>
<path transform="matrix(1,0,0,-1,0,595.276)" d="M.554 0H411.02299V595.275H.554Z" fill="#f43040"/>
<g clip-path="url(#clip_4)">
<path transform="matrix(1,0,0,-1,189.2587,237.7154)" d="M0 0C.01 10.367 8.397 18.757 18.742 18.757 29.087 18.757 37.474 10.367 37.474 .016 37.474-10.334 29.087-18.725 18.742-18.725 8.397-18.725 .01-10.334 0 0" fill="#f43040"/>
<path transform="matrix(1,0,0,-1,189.2587,237.7154)" stroke-width="1.5" stroke-linecap="butt" stroke-miterlimit="10" stroke-linejoin="miter" fill="none" stroke="#ffffff" d="M0 0C.01 10.367 8.397 18.757 18.742 18.757 29.087 18.757 37.474 10.367 37.474 .016 37.474-10.334 29.087-18.725 18.742-18.725 8.397-18.725 .01-10.334 0 0"/>
<path transform="matrix(1,0,0,-1,207.3666,238.32682)" d="M0 0C0-.835 .015-1.491 .045-1.968H-.894V-1.342H-6.973C-7.033-1.819-7.167-2.288-7.375-2.75-7.584-3.213-7.941-3.756-8.448-4.382-8.687-4.084-8.984-3.875-9.342-3.756-8.955-3.399-8.649-3.041-8.425-2.683-8.202-2.325-8.038-1.931-7.934-1.498-7.83-1.066-7.777-.581-7.777-.045-7.777 .492-7.793 1.103-7.822 1.789H.045C.015 1.431 0 .834 0 0M-4.336 5.187C-4.336 5.635-4.351 5.948-4.38 6.126H-3.397C-3.427 5.948-3.442 5.635-3.442 5.187H-1.028C-.373 5.187 .238 5.202 .805 5.232V4.427C.238 4.456-.373 4.472-1.028 4.472H-3.442V3.309H-1.698C-1.043 3.309-.418 3.324 .179 3.354V2.549C-.418 2.578-1.043 2.594-1.698 2.594H-6.302C-6.958 2.594-7.509 2.578-7.956 2.549V3.354C-7.48 3.324-6.943 3.309-6.347 3.309H-4.336V4.472H-6.794C-7.539 4.472-8.165 4.456-8.671 4.427V5.232C-8.135 5.202-7.509 5.187-6.794 5.187ZM-4.336 1.029H-6.7939999V-.6259999H-4.336ZM-.894 1.029H-3.4420002V-.6259999H-.894ZM-.894-.626" fill="#ffffff"/>
<path transform="matrix(1,0,0,-1,217.6709,237.03)" d="M0 0H-5.542C-5.989-.418-6.615-.85-7.42-1.297-7.539-1.089-7.733-.894-8.001-.715-7.405-.447-6.816-.082-6.235 .38-5.654 .842-5.185 1.371-4.827 1.968-6.109 1.968-7.062 1.952-7.688 1.923V2.683C-7.062 2.653-6.541 2.638-6.123 2.638H-1.386C-.82 3.473-.447 4.174-.268 4.74 0 4.561 .297 4.412 .626 4.293 .506 4.143 .342 3.928 .134 3.645-.075 3.361-.298 3.025-.536 2.638 .626 2.638 1.475 2.653 2.011 2.683V1.923C1.475 1.952 .521 1.968-.849 1.968-.641 1.61-.283 1.214 .223 .783 .73 .35 1.415 .015 2.28-.224 2.041-.402 1.847-.626 1.698-.894 1.013-.656 .447-.358 0 0M-6.481 3.98C-6.302 4.129-6.139 4.308-5.989 4.517-5.513 4.188-5.081 3.83-4.693 3.443-4.902 3.264-5.066 3.041-5.185 2.773-5.632 3.19-6.064 3.592-6.481 3.98M.402-4.248C.402-4.665 .417-5.113 .447-5.59H-.358V-5.098H-5.319V-5.679H-6.079C-6.049-5.232-6.034-4.785-6.034-4.338-6.034-3.861-6.049-3.414-6.079-2.996H.447C.417-3.414 .402-3.831 .402-4.248M-1.341-.626C-.954-.626-.432-.611 .223-.581V-1.252C-.432-1.223-.954-1.207-1.341-1.207H-4.514C-4.932-1.207-5.364-1.223-5.81-1.252V-.581C-5.334-.611-4.902-.626-4.514-.626ZM-1.296-1.789C-.611-1.789-.105-1.774 .223-1.744V-2.415C-.373-2.385-.879-2.37-1.296-2.37H-4.47C-4.857-2.37-5.304-2.385-5.81-2.415V-1.744C-5.304-1.774-4.857-1.789-4.47-1.789ZM-.358-3.622H-5.319V-4.472H-.358ZM-2.727 1.655C-2.518 1.207-2.339 .834-2.19 .537H-.626C-1.043 .954-1.401 1.431-1.698 1.968H-3.978C-4.276 1.49-4.648 1.013-5.095 .537H-3.084C-3.174 .805-3.307 1.088-3.486 1.386-3.218 1.446-2.965 1.535-2.727 1.655M-2.369 3.399-2.995 2.951C-3.263 3.428-3.636 3.905-4.112 4.382-3.933 4.501-3.74 4.651-3.531 4.83-3.055 4.322-2.667 3.846-2.369 3.399" fill="#ffffff"/>
<path transform="matrix(1,0,0,-1,248.1977,305.3234)" d="M0 0C-.081 10.316 8.305 18.707 18.651 18.707 28.996 18.707 37.383 10.316 37.383-.035 37.383-10.385 28.996-18.776 18.651-18.776 8.305-18.776-.081-10.385 0 0" fill="#f43040"/>
<path transform="matrix(1,0,0,-1,248.1977,305.3234)" stroke-width="1.5" stroke-linecap="butt" stroke-miterlimit="10" stroke-linejoin="miter" fill="none" stroke="#ffffff" d="M0 0C-.081 10.316 8.305 18.707 18.651 18.707 28.996 18.707 37.383 10.316 37.383-.035 37.383-10.385 28.996-18.776 18.651-18.776 8.305-18.776-.081-10.385 0 0"/>
<path transform="matrix(1,0,0,-1,265.0275,305.0295)" d="M0 0V-.939C-.418-1.029-.798-1.17-1.14-1.364-1.483-1.558-1.877-1.759-2.324-1.968V-2.37H.492C.849-2.37 1.311-2.355 1.877-2.325V-3.22C1.281-3.19 .819-3.175 .492-3.175H-2.324V-5.008C-2.324-5.426-2.488-5.686-2.816-5.791-3.144-5.895-3.681-5.977-4.425-6.037-4.515-5.709-4.664-5.381-4.872-5.053H-3.665C-3.368-5.053-3.218-4.889-3.218-4.561V-3.175H-6.302C-6.779-3.175-7.316-3.19-7.911-3.22V-2.325C-7.286-2.355-6.765-2.37-6.347-2.37H-3.218C-3.218-2.132-3.248-1.863-3.308-1.565L-1.698-.76H-4.157C-4.723-.76-5.364-.776-6.079-.805V.045C-5.424 .015-4.798 0-4.202 0ZM-.671 2.012H1.788C1.758 1.744 1.743 1.431 1.743 1.073 1.743 .716 1.758 .373 1.788 .045H.849V1.252H-6.883V0H-7.822C-7.793 .358-7.777 .716-7.777 1.073-7.777 1.431-7.793 1.744-7.822 2.012H-1.609C-1.371 2.43-1.125 2.869-.872 3.332-.619 3.794-.418 4.248-.268 4.695 .208 4.427 .581 4.233 .849 4.114 .253 3.428-.254 2.728-.671 2.012M-5.095 2.862C-5.424 2.623-5.677 2.399-5.855 2.191-6.243 2.757-6.69 3.249-7.196 3.667-6.869 3.905-6.631 4.099-6.481 4.248-5.945 3.801-5.483 3.339-5.095 2.862M-2.324 2.996C-2.592 2.787-2.876 2.594-3.174 2.415-3.412 2.891-3.77 3.428-4.246 4.025-3.949 4.233-3.681 4.412-3.442 4.561-2.876 3.846-2.503 3.324-2.324 2.996" fill="#ffffff"/>
<path transform="matrix(1,0,0,-1,270.7726,303.8221)" d="M0 0C-.03-.537-.045-1.163-.045-1.878V-4.472C.253-4.174 .581-3.801 .939-3.354 1.057-3.652 1.222-3.965 1.43-4.293 .983-4.711 .603-5.098 .29-5.456-.022-5.813-.343-6.201-.67-6.618-.879-6.29-1.133-6.022-1.43-5.813-1.103-5.545-.939-5.247-.939-4.919V-.76C-1.594-.76-2.116-.776-2.503-.805V.045C-2.145 .015-1.743 0-1.296 0ZM.715 1.699C.447 1.52 .193 1.297-.045 1.029-.611 1.893-1.058 2.504-1.386 2.862-1.148 3.011-.909 3.204-.67 3.443 .015 2.668 .476 2.086 .715 1.699M2.682-5.456C2.264-6.022 1.802-6.588 1.296-7.155 1.147-6.976 .909-6.767 .581-6.529 1.743-5.307 2.503-4.293 2.861-3.488 3.158-3.697 3.456-3.891 3.754-4.069 3.456-4.427 3.099-4.89 2.682-5.456M6.973-.045C6.973-1.268 6.987-2.147 7.017-2.683H1.698C1.728-2.176 1.743-1.297 1.743-.045 1.743 1.207 1.728 2.131 1.698 2.728H7.017C6.987 2.131 6.973 1.207 6.973-.045M6.034 1.878H2.682V-1.9230001H6.034ZM8.001-6.261C7.672-6.499 7.39-6.737 7.151-6.976 6.555-6.082 5.825-5.128 4.961-4.114 5.2-3.965 5.438-3.742 5.677-3.443 6.809-4.725 7.583-5.665 8.001-6.261" fill="#ffffff"/>
<path transform="matrix(1,0,0,-1,130.9674,305.3234)" d="M0 0C.054 10.316 8.441 18.707 18.786 18.707 29.131 18.707 37.518 10.316 37.518-.035 37.518-10.385 29.131-18.776 18.786-18.776 8.441-18.776 .054-10.385 0 0" fill="#f43040"/>
<path transform="matrix(1,0,0,-1,130.9674,305.3234)" stroke-width="1.5" stroke-linecap="butt" stroke-miterlimit="10" stroke-linejoin="miter" fill="none" stroke="#ffffff" d="M0 0C.054 10.316 8.441 18.707 18.786 18.707 29.131 18.707 37.518 10.316 37.518-.035 37.518-10.385 29.131-18.776 18.786-18.776 8.441-18.776 .054-10.385 0 0"/>
<path transform="matrix(1,0,0,-1,142.6736,302.9758)" d="M0 0V-5.724C0-6.678 .015-7.438 .045-8.005H-.983C-.954-7.468-.939-6.723-.939-5.769V-1.565C-1.356-2.251-1.758-2.833-2.145-3.309-2.384-2.951-2.592-2.699-2.771-2.549-2.384-2.132-1.915-1.439-1.363-.47-.812 .499-.402 1.49-.134 2.504 .194 2.295 .581 2.102 1.028 1.923 .76 1.714 .417 1.073 0 0M3.174 .402H6.124C6.779 .402 7.3 .417 7.688 .447V-.358C7.3-.328 6.779-.313 6.124-.313H4.067V-2.057H5.9C6.406-2.057 6.823-2.042 7.152-2.012V-2.862C6.764-2.833 6.347-2.817 5.9-2.817H4.067V-4.83H5.989C6.585-4.83 7.077-4.815 7.464-4.785V-5.635C7.077-5.605 6.6-5.59 6.034-5.59H4.067V-6.44C4.067-7.274 4.082-7.841 4.112-8.139H3.174C3.203-7.81 3.218-7.363 3.218-6.797V-.313H2.771C2.324-1.089 1.892-1.759 1.475-2.325 1.147-2.028 .864-1.833 .626-1.744 1.043-1.327 1.475-.731 1.922 .045 2.369 .82 2.727 1.655 2.995 2.549 3.442 2.34 3.829 2.191 4.157 2.102 3.859 1.863 3.531 1.297 3.174 .402" fill="#ffffff"/>
<path transform="matrix(1,0,0,-1,155.3469,310.6227)" d="M0 0V.716H-2.414V-.045H-3.263C-3.234 .463-3.218 1.267-3.218 2.37-3.218 3.503-3.234 4.322-3.263 4.83H.849C.789 4.322 .76 3.607 .76 2.683 .76 1.789 .789 .894 .849 0ZM0 4.025H-2.414V1.5210002H0ZM4.425 7.602C4.425 6.946 4.44 6.365 4.47 5.858H-1.654C-1.594 6.365-1.564 6.961-1.564 7.647-1.564 8.332-1.594 8.928-1.654 9.436H4.47C4.44 8.899 4.425 8.288 4.425 7.602M3.62 8.675H-.7600002V6.618H3.62ZM6.123 2.37C6.123 1.297 6.138 .537 6.168 .089H5.319V.716H2.771V-.045H1.922C1.951 .463 1.967 1.267 1.967 2.37 1.967 3.473 1.951 4.293 1.922 4.83H6.168C6.138 4.293 6.123 3.473 6.123 2.37M5.319 4.025H2.7709997V1.5210002H5.319ZM5.319 1.52" fill="#ffffff"/>
</g>
<path transform="matrix(1,0,0,-1,163.5114,328.5864)" d="M0 0-1.734-1.287-3.467-2.575-4.307 2.181ZM95.781 3.769 95.278 2.984 94.76 2.204 94.231 1.431 93.689 .668 93.137-.087 92.573-.833 91.997-1.569 91.411-2.297 90.813-3.015 90.205-3.724 89.586-4.423 88.957-5.112 88.317-5.791 87.666-6.461 87.006-7.12 86.335-7.769 85.655-8.408 84.964-9.036 84.264-9.654 83.555-10.261 82.836-10.857 82.107-11.442 81.37-12.016 80.623-12.579 79.867-13.13 79.103-13.67 78.33-14.198 77.548-14.714 76.758-15.219 75.959-15.712 75.153-16.192 74.338-16.66 73.516-17.116 72.687-17.558 72.267-17.776 71.847-17.989 71.425-18.2 71.002-18.407 70.576-18.611 70.149-18.812 69.719-19.01 69.288-19.204 68.856-19.395 68.421-19.583 67.985-19.767 67.547-19.948 67.107-20.126 66.665-20.3 66.222-20.471 65.777-20.638 65.33-20.802 64.882-20.963 64.432-21.12 63.981-21.274 63.528-21.424 63.073-21.571 62.617-21.714 62.159-21.854 61.7-21.99 61.239-22.123 60.777-22.252 60.313-22.377 59.848-22.499 59.381-22.617 58.913-22.732 58.443-22.843 57.972-22.95 57.5-23.054 57.026-23.153 56.551-23.25 56.075-23.342 55.597-23.431 55.118-23.515 54.637-23.596 54.156-23.674 53.673-23.747 53.189-23.817 52.703-23.883 52.217-23.945 51.729-24.003 51.24-24.057 50.75-24.107 50.259-24.153 49.766-24.196 49.273-24.234 48.778-24.268 48.282-24.299 47.786-24.325 47.288-24.348 46.789-24.366 46.289-24.38 45.788-24.391 45.287-24.397 44.784-24.399 44.301-24.397 43.819-24.391 43.338-24.382 42.858-24.369 42.379-24.352 41.901-24.331 41.424-24.307 40.947-24.279 40.472-24.247 39.998-24.211 39.525-24.172 39.052-24.13 38.581-24.083 38.111-24.033 37.642-23.98 37.174-23.923 36.708-23.862 36.242-23.798 35.777-23.73 35.314-23.658 34.852-23.584 34.391-23.505 33.931-23.423 33.472-23.338 33.015-23.249 32.559-23.157 32.104-23.061 31.65-22.962 31.198-22.86 30.747-22.754 30.297-22.645 29.848-22.532 29.401-22.416 28.955-22.297 28.511-22.174 28.068-22.048 27.626-21.919 27.186-21.787 26.747-21.651 26.31-21.512 25.874-21.37 25.439-21.224 25.006-21.076 24.574-20.924 23.716-20.611 22.864-20.285 22.018-19.947 21.178-19.596 20.345-19.233 19.518-18.859 18.699-18.472 17.885-18.073 17.079-17.662 16.28-17.24 15.488-16.806 14.703-16.36 13.926-15.903 13.156-15.435 12.394-14.956 11.64-14.466 10.893-13.965 10.154-13.453 9.424-12.931 8.701-12.398 7.987-11.854 7.281-11.3 6.584-10.736 5.895-10.162 5.215-9.578 4.544-8.984 3.882-8.38 3.229-7.766 2.585-7.143 1.95-6.511 1.325-5.869 .709-5.218 .103-4.558-.493-3.889-1.08-3.211-1.656-2.524-2.229-1.821-2.953-.851-1.8 .011-1.085-.947-1.104-.923-.544-1.611-.551-1.602 .019-2.281 .012-2.273 .591-2.943 .584-2.935 1.174-3.596 1.167-3.588 1.765-4.24 1.758-4.232 2.367-4.876 2.359-4.868 2.977-5.502 2.97-5.495 3.597-6.12 3.589-6.112 4.225-6.728 4.218-6.72 4.863-7.326 4.855-7.319 5.509-7.916 5.502-7.909 6.165-8.496 6.157-8.489 6.829-9.066 6.82-9.059 7.501-9.627 7.493-9.62 8.182-10.177 8.173-10.17 8.871-10.718 8.862-10.711 9.568-11.248 9.56-11.242 10.273-11.769 10.265-11.762 10.987-12.279 10.978-12.272 11.708-12.778 11.699-12.772 12.437-13.267 12.428-13.261 13.173-13.746 13.164-13.74 13.918-14.213 13.908-14.207 14.669-14.67 14.66-14.664 15.428-15.116 15.418-15.11 16.194-15.55 16.184-15.545 16.967-15.974 16.957-15.969 17.747-16.386 17.737-16.381 18.534-16.787 18.524-16.782 19.327-17.176 19.318-17.172 20.128-17.554 20.118-17.549 20.935-17.92 20.925-17.915 21.748-18.274 21.738-18.27 22.567-18.616 22.557-18.612 23.393-18.946 23.383-18.942 24.225-19.264 24.215-19.26 25.063-19.569 25.055-19.566 25.481-19.716 25.476-19.715 25.904-19.861 25.899-19.86 26.328-20.003 26.323-20.002 26.753-20.142 26.748-20.14 27.18-20.278 27.175-20.276 27.609-20.41 27.603-20.409 28.038-20.539 28.033-20.538 28.469-20.665 28.464-20.664 28.902-20.788 28.896-20.787 29.335-20.908 29.33-20.906 29.77-21.024 29.765-21.023 30.207-21.137 30.201-21.136 30.644-21.247 30.639-21.246 31.083-21.354 31.078-21.353 31.524-21.457 31.518-21.456 31.965-21.557 31.96-21.556 32.408-21.654 32.402-21.653 32.852-21.747 32.846-21.746 33.297-21.837 33.292-21.836 33.744-21.924 33.738-21.923 34.191-22.007 34.186-22.006 34.64-22.087 34.635-22.086 35.09-22.163 35.085-22.162 35.541-22.236H35.536L35.994-22.306 35.988-22.305 36.447-22.372 36.441-22.371 36.901-22.435 36.896-22.434 37.357-22.494H37.352L37.814-22.55 37.808-22.549 38.272-22.602H38.266L38.731-22.651 38.725-22.65 39.191-22.696H39.185L39.651-22.738 39.646-22.737 40.114-22.776H40.108L40.576-22.811 40.571-22.81 41.04-22.842 41.035-22.841 41.505-22.869H41.5L41.971-22.893 41.966-22.892 42.438-22.913H42.433L42.906-22.929H42.9L43.375-22.942H43.369L43.845-22.951H43.839L44.315-22.957H44.309L44.787-22.959H44.781L45.278-22.957H45.272L45.768-22.951H45.762L46.257-22.941H46.251L46.745-22.927H46.739L47.232-22.909H47.226L47.718-22.887H47.712L48.203-22.861H48.197L48.687-22.831 48.681-22.832 49.17-22.798H49.164L49.652-22.76 49.646-22.761 50.132-22.719H50.127L50.612-22.674H50.606L51.09-22.625H51.085L51.568-22.572H51.562L52.044-22.515 52.038-22.516 52.519-22.454 52.513-22.455 52.993-22.39 52.987-22.391 53.465-22.322 53.459-22.323 53.937-22.251H53.931L54.407-22.175 54.401-22.176 54.875-22.096 54.87-22.097 55.343-22.013 55.337-22.014 55.809-21.927 55.804-21.928 56.274-21.836 56.269-21.838 56.738-21.743 56.732-21.744 57.2-21.645 57.195-21.646 57.661-21.544 57.656-21.545 58.121-21.439 58.115-21.441 58.579-21.331 58.574-21.332 59.036-21.219 59.031-21.221 59.492-21.104 59.486-21.105 59.946-20.985 59.94-20.986 60.398-20.862 60.393-20.864 60.85-20.737 60.844-20.738 61.299-20.607 61.294-20.609 61.748-20.474 61.742-20.476 62.194-20.338 62.189-20.34 62.64-20.198 62.634-20.2 63.083-20.055 63.078-20.057 63.525-19.908 63.52-19.91 63.966-19.758 63.96-19.76 64.405-19.605 64.4-19.606 64.842-19.448 64.837-19.45 65.278-19.288 65.273-19.29 65.712-19.124 65.707-19.126 66.145-18.957 66.14-18.959 66.576-18.787 66.57-18.789 67.005-18.614 67-18.616 67.433-18.437 67.427-18.439 67.858-18.257 67.853-18.259 68.283-18.074 68.277-18.076 68.705-17.887 68.7-17.89 69.126-17.698 69.121-17.7 69.545-17.505 69.539-17.507 69.962-17.309 69.957-17.311 70.377-17.11 70.372-17.112 70.791-16.908 70.786-16.91 71.202-16.702 71.197-16.705 71.612-16.493 71.607-16.496 72.02-16.282 72.013-16.286 72.833-15.848 72.823-15.853 73.636-15.403 73.626-15.409 74.431-14.946 74.422-14.952 75.218-14.477 75.209-14.483 75.998-13.996 75.988-14.002 76.769-13.504 76.76-13.51 77.532-12.999 77.523-13.006 78.287-12.484 78.277-12.49 79.033-11.957 79.024-11.963 79.77-11.419 79.761-11.425 80.499-10.869 80.49-10.876 81.219-10.309 81.21-10.316 81.93-9.738 81.922-9.745 82.632-9.156 82.624-9.163 83.325-8.563 83.317-8.57 84.008-7.96 84-7.967 84.682-7.347 84.674-7.354 85.347-6.723 85.339-6.731 86.001-6.089 85.993-6.097 86.646-5.445 86.638-5.453 87.281-4.792 87.273-4.8 87.906-4.128 87.898-4.137 88.52-3.455 88.513-3.464 89.124-2.773 89.117-2.781 89.718-2.081 89.711-2.09 90.301-1.38 90.294-1.389 90.873-.67 90.867-.678 91.435 .049 91.428 .041 91.986 .778 91.979 .769 92.525 1.514 92.519 1.505 93.054 2.26 93.047 2.251 93.57 3.014 93.564 3.004 94.076 3.776 94.07 3.767 94.57 4.547Z" fill="#ffffff"/>
<path transform="matrix(1,0,0,-1,263.2577,276.23503)" d="M0 0 2.09 .54 4.181 1.08 3.17-3.643ZM-33.584 39.88-33.147 39.712-32.709 39.54-32.273 39.364-31.838 39.185-31.405 39.003-30.974 38.817-30.544 38.628-30.117 38.436-29.691 38.241-29.266 38.042-28.424 37.636-27.589 37.217-26.761 36.786-25.941 36.342-25.128 35.886-24.323 35.417-23.526 34.937-22.738 34.445-21.957 33.941-21.185 33.425-20.421 32.898-19.666 32.36-18.92 31.81-18.182 31.25-17.454 30.678-16.734 30.095-16.024 29.502-15.323 28.898-14.631 28.283-13.949 27.658-13.277 27.023-12.614 26.378-11.961 25.723-11.319 25.058-10.686 24.383-10.064 23.698-9.453 23.004-8.852 22.301-8.261 21.588-7.682 20.866-7.113 20.135-6.555 19.395-6.009 18.647-5.474 17.889-4.95 17.124-4.438 16.35-3.937 15.567-3.448 14.777-2.971 13.978-2.507 13.172-2.054 12.357-1.614 11.535-1.186 10.706-.771 9.87-.567 9.448-.367 9.025-.171 8.6 .023 8.174 .213 7.745 .4 7.315 .583 6.883 .764 6.45 .941 6.015 1.115 5.578 1.285 5.139 1.452 4.699 1.616 4.257 1.776 3.814 1.934 3.369 2.087 2.922 2.237 2.474 2.384 2.024 2.528 1.573 2.671 1.11 3.055-.318 1.665-.693 1.284 .723 1.292 .698 1.153 1.145 1.155 1.14 1.013 1.585 1.015 1.58 .87 2.024 .872 2.019 .724 2.462 .725 2.456 .574 2.898 .575 2.892 .42 3.332 .422 3.327 .264 3.765 .266 3.759 .104 4.196 .106 4.19-.059 4.625-.057 4.62-.226 5.053-.224 5.048-.395 5.48-.393 5.474-.568 5.904-.566 5.899-.744 6.327-.742 6.322-.924 6.749-.921 6.744-1.106 7.168-1.104 7.163-1.292 7.586-1.289 7.581-1.48 8.003-1.478 7.998-1.672 8.417-1.67 8.412-1.867 8.83-1.865 8.825-2.065 9.241-2.062 9.234-2.472 10.06-2.467 10.05-2.89 10.87-2.885 10.86-3.32 11.672-3.315 11.662-3.762 12.467-3.756 12.457-4.216 13.254-4.21 13.244-4.681 14.033-4.675 14.024-5.158 14.805-5.152 14.796-5.647 15.569-5.641 15.559-6.147 16.324-6.141 16.315-6.658 17.072-6.652 17.063-7.181 17.811-7.174 17.802-7.714 18.542-7.708 18.533-8.259 19.264-8.252 19.255-8.814 19.977-8.807 19.968-9.38 20.682-9.373 20.673-9.956 21.377-9.949 21.369-10.543 22.064-10.536 22.056-11.14 22.742-11.133 22.734-11.748 23.41-11.74 23.402-12.365 24.069-12.358 24.061-12.992 24.718-12.985 24.71-13.63 25.358-13.622 25.35-14.277 25.988-14.269 25.98-14.933 26.608-14.925 26.6-15.599 27.218-15.591 27.21-16.274 27.818-16.266 27.81-16.959 28.407-16.95 28.4-17.652 28.986-17.644 28.979-18.355 29.555-18.346 29.548-19.066 30.113-19.057 30.106-19.786 30.66-19.777 30.654-20.515 31.197-20.506 31.191-21.252 31.722-21.243 31.716-21.998 32.237-21.989 32.231-22.752 32.74-22.742 32.734-23.513 33.232-23.504 33.226-24.283 33.712-24.274 33.706-25.061 34.181-25.052 34.175-25.847 34.638-25.837 34.632-26.64 35.083-26.63 35.078-27.441 35.516-27.431 35.511-28.249 35.938-28.239 35.932-29.064 36.346-29.054 36.342-29.887 36.743-29.879 36.74-30.298 36.936-30.293 36.933-30.714 37.126-30.709 37.124-31.131 37.314-31.126 37.311-31.55 37.498-31.545 37.496-31.971 37.679-31.966 37.677-32.394 37.857-32.388 37.855-32.818 38.032-32.813 38.029-33.244 38.203-33.238 38.201-33.671 38.371-33.666 38.369-34.1 38.536Z" fill="#ffffff"/>
<path transform="matrix(1,0,0,-1,181.0157,242.22339)" d="M0 0-.956 1.936-1.913 3.873 2.915 3.85ZM-31.856-38.987-31.767-38.534-31.673-38.079-31.576-37.626-31.476-37.174-31.373-36.723-31.266-36.274-31.155-35.826-31.042-35.379-30.925-34.933-30.805-34.489-30.681-34.047-30.554-33.605-30.424-33.165-30.291-32.727-30.154-32.29-30.015-31.854-29.872-31.42-29.725-30.986-29.424-30.126-29.109-29.271-28.783-28.422-28.444-27.579-28.092-26.743-27.729-25.913-27.353-25.09-26.966-24.273-26.566-23.463-26.156-22.661-25.733-21.865-25.299-21.076-24.854-20.295-24.397-19.521-23.93-18.754-23.451-17.995-22.961-17.244-22.461-16.501-21.95-15.765-21.429-15.038-20.896-14.318-20.354-13.607-19.802-12.904-19.239-12.21-18.666-11.524-18.083-10.847-17.491-10.179-16.889-9.52-16.277-8.869-15.656-8.228-15.026-7.596-14.386-6.974-13.737-6.361-13.079-5.757-12.413-5.164-11.737-4.579-11.053-4.005-10.36-3.441-9.659-2.887-8.949-2.344-8.232-1.81-7.506-1.288-6.772-.775-6.03-.274-5.28 .217-4.523 .697-3.758 1.166-2.986 1.624-2.206 2.07-1.411 2.51-.31 3.059 .332 1.771-.755 1.228-.728 1.243-1.505 .813-1.496 .818-2.266 .377-2.257 .382-3.02-.07-3.011-.065-3.767-.528-3.757-.522-4.506-.996-4.497-.991-5.237-1.476-5.228-1.47-5.961-1.965-5.953-1.959-6.678-2.465-6.669-2.459-7.386-2.976-7.378-2.97-8.087-3.497-8.078-3.49-8.78-4.027-8.771-4.021-9.464-4.568-9.456-4.562-10.14-5.119-10.132-5.112-10.808-5.679-10.8-5.673-11.468-6.25-11.46-6.243-12.118-6.829-12.11-6.822-12.76-7.419-12.753-7.411-13.394-8.017-13.386-8.01-14.018-8.625-14.011-8.617-14.634-9.242-14.626-9.234-15.24-9.868-15.233-9.86-15.837-10.503-15.83-10.495-16.425-11.146-16.418-11.139-17.003-11.799-16.996-11.791-17.572-12.46-17.565-12.452-18.131-13.129-18.124-13.121-18.68-13.807-18.674-13.799-19.22-14.493-19.213-14.485-19.749-15.187-19.743-15.179-20.268-15.89-20.262-15.881-20.777-16.6-20.771-16.591-21.276-17.318-21.27-17.309-21.765-18.044-21.759-18.035-22.242-18.777-22.237-18.768-22.71-19.518-22.704-19.509-23.166-20.266-23.16-20.257-23.612-21.022-23.606-21.013-24.046-21.785-24.041-21.775-24.47-22.555-24.464-22.545-24.882-23.331-24.877-23.322-25.283-24.115-25.278-24.105-25.672-24.905-25.668-24.896-26.051-25.702-26.046-25.693-26.417-26.506-26.413-26.496-26.772-27.316-26.767-27.306-27.115-28.132-27.11-28.122-27.445-28.955-27.441-28.944-27.764-29.783-27.76-29.773-28.071-30.618-28.067-30.607-28.365-31.458-28.363-31.45-28.507-31.878-28.505-31.873-28.647-32.302-28.645-32.297-28.783-32.727-28.781-32.722-28.916-33.154-28.915-33.148-29.046-33.582-29.045-33.576-29.173-34.011-29.172-34.006-29.297-34.442-29.295-34.436-29.417-34.874-29.416-34.868-29.535-35.307-29.533-35.302-29.649-35.742-29.648-35.737-29.76-36.178-29.758-36.173-29.867-36.615-29.866-36.61-29.972-37.054-29.971-37.049-30.073-37.494-30.072-37.489-30.171-37.935-30.17-37.93-30.265-38.378-30.264-38.372-30.357-38.821-30.355-38.816-30.444-39.266Z" fill="#ffffff"/>
<path transform="matrix(1,0,0,-1,228.7673,229.07541)" d="M0 0H4.966V4.968H6.693V0H11.442V-1.728H6.693V-6.48H4.966V-1.728H0Z" fill="#ffffff"/>
<path transform="matrix(1,0,0,-1,257.0493,331.0274)" d="M0 0H4.966V4.968H6.477V0H11.442V-1.728H6.477V-6.696H4.966V-1.728H0Z" fill="#ffffff"/>
<path transform="matrix(1,0,0,-1,136.1489,277.0274)" d="M0 0H4.966V4.752H6.693V0H11.442V-1.728H6.693V-6.696H4.966V-1.728H0Z" fill="#ffffff"/>
<g clip-path="url(#clip_5)">
<path transform="matrix(1,0,0,-1,124.0979,227.18759)" d="M0 0C-.54-.81-1.093-1.485-1.66-2.025-1.876-1.728-2.105-1.512-2.348-1.377-1.781-.945-1.188-.284-.567 .608 .054 1.499 .499 2.362 .769 3.2 .958 3.064 1.228 2.943 1.579 2.835 1.066 1.755 .539 .81 0 0M3.481-2.714C3.751-2.551 3.98-2.389 4.169-2.227 4.574-2.822 4.952-3.409 5.303-3.989 5.653-4.57 5.923-5.035 6.112-5.386 5.815-5.548 5.559-5.697 5.343-5.832 5.181-5.508 4.965-5.116 4.696-4.657 2.887-4.901 1.612-5.076 .87-5.184 .128-5.292-.405-5.413-.729-5.548-.81-5.278-.958-4.982-1.174-4.657-.905-4.55-.648-4.361-.405-4.09-.162-3.821 .195-3.254 .668-2.389 1.14-1.526 1.471-.769 1.66-.121 2.064-.365 2.374-.513 2.591-.567 2.293-1.026 1.896-1.715 1.396-2.633 .897-3.551 .539-4.145 .324-4.414 1.565-4.307 2.914-4.172 4.372-4.009 4.155-3.632 3.859-3.199 3.481-2.714M5.323 .405C5.903-.297 6.49-.81 7.084-1.134 6.706-1.323 6.45-1.553 6.315-1.823 5.505-1.148 4.817-.365 4.25 .526 3.684 1.418 3.224 2.322 2.874 3.24 3.171 3.294 3.441 3.388 3.684 3.523 4.196 2.147 4.742 1.107 5.323 .405" fill="#ffffff"/>
<path transform="matrix(1,0,0,-1,135.1085,229.69861)" d="M0 0C.701-.405 1.295-.797 1.781-1.174 1.565-1.364 1.376-1.553 1.214-1.742 .971-1.445 .499-1.094-.202-.689-.688-1.661-1.295-2.471-2.024-3.118-2.186-2.902-2.443-2.74-2.793-2.633-1.876-1.904-1.262-1.08-.951-.162-.641 .756-.486 1.471-.486 1.984-.108 1.93 .202 1.863 .445 1.782 .337 1.539 .188 .945 0 0M-.405 3.523C.324 4.225 .796 5.022 1.012 5.913 1.228 5.859 1.552 5.792 1.983 5.711L1.781 5.305C2.672 3.793 3.98 2.821 5.708 2.389 5.491 2.2 5.303 1.944 5.141 1.62 3.441 2.241 2.199 3.226 1.417 4.576 .688 3.226-.459 2.173-2.024 1.417-2.159 1.687-2.362 1.917-2.631 2.106-1.876 2.349-1.133 2.821-.405 3.523M3.684 1.296C3.656 1.08 3.67 .756 3.724 .324 3.778-.108 4.109-.642 4.716-1.276 5.323-1.91 5.856-2.309 6.315-2.471 6.018-2.686 5.789-2.916 5.627-3.159 4.709-2.565 3.94-1.742 3.319-.689 2.941-1.661 2.334-2.565 1.498-3.402 1.309-3.186 1.052-3.024 .729-2.916 1.403-2.457 1.909-1.91 2.247-1.276 2.584-.642 2.766-.068 2.793 .445 2.82 .958 2.834 1.498 2.834 2.065 3.13 2.011 3.454 1.971 3.805 1.944 3.751 1.728 3.71 1.512 3.684 1.296" fill="#ffffff"/>
<path transform="matrix(1,0,0,-1,150.3694,227.8356)" d="M0 0C.512 0 .971 .013 1.376 .041V-.688C.971-.662 .512-.648 0-.648H-4.412C-4.52-1.026-4.642-1.445-4.777-1.903H0C-.081-2.336-.142-2.7-.182-2.997-.223-3.294-.283-3.652-.364-4.07-.445-4.489-.607-4.772-.85-4.921-1.093-5.069-1.862-5.184-3.157-5.265-3.266-4.968-3.4-4.657-3.562-4.333-2.591-4.36-1.977-4.36-1.72-4.333-1.464-4.306-1.295-4.165-1.214-3.908-1.133-3.652-1.052-3.213-.972-2.592H-5.789C-5.546-1.944-5.357-1.296-5.222-.648H-6.193C-6.76-.648-7.286-.662-7.772-.688V.041C-7.286 .013-6.76 0-6.193 0ZM-.283 2.349C-.283 1.836-.27 1.35-.243 .891H-6.113C-6.086 1.269-6.072 1.714-6.072 2.228-6.072 2.767-6.086 3.267-6.113 3.726H-.243C-.27 3.321-.283 2.862-.283 2.349M-1.052 3.078H-5.302V1.539H-1.052ZM-1.052 1.539" fill="#ffffff"/>
<path transform="matrix(1,0,0,-1,110.7805,209.4672)" d="M0 0V-3.888C0-4.374 .013-4.927 .04-5.549H-.688C-.662-4.927-.648-4.374-.648-3.888V-.932C-.891-1.255-1.12-1.58-1.336-1.904-1.471-1.634-1.619-1.418-1.781-1.255-1.457-.932-1.107-.5-.729 .04-.351 .58-.054 1.134 .162 1.701 .35 1.404 .567 1.201 .81 1.094 .567 .904 .297 .54 0 0M-1.133 1.215C-1.295 1.404-1.498 1.566-1.741 1.701-.958 2.403-.419 3.064-.122 3.685 .04 3.523 .256 3.361 .526 3.199 .067 2.605-.486 1.944-1.133 1.215M3.319-3.483C3.562-3.294 3.791-3.078 4.008-2.835L4.331-3.483C4.142-3.591 3.92-3.753 3.663-3.969 3.407-4.185 3.157-4.415 2.914-4.658L2.51-4.05C2.644-3.942 2.712-3.767 2.712-3.523V-1.984H1.822C1.822-2.579 1.774-3.112 1.68-3.584 1.585-4.057 1.362-4.563 1.012-5.103 .823-4.887 .607-4.725 .364-4.617 .769-4.158 1.005-3.611 1.073-2.977 1.14-2.343 1.16-1.836 1.133-1.458H3.36C3.333-1.971 3.319-2.646 3.319-3.483M3.765-.648C3.36-.621 2.847-.608 2.226-.608 1.605-.608 1.093-.621 .688-.648V-.041C1.093-.068 1.605-.081 2.226-.081 2.847-.081 3.36-.068 3.765-.041ZM1.538 1.134H2.145C2.145 2.214 2.132 3.037 2.105 3.604H2.793C2.766 3.064 2.753 2.241 2.753 1.134H3.441C3.441 1.674 3.427 2.227 3.4 2.794H4.048C4.021 2.497 4.008 2.133 4.008 1.701 4.008 1.296 4.021 .931 4.048 .607H.85C.877 .985 .89 1.35 .89 1.701 .89 2.052 .877 2.416 .85 2.794H1.579C1.551 2.335 1.538 1.782 1.538 1.134M4.331-1.296C4.115-1.107 3.913-.986 3.724-.932 4.129-.149 4.446 .682 4.675 1.559 4.904 2.436 5.033 3.159 5.06 3.726 5.357 3.618 5.64 3.55 5.91 3.523 5.748 3.145 5.586 2.497 5.424 1.579H6.72C7.016 1.579 7.3 1.593 7.57 1.62V.972C7.165 .999 6.922 1.012 6.841 1.012 6.841 .256 6.801-.466 6.72-1.154 6.639-1.843 6.409-2.592 6.031-3.402 6.166-3.672 6.376-3.922 6.659-4.151 6.942-4.381 7.286-4.59 7.691-4.779 7.367-4.995 7.191-5.238 7.165-5.508 6.49-5.103 5.951-4.604 5.546-4.01 4.979-4.631 4.345-5.17 3.643-5.63 3.454-5.413 3.198-5.211 2.874-5.022 3.441-4.779 3.886-4.536 4.21-4.293 4.534-4.05 4.844-3.74 5.141-3.362 4.844-2.633 4.655-1.742 4.574-.689ZM5.1-.081C5.208-1.215 5.384-2.093 5.627-2.714 5.842-2.174 5.984-1.627 6.052-1.073 6.119-.52 6.166 .175 6.193 1.012H5.262C5.154 .661 5.006 .27 4.817-.162Z" fill="#ffffff"/>
<path transform="matrix(1,0,0,-1,120.4552,207.0372)" d="M0 0C0 .486-.014 .918-.04 1.296H.769C.742 .837 .729 .405 .729 0V-1.62C1.079-1.62 1.43-1.607 1.781-1.579V-2.349C1.403-2.322 1.052-2.309 .729-2.309V-6.682C.729-7.195 .742-7.6 .769-7.898H-.04C-.014-7.627 0-7.222 0-6.682V-2.309C-.378-2.309-.756-2.322-1.133-2.349V-1.579C-.729-1.607-.351-1.62 0-1.62ZM6.234-5.103C6.234-4.887 6.22-4.671 6.193-4.455H7.003C6.976-4.671 6.963-4.887 6.963-5.103H7.246C7.732-5.103 8.15-5.09 8.501-5.062V-5.832C8.123-5.805 7.704-5.792 7.246-5.792H6.963V-7.128C6.963-7.56 6.821-7.816 6.537-7.898 6.254-7.979 5.896-8.06 5.465-8.141 5.41-7.843 5.303-7.56 5.141-7.29 5.6-7.29 5.896-7.276 6.032-7.25 6.166-7.222 6.234-7.061 6.234-6.763V-5.792H2.834C2.267-5.792 1.822-5.819 1.498-5.872V-5.062C1.822-5.09 2.267-5.103 2.834-5.103ZM4.291 .324C4.291 .783 4.277 1.12 4.25 1.336H5.1C5.073 1.066 5.06 .729 5.06 .324H6.679C7.3 .324 7.758 .337 8.055 .365V-.365C7.758-.338 7.313-.324 6.72-.324H5.06V-.972H7.408C7.381-1.377 7.367-1.769 7.367-2.147V-3.038C7.367-3.551 7.381-3.969 7.408-4.293H6.639V-3.888H5.06C5.06-4.131 5.073-4.374 5.1-4.617H4.25C4.277-4.347 4.291-4.104 4.291-3.888H2.955V-4.577H2.145C2.172-4.28 2.186-3.902 2.186-3.443V-2.187C2.186-1.674 2.172-1.269 2.145-.972H4.291V-.324H3.441C2.901-.324 2.374-.338 1.862-.365V.365C2.348 .337 2.86 .324 3.4 .324ZM4.291-6.926C4.048-7.087 3.818-7.25 3.603-7.411 3.386-7.061 3.117-6.696 2.793-6.318 3.009-6.183 3.224-6.035 3.441-5.872 3.765-6.251 4.048-6.602 4.291-6.926M4.291-1.579H2.955V-2.106H4.291ZM4.291-2.714H2.955V-3.281H4.291ZM6.639-1.579H5.06V-2.106H6.639ZM6.639-2.714H5.06V-3.281H6.639ZM5.991 1.013 6.598 1.417C6.733 1.228 6.922 1.013 7.165 .77 6.922 .661 6.72 .54 6.558 .405 6.341 .621 6.153 .823 5.991 1.013" fill="#ffffff"/>
<path transform="matrix(1,0,0,-1,96.6432,191.08179)" d="M0 0C-.27-.108-.702-.257-1.295-.445V-3.2C-1.269-3.523-1.37-3.773-1.599-3.949-1.829-4.124-2.267-4.279-2.915-4.415-2.995-4.144-3.117-3.848-3.279-3.523-2.848-3.496-2.544-3.456-2.368-3.402-2.193-3.348-2.105-3.2-2.105-2.957V-.689C-2.348-.77-2.848-.972-3.603-1.296-3.657-1.107-3.765-.797-3.927-.365-3.063-.203-2.456-.054-2.105 .081V2.025C-2.591 2.025-3.104 2.011-3.643 1.984V2.754C-3.104 2.727-2.591 2.714-2.105 2.714-2.105 3.496-2.119 4.212-2.145 4.86H-1.214C-1.269 4.32-1.295 3.604-1.295 2.714-.945 2.714-.459 2.727 .162 2.754V1.984C-.432 2.011-.918 2.025-1.295 2.025V.283C-1.052 .365-.648 .513-.081 .729-.108 .486-.081 .243 0 0M-.324-1.661C.027-1.634 1.214-1.472 3.238-1.174V3.766C3.238 4.279 3.224 4.698 3.198 5.022H4.089C4.061 4.725 4.048 4.32 4.048 3.807V-1.053C4.696-.945 5.208-.851 5.586-.77L5.627-1.499C5.276-1.553 4.75-1.647 4.048-1.782 4.048-2.7 4.061-3.591 4.089-4.455H3.198C3.224-3.807 3.238-2.957 3.238-1.904 2.806-1.958 1.7-2.16-.081-2.511ZM2.307 .081C2.091-.081 1.862-.27 1.619-.486 1.484-.243 1.133 .216 .567 .891 .755 1.053 .971 1.242 1.214 1.458 1.754 .783 2.118 .324 2.307 .081M2.55 2.714C2.415 2.659 2.159 2.484 1.781 2.187 1.646 2.457 1.309 2.983 .769 3.766 1.012 3.901 1.241 4.063 1.457 4.253 1.565 4.09 1.929 3.577 2.55 2.714" fill="#ffffff"/>
<path transform="matrix(1,0,0,-1,110.3254,188.32791)" d="M0 0C-.189-.297-.331-.533-.425-.709-.52-.885-.634-1.107-.769-1.377H.526C1.066-1.377 1.579-1.364 2.065-1.336V-2.025C1.579-1.998 1.066-1.984 .526-1.984H-5.424C-5.964-1.984-6.477-1.998-6.963-2.025V-1.336C-6.45-1.364-5.937-1.377-5.424-1.377H-4.25C-4.467-.81-4.71-.351-4.979 0-4.736 .135-4.507 .27-4.291 .405-3.94-.135-3.643-.607-3.4-1.012-3.589-1.121-3.792-1.242-4.007-1.377H-1.579C-1.255-.648-1.039-.068-.931 .365-.581 .203-.27 .081 0 0M-2.024 1.134H.041C.418 1.134 .863 1.147 1.376 1.174V.486C.836 .513 .391 .527 .041 .527H-5.019C-5.532 .527-6.032 .513-6.517 .486V1.174C-6.032 1.147-5.532 1.134-5.019 1.134H-2.955C-2.982 1.458-3.09 1.795-3.279 2.147-2.982 2.2-2.686 2.268-2.388 2.349-2.2 1.863-2.078 1.458-2.024 1.134M.567-4.009V-5.589C.567-6.129 .58-6.655 .607-7.168H-.283V-6.601H-4.696V-7.209H-5.546C-5.519-6.642-5.505-6.034-5.505-5.386V-4.009C-5.505-3.659-5.519-3.254-5.546-2.794H.607C.58-3.199 .567-3.604 .567-4.009M-.283-3.442H-4.695V-4.414H-.283ZM-.283-5.022H-4.695V-5.994H-.283ZM-.283-5.994" fill="#ffffff"/>
<path transform="matrix(1,0,0,-1,261.5906,247.80042)" d="M0 0H2.307C2.847 0 3.386 .013 3.926 .04V-.689C3.386-.662 2.847-.648 2.307-.648H-2.348C-1.836-1.188-1.525-1.539-1.417-1.701-1.606-1.782-1.808-1.904-2.024-2.065H.162C.324-1.634 .486-1.174 .648-.689 .917-.797 1.228-.891 1.579-.972 1.389-1.215 1.174-1.58 .931-2.065H3.198C3.171-2.39 3.157-2.835 3.157-3.402V-7.411C3.157-7.736 3.009-7.965 2.712-8.1 2.415-8.235 2.01-8.343 1.498-8.424 1.47-8.1 1.362-7.803 1.174-7.533 1.713-7.56 2.051-7.533 2.186-7.452 2.32-7.371 2.388-7.236 2.388-7.047V-2.633H-3.522V-8.302H-4.331C-4.305-7.6-4.291-7.101-4.291-6.804V-3.321C-4.291-3.051-4.305-2.633-4.331-2.065H-2.105C-2.294-1.742-2.605-1.404-3.036-1.053-2.82-.945-2.618-.81-2.429-.648H-3.36C-3.981-.648-4.521-.662-4.979-.689V.04C-4.521 .013-3.994 0-3.4 0H-.891C-.972 .27-1.148 .553-1.417 .85-1.148 .931-.891 1.026-.648 1.134-.297 .594-.081 .216 0 0M-.769-3.523C-1.039-3.659-1.431-4.023-1.943-4.617H1.133C1.106-4.968 1.093-5.346 1.093-5.751 1.093-6.156 1.106-6.561 1.133-6.966H-2.024C-1.998-6.561-1.984-6.17-1.984-5.792-1.984-5.387-1.998-5.022-2.024-4.698-2.213-4.86-2.402-5.009-2.591-5.143-2.726-4.955-2.929-4.806-3.198-4.698-2.362-4.05-1.808-3.497-1.538-3.038-1.269-3.227-1.012-3.389-.769-3.523M.324-5.224H-1.255V-6.358H.324ZM2.186-4.333C1.943-4.469 1.741-4.644 1.579-4.86 1.309-4.536 .742-4.091-.122-3.523 .067-3.389 .229-3.213 .364-2.997 1.119-3.483 1.727-3.929 2.186-4.333" fill="#ffffff"/>
<path transform="matrix(1,0,0,-1,270.7795,246.99039)" d="M0 0C-.054-.756-.081-1.404-.081-1.944V-7.898H1.255V-1.458C1.255-1.026 1.228-.54 1.174 0H2.186C2.132-.432 2.105-.891 2.105-1.377V-7.898H3.684C4.115-7.898 4.641-7.871 5.262-7.817V-8.708C4.641-8.653 4.129-8.627 3.724-8.627H-2.429C-2.807-8.627-3.347-8.653-4.048-8.708V-7.817C-3.347-7.871-2.82-7.898-2.469-7.898H-.971V-1.904C-.971-1.336-1.012-.702-1.093 0ZM-1.579-5.711C-1.876-5.765-2.186-5.872-2.51-6.034-2.996-4.469-3.428-3.254-3.805-2.39-3.536-2.282-3.238-2.16-2.915-2.025-2.591-2.862-2.145-4.091-1.579-5.711M3.441-6.116C3.171-5.953 2.888-5.832 2.591-5.751 3.158-4.698 3.589-3.429 3.886-1.944 4.183-2.052 4.52-2.16 4.898-2.268 4.547-3.186 4.061-4.469 3.441-6.116" fill="#ffffff"/>
<path transform="matrix(1,0,0,-1,279.159,250.83789)" d="M0 0C-.378-.351-.837-.837-1.376-1.458-1.485-1.323-1.7-1.107-2.024-.81-1.808-.702-1.464-.446-.992-.04-.52 .365-.081 .81 .324 1.296 .54 1.026 .715 .864 .85 .81 .661 .621 .378 .351 0 0M-1.7 3.078C-1.538 3.294-1.376 3.496-1.214 3.686-.648 3.334-.108 2.957 .405 2.551 .189 2.362 .027 2.147-.081 1.904-.405 2.228-.945 2.619-1.7 3.078M5.505-2.916V-4.009C5.505-4.415 5.519-4.819 5.546-5.225H4.696V-4.577H.445V-5.265H-.405C-.405-4.833-.392-4.415-.364-4.009V-2.916C-.392-2.484-.405-2.066-.405-1.66H5.546C5.519-2.066 5.505-2.484 5.505-2.916M3.805 .931C4.668 .013 5.775-.513 7.124-.648 6.908-.891 6.746-1.202 6.639-1.579 6.018-1.391 5.444-1.148 4.918-.85 4.392-.554 3.913-.162 3.481 .324 3.238-.135 2.915-.506 2.51-.79 2.105-1.073 1.605-1.323 1.012-1.539 .823-1.269 .607-1.053 .364-.891 1.443-.621 2.179-.23 2.57 .283 2.961 .796 3.184 1.404 3.238 2.106L4.088 1.984ZM4.696-2.309H.4460001V-3.929H4.696ZM2.004 1.822C1.828 1.633 1.673 1.431 1.538 1.215 1.322 1.431 1.066 1.606 .769 1.741 1.2 2.038 1.558 2.416 1.842 2.876 2.125 3.334 2.321 3.793 2.429 4.253 2.698 4.063 3.036 3.928 3.441 3.848 3.252 3.658 3.063 3.388 2.874 3.038H6.558C6.234 2.173 6.004 1.579 5.87 1.255 5.708 1.309 5.424 1.377 5.019 1.458 5.208 1.89 5.343 2.187 5.424 2.349H2.429C2.321 2.187 2.179 2.011 2.004 1.822" fill="#ffffff"/>
<path transform="matrix(1,0,0,-1,289.4002,249.9874)" d="M0 0C-.027-.513-.04-1.04-.04-1.579V-4.455C.31-4.077 .607-3.753 .85-3.483 .931-3.618 1.106-3.834 1.376-4.131 1.025-4.428 .688-4.738 .364-5.062 .04-5.387-.243-5.724-.486-6.075-.702-5.778-.945-5.535-1.214-5.346-.945-5.076-.81-4.793-.81-4.495V-.688H-1.174C-1.39-.688-1.7-.702-2.105-.729V.04C-1.7 .013-1.39 0-1.174 0ZM.486 1.458C.216 1.35-.068 1.215-.364 1.053-.769 1.782-1.107 2.322-1.376 2.673-1.08 2.808-.81 2.943-.567 3.078-.405 2.835-.054 2.295 .486 1.458M3.077 1.701H7.246C7.219 1.269 7.205 .729 7.205 .081V-5.103C7.205-5.508 7.057-5.771 6.76-5.893 6.463-6.014 6.058-6.115 5.546-6.197 5.491-5.818 5.343-5.521 5.1-5.305 5.64-5.278 5.997-5.245 6.173-5.204 6.348-5.164 6.45-5.022 6.477-4.779V1.094H2.793C2.469 .553 2.253 .189 2.145 0H5.303C5.276-.378 5.262-1.121 5.262-2.227 5.262-3.335 5.276-4.172 5.303-4.738H1.943C1.97-4.226 1.984-3.699 1.984-3.159V-.324C1.767-.648 1.552-.945 1.336-1.215 1.093-.945 .836-.77 .567-.688 .944-.284 1.248 .101 1.478 .466 1.706 .83 1.956 1.276 2.226 1.802 2.496 2.329 2.739 2.875 2.955 3.443 3.171 3.2 3.495 3.038 3.927 2.956 3.71 2.794 3.427 2.376 3.077 1.701M4.493-.607H2.7519999V-2.065H4.493ZM4.493-2.673H2.7519999V-4.091H4.493ZM4.493-4.091" fill="#ffffff"/>
<path transform="matrix(1,0,0,-1,263.5431,225.82239)" d="M0 0C.891-1.377 2.348-2.349 4.372-2.916 4.102-3.105 3.899-3.402 3.765-3.807 1.66-2.916 .256-1.823-.445-.527-1.363-1.877-2.767-3.051-4.655-4.05-4.844-3.699-5.047-3.429-5.263-3.24-3.886-2.7-2.827-2.032-2.085-1.235-1.343-.439-.891 .202-.729 .689-.567 .58-.257 .445 .202 .283ZM-3.238-8.262C-3.4-8.262-3.805-8.275-4.453-8.303V-7.533C-3.724-7.56-3.374-7.574-3.4-7.574H-2.955V-4.982C-2.955-4.658-2.982-4.239-3.036-3.726H-2.064C-2.119-4.239-2.145-4.658-2.145-4.982V-7.574H-.567V-3.645C-.567-3.321-.581-2.903-.607-2.389H.283C.256-2.876 .243-3.551 .243-4.415H1.498C1.929-4.415 2.402-4.401 2.915-4.374V-5.144C2.429-5.117 1.969-5.103 1.538-5.103H.243V-7.574H2.753C2.833-7.574 3.117-7.56 3.603-7.533V-8.303C3.117-8.275 2.82-8.262 2.712-8.262Z" fill="#ffffff"/>
<path transform="matrix(1,0,0,-1,272.894,225.45789)" d="M0 0C-.054-.756-.081-1.404-.081-1.944V-7.897H1.255V-1.458C1.255-1.026 1.228-.54 1.174 0H2.186C2.132-.432 2.105-.891 2.105-1.377V-7.897H3.684C4.115-7.897 4.641-7.871 5.262-7.816V-8.707C4.641-8.653 4.129-8.626 3.724-8.626H-2.429C-2.807-8.626-3.347-8.653-4.048-8.707V-7.816C-3.347-7.871-2.82-7.897-2.469-7.897H-.971V-1.904C-.971-1.337-1.012-.702-1.093 0ZM-1.579-5.711C-1.876-5.765-2.186-5.873-2.51-6.035-2.996-4.469-3.428-3.254-3.805-2.389-3.536-2.282-3.238-2.16-2.915-2.025-2.591-2.862-2.145-4.091-1.579-5.711M3.441-6.116C3.171-5.954 2.888-5.832 2.591-5.751 3.158-4.698 3.589-3.429 3.886-1.944 4.183-2.052 4.52-2.16 4.898-2.268 4.547-3.186 4.061-4.469 3.441-6.116" fill="#ffffff"/>
<path transform="matrix(1,0,0,-1,281.7592,233.4364)" d="M0 0C-.756-.405-1.404-.742-1.943-1.012-2.159-.742-2.362-.499-2.55-.283-1.228 .148-.182 .608 .587 1.094 1.356 1.579 1.902 1.998 2.226 2.349 2.118 2.538 2.01 2.7 1.902 2.835 1.066 2.241 .324 1.768-.324 1.418-.972 1.066-1.485 .823-1.862 .689-2.051 .958-2.254 1.188-2.469 1.377-1.39 1.701-.533 2.052 .101 2.43 .735 2.808 1.187 3.118 1.457 3.362 1.349 3.496 1.228 3.645 1.093 3.807 .661 3.564 .195 3.327-.304 3.098-.803 2.869-1.336 2.633-1.903 2.389-2.064 2.659-2.254 2.929-2.469 3.199-1.363 3.469-.513 3.753 .081 4.05 .674 4.347 1.106 4.644 1.376 4.941H.81C.431 4.941-.014 4.927-.526 4.901V5.629C-.014 5.602 .431 5.589 .81 5.589H3.562C3.913 5.589 4.345 5.602 4.857 5.629V4.901C4.345 4.927 3.913 4.941 3.562 4.941H2.469C2.226 4.725 1.956 4.482 1.66 4.212 1.875 4.023 2.078 3.827 2.267 3.625 2.455 3.422 2.658 3.145 2.874 2.795 3.198 2.957 3.562 3.179 3.967 3.463 4.372 3.746 4.736 4.104 5.06 4.536 5.465 4.158 5.734 3.901 5.87 3.767 5.546 3.631 5.262 3.496 5.019 3.362 4.777 3.226 4.574 3.078 4.412 2.916 4.655 2.106 4.965 1.525 5.343 1.174 5.721 .823 6.247 .486 6.922 .162 6.652-.027 6.409-.283 6.193-.608 5.438-.121 4.884 .385 4.534 .911 4.183 1.438 3.94 1.985 3.805 2.552 3.589 2.416 3.373 2.295 3.157 2.187 3.292 1.458 3.353 .85 3.34 .365 3.326-.121 3.123-.492 2.732-.749 2.341-1.006 1.875-1.174 1.336-1.255 1.228-.904 1.106-.594 .972-.324 1.43-.324 1.794-.283 2.064-.202 2.334-.121 2.489 .081 2.53 .405 2.57 .729 2.55 1.147 2.469 1.66 1.579 .958 .755 .405 0 0M2.712 7.168H6.436C6.409 6.736 6.396 6.385 6.396 6.116 6.396 5.873 6.409 5.562 6.436 5.184H5.586V6.521H-1.457V4.982H-2.307C-2.281 5.413-2.267 5.792-2.267 6.116-2.267 6.466-2.281 6.817-2.307 7.168H1.741C1.632 7.519 1.511 7.83 1.376 8.1 1.727 8.181 2.051 8.275 2.348 8.384 2.402 8.113 2.523 7.708 2.712 7.168" fill="#ffffff"/>
<path transform="matrix(1,0,0,-1,293.2148,227.6449)" d="M0 0C-.081-.216-.236-.54-.466-.972-.695-1.404-.931-1.796-1.174-2.147V-5.792C-1.174-6.223-1.161-6.628-1.133-7.007H-1.983C-1.957-6.628-1.943-6.223-1.943-5.792V-3.078C-2.078-3.24-2.26-3.422-2.489-3.625-2.719-3.827-2.996-4.077-3.319-4.374-3.455-4.158-3.617-3.902-3.805-3.604-3.131-3.173-2.598-2.707-2.206-2.207-1.815-1.708-1.484-1.202-1.214-.689H-2.388C-2.901-.689-3.319-.702-3.643-.729V.081C-3.319 .027-2.901 0-2.388 0ZM-.729 1.053C-1.052 .999-1.35 .918-1.619 .81-1.674 1.269-1.821 1.741-2.064 2.228-1.768 2.309-1.484 2.389-1.214 2.47-1.026 1.957-.864 1.485-.729 1.053M.607-3.483C.364-3.618 .121-3.794-.121-4.009-.311-3.551-.621-3.051-1.052-2.511-.891-2.43-.675-2.282-.405-2.065 .054-2.632 .391-3.105 .607-3.483M2.429 1.418C2.429 1.93 2.415 2.309 2.388 2.552H3.32C3.265 2.281 3.239 1.917 3.239 1.458V-.608C4.075-.608 4.736-.594 5.222-.567V-1.377C4.763-1.35 4.102-1.337 3.239-1.337V-5.508H4.574C5.033-5.508 5.438-5.495 5.789-5.467V-6.237C5.438-6.21 5.046-6.197 4.615-6.197H1.295C.755-6.197 .284-6.21-.121-6.237V-5.467C.31-5.495 .782-5.508 1.295-5.508H2.429V-1.337C1.484-1.337 .823-1.35 .445-1.377V-.567C.823-.594 1.484-.608 2.429-.608Z" fill="#ffffff"/>
<path transform="matrix(1,0,0,-1,303.4565,234.2869)" d="M0 0V.729H-1.66V-.284H-2.429C-2.402 .122-2.388 1.201-2.388 2.956-2.605 2.633-2.834 2.335-3.077 2.065-3.239 2.281-3.455 2.43-3.724 2.511-3.455 2.781-3.185 3.105-2.915 3.483-2.645 3.861-2.456 4.212-2.348 4.536-2.564 4.536-2.834 4.522-3.158 4.495V5.184C-2.78 5.157-2.469 5.143-2.226 5.143-2.145 5.549-2.105 5.899-2.105 6.197-2.672 6.197-3.117 6.183-3.441 6.156V6.844C-3.09 6.817-2.645 6.804-2.105 6.804V7.938C-2.267 7.938-2.564 7.924-2.996 7.898V8.626C-2.591 8.599-2.254 8.586-1.984 8.586H.729C.701 8.181 .688 7.587 .688 6.804 .85 6.804 1.038 6.817 1.255 6.844V6.156C1.038 6.183 .85 6.197 .688 6.197 .688 5.413 .701 4.86 .729 4.536H-1.619C-1.781 4.05-1.93 3.712-2.065 3.523H.769C.742 3.172 .729 2.592 .729 1.782 .729 .972 .742 .378 .769 0ZM0 2.875H-1.66V1.336H0ZM-.04 5.143V6.197H-1.376C-1.404 5.899-1.444 5.549-1.498 5.143ZM-.04 7.938H-1.3759999V6.8040006H-.04ZM3.846 2.754C4.871 2.754 5.519 2.767 5.789 2.794V2.106C5.519 2.133 4.871 2.146 3.846 2.146V1.053C3.846 .567 3.859 .068 3.886-.445H3.076C3.103 .068 3.117 .567 3.117 1.053V2.146C2.172 2.146 1.511 2.133 1.133 2.106V2.794C1.511 2.767 2.172 2.754 3.117 2.754V4.333C2.307 4.333 1.754 4.32 1.457 4.293V4.982C1.781 4.954 2.334 4.941 3.117 4.941V6.359C2.415 6.359 1.848 6.345 1.417 6.318V7.007C1.848 6.979 2.591 6.966 3.643 6.966 3.94 7.614 4.196 8.316 4.412 9.072 4.736 8.91 5.046 8.802 5.343 8.748 5.235 8.586 5.1 8.363 4.938 8.08 4.776 7.796 4.587 7.425 4.372 6.966 4.83 6.966 5.235 6.979 5.586 7.007V6.318C5.262 6.345 4.682 6.359 3.846 6.359V4.941H4.412L5.465 4.982V4.293C5.087 4.32 4.547 4.333 3.846 4.333ZM1.74 8.667C1.929 8.748 2.118 8.87 2.307 9.031 2.55 8.761 2.82 8.383 3.117 7.898 2.847 7.736 2.631 7.587 2.469 7.452 2.226 7.911 1.983 8.316 1.74 8.667" fill="#ffffff"/>
<path transform="matrix(1,0,0,-1,276.3343,205.2518)" d="M0 0C.891-1.377 2.348-2.349 4.372-2.916 4.102-3.105 3.899-3.402 3.765-3.807 1.66-2.916 .256-1.823-.445-.526-1.363-1.877-2.767-3.051-4.655-4.05-4.844-3.699-5.047-3.429-5.262-3.24-3.886-2.7-2.827-2.032-2.085-1.235-1.343-.439-.891 .202-.729 .689-.567 .58-.257 .445 .202 .284ZM-3.238-8.262C-3.4-8.262-3.805-8.275-4.453-8.302V-7.533C-3.724-7.56-3.374-7.574-3.4-7.574H-2.955V-4.982C-2.955-4.658-2.982-4.239-3.036-3.726H-2.064C-2.119-4.239-2.145-4.658-2.145-4.982V-7.574H-.567V-3.645C-.567-3.321-.581-2.903-.607-2.389H.283C.256-2.875 .243-3.551 .243-4.414H1.498C1.929-4.414 2.402-4.401 2.915-4.374V-5.143C2.429-5.117 1.97-5.103 1.538-5.103H.243V-7.574H2.753C2.834-7.574 3.117-7.56 3.603-7.533V-8.302C3.117-8.275 2.82-8.262 2.712-8.262Z" fill="#ffffff"/>
<path transform="matrix(1,0,0,-1,285.6852,204.8873)" d="M0 0C-.054-.756-.081-1.404-.081-1.944V-7.897H1.255V-1.458C1.255-1.026 1.228-.54 1.174 0H2.186C2.132-.432 2.105-.891 2.105-1.377V-7.897H3.684C4.115-7.897 4.641-7.871 5.262-7.816V-8.707C4.641-8.653 4.129-8.626 3.724-8.626H-2.429C-2.807-8.626-3.347-8.653-4.048-8.707V-7.816C-3.347-7.871-2.82-7.897-2.469-7.897H-.971V-1.904C-.971-1.337-1.012-.702-1.093 0ZM-1.579-5.711C-1.876-5.765-2.186-5.872-2.51-6.035-2.996-4.469-3.428-3.254-3.805-2.389-3.536-2.282-3.238-2.16-2.915-2.025-2.591-2.862-2.145-4.09-1.579-5.711M3.441-6.116C3.171-5.953 2.888-5.832 2.591-5.751 3.158-4.698 3.589-3.429 3.886-1.944 4.183-2.052 4.52-2.16 4.898-2.268 4.547-3.186 4.061-4.469 3.441-6.116" fill="#ffffff"/>
<path transform="matrix(1,0,0,-1,294.5505,212.86582)" d="M0 0C-.756-.405-1.404-.742-1.943-1.013-2.159-.742-2.362-.499-2.55-.284-1.228 .148-.182 .607 .587 1.093 1.356 1.579 1.902 1.998 2.226 2.349 2.118 2.538 2.01 2.7 1.902 2.835 1.066 2.241 .324 1.768-.324 1.417-.972 1.066-1.485 .823-1.862 .688-2.051 .958-2.254 1.188-2.469 1.377-1.39 1.701-.533 2.052 .101 2.43 .735 2.808 1.187 3.118 1.457 3.361 1.349 3.496 1.228 3.645 1.093 3.807 .661 3.564 .195 3.327-.304 3.098-.803 2.869-1.336 2.632-1.903 2.389-2.064 2.659-2.254 2.929-2.469 3.199-1.363 3.469-.513 3.753 .081 4.05 .674 4.347 1.106 4.644 1.376 4.941H.81C.431 4.941-.014 4.927-.526 4.9V5.629C-.014 5.602 .431 5.589 .81 5.589H3.562C3.913 5.589 4.345 5.602 4.857 5.629V4.9C4.345 4.927 3.913 4.941 3.562 4.941H2.469C2.226 4.725 1.956 4.482 1.66 4.212 1.875 4.023 2.078 3.827 2.267 3.625 2.455 3.422 2.658 3.145 2.874 2.794 3.198 2.956 3.562 3.179 3.967 3.463 4.372 3.746 4.736 4.104 5.06 4.536 5.465 4.158 5.734 3.901 5.87 3.766 5.546 3.631 5.262 3.496 5.019 3.361 4.777 3.226 4.574 3.078 4.412 2.916 4.655 2.106 4.965 1.525 5.343 1.174 5.721 .823 6.247 .486 6.922 .162 6.652-.027 6.409-.284 6.193-.608 5.438-.122 4.884 .385 4.534 .911 4.183 1.438 3.94 1.984 3.805 2.551 3.589 2.416 3.373 2.295 3.157 2.187 3.292 1.458 3.353 .85 3.34 .365 3.326-.122 3.123-.492 2.732-.749 2.341-1.006 1.875-1.174 1.336-1.256 1.228-.904 1.106-.594 .972-.324 1.43-.324 1.794-.284 2.064-.203 2.334-.122 2.489 .081 2.53 .405 2.57 .729 2.55 1.147 2.469 1.66 1.579 .958 .755 .405 0 0M2.712 7.168H6.436C6.409 6.736 6.396 6.385 6.396 6.115 6.396 5.872 6.409 5.562 6.436 5.184H5.586V6.52H-1.457V4.981H-2.307C-2.281 5.413-2.267 5.791-2.267 6.115-2.267 6.466-2.281 6.817-2.307 7.168H1.741C1.632 7.519 1.511 7.83 1.376 8.1 1.727 8.181 2.051 8.275 2.348 8.383 2.402 8.113 2.523 7.708 2.712 7.168" fill="#ffffff"/>
<path transform="matrix(1,0,0,-1,304.4274,207.6008)" d="M0 0V1.741C-.729 1.633-1.242 1.539-1.538 1.458-1.593 1.728-1.687 1.984-1.822 2.228-1.282 2.281-.601 2.376 .223 2.511 1.046 2.646 1.673 2.781 2.105 2.916 2.186 2.646 2.321 2.362 2.51 2.065 2.24 2.065 1.956 2.045 1.66 2.005 1.362 1.964 1.066 1.917 .769 1.863V0H1.376C1.889 0 2.267 .013 2.51 .04V-.729C2.267-.702 1.889-.689 1.376-.689H.769V-4.698C.769-5.535 .782-6.116 .81-6.439H-.04C-.014-6.116 0-5.535 0-4.698V-2.228C-.189-2.687-.432-3.132-.729-3.564-1.026-3.996-1.295-4.388-1.538-4.738-1.7-4.442-1.903-4.226-2.145-4.09-1.714-3.632-1.33-3.098-.992-2.491-.655-1.883-.405-1.283-.243-.689H-.85C-1.336-.689-1.714-.702-1.983-.729V.04C-1.66 .013-1.282 0-.85 0ZM2.51-2.794C2.159-3.038 1.903-3.227 1.741-3.362 1.551-2.903 1.255-2.403 .85-1.863 1.093-1.728 1.295-1.579 1.457-1.418 1.916-2.012 2.267-2.47 2.51-2.794M4.655 .324C4.385-.675 3.872-2.376 3.117-4.779L5.951-4.414C5.815-4.009 5.478-3.146 4.938-1.823 5.181-1.741 5.424-1.62 5.667-1.458 6.018-2.241 6.348-3.024 6.659-3.807 6.969-4.59 7.178-5.157 7.286-5.508 6.963-5.643 6.679-5.778 6.436-5.913 6.355-5.643 6.274-5.36 6.193-5.062 5.168-5.198 4.304-5.333 3.603-5.467 2.901-5.602 2.455-5.724 2.267-5.832L1.862-4.86C2.132-4.779 2.361-4.475 2.55-3.949 2.739-3.422 2.955-2.734 3.198-1.883 3.441-1.033 3.656-.196 3.846 .628 4.034 1.451 4.142 2.092 4.169 2.551 4.574 2.362 4.938 2.228 5.262 2.147 5.127 1.93 4.925 1.323 4.655 .324" fill="#ffffff"/>
<path transform="matrix(1,0,0,-1,319.405,207.31729)" d="M0 0C-.54-.027-1.093-.068-1.66-.121V-.608H1.012C1.632-.608 2.172-.594 2.631-.567V-1.215C2.172-1.188 1.632-1.174 1.012-1.174H-1.66V-1.66H1.336C1.309-2.066 1.295-2.484 1.295-2.916 1.295-3.348 1.309-3.807 1.336-4.293H-1.66V-4.82H.284C.796-4.82 1.255-4.806 1.66-4.779V-5.387C1.255-5.36 .81-5.346 .324-5.346H-1.66V-5.913H.972C1.538-5.913 2.024-5.899 2.429-5.872V-6.521C1.943-6.493 1.471-6.48 1.012-6.48H-4.979C-5.519-6.48-5.991-6.493-6.396-6.521V-5.872C-5.964-5.899-5.479-5.913-4.938-5.913H-2.348V-5.346H-4.129C-4.669-5.346-5.155-5.36-5.586-5.387V-4.779C-5.181-4.806-4.71-4.82-4.169-4.82H-2.348V-4.293H-5.262C-5.236-3.834-5.222-3.389-5.222-2.957-5.222-2.498-5.236-2.066-5.262-1.66H-2.348V-1.174H-5.06C-5.627-1.174-6.113-1.188-6.517-1.215V-.567C-6.113-.594-5.627-.608-5.06-.608H-2.348V-.162C-2.753-.162-3.178-.169-3.623-.182-4.068-.196-4.642-.216-5.343-.243-5.398 .027-5.465 .229-5.546 .365-4.601 .337-3.603 .351-2.55 .405-1.498 .459-.351 .594 .891 .81 .972 .594 1.134 .351 1.376 .081 .998 .054 .54 .027 0 0M-1.052 .77V1.377H-3.077V.729H-3.846C-3.819 .999-3.805 1.215-3.805 1.377H-4.898C-5.6 1.377-6.059 1.363-6.274 1.336V2.025C-6.059 1.998-5.6 1.984-4.898 1.984H-3.805C-3.805 2.173-3.819 2.416-3.846 2.714H-3.036C-3.063 2.47-3.077 2.228-3.077 1.984H-1.052C-1.052 2.228-1.066 2.47-1.093 2.714H-.283C-.311 2.47-.324 2.228-.324 1.984H.931C1.255 1.984 1.646 1.998 2.105 2.025V1.336C1.646 1.363 1.255 1.377 .931 1.377H-.324C-.324 1.215-.311 1.012-.283 .77ZM-2.348-2.187H-4.493V-2.754H-2.348ZM-2.348-3.24H-4.493V-3.766H-2.348ZM.607-2.187H-1.66V-2.754H.607ZM.607-3.24H-1.66V-3.766H.607ZM.607-3.767" fill="#ffffff"/>
<path transform="matrix(1,0,0,-1,332.4802,208.2893)" d="M0 0C-.243-.216-.432-.459-.567-.729-2.402 .108-3.792 1.188-4.736 2.511-6.005 1.08-7.395-.068-8.906-.931-9.176-.554-9.405-.324-9.594-.243-8.596 .108-7.644 .689-6.74 1.499-5.836 2.309-5.222 3.051-4.898 3.726-4.655 3.564-4.372 3.415-4.048 3.281L-4.291 3.038C-3.347 1.687-1.917 .675 0 0M-6.963-4.658C-5.181-4.604-3.805-4.55-2.834-4.495-3.077-4.226-3.441-3.875-3.927-3.443-3.738-3.28-3.549-3.105-3.36-2.916-2.982-3.267-2.618-3.611-2.267-3.949-1.917-4.287-1.512-4.698-1.053-5.184-1.242-5.346-1.471-5.548-1.741-5.792-1.984-5.44-2.186-5.197-2.348-5.062-2.969-5.089-3.974-5.143-5.364-5.224-6.754-5.305-7.651-5.4-8.055-5.508-8.191-5.157-8.298-4.887-8.379-4.698-7.948-4.563-7.435-4.219-6.841-3.665-6.248-3.112-5.829-2.66-5.586-2.309H-6.76C-7.489-2.309-8.164-2.322-8.784-2.349V-1.66C-8.137-1.688-7.476-1.701-6.801-1.701H-2.753C-2.078-1.701-1.417-1.688-.769-1.66V-2.349C-1.417-2.322-2.132-2.309-2.915-2.309H-5.343C-5.128-2.525-4.925-2.687-4.736-2.794-4.925-2.93-5.667-3.551-6.963-4.658M-4.008 .162C-3.414 .162-2.928 .175-2.55 .203V-.526C-2.955-.5-3.441-.486-4.008-.486H-5.748C-6.261-.486-6.693-.5-7.044-.526V.203C-6.693 .175-6.275 .162-5.789 .162Z" fill="#ffffff"/>
<path transform="matrix(1,0,0,-1,149.7144,354.98713)" d="M0 0C-.257-.445-.601-.992-1.032-1.64-.385-1.614 .061-1.6 .304-1.6 .546-1.195 .762-.749 .951-.263 1.221-.452 1.518-.601 1.842-.709 1.572-.979 1.295-1.343 1.012-1.802 .729-2.262 .236-3.044-.466-4.151 .263-4.097 .911-4.044 1.477-3.989 1.396-4.259 1.356-4.489 1.356-4.678 1.167-4.678 .749-4.712 .101-4.779-.547-4.847-1.073-4.935-1.478-5.042-1.505-4.773-1.586-4.489-1.72-4.192-1.397-4.111-1.1-3.895-.83-3.544-.56-3.193-.277-2.748 .02-2.207-.87-2.262-1.437-2.369-1.68-2.531-1.761-2.234-1.882-1.938-2.044-1.64-1.694-1.397-1.356-.999-1.032-.445-.708 .108-.412 .749-.142 1.478 .128 1.289 .438 1.14 .789 1.033 .519 .79 .256 .445 0 0M1.801-6.136C1.127-6.271 .519-6.406-.02-6.541-.56-6.676-1.059-6.824-1.518-6.986-1.599-6.689-1.748-6.393-1.963-6.095-1.208-6.014-.627-5.94-.223-5.872 .182-5.805 .856-5.664 1.801-5.447 1.774-5.745 1.774-5.974 1.801-6.136M3.218 .101C3.218 .506 3.178 .952 3.097 1.438 3.447 1.411 3.811 1.37 4.19 1.316 4.109 1.154 4.054 .891 4.028 .527 4.001 .162 4.001-.358 4.028-1.033L5.404-.79C5.863-.682 6.321-.561 6.78-.425L6.942-1.195C6.483-1.249 6.011-1.316 5.526-1.397L4.068-1.681C4.068-2.113 4.095-2.491 4.149-2.815L5.728-2.531C6.267-2.424 6.78-2.288 7.266-2.126L7.388-2.896C6.902-2.977 6.389-3.072 5.849-3.179L4.271-3.463C4.324-4.003 4.459-4.502 4.675-4.961 4.918-4.773 5.154-4.556 5.384-4.313 5.613-4.07 5.822-3.801 6.011-3.503 6.416-3.827 6.726-4.044 6.942-4.151 6.591-4.313 6.315-4.495 6.112-4.698 5.91-4.9 5.579-5.218 5.121-5.65 5.445-6.19 5.734-6.534 5.991-6.682 6.247-6.831 6.429-6.838 6.537-6.703 6.645-6.568 6.74-6.284 6.821-5.852 7.064-6.041 7.347-6.19 7.671-6.298 7.212-7.486 6.713-7.965 6.173-7.736 5.633-7.506 5.066-6.972 4.473-6.136 4.095-6.433 3.724-6.71 3.36-6.966 2.996-7.222 2.543-7.486 2.004-7.756 1.868-7.486 1.666-7.243 1.396-7.027 1.936-6.838 2.395-6.636 2.773-6.419 3.15-6.203 3.582-5.893 4.068-5.488 3.825-4.948 3.65-4.313 3.542-3.584 2.732-3.72 2.166-3.841 1.842-3.949L1.72-3.179C2.044-3.179 2.597-3.098 3.38-2.936 3.326-2.505 3.299-2.14 3.299-1.843 2.57-2.005 2.071-2.126 1.801-2.207L1.639-1.438C1.909-1.438 2.435-1.357 3.218-1.195ZM4.716 .709 5.364 1.033C5.471 .897 5.741 .573 6.173 .061 5.903-.047 5.673-.182 5.485-.344 5.296-.047 5.04 .304 4.716 .709" fill="#ffffff"/>
<path transform="matrix(1,0,0,-1,165.8052,354.2378)" d="M0 0C.512 0 1.039 .013 1.579 .04V-.81C.985-.783 .459-.77 0-.77H-2.793V-7.007C-2.793-7.358-2.78-7.803-2.753-8.343H-3.684C-3.657-7.857-3.643-7.411-3.643-7.007V-.77H-5.87C-6.41-.77-6.936-.783-7.448-.81V.04C-6.936 .013-6.41 0-5.87 0ZM.324-5.994C-.108-5.427-.945-4.577-2.186-3.443L-1.579-2.835C-.85-3.429 .027-4.266 1.052-5.346 .782-5.535 .54-5.751 .324-5.994" fill="#ffffff"/>
<path transform="matrix(1,0,0,-1,172.7677,356.3438)" d="M0 0C.027 .945 .034 1.579 .02 1.904 .006 2.228-.014 2.538-.04 2.835 .283 2.781 .648 2.74 1.052 2.714 .972 2.443 .911 2.052 .87 1.539 .83 1.026 .81 .513 .81 0H2.874C3.603 0 4.277 .027 4.898 .081V-.81C4.358-.783 3.805-.77 3.238-.77H.85C.958-1.229 1.147-1.695 1.417-2.167 1.686-2.639 1.963-3.058 2.247-3.422 2.53-3.787 2.921-4.171 3.421-4.576 3.92-4.981 4.466-5.319 5.06-5.589 4.844-5.751 4.628-6.021 4.412-6.399 3.927-6.129 3.447-5.792 2.975-5.386 2.503-4.981 2.03-4.449 1.559-3.787 1.086-3.125 .729-2.511 .486-1.944 .269-2.538 .041-3.031-.202-3.422-.445-3.814-.708-4.171-.992-4.495-1.275-4.819-1.639-5.143-2.085-5.467-2.53-5.792-3.036-6.115-3.603-6.439-3.819-6.115-4.062-5.832-4.331-5.589-3.765-5.4-3.205-5.13-2.651-4.779-2.099-4.428-1.646-4.03-1.295-3.584-.945-3.139-.662-2.673-.445-2.187-.23-1.701-.095-1.229-.04-.77H-2.267C-2.914-.77-3.427-.783-3.805-.81V.081C-3.427 .054-2.914 .027-2.267 0Z" fill="#ffffff"/>
<path transform="matrix(1,0,0,-1,181.2686,361.34553)" d="M0 0C-.216-.311-.445-.654-.688-1.033-.905-.871-1.147-.709-1.417-.547-1.174-.304-1.052-.061-1.052 .182V4.07H-1.376C-1.727 4.07-2.105 4.056-2.51 4.03V4.799C-2.132 4.772-1.755 4.759-1.376 4.759H-.283C-.311 4.218-.324 3.679-.324 3.139V.871C-.162 1.114 .013 1.37 .202 1.64 .364 1.37 .553 1.154 .769 .992 .472 .641 .216 .31 0 0M.121 6.257C-.122 6.149-.378 5.987-.648 5.771-.999 6.5-1.323 7.013-1.619 7.31-1.323 7.499-1.08 7.661-.891 7.796-.432 7.148-.095 6.635 .121 6.257M6.072 5.69C6.072 4.772 6.085 4.124 6.112 3.746H3.926V2.936C5.572 2.936 6.558 2.95 6.882 2.977V2.248C6.531 2.274 5.64 2.288 4.21 2.288 4.641 1.694 5.114 1.208 5.627 .83 6.139 .452 6.665 .168 7.205-.02 7.016-.263 6.868-.547 6.76-.871 6.058-.573 5.478-.209 5.019 .223 4.56 .654 4.196 1.087 3.926 1.519 3.926 .006 3.94-1.046 3.967-1.64H3.157C3.184-1.019 3.198-.007 3.198 1.397 2.928 .992 2.624 .608 2.287 .243 1.949-.121 1.43-.533 .729-.992 .593-.749 .405-.52 .162-.304 .891 .074 1.443 .472 1.822 .891 2.199 1.309 2.523 1.775 2.793 2.288 1.524 2.288 .715 2.274 .364 2.248V2.977C.688 2.95 1.632 2.936 3.198 2.936V3.746H1.012C1.039 4.34 1.052 5.028 1.052 5.812 1.052 6.622 1.039 7.283 1.012 7.796H6.112C6.085 7.31 6.072 6.608 6.072 5.69M3.198 7.148H1.8219999V6.1349999H3.198ZM3.198 5.488H1.8219999V4.435H3.198ZM5.303 7.148H3.927V6.1349999H5.303ZM5.303 5.488H3.927V4.435H5.303ZM5.303 4.435" fill="#ffffff"/>
</g>
<path transform="matrix(1,0,0,-1,146.0128,379.5874)" d="M0 0 .526-.203-1.7-4.941 .526-9.558 0-9.76-2.348-4.901ZM1.619 0 2.145-.203-.121-4.941 2.145-9.558 1.619-9.76-.769-4.901Z" fill="#ffffff"/>
<g clip-path="url(#clip_6)">
<path transform="matrix(1,0,0,-1,149.7758,386.1079)" d="M0 0C.188-.729 .512-1.134 .971-1.215 1.43-1.296 1.801-1.249 2.085-1.073 2.368-.898 2.57-.668 2.692-.385 2.813-.101 2.867 .216 2.854 .567 2.84 .918 2.746 1.215 2.57 1.458 2.395 1.701 2.172 1.863 1.903 1.944 1.632 2.025 1.329 2.025 .992 1.944 .654 1.863 .378 1.674 .162 1.377L-.526 1.458C-.472 1.62-.216 2.781 .243 4.941H3.441V4.212H.85C.715 3.483 .58 2.902 .445 2.47 .85 2.659 1.228 2.747 1.579 2.734 1.929 2.72 2.267 2.639 2.591 2.491 2.915 2.342 3.15 2.14 3.299 1.883 3.447 1.626 3.555 1.37 3.623 1.114 3.69 .857 3.717 .58 3.704 .284 3.69-.014 3.629-.318 3.522-.628 3.414-.938 3.252-1.195 3.036-1.397 2.82-1.6 2.557-1.762 2.247-1.883 1.936-2.005 1.579-2.052 1.174-2.025 .769-1.998 .385-1.85 .02-1.579-.344-1.31-.594-.85-.729-.203Z" fill="#ffffff"/>
<path transform="matrix(1,0,0,-1,157.8339,381.5719)" d="M0 0C-.162-.324-.324-.614-.486-.871-.648-1.128-.891-1.472-1.214-1.904-1.538-2.336-1.93-2.781-2.388-3.24-2.631-2.997-2.874-2.808-3.117-2.673-2.577-2.187-2.152-1.742-1.842-1.337-1.532-.932-1.235-.493-.951-.02-.668 .452-.419 .972-.202 1.539 .013 1.377 .283 1.242 .607 1.134 .364 .702 .162 .324 0 0M-2.834-7.047C-2.402-6.885-2.011-6.689-1.66-6.46-1.309-6.231-.999-5.947-.729-5.609-.459-5.272-.257-4.901-.121-4.496 .013-4.091 .108-3.591 .162-2.997-.459-2.997-.958-3.011-1.336-3.038V-2.187C-.904-2.214-.351-2.228 .324-2.228H4.372C4.317-2.633 4.277-2.984 4.25-3.281L3.927-6.278C3.872-6.764 3.656-7.088 3.279-7.25 2.901-7.411 2.483-7.506 2.024-7.533 1.997-7.263 1.862-6.952 1.619-6.602 2.186-6.629 2.57-6.608 2.773-6.541 2.975-6.474 3.103-6.237 3.158-5.832L3.441-2.997H1.012C.931-3.699 .816-4.287 .668-4.759 .519-5.231 .31-5.643 .04-5.994-.23-6.345-.553-6.669-.931-6.966-1.309-7.263-1.714-7.519-2.145-7.736-2.335-7.438-2.564-7.209-2.834-7.047M3.785-.243C4.365-.972 5.181-1.607 6.234-2.147 6.018-2.336 5.802-2.619 5.586-2.997 5.101-2.646 4.676-2.315 4.311-2.005 3.947-1.695 3.643-1.404 3.4-1.134 3.158-.864 2.887-.48 2.591 .02 2.294 .52 2.051 .985 1.862 1.417 2.159 1.498 2.415 1.593 2.631 1.701 2.82 1.134 3.204 .486 3.785-.243" fill="#ffffff"/>
<path transform="matrix(1,0,0,-1,167.2051,380.9037)" d="M0 0C-.095-.202-.196-.399-.304-.587H.263C.614-.587 .978-.574 1.356-.547V-1.276C.87-1.249 .466-1.235 .142-1.235H-.668C-.857-1.505-1.052-1.762-1.255-2.005-1.457-2.248-1.68-2.491-1.923-2.734-2.031-2.518-2.193-2.315-2.409-2.126-2.004-1.721-1.646-1.269-1.336-.77-1.026-.27-.803 .29-.668 .911-.263 .776 .074 .682 .344 .628 .209 .411 .094 .203 0 0M-1.275-2.248C-.898-2.275-.506-2.288-.101-2.288 .304-2.288 .708-2.275 1.113-2.248V-2.936C.681-2.91 .344-2.896 .101-2.896V-4.07C.506-4.07 .937-4.057 1.397-4.03V-4.759C.937-4.732 .506-4.718 .101-4.718V-6.662L1.113-5.852C1.167-6.095 1.261-6.338 1.397-6.581 1.207-6.717 .944-6.919 .607-7.189 .269-7.458-.088-7.769-.466-8.12-.655-7.877-.844-7.661-1.032-7.472-.87-7.31-.749-6.973-.668-6.46V-4.718C-1.019-4.718-1.41-4.732-1.842-4.759V-4.03C-1.383-4.057-.992-4.07-.668-4.07V-2.896C-.83-2.896-1.032-2.91-1.275-2.936ZM1.842-2.329C1.842-2.005 1.828-1.586 1.801-1.073H3.825V-.142C3.825 .128 3.811 .479 3.785 .911H4.675C4.648 .587 4.635 .223 4.635-.182V-1.073H6.74C6.713-1.614 6.699-2.005 6.699-2.248V-4.921C6.699-5.191 6.713-5.502 6.74-5.852H5.93V-5.123H4.635V-6.703C4.635-7.054 4.648-7.594 4.675-8.323H3.785C3.811-7.567 3.825-7.027 3.825-6.703V-5.123H2.611V-5.852H1.761C1.815-5.528 1.842-5.245 1.842-5.002ZM3.825-1.721H2.611V-4.475H3.825ZM5.93-1.721H4.6349999V-4.475H5.93ZM5.93-4.475" fill="#ffffff"/>
<path transform="matrix(1,0,0,-1,180.5432,380.9239)" d="M0 0H2.307C2.847 0 3.386 .013 3.927 .04V-.689C3.386-.662 2.847-.648 2.307-.648H-2.348C-1.835-1.188-1.525-1.539-1.417-1.701-1.606-1.782-1.808-1.904-2.024-2.065H.162C.324-1.634 .486-1.174 .648-.689 .917-.797 1.228-.891 1.579-.972 1.39-1.215 1.174-1.579 .931-2.065H3.198C3.171-2.389 3.157-2.835 3.157-3.402V-7.411C3.157-7.736 3.009-7.965 2.712-8.1 2.415-8.235 2.01-8.343 1.498-8.424 1.471-8.1 1.362-7.803 1.174-7.533 1.714-7.56 2.051-7.533 2.186-7.452 2.321-7.371 2.388-7.236 2.388-7.047V-2.633H-3.522V-8.302H-4.331C-4.305-7.6-4.291-7.101-4.291-6.804V-3.321C-4.291-3.051-4.305-2.633-4.331-2.065H-2.105C-2.294-1.741-2.605-1.404-3.036-1.053-2.82-.945-2.618-.81-2.429-.648H-3.36C-3.981-.648-4.52-.662-4.979-.689V.04C-4.52 .013-3.994 0-3.4 0H-.891C-.971 .27-1.147 .553-1.417 .85-1.147 .932-.891 1.026-.648 1.134-.297 .594-.081 .216 0 0M-.769-3.523C-1.039-3.659-1.431-4.023-1.943-4.617H1.133C1.106-4.968 1.093-5.346 1.093-5.751 1.093-6.156 1.106-6.561 1.133-6.966H-2.024C-1.997-6.561-1.984-6.17-1.984-5.792-1.984-5.387-1.997-5.022-2.024-4.698-2.213-4.86-2.402-5.009-2.591-5.143-2.726-4.955-2.928-4.806-3.198-4.698-2.362-4.05-1.808-3.497-1.538-3.038-1.269-3.227-1.012-3.389-.769-3.523M.324-5.224H-1.255V-6.358H.324ZM2.186-4.333C1.943-4.469 1.741-4.644 1.579-4.86 1.309-4.536 .742-4.09-.121-3.523 .067-3.389 .229-3.213 .364-2.997 1.12-3.483 1.727-3.928 2.186-4.333" fill="#ffffff"/>
<path transform="matrix(1,0,0,-1,193.0516,383.9209)" d="M0 0V-.851C-.378-.932-.722-1.06-1.032-1.235-1.343-1.411-1.7-1.593-2.105-1.782V-2.147H.445C.769-2.147 1.187-2.133 1.7-2.106V-2.916C1.16-2.889 .742-2.876 .445-2.876H-2.105V-4.536C-2.105-4.914-2.254-5.15-2.55-5.245-2.848-5.339-3.333-5.413-4.008-5.467-4.089-5.17-4.224-4.873-4.412-4.577H-3.319C-3.05-4.577-2.915-4.428-2.915-4.131V-2.876H-5.708C-6.14-2.876-6.625-2.889-7.165-2.916V-2.106C-6.598-2.133-6.126-2.147-5.748-2.147H-2.915C-2.915-1.931-2.942-1.688-2.996-1.418L-1.538-.689H-3.765C-4.278-.689-4.858-.702-5.505-.729V.04C-4.912 .013-4.345 0-3.805 0ZM-.607 1.822H1.619C1.592 1.579 1.579 1.296 1.579 .972 1.579 .648 1.592 .337 1.619 .04H.769V1.134H-6.234V0H-7.084C-7.057 .324-7.044 .648-7.044 .972-7.044 1.296-7.057 1.579-7.084 1.822H-1.457C-1.242 2.2-1.019 2.598-.789 3.017-.56 3.436-.378 3.847-.243 4.252 .188 4.009 .526 3.834 .769 3.726 .229 3.105-.23 2.47-.607 1.822M-4.615 2.592C-4.912 2.376-5.141 2.173-5.303 1.984-5.654 2.497-6.059 2.943-6.517 3.321-6.221 3.537-6.005 3.712-5.87 3.847-5.384 3.442-4.966 3.024-4.615 2.592M-2.105 2.714C-2.348 2.524-2.605 2.349-2.874 2.187-3.09 2.619-3.414 3.105-3.846 3.645-3.576 3.834-3.333 3.996-3.117 4.131-2.605 3.483-2.267 3.01-2.105 2.714" fill="#ffffff"/>
<path transform="matrix(1,0,0,-1,198.7997,381.9364)" d="M0 0C-.162-.54-.338-1.08-.526-1.62-.014-2.268 .31-2.774 .445-3.139 .58-3.503 .607-3.861 .526-4.212 .445-4.563 .269-4.833 0-5.022-.27-5.211-.634-5.306-1.093-5.306-1.093-5.009-1.147-4.698-1.255-4.374-.743-4.455-.439-4.401-.344-4.212-.25-4.023-.223-3.794-.263-3.523-.304-3.254-.419-2.977-.607-2.693-.796-2.41-1.026-2.106-1.295-1.782-1.188-1.431-1.059-1.033-.911-.587-.763-.142-.648 .297-.567 .729H-1.7V-7.371H-2.469C-2.443-6.858-2.429-6.237-2.429-5.508V-.365C-2.429 .229-2.443 .783-2.469 1.296H.445C.31 .972 .162 .54 0 0M4.736-2.754C5.222-2.754 5.667-2.741 6.072-2.714V-3.402C5.667-3.375 5.384-3.362 5.222-3.362H4.534V-5.913C4.534-6.237 4.648-6.405 4.878-6.419 5.107-6.433 5.303-6.433 5.465-6.419 5.627-6.405 5.741-6.331 5.809-6.197 5.876-6.062 5.923-5.792 5.951-5.387 6.193-5.549 6.45-5.67 6.72-5.751 6.584-6.453 6.389-6.858 6.133-6.966 5.876-7.074 5.417-7.114 4.756-7.088 4.095-7.06 3.778-6.709 3.805-6.035V-3.362H2.874C2.901-4.037 2.833-4.664 2.672-5.245 2.51-5.826 2.226-6.284 1.822-6.622 1.417-6.959 .985-7.209 .526-7.371 .418-7.155 .216-6.952-.081-6.764 1.052-6.412 1.713-5.933 1.903-5.326 2.091-4.718 2.172-4.064 2.145-3.362 1.524-3.362 1.079-3.375 .81-3.402V-2.714C1.16-2.741 1.579-2.754 2.064-2.754ZM6.355 .04C6.355-.203 6.369-.459 6.396-.729H5.586V.202H1.538V-.689H.729C.755-.445 .769-.216 .769 0 .769 .216 .755 .472 .729 .77H6.396C6.369 .526 6.355 .283 6.355 .04M4.129-1.134C4.696-1.134 5.141-1.121 5.465-1.094V-1.782C5.114-1.755 4.668-1.742 4.129-1.742H2.955C2.361-1.742 1.875-1.755 1.498-1.782V-1.094C1.848-1.121 2.321-1.134 2.914-1.134ZM3.4 .81C3.265 1.107 3.022 1.458 2.672 1.863 2.914 1.971 3.117 2.106 3.279 2.268 3.71 1.701 3.98 1.336 4.088 1.174 3.846 1.093 3.616 .972 3.4 .81" fill="#ffffff"/>
</g>
<path transform="matrix(1,0,0,-1,207.1,379.5874)" d="M0 0 2.267-4.941 0-9.76-.526-9.558 1.7-4.901-.526-.203ZM1.579 0 3.927-4.941 1.579-9.76 1.052-9.558 3.36-4.901 1.052-.203Z" fill="#ffffff"/>
<g clip-path="url(#clip_7)">
<path transform="matrix(1,0,0,-1,218.6149,381.3897)" d="M0 0C-.257-.445-.601-.992-1.032-1.64-.385-1.614 .061-1.6 .304-1.6 .547-1.195 .762-.749 .951-.263 1.221-.452 1.518-.601 1.842-.709 1.572-.979 1.295-1.343 1.012-1.802 .729-2.262 .236-3.044-.465-4.151 .263-4.097 .911-4.044 1.478-3.989 1.397-4.259 1.356-4.489 1.356-4.678 1.167-4.678 .749-4.712 .101-4.779-.546-4.847-1.073-4.935-1.477-5.042-1.505-4.773-1.586-4.489-1.72-4.192-1.396-4.111-1.1-3.895-.83-3.544-.56-3.193-.277-2.748 .02-2.207-.87-2.262-1.437-2.369-1.68-2.531-1.761-2.234-1.882-1.938-2.044-1.64-1.694-1.397-1.356-.999-1.032-.445-.708 .108-.412 .749-.142 1.478 .128 1.289 .438 1.14 .79 1.033 .519 .79 .256 .445 0 0M1.801-6.136C1.127-6.271 .519-6.406-.02-6.541-.56-6.676-1.059-6.824-1.518-6.986-1.599-6.689-1.747-6.393-1.963-6.095-1.208-6.014-.627-5.94-.223-5.872 .182-5.805 .856-5.664 1.801-5.447 1.774-5.745 1.774-5.974 1.801-6.136M3.218 .101C3.218 .506 3.178 .952 3.097 1.438 3.447 1.411 3.812 1.37 4.19 1.316 4.109 1.154 4.054 .891 4.028 .526 4.001 .162 4.001-.358 4.028-1.033L5.404-.79C5.863-.682 6.321-.561 6.781-.425L6.942-1.195C6.483-1.249 6.011-1.316 5.526-1.397L4.068-1.681C4.068-2.113 4.095-2.491 4.149-2.815L5.728-2.531C6.268-2.424 6.781-2.288 7.266-2.126L7.388-2.896C6.902-2.977 6.389-3.072 5.849-3.179L4.271-3.463C4.324-4.003 4.459-4.502 4.676-4.961 4.918-4.773 5.154-4.556 5.384-4.313 5.613-4.07 5.822-3.801 6.011-3.503 6.416-3.827 6.726-4.044 6.942-4.151 6.591-4.313 6.315-4.495 6.113-4.698 5.91-4.901 5.579-5.218 5.121-5.65 5.445-6.19 5.734-6.534 5.991-6.682 6.247-6.831 6.429-6.838 6.538-6.703 6.645-6.568 6.74-6.284 6.821-5.852 7.064-6.041 7.347-6.19 7.671-6.298 7.212-7.486 6.713-7.965 6.173-7.736 5.633-7.506 5.067-6.972 4.473-6.136 4.095-6.433 3.724-6.71 3.36-6.966 2.996-7.222 2.543-7.486 2.004-7.756 1.868-7.486 1.666-7.243 1.397-7.027 1.936-6.838 2.395-6.636 2.773-6.419 3.151-6.203 3.583-5.893 4.068-5.488 3.826-4.948 3.65-4.313 3.542-3.584 2.732-3.72 2.166-3.841 1.842-3.949L1.72-3.179C2.044-3.179 2.597-3.098 3.38-2.936 3.326-2.505 3.299-2.14 3.299-1.843 2.57-2.005 2.071-2.126 1.801-2.207L1.64-1.438C1.909-1.438 2.435-1.357 3.218-1.195ZM4.716 .709 5.364 1.033C5.471 .897 5.741 .573 6.173 .061 5.903-.047 5.674-.182 5.485-.344 5.296-.047 5.04 .304 4.716 .709" fill="#ffffff"/>
<path transform="matrix(1,0,0,-1,231.8318,381.32893)" d="M0 0V-1.701H2.307C2.847-1.701 3.36-1.688 3.846-1.66V-2.551C3.305-2.525 2.766-2.511 2.226-2.511H0V-6.602H3.198C3.603-6.602 4.074-6.588 4.615-6.561V-7.411C4.102-7.384 3.629-7.371 3.198-7.371H-3.198C-3.63-7.371-4.116-7.384-4.655-7.411V-6.561C-4.143-6.588-3.657-6.602-3.198-6.602H-.85V-.04C-.85 .365-.864 .81-.891 1.296H.041C.013 .837 0 .405 0 0" fill="#ffffff"/>
<path transform="matrix(1,0,0,-1,239.8063,387.7482)" d="M0 0C-.216-.311-.445-.654-.688-1.033-.904-.871-1.147-.709-1.417-.547-1.174-.304-1.052-.061-1.052 .182V4.07H-1.376C-1.727 4.07-2.105 4.056-2.51 4.03V4.799C-2.132 4.772-1.755 4.759-1.376 4.759H-.283C-.31 4.218-.324 3.679-.324 3.139V.871C-.162 1.114 .013 1.37 .203 1.64 .365 1.37 .553 1.154 .769 .992 .472 .641 .216 .31 0 0M.122 6.257C-.121 6.149-.378 5.987-.648 5.771-.999 6.5-1.323 7.013-1.619 7.31-1.323 7.499-1.08 7.661-.891 7.796-.432 7.148-.095 6.635 .122 6.257M6.072 5.69C6.072 4.772 6.085 4.124 6.113 3.746H3.927V2.936C5.572 2.936 6.558 2.95 6.882 2.977V2.248C6.531 2.274 5.64 2.288 4.21 2.288 4.641 1.694 5.114 1.208 5.627 .83 6.139 .452 6.665 .168 7.206-.02 7.016-.263 6.868-.547 6.76-.871 6.058-.573 5.478-.209 5.02 .223 4.56 .654 4.196 1.087 3.927 1.519 3.927 .006 3.94-1.046 3.967-1.64H3.158C3.184-1.019 3.198-.007 3.198 1.397 2.928 .992 2.624 .607 2.287 .243 1.949-.122 1.43-.533 .729-.992 .593-.749 .405-.52 .162-.304 .891 .074 1.443 .472 1.822 .891 2.199 1.309 2.523 1.775 2.793 2.288 1.524 2.288 .715 2.274 .365 2.248V2.977C.688 2.95 1.633 2.936 3.198 2.936V3.746H1.012C1.039 4.34 1.053 5.028 1.053 5.812 1.053 6.622 1.039 7.283 1.012 7.796H6.113C6.085 7.31 6.072 6.608 6.072 5.69M3.198 7.148H1.8219999V6.1349999H3.198ZM3.198 5.488H1.8219999V4.435H3.198ZM5.303 7.148H3.927V6.1349999H5.303ZM5.303 5.488H3.927V4.435H5.303ZM5.303 4.435" fill="#ffffff"/>
<path transform="matrix(1,0,0,-1,249.5417,380.17469)" d="M0 0C.58 .122 1.073 .277 1.477 .466 1.666 .115 1.855-.182 2.044-.425 1.855-.399 1.66-.405 1.457-.445 1.255-.486 1.032-.52 .789-.547V-2.531C1.167-2.531 1.572-2.518 2.004-2.491V-3.26C1.572-3.234 1.167-3.22 .789-3.22V-6.784C.789-7.378 .803-8.174 .83-9.173H.02C.047-8.174 .061-7.391 .061-6.824V-4.961C-.317-5.717-.736-6.433-1.194-7.108-1.383-6.838-1.599-6.595-1.842-6.379-1.464-6.001-1.127-5.569-.83-5.083-.533-4.597-.263-3.976-.02-3.22-.695-3.22-1.194-3.234-1.518-3.26V-2.491C-1.06-2.518-.722-2.531-.506-2.531H.061V-.709C-.29-.79-.736-.871-1.275-.952-1.356-.709-1.451-.48-1.559-.263-1.1-.209-.581-.121 0 0M2.368-5.609C2.206-5.717 1.99-5.879 1.72-6.095 1.45-5.502 1.18-5.016 .911-4.637 1.073-4.502 1.275-4.354 1.518-4.192 1.787-4.597 2.071-5.069 2.368-5.609M6.052-4.03C6.483-4.03 6.942-4.016 7.428-3.989V-4.718C6.942-4.692 6.483-4.678 6.052-4.678H5.283V-5.974H5.728C6.133-5.974 6.604-5.96 7.145-5.933V-6.703C6.604-6.676 6.173-6.662 5.849-6.662H5.283V-8.08H6.254C6.74-8.08 7.252-8.066 7.792-8.039V-8.809C7.36-8.782 6.847-8.768 6.254-8.768H3.542C2.948-8.768 2.435-8.795 2.004-8.849V-8.039C2.435-8.066 2.948-8.08 3.542-8.08H4.513V-6.662H3.947C3.515-6.662 3.11-6.689 2.732-6.743V-5.933C3.11-5.96 3.515-5.974 3.947-5.974H4.513V-4.678H3.866C3.38-4.678 2.921-4.692 2.49-4.718V-3.989C2.921-4.016 3.38-4.03 3.866-4.03ZM7.185-1.64C7.185-2.1 7.198-2.558 7.226-3.017H2.692C2.719-2.505 2.732-2.019 2.732-1.559 2.732-1.1 2.719-.587 2.692-.02H7.226C7.198-.614 7.185-1.154 7.185-1.64M6.335-.709H3.461V-2.288H6.335ZM6.335-2.288" fill="#ffffff"/>
<path transform="matrix(1,0,0,-1,127.5067,402.372)" d="M0 0V-4.333C0-5.171 .013-5.994 .041-6.804H-.769V-6.277H-7.529V-6.885H-8.339C-8.312-6.048-8.298-5.184-8.298-4.293V0C-8.298 .783-8.312 1.525-8.339 2.228H.041C.013 1.552 0 .81 0 0M-.769 1.579H-7.5290005V-5.589H-.769ZM-4.574 .526H-1.862C-1.97 .284-2.145-.014-2.388-.365-2.631-.716-3.009-1.134-3.522-1.62-2.712-2.025-1.916-2.268-1.133-2.349-1.322-2.592-1.484-2.849-1.619-3.118-2.618-2.822-3.455-2.457-4.129-2.025-4.912-2.538-5.748-2.916-6.639-3.159-6.72-2.916-6.868-2.687-7.084-2.47-6.221-2.336-5.424-2.052-4.696-1.62-5.074-1.269-5.343-.972-5.505-.729-5.748-.999-6.005-1.269-6.274-1.539-6.463-1.323-6.666-1.161-6.882-1.053-6.423-.675-6.031-.25-5.708 .223-5.384 .695-5.155 1.094-5.019 1.418-4.75 1.282-4.453 1.161-4.129 1.053-4.291 .891-4.439 .715-4.574 .526M-2.712-4.658C-2.847-4.874-2.982-5.103-3.117-5.346-4.224-4.887-5.074-4.59-5.667-4.455-5.56-4.239-5.465-4.009-5.384-3.767-4.197-4.118-3.306-4.414-2.712-4.658M-4.048-1.215C-3.698-.945-3.374-.581-3.076-.121H-5.019L-5.1-.243C-4.696-.702-4.345-1.026-4.048-1.215M-2.753-3.24C-2.888-3.456-3.009-3.699-3.117-3.969-4.035-3.537-4.655-3.267-4.979-3.159-4.844-2.97-4.723-2.754-4.615-2.511-3.698-2.889-3.076-3.132-2.753-3.24" fill="#ffffff"/>
<path transform="matrix(1,0,0,-1,132.6883,401.886)" d="M0 0C0 .918-.014 1.62-.04 2.106H.891C.836 1.701 .81 .999 .81 0H3.886C3.832-.243 3.737-1.161 3.603-2.754H5.141C5.006-4.509 4.898-5.515 4.817-5.771 4.736-6.028 4.527-6.203 4.19-6.298 3.852-6.392 3.467-6.466 3.036-6.521 2.955-6.089 2.834-5.778 2.672-5.589 3.157-5.616 3.515-5.603 3.744-5.548 3.973-5.495 4.102-5.319 4.129-5.022L4.25-3.523H.81V-5.67C.81-6.21 .823-6.736 .85-7.249H-.121C-.04-6.763 0-6.251 0-5.711V-3.523H-1.903C-2.281-3.523-2.793-3.537-3.441-3.564V-2.714C-2.874-2.741-2.335-2.754-1.822-2.754H0V-.689H-1.579C-1.741-.689-2.105-.702-2.672-.729V.04C-2.132 .013-1.674 0-1.295 0ZM2.793-2.754 2.955-.689H.81V-2.754ZM4.291 1.235C4.587 .952 4.884 .648 5.181 .324 4.858 .054 4.641-.135 4.534-.243 4.291 .135 3.684 .742 2.712 1.579 2.982 1.795 3.184 1.971 3.319 2.106 3.67 1.809 3.994 1.519 4.291 1.235" fill="#ffffff"/>
<path transform="matrix(1,0,0,-1,141.2295,401.8051)" d="M0 0V-1.62H2.388V.77C2.388 1.147 2.374 1.525 2.348 1.904H3.198C3.171 1.579 3.157 1.201 3.157 .77V-1.62H5.586V-.121C5.586 .31 5.572 .661 5.546 .932H6.396C6.369 .661 6.355 .297 6.355-.162V-1.255C6.355-1.688 6.369-2.039 6.396-2.309H3.157V-6.034H5.951V-4.333C5.951-3.928 5.937-3.578 5.91-3.28H6.76C6.733-3.578 6.72-3.915 6.72-4.293V-6.115C6.72-6.655 6.733-7.101 6.76-7.452H5.951V-6.723H-1.255C-1.228-6.399-1.214-6.008-1.214-5.548V-4.333C-1.214-3.875-1.228-3.51-1.255-3.24H-.405C-.432-3.51-.445-3.875-.445-4.333V-6.034H2.388V-2.309H-.81C-.783-2.039-.769-1.701-.769-1.296V-.04C-.769 .31-.783 .648-.81 .972H.041C.013 .621 0 .297 0 0" fill="#ffffff"/>
<path transform="matrix(1,0,0,-1,151.2281,401.48103)" d="M0 0V-1.417H1.012V.486C1.012 .783 .998 1.107 .971 1.458H1.741C1.713 1.161 1.7 .837 1.7 .486V-1.417C2.024-1.417 2.307-1.404 2.55-1.377V-2.065C2.253-2.039 1.943-2.025 1.619-2.025H0V-3.361H1.943C1.916-3.74 1.903-4.266 1.903-4.941V-7.452H1.174C1.2-6.507 1.214-5.346 1.214-3.969H0C-.027-4.59-.095-5.191-.202-5.771-.311-6.352-.486-6.952-.729-7.573-.918-7.438-1.174-7.317-1.498-7.209-.958-6.264-.688-4.819-.688-2.875-.688-.905-.702 .499-.729 1.337-.459 1.282-.189 1.242 .081 1.215 .027 .783 0 .378 0 0M7.61 .648C7.07 .594 6.51 .533 5.93 .466 5.35 .398 4.641 .337 3.805 .284V-1.215H7.246C7.138-2.106 6.996-2.956 6.821-3.767 6.645-4.577 6.382-5.292 6.032-5.913 6.274-6.156 6.564-6.379 6.902-6.581 7.239-6.784 7.57-6.939 7.894-7.047 7.677-7.209 7.462-7.452 7.246-7.776 6.949-7.587 6.652-7.377 6.355-7.148 6.058-6.919 5.802-6.696 5.586-6.48 5.154-6.939 4.587-7.384 3.886-7.816 3.697-7.6 3.481-7.384 3.238-7.168 3.94-6.898 4.56-6.453 5.1-5.832 4.858-5.373 4.641-4.847 4.453-4.253 4.291-3.685 4.155-2.875 4.048-1.823H3.805C3.778-3.199 3.684-4.28 3.522-5.062 3.36-5.846 3.09-6.575 2.712-7.249 2.442-7.033 2.199-6.898 1.983-6.844 2.253-6.521 2.483-6.062 2.672-5.467 2.86-4.874 2.982-4.239 3.036-3.564 3.09-2.862 3.117-2.079 3.117-1.215 3.117-.324 3.09 .391 3.036 .932 3.791 .904 4.554 .945 5.323 1.053 6.092 1.161 6.706 1.296 7.165 1.458 7.3 1.107 7.448 .837 7.61 .648M5.06-3.807C5.222-4.428 5.397-4.9 5.586-5.224 5.964-4.388 6.234-3.254 6.396-1.823H4.736C4.817-2.551 4.925-3.213 5.06-3.807" fill="#ffffff"/>
</g>
<path transform="matrix(1,0,0,-1,147.4085,332.578)" d="M0 0 2.158-.057 4.316-.115 2.273 4.261ZM1.467 1.039 1.439-.185 1.447-.791 1.461-1.386 1.48-1.979 1.505-2.571 1.535-3.162 1.57-3.751 1.611-4.339 1.657-4.925 1.709-5.509 1.765-6.092 1.827-6.674 1.895-7.254 1.967-7.832 2.044-8.409 2.127-8.984 2.215-9.557 2.308-10.128 2.406-10.698 2.509-11.266 2.617-11.832 2.73-12.396 2.849-12.958 2.972-13.519 3.1-14.077 3.233-14.634 3.37-15.188 3.513-15.741 3.66-16.292 3.813-16.84 3.97-17.386 4.131-17.927 5.51-17.517 5.35-16.979 5.352-16.985 5.197-16.445 5.199-16.451 5.048-15.909 5.05-15.916 4.904-15.371 4.906-15.378 4.765-14.832 4.766-14.838 4.63-14.29 4.632-14.296 4.5-13.746 4.502-13.752 4.375-13.2 4.377-13.207 4.255-12.653 4.256-12.659 4.14-12.103 4.141-12.11 4.029-11.552 4.03-11.558 3.923-10.999 3.925-11.005 3.823-10.444 3.824-10.45 3.727-9.887 3.728-9.894 3.636-9.329 3.637-9.335 3.55-8.769 3.551-8.775 3.47-8.207V-8.213L3.394-7.643 3.395-7.65 3.323-7.078 3.324-7.085 3.258-6.511V-6.518L3.197-5.943 3.198-5.95 3.142-5.373V-5.38L3.091-4.802 3.092-4.808 3.046-4.229 3.047-4.236 3.007-3.655V-3.661L2.972-3.079V-3.085L2.943-2.501V-2.508L2.919-1.923V-1.929L2.9-1.343V-1.349L2.886-.761 2.887-.768 2.878-.178V-.205L2.906 1.005Z" fill="#ffffff"/>
<path transform="matrix(1,0,0,-1,140.2002,331.955)" d="M0 0 2.149-.21 4.297-.421 2.569 4.089ZM1.538 .934 1.428-.193 1.361-1.076 1.301-1.954 1.246-2.834 1.199-3.715 1.157-4.598 1.122-5.481 1.093-6.366 1.071-7.253 1.055-8.14 1.045-9.029 1.042-9.92 1.047-11.061 1.063-12.2 1.089-13.337 1.126-14.471 1.173-15.602 1.231-16.73 1.298-17.856 1.376-18.978 1.464-20.098 1.562-21.215 1.671-22.329 1.789-23.44 1.917-24.548 2.056-25.653 2.204-26.755 2.362-27.853 2.53-28.948 2.707-30.04 2.895-31.128 3.092-32.213 3.298-33.295 3.514-34.373 3.74-35.447 3.975-36.518 4.22-37.585 4.474-38.648 4.737-39.707 5.009-40.763 5.291-41.815 5.582-42.862 5.882-43.906 6.191-44.943 7.57-44.532 7.263-43.499 7.265-43.505 6.966-42.467 6.968-42.474 6.679-41.432 6.681-41.439 6.401-40.393 6.402-40.4 6.131-39.35 6.133-39.357 5.871-38.304 5.873-38.31 5.62-37.253 5.622-37.26 5.379-36.199 5.38-36.205 5.147-35.141 5.148-35.148 4.924-34.08 4.925-34.086 4.71-33.015 4.711-33.021 4.506-31.946 4.507-31.953 4.311-30.874 4.313-30.881 4.126-29.799 4.127-29.805 3.951-28.72 3.952-28.727 3.785-27.638 3.786-27.645 3.629-26.553 3.63-26.559 3.483-25.464V-25.471L3.346-24.373 3.347-24.379 3.219-23.278 3.22-23.284 3.102-22.18 3.103-22.187 2.995-21.079 2.996-21.086 2.898-19.975 2.899-19.982 2.811-18.869 2.812-18.875 2.734-17.759 2.735-17.766 2.667-16.647 2.668-16.653 2.611-15.532V-15.538L2.564-14.414 2.565-14.421 2.528-13.293V-13.3L2.502-12.17V-12.177L2.487-11.045V-11.051L2.481-9.917V-9.923L2.485-9.037 2.484-9.042 2.494-8.158V-8.164L2.51-7.281V-7.286L2.532-6.405V-6.41L2.561-5.531 2.56-5.536 2.595-4.657V-4.663L2.636-3.786V-3.791L2.684-2.915 2.683-2.92 2.737-2.045V-2.051L2.797-1.177 2.796-1.182 2.863-.31 2.861-.325 2.97 .795Z" fill="#ffffff"/>
<path transform="matrix(1,0,0,-1,129.5185,323.3273)" d="M0 0 2.061-.644 4.122-1.287 3.347 3.48ZM1.695 .601 1.3-.673 1.039-1.557 .783-2.44 .531-3.324 .283-4.21 .039-5.098-.2-5.987-.435-6.878-.667-7.771-.893-8.666-1.116-9.561-1.335-10.459-1.549-11.358-1.759-12.259-1.964-13.161-2.166-14.065-2.363-14.971-2.556-15.878-2.744-16.787-2.929-17.697-3.108-18.608-3.284-19.522-3.455-20.436-3.622-21.353-3.784-22.27-3.942-23.189-4.096-24.11-4.245-25.032-4.39-25.956-4.53-26.88-4.666-27.807-4.798-28.735-4.925-29.664-5.047-30.594-5.165-31.526-5.279-32.46-5.388-33.394-5.492-34.33-5.592-35.268-5.688-36.206-5.779-37.146-5.865-38.087-5.947-39.03-6.024-39.974-6.097-40.919-6.165-41.866-6.228-42.813-6.287-43.762-6.341-44.712-6.39-45.664-6.435-46.616-6.475-47.57-6.511-48.525-6.541-49.481-6.567-50.438-6.589-51.397-6.605-52.357-6.617-53.317-6.624-54.279-6.627-55.242-6.624-56.286-6.616-57.328-6.602-58.368-6.582-59.407-6.557-60.445-6.527-61.48-6.491-62.514-6.449-63.546-6.403-64.575-6.35-65.603-6.293-66.628-6.23-67.651-6.161-68.672-6.088-69.69-6.009-70.706-5.925-71.717-4.49-71.597-4.574-70.588V-70.592L-4.653-69.58-4.652-69.584-4.726-68.57V-68.574L-4.794-67.557-4.793-67.561-4.856-66.542V-66.545L-4.913-65.524V-65.528L-4.965-64.504V-64.508L-5.012-63.482-5.011-63.486-5.053-62.458V-62.462L-5.088-61.432V-61.436L-5.119-60.404-5.118-60.408-5.143-59.375V-59.378L-5.163-58.343V-58.347L-5.176-57.31V-57.314L-5.185-56.276V-56.28L-5.187-55.24V-55.244L-5.185-54.285V-54.288L-5.178-53.33V-53.333L-5.166-52.376V-52.38L-5.15-51.424V-51.427L-5.129-50.472V-50.476L-5.103-49.522V-49.526L-5.072-48.573V-48.577L-5.037-47.625V-47.629L-4.997-46.679V-46.682L-4.953-45.733V-45.737L-4.904-44.789V-44.792L-4.85-43.846V-43.849L-4.792-42.904V-42.908L-4.729-41.963V-41.967L-4.661-41.024V-41.028L-4.589-40.086V-40.09L-4.512-39.149-4.513-39.153-4.431-38.214-4.432-38.217-4.346-37.28V-37.283L-4.255-36.347-4.256-36.35-4.161-35.415V-35.419L-4.061-34.485-4.062-34.488-3.958-33.556V-33.559L-3.849-32.628-3.85-32.632-3.737-31.702V-31.706L-3.62-30.777V-30.781L-3.498-29.854V-29.857L-3.372-28.931V-28.935L-3.241-28.011-3.242-28.014-3.107-27.091V-27.095L-2.967-26.173-2.968-26.177-2.823-25.257-2.824-25.26-2.675-24.342-2.676-24.345-2.523-23.428-2.524-23.432-2.366-22.516-2.367-22.52-2.205-21.605-2.206-21.609-2.039-20.696-2.04-20.7-1.87-19.788V-19.792L-1.695-18.882-1.696-18.886-1.517-17.977-1.518-17.981-1.334-17.074-1.335-17.078-1.147-16.172-1.148-16.176-.956-15.272V-15.276L-.76-14.374-.761-14.377-.56-13.477-.561-13.48-.356-12.581-.357-12.584-.148-11.687V-11.69L.065-10.795 .064-10.798 .282-9.904 .281-9.907 .503-9.015 .502-9.018 .728-8.127 .727-8.131 .957-7.241V-7.245L1.191-6.357 1.19-6.36 1.429-5.474 1.428-5.478 1.671-4.593 1.67-4.597 1.917-3.714 1.916-3.717 2.167-2.836 2.166-2.84 2.421-1.96 2.42-1.964 2.679-1.086 2.677-1.095 3.07 .174Z" fill="#ffffff"/>
<path transform="matrix(1,0,0,-1,285.1233,283.6712)" d="M0 0-2.066 .627-4.132 1.254-3.319-3.507ZM-1.69-.614-1.345 .535-1.182 1.167-1.027 1.792-.879 2.419-.737 3.048-.601 3.68-.471 4.314-.348 4.95-.231 5.588-.12 6.228-.016 6.871 .081 7.516 .172 8.162 .257 8.811 .335 9.462 .406 10.115 .471 10.769 .529 11.426 .58 12.084 .625 12.745 .663 13.407 .694 14.071 .718 14.736 .735 15.404 .746 16.073 .749 16.743 .748 17.185 .743 17.626 .736 18.066 .725 18.506 .712 18.944 .695 19.382 .676 19.819 .654 20.254 .628 20.689 .6 21.123 .569 21.555 .535 21.988 .459 22.846 .372 23.696-1.06 23.549-.973 22.704-.974 22.714-.899 21.864V21.872L-.866 21.445V21.45L-.836 21.022V21.027L-.808 20.598V20.603L-.783 20.173-.784 20.178-.762 19.747V19.752L-.743 19.32V19.325L-.727 18.893V18.898L-.714 18.464V18.469L-.703 18.034V18.039L-.696 17.604V17.609L-.692 17.173V17.178L-.69 16.741V16.747L-.694 16.084-.693 16.091-.704 15.43V15.437L-.721 14.778-.72 14.785-.744 14.127V14.134L-.775 13.478-.774 13.485-.812 12.831-.811 12.838-.855 12.185V12.193L-.906 11.542-.905 11.549-.962 10.9V10.907L-1.026 10.26-1.025 10.268-1.096 9.622-1.095 9.63-1.172 8.986-1.171 8.994-1.254 8.352-1.253 8.36-1.343 7.72-1.342 7.728-1.439 7.09-1.438 7.098-1.541 6.462-1.539 6.47-1.649 5.837-1.647 5.844-1.763 5.213-1.762 5.22-1.883 4.591-1.882 4.599-2.01 3.972-2.009 3.979-2.143 3.355-2.141 3.362-2.282 2.74-2.28 2.747-2.427 2.128-2.425 2.135-2.578 1.517-2.576 1.524-2.735 .909-2.728 .936-3.069-.2Z" fill="#ffffff"/>
<path transform="matrix(1,0,0,-1,291.1185,288.0234)" d="M0 0-1.929 .971-3.857 1.941-3.869-2.888ZM-1.768-.312-.963 1.323-.601 2.096-.246 2.868 .104 3.642 .449 4.42 .788 5.2 1.122 5.984 1.451 6.77 1.774 7.558 2.091 8.35 2.404 9.144 2.711 9.941 3.012 10.741 3.308 11.543 3.598 12.348 3.883 13.156 4.162 13.966 4.436 14.779 4.704 15.594 4.966 16.412 5.223 17.233 5.474 18.055 5.719 18.881 5.959 19.709 6.193 20.539 6.421 21.371 6.643 22.206 6.86 23.043 7.07 23.883 7.275 24.725 7.474 25.569 7.667 26.415 7.854 27.264 8.035 28.115 8.21 28.968 8.379 29.823 8.542 30.68 8.699 31.539 8.85 32.401 8.995 33.264 9.134 34.13 9.266 34.997 9.393 35.867 9.513 36.738 9.627 37.612 9.735 38.487 9.836 39.365 9.932 40.244 10.021 41.125 10.103 42.008 10.18 42.892 10.249 43.779 10.313 44.667 10.37 45.557 10.421 46.448 10.465 47.342 10.503 48.237 10.534 49.133 10.559 50.029 9.12 50.069 9.095 49.176V49.181L9.064 48.29 9.065 48.295 9.027 47.405V47.41L8.983 46.522 8.984 46.528 8.933 45.641 8.934 45.646 8.877 44.762V44.767L8.814 43.884V43.889L8.745 43.008V43.013L8.669 42.134 8.67 42.139 8.588 41.262V41.267L8.5 40.391V40.396L8.406 39.522V39.528L8.305 38.656 8.306 38.661 8.199 37.791V37.796L8.086 36.928 8.087 36.933 7.967 36.066 7.968 36.072 7.842 35.207 7.843 35.212 7.711 34.35 7.712 34.355 7.574 33.495 7.575 33.5 7.431 32.642 7.432 32.647 7.282 31.791 7.283 31.796 7.127 30.942 7.128 30.947 6.966 30.095 6.967 30.1 6.799 29.25 6.8 29.255 6.626 28.407 6.627 28.412 6.447 27.566 6.448 27.571 6.262 26.728 6.263 26.733 6.071 25.892 6.072 25.897 5.875 25.058 5.876 25.063 5.672 24.226 5.674 24.231 5.464 23.396 5.466 23.401 5.251 22.569 5.252 22.574 5.031 21.744 5.032 21.749 4.805 20.922 4.807 20.927 4.574 20.102 4.576 20.107 4.338 19.284 4.339 19.289 4.095 18.469 4.097 18.473 3.847 17.656 3.849 17.66 3.594 16.845 3.595 16.85 3.334 16.037 3.336 16.042 3.069 15.231 3.071 15.236 2.799 14.428 2.801 14.433 2.523 13.628 2.525 13.633 2.242 12.83 2.243 12.835 1.955 12.035 1.957 12.039 1.663 11.242 1.664 11.247 1.365 10.452 1.367 10.457 1.062 9.664 1.063 9.669 .753 8.88 .755 8.884 .439 8.097 .441 8.102 .12 7.318 .122 7.323-.205 6.542-.203 6.546-.535 5.768-.533 5.772-.87 4.997-.868 5.001-1.21 4.228-1.208 4.233-1.556 3.463-1.554 3.468-1.907 2.7-1.905 2.705-2.263 1.941-2.257 1.953-3.059 .324Z" fill="#ffffff"/>
<path transform="matrix(1,0,0,-1,295.8366,294.48973)" d="M0 0-1.805 1.185-3.611 2.369-4.173-2.428ZM-1.794-.11-.763 1.48-.075 2.573 .604 3.668 1.275 4.768 1.94 5.874 2.597 6.984 3.246 8.098 3.889 9.218 4.524 10.342 5.151 11.471 5.772 12.605 6.384 13.743 6.99 14.886 7.587 16.033 8.177 17.185 8.76 18.341 9.334 19.502 9.902 20.668 10.461 21.837 11.013 23.011 11.557 24.19 12.093 25.372 12.621 26.559 13.141 27.75 13.654 28.945 14.158 30.145 14.655 31.348 15.143 32.556 15.624 33.767 16.096 34.983 16.56 36.203 17.017 37.426 17.465 38.654 17.904 39.885 18.336 41.12 18.759 42.359 19.174 43.602 19.581 44.848 19.979 46.098 20.369 47.352 20.75 48.61 21.123 49.871 21.487 51.135 21.843 52.403 22.191 53.675 22.529 54.95 22.859 56.228 23.181 57.51 23.493 58.796 23.797 60.084 24.092 61.376 24.379 62.671 24.656 63.969 24.925 65.271 25.185 66.576 25.435 67.883 25.677 69.194 25.91 70.508 26.134 71.825 26.348 73.145 26.554 74.465 25.132 74.686 24.927 73.369V73.374L24.714 72.059V72.064L24.491 70.752 24.492 70.757 24.26 69.448 24.261 69.453 24.02 68.147 24.021 68.152 23.772 66.849 23.773 66.854 23.514 65.555 23.515 65.56 23.247 64.263 23.248 64.268 22.972 62.975 22.973 62.98 22.688 61.69 22.689 61.694 22.395 60.408 22.396 60.412 22.093 59.129 22.094 59.134 21.783 57.853 21.784 57.858 21.464 56.581 21.465 56.586 21.136 55.313 21.138 55.317 20.8 54.047 20.801 54.052 20.456 52.785 20.457 52.79 20.102 51.527 20.104 51.532 19.741 50.272 19.742 50.277 19.371 49.02 19.372 49.025 18.992 47.773 18.994 47.777 18.605 46.528 18.607 46.533 18.21 45.288 18.212 45.293 17.807 44.051 17.808 44.056 17.395 42.818 17.396 42.822 16.975 41.588 16.976 41.593 16.546 40.362 16.548 40.367 16.11 39.14 16.112 39.145 15.665 37.922 15.667 37.927 15.213 36.708 15.215 36.713 14.752 35.498 14.754 35.503 14.283 34.292 14.285 34.296 13.806 33.089 13.808 33.094 13.322 31.891 13.323 31.895 12.829 30.696 12.831 30.701 12.328 29.506 12.33 29.511 11.82 28.32 11.821 28.325 11.303 27.138 11.305 27.143 10.779 25.96 10.781 25.965 10.247 24.787 10.249 24.791 9.707 23.617 9.709 23.622 9.16 22.452 9.162 22.457 8.604 21.291 8.606 21.296 8.042 20.135 8.044 20.139 7.471 18.983 7.473 18.987 6.893 17.835 6.895 17.84 6.307 16.692 6.31 16.696 5.714 15.553 5.717 15.558 5.114 14.419 5.116 14.424 4.506 13.29 4.508 13.294 3.89 12.165 3.892 12.169 3.267 11.044 3.27 11.048 2.637 9.928 2.639 9.933 1.999 8.817 2.002 8.822 1.355 7.711 1.357 7.715 .702 6.61 .705 6.614 .043 5.513 .046 5.517-.623 4.421-.621 4.425-1.297 3.334-1.295 3.338-1.978 2.251-1.973 2.26-3.001 .673Z" fill="#ffffff"/>
<path transform="matrix(1,0,0,-1,179.5146,227.28519)" d="M0 0-.627-2.067-1.253-4.134 3.505-3.321ZM.613-1.691-.535-1.346-1.167-1.182-1.791-1.028-2.418-.879-3.047-.737-3.678-.601-4.311-.471-4.947-.348-5.585-.231-6.225-.12-6.868-.016-7.512 .081-8.158 .172-8.807 .257-9.457 .335-10.11 .406-10.764 .471-11.42 .529-12.078 .581-12.738 .625-13.4 .663-14.064 .694-14.729 .718-15.396 .736-16.065 .746-16.735 .75-17.177 .748-17.617 .744-18.057 .736-18.497 .726-18.935 .712-19.372 .696-19.809 .676-20.244 .654-20.679 .629-21.112 .601-21.545 .57-21.977 .536-22.835 .459-23.685 .372-23.538-1.061-22.693-.974-22.703-.975-21.854-.899-21.861-.9-21.434-.866-21.439-.867-21.012-.836H-21.017L-20.588-.808-20.593-.809-20.163-.784H-20.168L-19.738-.762H-19.743L-19.311-.743H-19.316L-18.883-.727H-18.888L-18.455-.714H-18.46L-18.025-.704H-18.03L-17.595-.696H-17.6L-17.164-.692H-17.169L-16.733-.69H-16.739L-16.076-.694H-16.084L-15.422-.704H-15.43L-14.77-.721H-14.778L-14.12-.745-14.127-.744-13.471-.775H-13.479L-12.824-.812H-12.832L-12.179-.856-12.187-.855-11.536-.906-11.543-.905-10.895-.963-10.902-.962-10.255-1.026-10.262-1.025-9.617-1.096-9.625-1.095-8.982-1.172-8.989-1.171-8.348-1.255-8.355-1.254-7.716-1.344-7.724-1.343-7.087-1.44-7.094-1.438-6.459-1.541-6.466-1.54-5.834-1.649-5.841-1.648-5.21-1.764-5.218-1.762-4.589-1.884-4.596-1.883-3.97-2.011-3.977-2.01-3.353-2.144-3.36-2.142-2.739-2.283-2.746-2.281-2.126-2.428-2.134-2.426-1.517-2.579-1.524-2.578-.909-2.737-.936-2.729 .2-3.07Z" fill="#ffffff"/>
<path transform="matrix(1,0,0,-1,183.8646,221.28699)" d="M0 0-.97-1.93-1.941-3.859 2.887-3.871ZM.312-1.769-1.322-.963-2.095-.601-2.866-.246-3.641 .104-4.418 .449-5.198 .788-5.981 1.123-6.766 1.451-7.555 1.775-8.346 2.092-9.14 2.405-9.936 2.712-10.736 3.013-11.538 3.309-12.342 3.6-13.15 3.885-13.959 4.164-14.772 4.438-15.587 4.706-16.404 4.969-17.224 5.226-18.047 5.477-18.872 5.722-19.699 5.962-20.529 6.196-21.361 6.424-22.195 6.647-23.032 6.863-23.871 7.074-24.713 7.279-25.556 7.478-26.402 7.671-27.25 7.858-28.101 8.039-28.953 8.214-29.808 8.383-30.665 8.546-31.524 8.704-32.385 8.855-33.248 8.999-34.113 9.138-34.98 9.271-35.849 9.397-36.72 9.518-37.594 9.632-38.468 9.74-39.345 9.841-40.224 9.936-41.105 10.026-41.987 10.108-42.871 10.185-43.757 10.254-44.645 10.318-45.534 10.375-46.426 10.426-47.319 10.47-48.213 10.508-49.109 10.539-50.004 10.564-50.044 9.124-49.151 9.1H-49.157L-48.266 9.069H-48.271L-47.382 9.031-47.387 9.032-46.499 8.988H-46.505L-45.619 8.938H-45.624L-44.74 8.881-44.745 8.882-43.863 8.818-43.868 8.819-42.987 8.749-42.992 8.75-42.113 8.674H-42.119L-41.241 8.592H-41.247L-40.371 8.504-40.377 8.505-39.503 8.41H-39.508L-38.637 8.309-38.642 8.31-37.772 8.203-37.777 8.204-36.909 8.09-36.915 8.091-36.049 7.971-36.054 7.972-35.19 7.846-35.195 7.847-34.333 7.715-34.338 7.716-33.478 7.578-33.484 7.579-32.626 7.435-32.631 7.436-31.775 7.286-31.78 7.287-30.926 7.13-30.931 7.131-30.08 6.969-30.085 6.97-29.235 6.802-29.24 6.803-28.393 6.629-28.398 6.63-27.553 6.45-27.558 6.451-26.715 6.265-26.72 6.266-25.879 6.074-25.884 6.076-25.045 5.878-25.05 5.879-24.214 5.675-24.219 5.677-23.385 5.467-23.39 5.468-22.558 5.253-22.563 5.254-21.734 5.033-21.739 5.035-20.912 4.808-20.917 4.809-20.092 4.577-20.097 4.578-19.274 4.34-19.279 4.341-18.459 4.097-18.464 4.099-17.647 3.849-17.652 3.851-16.837 3.595-16.842 3.597-16.029 3.336-16.034 3.337-15.224 3.071-15.229 3.073-14.421 2.8-14.426 2.802-13.621 2.524-13.626 2.526-12.824 2.243-12.828 2.245-12.029 1.956-12.034 1.958-11.236 1.663-11.241 1.665-10.447 1.365-10.451 1.367-9.66 1.062-9.664 1.064-8.875 .753-8.88 .755-8.094 .439-8.098 .441-7.315 .12-7.319 .122-6.538-.205-6.543-.203-5.765-.535-5.77-.533-4.994-.87-4.999-.868-4.226-1.211-4.231-1.209-3.461-1.557-3.466-1.555-2.699-1.908-2.704-1.906-1.94-2.264-1.952-2.258-.324-3.061Z" fill="#ffffff"/>
<path transform="matrix(1,0,0,-1,190.3277,216.5665)" d="M0 0-1.184-1.806-2.368-3.612 2.426-4.176ZM.11-1.794-1.479-.763-2.572-.075-3.666 .604-4.766 1.276-5.871 1.94-6.98 2.598-8.094 3.248-9.213 3.891-10.337 4.526-11.465 5.154-12.598 5.774-13.736 6.387-14.878 6.993-16.025 7.591-17.177 8.181-18.332 8.764-19.493 9.339-20.657 9.906-21.826 10.466-23 11.018-24.178 11.562-25.36 12.099-26.546 12.627-27.736 13.148-28.931 13.66-30.13 14.165-31.333 14.662-32.54 15.151-33.751 15.631-34.966 16.104-36.185 16.569-37.408 17.025-38.635 17.473-39.865 17.913-41.1 18.345-42.338 18.768-43.58 19.184-44.826 19.59-46.076 19.989-47.329 20.379-48.586 20.76-49.846 21.133-51.11 21.498-52.378 21.854-53.648 22.201-54.923 22.54-56.201 22.871-57.482 23.192-58.767 23.505-60.055 23.809-61.346 24.104-62.64 24.391-63.938 24.668-65.239 24.937-66.543 25.197-67.85 25.448-69.16 25.69-70.473 25.923-71.79 26.147-73.109 26.361-74.429 26.567-74.65 25.144-73.333 24.939-73.338 24.94-72.023 24.726-72.028 24.727-70.717 24.504H-70.722L-69.414 24.272-69.419 24.273-68.114 24.032-68.119 24.033-66.816 23.783-66.821 23.784-65.522 23.525-65.527 23.526-64.232 23.259-64.236 23.26-62.944 22.983-62.949 22.984-61.659 22.699-61.664 22.7-60.378 22.406-60.383 22.407-59.1 22.104-59.105 22.105-57.825 21.793-57.83 21.795-56.553 21.474-56.558 21.476-55.285 21.147-55.29 21.148-54.021 20.81-54.025 20.812-52.759 20.466-52.764 20.467-51.501 20.112-51.506 20.114-50.247 19.75-50.252 19.752-48.996 19.38-49.001 19.382-47.749 19.002-47.754 19.003-46.505 18.614-46.51 18.616-45.265 18.219-45.27 18.221-44.029 17.815-44.034 17.817-42.797 17.403-42.801 17.405-41.568 16.983-41.572 16.985-40.342 16.555-40.347 16.556-39.121 16.118-39.126 16.12-37.904 15.673-37.908 15.675-36.69 15.22-36.695 15.222-35.48 14.759-35.485 14.761-34.275 14.29-34.279 14.292-33.073 13.813-33.077 13.815-31.875 13.328-31.88 13.33-30.681 12.835-30.686 12.837-29.492 12.334-29.496 12.336-28.306 11.825-28.311 11.827-27.125 11.309-27.129 11.311-25.947 10.784-25.952 10.786-24.774 10.252-24.779 10.254-23.606 9.712-23.61 9.714-22.441 9.164-22.445 9.166-21.281 8.609-21.285 8.611-20.125 8.045-20.129 8.048-18.974 7.475-18.978 7.477-17.826 6.896-17.831 6.899-16.684 6.311-16.688 6.313-15.546 5.717-15.55 5.719-14.412 5.116-14.416 5.118-13.283 4.508-13.287 4.51-12.159 3.892-12.163 3.894-11.039 3.269-11.043 3.271-9.924 2.638-9.928 2.641-8.813 2-8.817 2.003-7.707 1.355-7.711 1.358-6.606 .703-6.61 .705-5.51 .043-5.514 .046-4.419-.624-4.423-.621-3.332-1.298-3.336-1.295-2.25-1.979-2.259-1.974-.673-3.003Z" fill="#ffffff"/>
</g>
</g>
</svg>
