<svg xmlns="http://www.w3.org/2000/svg" xmlns:xlink="http://www.w3.org/1999/xlink" xmlns:inkscape="http://www.inkscape.org/namespaces/inkscape" version="1.1" width="411.024" height="595.276" viewBox="0 0 411.024 595.276">
<defs>
<clipPath id="clip_1">
<path transform="matrix(1,0,0,-1,0,595.276)" d="M0 0H411.024V595.276H0Z"/>
</clipPath>
<clipPath id="clip_2">
<path transform="matrix(1,0,0,-1,0,595.276)" d="M0 0H411.024V595.276H0Z"/>
</clipPath>
<path id="font_3_2" d="M.45599366 .19004822V.5218506C.45599366 .6397705 .37199403 .71777346 .26098634 .71777346 .1499939 .71777346 .06599426 .6397705 .06599426 .5218506V.19004822C.06599426 .072128299 .1499939-.005859375 .26098634-.005859375 .37199403-.005859375 .45599366 .072128299 .45599366 .19004822M.38398744 .19404602C.38398744 .116104129 .33999635 .058135988 .26098634 .058135988 .18199158 .058135988 .13798523 .116104129 .13798523 .19404602V.5178528C.13798523 .5957947 .18199158 .6537628 .26098634 .6537628 .33999635 .6537628 .38398744 .5957947 .38398744 .5178528V.19404602Z"/>
<path id="font_3_11" d="M.45700074 .51272585C.45700074 .63575747 .37998963 .71777346 .25898744 .71777346 .13798523 .71777346 .06199646 .62776187 .06199646 .5067291 .06199646 .3896942 .1349945 .3046875 .24598694 .3046875 .27398683 .3046875 .2999878 .30967713 .32199098 .3196869L.1619873 0H.23699951L.4119873 .3526764C.44198609 .4126892 .45700074 .4617157 .45700074 .51272585M.3849945 .50971987C.3849945 .4216919 .33499146 .36567689 .25898744 .36567689 .1769867 .36567689 .13398743 .43069459 .13398743 .50971987 .13398743 .596756 .18299866 .6537628 .25898744 .6537628 .33499146 .6537628 .3849945 .596756 .3849945 .50971987Z"/>
<clipPath id="clip_4">
<path transform="matrix(1,0,0,-1,0,595.276)" d="M0 0H411.024V595.276H0Z"/>
</clipPath>
<clipPath id="clip_5">
<path transform="matrix(1,0,0,-1,0,595.276)" d="M0 0H411.024V595.276H0Z"/>
</clipPath>
<clipPath id="clip_6">
<path transform="matrix(1,0,0,-1,0,595.276)" d="M0 0H411.024V595.276H0Z"/>
</clipPath>
<clipPath id="clip_7">
<path transform="matrix(1,0,0,-1,0,595.276)" d="M0 0H411.024V595.276H0Z"/>
</clipPath>
</defs>
<g clip-path="url(#clip_1)">
<g clip-path="url(#clip_2)">
<use data-text="0" xlink:href="#font_3_2" transform="matrix(9,0,0,-9,35.4331,567.547)" fill="#f43040"/>
<use data-text="9" xlink:href="#font_3_11" transform="matrix(9,0,0,-9,39.0331,567.547)" fill="#f43040"/>
<use data-text="0" xlink:href="#font_3_2" transform="matrix(9,0,0,-9,42.6331,567.547)" fill="#f43040"/>
<g clip-path="url(#clip_4)">
<path transform="matrix(1,0,0,-1,276.7882,327.8081)" d="M0 0C-12.203-21.205-35.059-35.517-61.257-35.517-87.095-35.517-109.683-21.595-121.984-.788L-100.708 11.668C-92.71-1.798-78.033-10.843-61.244-10.843-44.22-10.843-29.367-1.542-21.434 12.299Z" fill="#f9a59a"/>
<path transform="matrix(1,0,0,-1,249.0502,313.7746)" d="M0 0C-6.58-11.917-19.232-19.983-33.768-19.983-48.119-19.983-60.634-12.121-67.296-.473L-33.727 18.449Z" fill="#f9a59a"/>
<path transform="matrix(1,0,0,-1,99.9274,287.7571)" d="M0 0V3.311C-.605 3.311-1.051 3.298-1.34 3.272V4.021C-1.051 3.994-.736 3.981-.394 3.981H.827C.801 3.508 .788 3.061 .788 2.641V.315C.998 .525 1.405 .972 2.009 1.656 2.114 1.419 2.259 1.183 2.443 .946 2.049 .552 1.668 .158 1.3-.237 .932-.631 .63-.986 .394-1.301 .131-1.038-.092-.828-.276-.67-.092-.46 0-.237 0 0M-.276 6.425C-.039 6.583 .144 6.767 .276 6.977 .696 6.635 1.195 6.136 1.773 5.479 1.51 5.322 1.3 5.138 1.143 4.927 .722 5.505 .249 6.005-.276 6.425M5.418-.118C5.037 .538 4.715 1.393 4.452 2.444 4.163 1.287 3.749 .348 3.211-.374 2.672-1.097 2.167-1.656 1.694-2.05 1.589-1.866 1.34-1.682 .946-1.498 1.523-1.104 2.042-.598 2.502 .02 2.961 .637 3.303 1.255 3.526 1.872 3.749 2.49 3.881 3.107 3.92 3.725 3.96 4.342 3.979 4.888 3.979 5.361 3.979 5.834 3.966 6.386 3.94 7.017 4.255 6.99 4.596 6.977 4.964 6.977 4.886 6.872 4.833 6.583 4.807 6.11 4.78 5.637 4.793 5.039 4.846 4.316 4.899 3.593 5.03 2.904 5.24 2.247 5.45 1.59 5.753 .933 6.147 .276 6.541-.381 7.105-.933 7.841-1.38 7.42-1.537 7.157-1.747 7.053-2.01 6.344-1.406 5.798-.775 5.418-.118" fill="#2c292a"/>
<path transform="matrix(1,0,0,-1,109.8761,288.2104)" d="M0 0C.276 .407 .505 .828 .69 1.261 .873 1.695 .991 2.122 1.044 2.543 .072 2.543-.624 2.529-1.044 2.503V3.252C-.65 3.226 .085 3.213 1.162 3.213 1.241 3.765 1.281 4.435 1.281 5.223H.374C.242 4.855 .046 4.421-.217 3.922-.506 4.001-.768 4.066-1.005 4.119-.821 4.382-.637 4.73-.453 5.164-.27 5.598-.118 6.018 0 6.425 .118 6.833 .203 7.194 .256 7.51 .518 7.431 .821 7.365 1.162 7.312 1.031 7.128 .926 6.918 .847 6.682 .768 6.445 .676 6.182 .571 5.893 2.069 5.893 3.001 5.906 3.369 5.933V5.223H2.029C2.029 4.645 2.003 3.975 1.95 3.213 2.581 3.213 3.132 3.226 3.605 3.252V2.503C3.132 2.529 2.541 2.543 1.832 2.543 1.806 2.253 1.753 1.977 1.674 1.715 1.911 1.531 2.173 1.327 2.463 1.104 2.751 .88 3.119 .506 3.566-.02 3.382-.099 3.172-.283 2.935-.572 2.699-.177 2.456 .144 2.206 .394 1.957 .644 1.7 .873 1.438 1.084 1.281 .663 1.037 .217 .709-.256 .38-.729 .046-1.149-.296-1.518-.427-1.36-.637-1.202-.926-1.045-.585-.755-.276-.408 0 0M7.585 4.829V.729C7.585 .23 7.597-.283 7.624-.808H6.797V.256H4.708V-.966H3.881C3.907-.467 3.92 .059 3.92 .611V4.829C3.92 5.249 3.907 5.722 3.881 6.248H7.624C7.597 5.722 7.585 5.249 7.585 4.829M6.797 5.617H4.7089998V.8870001H6.797ZM6.797 .887" fill="#2c292a"/>
<path transform="matrix(1,0,0,-1,119.4307,288.9003)" d="M0 0C-.289 .158-.552 .289-.788 .394-.394 .972 0 1.787 .394 2.838 .63 2.628 .906 2.509 1.221 2.483 .853 1.721 .446 .893 0 0M7.368 5.637C7.368 4.901 7.381 4.165 7.407 3.43H.512C.538 4.191 .552 4.94 .552 5.676 .552 6.412 .538 7.148 .512 7.884H7.407C7.381 7.121 7.368 6.372 7.368 5.637M3.586 7.214H1.3399999V6.031H3.586ZM3.586 5.322H1.3399999V4.1H3.586ZM2.64 1.498V.552C2.613 .184 2.81 .014 3.231 .039H5.24C5.424 .039 5.581 .085 5.713 .177 5.844 .269 5.949 .617 6.028 1.222 6.291 .986 6.58 .828 6.895 .749 6.711 .144 6.494-.237 6.245-.394 5.995-.552 5.713-.631 5.398-.631H2.64C2.167-.631 1.917-.381 1.891 .118V1.498C1.891 1.787 1.878 2.102 1.852 2.444H2.679C2.653 2.129 2.64 1.813 2.64 1.498M5.122 1.616C4.78 1.432 4.531 1.274 4.373 1.143 4.084 1.747 3.795 2.247 3.507 2.641 3.743 2.746 3.966 2.878 4.177 3.035 4.465 2.615 4.78 2.142 5.122 1.616M6.619 7.214H4.3339998V6.031H6.619ZM6.619 5.322H4.3339998V4.1H6.619ZM8.511 .946C8.274 .788 8.051 .604 7.841 .394 7.447 1.025 6.96 1.669 6.383 2.326 6.541 2.405 6.75 2.562 7.013 2.799 7.591 2.142 8.09 1.524 8.511 .946" fill="#2c292a"/>
<path transform="matrix(1,0,0,-1,130.384,282.15953)" d="M0 0C-.236-.578-.486-1.143-.749-1.695-.381-1.643-.014-1.603 .355-1.577 .617-.999 .774-.539 .827-.197L1.694-.512C1.537-.697 1.313-1.064 1.024-1.616 .735-2.168 .302-3.022-.276-4.178L1.497-3.942C1.392-4.257 1.326-4.507 1.3-4.691 .959-4.691 .571-4.724 .138-4.79-.295-4.855-.723-4.954-1.143-5.085-1.248-4.77-1.327-4.494-1.379-4.257-1.143-4.153-.906-3.909-.67-3.528-.433-3.147-.197-2.72 .039-2.247-.25-2.273-.519-2.306-.768-2.345-1.018-2.385-1.235-2.444-1.418-2.523-1.497-2.313-1.603-2.05-1.734-1.734-1.497-1.577-1.241-1.183-.965-.552-.69 .079-.447 .762-.236 1.498 .052 1.393 .368 1.301 .709 1.222 .473 .986 .236 .578 0 0M1.812-6.347C1.34-6.425 .814-6.524 .236-6.642-.342-6.761-.867-6.911-1.34-7.096-1.445-6.806-1.55-6.504-1.655-6.189-1.13-6.137-.637-6.077-.177-6.012 .282-5.946 .959-5.821 1.852-5.637 1.825-5.9 1.812-6.137 1.812-6.347M3.428 .65C3.323 .375 3.231 .118 3.152-.118H5.674C6.199-.118 6.672-.105 7.092-.079V-.788C6.645-.763 6.172-.749 5.674-.749H5.28V-2.089C5.91-2.089 6.422-2.076 6.816-2.05V-2.759C6.422-2.734 5.91-2.72 5.28-2.72V-4.139C5.936-4.139 6.462-4.126 6.856-4.1V-4.77C6.462-4.744 5.936-4.73 5.28-4.73V-6.15H5.91C6.435-6.15 6.96-6.137 7.486-6.11V-6.78C6.96-6.754 6.435-6.741 5.91-6.741H3.073V-7.647H2.325C2.351-7.148 2.364-6.478 2.364-5.637V-1.813C2.206-2.208 2.035-2.576 1.852-2.917 1.589-2.734 1.365-2.589 1.182-2.483 1.418-2.142 1.628-1.794 1.812-1.439 1.996-1.084 2.2-.591 2.423 .039 2.646 .67 2.784 1.196 2.837 1.616 3.126 1.511 3.441 1.419 3.782 1.34 3.651 1.156 3.532 .926 3.428 .65M4.57-.749H3.0730003V-2.089H4.57ZM4.57-2.72H3.0730003V-4.139H4.57ZM4.57-4.73H3.0730003V-6.149H4.57ZM5.674 .394C5.463 .315 5.24 .21 5.004 .079 4.872 .394 4.675 .762 4.413 1.183L5.043 1.577C5.148 1.419 5.359 1.025 5.674 .394" fill="#2c292a"/>
<path transform="matrix(1,0,0,-1,139.1462,292.8742)" stroke-width="1.051" stroke-linecap="butt" stroke-miterlimit="8" stroke-linejoin="miter" fill="none" stroke="#2c292a" d="M0 0H-18.221L-20.598-2.834-22.974 0H-41.79M32.958-.29C32.958 23.711 52.405 43.167 76.394 43.167 100.383 43.167 119.83 23.711 119.83-.29 119.83-24.291 100.383-43.748 76.394-43.748 52.405-43.748 32.958-24.291 32.958-.29"/>
</g>
<path transform="matrix(1,0,0,-1,248.1046,283.6577)" d="M0 0 14.342-8.199 0-16.556Z" fill="#f43040"/>
<g clip-path="url(#clip_5)">
<path transform="matrix(1,0,0,-1,143.6372,292.6864)" stroke-width="1.051" stroke-linecap="butt" stroke-miterlimit="8" stroke-linejoin="miter" fill="none" stroke="#2c292a" d="M0 0C0 40.027 32.432 72.475 72.44 72.475 112.447 72.475 144.879 40.027 144.879 0 144.879-40.027 112.447-72.475 72.44-72.475 32.432-72.475 0-40.027 0 0"/>
<path transform="matrix(1,0,0,-1,196.802,269.0695)" d="M0 0V3.311C-.605 3.311-1.051 3.298-1.34 3.272V4.021C-1.051 3.994-.736 3.981-.394 3.981H.827C.801 3.508 .788 3.061 .788 2.641V.315C.998 .525 1.405 .972 2.009 1.656 2.114 1.419 2.259 1.183 2.443 .946 2.049 .552 1.668 .158 1.3-.237 .932-.631 .63-.986 .394-1.301 .131-1.038-.092-.828-.276-.67-.092-.46 0-.237 0 0M-.276 6.425C-.039 6.583 .144 6.767 .276 6.977 .696 6.635 1.195 6.136 1.773 5.479 1.51 5.322 1.3 5.138 1.143 4.928 .722 5.505 .249 6.005-.276 6.425M5.418-.118C5.037 .538 4.715 1.393 4.452 2.444 4.163 1.287 3.749 .348 3.211-.374 2.672-1.097 2.167-1.656 1.694-2.05 1.589-1.866 1.34-1.682 .946-1.498 1.523-1.104 2.042-.598 2.502 .02 2.961 .637 3.303 1.255 3.526 1.872 3.749 2.49 3.881 3.107 3.92 3.725 3.96 4.342 3.979 4.888 3.979 5.361 3.979 5.834 3.966 6.386 3.94 7.017 4.255 6.99 4.596 6.977 4.964 6.977 4.886 6.872 4.833 6.583 4.807 6.11 4.78 5.637 4.793 5.039 4.846 4.316 4.899 3.593 5.03 2.904 5.24 2.247 5.45 1.59 5.753 .933 6.146 .276 6.54-.381 7.105-.933 7.841-1.38 7.42-1.537 7.157-1.747 7.053-2.01 6.344-1.406 5.798-.775 5.418-.118" fill="#2c292a"/>
<path transform="matrix(1,0,0,-1,206.7508,269.5229)" d="M0 0C.276 .407 .505 .828 .689 1.261 .873 1.695 .991 2.122 1.044 2.543 .072 2.543-.624 2.529-1.044 2.503V3.252C-.65 3.226 .085 3.213 1.162 3.213 1.241 3.765 1.28 4.435 1.28 5.223H.374C.243 4.855 .045 4.421-.217 3.922-.506 4.001-.768 4.066-1.005 4.119-.821 4.382-.637 4.73-.453 5.164-.27 5.598-.118 6.018 0 6.425 .118 6.833 .203 7.194 .256 7.509 .518 7.431 .821 7.365 1.162 7.312 1.03 7.128 .926 6.918 .847 6.682 .768 6.445 .676 6.182 .571 5.893 2.068 5.893 3.001 5.906 3.369 5.933V5.223H2.029C2.029 4.645 2.003 3.975 1.95 3.213 2.581 3.213 3.132 3.226 3.605 3.252V2.503C3.132 2.529 2.541 2.543 1.832 2.543 1.806 2.253 1.753 1.977 1.674 1.715 1.911 1.531 2.173 1.327 2.462 1.104 2.751 .88 3.119 .506 3.566-.02 3.382-.099 3.172-.283 2.935-.572 2.699-.177 2.456 .144 2.206 .394 1.956 .644 1.7 .873 1.438 1.084 1.28 .663 1.037 .217 .709-.256 .38-.729 .045-1.149-.296-1.518-.427-1.36-.637-1.202-.926-1.045-.585-.755-.276-.408 0 0M7.585 4.829V.729C7.585 .23 7.597-.283 7.624-.808H6.797V.256H4.708V-.966H3.881C3.907-.467 3.92 .059 3.92 .611V4.829C3.92 5.249 3.907 5.722 3.881 6.248H7.624C7.597 5.722 7.585 5.249 7.585 4.829M6.797 5.617H4.7089998V.8870001H6.797ZM6.797 .887" fill="#2c292a"/>
<path transform="matrix(1,0,0,-1,220.6394,262.4273)" d="M0 0C.079-.197 .144-.374 .197-.532H2.522C3.099-.532 3.638-.519 4.137-.493V-1.202C3.638-1.176 3.099-1.163 2.522-1.163H-2.837V-2.345H1.773C2.246-2.345 2.745-2.333 3.27-2.306V-3.055C2.745-3.029 2.246-3.016 1.773-3.016H-3.704C-3.678-2.648-3.664-2.306-3.664-1.991V-1.163C-4.111-1.163-4.597-1.176-5.122-1.202V-.493C-4.649-.519-4.176-.532-3.704-.532H-.788C-.867-.217-.985 .072-1.143 .335-.801 .414-.526 .506-.315 .611-.184 .4-.079 .197 0 0M2.837-5.578V-6.997C2.837-7.418 2.85-7.956 2.876-8.613H2.009V-8.219H-2.758V-8.653H-3.625C-3.599-7.995-3.585-7.444-3.585-6.997V-5.578C-3.585-4.79-3.599-4.159-3.625-3.686H2.876C2.85-4.185 2.837-4.816 2.837-5.578M2.009-4.316H-2.759V-5.026H2.009ZM2.009-5.657H-2.759V-6.288H2.009ZM2.009-6.879H-2.759V-7.5490005H2.009ZM2.009-7.549" fill="#2c292a"/>
<path transform="matrix(1,0,0,-1,234.4297,262.9989)" d="M0 0C-.394 .026-.92 .039-1.576 .039H-7.407V-7.253H-.985C-.46-7.253-.039-7.24 .276-7.214V-7.923C-.066-7.897-.512-7.884-1.064-7.884H-8.235C-8.209-7.253-8.195-6.794-8.195-6.504V-.512C-8.195-.066-8.209 .341-8.235 .71H0ZM-3.231-2.878C-2.627-2.168-2.181-1.459-1.891-.749-1.603-.933-1.261-1.117-.867-1.301-1.156-1.485-1.406-1.734-1.615-2.05-1.826-2.365-2.141-2.812-2.561-3.39-1.668-4.126-.946-4.849-.394-5.558-.709-5.769-.933-5.992-1.064-6.228-1.484-5.598-2.181-4.875-3.152-4.06-3.546-4.507-3.947-4.915-4.354-5.282-4.761-5.651-5.267-6.058-5.871-6.504-6.107-6.268-6.37-6.071-6.659-5.913-6.134-5.676-5.661-5.394-5.24-5.065-4.82-4.737-4.321-4.218-3.743-3.508-4.4-2.904-5.215-2.3-6.186-1.695-5.924-1.485-5.74-1.261-5.634-1.025-4.715-1.656-3.914-2.273-3.231-2.878" fill="#2c292a"/>
<path transform="matrix(1,0,0,-1,220.1724,289.4201)" d="M0 0H2.955C2.935-.454 2.926-.868 2.926-1.242V-4.553C2.926-4.908 2.935-5.263 2.955-5.617H2.364V-4.908H-1.596V-5.617H-2.187C-2.167-5.243-2.157-4.898-2.157-4.583V-1.212C-2.157-.857-2.167-.454-2.187 0H-.561C-.483 .532-.434 .926-.414 1.183-.177 1.104 .079 1.044 .355 1.005 .236 .828 .118 .492 0 0M2.364-.503H-1.596V-1.4790001H2.364ZM2.364-1.951H-1.596V-2.8969999H2.364ZM2.364-3.37H-1.596V-4.434H2.364ZM2.364-4.435" fill="#2c292a"/>
<path transform="matrix(1,0,0,-1,228.0624,289.154)" d="M0 0C-.177-.059-.552-.148-1.123-.266V-1.39H.414C.414-.857 .404-.118 .384 .828 .601 .788 .817 .769 1.034 .769 .995 .473 .975 .138 .975-.237V-1.39H2.305C2.6-1.39 2.945-1.38 3.339-1.36V-1.892C2.945-1.873 2.61-1.863 2.335-1.863H1.005C1.064-2.809 1.192-3.489 1.389-3.903 1.803-3.509 2.157-2.927 2.453-2.158 2.61-2.296 2.817-2.424 3.073-2.543 2.915-2.72 2.708-3.011 2.453-3.415 2.196-3.819 1.931-4.159 1.655-4.435 1.812-4.671 1.98-4.869 2.157-5.026 2.335-5.184 2.477-5.277 2.586-5.307 2.694-5.336 2.773-5.277 2.822-5.13 2.871-4.982 2.906-4.77 2.926-4.494 3.122-4.632 3.329-4.75 3.546-4.849 3.388-5.4 3.221-5.745 3.044-5.883 2.866-6.021 2.61-6.002 2.275-5.824 1.94-5.647 1.596-5.312 1.241-4.819 .571-5.292 .039-5.627-.355-5.824-.473-5.607-.621-5.43-.798-5.292-.207-5.095 .374-4.77 .946-4.316 .67-3.765 .502-2.947 .443-1.863H-1.123V-3.016C-.67-2.917-.325-2.819-.089-2.72-.069-2.917-.049-3.104-.03-3.282-.286-3.341-.65-3.43-1.123-3.548V-5.056C-1.103-5.43-1.222-5.671-1.477-5.78-1.734-5.888-2.029-5.972-2.364-6.031-2.384-5.814-2.482-5.588-2.659-5.351-2.266-5.351-2.005-5.326-1.876-5.277-1.749-5.228-1.684-5.115-1.684-4.937V-3.696C-2.433-3.893-2.926-4.031-3.162-4.11-3.182-3.834-3.241-3.607-3.339-3.43-2.985-3.39-2.433-3.292-1.684-3.134V-1.863C-2.453-1.863-2.985-1.873-3.28-1.892V-1.36C-2.965-1.38-2.433-1.39-1.684-1.39V-.414L-2.926-.68C-2.985-.463-3.064-.276-3.162-.118-2.866-.118-2.408-.049-1.788 .089-1.167 .226-.7 .384-.384 .562-.187 .285-.059 .098 0 0M2.896-.591C2.738-.71 2.581-.848 2.423-1.005 2.108-.572 1.773-.217 1.418 .059 1.576 .197 1.704 .335 1.803 .473 2.315 0 2.679-.355 2.896-.591" fill="#2c292a"/>
<path transform="matrix(1,0,0,-1,237.489,289.8636)" d="M0 0C.315 0 .709 .01 1.182 .03V-.532C.709-.513 .315-.503 0-.503H-1.566V-1.981H-.384C-.069-1.981 .305-1.971 .739-1.951V-2.513C.305-2.494-.069-2.483-.384-2.483H-1.566V-4.376H.296C.65-4.376 1.064-4.366 1.537-4.346V-4.908C1.064-4.888 .65-4.878 .296-4.878H-5.201V-4.316C-4.728-4.356-4.305-4.376-3.93-4.376H-2.187V-2.483H-3.339C-3.655-2.483-4.029-2.494-4.462-2.513V-1.951C-3.989-1.971-3.615-1.981-3.339-1.981H-2.187V-.503H-3.664C-4.078-.503-4.482-.513-4.876-.532V.03C-4.443 .01-4.029 0-3.635 0ZM-2.778 1.212C-2.581 1.35-2.423 1.478-2.305 1.596-1.891 1.123-1.566 .719-1.33 .384-1.448 .325-1.625 .217-1.862 .059-2.098 .414-2.404 .798-2.778 1.212" fill="#2c292a"/>
<path transform="matrix(1,0,0,-1,239.7643,290.8392)" d="M0 0C.296-.02 .65-.03 1.064-.03H2.187C2.541-.03 2.945-.02 3.398 0V-.532C2.945-.513 2.551-.503 2.216-.503H1.891C1.773-.818 1.64-1.153 1.492-1.508 1.345-1.863 1.172-2.217 .975-2.572 1.743-2.494 2.324-2.415 2.719-2.336 2.62-2.099 2.462-1.803 2.246-1.449 2.462-1.33 2.62-1.232 2.719-1.153 2.915-1.508 3.083-1.809 3.221-2.055 3.359-2.301 3.506-2.602 3.664-2.957 3.506-3.055 3.329-3.154 3.132-3.252 3.053-3.075 2.985-2.927 2.926-2.809 2.295-2.908 1.788-2.986 1.404-3.045 1.02-3.104 .689-3.183 .414-3.282 .335-3.085 .236-2.897 .118-2.72 .374-2.562 .606-2.247 .813-1.774 1.02-1.301 1.172-.877 1.271-.503H1.064C.65-.503 .296-.513 0-.532ZM2.039 1.656C2.374 1.656 2.748 1.665 3.162 1.685V1.123C2.748 1.143 2.374 1.153 2.039 1.153H1.33C1.014 1.153 .709 1.143 .414 1.123V1.685C.689 1.665 .985 1.656 1.3 1.656ZM5.23 2.424C5.191 2.227 5.166 2.005 5.156 1.759 5.146 1.512 5.142 1.212 5.142 .857H6.797C6.777 .601 6.757 .315 6.737 0L6.59-3.37C6.531-3.764 6.368-4.006 6.102-4.095 5.836-4.183 5.536-4.247 5.201-4.287 5.142-4.05 5.043-3.833 4.905-3.637 5.339-3.656 5.634-3.631 5.792-3.563 5.949-3.494 6.028-3.361 6.028-3.163L6.206 .355H5.142C5.102-.513 5.038-1.173 4.95-1.626 4.861-2.08 4.723-2.498 4.536-2.883 4.349-3.267 3.969-3.764 3.398-4.376 3.201-4.178 3.024-4.05 2.866-3.991 3.24-3.696 3.546-3.385 3.782-3.06 4.019-2.735 4.186-2.4 4.285-2.055 4.383-1.71 4.452-1.35 4.492-.976 4.531-.601 4.56-.158 4.58 .355H4.078C3.861 .355 3.605 .345 3.31 .325V.887C3.605 .867 3.881 .857 4.137 .857H4.58V1.685C4.58 1.961 4.57 2.237 4.551 2.513 4.787 2.454 5.013 2.424 5.23 2.424" fill="#2c292a"/>
<path transform="matrix(1,0,0,-1,182.0311,279.1241)" d="M0 0C-.236 .099-.434 .168-.591 .207-.355 .522-.158 .956 0 1.508 .177 1.429 .364 1.37 .561 1.33 .384 .956 .197 .513 0 0M.916 5.676C.561 5.676 .187 5.666-.207 5.647V6.15C.207 6.13 .581 6.12 .916 6.12H2.689C2.669 6.277 2.6 6.484 2.482 6.741 2.699 6.76 2.925 6.8 3.162 6.859 3.24 6.504 3.3 6.258 3.339 6.12H4.699C5.092 6.12 5.437 6.13 5.733 6.15V5.647C5.398 5.666 5.053 5.676 4.699 5.676H1.743C1.881 5.479 1.999 5.292 2.098 5.115L1.684 4.937H3.546C3.625 5.036 3.713 5.263 3.812 5.617 4.048 5.558 4.265 5.499 4.462 5.44 4.324 5.263 4.216 5.095 4.137 4.937H5.024C5.457 4.937 5.861 4.947 6.235 4.967V4.464C5.861 4.484 5.457 4.494 5.024 4.494H.591C.177 4.494-.207 4.484-.561 4.464V4.967C-.187 4.947 .197 4.937 .591 4.937H1.566C1.507 5.095 1.408 5.263 1.271 5.44 1.389 5.499 1.526 5.578 1.684 5.676ZM5.142 2.986C5.142 2.651 5.151 2.286 5.171 1.892H.473C.492 2.286 .502 2.661 .502 3.016 .502 3.37 .492 3.725 .473 4.08H5.171C5.151 3.705 5.142 3.341 5.142 2.986M4.551 3.666H1.0940001V3.1929999H4.551ZM4.551 2.75H1.0940001V2.336H4.551ZM1.773 .976C1.773 .857 1.778 .749 1.788 .65 1.797 .552 1.891 .503 2.069 .503H3.812C3.93 .542 4.029 .769 4.108 1.183 4.265 1.044 4.482 .936 4.758 .857 4.62 .483 4.501 .256 4.403 .177 4.304 .099 4.137 .059 3.901 .059H1.743C1.408 .079 1.231 .163 1.212 .31 1.192 .458 1.182 .631 1.182 .828 1.182 1.025 1.162 1.251 1.123 1.508H1.803C1.783 1.291 1.773 1.113 1.773 .976M3.516 1.064C3.339 .946 3.162 .838 2.985 .739 2.925 .917 2.758 1.163 2.482 1.478 2.6 1.577 2.768 1.685 2.985 1.803 3.201 1.508 3.378 1.261 3.516 1.064M6.294 .562C6.117 .424 5.959 .306 5.821 .207 5.683 .424 5.398 .798 4.964 1.33 5.083 1.429 5.24 1.537 5.437 1.656 5.811 1.163 6.097 .798 6.294 .562" fill="#2c292a"/>
<path transform="matrix(1,0,0,-1,190.6008,274.512)" d="M0 0C-.02-.355-.03-.769-.03-1.242V-2.957C.167-2.76 .384-2.513 .621-2.217 .699-2.415 .807-2.622 .946-2.838 .65-3.115 .399-3.37 .192-3.607-.015-3.843-.227-4.099-.443-4.376-.581-4.159-.749-3.981-.946-3.843-.729-3.666-.621-3.469-.621-3.252V-.503C-1.054-.503-1.399-.513-1.655-.532V.03C-1.418 .01-1.152 0-.857 0ZM.473 1.123C.296 1.005 .128 .857-.03 .68-.404 1.251-.7 1.656-.916 1.892-.759 1.991-.601 2.119-.443 2.276 .01 1.764 .315 1.379 .473 1.123M1.773-3.607C1.497-3.981 1.192-4.356 .857-4.73 .758-4.612 .601-4.474 .384-4.316 1.152-3.509 1.655-2.838 1.891-2.306 2.088-2.444 2.285-2.572 2.482-2.69 2.285-2.927 2.049-3.233 1.773-3.607M4.61-.03C4.61-.838 4.62-1.419 4.639-1.774H1.123C1.142-1.439 1.152-.857 1.152-.03 1.152 .798 1.142 1.409 1.123 1.803H4.639C4.62 1.409 4.61 .798 4.61-.03M3.989 1.242H1.773V-1.271H3.989ZM5.29-4.139C5.072-4.297 4.885-4.454 4.728-4.612 4.334-4.021 3.851-3.39 3.28-2.72 3.438-2.622 3.595-2.474 3.753-2.276 4.501-3.124 5.013-3.745 5.29-4.139" fill="#2c292a"/>
<path transform="matrix(1,0,0,-1,203.2777,273.2111)" d="M0 0C-.354 .019-.66 .03-.916 .03H-2.659C-2.798-.247-2.965-.552-3.162-.887V-4.583C-3.162-4.977-3.152-5.42-3.132-5.913H-3.782C-3.763-5.44-3.753-4.996-3.753-4.583V-1.685C-4.364-2.533-5.191-3.311-6.235-4.021-6.393-3.784-6.541-3.617-6.678-3.518-6.284-3.341-5.762-2.962-5.112-2.38-4.462-1.799-3.861-.996-3.31 .03H-5.26C-5.634 .03-6.028 .019-6.442 0V.591C-5.851 .571-5.398 .562-5.083 .562H-.945C-.69 .562-.374 .571 0 .591ZM-2.63-1.744C-2.472-1.607-2.345-1.469-2.246-1.33-1.773-1.764-1.369-2.143-1.034-2.469-.699-2.794-.384-3.115-.088-3.43-.286-3.588-.463-3.755-.621-3.932-.995-3.459-1.665-2.73-2.63-1.744" fill="#2c292a"/>
<path transform="matrix(1,0,0,-1,205.5975,278.6806)" d="M0 0C-.581-.098-.99-.187-1.226-.266-1.285-.01-1.355 .237-1.433 .473-1.079 .492-.788 .512-.561 .532-.335 .552-.064 .581 .251 .621V1.774H-.162C-.557 1.774-.892 1.754-1.167 1.715V2.277C-.832 2.257-.527 2.247-.251 2.247H.251V3.223C-.143 3.203-.424 3.183-.591 3.163-.759 3.144-.941 3.114-1.138 3.075-1.177 3.331-1.237 3.557-1.315 3.755-1 3.833-.719 4.031-.473 4.346-.227 4.661-.035 5.016 .103 5.41H-.34C-.675 5.41-.99 5.4-1.285 5.381V5.943C-.971 5.923-.665 5.913-.369 5.913H1.522C1.876 5.913 2.191 5.923 2.467 5.943V5.381C2.172 5.4 1.857 5.41 1.522 5.41H.31L.842 5.056C.645 4.898 .458 4.701 .281 4.464 .103 4.228-.103 3.971-.34 3.696 .369 3.735 1.029 3.774 1.64 3.814 1.482 4.07 1.305 4.326 1.108 4.583 1.305 4.681 1.482 4.79 1.64 4.908 1.837 4.632 2.024 4.365 2.202 4.11 2.379 3.853 2.546 3.617 2.704 3.4 2.527 3.262 2.329 3.134 2.113 3.016 2.034 3.153 1.965 3.272 1.906 3.37 1.492 3.311 1.147 3.272 .872 3.252V2.247H1.433C1.768 2.247 2.054 2.257 2.29 2.277V1.715C2.034 1.754 1.758 1.774 1.463 1.774H.872V.68C1.423 .759 2.004 .847 2.615 .946 2.576 .749 2.546 .562 2.527 .384 1.423 .226 .581 .099 0 0M3.561 4.316V2.099C3.561 1.685 3.571 1.34 3.59 1.064H2.97C2.989 1.34 2.999 1.685 2.999 2.099V4.435C2.999 4.829 2.989 5.144 2.97 5.381H3.62C3.58 5.124 3.561 4.77 3.561 4.316M5.068 5.322V.473C5.068 .02 4.984-.246 4.817-.325 4.649-.404 4.289-.492 3.738-.591 3.679-.335 3.59-.098 3.472 .118 3.886 .118 4.156 .133 4.285 .163 4.413 .192 4.477 .355 4.477 .65V5.322C4.477 5.755 4.467 6.09 4.447 6.327H5.127C5.087 6.031 5.068 5.696 5.068 5.322" fill="#2c292a"/>
<path transform="matrix(1,0,0,-1,216.9301,276.8476)" d="M0 0C.65 0 1.162 .01 1.537 .03V-.443C1.182-.424 .876-.414 .621-.414H-4.137C-4.571-.414-4.925-.424-5.201-.443V.03C-5.043 .01-4.521 0-3.635 0V3.045C-4.108 3.045-4.492 3.035-4.787 3.016V3.518C-4.63 3.498-4.246 3.489-3.635 3.489-3.635 3.922-3.645 4.237-3.664 4.435H-2.955C-2.995 4.218-3.014 3.903-3.014 3.489H-.621C-.621 3.843-.631 4.149-.65 4.405H.03C.01 4.149 0 3.843 0 3.489 .433 3.489 .808 3.498 1.123 3.518V3.016C.788 3.035 .414 3.045 0 3.045ZM-4.078-1.375C-3.704-1.109-3.389-.848-3.132-.591-2.975-.749-2.817-.897-2.659-1.035-2.877-1.193-3.497-1.645-4.521-2.395-4.639-2.217-4.787-2.07-4.964-1.951-4.748-1.833-4.452-1.641-4.078-1.375M-.621 3.045H-3.015V2.335H-.621ZM-.621 1.922H-3.015V1.1830001H-.621ZM-.621 .739H-3.015V0H-.621ZM1.212-1.892C1.014-2.03 .847-2.188 .709-2.365 .473-2.07-.118-1.626-1.064-1.035-.867-.877-.729-.729-.65-.591 .158-1.104 .778-1.537 1.212-1.892" fill="#2c292a"/>
<path transform="matrix(1,0,0,-1,220.8604,274.0094)" d="M0 0V-3.903C0-4.395 .019-4.809 .059-5.144H-.561C-.542-4.809-.532-4.395-.532-3.903V-1.005C-.788-1.478-.985-1.823-1.123-2.04-1.261-1.863-1.419-1.725-1.596-1.626-1.34-1.35-1.039-.862-.694-.163-.35 .537-.118 1.143 0 1.656 .315 1.518 .551 1.419 .709 1.36 .532 1.123 .295 .67 0 0M.975 .532H1.596C1.576 .276 1.566-.197 1.566-.887L2.512-.591V.621C2.512 1.015 2.492 1.35 2.453 1.626H3.073C3.053 1.35 3.044 1.005 3.044 .591V-.384L4.639 .177C4.62-.868 4.61-1.596 4.61-2.01 4.61-2.424 4.501-2.681 4.285-2.779 4.068-2.878 3.792-2.956 3.457-3.016 3.418-2.819 3.339-2.612 3.221-2.395 3.595-2.395 3.822-2.38 3.901-2.35 3.979-2.321 4.019-2.228 4.019-2.07L4.048-.591 3.044-.946V-2.838C3.044-3.174 3.053-3.459 3.073-3.696H2.482C2.502-3.459 2.512-3.174 2.512-2.838V-1.094L1.566-1.419V-3.962C1.566-4.238 1.704-4.366 1.98-4.346H4.078C4.235-4.346 4.354-4.302 4.433-4.213 4.511-4.124 4.57-3.843 4.61-3.37 4.846-3.548 5.073-3.656 5.29-3.696 5.151-4.208 5.004-4.533 4.846-4.671 4.688-4.809 4.462-4.868 4.167-4.849H1.862C1.33-4.868 1.044-4.632 1.005-4.139V-1.596C.709-1.695 .473-1.794 .295-1.892L.059-1.33C.315-1.291 .63-1.202 1.005-1.064 1.005-.296 .995 .237 .975 .532" fill="#2c292a"/>
<path transform="matrix(1,0,0,-1,232.6214,272.945)" d="M0 0C.315 0 .65 .01 1.005 .03V-.532C.689-.513 .364-.503 .03-.503H-.148V-5.381C-.148-5.736-.251-5.967-.458-6.076-.665-6.184-1.084-6.268-1.714-6.327-1.754-6.071-1.832-5.834-1.95-5.617-1.537-5.637-1.241-5.627-1.064-5.588-.887-5.548-.798-5.44-.798-5.263V-.503H-4.344C-4.856-.503-5.319-.513-5.733-.532V.03C-5.319 .01-4.866 0-4.373 0ZM-1.921-2.247V-3.696C-1.921-4.031-1.911-4.316-1.891-4.553H-2.512V-4.021H-4.196V-4.819H-4.787C-4.768-4.681-4.758-4.455-4.758-4.139V-2.247C-4.758-1.932-4.768-1.646-4.787-1.39H-1.891C-1.911-1.646-1.921-1.932-1.921-2.247M-2.512-1.892H-4.196V-3.5180002H-2.512ZM-2.512-3.518" fill="#2c292a"/>
<path transform="matrix(1,0,0,-1,237.3791,274.512)" d="M0 0C-.65-.04-1.192-.079-1.625-.118-2.059-.158-2.384-.207-2.6-.266-2.659-.03-2.729 .177-2.807 .355-2.67 .414-2.458 .625-2.172 .99-1.887 1.355-1.655 1.744-1.478 2.158-1.379 2.079-1.271 2.02-1.152 1.981-1.034 1.941-.906 1.892-.768 1.833-.926 1.715-1.089 1.537-1.256 1.301-1.423 1.064-1.694 .729-2.068 .296-1.241 .335-.631 .364-.236 .384-.473 .699-.64 .906-.739 1.005-.601 1.084-.443 1.192-.266 1.33-.108 1.113 .044 .917 .192 .739 .34 .562 .532 .335 .768 .059 .551-.099 .374-.227 .237-.325 .177-.227 .098-.118 0 0M-.355-4.036C-.315-3.966-.296-3.863-.296-3.725V-3.311H-1.891V-4.701H-2.453C-2.433-4.306-2.423-3.952-2.423-3.637V-1.656C-2.423-1.301-2.433-.986-2.453-.71H.266C.246-1.005 .237-1.33 .237-1.685V-4.169C.217-4.385 .128-4.523-.03-4.583-.187-4.642-.414-4.691-.709-4.73-.749-4.553-.827-4.356-.946-4.139-.591-4.139-.394-4.104-.355-4.036M-.296-1.183H-1.892V-1.7449999H-.296ZM-.296-2.217H-1.892V-2.838H-.296ZM1.507 .887C1.783 1.005 2.049 1.128 2.305 1.257 2.561 1.384 2.817 1.547 3.073 1.744 3.231 1.547 3.369 1.379 3.487 1.242 3.369 1.202 3.118 1.089 2.734 .902 2.349 .714 1.94 .552 1.507 .414V-.03C1.507-.266 1.645-.384 1.921-.384H2.778C2.974-.384 3.103-.128 3.162 .384 3.359 .285 3.556 .197 3.753 .118 3.615-.513 3.369-.828 3.014-.828H1.684C1.212-.828 .975-.611 .975-.177V1.33C.975 1.567 .965 1.823 .946 2.099H1.537C1.517 1.961 1.507 1.675 1.507 1.242ZM2.822-2.336C2.438-2.513 1.999-2.681 1.507-2.838V-3.666C1.507-3.903 1.615-4.021 1.832-4.021H2.896C3.053-3.981 3.162-3.735 3.221-3.282 3.379-3.361 3.576-3.44 3.812-3.518 3.674-4.149 3.447-4.464 3.132-4.464H1.537C1.162-4.464 .975-4.277 .975-3.903V-1.981C.975-1.685 .965-1.419 .946-1.183H1.537C1.517-1.419 1.507-1.676 1.507-1.951V-2.336C1.704-2.276 1.965-2.168 2.29-2.01 2.615-1.853 2.876-1.685 3.073-1.508 3.251-1.744 3.398-1.922 3.517-2.04 3.438-2.06 3.206-2.158 2.822-2.336" fill="#2c292a"/>
<path transform="matrix(1,0,0,-1,242.4321,275.9311)" d="M0 0C-.197 .039-.374 .079-.532 .118-.394 .631-.286 1.242-.207 1.951-.049 1.931 .128 1.902 .325 1.863 .207 1.035 .098 .414 0 0M1.153 2.395V-2.04C1.153-2.454 1.162-2.868 1.182-3.282H.562C.581-2.868 .591-2.454 .591-2.04V2.395C.591 2.809 .581 3.193 .562 3.548H1.182C1.162 3.153 1.153 2.769 1.153 2.395M2.157 1.005C1.98 .946 1.822 .877 1.684 .798 1.546 1.232 1.399 1.636 1.241 2.01 1.399 2.089 1.546 2.158 1.684 2.217 1.842 1.902 1.999 1.498 2.157 1.005M3.044 1.892H3.96V2.513C3.96 2.848 3.95 3.173 3.93 3.489H4.551C4.531 3.173 4.521 2.848 4.521 2.513V1.892H5.112C5.368 1.892 5.674 1.902 6.028 1.922V1.36C5.674 1.379 5.368 1.39 5.112 1.39H4.521V-.177H5.053C5.349-.177 5.644-.168 5.94-.148V-.71C5.644-.69 5.349-.68 5.053-.68H4.521V-2.513H5.319C5.654-2.513 5.979-2.503 6.294-2.483V-3.016C5.979-2.996 5.654-2.986 5.319-2.986H3.044C2.689-2.986 2.344-2.996 2.009-3.016V-2.483C2.344-2.503 2.679-2.513 3.014-2.513H3.96V-.68H3.457C3.201-.68 2.906-.69 2.571-.71V-.148C2.827-.168 3.122-.177 3.457-.177H3.96V1.39H2.926C2.866 1.094 2.709 .66 2.453 .089 2.236 .207 2.058 .276 1.921 .296 2.196 .867 2.374 1.36 2.453 1.774 2.531 2.188 2.6 2.582 2.66 2.957 2.856 2.897 3.054 2.848 3.251 2.809 3.152 2.454 3.083 2.148 3.044 1.892" fill="#2c292a"/>
<path transform="matrix(1,0,0,-1,101.7853,296.9814)" d="M0 0C.217 0 .468 .011 .751 .033V-.555C.468-.534 .217-.522 0-.522H-.228V-2.089C.076-2.089 .413-2.078 .783-2.057V-2.644C.392-2.623 .054-2.612-.228-2.612V-4.472C-.033-4.429 .294-4.298 .751-4.081 .751-4.255 .761-4.462 .783-4.701 .131-4.941-.364-5.114-.701-5.223-1.039-5.332-1.403-5.474-1.794-5.648-1.882-5.43-1.99-5.202-2.121-4.962-1.969-4.962-1.534-4.864-.816-4.668V-2.612C-1.186-2.612-1.534-2.633-1.86-2.677V-2.057C-1.534-2.078-1.186-2.089-.816-2.089V-.522H-1.109C-1.392-.522-1.675-.534-1.958-.555V.033C-1.675 .011-1.403 0-1.142 0ZM4.307 0C4.633 0 5.003 .011 5.416 .033V-.588C5.046-.566 4.677-.555 4.307-.555H3.687C3.491-1.252 3.361-1.73 3.296-1.991V-5.974C3.296-6.409 3.306-6.801 3.328-7.149H2.643C2.664-6.823 2.676-6.431 2.676-5.974V-3.362C2.219-4.255 1.664-5.006 1.012-5.615 .881-5.484 .685-5.343 .424-5.191 .729-4.973 1.017-4.696 1.289-4.358 1.561-4.021 1.827-3.624 2.088-3.167 2.349-2.71 2.539-2.285 2.659-1.893 2.779-1.502 2.893-1.056 3.002-.555H2.088C1.74-.555 1.381-.566 1.012-.588V.033C1.381 .011 1.74 0 2.088 0ZM5.612-4.472C5.394-4.603 5.188-4.733 4.992-4.864 4.666-4.276 4.41-3.841 4.225-3.558 4.04-3.276 3.818-2.971 3.557-2.644 3.752-2.536 3.926-2.405 4.079-2.253 4.753-3.167 5.264-3.907 5.612-4.472" fill="#2c292a"/>
<path transform="matrix(1,0,0,-1,109.3075,302.4167)" d="M0 0C-.413-.163-.74-.321-.979-.473-1.088-.191-1.175 .049-1.24 .245-1.044 .266-.876 .299-.734 .343-.593 .386-.457 .429-.326 .473V3.215C-.544 3.215-.805 3.194-1.109 3.15V3.738C-.805 3.716-.544 3.705-.326 3.705V4.88C-.326 5.098-.338 5.359-.359 5.664H.261C.239 5.337 .228 5.076 .228 4.88V3.705C.402 3.705 .641 3.716 .946 3.738V3.15C.641 3.194 .402 3.215 .228 3.215V.669C.555 .778 .848 .886 1.109 .996 1.131 .843 1.163 .658 1.207 .441 .816 .31 .413 .163 0 0M5.351-1.094C5.503-1.094 5.601-1.012 5.645-.849 5.688-.686 5.731-.517 5.775-.343 5.971-.517 6.199-.626 6.461-.669 6.286-1.257 6.107-1.567 5.922-1.6 5.737-1.632 5.579-1.649 5.449-1.649H4.503C4.002-1.649 3.763-1.409 3.785-.93V.375H3.132C3.045-.191 2.8-.637 2.398-.963 1.995-1.289 1.436-1.561 .718-1.779 .653-1.561 .533-1.344 .359-1.126 1.142-1.017 1.685-.827 1.99-.555 2.295-.283 2.48 .027 2.545 .375H1.534C1.555 .832 1.566 1.246 1.566 1.616 1.566 2.008 1.555 2.399 1.534 2.791H5.612C5.59 2.465 5.579 2.094 5.579 1.681 5.579 1.268 5.59 .832 5.612 .375H4.405V-.669C4.383-.974 4.492-1.115 4.731-1.094ZM3.132 3.966C2.958 3.879 2.784 3.792 2.61 3.705H3.981C4.067 3.944 4.155 4.282 4.242 4.717H2.512C2.034 4.717 1.642 4.706 1.338 4.685V5.239C1.62 5.218 2.012 5.207 2.512 5.207H3.361C3.339 5.446 3.284 5.675 3.198 5.892 3.372 5.914 3.611 5.958 3.915 6.023 3.981 5.718 4.035 5.446 4.079 5.207H4.796C5.188 5.207 5.558 5.218 5.906 5.239V4.685C5.558 4.706 5.199 4.717 4.829 4.717H4.307C4.503 4.63 4.72 4.532 4.96 4.423 4.807 4.227 4.677 3.988 4.568 3.705H5.253C5.601 3.705 5.938 3.716 6.265 3.738V3.15C5.938 3.194 5.601 3.215 5.253 3.215H2.284C1.892 3.215 1.534 3.194 1.207 3.15V3.738C1.534 3.716 1.881 3.705 2.251 3.705H2.545C2.458 3.988 2.349 4.206 2.219 4.358 2.393 4.445 2.566 4.543 2.741 4.652 2.849 4.477 2.98 4.249 3.132 3.966M5.025 2.334H2.186V1.812H5.025ZM5.025 1.355H2.186V.833H5.025ZM5.025 .832" fill="#2c292a"/>
<path transform="matrix(1,0,0,-1,120.134,302.4983)" d="M0 0-.294-.653C-.424-.566-.538-.49-.636-.424-.734-.359-.838-.272-.946-.163-1.121-.338-1.305-.473-1.501-.571-1.697-.669-1.925-.718-2.186-.718-2.621-.718-2.997-.588-3.312-.326-3.627-.065-3.785 .337-3.785 .881-3.785 1.229-3.693 1.518-3.508 1.746-3.323 1.975-3.1 2.187-2.839 2.383-2.948 2.622-3.034 2.862-3.1 3.101-3.165 3.341-3.198 3.558-3.198 3.754-3.198 4.146-3.083 4.45-2.855 4.668-2.627 4.885-2.349 4.995-2.023 4.995-1.741 4.995-1.501 4.902-1.305 4.717-1.109 4.532-1.011 4.265-1.011 3.917-1.011 3.504-1.126 3.172-1.354 2.922-1.582 2.671-1.838 2.459-2.121 2.285-1.969 2.024-1.811 1.779-1.648 1.551-1.485 1.322-1.294 1.088-1.077 .849-1.011 1.001-.968 1.148-.946 1.289-.925 1.431-.914 1.61-.914 1.828H-.261C-.261 1.545-.289 1.289-.343 1.061-.397 .832-.479 .62-.587 .424-.522 .359-.43 .283-.31 .196-.191 .109-.087 .043 0 0M-1.403 .261C-1.686 .566-1.925 .849-2.121 1.11-2.317 1.371-2.48 1.632-2.61 1.893-2.785 1.763-2.91 1.616-2.985 1.453-3.062 1.289-3.1 1.088-3.1 .849-3.1 .522-3.002 .277-2.806 .114-2.61-.049-2.382-.131-2.121-.131-1.969-.131-1.838-.098-1.729-.033-1.621 .033-1.512 .131-1.403 .261M-1.631 3.917C-1.631 4.069-1.67 4.189-1.746 4.276-1.822 4.363-1.925 4.407-2.056 4.407-2.186 4.407-2.306 4.353-2.415 4.244-2.524 4.135-2.578 3.983-2.578 3.787-2.578 3.634-2.561 3.477-2.529 3.313-2.496 3.15-2.436 2.971-2.349 2.775-2.175 2.862-2.012 2.998-1.86 3.183-1.708 3.367-1.631 3.612-1.631 3.917" fill="#2c292a"/>
<path transform="matrix(1,0,0,-1,127.9239,298.6136)" d="M0 0V-3.493C0-4.059 .011-4.744 .033-5.55H-.555V-5.027H-6.167V-5.55H-6.787C-6.765-4.875-6.754-4.179-6.754-3.46V0C-6.754 .631-6.765 1.24-6.787 1.828H.033C.011 1.262 0 .653 0 0M-.555 1.371H-6.167V-4.5699999H-.555ZM-2.839-2.612V-2.416H-4.177V-3.395C-4.198-3.656-4.013-3.776-3.622-3.754H-2.545C-2.328-3.776-2.181-3.743-2.105-3.656-2.029-3.57-1.98-3.395-1.958-3.134-1.806-3.243-1.599-3.308-1.338-3.33-1.425-3.678-1.528-3.912-1.648-4.032-1.768-4.151-1.958-4.211-2.219-4.211H-3.915C-4.437-4.233-4.698-4.005-4.698-3.526V-2.285C-5.003-2.525-5.318-2.742-5.645-2.938-5.732-2.764-5.873-2.601-6.069-2.448-5.743-2.34-5.444-2.187-5.172-1.991-4.9-1.795-4.677-1.578-4.503-1.338-4.96-1.338-5.384-1.35-5.775-1.371V-.849C-5.406-.871-4.884-.881-4.209-.881-4.122-.707-4.046-.534-3.981-.359-4.655-.359-5.167-.37-5.514-.392V.098C-5.21 .076-4.96 .065-4.764 .065-4.894 .305-5.047 .522-5.221 .718-5.09 .783-4.96 .881-4.829 1.012-4.633 .794-4.459 .576-4.307 .359-4.503 .25-4.633 .152-4.698 .065H-3.85C-3.764 .566-3.72 .914-3.72 1.11-3.503 1.066-3.285 1.033-3.067 1.012-3.132 .881-3.22 .566-3.328 .065H-2.773C-2.534 .478-2.371 .816-2.284 1.077-2.11 .99-1.904 .903-1.664 .816-1.838 .686-2.034 .435-2.251 .065-2.056 .065-1.784 .076-1.436 .098V-.392C-1.784-.37-2.056-.359-2.251-.359H-3.426C-3.513-.599-3.589-.773-3.654-.881H-2.154C-1.806-.881-1.447-.871-1.077-.849V-1.371C-1.447-1.35-1.925-1.338-2.512-1.338-2.382-1.513-2.165-1.687-1.86-1.861-1.555-2.035-1.186-2.176-.75-2.285-.946-2.481-1.066-2.666-1.109-2.84-1.566-2.688-1.969-2.47-2.317-2.187V-2.644C-2.317-2.884-2.388-3.052-2.529-3.15-2.67-3.248-2.915-3.33-3.263-3.395-3.307-3.221-3.383-3.047-3.491-2.873-3.078-2.873-2.861-2.786-2.839-2.612M-2.61-1.959C-2.785-1.785-2.948-1.578-3.1-1.338H-3.85C-3.981-1.513-4.155-1.719-4.372-1.959Z" fill="#2c292a"/>
<path transform="matrix(1,0,0,-1,132.4116,303.2328)" d="M0 0C.13 .054 .196 .19 .196 .408V2.791H-2.121C-2.426 2.791-2.785 2.78-3.198 2.758V3.346C-2.785 3.324-2.426 3.313-2.121 3.313H.196C.196 3.661 .185 4.053 .163 4.489 .467 4.619 .777 4.782 1.093 4.978 1.408 5.174 1.773 5.403 2.186 5.664H-1.142C-1.599 5.664-2.002 5.653-2.349 5.631V6.219C-1.892 6.197-1.512 6.186-1.207 6.186H3.393V5.599C3.067 5.468 2.708 5.294 2.317 5.076 1.925 4.859 1.436 4.554 .848 4.162V3.313H3.034C3.404 3.313 3.818 3.335 4.274 3.379V2.791C3.818 2.813 3.404 2.813 3.034 2.791H.848V.18C.848-.256 .723-.517 .473-.604 .223-.691-.152-.756-.653-.8-.696-.56-.794-.31-.946-.049-.446-.071-.131-.055 0 0" fill="#2c292a"/>
</g>
<path transform="matrix(1,0,0,-1,276.9458,283.3424)" d="M0 0-14.342-8.357 0-16.714Z" fill="#f43040"/>
<path transform="matrix(1,0,0,-1,0,595.276)" d="M277.419 308.78H313.668V298.05799H277.419Z" fill="#ffffff"/>
<g clip-path="url(#clip_6)">
<path transform="matrix(1,0,0,-1,280.2865,290.7505)" d="M0 0C-.217-.434-.414-.789-.591-1.064-.709-.927-.867-.789-1.064-.65-.827-.375-.557 .069-.251 .68 .054 1.291 .285 1.912 .443 2.543 .581 2.464 .817 2.365 1.152 2.247 .975 2.089 .768 1.656 .532 .946V-3.223C.532-3.696 .542-4.09 .561-4.405H-.03C-.01-4.149 0-3.735 0-3.163ZM2.216 2.395H2.837C2.797 2.316 2.778 2.01 2.778 1.478H3.901C3.901 1.951 3.89 2.266 3.871 2.424H4.492C4.452 2.207 4.433 1.892 4.433 1.478 4.905 1.478 5.279 1.488 5.555 1.508V.946C5.26 .965 4.885 .976 4.433 .976V.03H4.846C5.181 .03 5.496 .039 5.792 .059V-.503C5.516-.483 5.191-.473 4.817-.473H1.832C1.537-.473 1.251-.483 .975-.503V.059C1.212 .039 1.497 .03 1.832 .03H2.246V.976C1.832 .976 1.526 .965 1.33 .946V1.508C1.507 1.488 1.812 1.478 2.246 1.478 2.246 1.872 2.236 2.178 2.216 2.395M5.083-2.661C5.083-3.41 5.092-3.942 5.112-4.257H4.58V-3.873H2.128V-4.287H1.596C1.615-4.011 1.625-3.509 1.625-2.779 1.625-2.05 1.615-1.478 1.596-1.064H5.112C5.092-1.36 5.083-1.892 5.083-2.661M4.58-1.567H2.1269999V-2.247H4.58ZM4.58-2.75H2.1269999V-3.371H4.58ZM3.901 .976H2.7779999V.030000031H3.901ZM3.901 .03" fill="#2c292a"/>
<path transform="matrix(1,0,0,-1,289.4915,294.0323)" d="M0 0C-.266-.059-.532-.123-.798-.192-1.064-.261-1.34-.34-1.625-.429-1.911-.517-2.182-.611-2.438-.71-2.478-.532-2.546-.296-2.645 0-2.428 .039-2.231 .079-2.054 .118V3.932C-2.054 4.346-2.064 4.75-2.083 5.144H.369C.349 4.79 .34 4.395 .34 3.962V.562C.418 .581 .547 .611 .724 .65V.148C.507 .108 .266 .059 0 0M-.251 4.671H-1.4920001V3.5479999H-.251ZM-.251 3.104H-1.4920001V1.9210001H-.251ZM-.857 .325C-.67 .364-.468 .404-.251 .443V1.449H-1.492V.207C-1.256 .246-1.044 .285-.857 .325M1.078 .281C1.275 .625 1.418 .985 1.507 1.36 1.596 1.734 1.659 2.118 1.699 2.513 1.738 2.907 1.758 3.282 1.758 3.637 1.423 3.637 1.118 3.626 .842 3.607V4.139C1.098 4.119 1.404 4.11 1.758 4.11V4.79C1.758 5.006 1.748 5.302 1.729 5.676 1.945 5.657 2.202 5.647 2.497 5.647 2.438 5.391 2.403 5.134 2.394 4.878 2.383 4.622 2.379 4.365 2.379 4.11H4.034C3.974 3.794 3.945 3.41 3.945 2.957L3.768-.059C3.748-.433 3.62-.655 3.383-.724 3.147-.793 2.841-.847 2.467-.887 2.428-.631 2.359-.394 2.26-.177 2.635-.177 2.891-.173 3.029-.163 3.166-.153 3.236 .039 3.236 .414L3.383 3.637H2.379C2.339 2.809 2.27 2.138 2.172 1.626 2.073 1.113 1.95 .71 1.803 .414 1.655 .118 1.507-.143 1.359-.37 1.212-.596 1.039-.818 .842-1.035 .684-.877 .468-.749 .192-.65 .586-.375 .881-.064 1.078 .281" fill="#2c292a"/>
<path transform="matrix(1,0,0,-1,296.3768,289.1836)" d="M0 0C-.069-.177-.143-.355-.222-.532H1.611C1.512-1.242 1.379-1.843 1.212-2.336 1.044-2.829 .837-3.262 .591-3.637 .344-4.011 .054-4.371-.281-4.716-.616-5.061-1.02-5.381-1.492-5.676-1.63-5.459-1.808-5.312-2.024-5.233-1.571-5.036-1.148-4.755-.754-4.39-.36-4.026-.074-3.676 .103-3.341-.153-3.065-.488-2.779-.901-2.483-.764-2.365-.635-2.228-.517-2.07-.123-2.385 .182-2.631 .399-2.809 .536-2.533 .645-2.247 .724-1.951 .802-1.656 .872-1.35 .931-1.035H-.399C-.517-1.291-.67-1.577-.857-1.892-1.044-2.208-1.285-2.523-1.581-2.838-1.68-2.701-1.827-2.562-2.024-2.424-1.69-2.109-1.429-1.789-1.241-1.463-1.054-1.138-.901-.808-.783-.473-.665-.138-.547 .276-.429 .769-.212 .67 .024 .591 .281 .532 .162 .355 .069 .177 0 0M2.704-.118V-4.671C2.704-5.046 2.714-5.43 2.733-5.824H2.083C2.103-5.43 2.113-5.046 2.113-4.671V-.118C2.113 .197 2.103 .512 2.083 .828H2.733C2.714 .512 2.704 .197 2.704-.118M4.048-2.055C4.393-2.459 4.684-2.838 4.92-3.193 4.723-3.311 4.555-3.44 4.418-3.577 4.24-3.262 3.994-2.908 3.679-2.513 3.364-2.119 3.078-1.784 2.822-1.508 2.94-1.39 3.088-1.271 3.265-1.153 3.443-1.35 3.703-1.651 4.048-2.055" fill="#2c292a"/>
<path transform="matrix(1,0,0,-1,305.5521,290.5436)" d="M0 0C-.059-.69-.148-1.242-.266-1.656-.384-2.07-.547-2.449-.754-2.794-.96-3.139-1.231-3.464-1.566-3.77-1.901-4.075-2.305-4.376-2.778-4.671-2.877-4.513-3.073-4.346-3.369-4.169-2.896-3.932-2.502-3.686-2.187-3.43-1.872-3.174-1.601-2.883-1.374-2.557-1.148-2.232-.98-1.863-.872-1.449-.764-1.035-.69-.552-.65 0H-1.507C-2.079 0-2.6-.01-3.073-.03V.562C-2.6 .542-2.079 .532-1.507 .532H-.621V1.419C-.621 1.695-.631 1.981-.65 2.276-.434 2.237-.188 2.207 .089 2.188 .049 2.01 .024 1.754 .015 1.419 .005 1.084 0 .788 0 .532H3.014C2.935-.532 2.886-1.267 2.866-1.67 2.847-2.075 2.807-2.568 2.748-3.149 2.689-3.73 2.527-4.09 2.26-4.228 1.995-4.365 1.537-4.464 .886-4.523 .867-4.287 .768-4.031 .591-3.755 1.162-3.775 1.546-3.745 1.743-3.666 1.94-3.588 2.054-3.44 2.083-3.223 2.113-3.006 2.142-2.725 2.172-2.38 2.202-2.035 2.246-1.242 2.305 0Z" fill="#2c292a"/>
<path transform="matrix(1,0,0,-1,195.3115,236.9238)" d="M0 0V3.311C-.605 3.311-1.051 3.298-1.34 3.272V4.021C-1.051 3.994-.736 3.981-.394 3.981H.827C.801 3.508 .788 3.061 .788 2.641V.315C.998 .525 1.405 .972 2.009 1.656 2.114 1.419 2.259 1.183 2.443 .946 2.049 .552 1.668 .158 1.3-.237 .932-.631 .63-.985 .394-1.301 .131-1.038-.092-.828-.276-.67-.092-.46 0-.237 0 0M-.276 6.425C-.039 6.583 .144 6.767 .276 6.977 .696 6.635 1.195 6.136 1.773 5.479 1.51 5.322 1.3 5.138 1.143 4.927 .722 5.505 .249 6.005-.276 6.425M5.418-.118C5.037 .538 4.715 1.393 4.452 2.444 4.163 1.287 3.749 .348 3.211-.374 2.672-1.097 2.167-1.656 1.694-2.05 1.589-1.866 1.34-1.682 .946-1.498 1.523-1.104 2.042-.598 2.502 .02 2.961 .637 3.303 1.255 3.526 1.872 3.749 2.49 3.881 3.107 3.92 3.725 3.96 4.342 3.979 4.888 3.979 5.361 3.979 5.834 3.966 6.386 3.94 7.017 4.255 6.99 4.596 6.977 4.964 6.977 4.886 6.872 4.833 6.583 4.807 6.11 4.78 5.637 4.793 5.039 4.846 4.316 4.899 3.593 5.03 2.904 5.24 2.247 5.45 1.59 5.753 .933 6.146 .276 6.54-.381 7.105-.933 7.841-1.38 7.42-1.537 7.157-1.747 7.053-2.01 6.344-1.406 5.798-.775 5.418-.118" fill="#2c292a"/>
<path transform="matrix(1,0,0,-1,205.2603,237.3771)" d="M0 0C.276 .407 .505 .828 .689 1.261 .873 1.695 .991 2.122 1.044 2.543 .072 2.543-.624 2.529-1.044 2.503V3.252C-.65 3.226 .085 3.213 1.162 3.213 1.241 3.765 1.28 4.435 1.28 5.223H.374C.243 4.855 .045 4.421-.217 3.922-.506 4.001-.768 4.066-1.005 4.119-.821 4.382-.637 4.73-.453 5.164-.27 5.598-.118 6.018 0 6.425 .118 6.833 .203 7.194 .256 7.509 .518 7.431 .821 7.365 1.162 7.312 1.03 7.128 .926 6.918 .847 6.682 .768 6.445 .676 6.182 .571 5.893 2.068 5.893 3.001 5.906 3.369 5.933V5.223H2.029C2.029 4.645 2.003 3.975 1.95 3.213 2.581 3.213 3.132 3.226 3.605 3.252V2.503C3.132 2.529 2.541 2.543 1.832 2.543 1.806 2.253 1.753 1.977 1.674 1.715 1.911 1.531 2.173 1.327 2.462 1.104 2.751 .88 3.119 .506 3.566-.02 3.382-.099 3.172-.283 2.935-.572 2.699-.177 2.456 .144 2.206 .394 1.956 .644 1.7 .873 1.438 1.084 1.28 .663 1.037 .217 .709-.256 .38-.729 .045-1.149-.296-1.518-.427-1.36-.637-1.202-.926-1.045-.585-.755-.276-.408 0 0M7.585 4.829V.729C7.585 .23 7.597-.283 7.624-.808H6.797V.256H4.708V-.966H3.881C3.907-.467 3.92 .059 3.92 .611V4.829C3.92 5.249 3.907 5.722 3.881 6.248H7.624C7.597 5.722 7.585 5.249 7.585 4.829M6.797 5.617H4.7089998V.8870001H6.797ZM6.797 .887" fill="#2c292a"/>
<path transform="matrix(1,0,0,-1,217.8094,231.20789)" d="M0 0C0-.684-.014-1.459-.039-2.326H2.285V-.039C2.285 .486 2.272 .92 2.246 1.261H3.152C3.126 .92 3.113 .486 3.113-.039V-2.326C4.216-2.326 5.03-2.313 5.555-2.286V-3.075C5.083-3.049 4.268-3.035 3.113-3.035V-6.071C3.113-6.491 3.126-6.99 3.152-7.569H2.246C2.272-7.017 2.285-6.518 2.285-6.071V-3.035H-.039C-.118-3.956-.421-4.777-.946-5.499-1.471-6.222-2.181-6.885-3.073-7.49-3.205-7.253-3.454-7.043-3.822-6.859-3.218-6.597-2.594-6.104-1.95-5.381-1.307-4.658-.959-3.877-.906-3.035H-2.797C-3.113-3.035-3.454-3.049-3.822-3.075V-2.286C-3.454-2.313-3.113-2.326-2.797-2.326H-.867C-.841-1.8-.828-1.104-.828-.237-1.747-.473-2.364-.644-2.679-.749-2.785-.46-2.969-.211-3.231 0-2.758 .052-2.122 .197-1.32 .434-.519 .67 .17 .959 .749 1.301L1.497 .473C1.155 .42 .656 .262 0 0" fill="#2c292a"/>
<path transform="matrix(1,0,0,-1,226.103,231.3458)" d="M0 0C-.25-.46-.571-.966-.965-1.518L.414-1.439C.676-1.019 .887-.585 1.044-.138 1.175-.243 1.412-.401 1.753-.611 1.596-.874 1.359-1.255 1.044-1.754 .729-2.254 .217-2.976-.492-3.922 .295-3.818 .926-3.725 1.399-3.646 1.32-3.962 1.281-4.198 1.281-4.356 1.018-4.382 .617-4.435 .079-4.514-.46-4.592-.979-4.698-1.477-4.829-1.556-4.567-1.649-4.33-1.753-4.119-1.517-3.988-1.241-3.758-.926-3.43-.611-3.101-.283-2.648 .059-2.07-.23-2.096-.512-2.122-.788-2.148-1.064-2.175-1.333-2.241-1.596-2.345-1.674-2.109-1.78-1.833-1.911-1.518-1.57-1.308-1.235-.901-.906-.296-.578 .309-.335 .887-.177 1.439 .006 1.307 .269 1.163 .611 1.005 .453 .795 .249 .46 0 0M1.281-5.775C.755-5.907 .282-6.031-.138-6.15-.558-6.268-1.018-6.406-1.517-6.563-1.596-6.301-1.714-6.051-1.872-5.814-1.504-5.736-1.09-5.651-.63-5.558-.171-5.466 .493-5.302 1.359-5.065 1.281-5.328 1.254-5.565 1.281-5.775M6.048 .848C5.812-.02 5.575-.953 5.339-1.951H6.718C6.586-2.635 6.422-3.279 6.225-3.883 6.028-4.488 5.733-5.105 5.339-5.736 5.601-5.999 5.897-6.242 6.225-6.465 6.553-6.688 6.915-6.879 7.309-7.036 7.02-7.273 6.836-7.51 6.757-7.746 6.1-7.378 5.47-6.879 4.866-6.248 4.682-6.432 4.399-6.662 4.019-6.938 3.638-7.214 3.145-7.483 2.541-7.746 2.41-7.535 2.226-7.352 1.99-7.194 2.541-7.01 3.014-6.786 3.408-6.524 3.802-6.262 4.143-5.986 4.433-5.696 4.117-5.328 3.684-4.619 3.132-3.568 3.054-4.146 2.857-4.75 2.541-5.381 2.252-6.038 1.727-6.708 .965-7.391 .808-7.259 .584-7.115 .295-6.958 .821-6.59 1.254-6.15 1.596-5.637 1.937-5.125 2.18-4.573 2.325-3.981 2.469-3.39 2.554-2.746 2.581-2.05 2.607-1.354 2.62-.598 2.62 .217 2.331 .217 1.99 .203 1.596 .177V.887C2.069 .86 2.699 .848 3.487 .848ZM3.251-2.267C3.434-2.74 3.71-3.279 4.078-3.883 4.446-4.514 4.708-4.921 4.866-5.105 5.312-4.422 5.64-3.581 5.851-2.582H4.433C4.695-1.715 4.918-.782 5.102 .217H3.29C3.29-.414 3.276-1.058 3.251-1.715Z" fill="#2c292a"/>
<path transform="matrix(1,0,0,-1,184.2535,241.06162)" d="M0 0C-.02-.454-.029-.907-.029-1.36-.029-1.814-.02-2.237 0-2.631H-1.743V-4.937C-1.015-4.543-.473-4.208-.118-3.932-.079-4.169-.02-4.356 .059-4.494-.315-4.711-.68-4.928-1.034-5.144-1.389-5.361-1.754-5.597-2.128-5.854-2.246-5.676-2.384-5.509-2.541-5.351-2.364-5.194-2.286-4.987-2.305-4.73V-3.104C-2.305-2.829-2.315-2.513-2.334-2.158H-.561V-.473H-1.537C-1.872-.473-2.216-.483-2.571-.503V.03C-2.216 .01-1.872 0-1.537 0ZM3.236-5.026C3.62-5.282 3.95-5.459 4.226-5.558 4.088-5.657 3.93-5.844 3.753-6.12 3.497-5.962 3.226-5.775 2.94-5.558 2.654-5.341 2.334-5.056 1.98-4.701 1.645-5.016 1.295-5.282 .931-5.499 .566-5.716 .157-5.923-.296-6.12-.374-5.943-.512-5.765-.709-5.588-.296-5.47 .133-5.292 .576-5.056 1.02-4.819 1.389-4.534 1.684-4.198 1.527-3.962 1.359-3.676 1.182-3.341 1.005-3.006 .837-2.681 .68-2.365L.532-2.572C.335-2.434 .177-2.326 .059-2.247 .256-2.01 .488-1.631 .754-1.109 1.02-.587 1.241 .03 1.418 .739 1.655 .621 1.871 .552 2.069 .532 1.95 .335 1.842 .113 1.743-.133 1.645-.38 1.546-.621 1.448-.857H2.926C3.339-.857 3.684-.848 3.96-.828V-1.36C3.763-1.341 3.506-1.33 3.191-1.33 3.073-2.533 2.797-3.509 2.364-4.257 2.561-4.514 2.852-4.77 3.236-5.026M1.152-2.07C1.29-2.405 1.438-2.725 1.596-3.03 1.753-3.336 1.901-3.588 2.039-3.784 2.354-3.193 2.551-2.375 2.63-1.33H1.271C1.093-1.646 .906-1.961 .709-2.276 .887-2.217 1.034-2.149 1.152-2.07" fill="#2c292a"/>
<path transform="matrix(1,0,0,-1,190.4296,242.806)" d="M0 0C-.217-.276-.453-.562-.709-.857-.906-.72-1.084-.601-1.241-.503-.768-.069-.404 .414-.148 .946 .03 .808 .236 .68 .473 .562 .374 .463 .217 .276 0 0M4.462-1.242C4.265-1.537 4.004-1.868 3.679-2.232 3.354-2.597 3.014-2.897 2.66-3.134 2.856-3.252 3.221-3.366 3.753-3.474 4.285-3.582 4.836-3.646 5.408-3.666 5.171-3.922 5.033-4.139 4.994-4.316 4.363-4.237 3.797-4.114 3.295-3.947 2.793-3.779 2.403-3.607 2.128-3.43 1.792-3.626 1.369-3.804 .857-3.962 .344-4.119-.227-4.257-.857-4.376-.936-4.178-1.054-3.981-1.212-3.784-.778-3.764-.271-3.691 .31-3.563 .891-3.435 1.34-3.292 1.655-3.134 1.221-2.819 .768-2.346 .296-1.715 .039-1.715-.227-1.725-.502-1.744V-1.212C-.148-1.232 .276-1.242 .768-1.242ZM2.512 1.715H3.842C4.413 1.715 4.925 1.724 5.378 1.744V1.183C4.905 1.202 4.413 1.212 3.901 1.212H3.191V-.089C3.191-.404 3.201-.72 3.221-1.035H2.571C2.59-.72 2.6-.404 2.6-.089V1.212H1.566V-.089C1.566-.306 1.576-.621 1.596-1.035H.946C.965-.621 .975-.306 .975-.089V1.212H.325C-.247 1.212-.749 1.202-1.182 1.183V1.744C-.768 1.724-.266 1.715 .325 1.715H1.832C1.792 1.872 1.684 2.129 1.507 2.483 1.704 2.503 1.911 2.562 2.128 2.661 2.265 2.365 2.394 2.05 2.512 1.715M2.157-2.868C2.63-2.553 3.034-2.168 3.369-1.715H.916C1.271-2.188 1.684-2.572 2.157-2.868M5.349-.414C5.191-.532 5.013-.68 4.817-.857 4.482-.463 4.068-.03 3.576 .443 3.753 .581 3.91 .719 4.048 .857 4.462 .483 4.895 .059 5.349-.414" fill="#2c292a"/>
<path transform="matrix(1,0,0,-1,198.5264,240.6477)" d="M0 0C.197 0 .423 .01 .68 .03V-.503C.423-.483 .197-.473 0-.473H-.207V-1.892C.069-1.892 .374-1.882 .709-1.863V-2.395C.355-2.375 .049-2.365-.207-2.365V-4.05C-.03-4.011 .266-3.893 .68-3.696 .68-3.854 .689-4.041 .709-4.257 .118-4.474-.33-4.632-.635-4.73-.941-4.829-1.271-4.957-1.625-5.115-1.704-4.918-1.803-4.711-1.921-4.494-1.783-4.494-1.389-4.405-.739-4.228V-2.365C-1.074-2.365-1.389-2.385-1.684-2.424V-1.863C-1.389-1.882-1.074-1.892-.739-1.892V-.473H-1.005C-1.261-.473-1.517-.483-1.773-.503V.03C-1.517 .01-1.271 0-1.034 0ZM3.901 0C4.196 0 4.531 .01 4.905 .03V-.532C4.57-.513 4.235-.503 3.901-.503H3.339C3.162-1.134 3.044-1.567 2.984-1.803V-5.41C2.984-5.804 2.994-6.159 3.014-6.475H2.393C2.413-6.179 2.423-5.824 2.423-5.41V-3.045C2.009-3.854 1.507-4.534 .916-5.085 .798-4.967 .621-4.839 .384-4.701 .66-4.504 .921-4.253 1.167-3.947 1.413-3.642 1.655-3.282 1.891-2.868 2.128-2.454 2.3-2.07 2.408-1.715 2.516-1.36 2.62-.956 2.719-.503H1.891C1.576-.503 1.251-.513 .916-.532V.03C1.251 .01 1.576 0 1.891 0ZM5.083-4.05C4.886-4.169 4.699-4.287 4.521-4.405 4.226-3.873 3.994-3.479 3.827-3.223 3.659-2.967 3.457-2.69 3.221-2.395 3.398-2.296 3.556-2.178 3.694-2.04 4.304-2.868 4.767-3.538 5.083-4.05" fill="#2c292a"/>
<path transform="matrix(1,0,0,-1,205.2934,245.57032)" d="M0 0C-.374-.148-.67-.291-.887-.429-.985-.173-1.064 .044-1.123 .222-.946 .241-.793 .271-.665 .31-.537 .35-.414 .389-.296 .429V2.912C-.493 2.912-.729 2.892-1.005 2.853V3.385C-.729 3.365-.493 3.356-.296 3.356V4.42C-.296 4.617-.306 4.853-.325 5.13H.237C.217 4.834 .207 4.597 .207 4.42V3.356C.364 3.356 .581 3.365 .857 3.385V2.853C.581 2.892 .364 2.912 .207 2.912V.606C.502 .704 .768 .803 1.005 .902 1.024 .764 1.054 .596 1.093 .399 .739 .281 .374 .148 0 0M4.846-.99C4.984-.99 5.073-.917 5.112-.769 5.152-.621 5.191-.468 5.231-.31 5.408-.468 5.615-.567 5.851-.606 5.693-1.138 5.531-1.419 5.363-1.449 5.196-1.478 5.053-1.493 4.935-1.493H4.078C3.625-1.493 3.408-1.276 3.428-.843V.34H2.837C2.758-.173 2.536-.577 2.172-.872 1.807-1.168 1.3-1.414 .65-1.611 .591-1.414 .483-1.217 .325-1.02 1.034-.921 1.527-.749 1.803-.503 2.078-.256 2.246 .024 2.305 .34H1.389C1.408 .754 1.418 1.128 1.418 1.463 1.418 1.818 1.408 2.173 1.389 2.528H5.083C5.063 2.232 5.053 1.897 5.053 1.523 5.053 1.148 5.063 .754 5.083 .34H3.989V-.606C3.97-.882 4.068-1.01 4.285-.99ZM2.837 3.592C2.679 3.513 2.521 3.434 2.364 3.356H3.605C3.684 3.572 3.763 3.878 3.842 4.272H2.275C1.842 4.272 1.487 4.262 1.212 4.243V4.745C1.467 4.725 1.822 4.716 2.275 4.716H3.044C3.024 4.932 2.974 5.139 2.896 5.336 3.053 5.356 3.27 5.396 3.546 5.455 3.605 5.178 3.654 4.932 3.694 4.716H4.344C4.699 4.716 5.033 4.725 5.349 4.745V4.243C5.033 4.262 4.708 4.272 4.373 4.272H3.901C4.078 4.193 4.275 4.104 4.492 4.006 4.354 3.829 4.235 3.612 4.137 3.356H4.758C5.073 3.356 5.378 3.365 5.674 3.385V2.853C5.378 2.892 5.073 2.912 4.758 2.912H2.069C1.714 2.912 1.389 2.892 1.093 2.853V3.385C1.389 3.365 1.704 3.356 2.039 3.356H2.305C2.226 3.612 2.128 3.809 2.009 3.947 2.167 4.025 2.324 4.114 2.482 4.213 2.581 4.055 2.699 3.848 2.837 3.592M4.551 2.114H1.98V1.641H4.551ZM4.551 1.227H1.98V.754H4.551ZM4.551 .754" fill="#2c292a"/>
</g>
<path transform="matrix(1,0,0,-1,215.4799,246.3833)" d="M0 0H-1.027L1.34 2.369H-3.402V3.101H1.34L-1.027 5.47H0L2.733 2.735Z" fill="#2c292a"/>
<g clip-path="url(#clip_7)">
<path transform="matrix(1,0,0,-1,220.2351,245.659)" d="M0 0C-.158-.207-.384-.498-.68-.872-.818-.734-.965-.616-1.123-.517-.709-.064-.384 .409-.148 .902 .049 .744 .236 .616 .414 .517 .296 .379 .157 .207 0 0M1.655 2.883C1.989 2.883 2.334 2.892 2.689 2.912V2.321C2.354 2.34 1.852 2.35 1.182 2.35V1.611C1.792 1.611 2.275 1.621 2.63 1.641V1.05C2.275 1.069 1.792 1.079 1.182 1.079V-.724C1.182-1.02 1.088-1.217 .901-1.316 .714-1.414 .473-1.463 .177-1.463 .098-1.227 0-1.01-.118-.813 .157-.832 .349-.832 .458-.813 .566-.793 .621-.705 .621-.547V1.079C-.01 1.079-.502 1.069-.857 1.05V1.641C-.483 1.621 .01 1.611 .621 1.611V2.35C-.109 2.35-.65 2.34-1.005 2.321V2.912C-.65 2.892-.315 2.883 0 2.883H1.123C1.28 3.356 1.398 3.72 1.477 3.976 1.635 3.937 1.852 3.878 2.128 3.799 1.989 3.72 1.832 3.415 1.655 2.883M1.3 4.656C1.753 4.656 2.177 4.666 2.571 4.686V4.095C2.157 4.114 1.822 4.124 1.566 4.124H.148C-.188 4.124-.513 4.114-.828 4.095V4.686C-.493 4.666-.168 4.656 .148 4.656H.68C.64 4.873 .581 5.1 .502 5.336 .699 5.396 .906 5.455 1.123 5.514 1.221 5.1 1.28 4.814 1.3 4.656M.473 3.119C.296 3.079 .128 3.02-.03 2.942-.128 3.237-.237 3.503-.355 3.74-.217 3.818-.059 3.888 .118 3.947 .256 3.671 .374 3.395 .473 3.119M2.482-.163C2.285-.262 2.128-.389 2.009-.547 1.852-.192 1.645 .152 1.389 .488 1.526 .606 1.674 .714 1.832 .813 2.068 .497 2.285 .172 2.482-.163M3.664 4.597V3.09H5.201C5.417 3.09 5.644 3.099 5.88 3.119V2.557C5.604 2.577 5.368 2.587 5.171 2.587V-.458C5.171-.793 5.181-1.148 5.201-1.523H4.58C4.6-1.148 4.61-.803 4.61-.488V2.587H3.664C3.664 2.094 3.644 1.621 3.605 1.168 3.565 .714 3.482 .266 3.354-.177 3.225-.621 3.033-1.079 2.778-1.552 2.58-1.434 2.383-1.335 2.187-1.257 2.502-.803 2.723-.325 2.851 .177 2.979 .68 3.053 1.118 3.073 1.493 3.093 1.867 3.103 2.429 3.103 3.178 3.103 3.947 3.093 4.558 3.073 5.011 3.96 5.051 4.758 5.189 5.467 5.425 5.624 5.11 5.752 4.893 5.851 4.775 5.555 4.775 4.826 4.716 3.664 4.597" fill="#2c292a"/>
<path transform="matrix(1,0,0,-1,227.8,245.58512)" d="M0 0V2.483C-.453 2.483-.788 2.473-1.005 2.454V3.016C-.788 2.996-.552 2.986-.296 2.986H.621C.601 2.631 .591 2.296 .591 1.981V.237C.748 .394 1.054 .729 1.507 1.242 1.585 1.064 1.694 .887 1.832 .71 1.537 .414 1.251 .118 .975-.177 .699-.473 .473-.739 .296-.976 .098-.779-.069-.621-.207-.503-.069-.345 0-.177 0 0M-.207 4.819C-.03 4.937 .108 5.075 .207 5.233 .522 4.977 .896 4.602 1.33 4.11 1.133 3.991 .975 3.853 .857 3.696 .542 4.129 .187 4.504-.207 4.819M4.063-.089C3.777 .404 3.536 1.044 3.339 1.833 3.122 .965 2.812 .261 2.408-.281 2.004-.823 1.625-1.242 1.271-1.537 1.192-1.399 1.005-1.261 .709-1.123 1.142-.828 1.532-.449 1.876 .015 2.221 .478 2.477 .941 2.645 1.404 2.812 1.867 2.911 2.331 2.94 2.794 2.97 3.257 2.985 3.666 2.985 4.021 2.985 4.376 2.974 4.79 2.955 5.263 3.191 5.243 3.447 5.233 3.723 5.233 3.664 5.154 3.624 4.937 3.605 4.583 3.585 4.228 3.595 3.779 3.635 3.237 3.674 2.695 3.772 2.178 3.93 1.685 4.088 1.192 4.314 .699 4.61 .207 4.905-.286 5.329-.7 5.88-1.035 5.565-1.153 5.368-1.311 5.29-1.508 4.758-1.054 4.349-.582 4.063-.089" fill="#2c292a"/>
<path transform="matrix(1,0,0,-1,235.2615,245.92499)" d="M0 0C.207 .305 .379 .621 .517 .946 .655 1.271 .743 1.591 .783 1.907 .054 1.907-.468 1.897-.783 1.877V2.439C-.488 2.419 .064 2.41 .872 2.41 .931 2.823 .96 3.326 .96 3.917H.281C.182 3.641 .034 3.316-.163 2.942-.38 3.001-.576 3.05-.754 3.09-.616 3.286-.478 3.548-.34 3.873-.202 4.198-.089 4.513 0 4.819 .089 5.124 .152 5.396 .192 5.632 .389 5.573 .615 5.524 .872 5.484 .773 5.346 .694 5.189 .635 5.011 .576 4.834 .507 4.637 .429 4.42 1.551 4.42 2.25 4.43 2.527 4.45V3.917H1.522C1.522 3.484 1.502 2.981 1.463 2.41 1.936 2.41 2.349 2.419 2.704 2.439V1.877C2.349 1.897 1.906 1.907 1.374 1.907 1.354 1.69 1.315 1.483 1.256 1.286 1.433 1.148 1.63 .995 1.847 .828 2.063 .66 2.339 .379 2.674-.015 2.536-.074 2.379-.212 2.202-.429 2.024-.133 1.842 .108 1.655 .296 1.467 .483 1.275 .655 1.079 .813 .96 .497 .778 .163 .532-.192 .285-.547 .034-.862-.222-1.138-.32-1.02-.478-.902-.694-.784-.439-.566-.207-.306 0 0M5.689 3.622V.547C5.689 .172 5.698-.212 5.718-.606H5.098V.192H3.531V-.724H2.911C2.93-.35 2.94 .044 2.94 .458V3.622C2.94 3.937 2.93 4.292 2.911 4.686H5.718C5.698 4.292 5.689 3.937 5.689 3.622M5.098 4.213H3.532V.6649997H5.098ZM5.098 .665" fill="#2c292a"/>
<path transform="matrix(1,0,0,-1,180.881,342.4215)" d="M0 0H3.871C3.871-.237 3.861-.572 3.842-1.005L3.753-3.577C3.733-3.893 3.62-4.105 3.413-4.213 3.206-4.322 2.847-4.405 2.334-4.464 2.275-4.208 2.187-3.991 2.069-3.814 2.6-3.794 2.911-3.765 2.999-3.725 3.088-3.686 3.152-3.518 3.191-3.223 3.231-2.336 3.251-1.419 3.251-.473H-.295C-.493-.769-.709-1.074-.946-1.39H2.157C2.137-1.646 2.128-2.001 2.128-2.454 2.128-2.908 2.137-3.262 2.157-3.518H-.443V-4.642C-.443-4.977-.266-5.154 .089-5.174 1.231-5.252 2.305-5.263 3.31-5.203 3.546-5.164 3.713-5.09 3.812-4.982 3.91-4.874 4.009-4.593 4.108-4.139 4.285-4.297 4.511-4.395 4.787-4.435 4.61-5.026 4.447-5.381 4.3-5.499 4.152-5.617 3.881-5.676 3.487-5.676 2.246-5.736 1.054-5.736-.089-5.676-.719-5.676-1.034-5.381-1.034-4.79V-1.478C-1.172-1.636-1.418-1.873-1.773-2.188-1.911-2.03-2.079-1.892-2.275-1.774-1.763-1.36-1.345-.922-1.02-.458-.694 .005-.424 .512-.207 1.064 .049 .906 .285 .798 .502 .739 .364 .621 .197 .374 0 0M1.537-1.892H-.44300009V-3.0149999H1.537ZM1.537-3.016" fill="#2c292a"/>
<path transform="matrix(1,0,0,-1,189.8939,344.4024)" d="M0 0C.532-.454 1.059-.798 1.581-1.035 2.103-1.271 2.66-1.439 3.251-1.537 3.073-1.676 2.955-1.863 2.896-2.099 2.521-2.001 2.147-1.873 1.773-1.715 1.773-2.878 1.783-3.607 1.803-3.903H1.241V-3.489H-1.537V-3.991H-2.098C-2.079-3.735-2.069-2.976-2.069-1.715-2.443-1.892-2.857-2.07-3.31-2.247-3.389-2.089-3.517-1.922-3.694-1.744-2.827-1.548-2.074-1.197-1.433-.695-.793-.192-.404 .256-.266 .65-.069 .532 .118 .433 .296 .355ZM2.837 1.922C2.817 1.744 2.807 1.557 2.807 1.36 2.807 1.163 2.817 .976 2.837 .798H2.246V1.508H-2.541V.769H-3.132C-3.113 .985-3.103 1.183-3.103 1.36-3.103 1.557-3.113 1.744-3.132 1.922ZM-1.212 1.153C-1.152 1.054-1.025 .906-.827 .71-1.556 .217-2.167-.138-2.66-.355-2.758-.197-2.886-.059-3.044 .059-2.177 .414-1.566 .778-1.212 1.153M1.507-1.567C.916-1.33 .315-.927-.296-.355-.749-.808-1.281-1.212-1.891-1.567ZM1.241-2.01H-1.5370001V-3.045H1.241ZM-.266 3.045C-.049 2.769 .128 2.493 .266 2.217-.01 2.119-.207 2.03-.325 1.951-.345 2.03-.513 2.286-.827 2.72-.67 2.799-.483 2.907-.266 3.045M2.6 .148C2.462-.01 2.344-.168 2.246-.325 1.576 .128 .975 .492 .443 .769 .601 .926 .709 1.064 .768 1.183 1.694 .67 2.305 .325 2.6 .148" fill="#2c292a"/>
<path transform="matrix(1,0,0,-1,196.1881,343.2198)" d="M0 0V-2.543C0-2.917 .01-3.233 .03-3.489H-.532V-3.134H-1.478V-4.169H-2.039C-2.02-3.794-2.009-3.4-2.009-2.986V0C-2.009 .394-2.02 .788-2.039 1.183H.03C.01 .788 0 .394 0 0M-.532 .71H-1.4779999V-2.631H-.532ZM3.694 1.39C3.635 1.192 3.457 .581 3.162-.443H4.108C3.95-1.291 3.797-1.922 3.649-2.336 3.502-2.75 3.319-3.183 3.103-3.637 3.536-4.11 4.038-4.425 4.61-4.583 4.472-4.681 4.314-4.868 4.137-5.144 3.684-4.947 3.221-4.583 2.748-4.05 2.196-4.583 1.684-4.957 1.212-5.174 1.152-5.036 .995-4.898 .739-4.76 1.408-4.464 1.95-4.09 2.364-3.637 1.852-2.868 1.517-2.129 1.359-1.419 1.28-2.306 1.088-3.035 .783-3.607 .477-4.179 .078-4.711-.414-5.203-.513-5.065-.68-4.947-.916-4.849-.266-4.376 .211-3.73 .517-2.912 .822-2.094 .955-.818 .916 .917 .778 .917 .601 .906 .384 .887V1.419C.68 1.399 1.014 1.39 1.389 1.39ZM2.719-3.163C3.053-2.533 3.299-1.794 3.457-.946H2.482C2.719-.118 2.866 .492 2.925 .887H1.448V-.059C1.783-1.4 2.206-2.434 2.719-3.163" fill="#2c292a"/>
<path transform="matrix(1,0,0,-1,204.1962,341.8598)" d="M0 0C.335 0 .621 .01 .857 .03V-.473C.699-.454 .542-.443 .384-.443V-4.435C.601-4.376 .847-4.307 1.123-4.228V-4.73C.867-4.79 .621-4.849 .384-4.908 .384-5.676 .394-6.238 .414-6.593H-.177C-.158-6.297-.148-5.775-.148-5.026-.621-5.125-1.054-5.243-1.448-5.381-1.842-5.519-2.177-5.657-2.453-5.795L-2.689-5.115-2.039-4.996V-.443C-2.197-.443-2.394-.454-2.63-.473V.03C-2.374 .01-2.029 0-1.596 0ZM-.148-.443H-1.507V-1.685H-.148ZM-.148-2.129H-1.507V-3.164H-.148ZM-.148-4.583V-3.636H-1.507V-4.878C-1.034-4.78-.581-4.681-.148-4.583M1.315-5.336C1.522-5.11 1.753-4.8 2.01-4.405 1.714-3.854 1.522-3.292 1.433-2.72 1.345-2.149 1.28-1.488 1.241-.739H1.005V-.237C1.399-.256 1.753-.266 2.068-.266H3.723C3.644-1.232 3.531-2.03 3.384-2.661 3.236-3.292 3.004-3.873 2.689-4.405 2.847-4.681 3.058-4.937 3.324-5.174 3.59-5.41 3.881-5.617 4.196-5.795 3.999-5.932 3.831-6.1 3.694-6.297 3.28-6.021 2.837-5.558 2.364-4.908 2.01-5.48 1.605-5.962 1.152-6.356 1.034-6.198 .857-6.051 .621-5.913 .876-5.755 1.108-5.563 1.315-5.336M1.936-2.513C1.985-2.908 2.117-3.361 2.335-3.873 2.649-3.223 2.852-2.617 2.94-2.055 3.029-1.493 3.083-1.055 3.103-.739H1.773C1.832-1.528 1.886-2.119 1.936-2.513" fill="#2c292a"/>
<path transform="matrix(1,0,0,-1,210.8895,342.392)" d="M0 0C-.069-.177-.143-.355-.222-.532H1.611C1.512-1.242 1.379-1.843 1.212-2.336 1.044-2.829 .837-3.262 .591-3.637 .344-4.011 .054-4.371-.281-4.716-.616-5.061-1.02-5.381-1.492-5.676-1.63-5.459-1.808-5.312-2.024-5.233-1.571-5.036-1.148-4.755-.754-4.39-.36-4.026-.074-3.676 .103-3.341-.153-3.065-.488-2.779-.901-2.483-.764-2.365-.635-2.228-.517-2.07-.123-2.385 .182-2.631 .399-2.809 .536-2.533 .645-2.247 .724-1.951 .802-1.656 .872-1.35 .931-1.035H-.399C-.517-1.291-.67-1.577-.857-1.892-1.044-2.208-1.285-2.523-1.581-2.838-1.68-2.701-1.828-2.562-2.024-2.424-1.69-2.109-1.429-1.789-1.241-1.463-1.054-1.138-.901-.808-.783-.473-.665-.138-.547 .276-.429 .769-.212 .67 .024 .591 .281 .532 .162 .355 .069 .177 0 0M2.704-.118V-4.671C2.704-5.046 2.714-5.43 2.733-5.824H2.083C2.103-5.43 2.113-5.046 2.113-4.671V-.118C2.113 .197 2.103 .512 2.083 .828H2.733C2.714 .512 2.704 .197 2.704-.118M4.048-2.055C4.393-2.459 4.684-2.838 4.92-3.193 4.723-3.311 4.555-3.44 4.418-3.577 4.24-3.262 3.994-2.908 3.679-2.513 3.364-2.119 3.078-1.784 2.822-1.508 2.94-1.39 3.088-1.271 3.265-1.153 3.443-1.35 3.703-1.651 4.048-2.055" fill="#2c292a"/>
<path transform="matrix(1,0,0,-1,221.7492,345.5111)" d="M0 0C.65-.247 1.221-.389 1.714-.429 1.537-.606 1.399-.803 1.3-1.02 .808-.902 .325-.744-.148-.547-.168-.665-.177-.823-.177-1.02V-1.937C-.177-2.232-.168-2.528-.148-2.823H-.798C-.778-2.547-.768-2.252-.768-1.937V-1.138C-.768-.882-.778-.636-.798-.399H-.443C-.877-.242-1.359 .054-1.891 .488-2.207 .251-2.611 .01-3.103-.237-3.595-.483-4.167-.715-4.817-.931-4.896-.754-5.024-.587-5.201-.429-4.905-.37-4.511-.251-4.019-.074-3.527 .103-3.098 .315-2.733 .562-2.369 .808-2.128 1.02-2.009 1.197-1.813 1.099-1.606 1-1.389 .902L-1.537 .783C-1.163 .507-.65 .246 0 0M-2.793-.931C-2.803-1.089-2.832-1.276-2.881-1.493-2.93-1.71-3.034-1.932-3.191-2.158-3.349-2.385-3.615-2.646-3.989-2.942-4.127-2.764-4.275-2.626-4.433-2.528-4.118-2.331-3.876-2.138-3.709-1.951-3.541-1.764-3.438-1.582-3.398-1.404-3.359-1.227-3.335-1.074-3.324-.946-3.315-.818-3.31-.636-3.31-.399-3.054-.439-2.857-.468-2.719-.488-2.758-.626-2.783-.774-2.793-.931M.798 2.883V2.232C.798 1.976 .808 1.66 .828 1.286H-4.403C-4.384 1.66-4.373 1.985-4.373 2.262V2.883C-4.373 3.257-4.384 3.592-4.403 3.888H.828C.808 3.671 .798 3.336 .798 2.883M-2.098 3.474H-3.782V2.794H-2.098ZM-2.098 2.38H-3.782V1.7H-2.098ZM.207 3.474H-1.537V2.794H.207ZM.207 2.38H-1.537V1.7H.207ZM.207 1.7" fill="#2c292a"/>
<path transform="matrix(1,0,0,-1,230.8212,342.3624)" d="M0 0C-.354 .019-.66 .03-.916 .03H-2.659C-2.798-.247-2.965-.552-3.162-.887V-4.583C-3.162-4.977-3.152-5.42-3.132-5.913H-3.782C-3.763-5.44-3.753-4.996-3.753-4.583V-1.685C-4.364-2.533-5.191-3.311-6.235-4.021-6.393-3.784-6.541-3.617-6.678-3.518-6.284-3.341-5.762-2.962-5.112-2.38-4.462-1.799-3.861-.996-3.31 .03H-5.26C-5.634 .03-6.028 .019-6.442 0V.591C-5.851 .571-5.398 .562-5.083 .562H-.946C-.69 .562-.374 .571 0 .591ZM-2.63-1.744C-2.473-1.607-2.345-1.469-2.246-1.33-1.773-1.764-1.369-2.143-1.034-2.469-.699-2.794-.384-3.115-.089-3.43-.286-3.588-.463-3.755-.621-3.932-.995-3.459-1.665-2.73-2.63-1.744" fill="#2c292a"/>
<path transform="matrix(1,0,0,-1,238.1498,342.9241)" d="M0 0V-4.76C0-5.036-.099-5.208-.296-5.277-.493-5.346-.808-5.4-1.241-5.44-1.241-5.263-1.32-5.036-1.478-4.76-1.163-4.76-.936-4.745-.798-4.716-.66-4.686-.591-4.602-.591-4.464V.562H-5.467V-5.41H-6.146C-6.127-5.134-6.107-4.819-6.087-4.464V0C-6.087 .473-6.097 .847-6.117 1.123H.059C.019 .828 0 .453 0 0M-1.98-.266C-1.586-.266-1.3-.256-1.123-.237V-.828C-1.32-.808-1.616-.798-2.009-.798H-3.93C-4.403-.798-4.738-.808-4.935-.828V-.237C-4.718-.256-4.373-.266-3.901-.266ZM-1.714-2.69C-1.714-3.124-1.694-3.509-1.655-3.843H-4.433C-4.413-3.489-4.403-3.085-4.403-2.631-4.403-2.178-4.413-1.863-4.433-1.685H-1.655C-1.694-1.902-1.714-2.237-1.714-2.69M-2.246-2.158H-3.842V-3.341H-2.246ZM-2.246-3.341" fill="#2c292a"/>
<path transform="matrix(1,0,0,-1,239.834,348.2754)" d="M0 0C-.236 .099-.434 .168-.591 .207-.355 .522-.158 .956 0 1.508 .177 1.429 .364 1.37 .561 1.33 .384 .956 .197 .513 0 0M.916 5.676C.561 5.676 .187 5.666-.207 5.647V6.15C.207 6.13 .581 6.12 .916 6.12H2.689C2.669 6.277 2.6 6.484 2.482 6.741 2.699 6.76 2.926 6.8 3.162 6.859 3.24 6.504 3.299 6.258 3.339 6.12H4.699C5.092 6.12 5.437 6.13 5.733 6.15V5.647C5.398 5.666 5.053 5.676 4.699 5.676H1.743C1.881 5.479 1.999 5.292 2.098 5.115L1.684 4.937H3.546C3.624 5.036 3.713 5.263 3.812 5.617 4.048 5.558 4.265 5.499 4.462 5.44 4.324 5.263 4.215 5.095 4.137 4.937H5.024C5.457 4.937 5.861 4.947 6.235 4.967V4.464C5.861 4.484 5.457 4.494 5.024 4.494H.591C.177 4.494-.207 4.484-.561 4.464V4.967C-.187 4.947 .197 4.937 .591 4.937H1.566C1.507 5.095 1.408 5.263 1.271 5.44 1.389 5.499 1.526 5.578 1.684 5.676ZM5.142 2.986C5.142 2.651 5.152 2.286 5.171 1.892H.473C.492 2.286 .502 2.661 .502 3.016 .502 3.37 .492 3.725 .473 4.08H5.171C5.152 3.705 5.142 3.341 5.142 2.986M4.551 3.666H1.0940001V3.1929999H4.551ZM4.551 2.75H1.0940001V2.336H4.551ZM1.773 .976C1.773 .857 1.778 .749 1.788 .65 1.797 .552 1.891 .503 2.068 .503H3.812C3.93 .542 4.029 .769 4.108 1.183 4.265 1.044 4.482 .936 4.758 .857 4.62 .483 4.501 .256 4.403 .177 4.304 .099 4.137 .059 3.901 .059H1.743C1.408 .079 1.231 .163 1.212 .31 1.192 .458 1.182 .631 1.182 .828 1.182 1.025 1.162 1.251 1.123 1.508H1.803C1.783 1.291 1.773 1.113 1.773 .976M3.517 1.064C3.339 .946 3.162 .838 2.985 .739 2.926 .917 2.758 1.163 2.482 1.478 2.6 1.577 2.768 1.685 2.985 1.803 3.201 1.508 3.378 1.261 3.517 1.064M6.294 .562C6.117 .424 5.959 .306 5.821 .207 5.683 .424 5.398 .798 4.964 1.33 5.083 1.429 5.24 1.537 5.437 1.656 5.811 1.163 6.097 .798 6.294 .562" fill="#2c292a"/>
<path transform="matrix(1,0,0,-1,250.4427,344.34333)" d="M0 0C-.04-.532-.118-1.035-.236-1.508-.355-1.981-.611-2.424-1.005-2.838-1.399-3.252-2.128-3.676-3.191-4.11-3.231-3.912-3.389-3.715-3.664-3.518-2.995-3.36-2.463-3.169-2.068-2.942-1.675-2.715-1.359-2.429-1.123-2.084-.887-1.74-.729-1.281-.65-.71-.572-.138-.542 .532-.561 1.301-.306 1.261-.059 1.232 .177 1.212 .098 .936 .039 .532 0 0M2.157-.739C2.157-.976 2.167-1.321 2.187-1.774H1.596V1.833H-1.891V-1.922H-2.482C-2.463-1.429-2.453-.996-2.453-.621V1.36C-2.453 1.793-2.463 2.109-2.482 2.306H2.187C2.167 2.089 2.157 1.823 2.157 1.508ZM.591-.828C.571-1.183 .561-1.488 .561-1.744V-3.104C.561-3.341 .68-3.479 .916-3.518H2.009C2.285-3.498 2.457-3.395 2.527-3.208 2.595-3.021 2.64-2.779 2.66-2.483 2.876-2.641 3.093-2.75 3.31-2.809 3.211-3.242 3.088-3.548 2.94-3.725 2.793-3.903 2.571-3.991 2.275-3.991H.857C.285-3.991 0-3.764 0-3.311V-2.01C0-1.636-.01-1.242-.03-.828Z" fill="#2c292a"/>
<path transform="matrix(1,0,0,-1,199.9109,353.2041)" d="M0 0C-.138-.109-.247-.202-.325-.281-.128-.557 .019-.907 .118-1.33 .217-1.755 .241-2.203 .192-2.676 .143-3.149-.025-3.499-.31-3.725-.596-3.952-.985-4.114-1.478-4.213-1.497-4.055-1.576-3.878-1.714-3.681-1.261-3.622-.941-3.523-.754-3.385-.567-3.248-.448-3.085-.399-2.897-.35-2.71-.32-2.523-.31-2.336-.301-2.149-.315-1.897-.355-1.582-.493-1.779-.66-1.961-.857-2.129-1.054-2.296-1.369-2.548-1.803-2.883-1.901-2.725-2.039-2.587-2.216-2.469-1.862-2.311-1.532-2.099-1.226-1.833-.921-1.567-.68-1.316-.502-1.079-.581-.882-.66-.724-.739-.606-.838-.685-.96-.774-1.108-.872-1.256-.971-1.488-1.119-1.803-1.316-1.921-1.178-2.049-1.05-2.187-.931-1.754-.754-1.369-.517-1.034-.222-1.291-.005-1.527 .152-1.743 .251-1.606 .37-1.488 .507-1.389 .665-1.034 .409-.778 .222-.621 .103-.345 .32-.158 .517-.059 .695 .039 .557 .197 .419 .414 .281 .276 .202 .138 .108 0 0M.384 1.375C.384 1.178 .394 .98 .414 .783H-.207C-.187 1.039-.177 1.237-.177 1.375H-.975C-1.271 1.375-1.596 1.365-1.95 1.345V1.877C-1.576 1.858-1.241 1.848-.946 1.848H-.177C-.177 2.084-.187 2.321-.207 2.557H.414C.394 2.36 .384 2.124 .384 1.848H1.891C1.891 2.124 1.881 2.37 1.862 2.587H2.482C2.462 2.37 2.453 2.124 2.453 1.848H3.191C3.506 1.848 3.861 1.858 4.255 1.877V1.345C3.901 1.365 3.556 1.375 3.221 1.375H2.453C2.453 1.197 2.462 1 2.482 .783H1.862C1.881 .98 1.891 1.178 1.891 1.375ZM2.423-.724H3.487C3.782-.724 4.038-.715 4.255-.695V-1.227C4.038-1.208 3.782-1.197 3.487-1.197H2.453C2.492-1.395 2.561-1.611 2.66-1.848 2.758-2.084 2.896-2.316 3.073-2.543 3.251-2.769 3.467-2.986 3.723-3.193 3.979-3.4 4.206-3.533 4.403-3.592 4.167-3.77 3.999-3.947 3.901-4.124 3.546-3.868 3.211-3.558 2.896-3.193 2.581-2.829 2.334-2.4 2.157-1.907 2.019-2.321 1.857-2.666 1.67-2.942 1.482-3.218 1.305-3.449 1.138-3.637 .97-3.824 .748-4.016 .473-4.213 .335-4.036 .187-3.888 .03-3.77 .266-3.631 .492-3.464 .709-3.267 .926-3.07 1.108-2.853 1.256-2.617 1.404-2.38 1.527-2.129 1.625-1.863 1.724-1.597 1.783-1.375 1.803-1.197H1.478C1.142-1.197 .798-1.208 .443-1.227V-.695C.798-.715 1.142-.724 1.478-.724H1.862C1.862-.094 1.852 .33 1.832 .547 2.029 .507 2.246 .478 2.482 .458 2.443 .241 2.423-.153 2.423-.724M3.989-.31C3.831-.409 3.684-.528 3.546-.665 3.31-.31 3.073-.015 2.837 .222 2.935 .281 3.073 .389 3.251 .547 3.467 .35 3.713 .064 3.989-.31" fill="#2c292a"/>
<path transform="matrix(1,0,0,-1,207.9782,350.94239)" d="M0 0C.335 0 .621 .01 .857 .03V-.473C.699-.454 .542-.443 .384-.443V-4.435C.601-4.376 .847-4.307 1.123-4.228V-4.73C.867-4.79 .621-4.849 .384-4.908 .384-5.676 .394-6.238 .414-6.593H-.177C-.158-6.297-.148-5.775-.148-5.026-.621-5.125-1.054-5.243-1.448-5.381-1.842-5.519-2.177-5.657-2.453-5.795L-2.689-5.115-2.039-4.996V-.443C-2.197-.443-2.394-.454-2.63-.473V.03C-2.374 .01-2.029 0-1.596 0ZM-.148-.443H-1.507V-1.685H-.148ZM-.148-2.129H-1.507V-3.164H-.148ZM-.148-4.583V-3.637H-1.507V-4.878C-1.034-4.78-.581-4.681-.148-4.583M1.315-5.336C1.522-5.11 1.753-4.8 2.01-4.405 1.714-3.854 1.522-3.292 1.433-2.72 1.345-2.149 1.28-1.488 1.241-.739H1.005V-.237C1.399-.256 1.753-.266 2.068-.266H3.723C3.644-1.232 3.531-2.03 3.384-2.661 3.236-3.292 3.004-3.873 2.689-4.405 2.847-4.681 3.058-4.937 3.324-5.174 3.59-5.41 3.881-5.617 4.196-5.795 3.999-5.932 3.831-6.1 3.694-6.297 3.28-6.021 2.837-5.558 2.364-4.908 2.01-5.48 1.605-5.962 1.152-6.356 1.034-6.198 .857-6.051 .621-5.913 .876-5.755 1.108-5.563 1.315-5.336M1.936-2.513C1.985-2.908 2.117-3.361 2.335-3.873 2.649-3.223 2.852-2.617 2.94-2.055 3.029-1.493 3.083-1.055 3.103-.739H1.773C1.832-1.528 1.886-2.119 1.936-2.513" fill="#2c292a"/>
<path transform="matrix(1,0,0,-1,213.7997,355.98323)" d="M0 0C-.158-.207-.384-.498-.68-.872-.818-.734-.965-.616-1.123-.517-.709-.064-.384 .409-.148 .902 .049 .744 .236 .616 .414 .517 .296 .379 .157 .207 0 0M1.655 2.883C1.99 2.883 2.334 2.892 2.689 2.912V2.321C2.354 2.34 1.852 2.35 1.182 2.35V1.611C1.792 1.611 2.275 1.621 2.63 1.641V1.05C2.275 1.069 1.792 1.079 1.182 1.079V-.724C1.182-1.02 1.088-1.217 .901-1.316 .714-1.414 .473-1.463 .177-1.463 .098-1.227 0-1.01-.118-.813 .157-.832 .349-.832 .458-.813 .566-.793 .621-.705 .621-.547V1.079C-.01 1.079-.502 1.069-.857 1.05V1.641C-.483 1.621 .01 1.611 .621 1.611V2.35C-.109 2.35-.65 2.34-1.005 2.321V2.912C-.65 2.892-.315 2.883 0 2.883H1.123C1.28 3.356 1.398 3.72 1.477 3.976 1.635 3.937 1.852 3.878 2.128 3.799 1.99 3.72 1.832 3.415 1.655 2.883M1.3 4.656C1.753 4.656 2.177 4.666 2.571 4.686V4.095C2.157 4.114 1.822 4.124 1.566 4.124H.148C-.188 4.124-.513 4.114-.828 4.095V4.686C-.493 4.666-.168 4.656 .148 4.656H.68C.64 4.873 .581 5.1 .502 5.336 .699 5.396 .906 5.455 1.123 5.514 1.221 5.1 1.28 4.814 1.3 4.656M.473 3.119C.296 3.079 .128 3.02-.03 2.942-.128 3.237-.237 3.503-.355 3.74-.217 3.819-.059 3.888 .118 3.947 .256 3.671 .374 3.395 .473 3.119M2.482-.163C2.285-.261 2.128-.389 2.009-.547 1.852-.192 1.645 .152 1.389 .488 1.526 .606 1.674 .714 1.832 .813 2.068 .498 2.285 .172 2.482-.163M3.664 4.597V3.09H5.201C5.417 3.09 5.644 3.099 5.881 3.119V2.557C5.604 2.577 5.368 2.587 5.171 2.587V-.458C5.171-.793 5.181-1.148 5.201-1.523H4.58C4.6-1.148 4.61-.803 4.61-.488V2.587H3.664C3.664 2.094 3.644 1.621 3.605 1.168 3.565 .714 3.482 .266 3.354-.177 3.226-.621 3.034-1.079 2.778-1.552 2.58-1.434 2.383-1.335 2.187-1.257 2.502-.803 2.723-.325 2.852 .177 2.979 .68 3.053 1.118 3.073 1.493 3.093 1.867 3.103 2.429 3.103 3.178 3.103 3.947 3.093 4.558 3.073 5.011 3.96 5.051 4.758 5.189 5.467 5.425 5.624 5.11 5.752 4.893 5.851 4.775 5.555 4.775 4.826 4.716 3.664 4.597" fill="#2c292a"/>
<path transform="matrix(1,0,0,-1,221.3645,355.9093)" d="M0 0V2.483C-.453 2.483-.788 2.473-1.005 2.454V3.016C-.788 2.996-.552 2.986-.295 2.986H.621C.601 2.631 .591 2.296 .591 1.981V.237C.748 .394 1.054 .729 1.507 1.242 1.585 1.064 1.694 .887 1.832 .71 1.537 .414 1.251 .118 .975-.177 .699-.473 .473-.739 .296-.976 .098-.779-.069-.621-.207-.503-.069-.345 0-.177 0 0M-.207 4.819C-.03 4.937 .108 5.075 .207 5.233 .522 4.977 .896 4.602 1.33 4.11 1.133 3.991 .975 3.853 .857 3.696 .542 4.129 .187 4.504-.207 4.819M4.063-.089C3.777 .404 3.536 1.044 3.339 1.833 3.122 .965 2.812 .261 2.408-.281 2.004-.823 1.625-1.242 1.271-1.537 1.192-1.399 1.005-1.261 .709-1.123 1.142-.828 1.532-.449 1.876 .015 2.221 .478 2.477 .941 2.645 1.404 2.812 1.867 2.911 2.331 2.94 2.794 2.97 3.257 2.985 3.666 2.985 4.021 2.985 4.376 2.974 4.79 2.955 5.263 3.191 5.243 3.447 5.233 3.723 5.233 3.664 5.154 3.625 4.937 3.605 4.583 3.585 4.228 3.595 3.779 3.635 3.237 3.674 2.695 3.772 2.178 3.93 1.685 4.088 1.192 4.314 .699 4.61 .207 4.905-.286 5.329-.7 5.881-1.035 5.565-1.153 5.368-1.311 5.29-1.508 4.758-1.054 4.349-.582 4.063-.089" fill="#2c292a"/>
<path transform="matrix(1,0,0,-1,229.4909,352.7459)" d="M0 0C-.02-.355-.03-.769-.03-1.242V-2.956C.167-2.76 .384-2.513 .621-2.217 .699-2.415 .807-2.622 .946-2.838 .65-3.114 .399-3.37 .192-3.607-.015-3.843-.227-4.099-.443-4.376-.581-4.159-.749-3.981-.946-3.843-.729-3.666-.621-3.469-.621-3.252V-.503C-1.054-.503-1.399-.513-1.655-.532V.03C-1.418 .01-1.153 0-.857 0ZM.473 1.123C.296 1.005 .128 .857-.03 .68-.404 1.251-.7 1.656-.916 1.892-.759 1.991-.601 2.119-.443 2.277 .01 1.764 .315 1.379 .473 1.123M1.773-3.607C1.497-3.981 1.192-4.356 .857-4.73 .758-4.612 .601-4.474 .384-4.316 1.152-3.509 1.655-2.838 1.891-2.306 2.088-2.444 2.285-2.572 2.482-2.69 2.285-2.927 2.049-3.233 1.773-3.607M4.61-.03C4.61-.838 4.62-1.419 4.639-1.774H1.123C1.142-1.439 1.152-.857 1.152-.03 1.152 .798 1.142 1.409 1.123 1.803H4.639C4.62 1.409 4.61 .798 4.61-.03M3.989 1.242H1.773V-1.271H3.989ZM5.29-4.139C5.073-4.297 4.885-4.454 4.728-4.612 4.334-4.021 3.851-3.39 3.28-2.72 3.438-2.622 3.595-2.474 3.753-2.277 4.501-3.124 5.013-3.745 5.29-4.139" fill="#2c292a"/>
<path transform="matrix(1,0,0,-1,198.7855,315.9547)" d="M0 0V2.158C-.473 2.158-.818 2.148-1.034 2.129V2.72C-.857 2.68-.493 2.661 .059 2.661H.621C.601 2.365 .591 2.07 .591 1.774V-.059C1.162-.552 2.004-.803 3.118-.813 4.23-.823 5.112-.778 5.762-.68 5.644-.877 5.555-1.123 5.496-1.419H3.723C3.231-1.419 2.778-1.404 2.364-1.375 1.95-1.345 1.6-1.261 1.315-1.123 1.029-.985 .778-.838 .561-.68 .344-.522 .143-.537-.044-.724-.232-.911-.443-1.172-.68-1.508-.798-1.311-.975-1.143-1.212-1.005-.601-.473-.197-.138 0 0M.768 3.814C.571 3.696 .384 3.567 .207 3.43-.187 4.099-.483 4.523-.68 4.701-.502 4.799-.325 4.937-.148 5.115 .049 4.878 .355 4.444 .768 3.814M3.635 .266C3.753 .305 3.812 .473 3.812 .769V3.459H1.891C1.674 3.459 1.438 3.449 1.182 3.43V3.991C1.438 3.971 1.753 3.962 2.128 3.962H3.812C3.812 4.474 3.792 4.918 3.753 5.292H4.433C4.413 5.036 4.403 4.592 4.403 3.962 4.817 3.962 5.191 3.971 5.526 3.991V3.43C5.211 3.449 4.836 3.459 4.403 3.459V.532C4.403 .079 4.27-.192 4.004-.281 3.738-.37 3.408-.424 3.014-.443 2.975-.227 2.896 0 2.778 .237 3.231 .217 3.517 .226 3.635 .266M1.537 2.602C1.714 2.68 1.901 2.789 2.098 2.927 2.453 2.217 2.679 1.724 2.778 1.449 2.64 1.37 2.442 1.261 2.187 1.123 2.009 1.656 1.792 2.148 1.537 2.602" fill="#2c292a"/>
<path transform="matrix(1,0,0,-1,208.0645,315.4964)" d="M0 0C-.256-.325-.631-.724-1.123-1.197-.552-1.138-.02-1.084 .473-1.035 .965-.986 1.507-.922 2.098-.843 1.664-.33 1.359-.005 1.182 .133 1.359 .212 1.546 .33 1.743 .488 1.98 .231 2.255-.079 2.571-.443 2.886-.808 3.221-1.178 3.576-1.552 3.339-1.67 3.122-1.798 2.925-1.937 2.768-1.7 2.59-1.473 2.394-1.257 1.034-1.394 .054-1.518-.547-1.626-1.148-1.734-1.576-1.838-1.832-1.937-1.911-1.719-2.02-1.483-2.157-1.227-1.921-1.168-1.562-.892-1.079-.399-.596 .093-.256 .596-.059 1.109H-1.507C-2.059 1.109-2.532 1.099-2.926 1.079V1.611C-2.512 1.591-2.039 1.582-1.507 1.582H.296V2.971H-.768C-1.261 2.971-1.695 2.961-2.069 2.942V3.474C-1.695 3.454-1.271 3.444-.798 3.444H.296V4.036C.296 4.331 .285 4.617 .266 4.893H.975C.935 4.637 .916 4.371 .916 4.095V3.444H1.803C2.295 3.444 2.758 3.454 3.191 3.474V2.942C2.758 2.961 2.305 2.971 1.832 2.971H.916V1.582H2.719C3.191 1.582 3.644 1.591 4.078 1.611V1.079C3.644 1.099 3.191 1.109 2.719 1.109H.148C.364 .951 .551 .813 .709 .695 .492 .557 .256 .325 0 0" fill="#2c292a"/>
<path transform="matrix(1,0,0,-1,214.4768,312.0521)" d="M0 0H1.33C1.31-.335 1.3-.759 1.3-1.271V-3.873C1.3-4.169 1.31-4.593 1.33-5.144H.739V-4.553H-.768V-5.203H-1.359C-1.34-4.573-1.33-4.179-1.33-4.021V-1.301C-1.33-.769-1.34-.335-1.359 0H-.502C-.404 .453-.325 .926-.266 1.419 .01 1.32 .237 1.251 .414 1.212 .315 1.035 .177 .631 0 0M.739-.503H-.76799997V-1.9810001H.739ZM.739-2.483H-.76799997V-4.05H.739ZM4.669-4.464C4.629-4.819 4.442-5.056 4.108-5.174 3.772-5.292 3.398-5.371 2.985-5.41 2.965-5.193 2.876-4.967 2.719-4.73 3.112-4.75 3.423-4.74 3.65-4.701 3.876-4.662 4.019-4.573 4.078-4.435 4.137-4.297 4.181-3.893 4.211-3.223 4.241-2.553 4.265-1.616 4.285-.414H2.571C2.413-.789 2.187-1.232 1.891-1.744 1.753-1.607 1.586-1.498 1.389-1.419 1.566-1.183 1.733-.897 1.891-.562 2.049-.227 2.187 .138 2.305 .532 2.423 .926 2.492 1.232 2.512 1.449 2.787 1.33 3.024 1.242 3.221 1.183 3.122 1.025 3.039 .852 2.97 .665 2.901 .478 2.827 .296 2.748 .118H4.846C4.826-.296 4.817-.68 4.817-1.035 4.797-2.237 4.747-3.381 4.669-4.464M3.073-2.247C3.191-2.483 3.329-2.789 3.487-3.163 3.349-3.223 3.162-3.321 2.926-3.459 2.787-3.085 2.66-2.764 2.541-2.498 2.423-2.232 2.305-2.01 2.187-1.833 2.324-1.754 2.502-1.656 2.719-1.537Z" fill="#2c292a"/>
<path transform="matrix(1,0,0,-1,221.3621,315.9251)" d="M0 0V2.483C-.453 2.483-.788 2.473-1.005 2.454V3.016C-.788 2.996-.552 2.986-.296 2.986H.621C.601 2.631 .591 2.296 .591 1.981V.237C.748 .394 1.054 .729 1.507 1.242 1.585 1.064 1.694 .887 1.832 .71 1.537 .414 1.251 .118 .975-.177 .699-.473 .473-.739 .296-.976 .098-.779-.069-.621-.207-.503-.069-.345 0-.177 0 0M-.207 4.819C-.03 4.937 .108 5.075 .207 5.233 .522 4.977 .896 4.602 1.33 4.11 1.133 3.991 .975 3.853 .857 3.696 .542 4.129 .187 4.504-.207 4.819M4.063-.089C3.777 .404 3.536 1.044 3.339 1.833 3.122 .965 2.812 .261 2.408-.281 2.004-.823 1.625-1.242 1.271-1.537 1.192-1.399 1.005-1.261 .709-1.123 1.142-.828 1.532-.449 1.876 .015 2.221 .478 2.477 .941 2.645 1.404 2.812 1.867 2.911 2.331 2.94 2.794 2.97 3.257 2.985 3.666 2.985 4.021 2.985 4.376 2.974 4.79 2.955 5.263 3.191 5.243 3.447 5.233 3.723 5.233 3.664 5.154 3.624 4.937 3.605 4.583 3.585 4.228 3.595 3.779 3.635 3.237 3.674 2.695 3.772 2.178 3.93 1.685 4.087 1.192 4.314 .699 4.61 .207 4.905-.286 5.329-.7 5.88-1.035 5.565-1.153 5.368-1.311 5.29-1.508 4.758-1.054 4.349-.582 4.063-.089" fill="#2c292a"/>
<path transform="matrix(1,0,0,-1,228.8235,316.2651)" d="M0 0C.207 .305 .379 .621 .517 .946 .655 1.271 .743 1.591 .783 1.907 .054 1.907-.468 1.897-.783 1.877V2.439C-.488 2.419 .064 2.41 .872 2.41 .931 2.823 .96 3.326 .96 3.917H.281C.182 3.641 .034 3.316-.163 2.942-.38 3.001-.576 3.05-.754 3.09-.616 3.286-.478 3.548-.34 3.873-.202 4.198-.089 4.513 0 4.819 .089 5.124 .152 5.396 .192 5.632 .389 5.573 .615 5.524 .872 5.484 .773 5.346 .694 5.189 .635 5.011 .576 4.834 .507 4.637 .429 4.42 1.551 4.42 2.25 4.43 2.527 4.45V3.917H1.522C1.522 3.484 1.502 2.981 1.463 2.41 1.936 2.41 2.349 2.419 2.704 2.439V1.877C2.349 1.897 1.906 1.907 1.374 1.907 1.354 1.69 1.315 1.483 1.256 1.286 1.433 1.148 1.63 .995 1.847 .828 2.063 .66 2.339 .379 2.674-.015 2.536-.074 2.379-.212 2.202-.429 2.024-.133 1.842 .108 1.655 .296 1.467 .483 1.275 .655 1.079 .813 .96 .498 .778 .163 .532-.192 .285-.547 .034-.862-.222-1.138-.32-1.02-.478-.902-.694-.783-.439-.566-.207-.306 0 0M5.689 3.622V.547C5.689 .172 5.698-.212 5.718-.606H5.098V.192H3.531V-.724H2.911C2.93-.35 2.94 .044 2.94 .458V3.622C2.94 3.937 2.93 4.292 2.911 4.686H5.718C5.698 4.292 5.689 3.937 5.689 3.622M5.098 4.213H3.532V.6649997H5.098ZM5.098 .665" fill="#2c292a"/>
<path transform="matrix(1,0,0,-1,203.8239,326.3222)" d="M0 0C-.227-.089-.517-.143-.872-.163-.911 .114-1 .36-1.138 .577-.665 .537-.389 .547-.31 .606-.232 .665-.173 .793-.133 .99L-.074 3.297H-4.595C-4.674 2.35-4.807 1.631-4.994 1.138-5.181 .645-5.393 .242-5.629-.074-5.807 .103-6.013 .222-6.25 .281-5.954 .616-5.728 .995-5.57 1.419-5.413 1.843-5.304 2.266-5.245 2.69-5.186 3.114-5.157 3.523-5.157 3.917V4.834C-5.157 5.031-5.167 5.583-5.186 6.49H.015C-.005 6.174-.015 5.858-.015 5.543-.015 5.228-.005 4.912 .015 4.597H-4.566V3.799H.547L.429 .783C.369 .35 .226 .089 0 0M-.547 5.987H-4.566V5.1H-.547ZM-1.241 1.73C-1.231 1.434-1.226 1.109-1.226 .754H-4.093C-4.053 1.01-4.034 1.305-4.034 1.641-4.034 1.996-4.044 2.36-4.063 2.735H-1.226C-1.246 2.36-1.251 2.025-1.241 1.73M-1.788 2.232H-3.4720002V1.2270001H-1.788ZM-1.788 1.227" fill="#2c292a"/>
<path transform="matrix(1,0,0,-1,207.0597,322.3161)" d="M0 0C.394-.473 .621-.907 .68-1.301 .739-1.695 .655-2.021 .429-2.277 .202-2.533-.079-2.71-.414-2.809-.434-2.553-.522-2.326-.68-2.129-.325-2.129-.099-2.06 0-1.922 .098-1.784 .138-1.562 .118-1.257 .098-.951-.138-.542-.591-.03-.276 .857-.079 1.498 0 1.892H-.886V-4.08H-1.448C-1.429-3.528-1.418-2.986-1.418-2.454V1.005C-1.418 1.36-1.429 1.813-1.448 2.365H.739C.384 1.202 .138 .414 0 0M4.314 .887C4.314 .276 4.324-.207 4.344-.562H2.955C2.955-.936 3.053-1.33 3.251-1.744 3.763-1.409 4.097-1.104 4.255-.828 4.413-1.064 4.56-1.242 4.699-1.36 4.344-1.537 3.91-1.794 3.398-2.129 3.615-2.424 3.842-2.681 4.078-2.897 4.314-3.115 4.659-3.302 5.112-3.459 4.876-3.577 4.699-3.764 4.58-4.021 4.108-3.725 3.738-3.425 3.472-3.119 3.206-2.814 2.989-2.459 2.822-2.055 2.654-1.651 2.541-1.153 2.482-.562H1.803V-3.252C2.117-3.095 2.403-2.908 2.659-2.69 2.679-2.868 2.719-3.075 2.778-3.311 2.6-3.41 2.369-3.538 2.083-3.696 1.797-3.853 1.556-4.011 1.359-4.169 1.28-4.011 1.172-3.833 1.034-3.637 1.152-3.518 1.231-3.341 1.271-3.104V1.064C1.271 1.458 1.261 1.892 1.241 2.365H4.344C4.324 2.01 4.314 1.518 4.314 .887M3.782 1.892H1.802V1.1529999H3.782ZM3.782 .71H1.802V-.088H3.782ZM3.782-.089" fill="#2c292a"/>
<path transform="matrix(1,0,0,-1,219.0277,320.1283)" d="M0 0V-.65C-.217-.729-.621-.966-1.212-1.36-1.803-1.754-2.226-2.05-2.482-2.247V-5.617C-2.502-5.952-2.674-6.164-2.999-6.253-3.325-6.342-3.655-6.405-3.989-6.445-4.088-6.031-4.187-5.755-4.285-5.617-3.793-5.637-3.477-5.632-3.339-5.603-3.202-5.573-3.132-5.44-3.132-5.203V-2.838C-3.132-2.385-3.162-2.07-3.221-1.892-2.886-1.754-2.157-1.301-1.034-.532H-4.167C-4.639-.552-5.093-.562-5.526-.562V.03C-5.093 .01-4.738 0-4.462 0Z" fill="#2c292a"/>
<path transform="matrix(1,0,0,-1,223.0464,320.1874)" d="M0 0C-.079-.67-.162-1.232-.251-1.685-.34-2.139-.463-2.602-.621-3.075-.345-3.489-.059-3.942 .236-4.435 .059-4.573-.118-4.721-.296-4.878-.493-4.425-.709-4.011-.946-3.637-1.103-3.952-1.3-4.253-1.537-4.538-1.773-4.824-2.029-5.115-2.305-5.41-2.423-5.253-2.6-5.076-2.837-4.878-2.463-4.622-2.157-4.356-1.921-4.08-1.684-3.804-1.477-3.489-1.3-3.134-1.635-2.641-1.98-2.208-2.334-1.833-2.157-1.695-2-1.567-1.862-1.449-1.586-1.744-1.31-2.109-1.034-2.543-.838-1.912-.7-1.222-.621-.473H-1.537C-1.891-.473-2.216-.483-2.512-.503V.03C-2.236 .01-1.921 0-1.566 0ZM2.571-5.351C2.571-5.529 2.615-5.627 2.704-5.647 2.793-5.666 2.926-5.676 3.103-5.676 3.3-5.676 3.423-5.642 3.472-5.573 3.521-5.504 3.566-5.253 3.605-4.819 3.782-4.937 3.989-5.026 4.226-5.085 4.108-5.676 3.979-6.011 3.842-6.09 3.703-6.169 3.526-6.209 3.31-6.209H2.63C2.394-6.209 2.236-6.139 2.157-6.002 2.078-5.864 2.039-5.716 2.039-5.558V-3.725C1.94-4.1 1.773-4.46 1.537-4.804 1.3-5.149 1.02-5.455 .694-5.721 .369-5.987 .03-6.209-.325-6.386-.404-6.189-.561-5.992-.798-5.795-.247-5.657 .211-5.41 .576-5.056 .941-4.701 1.197-4.327 1.345-3.932 1.492-3.538 1.581-3.09 1.611-2.587 1.64-2.084 1.645-1.567 1.625-1.035 1.901-1.075 2.128-1.104 2.305-1.123 2.226-1.439 2.177-1.853 2.157-2.365 2.137-2.878 2.098-3.292 2.039-3.607H2.63C2.61-3.725 2.59-3.991 2.571-4.405ZM3.635-1.656C3.635-2.681 3.645-3.381 3.664-3.755H3.073V-.118H1.005V-3.784H.414C.433-3.311 .443-2.622 .443-1.715 .443-.789 .433-.099 .414 .355H3.664C3.645 .039 3.635-.631 3.635-1.656" fill="#2c292a"/>
<path transform="matrix(1,0,0,-1,229.5328,321.3552)" d="M0 0C.68 .542 1.226 1.148 1.64 1.818 1.797 1.719 2.024 1.621 2.32 1.523L2.142 1.345C2.556 .852 3.044 .404 3.605 0 4.167-.404 4.723-.695 5.275-.872 4.979-1.069 4.792-1.237 4.713-1.375 4.3-1.158 3.846-.862 3.354-.488 2.861-.114 2.339 .379 1.788 .99 1.334 .478 .867 .019 .384-.384-.099-.789-.616-1.168-1.167-1.523-1.285-1.306-1.453-1.129-1.67-.99-1.237-.872-.68-.542 0 0M-.96-4.509C-1.079-4.43-1.237-4.331-1.433-4.213-1.099-3.839-.803-3.257-.547-2.469-.369-2.568-.202-2.636-.044-2.676-.242-3.248-.547-3.858-.96-4.509M2.852-1.463H.842C.665-1.463 .389-1.483 .015-1.523V-.99C.369-1.01 .635-1.02 .813-1.02H3.797C3.62-1.237 3.216-1.828 2.586-2.794 2.448-2.715 2.26-2.646 2.024-2.587 2.339-2.193 2.615-1.818 2.852-1.463M3.413-4.849C3.275-4.996 3.078-5.06 2.822-5.041H.99C.615-5.041 .414-4.918 .384-4.671 .354-4.425 .34-4.115 .34-3.74 .34-3.346 .33-3.03 .31-2.794H.901C.881-3.03 .872-3.326 .872-3.681 .872-4.036 .886-4.272 .916-4.39 .946-4.509 1.078-4.578 1.315-4.597H2.615C2.733-4.597 2.837-4.563 2.925-4.494 3.014-4.425 3.098-4.154 3.177-3.681 3.354-3.799 3.561-3.888 3.797-3.947 3.679-4.401 3.551-4.701 3.413-4.849M2.054-3.74C1.758-3.248 1.423-2.843 1.049-2.528 1.187-2.449 1.325-2.35 1.463-2.232 1.916-2.666 2.27-3.041 2.527-3.356 2.349-3.494 2.191-3.622 2.054-3.74M2.32-.547C2.142-.646 1.984-.744 1.847-.843 1.669-.528 1.482-.251 1.285-.015 1.463 .064 1.61 .152 1.729 .251 1.925-.005 2.123-.271 2.32-.547M5.097-3.977C4.9-4.075 4.743-4.194 4.625-4.331 4.289-3.799 3.915-3.326 3.502-2.912 3.639-2.834 3.777-2.725 3.915-2.587 4.368-3.08 4.762-3.543 5.097-3.977" fill="#2c292a"/>
</g>
</g>
</g>
</svg>
