<svg xmlns="http://www.w3.org/2000/svg" xmlns:xlink="http://www.w3.org/1999/xlink" xmlns:inkscape="http://www.inkscape.org/namespaces/inkscape" version="1.1" width="411.024" height="595.276" viewBox="0 0 411.024 595.276">
<defs>
<clipPath id="clip_1">
<path transform="matrix(1,0,0,-1,0,595.276)" d="M0 0H411.024V595.276H0Z"/>
</clipPath>
<clipPath id="clip_2">
<path transform="matrix(1,0,0,-1,0,595.276)" d="M0 0H411.024V595.276H0Z"/>
</clipPath>
<path id="font_3_3" d="M.32998658 0V.71191409H.2579956L.125 .5969238V.51493838L.2579956 .63191226V0H.32998658Z"/>
<path id="font_3_5" d="M.45999146 .19407654C.45999146 .28303529 .4229889 .34100343 .35099793 .36799623 .4149933 .39700318 .44699098 .450943 .44699098 .52586367 .44699098 .64175418 .36698915 .71875 .25099183 .71875 .14299011 .71875 .05899048 .6507416 .050994874 .53585818H.12298584C.12998963 .60879519 .17599488 .6547394 .25099183 .6547394 .31999208 .6547394 .375 .609787 .375 .5248718 .375 .4449463 .33499146 .3959961 .24798584 .3959961H.23298645V.3330078H.24798584C.34498597 .3330078 .3880005 .28103639 .3880005 .19508362 .3880005 .10812378 .32798768 .057159425 .25099183 .057159425 .18299866 .057159425 .11999512 .09213257 .11399841 .18109131H.041992189C.04798889 .05215454 .13899231-.0068359377 .25099183-.0068359377 .36698915-.0068359377 .45999146 .06315613 .45999146 .19407654Z"/>
<clipPath id="clip_4">
<path transform="matrix(1,0,0,-1,0,595.276)" d="M0 0H411.024V595.276H0Z"/>
</clipPath>
<clipPath id="clip_5">
<path transform="matrix(1,0,0,-1,0,595.276)" d="M0 0H411.024V595.276H0Z"/>
</clipPath>
<clipPath id="clip_6">
<path transform="matrix(1,0,0,-1,0,595.276)" d="M0 0H411.024V595.276H0Z"/>
</clipPath>
<clipPath id="clip_7">
<path transform="matrix(1,0,0,-1,0,595.276)" d="M0 0H411.024V595.276H0Z"/>
</clipPath>
<clipPath id="clip_8">
<path transform="matrix(1,0,0,-1,0,595.276)" d="M0 0H411.024V595.276H0Z"/>
</clipPath>
<clipPath id="clip_9">
<path transform="matrix(1,0,0,-1,0,595.276)" d="M0 0H411.024V595.276H0Z"/>
</clipPath>
</defs>
<g clip-path="url(#clip_1)">
<g clip-path="url(#clip_2)">
<use data-text="1" xlink:href="#font_3_3" transform="matrix(9,0,0,-9,363.685,567.547)" fill="#f43040"/>
<use data-text="1" xlink:href="#font_3_3" transform="matrix(9,0,0,-9,367.285,567.547)" fill="#f43040"/>
<use data-text="3" xlink:href="#font_3_5" transform="matrix(9,0,0,-9,370.885,567.547)" fill="#f43040"/>
<g clip-path="url(#clip_4)">
<path transform="matrix(1,0,0,-1,231.8249,321.5814)" stroke-width="1.312" stroke-linecap="butt" stroke-miterlimit="8" stroke-linejoin="miter" fill="none" stroke="#2c292a" d="M0 0 2.26-3.898H53.591C57.333-3.898 60.367-6.933 60.367-10.677V-37.793C60.367-41.538 57.333-44.573 53.591-44.573H-53.591C-57.333-44.573-60.367-41.538-60.367-37.793V-10.677C-60.367-6.933-57.333-3.898-53.591-3.898H-2.26L0 0Z"/>
<path transform="matrix(1,0,0,-1,177.8687,248.61789)" d="M0 0C.462 0 .881 .011 1.255 .033V-.595C.925-.573 .506-.562 0-.562H-1.553C-1.553-1.289-1.575-1.95-1.619-2.545H.925C1.321-2.545 1.685-2.534 2.015-2.512V-3.14C1.685-3.118 1.332-3.107 .958-3.107H-.529V-5.685C-.529-5.971-.363-6.114-.033-6.114H1.09C1.332-6.114 1.464-5.784 1.487-5.123 1.706-5.255 1.949-5.354 2.213-5.42 2.103-6.28 1.85-6.709 1.453-6.709H-.363C-.87-6.687-1.123-6.4-1.123-5.85V-3.107H-1.685C-1.861-3.944-2.076-4.577-2.329-5.007-2.582-5.437-2.874-5.8-3.204-6.098-3.535-6.395-4.03-6.731-4.691-7.106-4.801-6.863-4.988-6.676-5.253-6.544-4.724-6.301-4.294-6.054-3.964-5.8-3.634-5.547-3.32-5.233-3.023-4.858-2.725-4.484-2.489-3.9-2.312-3.107H-3.766C-4.317-3.107-4.713-3.118-4.955-3.14V-2.512C-4.713-2.534-4.317-2.545-3.766-2.545H-2.246C-2.225-1.884-2.213-1.223-2.213-.562H-3.105C-3.546-.562-3.953-.573-4.327-.595V.033C-3.953 .011-3.546 0-3.105 0Z" fill="#2c292a"/>
<path transform="matrix(1,0,0,-1,183.8051,254.43482)" d="M0 0C-.297-.066-.595-.138-.892-.215-1.189-.292-1.498-.38-1.817-.479-2.136-.578-2.439-.683-2.725-.793-2.77-.595-2.847-.331-2.957 0-2.714 .044-2.494 .088-2.296 .132V4.396C-2.296 4.858-2.307 5.31-2.329 5.751H.413C.391 5.354 .38 4.913 .38 4.429V.628C.468 .65 .611 .683 .809 .727V.165C.567 .121 .297 .066 0 0M-.281 5.222H-1.668V3.966H-.281ZM-.281 3.47H-1.668V2.148H-.281ZM-.958 .364C-.749 .407-.523 .451-.281 .496V1.619H-1.668V.231C-1.404 .275-1.168 .319-.958 .364M1.206 .314C1.426 .699 1.586 1.102 1.685 1.52 1.784 1.939 1.855 2.368 1.899 2.809 1.943 3.25 1.966 3.669 1.966 4.065 1.591 4.065 1.25 4.054 .941 4.032V4.627C1.227 4.605 1.569 4.594 1.966 4.594V5.354C1.966 5.596 1.954 5.927 1.932 6.346 2.175 6.323 2.461 6.313 2.791 6.313 2.725 6.026 2.687 5.739 2.676 5.453 2.664 5.167 2.659 4.88 2.659 4.594H4.509C4.443 4.241 4.41 3.812 4.41 3.305L4.212-.066C4.19-.484 4.047-.732 3.782-.81 3.518-.887 3.176-.947 2.758-.991 2.714-.705 2.637-.44 2.527-.198 2.945-.198 3.232-.193 3.386-.182 3.54-.171 3.617 .044 3.617 .463L3.782 4.065H2.659C2.615 3.14 2.538 2.39 2.428 1.818 2.318 1.245 2.18 .793 2.015 .463 1.85 .132 1.685-.16 1.52-.413 1.354-.666 1.161-.914 .941-1.157 .765-.98 .523-.837 .215-.727 .655-.419 .985-.072 1.206 .314" fill="#2c292a"/>
<path transform="matrix(1,0,0,-1,195.7703,249.74161)" d="M0 0C-.231-.243-.556-.573-.974-.992H-.05C.325-.992 .71-.981 1.107-.958V-1.553C.71-1.532 .314-1.52-.083-1.52H-1.635C-1.988-1.785-2.384-2.071-2.824-2.38H-.017C-.039-2.776-.05-3.14-.05-3.47V-4.627C-.05-5.024-.039-5.453-.017-5.916H-.677V-5.42H-3.848V-5.916H-4.542C-4.521-5.563-4.509-5.233-4.509-4.924V-3.404C-4.95-3.647-5.445-3.889-5.996-4.131-6.216-3.823-6.37-3.636-6.458-3.569-6.304-3.526-6.012-3.421-5.583-3.255-5.153-3.09-4.796-2.908-4.509-2.71V-2.38H-3.881C-3.397-2.115-2.968-1.829-2.593-1.52H-4.939C-5.401-1.52-5.831-1.532-6.227-1.553V-.958C-5.787-.981-5.357-.992-4.939-.992H-3.188V.033H-4.179C-4.554 .033-4.895 .022-5.203 0V.595C-4.895 .573-4.554 .562-4.179 .562H-3.188C-3.188 .892-3.199 1.267-3.221 1.686H-2.494C-2.516 1.377-2.527 1.002-2.527 .562H-2.032C-1.746 .562-1.415 .573-1.041 .595V0C-1.415 .022-1.746 .033-2.032 .033H-2.527V-.992H-1.866C-1.558-.749-1.25-.463-.941-.132-.633 .198-.314 .617 .017 1.124 .259 .881 .457 .705 .611 .595 .435 .441 .231 .242 0 0M-.677-2.908H-3.848V-3.602H-.677ZM-.677-4.131H-3.848V-4.891H-.677ZM-.677-4.891" fill="#2c292a"/>
<path transform="matrix(1,0,0,-1,223.3004,203.37979)" d="M0 0C.418 0 .885 .012 1.401 .037V-.627C.885-.603 .418-.59 0-.59H-2.36V-1.513C-.91-1.513 .037-1.501 .479-1.476V-2.14C.037-2.116-.91-2.103-2.36-2.103V-3.21C-1.893-3.284-1.315-3.32-.627-3.32 .061-3.32 .823-3.271 1.659-3.173 1.462-3.443 1.34-3.738 1.291-4.058H-.59C-1.131-4.058-1.635-4.027-2.102-3.966-2.569-3.904-3.03-3.787-3.485-3.616-3.94-3.443-4.425-3.136-4.941-2.693-5.04-2.89-5.181-3.117-5.365-3.376-5.55-3.634-5.826-3.948-6.195-4.317-6.441-4.119-6.687-3.948-6.933-3.8-6.441-3.505-6.035-3.075-5.716-2.509-5.396-1.943-5.212-1.415-5.163-.922L-4.278-1.181C-4.351-1.279-4.475-1.562-4.646-2.029-4.204-2.497-3.675-2.829-3.061-3.025V-.59H-5.421C-5.863-.59-6.33-.603-6.822-.627V.037C-6.306 .012-5.839 0-5.421 0ZM-.037 2.472C-.037 1.832-.025 1.23 0 .664H-5.494C-5.47 1.23-5.458 1.832-5.458 2.472-5.458 3.136-5.47 3.652-5.494 4.021H0C-.025 3.652-.037 3.136-.037 2.472M-.774 3.431H-4.7200005V2.693H-.774ZM-.774 2.066H-4.7200005V1.291H-.774ZM-.774 1.291" fill="#2c292a"/>
<path transform="matrix(1,0,0,-1,223.3004,203.37979)" stroke-width=".27" stroke-linecap="butt" stroke-miterlimit="10" stroke-linejoin="miter" fill="none" stroke="#2c292a" d="M0 0C.418 0 .885 .012 1.401 .037V-.627C.885-.603 .418-.59 0-.59H-2.36V-1.513C-.91-1.513 .037-1.501 .479-1.476V-2.14C.037-2.116-.91-2.103-2.36-2.103V-3.21C-1.893-3.284-1.315-3.32-.627-3.32 .061-3.32 .823-3.271 1.659-3.173 1.462-3.443 1.34-3.738 1.291-4.058H-.59C-1.131-4.058-1.635-4.027-2.102-3.966-2.569-3.904-3.03-3.787-3.485-3.616-3.94-3.443-4.425-3.136-4.941-2.693-5.04-2.89-5.181-3.117-5.365-3.376-5.55-3.634-5.826-3.948-6.195-4.317-6.441-4.119-6.687-3.948-6.933-3.8-6.441-3.505-6.035-3.075-5.716-2.509-5.396-1.943-5.212-1.415-5.163-.922L-4.278-1.181C-4.351-1.279-4.475-1.562-4.646-2.029-4.204-2.497-3.675-2.829-3.061-3.025V-.59H-5.421C-5.863-.59-6.33-.603-6.822-.627V.037C-6.306 .012-5.839 0-5.421 0H0ZM-.037 2.472C-.037 1.832-.025 1.23 0 .664H-5.494C-5.47 1.23-5.458 1.832-5.458 2.472-5.458 3.136-5.47 3.652-5.494 4.021H0C-.025 3.652-.037 3.136-.037 2.472ZM-.774 3.431H-4.7200005V2.693H-.774ZM-.774 2.066H-4.7200005V1.291H-.774ZM-.774 1.291"/>
<path transform="matrix(1,0,0,-1,227.8738,200.90799)" d="M0 0H1.659C1.635-.418 1.622-.947 1.622-1.586V-4.833C1.622-5.202 1.635-5.731 1.659-6.419H.922V-5.682H-.959V-6.493H-1.696C-1.672-5.706-1.659-5.215-1.659-5.017V-1.623C-1.659-.959-1.672-.418-1.696 0H-.627C-.504 .566-.406 1.156-.332 1.771 .012 1.648 .295 1.562 .516 1.513 .393 1.291 .221 .787 0 0M.922-.627H-.95900008V-2.4720002H.922ZM.922-3.099H-.95900008V-5.054H.922ZM5.826-5.571C5.777-6.014 5.543-6.309 5.125-6.456 4.707-6.604 4.241-6.702 3.724-6.751 3.7-6.481 3.589-6.198 3.393-5.903 3.884-5.927 4.271-5.915 4.554-5.866 4.836-5.817 5.015-5.706 5.089-5.534 5.162-5.362 5.218-4.858 5.255-4.021 5.292-3.185 5.322-2.017 5.347-.516H3.208C3.011-.984 2.729-1.537 2.36-2.177 2.188-2.005 1.979-1.869 1.733-1.771 1.954-1.476 2.163-1.119 2.36-.701 2.556-.283 2.729 .172 2.876 .664 3.024 1.156 3.109 1.537 3.134 1.808 3.478 1.66 3.773 1.55 4.019 1.476 3.896 1.279 3.792 1.064 3.706 .83 3.619 .596 3.527 .369 3.43 .148H6.047C6.023-.369 6.011-.849 6.011-1.291 5.986-2.792 5.924-4.219 5.826-5.571M3.835-2.804C3.983-3.099 4.154-3.481 4.351-3.948 4.179-4.021 3.946-4.145 3.651-4.316 3.478-3.85 3.319-3.45 3.171-3.117 3.024-2.785 2.876-2.509 2.729-2.287 2.9-2.189 3.122-2.066 3.393-1.918Z" fill="#2c292a"/>
<path transform="matrix(1,0,0,-1,227.8738,200.90799)" stroke-width=".27" stroke-linecap="butt" stroke-miterlimit="10" stroke-linejoin="miter" fill="none" stroke="#2c292a" d="M0 0H1.659C1.635-.418 1.622-.947 1.622-1.586V-4.833C1.622-5.202 1.635-5.731 1.659-6.419H.922V-5.682H-.959V-6.493H-1.696C-1.672-5.706-1.659-5.215-1.659-5.017V-1.623C-1.659-.959-1.672-.418-1.696 0H-.627C-.504 .566-.406 1.156-.332 1.771 .012 1.648 .295 1.562 .516 1.513 .393 1.291 .221 .787 0 0ZM.922-.627H-.95900008V-2.4720002H.922ZM.922-3.099H-.95900008V-5.054H.922ZM5.826-5.571C5.777-6.014 5.543-6.309 5.125-6.456 4.707-6.604 4.241-6.702 3.724-6.751 3.7-6.481 3.589-6.198 3.393-5.903 3.884-5.927 4.271-5.915 4.554-5.866 4.836-5.817 5.015-5.706 5.089-5.534 5.162-5.362 5.218-4.858 5.255-4.021 5.292-3.185 5.322-2.017 5.347-.516H3.208C3.011-.984 2.729-1.537 2.36-2.177 2.188-2.005 1.979-1.869 1.733-1.771 1.954-1.476 2.163-1.119 2.36-.701 2.556-.283 2.729 .172 2.876 .664 3.024 1.156 3.109 1.537 3.134 1.808 3.478 1.66 3.773 1.55 4.019 1.476 3.896 1.279 3.792 1.064 3.706 .83 3.619 .596 3.527 .369 3.43 .148H6.047C6.023-.369 6.011-.849 6.011-1.291 5.986-2.792 5.924-4.219 5.826-5.571ZM3.835-2.804C3.983-3.099 4.154-3.481 4.351-3.948 4.179-4.021 3.946-4.145 3.651-4.316 3.478-3.85 3.319-3.45 3.171-3.117 3.024-2.785 2.876-2.509 2.729-2.287 2.9-2.189 3.122-2.066 3.393-1.918L3.835-2.804Z"/>
<path transform="matrix(1,0,0,-1,236.0639,205.33512)" d="M0 0H1.327V-1.476C1.254-2.09 .946-2.546 .406-2.841L.037-2.509C.479-2.263 .701-1.894 .701-1.402H0Z" fill="#2c292a"/>
<path transform="matrix(1,0,0,-1,236.0639,205.33512)" stroke-width=".27" stroke-linecap="butt" stroke-miterlimit="10" stroke-linejoin="miter" fill="none" stroke="#2c292a" d="M0 0H1.327V-1.476C1.254-2.09 .946-2.546 .406-2.841L.037-2.509C.479-2.263 .701-1.894 .701-1.402H0V0Z"/>
<path transform="matrix(1,0,0,-1,244.5482,202.78949)" d="M0 0C.516 .664 .928 1.352 1.235 2.066 1.542 2.779 1.733 3.369 1.807 3.837 2.176 3.689 2.495 3.579 2.766 3.505 2.569 3.308 2.335 2.754 2.065 1.845V-3.062C2.065-3.825 2.077-4.415 2.102-4.833H1.291C1.315-4.439 1.328-3.862 1.328-3.099V.664C.934-.025 .676-.468 .553-.664 .332-.369 .148-.148 0 0M7.375-3.689C7.596-3.689 8.051-3.677 8.74-3.652V-4.39C8.002-4.366 7.523-4.353 7.301-4.353H3.983C3.688-4.353 3.22-4.366 2.581-4.39V-3.652C3.294-3.677 3.749-3.689 3.946-3.689ZM3.503 1.476C3.503 1.845 3.49 2.324 3.466 2.915H8.002C7.977 2.521 7.965 2.066 7.965 1.549V-1.254C7.965-1.648 7.977-2.029 8.002-2.398H3.466C3.49-2.054 3.503-1.722 3.503-1.402ZM7.191 2.324H4.241V.5899999H7.191ZM7.191 0H4.241V-1.808H7.191ZM7.191-1.808" fill="#2c292a"/>
<path transform="matrix(1,0,0,-1,244.5482,202.78949)" stroke-width=".27" stroke-linecap="butt" stroke-miterlimit="10" stroke-linejoin="miter" fill="none" stroke="#2c292a" d="M0 0C.516 .664 .928 1.352 1.235 2.066 1.542 2.779 1.733 3.369 1.807 3.837 2.176 3.689 2.495 3.579 2.766 3.505 2.569 3.308 2.335 2.754 2.065 1.845V-3.062C2.065-3.825 2.077-4.415 2.102-4.833H1.291C1.315-4.439 1.328-3.862 1.328-3.099V.664C.934-.025 .676-.468 .553-.664 .332-.369 .148-.148 0 0ZM7.375-3.689C7.596-3.689 8.051-3.677 8.74-3.652V-4.39C8.002-4.366 7.523-4.353 7.301-4.353H3.983C3.688-4.353 3.22-4.366 2.581-4.39V-3.652C3.294-3.677 3.749-3.689 3.946-3.689H7.375ZM3.503 1.476C3.503 1.845 3.49 2.324 3.466 2.915H8.002C7.977 2.521 7.965 2.066 7.965 1.549V-1.254C7.965-1.648 7.977-2.029 8.002-2.398H3.466C3.49-2.054 3.503-1.722 3.503-1.402V1.476ZM7.191 2.324H4.241V.5899999H7.191ZM7.191 0H4.241V-1.808H7.191ZM7.191-1.808"/>
<path transform="matrix(1,0,0,-1,261.2167,203.37979)" d="M0 0C.418 0 .885 .012 1.401 .037V-.627C.885-.603 .418-.59 0-.59H-2.36V-1.513C-.91-1.513 .037-1.501 .479-1.476V-2.14C.037-2.116-.91-2.103-2.36-2.103V-3.21C-1.893-3.284-1.315-3.32-.627-3.32 .061-3.32 .823-3.271 1.659-3.173 1.462-3.443 1.339-3.738 1.291-4.058H-.59C-1.131-4.058-1.635-4.027-2.102-3.966-2.569-3.904-3.03-3.787-3.485-3.616-3.94-3.443-4.425-3.136-4.941-2.693-5.04-2.89-5.181-3.117-5.365-3.376-5.55-3.634-5.826-3.948-6.195-4.317-6.441-4.119-6.687-3.948-6.932-3.8-6.441-3.505-6.036-3.075-5.716-2.509-5.396-1.943-5.212-1.415-5.163-.922L-4.278-1.181C-4.351-1.279-4.475-1.562-4.646-2.029-4.204-2.497-3.675-2.829-3.061-3.025V-.59H-5.421C-5.863-.59-6.33-.603-6.822-.627V.037C-6.306 .012-5.839 0-5.421 0ZM-.037 2.472C-.037 1.832-.025 1.23 0 .664H-5.494C-5.47 1.23-5.458 1.832-5.458 2.472-5.458 3.136-5.47 3.652-5.494 4.021H0C-.025 3.652-.037 3.136-.037 2.472M-.774 3.431H-4.7200005V2.693H-.774ZM-.774 2.066H-4.7200005V1.291H-.774ZM-.774 1.291" fill="#2c292a"/>
<path transform="matrix(1,0,0,-1,261.2167,203.37979)" stroke-width=".27" stroke-linecap="butt" stroke-miterlimit="10" stroke-linejoin="miter" fill="none" stroke="#2c292a" d="M0 0C.418 0 .885 .012 1.401 .037V-.627C.885-.603 .418-.59 0-.59H-2.36V-1.513C-.91-1.513 .037-1.501 .479-1.476V-2.14C.037-2.116-.91-2.103-2.36-2.103V-3.21C-1.893-3.284-1.315-3.32-.627-3.32 .061-3.32 .823-3.271 1.659-3.173 1.462-3.443 1.339-3.738 1.291-4.058H-.59C-1.131-4.058-1.635-4.027-2.102-3.966-2.569-3.904-3.03-3.787-3.485-3.616-3.94-3.443-4.425-3.136-4.941-2.693-5.04-2.89-5.181-3.117-5.365-3.376-5.55-3.634-5.826-3.948-6.195-4.317-6.441-4.119-6.687-3.948-6.932-3.8-6.441-3.505-6.036-3.075-5.716-2.509-5.396-1.943-5.212-1.415-5.163-.922L-4.278-1.181C-4.351-1.279-4.475-1.562-4.646-2.029-4.204-2.497-3.675-2.829-3.061-3.025V-.59H-5.421C-5.863-.59-6.33-.603-6.822-.627V.037C-6.306 .012-5.839 0-5.421 0H0ZM-.037 2.472C-.037 1.832-.025 1.23 0 .664H-5.494C-5.47 1.23-5.458 1.832-5.458 2.472-5.458 3.136-5.47 3.652-5.494 4.021H0C-.025 3.652-.037 3.136-.037 2.472ZM-.774 3.431H-4.7200005V2.693H-.774ZM-.774 2.066H-4.7200005V1.291H-.774ZM-.774 1.291"/>
<path transform="matrix(1,0,0,-1,195.6683,198.1489)" d="M0 0C.064 1.42 1.176 2.533 2.557 2.558H12.783C14.1 2.533 15.212 1.42 15.143 0V-9.838C15.212-11.27 14.1-12.383 12.783-12.396H2.557C1.176-12.383 .064-11.27 0-9.838Z" fill="#f43040"/>
</g>
<path transform="matrix(1,0,0,-1,203.0478,208.14362)" d="M0 0V6.235L-1.764 4.702V6.734L0 8.267H1.903V0Z" fill="#ffffff"/>
<g clip-path="url(#clip_5)">
<path transform="matrix(1,0,0,-1,175.597,205.59342)" d="M0 0C-.086-.271-.184-.585-.295-.941-.406-1.297-.498-1.672-.572-2.066-.891-1.869-1.174-1.734-1.42-1.66-1.125-1.144-.916-.689-.793-.295-.67 .098-.572 .43-.498 .701-.424 .971-.35 1.266-.277 1.586-.031 1.439 .203 1.315 .424 1.217 .227 .676 .086 .27 0 0M-.535 2.933C-.756 3.068-1.027 3.21-1.346 3.357-1.198 3.554-1.064 3.75-.94 3.948-.744 3.824-.504 3.683-.221 3.523 .061 3.363 .326 3.197 .572 3.025 .424 2.804 .289 2.607 .166 2.435-.08 2.632-.313 2.798-.535 2.933M-.074 5.884C.184 5.7 .411 5.521 .608 5.35 .411 5.128 .252 4.931 .129 4.759-.117 5.03-.535 5.374-1.125 5.792-.977 5.989-.83 6.173-.682 6.346-.535 6.222-.332 6.069-.074 5.884M2.637-1.107C2.71-1.058 2.747-.959 2.747-.812V2.472H1.936C1.936 2.029 1.911 1.592 1.862 1.162 1.813 .732 1.745 .332 1.659-.037 1.573-.406 1.45-.751 1.291-1.07 1.13-1.389 .916-1.721 .645-2.066 .498-1.845 .289-1.672 .018-1.55 .387-1.23 .664-.83 .848-.35 1.033 .129 1.149 .615 1.198 1.107 1.247 1.599 1.278 2.115 1.291 2.656 1.303 3.197 1.309 3.75 1.309 4.316 1.137 4.316 .891 4.304 .572 4.28V4.87C1.088 4.845 1.42 4.833 1.567 4.833H2.858C3.079 4.833 3.349 4.845 3.669 4.87V4.28C3.374 4.304 3.091 4.316 2.821 4.316H1.973V3.062H3.448C3.423 2.668 3.411 2.299 3.411 1.955V-.959C3.411-1.205 3.331-1.396 3.171-1.531 3.011-1.666 2.661-1.783 2.12-1.882 2.096-1.66 1.997-1.414 1.825-1.144 2.292-1.168 2.563-1.156 2.637-1.107M2.673 5.423C2.476 5.35 2.268 5.239 2.047 5.091 1.973 5.288 1.886 5.479 1.788 5.663 1.69 5.848 1.567 6.038 1.42 6.235 1.616 6.333 1.801 6.444 1.973 6.567 2.366 5.977 2.6 5.595 2.673 5.423M3.835 4.095C3.97 4.341 4.087 4.593 4.185 4.851 4.283 5.11 4.375 5.386 4.462 5.682 4.548 5.977 4.615 6.272 4.665 6.567 4.935 6.444 5.23 6.358 5.55 6.309 5.426 6.136 5.328 5.964 5.255 5.792 5.181 5.62 5.119 5.435 5.07 5.239H5.734C6.226 5.239 6.754 5.251 7.32 5.276V4.649C6.754 4.673 6.213 4.685 5.697 4.685H4.886C4.787 4.488 4.702 4.31 4.628 4.15 4.554 3.99 4.468 3.812 4.37 3.616H6.988V2.915C6.865 2.791 6.723 2.656 6.564 2.509 6.404 2.361 6.226 2.164 6.029 1.918V1.476H6.435C6.606 1.476 6.914 1.488 7.357 1.513V.885C6.963 .91 6.656 .922 6.435 .922H6.029V-1.144C6.029-1.513 5.918-1.752 5.697-1.863 5.476-1.974 5.107-2.066 4.591-2.14 4.566-1.918 4.468-1.648 4.296-1.328 4.689-1.352 4.96-1.352 5.107-1.328 5.255-1.303 5.328-1.144 5.328-.849V.922H4.997C4.702 .922 4.345 .91 3.927 .885V1.513C4.32 1.488 4.665 1.476 4.96 1.476H5.328C5.328 1.697 5.316 1.906 5.292 2.103 5.587 2.348 5.882 2.668 6.177 3.062H5.107L4.37 3.025V3.579C4.222 3.381 4.099 3.185 4.001 2.988 3.829 3.16 3.619 3.32 3.374 3.468 3.546 3.64 3.7 3.849 3.835 4.095" fill="#2c292a"/>
<path transform="matrix(1,0,0,-1,186.8992,200.2432)" d="M0 0C-.025-.369-.074-.903-.147-1.604-.221-2.304-.381-3.085-.627-3.945-.111-4.732 .282-5.346 .553-5.789 .307-5.912 .086-6.06-.111-6.231-.308-5.715-.59-5.212-.959-4.72-1.573-5.728-2.151-6.526-2.692-7.116-2.864-6.845-3.073-6.624-3.319-6.453-2.802-6.035-2.415-5.648-2.157-5.291-1.899-4.935-1.672-4.535-1.475-4.093-1.672-3.7-2.139-3.048-2.876-2.139-2.705-2.041-2.532-1.893-2.36-1.696-1.77-2.458-1.364-2.987-1.143-3.282-.996-2.839-.861-1.942-.737-.59H-1.77C-2.237-.59-2.692-.603-3.134-.627V.037C-2.717 .012-2.274 0-1.807 0ZM1.291 1.18C1.635 1.13 1.905 1.106 2.102 1.106 2.028 .024 2.04-.898 2.139-1.659 3.688-1.29 4.634-1.057 4.978-.959L5.089-1.696C4.794-1.721 3.835-1.917 2.213-2.286 2.311-3.221 2.483-3.958 2.729-4.498 3.171-3.737 3.466-3.06 3.614-2.47 3.81-2.618 4.105-2.741 4.499-2.839 4.278-3.085 4.087-3.399 3.927-3.779 3.767-4.161 3.478-4.659 3.061-5.273 3.503-5.863 3.847-6.238 4.093-6.397 4.339-6.557 4.499-6.563 4.573-6.416 4.646-6.268 4.707-6.023 4.757-5.678 4.978-5.851 5.224-5.986 5.494-6.084 5.322-6.551 5.175-6.889 5.052-7.098 4.929-7.306 4.769-7.43 4.573-7.467 4.376-7.503 4.062-7.337 3.632-6.969 3.202-6.6 2.839-6.182 2.544-5.715 1.782-6.477 1.192-7.03 .774-7.374 .602-7.153 .369-6.969 .074-6.821 .614-6.502 1.063-6.182 1.42-5.863 1.776-5.543 2.04-5.285 2.213-5.088 1.918-4.4 1.696-3.528 1.549-2.47 1.18-2.544 .725-2.655 .185-2.802L.074-2.065C.467-2.016 .934-1.917 1.475-1.77 1.401-1.205 1.34-.221 1.291 1.18M4.388-.295C4.191-.393 3.97-.516 3.724-.664 3.601-.492 3.331-.16 2.913 .332 3.134 .479 3.331 .627 3.503 .774 3.921 .258 4.216-.098 4.388-.295" fill="#2c292a"/>
<path transform="matrix(1,0,0,-1,287.6083,270.8991)" d="M0 0H1.09C.98-.859 .875-1.466 .776-1.818 .677-2.171 .572-2.49 .462-2.776 .771-3.063 1.123-3.278 1.52-3.421 1.916-3.564 2.378-3.663 2.907-3.718 3.435-3.773 3.997-3.795 4.592-3.784 5.186-3.773 5.781-3.735 6.375-3.669 6.221-3.889 6.133-4.131 6.111-4.396 5.098-4.417 4.267-4.412 3.617-4.379 2.967-4.346 2.428-4.28 1.998-4.181 1.569-4.082 1.216-3.955 .941-3.801 .666-3.647 .407-3.47 .165-3.272-.099-3.669-.441-4.076-.859-4.495-1.013-4.318-1.189-4.164-1.388-4.032-.947-3.724-.573-3.327-.264-2.842-.463-2.578-.623-2.336-.743-2.115-.865-1.895-.98-1.642-1.09-1.355-.98-1.333-.793-1.256-.529-1.124-.463-1.388-.276-1.774 .033-2.28 .187-1.818 .308-1.234 .396-.529-.088-.529-.474-.584-.76-.694L-.925-.099C-.661-.011-.441 .248-.264 .678-.088 1.107 .066 1.498 .198 1.851-.243 1.851-.65 1.839-1.024 1.818V2.38C-.584 2.357 .088 2.347 .991 2.347 .925 2.17 .594 1.388 0 0M3.072 3.173H3.733C3.711 2.975 3.7 2.732 3.7 2.446H5.484C5.461 2.181 5.451 1.806 5.451 1.322 5.759 1.322 6.034 1.333 6.276 1.355V.793C6.056 .815 5.781 .826 5.451 .826 5.451 .341 5.461-.033 5.484-.297H3.7V-.958C4.559-.958 5.131-.948 5.418-.925V-1.487C5.153-1.466 4.58-1.454 3.7-1.454V-2.115H4.691C5.109-2.115 5.494-2.104 5.847-2.082V-2.677C5.494-2.655 5.109-2.644 4.691-2.644H3.7C3.7-3.019 3.711-3.338 3.733-3.602H3.072C3.094-3.338 3.105-3.019 3.105-2.644H2.345C2.015-2.644 1.652-2.655 1.255-2.677V-2.082C1.629-2.104 2.004-2.115 2.378-2.115H3.105V-1.454C2.488-1.454 1.949-1.466 1.486-1.487V-.925C1.971-.948 2.51-.958 3.105-.958V-.297C2.532-.297 2.048-.309 1.652-.331V.231C2.048 .209 2.532 .198 3.105 .198V.826H2.51C2.114 .826 1.673 .815 1.189 .793V1.355C1.673 1.333 2.114 1.322 2.51 1.322H3.105V1.95C2.51 1.95 2.015 1.939 1.618 1.917V2.479C2.015 2.456 2.51 2.446 3.105 2.446 3.105 2.732 3.094 2.975 3.072 3.173M4.856 1.95H3.6999999V1.322H4.856ZM4.856 .826H3.6999999V.19799996H4.856ZM4.856 .198" fill="#2c292a"/>
<path transform="matrix(1,0,0,-1,295.3118,274.733)" d="M0 0C.308 .198 .463 .463 .463 .793V3.735H.033C-.187 3.735-.429 3.723-.694 3.702V4.363C-.429 4.318-.187 4.297 .033 4.297H1.123C1.101 3.922 1.09 3.492 1.09 3.008V.925C1.332 1.19 1.652 1.553 2.048 2.016 2.136 1.906 2.28 1.729 2.478 1.487 2.147 1.157 1.817 .82 1.487 .479 1.156 .137 .848-.242 .562-.661 .407-.463 .22-.242 0 0M1.421 5.486C1.222 5.398 1.013 5.288 .793 5.156 .44 5.905 .198 6.379 .066 6.577 .264 6.665 .451 6.775 .628 6.908 .98 6.313 1.244 5.839 1.421 5.486M3.006 4.445C3.094 4.059 3.226 3.669 3.403 3.272 3.579 2.875 3.854 2.423 4.229 1.917 4.514 2.467 4.718 2.969 4.84 3.421 4.96 3.872 5.065 4.318 5.153 4.759 5.241 5.2 5.319 5.706 5.385 6.28 5.627 6.213 5.913 6.158 6.243 6.114 6.111 5.916 6.023 5.723 5.979 5.536 5.935 5.348 5.88 5.078 5.814 4.726 5.748 4.373 5.649 3.922 5.517 3.371 5.385 2.82 5.12 2.159 4.724 1.388 5.076 1.035 5.429 .765 5.781 .578 6.133 .391 6.562 .231 7.069 .099 6.827-.077 6.629-.341 6.475-.694 5.902-.364 5.484-.116 5.219 .05 4.955 .215 4.636 .496 4.261 .892 3.865 .451 3.513 .116 3.204-.116 2.896-.347 2.565-.584 2.213-.826 2.015-.672 1.773-.473 1.487-.231 1.949-.055 2.384 .17 2.791 .446 3.199 .721 3.523 1.035 3.766 1.388 3.347 1.939 3.039 2.456 2.841 2.941 2.643 3.426 2.494 3.872 2.395 4.28 2.296 4.687 2.202 5.145 2.114 5.652 2.334 5.673 2.565 5.718 2.808 5.784 2.852 5.277 2.918 4.831 3.006 4.445M4.559 4.429C4.294 4.406 4.074 4.363 3.898 4.297 3.766 5.09 3.579 5.938 3.337 6.841 3.535 6.908 3.755 6.974 3.997 7.04 4.239 5.982 4.427 5.111 4.559 4.429" fill="#2c292a"/>
<path transform="matrix(1,0,0,-1,309.54,269.5441)" d="M0 0C-.231-.243-.556-.573-.974-.991H-.049C.325-.991 .71-.981 1.107-.958V-1.553C.71-1.532 .314-1.52-.082-1.52H-1.635C-1.988-1.785-2.384-2.071-2.824-2.38H-.017C-.039-2.776-.049-3.14-.049-3.47V-4.627C-.049-5.024-.039-5.453-.017-5.916H-.677V-5.42H-3.848V-5.916H-4.542C-4.52-5.563-4.509-5.233-4.509-4.924V-3.404C-4.95-3.647-5.445-3.889-5.996-4.131-6.216-3.823-6.37-3.636-6.458-3.569-6.304-3.526-6.012-3.421-5.583-3.255-5.153-3.09-4.796-2.908-4.509-2.71V-2.38H-3.881C-3.397-2.115-2.968-1.829-2.593-1.52H-4.939C-5.401-1.52-5.831-1.532-6.227-1.553V-.958C-5.786-.981-5.357-.991-4.939-.991H-3.188V.033H-4.179C-4.553 .033-4.895 .022-5.203 0V.595C-4.895 .573-4.553 .562-4.179 .562H-3.188C-3.188 .892-3.199 1.267-3.221 1.686H-2.494C-2.516 1.377-2.527 1.002-2.527 .562H-2.031C-1.746 .562-1.415 .573-1.04 .595V0C-1.415 .022-1.746 .033-2.031 .033H-2.527V-.991H-1.866C-1.558-.749-1.25-.463-.941-.132-.633 .198-.314 .617 .017 1.124 .259 .881 .457 .705 .611 .595 .435 .44 .231 .242 0 0M-.677-2.908H-3.848V-3.602H-.677ZM-.677-4.131H-3.848V-4.891H-.677ZM-.677-4.891" fill="#2c292a"/>
<path transform="matrix(1,0,0,-1,301.3944,261.6247)" d="M0 0H.864V-1.189H2.053V-2.054H.864V-3.243H0V-2.054H-1.189V-1.189H0ZM.431 .596C-.161 .596-.717 .366-1.135-.053-1.553-.474-1.784-1.029-1.784-1.621-1.784-2.214-1.553-2.771-1.135-3.189-.716-3.607-.161-3.838 .431-3.838 1.025-3.838 1.581-3.607 1.999-3.189 2.417-2.771 2.647-2.214 2.647-1.621 2.647-1.029 2.417-.471 1.999-.053 1.58 .366 1.025 .596 .431 .596M.431 1.75C2.293 1.75 3.8 .24 3.8-1.621 3.8-3.483 2.293-4.991 .431-4.991-1.429-4.991-2.936-3.483-2.936-1.621-2.936 .24-1.429 1.75 .431 1.75M-4.972 8.772C-5.794 8.772-6.568 8.451-7.15 7.868-7.732 7.287-8.052 6.51-8.052 5.688-8.052 4.866-7.732 4.09-7.15 3.509-6.568 2.926-5.795 2.605-4.972 2.605-4.148 2.605-3.374 2.926-2.792 3.509-2.21 4.09-1.89 4.864-1.89 5.688-1.89 6.511-2.212 7.287-2.795 7.868-3.376 8.451-4.148 8.772-4.972 8.772M-4.972 9.926C-2.632 9.926-.737 8.027-.737 5.688-.737 4.161-1.546 2.821-2.759 2.077-2.639 2.038-2.523 1.995-2.405 1.949-2.732 1.682-3.02 1.371-3.261 1.023-3.812 1.189-4.385 1.274-4.972 1.274-5.774 1.274-6.55 1.117-7.279 .808-7.985 .511-8.62 .081-9.163-.462-9.707-1.007-10.134-1.642-10.434-2.348-10.722-3.029-10.876-3.751-10.896-4.498H-12.049C-11.983-1.427-9.962 1.161-7.184 2.076-8.396 2.82-9.205 4.159-9.205 5.688-9.205 8.029-7.311 9.926-4.972 9.926" fill="#f43040"/>
<path transform="matrix(1,0,0,-1,191.1907,244.22132)" d="M0 0-2.026 1.988C-2.261 2.219-2.612 2.219-2.847 1.988-3.081 1.758-3.081 1.412-2.847 1.18L-1.844 .172H-5.258C-5.58 .172-5.844-.087-5.844-.405-5.844-.722-5.58-.982-5.258-.982H-1.844L-2.856-2.004C-3.121-2.263-3.091-2.697-2.768-2.899-2.535-3.071-2.212-3.014-2.007-2.812L0-.809C.235-.578 .235-.231 0 0M-5.403 1.927C-5.303 1.842-5.173 1.788-5.029 1.788-4.714 1.788-4.459 2.039-4.459 2.349-4.458 2.534-4.551 2.698-4.694 2.8V2.807C-5.262 3.229-5.861 3.518-6.425 3.716-5.071 4.538-4.149 5.985-4.149 7.685-4.149 10.265-6.282 12.307-8.875 12.307-11.467 12.307-13.598 10.237-13.598 7.657-13.598 5.985-12.706 4.511-11.352 3.716-15.24 2.326-15.587-1.615-15.587-1.671-15.615-1.983-15.385-2.267-15.068-2.267-14.752-2.295-14.463-2.068-14.435-1.756-14.435-1.558-14.002 2.753-8.932 3.037-8.806 3.037-6.981 3.102-5.404 1.927ZM-8.875 4.169C-10.833 4.169-12.446 5.728-12.446 7.685-12.446 9.642-10.833 11.173-8.875 11.173-6.916 11.173-5.303 9.614-5.303 7.657-5.303 5.701-6.916 4.169-8.875 4.169" fill="#f43040"/>
<path transform="matrix(1,0,0,-1,177.8687,290.3289)" d="M0 0C.462 0 .881 .011 1.255 .033V-.595C.925-.573 .506-.562 0-.562H-1.553C-1.553-1.289-1.575-1.95-1.619-2.545H.925C1.321-2.545 1.685-2.534 2.015-2.512V-3.14C1.685-3.118 1.332-3.107 .958-3.107H-.529V-5.685C-.529-5.971-.363-6.114-.033-6.114H1.09C1.332-6.114 1.464-5.784 1.487-5.123 1.706-5.255 1.949-5.354 2.213-5.42 2.103-6.28 1.85-6.709 1.453-6.709H-.363C-.87-6.687-1.123-6.4-1.123-5.85V-3.107H-1.685C-1.861-3.944-2.076-4.577-2.329-5.007-2.582-5.437-2.874-5.8-3.204-6.098-3.535-6.395-4.03-6.731-4.691-7.106-4.801-6.863-4.988-6.676-5.253-6.544-4.724-6.301-4.294-6.054-3.964-5.8-3.634-5.547-3.32-5.233-3.023-4.858-2.725-4.484-2.489-3.9-2.312-3.107H-3.766C-4.317-3.107-4.713-3.118-4.955-3.14V-2.512C-4.713-2.534-4.317-2.545-3.766-2.545H-2.246C-2.225-1.884-2.213-1.223-2.213-.562H-3.105C-3.546-.562-3.953-.573-4.327-.595V.033C-3.953 .011-3.546 0-3.105 0Z" fill="#2c292a"/>
<path transform="matrix(1,0,0,-1,183.8051,296.1457)" d="M0 0C-.297-.066-.595-.138-.892-.215-1.189-.292-1.498-.38-1.817-.479-2.136-.578-2.439-.683-2.725-.793-2.77-.595-2.847-.331-2.957 0-2.714 .044-2.494 .088-2.296 .132V4.396C-2.296 4.858-2.307 5.31-2.329 5.751H.413C.391 5.354 .38 4.913 .38 4.429V.628C.468 .65 .611 .683 .809 .727V.165C.567 .121 .297 .066 0 0M-.281 5.222H-1.668V3.966H-.281ZM-.281 3.47H-1.668V2.148H-.281ZM-.958 .364C-.749 .407-.523 .451-.281 .496V1.619H-1.668V.231C-1.404 .275-1.168 .319-.958 .364M1.206 .314C1.426 .699 1.586 1.101 1.685 1.52 1.784 1.939 1.855 2.368 1.899 2.809 1.943 3.25 1.966 3.669 1.966 4.065 1.591 4.065 1.25 4.054 .941 4.032V4.627C1.227 4.605 1.569 4.594 1.966 4.594V5.354C1.966 5.596 1.954 5.927 1.932 6.346 2.175 6.323 2.461 6.313 2.791 6.313 2.725 6.026 2.687 5.739 2.676 5.453 2.664 5.167 2.659 4.88 2.659 4.594H4.509C4.443 4.241 4.41 3.812 4.41 3.305L4.212-.066C4.19-.484 4.047-.732 3.782-.81 3.518-.887 3.176-.947 2.758-.992 2.714-.705 2.637-.44 2.527-.198 2.945-.198 3.232-.193 3.386-.182 3.54-.171 3.617 .044 3.617 .463L3.782 4.065H2.659C2.615 3.14 2.538 2.39 2.428 1.818 2.318 1.245 2.18 .793 2.015 .463 1.85 .132 1.685-.16 1.52-.413 1.354-.666 1.161-.914 .941-1.157 .765-.98 .523-.837 .215-.727 .655-.419 .985-.072 1.206 .314" fill="#2c292a"/>
<path transform="matrix(1,0,0,-1,195.7703,291.4525)" d="M0 0C-.231-.243-.556-.573-.974-.992H-.05C.325-.992 .71-.981 1.107-.958V-1.553C.71-1.532 .314-1.52-.083-1.52H-1.635C-1.988-1.785-2.384-2.071-2.824-2.38H-.017C-.039-2.776-.05-3.14-.05-3.47V-4.627C-.05-5.024-.039-5.453-.017-5.916H-.677V-5.42H-3.848V-5.916H-4.542C-4.521-5.563-4.509-5.233-4.509-4.924V-3.404C-4.95-3.647-5.445-3.889-5.996-4.131-6.216-3.823-6.37-3.636-6.458-3.569-6.304-3.526-6.012-3.421-5.583-3.255-5.153-3.09-4.796-2.908-4.509-2.71V-2.38H-3.881C-3.397-2.115-2.968-1.829-2.593-1.52H-4.939C-5.401-1.52-5.831-1.532-6.227-1.553V-.958C-5.787-.981-5.357-.992-4.939-.992H-3.188V.033H-4.179C-4.554 .033-4.895 .022-5.203 0V.595C-4.895 .573-4.554 .562-4.179 .562H-3.188C-3.188 .892-3.199 1.267-3.221 1.686H-2.494C-2.516 1.377-2.527 1.002-2.527 .562H-2.032C-1.746 .562-1.415 .573-1.041 .595V0C-1.415 .022-1.746 .033-2.032 .033H-2.527V-.992H-1.866C-1.558-.749-1.25-.463-.941-.132-.633 .198-.314 .617 .017 1.124 .259 .881 .457 .705 .611 .595 .435 .44 .231 .242 0 0M-.677-2.908H-3.848V-3.602H-.677ZM-.677-4.131H-3.848V-4.891H-.677ZM-.677-4.891" fill="#2c292a"/>
<path transform="matrix(1,0,0,-1,191.1907,285.9348)" d="M0 0-2.026 1.988C-2.261 2.219-2.612 2.219-2.847 1.988-3.081 1.758-3.081 1.412-2.847 1.18L-1.844 .172H-5.258C-5.58 .172-5.844-.087-5.844-.405-5.844-.722-5.58-.982-5.258-.982H-1.844L-2.856-2.004C-3.121-2.263-3.091-2.697-2.768-2.899-2.535-3.071-2.212-3.014-2.007-2.812L0-.809C.235-.578 .235-.231 0 0M-5.403 1.927C-5.303 1.842-5.173 1.788-5.029 1.788-4.714 1.788-4.459 2.039-4.459 2.349-4.458 2.534-4.551 2.698-4.694 2.8V2.807C-5.262 3.229-5.861 3.518-6.425 3.716-5.071 4.539-4.149 5.985-4.149 7.685-4.149 10.265-6.282 12.307-8.875 12.307-11.467 12.307-13.598 10.237-13.598 7.657-13.598 5.985-12.706 4.511-11.352 3.716-15.24 2.326-15.587-1.615-15.587-1.671-15.615-1.983-15.385-2.267-15.068-2.267-14.752-2.295-14.463-2.068-14.435-1.756-14.435-1.558-14.002 2.753-8.932 3.037-8.806 3.037-6.981 3.102-5.404 1.927ZM-8.875 4.169C-10.833 4.169-12.446 5.729-12.446 7.685-12.446 9.642-10.833 11.173-8.875 11.173-6.916 11.173-5.303 9.614-5.303 7.657-5.303 5.701-6.916 4.169-8.875 4.169" fill="#f43040"/>
<path transform="matrix(1,0,0,-1,291.5213,248.4993)" stroke-width="1" stroke-linecap="butt" stroke-miterlimit="10" stroke-linejoin="miter" fill="none" stroke="#f43040" d="M0 0C0 4.001-3.242 7.245-7.156 7.259H-76.776C-80.564 7.246-83.63 4.344-83.984 .637L-85.823-.415-83.865-1.581C-83.134-4.814-80.248-7.253-76.776-7.302H-7.156C-3.242-7.245 0-4.001 0 0Z"/>
<path transform="matrix(1,0,0,-1,220.1765,251.0144)" d="M0 0V2.611C-.375 2.611-.738 2.589-1.09 2.545V3.107H.661C.638 2.71 .628 2.38 .628 2.115V.132C1.134-.441 2.004-.727 3.237-.727 4.493-.727 5.484-.672 6.21-.562 6.056-.804 5.957-1.079 5.913-1.388 5.076-1.388 4.366-1.382 3.782-1.372 3.199-1.36 2.714-1.327 2.329-1.272 1.943-1.217 1.635-1.14 1.404-1.041 1.173-.942 .925-.793 .661-.595 .396-.397 .121-.43-.165-.694-.452-.958-.672-1.19-.826-1.388-1.024-1.102-1.189-.903-1.321-.793-.661-.353-.22-.088 0 0M.694 4.429C.473 4.297 .286 4.164 .132 4.032-.198 4.605-.562 5.09-.958 5.486-.782 5.596-.595 5.739-.396 5.916 .198 5.189 .562 4.693 .694 4.429M3.634 2.347C3.942 2.853 4.162 3.404 4.294 3.999 2.621 3.999 1.586 3.988 1.189 3.966V4.561C1.586 4.539 1.894 4.528 2.114 4.528H4.757C5.087 4.528 5.451 4.539 5.847 4.561V3.966C5.406 3.988 5.12 3.999 4.988 3.999 4.746 3.14 4.47 2.434 4.162 1.884L4.856 1.19C5.098 .947 5.385 .65 5.715 .297 5.472 .143 5.274-.033 5.12-.231 4.878 .077 4.663 .336 4.476 .545 4.289 .755 4.03 1.025 3.7 1.355 3.413 1.002 3.116 .716 2.808 .496 2.499 .275 2.103 .022 1.619-.264 1.553-.11 1.387 .088 1.123 .331 1.52 .441 1.916 .639 2.312 .925 2.709 1.212 3.017 1.498 3.237 1.785 2.995 2.071 2.445 2.556 1.586 3.239L2.048 3.702C2.797 3.128 3.325 2.677 3.634 2.347M2.477 5.817C2.676 5.949 2.83 6.081 2.94 6.213 3.512 5.619 3.854 5.255 3.964 5.123 3.832 5.012 3.667 4.869 3.469 4.693 3.358 4.913 3.028 5.288 2.477 5.817" fill="#2c292a"/>
<path transform="matrix(1,0,0,-1,234.9827,248.03989)" d="M0 0C-.221-.264-.385-.518-.496-.76-1.927-.144-3.084 .837-3.964 2.181-4.779 .881-5.869-.132-7.235-.859-7.345-.661-7.532-.452-7.796-.231-6.739 .209-5.919 .771-5.335 1.454-4.752 2.137-4.361 2.754-4.162 3.305-3.898 3.195-3.634 3.095-3.37 3.008-3.458 2.897-3.535 2.798-3.601 2.71-2.676 1.344-1.476 .441 0 0M-4.262-.562C-4.262-.21-4.283 .242-4.328 .793H-3.568C-3.59 .418-3.601-.044-3.601-.595V-2.941C-3.601-3.449-3.59-3.966-3.568-4.495H-4.295C-4.273-3.944-4.262-3.437-4.262-2.975Z" fill="#2c292a"/>
<path transform="matrix(1,0,0,-1,243.2481,249.56021)" d="M0 0V-.595C-.22-.573-.584-.562-1.09-.562-1.09-1.135-1.079-1.586-1.057-1.917H-1.718V-1.586H-3.502V-2.214C-3.524-2.479-3.617-2.655-3.783-2.743-3.948-2.831-4.273-2.908-4.757-2.975-4.801-2.754-4.911-2.512-5.087-2.247-4.691-2.247-4.427-2.236-4.294-2.214-4.162-2.192-4.096-2.127-4.096-2.016V-1.586H-5.946C-6.189-1.586-6.475-1.598-6.805-1.619V-1.025C-6.475-1.047-6.189-1.058-5.946-1.058H-4.096V-.562H-6.574C-6.86-.562-7.135-.573-7.4-.595V0C-7.135-.022-6.86-.033-6.574-.033H-4.096V.43H-6.012C-6.255 .43-6.519 .418-6.805 .397V.991C-6.519 .969-6.255 .958-6.012 .958H-4.096V1.388H-6.409C-6.387 1.719-6.376 2.016-6.376 2.28-6.376 2.567-6.387 2.842-6.409 3.107H-4.096V3.569H-6.442C-6.794 3.569-7.125 3.558-7.433 3.536V4.131C-7.125 4.109-6.805 4.098-6.475 4.098H-4.096C-4.096 4.252-4.108 4.45-4.129 4.693H-3.469C-3.491 4.517-3.502 4.318-3.502 4.098H-1.255C-.881 4.098-.496 4.109-.099 4.131V3.536C-.496 3.558-.881 3.569-1.255 3.569H-3.502V3.107H-1.123C-1.145 2.842-1.156 2.567-1.156 2.28-1.156 1.994-1.145 1.696-1.123 1.388H-3.502V.958H-1.057C-1.079 .738-1.09 .407-1.09-.033-.76-.033-.396-.022 0 0M-4.096 2.578H-5.781V1.917H-4.096ZM-1.784 2.578H-3.502V1.917H-1.784ZM-1.718 .43H-3.502V-.032999994H-1.718ZM-1.718-.562H-3.502V-1.058H-1.718ZM-1.718-1.058" fill="#2c292a"/>
<path transform="matrix(1,0,0,-1,244.6093,248.7009)" d="M0 0C-.198 .066-.408 .11-.628 .132-.474 .463-.331 1.168-.198 2.247 0 2.203 .209 2.17 .429 2.148 .385 1.95 .242 1.234 0 0M1.222 2.809V-2.446C1.222-2.908 1.233-3.36 1.255-3.801H.561C.605-3.36 .628-2.908 .628-2.446V2.71C.628 3.151 .605 3.547 .561 3.9H1.255C1.233 3.525 1.222 3.161 1.222 2.809M1.387 2.247C1.541 2.269 1.729 2.314 1.949 2.38 2.081 1.917 2.191 1.564 2.279 1.322 2.037 1.256 1.828 1.19 1.652 1.124 1.607 1.388 1.52 1.763 1.387 2.247M2.18 1.289C2.709 1.267 3.193 1.256 3.634 1.256H4.294V1.785H3.667C3.292 1.785 2.907 1.773 2.51 1.752V2.314C2.907 2.291 3.292 2.28 3.667 2.28H4.294V2.743H3.601C3.248 2.743 2.819 2.732 2.312 2.71V3.272C2.841 3.25 3.27 3.239 3.601 3.239H4.294C4.294 3.459 4.283 3.679 4.261 3.9H4.955C4.933 3.679 4.922 3.459 4.922 3.239H5.814C6.188 3.239 6.541 3.25 6.871 3.272V2.71C6.541 2.732 6.188 2.743 5.814 2.743H4.922V2.28H5.55C5.902 2.28 6.265 2.291 6.64 2.314V1.752C6.243 1.773 5.88 1.785 5.55 1.785H4.922V1.256H5.88C6.409 1.256 6.838 1.267 7.168 1.289V.727C6.838 .749 6.397 .76 5.847 .76H3.667C3.094 .76 2.598 .749 2.18 .727ZM2.709-1.058C2.709-.551 2.697-.088 2.676 .331H6.442C6.419-.044 6.409-.397 6.409-.727V-3.206C6.409-3.448 6.32-3.602 6.144-3.669 5.968-3.735 5.748-3.789 5.483-3.834 5.461-3.635 5.385-3.426 5.252-3.206 5.56-3.206 5.737-3.173 5.781-3.107 5.825-3.041 5.847-2.798 5.847-2.38H3.303V-3.834H2.676C2.697-3.327 2.709-2.887 2.709-2.512ZM5.814-.165H3.3030003V-.76000007H5.814ZM5.814-1.256H3.3030003V-1.8840001H5.814ZM5.814-1.884" fill="#2c292a"/>
</g>
<path transform="matrix(1,0,0,-1,0,595.276)" d="M260.185 346.332H261.035V347.179H260.185ZM257.369 346.332H258.215V347.179H257.369ZM254.549 346.332H255.396V347.179H254.549Z" fill="#2c292a"/>
<path transform="matrix(1,0,0,-1,0,595.276)" d="M268.582 346.332H269.433V347.179H268.582ZM265.766 346.332H266.61299V347.179H265.766ZM262.947 346.332H263.793V347.179H262.947Z" fill="#2c292a"/>
<path transform="matrix(1,0,0,-1,0,595.276)" d="M255.288 329.408H256.138V330.25498H255.288ZM252.472 329.408H253.319V330.25498H252.472ZM249.652 329.408H250.49799V330.25498H249.652Z" fill="#2c292a"/>
<path transform="matrix(1,0,0,-1,0,595.276)" d="M263.686 329.408H264.53703V330.25498H263.686ZM260.869 329.408H261.715V330.25498H260.869ZM258.049 329.408H258.896V330.25498H258.049Z" fill="#2c292a"/>
<path transform="matrix(1,0,0,-1,0,595.276)" d="M256.91 311.672H257.76V312.51899H256.91ZM254.094 311.672H254.93999V312.51899H254.094ZM251.274 311.672H252.121V312.51899H251.274Z" fill="#2c292a"/>
<path transform="matrix(1,0,0,-1,0,595.276)" d="M265.307 311.672H266.157V312.51899H265.307ZM262.491 311.672H263.33799V312.51899H262.491ZM259.672 311.672H260.518V312.51899H259.672Z" fill="#2c292a"/>
<g clip-path="url(#clip_6)">
<path transform="matrix(1,0,0,-1,268.9657,265.1399)" stroke-width="1" stroke-linecap="butt" stroke-miterlimit="10" stroke-linejoin="miter" fill="none" stroke="#f43040" d="M0 0C-.33 3.72-3.43 6.702-7.217 6.781H-76.837C-80.805 6.699-84.048 3.455-84.048-.547-84.048-4.548-80.805-7.792-76.837-7.779H-7.217C-3.853-7.79-1.026-5.439-.201-2.25L1.829-1.089 0 0Z"/>
<path transform="matrix(1,0,0,-1,191.7418,264.3375)" d="M0 0C-.243-.353-.441-.661-.595-.925-.727-.771-.914-.617-1.156-.463-.738-.022-.369 .479-.049 1.041 .269 1.603 .506 2.192 .661 2.809 .815 2.699 1.068 2.589 1.42 2.479 1.288 2.302 1.024 1.829 .628 1.058V-3.239C.628-3.922 .638-4.473 .661-4.891H-.033C-.011-4.539 0-3.977 0-3.206ZM2.23 1.421C2.505 2.082 2.643 2.512 2.643 2.71 2.907 2.6 3.193 2.512 3.502 2.446 3.369 2.335 3.171 1.994 2.907 1.421H6.376C6.31 1.223 6.21 .953 6.078 .611 5.946 .27 5.825-.055 5.715-.364 5.495-.297 5.274-.243 5.054-.198 5.208 .132 5.352 .484 5.484 .859H2.676C2.411 .286 2.103-.243 1.751-.727 1.574-.617 1.343-.529 1.057-.463 1.563 .132 1.954 .76 2.23 1.421M2.445-1.124C2.709-1.256 2.918-1.366 3.072-1.454 2.94-1.675 2.742-1.983 2.478-2.38 2.213-2.776 1.916-3.173 1.586-3.569 1.409-3.416 1.233-3.272 1.057-3.14 1.607-2.567 2.07-1.895 2.445-1.124M3.303-4.115C3.436-4.06 3.502-3.944 3.502-3.768V-.992C3.502-.463 3.49-.077 3.469 .165H4.162C4.14-.077 4.129-.463 4.129-.992V-4.131C4.129-4.417 4.008-4.611 3.766-4.71 3.523-4.809 3.193-4.891 2.775-4.958 2.73-4.737 2.621-4.483 2.445-4.197 2.885-4.197 3.171-4.17 3.303-4.115M6.574-3.107C6.442-3.195 6.232-3.327 5.946-3.503 5.571-2.799 5.142-2.094 4.658-1.388 4.878-1.256 5.054-1.146 5.186-1.058 5.715-1.785 6.177-2.468 6.574-3.107" fill="#2c292a"/>
<path transform="matrix(1,0,0,-1,203.129,262.5528)" d="M0 0C-.033-.375-.083-.871-.149-1.487H3.254C3.209-1.862 3.176-2.181 3.155-2.446L2.791-5.751C2.725-6.147 2.516-6.4 2.164-6.511 1.811-6.621 1.371-6.687 .842-6.709 .776-6.4 .666-6.136 .512-5.916 1.173-5.96 1.602-5.949 1.8-5.883 1.999-5.817 2.119-5.619 2.164-5.288L2.494-2.049H-.215C-.413-3.063-.782-3.944-1.321-4.693-1.861-5.443-2.538-6.114-3.353-6.709-3.573-6.423-3.772-6.224-3.948-6.114-3.243-5.762-2.61-5.238-2.048-4.544-1.487-3.85-1.107-3.019-.908-2.049H-1.999C-2.373-2.049-2.857-2.06-3.452-2.082V-1.454C-2.857-1.477-2.45-1.487-2.23-1.487H-.809C-.722-.738-.677 .088-.677 .991-.325 .925-.039 .881 .182 .859 .093 .661 .033 .374 0 0M-2.494 .562C-1.878-.033-1.459-.463-1.239-.727-1.415-.882-1.602-1.047-1.8-1.223-2.043-.871-2.439-.43-2.99 .099-2.791 .253-2.626 .407-2.494 .562M1.8-4.131C1.668-4.263 1.514-4.484 1.338-4.792 .853-4.352 .347-3.966-.182-3.636-.028-3.393 .083-3.195 .149-3.041 .699-3.393 1.25-3.757 1.8-4.131" fill="#2c292a"/>
<path transform="matrix(1,0,0,-1,209.9243,262.6189)" d="M0 0C-.132-.243-.264-.507-.396-.793V-5.321C-.396-5.894-.386-6.346-.363-6.676H-1.123C-1.101-6.301-1.09-5.872-1.09-5.387V-2.016C-1.354-2.479-1.641-2.92-1.949-3.338-2.081-3.184-2.246-3.019-2.445-2.842-2.048-2.446-1.63-1.818-1.189-.958-.749-.099-.474 .562-.363 1.025-.121 .87 .132 .749 .396 .661 .264 .463 .132 .242 0 0M2.114-1.686V-.033C2.114 .275 2.103 .606 2.081 .958H2.841C2.797 .606 2.775 .275 2.775-.033V-1.686H4.129C4.415-1.686 4.757-1.675 5.153-1.653V-2.314C4.779-2.292 4.448-2.28 4.162-2.28H2.775V-5.519C2.775-5.872 2.786-6.235 2.808-6.61H2.081C2.103-6.257 2.114-5.905 2.114-5.552V-2.28H.958C.605-2.28 .264-2.292-.066-2.314V-1.653C.264-1.675 .595-1.686 .925-1.686Z" fill="#2c292a"/>
<path transform="matrix(1,0,0,-1,219.4285,262.999)" d="M0 0C-.297-.474-.677-.975-1.14-1.504-1.602-2.033-2.23-2.627-3.023-3.288-3.177-3.046-3.353-2.848-3.551-2.694-3.001-2.385-2.384-1.829-1.701-1.025-1.019-.221-.512 .556-.182 1.305 .104 1.107 .347 .964 .545 .876 .479 .765 .297 .473 0 0M1.156-1.834C.793-2.341 .336-2.892-.215-3.487-.766-4.082-1.25-4.567-1.668-4.941-1.184-4.919-.551-4.886 .231-4.842 1.013-4.798 1.767-4.754 2.494-4.71 2.141-4.093 1.844-3.619 1.602-3.288 1.822-3.156 2.009-3.013 2.164-2.859 2.516-3.344 2.857-3.834 3.188-4.33 3.518-4.825 3.804-5.294 4.047-5.734 3.892-5.778 3.661-5.921 3.353-6.164 3.221-5.899 3.056-5.613 2.857-5.305 1.778-5.349 .628-5.426-.595-5.536-1.817-5.646-2.494-5.745-2.626-5.833-2.715-5.569-2.814-5.294-2.923-5.007-2.593-4.985-2.015-4.544-1.189-3.685-.363-2.826 .424-1.713 1.173-.347 1.393-.545 1.646-.722 1.932-.876 1.778-1.008 1.52-1.328 1.156-1.834" fill="#2c292a"/>
<path transform="matrix(1,0,0,-1,231.7405,262.58583)" d="M0 0C-.396 .022-.738 .033-1.024 .033H-2.973C-3.128-.276-3.315-.617-3.535-.992V-5.123C-3.535-5.564-3.524-6.059-3.502-6.61H-4.228C-4.207-6.081-4.195-5.586-4.195-5.123V-1.884C-4.878-2.832-5.803-3.702-6.97-4.495-7.147-4.23-7.312-4.043-7.466-3.933-7.026-3.735-6.442-3.311-5.715-2.661-4.988-2.011-4.317-1.113-3.7 .033H-5.88C-6.299 .033-6.739 .022-7.201 0V.661C-6.541 .639-6.034 .628-5.682 .628H-1.057C-.771 .628-.419 .639 0 .661ZM-2.94-1.95C-2.764-1.796-2.621-1.642-2.511-1.487-1.982-1.972-1.531-2.396-1.156-2.76-.782-3.123-.429-3.482-.099-3.834-.32-4.01-.518-4.197-.694-4.396-1.112-3.867-1.861-3.052-2.94-1.95" fill="#2c292a"/>
<path transform="matrix(1,0,0,-1,234.2248,264.2714)" d="M0 0C-.022-.441-.033-.882-.033-1.322V-3.371C.275-3.085 .561-2.821 .826-2.578 .914-2.776 1.024-2.964 1.156-3.14 .737-3.47 .187-3.977-.496-4.66-.606-4.462-.738-4.285-.892-4.131-.716-4.021-.628-3.812-.628-3.503V-.595C-.98-.595-1.3-.606-1.586-.628V.033C-1.3 .011-1.068 0-.892 0ZM.264 1.223C.11 1.068-.055 .925-.231 .793-.363 1.035-.694 1.421-1.222 1.95-1.046 2.104-.892 2.247-.76 2.38-.452 2.093-.11 1.707 .264 1.223M3.237 .859C3.215 1.3 3.204 1.619 3.204 1.818 3.204 2.038 3.193 2.335 3.171 2.71 3.435 2.644 3.678 2.6 3.898 2.578 3.876 2.314 3.865 2.082 3.865 1.884V.859H4.823C5.131 .859 5.451 .87 5.781 .892V.297C5.472 .319 5.142 .331 4.79 .331H3.898C3.942-.264 4.002-.799 4.08-1.272 4.157-1.746 4.267-2.231 4.41-2.727 4.553-3.222 4.718-3.614 4.905-3.9 5.092-4.187 5.219-4.197 5.285-3.933 5.351-3.669 5.395-3.36 5.418-3.008 5.594-3.25 5.814-3.415 6.078-3.503 5.968-4.208 5.814-4.654 5.616-4.842 5.418-5.029 5.197-5.051 4.955-4.908 4.713-4.764 4.487-4.5 4.278-4.115 4.068-3.729 3.892-3.283 3.749-2.776 3.606-2.27 3.502-1.746 3.435-1.206 3.369-.667 3.314-.154 3.27 .331H1.718C1.277 .331 .87 .319 .496 .297V.892C.848 .87 1.244 .859 1.685 .859ZM3.006-1.322C2.764-1.3 2.532-1.289 2.312-1.289V-3.437C2.598-3.349 2.885-3.25 3.171-3.14 3.171-3.382 3.193-3.592 3.237-3.768 2.907-3.834 2.555-3.922 2.18-4.032 1.805-4.143 1.42-4.274 1.024-4.429 .958-4.187 .848-3.977 .694-3.801 1.046-3.757 1.387-3.68 1.718-3.569V-1.289C1.475-1.289 1.222-1.3 .958-1.322V-.694C1.288-.716 1.629-.727 1.982-.727 2.356-.727 2.697-.716 3.006-.694ZM5.748 1.586C5.505 1.432 5.318 1.289 5.186 1.157 4.922 1.575 4.635 1.939 4.328 2.247 4.459 2.335 4.625 2.456 4.823 2.611 4.977 2.479 5.285 2.137 5.748 1.586" fill="#2c292a"/>
<path transform="matrix(1,0,0,-1,242.6224,264.2714)" d="M0 0C-.022-.441-.033-.882-.033-1.322V-3.371C.275-3.085 .561-2.821 .826-2.578 .914-2.776 1.024-2.964 1.156-3.14 .737-3.47 .187-3.977-.496-4.66-.606-4.462-.738-4.285-.892-4.131-.716-4.021-.628-3.812-.628-3.503V-.595C-.98-.595-1.3-.606-1.586-.628V.033C-1.3 .011-1.068 0-.892 0ZM.264 1.223C.11 1.068-.055 .925-.231 .793-.363 1.035-.694 1.421-1.222 1.95-1.046 2.104-.892 2.247-.76 2.38-.452 2.093-.11 1.707 .264 1.223M3.237 .859C3.215 1.3 3.204 1.619 3.204 1.818 3.204 2.038 3.193 2.335 3.171 2.71 3.435 2.644 3.678 2.6 3.898 2.578 3.876 2.314 3.865 2.082 3.865 1.884V.859H4.823C5.131 .859 5.451 .87 5.781 .892V.297C5.472 .319 5.142 .331 4.79 .331H3.898C3.942-.264 4.002-.799 4.08-1.272 4.157-1.746 4.267-2.231 4.41-2.727 4.553-3.222 4.718-3.614 4.905-3.9 5.092-4.187 5.219-4.197 5.285-3.933 5.351-3.669 5.395-3.36 5.418-3.008 5.594-3.25 5.814-3.415 6.078-3.503 5.968-4.208 5.814-4.654 5.616-4.842 5.418-5.029 5.197-5.051 4.955-4.908 4.713-4.764 4.487-4.5 4.278-4.115 4.068-3.729 3.892-3.283 3.749-2.776 3.606-2.27 3.502-1.746 3.435-1.206 3.369-.667 3.314-.154 3.27 .331H1.718C1.277 .331 .87 .319 .496 .297V.892C.848 .87 1.244 .859 1.685 .859ZM3.006-1.322C2.764-1.3 2.532-1.289 2.312-1.289V-3.437C2.598-3.349 2.885-3.25 3.171-3.14 3.171-3.382 3.193-3.592 3.237-3.768 2.907-3.834 2.555-3.922 2.18-4.032 1.805-4.143 1.42-4.274 1.024-4.429 .958-4.187 .848-3.977 .694-3.801 1.046-3.757 1.387-3.68 1.718-3.569V-1.289C1.475-1.289 1.222-1.3 .958-1.322V-.694C1.288-.716 1.629-.727 1.982-.727 2.356-.727 2.697-.716 3.006-.694ZM5.748 1.586C5.505 1.432 5.318 1.289 5.186 1.157 4.922 1.575 4.635 1.939 4.328 2.247 4.459 2.335 4.625 2.456 4.823 2.611 4.977 2.479 5.285 2.137 5.748 1.586" fill="#2c292a"/>
<path transform="matrix(1,0,0,-1,290.65,282.699)" stroke-width="1" stroke-linecap="butt" stroke-miterlimit="10" stroke-linejoin="miter" fill="none" stroke="#f43040" d="M0 0C0 4.001-3.242 7.245-7.268 7.222H-76.692C-80.523 7.244-83.57 4.398-83.903 .71L-85.935-.452-83.787-1.68C-83.079-4.852-80.208-7.259-76.692-7.339H-7.268C-3.242-7.245 0-4.001 0 0Z"/>
<path transform="matrix(1,0,0,-1,217.074,280.2009)" d="M0 0C.33-.022 .715-.033 1.156-.033H3.039C2.819-1.443 2.544-2.534 2.213-3.305 2.764-4.077 3.171-4.671 3.436-5.09 3.281-5.2 3.105-5.343 2.907-5.519 2.445-4.726 2.103-4.187 1.883-3.9 1.619-4.363 1.354-4.748 1.09-5.057 .826-5.365 .496-5.706 .099-6.081-.055-5.883-.231-5.739-.429-5.652-.055-5.387 .286-5.079 .595-4.726 .903-4.374 1.2-3.922 1.487-3.371 .958-2.732 .473-2.204 .033-1.785 .165-1.675 .319-1.532 .496-1.355 1.134-2.06 1.563-2.534 1.784-2.776 2.07-1.983 2.257-1.245 2.345-.562H1.156C.715-.562 .33-.573 0-.595ZM3.171-.727C3.7-.749 4.063-.76 4.261-.76H5.682V.231C5.682 .517 5.66 .826 5.616 1.157H6.376C6.353 .892 6.343 .562 6.343 .165V-.76C6.562-.76 6.926-.749 7.433-.727V-1.322C6.926-1.3 6.562-1.289 6.343-1.289V-5.453C6.364-5.872 6.227-6.136 5.93-6.246 5.632-6.356 5.296-6.433 4.922-6.478 4.856-6.213 4.757-5.971 4.625-5.751 5.109-5.751 5.412-5.723 5.533-5.668 5.654-5.613 5.704-5.453 5.682-5.189V-1.289H4.294C4.096-1.289 3.721-1.311 3.171-1.355ZM4.823-3.867C4.537-3.977 4.327-4.087 4.195-4.197 3.997-3.602 3.711-2.986 3.336-2.347 3.49-2.28 3.667-2.171 3.865-2.016 4.239-2.677 4.559-3.294 4.823-3.867" fill="#2c292a"/>
<path transform="matrix(1,0,0,-1,225.9341,284.5635)" d="M0 0H1.189V-1.322C1.123-1.873 .848-2.28 .363-2.545L.033-2.247C.43-2.027 .628-1.696 .628-1.256H0Z" fill="#2c292a"/>
<path transform="matrix(1,0,0,-1,233.4397,282.283)" d="M0 0C.462 .595 .831 1.211 1.107 1.851 1.382 2.49 1.553 3.018 1.619 3.437 1.949 3.305 2.235 3.206 2.478 3.14 2.301 2.963 2.092 2.467 1.85 1.652V-2.743C1.85-3.426 1.861-3.955 1.883-4.33H1.156C1.178-3.977 1.189-3.46 1.189-2.776V.595C.837-.022 .605-.419 .496-.595 .297-.331 .132-.132 0 0M6.607-3.305C6.805-3.305 7.212-3.294 7.829-3.272V-3.933C7.168-3.911 6.739-3.9 6.541-3.9H3.568C3.303-3.9 2.885-3.911 2.312-3.933V-3.272C2.951-3.294 3.358-3.305 3.535-3.305ZM3.138 1.322C3.138 1.652 3.127 2.082 3.105 2.611H7.168C7.146 2.258 7.135 1.851 7.135 1.388V-1.124C7.135-1.477 7.146-1.818 7.168-2.148H3.105C3.127-1.84 3.138-1.543 3.138-1.256ZM6.442 2.082H3.799V.52900007H6.442ZM6.442 0H3.799V-1.619H6.442ZM6.442-1.619" fill="#2c292a"/>
<path transform="matrix(1,0,0,-1,248.2789,282.8118)" d="M0 0C.374 0 .793 .011 1.255 .033V-.562C.793-.54 .374-.529 0-.529H-2.114V-1.355C-.815-1.355 .033-1.344 .429-1.322V-1.917C.033-1.895-.815-1.884-2.114-1.884V-2.875C-1.696-2.941-1.178-2.975-.562-2.975 .055-2.975 .737-2.931 1.486-2.842 1.31-3.084 1.2-3.349 1.156-3.636H-.529C-1.013-3.636-1.465-3.608-1.883-3.553-2.302-3.498-2.715-3.393-3.122-3.239-3.529-3.084-3.964-2.809-4.427-2.413-4.515-2.589-4.641-2.793-4.807-3.024-4.972-3.255-5.219-3.536-5.55-3.867-5.77-3.69-5.991-3.536-6.21-3.404-5.77-3.14-5.407-2.755-5.12-2.247-4.834-1.741-4.669-1.267-4.625-.826L-3.832-1.058C-3.898-1.146-4.008-1.399-4.162-1.818-3.766-2.237-3.293-2.534-2.742-2.71V-.529H-4.856C-5.253-.529-5.671-.54-6.111-.562V.033C-5.649 .011-5.231 0-4.856 0ZM-.033 2.214C-.033 1.641-.022 1.101 0 .595H-4.922C-4.901 1.101-4.889 1.641-4.889 2.214-4.889 2.809-4.901 3.272-4.922 3.602H0C-.022 3.272-.033 2.809-.033 2.214M-.694 3.074H-4.229V2.4129999H-.694ZM-.694 1.851H-4.229V1.157H-.694ZM-.694 1.157" fill="#2c292a"/>
<path transform="matrix(1,0,0,-1,220.7706,334.5003)" d="M0 0H1.09C.98-.859 .875-1.466 .776-1.818 .677-2.171 .572-2.49 .462-2.776 .771-3.063 1.123-3.278 1.52-3.421 1.916-3.564 2.378-3.663 2.907-3.718 3.436-3.773 3.997-3.795 4.592-3.784 5.186-3.773 5.781-3.735 6.375-3.669 6.221-3.889 6.133-4.131 6.111-4.396 5.098-4.417 4.267-4.412 3.617-4.379 2.967-4.346 2.428-4.28 1.999-4.181 1.569-4.082 1.217-3.955 .941-3.801 .666-3.647 .407-3.47 .165-3.272-.099-3.669-.441-4.076-.859-4.495-1.013-4.318-1.189-4.164-1.387-4.032-.947-3.724-.573-3.327-.264-2.842-.462-2.578-.622-2.336-.743-2.115-.865-1.895-.98-1.642-1.09-1.355-.98-1.333-.793-1.256-.529-1.124-.462-1.388-.276-1.774 .033-2.28 .187-1.818 .308-1.234 .396-.529-.088-.529-.474-.584-.76-.694L-.925-.099C-.661-.011-.441 .248-.264 .678-.088 1.107 .066 1.498 .198 1.851-.243 1.851-.65 1.839-1.024 1.818V2.38C-.584 2.357 .088 2.347 .991 2.347 .925 2.17 .595 1.388 0 0M3.072 3.173H3.733C3.711 2.975 3.7 2.732 3.7 2.446H5.484C5.461 2.181 5.451 1.806 5.451 1.322 5.759 1.322 6.034 1.333 6.277 1.355V.793C6.056 .815 5.781 .826 5.451 .826 5.451 .341 5.461-.033 5.484-.297H3.7V-.958C4.559-.958 5.131-.948 5.418-.925V-1.487C5.153-1.466 4.58-1.454 3.7-1.454V-2.115H4.691C5.109-2.115 5.495-2.104 5.847-2.082V-2.677C5.495-2.655 5.109-2.644 4.691-2.644H3.7C3.7-3.019 3.711-3.338 3.733-3.602H3.072C3.094-3.338 3.105-3.019 3.105-2.644H2.345C2.015-2.644 1.652-2.655 1.255-2.677V-2.082C1.63-2.104 2.004-2.115 2.378-2.115H3.105V-1.454C2.488-1.454 1.949-1.466 1.487-1.487V-.925C1.971-.948 2.511-.958 3.105-.958V-.297C2.532-.297 2.048-.309 1.652-.331V.231C2.048 .209 2.532 .198 3.105 .198V.826H2.511C2.114 .826 1.673 .815 1.189 .793V1.355C1.673 1.333 2.114 1.322 2.511 1.322H3.105V1.95C2.511 1.95 2.015 1.939 1.619 1.917V2.479C2.015 2.456 2.511 2.446 3.105 2.446 3.105 2.732 3.094 2.975 3.072 3.173M4.856 1.95H3.6999999V1.322H4.856ZM4.856 .826H3.6999999V.19799996H4.856ZM4.856 .198" fill="#2c292a"/>
<path transform="matrix(1,0,0,-1,228.4743,338.3341)" d="M0 0C.308 .198 .463 .463 .463 .793V3.735H.033C-.187 3.735-.43 3.723-.694 3.702V4.363C-.43 4.318-.187 4.297 .033 4.297H1.123C1.101 3.922 1.09 3.492 1.09 3.008V.925C1.332 1.19 1.652 1.553 2.048 2.016 2.136 1.906 2.279 1.729 2.478 1.487 2.147 1.157 1.817 .82 1.487 .479 1.156 .137 .848-.242 .562-.661 .407-.463 .22-.242 0 0M1.421 5.486C1.222 5.398 1.013 5.288 .793 5.156 .44 5.905 .198 6.379 .066 6.577 .264 6.665 .451 6.775 .628 6.908 .98 6.313 1.244 5.839 1.421 5.486M3.006 4.445C3.094 4.059 3.226 3.669 3.403 3.272 3.579 2.875 3.854 2.423 4.229 1.917 4.514 2.467 4.718 2.969 4.84 3.421 4.96 3.872 5.065 4.318 5.153 4.759 5.241 5.2 5.319 5.706 5.385 6.28 5.627 6.213 5.913 6.158 6.243 6.114 6.111 5.916 6.023 5.723 5.979 5.536 5.935 5.348 5.88 5.078 5.814 4.726 5.748 4.373 5.649 3.922 5.517 3.371 5.385 2.82 5.12 2.159 4.724 1.388 5.076 1.035 5.428 .765 5.781 .578 6.133 .391 6.562 .231 7.069 .099 6.827-.077 6.628-.341 6.475-.694 5.902-.364 5.484-.116 5.219 .05 4.955 .215 4.636 .496 4.261 .892 3.865 .451 3.513 .116 3.204-.116 2.896-.347 2.565-.584 2.213-.826 2.015-.672 1.773-.473 1.487-.231 1.949-.055 2.384 .17 2.791 .446 3.199 .721 3.523 1.035 3.766 1.388 3.347 1.939 3.039 2.456 2.841 2.941 2.643 3.426 2.494 3.872 2.395 4.28 2.296 4.687 2.202 5.145 2.114 5.652 2.334 5.673 2.565 5.718 2.808 5.784 2.852 5.277 2.918 4.831 3.006 4.445M4.559 4.429C4.294 4.406 4.074 4.363 3.898 4.297 3.766 5.09 3.579 5.938 3.337 6.841 3.535 6.908 3.755 6.974 3.997 7.04 4.239 5.982 4.427 5.111 4.559 4.429" fill="#2c292a"/>
<path transform="matrix(1,0,0,-1,242.7024,333.1453)" d="M0 0C-.231-.243-.556-.573-.974-.991H-.049C.325-.991 .71-.981 1.107-.958V-1.553C.71-1.532 .314-1.52-.082-1.52H-1.635C-1.988-1.785-2.384-2.071-2.824-2.38H-.016C-.039-2.776-.049-3.14-.049-3.47V-4.627C-.049-5.024-.039-5.453-.016-5.916H-.677V-5.42H-3.848V-5.916H-4.542C-4.52-5.563-4.509-5.233-4.509-4.924V-3.404C-4.95-3.647-5.445-3.889-5.996-4.131-6.216-3.823-6.37-3.635-6.458-3.569-6.304-3.526-6.012-3.421-5.583-3.255-5.153-3.09-4.796-2.908-4.509-2.71V-2.38H-3.881C-3.397-2.115-2.968-1.829-2.593-1.52H-4.938C-5.401-1.52-5.83-1.532-6.227-1.553V-.958C-5.786-.981-5.357-.991-4.938-.991H-3.188V.033H-4.179C-4.553 .033-4.895 .022-5.203 0V.595C-4.895 .573-4.553 .562-4.179 .562H-3.188C-3.188 .892-3.199 1.267-3.221 1.686H-2.494C-2.516 1.377-2.527 1.002-2.527 .562H-2.031C-1.745 .562-1.415 .573-1.04 .595V0C-1.415 .022-1.745 .033-2.031 .033H-2.527V-.991H-1.866C-1.558-.749-1.25-.463-.941-.132-.633 .198-.314 .617 .017 1.124 .259 .881 .457 .705 .611 .595 .435 .44 .231 .242 0 0M-.677-2.908H-3.848V-3.602H-.677ZM-.677-4.131H-3.848V-4.891H-.677ZM-.677-4.891" fill="#2c292a"/>
<path transform="matrix(1,0,0,-1,191.7836,341.4124)" d="M0 0V-.463C-.33-.573-.474-.892-.43-1.421H.099V-2.512H-.958V-1.124C-.848-.485-.54-.121-.033-.033ZM1.85 0V-.463C1.52-.573 1.376-.892 1.42-1.421H1.982V-2.512H.892V-1.124C1.024-.485 1.332-.121 1.817-.033Z" fill="#2c292a"/>
<path transform="matrix(1,0,0,-1,198.6526,342.3048)" d="M0 0C-.198-.066-.617-.165-1.255-.297V-1.553H.463C.463-.958 .451-.132 .429 .925 .672 .881 .914 .859 1.156 .859 1.112 .529 1.09 .154 1.09-.264V-1.553H2.577C2.907-1.553 3.292-1.543 3.733-1.52V-2.115C3.292-2.094 2.918-2.082 2.61-2.082H1.123C1.189-3.14 1.332-3.9 1.553-4.363 2.015-3.922 2.411-3.272 2.742-2.413 2.918-2.567 3.149-2.71 3.436-2.842 3.259-3.041 3.028-3.366 2.742-3.817 2.455-4.269 2.158-4.649 1.85-4.958 2.026-5.222 2.213-5.443 2.411-5.619 2.61-5.795 2.769-5.899 2.891-5.933 3.011-5.966 3.1-5.899 3.155-5.734 3.21-5.569 3.248-5.332 3.27-5.024 3.49-5.178 3.721-5.31 3.964-5.42 3.788-6.037 3.601-6.423 3.403-6.577 3.204-6.731 2.918-6.709 2.544-6.511 2.169-6.313 1.784-5.938 1.387-5.387 .639-5.916 .044-6.29-.396-6.511-.529-6.268-.694-6.07-.892-5.916-.231-5.696 .418-5.332 1.057-4.825 .748-4.209 .562-3.294 .496-2.082H-1.255V-3.371C-.749-3.261-.363-3.151-.099-3.041-.077-3.261-.055-3.47-.033-3.669-.319-3.735-.727-3.834-1.255-3.966V-5.652C-1.234-6.07-1.366-6.34-1.652-6.461-1.938-6.582-2.268-6.676-2.643-6.742-2.665-6.5-2.775-6.246-2.973-5.982-2.533-5.982-2.241-5.954-2.098-5.899-1.955-5.845-1.883-5.718-1.883-5.519V-4.131C-2.72-4.352-3.27-4.506-3.535-4.594-3.557-4.286-3.623-4.032-3.733-3.834-3.336-3.79-2.72-3.68-1.883-3.503V-2.082C-2.742-2.082-3.336-2.094-3.667-2.115V-1.52C-3.315-1.543-2.72-1.553-1.883-1.553V-.463L-3.27-.76C-3.336-.518-3.425-.309-3.535-.132-3.204-.132-2.692-.055-1.998 .099-1.305 .253-.782 .43-.429 .628-.21 .319-.066 .11 0 0M3.237-.661C3.061-.793 2.885-.948 2.709-1.124 2.356-.639 1.982-.243 1.586 .066 1.762 .22 1.905 .374 2.015 .529 2.588 0 2.995-.397 3.237-.661" fill="#2c292a"/>
<path transform="matrix(1,0,0,-1,204.6057,342.2056)" d="M0 0H.727C.705-.617 .694-1.256 .694-1.917L2.246-1.487V-.496C2.246-.033 2.235 .407 2.213 .826H2.973C2.951 .43 2.94 .044 2.94-.331V-1.289L5.451-.562C5.385-1.025 5.34-1.432 5.319-1.785 5.252-2.622 5.197-3.222 5.153-3.586 5.109-3.95 4.988-4.192 4.79-4.313 4.592-4.434 4.206-4.539 3.634-4.627 3.568-4.363 3.479-4.11 3.37-3.867 3.898-3.867 4.212-3.834 4.311-3.768 4.41-3.702 4.47-3.559 4.493-3.338L4.658-1.454 2.94-1.917V-3.404C2.94-3.977 2.951-4.539 2.973-5.09H2.213C2.235-4.561 2.246-3.999 2.246-3.404V-2.115L.694-2.545V-5.222C.694-5.641 .892-5.861 1.288-5.883H4.988C5.186-5.883 5.313-5.817 5.368-5.685 5.423-5.552 5.472-5.211 5.517-4.66 5.803-4.837 6.078-4.947 6.343-4.991 6.21-5.718 6.067-6.147 5.913-6.28 5.759-6.412 5.461-6.478 5.021-6.478H1.024C.385-6.478 .055-6.114 .033-5.387V-2.743C-.495-2.898-.848-3.008-1.024-3.074L-1.189-2.413C-.991-2.369-.584-2.259 .033-2.082 .033-1.399 .022-.705 0 0" fill="#2c292a"/>
<path transform="matrix(1,0,0,-1,219.1475,342.3048)" d="M0 0C-.396 .022-.738 .033-1.024 .033H-2.973C-3.127-.276-3.315-.617-3.535-.992V-5.123C-3.535-5.564-3.524-6.059-3.502-6.61H-4.228C-4.207-6.081-4.195-5.585-4.195-5.123V-1.884C-4.878-2.832-5.803-3.702-6.97-4.495-7.147-4.23-7.312-4.043-7.466-3.933-7.025-3.735-6.442-3.311-5.715-2.661-4.988-2.011-4.317-1.113-3.7 .033H-5.88C-6.299 .033-6.739 .022-7.201 0V.661C-6.541 .639-6.034 .628-5.682 .628H-1.057C-.771 .628-.419 .639 0 .661ZM-2.94-1.95C-2.764-1.796-2.621-1.642-2.511-1.487-1.982-1.972-1.531-2.396-1.156-2.76-.782-3.123-.429-3.482-.099-3.834-.32-4.01-.518-4.197-.694-4.396-1.112-3.867-1.861-3.052-2.94-1.95" fill="#2c292a"/>
<path transform="matrix(1,0,0,-1,221.0869,347.6754)" d="M0 0C.231 .341 .424 .694 .578 1.058 .732 1.421 .831 1.779 .875 2.132 .06 2.132-.523 2.12-.875 2.099V2.727C-.545 2.704 .071 2.694 .974 2.694 1.04 3.156 1.074 3.718 1.074 4.379H.314C.203 4.07 .038 3.707-.182 3.288-.424 3.355-.644 3.409-.842 3.454-.689 3.674-.534 3.966-.38 4.33-.226 4.693-.099 5.045 0 5.387 .099 5.728 .17 6.032 .215 6.296 .435 6.23 .688 6.175 .974 6.131 .864 5.976 .776 5.8 .71 5.602 .644 5.404 .567 5.183 .479 4.941 1.734 4.941 2.516 4.952 2.824 4.974V4.379H1.701C1.701 3.894 1.679 3.332 1.635 2.694 2.164 2.694 2.626 2.704 3.023 2.727V2.099C2.626 2.12 2.131 2.132 1.536 2.132 1.514 1.889 1.47 1.658 1.404 1.438 1.602 1.283 1.822 1.112 2.065 .925 2.307 .738 2.615 .424 2.99-.017 2.835-.083 2.659-.237 2.461-.479 2.263-.149 2.059 .121 1.85 .331 1.64 .54 1.426 .732 1.206 .909 1.074 .556 .87 .182 .595-.215 .319-.611 .038-.964-.248-1.272-.358-1.14-.534-1.008-.776-.876-.49-.633-.231-.342 0 0M6.359 4.049V.611C6.359 .193 6.37-.237 6.392-.678H5.698V.215H3.947V-.81H3.254C3.276-.391 3.287 .05 3.287 .512V4.049C3.287 4.401 3.276 4.797 3.254 5.238H6.392C6.37 4.797 6.359 4.401 6.359 4.049M5.698 4.71H3.947V.74399998H5.698ZM5.698 .744" fill="#2c292a"/>
<path transform="matrix(1,0,0,-1,228.4437,344.453)" d="M0 0C.352-.022 .661-.033 .925-.033H1.619C1.596-.386 1.586-.76 1.586-1.157V-3.008C2.158-3.536 3.127-3.801 4.493-3.801 5.88-3.801 6.937-3.745 7.664-3.636 7.554-3.9 7.466-4.164 7.4-4.429 6.541-4.45 5.797-4.456 5.17-4.445 4.542-4.434 4.019-4.406 3.601-4.363 3.182-4.318 2.841-4.247 2.577-4.148 2.312-4.049 2.042-3.905 1.767-3.718 1.492-3.531 1.266-3.526 1.09-3.702 .914-3.878 .705-4.131 .463-4.462 .264-4.263 .066-4.098-.132-3.966 .198-3.745 .562-3.437 .958-3.041V-.562C.628-.562 .308-.573 0-.595ZM.529 2.611C.793 2.655 1.024 2.721 1.222 2.809 1.376 2.368 1.52 1.884 1.652 1.355 1.431 1.311 1.2 1.234 .958 1.124 .87 1.52 .727 2.016 .529 2.611M2.213 1.983C2.544 1.961 3.545 1.95 5.219 1.95 5.395 2.368 5.561 2.798 5.715 3.239 6.001 3.128 6.243 3.041 6.442 2.975 6.287 2.82 6.089 2.479 5.847 1.95 6.706 1.95 7.322 1.961 7.697 1.983V1.388C7.322 1.41 6.486 1.421 5.186 1.421L5.021 .76H6.937C6.915 .231 6.904-.463 6.904-1.322 6.904-2.16 6.915-2.788 6.937-3.206H2.808C2.852-2.721 2.874-2.093 2.874-1.322 2.874-.551 2.863 .143 2.841 .76H4.327L4.493 1.421C3.303 1.421 2.544 1.41 2.213 1.388ZM4.294 2.347C4.118 2.236 3.942 2.115 3.766 1.983 3.612 2.247 3.391 2.545 3.105 2.875 3.259 2.985 3.424 3.107 3.601 3.239 3.887 2.886 4.118 2.589 4.294 2.347M6.276 .231H3.534V-.397H6.276ZM6.276-.892H3.534V-1.52H6.276ZM6.276-2.016H3.534V-2.677H6.276ZM6.276-2.677" fill="#2c292a"/>
<path transform="matrix(1,0,0,-1,237.5349,348.5843)" d="M0 0C-.22 .132-.419 .231-.594 .297-.309 .782-.011 1.432 .297 2.247 .496 2.137 .705 2.038 .925 1.95 .595 1.201 .286 .551 0 0M4.922 6.313C5.429 6.313 5.891 6.323 6.31 6.346V5.718C5.891 5.739 5.429 5.751 4.922 5.751H2.213V5.024H4.46C4.9 5.024 5.351 5.034 5.814 5.057V4.462C5.395 4.483 4.944 4.495 4.46 4.495H2.213V3.735H4.724C5.253 3.735 5.715 3.745 6.111 3.768V3.173C5.604 3.195 5.142 3.206 4.724 3.206H2.213V2.578H1.553C1.574 3.128 1.586 3.602 1.586 3.999V5.685C1.167 5.156 .672 4.649 .099 4.164-.077 4.363-.253 4.506-.429 4.594 .605 5.365 1.343 6.268 1.784 7.304 2.026 7.15 2.246 7.017 2.445 6.908 2.29 6.731 2.147 6.533 2.015 6.313ZM2.18 1.19C2.18 .925 2.185 .732 2.197 .611 2.208 .49 2.345 .418 2.61 .397H4.327C4.547 .397 4.696 .446 4.773 .545 4.85 .644 4.944 .837 5.054 1.124 5.253 .903 5.462 .749 5.682 .661 5.505 .309 5.319 .083 5.12-.017 4.922-.116 4.702-.165 4.46-.165H2.114C1.762-.165 1.569-.06 1.536 .149 1.503 .358 1.492 .644 1.503 1.008 1.514 1.372 1.508 1.74 1.487 2.115H2.213C2.191 1.785 2.18 1.476 2.18 1.19M4.129 1.454C3.909 1.322 3.733 1.201 3.601 1.091 3.358 1.465 3.072 1.839 2.742 2.214 2.896 2.324 3.061 2.456 3.237 2.611 3.523 2.28 3.821 1.895 4.129 1.454M6.904 .793C6.75 .683 6.574 .551 6.376 .397 5.979 .925 5.55 1.421 5.087 1.884 5.219 1.994 5.373 2.137 5.55 2.314 6.012 1.806 6.463 1.3 6.904 .793" fill="#2c292a"/>
<path transform="matrix(1,0,0,-1,248.8231,342.7179)" d="M0 0C-.297-.474-.677-.975-1.14-1.504-1.602-2.033-2.23-2.627-3.023-3.288-3.177-3.046-3.353-2.848-3.551-2.694-3.001-2.385-2.384-1.829-1.701-1.025-1.019-.221-.512 .556-.182 1.305 .104 1.107 .347 .964 .545 .876 .479 .765 .297 .473 0 0M1.156-1.834C.793-2.341 .336-2.892-.215-3.487-.766-4.082-1.25-4.567-1.668-4.941-1.184-4.919-.551-4.886 .231-4.842 1.013-4.798 1.767-4.754 2.494-4.71 2.142-4.093 1.844-3.619 1.602-3.288 1.822-3.156 2.009-3.013 2.164-2.859 2.516-3.344 2.857-3.834 3.188-4.33 3.518-4.825 3.804-5.294 4.047-5.734 3.892-5.778 3.661-5.921 3.353-6.164 3.221-5.899 3.056-5.613 2.857-5.305 1.778-5.349 .628-5.426-.595-5.536-1.817-5.646-2.494-5.745-2.626-5.833-2.715-5.569-2.814-5.294-2.924-5.007-2.593-4.985-2.015-4.544-1.189-3.685-.363-2.826 .424-1.713 1.173-.347 1.393-.545 1.646-.722 1.932-.876 1.778-1.008 1.52-1.328 1.156-1.834" fill="#2c292a"/>
<path transform="matrix(1,0,0,-1,254.2639,346.86573)" d="M0 0C-.242 .132-.452 .253-.628 .364-.253 1.002 .088 1.674 .396 2.38 .639 2.247 .87 2.126 1.09 2.016 .649 1.223 .286 .551 0 0M3.105 4.66C3.083 4.396 3.072 4.076 3.072 3.702H5.55C5.505 3.459 5.462 3.074 5.418 2.545L5.219-.661C5.153-1.19 4.999-1.537 4.757-1.702 4.514-1.867 4.041-2.005 3.337-2.115 3.27-1.851 3.149-1.586 2.973-1.322 3.656-1.344 4.08-1.3 4.245-1.19 4.41-1.08 4.503-.793 4.526-.331L4.757 3.107H3.039C2.951 1.829 2.753 .848 2.445 .165 2.136-.452 1.789-.931 1.404-1.272 1.018-1.614 .583-1.939 .099-2.247-.077-2.027-.309-1.829-.595-1.653 .066-1.366 .595-1.047 .991-.694 1.365-.342 1.668 .121 1.9 .694 2.131 1.267 2.279 2.071 2.345 3.107H1.619C1.156 3.107 .705 3.095 .264 3.074V3.702C.639 3.679 1.079 3.669 1.586 3.669H2.378C2.378 4.439 2.367 5.078 2.345 5.585 2.697 5.519 2.995 5.475 3.237 5.453 3.171 5.189 3.127 4.924 3.105 4.66M7.168 .099C6.97 .033 6.739-.077 6.475-.231 6.166 .628 5.836 1.388 5.484 2.049 5.748 2.159 5.946 2.269 6.078 2.38 6.453 1.74 6.816 .98 7.168 .099" fill="#2c292a"/>
<path transform="matrix(1,0,0,-1,200.7707,354.2851)" d="M0 0C-.243-.353-.441-.661-.595-.925-.727-.771-.914-.617-1.156-.463-.738-.022-.369 .479-.049 1.041 .269 1.603 .506 2.192 .661 2.809 .815 2.699 1.068 2.589 1.42 2.479 1.288 2.302 1.024 1.829 .628 1.058V-3.239C.628-3.922 .638-4.473 .661-4.891H-.033C-.011-4.539 0-3.977 0-3.206ZM2.23 1.421C2.505 2.082 2.643 2.512 2.643 2.71 2.907 2.6 3.193 2.512 3.502 2.446 3.37 2.335 3.171 1.994 2.907 1.421H6.376C6.31 1.223 6.21 .953 6.078 .611 5.946 .27 5.825-.055 5.715-.364 5.495-.297 5.274-.243 5.054-.198 5.208 .132 5.352 .484 5.484 .859H2.676C2.411 .286 2.103-.243 1.751-.727 1.574-.617 1.343-.529 1.057-.463 1.563 .132 1.954 .76 2.23 1.421M2.445-1.124C2.709-1.256 2.918-1.366 3.072-1.454 2.94-1.675 2.742-1.983 2.478-2.38 2.213-2.776 1.916-3.173 1.586-3.569 1.409-3.416 1.233-3.272 1.057-3.14 1.607-2.567 2.07-1.895 2.445-1.124M3.303-4.115C3.436-4.06 3.502-3.944 3.502-3.768V-.992C3.502-.463 3.49-.077 3.469 .165H4.162C4.14-.077 4.129-.463 4.129-.992V-4.131C4.129-4.417 4.008-4.611 3.766-4.71 3.523-4.809 3.193-4.891 2.775-4.958 2.73-4.737 2.621-4.483 2.445-4.197 2.885-4.197 3.171-4.17 3.303-4.115M6.574-3.107C6.442-3.195 6.232-3.327 5.946-3.503 5.571-2.799 5.142-2.093 4.658-1.388 4.878-1.256 5.054-1.146 5.186-1.058 5.715-1.785 6.177-2.468 6.574-3.107" fill="#2c292a"/>
<path transform="matrix(1,0,0,-1,214.3877,355.4088)" d="M0 0C.374 0 .793 .011 1.255 .033V-.562C.793-.54 .374-.529 0-.529H-2.114V-1.355C-.815-1.355 .033-1.344 .429-1.322V-1.917C.033-1.895-.815-1.884-2.114-1.884V-2.875C-1.696-2.941-1.178-2.975-.562-2.975 .055-2.975 .738-2.931 1.486-2.842 1.31-3.084 1.2-3.349 1.156-3.636H-.529C-1.013-3.636-1.465-3.608-1.883-3.553-2.302-3.498-2.715-3.393-3.122-3.239-3.53-3.084-3.964-2.809-4.427-2.413-4.515-2.589-4.641-2.793-4.807-3.024-4.972-3.255-5.219-3.536-5.55-3.867-5.77-3.69-5.991-3.536-6.211-3.404-5.77-3.14-5.407-2.755-5.12-2.247-4.834-1.741-4.669-1.267-4.625-.826L-3.832-1.058C-3.898-1.146-4.008-1.399-4.162-1.818-3.766-2.237-3.293-2.534-2.742-2.71V-.529H-4.856C-5.252-.529-5.671-.54-6.111-.562V.033C-5.649 .011-5.231 0-4.856 0ZM-.033 2.214C-.033 1.641-.022 1.101 0 .595H-4.922C-4.901 1.101-4.889 1.641-4.889 2.214-4.889 2.809-4.901 3.272-4.922 3.602H0C-.022 3.272-.033 2.809-.033 2.214M-.694 3.074H-4.229V2.4129999H-.694ZM-.694 1.851H-4.229V1.157H-.694ZM-.694 1.157" fill="#2c292a"/>
<path transform="matrix(1,0,0,-1,217.1693,358.813)" d="M0 0C-.22 .132-.419 .231-.595 .297-.309 .782-.011 1.432 .297 2.247 .496 2.137 .705 2.038 .925 1.95 .595 1.201 .286 .551 0 0M4.922 6.313C5.428 6.313 5.891 6.323 6.31 6.346V5.718C5.891 5.739 5.428 5.751 4.922 5.751H2.213V5.024H4.46C4.9 5.024 5.352 5.034 5.814 5.057V4.462C5.396 4.483 4.944 4.495 4.46 4.495H2.213V3.735H4.724C5.252 3.735 5.715 3.745 6.111 3.768V3.173C5.604 3.195 5.142 3.206 4.724 3.206H2.213V2.578H1.553C1.574 3.128 1.586 3.602 1.586 3.999V5.685C1.167 5.156 .672 4.649 .099 4.164-.077 4.363-.253 4.506-.429 4.594 .606 5.365 1.343 6.268 1.784 7.304 2.026 7.15 2.246 7.017 2.445 6.908 2.29 6.731 2.147 6.533 2.015 6.313ZM2.18 1.19C2.18 .925 2.185 .732 2.197 .611 2.208 .49 2.345 .418 2.61 .397H4.328C4.547 .397 4.696 .446 4.773 .545 4.85 .644 4.944 .837 5.054 1.124 5.252 .903 5.461 .749 5.682 .661 5.505 .309 5.319 .083 5.12-.017 4.922-.116 4.702-.165 4.46-.165H2.114C1.762-.165 1.569-.06 1.536 .149 1.503 .358 1.492 .644 1.503 1.008 1.514 1.372 1.508 1.74 1.487 2.115H2.213C2.191 1.785 2.18 1.476 2.18 1.19M4.129 1.454C3.909 1.322 3.733 1.201 3.601 1.091 3.358 1.465 3.072 1.839 2.742 2.214 2.896 2.324 3.061 2.456 3.237 2.611 3.523 2.28 3.821 1.895 4.129 1.454M6.904 .793C6.75 .683 6.574 .551 6.376 .397 5.979 .925 5.55 1.421 5.087 1.884 5.219 1.994 5.373 2.137 5.55 2.314 6.012 1.806 6.463 1.3 6.904 .793" fill="#2c292a"/>
<path transform="matrix(1,0,0,-1,228.4574,352.9466)" d="M0 0C-.297-.474-.677-.975-1.14-1.504-1.602-2.033-2.23-2.628-3.023-3.289-3.177-3.046-3.353-2.848-3.551-2.694-3.001-2.385-2.384-1.829-1.701-1.025-1.019-.221-.512 .556-.182 1.305 .104 1.107 .347 .964 .545 .876 .479 .765 .297 .473 0 0M1.156-1.834C.793-2.341 .335-2.892-.215-3.487-.766-4.082-1.25-4.567-1.668-4.941-1.184-4.919-.551-4.886 .231-4.842 1.013-4.798 1.767-4.754 2.494-4.71 2.142-4.093 1.844-3.619 1.602-3.289 1.822-3.156 2.009-3.013 2.164-2.859 2.516-3.344 2.857-3.834 3.188-4.33 3.518-4.825 3.804-5.294 4.047-5.734 3.892-5.778 3.661-5.921 3.353-6.164 3.221-5.899 3.056-5.613 2.857-5.305 1.778-5.349 .628-5.426-.595-5.536-1.817-5.646-2.494-5.745-2.626-5.833-2.715-5.569-2.814-5.294-2.924-5.007-2.593-4.985-2.015-4.544-1.189-3.685-.363-2.826 .424-1.713 1.173-.347 1.393-.545 1.646-.722 1.932-.876 1.778-1.008 1.52-1.328 1.156-1.834" fill="#2c292a"/>
<path transform="matrix(1,0,0,-1,234.7241,351.5089)" d="M0 0H.694C.672-.221 .661-.617 .661-1.19 .947-1.19 1.277-1.179 1.652-1.157V-1.686C1.299-1.664 .969-1.653 .661-1.653 .661-3.305 .672-4.297 .694-4.627H0C.022-4.077 .033-3.493 .033-2.875-.363-3.536-.705-4.032-.991-4.363-1.145-4.187-1.333-4.043-1.553-3.933-1.068-3.559-.573-2.799-.066-1.653-.507-1.653-.903-1.664-1.255-1.686V-1.157C-.903-1.179-.474-1.19 .033-1.19 .033-.816 .022-.419 0 0M-.429-7.535C-.628-7.469-.87-7.392-1.156-7.304-.892-6.864-.661-6.203-.463-5.321-.198-5.387 .033-5.443 .231-5.486-.033-6.39-.253-7.073-.429-7.535M1.982-3.305C1.828-3.416 1.662-3.548 1.487-3.702 1.354-3.416 1.134-3.063 .826-2.644 .98-2.534 1.145-2.413 1.321-2.28 1.607-2.699 1.828-3.041 1.982-3.305M1.553-6.213C1.553-6.478 1.558-6.676 1.569-6.808 1.58-6.941 1.729-7.017 2.015-7.04H3.634C3.766-7.04 3.865-7.007 3.931-6.941 3.997-6.874 4.041-6.643 4.063-6.247 4.239-6.379 4.481-6.478 4.79-6.544 4.636-7.007 4.509-7.288 4.41-7.387 4.311-7.486 4.063-7.535 3.667-7.535H1.553C1.2-7.513 1.008-7.392 .975-7.172 .942-6.951 .925-6.665 .925-6.313 .925-5.96 .914-5.619 .892-5.288H1.586C1.564-5.619 1.553-5.927 1.553-6.213M5.583-2.578C5.583-3.371 5.594-4.043 5.616-4.594H2.147C2.169-4.131 2.18-3.46 2.18-2.578 2.18-1.697 2.169-.948 2.147-.331H5.616C5.594-1.036 5.583-1.785 5.583-2.578M3.435-6.081C3.237-6.147 3.039-6.258 2.841-6.412 2.775-6.258 2.577-5.905 2.246-5.354 2.378-5.244 2.565-5.134 2.808-5.024 3.094-5.531 3.303-5.883 3.435-6.081M4.955-.859H2.8079999V-1.652H4.955ZM4.955-2.148H2.8079999V-2.875H4.955ZM4.955-3.371H2.8079999V-4.131H4.955ZM6.243-6.709C6.023-6.864 5.825-7.017 5.649-7.172 5.472-6.841 5.065-6.302 4.427-5.552 4.669-5.42 4.845-5.277 4.955-5.123 5.528-5.784 5.957-6.313 6.243-6.709" fill="#2c292a"/>
<path transform="matrix(1,0,0,-1,243.584,353.19453)" d="M0 0H1.487C1.464-.375 1.453-.849 1.453-1.421V-4.33C1.453-4.66 1.464-5.134 1.487-5.751H.826V-5.09H-.859V-5.817H-1.52C-1.498-5.112-1.486-4.671-1.486-4.495V-1.454C-1.486-.859-1.498-.375-1.52 0H-.561C-.452 .507-.363 1.035-.297 1.586 .011 1.476 .264 1.399 .463 1.355 .352 1.157 .198 .705 0 0M.826-.562H-.85899999V-2.215H.826ZM.826-2.776H-.85899999V-4.528H.826ZM5.219-4.991C5.175-5.387 4.966-5.652 4.592-5.784 4.217-5.916 3.799-6.004 3.337-6.048 3.314-5.805 3.215-5.552 3.039-5.288 3.48-5.31 3.826-5.299 4.08-5.255 4.333-5.211 4.493-5.112 4.559-4.958 4.625-4.804 4.674-4.352 4.707-3.602 4.74-2.854 4.768-1.807 4.79-.463H2.874C2.697-.882 2.445-1.377 2.114-1.95 1.96-1.796 1.772-1.675 1.553-1.586 1.751-1.322 1.938-1.003 2.114-.628 2.29-.254 2.445 .154 2.577 .595 2.709 1.035 2.786 1.377 2.808 1.619 3.116 1.487 3.38 1.388 3.601 1.322 3.49 1.145 3.397 .953 3.32 .744 3.243 .534 3.16 .331 3.072 .132H5.418C5.396-.33 5.385-.76 5.385-1.157 5.362-2.501 5.307-3.779 5.219-4.991M3.436-2.512C3.568-2.776 3.721-3.118 3.898-3.536 3.744-3.602 3.535-3.713 3.27-3.867 3.116-3.449 2.973-3.09 2.841-2.793 2.709-2.495 2.577-2.247 2.445-2.049 2.598-1.961 2.797-1.851 3.039-1.719Z" fill="#2c292a"/>
<path transform="matrix(1,0,0,-1,252.312,352.34413)" d="M0 0C.572 .066 1.035-.231 1.388-.891 1.607-1.639 1.31-2.387 .496-3.135 .231-3.531 .099-3.96 .099-4.422H-.496C-.518-3.608-.154-2.838 .595-2.112 .771-1.848 .848-1.562 .826-1.254 .694-.814 .44-.605 .066-.627H-.066C-.528-.649-.749-.99-.727-1.65H-1.354C-1.377-.836-1.101-.33-.528-.132-.441-.066-.264-.022 0 0M-.628-5.115H.297V-6.0719997H-.628Z" fill="#2c292a"/>
<path transform="matrix(1,0,0,-1,258.7151,351.6411)" d="M0 0H1.09V-1.454C.98-1.983 .694-2.336 .231-2.512H.099V-2.082C.429-1.95 .583-1.619 .562-1.091H0ZM1.949 0H3.006V-1.454C2.918-1.983 2.643-2.336 2.18-2.512H2.048V-2.082C2.378-1.95 2.521-1.619 2.478-1.091H1.949Z" fill="#2c292a"/>
</g>
<path transform="matrix(1,0,0,-1,272.3396,204.55899)" d="M0 0V-2.739H-1.652V0L-3.681 3.986H-1.878L-.821 1.568 .227 3.986H2.03Z" fill="#2c292a"/>
<g clip-path="url(#clip_7)">
<path transform="matrix(1,0,0,-1,279.3628,206.637)" d="M0 0C-.463-.463-1.114-.661-1.812-.661H-4.304V6.064H-1.812C-1.114 6.064-.463 5.866 0 5.403 .783 4.619 .698 3.759 .698 2.701 .698 1.643 .783 .784 0 0M-1.133 4.213C-1.284 4.439-1.51 4.591-1.926 4.591H-2.652V.812H-1.926C-1.51 .812-1.284 .963-1.133 1.19-1.001 1.379-.953 1.558-.953 2.701-.953 3.835-1.001 4.024-1.133 4.213" fill="#2c292a"/>
</g>
<path transform="matrix(1,0,0,-1,284.1207,204.55899)" d="M0 0V-2.739H-1.652V0L-3.681 3.986H-1.878L-.821 1.568 .227 3.986H2.03Z" fill="#2c292a"/>
<g clip-path="url(#clip_8)">
<path transform="matrix(1,0,0,-1,289.7657,207.29819)" d="M0 0H-2.926V6.725H-.142C1.255 6.725 2.001 5.941 2.001 4.779 2.001 4.014 1.472 3.589 1.265 3.448 1.539 3.278 2.096 2.928 2.096 1.984 2.096 .699 1.199 0 0 0M-.246 5.242H-1.274V4.147H-.246C.208 4.147 .349 4.43 .349 4.694 .349 4.959 .208 5.242-.246 5.242M-.16 2.664H-1.274V1.483H-.16C.293 1.483 .444 1.795 .444 2.078 .444 2.361 .293 2.664-.16 2.664" fill="#2c292a"/>
<path transform="matrix(1,0,0,-1,108.7106,238.07032)" d="M0 0C-.443 .024-.824 .037-1.143 .037H-3.319C-3.491-.308-3.7-.689-3.946-1.107V-5.718C-3.946-6.211-3.934-6.764-3.909-7.379H-4.72C-4.696-6.788-4.683-6.235-4.683-5.718V-2.103C-5.445-3.161-6.478-4.132-7.781-5.017-7.978-4.722-8.162-4.514-8.334-4.39-7.842-4.169-7.191-3.696-6.379-2.97-5.568-2.245-4.818-1.242-4.13 .037H-6.564C-7.031 .037-7.523 .024-8.039 0V.738C-7.301 .713-6.736 .701-6.343 .701H-1.18C-.861 .701-.467 .713 0 .738ZM-3.282-2.177C-3.085-2.005-2.926-1.833-2.803-1.66-2.213-2.201-1.709-2.675-1.291-3.081-.873-3.486-.479-3.886-.111-4.28-.357-4.477-.578-4.685-.774-4.907-1.242-4.316-2.078-3.407-3.282-2.177" fill="#2c292a"/>
<path transform="matrix(1,0,0,-1,116.8232,241.28)" d="M0 0C.418 0 .885 .012 1.401 .037V-.627C.885-.603 .418-.59 0-.59H-2.36V-1.513C-.91-1.513 .037-1.5 .479-1.476V-2.14C.037-2.116-.91-2.103-2.36-2.103V-3.21C-1.893-3.283-1.315-3.32-.627-3.32 .061-3.32 .823-3.271 1.659-3.173 1.462-3.443 1.34-3.738 1.291-4.058H-.59C-1.131-4.058-1.635-4.027-2.102-3.966-2.569-3.904-3.03-3.787-3.485-3.616-3.94-3.443-4.425-3.136-4.941-2.693-5.04-2.89-5.181-3.117-5.365-3.376-5.55-3.634-5.826-3.948-6.195-4.316-6.441-4.119-6.687-3.948-6.933-3.8-6.441-3.505-6.035-3.075-5.716-2.509-5.397-1.943-5.212-1.415-5.163-.922L-4.278-1.181C-4.351-1.279-4.475-1.562-4.646-2.029-4.204-2.497-3.676-2.829-3.061-3.025V-.59H-5.421C-5.863-.59-6.331-.603-6.822-.627V.037C-6.306 .012-5.839 0-5.421 0ZM-.037 2.472C-.037 1.832-.025 1.23 0 .664H-5.494C-5.47 1.23-5.458 1.832-5.458 2.472-5.458 3.136-5.47 3.652-5.494 4.021H0C-.025 3.652-.037 3.136-.037 2.472M-.774 3.431H-4.7200005V2.693H-.774ZM-.774 2.066H-4.7200005V1.291H-.774ZM-.774 1.291" fill="#2c292a"/>
<path transform="matrix(1,0,0,-1,123.4606,238.07032)" d="M0 0C-.221-.074-.688-.184-1.401-.332V-1.734H.516C.516-1.07 .504-.148 .479 1.033 .75 .983 1.02 .959 1.291 .959 1.241 .59 1.217 .172 1.217-.295V-1.734H2.876C3.245-1.734 3.675-1.722 4.167-1.697V-2.361C3.675-2.337 3.257-2.324 2.913-2.324H1.254C1.328-3.505 1.487-4.353 1.733-4.87 2.249-4.378 2.692-3.652 3.061-2.693 3.257-2.866 3.515-3.025 3.835-3.173 3.638-3.394 3.38-3.757 3.061-4.261 2.741-4.766 2.409-5.19 2.065-5.534 2.261-5.829 2.471-6.075 2.692-6.272 2.913-6.469 3.091-6.585 3.227-6.622 3.361-6.659 3.46-6.585 3.522-6.401 3.583-6.216 3.626-5.952 3.651-5.608 3.896-5.78 4.154-5.928 4.425-6.051 4.228-6.739 4.019-7.169 3.798-7.342 3.577-7.514 3.257-7.489 2.839-7.268 2.421-7.047 1.991-6.628 1.549-6.014 .713-6.604 .049-7.022-.443-7.268-.59-6.997-.774-6.776-.996-6.604-.258-6.358 .467-5.952 1.18-5.386 .836-4.698 .627-3.677 .553-2.324H-1.401V-3.763C-.836-3.64-.406-3.518-.111-3.394-.086-3.64-.062-3.874-.037-4.095-.357-4.169-.811-4.28-1.401-4.427V-6.309C-1.377-6.776-1.525-7.077-1.844-7.213-2.164-7.348-2.532-7.452-2.95-7.526-2.975-7.255-3.097-6.973-3.319-6.678-2.827-6.678-2.502-6.647-2.342-6.585-2.182-6.524-2.102-6.383-2.102-6.161V-4.612C-3.036-4.858-3.651-5.03-3.946-5.128-3.97-4.784-4.044-4.501-4.167-4.28-3.724-4.231-3.036-4.108-2.102-3.911V-2.324C-3.061-2.324-3.724-2.337-4.093-2.361V-1.697C-3.7-1.722-3.036-1.734-2.102-1.734V-.517L-3.651-.849C-3.724-.578-3.823-.345-3.946-.148-3.577-.148-3.005-.062-2.231 .111-1.457 .283-.873 .48-.479 .701-.234 .356-.074 .123 0 0M3.614-.738C3.417-.885 3.22-1.058 3.024-1.254 2.63-.714 2.213-.271 1.77 .074 1.966 .246 2.126 .418 2.249 .59 2.888 0 3.343-.443 3.614-.738" fill="#2c292a"/>
<path transform="matrix(1,0,0,-1,130.7989,238.8081)" d="M0 0H1.659C1.635-.418 1.622-.947 1.622-1.586V-4.833C1.622-5.202 1.635-5.731 1.659-6.419H.922V-5.682H-.959V-6.493H-1.696C-1.672-5.706-1.659-5.215-1.659-5.017V-1.623C-1.659-.959-1.672-.418-1.696 0H-.627C-.504 .566-.406 1.156-.332 1.771 .012 1.648 .295 1.562 .516 1.513 .393 1.291 .221 .787 0 0M.922-.627H-.95900008V-2.4720002H.922ZM.922-3.099H-.95900008V-5.054H.922ZM5.826-5.571C5.777-6.014 5.543-6.309 5.126-6.456 4.707-6.604 4.241-6.702 3.724-6.751 3.7-6.481 3.589-6.198 3.392-5.903 3.884-5.927 4.271-5.915 4.554-5.866 4.836-5.817 5.015-5.706 5.089-5.534 5.162-5.362 5.218-4.858 5.255-4.021 5.292-3.185 5.322-2.017 5.347-.517H3.208C3.011-.984 2.729-1.537 2.36-2.177 2.188-2.005 1.979-1.869 1.733-1.771 1.954-1.476 2.163-1.119 2.36-.701 2.556-.283 2.729 .172 2.876 .664 3.024 1.156 3.11 1.537 3.134 1.808 3.478 1.66 3.773 1.55 4.019 1.476 3.896 1.279 3.792 1.064 3.706 .83 3.619 .596 3.527 .369 3.429 .148H6.047C6.023-.369 6.011-.849 6.011-1.291 5.986-2.792 5.924-4.219 5.826-5.571M3.835-2.804C3.982-3.099 4.154-3.481 4.351-3.948 4.179-4.021 3.946-4.145 3.651-4.317 3.478-3.85 3.319-3.45 3.171-3.117 3.024-2.785 2.876-2.509 2.729-2.287 2.9-2.189 3.122-2.066 3.392-1.918Z" fill="#2c292a"/>
<path transform="matrix(1,0,0,-1,139.0035,238.32849)" d="M0 0C.258 .467 .461 .898 .608 1.291 .928 1.119 1.211 .971 1.457 .849 1.137 .529 .891 .197 .719-.148 1.235-.148 1.69-.135 2.083-.111V-.775C1.641-.751 1.075-.738 .387-.738 .067-1.181-.252-1.599-.572-1.992-.719-1.796-.879-1.599-1.051-1.402-.608-.935-.258-.467 0 0M1.973-2.25C1.702-2.226 1.407-2.214 1.088-2.214V-3.284C1.555-3.284 1.973-3.271 2.342-3.247V-3.874C1.948-3.85 1.53-3.837 1.088-3.837V-5.645C1.481-5.325 1.801-5.017 2.047-4.722 2.145-4.993 2.243-5.227 2.342-5.423 2.071-5.645 1.776-5.884 1.457-6.143 1.137-6.401 .83-6.678 .535-6.973 .362-6.727 .203-6.517 .055-6.346 .277-6.124 .387-5.879 .387-5.608V-3.837C-.006-3.837-.363-3.85-.682-3.874V-3.247C-.338-3.271 .018-3.284 .387-3.284V-2.214C.215-2.214 .031-2.226-.166-2.25V-1.586C.08-1.611 .326-1.623 .572-1.623H1.346C1.542-1.623 1.752-1.611 1.973-1.586ZM3.558 1.181H4.296C4.271 .688 4.259 .282 4.259-.037H5.587C5.587 .381 5.574 .775 5.55 1.144H6.324C6.299 .873 6.287 .48 6.287-.037 6.68-.037 7.025-.025 7.32 0V-.664C6.975-.64 6.631-.627 6.287-.627V-1.845C6.951-1.845 7.418-1.833 7.689-1.808V-2.435C7.393-2.411 7-2.398 6.508-2.398H3.411C3.239-2.398 2.919-2.411 2.452-2.435V-1.808C2.722-1.833 3.103-1.845 3.595-1.845V-.627C3.448-.627 3.128-.64 2.637-.664V0C3.079-.025 3.398-.037 3.595-.037 3.595 .504 3.583 .91 3.558 1.181M6.877-5.165C6.877-6.1 6.889-6.751 6.914-7.12H6.213V-6.641H3.669V-7.231H2.969C2.993-6.517 3.005-5.817 3.005-5.128 3.005-4.415 2.993-3.8 2.969-3.284H6.914C6.889-3.579 6.877-4.206 6.877-5.165M6.213-3.837H3.669V-4.686H6.213ZM6.213-5.239H3.669V-6.088H6.213ZM5.587-.627H4.2599999V-1.844H5.587ZM5.587-1.845" fill="#2c292a"/>
<path transform="matrix(1,0,0,-1,152.2527,239.2864)" d="M0 0C-1.086 0-1.967-.881-1.967-1.968-1.967-3.054-1.086-3.935 0-3.935 1.086-3.935 1.967-3.054 1.967-1.968 1.967-.881 1.086 0 0 0M20.651-1.312H0V-2.624L20.651-2.623Z" fill="#2c292a"/>
<path transform="matrix(1,0,0,-1,203.7432,372.6716)" d="M0 0C.462 0 .881 .011 1.255 .033V-.595C.925-.573 .506-.562 0-.562H-1.553C-1.553-1.289-1.575-1.95-1.619-2.545H.925C1.321-2.545 1.685-2.534 2.015-2.512V-3.14C1.685-3.118 1.332-3.107 .958-3.107H-.529V-5.685C-.529-5.971-.363-6.114-.033-6.114H1.09C1.332-6.114 1.464-5.784 1.487-5.123 1.706-5.255 1.949-5.354 2.213-5.42 2.103-6.28 1.85-6.709 1.453-6.709H-.363C-.87-6.687-1.123-6.4-1.123-5.85V-3.107H-1.685C-1.861-3.944-2.076-4.577-2.329-5.007-2.582-5.437-2.874-5.8-3.204-6.098-3.535-6.395-4.03-6.731-4.691-7.106-4.801-6.863-4.988-6.676-5.253-6.544-4.724-6.301-4.294-6.054-3.964-5.8-3.634-5.547-3.32-5.233-3.023-4.858-2.725-4.484-2.489-3.9-2.312-3.107H-3.766C-4.317-3.107-4.713-3.118-4.955-3.14V-2.512C-4.713-2.534-4.317-2.545-3.766-2.545H-2.246C-2.225-1.884-2.213-1.223-2.213-.562H-3.105C-3.546-.562-3.953-.573-4.327-.595V.033C-3.953 .011-3.546 0-3.105 0Z" fill="#2c292a"/>
<path transform="matrix(1,0,0,-1,209.6796,378.4885)" d="M0 0C-.297-.066-.595-.138-.892-.215-1.189-.292-1.498-.38-1.817-.479-2.136-.578-2.439-.683-2.725-.793-2.77-.595-2.847-.331-2.957 0-2.714 .044-2.494 .088-2.296 .132V4.396C-2.296 4.858-2.307 5.31-2.329 5.751H.413C.391 5.354 .38 4.913 .38 4.429V.628C.468 .65 .611 .683 .809 .727V.165C.567 .121 .297 .066 0 0M-.281 5.222H-1.668V3.966H-.281ZM-.281 3.47H-1.668V2.148H-.281ZM-.958 .364C-.749 .407-.523 .451-.281 .496V1.619H-1.668V.231C-1.404 .275-1.168 .319-.958 .364M1.206 .314C1.426 .699 1.586 1.101 1.685 1.52 1.784 1.939 1.855 2.368 1.899 2.809 1.943 3.25 1.966 3.669 1.966 4.065 1.591 4.065 1.25 4.054 .941 4.032V4.627C1.227 4.605 1.569 4.594 1.966 4.594V5.354C1.966 5.596 1.954 5.927 1.932 6.346 2.175 6.323 2.461 6.313 2.791 6.313 2.725 6.026 2.687 5.739 2.676 5.453 2.664 5.167 2.659 4.88 2.659 4.594H4.509C4.443 4.241 4.41 3.812 4.41 3.305L4.212-.066C4.19-.484 4.047-.732 3.782-.81 3.518-.887 3.176-.947 2.758-.992 2.714-.705 2.637-.44 2.527-.198 2.945-.198 3.232-.193 3.386-.182 3.54-.171 3.617 .044 3.617 .463L3.782 4.065H2.659C2.615 3.14 2.538 2.39 2.428 1.818 2.318 1.245 2.18 .793 2.015 .463 1.85 .132 1.685-.16 1.52-.413 1.354-.666 1.161-.914 .941-1.157 .765-.98 .523-.837 .215-.727 .655-.419 .985-.072 1.206 .314" fill="#2c292a"/>
<path transform="matrix(1,0,0,-1,221.6448,373.7953)" d="M0 0C-.231-.243-.556-.573-.974-.992H-.05C.325-.992 .71-.981 1.107-.958V-1.553C.71-1.532 .314-1.52-.083-1.52H-1.635C-1.988-1.785-2.384-2.071-2.824-2.38H-.017C-.039-2.776-.05-3.14-.05-3.47V-4.627C-.05-5.024-.039-5.453-.017-5.916H-.677V-5.42H-3.848V-5.916H-4.542C-4.521-5.563-4.509-5.233-4.509-4.924V-3.404C-4.95-3.647-5.445-3.889-5.996-4.131-6.216-3.823-6.37-3.636-6.458-3.569-6.304-3.526-6.012-3.421-5.583-3.255-5.153-3.09-4.796-2.908-4.509-2.71V-2.38H-3.881C-3.397-2.115-2.968-1.829-2.593-1.52H-4.939C-5.401-1.52-5.831-1.532-6.227-1.553V-.958C-5.787-.981-5.357-.992-4.939-.992H-3.188V.033H-4.179C-4.554 .033-4.895 .022-5.203 0V.595C-4.895 .573-4.554 .562-4.179 .562H-3.188C-3.188 .892-3.199 1.267-3.221 1.686H-2.494C-2.516 1.377-2.527 1.002-2.527 .562H-2.032C-1.746 .562-1.415 .573-1.041 .595V0C-1.415 .022-1.746 .033-2.032 .033H-2.527V-.992H-1.866C-1.558-.749-1.25-.463-.941-.132-.633 .198-.314 .617 .017 1.124 .259 .881 .457 .705 .611 .595 .435 .44 .231 .242 0 0M-.677-2.908H-3.848V-3.602H-.677ZM-.677-4.131H-3.848V-4.891H-.677ZM-.677-4.891" fill="#2c292a"/>
</g>
<path transform="matrix(1,0,0,-1,227.6892,378.9181)" d="M0 0H-1.148L1.498 2.648H-3.803V3.466H1.498L-1.148 6.114H0L3.056 3.057Z" fill="#2c292a"/>
<g clip-path="url(#clip_9)">
<path transform="matrix(1,0,0,-1,232.085,373.29963)" d="M0 0C.33-.022 .715-.033 1.156-.033H3.039C2.819-1.443 2.544-2.534 2.213-3.305 2.763-4.077 3.171-4.671 3.435-5.09 3.281-5.2 3.105-5.343 2.907-5.519 2.445-4.726 2.103-4.187 1.883-3.9 1.619-4.363 1.354-4.748 1.09-5.057 .826-5.365 .496-5.706 .099-6.081-.055-5.883-.231-5.739-.43-5.652-.055-5.387 .286-5.079 .595-4.726 .903-4.374 1.2-3.922 1.486-3.371 .958-2.732 .473-2.204 .033-1.785 .165-1.675 .319-1.532 .496-1.355 1.134-2.06 1.564-2.534 1.784-2.776 2.07-1.983 2.257-1.245 2.345-.562H1.156C.715-.562 .33-.573 0-.595ZM3.171-.727C3.7-.749 4.063-.76 4.261-.76H5.682V.231C5.682 .517 5.66 .826 5.616 1.157H6.376C6.353 .892 6.343 .562 6.343 .165V-.76C6.562-.76 6.926-.749 7.433-.727V-1.322C6.926-1.3 6.562-1.289 6.343-1.289V-5.453C6.364-5.872 6.227-6.136 5.93-6.247 5.632-6.356 5.296-6.433 4.922-6.478 4.856-6.213 4.757-5.971 4.625-5.751 5.109-5.751 5.412-5.723 5.533-5.668 5.654-5.613 5.703-5.453 5.682-5.189V-1.289H4.294C4.096-1.289 3.722-1.311 3.171-1.355ZM4.823-3.867C4.536-3.977 4.327-4.087 4.195-4.197 3.997-3.602 3.711-2.986 3.336-2.347 3.49-2.28 3.667-2.171 3.865-2.016 4.239-2.677 4.559-3.294 4.823-3.867" fill="#2c292a"/>
<path transform="matrix(1,0,0,-1,247.7831,376.7698)" d="M0 0V-.595C-.22-.573-.584-.562-1.09-.562-1.09-1.135-1.079-1.586-1.057-1.917H-1.718V-1.586H-3.502V-2.214C-3.524-2.479-3.617-2.655-3.783-2.743-3.948-2.831-4.273-2.908-4.757-2.975-4.801-2.754-4.911-2.512-5.087-2.247-4.691-2.247-4.427-2.236-4.294-2.214-4.162-2.192-4.096-2.127-4.096-2.016V-1.586H-5.946C-6.189-1.586-6.475-1.598-6.805-1.619V-1.025C-6.475-1.047-6.189-1.058-5.946-1.058H-4.096V-.562H-6.574C-6.86-.562-7.135-.573-7.4-.595V0C-7.135-.022-6.86-.033-6.574-.033H-4.096V.43H-6.012C-6.255 .43-6.519 .418-6.805 .397V.991C-6.519 .969-6.255 .958-6.012 .958H-4.096V1.388H-6.409C-6.387 1.719-6.376 2.016-6.376 2.28-6.376 2.567-6.387 2.842-6.409 3.107H-4.096V3.569H-6.442C-6.794 3.569-7.125 3.558-7.433 3.536V4.131C-7.125 4.109-6.805 4.098-6.475 4.098H-4.096C-4.096 4.252-4.108 4.45-4.129 4.693H-3.469C-3.491 4.517-3.502 4.318-3.502 4.098H-1.255C-.881 4.098-.496 4.109-.099 4.131V3.536C-.496 3.558-.881 3.569-1.255 3.569H-3.502V3.107H-1.123C-1.145 2.842-1.156 2.567-1.156 2.28-1.156 1.994-1.145 1.696-1.123 1.388H-3.502V.958H-1.057C-1.079 .738-1.09 .407-1.09-.033-.76-.033-.396-.022 0 0M-4.096 2.578H-5.781V1.917H-4.096ZM-1.784 2.578H-3.502V1.917H-1.784ZM-1.718 .43H-3.502V-.032999994H-1.718ZM-1.718-.562H-3.502V-1.058H-1.718ZM-1.718-1.058" fill="#2c292a"/>
<path transform="matrix(1,0,0,-1,251.4899,373.0021)" d="M0 0H3.039C2.51-.859 2.169-1.421 2.015-1.686H3.898C3.876-1.994 3.865-2.534 3.865-3.305 3.865-4.077 3.876-4.627 3.898-4.958H3.204V-2.214H-.892V-5.057H-1.586C-1.564-4.704-1.553-4.143-1.553-3.371-1.553-2.6-1.564-2.06-1.586-1.752-1.894-1.972-2.137-2.16-2.313-2.314-2.511-2.093-2.709-1.917-2.907-1.785-2.621-1.653-2.285-1.438-1.9-1.14-1.515-.843-1.156-.468-.826-.017-.496 .435-.276 .782-.165 1.025 .055 .87 .286 .76 .528 .694 .242 .341 .066 .11 0 0M1.255-4.148C1.145-4.644 .969-5.051 .727-5.371 .484-5.69 .093-5.971-.446-6.213-.986-6.456-1.641-6.654-2.412-6.808-2.478-6.588-2.599-6.367-2.775-6.147-2.246-6.103-1.729-6.004-1.222-5.85-.716-5.696-.32-5.498-.033-5.255 .253-5.013 .451-4.71 .561-4.346 .671-3.983 .727-3.526 .727-2.975 1.013-3.019 1.277-3.052 1.52-3.074 1.453-3.294 1.365-3.652 1.255-4.148M-.364-.529C-.738-.948-1.123-1.333-1.52-1.686H1.288C1.574-1.223 1.805-.838 1.982-.529ZM3.105-5.519C3.545-5.718 4.019-5.949 4.526-6.213 4.393-6.389 4.272-6.599 4.162-6.841 3.678-6.577 3.221-6.334 2.791-6.114 2.362-5.894 1.937-5.696 1.52-5.519 1.696-5.255 1.794-5.057 1.817-4.924 2.235-5.123 2.664-5.321 3.105-5.519" fill="#2c292a"/>
<path transform="matrix(1,0,0,-1,261.0764,372.7377)" d="M0 0C1.541 0 2.489 .011 2.841 .033V-.529C2.445-.507 1.497-.496 0-.496V-1.124C1.299-1.124 2.092-1.113 2.378-1.091V-1.653C2.092-1.631 1.299-1.619 0-1.619V-2.247C1.916-2.247 3.072-2.237 3.469-2.214V-2.776C3.072-2.755 2.676-2.743 2.279-2.743H-2.907C-3.348-2.743-3.711-2.755-3.997-2.776V-2.214C-3.689-2.237-2.577-2.247-.661-2.247V-1.619C-1.916-1.619-2.698-1.631-3.006-1.653V-1.091C-2.698-1.113-1.916-1.124-.661-1.124V-.496C-2.18-.496-3.138-.507-3.534-.529V.033C-3.226 .011-2.268 0-.661 0-.661 .176-.672 .397-.694 .661H.033C.011 .397 0 .176 0 0M-2.362-6.23C-1.977-6.153-1.63-6.021-1.321-5.833-1.013-5.646-.804-5.399-.694-5.09-.584-4.782-.518-4.429-.495-4.032-.342-4.077-.11-4.131 .198-4.197 .11-4.462 .022-4.759-.066-5.09-.154-5.42-.286-5.696-.462-5.916-.639-6.137-.969-6.351-1.453-6.56-1.938-6.77-2.621-6.918-3.502-7.007-3.59-6.764-3.711-6.555-3.865-6.379-3.249-6.356-2.747-6.307-2.362-6.23M2.345-4.164C2.345-4.583 2.356-5.013 2.378-5.453H1.718V-3.669H-2.246V-5.585H-2.874C-2.852-4.991-2.841-4.528-2.841-4.197-2.841-3.845-2.852-3.493-2.874-3.14H2.378C2.356-3.404 2.345-3.746 2.345-4.164M3.171-6.544C3.017-6.72 2.874-6.908 2.742-7.106 2.279-6.819 1.442-6.367 .231-5.751 .341-5.619 .463-5.453 .595-5.255 1.057-5.498 1.916-5.927 3.171-6.544" fill="#2c292a"/>
<path transform="matrix(1,0,0,-1,222.9983,307.7901)" d="M0 0C.497-.026 1.14-.039 1.926-.039 2.738-.039 3.328-.026 3.695 0V-.669C3.328-.643 2.817-.629 2.162-.629 2.031-1.285 1.821-1.927 1.533-2.556H3.302C3.275-2.976 3.263-3.343 3.263-3.657V-5.545C3.263-5.938 3.275-6.371 3.302-6.843H2.594V-6.214H1.533V-7.393H.825C.851-6.869 .865-6.397 .865-5.978V-3.736C.629-4.103 .393-4.431 .157-4.719 .052-4.51-.144-4.326-.432-4.169-.144-3.933 .138-3.612 .413-3.205 .688-2.799 .897-2.393 1.042-1.986 1.185-1.58 1.31-1.128 1.415-.629 .891-.629 .419-.643 0-.669ZM2.594-3.146H1.5330001V-5.5839998H2.594ZM4.579-6.076C4.435-6.614 4.153-7.236 3.734-7.944 3.577-7.76 3.315-7.629 2.948-7.551 3.341-7.105 3.616-6.66 3.773-6.214 3.931-5.768 4.049-5.178 4.127-4.444 4.206-3.71 4.245-2.963 4.245-2.202 4.245-1.416 4.232-.787 4.206-.315H5.935C5.935 .236 5.922 .76 5.896 1.258H6.643C6.617 .812 6.604 .288 6.604-.315H8.608C8.556-.498 8.497-.741 8.431-1.042 8.366-1.344 8.307-1.678 8.254-2.045 7.966-1.993 7.73-1.953 7.547-1.927 7.626-1.639 7.704-1.311 7.783-.944H6.604V-2.792H8.215C8.137-3.553 8.012-4.188 7.842-4.699 7.671-5.211 7.403-5.742 7.036-6.292 7.691-6.921 8.333-7.315 8.962-7.472 8.569-7.682 8.359-7.891 8.333-8.101 7.757-7.839 7.154-7.406 6.525-6.803 5.948-7.328 5.437-7.76 4.992-8.101 4.861-7.865 4.625-7.694 4.285-7.59 4.835-7.354 5.437-6.921 6.093-6.292 5.542-5.559 5.214-4.601 5.11-3.421H4.913C4.835-4.654 4.723-5.539 4.579-6.076M5.935-.944H4.913V-2.792H5.935ZM7.39-3.421H5.7C5.83-4.339 6.118-5.112 6.564-5.742 7.036-5.06 7.311-4.287 7.39-3.421" fill="#f43040"/>
<path transform="matrix(1,0,0,-1,222.9983,307.7901)" stroke-width=".288" stroke-linecap="butt" stroke-miterlimit="10" stroke-linejoin="miter" fill="none" stroke="#f43040" d="M0 0C.497-.026 1.14-.039 1.926-.039 2.738-.039 3.328-.026 3.695 0V-.669C3.328-.643 2.817-.629 2.162-.629 2.031-1.285 1.821-1.927 1.533-2.556H3.302C3.275-2.976 3.263-3.343 3.263-3.657V-5.545C3.263-5.938 3.275-6.371 3.302-6.843H2.594V-6.214H1.533V-7.393H.825C.851-6.869 .865-6.397 .865-5.978V-3.736C.629-4.103 .393-4.431 .157-4.719 .052-4.51-.144-4.326-.432-4.169-.144-3.933 .138-3.612 .413-3.205 .688-2.799 .897-2.393 1.042-1.986 1.185-1.58 1.31-1.128 1.415-.629 .891-.629 .419-.643 0-.669V0ZM2.594-3.146H1.5330001V-5.5839998H2.594ZM4.579-6.076C4.435-6.614 4.153-7.236 3.734-7.944 3.577-7.76 3.315-7.629 2.948-7.551 3.341-7.105 3.616-6.66 3.773-6.214 3.931-5.768 4.049-5.178 4.127-4.444 4.206-3.71 4.245-2.963 4.245-2.202 4.245-1.416 4.232-.787 4.206-.315H5.935C5.935 .236 5.922 .76 5.896 1.258H6.643C6.617 .812 6.604 .288 6.604-.315H8.608C8.556-.498 8.497-.741 8.431-1.042 8.366-1.344 8.307-1.678 8.254-2.045 7.966-1.993 7.73-1.953 7.547-1.927 7.626-1.639 7.704-1.311 7.783-.944H6.604V-2.792H8.215C8.137-3.553 8.012-4.188 7.842-4.699 7.671-5.211 7.403-5.742 7.036-6.292 7.691-6.921 8.333-7.315 8.962-7.472 8.569-7.682 8.359-7.891 8.333-8.101 7.757-7.839 7.154-7.406 6.525-6.803 5.948-7.328 5.437-7.76 4.992-8.101 4.861-7.865 4.625-7.694 4.285-7.59 4.835-7.354 5.437-6.921 6.093-6.292 5.542-5.559 5.214-4.601 5.11-3.421H4.913C4.835-4.654 4.723-5.539 4.579-6.076ZM5.935-.944H4.913V-2.792H5.935ZM7.39-3.421H5.7C5.83-4.339 6.118-5.112 6.564-5.742 7.036-5.06 7.311-4.287 7.39-3.421Z"/>
<path transform="matrix(1,0,0,-1,241.0608,315.5178)" d="M0 0C-.302-.118-.688-.19-1.16-.216-1.212 .151-1.33 .479-1.513 .767-.884 .714-.518 .728-.413 .806-.308 .885-.23 1.055-.177 1.317L-.098 4.385H-6.112C-6.217 3.126-6.394 2.169-6.643 1.514-6.892 .858-7.174 .321-7.488-.098-7.724 .138-7.999 .295-8.313 .374-7.92 .819-7.62 1.324-7.409 1.888-7.2 2.451-7.056 3.015-6.977 3.579-6.898 4.142-6.859 4.686-6.859 5.211V6.43C-6.859 6.692-6.872 7.426-6.898 8.632H.02C-.007 8.212-.02 7.793-.02 7.374-.02 6.954-.007 6.534 .02 6.115H-6.073V5.053H.727L.57 1.042C.491 .466 .301 .118 0 0M-.727 7.964H-6.073V6.7840006H-.727ZM-1.651 2.301C-1.638 1.907-1.631 1.475-1.631 1.003H-5.444C-5.392 1.343-5.365 1.737-5.365 2.183-5.365 2.655-5.379 3.139-5.405 3.638H-1.631C-1.658 3.139-1.664 2.694-1.651 2.301M-2.378 2.969H-4.619V1.6320001H-2.378ZM-2.378 1.632" fill="#f43040"/>
<path transform="matrix(1,0,0,-1,241.0608,315.5178)" stroke-width=".288" stroke-linecap="butt" stroke-miterlimit="10" stroke-linejoin="miter" fill="none" stroke="#f43040" d="M0 0C-.302-.118-.688-.19-1.16-.216-1.212 .151-1.33 .479-1.513 .767-.884 .714-.518 .728-.413 .806-.308 .885-.23 1.055-.177 1.317L-.098 4.385H-6.112C-6.217 3.126-6.394 2.169-6.643 1.514-6.892 .858-7.174 .321-7.488-.098-7.724 .138-7.999 .295-8.313 .374-7.92 .819-7.62 1.324-7.409 1.888-7.2 2.451-7.056 3.015-6.977 3.579-6.898 4.142-6.859 4.686-6.859 5.211V6.43C-6.859 6.692-6.872 7.426-6.898 8.632H.02C-.007 8.212-.02 7.793-.02 7.374-.02 6.954-.007 6.534 .02 6.115H-6.073V5.053H.727L.57 1.042C.491 .466 .301 .118 0 0ZM-.727 7.964H-6.073V6.7840006H-.727ZM-1.651 2.301C-1.638 1.907-1.631 1.475-1.631 1.003H-5.444C-5.392 1.343-5.365 1.737-5.365 2.183-5.365 2.655-5.379 3.139-5.405 3.638H-1.631C-1.658 3.139-1.664 2.694-1.651 2.301ZM-2.378 2.969H-4.619V1.6320001H-2.378ZM-2.378 1.632"/>
</g>
<path transform="matrix(1,0,0,-1,264.5332,346.5642)" d="M0 0H-1.138V-1.088H-.643L-1.138-2.424H-.643L0-1.088Z" fill="#2c292a"/>
</g>
</g>
</svg>
