<svg xmlns="http://www.w3.org/2000/svg" xmlns:xlink="http://www.w3.org/1999/xlink" xmlns:inkscape="http://www.inkscape.org/namespaces/inkscape" version="1.1" width="411.024" height="595.276" viewBox="0 0 411.024 595.276">
<defs>
<clipPath id="clip_1">
<path transform="matrix(1,0,0,-1,0,595.276)" d="M0 0H411.024V595.276H0Z"/>
</clipPath>
<clipPath id="clip_2">
<path transform="matrix(1,0,0,-1,0,595.276)" d="M0 0H411.024V595.276H0Z"/>
</clipPath>
<path id="font_3_2" d="M.45599366 .19004822V.5218506C.45599366 .6397705 .37199403 .71777346 .26098634 .71777346 .1499939 .71777346 .06599426 .6397705 .06599426 .5218506V.19004822C.06599426 .072128299 .1499939-.005859375 .26098634-.005859375 .37199403-.005859375 .45599366 .072128299 .45599366 .19004822M.38398744 .19404602C.38398744 .116104129 .33999635 .058135988 .26098634 .058135988 .18199158 .058135988 .13798523 .116104129 .13798523 .19404602V.5178528C.13798523 .5957947 .18199158 .6537628 .26098634 .6537628 .33999635 .6537628 .38398744 .5957947 .38398744 .5178528V.19404602Z"/>
<path id="font_3_4" d="M.46099855 0V.06399536H.15499878L.4039917 .38186646C.44299317 .43185426 .46099855 .46884156 .46099855 .5258179 .46099855 .6427765 .38198854 .71777346 .2649994 .71777346 .1459961 .71777346 .068984989 .6367645 .068984989 .5248108H.14099121C.14099121 .6167755 .19898987 .6537628 .2649994 .6537628 .34298707 .6537628 .3889923 .6027832 .3889923 .5258179 .3889923 .48683167 .37599183 .45584107 .34899903 .42085267L.067993167 .06399536V0H.46099855Z"/>
<clipPath id="clip_4">
<path transform="matrix(1,0,0,-1,0,595.276)" d="M0 0H411.024V595.276H0Z"/>
</clipPath>
<clipPath id="clip_5">
<path transform="matrix(1,0,0,-1,0,595.276)" d="M0 0H411.024V595.276H0Z"/>
</clipPath>
<clipPath id="clip_6">
<path transform="matrix(1,0,0,-1,0,595.276)" d="M0 0H411.024V595.276H0Z"/>
</clipPath>
<clipPath id="clip_7">
<path transform="matrix(1,0,0,-1,0,595.276)" d="M0 0H411.024V595.276H0Z"/>
</clipPath>
<clipPath id="clip_8">
<path transform="matrix(1,0,0,-1,0,595.276)" d="M0 0H411.024V595.276H0Z"/>
</clipPath>
<clipPath id="clip_9">
<path transform="matrix(1,0,0,-1,0,595.276)" d="M0 0H411.024V595.276H0Z"/>
</clipPath>
<clipPath id="clip_10">
<path transform="matrix(1,0,0,-1,0,595.276)" d="M0 0H411.024V595.276H0Z"/>
</clipPath>
<clipPath id="clip_11">
<path transform="matrix(1,0,0,-1,0,595.276)" d="M0 0H411.024V595.276H0Z"/>
</clipPath>
<clipPath id="clip_12">
<path transform="matrix(1,0,0,-1,0,595.276)" d="M0 0H411.024V595.276H0Z"/>
</clipPath>
</defs>
<g clip-path="url(#clip_1)">
<g clip-path="url(#clip_2)">
<use data-text="0" xlink:href="#font_3_2" transform="matrix(9,0,0,-9,35.4331,567.547)" fill="#f43040"/>
<use data-text="2" xlink:href="#font_3_4" transform="matrix(9,0,0,-9,39.0331,567.547)" fill="#f43040"/>
<use data-text="2" xlink:href="#font_3_4" transform="matrix(9,0,0,-9,42.6331,567.547)" fill="#f43040"/>
<g clip-path="url(#clip_4)">
<path transform="matrix(1,0,0,-1,109.2392,384.56483)" d="M0 0C0 1.024-.015 1.711-.044 2.063H2.588C2.558 1.711 2.544 1.024 2.544 0V-3.16C2.544-4.096 2.558-4.725 2.588-5.047H1.754V-4.125H.746V-6.012H-.044C-.015-5.632 0-4.959 0-3.993ZM1.754 1.448H.745V-3.5110002H1.754ZM6.141-6.363C6.141-6.685 6.031-6.918 5.812-7.065 5.592-7.211 5.248-7.343 4.781-7.46 4.693-7.08 4.562-6.772 4.386-6.539 5.058-6.567 5.395-6.465 5.395-6.231V-3.511H4.518C4.488-3.891 4.422-4.308 4.32-4.761 4.218-5.215 4.02-5.705 3.728-6.231 3.436-6.758 3.128-7.182 2.807-7.504 2.632-7.299 2.353-7.153 1.974-7.065 2.558-6.567 2.983-5.983 3.246-5.31 3.509-4.637 3.655-4.037 3.684-3.511 3.362-3.511 3.099-3.526 2.895-3.555V-2.809C2.983-2.838 3.26-2.852 3.728-2.852 3.757-2.092 3.772-1.478 3.772-1.009 3.392-1.009 3.099-1.024 2.895-1.053V-.351C3.07-.381 3.362-.395 3.772-.395V1.668C3.538 1.668 3.246 1.652 2.895 1.624V2.326C3.246 2.296 3.523 2.282 3.728 2.282H6.184C6.155 1.872 6.141 1.477 6.141 1.097ZM5.395 1.668H4.562V-.39499999H5.395ZM5.395-2.852V-1.009H4.605C4.576-1.916 4.562-2.531 4.562-2.852ZM9.869 2.282C9.547 1.111 9.196-.132 8.816-1.448 9.459-2.794 9.803-3.679 9.847-4.103 9.891-4.528 9.832-4.886 9.671-5.178 9.51-5.471 9.079-5.778 8.378-6.1 8.319-5.778 8.158-5.471 7.895-5.178 8.772-5.12 9.108-4.674 8.904-3.84 8.699-3.006 8.392-2.253 7.983-1.58 8.362-.293 8.641 .79 8.816 1.668H7.588V-4.783C7.588-5.72 7.602-6.641 7.632-7.548H6.711C6.799-6.641 6.842-5.778 6.842-4.959V0C6.842 .76 6.813 1.521 6.755 2.282Z" fill="#2c292a"/>
<path transform="matrix(1,0,0,-1,130.2928,386.1007)" d="M0 0C-.293-.351-.512-.688-.658-1.009-2.559-.191-4.094 1.111-5.263 2.896-6.346 1.17-7.793-.176-9.606-1.141-9.752-.878-10-.6-10.351-.307-8.948 .278-7.859 1.024-7.084 1.931-6.309 2.837-5.79 3.657-5.527 4.388-5.176 4.242-4.825 4.11-4.474 3.993-4.591 3.847-4.693 3.715-4.781 3.598-3.553 1.784-1.959 .585 0 0M-5.658-.746C-5.658-.278-5.688 .322-5.746 1.053H-4.737C-4.767 .555-4.781-.059-4.781-.79V-3.906C-4.781-4.579-4.767-5.266-4.737-5.968H-5.702C-5.673-5.236-5.658-4.564-5.658-3.949Z" fill="#2c292a"/>
<path transform="matrix(1,0,0,-1,133.8016,384.1698)" d="M0 0V-5.617C0-6.554 .014-7.299 .044-7.855H-.965C-.936-7.328-.921-6.598-.921-5.661V-1.536C-1.331-2.209-1.726-2.78-2.105-3.247-2.34-2.896-2.544-2.648-2.719-2.501-2.34-2.092-1.879-1.412-1.338-.461-.797 .49-.395 1.463-.132 2.457 .19 2.252 .57 2.063 1.009 1.887 .746 1.682 .409 1.053 0 0M3.114 .395H6.009C6.652 .395 7.164 .409 7.544 .439V-.351C7.164-.322 6.652-.307 6.009-.307H3.991V-2.019H5.79C6.287-2.019 6.696-2.004 7.018-1.975V-2.809C6.637-2.78 6.228-2.765 5.79-2.765H3.991V-4.739H5.877C6.462-4.739 6.945-4.725 7.325-4.695V-5.529C6.945-5.5 6.476-5.485 5.921-5.485H3.991V-6.319C3.991-7.138 4.006-7.694 4.035-7.987H3.114C3.143-7.664 3.158-7.226 3.158-6.67V-.307H2.719C2.281-1.068 1.857-1.727 1.447-2.282 1.125-1.99 .848-1.799 .614-1.711 1.023-1.302 1.447-.717 1.886 .044 2.325 .804 2.675 1.624 2.939 2.501 3.377 2.296 3.757 2.15 4.079 2.063 3.786 1.828 3.465 1.273 3.114 .395" fill="#2c292a"/>
<path transform="matrix(1,0,0,-1,151.0612,384.1698)" d="M0 0C-.307-.322-.739-.761-1.294-1.316H-.066C.431-1.316 .943-1.302 1.469-1.273V-2.063C.943-2.034 .417-2.019-.11-2.019H-2.171C-2.639-2.37-3.166-2.75-3.75-3.16H-.022C-.051-3.686-.066-4.169-.066-4.608V-6.144C-.066-6.67-.051-7.241-.022-7.855H-.899V-7.197H-5.11V-7.855H-6.031C-6.002-7.387-5.987-6.948-5.987-6.539V-4.52C-6.572-4.842-7.23-5.164-7.961-5.485-8.254-5.076-8.458-4.827-8.575-4.739-8.371-4.681-7.983-4.542-7.413-4.322-6.842-4.103-6.368-3.862-5.987-3.598V-3.16H-5.154C-4.511-2.809-3.941-2.429-3.443-2.019H-6.557C-7.171-2.019-7.742-2.034-8.268-2.063V-1.273C-7.683-1.302-7.113-1.316-6.557-1.316H-4.233V.044H-5.548C-6.046 .044-6.499 .029-6.908 0V.79C-6.499 .76-6.046 .746-5.548 .746H-4.233C-4.233 1.185-4.248 1.682-4.277 2.238H-3.312C-3.341 1.828-3.355 1.331-3.355 .746H-2.698C-2.318 .746-1.879 .76-1.382 .79V0C-1.879 .029-2.318 .044-2.698 .044H-3.355V-1.316H-2.478C-2.069-.995-1.66-.614-1.25-.176-.841 .263-.417 .819 .022 1.492 .343 1.17 .606 .936 .811 .79 .577 .585 .307 .322 0 0M-.899-3.862H-5.11V-4.784H-.899ZM-.899-5.485H-5.11V-6.494H-.899ZM-.899-6.495" fill="#2c292a"/>
<path transform="matrix(1,0,0,-1,157.6622,384.6964)" d="M0 0C-.147-.79-.329-1.5-.548-2.128-.768-2.758-1.06-3.379-1.426-3.993-1.792-4.608-2.369-5.31-3.158-6.1-3.363-5.836-3.67-5.632-4.079-5.485-3.261-4.901-2.61-4.228-2.127-3.467-1.645-2.706-1.287-1.814-1.053-.79H-2.237C-2.676-.79-3.173-.819-3.728-.878V.044C-3.202 .014-2.719 0-2.281 0ZM1.557 1.624C1.542 1.273 1.571 .841 1.645 .329 1.717-.183 1.988-.79 2.456-1.492 3.655-.498 4.371 .278 4.605 .834 4.927 .541 5.219 .263 5.483 0 5.102-.263 4.729-.556 4.364-.878 3.998-1.2 3.494-1.639 2.851-2.194 3.085-2.692 3.509-3.247 4.123-3.862 4.737-4.476 5.483-4.915 6.36-5.178 5.862-5.413 5.57-5.705 5.483-6.056 4.371-5.383 3.516-4.637 2.917-3.818 2.317-2.999 1.857-2.18 1.535-1.36V-6.231C1.564-6.641 1.41-6.934 1.075-7.109 .738-7.285 .292-7.401-.263-7.46-.293-7.138-.424-6.787-.658-6.407-.191-6.495 .146-6.509 .351-6.451 .555-6.392 .658-6.203 .658-5.88V1.053C.658 1.784 .628 2.37 .57 2.809H1.579C1.579 2.37 1.571 1.975 1.557 1.624" fill="#2c292a"/>
<path transform="matrix(1,0,0,-1,172.3559,382.50233)" d="M0 0C.439 0 .979 .014 1.623 .044V-.79C1.009-.761 .467-.746 0-.746H-1.842V-4.915H.833C1.476-4.915 2.076-4.901 2.632-4.871V-5.705C2.076-5.676 1.476-5.661 .833-5.661H-1.842V-7.68C-1.842-8.323-1.828-8.937-1.798-9.523H-2.807C-2.778-8.937-2.763-8.323-2.763-7.68V-5.661H-5.965C-6.375-5.661-6.814-5.676-7.281-5.705V-4.871C-6.814-4.901-6.346-4.915-5.877-4.915H-2.763V-.746H-4.825C-5.263-.746-5.79-.761-6.404-.79V.044C-5.79 .014-5.278 0-4.869 0ZM-6.097-1.931C-5.863-1.755-5.629-1.565-5.395-1.36-4.664-2.238-4.079-3.014-3.641-3.686-3.991-3.949-4.27-4.169-4.474-4.344-4.913-3.467-5.454-2.662-6.097-1.931M.658-1.229C.95-1.434 1.242-1.609 1.535-1.755 .804-2.896 .19-3.789-.307-4.432-.541-4.228-.79-4.052-1.053-3.906-.38-3.087 .19-2.194 .658-1.229" fill="#2c292a"/>
<path transform="matrix(1,0,0,-1,176.3912,382.89723)" d="M0 0C.38-.029 .789-.044 1.228-.044H4.386C4.298 .307 4.196 .614 4.079 .878 4.43 .906 4.781 .965 5.132 1.053 5.19 .76 5.292 .395 5.439-.044H8.465C8.874-.044 9.299-.029 9.737 0V-.79C9.299-.761 8.757-.746 8.114-.746H1.272C.804-.746 .38-.761 0-.79ZM9.474-8.118C9.503-8.557 9.343-8.835 8.992-8.952 8.641-9.069 8.304-9.142 7.983-9.172 7.866-8.821 7.72-8.513 7.544-8.25 7.836-8.25 8.099-8.242 8.334-8.228 8.567-8.213 8.669-8.016 8.641-7.636V-4.871H1.184V-9.084H.307C.336-8.674 .351-7.841 .351-6.582 .351-5.295 .336-4.506 .307-4.213H9.518C9.488-4.623 9.474-5.076 9.474-5.573ZM7.851-2.501C7.851-2.824 7.866-3.16 7.895-3.511H1.711C1.739-3.247 1.754-2.911 1.754-2.501 1.754-2.092 1.739-1.727 1.711-1.404H7.895C7.866-1.785 7.851-2.15 7.851-2.501M7.062-2.063H2.5879999V-2.853H7.062ZM7.106-6.67C7.106-7.021 7.12-7.372 7.149-7.723H2.676C2.734-7.372 2.763-7.021 2.763-6.67 2.763-6.29 2.734-5.939 2.676-5.617H7.149C7.12-5.939 7.106-6.29 7.106-6.67M6.316-6.231H3.465V-7.109H6.316ZM6.316-7.109" fill="#2c292a"/>
<path transform="matrix(1,0,0,-1,190.383,382.90913)" d="M0 0C.76 .088 1.374-.307 1.842-1.183 2.134-2.177 1.739-3.17 .658-4.163 .307-4.689 .132-5.258 .132-5.872H-.658C-.687-4.791-.205-3.768 .789-2.804 1.023-2.454 1.125-2.075 1.096-1.665 .921-1.081 .585-.804 .088-.833H-.088C-.702-.862-.994-1.315-.965-2.191H-1.798C-1.828-1.111-1.463-.438-.702-.175-.585-.088-.351-.029 0 0M-.833-6.792H.39500005V-8.063H-.833Z" fill="#2c292a"/>
<path transform="matrix(1,0,0,-1,200.9098,385.6618)" d="M0 0C-.029-.556-.044-1.127-.044-1.711V-4.213C.892-4.857 2.207-5.186 3.904-5.2 5.599-5.215 6.959-5.164 7.983-5.047 7.807-5.398 7.69-5.734 7.632-6.056 6.433-6.085 5.439-6.085 4.649-6.056 3.86-6.026 3.18-5.983 2.61-5.924 2.04-5.865 1.571-5.771 1.206-5.639 .84-5.507 .489-5.339 .153-5.134-.183-4.93-.476-4.952-.724-5.2-.973-5.448-1.258-5.807-1.579-6.275-1.784-6.041-2.033-5.821-2.325-5.617-1.652-4.974-1.17-4.52-.877-4.257V-.746C-1.199-.746-1.652-.761-2.237-.79V.044C-1.623 .014-1.14 0-.79 0ZM.526 1.624C.263 1.477 0 1.287-.263 1.053-.643 1.696-1.097 2.311-1.623 2.896-1.331 3.101-1.082 3.291-.877 3.467-.147 2.53 .321 1.916 .526 1.624M6.009 2.984C6.301 2.984 6.755 2.998 7.369 3.028V2.194C6.842 2.223 6.316 2.238 5.79 2.238H4.781L4.211 1.097V-2.984C4.211-3.511 4.225-4.052 4.255-4.608H3.334C3.362-4.052 3.377-3.496 3.377-2.94V-.132C2.851-.863 2.003-1.711 .833-2.677 .687-2.443 .467-2.209 .175-1.975 .818-1.624 1.454-1.112 2.083-.439 2.712 .234 3.29 1.126 3.816 2.238H1.798C1.506 2.238 1.213 2.223 .921 2.194V3.028C1.213 3.028 1.623 3.013 2.149 2.984ZM7.763-2.019C7.5-2.165 7.237-2.355 6.974-2.589 6.681-2.121 6.009-1.273 4.956-.044 5.19 .132 5.395 .322 5.57 .527 5.98 .088 6.711-.761 7.763-2.019" fill="#2c292a"/>
<path transform="matrix(1,0,0,-1,219.5947,383.4677)" d="M0 0C0-.293 .015-.644 .044-1.053H-.833V.176H-8.421V-1.273H-9.299C-9.27-.922-9.255-.57-9.255-.219-9.255 .16-9.27 .541-9.299 .922H.044C.015 .599 0 .292 0 0M-4.474-5.793C-3.948-5.793-3.407-5.778-2.851-5.749V-6.582C-3.407-6.554-3.948-6.539-4.474-6.539H-7.544C-8.158-6.539-8.7-6.554-9.167-6.582V-5.749C-8.7-5.778-8.173-5.793-7.588-5.793ZM-6.404-1.668H-2.719C-2.252-1.668-1.798-1.653-1.359-1.624V-2.414C-1.77-2.385-2.121-2.37-2.412-2.37H-6.448L-6.623-3.774H-.614C-.614-4.593-.666-5.485-.768-6.451-.87-7.416-1.112-7.979-1.491-8.14-1.871-8.301-2.471-8.426-3.289-8.513-3.348-8.191-3.48-7.884-3.684-7.592-2.924-7.592-2.464-7.562-2.303-7.504-2.142-7.446-1.989-7.336-1.842-7.175-1.696-7.014-1.594-6.115-1.535-4.476H-7.544C-7.31-2.165-7.193-.79-7.193-.351L-6.228-.439C-6.316-.907-6.375-1.316-6.404-1.668" fill="#2c292a"/>
<path transform="matrix(1,0,0,-1,222.7966,389.8307)" d="M0 0V3.203C-.702 3.203-1.214 3.188-1.535 3.16V4.037C-1.272 3.978-.731 3.949 .088 3.949H.921C.892 3.511 .877 3.072 .877 2.633V-.088C1.725-.819 2.975-1.192 4.627-1.207 6.279-1.221 7.588-1.155 8.553-1.009 8.378-1.301 8.246-1.668 8.158-2.106H5.527C4.795-2.106 4.123-2.084 3.509-2.041 2.895-1.997 2.375-1.872 1.952-1.668 1.528-1.463 1.155-1.243 .833-1.009 .511-.775 .212-.797-.066-1.075-.344-1.353-.658-1.74-1.009-2.238-1.184-1.945-1.447-1.696-1.798-1.492-.892-.702-.293-.205 0 0M1.141 5.661C.848 5.485 .57 5.295 .307 5.09-.278 6.085-.717 6.714-1.009 6.977-.746 7.123-.482 7.328-.219 7.592 .073 7.241 .526 6.597 1.141 5.661M5.395 .395C5.57 .453 5.658 .702 5.658 1.141V5.134H2.807C2.485 5.134 2.134 5.119 1.754 5.09V5.924C2.134 5.895 2.602 5.88 3.158 5.88H5.658C5.658 6.641 5.629 7.299 5.57 7.855H6.579C6.55 7.475 6.535 6.816 6.535 5.88 7.15 5.88 7.705 5.895 8.202 5.924V5.09C7.734 5.119 7.178 5.134 6.535 5.134V.79C6.535 .117 6.338-.285 5.943-.417 5.548-.549 5.058-.629 4.474-.658 4.415-.337 4.298 0 4.123 .351 4.795 .322 5.22 .336 5.395 .395M2.281 3.862C2.544 3.978 2.822 4.139 3.114 4.344 3.64 3.291 3.976 2.56 4.123 2.15 3.918 2.033 3.625 1.872 3.246 1.668 2.983 2.457 2.66 3.188 2.281 3.862" fill="#2c292a"/>
<path transform="matrix(1,0,0,-1,232.7533,384.56483)" d="M0 0C0 1.024-.015 1.711-.044 2.063H2.588C2.558 1.711 2.544 1.024 2.544 0V-3.16C2.544-4.096 2.558-4.725 2.588-5.047H1.754V-4.125H.746V-6.012H-.044C-.015-5.632 0-4.959 0-3.993ZM1.754 1.448H.745V-3.5110002H1.754ZM6.141-6.363C6.141-6.685 6.031-6.918 5.812-7.065 5.592-7.211 5.248-7.343 4.781-7.46 4.693-7.08 4.562-6.772 4.386-6.539 5.058-6.567 5.395-6.465 5.395-6.231V-3.511H4.518C4.488-3.891 4.422-4.308 4.32-4.761 4.218-5.215 4.02-5.705 3.728-6.231 3.436-6.758 3.129-7.182 2.807-7.504 2.632-7.299 2.353-7.153 1.974-7.065 2.558-6.567 2.982-5.983 3.246-5.31 3.509-4.637 3.655-4.037 3.684-3.511 3.362-3.511 3.099-3.526 2.895-3.555V-2.809C2.982-2.838 3.26-2.852 3.728-2.852 3.757-2.092 3.772-1.478 3.772-1.009 3.392-1.009 3.099-1.024 2.895-1.053V-.351C3.07-.381 3.362-.395 3.772-.395V1.668C3.538 1.668 3.246 1.652 2.895 1.624V2.326C3.246 2.296 3.523 2.282 3.728 2.282H6.185C6.155 1.872 6.141 1.477 6.141 1.097ZM5.395 1.668H4.562V-.39499999H5.395ZM5.395-2.852V-1.009H4.605C4.576-1.916 4.562-2.531 4.562-2.852ZM9.869 2.282C9.547 1.111 9.196-.132 8.816-1.448 9.459-2.794 9.803-3.679 9.847-4.103 9.891-4.528 9.832-4.886 9.671-5.178 9.51-5.471 9.079-5.778 8.378-6.1 8.319-5.778 8.158-5.471 7.895-5.178 8.772-5.12 9.108-4.674 8.904-3.84 8.699-3.006 8.392-2.253 7.983-1.58 8.362-.293 8.641 .79 8.816 1.668H7.588V-4.783C7.588-5.72 7.603-6.641 7.632-7.548H6.711C6.798-6.641 6.842-5.778 6.842-4.959V0C6.842 .76 6.813 1.521 6.755 2.282Z" fill="#2c292a"/>
<path transform="matrix(1,0,0,-1,245.4293,384.78419)" d="M0 0V-2.282C.351-2.224 .716-2.15 1.096-2.063V1.36C1.096 1.799 1.081 2.252 1.053 2.721H1.974C1.915 2.252 1.886 1.799 1.886 1.36V.746C2.383 .746 2.851 .76 3.29 .79V.044C2.851 .073 2.383 .088 1.886 .088V-1.931C2.295-1.843 2.807-1.741 3.421-1.624 3.362-1.858 3.362-2.121 3.421-2.414 1.93-2.677 .804-2.896 .044-3.072-.717-3.247-1.214-3.365-1.447-3.423-1.506-3.189-1.609-2.896-1.754-2.545L-.789-2.414V.044C-.789 .512-.805 .922-.833 1.273H.044C.014 .892 0 .468 0 0M6.141-6.056C6.579-6.056 7.222-6.041 8.07-6.012V-6.846C7.222-6.816 6.579-6.802 6.141-6.802H-.044C-.629-6.802-1.156-6.816-1.623-6.846V-6.012C-1.126-6.041-.585-6.056 0-6.056ZM4.869-3.949C5.599-3.949 6.228-3.935 6.755-3.906V-4.695C6.257-4.667 5.585-4.652 4.737-4.652H1.36C.746-4.652 .16-4.667-.395-4.695V-3.906C.365-3.935 .95-3.949 1.36-3.949ZM4.649 1.185V.044C5.818 .658 6.608 1.17 7.018 1.58 7.222 1.287 7.456 1.024 7.72 .79 7.398 .673 6.374 .176 4.649-.702V-1.887C4.62-2.238 4.795-2.429 5.176-2.457H6.579C6.871-2.457 7.047-2.106 7.105-1.404 7.369-1.609 7.646-1.741 7.939-1.799 7.792-2.706 7.413-3.16 6.798-3.16H4.781C4.167-3.131 3.86-2.809 3.86-2.194V1.141C3.86 1.814 3.845 2.355 3.816 2.765H4.693C4.664 2.326 4.649 1.799 4.649 1.185" fill="#2c292a"/>
<path transform="matrix(1,0,0,-1,258.7632,384.12593)" d="M0 0C0 .994-.015 1.755-.044 2.282H.965C.906 1.843 .877 1.082 .877 0H4.211C4.152-.263 4.05-1.258 3.904-2.984H5.57C5.424-4.886 5.307-5.976 5.22-6.253 5.132-6.532 4.905-6.722 4.54-6.824 4.174-6.926 3.757-7.006 3.29-7.065 3.202-6.598 3.07-6.261 2.895-6.056 3.421-6.085 3.808-6.071 4.057-6.012 4.305-5.954 4.445-5.764 4.474-5.442L4.605-3.818H.877V-6.144C.877-6.729 .892-7.299 .921-7.855H-.131C-.044-7.328 0-6.773 0-6.188V-3.818H-2.061C-2.471-3.818-3.026-3.833-3.728-3.862V-2.94C-3.114-2.97-2.529-2.984-1.974-2.984H0V-.746H-1.711C-1.886-.746-2.281-.761-2.895-.79V.044C-2.31 .014-1.813 0-1.404 0ZM3.027-2.984 3.202-.746H.877V-2.984ZM4.649 1.338C4.971 1.031 5.292 .702 5.614 .351 5.263 .058 5.029-.147 4.913-.263 4.649 .146 3.992 .804 2.939 1.711 3.231 1.945 3.45 2.135 3.597 2.282 3.976 1.96 4.327 1.646 4.649 1.338" fill="#2c292a"/>
<path transform="matrix(1,0,0,-1,268.9827,382.90913)" d="M0 0C.76 .088 1.374-.307 1.842-1.183 2.134-2.177 1.74-3.17 .658-4.163 .307-4.689 .132-5.258 .132-5.872H-.658C-.687-4.791-.205-3.768 .79-2.804 1.023-2.454 1.125-2.075 1.097-1.665 .921-1.081 .585-.804 .088-.833H-.088C-.702-.862-.994-1.315-.965-2.191H-1.798C-1.828-1.111-1.462-.438-.702-.175-.585-.088-.351-.029 0 0M-.833-6.792H.39500005V-8.063H-.833Z" fill="#2c292a"/>
<path transform="matrix(1,0,0,-1,278.0183,391.0595)" d="M0 0C-.322 .176-.614 .322-.877 .439-.439 1.082 0 1.989 .439 3.16 .702 2.925 1.009 2.793 1.36 2.765 .95 1.916 .497 .994 0 0M8.202 6.275C8.202 5.456 8.216 4.637 8.246 3.818H.57C.599 4.666 .614 5.5 .614 6.319 .614 7.138 .599 7.957 .57 8.777H8.246C8.216 7.928 8.202 7.094 8.202 6.275M3.992 8.031H1.4920001V6.715H3.992ZM3.992 5.924H1.4920001V4.5639998H3.992ZM2.939 1.668V.614C2.909 .204 3.128 .015 3.597 .044H5.834C6.038 .044 6.213 .095 6.36 .197 6.506 .3 6.623 .687 6.711 1.36 7.003 1.097 7.325 .922 7.676 .834 7.471 .16 7.23-.263 6.952-.439 6.674-.614 6.36-.702 6.009-.702H2.939C2.412-.702 2.134-.424 2.105 .132V1.668C2.105 1.989 2.09 2.34 2.062 2.721H2.983C2.953 2.37 2.939 2.019 2.939 1.668M5.702 1.799C5.322 1.594 5.044 1.419 4.869 1.273 4.546 1.945 4.225 2.501 3.904 2.94 4.167 3.057 4.415 3.203 4.649 3.379 4.971 2.911 5.322 2.384 5.702 1.799M7.369 8.031H4.825V6.715H7.369ZM7.369 5.924H4.825V4.5639998H7.369ZM9.474 1.053C9.211 .878 8.962 .673 8.728 .439 8.29 1.141 7.748 1.857 7.106 2.589 7.281 2.677 7.515 2.852 7.807 3.116 8.45 2.384 9.006 1.696 9.474 1.053" fill="#2c292a"/>
<path transform="matrix(1,0,0,-1,290.3874,381.8001)" d="M0 0H.921C.892-.293 .877-.819 .877-1.58 1.257-1.58 1.695-1.565 2.193-1.536V-2.238C1.725-2.209 1.286-2.194 .877-2.194 .877-4.388 .892-5.705 .921-6.144H0C.029-5.413 .044-4.637 .044-3.818-.482-4.695-.936-5.354-1.316-5.793-1.521-5.559-1.77-5.369-2.062-5.222-1.419-4.725-.761-3.716-.088-2.194-.673-2.194-1.199-2.209-1.667-2.238V-1.536C-1.199-1.565-.629-1.58 .044-1.58 .044-1.083 .029-.556 0 0M-.57-10.005C-.833-9.918-1.156-9.815-1.535-9.698-1.184-9.113-.877-8.236-.614-7.065-.263-7.153 .044-7.226 .307-7.285-.044-8.485-.337-9.391-.57-10.005M2.632-4.388C2.427-4.535 2.207-4.711 1.974-4.915 1.798-4.535 1.505-4.067 1.096-3.511 1.301-3.365 1.52-3.203 1.754-3.028 2.134-3.584 2.427-4.037 2.632-4.388M2.061-8.25C2.061-8.601 2.068-8.864 2.083-9.04 2.098-9.215 2.295-9.318 2.676-9.347H4.825C5-9.347 5.132-9.303 5.219-9.215 5.307-9.128 5.365-8.821 5.395-8.294 5.629-8.469 5.95-8.601 6.36-8.689 6.155-9.303 5.987-9.676 5.855-9.808 5.724-9.94 5.395-10.005 4.868-10.005H2.061C1.593-9.976 1.338-9.815 1.294-9.523 1.25-9.23 1.228-8.85 1.228-8.382 1.228-7.914 1.213-7.46 1.184-7.021H2.105C2.076-7.46 2.061-7.87 2.061-8.25M7.413-3.423C7.413-4.476 7.427-5.369 7.456-6.1H2.851C2.88-5.485 2.895-4.593 2.895-3.423 2.895-2.253 2.88-1.258 2.851-.439H7.456C7.427-1.375 7.413-2.37 7.413-3.423M4.562-8.074C4.298-8.162 4.035-8.309 3.772-8.513 3.684-8.309 3.421-7.841 2.982-7.109 3.158-6.963 3.406-6.817 3.728-6.67 4.108-7.344 4.386-7.811 4.562-8.074M6.579-1.141H3.728V-2.194H6.579ZM6.579-2.852H3.728V-3.817H6.579ZM6.579-4.476H3.728V-5.4849998H6.579ZM8.29-8.908C7.997-9.113 7.734-9.318 7.5-9.523 7.266-9.084 6.725-8.367 5.877-7.372 6.199-7.197 6.433-7.007 6.579-6.802 7.339-7.68 7.909-8.382 8.29-8.908" fill="#2c292a"/>
<path transform="matrix(1,0,0,-1,300.6071,391.4983)" d="M0 0C-.293 .176-.556 .307-.789 .395-.41 1.038-.015 1.901 .395 2.984 .658 2.837 .936 2.706 1.228 2.589 .789 1.594 .38 .731 0 0M6.535 8.382C7.208 8.382 7.822 8.396 8.378 8.426V7.592C7.822 7.621 7.208 7.636 6.535 7.636H2.939V6.67H5.921C6.506 6.67 7.106 6.685 7.72 6.714V5.924C7.164 5.953 6.564 5.968 5.921 5.968H2.939V4.959H6.272C6.974 4.959 7.588 4.973 8.114 5.003V4.213C7.441 4.242 6.827 4.257 6.272 4.257H2.939V3.423H2.061C2.09 4.154 2.105 4.783 2.105 5.31V7.548C1.55 6.846 .892 6.172 .132 5.529-.103 5.793-.336 5.982-.57 6.1 .804 7.123 1.783 8.323 2.369 9.698 2.69 9.493 2.982 9.318 3.246 9.172 3.041 8.937 2.851 8.674 2.676 8.382ZM2.895 1.58C2.895 1.229 2.902 .972 2.917 .812 2.931 .651 3.114 .555 3.465 .527H5.746C6.038 .527 6.235 .592 6.338 .724 6.44 .856 6.564 1.111 6.711 1.492 6.974 1.199 7.251 .994 7.544 .878 7.31 .41 7.062 .11 6.798-.022 6.535-.154 6.243-.219 5.921-.219H2.807C2.339-.219 2.083-.08 2.039 .197 1.996 .476 1.981 .856 1.996 1.338 2.01 1.821 2.003 2.311 1.974 2.809H2.939C2.909 2.37 2.895 1.96 2.895 1.58M5.483 1.931C5.19 1.755 4.956 1.594 4.781 1.448 4.459 1.945 4.079 2.442 3.641 2.94 3.845 3.086 4.064 3.262 4.298 3.467 4.678 3.028 5.073 2.516 5.483 1.931M9.167 1.053C8.962 .906 8.728 .731 8.465 .527 7.939 1.229 7.369 1.887 6.755 2.501 6.93 2.647 7.134 2.837 7.369 3.072 7.983 2.398 8.582 1.726 9.167 1.053" fill="#2c292a"/>
<path transform="matrix(1,0,0,-1,312.713,383.336)" d="M0 0C0 .497-.015 .95-.044 1.36H.877C.848 .892 .833 .439 .833 0V-1.053C1.213-1.053 1.608-1.039 2.018-1.009V-1.799C1.608-1.77 1.213-1.755 .833-1.755V-3.379C1.067-3.175 1.242-3.028 1.36-2.94 1.681-3.35 2.046-3.877 2.456-4.52 2.281-4.608 2.032-4.783 1.711-5.047 1.388-4.462 1.097-3.949 .833-3.511V-6.802C.833-7.416 .848-8.031 .877-8.645H-.044C-.015-8.001 0-7.387 0-6.802V-3.686C-.468-4.798-.936-5.69-1.404-6.363-1.521-6.1-1.696-5.836-1.93-5.573-1.082-4.432-.498-3.16-.176-1.755-.644-1.755-1.156-1.77-1.711-1.799V-1.009C-1.156-1.039-.585-1.053 0-1.053ZM5.307-.57C5.599 .073 5.892 .775 6.185 1.536 6.652 1.36 6.959 1.229 7.106 1.141 6.842 .819 6.535 .248 6.185-.57H6.36C7.178-.542 7.763-.527 8.114-.527V-1.316C7.792-1.288 7.339-1.273 6.755-1.273H5.658V-2.984H6.36C7.032-2.955 7.529-2.94 7.851-2.94V-3.73C7.471-3.701 7.018-3.686 6.491-3.686H5.658V-5.485H7.018C7.573-5.457 8.027-5.442 8.378-5.442V-6.231C8.056-6.203 7.603-6.188 7.018-6.188H5.658V-7.153C5.658-7.767 5.673-8.279 5.702-8.689H4.825V-6.188H3.772C3.216-6.188 2.675-6.203 2.149-6.231V-5.398C2.675-5.427 3.231-5.457 3.816-5.485H4.825V-3.686H4.079C3.581-3.686 3.143-3.701 2.763-3.73V-2.896C3.114-2.926 3.567-2.955 4.123-2.984H4.825V-1.273H3.772C3.275-1.273 2.851-1.288 2.5-1.316V-.483C2.851-.512 3.275-.542 3.772-.57ZM4.605 0C4.255-.117 4.006-.219 3.86-.307 3.655 .19 3.436 .673 3.202 1.141 3.523 1.287 3.772 1.404 3.947 1.492 4.211 .994 4.43 .497 4.605 0" fill="#2c292a"/>
<path transform="matrix(1,0,0,-1,324.336,385.79353)" d="M0 0V-4.081C.76-4.842 2.025-5.215 3.794-5.2 5.563-5.185 6.974-5.12 8.027-5.003 7.822-5.383 7.69-5.719 7.632-6.012H3.553C2.851-6.012 2.237-5.961 1.711-5.858 1.184-5.756 .716-5.558 .307-5.266-.103-4.974-.432-4.937-.68-5.156-.929-5.376-1.228-5.705-1.579-6.144-1.754-5.909-1.989-5.69-2.281-5.485-1.667-4.959-1.184-4.52-.833-4.169V-.746C-1.214-.746-1.638-.761-2.105-.79V.044C-1.608 .014-1.184 0-.833 0ZM.219 1.668C-.044 1.638-.336 1.492-.658 1.229-.921 1.96-1.228 2.604-1.579 3.16-1.287 3.276-1.009 3.437-.746 3.642-.278 2.765 .044 2.106 .219 1.668M3.048-3.401C2.682-3.796 2.193-4.228 1.579-4.695 1.462-4.462 1.213-4.213 .833-3.949 1.506-3.628 2.084-3.203 2.566-2.677 3.048-2.15 3.392-1.551 3.597-.878 2.134-.878 1.169-.893 .702-.922V-.088C1.199-.117 2.207-.132 3.728-.132 3.787 .307 3.83 .834 3.86 1.448H2.193C2.047 1.068 1.9 .717 1.754 .395 1.462 .541 1.184 .643 .921 .702 1.155 1.082 1.36 1.528 1.535 2.041 1.711 2.552 1.871 3.13 2.018 3.774 2.193 3.657 2.5 3.555 2.939 3.467 2.763 3.232 2.602 2.809 2.456 2.194H3.86C3.86 2.955 3.83 3.569 3.772 4.037L4.781 3.993C4.722 3.642 4.678 3.042 4.649 2.194H5.965C6.228 2.194 6.594 2.209 7.062 2.238V1.36C6.594 1.419 6.185 1.448 5.834 1.448H4.649C4.62 .834 4.576 .307 4.518-.132H6.316C6.696-.132 7.15-.117 7.676-.088V-.922C7.15-.893 6.652-.878 6.185-.878H4.474L4.386-1.141C5.088-1.755 6.067-2.692 7.325-3.949 7.178-4.008 6.915-4.242 6.535-4.652 5.95-3.862 5.146-2.94 4.123-1.887 3.772-2.501 3.414-3.006 3.048-3.401" fill="#2c292a"/>
<path transform="matrix(1,0,0,-1,335.8279,384.56483)" d="M0 0V-5.573C0-6.188 .014-6.816 .044-7.46H-.877C-.849-6.816-.834-6.188-.834-5.573V-1.58C-1.272-2.282-1.638-2.809-1.93-3.16-2.105-2.926-2.325-2.706-2.588-2.501-2.121-2.063-1.638-1.36-1.141-.395-.644 .57-.278 1.609-.044 2.721 .395 2.516 .73 2.384 .965 2.326 .789 2.033 .467 1.258 0 0M2.544 2.545C2.719 2.516 3.055 2.472 3.553 2.414 3.494 2.063 3.538 .906 3.684-1.053 5.088-.79 6.169-.542 6.93-.307L7.149-1.141C6.827-1.17 5.702-1.39 3.772-1.799 4.123-3.642 4.642-4.915 5.329-5.617 6.016-6.319 6.411-6.509 6.513-6.188 6.615-5.866 6.681-5.515 6.711-5.134 7.032-5.339 7.354-5.471 7.676-5.529 7.471-6.349 7.273-6.89 7.083-7.153 6.893-7.416 6.542-7.46 6.031-7.285 5.519-7.109 4.963-6.641 4.364-5.88 3.764-5.12 3.275-3.818 2.895-1.975 1.783-2.209 1.096-2.37 .833-2.457L.57-1.624C1.037-1.565 1.783-1.434 2.807-1.229 2.66 .673 2.573 1.931 2.544 2.545M6.36 .702C6.097 .527 5.833 .336 5.57 .132 5.307 .629 4.971 1.126 4.562 1.624 4.795 1.77 5.029 1.945 5.263 2.15 5.79 1.506 6.155 1.024 6.36 .702" fill="#2c292a"/>
<path transform="matrix(1,0,0,-1,347.5827,382.90913)" d="M0 0C.76 .088 1.374-.307 1.842-1.183 2.134-2.177 1.74-3.17 .658-4.163 .307-4.689 .132-5.258 .132-5.872H-.658C-.687-4.791-.205-3.768 .79-2.804 1.023-2.454 1.125-2.075 1.097-1.665 .921-1.081 .585-.804 .088-.833H-.088C-.702-.862-.994-1.315-.965-2.191H-1.798C-1.828-1.111-1.462-.438-.702-.175-.585-.088-.351-.029 0 0M-.833-6.792H.39500005V-8.063H-.833Z" fill="#2c292a"/>
<path transform="matrix(1,0,0,-1,233.49,320.01)" stroke-width="2.7" stroke-linecap="butt" stroke-miterlimit="8" stroke-linejoin="miter" fill="none" stroke="#f43040" d="M0 0C20.681 .503 37.288 17.431 37.288 38.239 37.288 58.944 20.845 75.807 .316 76.469M5.377-59.21C4.483-59.244 3.596-59.262 2.705-59.262-34.763-59.262-65.137-28.873-65.137 8.614-65.137 45.356-35.958 75.279 .471 76.453M1.756-59.232C55.645-57.92 98.918-13.812 98.918 40.408 98.918 95.453 54.317 140.077-.702 140.077-1.993 140.077-3.278 140.052-4.54 140.004"/>
</g>
<path transform="matrix(1,0,0,-1,0,595.276)" d="M210.614 284.754H252.955V267.435H210.614Z" fill="#ffffff"/>
<g clip-path="url(#clip_5)">
<path transform="matrix(1,0,0,-1,221.9354,314.3668)" d="M0 0C-.84-.081-1.712-.138-2.615-.17-2.68-.525-2.745-.848-2.809-1.139H-.097C.419-1.139 1.017-1.123 1.695-1.09V-1.914C1.017-1.882 .419-1.865-.097-1.865H-3.003C-3.099-2.156-3.229-2.464-3.39-2.786H.823C1.566-2.786 2.292-2.754 3.003-2.689V-3.561C2.195-3.53 1.469-3.513 .823-3.513H-3.632C-3.858-3.901-4.052-4.191-4.213-4.385H1.598C1.566-4.935 1.55-5.532 1.55-6.178V-8.407C1.55-8.924 1.566-9.537 1.598-10.248H.63V-9.57H-4.504V-10.248H-5.473C-5.441-9.667-5.424-9.101-5.424-8.552V-5.645C-5.941-6.226-6.684-6.84-7.652-7.486-7.911-7.131-8.169-6.856-8.427-6.662-7.717-6.34-7.015-5.887-6.32-5.306-5.626-4.724-5.085-4.127-4.698-3.513H-6.538C-7.119-3.513-7.669-3.53-8.185-3.561V-2.738C-7.636-2.77-7.088-2.786-6.538-2.786H-4.31C-4.182-2.495-4.068-2.189-3.971-1.865H-5.231C-5.715-1.865-6.232-1.882-6.78-1.914V-1.09C-6.232-1.123-5.715-1.139-5.231-1.139H-3.778C-3.713-.784-3.665-.493-3.632-.267-4.052-.267-4.561-.283-5.158-.315-5.756-.347-6.409-.396-7.119-.46-7.216-.202-7.346 .104-7.507 .46-6.603 .428-5.175 .46-3.221 .557-1.268 .654 .339 .848 1.598 1.139 1.792 .815 2.017 .476 2.276 .121 1.598 .121 .839 .08 0 0M.63-5.112H-4.5039999V-5.8389999H.63ZM.63-6.566H-4.5039999V-7.341H.63ZM.63-8.019H-4.5039999V-8.794H.63ZM.63-8.794" fill="#2c292a"/>
<path transform="matrix(1,0,0,-1,235.9094,316.523)" d="M0 0V-5.669C0-6.154 .016-6.897 .048-7.898H-1.017V-7.026H-7.313V-7.85H-8.33C-8.298-6.977-8.282-6.283-8.282-5.766V0C-8.282 1.066-8.298 1.954-8.33 2.665H.048C.016 1.728 0 .84 0 0M-1.017 1.89H-7.3129999V-.24199999H-1.017ZM-1.017-1.018H-7.3129999V-3.198H-1.017ZM-1.017-3.973H-7.3129999V-6.25H-1.017ZM-1.017-6.251" fill="#2c292a"/>
<path transform="matrix(1,0,0,-1,241.6259,322.4829)" d="M0 0C-.726-.356-1.494-.775-2.3-1.26-2.494-.904-2.736-.581-3.027-.291-1.994 .032-1.09 .388-.315 .775 .46 1.163 1.154 1.534 1.768 1.89 1.832 1.599 1.896 1.324 1.961 1.066 1.38 .71 .727 .355 0 0M-1.235 5.863V6.735C-.622 6.703-.089 6.687 .363 6.687H5.303L5.4 7.753H.315C-.331 7.753-.993 7.736-1.671 7.704V8.625C-.993 8.56-.347 8.528 .266 8.528H6.465C6.336 7.365 6.223 6.121 6.126 4.797 6.836 4.797 7.499 4.813 8.112 4.845V3.973C7.563 4.005 6.998 4.022 6.417 4.022H3.172V3.004C3.495 2.454 3.802 2.067 4.092 1.841 5.029 2.487 5.691 3.02 6.078 3.44 6.401 3.181 6.708 2.923 6.998 2.665 6.449 2.406 5.674 1.938 4.674 1.26 5.19 .743 5.691 .371 6.175 .145 6.659-.081 7.321-.291 8.161-.485 7.805-.872 7.579-1.243 7.483-1.599 6.611-1.211 5.812-.759 5.085-.242 4.359 .274 3.721 .904 3.172 1.647V-.921C3.172-1.373 2.962-1.679 2.543-1.841 2.123-2.003 1.687-2.115 1.235-2.18 1.202-1.793 1.073-1.405 .847-1.018 1.46-1.049 1.832-1.025 1.961-.945 2.09-.865 2.155-.678 2.155-.388V4.022H-1.138C-1.719 4.022-2.317 4.005-2.93 3.973V4.845C-2.317 4.813-1.719 4.797-1.138 4.797H5.158L5.255 5.863ZM.605 2.035C.412 1.841 .201 1.599-.024 1.308-.638 1.921-1.235 2.439-1.816 2.859-1.622 3.053-1.445 3.278-1.283 3.537-.509 2.956 .121 2.454 .605 2.035" fill="#2c292a"/>
<path transform="matrix(1,0,0,-1,200.0146,335.9368)" d="M0 0C.307 .453 .563 .922 .767 1.404 .972 1.887 1.103 2.362 1.162 2.83 .08 2.83-.695 2.815-1.162 2.787V3.62C-.724 3.591 .094 3.576 1.294 3.576 1.382 4.191 1.425 4.937 1.425 5.815H.417C.27 5.404 .051 4.922-.241 4.366-.563 4.454-.855 4.527-1.118 4.586-.914 4.878-.709 5.266-.504 5.749-.3 6.231-.132 6.699 0 7.153 .132 7.606 .226 8.009 .285 8.36 .577 8.272 .914 8.199 1.294 8.14 1.147 7.935 1.031 7.702 .943 7.438 .855 7.175 .753 6.882 .636 6.561 2.303 6.561 3.34 6.575 3.75 6.604V5.815H2.259C2.259 5.171 2.229 4.425 2.171 3.576 2.873 3.576 3.487 3.591 4.013 3.62V2.787C3.487 2.815 2.829 2.83 2.04 2.83 2.01 2.508 1.952 2.201 1.864 1.909 2.127 1.704 2.419 1.477 2.741 1.229 3.063 .98 3.472 .563 3.969-.022 3.765-.11 3.531-.315 3.268-.636 3.005-.197 2.734 .16 2.456 .439 2.178 .717 1.893 .972 1.601 1.207 1.425 .738 1.155 .241 .789-.285 .423-.812 .051-1.279-.329-1.689-.476-1.514-.709-1.338-1.031-1.163-.651-.841-.307-.454 0 0M8.443 5.376V.812C8.443 .256 8.458-.315 8.487-.9H7.566V.285H5.241V-1.075H4.32C4.349-.52 4.364 .066 4.364 .68V5.376C4.364 5.843 4.349 6.37 4.32 6.956H8.487C8.458 6.37 8.443 5.843 8.443 5.376M7.566 6.253H5.241V.987H7.566ZM7.566 .987" fill="#2c292a"/>
<path transform="matrix(1,0,0,-1,209.8616,331.6581)" d="M0 0C.467-.029 .877-.044 1.228-.044H2.149C2.12-.512 2.105-1.009 2.105-1.536V-3.993C2.865-4.695 4.152-5.047 5.965-5.047 7.807-5.047 9.211-4.973 10.176-4.827 10.029-5.178 9.913-5.529 9.825-5.88 8.685-5.909 7.698-5.917 6.864-5.902 6.031-5.887 5.336-5.851 4.781-5.793 4.225-5.734 3.772-5.639 3.421-5.507 3.07-5.376 2.712-5.185 2.347-4.937 1.981-4.689 1.681-4.681 1.447-4.915 1.213-5.149 .936-5.485 .614-5.924 .351-5.661 .088-5.442-.176-5.266 .263-4.973 .746-4.564 1.272-4.037V-.746C.833-.746 .409-.761 0-.79ZM.702 3.467C1.053 3.525 1.36 3.613 1.623 3.73 1.827 3.145 2.018 2.501 2.193 1.799 1.9 1.74 1.593 1.638 1.272 1.492 1.155 2.019 .965 2.677 .702 3.467M2.939 2.633C3.377 2.603 4.708 2.589 6.93 2.589 7.164 3.145 7.383 3.715 7.588 4.301 7.968 4.154 8.29 4.037 8.553 3.949 8.348 3.744 8.085 3.291 7.763 2.589 8.904 2.589 9.722 2.603 10.22 2.633V1.843C9.722 1.872 8.611 1.887 6.886 1.887L6.667 1.009H9.211C9.181 .307 9.167-.614 9.167-1.755 9.167-2.867 9.181-3.701 9.211-4.257H3.728C3.787-3.614 3.816-2.78 3.816-1.755 3.816-.732 3.801 .19 3.772 1.009H5.746L5.965 1.887C4.386 1.887 3.377 1.872 2.939 1.843ZM5.702 3.116C5.468 2.969 5.234 2.809 5 2.633 4.795 2.984 4.503 3.379 4.123 3.818 4.327 3.964 4.546 4.125 4.781 4.301 5.161 3.832 5.468 3.437 5.702 3.116M8.334 .307H4.6939995V-.52699998H8.334ZM8.334-1.185H4.6939995V-2.019H8.334ZM8.334-2.677H4.6939995V-3.555H8.334ZM8.334-3.555" fill="#2c292a"/>
<path transform="matrix(1,0,0,-1,222.4718,335.9368)" d="M0 0C.307 .453 .563 .922 .767 1.404 .972 1.887 1.103 2.362 1.162 2.83 .08 2.83-.695 2.815-1.162 2.787V3.62C-.724 3.591 .095 3.576 1.294 3.576 1.382 4.191 1.426 4.937 1.426 5.815H.417C.27 5.404 .051 4.922-.241 4.366-.563 4.454-.855 4.527-1.119 4.586-.914 4.878-.709 5.266-.504 5.749-.3 6.231-.132 6.699 0 7.153 .132 7.606 .226 8.009 .285 8.36 .577 8.272 .914 8.199 1.294 8.14 1.147 7.935 1.031 7.702 .943 7.438 .855 7.175 .752 6.882 .636 6.561 2.303 6.561 3.34 6.575 3.75 6.604V5.815H2.259C2.259 5.171 2.229 4.425 2.171 3.576 2.873 3.576 3.487 3.591 4.013 3.62V2.787C3.487 2.815 2.829 2.83 2.039 2.83 2.01 2.508 1.952 2.201 1.864 1.909 2.127 1.704 2.419 1.477 2.741 1.229 3.063 .98 3.472 .563 3.969-.022 3.765-.11 3.531-.315 3.268-.636 3.004-.197 2.734 .16 2.456 .439 2.178 .717 1.893 .972 1.601 1.207 1.426 .738 1.155 .241 .789-.285 .424-.812 .051-1.279-.329-1.689-.476-1.514-.709-1.338-1.031-1.163-.651-.841-.307-.454 0 0M8.443 5.376V.812C8.443 .256 8.458-.315 8.487-.9H7.566V.285H5.242V-1.075H4.32C4.349-.52 4.364 .066 4.364 .68V5.376C4.364 5.843 4.349 6.37 4.32 6.956H8.487C8.458 6.37 8.443 5.843 8.443 5.376M7.566 6.253H5.241V.987H7.566ZM7.566 .987" fill="#2c292a"/>
<path transform="matrix(1,0,0,-1,234.6871,330.7366)" d="M0 0C-.029-.527-.044-1.141-.044-1.843V-4.388C.248-4.096 .57-3.73 .921-3.291 1.038-3.584 1.199-3.891 1.404-4.213 .965-4.623 .592-5.003 .285-5.354-.022-5.705-.337-6.085-.658-6.495-.863-6.172-1.112-5.909-1.404-5.705-1.082-5.441-.921-5.149-.921-4.827V-.746C-1.565-.746-2.077-.761-2.456-.79V.044C-2.105 .014-1.711 0-1.272 0ZM.702 1.668C.439 1.492 .19 1.273-.044 1.009-.6 1.857-1.038 2.457-1.36 2.809-1.126 2.955-.892 3.145-.658 3.379 .014 2.618 .467 2.047 .702 1.668M2.632-5.354C2.222-5.909 1.769-6.465 1.272-7.021 1.125-6.846 .892-6.641 .57-6.407 1.711-5.208 2.456-4.213 2.807-3.423 3.099-3.628 3.392-3.818 3.684-3.993 3.392-4.344 3.041-4.798 2.632-5.354M6.842-.044C6.842-1.244 6.857-2.106 6.886-2.633H1.667C1.695-2.136 1.711-1.273 1.711-.044 1.711 1.185 1.695 2.091 1.667 2.677H6.886C6.857 2.091 6.842 1.185 6.842-.044M5.921 1.843H2.631V-1.887H5.921ZM7.851-6.144C7.529-6.377 7.251-6.611 7.018-6.846 6.433-5.968 5.716-5.032 4.868-4.037 5.102-3.891 5.336-3.672 5.57-3.379 6.681-4.637 7.441-5.559 7.851-6.144" fill="#2c292a"/>
<path transform="matrix(1,0,0,-1,246.0035,332.5358)" d="M0 0V-3.247C0-3.833 .014-4.432 .044-5.047H-.921C-.863-4.403-.834-3.803-.834-3.247V-.176C-1.126-1.024-1.506-1.829-1.974-2.589-2.208-2.268-2.428-2.019-2.632-1.843-2.31-1.463-1.996-.973-1.689-.373-1.382 .226-1.126 .95-.921 1.799-1.419 1.799-1.901 1.784-2.369 1.755V2.501C-1.872 2.442-1.36 2.414-.834 2.414V3.555C-.863 3.993-.893 4.417-.921 4.827H.088C.029 4.476 0 4.052 0 3.555V2.414C.409 2.442 .833 2.472 1.272 2.501V1.755C.833 1.784 .409 1.799 0 1.799V.219C.088 .248 .292 .351 .614 .527 .848 .029 1.096-.483 1.36-1.009 1.009-1.185 .76-1.316 .614-1.404 .38-.819 .175-.351 0 0M7.72 4.257V3.555C7.339 3.583 6.886 3.598 6.36 3.598H2.412V-3.862H6.492C6.988-3.833 7.413-3.818 7.763-3.818V-4.564C7.413-4.505 7.003-4.476 6.535-4.476H1.579C1.608-4.008 1.623-3.54 1.623-3.072V3.335C1.593 3.627 1.579 3.92 1.579 4.213H6.316C6.842 4.242 7.31 4.257 7.72 4.257M6.097 2.414C6.476 2.442 6.842 2.472 7.193 2.501V1.755C6.842 1.784 6.476 1.799 6.097 1.799H5.483V.263H5.965C6.316 .292 6.667 .307 7.018 .307V-.395C6.667-.366 6.33-.351 6.009-.351H5.483V-2.019H6.272C6.681-2.019 7.046-2.004 7.369-1.975V-2.677C7.046-2.648 6.696-2.633 6.316-2.633H4.167C3.669-2.633 3.231-2.648 2.851-2.677V-1.975C3.202-2.004 3.625-2.019 4.123-2.019H4.649V-.351H4.342C3.845-.351 3.421-.366 3.07-.395V.307C3.421 .307 3.845 .292 4.342 .263H4.649V1.799H4.079C3.669 1.799 3.304 1.784 2.982 1.755V2.501C3.275 2.472 3.64 2.442 4.079 2.414Z" fill="#2c292a"/>
<path transform="matrix(1,0,0,-1,259.5128,333.5013)" d="M0 0C0 .234-.015 .614-.044 1.141H.833C.804 .585 .789 .204 .789 0H3.816C4.254 0 4.766 .014 5.351 .044V-.746C4.766-.688 4.254-.658 3.816-.658H1.579C1.959-1.127 2.353-1.492 2.763-1.755 3.172-2.019 3.603-2.238 4.057-2.414 4.51-2.589 4.971-2.721 5.439-2.809 5.146-3.16 4.956-3.452 4.869-3.686 4.313-3.481 3.83-3.276 3.421-3.072 3.011-2.867 2.558-2.567 2.061-2.172 1.564-1.777 1.14-1.302 .789-.746V-2.984C.789-3.276 .804-3.686 .833-4.213H-.044C-.015-3.715 0-3.306 0-2.984V-.834C-.176-1.097-.417-1.375-.724-1.668-1.031-1.96-1.36-2.231-1.711-2.479-2.062-2.728-2.442-2.962-2.851-3.182-3.261-3.401-3.67-3.613-4.079-3.818-4.226-3.555-4.43-3.276-4.693-2.984-4.284-2.896-3.919-2.78-3.597-2.633-3.275-2.487-2.954-2.326-2.632-2.15-2.31-1.975-1.981-1.748-1.645-1.47-1.309-1.192-1.053-.922-.877-.658H-3.027C-3.436-.658-3.904-.688-4.43-.746V.044C-3.904 .014-3.436 0-3.027 0ZM-1.623 5.354C-1.652 5.149-1.667 4.959-1.667 4.783H.482C.453 4.549 .431 4.176 .417 3.664 .402 3.152 .387 2.662 .373 2.194 .358 1.726 .197 1.426-.11 1.295-.417 1.163-.775 1.053-1.184 .965-1.272 1.258-1.433 1.565-1.667 1.887-.936 1.887-.541 2.019-.482 2.282-.424 2.545-.395 3.145-.395 4.081H-1.755C-1.784 3.613-1.908 3.064-2.127 2.436-2.347 1.806-2.924 1.185-3.86 .57-4.065 .834-4.298 1.053-4.562 1.229-3.743 1.638-3.217 2.106-2.983 2.633-2.749 3.16-2.617 3.642-2.588 4.081H-2.939C-3.261 4.081-3.626 4.066-4.035 4.037V4.827C-3.684 4.798-3.319 4.783-2.939 4.783H-2.5C-2.471 5.251-2.456 5.646-2.456 5.968L-1.447 5.836C-1.535 5.719-1.594 5.558-1.623 5.354M4.649 3.247C4.649 2.604 4.664 1.96 4.693 1.316H1.316C1.345 1.96 1.36 2.589 1.36 3.203 1.36 3.847 1.345 4.432 1.316 4.959H4.693C4.664 4.49 4.649 3.92 4.649 3.247M3.86 4.257H2.106V2.019H3.86ZM3.86 2.019" fill="#2c292a"/>
</g>
<path transform="matrix(1,0,0,-1,0,595.276)" d="M101.838 326.414H229.797V309.095H101.838Z" fill="#ffffff"/>
<g clip-path="url(#clip_6)">
<path transform="matrix(1,0,0,-1,108.7848,277.436)" d="M0 0C-.453-.259-.872-.485-1.259-.678V-4.264C-1.259-4.78-1.397-5.112-1.671-5.257-1.946-5.403-2.454-5.475-3.196-5.475-3.262-5.119-3.374-4.764-3.535-4.409-2.922-4.441-2.543-4.441-2.397-4.409-2.252-4.377-2.179-4.2-2.179-3.876V-1.114C-2.857-1.438-3.358-1.68-3.681-1.841-3.81-1.486-3.955-1.18-4.117-.921-3.762-.856-3.116-.614-2.179-.194V2.035C-2.954 2.035-3.504 2.018-3.826 1.987V2.859C-3.504 2.826-2.954 2.81-2.179 2.81-2.179 3.876-2.196 4.813-2.228 5.621H-1.211C-1.243 4.877-1.259 3.941-1.259 2.81-.84 2.81-.388 2.826 .097 2.859V1.987C-.484 2.018-.937 2.035-1.259 2.035V.194C-.969 .323-.598 .516-.145 .775-.114 .485-.065 .226 0 0M3.874-2.568C4.326-3.473 4.705-4.014 5.012-4.191 5.319-4.368 5.529-4.281 5.642-3.925 5.755-3.57 5.843-3.215 5.908-2.859 6.296-3.118 6.635-3.312 6.926-3.44 6.667-4.281 6.441-4.837 6.248-5.112 6.054-5.386 5.803-5.54 5.497-5.572 5.19-5.604 4.786-5.37 4.286-4.87 3.785-4.368 3.406-3.845 3.148-3.295 2.728-3.682 2.292-4.03 1.84-4.337 1.388-4.643 .903-4.926 .387-5.185 .225-4.861-.017-4.586-.339-4.361 .145-4.2 .686-3.933 1.283-3.561 1.88-3.19 2.356-2.794 2.712-2.374 2.421-1.567 2.179-.436 1.986 1.018 1.566 .921 .952 .791 .145 .63 .113 .952 .032 1.26-.097 1.551 .645 1.647 1.308 1.76 1.889 1.89 1.824 2.762 1.775 4.053 1.743 5.766 2.066 5.734 2.421 5.701 2.809 5.669 2.776 3.989 2.792 2.794 2.857 2.084 4.02 2.309 5.165 2.536 6.296 2.762 6.328 2.439 6.376 2.132 6.441 1.841 5.182 1.647 4.02 1.437 2.954 1.211 3.083 .016 3.261-.937 3.487-1.647 4.262-.678 4.81 .194 5.134 .969 5.456 .613 5.747 .355 6.005 .194 5.037-1.098 4.326-2.019 3.874-2.568M5.957 3.683C5.698 3.489 5.488 3.278 5.327 3.053 5.037 3.408 4.439 3.973 3.535 4.749 3.697 4.877 3.89 5.088 4.117 5.378 4.923 4.765 5.537 4.199 5.957 3.683" fill="#2c292a"/>
</g>
<path transform="matrix(1,0,0,-1,122.5232,276.0792)" d="M0 0-1.211-5.524H-2.131L-2.906-1.308H-3.003L-3.777-5.524H-4.698L-5.908 0H-4.891L-4.262-3.634H-4.165L-3.487 0H-2.421L-1.743-3.634H-1.647L-1.017 0Z" fill="#2c292a"/>
<g clip-path="url(#clip_7)">
<path transform="matrix(1,0,0,-1,128.2268,281.5061)" d="M0 0H-.969V3.489C-.969 3.876-1.066 4.183-1.259 4.409-1.453 4.635-1.712 4.749-2.034 4.749-2.454 4.749-2.85 4.53-3.221 4.094-3.592 3.658-3.778 3.117-3.778 2.471V0H-4.746V8.286H-3.778V4.409C-3.52 4.764-3.237 5.039-2.93 5.233-2.624 5.427-2.228 5.524-1.744 5.524-1.162 5.524-.726 5.362-.436 5.039-.145 4.716 0 4.312 0 3.828Z" fill="#2c292a"/>
<path transform="matrix(1,0,0,-1,134.6084,281.5061)" d="M0 0H-1.162C-1.227 .064-1.276 .153-1.308 .266-1.34 .379-1.356 .516-1.356 .678-1.582 .419-1.857 .226-2.179 .097-2.502-.032-2.842-.097-3.196-.097-3.713-.097-4.149 .032-4.504 .291-4.86 .549-5.037 .921-5.037 1.405-5.037 1.89-4.876 2.277-4.552 2.568-4.23 2.859-3.729 3.053-3.051 3.15-2.599 3.214-2.204 3.295-1.865 3.392-1.526 3.489-1.356 3.617-1.356 3.779-1.356 3.973-1.429 4.167-1.574 4.361-1.719 4.555-2.034 4.652-2.518 4.652-2.906 4.652-3.189 4.579-3.366 4.434-3.544 4.288-3.665 4.086-3.729 3.828H-4.795C-4.73 4.344-4.496 4.756-4.092 5.063-3.689 5.37-3.165 5.524-2.518 5.524-1.809 5.524-1.276 5.362-.92 5.039-.565 4.716-.387 4.264-.387 3.682V1.018C-.387 .824-.356 .646-.291 .485-.226 .322-.129 .161 0 0M-1.356 1.793V2.762C-1.55 2.697-1.736 2.641-1.913 2.592-2.091 2.544-2.39 2.487-2.809 2.423-3.293 2.358-3.608 2.245-3.753 2.084-3.899 1.921-3.971 1.728-3.971 1.502-3.971 1.308-3.899 1.139-3.753 .993-3.608 .848-3.39 .775-3.1 .775-2.809 .775-2.494 .855-2.155 1.018-1.816 1.179-1.55 1.437-1.356 1.793" fill="#2c292a"/>
<path transform="matrix(1,0,0,-1,140.6024,281.3607)" d="M0 0C-.162-.065-.347-.121-.557-.17-.767-.218-1.05-.242-1.404-.242-1.986-.242-2.454-.081-2.809 .242-3.165 .565-3.342 1.018-3.342 1.599V4.506H-4.988V5.282H-3.342V7.171H-2.373V5.282H-.387V4.506H-2.373V1.551C-2.373 1.292-2.309 1.074-2.179 .896-2.051 .719-1.809 .63-1.453 .63-1.098 .63-.807 .662-.581 .727-.356 .791-.162 .872 0 .969Z" fill="#2c292a"/>
<path transform="matrix(1,0,0,-1,147.42,280.537)" d="M0 0-.436-.969C-.63-.84-.799-.727-.944-.63-1.09-.533-1.243-.404-1.404-.242-1.663-.501-1.937-.703-2.228-.848-2.518-.993-2.857-1.066-3.245-1.066-3.891-1.066-4.448-.872-4.916-.485-5.384-.097-5.618 .501-5.618 1.308-5.618 1.825-5.481 2.253-5.206 2.592-4.932 2.932-4.601 3.246-4.213 3.537-4.375 3.892-4.504 4.247-4.601 4.603-4.698 4.958-4.746 5.282-4.746 5.572-4.746 6.154-4.577 6.606-4.238 6.929-3.899 7.251-3.487 7.414-3.003 7.414-2.583 7.414-2.228 7.276-1.937 7.002-1.647 6.727-1.501 6.331-1.501 5.815-1.501 5.201-1.671 4.708-2.01 4.337-2.349 3.965-2.729 3.65-3.148 3.392-2.923 3.004-2.688 2.641-2.446 2.302-2.204 1.962-1.921 1.615-1.598 1.26-1.501 1.485-1.437 1.703-1.404 1.914-1.373 2.124-1.356 2.39-1.356 2.713H-.388C-.388 2.293-.428 1.914-.509 1.575-.59 1.236-.711 .921-.872 .63-.775 .533-.638 .419-.46 .291-.283 .161-.129 .064 0 0M-2.082 .388C-2.503 .84-2.857 1.26-3.148 1.647-3.439 2.035-3.681 2.423-3.875 2.81-4.133 2.617-4.319 2.398-4.431 2.156-4.545 1.914-4.601 1.615-4.601 1.26-4.601 .775-4.456 .412-4.165 .17-3.875-.073-3.535-.194-3.148-.194-2.923-.194-2.729-.145-2.567-.048-2.406 .048-2.245 .194-2.082 .388M-2.422 5.815C-2.422 6.04-2.478 6.218-2.591 6.348-2.705 6.476-2.857 6.541-3.051 6.541-3.245 6.541-3.423 6.46-3.584 6.299-3.746 6.137-3.826 5.911-3.826 5.621-3.826 5.394-3.802 5.16-3.753 4.918-3.705 4.676-3.616 4.409-3.487 4.119-3.229 4.247-2.987 4.45-2.761 4.724-2.535 4.998-2.422 5.362-2.422 5.815" fill="#2c292a"/>
</g>
<path transform="matrix(1,0,0,-1,153.7047,276.0792)" d="M0 0-1.211-5.524H-2.131L-2.906-1.308H-3.003L-3.777-5.524H-4.698L-5.908 0H-4.891L-4.262-3.634H-4.165L-3.487 0H-2.421L-1.743-3.634H-1.647L-1.017 0Z" fill="#2c292a"/>
<g clip-path="url(#clip_8)">
<path transform="matrix(1,0,0,-1,159.4083,281.5061)" d="M0 0H-.969V3.489C-.969 3.876-1.066 4.183-1.259 4.409-1.453 4.635-1.712 4.749-2.034 4.749-2.454 4.749-2.85 4.53-3.221 4.094-3.592 3.658-3.778 3.117-3.778 2.471V0H-4.746V8.286H-3.778V4.409C-3.52 4.764-3.237 5.039-2.93 5.233-2.624 5.427-2.228 5.524-1.744 5.524-1.162 5.524-.726 5.362-.436 5.039-.145 4.716 0 4.312 0 3.828Z" fill="#2c292a"/>
<path transform="matrix(1,0,0,-1,165.8382,276.0792)" d="M0 0-2.228-5.863C-2.357-6.315-2.551-6.654-2.809-6.881-3.068-7.106-3.39-7.22-3.778-7.22-3.94-7.22-4.092-7.211-4.238-7.195-4.383-7.179-4.521-7.139-4.649-7.074V-6.105C-4.521-6.17-4.391-6.218-4.262-6.251-4.133-6.282-4.02-6.299-3.923-6.299-3.665-6.299-3.487-6.258-3.39-6.178-3.293-6.097-3.196-5.911-3.1-5.621L-5.231 0H-4.165L-2.615-4.264H-2.567L-1.066 0Z" fill="#2c292a"/>
<path transform="matrix(1,0,0,-1,172.3652,280.537)" d="M0 0-.436-.969C-.63-.84-.799-.727-.944-.63-1.09-.533-1.243-.404-1.404-.242-1.663-.501-1.937-.703-2.228-.848-2.518-.993-2.857-1.066-3.245-1.066-3.891-1.066-4.448-.872-4.916-.485-5.384-.097-5.618 .501-5.618 1.308-5.618 1.825-5.481 2.253-5.206 2.592-4.932 2.932-4.601 3.246-4.213 3.537-4.375 3.892-4.504 4.247-4.601 4.603-4.698 4.958-4.746 5.282-4.746 5.572-4.746 6.154-4.577 6.606-4.238 6.929-3.899 7.251-3.487 7.414-3.003 7.414-2.584 7.414-2.228 7.276-1.937 7.002-1.647 6.727-1.501 6.331-1.501 5.815-1.501 5.201-1.671 4.708-2.01 4.337-2.349 3.965-2.729 3.65-3.148 3.392-2.923 3.004-2.688 2.641-2.446 2.302-2.204 1.962-1.921 1.615-1.598 1.26-1.501 1.485-1.437 1.703-1.404 1.914-1.373 2.124-1.356 2.39-1.356 2.713H-.388C-.388 2.293-.428 1.914-.509 1.575-.59 1.236-.711 .921-.872 .63-.775 .533-.638 .419-.46 .291-.283 .161-.13 .064 0 0M-2.083 .388C-2.503 .84-2.857 1.26-3.148 1.647-3.439 2.035-3.681 2.423-3.875 2.81-4.133 2.617-4.319 2.398-4.431 2.156-4.545 1.914-4.601 1.615-4.601 1.26-4.601 .775-4.456 .412-4.165 .17-3.875-.073-3.535-.194-3.148-.194-2.923-.194-2.729-.145-2.567-.048-2.406 .048-2.245 .194-2.083 .388M-2.422 5.815C-2.422 6.04-2.478 6.218-2.591 6.348-2.705 6.476-2.857 6.541-3.051 6.541-3.245 6.541-3.423 6.46-3.584 6.299-3.746 6.137-3.826 5.911-3.826 5.621-3.826 5.394-3.802 5.16-3.753 4.918-3.705 4.676-3.616 4.409-3.487 4.119-3.229 4.247-2.987 4.45-2.761 4.724-2.535 4.998-2.422 5.362-2.422 5.815" fill="#2c292a"/>
<path transform="matrix(1,0,0,-1,178.1172,281.5061)" d="M0 0H-.969V3.489C-.969 3.876-1.066 4.183-1.259 4.409-1.453 4.635-1.712 4.749-2.034 4.749-2.454 4.749-2.85 4.53-3.221 4.094-3.592 3.658-3.778 3.117-3.778 2.471V0H-4.746V8.286H-3.778V4.409C-3.52 4.764-3.237 5.039-2.93 5.233-2.624 5.427-2.228 5.524-1.744 5.524-1.162 5.524-.726 5.362-.436 5.039-.145 4.716 0 4.312 0 3.828Z" fill="#2c292a"/>
<path transform="matrix(1,0,0,-1,184.5956,278.7927)" d="M0 0C0-.84-.259-1.519-.775-2.035-1.292-2.552-1.905-2.81-2.615-2.81-3.326-2.81-3.94-2.552-4.456-2.035-4.973-1.519-5.231-.84-5.231 0-5.231 .84-4.973 1.518-4.456 2.035-3.94 2.551-3.326 2.81-2.615 2.81-1.905 2.81-1.292 2.551-.775 2.035-.259 1.518 0 .84 0 0M-1.066 0C-1.066 .646-1.227 1.13-1.55 1.454-1.873 1.776-2.228 1.938-2.615 1.938-3.003 1.938-3.358 1.776-3.681 1.454-4.004 1.13-4.165 .646-4.165 0-4.165-.647-4.004-1.131-3.681-1.454-3.358-1.777-3.003-1.938-2.615-1.938-2.228-1.938-1.873-1.777-1.55-1.454-1.227-1.131-1.066-.647-1.066 0" fill="#2c292a"/>
</g>
<path transform="matrix(1,0,0,-1,191.1223,276.0792)" d="M0 0-1.211-5.524H-2.131L-2.906-1.308H-3.003L-3.777-5.524H-4.698L-5.908 0H-4.891L-4.262-3.634H-4.165L-3.487 0H-2.421L-1.743-3.634H-1.647L-1.017 0Z" fill="#2c292a"/>
<path transform="matrix(1,0,0,-1,0,595.276)" d="M191.9 232.094H271.66999V214.541H191.9Z" fill="#ffffff"/>
<g clip-path="url(#clip_9)">
<path transform="matrix(1,0,0,-1,198.0874,367.6208)" d="M0 0C-.097-.242-.21-.509-.339-.799H1.986C1.986 .17 1.969 .88 1.937 1.333H3.051C3.019 .945 3.003 .234 3.003-.799H4.649C5.295-.799 5.924-.783 6.538-.751V-1.72C5.957-1.688 5.343-1.672 4.698-1.672H3.003V-3.561H6.344C6.957-3.561 7.507-3.545 7.991-3.513V-4.482C7.507-4.45 6.957-4.434 6.344-4.434H4.359V-7.922C4.326-8.407 4.536-8.649 4.988-8.649H5.957C6.248-8.649 6.449-8.52 6.562-8.261 6.675-8.003 6.748-7.616 6.78-7.099 7.168-7.389 7.571-7.551 7.991-7.583 7.7-8.52 7.45-9.068 7.24-9.231 7.03-9.392 6.764-9.489 6.441-9.521H4.601C3.858-9.521 3.454-9.165 3.39-8.455V-4.434H1.453C1.323-6.856 .145-8.632-2.083-9.764-2.276-9.505-2.599-9.231-3.051-8.94-.953-8.358 .21-6.856 .436-4.434H-1.356C-2.034-4.434-2.599-4.45-3.051-4.482V-3.513C-2.567-3.545-2.002-3.561-1.356-3.561H1.986V-1.672H-.678C-.807-1.962-1.065-2.464-1.453-3.174-1.712-2.948-2.034-2.803-2.422-2.738-1.647-1.607-1.098-.347-.775 1.042-.387 .88 0 .751 .387 .654 .225 .46 .097 .242 0 0" fill="#2c292a"/>
<path transform="matrix(1,0,0,-1,209.9305,369.7771)" d="M0 0C-.033-.55-.048-1.147-.048-1.793V-4.991C.21-4.7 .484-4.378 .775-4.022 .872-4.281 1.033-4.555 1.259-4.845 .807-5.298 .419-5.702 .097-6.057-.226-6.412-.501-6.735-.726-7.026-.888-6.767-1.131-6.525-1.453-6.299-1.162-6.073-.985-5.815-.92-5.524V-.775C-1.308-.775-1.824-.792-2.47-.824V.048C-1.889 .016-1.356 0-.872 0ZM.339 1.744C.08 1.582-.178 1.388-.436 1.163-.856 1.841-1.308 2.406-1.792 2.859-1.501 3.053-1.259 3.246-1.066 3.44-.517 2.859-.048 2.293 .339 1.744M5.376-4.555C5.117-5.201 4.778-5.718 4.359-6.105 3.939-6.493 3.495-6.808 3.027-7.05 2.558-7.292 2.147-7.478 1.792-7.607 1.598-7.348 1.388-7.09 1.162-6.832 2.001-6.67 2.72-6.364 3.317-5.911 3.914-5.459 4.294-5.007 4.456-4.555H3.245C2.631-4.555 1.986-4.571 1.308-4.603V-3.731C1.889-3.763 2.534-3.779 3.245-3.779H4.698C4.762-3.263 4.819-2.706 4.867-2.108 4.916-1.51 4.94-.986 4.94-.533 5.23-.63 5.569-.695 5.957-.727 5.86-1.083 5.787-1.535 5.739-2.084 5.691-2.633 5.618-3.198 5.521-3.779H6.683C7.265-3.779 7.926-3.763 8.669-3.731V-4.603C8.055-4.571 7.41-4.555 6.732-4.555ZM1.259 .63C1.937 .597 2.986 .581 4.407 .581V1.599C3.245 1.599 2.325 1.582 1.647 1.551V2.374C2.066 2.342 2.986 2.326 4.407 2.326 4.407 2.778 4.39 3.214 4.359 3.634H5.327C5.295 3.117 5.279 2.681 5.279 2.326 6.635 2.326 7.604 2.342 8.185 2.374V1.551C7.668 1.582 6.699 1.599 5.279 1.599V.581H8.572C8.12-.517 7.813-1.277 7.652-1.696 7.426-1.599 7.151-1.486 6.829-1.357 7.054-.808 7.216-.404 7.313-.145H3.293C2.615-.145 1.937-.162 1.259-.194ZM3.584-2.859C3.422-3.085 3.245-3.343 3.051-3.634 2.244-3.053 1.647-2.665 1.259-2.471 1.42-2.246 1.566-2.003 1.695-1.744 2.437-2.164 3.067-2.536 3.584-2.859M4.456-1.551C4.294-1.777 4.116-2.035 3.923-2.326 3.277-1.777 2.679-1.357 2.131-1.066 2.292-.808 2.437-.565 2.567-.339 3.406-.889 4.036-1.292 4.456-1.551M8.475-6.784C8.249-7.009 8.039-7.268 7.846-7.559 7.265-7.009 6.457-6.428 5.424-5.815 5.65-5.524 5.812-5.266 5.909-5.039 7.103-5.815 7.958-6.396 8.475-6.784" fill="#2c292a"/>
<path transform="matrix(1,0,0,-1,224.2918,368.5657)" d="M0 0C0 1.098-.017 1.938-.048 2.52H1.066C1 2.035 .969 1.195 .969 0H4.649C4.584-.291 4.472-1.389 4.31-3.295H6.151C5.989-5.395 5.86-6.598 5.763-6.905 5.666-7.212 5.416-7.422 5.013-7.535 4.608-7.648 4.148-7.736 3.632-7.801 3.536-7.285 3.39-6.913 3.196-6.687 3.778-6.719 4.205-6.703 4.48-6.638 4.754-6.574 4.907-6.364 4.94-6.008L5.085-4.216H.969V-6.784C.969-7.43 .985-8.059 1.017-8.673H-.145C-.048-8.092 0-7.479 0-6.832V-4.216H-2.276C-2.729-4.216-3.342-4.232-4.117-4.264V-3.246C-3.438-3.279-2.793-3.295-2.179-3.295H0V-.824H-1.889C-2.082-.824-2.518-.84-3.196-.872V.048C-2.551 .016-2.002 0-1.55 0ZM3.342-3.295 3.536-.824H.969V-3.295ZM5.134 1.478C5.489 1.139 5.844 .775 6.199 .388 5.812 .064 5.553-.162 5.424-.291 5.134 .161 4.407 .888 3.245 1.89 3.567 2.148 3.809 2.358 3.971 2.52 4.391 2.164 4.778 1.817 5.134 1.478" fill="#2c292a"/>
<path transform="matrix(1,0,0,-1,242.4791,367.3543)" d="M0 0C-.743-.065-1.889-.186-3.439-.363-4.988-.541-6.393-.647-7.652-.678V-2.229H-.63C-.178-2.229 .322-2.213 .872-2.18V-3.15C.355-3.118-.145-3.101-.63-3.101H-7.652C-7.685-3.748-7.741-4.426-7.821-5.136-7.902-5.847-8.056-6.598-8.282-7.389-8.508-8.181-8.799-8.85-9.153-9.4-9.347-9.238-9.719-9.061-10.267-8.867-9.751-8.383-9.364-7.664-9.105-6.711-8.847-5.759-8.702-4.62-8.669-3.295-8.637-1.971-8.621-.84-8.621 .097-7.039 .129-5.392 .258-3.681 .485-1.97 .71-.969 .904-.678 1.066-.517 .71-.29 .355 0 0M-.145-7.268C-.145-8.496-.114-9.352-.048-9.836H-1.066V-8.819H-5.812V-9.933H-6.78C-6.748-9.383-6.732-8.496-6.732-7.268-6.732-6.008-6.748-5.12-6.78-4.603H-.097C-.129-5.12-.145-6.008-.145-7.268M-1.066-5.427H-5.812V-8.044001H-1.066ZM-1.066-8.043" fill="#2c292a"/>
<path transform="matrix(1,0,0,-1,247.3481,369.7771)" d="M0 0C-.032-.55-.048-1.147-.048-1.793V-4.991C.21-4.7 .484-4.378 .775-4.022 .872-4.281 1.033-4.555 1.259-4.845 .807-5.298 .419-5.702 .097-6.057-.226-6.412-.501-6.735-.726-7.026-.888-6.767-1.13-6.525-1.453-6.299-1.162-6.073-.985-5.815-.92-5.524V-.775C-1.308-.775-1.824-.792-2.47-.824V.048C-1.889 .016-1.356 0-.872 0ZM.339 1.744C.08 1.582-.178 1.388-.436 1.163-.856 1.841-1.308 2.406-1.792 2.859-1.501 3.053-1.259 3.246-1.065 3.44-.517 2.859-.048 2.293 .339 1.744M5.376-4.555C5.117-5.201 4.778-5.718 4.359-6.105 3.939-6.493 3.495-6.808 3.027-7.05 2.558-7.292 2.147-7.478 1.792-7.607 1.598-7.348 1.388-7.09 1.162-6.832 2.002-6.67 2.72-6.364 3.318-5.911 3.915-5.459 4.294-5.007 4.456-4.555H3.245C2.631-4.555 1.986-4.571 1.308-4.603V-3.731C1.889-3.763 2.534-3.779 3.245-3.779H4.698C4.762-3.263 4.819-2.706 4.867-2.108 4.916-1.51 4.94-.986 4.94-.533 5.231-.63 5.57-.695 5.957-.727 5.86-1.083 5.788-1.535 5.739-2.084 5.691-2.633 5.618-3.198 5.521-3.779H6.683C7.265-3.779 7.926-3.763 8.669-3.731V-4.603C8.056-4.571 7.41-4.555 6.732-4.555ZM1.259 .63C1.937 .597 2.986 .581 4.407 .581V1.599C3.245 1.599 2.325 1.582 1.647 1.551V2.374C2.066 2.342 2.986 2.326 4.407 2.326 4.407 2.778 4.391 3.214 4.359 3.634H5.327C5.295 3.117 5.279 2.681 5.279 2.326 6.635 2.326 7.604 2.342 8.185 2.374V1.551C7.668 1.582 6.699 1.599 5.279 1.599V.581H8.572C8.12-.517 7.813-1.277 7.652-1.696 7.426-1.599 7.151-1.486 6.829-1.357 7.054-.808 7.216-.404 7.313-.145H3.293C2.615-.145 1.937-.162 1.259-.194ZM3.584-2.859C3.422-3.085 3.245-3.343 3.051-3.634 2.244-3.053 1.647-2.665 1.259-2.471 1.42-2.246 1.566-2.003 1.695-1.744 2.438-2.164 3.067-2.536 3.584-2.859M4.456-1.551C4.294-1.777 4.117-2.035 3.923-2.326 3.277-1.777 2.68-1.357 2.131-1.066 2.292-.808 2.438-.565 2.567-.339 3.406-.889 4.036-1.292 4.456-1.551M8.475-6.784C8.249-7.009 8.04-7.268 7.846-7.559 7.265-7.009 6.457-6.428 5.424-5.815 5.65-5.524 5.812-5.266 5.909-5.039 7.103-5.815 7.959-6.396 8.475-6.784" fill="#2c292a"/>
<path transform="matrix(1,0,0,-1,260.3535,374.13789)" d="M0 0C.71 .904 1.202 1.833 1.477 2.786 1.751 3.739 1.905 4.627 1.937 5.451 1.969 6.275 1.953 7.139 1.889 8.043 2.244 8.011 2.647 7.978 3.099 7.947 3.003 7.43 2.954 6.896 2.954 6.348 2.954 5.798 2.986 5.168 3.051 4.458 3.115 3.747 3.576 2.673 4.432 1.236 5.287-.202 6.538-1.277 8.185-1.987 7.797-2.374 7.539-2.697 7.41-2.956 5.15-1.858 3.536 .129 2.567 3.004 1.921 .452 .355-1.583-2.131-3.101-2.325-2.842-2.599-2.568-2.954-2.277-1.695-1.664-.711-.905 0 0" fill="#2c292a"/>
</g>
<path transform="matrix(1,0,0,-1,0,595.276)" d="M47.332 310.499H229.796V294.818H47.332Z" fill="#ffffff"/>
<g clip-path="url(#clip_10)">
<path transform="matrix(1,0,0,-1,58.4844,292.3681)" d="M0 0C.497 0 1.053 .014 1.667 .044V-.746C1.053-.717 .497-.702 0-.702H-2.807V-1.799C-1.082-1.799 .044-1.785 .57-1.755V-2.545C.044-2.516-1.082-2.501-2.807-2.501V-3.818C-2.252-3.906-1.565-3.949-.746-3.949 .073-3.949 .979-3.891 1.974-3.774 1.739-4.096 1.593-4.447 1.535-4.827H-.702C-1.345-4.827-1.945-4.79-2.5-4.717-3.056-4.644-3.604-4.505-4.145-4.301-4.686-4.096-5.263-3.73-5.877-3.203-5.995-3.438-6.163-3.708-6.382-4.015-6.601-4.323-6.93-4.695-7.369-5.134-7.661-4.9-7.954-4.695-8.246-4.52-7.661-4.169-7.179-3.657-6.799-2.984-6.419-2.311-6.2-1.683-6.141-1.097L-5.088-1.404C-5.176-1.522-5.322-1.858-5.527-2.414-5-2.97-4.372-3.365-3.641-3.598V-.702H-6.448C-6.974-.702-7.53-.717-8.114-.746V.044C-7.5 .014-6.945 0-6.448 0ZM-.044 2.94C-.044 2.179-.029 1.463 0 .79H-6.535C-6.507 1.463-6.492 2.179-6.492 2.94-6.492 3.73-6.507 4.344-6.535 4.783H0C-.029 4.344-.044 3.73-.044 2.94M-.921 4.081H-5.614V3.2029999H-.921ZM-.921 2.457H-5.614V1.5350001H-.921ZM-.921 1.536" fill="#2c292a"/>
<path transform="matrix(1,0,0,-1,64.6251,288.59413)" d="M0 0C-.176-.322-.351-.673-.526-1.053V-7.065C-.526-7.826-.512-8.426-.482-8.864H-1.491C-1.463-8.367-1.447-7.796-1.447-7.153V-2.677C-1.798-3.291-2.179-3.877-2.588-4.432-2.763-4.228-2.983-4.008-3.246-3.774-2.719-3.247-2.164-2.414-1.579-1.273-.994-.132-.629 .746-.482 1.36-.161 1.155 .175 .994 .526 .878 .351 .614 .175 .322 0 0M2.807-2.238V-.044C2.807 .365 2.792 .804 2.763 1.273H3.772C3.713 .804 3.684 .365 3.684-.044V-2.238H5.483C5.862-2.238 6.316-2.224 6.842-2.194V-3.072C6.345-3.043 5.906-3.028 5.527-3.028H3.684V-7.328C3.684-7.796 3.699-8.279 3.728-8.777H2.763C2.792-8.308 2.807-7.84 2.807-7.372V-3.028H1.272C.804-3.028 .351-3.043-.088-3.072V-2.194C.351-2.224 .789-2.238 1.228-2.238Z" fill="#2c292a"/>
<path transform="matrix(1,0,0,-1,77.3228,289.09883)" d="M0 0C-.395-.629-.899-1.295-1.513-1.997-2.127-2.699-2.961-3.489-4.013-4.366-4.218-4.045-4.452-3.781-4.715-3.576-3.985-3.167-3.166-2.429-2.259-1.36-1.353-.293-.68 .738-.241 1.733 .139 1.47 .461 1.279 .724 1.163 .636 1.016 .395 .629 0 0M1.535-2.436C1.053-3.109 .445-3.84-.285-4.63-1.016-5.42-1.66-6.063-2.215-6.561-1.572-6.532-.731-6.488 .307-6.429 1.345-6.371 2.347-6.312 3.312-6.253 2.843-5.435 2.449-4.805 2.127-4.366 2.419-4.191 2.668-4.001 2.873-3.796 3.34-4.44 3.794-5.09 4.233-5.749 4.671-6.407 5.051-7.029 5.373-7.614 5.168-7.672 4.861-7.862 4.452-8.184 4.277-7.833 4.057-7.453 3.794-7.043 2.361-7.102 .833-7.204-.789-7.35-2.412-7.496-3.312-7.628-3.487-7.745-3.604-7.394-3.736-7.029-3.882-6.648-3.443-6.62-2.676-6.034-1.579-4.893-.482-3.752 .563-2.275 1.557-.461 1.849-.724 2.186-.959 2.566-1.163 2.361-1.338 2.018-1.763 1.535-2.436" fill="#2c292a"/>
<path transform="matrix(1,0,0,-1,86.7751,288.2989)" d="M0 0C.76 .088 1.374-.307 1.842-1.183 2.134-2.177 1.739-3.17 .658-4.163 .307-4.689 .132-5.258 .132-5.872H-.658C-.687-4.791-.205-3.768 .789-2.804 1.023-2.454 1.125-2.075 1.097-1.665 .921-1.081 .585-.804 .088-.833H-.088C-.702-.862-.994-1.315-.965-2.191H-1.798C-1.828-1.111-1.463-.438-.702-.175-.585-.088-.351-.029 0 0M-.833-6.792H.39500005V-8.063H-.833Z" fill="#2c292a"/>
<path transform="matrix(1,0,0,-1,100.4378,288.5064)" d="M0 0C-.044-.498-.11-1.156-.197-1.975H4.32C4.261-2.473 4.218-2.896 4.189-3.247L3.706-7.636C3.619-8.162 3.34-8.498 2.873-8.645 2.405-8.791 1.82-8.879 1.119-8.908 1.031-8.498 .884-8.147 .68-7.855 1.557-7.913 2.127-7.899 2.39-7.811 2.654-7.723 2.814-7.46 2.873-7.021L3.312-2.721H-.285C-.548-4.067-1.038-5.237-1.754-6.231-2.471-7.226-3.37-8.118-4.452-8.908-4.745-8.528-5.008-8.264-5.241-8.118-4.306-7.651-3.465-6.955-2.719-6.034-1.974-5.112-1.469-4.008-1.206-2.721H-2.654C-3.151-2.721-3.794-2.736-4.584-2.765V-1.931C-3.794-1.96-3.253-1.975-2.961-1.975H-1.075C-.958-.98-.899 .117-.899 1.317-.432 1.229-.051 1.17 .241 1.141 .124 .878 .044 .497 0 0M-3.311 .746C-2.493-.044-1.937-.614-1.645-.965-1.879-1.17-2.127-1.39-2.39-1.624-2.713-1.156-3.239-.57-3.969 .132-3.706 .336-3.487 .541-3.311 .746M2.39-5.485C2.215-5.661 2.01-5.954 1.776-6.363 1.133-5.778 .461-5.266-.241-4.827-.037-4.506 .11-4.242 .197-4.037 .928-4.506 1.659-4.988 2.39-5.485" fill="#2c292a"/>
<path transform="matrix(1,0,0,-1,109.5392,288.59413)" d="M0 0C-.176-.322-.351-.673-.526-1.053V-7.065C-.526-7.826-.512-8.426-.482-8.864H-1.491C-1.463-8.367-1.447-7.796-1.447-7.153V-2.677C-1.798-3.291-2.179-3.877-2.588-4.432-2.763-4.228-2.983-4.008-3.246-3.774-2.719-3.247-2.164-2.414-1.579-1.273-.994-.132-.629 .746-.482 1.36-.161 1.155 .175 .994 .526 .878 .351 .614 .175 .322 0 0M2.807-2.238V-.044C2.807 .365 2.792 .804 2.763 1.273H3.772C3.713 .804 3.684 .365 3.684-.044V-2.238H5.483C5.862-2.238 6.316-2.224 6.842-2.194V-3.072C6.345-3.043 5.906-3.028 5.527-3.028H3.684V-7.328C3.684-7.796 3.699-8.279 3.728-8.777H2.763C2.792-8.308 2.807-7.84 2.807-7.372V-3.028H1.272C.804-3.028 .351-3.043-.088-3.072V-2.194C.351-2.224 .789-2.238 1.228-2.238Z" fill="#2c292a"/>
<path transform="matrix(1,0,0,-1,122.2371,289.09883)" d="M0 0C-.395-.629-.899-1.295-1.513-1.997-2.127-2.699-2.961-3.489-4.013-4.366-4.218-4.045-4.452-3.781-4.715-3.576-3.985-3.167-3.166-2.429-2.259-1.36-1.353-.293-.68 .738-.241 1.733 .139 1.47 .461 1.279 .724 1.163 .636 1.016 .395 .629 0 0M1.535-2.436C1.053-3.109 .445-3.84-.285-4.63-1.016-5.42-1.66-6.063-2.215-6.561-1.572-6.532-.731-6.488 .307-6.429 1.345-6.371 2.347-6.312 3.312-6.253 2.843-5.435 2.449-4.805 2.127-4.366 2.419-4.191 2.668-4.001 2.873-3.796 3.34-4.44 3.794-5.09 4.233-5.749 4.671-6.407 5.051-7.029 5.373-7.614 5.168-7.672 4.861-7.862 4.452-8.184 4.277-7.833 4.057-7.453 3.794-7.043 2.361-7.102 .833-7.204-.789-7.35-2.412-7.496-3.312-7.628-3.487-7.745-3.604-7.394-3.736-7.029-3.882-6.648-3.443-6.62-2.676-6.034-1.579-4.893-.482-3.752 .563-2.275 1.557-.461 1.849-.724 2.186-.959 2.566-1.163 2.361-1.338 2.018-1.763 1.535-2.436" fill="#2c292a"/>
<path transform="matrix(1,0,0,-1,130.7243,289.4279)" d="M0 0V-1.755H2.588V.834C2.588 1.243 2.573 1.652 2.544 2.063H3.465C3.436 1.711 3.421 1.301 3.421 .834V-1.755H6.053V-.132C6.053 .336 6.038 .717 6.009 1.009H6.93C6.901 .717 6.886 .322 6.886-.176V-1.36C6.886-1.829 6.901-2.209 6.93-2.501H3.421V-6.539H6.448V-4.695C6.448-4.257 6.433-3.877 6.404-3.555H7.325C7.295-3.877 7.281-4.242 7.281-4.652V-6.626C7.281-7.211 7.295-7.694 7.325-8.074H6.448V-7.285H-1.36C-1.331-6.934-1.316-6.51-1.316-6.012V-4.695C-1.316-4.198-1.331-3.803-1.36-3.511H-.439C-.468-3.803-.482-4.198-.482-4.695V-6.539H2.588V-2.501H-.877C-.848-2.209-.833-1.843-.833-1.404V-.044C-.833 .336-.848 .702-.877 1.053H.044C.014 .673 0 .322 0 0" fill="#2c292a"/>
<path transform="matrix(1,0,0,-1,142.6547,288.2431)" d="M0 0C.321 0 .716 .014 1.184 .044V-.79C.716-.761 .219-.746-.307-.746V-3.16C.102-3.16 .541-3.145 1.009-3.116V-3.949C.541-3.921 .102-3.906-.307-3.906V-6.582C.19-6.466 .702-6.319 1.228-6.144 1.199-6.466 1.184-6.744 1.184-6.977 .219-7.212-.556-7.431-1.14-7.636-1.726-7.841-2.164-8.016-2.456-8.162-2.544-7.753-2.661-7.402-2.807-7.109-2.34-7.051-1.769-6.949-1.096-6.802V-3.906C-1.565-3.906-2.018-3.921-2.456-3.949V-3.116C-2.018-3.145-1.565-3.16-1.096-3.16V-.746C-1.623-.746-2.091-.761-2.5-.79V.044C-2.149 .014-1.813 0-1.491 0ZM4.671-2.896C4.627-3.598 4.532-4.344 4.386-5.134H5.263C5.234-5.427 5.22-5.822 5.22-6.319V-7.723C5.22-8.162 5.3-8.396 5.461-8.426 5.621-8.454 5.804-8.462 6.009-8.448 6.213-8.432 6.36-8.33 6.448-8.14 6.535-7.95 6.594-7.607 6.623-7.109 6.915-7.285 7.237-7.402 7.588-7.46 7.441-8.074 7.295-8.491 7.149-8.711 7.003-8.93 6.696-9.069 6.228-9.128H5.351C4.708-9.128 4.386-8.849 4.386-8.294V-5.222C4.123-6.159 3.743-6.941 3.246-7.57 2.748-8.199 2.003-8.777 1.009-9.303 .862-9.069 .614-8.864 .263-8.689 1.199-8.308 1.886-7.892 2.325-7.438 2.763-6.985 3.114-6.407 3.377-5.705 3.64-5.003 3.794-4.272 3.838-3.511 3.882-2.75 3.889-1.99 3.86-1.229 4.24-1.288 4.59-1.332 4.913-1.36 4.795-1.683 4.715-2.194 4.671-2.896M6.799-.965V-3.906C6.799-4.462 6.813-4.944 6.842-5.354H6.009V-.263H2.676V-5.398H1.842C1.871-4.901 1.886-4.344 1.886-3.73V-1.316C1.886-.673 1.871-.088 1.842 .439H6.842C6.813-.029 6.799-.498 6.799-.965" fill="#2c292a"/>
<path transform="matrix(1,0,0,-1,154.1465,288.2989)" d="M0 0C.76 .088 1.374-.307 1.842-1.183 2.134-2.177 1.739-3.17 .658-4.163 .307-4.689 .132-5.258 .132-5.872H-.658C-.687-4.791-.205-3.768 .789-2.804 1.023-2.454 1.125-2.075 1.096-1.665 .921-1.081 .585-.804 .088-.833H-.088C-.702-.862-.994-1.315-.965-2.191H-1.798C-1.828-1.111-1.463-.438-.702-.175-.585-.088-.351-.029 0 0M-.833-6.792H.39500005V-8.063H-.833Z" fill="#2c292a"/>
<path transform="matrix(1,0,0,-1,164.3222,291.9073)" d="M0 0C.643 .658 1.228 1.47 1.755 2.436H.176C-.234 2.436-.746 2.42-1.36 2.392V3.225C-.6 3.196-.029 3.182 .351 3.182H2.018C2.251 3.884 2.383 4.395 2.412 4.717 2.851 4.6 3.202 4.512 3.465 4.454 3.377 4.366 3.231 3.942 3.026 3.182H6.579C7.076 3.182 7.588 3.196 8.114 3.225V2.392C7.588 2.42 7.12 2.436 6.711 2.436H2.763C2.558 2.055 2.339 1.674 2.105 1.295H7.15C7.12 .563 7.106-.095 7.106-.68V-4.235C7.106-4.644 6.988-4.944 6.755-5.134 6.52-5.324 6.023-5.448 5.263-5.507 5.234-5.185 5.132-4.834 4.956-4.454 5.395-4.512 5.716-4.527 5.921-4.498 6.126-4.469 6.228-4.308 6.228-4.015V-3.138H1.667V-5.463H.702C.731-4.732 .746-4.103 .746-3.576V-.461C.132-1.163-.512-1.777-1.184-2.304-1.301-2.1-1.565-1.865-1.974-1.602-1.301-1.192-.644-.658 0 0M6.228 .592H1.6660004V-.63699999H6.228ZM6.228-1.338H1.6660004V-2.435H6.228ZM6.228-2.435" fill="#2c292a"/>
<path transform="matrix(1,0,0,-1,174.0596,289.9545)" d="M0 0C0 1.024-.015 1.711-.044 2.063H2.588C2.558 1.711 2.544 1.024 2.544 0V-3.16C2.544-4.096 2.558-4.725 2.588-5.047H1.754V-4.125H.746V-6.012H-.044C-.015-5.632 0-4.959 0-3.993ZM1.754 1.448H.745V-3.5110002H1.754ZM6.141-6.363C6.141-6.685 6.031-6.918 5.812-7.065 5.592-7.211 5.248-7.343 4.781-7.46 4.693-7.08 4.562-6.772 4.386-6.539 5.058-6.567 5.395-6.465 5.395-6.231V-3.511H4.518C4.488-3.891 4.422-4.308 4.32-4.761 4.218-5.215 4.02-5.705 3.728-6.231 3.436-6.758 3.129-7.182 2.807-7.504 2.632-7.299 2.353-7.153 1.974-7.065 2.558-6.567 2.983-5.983 3.246-5.31 3.509-4.637 3.655-4.037 3.684-3.511 3.362-3.511 3.099-3.526 2.895-3.555V-2.809C2.983-2.838 3.26-2.852 3.728-2.852 3.757-2.092 3.772-1.478 3.772-1.009 3.392-1.009 3.099-1.024 2.895-1.053V-.351C3.07-.381 3.362-.395 3.772-.395V1.668C3.538 1.668 3.246 1.652 2.895 1.624V2.326C3.246 2.296 3.523 2.282 3.728 2.282H6.184C6.155 1.872 6.141 1.477 6.141 1.097ZM5.395 1.668H4.562V-.39499999H5.395ZM5.395-2.852V-1.009H4.605C4.576-1.916 4.562-2.531 4.562-2.852ZM9.869 2.282C9.547 1.111 9.196-.132 8.816-1.448 9.459-2.794 9.803-3.679 9.847-4.103 9.891-4.528 9.832-4.886 9.671-5.178 9.51-5.471 9.079-5.778 8.378-6.1 8.319-5.778 8.158-5.471 7.895-5.178 8.772-5.12 9.108-4.674 8.904-3.84 8.699-3.006 8.392-2.253 7.983-1.58 8.362-.293 8.641 .79 8.816 1.668H7.588V-4.783C7.588-5.72 7.602-6.641 7.632-7.548H6.711C6.799-6.641 6.842-5.778 6.842-4.959V0C6.842 .76 6.813 1.521 6.755 2.282Z" fill="#2c292a"/>
<path transform="matrix(1,0,0,-1,186.7356,290.1739)" d="M0 0V-2.282C.351-2.224 .716-2.15 1.096-2.063V1.36C1.096 1.799 1.081 2.252 1.053 2.721H1.974C1.915 2.252 1.886 1.799 1.886 1.36V.746C2.383 .746 2.851 .76 3.29 .79V.044C2.851 .073 2.383 .088 1.886 .088V-1.931C2.295-1.843 2.807-1.741 3.421-1.624 3.362-1.858 3.362-2.121 3.421-2.414 1.93-2.677 .804-2.896 .044-3.072-.717-3.247-1.214-3.365-1.447-3.423-1.506-3.189-1.608-2.896-1.755-2.545L-.79-2.414V.044C-.79 .512-.805 .922-.833 1.273H.044C.014 .892 0 .468 0 0M6.141-6.056C6.579-6.056 7.222-6.041 8.071-6.012V-6.846C7.222-6.816 6.579-6.802 6.141-6.802H-.044C-.629-6.802-1.155-6.816-1.623-6.846V-6.012C-1.126-6.041-.585-6.056 0-6.056ZM4.869-3.949C5.599-3.949 6.228-3.935 6.755-3.906V-4.695C6.257-4.667 5.585-4.652 4.737-4.652H1.36C.746-4.652 .16-4.667-.395-4.695V-3.906C.365-3.935 .95-3.949 1.36-3.949ZM4.649 1.185V.044C5.819 .658 6.608 1.17 7.018 1.58 7.222 1.287 7.456 1.024 7.72 .79 7.398 .673 6.374 .176 4.649-.702V-1.887C4.62-2.238 4.795-2.429 5.176-2.457H6.579C6.871-2.457 7.047-2.106 7.106-1.404 7.369-1.609 7.646-1.741 7.939-1.799 7.792-2.706 7.413-3.16 6.798-3.16H4.781C4.167-3.131 3.86-2.809 3.86-2.194V1.141C3.86 1.814 3.845 2.355 3.816 2.765H4.693C4.664 2.326 4.649 1.799 4.649 1.185" fill="#2c292a"/>
<path transform="matrix(1,0,0,-1,197.657,288.68193)" d="M0 0C0 .322-.015 .731-.044 1.229H.877C.848 .702 .833 .292 .833 0V-1.624C1.272-1.624 1.725-1.609 2.193-1.58V-2.37C1.667-2.341 1.213-2.326 .833-2.326V-5.529C1.155-5.413 1.637-5.208 2.281-4.915 2.281-5.178 2.295-5.442 2.325-5.705 1.827-5.939 1.228-6.195 .526-6.473-.175-6.751-.761-7.021-1.228-7.285-1.345-7.021-1.521-6.729-1.755-6.407-1.228-6.261-.643-6.071 0-5.836V-2.326C-.643-2.326-1.155-2.341-1.535-2.37V-1.58C-1.038-1.609-.526-1.624 0-1.624ZM7.763 1.097V.395C7.354 .307 6.908 .044 6.426-.395 5.943-.834 5.292-1.448 4.474-2.238H8.421C8.392-2.443 8.362-2.911 8.334-3.642L8.158-6.934C8.129-7.665 7.975-8.118 7.698-8.294 7.419-8.469 6.93-8.586 6.228-8.645 6.169-8.294 6.038-7.943 5.834-7.592 6.448-7.651 6.842-7.636 7.018-7.548 7.193-7.46 7.295-7.27 7.325-6.977L7.5-2.984H6.667C6.52-3.862 6.345-4.593 6.141-5.178 5.936-5.764 5.694-6.268 5.417-6.692 5.139-7.117 4.825-7.482 4.474-7.789 4.123-8.096 3.684-8.41 3.158-8.733 3.011-8.44 2.807-8.191 2.544-7.987 3.041-7.723 3.494-7.416 3.904-7.065 4.313-6.714 4.649-6.305 4.913-5.836 5.176-5.369 5.373-4.871 5.505-4.344 5.636-3.818 5.731-3.365 5.79-2.984H4.913C4.854-3.423 4.73-3.869 4.54-4.323 4.349-4.776 4.079-5.222 3.728-5.661 3.377-6.1 2.924-6.524 2.369-6.934 2.251-6.729 2.032-6.51 1.711-6.275 2.412-5.895 2.961-5.383 3.355-4.739 3.75-4.096 3.976-3.511 4.035-2.984 3.713-3.014 3.494-3.043 3.377-3.072 3.26-3.101 3.07-3.16 2.807-3.247 2.719-2.896 2.632-2.604 2.544-2.37 3.041-2.311 3.619-1.982 4.276-1.382 4.934-.783 5.527-.205 6.053 .351H4.386C3.743 .351 3.143 .336 2.588 .307V1.141C3.114 1.111 3.699 1.097 4.342 1.097Z" fill="#2c292a"/>
<path transform="matrix(1,0,0,-1,212.921,291.5343)" d="M0 0H2.983C3.479 0 3.976 .029 4.474 .088V-.702C3.976-.673 3.479-.658 2.983-.658H-4.079C-4.46-.658-4.942-.673-5.527-.702V.044C-4.942 .014-4.46 0-4.079 0H-1.053C-1.082 .176-1.141 .395-1.228 .658-.877 .717-.57 .76-.307 .79-.219 .497-.117 .234 0 0M-2.961-5.003C-3.443-5.324-3.919-5.617-4.386-5.88-4.562-5.617-4.737-5.368-4.913-5.134-4.591-4.959-4.211-4.747-3.772-4.498-3.334-4.25-2.91-3.949-2.5-3.598-2.296-3.833-2.077-4.096-1.842-4.388-2.105-4.476-2.478-4.681-2.961-5.003M2.939 2.457C2.939 1.843 2.967 1.301 3.026 .834H-4.079C-4.05 1.301-4.035 1.843-4.035 2.457-4.035 3.101-4.05 3.657-4.079 4.125H2.983C2.953 3.657 2.939 3.101 2.939 2.457M2.807-2.414C2.807-2.765 2.822-3.043 2.851-3.247H.044V-5.134C.044-5.485-.081-5.719-.329-5.836-.578-5.953-1.009-6.026-1.623-6.056-1.652-5.734-1.77-5.383-1.974-5.003-1.477-5.09-1.148-5.112-.987-5.069-.827-5.025-.761-4.885-.79-4.652V-3.247H-3.772C-3.743-2.984-3.728-2.662-3.728-2.282-3.728-1.873-3.743-1.507-3.772-1.185H2.851C2.822-1.653 2.807-2.063 2.807-2.414M2.105 3.423H-3.2020002V2.7210003H2.105ZM2.105 2.063H-3.2020002V1.493H2.105ZM2.018-1.843H-2.938V-2.6330002H2.018ZM2.61-4.147C3.063-4.366 3.567-4.623 4.123-4.915 3.948-5.178 3.772-5.47 3.596-5.793 3.334-5.558 2.967-5.31 2.5-5.047 2.032-4.783 1.535-4.549 1.009-4.344L1.448-3.555C1.769-3.73 2.156-3.928 2.61-4.147" fill="#2c292a"/>
<path transform="matrix(1,0,0,-1,221.5176,288.2989)" d="M0 0C.76 .088 1.374-.307 1.842-1.183 2.134-2.177 1.74-3.17 .658-4.163 .307-4.689 .132-5.258 .132-5.872H-.658C-.687-4.791-.205-3.768 .79-2.804 1.023-2.454 1.125-2.075 1.097-1.665 .921-1.081 .585-.804 .088-.833H-.088C-.702-.862-.994-1.315-.965-2.191H-1.798C-1.828-1.111-1.462-.438-.702-.175-.585-.088-.351-.029 0 0M-.833-6.792H.39500005V-8.063H-.833Z" fill="#2c292a"/>
</g>
<path transform="matrix(1,0,0,-1,0,595.276)" d="M275.412 406.223H309.79899V388.66999H275.412Z" fill="#ffffff"/>
<g clip-path="url(#clip_11)">
<path transform="matrix(1,0,0,-1,281.0506,200.65509)" d="M0 0C0-1.002 .016-1.857 .048-2.568H-.872C-.84-1.857-.823-1.066-.823-.194-1.567-.388-2.099-.55-2.422-.678-2.518-.356-2.664-.033-2.857 .291-2.341 .355-1.663 .485-.823 .678V2.52C-1.598 2.454-2.18 2.342-2.567 2.18L-2.906 3.004C-2.648 3.165-2.406 3.569-2.18 4.216-1.954 4.861-1.776 5.491-1.647 6.105-1.97 6.105-2.309 6.089-2.664 6.057V6.929C-2.244 6.896-1.857 6.88-1.501 6.88-1.373 7.494-1.292 8.108-1.259 8.722-.84 8.592-.453 8.495-.097 8.431-.291 8.205-.469 7.688-.63 6.88 .048 6.88 .629 6.896 1.114 6.929V6.057C.533 6.089-.097 6.105-.775 6.105-1.098 4.91-1.421 3.941-1.743 3.198L-.823 3.295C-.823 3.714-.84 4.199-.872 4.749H.048C.016 4.458 0 4.005 0 3.392L.823 3.489V2.713L0 2.617V.872L.969 1.114V.291C.645 .226 .322 .129 0 0M2.906 5.766C2.26 5.055 1.824 4.603 1.598 4.409H4.601C4.568 4.053 4.552 3.617 4.552 3.101V-1.502C4.584-1.793 4.512-2.003 4.334-2.132 4.157-2.261 3.842-2.374 3.39-2.471 3.293-2.148 3.131-1.825 2.906-1.502 3.454-1.502 3.729-1.421 3.729-1.26V0H2.422V-2.423H1.55C1.582-1.841 1.598-1.26 1.598-.678V2.713C1.598 3.262 1.582 3.811 1.55 4.361L1.259 4.119C1.033 4.377 .758 4.571 .436 4.7 1.242 5.249 1.937 5.887 2.518 6.614 3.099 7.341 3.584 8.124 3.971 8.964 4.359 8.77 4.714 8.641 5.037 8.576L4.843 8.334C5.456 7.494 6.102 6.848 6.78 6.396 7.458 5.943 8.088 5.621 8.669 5.427 8.378 5.168 8.136 4.877 7.943 4.555 7.232 4.91 6.618 5.313 6.102 5.766V5.185H2.906ZM3.729 3.683H2.421V2.5690003H3.729ZM3.729 1.841H2.421V.775H3.729ZM4.359 7.753C3.842 6.977 3.406 6.379 3.051 5.96H5.86C5.473 6.315 4.972 6.912 4.359 7.753M6.247 2.568V.436C6.247-.178 6.263-.678 6.296-1.066H5.327C5.359-.581 5.376-.097 5.376 .388V2.568C5.376 3.02 5.359 3.472 5.327 3.925H6.296C6.263 3.537 6.247 3.084 6.247 2.568M7.797 2.859V-1.502C7.797-1.857 7.716-2.099 7.555-2.229 7.393-2.358 6.99-2.487 6.344-2.617 6.279-2.326 6.118-2.003 5.86-1.647 6.57-1.679 6.941-1.566 6.974-1.308V2.762C6.974 3.278 6.957 3.811 6.926 4.361H7.846C7.813 3.844 7.797 3.343 7.797 2.859" fill="#2c292a"/>
<path transform="matrix(1,0,0,-1,292.9904,194.30759)" d="M0 0V-1.938H2.857V.921C2.857 1.373 2.841 1.825 2.809 2.277H3.826C3.793 1.89 3.778 1.437 3.778 .921V-1.938H6.684V-.145C6.684 .371 6.667 .791 6.635 1.114H7.652C7.619 .791 7.604 .355 7.604-.194V-1.502C7.604-2.019 7.619-2.439 7.652-2.762H3.778V-7.22H7.119V-5.185C7.119-4.7 7.103-4.281 7.071-3.925H8.088C8.055-4.281 8.04-4.684 8.04-5.136V-7.317C8.04-7.962 8.055-8.495 8.088-8.916H7.119V-8.043H-1.501C-1.47-7.656-1.453-7.188-1.453-6.638V-5.185C-1.453-4.636-1.47-4.2-1.501-3.876H-.484C-.517-4.2-.533-4.636-.533-5.185V-7.22H2.857V-2.762H-.969C-.937-2.439-.92-2.035-.92-1.551V-.048C-.92 .371-.937 .775-.969 1.163H.048C.016 .743 0 .355 0 0" fill="#2c292a"/>
</g>
<path transform="matrix(1,0,0,-1,0,595.276)" d="M176.929 391.946H348.63203V376.031H176.929Z" fill="#ffffff"/>
<g clip-path="url(#clip_12)">
<path transform="matrix(1,0,0,-1,187.7716,210.26819)" d="M0 0V-.922C-.41-1.009-.783-1.148-1.118-1.338-1.455-1.529-1.842-1.727-2.281-1.931V-2.326H.482C.833-2.326 1.286-2.311 1.842-2.282V-3.16C1.257-3.131 .804-3.116 .482-3.116H-2.281V-4.915C-2.281-5.324-2.442-5.58-2.763-5.683-3.085-5.785-3.612-5.865-4.342-5.924-4.43-5.602-4.577-5.28-4.781-4.959H-3.597C-3.305-4.959-3.158-4.798-3.158-4.476V-3.116H-6.184C-6.653-3.116-7.179-3.131-7.763-3.16V-2.282C-7.149-2.311-6.638-2.326-6.228-2.326H-3.158C-3.158-2.092-3.187-1.829-3.246-1.536L-1.667-.746H-4.079C-4.635-.746-5.263-.761-5.965-.79V.044C-5.322 .014-4.708 0-4.123 0ZM-.658 1.975H1.755C1.725 1.711 1.711 1.404 1.711 1.053 1.711 .702 1.725 .365 1.755 .044H.833V1.229H-6.755V0H-7.676C-7.647 .351-7.632 .702-7.632 1.053-7.632 1.404-7.647 1.711-7.676 1.975H-1.579C-1.345 2.384-1.104 2.815-.855 3.269-.607 3.723-.41 4.169-.263 4.608 .204 4.344 .57 4.154 .833 4.037 .248 3.364-.249 2.677-.658 1.975M-5 2.809C-5.322 2.574-5.57 2.355-5.746 2.15-6.126 2.706-6.565 3.188-7.062 3.598-6.74 3.832-6.507 4.022-6.36 4.169-5.834 3.73-5.381 3.276-5 2.809M-2.281 2.94C-2.544 2.735-2.822 2.545-3.114 2.37-3.348 2.837-3.699 3.364-4.167 3.949-3.875 4.154-3.612 4.329-3.377 4.476-2.822 3.774-2.456 3.262-2.281 2.94" fill="#2c292a"/>
<path transform="matrix(1,0,0,-1,200.9301,207.1525)" d="M0 0C-.526 .029-.98 .044-1.36 .044H-3.948C-4.152-.366-4.401-.819-4.693-1.317V-6.802C-4.693-7.387-4.679-8.045-4.649-8.777H-5.614C-5.586-8.075-5.57-7.416-5.57-6.802V-2.501C-6.477-3.76-7.705-4.915-9.255-5.968-9.489-5.617-9.708-5.369-9.913-5.222-9.328-4.959-8.553-4.396-7.588-3.533-6.623-2.67-5.731-1.478-4.913 .044H-7.807C-8.363 .044-8.948 .029-9.562 0V.878C-8.685 .848-8.012 .834-7.544 .834H-1.404C-1.024 .834-.556 .848 0 .878ZM-3.904-2.589C-3.67-2.385-3.48-2.18-3.334-1.975-2.632-2.619-2.033-3.182-1.535-3.664-1.038-4.147-.57-4.623-.132-5.09-.424-5.325-.687-5.573-.921-5.836-1.477-5.134-2.471-4.052-3.904-2.589" fill="#2c292a"/>
<path transform="matrix(1,0,0,-1,205.2504,206.88932)" d="M0 0C-.103-.41-.197-.834-.285-1.273H1.864C1.805-2.297 1.681-3.225 1.491-4.059 1.301-4.893 1.103-5.559 .899-6.056 1.425-6.349 1.952-6.685 2.478-7.065 2.273-7.3 2.083-7.548 1.908-7.811 1.294-7.314 .826-6.963 .504-6.758 .095-7.226-.337-7.636-.79-7.987-1.243-8.338-1.776-8.689-2.39-9.04-2.537-8.805-2.8-8.586-3.18-8.382-2.713-8.177-2.23-7.928-1.733-7.636-1.236-7.344-.739-6.919-.241-6.363-1.323-5.778-2.055-5.413-2.434-5.266-2.055-4.418-1.689-3.321-1.338-1.975-1.894-1.975-2.42-1.99-2.917-2.019V-1.229C-2.42-1.258-1.835-1.273-1.162-1.273-1.075-.863-.973-.417-.855 .066-.739 .549-.68 .922-.68 1.185-.358 1.068-.022 .965 .329 .878 .212 .702 .102 .409 0 0M.153-5.661C.387-5.164 .57-4.593 .702-3.949 .833-3.306 .928-2.648 .987-1.975H-.461C-.841-3.262-1.148-4.242-1.382-4.915-.709-5.237-.197-5.485 .153-5.661M6.601-2.15V-6.714C6.601-7.3 6.616-7.87 6.645-8.426H5.768V-7.197H3.662V-8.777H2.829C2.858-8.133 2.873-7.49 2.873-6.846V-2.37C2.873-1.873 2.858-1.346 2.829-.79H6.645C6.616-1.346 6.601-1.799 6.601-2.15M5.768-1.536H3.663V-6.451H5.768ZM5.768-6.451" fill="#2c292a"/>
<path transform="matrix(1,0,0,-1,215.7115,209.12729)" d="M0 0C-.03-.468-.044-1.009-.044-1.624V-4.652C.307-4.33 .702-3.935 1.14-3.467 1.286-3.642 1.476-3.862 1.711-4.125 1.359-4.447 .965-4.805 .526-5.2 .088-5.595-.234-5.924-.439-6.188-.702-5.895-.936-5.661-1.141-5.485-.907-5.281-.805-4.974-.833-4.564V-.746C-1.331-.746-1.784-.761-2.193-.79V.044C-1.784 .014-1.477 0-1.272 0ZM.658 1.536C.57 1.448 .365 1.229 .044 .878-.687 1.638-1.258 2.194-1.667 2.545-1.521 2.633-1.331 2.823-1.097 3.116-.57 2.735 .014 2.209 .658 1.536M5.483 .79H6.93C6.901 .38 6.886-.219 6.886-1.009 6.886-1.799 6.901-2.341 6.93-2.633H5.483V-5.441C5.483-5.705 5.614-5.836 5.877-5.836H6.579C6.842-5.865 7.018-5.485 7.105-4.695 7.339-4.9 7.66-5.032 8.07-5.09 7.866-6.114 7.471-6.626 6.886-6.626H5.439C4.941-6.626 4.693-6.348 4.693-5.793V-2.633H3.728C3.669-3.16 3.589-3.65 3.487-4.103 3.384-4.557 3.246-4.944 3.07-5.266 2.895-5.588 2.638-5.902 2.302-6.209 1.966-6.517 1.594-6.802 1.184-7.065 .979-6.89 .672-6.699 .263-6.495 .935-6.144 1.403-5.858 1.667-5.639 1.93-5.42 2.149-5.156 2.324-4.849 2.5-4.542 2.632-4.184 2.719-3.774 2.807-3.365 2.865-2.984 2.895-2.633H1.579C1.608-1.873 1.623-1.185 1.623-.57 1.623 .044 1.608 .497 1.579 .79H4.649C5.146 2.047 5.439 2.896 5.527 3.335 5.906 3.16 6.272 2.998 6.623 2.852 6.389 2.618 6.009 1.931 5.483 .79M3.509 1.36C3.274 1.243 3.026 1.097 2.763 .922 2.353 1.828 2.003 2.472 1.711 2.852 1.915 2.94 2.134 3.072 2.368 3.247 2.777 2.662 3.158 2.033 3.509 1.36M6.097 .088H2.457V-1.931H6.097ZM6.097-1.931" fill="#2c292a"/>
<path transform="matrix(1,0,0,-1,238.1685,209.12729)" d="M0 0C-.029-.468-.044-1.009-.044-1.624V-4.652C.307-4.33 .702-3.935 1.14-3.467 1.286-3.642 1.476-3.862 1.711-4.125 1.36-4.447 .965-4.805 .526-5.2 .088-5.595-.235-5.924-.439-6.188-.702-5.895-.936-5.661-1.141-5.485-.907-5.281-.805-4.974-.833-4.564V-.746C-1.331-.746-1.784-.761-2.193-.79V.044C-1.784 .014-1.477 0-1.272 0ZM.658 1.536C.57 1.448 .365 1.229 .044 .878-.687 1.638-1.258 2.194-1.667 2.545-1.521 2.633-1.331 2.823-1.097 3.116-.57 2.735 .014 2.209 .658 1.536M5.483 .79H6.93C6.901 .38 6.886-.219 6.886-1.009 6.886-1.799 6.901-2.341 6.93-2.633H5.483V-5.441C5.483-5.705 5.614-5.836 5.877-5.836H6.579C6.842-5.865 7.018-5.485 7.106-4.695 7.339-4.9 7.661-5.032 8.071-5.09 7.866-6.114 7.471-6.626 6.886-6.626H5.439C4.941-6.626 4.693-6.348 4.693-5.793V-2.633H3.728C3.669-3.16 3.589-3.65 3.487-4.103 3.384-4.557 3.246-4.944 3.07-5.266 2.895-5.588 2.638-5.902 2.303-6.209 1.966-6.517 1.594-6.802 1.184-7.065 .979-6.89 .672-6.699 .263-6.495 .935-6.144 1.404-5.858 1.667-5.639 1.93-5.42 2.149-5.156 2.325-4.849 2.5-4.542 2.632-4.184 2.719-3.774 2.807-3.365 2.865-2.984 2.895-2.633H1.579C1.608-1.873 1.623-1.185 1.623-.57 1.623 .044 1.608 .497 1.579 .79H4.649C5.146 2.047 5.439 2.896 5.527 3.335 5.906 3.16 6.272 2.998 6.623 2.852 6.389 2.618 6.009 1.931 5.483 .79M3.509 1.36C3.275 1.243 3.026 1.097 2.763 .922 2.353 1.828 2.003 2.472 1.711 2.852 1.915 2.94 2.134 3.072 2.369 3.247 2.778 2.662 3.158 2.033 3.509 1.36M6.097 .088H2.457V-1.931H6.097ZM6.097-1.931" fill="#2c292a"/>
<path transform="matrix(1,0,0,-1,257.0728,207.1525)" d="M0 0C-.526 .029-.98 .044-1.36 .044H-3.947C-4.152-.366-4.401-.819-4.693-1.317V-6.802C-4.693-7.387-4.679-8.045-4.649-8.777H-5.614C-5.585-8.075-5.57-7.416-5.57-6.802V-2.501C-6.477-3.76-7.705-4.915-9.255-5.968-9.489-5.617-9.708-5.369-9.913-5.222-9.328-4.959-8.553-4.396-7.588-3.533-6.623-2.67-5.731-1.478-4.912 .044H-7.807C-8.363 .044-8.948 .029-9.562 0V.878C-8.685 .848-8.012 .834-7.544 .834H-1.404C-1.024 .834-.556 .848 0 .878ZM-3.904-2.589C-3.67-2.385-3.48-2.18-3.333-1.975-2.632-2.619-2.033-3.182-1.535-3.664-1.038-4.147-.57-4.623-.131-5.09-.424-5.325-.687-5.573-.921-5.836-1.477-5.134-2.471-4.052-3.904-2.589" fill="#2c292a"/>
<path transform="matrix(1,0,0,-1,261.3932,206.88932)" d="M0 0C-.103-.41-.197-.834-.285-1.273H1.864C1.805-2.297 1.681-3.225 1.491-4.059 1.301-4.893 1.103-5.559 .899-6.056 1.426-6.349 1.952-6.685 2.478-7.065 2.273-7.3 2.084-7.548 1.908-7.811 1.294-7.314 .826-6.963 .504-6.758 .095-7.226-.336-7.636-.789-7.987-1.243-8.338-1.776-8.689-2.39-9.04-2.537-8.805-2.8-8.586-3.18-8.382-2.713-8.177-2.23-7.928-1.732-7.636-1.236-7.344-.739-6.919-.241-6.363-1.323-5.778-2.054-5.413-2.434-5.266-2.054-4.418-1.689-3.321-1.338-1.975-1.894-1.975-2.42-1.99-2.917-2.019V-1.229C-2.42-1.258-1.835-1.273-1.162-1.273-1.074-.863-.973-.417-.855 .066-.739 .549-.68 .922-.68 1.185-.358 1.068-.022 .965 .329 .878 .212 .702 .102 .409 0 0M.154-5.661C.387-5.164 .57-4.593 .702-3.949 .834-3.306 .928-2.648 .987-1.975H-.461C-.841-3.262-1.148-4.242-1.382-4.915-.709-5.237-.197-5.485 .154-5.661M6.601-2.15V-6.714C6.601-7.3 6.616-7.87 6.645-8.426H5.768V-7.197H3.662V-8.777H2.829C2.858-8.133 2.873-7.49 2.873-6.846V-2.37C2.873-1.873 2.858-1.346 2.829-.79H6.645C6.616-1.346 6.601-1.799 6.601-2.15M5.768-1.536H3.663V-6.451H5.768ZM5.768-6.451" fill="#2c292a"/>
<path transform="matrix(1,0,0,-1,279.3106,207.45969)" d="M0 0C0-.293 .014-.644 .044-1.053H-.833V.176H-8.421V-1.273H-9.299C-9.27-.922-9.255-.57-9.255-.219-9.255 .16-9.27 .541-9.299 .922H.044C.014 .599 0 .292 0 0M-4.474-5.793C-3.948-5.793-3.407-5.778-2.851-5.749V-6.582C-3.407-6.554-3.948-6.539-4.474-6.539H-7.544C-8.158-6.539-8.7-6.554-9.167-6.582V-5.749C-8.7-5.778-8.173-5.793-7.588-5.793ZM-6.404-1.668H-2.719C-2.252-1.668-1.798-1.653-1.36-1.624V-2.414C-1.77-2.385-2.121-2.37-2.412-2.37H-6.448L-6.623-3.774H-.614C-.614-4.593-.666-5.485-.768-6.451-.87-7.416-1.112-7.979-1.491-8.14-1.872-8.301-2.471-8.426-3.29-8.513-3.349-8.191-3.48-7.884-3.684-7.592-2.924-7.592-2.464-7.562-2.303-7.504-2.142-7.446-1.989-7.336-1.842-7.175-1.696-7.014-1.594-6.115-1.535-4.476H-7.544C-7.31-2.165-7.193-.79-7.193-.351L-6.228-.439C-6.316-.907-6.375-1.317-6.404-1.668" fill="#2c292a"/>
<path transform="matrix(1,0,0,-1,301.7678,207.45969)" d="M0 0C0-.293 .014-.644 .044-1.053H-.833V.176H-8.421V-1.273H-9.299C-9.27-.922-9.255-.57-9.255-.219-9.255 .16-9.27 .541-9.299 .922H.044C.014 .599 0 .292 0 0M-4.474-5.793C-3.948-5.793-3.407-5.778-2.851-5.749V-6.582C-3.407-6.554-3.948-6.539-4.474-6.539H-7.544C-8.158-6.539-8.7-6.554-9.167-6.582V-5.749C-8.7-5.778-8.173-5.793-7.588-5.793ZM-6.404-1.668H-2.719C-2.252-1.668-1.798-1.653-1.36-1.624V-2.414C-1.77-2.385-2.121-2.37-2.412-2.37H-6.448L-6.623-3.774H-.614C-.614-4.593-.666-5.485-.768-6.451-.87-7.416-1.112-7.979-1.491-8.14-1.872-8.301-2.471-8.426-3.29-8.513-3.349-8.191-3.48-7.884-3.684-7.592-2.924-7.592-2.464-7.562-2.303-7.504-2.142-7.446-1.989-7.336-1.842-7.175-1.696-7.014-1.594-6.115-1.535-4.476H-7.544C-7.31-2.165-7.193-.79-7.193-.351L-6.228-.439C-6.316-.907-6.375-1.317-6.404-1.668" fill="#2c292a"/>
<path transform="matrix(1,0,0,-1,313.2155,207.1525)" d="M0 0C-.526 .029-.98 .044-1.36 .044H-3.947C-4.152-.366-4.401-.819-4.693-1.317V-6.802C-4.693-7.387-4.679-8.045-4.649-8.777H-5.614C-5.586-8.075-5.57-7.416-5.57-6.802V-2.501C-6.477-3.76-7.705-4.915-9.255-5.968-9.489-5.617-9.708-5.369-9.913-5.222-9.328-4.959-8.553-4.396-7.588-3.533-6.623-2.67-5.731-1.478-4.912 .044H-7.807C-8.363 .044-8.948 .029-9.562 0V.878C-8.685 .848-8.012 .834-7.544 .834H-1.404C-1.024 .834-.556 .848 0 .878ZM-3.904-2.589C-3.67-2.385-3.48-2.18-3.333-1.975-2.632-2.619-2.033-3.182-1.535-3.664-1.038-4.147-.57-4.623-.131-5.09-.424-5.325-.687-5.573-.921-5.836-1.477-5.134-2.471-4.052-3.904-2.589" fill="#2c292a"/>
<path transform="matrix(1,0,0,-1,317.5359,206.88932)" d="M0 0C-.103-.41-.197-.834-.285-1.273H1.864C1.805-2.297 1.681-3.225 1.491-4.059 1.301-4.893 1.104-5.559 .899-6.056 1.426-6.349 1.952-6.685 2.478-7.065 2.273-7.3 2.084-7.548 1.908-7.811 1.294-7.314 .826-6.963 .504-6.758 .095-7.226-.336-7.636-.789-7.987-1.243-8.338-1.776-8.689-2.39-9.04-2.537-8.805-2.8-8.586-3.18-8.382-2.712-8.177-2.23-7.928-1.732-7.636-1.236-7.344-.739-6.919-.241-6.363-1.323-5.778-2.055-5.413-2.434-5.266-2.055-4.418-1.689-3.321-1.338-1.975-1.894-1.975-2.42-1.99-2.917-2.019V-1.229C-2.42-1.258-1.835-1.273-1.162-1.273-1.074-.863-.973-.417-.855 .066-.739 .549-.68 .922-.68 1.185-.358 1.068-.022 .965 .329 .878 .212 .702 .102 .409 0 0M.154-5.661C.387-5.164 .57-4.593 .702-3.949 .834-3.306 .928-2.648 .987-1.975H-.461C-.841-3.262-1.148-4.242-1.382-4.915-.709-5.237-.197-5.485 .154-5.661M6.601-2.15V-6.714C6.601-7.3 6.616-7.87 6.645-8.426H5.768V-7.197H3.662V-8.777H2.829C2.858-8.133 2.873-7.49 2.873-6.846V-2.37C2.873-1.873 2.858-1.346 2.829-.79H6.645C6.616-1.346 6.601-1.799 6.601-2.15M5.768-1.536H3.663V-6.451H5.768ZM5.768-6.451" fill="#2c292a"/>
<path transform="matrix(1,0,0,-1,327.0321,214.6127)" d="M0 0H7.544V4.432C7.544 4.695 7.529 5.047 7.5 5.485H8.465C8.436 5.075 8.421 4.724 8.421 4.432V-.132C8.421-.424 8.436-.848 8.465-1.404H7.544V-.658H-.877C-.848-.337-.833 .058-.833 .527V4.344C-.833 4.724-.848 5.09-.877 5.441H0ZM6.535 8.118C7.178 8.118 7.807 8.133 8.421 8.162V7.372C7.807 7.401 7.178 7.416 6.535 7.416H1.404C.672 7.416-.044 7.401-.746 7.372V8.162C-.044 8.133 .672 8.118 1.404 8.118ZM6.316 4.739V2.896C6.316 2.486 6.33 1.872 6.36 1.053H1.228C1.257 1.521 1.272 2.004 1.272 2.501V4.652C1.272 5.295 1.257 5.851 1.228 6.319H6.36C6.33 5.88 6.316 5.354 6.316 4.739M3.421 5.661H2.0609999V4.081H3.421ZM3.421 3.379H2.0609999V1.755H3.421ZM5.527 5.661H4.211V4.081H5.527ZM5.527 3.379H4.211V1.755H5.527ZM5.527 1.755" fill="#2c292a"/>
<path transform="matrix(1,0,0,-1,227.4846,213.58539)" d="M0 0V-1.219H.5C.5-1.552 .364-1.76 .094-1.844V-2.344C.739-2.302 1.104-1.937 1.187-1.25V0Z" fill="#2c292a"/>
<path transform="matrix(1,0,0,-1,281.3281,212.41352)" d="M0 0V-1.219H.5C.5-1.552 .364-1.76 .094-1.844V-2.344C.739-2.302 1.104-1.937 1.187-1.25V0Z" fill="#2c292a"/>
</g>
</g>
</g>
</svg>
