<svg xmlns="http://www.w3.org/2000/svg" xmlns:xlink="http://www.w3.org/1999/xlink" xmlns:inkscape="http://www.inkscape.org/namespaces/inkscape" version="1.1" width="411.024" height="595.276" viewBox="0 0 411.024 595.276">
<defs>
<clipPath id="clip_1">
<path transform="matrix(1,0,0,-1,0,595.276)" d="M0 0H411.024V595.276H0Z"/>
</clipPath>
<clipPath id="clip_2">
<path transform="matrix(1,0,0,-1,0,595.276)" d="M0 0H411.024V595.276H0Z"/>
</clipPath>
<path id="font_3_4" d="M.46099855 0V.06399536H.15499878L.4039917 .38186646C.44299317 .43185426 .46099855 .46884156 .46099855 .5258179 .46099855 .6427765 .38198854 .71777346 .2649994 .71777346 .1459961 .71777346 .068984989 .6367645 .068984989 .5248108H.14099121C.14099121 .6167755 .19898987 .6537628 .2649994 .6537628 .34298707 .6537628 .3889923 .6027832 .3889923 .5258179 .3889923 .48683167 .37599183 .45584107 .34899903 .42085267L.067993167 .06399536V0H.46099855Z"/>
<path id="font_3_11" d="M.45700074 .51272585C.45700074 .63575747 .37998963 .71777346 .25898744 .71777346 .13798523 .71777346 .06199646 .62776187 .06199646 .5067291 .06199646 .3896942 .1349945 .3046875 .24598694 .3046875 .27398683 .3046875 .2999878 .30967713 .32199098 .3196869L.1619873 0H.23699951L.4119873 .3526764C.44198609 .4126892 .45700074 .4617157 .45700074 .51272585M.3849945 .50971987C.3849945 .4216919 .33499146 .36567689 .25898744 .36567689 .1769867 .36567689 .13398743 .43069459 .13398743 .50971987 .13398743 .596756 .18299866 .6537628 .25898744 .6537628 .33499146 .6537628 .3849945 .596756 .3849945 .50971987Z"/>
<path id="font_3_6" d="M.48199464 .11273193V.17773438H.394989V.37979127H.32398988V.17773438H.116989139L.37399293 .71191409H.29699708L.039993287 .17773438V.11273193H.32398988V0H.394989V.11273193H.48199464Z"/>
<clipPath id="clip_4">
<path transform="matrix(1,0,0,-1,0,595.276)" d="M0 0H411.024V595.276H0Z"/>
</clipPath>
<clipPath id="clip_5">
<path transform="matrix(1,0,0,-1,0,595.276)" d="M0 0H411.024V595.276H0Z"/>
</clipPath>
<clipPath id="clip_6">
<path transform="matrix(1,0,0,-1,0,595.276)" d="M0 0H411.024V595.276H0Z"/>
</clipPath>
<clipPath id="clip_7">
<path transform="matrix(1,0,0,-1,0,595.276)" d="M0 0H411.024V595.276H0Z"/>
</clipPath>
<clipPath id="clip_8">
<path transform="matrix(1,0,0,-1,0,595.276)" d="M0 0H411.024V595.276H0Z"/>
</clipPath>
</defs>
<g clip-path="url(#clip_1)">
<g clip-path="url(#clip_2)">
<use data-text="2" xlink:href="#font_3_4" transform="matrix(9,0,0,-9,35.4331,567.547)" fill="#f43040"/>
<use data-text="9" xlink:href="#font_3_11" transform="matrix(9,0,0,-9,39.0331,567.547)" fill="#f43040"/>
<use data-text="4" xlink:href="#font_3_6" transform="matrix(9,0,0,-9,42.6331,567.547)" fill="#f43040"/>
<path transform="matrix(1,0,0,-1,0,595.276)" d="M0 0H411.024V595.275H0Z" fill="#f43040"/>
<path transform="matrix(1,0,0,-1,149.1149,196.5729)" stroke-width="1.2" stroke-linecap="butt" stroke-dasharray="3.602,2.402" stroke-miterlimit="4" stroke-linejoin="miter" fill="none" stroke="#ffffff" d="M0 0V-177.695"/>
<path transform="matrix(1,0,0,-1,0,595.276)" d="M118.502 376.682H179.991V360.762H118.502Z" fill="#f43040"/>
<g clip-path="url(#clip_4)">
<path transform="matrix(1,0,0,-1,135.3948,222.34992)" d="M0 0C-.302-.514-.649-1.012-1.041-1.495-1.434-1.978-1.947-2.491-2.581-3.035-2.128-3.337-1.479-3.594-.634-3.805 .211-4.017 .996-4.138 1.72-4.167 1.449-4.53 1.283-4.847 1.222-5.119 .347-4.937-.475-4.719-1.245-4.462-2.015-4.206-2.687-3.896-3.26-3.533-3.924-3.926-4.709-4.288-5.614-4.62-6.52-4.953-7.396-5.225-8.24-5.436-8.331-5.194-8.497-4.937-8.738-4.666-7.984-4.545-7.147-4.334-6.225-4.032-5.305-3.73-4.528-3.397-3.894-3.035-4.407-2.552-4.92-1.857-5.433-.951-5.675-1.344-5.931-1.706-6.203-2.038-6.474-2.371-6.731-2.673-6.973-2.944-7.214-2.703-7.456-2.522-7.697-2.401-7.275-2.038-6.83-1.525-6.361-.861-5.894-.197-5.539 .573-5.297 1.45-4.966 1.268-4.634 1.132-4.301 1.042-4.453 .861-4.663 .513-4.935 0ZM-.226-4.983C-.257-5.647-.272-6.417-.272-7.293-.272-8.169-.257-8.757-.226-9.06H-1.132V-8.425H-5.524V-9.15H-6.429C-6.399-8.727-6.384-8.108-6.384-7.293-6.384-6.478-6.399-5.708-6.429-4.983ZM-1.132-5.753H-5.524V-7.6559998H-1.132ZM-1.449-.725H-4.709C-4.136-1.631-3.638-2.25-3.215-2.582-2.551-2.038-1.962-1.42-1.449-.725" fill="#ffffff"/>
<path transform="matrix(1,0,0,-1,142.9432,222.71231)" d="M0 0H4.528C4.497-.695 4.482-1.329 4.482-1.903V-6.976C4.482-7.52 4.497-8.063 4.528-8.607H3.622V-7.52H-2.445V-8.607H-3.35C-3.321-8.033-3.305-7.505-3.305-7.021V-1.857C-3.305-1.314-3.321-.695-3.35 0H-.86C-.74 .815-.664 1.419-.634 1.812-.272 1.691 .12 1.6 .543 1.54 .362 1.268 .181 .755 0 0M3.622-.77H-2.445V-2.2649999H3.622ZM3.622-2.99H-2.445V-4.44H3.622ZM3.622-5.164H-2.445V-6.795H3.622ZM3.622-6.795" fill="#ffffff"/>
<path transform="matrix(1,0,0,-1,154.8833,228.73691)" d="M0 0H-2.717C-2.898-.936-3.35-1.857-4.075-2.763-4.347-2.491-4.634-2.295-4.935-2.174-4.482-1.751-4.136-1.284-3.894-.77-3.652-.257-3.486 .408-3.396 1.223-3.305 2.038-3.275 3.095-3.305 4.394-3.547 4.152-3.834 3.911-4.165 3.669-4.317 3.911-4.558 4.152-4.89 4.394-4.618 4.514-4.226 4.763-3.713 5.141-3.2 5.519-2.732 5.986-2.309 6.546-1.887 7.104-1.585 7.565-1.404 7.927-1.162 7.746-.876 7.58-.543 7.429-.695 7.277-.936 6.991-1.268 6.568H3.079C2.927 6.387 2.46 5.753 1.675 4.666H4.482C4.452 4.001 4.437 3.412 4.437 2.899V-1.585C4.437-2.038 4.286-2.325 3.984-2.446 3.682-2.566 3.229-2.657 2.626-2.718 2.535-2.385 2.384-2.053 2.173-1.721 2.777-1.721 3.169-1.691 3.35-1.631 3.531-1.571 3.606-1.375 3.577-1.042V0H.86V-.906C.86-1.359 .875-1.903 .905-2.537H-.091C-.03-1.932 0-1.329 0-.725ZM.724 4.666 1.539 5.843H-1.766C-2.158 5.42-2.566 5.028-2.988 4.666ZM0 .725V1.993H-2.49C-2.49 1.54-2.521 1.117-2.581 .725ZM0 3.896H-2.445V2.718H0ZM3.577 3.896H.8599999V2.718H3.577ZM3.577 1.993H.8599999V.725H3.577ZM3.577 .725" fill="#ffffff"/>
<path transform="matrix(1,0,0,-1,167.0499,220.8551)" d="M0 0C.181-.333 .362-.77 .543-1.314H2.218C2.55-1.314 3.154-1.299 4.03-1.268V-2.084C3.184-2.054 2.55-2.038 2.128-2.038H-3.803C-3.803-3.397-3.819-4.492-3.849-5.323-3.879-6.153-3.962-6.976-4.097-7.791-4.233-8.607-4.528-9.498-4.98-10.464-5.252-10.283-5.539-10.147-5.841-10.056-5.358-9.211-5.048-8.38-4.912-7.565-4.777-6.749-4.702-5.708-4.686-4.439-4.671-3.171-4.679-2.129-4.709-1.314H-.498C-.619-.922-.755-.589-.906-.317-.574-.226-.272-.121 0 0M-3.124-6.478C-2.279-6.508-1.6-6.523-1.087-6.523H3.124C2.852-7.006 2.52-7.49 2.128-7.972 1.735-8.456 1.358-8.849 .996-9.15 1.388-9.331 1.947-9.483 2.671-9.603 3.396-9.724 4.09-9.784 4.754-9.784 4.573-9.966 4.407-10.267 4.256-10.69 3.38-10.569 2.61-10.426 1.947-10.26 1.283-10.094 .724-9.905 .272-9.694-.362-9.966-.989-10.184-1.607-10.351-2.226-10.516-2.868-10.645-3.532-10.736-3.622-10.494-3.803-10.237-4.075-9.966-3.532-9.966-2.913-9.89-2.219-9.739-1.525-9.588-.921-9.392-.407-9.15-.921-8.728-1.434-8.079-1.947-7.202L-3.124-7.248ZM-1.856-2.401H-.906C-.936-2.643-.951-3.02-.951-3.533H1.494C1.494-3.051 1.479-2.658 1.449-2.355H2.4C2.369-2.718 2.354-3.111 2.354-3.533 3.018-3.533 3.592-3.518 4.075-3.488V-4.258C3.622-4.228 3.048-4.213 2.354-4.213 2.354-5.028 2.369-5.617 2.4-5.979H-1.856C-1.827-5.497-1.811-4.908-1.811-4.213-2.173-4.213-2.702-4.228-3.396-4.258V-3.488C-2.702-3.518-2.173-3.533-1.811-3.533-1.811-3.051-1.827-2.673-1.856-2.401M-1.087-7.202C-.695-7.807-.226-8.32 .317-8.743 .77-8.411 1.237-7.897 1.72-7.202H-1.041ZM1.494-4.213H-.951V-5.255H1.494ZM1.494-5.255" fill="#ffffff"/>
</g>
<path transform="matrix(1,0,0,-1,248.0907,196.5729)" stroke-width="1.2" stroke-linecap="butt" stroke-dasharray="3.602,2.402" stroke-miterlimit="4" stroke-linejoin="miter" fill="none" stroke="#ffffff" d="M0 0V-177.695"/>
<path transform="matrix(1,0,0,-1,0,595.276)" d="M216.844 376.682H278.137V360.762H216.844Z" fill="#f43040"/>
<g clip-path="url(#clip_5)">
<path transform="matrix(1,0,0,-1,317.3289,302.0177)" d="M0 0H-40.693C-46.764 0-51.703 4.941-51.703 11.015-51.703 17.089-46.764 22.03-40.693 22.03H0C6.071 22.03 11.01 17.089 11.01 11.015 11.01 4.941 6.071 0 0 0M-40.693 20.72C-46.041 20.72-50.393 16.366-50.393 11.015-50.393 5.664-46.041 1.31-40.693 1.31H0C5.348 1.31 9.699 5.664 9.699 11.015 9.699 16.366 5.348 20.72 0 20.72Z" fill="#ffffff"/>
<path transform="matrix(1,0,0,-1,69.1013,265.7656)" stroke-width="1" stroke-linecap="butt" stroke-miterlimit="10" stroke-linejoin="miter" fill="none" stroke="#f43040" d="M0 0C.065 5.669 4.701 10.308 10.412 10.22H51.077C56.832 10.308 61.468 5.669 61.468-.052 61.468-5.774 56.832-10.412 51.077-10.417H10.412C4.701-10.412 .065-5.774 0 0"/>
<path transform="matrix(1,0,0,-1,120.2146,276.8326)" d="M0 0H-40.693C-46.764 0-51.703 4.941-51.703 11.015-51.703 17.089-46.764 22.03-40.693 22.03H0C6.071 22.03 11.01 17.089 11.01 11.015 11.01 4.941 6.071 0 0 0M-40.693 20.72C-46.042 20.72-50.393 16.366-50.393 11.015-50.393 5.664-46.042 1.31-40.693 1.31H0C5.348 1.31 9.699 5.664 9.699 11.015 9.699 16.366 5.348 20.72 0 20.72Z" fill="#ffffff"/>
<path transform="matrix(1,0,0,-1,120.2146,303.0313)" d="M0 0H-40.693C-46.764 0-51.703 4.941-51.703 11.015-51.703 17.089-46.764 22.03-40.693 22.03H0C6.071 22.03 11.01 17.089 11.01 11.015 11.01 4.941 6.071 0 0 0M-40.693 20.719C-46.042 20.719-50.393 16.366-50.393 11.015-50.393 5.664-46.042 1.31-40.693 1.31H0C5.348 1.31 9.699 5.664 9.699 11.015 9.699 16.366 5.348 20.719 0 20.719Z" fill="#ffffff"/>
<path transform="matrix(1,0,0,-1,120.2146,329.5193)" d="M0 0H-40.693C-46.764 0-51.703 4.941-51.703 11.015-51.703 17.089-46.764 22.03-40.693 22.03H0C6.071 22.03 11.01 17.089 11.01 11.015 11.01 4.941 6.071 0 0 0M-40.693 20.72C-46.042 20.72-50.393 16.366-50.393 11.015-50.393 5.664-46.042 1.31-40.693 1.31H0C5.348 1.31 9.699 5.664 9.699 11.015 9.699 16.366 5.348 20.72 0 20.72Z" fill="#ffffff"/>
<path transform="matrix(1,0,0,-1,95.2102,267.2987)" d="M0 0C-.066-.475-.254-.958-.565-1.45-.876-1.941-1.408-2.392-2.161-2.801-2.914-3.21-4.027-3.546-5.501-3.808-5.567-3.382-5.746-3.005-6.041-2.678-5.059-2.645-4.224-2.538-3.536-2.359-2.849-2.179-2.317-1.909-1.94-1.548-1.564-1.188-1.301-.762-1.154-.27-1.007 .221-.966 .778-1.031 1.4-.41 1.334 .016 1.302 .246 1.302 .147 .909 .065 .474 0 0M3.831 .27C3.831-.156 3.863-.565 3.929-.958H2.75V2.187H-3.683V-1.056H-4.813C-4.813-.696-4.797-.336-4.764 .025V1.548C-4.797 2.006-4.813 2.481-4.813 2.973H3.929C3.863 2.743 3.831 2.285 3.831 1.597ZM3.438 6.019V5.184C3.438 4.791 3.454 4.398 3.487 4.005H-4.322C-4.29 4.398-4.273 4.791-4.273 5.184V6.019C-4.273 6.445-4.29 6.871-4.322 7.297H3.487C3.454 6.871 3.438 6.445 3.438 6.019M2.407 6.462H-3.29V4.791H2.407ZM2.898-1.671C3.519-1.949 4.256-2.318 5.108-2.776 4.78-3.202 4.584-3.513 4.518-3.71 3.667-3.218 2.996-2.842 2.505-2.58 2.014-2.318 1.326-2.039 .442-1.744 .54-1.548 .688-1.237 .884-.811 1.604-1.106 2.275-1.393 2.898-1.671" fill="#ffffff"/>
<path transform="matrix(1,0,0,-1,109.7968,260.5424)" d="M0 0C.786 0 1.506 .016 2.161 .049V-.934C1.506-.901 .786-.884 0-.884H-2.014V-8.648H1.179C1.932-8.648 2.619-8.632 3.241-8.599V-9.582C2.619-9.549 1.948-9.533 1.228-9.533H-6.385C-7.105-9.533-7.728-9.549-8.251-9.582V-8.599C-7.695-8.632-7.056-8.648-6.336-8.648H-3.094V-.884H-5.059C-5.91-.884-6.647-.901-7.269-.934V.049C-6.647 .016-5.91 0-5.059 0Z" fill="#ffffff"/>
<path transform="matrix(1,0,0,-1,98.5008,295.3867)" d="M0 0C0-.491 .032-1.081 .098-1.769H-.933V-1.032H-5.992V-1.818H-7.023C-6.991-1.13-6.974-.557-6.974-.098V1.032C-6.974 1.228-6.991 1.523-7.023 1.916-7.253 1.818-7.956 1.589-9.135 1.228-9.233 1.622-9.397 1.998-9.626 2.359-8.447 2.522-7.465 2.703-6.679 2.899-5.893 3.096-5.157 3.374-4.469 3.734-4.862 3.931-5.452 4.356-6.237 5.012-6.63 4.619-7.072 4.226-7.563 3.833-7.793 4.16-8.071 4.405-8.398 4.57-7.711 4.995-7.114 5.479-6.606 6.019-6.098 6.56-5.73 7.108-5.501 7.665-5.076 7.469-4.65 7.305-4.224 7.174-4.42 7.043-4.65 6.83-4.911 6.535H-.196C-.557 5.978-.901 5.511-1.228 5.135-1.556 4.758-2.063 4.291-2.75 3.734-2.292 3.538-1.678 3.341-.909 3.145-.14 2.948 .851 2.817 2.063 2.752 1.833 2.359 1.686 1.949 1.621 1.523 .998 1.687 .491 1.818 .098 1.916 .032 1.589 0 1.245 0 .884ZM1.621 8.697C1.588 8.14 1.572 7.731 1.572 7.469 1.572 7.239 1.588 6.879 1.621 6.388H.589V7.813H-8.005V6.339H-9.086C-9.054 6.666-9.037 6.977-9.037 7.272-9.037 7.567-9.054 8.042-9.086 8.697H-4.125C-4.224 9.024-4.355 9.336-4.518 9.631-4.027 9.729-3.634 9.811-3.34 9.877-3.111 9.221-2.98 8.828-2.947 8.697ZM-6.925 1.916H0C-1.015 2.145-1.777 2.359-2.284 2.555-2.792 2.752-3.258 2.931-3.683 3.096-4.241 2.833-4.781 2.604-5.304 2.408-5.828 2.211-6.369 2.047-6.925 1.916M-.933 1.13H-5.992V-.29499997H-.933ZM-5.648 5.602C-4.83 4.914-4.125 4.455-3.536 4.226-2.915 4.684-2.374 5.192-1.915 5.749H-5.55C-5.583 5.716-5.616 5.667-5.648 5.602" fill="#ffffff"/>
<path transform="matrix(1,0,0,-1,112.3016,290.6696)" d="M0 0C0-.983 .016-1.753 .049-2.309H-1.031V-1.572H-7.858C-7.989-2.621-8.153-3.407-8.349-3.931-8.546-4.455-8.759-4.922-8.988-5.331-9.217-5.741-9.463-6.125-9.724-6.486-10.052-6.223-10.412-6.027-10.805-5.896-10.15-5.208-9.7-4.562-9.454-3.956-9.209-3.35-9.045-2.776-8.963-2.236-8.882-1.695-8.84-1.114-8.84-.491-8.84 .131-8.857 1.195-8.889 2.703H.049C.016 1.916 0 1.015 0 0M-1.08 1.818H-7.907V-.6880001H-1.08ZM-3.782 3.243C-4.208 3.145-4.535 3.03-4.764 2.899-4.993 3.587-5.255 4.193-5.55 4.717-5.223 4.815-4.911 4.946-4.617 5.11-4.224 4.324-3.946 3.701-3.782 3.243" fill="#ffffff"/>
<path transform="matrix(1,0,0,-1,92.5582,322.3168)" d="M0 0C.229 .032 .344 .295 .344 .786V3.096H-1.522C-1.621 2.145-1.752 1.367-1.915 .762-2.08 .155-2.325-.474-2.652-1.13-2.915-.868-3.258-.688-3.683-.59-3.258-.066-2.955 .597-2.775 1.4-2.595 2.203-2.497 3.112-2.48 4.128-2.464 5.143-2.456 6.174-2.456 7.223-2.456 8.271-2.472 9.041-2.505 9.533H1.277C1.244 8.877 1.228 8.222 1.228 7.567V.344C1.228-.278 1.088-.655 .81-.786 .532-.917 .032-1.048-.688-1.179-.754-.753-.868-.36-1.031 0-.573-.033-.229-.033 0 0M.344 8.746H-1.473V6.731H.344ZM.344 5.946H-1.473V3.931H.344ZM6.139-.639C5.778-.474 5.271-.114 4.617 .442 4.289 .114 3.912-.204 3.487-.516 3.061-.827 2.554-1.146 1.965-1.474 1.735-1.048 1.489-.737 1.228-.54 1.915-.311 2.456-.074 2.849 .172 3.241 .418 3.601 .72 3.929 1.081 3.568 1.539 3.258 2.047 2.996 2.604 2.733 3.096 2.537 3.603 2.406 4.128H2.014V5.012C2.57 4.979 3.11 4.963 3.634 4.963H7.121C7.023 4.471 6.794 3.833 6.434 3.047 6.073 2.26 5.68 1.605 5.255 1.081 5.582 .851 5.983 .614 6.458 .369 6.933 .123 7.465-.066 8.055-.197 7.727-.458 7.497-.818 7.367-1.278ZM6.336 7.272C6.302 6.846 6.483 6.633 6.876 6.633L7.956 6.683C7.825 6.388 7.743 6.093 7.711 5.798H6.483C5.729 5.798 5.353 6.093 5.353 6.683V8.746H3.733C3.733 7.96 3.642 7.313 3.462 6.805 3.282 6.297 2.898 5.798 2.308 5.307 2.144 5.569 1.898 5.814 1.572 6.044 2.259 6.469 2.635 7.01 2.701 7.665 2.766 8.32 2.783 8.943 2.75 9.533H6.385C6.352 9.238 6.336 8.894 6.336 8.501ZM3.34 4.177C3.47 3.619 3.634 3.161 3.831 2.801 4.059 2.408 4.322 2.047 4.617 1.72 5.238 2.538 5.631 3.357 5.795 4.177H3.634Z" fill="#ffffff"/>
<path transform="matrix(1,0,0,-1,104.3944,321.5798)" d="M0 0C-.557-.557-1.097-1.113-1.621-1.671-1.817-1.408-2.08-1.162-2.407-.934-1.13 .18-.246 1.162 .245 2.015 .474 1.752 .802 1.49 1.228 1.228ZM1.031 7.223C1.555 8.173 1.898 8.926 2.063 9.483L3.192 8.992C2.93 8.664 2.57 8.075 2.112 7.223H5.55C6.269 7.223 6.974 7.239 7.662 7.272V6.339C7.203 6.371 6.728 6.388 6.237 6.388H1.768C1.309 5.667 .688 4.766-.098 3.685H2.799C2.799 4.34 2.782 4.963 2.75 5.552H3.88C3.847 5.192 3.831 4.57 3.831 3.685H5.746C6.302 3.685 6.892 3.701 7.514 3.734V2.85C6.99 2.882 6.417 2.899 5.795 2.899H3.831V-.688C3.831-1.212 3.634-1.548 3.241-1.695 2.849-1.843 2.341-1.965 1.719-2.064 1.621-1.638 1.44-1.261 1.179-.934 1.898-.934 2.349-.901 2.529-.835 2.709-.77 2.799-.541 2.799-.147V2.899H.638C-.147 2.899-.803 2.85-1.326 2.752-1.424 3.079-1.555 3.407-1.719 3.734-1.359 3.865-.999 4.152-.638 4.594-.279 5.037 .13 5.634 .589 6.388H-.786C-1.343 6.388-1.768 6.371-2.063 6.339V7.272C-1.801 7.239-1.424 7.223-.933 7.223ZM6.974 .737C7.497 .246 7.956-.213 8.349-.639 8.218-.737 7.923-.999 7.465-1.425 6.974-.803 6.139 .065 4.96 1.179 5.32 1.474 5.566 1.72 5.697 1.916 6.024 1.622 6.45 1.228 6.974 .737" fill="#ffffff"/>
<path transform="matrix(1,0,0,-1,284.7703,287.8319)" d="M0 0C-.524 .032-1.13 .049-1.817 .049L-1.326-.934C-1.719-1.032-2.063-1.147-2.357-1.278-2.456-.819-2.587-.377-2.75 .049H-3.389C-3.684-.312-3.937-.598-4.15-.811-4.363-1.024-4.617-1.245-4.911-1.474-5.108-1.212-5.403-.983-5.795-.786-5.108-.328-4.585 .131-4.224 .59-3.864 1.048-3.602 1.523-3.438 2.015-3.143 1.883-2.734 1.752-2.21 1.622-2.44 1.392-2.652 1.13-2.849 .835H-1.228C-.835 .835-.426 .851 0 .884ZM.589-1.818H5.402C5.369-2.277 5.353-2.621 5.353-2.85 5.353-3.046 5.369-3.341 5.402-3.734H4.322V-2.604H-4.568V-3.784H-5.648C-5.616-3.489-5.599-3.194-5.599-2.899-5.599-2.604-5.616-2.244-5.648-1.818H-.54C-.639-1.556-.803-1.228-1.031-.835-.705-.77-.393-.639-.098-.442 .295-1.196 .523-1.655 .589-1.818M3.34-4.57C3.34-4.799 3.356-5.159 3.389-5.651H-2.652V-6.486H3.88C3.847-7.207 3.831-7.748 3.831-8.108 3.831-8.435 3.847-8.894 3.88-9.483H2.898V-8.992H-2.652V-9.631H-3.684C-3.651-8.779-3.634-8.272-3.634-8.108V-5.012C-3.634-4.455-3.651-3.915-3.684-3.39H3.389C3.356-3.915 3.34-4.308 3.34-4.57M2.406-4.128H-2.653V-4.9139997H2.406ZM2.898-7.272H-2.6520003V-8.255H2.898ZM3.29-1.327C3.192-.868 3.045-.41 2.848 .049H1.915C1.621-.41 1.375-.786 1.179-1.081 .818-.884 .491-.705 .196-.54 .589-.18 .9 .204 1.13 .614 1.358 1.023 1.539 1.474 1.67 1.965 2.03 1.834 2.439 1.72 2.898 1.622 2.635 1.392 2.439 1.13 2.308 .835H4.224C4.518 .835 4.993 .851 5.648 .884V0C5.157 .032 4.534 .049 3.782 .049L4.273-.934Z" fill="#ffffff"/>
<path transform="matrix(1,0,0,-1,294.3964,287.3405)" d="M0 0C.36 0 .753 .016 1.179 .049V-.884C.72-.852 .327-.835 0-.835H-.442V-3.489C.016-3.489 .474-3.473 .933-3.44V-4.373C.474-4.341 .016-4.324-.442-4.324V-7.469C.18-7.24 .704-7.027 1.13-6.83 1.195-7.158 1.26-7.437 1.326-7.665 .704-7.862 .008-8.116-.761-8.427-1.531-8.739-2.129-9.024-2.554-9.287-2.685-8.959-2.832-8.616-2.996-8.255-2.571-8.19-2.014-8.009-1.326-7.715V-4.324C-1.915-4.324-2.423-4.341-2.849-4.373V-3.44C-2.39-3.473-1.883-3.489-1.326-3.489V-.835H-1.915C-2.21-.835-2.571-.852-2.996-.884V.049C-2.571 .016-2.21 0-1.915 0ZM7.956-2.162C7.956-3.571 7.972-4.587 8.005-5.208H5.304V-6.683H6.778C7.367-6.683 7.825-6.667 8.153-6.633V-7.518C7.792-7.486 7.334-7.469 6.778-7.469H5.304V-9.139H7.072C7.694-9.139 8.218-9.123 8.644-9.09V-9.975C8.218-9.942 7.711-9.926 7.121-9.926H2.357C1.833-9.926 1.375-9.942 .982-9.975V-9.09C1.408-9.123 1.866-9.139 2.357-9.139H4.371V-7.469H2.75C2.324-7.469 1.948-7.486 1.621-7.518V-6.633C1.948-6.667 2.324-6.683 2.75-6.683H4.371V-5.208H1.719C1.751-4.717 1.768-3.718 1.768-2.211 1.768-.705 1.751 .246 1.719 .639H8.005C7.972 .213 7.956-.721 7.956-2.162M4.371-.147H2.7009998V-1.916H4.371ZM4.371-2.653H2.7009998V-4.422H4.371ZM7.023-.147H5.304V-1.916H7.023ZM7.023-2.653H5.304V-4.422H7.023ZM7.023-4.422" fill="#ffffff"/>
<path transform="matrix(1,0,0,-1,313.7224,288.6181)" d="M0 0C-.344-.361-.827-.852-1.449-1.474H-.074C.483-1.474 1.056-1.458 1.645-1.425V-2.309C1.056-2.277 .467-2.26-.123-2.26H-2.431C-2.955-2.653-3.545-3.079-4.199-3.538H-.025C-.058-4.128-.074-4.668-.074-5.159V-6.879C-.074-7.469-.058-8.108-.025-8.796H-1.007V-8.058H-5.722V-8.796H-6.753C-6.721-8.271-6.704-7.78-6.704-7.321V-5.061C-7.359-5.422-8.096-5.782-8.914-6.142-9.242-5.684-9.471-5.405-9.602-5.307-9.373-5.242-8.939-5.086-8.3-4.84-7.662-4.594-7.13-4.324-6.704-4.029V-3.538H-5.771C-5.051-3.145-4.413-2.719-3.855-2.26H-7.342C-8.03-2.26-8.668-2.277-9.258-2.309V-1.425C-8.603-1.458-7.965-1.474-7.342-1.474H-4.739V.049H-6.213C-6.77 .049-7.277 .032-7.735 0V.884C-7.277 .851-6.77 .835-6.213 .835H-4.739C-4.739 1.327-4.756 1.883-4.789 2.506H-3.708C-3.741 2.047-3.757 1.49-3.757 .835H-3.02C-2.595 .835-2.104 .851-1.547 .884V0C-2.104 .032-2.595 .049-3.02 .049H-3.757V-1.474H-2.775C-2.317-1.114-1.859-.688-1.4-.197-.942 .295-.467 .917 .025 1.671 .384 1.31 .679 1.048 .909 .884 .646 .655 .344 .36 0 0M-1.007-4.324H-5.722V-5.356H-1.007ZM-1.007-6.142H-5.722V-7.2720005H-1.007ZM-1.007-7.272" fill="#ffffff"/>
<path transform="matrix(1,0,0,-1,180.6087,288.4215)" d="M0 0C.523-.033 1.097-.049 1.719-.049H9.037C9.823-.049 10.461-.033 10.952 0V-.983C10.526-.951 9.937-.934 9.184-.934H4.125C4.125-1.294 4.109-1.949 4.076-2.899H9.577C9.511-3.325 9.446-3.948 9.381-4.766L9.086-7.469C9.02-8.058 8.742-8.443 8.251-8.624 7.76-8.803 7.039-8.943 6.09-9.041 6.057-8.615 5.926-8.238 5.697-7.911 6.45-7.943 7.023-7.911 7.416-7.813 7.809-7.715 8.054-7.437 8.153-6.977L8.447-3.784H4.027C3.896-4.701 3.691-5.471 3.413-6.093 3.135-6.716 2.75-7.289 2.259-7.813 1.768-8.336 1.277-8.796 .786-9.189 .655-8.992 .36-8.763-.098-8.501 .327-8.271 .777-7.911 1.252-7.42 1.727-6.928 2.12-6.372 2.431-5.749 2.742-5.127 2.938-4.439 3.02-3.685 3.102-2.932 3.143-2.015 3.143-.934H1.768C1.047-.934 .458-.951 0-.983ZM4.224 2.015C4.518 2.178 4.813 2.359 5.108 2.555 5.468 1.998 5.828 1.392 6.188 .737 5.861 .606 5.533 .425 5.206 .197 4.911 .851 4.584 1.457 4.224 2.015" fill="#ffffff"/>
<path transform="matrix(1,0,0,-1,198.2402,293.4826)" d="M0 0C0 .197-.017 .442-.049 .737H.884C.851 .474 .835 .229 .835 0H3.782C4.371 0 4.96 .016 5.55 .049V-.737C4.96-.705 4.371-.688 3.782-.688H1.67C2.226-1.245 2.889-1.704 3.659-2.064 4.428-2.425 5.255-2.686 6.139-2.85 5.91-3.013 5.697-3.308 5.501-3.734 4.387-3.407 3.438-2.98 2.652-2.457 1.866-1.933 1.26-1.376 .835-.786V-2.457C.835-2.85 .851-3.357 .884-3.98H-.049C-.017-3.357 0-2.817 0-2.359V-.934C-.491-1.458-1.081-1.949-1.768-2.408-2.456-2.866-3.406-3.341-4.617-3.833-4.813-3.505-5.026-3.226-5.255-2.997-4.404-2.833-3.602-2.555-2.849-2.162-2.096-1.769-1.441-1.278-.884-.688H-3.094C-3.487-.688-3.995-.705-4.617-.737V.049C-3.995 .016-3.487 0-3.094 0ZM-.589 4.324H3.782C4.207 4.324 4.698 4.34 5.255 4.373V3.587C4.633 3.619 3.994 3.636 3.34 3.636 2.947 3.112 2.488 2.637 1.965 2.211 2.947 1.949 4.043 1.638 5.255 1.278 5.157 1.081 5.042 .786 4.911 .393 3.798 .851 2.586 1.278 1.277 1.671 .622 1.31-.14 1.04-1.007 .86-1.875 .679-2.816 .573-3.831 .54-3.864 .802-4.011 1.097-4.273 1.425-3.455 1.359-2.669 1.367-1.915 1.45-1.163 1.531-.491 1.687 .098 1.916-.721 2.08-1.801 2.276-3.143 2.506-2.652 2.997-2.308 3.374-2.112 3.636H-3.045C-3.307 3.636-3.782 3.619-4.469 3.587V4.373C-3.88 4.34-3.406 4.324-3.045 4.324H-1.572C-1.212 4.749-.917 5.176-.688 5.602L.147 5.012C.081 5.044-.164 4.815-.589 4.324M.982 6.29H5.108C5.075 6.093 5.059 5.863 5.059 5.602 5.059 5.372 5.075 5.11 5.108 4.815H4.175V5.651H-3.34V4.766H-4.273C-4.241 5.028-4.224 5.29-4.224 5.552-4.224 5.847-4.241 6.093-4.273 6.29H0C-.196 6.65-.393 6.944-.589 7.174-.164 7.338 .114 7.485 .246 7.616 .605 7.059 .851 6.617 .982 6.29M1.031 2.457C1.456 2.686 1.882 3.079 2.308 3.636H-1.13C-1.326 3.407-1.539 3.161-1.768 2.899-.754 2.735 .18 2.587 1.031 2.457" fill="#ffffff"/>
<path transform="matrix(1,0,0,-1,210.7133,293.4826)" d="M0 0C0-.95-.262-1.605-.786-1.965-1.31-2.326-1.981-2.506-2.799-2.506H-5.255V5.896H-2.701C-1.883 5.896-1.269 5.683-.859 5.258-.45 4.832-.245 4.324-.245 3.734-.245 3.145-.385 2.71-.663 2.432-.941 2.154-1.228 1.965-1.522 1.867-1.13 1.769-.778 1.564-.467 1.253-.156 .941 0 .524 0 0M-1.375 3.734C-1.375 4.16-1.498 4.471-1.743 4.668-1.989 4.865-2.292 4.963-2.652 4.963H-4.125V2.359H-2.701C-2.341 2.359-2.031 2.465-1.768 2.678-1.506 2.891-1.375 3.243-1.375 3.734M-1.179 0C-1.179 .524-1.35 .892-1.694 1.106-2.038 1.318-2.423 1.425-2.849 1.425H-4.125V-1.572H-2.996C-2.407-1.572-1.957-1.458-1.645-1.228-1.334-1-1.179-.59-1.179 0" fill="#ffffff"/>
<path transform="matrix(1,0,0,-1,171.6016,393.04493)" d="M0 0V-2.85C.458-3.407 1.064-3.817 1.817-4.078 2.57-4.341 3.733-4.471 5.304-4.471 6.908-4.471 8.071-4.389 8.791-4.226 8.562-4.749 8.447-5.159 8.447-5.454 7.072-5.486 5.918-5.486 4.985-5.454 4.052-5.421 3.274-5.348 2.652-5.233 2.03-5.118 1.547-4.979 1.203-4.815 .859-4.651 .499-4.414 .123-4.103-.254-3.792-.598-3.8-.909-4.128-1.22-4.455-1.555-4.848-1.915-5.307-2.145-5.077-2.423-4.832-2.75-4.57-2.292-4.177-1.703-3.653-.982-2.997V.639C-1.441 .639-1.965 .622-2.554 .59V1.523C-1.866 1.49-.999 1.474 .049 1.474 .016 .851 0 .36 0 0M.54 3.636C.246 3.407-.033 3.161-.295 2.899-.819 3.717-1.359 4.438-1.915 5.061-1.654 5.225-1.392 5.437-1.13 5.7-.508 4.979 .049 4.291 .54 3.636M3.929 5.896C4.485 5.83 4.878 5.781 5.108 5.749 5.009 5.323 4.944 4.373 4.911 2.899 6.613 2.899 7.727 2.915 8.251 2.948V1.965C7.727 1.998 6.597 2.015 4.862 2.015 4.764 .901 4.461-.115 3.954-1.032 3.446-1.949 2.668-2.818 1.621-3.636 1.489-3.374 1.244-3.113 .884-2.85 1.735-2.26 2.414-1.581 2.922-.811 3.43-.041 3.749 .901 3.88 2.015 2.537 2.015 1.555 1.998 .933 1.965V2.948C1.555 2.915 2.57 2.899 3.978 2.899 3.978 4.34 3.961 5.339 3.929 5.896M8.349-2.801C8.021-2.997 7.711-3.243 7.416-3.538 6.925-2.785 6.041-1.688 4.764-.246 4.993-.082 5.238 .147 5.501 .442 6.974-1.163 7.923-2.244 8.349-2.801" fill="#ffffff"/>
<path transform="matrix(1,0,0,-1,187.6615,387.1485)" d="M0 0C.393-.033 .769-.066 1.13-.098 1.064-.524 1.047-1.294 1.081-2.408H2.505C3.192-2.408 3.945-2.392 4.764-2.359V-3.292C3.912-3.26 3.159-3.243 2.505-3.243H1.13C1.162-4.488 1.375-5.847 1.768-7.321 2.39-6.372 2.881-5.275 3.242-4.029 3.568-4.292 3.945-4.521 4.371-4.717 4.109-5.012 3.814-5.503 3.487-6.191 3.159-6.879 2.733-7.6 2.21-8.353 2.505-8.943 2.824-9.41 3.168-9.754 3.512-10.098 3.749-10.245 3.88-10.196 4.01-10.147 4.142-9.582 4.273-8.501 4.6-8.763 4.944-8.96 5.304-9.09 5.075-10.433 4.821-11.179 4.543-11.326 4.264-11.474 3.929-11.474 3.536-11.326 3.143-11.179 2.775-10.9 2.431-10.491 2.087-10.082 1.8-9.631 1.572-9.139 .786-9.992-.213-10.793-1.424-11.547-1.589-11.252-1.834-10.99-2.161-10.761-1.506-10.466-.876-10.073-.27-9.582 .335-9.09 .786-8.632 1.081-8.206 .851-7.584 .655-6.822 .491-5.921 .327-5.02 .229-4.128 .196-3.243H-4.027V-4.963H-.835C-.901-5.552-.95-6.159-.982-6.781L-1.13-8.746C-1.163-9.369-1.334-9.746-1.645-9.877-1.957-10.008-2.489-10.106-3.241-10.171-3.274-9.877-3.406-9.516-3.634-9.09-2.816-9.123-2.341-9.074-2.21-8.943-2.08-8.812-1.998-8.435-1.965-7.813L-1.866-5.847H-4.027C-4.027-7.125-4.125-8.19-4.322-9.041-4.518-9.893-4.879-10.679-5.402-11.4-5.763-11.137-6.09-10.958-6.385-10.859-5.96-10.335-5.665-9.836-5.501-9.361-5.337-8.886-5.214-8.37-5.132-7.813-5.051-7.256-5.002-6.47-4.985-5.454-4.969-4.439-4.977-3.423-5.01-2.408H.098C.065-1.458 .032-.656 0 0M4.273-1.572C3.978-1.802 3.716-2.032 3.487-2.26 3.094-1.737 2.57-1.196 1.915-.639 2.144-.442 2.357-.23 2.554 0 3.208-.524 3.782-1.049 4.273-1.572" fill="#ffffff"/>
<path transform="matrix(1,0,0,-1,197.4349,390.1458)" d="M0 0C0 1.31-.017 2.162-.049 2.555H1.129C1.063 2.162 1.031 1.31 1.031 0H3.733C3.733 1.343 3.716 2.211 3.683 2.604H4.862C4.796 2.211 4.764 1.343 4.764 0H5.746C6.336 0 6.843 .016 7.269 .049V-.835C6.843-.803 6.336-.786 5.746-.786H4.764V-3.636H6.434C7.023-3.636 7.514-3.62 7.907-3.587V-4.471C7.546-4.439 7.072-4.422 6.483-4.422H-1.866C-2.489-4.422-2.98-4.439-3.34-4.471V-3.587C-2.98-3.62-2.489-3.636-1.866-3.636H0V-.786H-.835C-1.621-.786-2.21-.803-2.603-.835V.049C-2.178 .016-1.572 0-.786 0ZM-.123-7.002C-.859-7.543-1.589-7.976-2.308-8.304-2.538-7.976-2.799-7.698-3.094-7.469-2.407-7.174-1.76-6.839-1.154-6.462-.549-6.085 .032-5.618 .589-5.061 .949-5.356 1.309-5.618 1.67-5.847 1.211-6.077 .614-6.462-.123-7.002M3.733-.786H1.0320001V-3.636H3.733ZM5.697-6.093C6.45-6.552 7.105-7.01 7.662-7.469 7.367-7.698 7.105-7.96 6.876-8.255 6.319-7.829 5.705-7.395 5.034-6.953 4.363-6.511 3.765-6.159 3.241-5.896 3.503-5.635 3.749-5.356 3.978-5.061 4.371-5.291 4.943-5.635 5.697-6.093" fill="#ffffff"/>
<path transform="matrix(1,0,0,-1,209.2711,390.83369)" d="M0 0C-.033-.59-.049-1.278-.049-2.064V-4.914C.278-4.587 .638-4.177 1.031-3.685 1.162-4.013 1.342-4.357 1.572-4.717 1.08-5.176 .663-5.602 .319-5.995-.025-6.388-.377-6.813-.737-7.272-.966-6.911-1.245-6.617-1.572-6.388-1.212-6.093-1.031-5.766-1.031-5.405V-.835C-1.752-.835-2.325-.852-2.75-.884V.049C-2.357 .016-1.915 0-1.424 0ZM.786 1.867C.491 1.671 .212 1.425-.049 1.13-.672 2.08-1.163 2.752-1.522 3.145-1.261 3.308-.999 3.521-.737 3.784 .016 2.931 .523 2.293 .786 1.867M2.947-5.995C2.488-6.617 1.981-7.239 1.424-7.862 1.26-7.665 .998-7.436 .638-7.174 1.915-5.831 2.75-4.717 3.143-3.833 3.47-4.062 3.798-4.275 4.125-4.471 3.798-4.865 3.405-5.373 2.947-5.995M7.662-.049C7.662-1.393 7.678-2.359 7.711-2.948H1.866C1.898-2.392 1.915-1.425 1.915-.049 1.915 1.327 1.898 2.342 1.866 2.997H7.711C7.678 2.342 7.662 1.327 7.662-.049M6.63 2.064H2.946V-2.1130002H6.63ZM8.791-6.879C8.43-7.141 8.12-7.403 7.858-7.665 7.203-6.683 6.401-5.635 5.452-4.521 5.713-4.357 5.975-4.111 6.237-3.784 7.481-5.192 8.332-6.224 8.791-6.879" fill="#ffffff"/>
</g>
<path transform="matrix(1,0,0,-1,169.1833,293.9819)" d="M0 0V1.965 3.931L3.929 1.965ZM-34.926 2.621H.98200228V1.3110001H-34.926Z" fill="#ffffff"/>
<path transform="matrix(1,0,0,-1,237.4495,289.4761)" d="M0 0V-1.965-3.931L-3.929-1.965ZM-.982-1.31H25.574V-2.62H-.982Z" fill="#ffffff"/>
<path transform="matrix(1,0,0,-1,190.9912,377.91383)" d="M0 0H1.965 3.929L1.965-3.931ZM2.619-.983H1.309V47.496999H2.619Z" fill="#ffffff"/>
<path transform="matrix(1,0,0,-1,0,595.276)" d="M162.612 242.243H229.013V226.323H162.612Z" fill="#f43040"/>
<g clip-path="url(#clip_6)">
<path transform="matrix(1,0,0,-1,172.5477,359.1427)" d="M0 0C-.03-.604-.045-1.208-.045-1.812V-4.62C.377-4.228 .77-3.866 1.132-3.533 1.252-3.805 1.404-4.062 1.585-4.303 1.011-4.756 .256-5.451-.679-6.387-.831-6.115-1.012-5.873-1.222-5.662-.981-5.512-.86-5.225-.86-4.802V-.815C-1.343-.815-1.781-.831-2.173-.861V.045C-1.781 .015-1.464 0-1.222 0ZM.362 1.676C.151 1.464-.076 1.268-.317 1.087-.498 1.419-.951 1.948-1.675 2.673-1.434 2.884-1.222 3.08-1.041 3.261-.619 2.869-.151 2.34 .362 1.676M4.437 1.178C4.407 1.781 4.392 2.22 4.392 2.491 4.392 2.793 4.376 3.201 4.346 3.714 4.709 3.624 5.04 3.563 5.343 3.533 5.312 3.171 5.297 2.854 5.297 2.582V1.178H6.61C7.033 1.178 7.471 1.193 7.923 1.223V.408C7.5 .437 7.047 .453 6.565 .453H5.343C5.403-.362 5.485-1.095 5.592-1.744 5.697-2.394 5.848-3.058 6.044-3.737 6.24-4.417 6.467-4.953 6.724-5.345 6.98-5.738 7.154-5.753 7.244-5.39 7.335-5.028 7.395-4.606 7.425-4.122 7.667-4.455 7.969-4.681 8.331-4.802 8.179-5.768 7.969-6.379 7.697-6.636 7.425-6.892 7.123-6.923 6.791-6.727 6.459-6.53 6.15-6.168 5.863-5.64 5.576-5.112 5.335-4.5 5.139-3.805 4.942-3.111 4.799-2.394 4.709-1.653 4.618-.914 4.542-.212 4.482 .453H2.354C1.75 .453 1.192 .437 .679 .408V1.223C1.162 1.193 1.705 1.178 2.309 1.178ZM4.12-1.812C3.788-1.782 3.471-1.767 3.169-1.767V-4.711C3.561-4.591 3.954-4.455 4.346-4.303 4.346-4.636 4.376-4.923 4.437-5.164 3.984-5.255 3.501-5.376 2.988-5.526 2.475-5.678 1.947-5.858 1.404-6.07 1.313-5.738 1.162-5.451 .951-5.209 1.433-5.149 1.902-5.044 2.354-4.892V-1.767C2.022-1.767 1.675-1.782 1.313-1.812V-.951C1.766-.982 2.233-.997 2.717-.997 3.229-.997 3.697-.982 4.12-.951ZM7.878 2.174C7.546 1.963 7.289 1.767 7.108 1.585 6.746 2.159 6.353 2.657 5.931 3.08 6.112 3.201 6.339 3.367 6.61 3.579 6.821 3.397 7.244 2.929 7.878 2.174" fill="#ffffff"/>
<path transform="matrix(1,0,0,-1,183.0165,357.1496)" d="M0 0C.317 .573 .566 1.102 .747 1.585 1.139 1.374 1.486 1.193 1.788 1.042 1.396 .649 1.094 .241 .883-.181 1.517-.181 2.075-.166 2.558-.136V-.951C2.015-.922 1.32-.906 .475-.906 .083-1.45-.31-1.963-.702-2.446-.883-2.205-1.08-1.963-1.29-1.721-.747-1.148-.317-.574 0 0M2.422-2.763C2.09-2.733 1.727-2.718 1.336-2.718V-4.032C1.909-4.032 2.422-4.017 2.875-3.986V-4.756C2.392-4.727 1.879-4.711 1.336-4.711V-6.931C1.818-6.538 2.211-6.161 2.513-5.798 2.633-6.131 2.754-6.418 2.875-6.659 2.542-6.931 2.18-7.225 1.788-7.542 1.396-7.859 1.019-8.199 .656-8.561 .445-8.259 .249-8.002 .068-7.791 .34-7.52 .475-7.218 .475-6.885V-4.711C-.008-4.711-.446-4.727-.838-4.756V-3.986C-.415-4.017 .023-4.032 .475-4.032V-2.718C.264-2.718 .037-2.733-.204-2.763V-1.948C.098-1.978 .4-1.993 .702-1.993H1.653C1.894-1.993 2.151-1.978 2.422-1.948ZM4.369 1.45H5.275C5.244 .845 5.229 .347 5.229-.045H6.859C6.859 .468 6.844 .951 6.814 1.404H7.765C7.734 1.072 7.72 .589 7.72-.045 8.202-.045 8.625-.031 8.987 0V-.815C8.564-.786 8.142-.77 7.72-.77V-2.265C8.534-2.265 9.108-2.25 9.44-2.22V-2.99C9.078-2.96 8.595-2.944 7.991-2.944H4.188C3.977-2.944 3.584-2.96 3.011-2.99V-2.22C3.343-2.25 3.81-2.265 4.414-2.265V-.77C4.233-.77 3.841-.786 3.237-.815V0C3.781-.031 4.172-.045 4.414-.045 4.414 .619 4.399 1.117 4.369 1.45M8.444-6.342C8.444-7.49 8.459-8.29 8.489-8.743H7.629V-8.154H4.505V-8.878H3.645C3.674-8.002 3.69-7.142 3.69-6.296 3.69-5.421 3.674-4.666 3.645-4.032H8.489C8.459-4.394 8.444-5.164 8.444-6.342M7.629-4.711H4.505V-5.7530004H7.629ZM7.629-6.432H4.505V-7.474H7.629ZM6.859-.77H5.229V-2.2649999H6.859ZM6.859-2.265" fill="#ffffff"/>
<path transform="matrix(1,0,0,-1,198.4109,363.76313)" d="M0 0-.408-.906C-.589-.786-.747-.679-.883-.589-1.019-.498-1.162-.378-1.313-.227-1.555-.469-1.811-.657-2.083-.793-2.354-.929-2.671-.997-3.034-.997-3.638-.997-4.158-.815-4.596-.453-5.034-.091-5.252 .468-5.252 1.223-5.252 1.706-5.124 2.106-4.867 2.423-4.611 2.741-4.301 3.035-3.939 3.307-4.09 3.639-4.211 3.971-4.301 4.303-4.392 4.635-4.437 4.937-4.437 5.209-4.437 5.753-4.279 6.175-3.962 6.478-3.645 6.779-3.26 6.931-2.807 6.931-2.415 6.931-2.083 6.802-1.811 6.546-1.539 6.289-1.404 5.919-1.404 5.436-1.404 4.862-1.562 4.401-1.879 4.054-2.196 3.707-2.551 3.412-2.943 3.171-2.732 2.808-2.513 2.469-2.286 2.152-2.06 1.835-1.796 1.51-1.494 1.178-1.404 1.389-1.344 1.593-1.313 1.789-1.283 1.985-1.268 2.234-1.268 2.537H-.362C-.362 2.144-.401 1.789-.475 1.472-.551 1.155-.664 .861-.815 .589-.724 .498-.596 .392-.43 .272-.265 .151-.121 .06 0 0M-1.947 .362C-2.339 .785-2.671 1.178-2.943 1.54-3.215 1.903-3.441 2.265-3.622 2.627-3.864 2.446-4.037 2.242-4.143 2.016-4.249 1.789-4.301 1.51-4.301 1.178-4.301 .725-4.165 .385-3.894 .159-3.622-.068-3.305-.181-2.943-.181-2.732-.181-2.551-.136-2.4-.045-2.249 .045-2.098 .181-1.947 .362M-2.264 5.436C-2.264 5.647-2.317 5.813-2.422 5.934-2.528 6.054-2.671 6.115-2.852 6.115-3.034 6.115-3.2 6.039-3.35 5.889-3.502 5.737-3.577 5.526-3.577 5.255-3.577 5.043-3.554 4.824-3.509 4.598-3.464 4.371-3.381 4.122-3.26 3.85-3.019 3.971-2.792 4.16-2.581 4.417-2.37 4.673-2.264 5.013-2.264 5.436" fill="#ffffff"/>
<path transform="matrix(1,0,0,-1,202.9919,362.7213)" d="M0 0C-.393-.393-.71-.725-.951-.997-1.193-1.268-1.525-1.631-1.947-2.084-2.158-1.842-2.354-1.631-2.536-1.45-2.325-1.208-2.218-.951-2.218-.679V2.944H-2.626C-2.837 2.944-3.23 2.929-3.803 2.899V3.714C-3.23 3.684-2.837 3.669-2.626 3.669H-1.358C-1.389 3.126-1.404 2.521-1.404 1.857V-.272C-1.253-.151-.951 .181-.498 .725-.378 .453-.212 .211 0 0M-.77 5.255C-1.041 5.103-1.283 4.907-1.494 4.666-2.098 5.572-2.521 6.145-2.762 6.387-2.521 6.538-2.294 6.719-2.083 6.931-1.751 6.538-1.313 5.979-.77 5.255M6.429-1.812C6.459-2.416 6.308-2.801 5.976-2.967 5.644-3.133 5.161-3.261 4.528-3.352 4.437-2.99 4.316-2.627 4.165-2.265 4.769-2.295 5.154-2.265 5.32-2.174 5.486-2.084 5.584-1.903 5.614-1.631V6.025H1.222V1.948C1.222 .679 1.116-.325 .906-1.064 .694-1.805 .317-2.566-.227-3.352-.408-3.11-.679-2.899-1.041-2.718-.65-2.265-.355-1.82-.159-1.382 .037-.944 .181-.476 .272 .023 .362 .521 .408 1.555 .408 3.126 .408 4.726 .392 5.919 .362 6.704H6.474C6.444 6.251 6.429 5.647 6.429 4.892ZM2.943 5.617H3.803C3.773 5.255 3.758 4.877 3.758 4.485 4.09 4.485 4.482 4.499 4.935 4.53V3.76C4.482 3.79 4.09 3.805 3.758 3.805V2.673C4.301 2.673 4.754 2.687 5.116 2.718V1.903C4.633 1.932 4.075 1.948 3.441 1.948 2.807 1.948 2.233 1.932 1.72 1.903V2.718C2.233 2.687 2.656 2.673 2.988 2.673V3.805C2.596 3.805 2.188 3.79 1.766 3.76V4.53C2.218 4.499 2.626 4.485 2.988 4.485 2.988 4.847 2.973 5.224 2.943 5.617M4.89-.045C4.89-.408 4.905-.861 4.935-1.404H1.856C1.886-.861 1.902-.408 1.902-.045 1.902 .317 1.886 .709 1.856 1.132H4.935C4.905 .709 4.89 .317 4.89-.045M4.12 .498H2.671V-.77H4.12ZM4.12-.77" fill="#ffffff"/>
<path transform="matrix(1,0,0,-1,215.7017,360.7281)" d="M0 0-.589-.589C-.891-.227-1.222 .091-1.585 .362V-.77H-2.445V.408C-2.777 .075-3.079-.181-3.351-.362-3.622-.544-4.015-.815-4.528-1.178-4.649-.906-4.86-.679-5.161-.498-4.77-.348-4.369-.151-3.962 .091-3.554 .332-3.2 .619-2.898 .951H-4.573C-4.543 1.314-4.528 1.646-4.528 1.948-4.528 2.28-4.543 2.597-4.573 2.899H-2.445V3.533C-3.592 3.533-4.392 3.518-4.845 3.488V4.213C-4.392 4.182-3.592 4.167-2.445 4.167-2.445 4.499-2.46 4.847-2.49 5.209H-1.539C-1.57 4.847-1.585 4.499-1.585 4.167-.528 4.167 .226 4.182 .679 4.213V3.488C.226 3.518-.528 3.533-1.585 3.533V2.899H.408C.377 2.597 .362 2.28 .362 1.948 .362 1.646 .377 1.314 .408 .951H-1.177C-.815 .74-.423 .422 0 0M2.943-1.132C3.396-1.132 3.878-1.118 4.392-1.087V-1.812C3.878-1.782 2.641-1.767 .679-1.767V-2.627C2.49-2.627 3.622-2.613 4.075-2.582V-3.307C3.622-3.277 2.49-3.261 .679-3.261V-4.258H3.848C4.301-4.258 4.814-4.242 5.388-4.213V-4.938C4.814-4.907 4.316-4.892 3.894-4.892H-3.351C-3.774-4.892-4.271-4.907-4.845-4.938V-4.213C-4.241-4.242-3.532-4.258-2.717-4.258-2.717-3.413-2.732-2.808-2.762-2.446H-1.811C-1.841-2.718-1.856-3.322-1.856-4.258H-.136V-1.767C-2.098-1.767-3.321-1.782-3.803-1.812V-1.087C-3.321-1.118-2.868-1.132-2.445-1.132ZM-2.445 2.265H-3.7129999V1.5860001H-2.445ZM-.408 2.265H-1.585V1.5860001H-.408ZM1.177 1.676C.966 1.827 .739 1.963 .498 2.084 .92 2.537 1.268 3.095 1.539 3.76 1.811 4.424 1.977 4.922 2.037 5.255 2.279 5.164 2.61 5.058 3.033 4.937 2.913 4.816 2.701 4.454 2.4 3.85H4.301C4.663 3.85 5.071 3.865 5.524 3.896V3.171C5.101 3.201 4.814 3.216 4.663 3.216 4.482 2.249 4.09 1.434 3.486 .77 4.029 .408 4.663 .181 5.388 .091 5.207-.121 5.071-.408 4.98-.77 4.557-.65 4.188-.506 3.871-.34 3.554-.174 3.26 .03 2.988 .272 2.445-.121 1.856-.469 1.222-.77 1.101-.529 .906-.287 .634-.045 1.297 .105 1.886 .377 2.4 .77 2.158 1.042 1.856 1.479 1.494 2.084ZM2.988 1.268C3.38 1.781 3.652 2.431 3.803 3.216H2.173L1.902 2.763C2.294 2.068 2.656 1.57 2.988 1.268" fill="#ffffff"/>
</g>
<path transform="matrix(1,0,0,-1,169.6064,267.7831)" d="M0 0V1.965 3.931L3.929 1.965ZM-34.926 2.621H.98200228V1.3110001H-34.926Z" fill="#ffffff"/>
<path transform="matrix(1,0,0,-1,168.5135,320.4698)" d="M0 0V1.965 3.931L3.929 1.965ZM-34.926 2.621H.98200228V1.3110001H-34.926Z" fill="#ffffff"/>
<g clip-path="url(#clip_7)">
<path transform="matrix(1,0,0,-1,180.6087,262.2177)" d="M0 0C.523-.033 1.097-.049 1.719-.049H9.037C9.823-.049 10.461-.033 10.952 0V-.983C10.526-.951 9.937-.934 9.184-.934H4.125C4.125-1.294 4.109-1.949 4.076-2.899H9.577C9.511-3.325 9.446-3.948 9.381-4.766L9.086-7.469C9.02-8.058 8.742-8.443 8.251-8.624 7.76-8.803 7.039-8.943 6.09-9.041 6.057-8.615 5.926-8.238 5.697-7.911 6.45-7.943 7.023-7.911 7.416-7.813 7.809-7.715 8.054-7.437 8.153-6.977L8.447-3.784H4.027C3.896-4.701 3.691-5.471 3.413-6.093 3.135-6.716 2.75-7.289 2.259-7.813 1.768-8.336 1.277-8.796 .786-9.189 .655-8.992 .36-8.763-.098-8.501 .327-8.271 .777-7.911 1.252-7.42 1.727-6.928 2.12-6.372 2.431-5.749 2.742-5.127 2.938-4.439 3.02-3.685 3.102-2.932 3.143-2.015 3.143-.934H1.768C1.047-.934 .458-.951 0-.983ZM4.224 2.015C4.518 2.178 4.813 2.359 5.108 2.555 5.468 1.998 5.828 1.392 6.188 .737 5.861 .606 5.533 .425 5.206 .197 4.911 .851 4.584 1.457 4.224 2.015" fill="#ffffff"/>
<path transform="matrix(1,0,0,-1,198.2402,267.2788)" d="M0 0C0 .197-.017 .442-.049 .737H.884C.851 .474 .835 .229 .835 0H3.782C4.371 0 4.96 .016 5.55 .049V-.737C4.96-.705 4.371-.688 3.782-.688H1.67C2.226-1.245 2.889-1.704 3.659-2.064 4.428-2.425 5.255-2.686 6.139-2.85 5.91-3.013 5.697-3.308 5.501-3.734 4.387-3.407 3.438-2.98 2.652-2.457 1.866-1.933 1.26-1.376 .835-.786V-2.457C.835-2.85 .851-3.357 .884-3.98H-.049C-.017-3.357 0-2.817 0-2.359V-.934C-.491-1.458-1.081-1.949-1.768-2.408-2.456-2.866-3.406-3.341-4.617-3.833-4.813-3.505-5.026-3.226-5.255-2.997-4.404-2.833-3.602-2.555-2.849-2.162-2.096-1.769-1.441-1.278-.884-.688H-3.094C-3.487-.688-3.995-.705-4.617-.737V.049C-3.995 .016-3.487 0-3.094 0ZM-.589 4.324H3.782C4.207 4.324 4.698 4.34 5.255 4.373V3.587C4.633 3.619 3.994 3.636 3.34 3.636 2.947 3.112 2.488 2.637 1.965 2.211 2.947 1.949 4.043 1.638 5.255 1.278 5.157 1.081 5.042 .786 4.911 .393 3.798 .851 2.586 1.278 1.277 1.671 .622 1.31-.14 1.04-1.007 .86-1.875 .679-2.816 .573-3.831 .54-3.864 .802-4.011 1.097-4.273 1.425-3.455 1.359-2.669 1.367-1.915 1.45-1.163 1.531-.491 1.687 .098 1.916-.721 2.08-1.801 2.276-3.143 2.506-2.652 2.997-2.308 3.374-2.112 3.636H-3.045C-3.307 3.636-3.782 3.619-4.469 3.587V4.373C-3.88 4.34-3.406 4.324-3.045 4.324H-1.572C-1.212 4.749-.917 5.176-.688 5.602L.147 5.012C.081 5.044-.164 4.815-.589 4.324M.982 6.29H5.108C5.075 6.093 5.059 5.863 5.059 5.602 5.059 5.372 5.075 5.11 5.108 4.815H4.175V5.651H-3.34V4.766H-4.273C-4.241 5.028-4.224 5.29-4.224 5.552-4.224 5.847-4.241 6.093-4.273 6.29H0C-.196 6.65-.393 6.944-.589 7.174-.164 7.338 .114 7.485 .246 7.616 .605 7.059 .851 6.617 .982 6.29M1.031 2.457C1.456 2.686 1.882 3.079 2.308 3.636H-1.13C-1.326 3.407-1.539 3.161-1.768 2.899-.754 2.735 .18 2.587 1.031 2.457" fill="#ffffff"/>
</g>
<path transform="matrix(1,0,0,-1,210.959,269.7848)" d="M0 0H-1.179L-1.866 2.604H-4.027L-4.715 0H-5.894L-3.438 8.501H-2.456ZM-2.112 3.538-2.898 6.535H-2.996L-3.782 3.538Z" fill="#ffffff"/>
<g clip-path="url(#clip_8)">
<path transform="matrix(1,0,0,-1,180.6087,314.9094)" d="M0 0C.523-.033 1.097-.049 1.719-.049H9.037C9.823-.049 10.461-.033 10.952 0V-.983C10.526-.951 9.937-.934 9.184-.934H4.125C4.125-1.294 4.109-1.949 4.076-2.899H9.577C9.511-3.325 9.446-3.948 9.381-4.766L9.086-7.469C9.02-8.058 8.742-8.443 8.251-8.624 7.76-8.803 7.039-8.943 6.09-9.041 6.057-8.615 5.926-8.238 5.697-7.911 6.45-7.943 7.023-7.911 7.416-7.813 7.809-7.715 8.054-7.437 8.153-6.977L8.447-3.784H4.027C3.896-4.701 3.691-5.471 3.413-6.093 3.135-6.716 2.75-7.289 2.259-7.813 1.768-8.336 1.277-8.796 .786-9.189 .655-8.992 .36-8.763-.098-8.501 .327-8.271 .777-7.911 1.252-7.42 1.727-6.928 2.12-6.372 2.431-5.749 2.742-5.127 2.938-4.439 3.02-3.685 3.102-2.932 3.143-2.015 3.143-.934H1.768C1.047-.934 .458-.951 0-.983ZM4.224 2.015C4.518 2.178 4.813 2.359 5.108 2.555 5.468 1.998 5.828 1.392 6.188 .737 5.861 .606 5.533 .425 5.206 .197 4.911 .851 4.584 1.457 4.224 2.015" fill="#ffffff"/>
<path transform="matrix(1,0,0,-1,198.2402,319.9705)" d="M0 0C0 .197-.017 .442-.049 .737H.884C.851 .474 .835 .229 .835 0H3.782C4.371 0 4.96 .016 5.55 .049V-.737C4.96-.705 4.371-.688 3.782-.688H1.67C2.226-1.245 2.889-1.704 3.659-2.064 4.428-2.425 5.255-2.686 6.139-2.85 5.91-3.013 5.697-3.308 5.501-3.734 4.387-3.407 3.438-2.98 2.652-2.457 1.866-1.933 1.26-1.376 .835-.786V-2.457C.835-2.85 .851-3.357 .884-3.98H-.049C-.017-3.357 0-2.817 0-2.359V-.934C-.491-1.458-1.081-1.949-1.768-2.408-2.456-2.866-3.406-3.341-4.617-3.833-4.813-3.505-5.026-3.226-5.255-2.997-4.404-2.833-3.602-2.555-2.849-2.162-2.096-1.769-1.441-1.278-.884-.688H-3.094C-3.487-.688-3.995-.705-4.617-.737V.049C-3.995 .016-3.487 0-3.094 0ZM-.589 4.324H3.782C4.207 4.324 4.698 4.34 5.255 4.373V3.587C4.633 3.619 3.994 3.636 3.34 3.636 2.947 3.112 2.488 2.636 1.965 2.211 2.947 1.949 4.043 1.638 5.255 1.278 5.157 1.081 5.042 .786 4.911 .393 3.798 .851 2.586 1.278 1.277 1.671 .622 1.31-.14 1.04-1.007 .86-1.875 .679-2.816 .573-3.831 .54-3.864 .802-4.011 1.097-4.273 1.425-3.455 1.359-2.669 1.367-1.915 1.45-1.163 1.531-.491 1.687 .098 1.916-.721 2.08-1.801 2.276-3.143 2.506-2.652 2.997-2.308 3.374-2.112 3.636H-3.045C-3.307 3.636-3.782 3.619-4.469 3.587V4.373C-3.88 4.34-3.406 4.324-3.045 4.324H-1.572C-1.212 4.749-.917 5.175-.688 5.602L.147 5.012C.081 5.044-.164 4.815-.589 4.324M.982 6.29H5.108C5.075 6.093 5.059 5.863 5.059 5.602 5.059 5.372 5.075 5.11 5.108 4.815H4.175V5.651H-3.34V4.766H-4.273C-4.241 5.028-4.224 5.29-4.224 5.552-4.224 5.847-4.241 6.093-4.273 6.29H0C-.196 6.65-.393 6.944-.589 7.174-.164 7.338 .114 7.485 .246 7.616 .605 7.059 .851 6.617 .982 6.29M1.031 2.457C1.456 2.686 1.882 3.079 2.308 3.636H-1.13C-1.326 3.407-1.539 3.161-1.768 2.899-.754 2.735 .18 2.587 1.031 2.457" fill="#ffffff"/>
<path transform="matrix(1,0,0,-1,210.7625,319.1352)" d="M0 0C-.033-1.245-.295-2.13-.786-2.653-1.277-3.178-1.866-3.44-2.554-3.44-3.34-3.44-4.011-3.12-4.567-2.481-5.125-1.843-5.402-.819-5.402 .59-5.402 2.129-5.132 3.275-4.592 4.029-4.052 4.782-3.357 5.159-2.505 5.159-1.785 5.159-1.187 4.889-.712 4.349-.238 3.808-.017 3.046-.049 2.064H-1.13C-1.13 2.784-1.245 3.324-1.473 3.685-1.703 4.045-2.047 4.226-2.505 4.226-3.029 4.226-3.446 3.956-3.757 3.415-4.069 2.875-4.224 1.965-4.224 .688-4.224-.491-4.069-1.319-3.757-1.794-3.446-2.269-3.045-2.506-2.554-2.506-2.194-2.506-1.866-2.334-1.572-1.99-1.277-1.646-1.13-.983-1.13 0Z" fill="#ffffff"/>
<path transform="matrix(1,0,0,-1,231.3753,221.98749)" d="M0 0H2.626C3.018 0 3.547 .015 4.211 .045V-.679C3.577-.65 3.048-.634 2.626-.634H-.091L-.181-1.404H2.988C2.958-1.767 2.943-2.19 2.943-2.673V-6.432H3.622C4.105-6.432 4.512-6.417 4.845-6.387V-7.248C4.24-7.218 3.532-7.202 2.717-7.202H-3.532C-4.346-7.202-5.011-7.218-5.524-7.248V-6.387C-5.071-6.417-4.618-6.432-4.165-6.432H-3.577V-2.809C-3.577-2.355-3.592-1.888-3.622-1.404H-1.041L-.996-.634H-3.622C-4.045-.634-4.513-.65-5.026-.679V.045C-4.362 .015-3.909 0-3.667 0H-.86C-.831 .302-.815 .604-.815 .906-.393 .876-.03 .861 .272 .861 .151 .649 .06 .362 0 0M-2.762-8.788C-3.366-9.029-3.924-9.241-4.437-9.422-4.648-9.21-4.86-9.014-5.071-8.833-4.317-8.591-3.698-8.358-3.215-8.131-2.732-7.905-2.294-7.671-1.902-7.429-1.66-7.641-1.403-7.837-1.132-8.018-1.615-8.29-2.158-8.546-2.762-8.788M2.037-2.084H-2.6720002V-2.673H2.037ZM2.037-3.352H-2.6720002V-3.896H2.037ZM2.037-4.62H-2.6720002V-5.164H2.037ZM2.037-5.843H-2.6720002V-6.432H2.037ZM2.762-7.927C3.275-8.139 3.818-8.38 4.392-8.652 4.059-8.984 3.833-9.241 3.713-9.422 3.199-9.089 2.656-8.803 2.083-8.561 1.509-8.32 1.056-8.154 .724-8.063 .875-7.852 1.041-7.641 1.222-7.429 1.735-7.55 2.248-7.716 2.762-7.927" fill="#ffffff"/>
<path transform="matrix(1,0,0,-1,243.9945,225.52082)" d="M0 0C-.061-.634-.151-1.314-.272-2.038H1.856C2.4-2.038 2.973-2.024 3.577-1.993V-2.854C2.943-2.824 2.354-2.808 1.811-2.808H-.498C-.77-3.413-1.177-3.941-1.72-4.394-2.264-4.847-2.898-5.202-3.622-5.458-4.346-5.715-4.996-5.918-5.569-6.07-5.69-5.708-5.947-5.42-6.339-5.209-5.463-5.119-4.528-4.87-3.532-4.462-2.535-4.054-1.841-3.504-1.449-2.808H-4.663C-5.207-2.808-5.811-2.824-6.474-2.854V-1.993C-5.78-2.024-5.177-2.038-4.663-2.038H-1.132C-1.041-1.525-.973-.974-.928-.385-.883 .204-.876 .921-.905 1.767-.543 1.646-.166 1.555 .226 1.495 .136 1.132 .06 .634 0 0M-.724 3.08H3.215C3.184 2.748 3.169 2.416 3.169 2.084 3.169 1.782 3.184 1.45 3.215 1.087H2.173V2.355H-5.026V.997H-6.022C-5.992 1.359-5.976 1.706-5.976 2.038-5.976 2.401-5.992 2.748-6.022 3.08H-1.856C-1.947 3.443-2.113 3.865-2.354 4.349-2.113 4.439-1.781 4.545-1.358 4.666-1.117 4.182-.905 3.654-.724 3.08M-2.988-1.132C-3.109-1.314-3.29-1.556-3.532-1.857-4.377-1.223-5.056-.8-5.569-.589-5.388-.408-5.237-.166-5.116 .136-4.603-.106-3.894-.529-2.988-1.132M-1.539 .272C-1.751 .03-1.932-.212-2.083-.453-3.049 .241-3.758 .664-4.211 .815-4.06 1.026-3.894 1.268-3.713 1.54ZM1.902-4.371C2.505-4.688 3.034-4.983 3.486-5.255 3.275-5.496 3.048-5.753 2.807-6.025 2.264-5.632 1.675-5.262 1.041-4.915 .407-4.568-.136-4.303-.589-4.122-.347-3.821-.151-3.564 0-3.352 .664-3.714 1.298-4.054 1.902-4.371" fill="#ffffff"/>
<path transform="matrix(1,0,0,-1,251.9054,222.05551)" d="M0 0C-.091-.257-.197-.582-.317-.974H2.581C2.52-1.517 2.46-1.978 2.4-2.355 2.339-2.733 2.256-3.156 2.151-3.624 2.044-4.092 1.902-4.591 1.72-5.119 1.539-5.647 1.343-6.108 1.132-6.5 1.343-6.742 1.652-6.999 2.06-7.27 2.467-7.542 2.973-7.762 3.577-7.927 4.18-8.093 4.822-8.199 5.501-8.244 6.18-8.29 6.866-8.297 7.561-8.267 7.259-8.629 7.078-8.976 7.018-9.309 6.082-9.309 5.259-9.241 4.55-9.105 3.841-8.969 3.282-8.833 2.875-8.697 2.467-8.561 2.06-8.35 1.652-8.063 1.245-7.776 .89-7.467 .589-7.134 .136-7.587-.302-7.98-.724-8.312-1.147-8.644-1.751-9.021-2.536-9.445-2.747-9.112-2.973-8.856-3.215-8.675-2.551-8.433-1.909-8.101-1.29-7.678-.672-7.255-.227-6.848 .045-6.455-.317-5.972-.604-5.489-.815-5.005-1.027-4.523-1.222-4.024-1.404-3.511-1.827-4.326-2.144-4.885-2.354-5.187-2.596-4.945-2.868-4.779-3.169-4.688-2.898-4.387-2.611-3.979-2.309-3.465-2.008-2.952-1.759-2.454-1.562-1.97-1.366-1.488-1.2-.974-1.064-.43-.928 .113-.831 .596-.77 1.019-.438 .838-.061 .702 .362 .612 .211 .46 .09 .256 0 0M-.317-4.122C-.076-4.681 .226-5.187 .589-5.64 .83-5.126 1.033-4.545 1.2-3.896 1.365-3.247 1.494-2.53 1.585-1.744H-.543C-.695-2.077-.8-2.333-.86-2.514-.74-3.028-.559-3.564-.317-4.122M4.482-.566V-5.096C4.482-5.73 4.497-6.531 4.527-7.497H3.577C3.606-6.531 3.622-5.73 3.622-5.096V-.566C3.622-.023 3.606 .476 3.577 .929H4.527C4.497 .476 4.482-.023 4.482-.566M6.474-2.876C6.866-3.3 7.214-3.692 7.516-4.054 7.304-4.175 7.033-4.402 6.701-4.734 6.459-4.371 6.172-3.971 5.841-3.533 5.508-3.096 5.131-2.65 4.709-2.197 4.95-2.046 5.176-1.865 5.388-1.653 5.719-2.046 6.082-2.454 6.474-2.876" fill="#ffffff"/>
<path transform="matrix(1,0,0,-1,261.989,229.12201)" d="M0 0C-.574-.227-1.027-.446-1.358-.657-1.51-.265-1.63 .068-1.72 .34-1.449 .369-1.215 .415-1.019 .476-.823 .536-.634 .596-.453 .657V4.462C-.755 4.462-1.117 4.431-1.539 4.371V5.187C-1.117 5.156-.755 5.141-.453 5.141V6.772C-.453 7.074-.468 7.436-.498 7.859H.362C.332 7.406 .317 7.044 .317 6.772V5.141C.558 5.141 .89 5.156 1.313 5.187V4.371C.89 4.431 .558 4.462 .317 4.462V.929C.77 1.079 1.177 1.23 1.539 1.382 1.569 1.17 1.614 .913 1.675 .612 1.132 .43 .573 .226 0 0M7.425-1.517C7.636-1.517 7.772-1.404 7.833-1.178 7.893-.951 7.953-.718 8.014-.476 8.286-.718 8.602-.868 8.965-.929 8.723-1.744 8.474-2.174 8.218-2.22 7.961-2.265 7.742-2.288 7.561-2.288H6.248C5.553-2.288 5.222-1.955 5.252-1.291V.521H4.346C4.226-.265 3.886-.883 3.328-1.336 2.769-1.789 1.992-2.167 .996-2.469 .906-2.167 .739-1.864 .498-1.563 1.585-1.411 2.339-1.148 2.762-.77 3.184-.393 3.441 .038 3.532 .521H2.128C2.158 1.155 2.173 1.728 2.173 2.242 2.173 2.786 2.158 3.329 2.128 3.873H7.787C7.757 3.42 7.742 2.906 7.742 2.333 7.742 1.759 7.757 1.155 7.787 .521H6.112V-.929C6.082-1.351 6.233-1.547 6.565-1.517ZM4.346 5.504C4.105 5.383 3.863 5.262 3.622 5.141H5.524C5.644 5.473 5.765 5.941 5.886 6.546H3.486C2.822 6.546 2.279 6.53 1.856 6.5V7.27C2.248 7.24 2.792 7.225 3.486 7.225H4.663C4.633 7.557 4.557 7.874 4.437 8.176 4.678 8.206 5.01 8.267 5.433 8.358 5.524 7.934 5.599 7.557 5.66 7.225H6.656C7.199 7.225 7.712 7.24 8.195 7.27V6.5C7.712 6.53 7.214 6.546 6.701 6.546H5.976C6.248 6.425 6.549 6.289 6.882 6.138 6.671 5.866 6.489 5.533 6.339 5.141H7.29C7.772 5.141 8.24 5.156 8.693 5.187V4.371C8.24 4.431 7.772 4.462 7.29 4.462H3.169C2.626 4.462 2.128 4.431 1.675 4.371V5.187C2.128 5.156 2.611 5.141 3.124 5.141H3.532C3.411 5.533 3.26 5.836 3.079 6.047 3.32 6.168 3.561 6.304 3.803 6.455 3.954 6.213 4.135 5.896 4.346 5.504M6.973 3.239H3.0340002V2.514H6.973ZM6.973 1.88H3.0340002V1.155H6.973ZM6.973 1.155" fill="#ffffff"/>
<path transform="matrix(1,0,0,-1,166.788,249.2526)" stroke-width="1.2" stroke-linecap="butt" stroke-dasharray="3.973,2.773" stroke-miterlimit="4" stroke-linejoin="miter" fill="none" stroke="#ffffff" d="M0 0C-1.376-.75-2.709-1.977-3.42-3.961"/>
<path transform="matrix(1,0,0,-1,162.8402,260.7682)" stroke-width="1.2" stroke-linecap="butt" stroke-dasharray="3.624,2.424" stroke-miterlimit="4" stroke-linejoin="miter" fill="none" stroke="#ffffff" d="M0 0V-65.305"/>
<path transform="matrix(1,0,0,-1,164.0628,333.651)" stroke-width="1.2" stroke-linecap="butt" stroke-dasharray="3.973,2.773" stroke-miterlimit="4" stroke-linejoin="miter" fill="none" stroke="#ffffff" d="M0 0C.757-1.375 1.983-2.711 3.967-3.422"/>
<path transform="matrix(1,0,0,-1,175.357,337.6041)" stroke-width="1.2" stroke-linecap="butt" stroke-dasharray="3.475,2.275" stroke-miterlimit="4" stroke-linejoin="miter" fill="none" stroke="#ffffff" d="M0 0H39.115"/>
<path transform="matrix(1,0,0,-1,221.9038,336.3776)" stroke-width="1.2" stroke-linecap="butt" stroke-dasharray="3.973,2.773" stroke-miterlimit="4" stroke-linejoin="miter" fill="none" stroke="#ffffff" d="M0 0C1.376 .758 2.709 1.984 3.42 3.969"/>
<path transform="matrix(1,0,0,-1,225.8516,324.8619)" stroke-width="1.2" stroke-linecap="butt" stroke-dasharray="3.624,2.424" stroke-miterlimit="4" stroke-linejoin="miter" fill="none" stroke="#ffffff" d="M0 0V65.305"/>
<path transform="matrix(1,0,0,-1,224.629,251.97132)" stroke-width="1.2" stroke-linecap="butt" stroke-dasharray="3.973,2.773" stroke-miterlimit="4" stroke-linejoin="miter" fill="none" stroke="#ffffff" d="M0 0C-.757 1.375-1.983 2.703-3.967 3.414"/>
<path transform="matrix(1,0,0,-1,213.3349,248.026)" stroke-width="1.2" stroke-linecap="butt" stroke-dasharray="3.475,2.275" stroke-miterlimit="4" stroke-linejoin="miter" fill="none" stroke="#ffffff" d="M0 0H-39.115"/>
<path transform="matrix(1,0,0,-1,163.0116,254.55731)" stroke-width="1.2" stroke-linecap="butt" stroke-miterlimit="4" stroke-linejoin="miter" fill="none" stroke="#ffffff" d="M0 0C-.111-.602-.171-1.258-.171-1.977V-3.781M-.171-72.727V-74.539C-.171-74.539-.171-75.367 .087-76.508M6.356-82.875C6.958-82.984 7.615-83.047 8.333-83.047H10.07M52.598-83.047H54.336C54.336-83.047 55.164-83.047 56.302-82.789M62.669-76.516C62.779-75.914 62.84-75.258 62.84-74.539V-72.727M62.84-3.781V-1.977C62.84-1.977 62.84-1.148 62.582-.008M56.312 6.359C55.711 6.469 55.054 6.531 54.336 6.531H52.598M10.07 6.531H8.333C8.333 6.531 7.505 6.531 6.366 6.273"/>
</g>
</g>
</g>
</svg>
