<svg xmlns="http://www.w3.org/2000/svg" xmlns:xlink="http://www.w3.org/1999/xlink" xmlns:inkscape="http://www.inkscape.org/namespaces/inkscape" version="1.1" width="411.024" height="595.276" viewBox="0 0 411.024 595.276">
<defs>
<clipPath id="clip_1">
<path transform="matrix(1,0,0,-1,0,595.276)" d="M0 0H411.024V595.276H0Z"/>
</clipPath>
<clipPath id="clip_2">
<path transform="matrix(1,0,0,-1,0,595.276)" d="M0 0H411.024V595.276H0Z"/>
</clipPath>
<path id="font_3_3" d="M.32998658 0V.71191409H.2579956L.125 .5969238V.51493838L.2579956 .63191226V0H.32998658Z"/>
<path id="font_3_9" d="M.47099305 .64790347V.71191409H.07598877V.5359192H.14698792V.64790347H.394989L.147995 0H.22399903L.47099305 .64790347Z"/>
<path id="font_3_5" d="M.45999146 .19407654C.45999146 .28303529 .4229889 .34100343 .35099793 .36799623 .4149933 .39700318 .44699098 .450943 .44699098 .52586367 .44699098 .64175418 .36698915 .71875 .25099183 .71875 .14299011 .71875 .05899048 .6507416 .050994874 .53585818H.12298584C.12998963 .60879519 .17599488 .6547394 .25099183 .6547394 .31999208 .6547394 .375 .609787 .375 .5248718 .375 .4449463 .33499146 .3959961 .24798584 .3959961H.23298645V.3330078H.24798584C.34498597 .3330078 .3880005 .28103639 .3880005 .19508362 .3880005 .10812378 .32798768 .057159425 .25099183 .057159425 .18299866 .057159425 .11999512 .09213257 .11399841 .18109131H.041992189C.04798889 .05215454 .13899231-.0068359377 .25099183-.0068359377 .36698915-.0068359377 .45999146 .06315613 .45999146 .19407654Z"/>
<clipPath id="clip_4">
<path transform="matrix(1,0,0,-1,0,595.276)" d="M0 0H411.024V595.276H0Z"/>
</clipPath>
<clipPath id="clip_5">
<path transform="matrix(1,0,0,-1,0,595.276)" d="M0 0H411.024V595.276H0Z"/>
</clipPath>
<clipPath id="clip_6">
<path transform="matrix(1,0,0,-1,0,595.276)" d="M0 0H411.024V595.276H0Z"/>
</clipPath>
<clipPath id="clip_7">
<path transform="matrix(1,0,0,-1,0,595.276)" d="M0 0H411.024V595.276H0Z"/>
</clipPath>
<clipPath id="clip_8">
<path transform="matrix(1,0,0,-1,0,595.276)" d="M0 0H411.024V595.276H0Z"/>
</clipPath>
<clipPath id="clip_9">
<path transform="matrix(1,0,0,-1,0,595.276)" d="M0 0H411.024V595.276H0Z"/>
</clipPath>
<clipPath id="clip_10">
<path transform="matrix(1,0,0,-1,0,595.276)" d="M0 0H411.024V595.276H0Z"/>
</clipPath>
<clipPath id="clip_11">
<path transform="matrix(1,0,0,-1,0,595.276)" d="M0 0H411.024V595.276H0Z"/>
</clipPath>
<clipPath id="clip_12">
<path transform="matrix(1,0,0,-1,0,595.276)" d="M0 0H411.024V595.276H0Z"/>
</clipPath>
</defs>
<g clip-path="url(#clip_1)">
<g clip-path="url(#clip_2)">
<use data-text="1" xlink:href="#font_3_3" transform="matrix(9,0,0,-9,363.685,567.547)" fill="#f43040"/>
<use data-text="7" xlink:href="#font_3_9" transform="matrix(9,0,0,-9,367.285,567.547)" fill="#f43040"/>
<use data-text="3" xlink:href="#font_3_5" transform="matrix(9,0,0,-9,370.885,567.547)" fill="#f43040"/>
<path transform="matrix(1,0,0,-1,135.5405,195.17441)" stroke-width="1" stroke-linecap="butt" stroke-miterlimit="4" stroke-linejoin="miter" fill="none" stroke="#2c292a" d="M0 0V-130.203"/>
<path transform="matrix(1,0,0,-1,166.3943,195.151)" stroke-width="1" stroke-linecap="butt" stroke-miterlimit="4" stroke-linejoin="miter" fill="none" stroke="#2c292a" d="M0 0V-130.203"/>
<g clip-path="url(#clip_4)">
<path transform="matrix(1,0,0,-1,185.5204,241.4429)" stroke-width="1.5" stroke-linecap="butt" stroke-dasharray="4.233,2.733" stroke-miterlimit="10" stroke-linejoin="miter" fill="none" stroke="#2c292a" d="M0 0C11.425-3.333 17.537-2.147 25.455 2.459"/>
<path transform="matrix(1,0,0,-1,217.6541,234.04529)" stroke-width="1.5" stroke-linecap="butt" stroke-dasharray="4.239,2.739" stroke-miterlimit="10" stroke-linejoin="miter" fill="none" stroke="#2c292a" d="M0 0C7.054 7.494 10.242 20.611 23.895 32.447"/>
<path transform="matrix(1,0,0,-1,248.931,197.0914)" stroke-width="1.5" stroke-linecap="butt" stroke-dasharray="4.48,2.98" stroke-miterlimit="10" stroke-linejoin="miter" fill="none" stroke="#2c292a" d="M0 0C17.248 7.201 37.128 2.621 49.723-1.117"/>
<path transform="matrix(1,0,0,-1,180.9045,239.9552)" stroke-width="1.5" stroke-linecap="butt" stroke-miterlimit="10" stroke-linejoin="miter" fill="none" stroke="#2c292a" d="M0 0C.686-.239 1.354-.465 2.005-.678M31.245 1.67C31.831 2.027 32.429 2.401 33.04 2.793 33.639 3.176 34.208 3.592 34.753 4.038M61.689 39.243C62.225 39.687 62.775 40.129 63.342 40.568 63.996 40.94 64.655 41.291 65.318 41.623M119.177 41.318C119.92 41.092 120.635 40.871 121.317 40.659"/>
<path transform="matrix(1,0,0,-1,90.6309,295.1424)" d="M0 0C-.017 1.653 1.27 2.948 2.824 3.016H14.294C15.949 2.948 17.237 1.653 17.294 0V-24.306C17.237-25.976 15.949-27.271 14.294-27.322H2.824C1.27-27.271-.017-25.976 0-24.306Z" fill="#ffffff"/>
</g>
<path transform="matrix(1,0,0,-1,347.2719,328.4388)" d="M0 0V3.548 7.096L7.059 3.548ZM-276.406 4.731H1.7640076V2.365H-276.406Z" fill="#2c292a"/>
<path transform="matrix(1,0,0,-1,86.1855,335.3477)" d="M0 0V4.871L-1.228 3.798V4.991L0 6.064H1.101V0Z" fill="#2c292a"/>
<g clip-path="url(#clip_5)">
<path transform="matrix(1,0,0,-1,90.9884,335.3989)" d="M0 0C-1.067 0-1.931 .639-1.931 1.814-1.931 2.555-1.508 2.955-1.177 3.177-1.482 3.39-1.855 3.79-1.855 4.437-1.855 5.51-1.008 6.166 0 6.166 1.008 6.166 1.846 5.51 1.846 4.437 1.846 3.79 1.474 3.39 1.169 3.177 1.499 2.955 1.931 2.555 1.931 1.814 1.931 .639 1.067 0 0 0M0 2.674C-.466 2.674-.83 2.299-.83 1.831-.83 1.363-.466 .996 0 .996 .466 .996 .83 1.363 .83 1.831 .83 2.299 .466 2.674 0 2.674M0 5.17C-.432 5.17-.754 4.837-.754 4.403-.754 3.96-.432 3.637 0 3.637 .432 3.637 .745 3.96 .745 4.403 .745 4.837 .432 5.17 0 5.17" fill="#2c292a"/>
<path transform="matrix(1,0,0,-1,104.9569,335.2507)" d="M0 0V.996L2.253 3.628C2.473 3.892 2.566 4.079 2.566 4.36 2.566 4.812 2.304 5.118 1.838 5.118 1.474 5.118 1.101 4.931 1.101 4.344H0C0 5.451 .805 6.115 1.838 6.115 2.905 6.115 3.668 5.442 3.668 4.352 3.668 3.764 3.439 3.449 3.024 2.964L1.338 .996H3.668V0Z" fill="#2c292a"/>
<path transform="matrix(1,0,0,-1,109.5564,335.2507)" d="M0 0V.996L2.253 3.628C2.473 3.892 2.566 4.079 2.566 4.36 2.566 4.812 2.304 5.118 1.838 5.118 1.474 5.118 1.101 4.931 1.101 4.344H0C0 5.451 .805 6.115 1.838 6.115 2.905 6.115 3.668 5.442 3.668 4.352 3.668 3.764 3.439 3.449 3.024 2.964L1.338 .996H3.668V0Z" fill="#2c292a"/>
<path transform="matrix(1,0,0,-1,127.8574,335.1579)" d="M0 0V.996L2.253 3.628C2.473 3.892 2.566 4.079 2.566 4.36 2.566 4.812 2.304 5.118 1.838 5.118 1.474 5.118 1.101 4.931 1.101 4.344H0C0 5.451 .805 6.115 1.838 6.115 2.905 6.115 3.668 5.442 3.668 4.352 3.668 3.764 3.439 3.449 3.024 2.964L1.338 .996H3.668V0Z" fill="#2c292a"/>
<path transform="matrix(1,0,0,-1,134.261,335.209)" d="M0 0C-1.067 0-1.931 .639-1.931 1.814-1.931 2.555-1.508 2.955-1.177 3.177-1.482 3.39-1.855 3.79-1.855 4.437-1.855 5.51-1.008 6.166 0 6.166 1.008 6.166 1.847 5.51 1.847 4.437 1.847 3.79 1.474 3.39 1.169 3.177 1.499 2.955 1.931 2.555 1.931 1.814 1.931 .639 1.067 0 0 0M0 2.674C-.466 2.674-.83 2.299-.83 1.831-.83 1.363-.466 .996 0 .996 .466 .996 .83 1.363 .83 1.831 .83 2.299 .466 2.674 0 2.674M0 5.17C-.432 5.17-.754 4.837-.754 4.403-.754 3.96-.432 3.637 0 3.637 .432 3.637 .745 3.96 .745 4.403 .745 4.837 .432 5.17 0 5.17" fill="#2c292a"/>
<path transform="matrix(1,0,0,-1,147.313,335.1119)" d="M0 0C-.983 0-1.906 .52-1.923 1.788H-.822C-.805 1.243-.432 .996 0 .996 .474 .996 .813 1.295 .813 1.84 .813 2.342 .508 2.674-.034 2.674H-.195V3.637H-.034C.5 3.637 .728 3.969 .728 4.395 .728 4.906 .39 5.17-.008 5.17-.423 5.17-.728 4.897-.754 4.437H-1.855C-1.83 5.519-1.025 6.166-.008 6.166 1.059 6.166 1.83 5.451 1.83 4.429 1.83 3.773 1.533 3.398 1.135 3.185 1.567 2.955 1.914 2.538 1.914 1.805 1.914 .596 1.033 0 0 0" fill="#2c292a"/>
<path transform="matrix(1,0,0,-1,151.938,335.1119)" d="M0 0C-.983 0-1.838 .647-1.838 1.805V4.36C-1.838 5.519-.983 6.166 0 6.166 .983 6.166 1.83 5.519 1.83 4.36V1.805C1.83 .647 .983 0 0 0M.728 4.343C.728 4.854 .432 5.17 0 5.17-.432 5.17-.737 4.854-.737 4.343V1.814C-.737 1.303-.432 .996 0 .996 .432 .996 .728 1.303 .728 1.814Z" fill="#2c292a"/>
<path transform="matrix(1,0,0,-1,164.3204,335.0149)" d="M0 0C-.983 0-1.906 .52-1.923 1.789H-.822C-.805 1.243-.432 .996 0 .996 .474 .996 .813 1.295 .813 1.84 .813 2.342 .508 2.674-.034 2.674H-.195V3.637H-.034C.5 3.637 .728 3.969 .728 4.395 .728 4.906 .39 5.17-.008 5.17-.423 5.17-.728 4.897-.754 4.437H-1.855C-1.83 5.519-1.025 6.166-.008 6.166 1.059 6.166 1.83 5.451 1.83 4.429 1.83 3.773 1.533 3.398 1.135 3.185 1.567 2.955 1.914 2.538 1.914 1.805 1.914 .596 1.033 0 0 0" fill="#2c292a"/>
<path transform="matrix(1,0,0,-1,170.2922,334.521)" d="M0 0C-.271-.273-.703-.494-1.33-.494-1.957-.494-2.414-.273-2.677-.009-3.049 .366-3.134 .809-3.168 1.252H-2.067C-2.007 .775-1.787 .502-1.33 .502-1.118 .502-.94 .562-.805 .698-.61 .894-.568 1.218-.568 1.601-.568 2.299-.771 2.691-1.304 2.691-1.753 2.691-1.957 2.436-2.033 2.197H-3.041V5.621H.398V4.624H-2.041V3.321C-1.88 3.475-1.542 3.628-1.135 3.628-.635 3.628-.254 3.466-.009 3.219 .466 2.742 .534 2.172 .534 1.601 .534 .92 .44 .443 0 0" fill="#2c292a"/>
</g>
<path transform="matrix(1,0,0,-1,187.2357,334.0066)" d="M0 0V-.86H-1.059V0H-3.524V1.047L-1.457 5.204H-.254L-2.321 1.047H-1.059V2.18H0V1.047H.551V0Z" fill="#2c292a"/>
<g clip-path="url(#clip_6)">
<path transform="matrix(1,0,0,-1,190.353,334.9179)" d="M0 0C-.983 0-1.838 .647-1.838 1.805V4.36C-1.838 5.519-.983 6.166 0 6.166 .983 6.166 1.83 5.519 1.83 4.36V1.805C1.83 .647 .983 0 0 0M.728 4.344C.728 4.854 .432 5.17 0 5.17-.432 5.17-.737 4.854-.737 4.344V1.814C-.737 1.303-.432 .996 0 .996 .432 .996 .728 1.303 .728 1.814Z" fill="#2c292a"/>
</g>
<path transform="matrix(1,0,0,-1,208.6433,333.9096)" d="M0 0V-.86H-1.059V0H-3.524V1.048L-1.457 5.204H-.254L-2.321 1.048H-1.059V2.18H0V1.048H.551V0Z" fill="#2c292a"/>
<g clip-path="url(#clip_7)">
<path transform="matrix(1,0,0,-1,213.1073,334.3269)" d="M0 0C-.271-.273-.703-.494-1.33-.494-1.957-.494-2.414-.273-2.676-.008-3.049 .366-3.134 .809-3.168 1.252H-2.067C-2.007 .775-1.787 .502-1.33 .502-1.118 .502-.94 .562-.805 .698-.61 .894-.567 1.218-.567 1.601-.567 2.299-.771 2.691-1.304 2.691-1.753 2.691-1.957 2.436-2.033 2.197H-3.041V5.621H.398V4.625H-2.041V3.321C-1.88 3.475-1.542 3.628-1.135 3.628-.635 3.628-.254 3.466-.008 3.219 .466 2.742 .534 2.172 .534 1.601 .534 .92 .441 .443 0 0" fill="#2c292a"/>
<path transform="matrix(1,0,0,-1,227.405,334.715)" d="M0 0C-.271-.273-.703-.494-1.33-.494-1.957-.494-2.414-.273-2.677-.008-3.049 .366-3.134 .809-3.168 1.252H-2.067C-2.007 .775-1.787 .502-1.33 .502-1.118 .502-.94 .562-.805 .698-.61 .894-.567 1.218-.567 1.601-.567 2.299-.771 2.691-1.304 2.691-1.753 2.691-1.957 2.436-2.033 2.197H-3.041V5.621H.398V4.625H-2.041V3.321C-1.88 3.475-1.542 3.628-1.135 3.628-.635 3.628-.254 3.466-.008 3.219 .466 2.742 .534 2.172 .534 1.601 .534 .92 .44 .443 0 0" fill="#2c292a"/>
<path transform="matrix(1,0,0,-1,230.6577,335.209)" d="M0 0C-.982 0-1.838 .647-1.838 1.805V4.36C-1.838 5.519-.982 6.166 0 6.166 .982 6.166 1.83 5.519 1.83 4.36V1.805C1.83 .647 .982 0 0 0M.728 4.344C.728 4.854 .432 5.17 0 5.17-.432 5.17-.737 4.854-.737 4.344V1.814C-.737 1.303-.432 .996 0 .996 .432 .996 .728 1.303 .728 1.814Z" fill="#2c292a"/>
<path transform="matrix(1,0,0,-1,247.5849,334.715)" d="M0 0C-.271-.273-.703-.494-1.33-.494-1.957-.494-2.414-.273-2.677-.008-3.049 .366-3.134 .809-3.168 1.252H-2.067C-2.007 .775-1.787 .502-1.33 .502-1.118 .502-.94 .562-.805 .698-.61 .894-.567 1.218-.567 1.601-.567 2.299-.771 2.691-1.304 2.691-1.753 2.691-1.957 2.436-2.033 2.197H-3.041V5.621H.398V4.625H-2.041V3.321C-1.88 3.475-1.542 3.628-1.135 3.628-.635 3.628-.254 3.466-.008 3.219 .466 2.742 .534 2.172 .534 1.601 .534 .92 .44 .443 0 0" fill="#2c292a"/>
<path transform="matrix(1,0,0,-1,252.1844,334.715)" d="M0 0C-.271-.273-.703-.494-1.33-.494-1.957-.494-2.414-.273-2.677-.008-3.049 .366-3.134 .809-3.168 1.252H-2.067C-2.007 .775-1.787 .502-1.33 .502-1.118 .502-.94 .562-.805 .698-.61 .894-.567 1.218-.567 1.601-.567 2.299-.771 2.691-1.304 2.691-1.753 2.691-1.957 2.436-2.033 2.197H-3.041V5.621H.398V4.625H-2.041V3.321C-1.88 3.475-1.542 3.628-1.135 3.628-.635 3.628-.254 3.466-.008 3.219 .466 2.742 .534 2.172 .534 1.601 .534 .92 .44 .443 0 0" fill="#2c292a"/>
<path transform="matrix(1,0,0,-1,267.6799,335.209)" d="M0 0C-1.067 0-1.88 .673-1.88 1.874-1.88 2.427-1.643 2.938-1.372 3.492L-.102 6.115H1.101L-.152 3.611C-.008 3.671 .152 3.688 .296 3.688 1.11 3.688 1.88 3.015 1.88 1.891 1.88 .698 1.067 0 0 0M0 2.768C-.449 2.768-.779 2.444-.779 1.882-.779 1.32-.449 .996 0 .996 .449 .996 .779 1.32 .779 1.882 .779 2.419 .466 2.768 0 2.768" fill="#2c292a"/>
<path transform="matrix(1,0,0,-1,272.2962,335.209)" d="M0 0C-.982 0-1.838 .647-1.838 1.805V4.36C-1.838 5.519-.982 6.166 0 6.166 .982 6.166 1.83 5.519 1.83 4.36V1.805C1.83 .647 .982 0 0 0M.728 4.344C.728 4.854 .432 5.17 0 5.17-.432 5.17-.737 4.854-.737 4.344V1.814C-.737 1.303-.432 .996 0 .996 .432 .996 .728 1.303 .728 1.814Z" fill="#2c292a"/>
<path transform="matrix(1,0,0,-1,289.3951,335.209)" d="M0 0C-1.067 0-1.88 .673-1.88 1.874-1.88 2.427-1.643 2.938-1.372 3.492L-.102 6.115H1.101L-.152 3.611C-.008 3.671 .152 3.688 .296 3.688 1.109 3.688 1.88 3.015 1.88 1.891 1.88 .698 1.067 0 0 0M0 2.768C-.449 2.768-.779 2.444-.779 1.882-.779 1.32-.449 .996 0 .996 .449 .996 .779 1.32 .779 1.882 .779 2.419 .466 2.768 0 2.768" fill="#2c292a"/>
<path transform="matrix(1,0,0,-1,295.3582,334.715)" d="M0 0C-.271-.273-.703-.494-1.33-.494-1.957-.494-2.414-.273-2.677-.008-3.049 .366-3.134 .809-3.168 1.252H-2.067C-2.007 .775-1.787 .502-1.33 .502-1.118 .502-.94 .562-.805 .698-.61 .894-.567 1.218-.567 1.601-.567 2.299-.771 2.691-1.304 2.691-1.753 2.691-1.957 2.436-2.033 2.197H-3.041V5.621H.398V4.625H-2.041V3.321C-1.88 3.475-1.542 3.628-1.135 3.628-.635 3.628-.254 3.466-.008 3.219 .466 2.742 .534 2.172 .534 1.601 .534 .92 .44 .443 0 0" fill="#2c292a"/>
</g>
<path transform="matrix(1,0,0,-1,309.0774,335.1579)" d="M0 0H-1.194L.762 5.067H-.83V4.113H-1.88V6.064H1.957V5.067Z" fill="#2c292a"/>
<g clip-path="url(#clip_8)">
<path transform="matrix(1,0,0,-1,313.6769,335.209)" d="M0 0C-.982 0-1.838 .647-1.838 1.805V4.36C-1.838 5.519-.982 6.166 0 6.166 .982 6.166 1.83 5.519 1.83 4.36V1.805C1.83 .647 .982 0 0 0M.728 4.344C.728 4.854 .432 5.17 0 5.17-.432 5.17-.737 4.854-.737 4.344V1.814C-.737 1.303-.432 .996 0 .996 .432 .996 .728 1.303 .728 1.814Z" fill="#2c292a"/>
</g>
<path transform="matrix(1,0,0,-1,329.0063,334.9638)" d="M0 0H-1.194L.762 5.067H-.83V4.113H-1.88V6.064H1.957V5.067Z" fill="#2c292a"/>
<g clip-path="url(#clip_9)">
<path transform="matrix(1,0,0,-1,334.9526,334.521)" d="M0 0C-.271-.273-.703-.494-1.33-.494-1.957-.494-2.414-.273-2.677-.009-3.049 .366-3.134 .809-3.168 1.252H-2.067C-2.007 .775-1.787 .502-1.33 .502-1.118 .502-.94 .562-.805 .698-.61 .894-.567 1.218-.567 1.601-.567 2.299-.771 2.691-1.304 2.691-1.753 2.691-1.957 2.436-2.033 2.197H-3.041V5.621H.398V4.624H-2.041V3.321C-1.88 3.475-1.542 3.628-1.135 3.628-.635 3.628-.254 3.466-.008 3.219 .466 2.742 .534 2.172 .534 1.601 .534 .92 .44 .443 0 0" fill="#2c292a"/>
<path transform="matrix(1,0,0,-1,115.3186,344.1044)" d="M0 0C-.098-.257-.195-.508-.292-.753H1.9V.533C1.9 .85 1.887 1.157 1.863 1.451H2.704C2.679 1.181 2.667 .875 2.667 .533V-.753H4.275C4.664-.753 5.102-.741 5.59-.716V-1.451C5.127-1.427 4.689-1.414 4.275-1.414H2.667V-3.067H3.8C4.14-3.067 4.554-3.055 5.042-3.03V-3.765C4.579-3.741 4.165-3.728 3.8-3.728H2.667V-5.932H4.859C5.249-5.932 5.699-5.92 6.211-5.895V-6.593C5.723-6.568 5.273-6.556 4.859-6.556H-.402C-.816-6.556-1.242-6.568-1.681-6.593V-5.895C-1.218-5.92-.792-5.932-.402-5.932H1.9V-3.728H.548C.207-3.728-.146-3.741-.511-3.765V-3.03C-.146-3.055 .207-3.067 .548-3.067H1.9V-1.414H-.548C-.767-1.928-.986-2.369-1.206-2.736-1.474-2.614-1.766-2.529-2.082-2.479-1.815-2.185-1.529-1.714-1.224-1.065-.92-.417-.707 .275-.585 1.01L.365 .643C.219 .471 .097 .257 0 0" fill="#2c292a"/>
<path transform="matrix(1,0,0,-1,124.8373,345.7389)" d="M0 0C.292 .367 .56 .783 .804 1.249H-.073C-.512 1.249-.987 1.236-1.498 1.212V1.91C-.987 1.885-.512 1.873-.073 1.873H1.023C1.218 2.314 1.364 2.755 1.461 3.196 1.802 3.049 2.119 2.951 2.411 2.902 2.192 2.681 1.985 2.338 1.79 1.873H4.64C5.029 1.873 5.48 1.885 5.992 1.91V1.212C5.48 1.236 5.017 1.249 4.603 1.249H1.534C1.193 .588 .767-.098 .256-.808V-4.187C.256-4.603 .268-5.007 .292-5.399H-.438C-.415-4.934-.402-4.53-.402-4.187V-1.543C-.792-1.959-1.133-2.302-1.425-2.571-1.62-2.351-1.827-2.192-2.046-2.094-1.754-1.849-1.468-1.604-1.187-1.359-.908-1.115-.646-.833-.402-.514L-.475 0ZM5.736 .073V-.624L4.823-1.175C4.579-1.322 4.323-1.494 4.055-1.69V-2.13H5.078C5.492-2.13 5.919-2.118 6.357-2.094V-2.791C5.919-2.767 5.492-2.755 5.078-2.755H4.055V-4.444C4.079-4.934 3.939-5.234 3.635-5.344 3.33-5.454 2.983-5.522 2.594-5.546 2.545-5.276 2.46-5.007 2.338-4.738 2.704-4.762 2.965-4.757 3.124-4.72 3.282-4.683 3.361-4.579 3.361-4.408V-2.755H2.082C1.668-2.755 1.242-2.767 .804-2.791V-2.094C1.242-2.118 1.668-2.13 2.082-2.13H3.361C3.361-1.886 3.337-1.653 3.288-1.432 3.507-1.335 3.727-1.212 3.946-1.065 4.165-.918 4.372-.747 4.567-.551H2.448C2.131-.551 1.79-.564 1.425-.588V.11C1.814 .086 2.143 .073 2.411 .073Z" fill="#2c292a"/>
<path transform="matrix(1,0,0,-1,119.3463,361.2295)" d="M0 0C-.256-.355-.506-.667-.749-.937-.993-.765-1.2-.63-1.37-.533-1.151-.362-.92-.123-.676 .184-.433 .49-.237 .79-.091 1.084L.639 .643C.469 .569 .256 .355 0 0M-.347 7.107H.42C.396 6.617 .384 6.213 .384 5.895H2.028C2.028 6.36 2.015 6.764 1.991 7.107H2.795C2.77 6.691 2.758 6.287 2.758 5.895 2.929 5.895 3.148 5.907 3.416 5.932V5.307C3.172 5.332 2.953 5.344 2.758 5.344V1.855C2.953 1.855 3.172 1.867 3.416 1.892V1.267C2.953 1.291 2.503 1.304 2.064 1.304H.091C-.445 1.304-.908 1.291-1.297 1.267V1.892C-.932 1.867-.603 1.855-.311 1.855V5.344C-.53 5.344-.785 5.332-1.078 5.307V5.932C-.81 5.907-.554 5.895-.311 5.895-.311 6.262-.323 6.666-.347 7.107M2.028 5.344H.38400007V4.536H2.028ZM2.028 3.985H.38400007V3.2139998H2.028ZM2.028 2.663H.38400007V1.855H2.028ZM1.553 .643C1.699 .74 1.857 .887 2.028 1.084 2.32 .79 2.661 .422 3.051-.018 2.855-.165 2.661-.337 2.466-.533 2.076 .055 1.772 .446 1.553 .643M6.229-.165V1.892H4.622C4.573 1.304 4.439 .74 4.22 .202 4.001-.337 3.684-.839 3.27-1.304 3.099-1.084 2.868-.924 2.576-.826 2.99-.41 3.3 .03 3.507 .496 3.714 .961 3.836 1.426 3.873 1.892 3.909 2.356 3.928 3.116 3.928 4.169 3.928 5.246 3.915 6.103 3.891 6.74H6.996C6.972 6.275 6.96 5.712 6.96 5.05V-.349C6.96-.692 6.85-.924 6.631-1.047 6.412-1.169 6.12-1.255 5.754-1.304 5.754-1.034 5.657-.753 5.462-.459 6.022-.533 6.278-.435 6.229-.165M6.229 6.189H4.658V4.5360004H6.229ZM6.229 3.985H4.658V2.442H6.229ZM6.229 2.443" fill="#2c292a"/>
</g>
<path transform="matrix(1,0,0,-1,0,595.276)" d="M110.878 223.733H108.524V257.203H110.878Z" fill="#2c292a"/>
<path transform="matrix(1,0,0,-1,0,595.276)" d="M93.133 248.828H90.77901V257.203H93.133Z" fill="#2c292a"/>
<path transform="matrix(1,0,0,-1,0,595.276)" d="M136.726 236.353H134.372V257.203H136.726Z" fill="#2c292a"/>
<path transform="matrix(1,0,0,-1,0,595.276)" d="M168.202 236.353H165.84799V257.203H168.202Z" fill="#2c292a"/>
<path transform="matrix(1,0,0,-1,0,595.276)" d="M335.27 236.353H332.916V257.203H335.27Z" fill="#2c292a"/>
<g clip-path="url(#clip_10)">
<path transform="matrix(1,0,0,-1,107.4299,375.65919)" d="M0 0C.024 .857 .03 1.432 .018 1.726 .006 2.02-.013 2.301-.037 2.571 .256 2.522 .585 2.485 .95 2.461 .877 2.216 .822 1.861 .785 1.396 .749 .93 .731 .465 .731 0H2.594C3.252 0 3.86 .024 4.421 .073V-.735C3.933-.711 3.434-.698 2.923-.698H.767C.864-1.115 1.035-1.537 1.279-1.965 1.522-2.394 1.772-2.773 2.028-3.104 2.283-3.434 2.636-3.783 3.087-4.15 3.538-4.518 4.031-4.824 4.567-5.069 4.372-5.216 4.177-5.46 3.982-5.803 3.544-5.558 3.111-5.252 2.685-4.885 2.259-4.518 1.832-4.035 1.407-3.434 .98-2.834 .658-2.277 .438-1.763 .243-2.302 .037-2.749-.183-3.104-.402-3.459-.639-3.783-.895-4.077-1.151-4.371-1.48-4.665-1.882-4.959-2.283-5.252-2.74-5.546-3.252-5.84-3.447-5.546-3.666-5.289-3.909-5.069-3.398-4.898-2.893-4.653-2.393-4.334-1.894-4.016-1.486-3.655-1.169-3.251-.853-2.847-.597-2.424-.402-1.983-.207-1.543-.086-1.115-.037-.698H-2.046C-2.631-.698-3.093-.711-3.434-.735V.073C-3.093 .049-2.631 .024-2.046 0Z" fill="#2c292a"/>
<path transform="matrix(1,0,0,-1,121.3693,380.9483)" d="M0 0C-.438 .025-.828 .037-1.169 .037H-6.869C-7.259 .037-7.709 .025-8.22 0V.808C-7.758 .783-7.307 .771-6.869 .771H-1.169C-.804 .771-.414 .795 0 .845ZM-7.453 7.052C-6.966 7.028-6.516 7.015-6.101 7.015H-2.046C-1.584 7.015-1.157 7.028-.767 7.052V6.281C-1.133 6.305-1.559 6.318-2.046 6.318H-6.138C-6.552 6.318-6.991 6.305-7.453 6.281ZM-5.736 3.379C-6.101 3.379-6.491 3.367-6.905 3.342V4.15C-6.516 4.126-6.126 4.114-5.736 4.114H-2.594C-2.229 4.114-1.827 4.126-1.388 4.15V3.342C-1.876 3.367-2.278 3.379-2.594 3.379Z" fill="#2c292a"/>
<path transform="matrix(1,0,0,-1,145.4784,344.0125)" d="M0 0V-1.543H2.082C2.569-1.543 3.032-1.531 3.471-1.506V-2.314C2.983-2.29 2.496-2.277 2.009-2.277H0V-5.987H2.886C3.252-5.987 3.677-5.975 4.165-5.95V-6.722C3.702-6.697 3.276-6.685 2.886-6.685H-2.886C-3.276-6.685-3.715-6.697-4.202-6.722V-5.95C-3.739-5.975-3.301-5.987-2.886-5.987H-.767V-.037C-.767 .331-.78 .735-.804 1.175H.037C.012 .759 0 .367 0 0" fill="#2c292a"/>
<path transform="matrix(1,0,0,-1,154.0472,343.9758)" d="M0 0C0-.637-.013-1.359-.037-2.167H2.119V-.037C2.119 .453 2.106 .857 2.082 1.175H2.923C2.898 .857 2.886 .453 2.886-.037V-2.167C3.909-2.167 4.664-2.155 5.151-2.13V-2.865C4.713-2.841 3.958-2.828 2.886-2.828V-5.656C2.886-6.048 2.898-6.513 2.923-7.052H2.082C2.106-6.538 2.119-6.073 2.119-5.656V-2.828H-.037C-.11-3.686-.39-4.451-.877-5.124-1.364-5.798-2.022-6.415-2.85-6.979-2.972-6.758-3.203-6.562-3.544-6.391-2.984-6.147-2.406-5.687-1.809-5.014-1.212-4.34-.889-3.612-.84-2.828H-2.594C-2.886-2.828-3.203-2.841-3.544-2.865V-2.13C-3.203-2.155-2.886-2.167-2.594-2.167H-.804C-.78-1.677-.767-1.028-.767-.22-1.62-.441-2.192-.6-2.484-.698-2.582-.429-2.753-.196-2.996 0-2.557 .049-1.967 .184-1.224 .404-.481 .624 .158 .894 .694 1.212L1.388 .441C1.072 .391 .609 .244 0 0" fill="#2c292a"/>
<path transform="matrix(1,0,0,-1,147.1748,361.2295)" d="M0 0C-.256-.355-.506-.667-.749-.937-.993-.765-1.2-.63-1.37-.533-1.151-.362-.92-.123-.676 .184-.433 .49-.237 .79-.091 1.084L.639 .643C.469 .569 .256 .355 0 0M-.347 7.107H.42C.396 6.617 .384 6.213 .384 5.895H2.028C2.028 6.36 2.015 6.764 1.991 7.107H2.795C2.77 6.691 2.758 6.287 2.758 5.895 2.929 5.895 3.148 5.907 3.416 5.932V5.307C3.172 5.332 2.953 5.344 2.758 5.344V1.855C2.953 1.855 3.172 1.867 3.416 1.892V1.267C2.953 1.291 2.503 1.304 2.064 1.304H.091C-.445 1.304-.908 1.291-1.297 1.267V1.892C-.932 1.867-.603 1.855-.311 1.855V5.344C-.53 5.344-.785 5.332-1.078 5.307V5.932C-.81 5.907-.554 5.895-.311 5.895-.311 6.262-.323 6.666-.347 7.107M2.028 5.344H.38400007V4.536H2.028ZM2.028 3.985H.38400007V3.2139998H2.028ZM2.028 2.663H.38400007V1.855H2.028ZM1.553 .643C1.699 .74 1.857 .887 2.028 1.084 2.32 .79 2.661 .422 3.051-.018 2.855-.165 2.661-.337 2.466-.533 2.076 .055 1.772 .446 1.553 .643M6.229-.165V1.892H4.622C4.573 1.304 4.439 .74 4.22 .202 4.001-.337 3.684-.839 3.27-1.304 3.099-1.084 2.868-.924 2.576-.826 2.99-.41 3.3 .03 3.507 .496 3.714 .961 3.836 1.426 3.873 1.892 3.909 2.356 3.928 3.116 3.928 4.169 3.928 5.246 3.915 6.103 3.891 6.74H6.996C6.972 6.275 6.96 5.712 6.96 5.05V-.349C6.96-.692 6.85-.924 6.631-1.047 6.412-1.169 6.12-1.255 5.754-1.304 5.754-1.034 5.657-.753 5.462-.459 6.022-.533 6.278-.435 6.229-.165M6.229 6.189H4.658V4.5360004H6.229ZM6.229 3.985H4.658V2.442H6.229ZM6.229 2.443" fill="#2c292a"/>
</g>
<path transform="matrix(1,0,0,-1,322.1478,345.94123)" d="M0 0V-1.774-3.548L3.529-1.774ZM-144.395-3.548V-1.774 0L-147.925-1.774ZM.882-1.183H-145.278V-2.366H.882Z" fill="#2c292a"/>
<path transform="matrix(1,0,0,-1,0,595.276)" d="M235.16 254.006H268.513V240.877H235.16Z" fill="#ffffff"/>
<g clip-path="url(#clip_11)">
<path transform="matrix(1,0,0,-1,239.0317,345.05)" d="M0 0V-5.069C0-5.608 .012-6.183 .037-6.795H-.694C-.67-6.207-.658-5.656-.658-5.142V-1.249C-.999-1.959-1.23-2.424-1.352-2.645-1.474-2.424-1.657-2.241-1.9-2.094-1.632-1.726-1.31-1.145-.932-.349-.554 .446-.329 1.126-.256 1.69L.585 1.359C.462 1.212 .268 .759 0 0M3.179 .477C3.179 1.016 3.166 1.445 3.142 1.763 3.458 1.714 3.739 1.677 3.982 1.653 3.909 1.408 3.873 1.016 3.873 .477H5.042C5.577 .477 6.065 .49 6.503 .514V-.147C6.04-.123 5.553-.11 5.042-.11H3.873V-.918H6.101C6.077-1.261 6.065-1.629 6.065-2.02 6.065-2.387 6.077-2.767 6.101-3.159H3.836C3.787-3.943 3.653-4.579 3.434-5.069 4.116-5.681 5.2-5.999 6.686-6.024 6.515-6.146 6.381-6.378 6.284-6.722 4.993-6.672 3.897-6.305 2.996-5.62 2.435-6.207 1.754-6.648 .95-6.942 .925-6.77 .755-6.587 .438-6.391 1.364-6.121 2.046-5.73 2.484-5.216 2.07-4.799 1.631-4.31 1.169-3.746 1.315-3.673 1.485-3.539 1.681-3.342 2.07-3.881 2.472-4.31 2.886-4.628 3.032-4.212 3.117-3.722 3.142-3.159H.986C1.01-2.767 1.023-2.375 1.023-1.983 1.023-1.592 1.01-1.237 .986-.918H3.179V-.11H1.973C1.461-.11 1.023-.123 .658-.147V.514C.998 .49 1.425 .477 1.936 .477ZM3.179-1.469H1.7179999V-2.571H3.179ZM5.371-1.469H3.8729997V-2.571H5.371ZM5.371-2.571" fill="#2c292a"/>
<path transform="matrix(1,0,0,-1,252.0942,344.7929)" d="M0 0C.316-.27 .694-.527 1.133-.771 1.571-1.016 2.216-1.273 3.069-1.543 2.898-1.69 2.728-1.923 2.557-2.241 2.046-2.045 1.595-1.837 1.206-1.616 .816-1.396 .462-1.175 .146-.955-.171-.735-.438-.502-.658-.257-.877-.013-1.072 .232-1.242 .477-1.778-.184-2.345-.735-2.941-1.175-3.538-1.616-4.226-2.033-5.005-2.424-5.103-2.204-5.249-1.996-5.444-1.8-4.981-1.653-4.525-1.445-4.074-1.175-3.623-.906-3.228-.624-2.886-.331-2.545-.037-2.247 .275-1.991 .606-1.735 .937-1.534 1.261-1.388 1.579L-.621 1.212C-.646 1.187-.719 1.102-.84 .955-.597 .588-.317 .269 0 0M-1.607-3.453V-4.665C-1.607-5.13-1.596-5.461-1.571-5.656H-2.265V-5.216H-3.58V-5.95H-4.275C-4.251-5.608-4.238-5.228-4.238-4.812V-3.526C-4.238-3.085-4.251-2.718-4.275-2.424H-1.571C-1.596-2.669-1.607-3.012-1.607-3.453M-2.265-2.975H-3.5800002V-4.665H-2.265ZM.548-1.286V-1.91C-.061-1.886-.414-1.873-.511-1.873H-2.85V-1.249C-2.728-1.249-2.436-1.261-1.973-1.286ZM-.767-3.489C-.792-3-.804-2.645-.804-2.424H2.046C2.021-2.645 2.009-2.963 2.009-3.379V-4.848C2.009-5.142 1.912-5.381 1.717-5.565 1.522-5.748 1.169-5.853 .658-5.877 .609-5.583 .512-5.326 .365-5.105 .852-5.105 1.133-5.075 1.206-5.014 1.279-4.953 1.327-4.812 1.352-4.591V-2.975H-.109V-7.162H-.804C-.804-6.672-.792-6.159-.767-5.62Z" fill="#2c292a"/>
<path transform="matrix(1,0,0,-1,257.3201,350.57783)" d="M0 0C-.256-.355-.506-.667-.749-.937-.993-.765-1.2-.63-1.37-.533-1.151-.362-.92-.123-.676 .184-.433 .49-.237 .79-.091 1.084L.639 .643C.469 .569 .256 .355 0 0M-.347 7.107H.42C.396 6.617 .384 6.213 .384 5.895H2.028C2.028 6.36 2.015 6.764 1.991 7.107H2.795C2.77 6.691 2.758 6.287 2.758 5.895 2.929 5.895 3.148 5.907 3.416 5.932V5.307C3.172 5.332 2.953 5.344 2.758 5.344V1.855C2.953 1.855 3.172 1.867 3.416 1.892V1.267C2.953 1.291 2.503 1.304 2.064 1.304H.091C-.445 1.304-.908 1.291-1.297 1.267V1.892C-.932 1.867-.603 1.855-.311 1.855V5.344C-.53 5.344-.786 5.332-1.078 5.307V5.932C-.81 5.907-.554 5.895-.311 5.895-.311 6.262-.323 6.666-.347 7.107M2.028 5.344H.38400007V4.536H2.028ZM2.028 3.985H.38400007V3.2139998H2.028ZM2.028 2.663H.38400007V1.855H2.028ZM1.553 .643C1.699 .74 1.857 .887 2.028 1.084 2.32 .79 2.661 .422 3.051-.018 2.855-.165 2.661-.337 2.466-.533 2.076 .055 1.772 .446 1.553 .643M6.229-.165V1.892H4.622C4.573 1.304 4.439 .74 4.22 .202 4.001-.337 3.684-.839 3.27-1.304 3.099-1.084 2.868-.924 2.576-.826 2.99-.41 3.3 .03 3.507 .496 3.714 .961 3.836 1.426 3.873 1.892 3.909 2.356 3.928 3.116 3.928 4.169 3.928 5.246 3.915 6.103 3.891 6.74H6.996C6.972 6.275 6.96 5.712 6.96 5.05V-.349C6.96-.692 6.85-.924 6.631-1.047 6.412-1.169 6.12-1.255 5.754-1.304 5.754-1.034 5.657-.753 5.462-.459 6.022-.533 6.278-.435 6.229-.165M6.229 6.189H4.658V4.5360004H6.229ZM6.229 3.985H4.658V2.442H6.229ZM6.229 2.443" fill="#2c292a"/>
<path transform="matrix(1,0,0,-1,86.7534,350.6828)" d="M0 0C.024 .857 .03 1.432 .018 1.726 .006 2.02-.013 2.301-.037 2.571 .256 2.522 .584 2.485 .95 2.461 .877 2.216 .822 1.861 .785 1.396 .749 .93 .731 .465 .731 0H2.594C3.252 0 3.86 .024 4.421 .073V-.735C3.933-.711 3.434-.698 2.923-.698H.767C.864-1.115 1.035-1.537 1.279-1.965 1.522-2.394 1.772-2.773 2.028-3.104 2.283-3.434 2.636-3.783 3.087-4.15 3.538-4.518 4.031-4.824 4.567-5.069 4.372-5.216 4.177-5.46 3.982-5.803 3.544-5.558 3.111-5.252 2.685-4.885 2.259-4.518 1.832-4.035 1.407-3.434 .98-2.834 .658-2.277 .438-1.763 .243-2.302 .037-2.749-.183-3.104-.402-3.459-.639-3.783-.895-4.077-1.151-4.371-1.48-4.665-1.882-4.959-2.283-5.252-2.74-5.546-3.252-5.84-3.447-5.546-3.666-5.289-3.909-5.069-3.398-4.898-2.893-4.653-2.393-4.334-1.894-4.016-1.486-3.655-1.169-3.251-.853-2.847-.597-2.424-.402-1.983-.207-1.543-.086-1.115-.037-.698H-2.046C-2.631-.698-3.094-.711-3.434-.735V.073C-3.094 .049-2.631 .024-2.046 0Z" fill="#2c292a"/>
<path transform="matrix(1,0,0,-1,99.0486,351.748)" d="M0 0V-.771C-.341-.845-.652-.961-.932-1.12-1.212-1.28-1.534-1.445-1.9-1.616V-1.947H.402C.694-1.947 1.072-1.935 1.535-1.91V-2.645C1.047-2.62 .67-2.608 .402-2.608H-1.9V-4.114C-1.9-4.456-2.034-4.67-2.302-4.757-2.57-4.842-3.008-4.909-3.617-4.959-3.69-4.689-3.812-4.42-3.982-4.15H-2.996C-2.753-4.15-2.631-4.016-2.631-3.746V-2.608H-5.151C-5.541-2.608-5.98-2.62-6.467-2.645V-1.91C-5.955-1.935-5.529-1.947-5.188-1.947H-2.631C-2.631-1.751-2.655-1.531-2.704-1.286L-1.388-.624H-3.398C-3.861-.624-4.384-.637-4.969-.661V.037C-4.433 .012-3.922 0-3.434 0ZM-.548 1.653H1.461C1.437 1.432 1.425 1.175 1.425 .882 1.425 .588 1.437 .306 1.461 .037H.694V1.028H-5.626V0H-6.394C-6.37 .294-6.357 .588-6.357 .882-6.357 1.175-6.37 1.432-6.394 1.653H-1.315C-1.121 1.996-.92 2.356-.712 2.736-.506 3.116-.341 3.489-.219 3.857 .17 3.636 .475 3.477 .694 3.379 .207 2.816-.207 2.241-.548 1.653M-4.165 2.351C-4.433 2.154-4.64 1.971-4.786 1.8-5.103 2.265-5.468 2.669-5.882 3.012-5.614 3.208-5.42 3.367-5.297 3.489-4.859 3.122-4.482 2.742-4.165 2.351M-1.9 2.461C-2.119 2.289-2.351 2.13-2.594 1.983-2.789 2.375-3.081 2.816-3.471 3.306-3.228 3.477-3.008 3.624-2.813 3.746-2.351 3.159-2.046 2.73-1.9 2.461" fill="#2c292a"/>
<path transform="matrix(1,0,0,-1,83.6479,367.397)" d="M0 0C-.244 .196-.487 .355-.731 .477-.341 1.016 .048 1.763 .438 2.718 .633 2.571 .852 2.436 1.096 2.314 .731 1.506 .365 .735 0 0M3.909 6.501H6.174C6.637 6.501 7.075 6.525 7.49 6.575V5.877C7.124 5.901 6.698 5.914 6.211 5.914H3.909V4.444H5.626C6.04 4.444 6.43 4.456 6.795 4.481V3.783C6.43 3.807 6.04 3.82 5.626 3.82H1.498C1.059 3.82 .658 3.807 .292 3.783V4.481C.658 4.456 1.059 4.444 1.498 4.444H3.142V5.914H.731C.341 5.914-.073 5.901-.512 5.877V6.575C-.073 6.525 .341 6.501 .731 6.501H3.142C3.142 7.064 3.129 7.554 3.105 7.97H3.982C3.933 7.554 3.909 7.064 3.909 6.501M2.411 1.396C2.411 .955 2.417 .661 2.43 .514 2.442 .367 2.594 .294 2.886 .294H4.603C4.773 .27 4.914 .337 5.023 .496 5.133 .655 5.236 .942 5.334 1.359 5.553 1.139 5.809 .979 6.101 .882 5.931 .391 5.76 .055 5.59-.129 5.419-.312 5.163-.391 4.823-.367H2.411C1.973-.343 1.729-.196 1.681 .073 1.631 .343 1.613 .661 1.626 1.028 1.638 1.396 1.631 1.885 1.607 2.498H2.448C2.423 2.204 2.411 1.836 2.411 1.396M4.676 1.91C4.433 1.738 4.189 1.579 3.946 1.432 3.677 1.996 3.373 2.534 3.032 3.049 3.227 3.146 3.422 3.256 3.617 3.379 3.958 2.938 4.311 2.448 4.676 1.91M7.855 1.065C7.636 .918 7.417 .747 7.197 .551 6.734 1.236 6.235 1.873 5.699 2.461 5.87 2.632 6.028 2.779 6.174 2.902 6.686 2.412 7.246 1.8 7.855 1.065" fill="#2c292a"/>
<path transform="matrix(1,0,0,-1,97.1488,364.3852)" d="M0 0V.808H-2.265C-2.241 1.224-2.229 1.64-2.229 2.057-2.229 2.498-2.241 2.951-2.265 3.416H-.475L-.329 4.04H-3.142C-3.142 2.106-3.167 .808-3.215 .147-3.264-.514-3.367-1.151-3.526-1.763-3.684-2.375-3.922-2.926-4.238-3.416-4.433-3.171-4.64-2.962-4.859-2.791-4.616-2.498-4.427-2.167-4.293-1.8-4.159-1.432-4.05-1.023-3.964-.569-3.879-.116-3.83 .606-3.818 1.598-3.806 2.589-3.812 3.575-3.836 4.555H2.009C2.448 4.555 2.886 4.567 3.325 4.591V4.04H.475L.256 3.416H2.74C2.716 2.951 2.704 2.498 2.704 2.057 2.704 1.64 2.716 1.224 2.74 .808H.658V-.257C.682-.502 .59-.68 .384-.79 .176-.9-.134-.98-.548-1.028-.573-.808-.634-.576-.731-.331-.219-.38 .024-.27 0 0M-2.411-1.432C-2.241-1.604-2.034-1.751-1.79-1.873-2.132-2.192-2.557-2.705-3.069-3.416-3.24-3.269-3.41-3.134-3.58-3.012-3.288-2.693-2.899-2.167-2.411-1.432M-1.315 .551C-1.145 .404-.95 .244-.731 .073-1.121-.22-1.681-.612-2.411-1.102L-2.85-.588C-2.192-.294-1.681 .086-1.315 .551M2.119 2.865H-1.5710001V2.351H2.119ZM2.156 1.8H-1.5710001V1.323H2.156ZM-.694-2.167C-.694-2.339-.688-2.504-.676-2.663-.664-2.822-.511-2.902-.219-2.902H1.169C1.437-2.877 1.62-2.632 1.717-2.167 1.912-2.314 2.156-2.461 2.448-2.608 2.253-2.951 2.094-3.171 1.973-3.269 1.851-3.367 1.62-3.416 1.279-3.416H-.511C-.999-3.391-1.267-3.287-1.315-3.104-1.364-2.92-1.388-2.669-1.388-2.351-1.388-2.033-1.401-1.702-1.425-1.359H-.658C-.682-1.702-.694-1.971-.694-2.167M1.096-1.983C.852-2.106 .658-2.228 .512-2.351 .341-2.057 .134-1.776-.11-1.506 .085-1.408 .256-1.298 .402-1.175 .572-1.372 .804-1.641 1.096-1.983M3.361-.404C3.215-.624 3.093-.833 2.996-1.028 2.484-.637 1.912-.282 1.279 .037 1.4 .233 1.51 .404 1.608 .551 2.411 .086 2.996-.233 3.361-.404M3.8-2.534C3.604-2.681 3.422-2.828 3.252-2.975 2.935-2.486 2.569-2.045 2.156-1.653 2.35-1.482 2.484-1.347 2.557-1.249 3.044-1.714 3.458-2.143 3.8-2.534" fill="#2c292a"/>
<path transform="matrix(1,0,0,-1,109.0704,318.2578)" d="M0 0C-.111 0-.223 .002-.334 .006-4.14 .134-7.894 2.339-12.148 6.946-12.591 7.424-12.563 8.173-12.086 8.617-11.61 9.062-10.865 9.034-10.423 8.555-6.623 4.441-3.392 2.476-.255 2.37 2.238 2.286 4.669 3.398 7.175 5.77 10.521 8.936 10.724 13.11 10.959 17.943 11.193 22.773 11.459 28.247 15.319 33.117 15.357 33.165 15.399 33.209 15.443 33.251 19.244 36.763 23.329 38.077 27.584 37.155 31.291 36.352 34.508 34.038 37.165 31.879 37.671 31.468 37.75 30.724 37.341 30.216 36.932 29.708 36.191 29.629 35.686 30.039 30.108 34.569 23.999 37.885 17.104 31.572 13.771 27.316 13.537 22.493 13.31 17.827 13.072 12.931 12.826 7.868 8.789 4.047 5.95 1.361 2.995 0 0 0" fill="#2c292a"/>
<path transform="matrix(1,0,0,-1,143.9562,301.1017)" d="M0 0C-4.73 0-9.99 2.106-15.75 6.32-16.275 6.705-16.391 7.444-16.009 7.972-15.626 8.501-14.89 8.617-14.364 8.233-3.293 .133 5.294 .456 11.886 9.222 14.924 13.261 15.981 20.785 17.206 29.497 18.786 40.731 20.752 54.714 27.968 66.445 27.998 66.494 28.032 66.541 28.07 66.585 34.439 74.171 41.546 78.255 49.195 78.725 56.509 79.176 62.767 76.18 66.729 73.588 67.274 73.231 67.428 72.499 67.074 71.951 66.719 71.404 65.99 71.249 65.445 71.605 58.204 76.342 43.967 81.79 29.925 65.127 23.006 53.834 21.164 40.73 19.537 29.166 18.267 20.129 17.169 12.324 13.764 7.796 9.857 2.6 5.255 0 0 0" fill="#2c292a"/>
<path transform="matrix(1,0,0,-1,131.572,281.4817)" d="M0 0C-.033 2.333 1.675 4.174 3.782 4.174 5.889 4.174 7.597 2.333 7.597 .062 7.597-2.208 5.889-4.049 3.782-4.049 1.675-4.049-.033-2.208 0 0" fill="#f43040"/>
<path transform="matrix(1,0,0,-1,162.4544,249.90219)" d="M0 0C-.013 2.383 1.974 4.361 4.426 4.361 6.878 4.361 8.866 2.383 8.866-.058 8.866-2.499 6.878-4.478 4.426-4.478 1.974-4.478-.013-2.499 0 0" fill="#f43040"/>
<path transform="matrix(1,0,0,-1,197.617,253.67981)" d="M0 0C0 .155-.011 .354-.033 .599H.695C.65 .333 .629 .133 .629 0H1.489C1.864 0 2.206 .011 2.515 .033V-.566C2.206-.544 1.864-.532 1.489-.532H.629V-2.428C.65-2.761 .529-2.982 .265-3.094 0-3.204-.364-3.293-.827-3.36-.849-3.094-.949-2.838-1.125-2.595-.574-2.616-.248-2.595-.149-2.528-.05-2.462 0-2.318 0-2.096V-.532H-3.871C-4.268-.532-4.632-.544-4.963-.566V.033C-4.632 .011-4.268 0-3.871 0ZM1.423 4.158C1.401 3.847 1.39 3.526 1.39 3.193V2.029C1.39 1.652 1.401 1.308 1.423 .998H-2.912C-3.265 .998-3.629 .987-4.004 .965V1.563C-3.629 1.541-3.265 1.53-2.912 1.53H.761V2.262H-2.647C-3 2.262-3.364 2.251-3.739 2.229V2.861C-3.364 2.838-3 2.828-2.647 2.828H.761V3.626H-2.813C-3.21 3.626-3.607 3.614-4.004 3.593V4.191C-3.519 4.169-3.133 4.158-2.846 4.158ZM-2.283-2.129C-2.482-2.262-2.68-2.384-2.879-2.495-3.099-2.007-3.375-1.563-3.706-1.164-3.574-1.076-3.386-.954-3.143-.798-2.835-1.198-2.548-1.641-2.283-2.129" fill="#2c292a"/>
<path transform="matrix(1,0,0,-1,203.8376,253.21399)" d="M0 0C-.309-.178-.596-.333-.86-.466V-2.927C-.86-3.282-.954-3.509-1.142-3.609-1.329-3.709-1.677-3.759-2.184-3.759-2.228-3.515-2.305-3.271-2.415-3.027-1.997-3.049-1.737-3.049-1.638-3.027-1.539-3.005-1.489-2.883-1.489-2.661V-.765C-1.952-.987-2.294-1.153-2.515-1.264-2.603-1.02-2.702-.81-2.813-.632-2.57-.588-2.129-.422-1.489-.133V1.397C-2.018 1.397-2.394 1.386-2.614 1.364V1.963C-2.394 1.94-2.018 1.929-1.489 1.929-1.489 2.661-1.5 3.304-1.522 3.859H-.827C-.849 3.348-.86 2.705-.86 1.929-.574 1.929-.265 1.94 .066 1.963V1.364C-.331 1.386-.64 1.397-.86 1.397V.133C-.662 .221-.408 .354-.099 .532-.078 .333-.044 .155 0 0M2.647-1.763C2.956-2.384 3.215-2.756 3.425-2.877 3.634-2.999 3.777-2.939 3.855-2.694 3.932-2.451 3.992-2.207 4.037-1.963 4.301-2.14 4.533-2.273 4.732-2.362 4.555-2.939 4.401-3.321 4.268-3.509 4.136-3.698 3.965-3.803 3.755-3.826 3.546-3.847 3.27-3.687 2.928-3.343 2.586-2.999 2.327-2.639 2.151-2.262 1.864-2.528 1.566-2.767 1.257-2.977 .948-3.188 .617-3.382 .265-3.559 .154-3.337-.011-3.149-.232-2.994 .099-2.883 .468-2.7 .877-2.445 1.285-2.19 1.61-1.918 1.853-1.63 1.654-1.076 1.489-.299 1.357 .699 1.07 .632 .65 .543 .099 .432 .077 .654 .022 .865-.066 1.064 .441 1.131 .893 1.208 1.29 1.297 1.246 1.896 1.213 2.783 1.191 3.958 1.411 3.936 1.654 3.914 1.919 3.892 1.897 2.739 1.908 1.918 1.952 1.43 2.746 1.585 3.529 1.741 4.301 1.896 4.323 1.674 4.356 1.464 4.401 1.264 3.54 1.131 2.746 .986 2.018 .832 2.106 .011 2.228-.643 2.382-1.131 2.912-.466 3.287 .133 3.507 .665 3.728 .421 3.926 .244 4.103 .133 3.441-.754 2.956-1.386 2.647-1.763M4.07 2.528C3.893 2.395 3.75 2.251 3.64 2.096 3.441 2.339 3.033 2.728 2.415 3.26 2.526 3.348 2.658 3.493 2.813 3.692 3.364 3.271 3.783 2.883 4.07 2.528" fill="#2c292a"/>
<path transform="matrix(1,0,0,-1,211.1169,250.7857)" d="M0 0V-4.591C0-5.079 .011-5.599 .033-6.154H-.629C-.607-5.622-.596-5.123-.596-4.657V-1.131C-.905-1.774-1.114-2.195-1.224-2.395-1.335-2.195-1.5-2.029-1.721-1.896-1.478-1.563-1.186-1.037-.844-.316-.502 .404-.298 1.02-.232 1.53L.529 1.231C.419 1.098 .242 .687 0 0M2.879 .432C2.879 .92 2.867 1.308 2.846 1.597 3.132 1.552 3.386 1.519 3.607 1.497 3.541 1.275 3.507 .92 3.507 .432H4.566C5.051 .432 5.493 .443 5.89 .466V-.133C5.471-.111 5.03-.1 4.566-.1H3.507V-.832H5.526C5.504-1.142 5.493-1.475 5.493-1.83 5.493-2.162 5.504-2.506 5.526-2.861H3.474C3.43-3.571 3.309-4.147 3.11-4.591 3.728-5.145 4.71-5.433 6.055-5.455 5.901-5.566 5.779-5.777 5.691-6.087 4.522-6.043 3.529-5.71 2.713-5.09 2.206-5.622 1.588-6.021 .86-6.287 .838-6.132 .684-5.965 .397-5.788 1.235-5.544 1.853-5.189 2.25-4.724 1.875-4.347 1.478-3.903 1.059-3.393 1.191-3.327 1.345-3.205 1.522-3.027 1.875-3.515 2.239-3.903 2.614-4.191 2.746-3.815 2.823-3.371 2.846-2.861H.893C.915-2.506 .926-2.151 .926-1.796 .926-1.442 .915-1.12 .893-.832H2.879V-.1H1.787C1.324-.1 .926-.111 .596-.133V.466C.904 .443 1.29 .432 1.754 .432ZM2.879-1.331H1.556V-2.329H2.879ZM4.864-1.331H3.507V-2.329H4.864ZM4.864-2.329" fill="#2c292a"/>
<path transform="matrix(1,0,0,-1,222.8964,250.55289)" d="M0 0C.286-.244 .629-.477 1.026-.699 1.423-.921 2.007-1.153 2.779-1.397 2.625-1.53 2.47-1.741 2.316-2.029 1.853-1.852 1.445-1.663 1.092-1.464 .739-1.264 .419-1.064 .132-.865-.155-.665-.397-.455-.596-.233-.794-.011-.971 .211-1.125 .432-1.611-.166-2.123-.665-2.664-1.064-3.204-1.464-3.827-1.841-4.533-2.195-4.622-1.996-4.754-1.808-4.93-1.63-4.511-1.497-4.098-1.309-3.689-1.064-3.281-.821-2.923-.566-2.614-.299-2.305-.033-2.035 .249-1.803 .549-1.572 .848-1.39 1.142-1.257 1.43L-.563 1.098C-.585 1.075-.651 .998-.761 .865-.541 .532-.287 .244 0 0M-1.456-3.127V-4.225C-1.456-4.646-1.445-4.946-1.423-5.123H-2.051V-4.724H-3.243V-5.389H-3.871C-3.85-5.079-3.838-4.735-3.838-4.358V-3.193C-3.838-2.794-3.85-2.462-3.871-2.195H-1.423C-1.445-2.417-1.456-2.728-1.456-3.127M-2.051-2.694H-3.242V-4.224H-2.051ZM.496-1.164V-1.73C-.055-1.708-.375-1.697-.463-1.697H-2.581V-1.131C-2.471-1.131-2.206-1.142-1.787-1.164ZM-.695-3.16C-.717-2.717-.728-2.395-.728-2.195H1.853C1.831-2.395 1.82-2.684 1.82-3.06V-4.391C1.82-4.657 1.731-4.873 1.555-5.04 1.378-5.206 1.059-5.301 .596-5.322 .551-5.056 .463-4.823 .331-4.624 .772-4.624 1.026-4.596 1.092-4.541 1.158-4.486 1.202-4.358 1.224-4.158V-2.694H-.099V-6.487H-.728C-.728-6.043-.717-5.578-.695-5.09Z" fill="#2c292a"/>
<path transform="matrix(1,0,0,-1,229.0123,237.0737)" d="M0 0C-.309-.178-.596-.333-.86-.466V-2.927C-.86-3.282-.954-3.509-1.142-3.609-1.329-3.709-1.677-3.759-2.184-3.759-2.228-3.515-2.305-3.271-2.415-3.027-1.997-3.049-1.737-3.049-1.638-3.027-1.539-3.005-1.489-2.883-1.489-2.661V-.765C-1.952-.987-2.295-1.153-2.515-1.264-2.603-1.02-2.702-.81-2.813-.632-2.57-.588-2.129-.422-1.489-.133V1.397C-2.018 1.397-2.394 1.386-2.614 1.364V1.963C-2.394 1.94-2.018 1.929-1.489 1.929-1.489 2.661-1.5 3.304-1.522 3.859H-.827C-.85 3.348-.86 2.705-.86 1.929-.574 1.929-.265 1.94 .066 1.963V1.364C-.331 1.386-.64 1.397-.86 1.397V.133C-.662 .221-.408 .354-.099 .532-.078 .333-.044 .155 0 0M2.647-1.763C2.956-2.384 3.215-2.756 3.425-2.877 3.634-2.999 3.777-2.939 3.855-2.694 3.932-2.451 3.992-2.207 4.037-1.963 4.302-2.14 4.533-2.273 4.732-2.362 4.555-2.939 4.401-3.321 4.268-3.509 4.136-3.698 3.965-3.803 3.755-3.825 3.546-3.847 3.27-3.687 2.928-3.343 2.586-2.999 2.327-2.639 2.151-2.262 1.864-2.528 1.566-2.767 1.257-2.977 .948-3.188 .617-3.382 .265-3.559 .154-3.337-.011-3.149-.232-2.994 .099-2.883 .468-2.7 .877-2.445 1.285-2.19 1.61-1.918 1.853-1.63 1.654-1.076 1.489-.299 1.357 .699 1.07 .632 .65 .543 .099 .432 .077 .654 .022 .865-.066 1.064 .441 1.131 .893 1.208 1.29 1.297 1.246 1.896 1.213 2.783 1.191 3.959 1.411 3.936 1.654 3.914 1.919 3.892 1.897 2.739 1.908 1.918 1.952 1.43 2.746 1.585 3.529 1.741 4.302 1.896 4.323 1.674 4.356 1.464 4.401 1.264 3.54 1.131 2.746 .987 2.018 .832 2.106 .011 2.228-.643 2.382-1.131 2.912-.466 3.286 .133 3.507 .665 3.728 .421 3.926 .244 4.103 .133 3.441-.754 2.956-1.386 2.647-1.763M4.07 2.528C3.893 2.395 3.75 2.251 3.64 2.096 3.441 2.339 3.033 2.728 2.415 3.26 2.526 3.348 2.658 3.493 2.813 3.692 3.364 3.271 3.783 2.883 4.07 2.528" fill="#2c292a"/>
<path transform="matrix(1,0,0,-1,236.3082,240.26709)" d="M0 0C-.651-.111-1.108-.211-1.373-.299-1.439-.011-1.517 .266-1.605 .532-1.208 .554-.882 .576-.629 .599-.375 .621-.072 .654 .281 .699V1.996H-.182C-.623 1.996-.998 1.974-1.307 1.929V2.561C-.932 2.539-.59 2.528-.281 2.528H.281V3.626C-.16 3.604-.474 3.581-.662 3.559-.849 3.537-1.054 3.504-1.274 3.46-1.318 3.747-1.385 4.003-1.472 4.225-1.12 4.313-.806 4.535-.529 4.89-.254 5.244-.039 5.644 .116 6.087H-.381C-.756 6.087-1.108 6.076-1.439 6.054V6.686C-1.087 6.664-.745 6.653-.414 6.653H1.704C2.101 6.653 2.454 6.664 2.763 6.686V6.054C2.432 6.076 2.079 6.087 1.704 6.087H.347L.943 5.688C.722 5.511 .513 5.289 .314 5.023 .116 4.757-.116 4.468-.381 4.158 .414 4.202 1.152 4.246 1.836 4.291 1.66 4.579 1.461 4.868 1.241 5.156 1.461 5.267 1.66 5.389 1.836 5.522 2.057 5.211 2.267 4.912 2.465 4.624 2.664 4.335 2.851 4.069 3.028 3.825 2.829 3.67 2.608 3.526 2.366 3.393 2.277 3.548 2.2 3.681 2.134 3.792 1.671 3.726 1.285 3.681 .976 3.659V2.528H1.605C1.98 2.528 2.3 2.539 2.564 2.561V1.929C2.277 1.974 1.969 1.996 1.638 1.996H.976V.765C1.594 .853 2.244 .953 2.928 1.064 2.884 .843 2.851 .632 2.829 .432 1.594 .255 .65 .111 0 0M3.987 4.857V2.362C3.987 1.896 3.998 1.508 4.02 1.198H3.325C3.347 1.508 3.359 1.896 3.359 2.362V4.99C3.359 5.433 3.347 5.788 3.325 6.054H4.053C4.009 5.766 3.987 5.367 3.987 4.857M5.675 5.988V.532C5.675 .022 5.581-.277 5.393-.366 5.206-.454 4.803-.554 4.186-.665 4.119-.377 4.02-.111 3.888 .133 4.351 .133 4.654 .15 4.798 .183 4.941 .216 5.013 .399 5.013 .732V5.988C5.013 6.475 5.002 6.853 4.98 7.119H5.741C5.696 6.786 5.675 6.409 5.675 5.988" fill="#2c292a"/>
<path transform="matrix(1,0,0,-1,244.7622,234.64539)" d="M0 0V-4.591C0-5.079 .011-5.599 .033-6.154H-.629C-.607-5.622-.596-5.123-.596-4.657V-1.131C-.905-1.774-1.114-2.195-1.224-2.395-1.335-2.195-1.5-2.029-1.721-1.896-1.478-1.563-1.186-1.037-.844-.316-.502 .404-.298 1.02-.232 1.53L.53 1.231C.419 1.098 .243 .687 0 0M2.879 .432C2.879 .92 2.867 1.308 2.846 1.597 3.132 1.552 3.386 1.519 3.607 1.497 3.54 1.275 3.507 .92 3.507 .432H4.566C5.051 .432 5.493 .443 5.89 .466V-.133C5.471-.111 5.029-.1 4.566-.1H3.507V-.832H5.526C5.504-1.142 5.493-1.475 5.493-1.83 5.493-2.162 5.504-2.506 5.526-2.861H3.474C3.43-3.571 3.309-4.147 3.11-4.591 3.728-5.145 4.709-5.433 6.055-5.455 5.901-5.566 5.779-5.777 5.691-6.087 4.522-6.043 3.529-5.71 2.713-5.09 2.206-5.622 1.588-6.021 .86-6.287 .838-6.132 .683-5.965 .397-5.788 1.235-5.544 1.853-5.189 2.25-4.724 1.875-4.347 1.478-3.903 1.059-3.393 1.191-3.327 1.345-3.205 1.522-3.027 1.875-3.515 2.239-3.903 2.614-4.191 2.746-3.815 2.823-3.371 2.846-2.861H.893C.915-2.506 .927-2.151 .927-1.796 .927-1.442 .915-1.12 .893-.832H2.879V-.1H1.787C1.323-.1 .927-.111 .596-.133V.466C.904 .443 1.291 .432 1.754 .432ZM2.879-1.331H1.556V-2.329H2.879ZM4.864-1.331H3.507V-2.329H4.864ZM4.864-2.329" fill="#2c292a"/>
<path transform="matrix(1,0,0,-1,256.5416,234.4125)" d="M0 0C.286-.244 .629-.477 1.026-.699 1.423-.921 2.007-1.153 2.779-1.397 2.625-1.53 2.47-1.741 2.316-2.029 1.853-1.852 1.445-1.663 1.092-1.464 .739-1.264 .419-1.064 .132-.865-.155-.665-.397-.455-.596-.233-.794-.011-.971 .211-1.125 .432-1.611-.166-2.123-.665-2.664-1.064-3.204-1.464-3.827-1.841-4.533-2.195-4.622-1.996-4.754-1.808-4.93-1.63-4.511-1.497-4.098-1.309-3.689-1.064-3.281-.821-2.923-.566-2.614-.299-2.305-.033-2.035 .249-1.803 .549-1.572 .848-1.39 1.142-1.257 1.43L-.563 1.098C-.585 1.075-.651 .998-.761 .865-.541 .532-.287 .244 0 0M-1.456-3.127V-4.225C-1.456-4.646-1.445-4.946-1.423-5.123H-2.051V-4.724H-3.243V-5.389H-3.871C-3.85-5.079-3.838-4.735-3.838-4.358V-3.193C-3.838-2.794-3.85-2.462-3.871-2.195H-1.423C-1.445-2.417-1.456-2.728-1.456-3.127M-2.051-2.694H-3.242V-4.224H-2.051ZM.496-1.164V-1.73C-.055-1.708-.375-1.697-.463-1.697H-2.581V-1.131C-2.471-1.131-2.206-1.142-1.787-1.164ZM-.695-3.16C-.717-2.717-.728-2.395-.728-2.195H1.853C1.831-2.395 1.82-2.684 1.82-3.06V-4.391C1.82-4.657 1.731-4.873 1.555-5.04 1.378-5.206 1.059-5.301 .596-5.322 .551-5.056 .463-4.823 .331-4.624 .772-4.624 1.026-4.596 1.092-4.541 1.158-4.486 1.202-4.358 1.224-4.158V-2.694H-.099V-6.487H-.728C-.728-6.043-.717-5.578-.695-5.09Z" fill="#2c292a"/>
</g>
<path transform="matrix(1,0,0,-1,0,595.276)" d="M222.814 389.075H256.333V381.191H222.814Z" fill="#ffffff"/>
<g clip-path="url(#clip_12)">
<path transform="matrix(1,0,0,-1,226.3277,207.565)" d="M0 0H3.309C3.287-.51 3.276-.976 3.276-1.397V-5.123C3.276-5.522 3.287-5.921 3.309-6.32H2.647V-5.522H-1.787V-6.32H-2.449C-2.427-5.899-2.415-5.511-2.415-5.156V-1.364C-2.415-.965-2.427-.51-2.449 0H-.629C-.541 .599-.486 1.042-.463 1.331-.198 1.242 .088 1.175 .397 1.131 .265 .931 .132 .554 0 0M2.647-.565H-1.787V-1.6630001H2.647ZM2.647-2.195H-1.787V-3.2589999H2.647ZM2.647-3.792H-1.787V-4.99H2.647ZM2.647-4.99" fill="#2c292a"/>
<path transform="matrix(1,0,0,-1,235.1623,207.2656)" d="M0 0C-.198-.067-.618-.166-1.257-.299V-1.563H.463C.463-.965 .452-.133 .43 .931 .673 .887 .915 .865 1.158 .865 1.114 .532 1.092 .155 1.092-.266V-1.563H2.581C2.912-1.563 3.298-1.553 3.739-1.53V-2.129C3.298-2.107 2.923-2.096 2.614-2.096H1.125C1.191-3.16 1.334-3.925 1.555-4.391 2.018-3.948 2.415-3.293 2.746-2.428 2.923-2.584 3.154-2.728 3.441-2.861 3.264-3.06 3.033-3.388 2.746-3.842 2.459-4.297 2.162-4.679 1.853-4.99 2.029-5.256 2.217-5.478 2.415-5.655 2.614-5.833 2.774-5.938 2.895-5.971 3.016-6.004 3.105-5.938 3.16-5.771 3.215-5.605 3.254-5.367 3.276-5.056 3.496-5.212 3.728-5.345 3.971-5.455 3.794-6.076 3.607-6.464 3.408-6.62 3.21-6.775 2.923-6.753 2.548-6.553 2.172-6.354 1.787-5.976 1.39-5.422 .639-5.954 .044-6.331-.397-6.553-.529-6.309-.695-6.109-.893-5.954-.232-5.733 .419-5.367 1.059-4.857 .75-4.236 .562-3.316 .496-2.096H-1.257V-3.393C-.75-3.282-.364-3.172-.099-3.06-.078-3.282-.055-3.493-.033-3.692-.32-3.759-.728-3.859-1.257-3.992V-5.688C-1.236-6.109-1.368-6.381-1.654-6.503-1.941-6.625-2.272-6.719-2.647-6.786-2.669-6.542-2.779-6.287-2.978-6.021-2.537-6.021-2.245-5.993-2.101-5.938-1.958-5.883-1.886-5.755-1.886-5.555V-4.158C-2.725-4.38-3.276-4.535-3.54-4.624-3.563-4.314-3.629-4.058-3.739-3.859-3.342-3.815-2.725-3.704-1.886-3.526V-2.096C-2.746-2.096-3.342-2.107-3.673-2.129V-1.53C-3.32-1.553-2.725-1.563-1.886-1.563V-.466L-3.276-.765C-3.342-.521-3.43-.311-3.54-.133-3.21-.133-2.697-.056-2.002 .1-1.307 .255-.783 .432-.43 .632-.21 .321-.066 .111 0 0M3.243-.665C3.066-.798 2.89-.954 2.713-1.131 2.36-.643 1.985-.244 1.588 .067 1.765 .221 1.908 .377 2.018 .532 2.592 0 3-.399 3.243-.665" fill="#2c292a"/>
<path transform="matrix(1,0,0,-1,244.7248,209.62741)" d="M0 0C-.044-.466-.111-.965-.199-1.497H1.357C1.754-1.497 2.172-1.486 2.614-1.464V-2.096C2.151-2.074 1.721-2.062 1.323-2.062H-.364C-.563-2.506-.86-2.894-1.257-3.227-1.654-3.559-2.118-3.82-2.647-4.008-3.176-4.197-3.651-4.346-4.07-4.457-4.158-4.191-4.346-3.98-4.632-3.825-3.993-3.759-3.309-3.576-2.581-3.277-1.853-2.977-1.346-2.573-1.059-2.062H-3.408C-3.805-2.062-4.247-2.074-4.732-2.096V-1.464C-4.224-1.486-3.783-1.497-3.408-1.497H-.827C-.761-1.12-.711-.715-.678-.283-.645 .15-.64 .676-.662 1.297-.397 1.208-.122 1.142 .165 1.098 .099 .832 .044 .466 0 0M-.529 2.262H2.349C2.327 2.018 2.316 1.774 2.316 1.53 2.316 1.308 2.327 1.065 2.349 .798H1.588V1.73H-3.673V.732H-4.401C-4.379 .998-4.368 1.253-4.368 1.497-4.368 1.763-4.379 2.018-4.401 2.262H-1.357C-1.423 2.528-1.544 2.838-1.721 3.193-1.544 3.26-1.302 3.337-.993 3.426-.816 3.071-.662 2.683-.529 2.262M-2.184-.832C-2.272-.965-2.405-1.142-2.581-1.364-3.199-.898-3.695-.588-4.07-.432-3.938-.299-3.827-.122-3.739 .1-3.364-.078-2.846-.388-2.184-.832M-1.125 .2C-1.28 .022-1.412-.155-1.522-.333-2.228 .177-2.746 .488-3.077 .599-2.967 .754-2.846 .931-2.713 1.131ZM1.39-3.21C1.831-3.443 2.217-3.659 2.548-3.859 2.393-4.036 2.228-4.225 2.051-4.424 1.654-4.136 1.224-3.864 .761-3.609 .298-3.355-.099-3.16-.43-3.027-.254-2.806-.111-2.617 0-2.462 .485-2.728 .948-2.977 1.39-3.21" fill="#2c292a"/>
<path transform="matrix(1,0,0,-1,250.3497,207.0328)" d="M0 0C.242 0 .54 .011 .893 .033V-.599C.54-.577 .166-.565-.232-.565V-2.395C.077-2.395 .408-2.384 .761-2.362V-2.994C.408-2.972 .077-2.961-.232-2.961V-4.99C.143-4.901 .529-4.79 .926-4.657 .904-4.901 .893-5.112 .893-5.289 .166-5.467-.419-5.633-.86-5.788-1.302-5.943-1.633-6.077-1.853-6.187-1.919-5.877-2.007-5.611-2.118-5.389-1.765-5.345-1.335-5.267-.827-5.156V-2.961C-1.18-2.961-1.522-2.972-1.853-2.994V-2.362C-1.522-2.384-1.18-2.395-.827-2.395V-.565C-1.224-.565-1.577-.577-1.886-.599V.033C-1.621 .011-1.368 0-1.125 0ZM3.524-2.195C3.491-2.728 3.419-3.293 3.309-3.892H3.971C3.948-4.114 3.938-4.413 3.938-4.79V-5.855C3.938-6.187 3.998-6.365 4.119-6.387 4.24-6.409 4.379-6.414 4.533-6.403 4.687-6.392 4.798-6.315 4.864-6.171 4.93-6.027 4.974-5.766 4.996-5.389 5.217-5.522 5.459-5.611 5.724-5.655 5.614-6.121 5.503-6.437 5.393-6.603 5.283-6.769 5.051-6.874 4.699-6.919H4.037C3.551-6.919 3.309-6.708 3.309-6.287V-3.958C3.11-4.669 2.823-5.262 2.449-5.738 2.073-6.215 1.511-6.653 .761-7.052 .65-6.874 .463-6.719 .198-6.586 .904-6.298 1.423-5.982 1.754-5.638 2.085-5.295 2.349-4.857 2.548-4.324 2.746-3.792 2.862-3.238 2.895-2.661 2.928-2.085 2.934-1.508 2.912-.931 3.198-.976 3.463-1.009 3.706-1.031 3.618-1.276 3.557-1.663 3.524-2.195M5.129-.732V-2.961C5.129-3.382 5.139-3.748 5.162-4.058H4.533V-.2H2.018V-4.092H1.39C1.411-3.715 1.423-3.293 1.423-2.828V-.998C1.423-.51 1.411-.067 1.39 .333H5.162C5.139-.022 5.129-.377 5.129-.732" fill="#2c292a"/>
<path transform="matrix(1,0,0,-1,279.8089,204.2468)" d="M0 0V-4.258C0-4.768 .011-5.244 .033-5.688H-.695C-.651-5.333-.629-4.868-.629-4.291V-.998C-.96-1.53-1.236-1.952-1.456-2.262-1.544-2.085-1.699-1.908-1.919-1.73-1.655-1.419-1.335-.943-.96-.299-.585 .344-.276 1.075-.033 1.896 .165 1.785 .43 1.652 .761 1.497 .584 1.319 .331 .82 0 0M5.096-2.362C4.676-3.293 4.323-4.058 4.037-4.657 4.279-4.79 4.61-4.99 5.029-5.256 4.897-5.411 4.753-5.622 4.599-5.888 4.224-5.622 3.733-5.317 3.127-4.973 2.52-4.63 2.095-4.402 1.853-4.291 1.963-4.092 2.062-3.903 2.151-3.726 2.437-3.859 2.879-4.07 3.474-4.358 3.694-3.914 3.904-3.438 4.103-2.927H1.522C1.654-2.528 1.798-2.041 1.952-1.464H1.224C.893-1.464 .606-1.475 .364-1.497V-.898C.65-.921 .948-.931 1.257-.931H2.051C2.139-.51 2.205-.166 2.25 .1H1.754C1.357 .1 1.037 .088 .794 .067V.665C1.059 .643 1.367 .632 1.721 .632H2.349C2.437 1.275 2.482 1.718 2.482 1.963 2.768 1.896 3.022 1.851 3.243 1.83 3.176 1.718 3.077 1.319 2.945 .632H4.368C4.72 .632 5.051 .643 5.36 .665V.067C5.073 .088 4.732 .1 4.334 .1H2.879C2.834-.145 2.768-.488 2.68-.931H4.765C5.206-.931 5.547-.921 5.79-.898V-1.497C5.526-1.475 5.183-1.464 4.765-1.464H2.581C2.492-1.819 2.415-2.118 2.349-2.362Z" fill="#2c292a"/>
<path transform="matrix(1,0,0,-1,288.8419,204.8789)" d="M0 0C-.044-.621-.127-1.214-.248-1.78-.37-2.345-.557-2.861-.811-3.326-1.065-3.792-1.412-4.225-1.853-4.624-2.007-4.446-2.206-4.291-2.449-4.158-1.919-3.715-1.511-3.193-1.224-2.595-.938-1.996-.772-1.32-.728-.565-1.323-.565-1.798-.577-2.151-.599V.033C-1.798 .011-1.401 0-.96 0ZM3.838 2.096V1.497C3.684 1.475 3.408 1.347 3.011 1.114 2.614 .882 2.206 .599 1.787 .266V-.233C2.051-.233 2.327-.222 2.614-.2V-.798C2.415-.777 2.139-.765 1.787-.765V-1.464C1.963-1.464 2.239-1.453 2.614-1.43V-1.996C2.217-1.974 1.941-1.963 1.787-1.963V-2.728C2.272-2.728 2.68-2.717 3.011-2.694V-3.26C2.614-3.238 2.206-3.227 1.787-3.227V-4.191C1.809-4.546 1.715-4.79 1.506-4.923 1.296-5.056 .937-5.156 .43-5.223 .364-4.934 .276-4.701 .166-4.524 .54-4.524 .805-4.496 .96-4.441 1.114-4.385 1.191-4.258 1.191-4.058V-3.227C.706-3.227 .286-3.238-.066-3.26V-2.694C.286-2.717 .706-2.728 1.191-2.728V-1.963C.838-1.963 .518-1.974 .232-1.996V-1.43C.54-1.453 .86-1.464 1.191-1.464V-.765C.927-.765 .617-.777 .265-.798V-.2C.596-.222 .904-.233 1.191-.233 1.191 .1 1.18 .366 1.158 .566 1.467 .765 1.941 1.086 2.581 1.53H-.265C-.353 1.53-.607 1.519-1.026 1.497V2.129C-.629 2.107-.386 2.096-.298 2.096ZM3.441-.832C3.948-.477 4.356-.133 4.665 .2 4.842-.067 5.007-.288 5.162-.466 4.61-.732 4.081-1.054 3.574-1.43 3.706-1.985 3.943-2.484 4.285-2.927 4.627-3.371 4.996-3.692 5.393-3.892 5.107-4.003 4.875-4.191 4.699-4.457 4.345-4.191 4.037-3.864 3.772-3.476 3.507-3.088 3.303-2.694 3.16-2.295 3.016-1.896 2.906-1.436 2.829-.915 2.751-.394 2.702-.011 2.68 .233 2.9 .233 3.121 .244 3.342 .266 3.364-.178 3.397-.544 3.441-.832" fill="#2c292a"/>
<path transform="matrix(1,0,0,-1,187.8316,242.2384)" d="M0 0C-.082 2.504 1.744 4.482 3.995 4.482 6.247 4.482 8.072 2.504 8.072 .063 8.072-2.378 6.247-4.357 3.995-4.357 1.744-4.357-.082-2.378 0 0" fill="#f43040"/>
<path transform="matrix(1,0,0,-1,214.0183,232.90579)" d="M0 0C.068 2.511 2.121 4.594 4.655 4.594 7.189 4.594 9.242 2.511 9.242-.059 9.242-2.63 7.189-4.713 4.655-4.713 2.121-4.713 .068-2.63 0 0" fill="#f43040"/>
<path transform="matrix(1,0,0,-1,252.8073,195.29431)" d="M0 0C.047 2.076 1.615 3.716 3.549 3.716 5.483 3.716 7.051 2.076 7.051 .052 7.051-1.972 5.483-3.613 3.549-3.613 1.615-3.613 .047-1.972 0 0" fill="#f43040"/>
<path transform="matrix(1,0,0,-1,285.9837,196.5011)" d="M0 0C.01 2.048 1.578 3.688 3.512 3.688 5.446 3.688 7.014 2.048 7.014 .024 7.014-2 5.446-3.641 3.512-3.641 1.578-3.641 .01-2 0 0" fill="#f43040"/>
<path transform="matrix(1,0,0,-1,172.9722,263.6533)" d="M0 0C-1.085 0-2.105 .573-2.123 1.974H-.907C-.889 1.373-.477 1.1 0 1.1 .524 1.1 .898 1.429 .898 2.031 .898 2.585 .561 2.952-.037 2.952H-.215V4.015H-.037C.552 4.015 .805 4.381 .805 4.851 .805 5.415 .43 5.707-.009 5.707-.468 5.707-.804 5.406-.832 4.898H-2.048C-2.02 6.092-1.132 6.807-.009 6.807 1.169 6.807 2.02 6.017 2.02 4.889 2.02 4.165 1.693 3.751 1.253 3.516 1.73 3.262 2.114 2.802 2.114 1.993 2.114 .658 1.141 0 0 0" fill="#2c292a"/>
<path transform="matrix(1,0,0,-1,179.5848,263.1079)" d="M0 0C-.299-.301-.776-.545-1.468-.545-2.161-.545-2.666-.301-2.956-.01-3.367 .404-3.461 .893-3.498 1.382H-2.282C-2.217 .856-1.974 .555-1.468 .555-1.235 .555-1.038 .62-.889 .771-.673 .987-.627 1.344-.627 1.768-.627 2.538-.851 2.971-1.44 2.971-1.936 2.971-2.161 2.689-2.245 2.426H-3.358V6.205H.44V5.105H-2.254V3.667C-2.076 3.836-1.702 4.005-1.253 4.005-.701 4.005-.281 3.827-.009 3.554 .515 3.027 .589 2.397 .589 1.768 .589 1.015 .486 .489 0 0" fill="#2c292a"/>
<path transform="matrix(1,0,0,-1,122.9581,275.1495)" d="M0 0V1.1L2.488 4.005C2.731 4.297 2.834 4.503 2.834 4.814 2.834 5.312 2.544 5.651 2.03 5.651 1.627 5.651 1.216 5.444 1.216 4.795H0C0 6.017 .889 6.751 2.03 6.751 3.208 6.751 4.05 6.008 4.05 4.804 4.05 4.156 3.798 3.808 3.339 3.272L1.478 1.1H4.05V0Z" fill="#2c292a"/>
<path transform="matrix(1,0,0,-1,130.0478,275.2059)" d="M0 0C-1.179 0-2.133 .705-2.133 2.003-2.133 2.821-1.665 3.263-1.3 3.507-1.637 3.742-2.048 4.184-2.048 4.898-2.048 6.083-1.113 6.807 0 6.807 1.113 6.807 2.039 6.083 2.039 4.898 2.039 4.184 1.628 3.742 1.291 3.507 1.656 3.263 2.133 2.821 2.133 2.003 2.133 .705 1.179 0 0 0M0 2.952C-.514 2.952-.917 2.539-.917 2.022-.917 1.504-.514 1.1 0 1.1 .514 1.1 .917 1.504 .917 2.022 .917 2.539 .514 2.952 0 2.952M0 5.707C-.477 5.707-.833 5.34-.833 4.861-.833 4.372-.477 4.015 0 4.015 .477 4.015 .823 4.372 .823 4.861 .823 5.34 .477 5.707 0 5.707" fill="#2c292a"/>
</g>
</g>
</g>
</svg>
