<svg xmlns="http://www.w3.org/2000/svg" xmlns:xlink="http://www.w3.org/1999/xlink" xmlns:inkscape="http://www.inkscape.org/namespaces/inkscape" version="1.1" width="411.024" height="595.276" viewBox="0 0 411.024 595.276">
<defs>
<clipPath id="clip_1">
<path transform="matrix(1,0,0,-1,0,595.276)" d="M0 0H411.024V595.276H0Z"/>
</clipPath>
<clipPath id="clip_2">
<path transform="matrix(1,0,0,-1,0,595.276)" d="M0 0H411.024V595.276H0Z"/>
</clipPath>
<path id="font_3_4" d="M.46099855 0V.06399536H.15499878L.4039917 .38186646C.44299317 .43185426 .46099855 .46884156 .46099855 .5258179 .46099855 .6427765 .38198854 .71777346 .2649994 .71777346 .1459961 .71777346 .068984989 .6367645 .068984989 .5248108H.14099121C.14099121 .6167755 .19898987 .6537628 .2649994 .6537628 .34298707 .6537628 .3889923 .6027832 .3889923 .5258179 .3889923 .48683167 .37599183 .45584107 .34899903 .42085267L.067993167 .06399536V0H.46099855Z"/>
<path id="font_3_11" d="M.45700074 .51272585C.45700074 .63575747 .37998963 .71777346 .25898744 .71777346 .13798523 .71777346 .06199646 .62776187 .06199646 .5067291 .06199646 .3896942 .1349945 .3046875 .24598694 .3046875 .27398683 .3046875 .2999878 .30967713 .32199098 .3196869L.1619873 0H.23699951L.4119873 .3526764C.44198609 .4126892 .45700074 .4617157 .45700074 .51272585M.3849945 .50971987C.3849945 .4216919 .33499146 .36567689 .25898744 .36567689 .1769867 .36567689 .13398743 .43069459 .13398743 .50971987 .13398743 .596756 .18299866 .6537628 .25898744 .6537628 .33499146 .6537628 .3849945 .596756 .3849945 .50971987Z"/>
<path id="font_3_8" d="M.45999146 .20516968C.45999146 .32221986 .38598634 .40722657 .2749939 .40722657 .24699402 .40722657 .22200012 .40222169 .19999695 .3922119L.35899354 .71191409H.2849884L.10998535 .3592224C.07998657 .2992096 .06498718 .25019837 .06498718 .19917298 .06498718 .07614136 .14199829-.005859375 .2630005-.005859375 .38398744-.005859375 .45999146 .08413696 .45999146 .20516968M.3880005 .20217896C.3880005 .11514282 .33799745 .058135988 .2619934 .058135988 .18598938 .058135988 .13699341 .11514282 .13699341 .20217896 .13699341 .2902069 .18598938 .34622193 .2619934 .34622193 .34399415 .34622193 .3880005 .28120423 .3880005 .20217896Z"/>
<clipPath id="clip_4">
<path transform="matrix(1,0,0,-1,0,595.276)" d="M0 0H411.024V595.276H0Z"/>
</clipPath>
<clipPath id="clip_5">
<path transform="matrix(1,0,0,-1,0,595.276)" d="M0 0H411.024V595.276H0Z"/>
</clipPath>
<clipPath id="clip_6">
<path transform="matrix(1,0,0,-1,0,595.276)" d="M0 0H411.024V595.276H0Z"/>
</clipPath>
</defs>
<g clip-path="url(#clip_1)">
<g clip-path="url(#clip_2)">
<use data-text="2" xlink:href="#font_3_4" transform="matrix(9,0,0,-9,35.4331,567.547)" fill="#f43040"/>
<use data-text="9" xlink:href="#font_3_11" transform="matrix(9,0,0,-9,39.0331,567.547)" fill="#f43040"/>
<use data-text="6" xlink:href="#font_3_8" transform="matrix(9,0,0,-9,42.6331,567.547)" fill="#f43040"/>
<g clip-path="url(#clip_4)">
<path transform="matrix(1,0,0,-1,193.4105,309.6936)" d="M0 0C-.285 .185-.556 .349-.812 .492-.67 .691-.528 .919-.385 1.176-.072 .976 .249 .784 .577 .599 .904 .413 1.197 .249 1.453 .107 1.254-.15 1.069-.406 .898-.663 .584-.406 .284-.186 0 0M.962-3.785C.577-4.554 .27-5.153 .043-5.581-.242-5.295-.499-5.096-.727-4.982-.015-4.099 .626-2.972 1.197-1.604 1.396-1.775 1.609-1.946 1.838-2.117 1.638-2.459 1.346-3.015 .962-3.785M1.923 2.459C1.695 2.259 1.496 2.045 1.325 1.817 1.097 2.045 .826 2.288 .513 2.544 .199 2.801-.072 3-.299 3.143-.072 3.342 .113 3.528 .256 3.699 1.054 3.128 1.609 2.716 1.923 2.459M5.77 1.219V.492H7.138C7.736 .492 8.32 .506 8.891 .535V-.192C8.263-.164 7.651-.15 7.053-.15H4.103C3.22-.15 2.479-.164 1.881-.192V.535C2.45 .506 3.134 .492 3.932 .492H4.915V1.219H4.061C3.576 1.219 3.077 1.204 2.565 1.176V1.903C3.077 1.874 3.576 1.86 4.061 1.86H4.915V2.544H4.146C3.433 2.544 2.806 2.53 2.265 2.502V3.229C2.806 3.2 3.419 3.186 4.103 3.186H4.915C4.915 3.528 4.901 3.855 4.873 4.169H5.813C5.784 3.799 5.77 3.471 5.77 3.186H6.967C7.337 3.186 7.836 3.2 8.463 3.229V2.502C7.836 2.53 7.352 2.544 7.01 2.544H5.77V1.86H6.625C6.853 1.86 7.423 1.874 8.335 1.903V1.176C7.451 1.204 6.896 1.219 6.668 1.219ZM7.181-4.64V-4.041H3.633V-5.709H2.778C2.806-5.196 2.821-4.683 2.821-4.169V-2.245C2.821-1.846 2.806-1.347 2.778-.748H8.078C8.05-1.29 8.036-1.775 8.036-2.202V-4.811C8.036-5.096 7.964-5.288 7.822-5.388 7.679-5.488 7.337-5.609 6.796-5.752 6.767-5.495 6.61-5.21 6.326-4.896 6.896-4.896 7.181-4.811 7.181-4.64M7.181-1.39H3.6330002V-2.117H7.181ZM7.181-2.758H3.6330002V-3.399H7.181ZM7.181-3.4" fill="#f43040"/>
<path transform="matrix(1,0,0,-1,205.9769,306.636)" d="M0 0C.313 0 .655 .014 1.026 .043V-.77C.626-.742 .285-.727 0-.727H-.385V-3.036C.014-3.036 .413-3.022 .812-2.993V-3.806C.413-3.778 .014-3.763-.385-3.763V-6.5C.156-6.301 .612-6.115 .983-5.944 1.04-6.229 1.097-6.472 1.154-6.671 .612-6.842 .007-7.063-.663-7.334-1.332-7.605-1.853-7.854-2.223-8.082-2.337-7.797-2.465-7.498-2.607-7.184-2.237-7.128-1.752-6.971-1.154-6.714V-3.763C-1.667-3.763-2.109-3.778-2.479-3.806V-2.993C-2.08-3.022-1.639-3.036-1.154-3.036V-.727H-1.667C-1.923-.727-2.237-.742-2.607-.77V.043C-2.237 .014-1.923 0-1.667 0ZM6.924-1.882C6.924-3.108 6.938-3.992 6.967-4.533H4.616V-5.816H5.899C6.411-5.816 6.81-5.802 7.095-5.773V-6.543C6.781-6.515 6.383-6.5 5.899-6.5H4.616V-7.954H6.155C6.696-7.954 7.152-7.939 7.523-7.911V-8.681C7.152-8.652 6.711-8.638 6.198-8.638H2.052C1.596-8.638 1.197-8.652 .855-8.681V-7.911C1.225-7.939 1.624-7.954 2.052-7.954H3.804V-6.5H2.394C2.023-6.5 1.695-6.515 1.411-6.543V-5.773C1.695-5.802 2.023-5.816 2.394-5.816H3.804V-4.533H1.496C1.524-4.105 1.539-3.236 1.539-1.924 1.539-.613 1.524 .214 1.496 .556H6.967C6.938 .185 6.924-.627 6.924-1.882M3.804-.128H2.3509999V-1.667H3.804ZM3.804-2.309H2.3509999V-3.848H3.804ZM6.112-.128H4.616V-1.667H6.112ZM6.112-2.309H4.616V-3.848H6.112ZM6.112-3.849" fill="#f43040"/>
<path transform="matrix(1,0,0,-1,95.5768,202.33069)" d="M0 0H4.274C4.246-.656 4.232-1.255 4.232-1.796V-6.586C4.232-7.099 4.246-7.612 4.274-8.125H3.419V-7.099H-2.308V-8.125H-3.163C-3.135-7.583-3.12-7.085-3.12-6.628V-1.753C-3.12-1.24-3.135-.656-3.163 0H-.812C-.699 .77-.627 1.34-.598 1.711-.256 1.596 .114 1.511 .513 1.454 .342 1.197 .171 .712 0 0M3.419-.727H-2.3090003V-2.138H3.419ZM3.419-2.822H-2.3090003V-4.19H3.419ZM3.419-4.875H-2.3090003V-6.415H3.419ZM3.419-6.415" fill="#2c292a"/>
<path transform="matrix(1,0,0,-1,102.202,205.00351)" d="M0 0C.057 .556 .1 1.09 .128 1.604 .413 1.546 .698 1.518 .983 1.518 .926 1.147 .869 .712 .812 .214 .755-.285 .698-.763 .641-1.219 .385-1.162 .114-1.133-.171-1.133-.114-.934-.057-.556 0 0M.833-3.592C1.104-2.894 1.275-2.188 1.346-1.475 1.417-.763 1.46 .092 1.475 1.09 1.489 2.088 1.481 3.128 1.453 4.212 1.766 4.098 2.08 4.055 2.394 4.084 2.308 3.884 2.265 3.457 2.265 2.801V1.475C2.55 1.703 2.792 1.931 2.992 2.16 3.134 1.931 3.305 1.703 3.505 1.475 3.22 1.304 2.806 1.033 2.265 .663 2.265 .092 2.208-.834 2.094-2.117 2.607-2.459 3.078-2.859 3.505-3.314 3.248-3.543 3.049-3.742 2.906-3.913 2.479-3.4 2.151-3.072 1.923-2.929 1.667-3.899 1.282-4.825 .769-5.709 .541-5.509 .256-5.381-.085-5.324 .256-4.868 .562-4.291 .833-3.592M3.248-5.794C3.02-5.623 2.778-5.495 2.522-5.41 3.035-4.668 3.419-3.956 3.676-3.271 3.904-3.414 4.174-3.528 4.488-3.614 4.317-3.87 3.904-4.597 3.248-5.794M4.232 .535C4.345 .706 4.459 .919 4.573 1.176 4.887 1.033 5.129 .919 5.3 .834 5.414 1.233 5.499 1.66 5.557 2.117H4.659C4.374 1.404 4.089 .762 3.804 .192 3.604 .306 3.348 .392 3.035 .449 3.462 1.161 3.775 1.874 3.975 2.587 4.174 3.299 4.288 3.841 4.317 4.212 4.602 4.127 4.929 4.055 5.3 3.998 5.186 3.855 5.044 3.443 4.873 2.758H6.369C6.226 1.418 5.991 .349 5.663-.449 5.336-1.247 4.744-2.031 3.89-2.801 3.747-2.602 3.49-2.431 3.12-2.288 3.576-2.003 3.96-1.646 4.274-1.219 4.046-.991 3.818-.806 3.59-.663 3.789-.464 3.946-.278 4.061-.107 4.288-.307 4.502-.492 4.702-.663 4.929-.293 5.058-.05 5.086 .064 4.801 .263 4.516 .42 4.232 .535M4.744-3.742 5.428-3.485C5.627-3.998 5.87-4.625 6.155-5.367 5.813-5.452 5.557-5.538 5.386-5.623 5.129-4.825 4.915-4.198 4.744-3.742M8.249-1.454C8.021-.956 7.85-.492 7.737-.064 7.679-.464 7.494-.97 7.181-1.582 6.867-2.196 6.482-2.716 6.027-3.143 5.856-2.972 5.599-2.816 5.257-2.673 5.627-2.388 6.019-1.946 6.433-1.347 6.846-.748 7.095-.007 7.181 .877 6.753 .877 6.439 .862 6.24 .834V1.604C6.468 1.575 6.81 1.561 7.266 1.561 7.266 2.587 7.252 3.528 7.224 4.383 7.48 4.298 7.779 4.255 8.121 4.255 8.064 4.141 8.036 3.785 8.036 3.186V1.561C8.463 1.561 8.976 1.575 9.574 1.604V.834C9.004 .862 8.549 .877 8.207 .877 8.349 .107 8.584-.556 8.912-1.112 9.239-1.668 9.617-2.089 10.045-2.373 9.674-2.544 9.403-2.744 9.232-2.972 8.805-2.459 8.477-1.953 8.249-1.454M7.822-5.068C7.651-5.124 7.409-5.224 7.095-5.367 6.924-4.825 6.696-4.241 6.411-3.614 6.668-3.528 6.896-3.428 7.095-3.314 7.465-4.169 7.708-4.753 7.822-5.068M7.907-3.443C8.164-3.3 8.363-3.172 8.506-3.058 9.132-3.913 9.588-4.611 9.874-5.153 9.645-5.239 9.432-5.381 9.232-5.581 8.976-5.096 8.534-4.383 7.907-3.443M8.207 3.1C8.378 3.214 8.563 3.342 8.762 3.485 9.104 3.086 9.389 2.701 9.617 2.331 9.446 2.245 9.261 2.117 9.062 1.946 8.833 2.345 8.549 2.73 8.207 3.1" fill="#2c292a"/>
<path transform="matrix(1,0,0,-1,116.9911,206.5216)" d="M0 0C.028 .627 .043 1.155 .043 1.582V2.095H-1.368C-1.482 1.382-1.71 .813-2.052 .385-2.394-.043-2.764-.371-3.163-.599-3.306-.342-3.534-.071-3.847 .214-3.306 .413-2.914 .677-2.672 1.005-2.43 1.332-2.265 1.696-2.18 2.095-2.693 2.095-3.248 2.081-3.847 2.053V2.865C-3.22 2.836-2.636 2.822-2.094 2.822-2.066 3.421-2.052 4.02-2.052 4.619-2.451 4.619-2.864 4.604-3.291 4.576V5.345C-2.893 5.317-2.422 5.303-1.881 5.303H.641C.954 5.303 1.325 5.317 1.752 5.345V4.576C1.382 4.604 1.083 4.619 .855 4.619V2.822C1.225 2.822 1.624 2.836 2.052 2.865V2.053C1.624 2.081 1.225 2.095 .855 2.095V1.54C.855 1.026 .869 .513 .898 0ZM.641-1.026C.641-.798 .626-.485 .598-.086H1.496C1.467-.485 1.453-.798 1.453-1.026H3.291C3.861-1.026 4.374-1.012 4.83-.984V-1.796C4.288-1.768 3.775-1.753 3.291-1.753H1.453V-3.122H4.531C5.015-3.122 5.485-3.107 5.941-3.079V-3.892C5.514-3.863 5.058-3.849 4.573-3.849H-2.351C-2.893-3.849-3.377-3.863-3.804-3.892V-3.079C-3.377-3.107-2.893-3.122-2.351-3.122H.641V-1.753H-1.026C-1.624-1.753-2.223-1.768-2.821-1.796L-2.693-.984C-2.18-1.012-1.624-1.026-1.026-1.026ZM.043 2.822V4.619H-1.282C-1.311 3.791-1.325 3.193-1.325 2.822ZM3.334 3.763V2.438C3.334 2.01 3.348 1.568 3.377 1.112H2.522C2.55 1.568 2.564 2.01 2.564 2.438V3.763C2.564 4.304 2.55 4.747 2.522 5.089H3.377C3.348 4.747 3.334 4.304 3.334 3.763M5.343 4.362V1.069C5.371 .556 5.293 .199 5.108 0 4.922-.2 4.516-.342 3.89-.428 3.804-.143 3.676 .185 3.505 .556 4.075 .527 4.395 .556 4.467 .641 4.537 .727 4.573 .941 4.573 1.283V4.362C4.573 4.875 4.559 5.374 4.531 5.859H5.386C5.357 5.374 5.343 4.875 5.343 4.362" fill="#2c292a"/>
<path transform="matrix(1,0,0,-1,129.3437,207.44101)" d="M0 0C-.057-.414-.221-.834-.492-1.262-.763-1.689-1.226-2.081-1.881-2.438-2.537-2.794-3.505-3.086-4.787-3.314-4.845-2.943-5.001-2.615-5.257-2.331-4.403-2.302-3.676-2.209-3.078-2.053-2.479-1.896-2.016-1.661-1.688-1.347-1.361-1.034-1.133-.663-1.004-.235-.876 .192-.841 .677-.898 1.219-.357 1.161 .014 1.133 .214 1.133 .128 .791 .057 .413 0 0M3.334 .235C3.334-.136 3.362-.492 3.419-.834H2.394V1.903H-3.206V-.919H-4.189C-4.189-.606-4.175-.293-4.146 .021V1.347C-4.175 1.746-4.189 2.16-4.189 2.587H3.419C3.362 2.387 3.334 1.989 3.334 1.39ZM2.992 5.239V4.512C2.992 4.169 3.006 3.827 3.035 3.485H-3.761C-3.733 3.827-3.719 4.169-3.719 4.512V5.239C-3.719 5.609-3.733 5.98-3.761 6.35H3.035C3.006 5.98 2.992 5.609 2.992 5.239M2.094 5.623H-2.864V4.169H2.094ZM2.522-1.454C3.063-1.697 3.704-2.017 4.445-2.416 4.16-2.786 3.989-3.058 3.932-3.229 3.191-2.801 2.607-2.473 2.18-2.245 1.752-2.017 1.154-1.775 .385-1.518 .47-1.347 .598-1.076 .769-.706 1.396-.962 1.98-1.212 2.522-1.454" fill="#2c292a"/>
<path transform="matrix(1,0,0,-1,142.0384,201.561)" d="M0 0C.684 0 1.31 .014 1.881 .043V-.813C1.31-.784 .684-.77 0-.77H-1.753V-7.526H1.026C1.681-7.526 2.279-7.512 2.821-7.484V-8.339C2.279-8.31 1.695-8.296 1.069-8.296H-5.557C-6.184-8.296-6.725-8.31-7.181-8.339V-7.484C-6.697-7.512-6.141-7.526-5.514-7.526H-2.693V-.77H-4.403C-5.144-.77-5.785-.784-6.326-.813V.043C-5.785 .014-5.144 0-4.403 0Z" fill="#2c292a"/>
<path transform="matrix(1,0,0,-1,159.522,260.1676)" d="M0 0C-.086-.328-.2-.777-.342-1.347H3.078C3.362-1.347 3.789-1.333 4.36-1.304V-2.117C3.789-2.089 3.362-2.074 3.078-2.074H-.513C-.684-2.502-.87-2.929-1.069-3.357H3.462C2.921-4.669 2.165-5.766 1.197-6.65 1.966-7.192 3.092-7.548 4.573-7.719 4.374-7.947 4.203-8.232 4.061-8.574 3.49-8.46 2.907-8.296 2.308-8.082 1.71-7.869 1.125-7.562 .556-7.163 .099-7.448-.456-7.726-1.111-7.997-1.767-8.267-2.436-8.489-3.12-8.66-3.178-8.374-3.32-8.104-3.548-7.847-2.921-7.762-2.294-7.612-1.667-7.398-1.041-7.184-.485-6.921 0-6.607-.485-6.123-1.026-5.424-1.624-4.512-1.938-5.025-2.337-5.524-2.821-6.008-3.306-6.493-3.833-6.935-4.402-7.334-4.517-7.135-4.744-6.921-5.086-6.693-4.659-6.465-4.239-6.165-3.825-5.795-3.413-5.424-2.978-4.933-2.522-4.319-2.066-3.706-1.682-2.958-1.368-2.074-2.109-2.074-2.679-2.089-3.077-2.117-3.477-2.146-3.776-2.202-3.975-2.288-4.061-2.031-4.175-1.761-4.317-1.475-4.033-1.419-3.825-1.205-3.697-.834-3.569-.464-3.434 .107-3.291 .877-3.063 .762-2.75 .648-2.351 .535-2.494 .249-2.622-.043-2.736-.342-2.85-.641-2.978-.977-3.12-1.347H-1.154C-.926-.435-.755 .434-.641 1.262-.328 1.09 0 .99 .342 .962 .199 .648 .085 .327 0 0M.641-6.179C1.268-5.666 1.823-4.954 2.308-4.041H-1.026C-.627-4.754-.072-5.467 .641-6.179M3.377-.449C3.177-.563 2.935-.748 2.65-1.005 2.194-.349 1.753 .206 1.325 .663 1.524 .805 1.724 .99 1.923 1.219 2.408 .677 2.892 .121 3.377-.449" fill="#f43040"/>
<path transform="matrix(1,0,0,-1,167.5149,264.2943)" d="M0 0V-3.079C-.057-3.421-.178-3.656-.363-3.785-.549-3.913-.955-4.034-1.581-4.148-1.581-3.834-1.667-3.507-1.838-3.165-1.354-3.193-1.047-3.179-.919-3.122-.791-3.065-.727-2.894-.727-2.609V-.257C-1.04-.342-1.425-.513-1.881-.77-2.024-.314-2.137 .014-2.223 .214-1.482 .327-.983 .442-.727 .556V2.523H-.983C-1.382 2.523-1.71 2.508-1.966 2.48V3.293C-1.71 3.264-1.382 3.25-.983 3.25H-.727V4.49C-.727 4.889-.741 5.26-.769 5.602H.086C.028 5.288 0 4.918 0 4.49V3.25C.37 3.25 .727 3.264 1.069 3.293V2.48C.669 2.508 .313 2.523 0 2.523V.77C.399 .883 .755 1.012 1.069 1.155 1.097 .784 1.125 .541 1.154 .428 .584 .228 .199 .086 0 0M7.266 4.276V3.378C7.266 3.15 7.28 2.922 7.309 2.694H2.479C2.479 1.867 2.458 1.097 2.415 .385 2.372-.328 2.244-1.141 2.03-2.053 1.817-2.965 1.51-3.734 1.111-4.362 .855-4.162 .57-3.977 .257-3.806 .826-3.094 1.211-2.217 1.411-1.176 1.61-.136 1.71 .798 1.71 1.625V3.763C1.71 4.39 1.681 4.875 1.624 5.217H7.352C7.323 5.046 7.294 4.732 7.266 4.276M6.497 4.533H2.479V3.421H6.497ZM7.48-3.25C7.48-3.678 7.508-4.02 7.566-4.276H6.668V-3.934H2.736C2.764-3.507 2.778-3.094 2.778-2.694 2.778-2.295 2.764-1.782 2.736-1.155H3.59C3.562-1.411 3.548-1.811 3.548-2.352V-3.207H4.744V-.556H2.992V.684C2.992 1.14 2.977 1.511 2.949 1.796H3.761C3.733 1.482 3.719 1.211 3.719 .984V.128H4.744V1.326C4.744 1.525 4.73 1.81 4.702 2.181H5.557C5.528 2.038 5.499 1.739 5.471 1.283V.128H6.454C6.454 .498 6.447 .805 6.433 1.048 6.418 1.29 6.397 1.511 6.369 1.711H7.266C7.238 1.34 7.224 .955 7.224 .556 7.224 .156 7.238-.214 7.266-.556H5.471V-3.207H6.668V-2.609C6.668-1.953 6.653-1.483 6.625-1.197H7.566C7.508-1.397 7.48-1.768 7.48-2.309Z" fill="#f43040"/>
<path transform="matrix(1,0,0,-1,233.1205,260.0179)" d="M0 0C0 .399-.029 .798-.086 1.197H.855C.797 .855 .769 .456 .769 0V-1.112C1.083-1.112 1.467-1.098 1.923-1.069V-1.839C1.467-1.811 1.083-1.796 .769-1.796V-3.763C1.054-3.65 1.368-3.493 1.71-3.293 1.738-3.521 1.781-3.792 1.838-4.105 1.581-4.191 1.225-4.334 .769-4.533V-7.698C.741-7.954 .626-8.147 .427-8.275 .228-8.403-.228-8.524-.94-8.638-.912-8.382-.998-8.04-1.197-7.612-.713-7.669-.392-7.676-.235-7.633-.079-7.591 0-7.47 0-7.27V-4.79C-.2-4.875-.598-5.075-1.197-5.388-1.282-5.16-1.439-4.861-1.667-4.49-1.354-4.433-.798-4.276 0-4.02V-1.796C-.57-1.796-1.026-1.811-1.368-1.839V-1.069C-1.055-1.098-.598-1.112 0-1.112ZM4.167 .363C4.039 .092 3.875-.229 3.676-.599H6.625C7.252-.599 7.807-.571 8.292-.513V-1.368C7.779-1.34 7.224-1.326 6.625-1.326H6.155V-2.694C6.924-2.694 7.523-2.68 7.95-2.651V-3.421C7.523-3.393 6.924-3.378 6.155-3.378V-4.875C6.952-4.875 7.551-4.861 7.95-4.832V-5.602C7.551-5.574 6.952-5.559 6.155-5.559V-7.056H6.882C7.48-7.056 8.036-7.042 8.549-7.013V-7.783C8.036-7.754 7.48-7.74 6.882-7.74H3.633V-8.638H2.821C2.849-8.153 2.864-7.441 2.864-6.5V-2.266C2.693-2.552 2.464-2.894 2.18-3.293 2.037-3.065 1.823-2.865 1.539-2.694 2.08-1.982 2.507-1.298 2.821-.641 3.134 .014 3.362 .67 3.505 1.326 3.818 1.155 4.146 1.04 4.488 .984 4.403 .841 4.296 .634 4.167 .363M5.343-1.326H3.633V-2.694H5.343ZM5.343-3.378H3.633V-4.875H5.343ZM5.343-5.559H3.633V-7.0559999H5.343ZM6.625 .171C6.482 .114 6.226-.029 5.856-.257 5.742 0 5.471 .399 5.044 .941 5.414 1.112 5.685 1.24 5.856 1.326 5.998 1.097 6.255 .712 6.625 .171" fill="#f43040"/>
<path transform="matrix(1,0,0,-1,242.524,262.4555)" d="M0 0C.427-.029 .94-.043 1.539-.043H3.163C3.676-.043 4.26-.029 4.915 0V-.77C4.26-.742 3.69-.727 3.206-.727H2.736C2.565-1.183 2.372-1.668 2.158-2.181 1.945-2.694 1.695-3.207 1.41-3.72 2.522-3.607 3.362-3.493 3.932-3.378 3.789-3.036 3.562-2.609 3.248-2.095 3.562-1.924 3.789-1.782 3.932-1.668 4.217-2.181 4.459-2.616 4.659-2.972 4.858-3.329 5.072-3.763 5.3-4.276 5.072-4.419 4.815-4.562 4.531-4.704 4.417-4.447 4.317-4.234 4.231-4.063 3.319-4.206 2.586-4.319 2.03-4.405 1.475-4.49 .997-4.604 .598-4.747 .484-4.462 .342-4.191 .171-3.934 .541-3.706 .876-3.25 1.175-2.566 1.475-1.882 1.695-1.269 1.838-.727H1.539C.94-.727 .427-.742 0-.77ZM2.949 2.395C3.433 2.395 3.975 2.409 4.573 2.438V1.625C3.975 1.653 3.433 1.668 2.949 1.668H1.923C1.467 1.668 1.026 1.653 .598 1.625V2.438C.997 2.409 1.424 2.395 1.881 2.395ZM7.565 3.507C7.508 3.221 7.473 2.901 7.459 2.544 7.444 2.188 7.437 1.753 7.437 1.24H9.831C9.802 .869 9.773 .456 9.745 0L9.532-4.875C9.446-5.445 9.211-5.794 8.826-5.923 8.442-6.051 8.007-6.143 7.523-6.201 7.437-5.859 7.294-5.545 7.095-5.26 7.722-5.288 8.149-5.253 8.378-5.153 8.605-5.053 8.72-4.861 8.72-4.576L8.976 .513H7.437C7.38-.742 7.288-1.697 7.159-2.352 7.031-3.008 6.831-3.614 6.561-4.169 6.29-4.725 5.742-5.445 4.915-6.329 4.63-6.044 4.374-5.859 4.146-5.773 4.687-5.345 5.129-4.896 5.471-4.426 5.813-3.956 6.055-3.471 6.198-2.972 6.34-2.474 6.439-1.953 6.497-1.411 6.554-.87 6.596-.229 6.625 .513H5.898C5.585 .513 5.215 .498 4.787 .47V1.283C5.215 1.254 5.613 1.24 5.984 1.24H6.625V2.438C6.625 2.836 6.61 3.235 6.582 3.635 6.924 3.549 7.251 3.507 7.565 3.507" fill="#f43040"/>
</g>
<path transform="matrix(1,0,0,-1,203.8442,268.8402)" d="M0 0V-.712H-1.144L-37.251-25.07-36.678-26.059-.757-1.826-.918-1.718-.28-.772 .263-1.138 .61-.904Z" fill="#2c292a"/>
<path transform="matrix(1,0,0,-1,202.6998,269.5525)" d="M0 0H1.145V.712L1.117 .753Z" fill="#2c292a"/>
<path transform="matrix(1,0,0,-1,204.107,269.9786)" d="M0 0-1.02-.688 36.864-26.244 37.438-25.256Z" fill="#2c292a"/>
<path transform="matrix(1,0,0,-1,203.5642,269.6124)" d="M0 0-.638-.945-.477-1.054 .543-.366Z" fill="#2c292a"/>
<path transform="matrix(1,0,0,-1,157.913,300.5441)" d="M0 0 45.307 78.001 90.615 0Z" fill="#ffffff"/>
<path transform="matrix(1,0,0,-1,157.913,300.5441)" stroke-width="1" stroke-linecap="butt" stroke-miterlimit="10" stroke-linejoin="miter" fill="none" stroke="#f43040" d="M0 0 45.307 78.001 90.615 0H0Z"/>
<g clip-path="url(#clip_5)">
<path transform="matrix(1,0,0,-1,192.2604,266.9724)" d="M0 0C-.456 .028-.983 .043-1.581 .043L-1.154-.813C-1.496-.898-1.795-.998-2.052-1.112-2.137-.713-2.251-.328-2.394 .043H-2.949C-3.206-.271-3.427-.521-3.612-.706-3.797-.891-4.018-1.084-4.274-1.283-4.445-1.055-4.702-.855-5.044-.684-4.445-.285-3.99 .114-3.676 .513-3.363 .912-3.135 1.326-2.992 1.753-2.736 1.639-2.38 1.525-1.923 1.411-2.123 1.211-2.308 .984-2.479 .727H-1.069C-.727 .727-.371 .741 0 .77ZM.513-1.582H4.702C4.673-1.982 4.659-2.281 4.659-2.48 4.659-2.651 4.673-2.908 4.702-3.25H3.761V-2.267H-3.975V-3.293H-4.915C-4.887-3.036-4.873-2.78-4.873-2.523-4.873-2.267-4.887-1.953-4.915-1.582H-.47C-.556-1.354-.699-1.069-.898-.727-.613-.67-.342-.556-.085-.385 .257-1.041 .456-1.44 .513-1.582M2.907-3.977C2.907-4.177 2.921-4.49 2.949-4.918H-2.308V-5.645H3.377C3.348-6.272 3.334-6.743 3.334-7.056 3.334-7.341 3.348-7.74 3.377-8.253H2.522V-7.826H-2.308V-8.382H-3.206C-3.178-7.64-3.163-7.199-3.163-7.056V-4.362C-3.163-3.878-3.178-3.407-3.206-2.951H2.949C2.921-3.407 2.907-3.749 2.907-3.977M2.094-3.592H-2.3089998V-4.276H2.094ZM2.522-6.329H-2.3079999V-7.184H2.522ZM2.864-1.155C2.778-.756 2.65-.357 2.479 .043H1.667C1.411-.357 1.197-.684 1.026-.941 .712-.77 .427-.613 .171-.47 .513-.157 .783 .178 .983 .535 1.182 .891 1.339 1.283 1.453 1.711 1.767 1.596 2.122 1.497 2.522 1.411 2.293 1.211 2.122 .984 2.009 .727H3.676C3.932 .727 4.345 .741 4.915 .77V0C4.488 .028 3.946 .043 3.291 .043L3.719-.813Z" fill="#2c292a"/>
<path transform="matrix(1,0,0,-1,200.6381,266.5448)" d="M0 0C.313 0 .655 .014 1.026 .043V-.77C.626-.742 .285-.727 0-.727H-.385V-3.036C.014-3.036 .413-3.022 .812-2.993V-3.806C.413-3.778 .014-3.763-.385-3.763V-6.5C.156-6.301 .612-6.115 .983-5.944 1.04-6.229 1.097-6.472 1.154-6.671 .612-6.842 .007-7.063-.663-7.334-1.332-7.605-1.853-7.854-2.223-8.082-2.337-7.797-2.465-7.498-2.607-7.184-2.237-7.128-1.752-6.971-1.154-6.714V-3.763C-1.667-3.763-2.109-3.778-2.479-3.806V-2.993C-2.08-3.022-1.639-3.036-1.154-3.036V-.727H-1.667C-1.923-.727-2.237-.742-2.607-.77V.043C-2.237 .014-1.923 0-1.667 0ZM6.924-1.882C6.924-3.108 6.938-3.992 6.967-4.533H4.616V-5.816H5.899C6.411-5.816 6.81-5.802 7.095-5.773V-6.543C6.781-6.515 6.383-6.5 5.899-6.5H4.616V-7.954H6.155C6.696-7.954 7.152-7.939 7.523-7.911V-8.681C7.152-8.652 6.711-8.638 6.198-8.638H2.052C1.596-8.638 1.197-8.652 .855-8.681V-7.911C1.225-7.939 1.624-7.954 2.052-7.954H3.804V-6.5H2.394C2.023-6.5 1.695-6.515 1.411-6.543V-5.773C1.695-5.802 2.023-5.816 2.394-5.816H3.804V-4.533H1.496C1.524-4.105 1.539-3.236 1.539-1.924 1.539-.613 1.524 .214 1.496 .556H6.967C6.938 .185 6.924-.627 6.924-1.882M3.804-.128H2.3509999V-1.667H3.804ZM3.804-2.309H2.3509999V-3.848H3.804ZM6.112-.128H4.616V-1.667H6.112ZM6.112-2.309H4.616V-3.848H6.112ZM6.112-3.849" fill="#2c292a"/>
<path transform="matrix(1,0,0,-1,217.4575,267.6567)" d="M0 0C-.299-.314-.72-.742-1.261-1.283H-.064C.42-1.283 .919-1.269 1.432-1.24V-2.01C.919-1.982 .406-1.967-.107-1.967H-2.116C-2.572-2.309-3.085-2.68-3.654-3.079H-.021C-.05-3.592-.064-4.063-.064-4.49V-5.987C-.064-6.5-.05-7.056-.021-7.655H-.876V-7.013H-4.979V-7.655H-5.877C-5.849-7.198-5.834-6.771-5.834-6.372V-4.405C-6.405-4.719-7.046-5.032-7.758-5.345-8.043-4.947-8.243-4.704-8.356-4.618-8.157-4.562-7.779-4.426-7.224-4.212-6.668-3.998-6.205-3.763-5.834-3.507V-3.079H-5.022C-4.396-2.737-3.84-2.367-3.355-1.967H-6.39C-6.989-1.967-7.544-1.982-8.057-2.01V-1.24C-7.487-1.269-6.932-1.283-6.39-1.283H-4.125V.043H-5.407C-5.892 .043-6.333 .028-6.732 0V.77C-6.333 .741-5.892 .727-5.407 .727H-4.125C-4.125 1.155-4.139 1.639-4.167 2.181H-3.227C-3.256 1.781-3.27 1.297-3.27 .727H-2.629C-2.259 .727-1.831 .741-1.346 .77V0C-1.831 .028-2.259 .043-2.629 .043H-3.27V-1.283H-2.415C-2.016-.97-1.618-.599-1.218-.171-.82 .257-.406 .798 .021 1.454 .335 1.14 .591 .912 .791 .77 .562 .57 .299 .313 0 0M-.876-3.763H-4.979V-4.6610004H-.876ZM-.876-5.345H-4.979V-6.329H-.876ZM-.876-6.329" fill="#2c292a"/>
<path transform="matrix(1,0,0,-1,203.2454,331.5566)" d="M0 0C-15.18 0-29.451 5.914-40.185 16.653-50.918 27.392-56.83 41.67-56.83 56.857-56.83 72.044-50.918 86.322-40.185 97.061-29.451 107.8-15.18 113.714 0 113.714 15.18 113.714 29.451 107.8 40.185 97.061 50.918 86.322 56.829 72.044 56.829 56.857 56.829 41.67 50.918 27.392 40.185 16.653 29.451 5.914 15.18 0 0 0M0 112.574C-30.707 112.574-55.689 87.58-55.689 56.857-55.689 26.135-30.707 1.14 0 1.14 30.707 1.14 55.689 26.135 55.689 56.857 55.689 87.58 30.707 112.574 0 112.574" fill="#2c292a"/>
<path transform="matrix(1,0,0,-1,271.1329,201.561)" d="M0 0C.455 0 .94 .014 1.453 .043V-.77C.997-.742 .527-.727 .043-.727H-.214V-7.783C-.214-8.296-.363-8.631-.663-8.788-.962-8.944-1.568-9.066-2.479-9.151-2.537-8.781-2.65-8.439-2.821-8.125-2.223-8.153-1.795-8.139-1.539-8.082-1.282-8.025-1.154-7.869-1.154-7.612V-.727H-6.283C-7.025-.727-7.694-.742-8.292-.77V.043C-7.694 .014-7.039 0-6.326 0ZM-2.778-3.25V-5.345C-2.778-5.831-2.764-6.244-2.736-6.586H-3.633V-5.816H-6.069V-6.971H-6.924C-6.896-6.771-6.882-6.443-6.882-5.987V-3.25C-6.882-2.794-6.896-2.381-6.924-2.01H-2.736C-2.764-2.381-2.778-2.794-2.778-3.25M-3.633-2.737H-6.0690004V-5.0889999H-3.633ZM-3.633-5.089" fill="#2c292a"/>
<path transform="matrix(1,0,0,-1,273.8257,205.00351)" d="M0 0C.057 .556 .1 1.09 .128 1.604 .413 1.546 .698 1.518 .983 1.518 .926 1.147 .869 .712 .812 .214 .755-.285 .698-.763 .641-1.219 .385-1.162 .114-1.133-.171-1.133-.114-.934-.057-.556 0 0M.834-3.592C1.104-2.894 1.275-2.188 1.346-1.475 1.417-.763 1.46 .092 1.475 1.09 1.489 2.088 1.481 3.128 1.453 4.212 1.767 4.098 2.08 4.055 2.394 4.084 2.308 3.884 2.265 3.457 2.265 2.801V1.475C2.55 1.703 2.792 1.931 2.992 2.16 3.134 1.931 3.305 1.703 3.505 1.475 3.22 1.304 2.806 1.033 2.265 .663 2.265 .092 2.208-.834 2.094-2.117 2.607-2.459 3.078-2.859 3.505-3.314 3.249-3.543 3.049-3.742 2.907-3.913 2.479-3.4 2.151-3.072 1.923-2.929 1.667-3.899 1.282-4.825 .769-5.709 .541-5.509 .256-5.381-.086-5.324 .256-4.868 .562-4.291 .834-3.592M3.249-5.794C3.02-5.623 2.778-5.495 2.522-5.41 3.035-4.668 3.419-3.956 3.676-3.271 3.904-3.414 4.174-3.528 4.488-3.614 4.317-3.87 3.904-4.597 3.249-5.794M4.232 .535C4.345 .706 4.459 .919 4.574 1.176 4.887 1.033 5.129 .919 5.3 .834 5.414 1.233 5.499 1.66 5.557 2.117H4.659C4.374 1.404 4.089 .762 3.804 .192 3.604 .306 3.348 .392 3.035 .449 3.462 1.161 3.775 1.874 3.975 2.587 4.174 3.299 4.288 3.841 4.317 4.212 4.602 4.127 4.93 4.055 5.3 3.998 5.186 3.855 5.044 3.443 4.873 2.758H6.369C6.226 1.418 5.991 .349 5.663-.449 5.335-1.247 4.744-2.031 3.89-2.801 3.747-2.602 3.49-2.431 3.12-2.288 3.576-2.003 3.96-1.646 4.274-1.219 4.046-.991 3.818-.806 3.591-.663 3.789-.464 3.946-.278 4.061-.107 4.288-.307 4.502-.492 4.702-.663 4.93-.293 5.058-.05 5.086 .064 4.801 .263 4.516 .42 4.232 .535M4.744-3.742 5.428-3.485C5.627-3.998 5.87-4.625 6.155-5.367 5.813-5.452 5.557-5.538 5.386-5.623 5.129-4.825 4.916-4.198 4.744-3.742M8.249-1.454C8.021-.956 7.85-.492 7.736-.064 7.679-.464 7.494-.97 7.181-1.582 6.867-2.196 6.482-2.716 6.027-3.143 5.856-2.972 5.599-2.816 5.257-2.673 5.627-2.388 6.019-1.946 6.433-1.347 6.846-.748 7.095-.007 7.181 .877 6.753 .877 6.439 .862 6.241 .834V1.604C6.468 1.575 6.81 1.561 7.266 1.561 7.266 2.587 7.252 3.528 7.224 4.383 7.48 4.298 7.779 4.255 8.121 4.255 8.064 4.141 8.036 3.785 8.036 3.186V1.561C8.463 1.561 8.976 1.575 9.574 1.604V.834C9.004 .862 8.549 .877 8.207 .877 8.349 .107 8.584-.556 8.912-1.112 9.239-1.668 9.617-2.089 10.045-2.373 9.674-2.544 9.403-2.744 9.233-2.972 8.805-2.459 8.477-1.953 8.249-1.454M7.822-5.068C7.651-5.124 7.409-5.224 7.095-5.367 6.924-4.825 6.696-4.241 6.411-3.614 6.668-3.528 6.896-3.428 7.095-3.314 7.465-4.169 7.708-4.753 7.822-5.068M7.908-3.443C8.164-3.3 8.363-3.172 8.506-3.058 9.132-3.913 9.588-4.611 9.874-5.153 9.645-5.239 9.431-5.381 9.233-5.581 8.976-5.096 8.534-4.383 7.908-3.443M8.207 3.1C8.378 3.214 8.563 3.342 8.762 3.485 9.104 3.086 9.389 2.701 9.617 2.331 9.446 2.245 9.261 2.117 9.061 1.946 8.833 2.345 8.549 2.73 8.207 3.1" fill="#2c292a"/>
<path transform="matrix(1,0,0,-1,288.6149,206.5216)" d="M0 0C.028 .627 .043 1.155 .043 1.582V2.095H-1.368C-1.482 1.382-1.71 .813-2.052 .385-2.394-.043-2.764-.371-3.163-.599-3.306-.342-3.534-.071-3.847 .214-3.306 .413-2.914 .677-2.671 1.005-2.43 1.332-2.266 1.696-2.18 2.095-2.693 2.095-3.249 2.081-3.847 2.053V2.865C-3.22 2.836-2.636 2.822-2.094 2.822-2.066 3.421-2.052 4.02-2.052 4.619-2.451 4.619-2.864 4.604-3.291 4.576V5.345C-2.893 5.317-2.422 5.303-1.881 5.303H.641C.954 5.303 1.325 5.317 1.752 5.345V4.576C1.382 4.604 1.083 4.619 .855 4.619V2.822C1.225 2.822 1.624 2.836 2.052 2.865V2.053C1.624 2.081 1.225 2.095 .855 2.095V1.54C.855 1.026 .869 .513 .898 0ZM.641-1.026C.641-.798 .626-.485 .598-.086H1.496C1.467-.485 1.453-.798 1.453-1.026H3.291C3.861-1.026 4.374-1.012 4.83-.984V-1.796C4.288-1.768 3.775-1.753 3.291-1.753H1.453V-3.122H4.531C5.015-3.122 5.485-3.107 5.941-3.079V-3.892C5.514-3.863 5.058-3.849 4.573-3.849H-2.351C-2.893-3.849-3.377-3.863-3.804-3.892V-3.079C-3.377-3.107-2.893-3.122-2.351-3.122H.641V-1.753H-1.026C-1.624-1.753-2.223-1.768-2.821-1.796L-2.693-.984C-2.18-1.012-1.624-1.026-1.026-1.026ZM.043 2.822V4.619H-1.282C-1.311 3.791-1.325 3.193-1.325 2.822ZM3.334 3.763V2.438C3.334 2.01 3.348 1.568 3.377 1.112H2.522C2.55 1.568 2.564 2.01 2.564 2.438V3.763C2.564 4.304 2.55 4.747 2.522 5.089H3.377C3.348 4.747 3.334 4.304 3.334 3.763M5.343 4.362V1.069C5.371 .556 5.293 .199 5.108 0 4.922-.2 4.516-.342 3.889-.428 3.804-.143 3.676 .185 3.505 .556 4.075 .527 4.395 .556 4.467 .641 4.537 .727 4.573 .941 4.573 1.283V4.362C4.573 4.875 4.559 5.374 4.531 5.859H5.386C5.357 5.374 5.343 4.875 5.343 4.362" fill="#2c292a"/>
<path transform="matrix(1,0,0,-1,300.9675,207.44101)" d="M0 0C-.057-.414-.221-.834-.492-1.262-.763-1.689-1.226-2.081-1.881-2.438-2.537-2.794-3.505-3.086-4.787-3.314-4.845-2.943-5.001-2.615-5.257-2.331-4.403-2.302-3.676-2.209-3.078-2.053-2.479-1.896-2.016-1.661-1.688-1.347-1.361-1.034-1.133-.663-1.004-.235-.876 .192-.841 .677-.898 1.219-.357 1.161 .014 1.133 .214 1.133 .128 .791 .057 .413 0 0M3.334 .235C3.334-.136 3.362-.492 3.419-.834H2.394V1.903H-3.206V-.919H-4.189C-4.189-.606-4.175-.293-4.146 .021V1.347C-4.175 1.746-4.189 2.16-4.189 2.587H3.419C3.362 2.387 3.334 1.989 3.334 1.39ZM2.992 5.239V4.512C2.992 4.169 3.006 3.827 3.035 3.485H-3.761C-3.733 3.827-3.719 4.169-3.719 4.512V5.239C-3.719 5.609-3.733 5.98-3.761 6.35H3.035C3.006 5.98 2.992 5.609 2.992 5.239M2.094 5.623H-2.864V4.169H2.094ZM2.522-1.454C3.063-1.697 3.704-2.017 4.445-2.416 4.16-2.786 3.989-3.058 3.932-3.229 3.191-2.801 2.607-2.473 2.18-2.245 1.752-2.017 1.154-1.775 .385-1.518 .47-1.347 .598-1.076 .769-.706 1.396-.962 1.98-1.212 2.522-1.454" fill="#2c292a"/>
<path transform="matrix(1,0,0,-1,313.662,201.561)" d="M0 0C.684 0 1.31 .014 1.881 .043V-.813C1.31-.784 .684-.77 0-.77H-1.752V-7.526H1.026C1.681-7.526 2.28-7.512 2.821-7.484V-8.339C2.28-8.31 1.695-8.296 1.069-8.296H-5.556C-6.184-8.296-6.725-8.31-7.181-8.339V-7.484C-6.697-7.512-6.141-7.526-5.514-7.526H-2.693V-.77H-4.402C-5.144-.77-5.785-.784-6.326-.813V.043C-5.785 .014-5.144 0-4.402 0Z" fill="#2c292a"/>
<path transform="matrix(1,0,0,-1,178.2852,346.45863)" d="M0 0V-8.553H-.898C-.87-7.641-.855-6.785-.855-5.987V-1.069C-.855-.442-.87 .156-.898 .727H2.394C1.966-.528 1.624-1.568 1.368-2.395 1.767-3.022 2.044-3.521 2.201-3.892 2.358-4.262 2.415-4.647 2.372-5.046 2.329-5.446 2.151-5.724 1.838-5.88 1.524-6.037 1.125-6.158 .641-6.244 .584-5.959 .498-5.645 .385-5.303 .898-5.331 1.225-5.253 1.368-5.068 1.51-4.882 1.553-4.633 1.496-4.319 1.439-4.006 1.318-3.699 1.133-3.4 .947-3.1 .741-2.808 .513-2.523 .655-2.124 .783-1.711 .898-1.283L1.24 0ZM7.437-1.283V-7.484C7.836-7.484 8.249-7.47 8.677-7.441V-8.296C8.164-8.267 7.694-8.253 7.266-8.253H3.59C2.963-8.253 2.365-8.267 1.795-8.296V-7.441C2.165-7.47 2.536-7.484 2.907-7.484V-1.283C2.907-.599 2.892-.015 2.864 .47H7.48C7.451 .014 7.437-.571 7.437-1.283M6.582-.257H3.7609997V-2.181H6.582ZM6.582-2.865H3.7609997V-4.6610004H6.582ZM6.582-5.345H3.7609997V-7.483H6.582ZM6.582-7.484" fill="#2c292a"/>
<path transform="matrix(1,0,0,-1,188.0306,349.5589)" d="M0 0C.057 .556 .1 1.09 .128 1.604 .413 1.546 .698 1.518 .983 1.518 .926 1.147 .869 .712 .812 .214 .755-.285 .698-.763 .641-1.219 .385-1.162 .114-1.133-.171-1.133-.114-.934-.057-.556 0 0M.833-3.592C1.104-2.894 1.275-2.188 1.346-1.475 1.417-.763 1.46 .092 1.475 1.09 1.489 2.088 1.481 3.128 1.453 4.212 1.767 4.098 2.08 4.055 2.394 4.084 2.308 3.884 2.265 3.457 2.265 2.801V1.475C2.55 1.703 2.792 1.931 2.992 2.16 3.134 1.931 3.305 1.703 3.505 1.475 3.22 1.304 2.806 1.033 2.265 .663 2.265 .092 2.208-.834 2.094-2.117 2.607-2.459 3.077-2.858 3.505-3.314 3.248-3.543 3.049-3.742 2.907-3.913 2.479-3.4 2.151-3.072 1.923-2.929 1.667-3.899 1.282-4.825 .769-5.709 .541-5.509 .257-5.381-.085-5.324 .257-4.868 .562-4.291 .833-3.592M3.248-5.795C3.02-5.623 2.778-5.495 2.522-5.41 3.035-4.668 3.419-3.956 3.676-3.271 3.904-3.414 4.174-3.528 4.488-3.614 4.317-3.87 3.904-4.597 3.248-5.795M4.232 .535C4.345 .706 4.459 .919 4.573 1.176 4.887 1.033 5.129 .919 5.3 .834 5.414 1.233 5.499 1.66 5.557 2.117H4.659C4.374 1.404 4.089 .762 3.804 .192 3.604 .306 3.348 .392 3.035 .449 3.462 1.161 3.775 1.874 3.975 2.587 4.174 3.3 4.288 3.841 4.317 4.212 4.602 4.127 4.929 4.055 5.3 3.998 5.186 3.855 5.044 3.442 4.873 2.758H6.369C6.226 1.418 5.991 .349 5.663-.449 5.336-1.248 4.744-2.031 3.89-2.801 3.747-2.602 3.49-2.431 3.12-2.288 3.576-2.003 3.96-1.646 4.274-1.219 4.046-.991 3.818-.806 3.59-.663 3.789-.464 3.946-.278 4.061-.107 4.288-.307 4.502-.492 4.702-.663 4.929-.293 5.058-.05 5.086 .064 4.801 .263 4.516 .42 4.232 .535M4.744-3.742 5.428-3.485C5.627-3.998 5.87-4.625 6.155-5.367 5.813-5.452 5.557-5.538 5.386-5.623 5.129-4.825 4.915-4.198 4.744-3.742M8.249-1.454C8.021-.956 7.85-.492 7.737-.064 7.679-.464 7.494-.97 7.181-1.582 6.867-2.196 6.482-2.716 6.027-3.143 5.856-2.972 5.599-2.816 5.257-2.673 5.627-2.388 6.019-1.946 6.433-1.347 6.846-.748 7.095-.007 7.181 .877 6.753 .877 6.439 .862 6.24 .834V1.604C6.468 1.575 6.81 1.561 7.266 1.561 7.266 2.587 7.252 3.528 7.224 4.383 7.48 4.298 7.779 4.255 8.121 4.255 8.064 4.141 8.036 3.785 8.036 3.186V1.561C8.463 1.561 8.976 1.575 9.574 1.604V.834C9.004 .862 8.549 .877 8.207 .877 8.349 .107 8.584-.556 8.912-1.112 9.239-1.668 9.617-2.089 10.045-2.373 9.674-2.544 9.403-2.744 9.232-2.972 8.805-2.459 8.477-1.953 8.249-1.454M7.822-5.068C7.651-5.124 7.409-5.224 7.095-5.367 6.924-4.825 6.696-4.241 6.411-3.614 6.668-3.528 6.896-3.428 7.095-3.314 7.465-4.169 7.708-4.753 7.822-5.068M7.907-3.443C8.164-3.3 8.363-3.172 8.506-3.058 9.132-3.913 9.588-4.611 9.874-5.153 9.645-5.239 9.432-5.381 9.232-5.581 8.976-5.096 8.534-4.383 7.907-3.443M8.207 3.1C8.378 3.214 8.563 3.342 8.762 3.485 9.104 3.086 9.389 2.701 9.617 2.331 9.446 2.245 9.261 2.117 9.062 1.946 8.833 2.345 8.549 2.73 8.207 3.1" fill="#2c292a"/>
<path transform="matrix(1,0,0,-1,202.8196,351.0771)" d="M0 0C.028 .627 .043 1.155 .043 1.582V2.095H-1.368C-1.482 1.382-1.71 .813-2.052 .385-2.394-.043-2.764-.371-3.163-.599-3.306-.342-3.534-.072-3.847 .214-3.306 .413-2.914 .677-2.672 1.005-2.43 1.332-2.265 1.696-2.18 2.095-2.693 2.095-3.248 2.081-3.847 2.053V2.865C-3.22 2.836-2.636 2.822-2.094 2.822-2.066 3.421-2.052 4.02-2.052 4.619-2.451 4.619-2.864 4.604-3.291 4.576V5.346C-2.893 5.317-2.422 5.303-1.881 5.303H.641C.954 5.303 1.325 5.317 1.752 5.346V4.576C1.382 4.604 1.083 4.619 .855 4.619V2.822C1.225 2.822 1.624 2.836 2.052 2.865V2.053C1.624 2.081 1.225 2.095 .855 2.095V1.54C.855 1.026 .869 .513 .898 0ZM.641-1.026C.641-.798 .626-.485 .598-.086H1.496C1.467-.485 1.453-.798 1.453-1.026H3.291C3.861-1.026 4.374-1.012 4.83-.984V-1.796C4.288-1.768 3.775-1.753 3.291-1.753H1.453V-3.122H4.531C5.015-3.122 5.485-3.107 5.941-3.079V-3.892C5.514-3.863 5.058-3.849 4.573-3.849H-2.351C-2.893-3.849-3.377-3.863-3.804-3.892V-3.079C-3.377-3.107-2.893-3.122-2.351-3.122H.641V-1.753H-1.026C-1.624-1.753-2.223-1.768-2.821-1.796L-2.693-.984C-2.18-1.012-1.624-1.026-1.026-1.026ZM.043 2.822V4.619H-1.282C-1.311 3.791-1.325 3.193-1.325 2.822ZM3.334 3.763V2.438C3.334 2.01 3.348 1.568 3.377 1.112H2.522C2.55 1.568 2.564 2.01 2.564 2.438V3.763C2.564 4.304 2.55 4.747 2.522 5.089H3.377C3.348 4.747 3.334 4.304 3.334 3.763M5.343 4.362V1.069C5.371 .556 5.293 .199 5.108 0 4.922-.2 4.516-.342 3.89-.428 3.804-.143 3.676 .185 3.505 .556 4.075 .527 4.395 .556 4.467 .641 4.537 .727 4.573 .941 4.573 1.283V4.362C4.573 4.875 4.559 5.374 4.531 5.859H5.385C5.357 5.374 5.343 4.875 5.343 4.362" fill="#2c292a"/>
<path transform="matrix(1,0,0,-1,215.1723,351.99653)" d="M0 0C-.057-.414-.221-.834-.492-1.262-.763-1.689-1.226-2.081-1.881-2.438-2.537-2.794-3.505-3.086-4.787-3.314-4.845-2.943-5.001-2.615-5.257-2.331-4.402-2.302-3.676-2.209-3.077-2.053-2.479-1.896-2.016-1.661-1.688-1.347-1.361-1.034-1.133-.663-1.004-.235-.876 .192-.841 .677-.898 1.219-.357 1.161 .014 1.133 .214 1.133 .128 .791 .057 .413 0 0M3.334 .235C3.334-.136 3.362-.492 3.419-.834H2.394V1.903H-3.206V-.919H-4.189C-4.189-.606-4.175-.293-4.146 .021V1.347C-4.175 1.746-4.189 2.16-4.189 2.587H3.419C3.362 2.387 3.334 1.989 3.334 1.39ZM2.992 5.239V4.512C2.992 4.169 3.006 3.827 3.035 3.485H-3.761C-3.733 3.827-3.719 4.169-3.719 4.512V5.239C-3.719 5.609-3.733 5.98-3.761 6.35H3.035C3.006 5.98 2.992 5.609 2.992 5.239M2.094 5.623H-2.864V4.169H2.094ZM2.522-1.454C3.063-1.697 3.704-2.017 4.445-2.416 4.16-2.786 3.989-3.058 3.932-3.229 3.191-2.801 2.607-2.473 2.18-2.245 1.752-2.017 1.154-1.775 .385-1.518 .47-1.347 .598-1.076 .769-.706 1.396-.962 1.98-1.212 2.522-1.454" fill="#2c292a"/>
<path transform="matrix(1,0,0,-1,227.8669,346.11653)" d="M0 0C.684 0 1.31 .014 1.881 .043V-.813C1.31-.784 .684-.77 0-.77H-1.752V-7.526H1.026C1.681-7.526 2.28-7.512 2.821-7.484V-8.339C2.28-8.31 1.695-8.296 1.069-8.296H-5.556C-6.184-8.296-6.725-8.31-7.181-8.339V-7.484C-6.697-7.512-6.141-7.526-5.514-7.526H-2.693V-.77H-4.403C-5.144-.77-5.785-.784-6.326-.813V.043C-5.785 .014-5.144 0-4.403 0Z" fill="#2c292a"/>
<path transform="matrix(1,0,0,-1,80.0219,214.32129)" d="M0 0C.552 0 1.05 .013 1.497 .039V-.71C1.103-.684 .604-.67 0-.67H-1.852C-1.852-1.537-1.878-2.326-1.931-3.036H1.103C1.576-3.036 2.01-3.023 2.404-2.996V-3.745C2.01-3.719 1.589-3.706 1.143-3.706H-.631V-6.781C-.631-7.123-.433-7.293-.039-7.293H1.3C1.589-7.293 1.747-6.899 1.773-6.111 2.035-6.268 2.325-6.387 2.64-6.465 2.508-7.49 2.207-8.003 1.734-8.003H-.433C-1.038-7.976-1.34-7.635-1.34-6.978V-3.706H-2.01C-2.22-4.705-2.476-5.46-2.778-5.973-3.08-6.485-3.428-6.919-3.822-7.274-4.216-7.628-4.807-8.029-5.595-8.476-5.727-8.186-5.95-7.963-6.265-7.806-5.635-7.516-5.122-7.221-4.729-6.919-4.334-6.617-3.96-6.242-3.605-5.795-3.251-5.349-2.969-4.652-2.758-3.706H-4.492C-5.149-3.706-5.622-3.719-5.911-3.745V-2.996C-5.622-3.023-5.149-3.036-4.492-3.036H-2.68C-2.654-2.247-2.64-1.459-2.64-.67H-3.704C-4.23-.67-4.716-.684-5.162-.71V.039C-4.716 .013-4.23 0-3.704 0Z" fill="#2c292a"/>
<path transform="matrix(1,0,0,-1,86.0002,220.5896)" d="M0 0C-.499-.631-1.077-1.183-1.734-1.656-1.97-1.445-2.22-1.248-2.482-1.064-1.931-.723-1.458-.355-1.064 .039-.67 .434-.25 .986 .197 1.695 .512 1.538 .814 1.366 1.103 1.183 .867 1.025 .499 .631 0 0M-.02 2.819C-.374 2.359-.893 1.813-1.576 1.183-1.76 1.34-2.01 1.524-2.325 1.735-1.852 2.05-1.406 2.431-.985 2.878-.565 3.324-.224 3.758 .039 4.179 .276 4.021 .552 3.85 .867 3.666 .63 3.561 .335 3.278-.02 2.819M-.236 5.46C-.552 4.948-.972 4.415-1.497 3.863-1.734 4.047-1.97 4.205-2.207 4.337-1.787 4.731-1.419 5.138-1.103 5.559-.788 5.979-.512 6.387-.276 6.781-.039 6.675 .249 6.544 .591 6.387 .355 6.281 .079 5.973-.236 5.46M4.098 1.873C4.071 1.386 3.986 .867 3.842 .315 3.697-.237 3.355-.723 2.817-1.143 2.279-1.563 1.668-1.945 .985-2.287 .906-2.102 .808-1.951 .69-1.833 .571-1.715 .38-1.577 .118-1.419 .959-1.235 1.602-.999 2.049-.71 2.495-.421 2.811-.079 2.995 .315 3.178 .71 3.283 1.163 3.31 1.675 3.336 2.188 3.349 2.746 3.349 3.351 3.664 3.298 3.993 3.259 4.334 3.233 4.203 2.812 4.124 2.359 4.098 1.873M5.438 6.544C5.884 6.544 6.317 6.557 6.738 6.584V5.913C6.317 5.939 5.884 5.953 5.438 5.953H4.098C3.993 5.506 3.901 5.072 3.822 4.652H6.108C6.081 4.231 6.068 3.798 6.068 3.351V1.301C6.068 1.038 6.081 .67 6.108 .197H5.319V4.021H2.246V.118H1.458C1.484 .591 1.497 .972 1.497 1.262V3.351C1.497 3.719 1.484 4.152 1.458 4.652H3.113C3.192 5.099 3.257 5.532 3.31 5.953H2.522C2.049 5.953 1.563 5.939 1.064 5.913V6.584C1.563 6.557 2.049 6.544 2.522 6.544ZM5.536-.493C5.943-.769 6.344-1.051 6.738-1.34 6.527-1.603 6.357-1.826 6.226-2.011 5.832-1.642 5.451-1.34 5.083-1.104 4.715-.867 4.347-.644 3.98-.434 4.137-.224 4.295-.026 4.453 .158 4.768 0 5.129-.217 5.536-.493" fill="#2c292a"/>
<path transform="matrix(1,0,0,-1,95.1307,220.2348)" d="M0 0C-.105-.289-.223-.611-.355-.966-.486-1.321-.605-1.656-.709-1.971-.999-1.76-1.287-1.59-1.576-1.459-1.419-1.249-1.274-1.019-1.143-.769-1.012-.519-.887-.263-.768 0-.65 .262-.433 .828-.118 1.695 .065 1.538 .276 1.393 .512 1.262 .276 .71 .105 .289 0 0M-.217 3.607C.006 3.41 .249 3.193 .512 2.957 .302 2.746 .131 2.523 0 2.287-.158 2.497-.342 2.701-.552 2.898-.762 3.095-1.024 3.312-1.34 3.548-1.209 3.706-1.051 3.903-.867 4.139-.657 3.982-.44 3.804-.217 3.607M.177 5.815C.4 5.591 .617 5.387 .828 5.204 .565 4.993 .355 4.796 .197 4.612 .039 4.875-.132 5.099-.315 5.283-.499 5.466-.709 5.65-.946 5.835-.762 6.018-.578 6.189-.394 6.347-.236 6.215-.046 6.038 .177 5.815M2.955 1.813H3.231C3.468 1.813 3.809 1.826 4.256 1.853V1.183C3.809 1.209 3.375 1.222 2.955 1.222H2.443C2.417 1.064 2.377 .867 2.325 .631H4.019C3.993-.578 3.887-1.295 3.704-1.518 3.52-1.741 3.139-1.905 2.561-2.011 2.508-1.774 2.417-1.512 2.285-1.222 2.811-1.249 3.099-1.15 3.152-.926 3.205-.703 3.244-.381 3.271 .039H2.207C2.101-.408 1.937-.815 1.714-1.183 1.491-1.55 1.195-1.932 .828-2.326 .617-2.089 .368-1.918 .079-1.813 .552-1.446 .926-1.019 1.202-.532 1.478-.046 1.655 .538 1.734 1.222H1.458C1.326 1.222 1.025 1.209 .552 1.183V1.853C1.025 1.826 1.458 1.813 1.852 1.813H2.207C2.18 1.971 2.114 2.181 2.01 2.444 2.246 2.47 2.495 2.51 2.758 2.563 2.837 2.247 2.902 1.997 2.955 1.813M1.025 3.824V4.534C1.025 4.901 1.011 5.322 .985 5.795H1.852C1.904 6.032 1.957 6.36 2.01 6.781 2.298 6.728 2.574 6.675 2.837 6.623 2.705 6.36 2.614 6.084 2.561 5.795H3.98C3.953 5.348 3.94 4.928 3.94 4.534V2.641C4.098 2.904 4.242 3.18 4.374 3.469 4.531 3.811 4.669 4.165 4.788 4.534 4.906 4.901 5.01 5.283 5.103 5.677 5.195 6.071 5.254 6.399 5.28 6.663 5.569 6.557 5.871 6.491 6.186 6.465 6.081 6.255 5.995 6.032 5.93 5.795 5.864 5.559 5.753 5.243 5.595 4.849H6.738C7.027 4.849 7.355 4.862 7.723 4.888V4.179C7.46 4.205 7.276 4.218 7.172 4.218 7.119 3.719 7.079 3.371 7.053 3.174 7.027 2.976 6.987 2.694 6.935 2.326 6.882 1.958 6.797 1.55 6.679 1.104 6.561 .657 6.423 .237 6.265-.158 6.527-.605 6.797-.973 7.073-1.262 7.349-1.55 7.618-1.76 7.881-1.892 7.618-2.076 7.421-2.299 7.29-2.563 6.922-2.221 6.64-1.932 6.443-1.695 6.245-1.459 6.042-1.183 5.832-.867 5.595-1.157 5.345-1.446 5.083-1.735 4.82-2.023 4.518-2.299 4.177-2.563 3.993-2.326 3.783-2.102 3.546-1.892 3.914-1.735 4.242-1.518 4.531-1.242 4.82-.966 5.109-.591 5.398-.118 5.188 .381 5.03 .814 4.925 1.183 4.82 1.524 4.728 1.958 4.65 2.484 4.571 2.326 4.492 2.168 4.413 2.011 4.281 2.168 4.084 2.326 3.822 2.484L3.901 2.602H.985C1.011 3.049 1.025 3.456 1.025 3.824M3.31 5.204H1.6949999V4.494H3.31ZM3.31 3.903H1.6949999V3.193H3.31ZM5.122 3.509C5.201 2.773 5.319 2.142 5.477 1.616 5.635 1.09 5.766 .749 5.871 .591 6.029 1.169 6.14 1.649 6.206 2.03 6.271 2.411 6.324 2.76 6.364 3.075 6.403 3.39 6.436 3.771 6.462 4.218H5.398C5.293 3.955 5.201 3.719 5.122 3.509" fill="#2c292a"/>
<path transform="matrix(1,0,0,-1,107.5713,216.1348)" d="M0 0C.42 0 .775 .013 1.064 .039V-.67C.749-.644 .394-.631 0-.631H-.709C-.709-.946-.723-1.327-.749-1.774H1.025C.946-2.931 .893-3.673 .867-4.001 .84-4.33 .801-4.698 .749-5.105 .696-5.513 .565-5.762 .355-5.854 .144-5.946-.211-6.018-.709-6.071-.736-5.808-.841-5.506-1.024-5.164-.552-5.217-.256-5.23-.138-5.204-.02-5.178 .059-5.04 .099-4.79 .138-4.54 .171-4.166 .197-3.666 .223-3.167 .236-2.734 .236-2.365H-.788C-.815-2.865-.874-3.299-.965-3.666-1.058-4.035-1.156-4.383-1.261-4.711-1.366-5.04-1.491-5.342-1.635-5.618-1.78-5.894-1.918-6.136-2.049-6.347-2.233-6.136-2.469-5.953-2.758-5.795-2.522-5.559-2.319-5.263-2.148-4.908-1.977-4.553-1.839-4.192-1.734-3.824-1.629-3.456-1.55-2.99-1.497-2.425-1.445-1.86-1.419-1.262-1.419-.631H-2.325C-2.325-1.157-2.338-1.636-2.364-2.07-2.391-2.503-2.43-2.957-2.482-3.43-2.535-3.903-2.627-4.415-2.758-4.967-2.89-5.519-3.073-6.005-3.31-6.426-3.521-6.242-3.743-6.084-3.98-5.953-3.796-5.612-3.645-5.25-3.527-4.869-3.408-4.488-3.31-4.035-3.231-3.509-3.152-2.983-3.107-2.484-3.093-2.011-3.08-1.538-3.073-.92-3.073-.158-3.073 .631-3.087 1.274-3.113 1.774H.236C.499 1.774 .788 1.787 1.103 1.813V1.143C.814 1.169 .525 1.183 .236 1.183H-2.325V0ZM2.522-5.559C3.047-5.637 3.402-5.637 3.586-5.559 3.769-5.48 3.881-5.178 3.921-4.652 3.96-4.126 3.999-3.45 4.039-2.622 4.078-1.794 4.098-1.012 4.098-.276H3.073C3.047-1.406 2.968-2.313 2.837-2.996 2.705-3.68 2.542-4.258 2.345-4.731 2.148-5.204 1.95-5.578 1.753-5.854 1.556-6.13 1.366-6.399 1.182-6.663 .919-6.452 .683-6.308 .473-6.229 .867-5.782 1.188-5.316 1.438-4.829 1.688-4.343 1.872-3.897 1.99-3.489 2.108-3.082 2.193-2.655 2.246-2.208 2.298-1.761 2.338-1.117 2.364-.276 1.944-.276 1.589-.289 1.3-.315V.394C1.694 .368 2.049 .355 2.364 .355V1.222C2.364 1.511 2.351 1.945 2.325 2.523 2.64 2.444 2.929 2.391 3.192 2.365 3.165 2.129 3.139 1.866 3.113 1.577 3.086 1.287 3.073 .88 3.073 .355H4.886C4.833-.092 4.807-.684 4.807-1.419 4.728-3.338 4.675-4.481 4.65-4.849 4.623-5.217 4.571-5.539 4.492-5.815 4.413-6.091 4.229-6.281 3.94-6.387 3.651-6.491 3.296-6.557 2.876-6.584 2.824-6.268 2.705-5.926 2.522-5.559" fill="#2c292a"/>
<path transform="matrix(1,0,0,-1,114.6923,220.2742)" d="M0 0H1.419V-1.577C1.34-2.234 1.011-2.72 .433-3.036L.039-2.681C.512-2.418 .749-2.023 .749-1.498H0Z" fill="#2c292a"/>
<path transform="matrix(1,0,0,-1,127.9208,215.1098)" d="M0 0H3.94C3.914-.605 3.901-1.157 3.901-1.656V-6.071C3.901-6.544 3.914-7.017 3.94-7.49H3.152V-6.544H-2.128V-7.49H-2.916C-2.89-6.991-2.876-6.531-2.876-6.111V-1.616C-2.876-1.143-2.89-.605-2.916 0H-.749C-.644 .71-.578 1.235-.552 1.577-.236 1.472 .105 1.393 .473 1.34 .315 1.104 .158 .657 0 0M3.152-.67H-2.1280003V-1.971H3.152ZM3.152-2.602H-2.1280003V-3.8639999H3.152ZM3.152-4.494H-2.1280003V-5.913H3.152ZM3.152-5.913" fill="#2c292a"/>
<path transform="matrix(1,0,0,-1,138.3912,214.755)" d="M0 0C-.236-.079-.736-.197-1.497-.355V-1.853H.552C.552-1.143 .538-.158 .512 1.104 .801 1.051 1.09 1.025 1.379 1.025 1.326 .631 1.3 .184 1.3-.315V-1.853H3.073C3.468-1.853 3.927-1.84 4.453-1.813V-2.523C3.927-2.497 3.48-2.484 3.113-2.484H1.34C1.419-3.745 1.589-4.652 1.852-5.204 2.404-4.678 2.877-3.903 3.271-2.878 3.48-3.062 3.756-3.233 4.098-3.39 3.887-3.627 3.612-4.015 3.271-4.553 2.929-5.092 2.574-5.546 2.207-5.913 2.417-6.229 2.64-6.492 2.877-6.702 3.113-6.913 3.303-7.037 3.448-7.076 3.592-7.116 3.697-7.037 3.763-6.84 3.828-6.643 3.875-6.361 3.901-5.992 4.163-6.176 4.439-6.334 4.728-6.465 4.518-7.201 4.295-7.661 4.059-7.845 3.822-8.029 3.48-8.003 3.034-7.766 2.587-7.53 2.128-7.083 1.655-6.426 .762-7.057 .052-7.503-.473-7.766-.63-7.477-.827-7.24-1.064-7.057-.276-6.794 .499-6.361 1.261-5.756 .893-5.02 .67-3.929 .591-2.484H-1.497V-4.021C-.893-3.89-.433-3.759-.118-3.627-.092-3.89-.066-4.139-.039-4.376-.381-4.455-.867-4.573-1.497-4.731V-6.741C-1.471-7.24-1.629-7.562-1.97-7.707-2.312-7.851-2.706-7.963-3.152-8.042-3.179-7.753-3.31-7.451-3.546-7.136-3.021-7.136-2.673-7.102-2.502-7.037-2.332-6.972-2.246-6.82-2.246-6.584V-4.928C-3.245-5.191-3.901-5.375-4.216-5.48-4.243-5.112-4.321-4.81-4.453-4.573-3.98-4.521-3.245-4.389-2.246-4.179V-2.484C-3.27-2.484-3.98-2.497-4.374-2.523V-1.813C-3.954-1.84-3.245-1.853-2.246-1.853V-.552L-3.901-.907C-3.98-.618-4.085-.368-4.216-.158-3.822-.158-3.211-.066-2.384 .118-1.556 .302-.933 .513-.512 .749-.25 .381-.079 .131 0 0M3.862-.788C3.651-.946 3.441-1.13 3.231-1.34 2.811-.763 2.364-.289 1.891 .079 2.101 .262 2.272 .447 2.404 .631 3.086 0 3.572-.473 3.862-.788" fill="#2c292a"/>
<path transform="matrix(1,0,0,-1,145.0197,220.07709)" d="M0 0C.433 .026 .952 .079 1.556 .158L1.438-.513C1.175-.539 .781-.585 .256-.65-.27-.716-.69-.788-1.005-.867-1.11-.578-1.202-.302-1.281-.039-.861-.039-.434-.026 0 0M2.581-1.695C2.554-2.168 2.397-2.45 2.108-2.543 1.819-2.635 1.425-2.707 .926-2.76 .847-2.418 .742-2.129 .611-1.892 1.031-1.918 1.346-1.925 1.556-1.912 1.766-1.898 1.885-1.748 1.911-1.459L2.108 1.064H-.729C-.677 1.563-.644 2.168-.631 2.878-.618 3.587-.611 4.179-.611 4.652H.177C.124 4.415 .085 3.43 .059 1.695H1.32L1.478 5.204C.217 5.204-.65 5.19-1.123 5.164V5.874C-.65 5.848-.217 5.835 .177 5.835H2.305C2.252 5.466 2.213 5.072 2.187 4.652L2.069 1.695H2.936C2.883 1.38 2.83 1.051 2.778 .71ZM8.058-2.326C7.716-2.299 7.283-2.287 6.758-2.287H3.29C3.316-2.05 3.33-1.59 3.33-.907V4.494C3.33 4.783 3.316 5.23 3.29 5.835H6.403C7.007 5.835 7.467 5.848 7.782 5.874V5.164C7.414 5.19 7.007 5.204 6.561 5.204H3.999V-1.656H6.561C7.296-1.656 7.795-1.643 8.058-1.616ZM7.231 3.43C7.099 3.061 6.876 2.549 6.561 1.892 7.165 1.025 7.572 .394 7.782 0 7.493-.184 7.256-.342 7.073-.473 6.915-.079 6.626 .473 6.206 1.183 5.707 .341 5.286-.329 4.945-.828 4.735-.618 4.498-.473 4.236-.394 4.603-.026 5.089 .71 5.694 1.813 5.352 2.339 4.879 2.97 4.275 3.706 4.459 3.837 4.63 4.008 4.787 4.218 5.207 3.798 5.641 3.246 6.088 2.563 6.455 3.535 6.665 4.179 6.718 4.494 6.955 4.362 7.231 4.244 7.546 4.139 7.467 4.034 7.362 3.798 7.231 3.43" fill="#2c292a"/>
<path transform="matrix(1,0,0,-1,153.8941,217.0021)" d="M0 0C.394-.026 .867-.039 1.419-.039H2.916C3.389-.039 3.927-.026 4.531 0V-.71C3.927-.684 3.402-.67 2.955-.67H2.522C2.364-1.091 2.187-1.538 1.99-2.011 1.793-2.484 1.563-2.957 1.3-3.43 2.325-3.325 3.099-3.22 3.625-3.114 3.493-2.799 3.283-2.405 2.995-1.932 3.283-1.774 3.493-1.643 3.625-1.538 3.887-2.011 4.111-2.412 4.295-2.74 4.479-3.069 4.676-3.469 4.886-3.942 4.676-4.074 4.439-4.205 4.177-4.337 4.072-4.1 3.98-3.903 3.901-3.745 3.06-3.877 2.384-3.982 1.872-4.061 1.359-4.139 .919-4.245 .552-4.376 .446-4.114 .315-3.863 .158-3.627 .499-3.417 .808-2.996 1.084-2.365 1.359-1.735 1.563-1.17 1.694-.67H1.419C.867-.67 .394-.684 0-.71ZM2.719 2.208C3.165 2.208 3.665 2.221 4.216 2.247V1.498C3.665 1.524 3.165 1.538 2.719 1.538H1.773C1.353 1.538 .946 1.524 .552 1.498V2.247C.919 2.221 1.313 2.208 1.734 2.208ZM6.974 3.233C6.921 2.97 6.889 2.674 6.876 2.346 6.862 2.017 6.856 1.616 6.856 1.143H9.063C9.036 .801 9.01 .42 8.984 0L8.787-4.494C8.708-5.02 8.491-5.342 8.137-5.46 7.782-5.578 7.381-5.663 6.935-5.716 6.856-5.401 6.725-5.111 6.541-4.849 7.119-4.875 7.513-4.842 7.723-4.75 7.933-4.659 8.038-4.481 8.038-4.218L8.275 .473H6.856C6.803-.684 6.718-1.564 6.6-2.168 6.482-2.773 6.298-3.331 6.048-3.844 5.799-4.356 5.293-5.02 4.531-5.835 4.269-5.572 4.032-5.401 3.822-5.322 4.321-4.928 4.728-4.514 5.044-4.08 5.359-3.647 5.582-3.2 5.714-2.74 5.845-2.28 5.936-1.801 5.989-1.301 6.042-.802 6.081-.211 6.108 .473H5.438C5.148 .473 4.807 .46 4.413 .434V1.183C4.807 1.156 5.175 1.143 5.517 1.143H6.108V2.247C6.108 2.615 6.094 2.983 6.068 3.351 6.383 3.272 6.685 3.233 6.974 3.233" fill="#2c292a"/>
<path transform="matrix(1,0,0,-1,249.9973,216.84439)" d="M0 0C-.053-.578-.079-1.064-.079-1.459V-3.942C.683-4.468 1.497-4.777 2.364-4.869 3.231-4.961 4.078-4.993 4.906-4.967 5.733-4.941 6.475-4.875 7.132-4.77 7-5.086 6.921-5.414 6.896-5.756 5.635-5.756 4.603-5.742 3.802-5.716 3.001-5.69 2.266-5.591 1.596-5.421 .926-5.249 .42-5.066 .079-4.869-.263-4.672-.558-4.672-.808-4.869-1.058-5.066-1.327-5.322-1.616-5.637-1.773-5.401-1.97-5.19-2.207-5.007-1.576-4.534-1.117-4.205-.828-4.021V-.67C-1.117-.67-1.485-.697-1.931-.749V.039C-1.406 .013-1.012 0-.749 0ZM.158 1.262C-.132 1.209-.394 1.104-.631 .946-.709 1.419-.972 2.011-1.419 2.72L-.631 3.036C-.211 2.194 .052 1.603 .158 1.262M4.413 1.538C4.413 2.063 4.4 2.641 4.374 3.272H5.201C5.175 2.957 5.162 2.378 5.162 1.538 5.714 1.538 6.252 1.55 6.777 1.577V.828C6.252 .854 5.714 .867 5.162 .867V-.867C5.792-.867 6.396-.854 6.974-.828V-1.577C6.396-1.551 5.792-1.537 5.162-1.537V-3.154C5.162-3.601 5.175-4.061 5.201-4.534H4.374C4.374-4.061 4.387-3.601 4.413-3.154V-1.537H2.916C2.811-2.247 2.66-2.826 2.463-3.272 2.266-3.719 1.97-4.166 1.576-4.612 1.313-4.402 1.064-4.232 .827-4.1 1.326-3.653 1.655-3.239 1.812-2.858 1.97-2.477 2.088-2.037 2.167-1.537 1.563-1.537 1.037-1.551 .591-1.577V-.828C1.064-.854 1.616-.867 2.246-.867 2.298-.263 2.325 .315 2.325 .867 1.799 .867 1.287 .841 .788 .788V1.577C1.287 1.55 1.812 1.538 2.364 1.538 2.364 2.142 2.351 2.72 2.325 3.272 2.587 3.246 2.863 3.219 3.152 3.193 3.126 2.851 3.099 2.299 3.073 1.538ZM4.413-.867V.867H3.073C3.047 .315 3.008-.263 2.955-.867Z" fill="#2c292a"/>
<path transform="matrix(1,0,0,-1,261.6891,214.08481)" d="M0 0C.446 0 .827 .013 1.143 .039V-.631C.932-.605 .722-.591 .512-.591V-5.913C.801-5.835 1.129-5.743 1.497-5.637V-6.308C1.156-6.387 .827-6.465 .512-6.544 .512-7.569 .525-8.318 .552-8.791H-.237C-.211-8.397-.197-7.7-.197-6.702-.828-6.834-1.406-6.991-1.931-7.175-2.457-7.359-2.903-7.543-3.271-7.727L-3.586-6.82-2.719-6.662V-.591C-2.93-.591-3.192-.605-3.507-.631V.039C-3.166 .013-2.706 0-2.128 0ZM-.197-.591H-2.009V-2.247H-.197ZM-.197-2.838H-2.009V-4.218H-.197ZM-.197-6.111V-4.849H-2.01V-6.505C-1.379-6.374-.775-6.242-.197-6.111M1.753-7.116C2.029-6.814 2.338-6.4 2.679-5.874 2.285-5.139 2.029-4.389 1.911-3.627 1.793-2.865 1.707-1.985 1.655-.986H1.34V-.315C1.865-.342 2.338-.355 2.758-.355H4.965C4.86-1.643 4.709-2.707 4.512-3.548 4.315-4.389 4.006-5.164 3.586-5.874 3.796-6.242 4.078-6.584 4.433-6.899 4.788-7.214 5.175-7.49 5.595-7.727 5.332-7.91 5.109-8.134 4.925-8.397 4.374-8.029 3.783-7.412 3.152-6.544 2.679-7.307 2.141-7.95 1.537-8.476 1.379-8.265 1.143-8.068 .827-7.885 1.168-7.675 1.478-7.418 1.753-7.116M2.581-3.351C2.646-3.877 2.823-4.481 3.113-5.164 3.533-4.297 3.802-3.489 3.921-2.74 4.039-1.991 4.111-1.406 4.137-.986H2.364C2.443-2.037 2.515-2.826 2.581-3.351" fill="#2c292a"/>
<path transform="matrix(1,0,0,-1,269.5588,218.1651)" d="M0 0C-.132-.67-.315-1.478-.552-2.424-.867-2.32-1.182-2.241-1.497-2.188-1.13-1.137-.854 .072-.67 1.439-.433 1.386-.105 1.321 .315 1.242 .236 1.084 .131 .67 0 0M2.207 .375V-3.016C2.207-3.331 2.364-3.489 2.679-3.489H4.531C4.82-3.515 5.01-3.443 5.103-3.272 5.194-3.101 5.266-2.714 5.319-2.109 5.582-2.32 5.884-2.464 6.226-2.543 6.042-3.384 5.858-3.889 5.674-4.061 5.49-4.231 5.266-4.303 5.004-4.277H2.128C1.655-4.277 1.392-3.988 1.34-3.41V.335C1.34 .861 1.326 1.347 1.3 1.794H2.246C2.22 1.478 2.207 1.005 2.207 .375M4.177 2.582C3.862 2.425 3.572 2.253 3.31 2.07 2.889 2.937 2.482 3.647 2.088 4.199 2.325 4.33 2.561 4.487 2.798 4.672 3.086 4.172 3.546 3.475 4.177 2.582M7.723-.926C7.434-1.058 7.158-1.242 6.896-1.478 6.344-.427 5.805 .44 5.28 1.124 5.517 1.255 5.753 1.412 5.989 1.597 6.593 .755 7.171-.086 7.723-.926" fill="#2c292a"/>
<path transform="matrix(1,0,0,-1,279.7926,221.69339)" d="M0 0C.158 .079 .249 .223 .276 .434L.433 2.838H-1.418C-1.366 3.364-1.334 3.844-1.32 4.277-1.307 4.711-1.3 5.138-1.3 5.559H.631V7.096H-.197C-.67 7.096-1.117 7.083-1.537 7.057V7.727C-1.09 7.7-.644 7.687-.197 7.687H1.379C1.353 7.267 1.34 6.82 1.34 6.347 1.34 5.9 1.353 5.44 1.379 4.967H-.512L-.591 3.43H1.222C1.169 2.957 1.129 2.536 1.103 2.168L.985 .158C.932-.262 .729-.545 .374-.69 .02-.834-.394-.946-.867-1.025-.946-.683-1.077-.381-1.261-.118-.578-.118-.158-.079 0 0M4.019 .276V1.813H2.68V1.459H1.931C1.957 2.247 1.97 2.812 1.97 3.154V4.455H4.019V5.44H2.286C2.311 5.861 2.325 6.268 2.325 6.663 2.325 7.083 2.311 7.477 2.286 7.845H6.502C6.475 7.477 6.462 7.083 6.462 6.663 6.462 6.268 6.475 5.861 6.502 5.44H4.729V4.455H6.856C6.83 4.139 6.817 3.719 6.817 3.193 6.817 2.667 6.83 2.208 6.856 1.813H4.729V.355L6.068 .591C5.963 .749 5.858 .92 5.753 1.104 6.015 1.183 6.239 1.275 6.423 1.38 6.896 .617 7.263 0 7.526-.473 7.263-.578 7.027-.71 6.817-.867 6.712-.604 6.554-.289 6.344 .079 6.029 .026 5.398-.099 4.453-.296 3.507-.493 2.653-.696 1.891-.907 1.813-.565 1.681-.276 1.497-.039 2.286 .013 3.126 .118 4.019 .276M4.019 3.863H2.679V2.4039999H4.019ZM5.753 7.254H3.0339998V6.032H5.753ZM6.068 3.863H4.7279999V2.4039999H6.068ZM6.068 2.405" fill="#2c292a"/>
<path transform="matrix(1,0,0,-1,289.0021,220.2742)" d="M0 0H1.419V-1.577C1.34-2.234 1.011-2.72 .433-3.036L.039-2.681C.512-2.418 .749-2.023 .749-1.498H0Z" fill="#2c292a"/>
<path transform="matrix(1,0,0,-1,300.2605,215.8194)" d="M0 0V-5.204C0-5.861 .026-6.412 .079-6.86H-.749C-.723-6.412-.709-5.861-.709-5.204V-1.34C-1.051-1.971-1.314-2.431-1.497-2.72-1.681-2.484-1.891-2.3-2.128-2.168-1.787-1.801-1.386-1.15-.926-.217-.467 .716-.158 1.524 0 2.208 .42 2.023 .735 1.892 .946 1.813 .709 1.498 .394 .893 0 0M1.3 .71H2.128C2.101 .368 2.088-.263 2.088-1.183L3.349-.788V.828C3.349 1.353 3.323 1.8 3.271 2.168H4.098C4.072 1.8 4.059 1.34 4.059 .788V-.513L6.186 .237C6.16-1.157 6.147-2.129 6.147-2.681 6.147-3.233 6.002-3.575 5.713-3.706 5.424-3.838 5.057-3.942 4.61-4.021 4.557-3.759 4.453-3.483 4.295-3.193 4.794-3.193 5.096-3.174 5.201-3.134 5.306-3.095 5.359-2.97 5.359-2.76L5.398-.788 4.059-1.262V-3.785C4.059-4.232 4.072-4.613 4.098-4.928H3.31C3.336-4.613 3.349-4.232 3.349-3.785V-1.459L2.088-1.892V-5.283C2.088-5.651 2.272-5.822 2.64-5.795H5.438C5.648-5.795 5.805-5.736 5.911-5.618 6.015-5.5 6.094-5.125 6.147-4.494 6.462-4.731 6.764-4.876 7.053-4.928 6.869-5.612 6.672-6.045 6.462-6.229 6.252-6.412 5.95-6.491 5.556-6.465H2.482C1.773-6.491 1.392-6.176 1.34-5.519V-2.129C.946-2.261 .63-2.392 .394-2.523L.079-1.774C.42-1.722 .84-1.603 1.34-1.419 1.34-.394 1.326 .315 1.3 .71" fill="#2c292a"/>
<path transform="matrix(1,0,0,-1,310.652,220.15592)" d="M0 0C.577 .736 .978 1.491 1.202 2.267 1.425 3.042 1.55 3.765 1.576 4.435 1.602 5.105 1.589 5.808 1.537 6.544 1.826 6.518 2.154 6.491 2.522 6.465 2.443 6.045 2.404 5.611 2.404 5.164 2.404 4.717 2.43 4.205 2.482 3.627 2.535 3.049 2.909 2.174 3.606 1.005 4.301-.164 5.32-1.039 6.659-1.616 6.344-1.932 6.133-2.194 6.029-2.405 4.19-1.512 2.877 .105 2.088 2.444 1.563 .368 .289-1.288-1.734-2.523-1.891-2.312-2.115-2.089-2.404-1.853-1.379-1.354-.578-.736 0 0" fill="#2c292a"/>
<path transform="matrix(1,0,0,-1,319.3294,220.07709)" d="M0 0C.434 .026 .952 .079 1.557 .158L1.438-.513C1.175-.539 .781-.585 .256-.65-.27-.716-.69-.788-1.005-.867-1.11-.578-1.202-.302-1.281-.039-.861-.039-.433-.026 0 0M2.581-1.695C2.554-2.168 2.397-2.45 2.108-2.543 1.819-2.635 1.425-2.707 .926-2.76 .847-2.418 .742-2.129 .611-1.892 1.031-1.918 1.346-1.925 1.557-1.912 1.767-1.898 1.885-1.748 1.911-1.459L2.108 1.064H-.729C-.677 1.563-.644 2.168-.63 2.878-.617 3.587-.611 4.179-.611 4.652H.177C.124 4.415 .085 3.43 .059 1.695H1.32L1.478 5.204C.217 5.204-.65 5.19-1.123 5.164V5.874C-.65 5.848-.217 5.835 .177 5.835H2.305C2.252 5.466 2.213 5.072 2.187 4.652L2.069 1.695H2.936C2.883 1.38 2.83 1.051 2.778 .71ZM8.058-2.326C7.716-2.299 7.283-2.287 6.758-2.287H3.29C3.316-2.05 3.33-1.59 3.33-.907V4.494C3.33 4.783 3.316 5.23 3.29 5.835H6.403C7.007 5.835 7.467 5.848 7.782 5.874V5.164C7.414 5.19 7.007 5.204 6.561 5.204H4V-1.656H6.561C7.296-1.656 7.795-1.643 8.058-1.616ZM7.231 3.43C7.099 3.061 6.876 2.549 6.561 1.892 7.165 1.025 7.572 .394 7.782 0 7.493-.184 7.257-.342 7.073-.473 6.915-.079 6.626 .473 6.206 1.183 5.707 .341 5.286-.329 4.945-.828 4.735-.618 4.498-.473 4.236-.394 4.603-.026 5.089 .71 5.694 1.813 5.352 2.339 4.879 2.97 4.275 3.706 4.459 3.837 4.63 4.008 4.788 4.218 5.208 3.798 5.641 3.246 6.088 2.563 6.456 3.535 6.665 4.179 6.718 4.494 6.955 4.362 7.231 4.244 7.546 4.139 7.467 4.034 7.362 3.798 7.231 3.43" fill="#2c292a"/>
<path transform="matrix(1,0,0,-1,328.2041,217.0021)" d="M0 0C.394-.026 .867-.039 1.419-.039H2.916C3.389-.039 3.927-.026 4.531 0V-.71C3.927-.684 3.402-.67 2.955-.67H2.522C2.364-1.091 2.187-1.538 1.99-2.011 1.793-2.484 1.563-2.957 1.3-3.43 2.325-3.325 3.099-3.22 3.625-3.114 3.493-2.799 3.283-2.405 2.995-1.932 3.283-1.774 3.493-1.643 3.625-1.538 3.887-2.011 4.111-2.412 4.295-2.74 4.478-3.069 4.675-3.469 4.886-3.942 4.675-4.074 4.439-4.205 4.177-4.337 4.071-4.1 3.98-3.903 3.901-3.745 3.06-3.877 2.384-3.982 1.872-4.061 1.359-4.139 .919-4.245 .552-4.376 .446-4.114 .315-3.863 .158-3.627 .499-3.417 .808-2.996 1.084-2.365 1.359-1.735 1.563-1.17 1.694-.67H1.419C.867-.67 .394-.684 0-.71ZM2.719 2.208C3.165 2.208 3.665 2.221 4.216 2.247V1.498C3.665 1.524 3.165 1.538 2.719 1.538H1.773C1.353 1.538 .946 1.524 .552 1.498V2.247C.919 2.221 1.313 2.208 1.734 2.208ZM6.974 3.233C6.921 2.97 6.889 2.674 6.876 2.346 6.862 2.017 6.856 1.616 6.856 1.143H9.063C9.036 .801 9.01 .42 8.984 0L8.787-4.494C8.708-5.02 8.491-5.342 8.137-5.46 7.782-5.578 7.381-5.663 6.935-5.716 6.856-5.401 6.724-5.111 6.541-4.849 7.119-4.875 7.512-4.842 7.723-4.75 7.933-4.659 8.038-4.481 8.038-4.218L8.275 .473H6.856C6.803-.684 6.718-1.564 6.6-2.168 6.482-2.773 6.298-3.331 6.048-3.844 5.799-4.356 5.293-5.02 4.531-5.835 4.269-5.572 4.032-5.401 3.822-5.322 4.321-4.928 4.728-4.514 5.044-4.08 5.359-3.647 5.582-3.2 5.714-2.74 5.845-2.28 5.936-1.801 5.989-1.301 6.042-.802 6.081-.211 6.108 .473H5.438C5.148 .473 4.807 .46 4.413 .434V1.183C4.807 1.156 5.175 1.143 5.516 1.143H6.108V2.247C6.108 2.615 6.094 2.983 6.068 3.351 6.383 3.272 6.685 3.233 6.974 3.233" fill="#2c292a"/>
<path transform="matrix(1,0,0,-1,173.4731,362.2719)" d="M0 0C.499 0 .972 .013 1.419 .039V-.71C.972-.684 .499-.67 0-.67H-1.694V-3.154C-1.694-3.39-1.596-3.515-1.399-3.528-1.202-3.542-.933-3.548-.591-3.548-.223-3.548 .033-3.509 .177-3.43 .321-3.351 .42-3.036 .473-2.484 .84-2.694 1.169-2.826 1.458-2.878 1.3-3.404 1.123-3.758 .926-3.942 .729-4.126 .512-4.231 .276-4.258H-1.694C-2.246-4.231-2.522-3.982-2.522-3.509V-.67H-3.94C-3.967-1.301-4.085-1.879-4.295-2.405-4.505-2.931-4.873-3.39-5.398-3.785-5.924-4.179-6.449-4.468-6.974-4.652-7.185-4.389-7.421-4.152-7.684-3.942-6.974-3.732-6.423-3.489-6.029-3.213-5.635-2.937-5.353-2.628-5.182-2.287-5.011-1.945-4.886-1.406-4.807-.67H-6.029C-6.607-.67-7.106-.684-7.526-.71V.039C-7.08 .013-6.58 0-6.029 0ZM-3.27 4.77C-2.929 4.323-2.666 3.916-2.482 3.548H1.222C1.169 3.18 1.143 2.838 1.143 2.523 1.143 2.234 1.169 1.945 1.222 1.656H.355V2.878H-6.462V1.656H-7.368C-7.343 1.997-7.329 2.326-7.329 2.641-7.329 2.957-7.343 3.259-7.368 3.548H-3.467C-3.573 3.732-3.743 3.995-3.98 4.337-3.796 4.441-3.56 4.586-3.27 4.77M-1.931 1.774C-1.432 1.774-.959 1.787-.512 1.813V1.025C-.959 1.051-1.432 1.064-1.931 1.064H-4.374C-4.873 1.064-5.359 1.051-5.832 1.025V1.813C-5.359 1.787-4.873 1.774-4.374 1.774Z" fill="#2c292a"/>
<path transform="matrix(1,0,0,-1,180.9095,358.2113)" d="M0 0C.919-1.472 2.311-2.418 4.177-2.838 3.94-3.128 3.783-3.43 3.704-3.745 3.178-3.535 2.732-3.312 2.364-3.075V-3.706C2.075-3.68 1.616-3.666 .985-3.666H.039V-5.243H1.537C2.088-5.243 2.535-5.23 2.876-5.204V-5.913C2.535-5.888 2.088-5.874 1.537-5.874H.039V-7.648H1.576C2.364-7.648 3.008-7.622 3.507-7.569V-8.397C3.034-8.318 2.417-8.279 1.655-8.279H-2.679C-3.468-8.279-4.059-8.292-4.453-8.318V-7.609C-4.059-7.635-3.468-7.648-2.679-7.648H-.749V-5.874H-1.852C-2.745-5.874-3.336-5.888-3.625-5.913V-5.204C-3.336-5.23-2.758-5.243-1.891-5.243H-.749V-3.666H-1.537C-2.351-3.666-2.876-3.68-3.113-3.706V-3.075C-3.349-3.259-3.796-3.535-4.453-3.903-4.61-3.587-4.794-3.312-5.004-3.075-4.374-2.917-3.639-2.523-2.798-1.892-1.957-1.262-1.287-.434-.788 .591-.473 .46-.145 .328 .197 .197ZM-1.497-2.996H.867C1.392-2.996 1.799-2.983 2.088-2.957 .959-2.379 .118-1.537-.433-.434-1.143-1.512-1.957-2.353-2.876-2.957-2.561-2.983-2.102-2.996-1.497-2.996" fill="#2c292a"/>
<path transform="matrix(1,0,0,-1,186.0603,361.6214)" d="M0 0C.052 .512 .092 1.005 .118 1.478 .38 1.425 .643 1.4 .906 1.4 .853 1.058 .801 .657 .749 .197 .696-.263 .643-.703 .591-1.124 .355-1.071 .105-1.045-.158-1.045-.105-.861-.053-.513 0 0M.768-3.312C1.018-2.668 1.175-2.017 1.241-1.36 1.306-.703 1.346 .085 1.359 1.005 1.372 1.925 1.366 2.884 1.34 3.883 1.628 3.778 1.917 3.738 2.207 3.765 2.128 3.581 2.088 3.186 2.088 2.582V1.36C2.351 1.57 2.574 1.78 2.758 1.991 2.889 1.78 3.047 1.57 3.231 1.36 2.968 1.202 2.587 .952 2.088 .611 2.088 .085 2.035-.769 1.931-1.951 2.404-2.267 2.837-2.635 3.231-3.055 2.995-3.266 2.811-3.45 2.679-3.607 2.285-3.134 1.983-2.832 1.773-2.7 1.537-3.594 1.182-4.448 .709-5.263 .499-5.079 .236-4.96-.079-4.908 .236-4.487 .518-3.956 .768-3.312M2.995-5.342C2.784-5.184 2.561-5.066 2.325-4.987 2.798-4.303 3.152-3.647 3.389-3.016 3.599-3.148 3.848-3.252 4.137-3.331 3.98-3.568 3.599-4.238 2.995-5.342M3.901 .493C4.006 .65 4.111 .848 4.216 1.084 4.505 .952 4.728 .848 4.886 .769 4.991 1.136 5.069 1.531 5.122 1.951H4.295C4.032 1.294 3.769 .703 3.507 .177 3.323 .282 3.086 .361 2.798 .414 3.192 1.071 3.48 1.728 3.664 2.385 3.848 3.042 3.953 3.541 3.98 3.883 4.242 3.804 4.544 3.738 4.886 3.686 4.781 3.554 4.65 3.174 4.492 2.543H5.871C5.739 1.307 5.523 .322 5.221-.414 4.919-1.15 4.374-1.873 3.586-2.582 3.454-2.399 3.217-2.241 2.876-2.109 3.296-1.847 3.651-1.518 3.94-1.124 3.73-.914 3.52-.743 3.31-.611 3.493-.427 3.638-.256 3.743-.099 3.953-.283 4.15-.453 4.334-.611 4.544-.27 4.663-.046 4.689 .059 4.426 .243 4.163 .387 3.901 .493M4.374-3.45 5.004-3.213C5.188-3.686 5.411-4.264 5.674-4.948 5.359-5.026 5.122-5.105 4.965-5.184 4.728-4.448 4.531-3.87 4.374-3.45M7.605-1.34C7.394-.881 7.237-.453 7.132-.059 7.079-.427 6.909-.894 6.62-1.459 6.33-2.024 5.976-2.503 5.556-2.898 5.398-2.74 5.162-2.596 4.847-2.464 5.188-2.202 5.549-1.794 5.93-1.242 6.311-.69 6.541-.007 6.62 .808 6.226 .808 5.936 .795 5.753 .769V1.478C5.963 1.452 6.278 1.439 6.699 1.439 6.699 2.385 6.685 3.252 6.659 4.041 6.896 3.962 7.171 3.923 7.487 3.923 7.434 3.817 7.408 3.489 7.408 2.937V1.439C7.802 1.439 8.275 1.452 8.826 1.478V.769C8.301 .795 7.881 .808 7.565 .808 7.697 .099 7.913-.513 8.216-1.025 8.517-1.537 8.866-1.926 9.26-2.188 8.918-2.346 8.669-2.53 8.511-2.74 8.117-2.267 7.815-1.801 7.605-1.34M7.211-4.672C7.053-4.724 6.83-4.816 6.541-4.948 6.383-4.448 6.173-3.91 5.911-3.331 6.147-3.252 6.357-3.161 6.541-3.055 6.882-3.844 7.106-4.382 7.211-4.672M7.29-3.174C7.526-3.042 7.71-2.924 7.841-2.819 8.419-3.607 8.839-4.251 9.102-4.75 8.892-4.829 8.695-4.96 8.511-5.145 8.275-4.698 7.867-4.041 7.29-3.174M7.565 2.858C7.723 2.963 7.894 3.081 8.078 3.213 8.393 2.845 8.655 2.49 8.866 2.149 8.708 2.07 8.537 1.951 8.353 1.794 8.143 2.161 7.881 2.516 7.565 2.858" fill="#2c292a"/>
<path transform="matrix(1,0,0,-1,198.1068,360.7344)" d="M0 0C.341 .289 .604 .591 .788 .907 .972 .696 1.169 .512 1.379 .355L0-.749C-.053-1.38-.105-1.958-.158-2.484 .473-2.983 .998-3.509 1.418-4.061 1.182-4.192 .972-4.363 .788-4.573 .499-4.1 .144-3.666-.276-3.272-.618-4.376-.999-5.256-1.419-5.913-1.603-5.703-1.866-5.559-2.207-5.48-1.813-5.007-1.517-4.514-1.32-4.001-1.123-3.489-.979-2.911-.887-2.267-.795-1.623-.749-.854-.749 .039-.749 .959-.762 1.945-.788 2.996-.499 2.943-.224 2.904 .039 2.878-.014 2.431-.026 1.472 0 0M-1.458-1.971C-1.721-1.919-1.957-1.892-2.167-1.892-2.063-1.34-1.984-.46-1.931 .749-1.694 .749-1.458 .736-1.222 .71-1.327-.605-1.406-1.498-1.458-1.971M5.28-2.089C5.805-2.089 6.278-2.077 6.699-2.05V-2.838C6.173-2.813 5.569-2.799 4.886-2.799V-4.691C4.886-4.981 5.017-5.111 5.28-5.086H5.832C6.042-5.086 6.186-4.731 6.265-4.021 6.502-4.232 6.777-4.363 7.093-4.415 6.882-5.046 6.692-5.421 6.521-5.539 6.35-5.657 6.16-5.716 5.95-5.716H4.807C4.387-5.716 4.163-5.506 4.137-5.086V-2.799H3.192C3.139-3.246 3.067-3.666 2.975-4.061 2.883-4.455 2.712-4.81 2.463-5.125 2.213-5.44 1.707-5.769 .946-6.111 .867-5.847 .67-5.624 .355-5.44 1.3-5.23 1.878-4.882 2.088-4.396 2.298-3.91 2.416-3.378 2.443-2.799 1.944-2.799 1.444-2.813 .946-2.838V-2.05C1.418-2.077 1.917-2.089 2.443-2.089ZM2.404 3.193C2.666 3.167 2.968 3.14 3.31 3.114 3.283 2.772 3.296 2.431 3.349 2.089 4.557 2.273 5.451 2.418 6.029 2.523 6.081 2.339 6.12 2.115 6.147 1.853 5.911 1.826 5.004 1.695 3.428 1.459 3.533 .959 3.69 .565 3.901 .276 4.531 .644 5.044 1.09 5.438 1.616 5.648 1.432 5.897 1.235 6.186 1.025 5.871 .867 5.595 .69 5.359 .493 5.122 .296 4.754 .052 4.256-.237 4.675-.841 5.044-1.143 5.359-1.143 5.7-1.143 5.963-.841 6.147-.237 6.33-.342 6.567-.487 6.856-.67 6.383-1.485 5.884-1.892 5.359-1.892 4.833-1.892 4.268-1.472 3.664-.631 2.745-1.052 1.983-1.367 1.379-1.577 1.3-1.367 1.129-1.157 .867-.946 1.602-.815 2.404-.526 3.27-.079 3.06 .315 2.876 .788 2.719 1.34 2.167 1.235 1.655 1.13 1.182 1.025L.946 1.735C1.418 1.787 1.957 1.853 2.561 1.932 2.508 2.378 2.456 2.799 2.404 3.193" fill="#2c292a"/>
<path transform="matrix(1,0,0,-1,214.9605,358.8026)" d="M0 0C-.473 .026-.88 .039-1.221 .039H-3.546C-3.73-.329-3.954-.736-4.216-1.183V-6.111C-4.216-6.637-4.203-7.227-4.177-7.885H-5.044C-5.018-7.254-5.004-6.662-5.004-6.111V-2.247C-5.819-3.378-6.922-4.415-8.314-5.362-8.525-5.046-8.722-4.823-8.905-4.691-8.38-4.455-7.684-3.949-6.817-3.174-5.95-2.399-5.149-1.328-4.413 .039H-7.014C-7.513 .039-8.038 .026-8.59 0V.788C-7.802 .762-7.198 .749-6.777 .749H-1.261C-.92 .749-.499 .762 0 .788ZM-3.507-2.326C-3.297-2.142-3.126-1.958-2.995-1.774-2.364-2.353-1.826-2.858-1.379-3.292-.933-3.725-.512-4.153-.118-4.573-.381-4.784-.618-5.007-.828-5.243-1.327-4.612-2.22-3.64-3.507-2.326" fill="#2c292a"/>
<path transform="matrix(1,0,0,-1,216.4272,365.2483)" d="M0 0C.118 .302 .217 .65 .296 1.045 .374 1.439 .453 1.925 .532 2.503 .768 2.424 1.07 2.372 1.438 2.346 1.123 1.82 1.083 1.38 1.32 1.025 1.556 .67 1.766 .414 1.95 .256V3.45C.926 3.45 .243 3.436-.099 3.41V4.12C.243 4.093 .873 4.08 1.793 4.08V5.618C1.215 5.618 .689 5.604 .217 5.578V6.288C.558 6.261 1.083 6.249 1.793 6.249 1.793 6.748 1.779 7.221 1.753 7.668H2.541C2.515 7.195 2.502 6.722 2.502 6.249 3.106 6.249 3.552 6.261 3.842 6.288V5.578C3.552 5.604 3.106 5.618 2.502 5.618V4.08C3.237 4.08 3.815 4.093 4.236 4.12V3.41C3.815 3.436 3.29 3.45 2.66 3.45V2.188C3.132 2.188 3.618 2.201 4.118 2.227V1.518C3.645 1.544 3.158 1.557 2.66 1.557V-.138C3.001-.427 3.874-.598 5.28-.65 6.685-.703 7.9-.65 8.925-.493 8.767-.755 8.649-1.071 8.57-1.439 7.335-1.439 6.311-1.432 5.497-1.419 4.682-1.406 3.98-1.334 3.389-1.202 2.798-1.071 2.318-.867 1.95-.591 1.582-.315 1.241 .046 .926 .493 .663-.217 .4-.874 .138-1.478-.073-1.163-.283-.966-.493-.887-.283-.598-.118-.303 0 0M8.176 .453C8.044 .243 7.782 .138 7.388 .138H5.497C4.945 .138 4.669 .44 4.669 1.045V2.937C4.669 3.305 4.656 3.712 4.63 4.159H7.27V6.17C5.746 6.17 4.787 6.156 4.393 6.13V6.8C4.787 6.774 5.207 6.761 5.654 6.761H8.058C8.031 6.367 8.019 5.815 8.019 5.105 8.019 4.422 8.031 3.883 8.058 3.489H5.418V1.4C5.391 1.005 5.588 .808 6.009 .808H7.112C7.322 .808 7.46 .9 7.526 1.084 7.591 1.268 7.65 1.609 7.703 2.109 7.94 1.951 8.241 1.833 8.61 1.754 8.452 1.097 8.307 .663 8.176 .453" fill="#2c292a"/>
<path transform="matrix(1,0,0,-1,231.0544,357.73823)" d="M0 0C-.027-.263-.039-.539-.039-.828V-1.301H2.325C2.64-1.301 2.981-1.288 3.349-1.262V-2.05C2.981-1.998 2.64-1.971 2.325-1.971H-.039V-4.258H2.679C3.073-4.258 3.507-4.245 3.98-4.218V-4.967C3.533-4.941 3.099-4.928 2.679-4.928H.63C.814-5.191 1.037-5.44 1.3-5.677 1.563-5.913 1.845-6.144 2.148-6.367 2.449-6.59 2.784-6.781 3.152-6.938 3.52-7.096 3.874-7.214 4.216-7.293 3.953-7.53 3.783-7.714 3.704-7.845 3.625-7.977 3.572-8.095 3.546-8.2 2.995-7.963 2.541-7.721 2.187-7.471 1.832-7.221 1.503-6.952 1.202-6.662 .9-6.374 .643-6.098 .433-5.835 .223-5.572 .065-5.322-.039-5.086V-7.333C-.039-7.753-.027-8.252 0-8.831H-.906C-.854-8.252-.828-7.753-.828-7.333V-5.007C-1.379-5.874-1.957-6.577-2.561-7.116-3.166-7.655-3.717-8.069-4.216-8.358-4.374-8.121-4.61-7.885-4.926-7.648-3.98-7.228-3.218-6.722-2.64-6.13-2.063-5.539-1.721-5.139-1.616-4.928H-3.665C-3.98-4.928-4.348-4.954-4.768-5.007V-4.218C-4.348-4.245-3.98-4.258-3.665-4.258H-.828V-1.971H-3.073C-3.521-1.971-3.901-1.998-4.216-2.05V-1.262C-3.901-1.288-3.533-1.301-3.113-1.301H-.828V-.788C-.881-.5-.906-.237-.906 0ZM-1.655-3.745C-1.891-3.851-2.115-3.969-2.325-4.1-2.561-3.627-2.864-3.154-3.231-2.681-3.048-2.55-2.864-2.405-2.679-2.247-2.259-2.72-1.918-3.22-1.655-3.745M1.419-4.139C1.182-4.035 .959-3.942 .749-3.863 1.168-3.102 1.484-2.55 1.694-2.208 1.931-2.287 2.154-2.405 2.364-2.563 2.101-3.01 1.786-3.535 1.419-4.139" fill="#2c292a"/>
</g>
<path transform="matrix(1,0,0,-1,205.0804,339.3284)" d="M0 0H-1.71-3.419L-1.71-3.421ZM-1.14 22.268H-2.28V-.85499957H-1.14Z" fill="#2c292a"/>
<path transform="matrix(1,0,0,-1,152.5818,231.4491)" d="M0 0-1.489-.841-2.978-1.682-3.17 2.138ZM-1.413 .184 11.557-22.801 10.564-23.362-2.405-.376Z" fill="#2c292a"/>
<path transform="matrix(1,0,0,-1,250.713,231.4491)" d="M0 0 1.489-.841 2.978-1.682 3.17 2.138ZM1.413 .184-11.557-22.801-10.564-23.362 2.405-.376Z" fill="#2c292a"/>
<g clip-path="url(#clip_6)">
<path transform="matrix(1,0,0,-1,190.9568,285.9102)" d="M0 0C-.385-.086-.769-.178-1.154-.278-1.539-.378-1.938-.492-2.351-.62-2.764-.748-3.156-.883-3.526-1.026-3.584-.77-3.683-.428-3.826 0-3.512 .057-3.227 .114-2.971 .171V5.688C-2.971 6.286-2.985 6.87-3.013 7.441H.534C.506 6.928 .492 6.357 .492 5.73V.813C.605 .841 .791 .883 1.047 .941V.214C.733 .156 .385 .086 0 0M-.363 6.757H-2.158V5.132H-.363ZM-.363 4.49H-2.158V2.7789999H-.363ZM-1.24 .47C-.969 .527-.677 .584-.363 .641V2.095H-2.159V.299C-1.817 .356-1.511 .413-1.24 .47M1.56 .406C1.845 .905 2.052 1.425 2.18 1.967 2.308 2.508 2.4 3.064 2.458 3.635 2.514 4.205 2.543 4.747 2.543 5.26 2.058 5.26 1.617 5.245 1.218 5.217V5.987C1.588 5.958 2.03 5.944 2.543 5.944V6.928C2.543 7.241 2.529 7.669 2.5 8.211 2.814 8.182 3.184 8.168 3.612 8.168 3.526 7.797 3.476 7.426 3.462 7.056 3.448 6.685 3.441 6.314 3.441 5.944H5.834C5.749 5.488 5.706 4.932 5.706 4.276L5.45-.086C5.421-.627 5.236-.947 4.894-1.048 4.552-1.147 4.11-1.225 3.569-1.283 3.512-.912 3.412-.57 3.27-.257 3.811-.257 4.181-.25 4.381-.235 4.58-.221 4.68 .057 4.68 .599L4.894 5.26H3.441C3.383 4.063 3.284 3.093 3.142 2.352 2.999 1.61 2.821 1.026 2.607 .599 2.394 .171 2.18-.207 1.966-.535 1.752-.862 1.503-1.183 1.218-1.497 .99-1.268 .677-1.083 .278-.941 .848-.542 1.275-.093 1.56 .406" fill="#2c292a"/>
<path transform="matrix(1,0,0,-1,198.2872,281.9117)" d="M0 0C.057 .556 .1 1.09 .128 1.604 .413 1.546 .698 1.518 .983 1.518 .926 1.147 .869 .712 .812 .214 .755-.285 .698-.763 .641-1.219 .385-1.162 .114-1.133-.171-1.133-.114-.934-.057-.556 0 0M.833-3.592C1.104-2.894 1.275-2.188 1.346-1.475 1.417-.763 1.46 .092 1.475 1.09 1.489 2.088 1.481 3.128 1.453 4.212 1.767 4.098 2.08 4.055 2.394 4.084 2.308 3.884 2.265 3.457 2.265 2.801V1.475C2.55 1.703 2.792 1.931 2.992 2.16 3.134 1.931 3.305 1.703 3.505 1.475 3.22 1.304 2.806 1.033 2.265 .663 2.265 .092 2.208-.834 2.094-2.117 2.607-2.459 3.078-2.859 3.505-3.314 3.248-3.543 3.049-3.742 2.907-3.913 2.479-3.4 2.151-3.072 1.923-2.929 1.667-3.899 1.282-4.825 .769-5.709 .541-5.509 .257-5.381-.085-5.324 .257-4.868 .562-4.291 .833-3.592M3.248-5.795C3.02-5.623 2.778-5.495 2.522-5.41 3.035-4.668 3.419-3.956 3.676-3.271 3.904-3.414 4.174-3.528 4.488-3.614 4.317-3.87 3.904-4.597 3.248-5.795M4.232 .535C4.345 .706 4.459 .919 4.573 1.176 4.887 1.033 5.129 .919 5.3 .834 5.414 1.233 5.499 1.66 5.557 2.117H4.659C4.374 1.404 4.089 .762 3.804 .192 3.604 .306 3.348 .392 3.035 .449 3.462 1.161 3.775 1.874 3.975 2.587 4.174 3.299 4.288 3.841 4.317 4.212 4.602 4.127 4.929 4.055 5.3 3.998 5.186 3.855 5.044 3.443 4.873 2.758H6.369C6.226 1.418 5.991 .349 5.663-.449 5.336-1.247 4.744-2.031 3.89-2.801 3.747-2.602 3.49-2.431 3.12-2.288 3.576-2.003 3.96-1.646 4.274-1.219 4.046-.991 3.818-.806 3.59-.663 3.789-.464 3.946-.278 4.061-.107 4.288-.307 4.502-.492 4.702-.663 4.929-.293 5.058-.05 5.086 .064 4.801 .263 4.516 .42 4.232 .535M4.744-3.742 5.428-3.485C5.627-3.998 5.87-4.625 6.155-5.367 5.813-5.452 5.557-5.538 5.386-5.623 5.129-4.825 4.915-4.198 4.744-3.742M8.249-1.454C8.021-.956 7.85-.492 7.737-.064 7.679-.464 7.494-.97 7.181-1.582 6.867-2.196 6.482-2.716 6.027-3.143 5.856-2.972 5.599-2.816 5.257-2.673 5.627-2.388 6.019-1.946 6.433-1.347 6.846-.748 7.095-.007 7.181 .877 6.753 .877 6.439 .862 6.24 .834V1.604C6.468 1.575 6.81 1.561 7.266 1.561 7.266 2.587 7.252 3.528 7.224 4.383 7.48 4.298 7.779 4.255 8.121 4.255 8.064 4.141 8.036 3.785 8.036 3.186V1.561C8.463 1.561 8.976 1.575 9.574 1.604V.834C9.004 .862 8.549 .877 8.207 .877 8.349 .107 8.584-.556 8.912-1.112 9.239-1.668 9.617-2.089 10.045-2.373 9.674-2.544 9.403-2.744 9.233-2.972 8.805-2.459 8.477-1.953 8.249-1.454M7.822-5.068C7.651-5.124 7.409-5.224 7.095-5.367 6.924-4.825 6.696-4.241 6.411-3.614 6.668-3.528 6.896-3.428 7.095-3.314 7.465-4.169 7.708-4.753 7.822-5.068M7.908-3.443C8.164-3.3 8.363-3.172 8.506-3.058 9.132-3.913 9.588-4.611 9.874-5.153 9.645-5.239 9.432-5.381 9.233-5.581 8.976-5.096 8.534-4.383 7.908-3.443M8.207 3.1C8.378 3.214 8.563 3.342 8.762 3.485 9.104 3.086 9.389 2.701 9.617 2.331 9.446 2.245 9.261 2.117 9.062 1.946 8.833 2.345 8.549 2.73 8.207 3.1" fill="#2c292a"/>
<path transform="matrix(1,0,0,-1,213.0764,283.4299)" d="M0 0C.028 .627 .043 1.155 .043 1.582V2.095H-1.368C-1.482 1.382-1.71 .812-2.052 .385-2.394-.043-2.764-.371-3.163-.599-3.306-.342-3.534-.071-3.847 .214-3.306 .413-2.914 .677-2.671 1.005-2.43 1.332-2.266 1.696-2.18 2.095-2.693 2.095-3.249 2.081-3.847 2.053V2.865C-3.22 2.836-2.636 2.822-2.094 2.822-2.066 3.421-2.052 4.02-2.052 4.618-2.451 4.618-2.864 4.604-3.291 4.576V5.345C-2.893 5.317-2.422 5.303-1.881 5.303H.641C.954 5.303 1.325 5.317 1.752 5.345V4.576C1.382 4.604 1.083 4.618 .855 4.618V2.822C1.225 2.822 1.624 2.836 2.052 2.865V2.053C1.624 2.081 1.225 2.095 .855 2.095V1.539C.855 1.026 .869 .513 .898 0ZM.641-1.026C.641-.798 .626-.485 .598-.086H1.496C1.467-.485 1.453-.798 1.453-1.026H3.291C3.861-1.026 4.374-1.012 4.83-.984V-1.796C4.288-1.768 3.775-1.753 3.291-1.753H1.453V-3.122H4.531C5.015-3.122 5.485-3.107 5.941-3.079V-3.892C5.514-3.863 5.058-3.849 4.573-3.849H-2.351C-2.893-3.849-3.377-3.863-3.804-3.892V-3.079C-3.377-3.107-2.893-3.122-2.351-3.122H.641V-1.753H-1.026C-1.624-1.753-2.223-1.768-2.821-1.796L-2.693-.984C-2.18-1.012-1.624-1.026-1.026-1.026ZM.043 2.822V4.618H-1.282C-1.311 3.791-1.325 3.193-1.325 2.822ZM3.334 3.763V2.438C3.334 2.01 3.348 1.568 3.377 1.112H2.522C2.55 1.568 2.564 2.01 2.564 2.438V3.763C2.564 4.304 2.55 4.747 2.522 5.089H3.377C3.348 4.747 3.334 4.304 3.334 3.763M5.343 4.362V1.069C5.371 .556 5.293 .199 5.108 0 4.922-.2 4.516-.342 3.889-.428 3.804-.143 3.676 .185 3.505 .556 4.075 .527 4.395 .556 4.467 .641 4.537 .727 4.573 .941 4.573 1.283V4.362C4.573 4.875 4.559 5.374 4.531 5.859H5.386C5.357 5.374 5.343 4.875 5.343 4.362" fill="#2c292a"/>
</g>
</g>
</g>
</svg>
