<svg xmlns="http://www.w3.org/2000/svg" xmlns:xlink="http://www.w3.org/1999/xlink" xmlns:inkscape="http://www.inkscape.org/namespaces/inkscape" version="1.1" width="411.024" height="595.276" viewBox="0 0 411.024 595.276">
<defs>
<clipPath id="clip_1">
<path transform="matrix(1,0,0,-1,0,595.276)" d="M0 0H411.024V595.276H0Z"/>
</clipPath>
<clipPath id="clip_2">
<path transform="matrix(1,0,0,-1,0,595.276)" d="M0 0H411.024V595.276H0Z"/>
</clipPath>
<path id="font_3_4" d="M.46099855 0V.06399536H.15499878L.4039917 .38186646C.44299317 .43185426 .46099855 .46884156 .46099855 .5258179 .46099855 .6427765 .38198854 .71777346 .2649994 .71777346 .1459961 .71777346 .068984989 .6367645 .068984989 .5248108H.14099121C.14099121 .6167755 .19898987 .6537628 .2649994 .6537628 .34298707 .6537628 .3889923 .6027832 .3889923 .5258179 .3889923 .48683167 .37599183 .45584107 .34899903 .42085267L.067993167 .06399536V0H.46099855Z"/>
<path id="font_3_10" d="M.47099305 .19602967C.47099305 .27897645 .4249878 .33493043 .36499024 .368927 .42099 .40092469 .45700074 .45289613 .45700074 .52685549 .45700074 .6377716 .37399293 .71777346 .26098634 .71777346 .147995 .71777346 .06498718 .6377716 .06498718 .52685549 .06498718 .45289613 .101989749 .40092469 .1579895 .368927 .09799194 .33493043 .050994874 .27897645 .050994874 .19602967 .050994874 .0761261 .14299011-.005859375 .26098634-.005859375 .3789978-.005859375 .47099305 .0761261 .47099305 .19602967M.39898683 .19703675C.39898683 .11808777 .33898927 .058135988 .26098634 .058135988 .18299866 .058135988 .12298584 .11808777 .12298584 .19703675 .12298584 .27597047 .18299866 .3359375 .26098634 .3359375 .33898927 .3359375 .39898683 .27597047 .39898683 .19703675M.3849945 .5258484C.3849945 .45089723 .33399964 .39892579 .26098634 .39892579 .18798828 .39892579 .13699341 .45089723 .13699341 .5258484 .13699341 .59980776 .18798828 .6537628 .26098634 .6537628 .33399964 .6537628 .3849945 .59980776 .3849945 .5258484Z"/>
<path id="font_3_6" d="M.48199464 .11273193V.17773438H.394989V.37979127H.32398988V.17773438H.116989139L.37399293 .71191409H.29699708L.039993287 .17773438V.11273193H.32398988V0H.394989V.11273193H.48199464Z"/>
<clipPath id="clip_4">
<path transform="matrix(1,0,0,-1,0,595.276)" d="M0 0H411.024V595.276H0Z"/>
</clipPath>
<clipPath id="clip_5">
<path transform="matrix(1,0,0,-1,0,595.276)" d="M0 0H411.024V595.276H0Z"/>
</clipPath>
<clipPath id="clip_6">
<path transform="matrix(1,0,0,-1,0,595.276)" d="M0 0H411.024V595.276H0Z"/>
</clipPath>
<clipPath id="clip_7">
<path transform="matrix(1,0,0,-1,0,595.276)" d="M0 0H411.024V595.276H0Z"/>
</clipPath>
<clipPath id="clip_8">
<path transform="matrix(1,0,0,-1,0,595.276)" d="M0 0H411.024V595.276H0Z"/>
</clipPath>
<clipPath id="clip_9">
<path transform="matrix(1,0,0,-1,0,595.276)" d="M0 0H411.024V595.276H0Z"/>
</clipPath>
</defs>
<g clip-path="url(#clip_1)">
<g clip-path="url(#clip_2)">
<use data-text="2" xlink:href="#font_3_4" transform="matrix(9,0,0,-9,35.4331,567.547)" fill="#f43040"/>
<use data-text="8" xlink:href="#font_3_10" transform="matrix(9,0,0,-9,39.0331,567.547)" fill="#f43040"/>
<use data-text="4" xlink:href="#font_3_6" transform="matrix(9,0,0,-9,42.6331,567.547)" fill="#f43040"/>
<path transform="matrix(1,0,0,-1,0,595.276)" d="M196.237 233.725H195.21V279.946H196.237ZM196.237 295.352H195.21V341.573H196.237ZM196.237 356.98H195.21V388.34703H196.237Z" fill="#2c292a"/>
<g clip-path="url(#clip_4)">
<path transform="matrix(1,0,0,-1,172.851,256.4193)" d="M0 0C-.058 4.104 3.301 7.464 7.48 7.483H36.225C40.431 7.464 43.791 4.104 43.791-.042 43.791-4.188 40.431-7.549 36.225-7.483H7.48C3.301-7.549-.058-4.188 0 0" fill="#ffffff"/>
<path transform="matrix(1,0,0,-1,172.851,256.4193)" stroke-width="1" stroke-linecap="butt" stroke-miterlimit="10" stroke-linejoin="miter" fill="none" stroke="#f43040" d="M0 0C-.058 4.104 3.301 7.464 7.48 7.483H36.225C40.431 7.464 43.791 4.104 43.791-.042 43.791-4.188 40.431-7.549 36.225-7.483H7.48C3.301-7.549-.058-4.188 0 0"/>
</g>
<path transform="matrix(1,0,0,-1,193.9489,348.779)" d="M0 0-47.293 51.285-46.574 51.948 .719 .663Z" fill="#2c292a"/>
<path transform="matrix(1,0,0,-1,199.9104,345.2602)" d="M0 0-.745 .634 43.223 52.246 43.968 51.612Z" fill="#2c292a"/>
<g clip-path="url(#clip_5)">
<path transform="matrix(1,0,0,-1,160.5315,347.9801)" d="M0 0C.021 19.083 15.475 34.505 34.528 34.505 53.621 34.505 69.1 19.019 69.1-.084 69.1-.089 69.1-.095 69.077-.147H34.465Z" fill="#f43040"/>
<path transform="matrix(1,0,0,-1,230.114,348.5705)" d="M0 0-35.054 .018-70.116 .137-70.114 .626C-70.083 9.971-66.422 18.751-59.806 25.349-53.189 31.949-44.398 35.584-35.054 35.584-25.689 35.584-16.885 31.935-10.263 25.31-3.641 18.685 .006 9.876 .006 .507ZM-69.131 1.112-35.053 .996-.975 .979C-1.235 19.57-16.423 34.606-35.054 34.606-53.621 34.606-68.806 19.625-69.131 1.112" fill="#2c292a"/>
<path transform="matrix(1,0,0,-1,179.4408,336.2407)" d="M0 0V-6.328H-.917C-.856-5.563-.825-4.906-.825-4.356V0C-.825 .672-.841 1.345-.871 2.018H.046C.015 1.253 0 .58 0 0M1.787 2.659C1.512 2.568 1.252 2.414 1.008 2.201 .763 2.629 .412 3.133-.046 3.714 .198 3.898 .458 4.065 .733 4.219 1.192 3.577 1.542 3.056 1.787 2.659M5.637 1.376C6.065 1.376 6.492 1.391 6.92 1.421V.688C6.584 .718 6.263 .734 5.958 .734V-3.347C6.141-3.347 6.554-3.317 7.195-3.256L7.241-3.989C6.996-3.989 6.569-4.02 5.958-4.081 5.958-4.57 5.973-5.09 6.004-5.64H5.087C5.117-5.09 5.133-4.601 5.133-4.173 3.116-4.295 1.665-4.448 .779-4.631 .748-4.356 .687-4.066 .596-3.76 .901-3.76 1.313-3.73 1.833-3.668V.734C1.558 .734 1.237 .718 .871 .688V1.421C1.237 1.391 1.665 1.376 2.154 1.376ZM8.754 3.577C8.723 2.935 8.708 2.262 8.708 1.559V-5.044C8.708-5.594 8.585-5.938 8.341-6.076 8.096-6.213 7.623-6.343 6.92-6.465 6.859-6.099 6.737-5.762 6.554-5.457 7.104-5.457 7.448-5.441 7.585-5.411 7.723-5.38 7.806-5.212 7.837-4.906V2.843H4.216C3.575 2.843 3.055 2.827 2.658 2.797V3.622C3.3 3.592 3.804 3.577 4.171 3.577ZM5.133 .734H2.658V-.22899997H5.133ZM5.133-.917H2.658V-1.88H5.133ZM5.133-3.439V-2.568H2.658V-3.577Z" fill="#ffffff"/>
<path transform="matrix(1,0,0,-1,193.2359,335.4154)" d="M0 0V-2.935C0-3.485 .015-4.097 .046-4.769H-.871V-3.898H-2.246V-5.64H-3.117C-3.086-5.029-3.071-4.402-3.071-3.76V0C-3.071 .672-3.086 1.376-3.117 2.109H.046C.015 1.376 0 .672 0 0M-.871 1.421H-2.246V-3.21H-.871ZM2.933 3.439H3.85C3.819 3.102 3.804 2.506 3.804 1.651 4.721 1.651 5.545 1.666 6.279 1.697V.917C5.606 .947 4.781 .963 3.804 .963V-.963C5.117-.963 6.065-.948 6.645-.917V-1.697C6.065-1.667 5.163-1.651 3.941-1.651 4.186-2.14 4.621-2.782 5.248-3.577 5.874-4.372 6.584-5.014 7.379-5.502 6.92-5.778 6.615-6.053 6.462-6.328 5.881-5.808 5.377-5.289 4.95-4.769 4.521-4.249 4.14-3.668 3.804-3.026V-5.273C3.804-5.977 3.819-6.618 3.85-7.199H2.933C2.963-6.618 2.979-5.977 2.979-5.273V-2.568C2.582-3.455 2.207-4.158 1.856-4.677 1.505-5.197 .977-5.839 .275-6.603 .092-6.328-.229-6.099-.688-5.915-.168-5.61 .39-5.067 .985-4.287 1.581-3.508 2.062-2.629 2.429-1.651 1.787-1.651 1.13-1.667 .458-1.697V-.917C1.13-.948 1.971-.963 2.979-.963V.963C2.123 .963 1.405 .947 .825 .917V1.697C1.405 1.666 2.123 1.651 2.979 1.651 2.979 2.476 2.963 3.072 2.933 3.439" fill="#ffffff"/>
<path transform="matrix(1,0,0,-1,201.5313,336.3325)" d="M0 0C.488-.031 .917-.046 1.283-.046H2.246C2.215-.535 2.2-1.055 2.2-1.605V-4.173C2.994-4.906 4.338-5.273 6.233-5.273 8.158-5.273 9.625-5.197 10.633-5.044 10.48-5.411 10.358-5.778 10.266-6.144 9.075-6.174 8.043-6.182 7.173-6.167 6.302-6.152 5.576-6.114 4.996-6.053 4.415-5.991 3.942-5.892 3.575-5.755 3.208-5.617 2.834-5.418 2.452-5.159 2.07-4.899 1.757-4.891 1.512-5.136 1.268-5.38 .978-5.732 .642-6.19 .367-5.915 .092-5.686-.183-5.502 .275-5.197 .779-4.769 1.329-4.219V-.78C.871-.78 .428-.795 0-.825ZM.733 3.622C1.1 3.683 1.421 3.775 1.696 3.898 1.909 3.286 2.108 2.614 2.292 1.88 1.986 1.818 1.665 1.712 1.329 1.559 1.207 2.109 1.008 2.797 .733 3.622M3.071 2.751C3.529 2.72 4.919 2.705 7.241 2.705 7.485 3.286 7.715 3.882 7.929 4.494 8.326 4.34 8.662 4.219 8.937 4.127 8.723 3.913 8.448 3.439 8.112 2.705 9.304 2.705 10.159 2.72 10.679 2.751V1.926C10.159 1.956 8.998 1.972 7.195 1.972L6.966 1.055H9.625C9.594 .321 9.579-.642 9.579-1.834 9.579-2.996 9.594-3.867 9.625-4.448H3.896C3.957-3.776 3.987-2.905 3.987-1.834 3.987-.764 3.971 .198 3.942 1.055H6.004L6.233 1.972C4.583 1.972 3.529 1.956 3.071 1.926ZM5.958 3.256C5.713 3.102 5.469 2.935 5.225 2.751 5.011 3.118 4.705 3.531 4.308 3.989 4.522 4.142 4.751 4.31 4.996 4.494 5.392 4.004 5.713 3.592 5.958 3.256M8.708 .321H4.9040005V-.54999998H8.708ZM8.708-1.238H4.9040005V-2.109H8.708ZM8.708-2.797H4.9040005V-3.714H8.708ZM8.708-3.714" fill="#ffffff"/>
</g>
<path transform="matrix(1,0,0,-1,0,595.276)" d="M297.397 246.465H95.298999V248.42099H297.397Z" fill="#2c292a"/>
<g clip-path="url(#clip_6)">
<path transform="matrix(1,0,0,-1,279.3232,347.7763)" d="M0 0C-9.76 38.579-44.403 65.523-84.246 65.523-123.435 65.523-157.939 39.111-168.154 1.295L-169.098 1.55C-166.603 10.788-162.627 19.515-157.282 27.489-152.02 35.338-145.566 42.26-138.1 48.061-130.558 53.921-122.182 58.482-113.204 61.616-103.917 64.857-94.174 66.501-84.246 66.501-74.2 66.501-64.348 64.819-54.962 61.501-45.891 58.295-37.445 53.634-29.859 47.647-22.346 41.719-15.883 34.656-10.651 26.655-5.33 18.52-1.428 9.632 .948 .24Z" fill="#2c292a"/>
<path transform="matrix(1,0,0,-1,132.2262,294.1295)" d="M0 0C.059 8.067 6.654 14.666 14.789 14.666 22.924 14.666 29.519 8.067 29.519-.072 29.519-8.211 22.924-14.809 14.789-14.809 6.654-14.809 .059-8.211 0 0" fill="#ffffff"/>
<path transform="matrix(1,0,0,-1,132.2262,294.1295)" stroke-width="1" stroke-linecap="butt" stroke-miterlimit="10" stroke-linejoin="miter" fill="none" stroke="#f43040" d="M0 0C.059 8.067 6.654 14.666 14.789 14.666 22.924 14.666 29.519 8.067 29.519-.072 29.519-8.211 22.924-14.809 14.789-14.809 6.654-14.809 .059-8.211 0 0"/>
<path transform="matrix(1,0,0,-1,143.4984,293.2288)" d="M0 0C.316-.275 .681-.544 1.093-.805 1.506-1.067 1.945-1.279 2.413-1.444 2.88-1.609 3.334-1.733 3.774-1.816 3.499-2.091 3.306-2.421 3.197-2.806L1.712-2.187C1.684-2.628 1.671-3.26 1.671-4.086 1.671-4.884 1.684-5.571 1.712-6.149H.846V-5.365H-3.238V-6.273H-4.104C-4.077-5.695-4.063-5.008-4.063-4.209-4.063-3.384-4.077-2.751-4.104-2.311-4.572-2.586-4.97-2.806-5.3-2.971-5.603-2.532-5.837-2.256-6.002-2.146-5.424-1.954-4.895-1.727-4.414-1.465-3.933-1.204-3.5-.901-3.114-.557-2.729-.214-2.392 .158-2.104 .557-1.815 .956-1.561 1.389-1.341 1.857-1.011 1.692-.654 1.554-.268 1.444-.433 1.279-.598 1.086-.763 .867-.571 .564-.316 .275 0 0M-3.444 1.733C-3.939 1.21-4.434 .756-4.929 .371-5.122 .619-5.369 .825-5.672 .99-5.177 1.293-4.716 1.637-4.29 2.022-3.864 2.407-3.485 2.861-3.155 3.384-2.908 3.191-2.564 3.026-2.124 2.889-2.51 2.641-2.949 2.256-3.444 1.733M1.382-2.105C.831-1.775 .302-1.369-.206-.887-.715-.406-1.038-.028-1.176 .248-1.561-.193-1.959-.613-2.372-1.011-2.784-1.41-3.252-1.775-3.774-2.105ZM.846-2.806H-3.2380002V-4.663H.846ZM2.537 .743C2.069 1.1 1.176 1.747-.144 2.682-.035 2.875 .158 3.109 .433 3.384 .846 3.026 1.753 2.379 3.155 1.444 2.88 1.224 2.674 .99 2.537 .743" fill="#2c292a"/>
<path transform="matrix(1,0,0,-1,153.7898,294.2192)" d="M0 0V-.702C-.33-.674-.715-.66-1.155-.66V-4.168C-1.155-4.581-1.293-4.849-1.567-4.973-1.843-5.097-2.242-5.186-2.764-5.241-2.819-4.966-2.943-4.677-3.135-4.374-2.613-4.402-2.276-4.395-2.124-4.354-1.974-4.313-1.897-4.168-1.897-3.921V-.66H-4.372C-4.758-.66-5.156-.674-5.569-.702V0C-5.184-.028-4.799-.041-4.414-.041H-1.114C-.701-.041-.33-.028 0 0M-1.897 3.136H-4.331C-4.744 3.136-5.143 3.122-5.527 3.095V3.797C-5.143 3.769-4.744 3.755-4.331 3.755H-1.402C-1.018 3.755-.646 3.769-.289 3.797V3.136C-.619 3.163-.907 3.178-1.155 3.178V.33H-1.897ZM-3.341-3.879V-3.59H-4.372V-4.54H-5.156C-5.129-4.044-5.115-3.522-5.115-2.971-5.115-2.394-5.129-1.857-5.156-1.362H-2.599C-2.626-1.775-2.64-2.187-2.64-2.6-2.64-3.013-2.626-3.439-2.599-3.879ZM-2.599 1.527C-2.599 1.197-2.585 .852-2.557 .495H-5.115C-5.088 .852-5.074 1.183-5.074 1.486-5.074 1.816-5.088 2.159-5.115 2.517H-2.557C-2.585 2.187-2.599 1.857-2.599 1.527M-3.341-1.94H-4.372V-3.054H-3.341ZM-3.3 1.94H-4.331V1.115H-3.3ZM2.248-3.755C1.959-3.316 1.718-2.82 1.526-2.27 1.361-2.738 1.134-3.205 .846-3.673 .557-4.141 .137-4.636-.412-5.159-.605-4.938-.825-4.732-1.072-4.54-.688-4.264-.324-3.914 .021-3.487 .364-3.061 .612-2.628 .763-2.187 .914-1.747 .99-1.252 .99-.702 .99-.124 .976 .344 .949 .702H1.856C1.828 .344 1.815-.028 1.815-.413 1.815-.771 1.877-1.183 2-1.651 2.124-2.119 2.378-2.6 2.764-3.095 3.148-3.59 3.574-3.976 4.042-4.251 3.712-4.47 3.465-4.718 3.3-4.993 2.887-4.608 2.537-4.196 2.248-3.755M.742 1.775C.522 1.334 .289 .852 .041 .33-.206 .467-.481 .578-.784 .66-.454 1.128-.124 1.74 .206 2.497 .536 3.253 .742 3.879 .825 4.374 1.155 4.236 1.471 4.127 1.774 4.044 1.636 3.851 1.491 3.563 1.341 3.178 1.189 2.792 1.072 2.517 .99 2.352H3.754C3.589 1.802 3.424 1.141 3.259 .371 2.956 .426 2.708 .467 2.516 .495 2.626 1.018 2.722 1.444 2.805 1.775Z" fill="#2c292a"/>
<path transform="matrix(1,0,0,-1,224.1818,294.1295)" d="M0 0C.073 8.067 6.668 14.666 14.803 14.666 22.939 14.666 29.534 8.067 29.534-.072 29.534-8.211 22.939-14.809 14.803-14.809 6.668-14.809 .073-8.211 0 0" fill="#ffffff"/>
<path transform="matrix(1,0,0,-1,224.1818,294.1295)" stroke-width="1" stroke-linecap="butt" stroke-miterlimit="10" stroke-linejoin="miter" fill="none" stroke="#f43040" d="M0 0C.073 8.067 6.668 14.666 14.803 14.666 22.939 14.666 29.534 8.067 29.534-.072 29.534-8.211 22.939-14.809 14.803-14.809 6.668-14.809 .073-8.211 0 0"/>
<path transform="matrix(1,0,0,-1,230.2307,290.959)" d="M0 0V-8.46H-.784C-.757-7.497-.742-6.851-.742-6.52V-1.362C-.742-.454-.757 .22-.784 .66H2.145C1.842-.358 1.54-1.431 1.237-2.559 1.897-3.522 2.254-4.278 2.31-4.828 2.337-5.351 2.207-5.736 1.918-5.984 1.629-6.232 1.182-6.438 .577-6.603 .495-6.301 .371-6.012 .206-5.736 .784-5.682 1.155-5.558 1.32-5.365 1.485-5.2 1.519-4.911 1.423-4.498 1.326-4.086 .99-3.481 .413-2.682 .687-1.967 .935-1.073 1.155 0ZM7.218 .619C7.686 .619 8.057 .633 8.332 .66V-.083C7.782-.055 7.493-.041 7.466-.041V-7.098C7.466-7.676 7.342-8.027 7.095-8.151 6.847-8.274 6.421-8.377 5.816-8.46 5.76-8.13 5.623-7.813 5.404-7.511 5.953-7.538 6.311-7.517 6.476-7.449 6.641-7.381 6.723-7.181 6.723-6.851V-.041H3.795C3.602-.041 3.135-.055 2.392-.083V.66C2.97 .633 3.437 .619 3.795 .619ZM5.816-3.673C5.816-4.609 5.83-5.351 5.857-5.901H5.074V-5.241H3.671V-6.314H2.887C2.914-5.874 2.929-5.076 2.929-3.92 2.929-2.738 2.914-1.885 2.887-1.362H5.857C5.83-1.967 5.816-2.738 5.816-3.673M5.074-2.063H3.672V-4.58H5.074ZM5.074-4.581" fill="#2c292a"/>
<path transform="matrix(1,0,0,-1,247.8437,292.6511)" d="M0 0C0-.99 .013-1.775 .041-2.352H-3.135V-3.467H-1.196C-.839-3.467-.371-3.439 .206-3.384V-4.209C-.371-4.182-.839-4.168-1.196-4.168H-3.135V-5.571H-.289C.124-5.571 .605-5.558 1.155-5.53V-6.355C.605-6.328 .124-6.314-.289-6.314H-6.352C-6.847-6.314-7.411-6.341-8.043-6.397V-5.53C-7.576-5.558-7.012-5.571-6.352-5.571H-3.919V-4.168H-5.733C-6.091-4.168-6.559-4.182-7.136-4.209V-3.384C-6.723-3.439-6.256-3.467-5.733-3.467H-3.919V-2.352H-6.971C-6.944-1.775-6.923-1.08-6.909-.268-6.896 .543-6.916 1.417-6.971 2.352H.041C.013 1.775 0 .99 0 0M-3.919 1.651H-6.105V.28900004H-3.919ZM-3.919-.371H-6.105V-1.6500001H-3.919ZM-.784 1.651H-3.135V.28900004H-.784ZM-.784-.371H-3.135V-1.6500001H-.784ZM-.784-1.651" fill="#2c292a"/>
<path transform="matrix(1,0,0,-1,127.0122,224.27912)" d="M0 0V-1.522H.507C.845-1.522 1.205-1.511 1.589-1.488V-2.097C1.205-2.074 .856-2.063 .541-2.063H0V-5.546C0-5.929 .011-6.278 .034-6.594H-.642C-.62-6.233-.608-5.884-.608-5.546V-3.348C-.946-3.979-1.453-4.701-2.129-5.512-2.242-5.355-2.423-5.197-2.67-5.039-2.175-4.565-1.741-4.019-1.369-3.399-.997-2.779-.789-2.333-.744-2.063H-1.352C-1.848-2.063-2.209-2.074-2.434-2.097V-1.488C-2.186-1.511-1.825-1.522-1.352-1.522H-.608V-.101C-.902-.147-1.364-.203-1.994-.271-2.04-.045-2.107 .157-2.197 .338-1.769 .36-1.228 .417-.575 .507 .079 .597 .631 .732 1.082 .913 1.126 .665 1.228 .417 1.386 .169 1.183 .169 .721 .113 0 0M.101-3.01C.237-2.92 .406-2.785 .608-2.604 1.036-3.077 1.397-3.562 1.69-4.058 1.465-4.193 1.273-4.34 1.115-4.498 .822-3.934 .484-3.438 .101-3.01M4.867-1.42V-4.903C4.867-5.309 4.878-5.636 4.901-5.884H4.225V-5.073H2.603V-5.952H1.96C1.983-5.433 1.994-5.118 1.994-5.005V-1.42C1.994-1.037 1.983-.62 1.96-.169H4.901C4.878-.62 4.867-1.037 4.867-1.42M4.225-.744H2.603V-4.532H4.225ZM4.225-4.531" fill="#2c292a"/>
<path transform="matrix(1,0,0,-1,136.3993,223.33222)" d="M0 0C-.045-.631-.068-1.172-.068-1.623V-6.594H1.048V-1.217C1.048-.857 1.025-.451 .98 0H1.825C1.78-.361 1.758-.744 1.758-1.15V-6.594H3.076C3.436-6.594 3.875-6.572 4.394-6.527V-7.271C3.875-7.225 3.448-7.203 3.11-7.203H-2.028C-2.344-7.203-2.794-7.225-3.38-7.271V-6.527C-2.794-6.572-2.355-6.594-2.062-6.594H-.811V-1.589C-.811-1.116-.845-.586-.913 0ZM-1.318-4.768C-1.566-4.814-1.825-4.904-2.096-5.039-2.501-3.732-2.862-2.717-3.177-1.995-2.952-1.905-2.704-1.804-2.434-1.691-2.163-2.39-1.791-3.416-1.318-4.768M2.873-5.106C2.647-4.971 2.411-4.87 2.163-4.802 2.636-3.923 2.997-2.863 3.245-1.623 3.493-1.714 3.774-1.804 4.09-1.894 3.797-2.66 3.391-3.732 2.873-5.106" fill="#2c292a"/>
<path transform="matrix(1,0,0,-1,144.5695,223.9747)" d="M0 0H3.752C3.549-.338 3.284-.699 2.958-1.082 2.631-1.466 2.219-1.826 1.724-2.164 2.039-2.367 2.467-2.519 3.008-2.621 3.549-2.722 4.191-2.785 4.935-2.807 4.754-3.01 4.631-3.246 4.563-3.517 3.932-3.472 3.312-3.36 2.704-3.179 2.096-2.999 1.589-2.785 1.183-2.536 .462-2.874-.192-3.123-.777-3.28-1.364-3.438-1.938-3.562-2.501-3.652-2.592-3.382-2.727-3.145-2.907-2.942-2.411-2.942-1.848-2.874-1.217-2.739-.586-2.604 .034-2.413 .642-2.164 .169-1.714-.237-1.251-.575-.778-.958-1.251-1.352-1.646-1.758-1.961-1.916-1.781-2.118-1.646-2.366-1.556-1.735-1.105-1.273-.671-.98-.254-.688 .163-.473 .552-.338 .913-.045 .755 .225 .631 .473 .541 .293 .383 .135 .203 0 0M.406-3.923C.451-3.652 .473-3.337 .473-2.976 .744-3.021 1.014-3.055 1.284-3.077 1.217-3.213 1.149-3.495 1.082-3.923H3.819C3.797-4.193 3.774-4.503 3.752-4.853 3.729-5.203 3.69-5.58 3.634-5.986 3.577-6.391 3.414-6.628 3.143-6.696 2.873-6.763 2.445-6.831 1.859-6.899 1.814-6.605 1.701-6.358 1.521-6.155 2.174-6.155 2.569-6.133 2.704-6.087 2.839-6.042 2.929-5.918 2.974-5.715L3.076-4.43H1.014C.698-5.4 .254-6.031-.321-6.324-.896-6.617-1.51-6.876-2.163-7.102-2.231-6.899-2.389-6.662-2.636-6.391-2.096-6.346-1.533-6.177-.946-5.884-.361-5.591 .056-5.106 .304-4.43H-.473C-1.149-4.43-1.645-4.453-1.96-4.498V-3.889C-1.622-3.912-1.115-3.923-.439-3.923ZM2.535-.507H0C.428-1.071 .833-1.5 1.217-1.792 1.667-1.522 2.107-1.094 2.535-.507" fill="#2c292a"/>
<path transform="matrix(1,0,0,-1,155.6804,223.738)" d="M0 0C.473 0 .901 .011 1.284 .034V-.609C.946-.586 .518-.575 0-.575H-1.589C-1.589-1.319-1.611-1.995-1.656-2.604H.946C1.352-2.604 1.724-2.593 2.062-2.57V-3.213C1.724-3.19 1.363-3.179 .98-3.179H-.541V-5.817C-.541-6.11-.372-6.256-.034-6.256H1.115C1.363-6.256 1.498-5.918 1.521-5.242 1.746-5.377 1.994-5.478 2.265-5.546 2.152-6.425 1.893-6.865 1.487-6.865H-.372C-.89-6.842-1.149-6.549-1.149-5.986V-3.179H-1.724C-1.904-4.036-2.124-4.684-2.383-5.123-2.642-5.563-2.941-5.935-3.279-6.239-3.617-6.544-4.124-6.887-4.8-7.271-4.913-7.022-5.104-6.831-5.374-6.696-4.833-6.447-4.394-6.194-4.056-5.935-3.718-5.676-3.397-5.355-3.093-4.971-2.789-4.588-2.547-3.99-2.366-3.179H-3.853C-4.417-3.179-4.822-3.19-5.07-3.213V-2.57C-4.822-2.593-4.417-2.604-3.853-2.604H-2.298C-2.276-1.928-2.265-1.251-2.265-.575H-3.177C-3.628-.575-4.045-.586-4.428-.609V.034C-4.045 .011-3.628 0-3.177 0Z" fill="#2c292a"/>
<path transform="matrix(1,0,0,-1,164.3069,224.21149)" d="M0 0C-.147-.271-.276-.519-.389-.744H.355C.828-.744 1.245-.733 1.606-.71V-1.353C1.312-1.33 .93-1.319 .456-1.319H-1.301V-3.01H.828C1.279-3.01 1.684-2.999 2.045-2.976V-3.618C1.684-3.596 1.301-3.585 .896-3.585H-1.166C-.49-4.734 .636-5.478 2.214-5.817 2.011-6.042 1.831-6.312 1.673-6.628 .254-6.155-.817-5.332-1.538-4.159-1.921-5.152-2.98-6.008-4.715-6.73-4.805-6.504-4.974-6.301-5.222-6.121-3.487-5.647-2.417-4.802-2.011-3.585H-3.802C-4.321-3.585-4.749-3.596-5.087-3.618V-3.01C-4.839-3.032-4.456-3.044-3.938-3.044H-1.943V-1.319H-3.532C-3.96-1.319-4.343-1.33-4.681-1.353V-.71C-4.343-.733-3.949-.744-3.498-.744H-1.065C-.749-.023-.524 .575-.389 1.048-.164 .913 .107 .778 .423 .643 .287 .485 .146 .271 0 0M-2.112-.271C-2.383-.406-2.597-.541-2.755-.676-3.025-.158-3.296 .271-3.566 .609-3.363 .744-3.183 .879-3.025 1.015-2.733 .654-2.428 .225-2.112-.271" fill="#2c292a"/>
<path transform="matrix(1,0,0,-1,87.9057,236.30429)" d="M0 0C-.101-.181-.242-.406-.422-.676V-3.72C-.422-4.013-.411-4.464-.389-5.073H-1.099C-1.076-4.396-1.065-3.889-1.065-3.551V-1.386C-1.268-1.725-1.538-2.063-1.876-2.401-2.034-2.176-2.18-1.984-2.315-1.826-1.797-1.33-1.392-.857-1.099-.406-.806 .045-.547 .473-.321 .879-.096 .744 .163 .597 .456 .44 .254 .327 .101 .18 0 0M-.558 1.775C-.851 1.313-1.256 .8-1.775 .237-1.91 .417-2.057 .586-2.214 .744-1.854 1.104-1.527 1.493-1.234 1.911-.941 2.328-.727 2.694-.591 3.01-.367 2.874-.118 2.705 .152 2.503-.029 2.48-.265 2.237-.558 1.775M4.512 .034C4.94 .034 5.335 .045 5.695 .068V-.609C5.335-.586 4.952-.575 4.546-.575H4.073V-4.261C4.095-4.531 4.011-4.717 3.819-4.819 3.628-4.92 3.25-5.005 2.687-5.073 2.642-4.802 2.518-4.531 2.315-4.261 2.698-4.306 2.969-4.323 3.127-4.312 3.284-4.3 3.374-4.182 3.397-3.957V-.575H2.045C1.617-.575 1.211-.586 .828-.609V.068C1.234 .045 1.639 .034 2.045 .034ZM3.938 2.333C4.321 2.333 4.715 2.344 5.121 2.367V1.725C4.715 1.747 4.298 1.758 3.87 1.758H2.62C2.124 1.758 1.695 1.747 1.335 1.725V2.367C1.695 2.344 2.124 2.333 2.62 2.333Z" fill="#2c292a"/>
<path transform="matrix(1,0,0,-1,95.6704,240.1594)" d="M0 0C-.688-.203-1.11-.338-1.268-.406-1.358-.158-1.448 .101-1.538 .372-1.268 .417-1.02 .462-.794 .507V2.874C-.794 3.325-.806 3.697-.828 3.99H-.118C-.141 3.697-.152 3.325-.152 2.874V.643L.625 .812V5.411C-.096 5.411-.648 5.399-1.031 5.377V5.986C-.671 5.963-.321 5.952 .017 5.952H1.572C1.887 5.952 2.236 5.963 2.62 5.986V5.377C2.236 5.399 1.786 5.411 1.267 5.411V3.483C1.56 3.483 1.887 3.494 2.248 3.517V2.908C1.887 2.931 1.56 2.942 1.267 2.942V.947L2.484 1.251V.676C1.515 .428 .687 .203 0 0M2.704 0C3.121 .225 3.476 .518 3.769 .879 3.588 1.24 3.431 1.645 3.296 2.097 3.16 2.547 3.059 3.01 2.991 3.483L2.822 3.213C2.642 3.325 2.451 3.449 2.248 3.585 2.518 3.968 2.772 4.424 3.008 4.954 3.245 5.484 3.453 6.087 3.634 6.763 3.791 6.673 4.061 6.549 4.445 6.391 4.332 6.301 4.213 6.121 4.09 5.85 3.966 5.58 3.859 5.332 3.769 5.106H5.222C5.65 5.106 6.033 5.117 6.371 5.14V4.532C6.056 4.554 5.763 4.565 5.493 4.565 5.47 3.708 5.368 2.953 5.188 2.3 5.008 1.645 4.794 1.161 4.546 .845 4.816 .529 5.121 .282 5.459 .101 5.797-.079 6.169-.214 6.574-.304 6.281-.575 6.101-.834 6.033-1.082 5.65-.879 5.318-.676 5.036-.473 4.754-.271 4.467 0 4.174 .338 3.814-.023 3.459-.315 3.11-.541 2.76-.766 2.405-.969 2.045-1.15 1.91-.834 1.729-.597 1.504-.44 1.887-.372 2.287-.226 2.704 0M3.634 3.618C3.746 2.829 3.926 2.119 4.174 1.488 4.354 1.916 4.501 2.35 4.614 2.79 4.726 3.23 4.805 3.821 4.85 4.565H3.566C3.408 4.249 3.228 3.911 3.025 3.551 3.25 3.573 3.453 3.596 3.634 3.618" fill="#2c292a"/>
</g>
<path transform="matrix(1,0,0,-1,0,595.276)" d="M104.251 353.662H104.927V362.25199H104.251Z" fill="#2c292a"/>
<g clip-path="url(#clip_7)">
<path transform="matrix(1,0,0,-1,109.6703,234.2414)" d="M0 0-.473-.101V-1.522C-.27-1.522 .101-1.511 .642-1.488V-2.097C.101-2.074-.27-2.063-.473-2.063V-3.01C-.361-2.965-.226-2.863-.068-2.705 0-2.773 .101-2.92 .237-3.145 .372-3.371 .484-3.54 .575-3.652 .372-3.788 .191-3.934 .034-4.092-.057-3.889-.141-3.715-.22-3.568-.299-3.421-.383-3.292-.473-3.179V-5.614C-.473-5.997-.462-6.504-.439-7.135H-1.149C-1.127-6.504-1.115-5.997-1.115-5.614V-3.821C-1.228-4.137-1.347-4.419-1.47-4.667-1.594-4.915-1.791-5.242-2.062-5.647-2.197-5.445-2.366-5.242-2.569-5.039-2.434-4.926-2.287-4.751-2.129-4.515-1.972-4.278-1.831-4.013-1.707-3.72-1.583-3.427-1.408-2.874-1.183-2.063-1.408-2.063-1.814-2.074-2.4-2.097V-1.488C-1.814-1.511-1.386-1.522-1.115-1.522V-.237C-1.318-.282-1.645-.338-2.096-.406-2.163-.203-2.254-.012-2.366 .169-1.893 .214-1.442 .282-1.014 .372-.586 .462-.147 .62 .304 .845 .417 .62 .563 .394 .744 .169 .473 .124 .225 .068 0 0M4.36-.287C4.293-.727 4.202-1.234 4.09-1.809 3.977-2.384 3.803-2.988 3.566-3.618 3.329-4.25 2.986-4.825 2.535-5.343V-5.986C2.535-6.211 2.648-6.329 2.873-6.341 3.098-6.352 3.335-6.358 3.583-6.358 3.853-6.358 4.028-6.29 4.107-6.155 4.185-6.019 4.236-5.681 4.259-5.14 4.416-5.321 4.664-5.433 5.003-5.478 4.867-6.358 4.653-6.825 4.36-6.882 4.067-6.938 3.786-6.966 3.515-6.966 3.267-6.966 2.946-6.961 2.552-6.949 2.157-6.938 1.949-6.684 1.927-6.189V-5.85C1.701-6.031 1.493-6.183 1.301-6.307 1.11-6.431 .89-6.572 .642-6.73 .484-6.549 .293-6.358 .068-6.155 .518-5.975 .89-5.789 1.183-5.597 1.476-5.405 1.724-5.197 1.927-4.971V-2.502C1.927-2.029 1.915-1.612 1.893-1.251H2.569C2.546-1.477 2.535-1.781 2.535-2.164V-4.295C2.715-3.979 2.867-3.675 2.991-3.382 3.115-3.089 3.228-2.745 3.329-2.35 3.431-1.956 3.521-1.505 3.6-.998 3.678-.49 3.763 .124 3.853 .845 4.011 .8 4.281 .732 4.664 .643 4.529 .462 4.428 .152 4.36-.287M1.335-3.196C1.234-3.635 1.127-4.148 1.014-4.734 .788-4.689 .575-4.645 .372-4.599 .507-4.261 .62-3.861 .71-3.399 .8-2.937 .867-2.469 .913-1.995 1.115-2.063 1.352-2.119 1.622-2.164 1.532-2.413 1.437-2.756 1.335-3.196M2.738 .186C2.941 .039 3.143-.113 3.346-.271 3.166-.406 3.008-.575 2.873-.778 2.76-.71 2.597-.581 2.383-.389 2.169-.198 1.927-.012 1.656 .169 1.836 .349 2.005 .485 2.163 .575 2.343 .462 2.535 .332 2.738 .186M5.087-2.993C5.211-3.365 5.34-3.732 5.476-4.092 5.25-4.16 5.025-4.25 4.8-4.362 4.732-4.115 4.636-3.765 4.512-3.314 4.388-2.863 4.259-2.491 4.124-2.198 4.326-2.108 4.529-2.029 4.732-1.961 4.845-2.277 4.963-2.621 5.087-2.993" fill="#2c292a"/>
<path transform="matrix(1,0,0,-1,118.8546,235.1883)" d="M0 0C0 .766-.012 1.353-.034 1.758H.744C.698 1.42 .676 .834 .676 0H3.245C3.199-.203 3.121-.97 3.008-2.3H4.293C4.18-3.765 4.09-4.605 4.022-4.819 3.955-5.033 3.78-5.18 3.498-5.259 3.216-5.337 2.895-5.399 2.535-5.445 2.467-5.084 2.366-4.825 2.231-4.667 2.636-4.689 2.935-4.678 3.127-4.633 3.318-4.588 3.425-4.442 3.448-4.193L3.549-2.942H.676V-4.734C.676-5.186 .687-5.625 .71-6.053H-.101C-.034-5.647 0-5.219 0-4.768V-2.942H-1.589C-1.904-2.942-2.332-2.954-2.873-2.976V-2.266C-2.4-2.288-1.949-2.3-1.521-2.3H0V-.575H-1.318C-1.453-.575-1.758-.586-2.231-.609V.034C-1.78 .011-1.397 0-1.082 0ZM2.332-2.3 2.467-.575H.676V-2.3ZM3.583 1.031C3.831 .795 4.078 .541 4.326 .271 4.056 .045 3.875-.113 3.786-.203 3.583 .113 3.076 .62 2.265 1.319 2.49 1.499 2.659 1.645 2.772 1.758 3.064 1.51 3.335 1.268 3.583 1.031" fill="#2c292a"/>
<path transform="matrix(1,0,0,-1,127.9375,235.797)" d="M0 0C0 .157-.012 .383-.034 .676H.71C.687 .383 .676 .157 .676 0H2.096C2.434 0 2.828 .011 3.279 .034V-.541C2.85-.519 2.467-.507 2.129-.507H.676V-1.42H3.11C3.47-1.42 3.875-1.409 4.326-1.386V-1.995C3.898-1.973 3.493-1.961 3.11-1.961H2.4V-2.841C2.963-2.841 3.436-2.83 3.819-2.807V-3.416C3.368-3.393 2.895-3.382 2.4-3.382V-4.498C2.422-4.903 2.304-5.157 2.045-5.259 1.786-5.36 1.386-5.445 .845-5.512 .8-5.242 .71-4.993 .575-4.768 .957-4.79 1.239-4.79 1.42-4.768 1.6-4.745 1.69-4.588 1.69-4.295V-3.382H-1.859C-2.152-3.382-2.535-3.393-3.008-3.416V-2.807C-2.558-2.83-2.129-2.841-1.724-2.841H1.69V-1.961H-2.501C-2.794-1.961-3.189-1.973-3.684-1.995V-1.386C-3.189-1.409-2.794-1.42-2.501-1.42H0V-.507H-1.352C-1.668-.507-2.062-.519-2.535-.541V.034C-1.927 .011-1.533 0-1.352 0ZM-1.927 1.725H-.71C-.237 1.725 .157 1.736 .473 1.758V1.217C.225 1.24-.09 1.251-.473 1.251H-.879C-.766 1.071-.631 .834-.473 .541-.744 .451-.992 .372-1.217 .304-1.217 .349-1.33 .665-1.555 1.251H-2.163C-2.344 .981-2.603 .643-2.941 .237-3.143 .394-3.358 .518-3.583 .609-3.268 .857-3.008 1.138-2.805 1.454-2.603 1.77-2.423 2.119-2.265 2.502-1.994 2.389-1.736 2.3-1.487 2.232-1.622 2.142-1.769 1.973-1.927 1.725M-1.082-4.937C-1.284-4.554-1.555-4.182-1.893-3.821-1.736-3.732-1.555-3.607-1.352-3.449-1.014-3.81-.721-4.182-.473-4.565-.676-4.678-.879-4.802-1.082-4.937M.406 .845C.631 1.026 .822 1.251 .98 1.522 1.138 1.792 1.284 2.097 1.42 2.435 1.667 2.344 1.927 2.254 2.197 2.164 2.016 2.006 1.881 1.848 1.791 1.691H3.177C3.335 1.691 3.718 1.702 4.326 1.725V1.184C3.898 1.206 3.481 1.217 3.076 1.217 3.324 .812 3.504 .529 3.617 .372 3.301 .304 3.042 .237 2.839 .169 2.794 .372 2.648 .721 2.4 1.217H1.521C1.408 1.037 1.251 .823 1.048 .575 .867 .687 .653 .778 .406 .845" fill="#2c292a"/>
<path transform="matrix(1,0,0,-1,136.0064,237.75839)" d="M0 0C.293 .18 .575 .394 .845 .643H-1.622C-1.938 .643-2.344 .631-2.839 .609V1.217C-2.344 1.195-1.949 1.184-1.656 1.184H.034V2.435H-.71C-1.093 2.435-1.487 2.412-1.893 2.367V3.01C-1.487 2.987-1.104 2.976-.744 2.976H.034C.034 3.494 .022 3.923 0 4.261H.71C.687 4.013 .676 3.585 .676 2.976 1.126 2.976 1.724 2.987 2.467 3.01V2.401C1.724 2.423 1.126 2.435 .676 2.435V1.184H1.521C1.971 1.679 2.343 2.119 2.636 2.502 2.929 2.886 3.199 3.314 3.448 3.788 3.628 3.63 3.853 3.483 4.124 3.348 3.921 3.145 3.69 2.874 3.431 2.536 3.171 2.198 2.794 1.747 2.298 1.184H3.617C3.932 1.184 4.281 1.195 4.664 1.217V.609C4.281 .631 3.932 .643 3.617 .643H1.791C1.521 .44 1.217 .208 .879-.051 .541-.31 .259-.507 .034-.643V-1.251C1.183-.913 2.152-.462 2.941 .101 3.053-.169 3.188-.384 3.346-.541 3.098-.676 2.653-.874 2.011-1.133 1.369-1.392 .71-1.623 .034-1.826V-2.333C.011-2.672 .293-2.829 .879-2.807 1.307-2.852 1.735-2.852 2.163-2.807 2.636-2.807 2.935-2.761 3.059-2.672 3.182-2.582 3.29-2.311 3.38-1.86 3.56-1.995 3.808-2.119 4.124-2.232 3.898-2.705 3.69-3.004 3.498-3.128 3.307-3.252 2.986-3.325 2.535-3.348 1.769-3.416 .991-3.416 .203-3.348-.338-3.348-.608-3.066-.608-2.502V-1.014C-.834-1.172-1.082-1.325-1.352-1.471-1.622-1.618-2.051-1.838-2.636-2.13-2.727-1.928-2.873-1.725-3.076-1.522-2.783-1.432-2.378-1.268-1.859-1.031-1.341-.795-.924-.564-.608-.338V0Z" fill="#2c292a"/>
<path transform="matrix(1,0,0,-1,146.4582,236.20279)" d="M0 0C.259-.226 .558-.445 .896-.659 1.234-.874 1.594-1.048 1.977-1.184 2.36-1.319 2.732-1.42 3.093-1.488 2.867-1.714 2.709-1.984 2.62-2.3L1.403-1.792C1.38-2.153 1.369-2.672 1.369-3.348 1.369-4.002 1.38-4.565 1.403-5.039H.693V-4.396H-2.653V-5.14H-3.363C-3.341-4.667-3.329-4.103-3.329-3.449-3.329-2.773-3.341-2.255-3.363-1.894-3.747-2.119-4.073-2.3-4.343-2.435-4.592-2.074-4.783-1.849-4.918-1.759-4.445-1.601-4.011-1.415-3.617-1.201-3.223-.987-2.868-.739-2.552-.457-2.237-.175-1.96 .129-1.724 .457-1.487 .783-1.279 1.138-1.099 1.522-.828 1.387-.536 1.273-.22 1.184-.355 1.048-.49 .89-.625 .71-.468 .462-.259 .225 0 0M-2.822 1.42C-3.228 .992-3.634 .62-4.039 .304-4.197 .507-4.4 .676-4.648 .812-4.242 1.059-3.865 1.341-3.515 1.657-3.166 1.973-2.856 2.344-2.586 2.773-2.383 2.615-2.101 2.48-1.741 2.367-2.057 2.164-2.417 1.848-2.822 1.42M1.132-1.725C.681-1.454 .248-1.122-.169-.727-.586-.333-.851-.023-.963 .203-1.279-.158-1.605-.502-1.944-.829-2.281-1.156-2.665-1.454-3.093-1.725ZM.693-2.3H-2.6529999V-3.822H.693ZM2.079 .609C1.695 .901 .963 1.431-.118 2.198-.029 2.356 .129 2.547 .355 2.773 .693 2.48 1.437 1.95 2.586 1.184 2.36 1.003 2.191 .812 2.079 .609" fill="#2c292a"/>
<path transform="matrix(1,0,0,-1,154.8481,237.0144)" d="M0 0V-.575C-.27-.553-.586-.541-.946-.541V-3.416C-.946-3.754-1.059-3.974-1.284-4.075-1.51-4.176-1.837-4.249-2.265-4.295-2.31-4.069-2.411-3.832-2.569-3.585-2.141-3.607-1.865-3.602-1.741-3.568-1.617-3.534-1.555-3.416-1.555-3.213V-.541H-3.583C-3.899-.541-4.225-.553-4.563-.575V0C-4.248-.023-3.932-.034-3.617-.034H-.913C-.575-.034-.27-.023 0 0M-1.555 2.57H-3.549C-3.887 2.57-4.214 2.558-4.529 2.536V3.111C-4.214 3.088-3.887 3.077-3.549 3.077H-1.149C-.834 3.077-.53 3.088-.237 3.111V2.57C-.507 2.592-.744 2.604-.946 2.604V.271H-1.555ZM-2.738-3.179V-2.942H-3.583V-3.72H-4.225C-4.203-3.314-4.191-2.886-4.191-2.435-4.191-1.961-4.203-1.522-4.225-1.116H-2.129C-2.152-1.454-2.163-1.792-2.163-2.13-2.163-2.469-2.152-2.818-2.129-3.179ZM-2.129 1.251C-2.129 .981-2.118 .699-2.096 .406H-4.191C-4.169 .699-4.157 .969-4.157 1.217-4.157 1.488-4.169 1.77-4.191 2.063H-2.096C-2.118 1.792-2.129 1.522-2.129 1.251M-2.738-1.589H-3.583V-2.5019999H-2.738ZM-2.704 1.589H-3.549V.913H-2.704ZM1.842-3.077C1.606-2.717 1.408-2.311 1.251-1.86 1.115-2.244 .93-2.627 .693-3.01 .456-3.393 .112-3.799-.338-4.227-.496-4.046-.676-3.877-.879-3.72-.564-3.494-.265-3.207 .017-2.858 .298-2.508 .501-2.153 .625-1.792 .749-1.432 .811-1.026 .811-.575 .811-.101 .8 .282 .777 .575H1.521C1.498 .282 1.487-.023 1.487-.338 1.487-.631 1.538-.97 1.639-1.353 1.741-1.736 1.949-2.13 2.265-2.536 2.58-2.942 2.929-3.258 3.313-3.483 3.042-3.663 2.839-3.866 2.704-4.092 2.366-3.776 2.079-3.438 1.842-3.077M.608 1.454C.428 1.093 .237 .699 .034 .271-.169 .383-.395 .473-.642 .541-.372 .924-.101 1.426 .169 2.046 .439 2.666 .608 3.179 .676 3.585 .946 3.472 1.205 3.382 1.453 3.314 1.34 3.156 1.222 2.919 1.099 2.604 .974 2.288 .879 2.063 .811 1.928H3.076C2.941 1.476 2.805 .935 2.67 .304 2.422 .349 2.219 .383 2.062 .406 2.152 .834 2.231 1.184 2.298 1.454Z" fill="#2c292a"/>
<path transform="matrix(1,0,0,-1,160.9565,239.0773)" d="M0 0C.495 .631 .839 1.279 1.031 1.945 1.222 2.609 1.329 3.23 1.352 3.804 1.374 4.379 1.363 4.982 1.318 5.614 1.566 5.591 1.847 5.568 2.163 5.546 2.096 5.185 2.062 4.813 2.062 4.43 2.062 4.046 2.084 3.607 2.129 3.111 2.174 2.615 2.495 1.865 3.093 .862 3.69-.141 4.563-.891 5.712-1.386 5.442-1.657 5.261-1.882 5.171-2.063 3.594-1.297 2.467 .09 1.791 2.097 1.34 .315 .248-1.105-1.487-2.164-1.622-1.984-1.814-1.792-2.062-1.589-1.183-1.161-.496-.631 0 0" fill="#2c292a"/>
<path transform="matrix(1,0,0,-1,96.4127,256.9201)" d="M0 0C.383 0 .811 .011 1.284 .034V-.575C.811-.553 .383-.541 0-.541H-2.163V-1.386C-.834-1.386 .034-1.375 .439-1.353V-1.961C.034-1.939-.834-1.928-2.163-1.928V-2.942C-1.735-3.01-1.206-3.044-.575-3.044 .056-3.044 .755-2.999 1.521-2.908 1.34-3.156 1.228-3.427 1.183-3.72H-.541C-1.037-3.72-1.499-3.691-1.927-3.635-2.355-3.579-2.777-3.472-3.194-3.314-3.611-3.156-4.056-2.874-4.529-2.469-4.62-2.649-4.749-2.858-4.918-3.094-5.087-3.331-5.34-3.618-5.678-3.957-5.904-3.776-6.13-3.618-6.354-3.483-5.904-3.213-5.532-2.818-5.239-2.3-4.946-1.781-4.778-1.297-4.732-.845L-3.921-1.082C-3.988-1.172-4.101-1.432-4.259-1.86-3.853-2.288-3.369-2.593-2.805-2.773V-.541H-4.969C-5.374-.541-5.803-.553-6.253-.575V.034C-5.78 .011-5.352 0-4.969 0ZM-.034 2.266C-.034 1.679-.023 1.127 0 .609H-5.036C-5.014 1.127-5.003 1.679-5.003 2.266-5.003 2.874-5.014 3.348-5.036 3.686H0C-.023 3.348-.034 2.874-.034 2.266M-.71 3.145H-4.327V2.4689999H-.71ZM-.71 1.894H-4.327V1.184H-.71ZM-.71 1.184" fill="#2c292a"/>
<path transform="matrix(1,0,0,-1,99.1072,253.50461)" d="M0 0C.338-.023 .777-.034 1.318-.034H5.543C6.197-.034 6.625-.023 6.828 0V-.643C6.399-.62 5.96-.609 5.51-.609H4.09L3.583-1.116V-3.923H6.084C6.061-4.126 6.05-4.689 6.05-5.614 6.05-6.538 6.061-7.09 6.084-7.271H5.341V-6.662H1.42V-7.338H.676C.698-7.068 .71-6.515 .71-5.681 .71-4.825 .698-4.239 .676-3.923H2.839V-1.894C2.569-2.164 2.101-2.48 1.437-2.841 .772-3.202 .248-3.461-.135-3.618-.248-3.371-.406-3.157-.608-2.976-.023-2.796 .642-2.48 1.386-2.029 2.129-1.578 2.704-1.105 3.11-.609H1.42C.901-.609 .428-.62 0-.643ZM5.341-4.531H1.4200001V-6.053H5.341ZM5.915-2.114C6.321-2.305 6.794-2.559 7.335-2.874 7.222-3.077 7.075-3.314 6.895-3.585 6.399-3.269 5.932-2.993 5.493-2.756 5.053-2.519 4.619-2.3 4.191-2.097 4.327-1.916 4.45-1.702 4.563-1.454 5.058-1.702 5.51-1.922 5.915-2.114" fill="#2c292a"/>
<path transform="matrix(1,0,0,-1,111.6039,257.5626)" d="M0 0V.744H-2.096C-2.073 1.127-2.062 1.51-2.062 1.894-2.062 2.3-2.073 2.716-2.096 3.145H-.439L-.304 3.72H-2.907C-2.907 1.939-2.93 .744-2.974 .135-3.02-.473-3.115-1.06-3.262-1.623-3.409-2.187-3.628-2.694-3.921-3.145-4.101-2.919-4.293-2.728-4.495-2.57-4.27-2.3-4.096-1.995-3.972-1.657-3.848-1.319-3.747-.942-3.667-.524-3.589-.107-3.544 .558-3.532 1.471-3.521 2.384-3.527 3.291-3.549 4.193H1.859C2.265 4.193 2.67 4.204 3.076 4.227V3.72H.439L.237 3.145H2.535C2.512 2.716 2.501 2.3 2.501 1.894 2.501 1.51 2.512 1.127 2.535 .744H.608V-.237C.631-.462 .546-.626 .355-.727 .163-.828-.124-.902-.507-.947-.53-.744-.586-.53-.676-.304-.203-.35 .022-.248 0 0M-2.231-1.319C-2.073-1.477-1.882-1.612-1.656-1.725-1.972-2.018-2.366-2.491-2.839-3.145-2.997-3.01-3.155-2.886-3.312-2.773-3.042-2.48-2.682-1.995-2.231-1.319M-1.217 .507C-1.059 .372-.879 .225-.676 .068-1.037-.203-1.555-.564-2.231-1.015L-2.636-.541C-2.028-.271-1.555 .079-1.217 .507M1.96 2.638H-1.454V2.165H1.96ZM1.994 1.657H-1.454V1.217H1.994ZM-.642-1.995C-.642-2.153-.637-2.305-.625-2.452-.614-2.598-.473-2.672-.203-2.672H1.082C1.329-2.649 1.498-2.424 1.589-1.995 1.769-2.13 1.994-2.266 2.265-2.401 2.084-2.716 1.938-2.919 1.825-3.01 1.712-3.1 1.498-3.145 1.183-3.145H-.473C-.924-3.122-1.172-3.027-1.217-2.858-1.262-2.688-1.284-2.457-1.284-2.164-1.284-1.872-1.296-1.567-1.318-1.251H-.608C-.631-1.567-.642-1.815-.642-1.995M1.014-1.826C.788-1.939 .608-2.052 .473-2.164 .315-1.894 .124-1.635-.101-1.386 .079-1.297 .237-1.195 .372-1.082 .529-1.263 .744-1.511 1.014-1.826M3.11-.372C2.974-.575 2.861-.767 2.772-.947 2.298-.586 1.769-.259 1.183 .034 1.296 .214 1.397 .372 1.487 .507 2.231 .079 2.772-.215 3.11-.372M3.515-2.333C3.335-2.469 3.166-2.604 3.008-2.739 2.715-2.288 2.377-1.883 1.994-1.522 2.174-1.364 2.298-1.24 2.366-1.15 2.816-1.578 3.199-1.973 3.515-2.333" fill="#2c292a"/>
<path transform="matrix(1,0,0,-1,116.4618,260.7414)" d="M0 0C-.27 .113-.496 .192-.676 .237-.406 .598-.181 1.093 0 1.725 .203 1.634 .417 1.567 .642 1.522 .439 1.093 .225 .587 0 0M1.048 6.493C.642 6.493 .214 6.481-.237 6.459V7.034C.237 7.011 .664 7 1.048 7H3.076C3.053 7.18 2.974 7.417 2.839 7.71 3.087 7.733 3.346 7.778 3.617 7.846 3.706 7.44 3.774 7.158 3.819 7H5.374C5.825 7 6.219 7.011 6.557 7.034V6.459C6.174 6.481 5.78 6.493 5.374 6.493H1.994C2.152 6.267 2.287 6.053 2.4 5.85L1.927 5.647H4.056C4.146 5.76 4.247 6.019 4.36 6.425 4.631 6.358 4.878 6.29 5.104 6.222 4.946 6.019 4.822 5.828 4.732 5.647H5.746C6.241 5.647 6.704 5.659 7.132 5.681V5.106C6.704 5.129 6.241 5.14 5.746 5.14H.676C.203 5.14-.237 5.129-.642 5.106V5.681C-.214 5.659 .225 5.647 .676 5.647H1.791C1.724 5.828 1.611 6.019 1.453 6.222 1.589 6.29 1.746 6.38 1.927 6.493ZM5.881 3.416C5.881 3.032 5.892 2.615 5.915 2.164H.541C.563 2.615 .575 3.044 .575 3.449 .575 3.855 .563 4.261 .541 4.667H5.915C5.892 4.238 5.881 3.821 5.881 3.416M5.205 4.193H1.25V3.652H5.205ZM5.205 3.145H1.25V2.672H5.205ZM2.028 1.116C2.028 .981 2.033 .857 2.045 .744 2.056 .631 2.163 .575 2.366 .575H4.36C4.495 .62 4.608 .879 4.698 1.353 4.878 1.195 5.126 1.071 5.442 .981 5.284 .553 5.149 .293 5.036 .203 4.923 .113 4.732 .068 4.462 .068H1.994C1.611 .09 1.408 .186 1.386 .355 1.363 .524 1.352 .722 1.352 .947 1.352 1.172 1.329 1.431 1.284 1.725H2.062C2.039 1.476 2.028 1.273 2.028 1.116M4.022 1.217C3.819 1.082 3.617 .958 3.414 .845 3.346 1.048 3.155 1.33 2.839 1.691 2.974 1.803 3.166 1.928 3.414 2.063 3.661 1.725 3.864 1.443 4.022 1.217M7.199 .643C6.997 .485 6.816 .35 6.659 .237 6.501 .485 6.174 .913 5.678 1.522 5.814 1.634 5.994 1.758 6.219 1.894 6.647 1.33 6.974 .913 7.199 .643" fill="#2c292a"/>
<path transform="matrix(1,0,0,-1,130.581,256.379)" d="M0 0C.586 0 1.115 .011 1.589 .034V-.845C1.115-.823 .597-.812 .034-.812H-4.428C-5.014-.812-5.577-.823-6.118-.845V.034C-5.577 .011-5.014 0-4.428 0Z" fill="#2c292a"/>
<path transform="matrix(1,0,0,-1,133.3262,259.5071)" d="M0 0C.101 .259 .186 .558 .253 .896 .321 1.234 .389 1.651 .456 2.147 .659 2.08 .918 2.034 1.234 2.012 .963 1.561 .93 1.184 1.132 .879 1.335 .575 1.515 .355 1.673 .22V2.959C.794 2.959 .208 2.947-.084 2.925V3.534C.208 3.511 .749 3.5 1.538 3.5V4.819C1.042 4.819 .591 4.807 .186 4.785V5.394C.478 5.371 .93 5.36 1.538 5.36 1.538 5.788 1.526 6.194 1.504 6.577H2.18C2.157 6.172 2.146 5.766 2.146 5.36 2.664 5.36 3.047 5.371 3.296 5.394V4.785C3.047 4.807 2.664 4.819 2.146 4.819V3.5C2.777 3.5 3.273 3.511 3.634 3.534V2.925C3.273 2.947 2.822 2.959 2.281 2.959V1.877C2.687 1.877 3.104 1.888 3.532 1.911V1.302C3.127 1.324 2.709 1.336 2.281 1.336V-.118C2.574-.367 3.324-.513 4.529-.558 5.734-.603 6.777-.558 7.656-.423 7.521-.648 7.419-.918 7.352-1.234 6.292-1.234 5.413-1.229 4.715-1.217 4.016-1.206 3.414-1.144 2.907-1.031 2.4-.918 1.988-.744 1.673-.507 1.357-.271 1.065 .039 .794 .423 .569-.186 .343-.749 .118-1.268-.062-.998-.242-.829-.423-.761-.242-.513-.101-.259 0 0M7.014 .389C6.901 .208 6.676 .118 6.338 .118H4.715C4.242 .118 4.005 .377 4.005 .896V2.519C4.005 2.835 3.994 3.184 3.972 3.568H6.236V5.292C4.929 5.292 4.107 5.281 3.769 5.259V5.833C4.107 5.811 4.467 5.8 4.85 5.8H6.912C6.89 5.461 6.878 4.988 6.878 4.379 6.878 3.793 6.89 3.331 6.912 2.993H4.648V1.201C4.625 .862 4.794 .693 5.155 .693H6.101C6.281 .693 6.399 .772 6.456 .93 6.512 1.087 6.563 1.381 6.608 1.809 6.811 1.674 7.07 1.572 7.385 1.505 7.25 .941 7.126 .569 7.014 .389" fill="#2c292a"/>
<path transform="matrix(1,0,0,-1,144.8934,258.59413)" d="M0 0C-.293-.372-.721-.828-1.284-1.37-.631-1.302-.023-1.24 .541-1.184 1.104-1.128 1.724-1.054 2.4-.964 1.904-.378 1.555-.006 1.352 .152 1.555 .242 1.769 .377 1.994 .558 2.265 .265 2.58-.09 2.941-.507 3.301-.925 3.684-1.347 4.09-1.775 3.819-1.911 3.571-2.057 3.346-2.215 3.166-1.944 2.963-1.685 2.738-1.437 1.183-1.595 .062-1.736-.625-1.86-1.313-1.984-1.803-2.102-2.096-2.215-2.186-1.967-2.31-1.696-2.467-1.403-2.197-1.336-1.786-1.02-1.234-.457-.682 .107-.293 .682-.068 1.268H-1.724C-2.355 1.268-2.896 1.257-3.346 1.234V1.843C-2.873 1.82-2.332 1.809-1.724 1.809H.338V3.399H-.879C-1.442 3.399-1.938 3.387-2.366 3.365V3.974C-1.938 3.951-1.453 3.94-.913 3.94H.338V4.616C.338 4.954 .326 5.281 .304 5.597H1.115C1.07 5.303 1.048 4.999 1.048 4.684V3.94H2.062C2.625 3.94 3.155 3.951 3.65 3.974V3.365C3.155 3.387 2.636 3.399 2.096 3.399H1.048V1.809H3.11C3.65 1.809 4.169 1.82 4.664 1.843V1.234C4.169 1.257 3.65 1.268 3.11 1.268H.169C.417 1.087 .631 .93 .811 .795 .563 .637 .293 .372 0 0" fill="#2c292a"/>
<path transform="matrix(1,0,0,-1,151.8468,256.9539)" d="M0 0C0-.902-.084-1.652-.253-2.249-.422-2.846-.642-3.336-.913-3.72-1.115-3.539-1.352-3.393-1.622-3.28-1.352-3.01-1.138-2.655-.98-2.215-.823-1.775-.716-1.336-.659-.896-.603-.457-.575 .428-.575 1.758-.913 1.758-1.24 1.747-1.555 1.725V2.367C-1.217 2.344-.721 2.333-.068 2.333 .608 2.333 1.149 2.344 1.555 2.367V1.725C1.171 1.747 .664 1.758 .034 1.758V.507H1.555C1.509 .101 1.481-.445 1.47-1.133 1.459-1.821 1.442-2.333 1.42-2.672 1.397-3.01 1.284-3.246 1.082-3.382 .879-3.517 .62-3.618 .304-3.686 .237-3.393 .124-3.122-.034-2.874 .282-2.874 .495-2.852 .608-2.807 .721-2.762 .789-2.587 .811-2.283 .833-1.978 .856-1.217 .879 0ZM.777 2.841C.552 2.75 .338 2.638 .135 2.503-.023 2.908-.214 3.314-.439 3.72-.214 3.832 0 3.945 .203 4.058 .406 3.63 .597 3.224 .777 2.841M3.143 2.942H5.003C5.408 2.942 5.791 2.953 6.152 2.976V2.367C5.791 2.389 5.408 2.401 5.003 2.401H2.941C2.603 1.815 2.242 1.296 1.859 .845 1.678 1.026 1.487 1.184 1.284 1.319 1.645 1.634 1.977 2.074 2.282 2.638 2.586 3.201 2.772 3.697 2.839 4.126 3.11 4.013 3.38 3.911 3.65 3.821 3.515 3.663 3.346 3.37 3.143 2.942M4.428-.812C5.014-.473 5.442-.147 5.712 .169 5.892-.057 6.072-.259 6.253-.44 5.87-.575 5.307-.902 4.563-1.42 4.923-2.3 5.521-2.886 6.354-3.179 6.106-3.359 5.915-3.585 5.78-3.855 4.856-3.224 4.27-2.497 4.022-1.674 3.774-.851 3.684 0 3.752 .879L2.907 .744V-2.874C3.245-2.649 3.493-2.469 3.65-2.333 3.74-2.559 3.831-2.762 3.921-2.942 3.177-3.37 2.681-3.708 2.434-3.957 2.298-3.776 2.174-3.596 2.062-3.416 2.242-3.28 2.332-3.021 2.332-2.638V.101C2.332 .417 2.321 .812 2.298 1.285 3.064 1.33 3.757 1.409 4.377 1.522 4.997 1.634 5.453 1.758 5.746 1.894 5.768 1.781 5.915 1.533 6.186 1.15 5.892 1.15 5.273 1.082 4.326 .947 4.304 .315 4.338-.271 4.428-.812" fill="#2c292a"/>
<path transform="matrix(1,0,0,-1,161.0818,255.83802)" d="M0 0C-.101-.181-.242-.406-.422-.676V-3.72C-.422-4.013-.411-4.464-.389-5.073H-1.099C-1.076-4.396-1.065-3.889-1.065-3.551V-1.386C-1.268-1.725-1.538-2.063-1.876-2.401-2.034-2.176-2.18-1.984-2.315-1.826-1.797-1.33-1.392-.857-1.099-.406-.806 .045-.547 .473-.321 .879-.096 .744 .163 .597 .456 .44 .253 .327 .101 .18 0 0M-.558 1.775C-.851 1.313-1.256 .8-1.775 .237-1.91 .417-2.057 .586-2.214 .744-1.854 1.104-1.527 1.493-1.234 1.911-.941 2.328-.727 2.694-.592 3.01-.367 2.874-.118 2.705 .152 2.502-.029 2.48-.265 2.237-.558 1.775M4.512 .034C4.94 .034 5.335 .045 5.695 .068V-.609C5.335-.586 4.952-.575 4.546-.575H4.073V-4.261C4.095-4.531 4.011-4.717 3.819-4.819 3.628-4.92 3.25-5.005 2.687-5.073 2.642-4.802 2.518-4.531 2.315-4.261 2.698-4.306 2.969-4.323 3.126-4.312 3.284-4.3 3.374-4.182 3.397-3.957V-.575H2.045C1.617-.575 1.211-.586 .828-.609V.068C1.234 .045 1.639 .034 2.045 .034ZM3.938 2.333C4.321 2.333 4.715 2.344 5.121 2.367V1.725C4.715 1.747 4.298 1.758 3.87 1.758H2.62C2.124 1.758 1.695 1.747 1.335 1.725V2.367C1.695 2.344 2.124 2.333 2.62 2.333Z" fill="#2c292a"/>
<path transform="matrix(1,0,0,-1,228.3785,259.6255)" d="M0 0C0-.338 .022-.744 .068-1.217H-.642V-.71H-4.124V-1.251H-4.833C-4.811-.778-4.8-.383-4.8-.068V.71C-4.8 .845-4.811 1.048-4.833 1.319-4.991 1.251-5.476 1.093-6.287 .845-6.354 1.116-6.468 1.375-6.625 1.623-5.814 1.736-5.138 1.86-4.597 1.995-4.056 2.13-3.549 2.322-3.076 2.57-3.346 2.705-3.752 2.998-4.293 3.449-4.563 3.179-4.867 2.908-5.205 2.638-5.363 2.863-5.555 3.032-5.78 3.145-5.307 3.438-4.896 3.771-4.546 4.143-4.197 4.515-3.944 4.892-3.786 5.275-3.493 5.14-3.2 5.027-2.907 4.937-3.042 4.847-3.2 4.701-3.38 4.498H-.135C-.383 4.114-.62 3.793-.845 3.534-1.071 3.274-1.42 2.953-1.893 2.57-1.578 2.435-1.155 2.3-.625 2.164-.096 2.029 .586 1.939 1.42 1.894 1.262 1.623 1.16 1.341 1.115 1.048 .687 1.161 .338 1.251 .068 1.319 .022 1.093 0 .857 0 .609ZM1.115 5.986C1.093 5.602 1.082 5.32 1.082 5.14 1.082 4.982 1.093 4.734 1.115 4.396H.406V5.377H-5.509V4.362H-6.253C-6.231 4.588-6.219 4.802-6.219 5.005-6.219 5.208-6.231 5.534-6.253 5.986H-2.839C-2.907 6.211-2.997 6.425-3.11 6.628-2.772 6.696-2.501 6.752-2.298 6.797-2.141 6.346-2.051 6.075-2.028 5.986ZM-4.766 1.319H0C-.699 1.476-1.223 1.623-1.572 1.758-1.921 1.894-2.242 2.017-2.535 2.13-2.918 1.95-3.29 1.792-3.65 1.657-4.011 1.522-4.383 1.409-4.766 1.319M-.642 .778H-4.123V-.20300001H-.642ZM-3.887 3.855C-3.324 3.382-2.839 3.066-2.434 2.908-2.006 3.224-1.634 3.573-1.318 3.957H-3.819C-3.842 3.934-3.865 3.9-3.887 3.855" fill="#2c292a"/>
<path transform="matrix(1,0,0,-1,237.8331,256.379)" d="M0 0C0-.676 .011-1.206 .034-1.589H-.71V-1.082H-5.408C-5.498-1.804-5.611-2.345-5.746-2.705-5.881-3.066-6.028-3.388-6.185-3.669-6.343-3.951-6.512-4.216-6.692-4.464-6.918-4.283-7.166-4.148-7.436-4.058-6.986-3.585-6.676-3.14-6.507-2.722-6.338-2.305-6.225-1.911-6.169-1.539-6.113-1.167-6.084-.767-6.084-.338-6.084 .09-6.096 .823-6.118 1.86H.034C.011 1.319 0 .699 0 0M-.744 1.251H-5.442V-.47399999H-.744ZM-2.603 2.232C-2.896 2.164-3.121 2.085-3.279 1.995-3.436 2.469-3.617 2.886-3.819 3.246-3.594 3.314-3.38 3.404-3.177 3.517-2.907 2.976-2.716 2.547-2.603 2.232" fill="#2c292a"/>
<path transform="matrix(1,0,0,-1,242.2517,254.5867)" d="M0 0V-5.005C0-5.478-.101-5.766-.304-5.867-.507-5.969-.789-6.064-1.149-6.155-1.24-5.817-1.352-5.546-1.487-5.343-1.172-5.343-.946-5.332-.811-5.309-.676-5.287-.608-5.118-.608-4.802V-3.111H-1.927C-1.972-3.675-2.051-4.193-2.163-4.667-2.276-5.14-2.434-5.602-2.636-6.053-2.817-5.895-3.031-5.76-3.279-5.647-3.008-5.152-2.822-4.684-2.721-4.244-2.62-3.804-2.552-3.36-2.518-2.908-2.484-2.458-2.467-1.747-2.467-.778-2.467 .191-2.479 .868-2.501 1.251H.034C.011 1.071 0 .654 0 0M-.608-2.536V-1.184H-1.859L-1.893-2.536ZM-.608 .676H-1.859V-.60899999H-.608ZM1.42-6.189H.777C.8-5.647 .811-5.14 .811-4.667V.034C.811 .417 .8 .834 .777 1.285H3.921C3.898 .969 3.875 .626 3.853 .254 3.831-.118 3.797-.401 3.752-.592 3.706-.784 3.571-.925 3.346-1.015 3.121-1.105 2.828-1.173 2.467-1.217 2.4-.947 2.298-.722 2.163-.541 2.726-.541 3.042-.479 3.11-.355 3.177-.231 3.211 .124 3.211 .71H1.42V-1.556H4.225C4.135-2.142 4.022-2.666 3.887-3.128 3.752-3.59 3.571-4.047 3.346-4.498 3.729-4.949 4.169-5.287 4.664-5.512 4.507-5.647 4.349-5.839 4.191-6.087 3.763-5.794 3.357-5.433 2.974-5.005 2.704-5.389 2.332-5.794 1.859-6.222 1.746-6.019 1.622-5.839 1.487-5.681 1.802-5.456 2.152-5.073 2.535-4.532 2.242-4.148 1.949-3.348 1.656-2.13H1.42ZM2.907-3.99C3.177-3.472 3.368-2.852 3.481-2.13H2.265C2.445-2.988 2.659-3.607 2.907-3.99" fill="#2c292a"/>
<path transform="matrix(1,0,0,-1,250.6584,253.84272)" d="M0 0H3.752C3.549-.338 3.284-.699 2.958-1.082 2.631-1.466 2.219-1.826 1.724-2.164 2.039-2.367 2.468-2.519 3.008-2.621 3.549-2.722 4.191-2.785 4.935-2.807 4.754-3.01 4.631-3.246 4.563-3.517 3.932-3.472 3.313-3.36 2.704-3.179 2.096-2.999 1.589-2.785 1.183-2.536 .462-2.874-.192-3.123-.777-3.28-1.364-3.438-1.938-3.562-2.501-3.652-2.591-3.382-2.727-3.145-2.907-2.942-2.411-2.942-1.848-2.874-1.217-2.739-.586-2.604 .034-2.413 .642-2.164 .169-1.714-.237-1.251-.575-.778-.958-1.251-1.352-1.646-1.758-1.961-1.916-1.781-2.118-1.646-2.366-1.556-1.735-1.105-1.273-.671-.98-.254-.687 .163-.473 .552-.338 .913-.045 .755 .225 .631 .473 .541 .293 .383 .135 .203 0 0M.406-3.923C.451-3.652 .473-3.337 .473-2.976 .744-3.021 1.014-3.055 1.284-3.077 1.217-3.213 1.149-3.495 1.082-3.923H3.819C3.797-4.193 3.774-4.503 3.752-4.853 3.729-5.203 3.69-5.58 3.634-5.986 3.577-6.391 3.414-6.628 3.144-6.696 2.873-6.763 2.445-6.831 1.859-6.899 1.814-6.605 1.701-6.358 1.521-6.155 2.174-6.155 2.569-6.133 2.704-6.087 2.839-6.042 2.929-5.918 2.974-5.715L3.076-4.43H1.014C.698-5.4 .254-6.031-.321-6.324-.896-6.617-1.51-6.876-2.163-7.102-2.231-6.899-2.389-6.662-2.636-6.391-2.095-6.346-1.533-6.177-.946-5.884-.361-5.591 .056-5.106 .304-4.43H-.473C-1.149-4.43-1.645-4.453-1.96-4.498V-3.889C-1.622-3.912-1.115-3.923-.439-3.923ZM2.535-.507H0C.428-1.071 .833-1.5 1.217-1.792 1.667-1.522 2.107-1.094 2.535-.507" fill="#2c292a"/>
</g>
<path transform="matrix(1,0,0,-1,0,595.276)" d="M257.654 334.129H258.331V342.719H257.654Z" fill="#2c292a"/>
<g clip-path="url(#clip_8)">
<path transform="matrix(1,0,0,-1,267.9751,255.094)" d="M0 0V-3.72C0-4.374 .011-5.027 .034-5.681H-.676V-5.106H-6.253V-5.681H-6.963C-6.941-5.05-6.929-4.396-6.929-3.72V0C-6.929 .609-6.941 1.229-6.963 1.86H.034C.011 1.251 0 .631 0 0M-.676 1.251H-6.2530004V-4.498H-.676ZM-3.008-.169C-3.008 .327-3.02 .699-3.042 .947H-2.332C-2.355 .699-2.366 .327-2.366-.169-1.916-.169-1.521-.158-1.183-.135V-.778C-1.521-.756-1.916-.744-2.366-.744V-3.28C-2.344-3.618-2.473-3.838-2.755-3.94-3.037-4.041-3.358-4.103-3.718-4.126-3.718-3.923-3.797-3.675-3.955-3.382-3.549-3.404-3.29-3.393-3.177-3.348-3.065-3.303-3.008-3.179-3.008-2.976V-1.048C-3.301-1.612-3.633-2.102-4.005-2.519-4.377-2.937-4.822-3.348-5.34-3.754-5.476-3.529-5.656-3.348-5.881-3.213-5.296-2.897-4.816-2.519-4.445-2.08-4.073-1.64-3.774-1.195-3.549-.744H-4.462C-4.755-.744-5.115-.756-5.543-.778V-.135C-5.16-.158-4.789-.169-4.428-.169Z" fill="#2c292a"/>
<path transform="matrix(1,0,0,-1,270.1964,254.01181)" d="M0 0V-6.831H-.676C-.654-6.312-.642-5.839-.642-5.411V-1.015C-.642-.564-.654-.034-.676 .575H2.298C2.096-.101 1.938-.603 1.825-.93 1.712-1.257 1.577-1.635 1.42-2.063 1.758-2.536 1.983-2.925 2.096-3.23 2.208-3.534 2.253-3.827 2.231-4.109 2.208-4.391 2.107-4.645 1.927-4.87 1.746-5.095 1.318-5.264 .642-5.377 .575-5.084 .473-4.825 .338-4.599 .744-4.599 1.036-4.565 1.217-4.498 1.397-4.43 1.504-4.278 1.538-4.041 1.572-3.804 1.504-3.517 1.335-3.179 1.166-2.841 .957-2.48 .71-2.097 .89-1.736 1.127-1.037 1.42 0ZM4.31-.068C4.298-.406 4.315-.845 4.36-1.387 4.405-1.928 4.54-2.486 4.766-3.06 4.991-3.635 5.233-4.132 5.493-4.548 5.751-4.966 6-5.298 6.236-5.546 6.473-5.794 6.704-5.997 6.929-6.155 6.704-6.335 6.524-6.527 6.388-6.73 6.005-6.391 5.605-5.913 5.188-5.292 4.771-4.673 4.394-3.821 4.056-2.739 3.898-3.506 3.735-4.075 3.566-4.447 3.397-4.819 3.16-5.219 2.856-5.647 2.552-6.075 2.185-6.47 1.758-6.831 1.623-6.605 1.431-6.425 1.183-6.29 1.746-5.93 2.191-5.512 2.518-5.039 2.845-4.565 3.087-4.058 3.245-3.517 3.402-2.976 3.504-2.446 3.549-1.928 3.594-1.409 3.617-.936 3.617-.507 3.617-.057 3.594 .428 3.549 .947 3.932 .901 4.214 .879 4.394 .879 4.349 .586 4.321 .271 4.31-.068" fill="#2c292a"/>
<path transform="matrix(1,0,0,-1,281.9496,253.50461)" d="M0 0C.653-.789 1.183-1.33 1.589-1.623 1.994-1.916 2.366-2.142 2.704-2.3 3.042-2.458 3.369-2.582 3.684-2.672 3.459-2.92 3.313-3.157 3.245-3.382 2.794-3.179 2.388-2.965 2.028-2.739 1.667-2.514 1.301-2.227 .93-1.877 .558-1.528 .135-1.048-.338-.44-.766-1.048-1.189-1.55-1.605-1.944-2.023-2.339-2.378-2.649-2.67-2.874-2.963-3.1-3.29-3.326-3.65-3.551-3.696-3.461-3.876-3.28-4.191-3.01-3.718-2.785-3.267-2.514-2.839-2.198-2.411-1.883-1.983-1.483-1.555-.998-1.127-.513-.777 .011-.507 .575-.259 .417-.034 .293 .169 .203ZM2.231-5.614C2.231-6.425 2.242-6.955 2.265-7.203H1.555V-6.56H-2.197V-7.304H-2.873C-2.851-7.034-2.839-6.515-2.839-5.749-2.839-4.96-2.851-4.396-2.873-4.058H2.265C2.242-4.284 2.231-4.802 2.231-5.614M.744-2.672C1.104-2.672 1.42-2.66 1.69-2.638V-3.28C1.397-3.258 1.093-3.246 .778-3.246H-1.115C-1.589-3.246-1.972-3.258-2.265-3.28V-2.638C-1.837-2.66-1.453-2.672-1.115-2.672ZM1.555-4.599H-2.197V-6.019H1.555ZM1.555-6.019" fill="#2c292a"/>
<path transform="matrix(1,0,0,-1,288.3622,254.7558)" d="M0 0V-4.329C0-5.05 .011-5.625 .034-6.053H-.744C-.721-5.647-.71-5.084-.71-4.362V-1.184C-1.026-1.702-1.33-2.142-1.622-2.502-1.803-2.232-1.96-2.041-2.096-1.928-1.803-1.612-1.448-1.088-1.031-.355-.614 .377-.304 1.127-.101 1.894 .146 1.736 .439 1.589 .777 1.454 .575 1.296 .315 .812 0 0M2.4 .304H4.631C5.126 .304 5.521 .315 5.814 .338V-.271C5.521-.248 5.126-.237 4.631-.237H3.076V-1.556H4.462C4.845-1.556 5.16-1.544 5.408-1.522V-2.164C5.115-2.142 4.8-2.13 4.462-2.13H3.076V-3.652H4.529C4.98-3.652 5.352-3.641 5.645-3.618V-4.261C5.352-4.239 4.991-4.227 4.563-4.227H3.076V-4.87C3.076-5.501 3.087-5.929 3.11-6.155H2.4C2.422-5.906 2.434-5.568 2.434-5.14V-.237H2.096C1.758-.823 1.431-1.33 1.115-1.758 .867-1.533 .653-1.386 .473-1.319 .789-1.003 1.115-.553 1.453 .034 1.791 .62 2.062 1.251 2.265 1.928 2.603 1.77 2.895 1.657 3.143 1.589 2.918 1.409 2.67 .981 2.4 .304" fill="#2c292a"/>
<path transform="matrix(1,0,0,-1,298.6618,258.1037)" d="M0 0C0 .135-.012 .304-.034 .507H.608C.586 .327 .575 .157 .575 0H2.603C3.008 0 3.414 .011 3.819 .034V-.507C3.414-.485 3.008-.473 2.603-.473H1.149C1.532-.857 1.988-1.172 2.518-1.42 3.047-1.669 3.617-1.849 4.225-1.961 4.067-2.074 3.921-2.277 3.786-2.57 3.019-2.344 2.366-2.051 1.825-1.691 1.284-1.33 .867-.947 .575-.541V-1.691C.575-1.961 .586-2.311 .608-2.739H-.034C-.012-2.311 0-1.939 0-1.623V-.643C-.338-1.003-.744-1.342-1.217-1.657-1.69-1.972-2.344-2.3-3.177-2.638-3.313-2.412-3.459-2.22-3.617-2.063-3.031-1.95-2.479-1.758-1.96-1.488-1.442-1.217-.992-.879-.608-.473H-2.129C-2.4-.473-2.749-.485-3.177-.507V.034C-2.749 .011-2.4 0-2.129 0ZM-.406 2.976H2.603C2.895 2.976 3.233 2.987 3.617 3.01V2.469C3.188 2.491 2.749 2.502 2.298 2.502 2.028 2.142 1.712 1.815 1.352 1.522 2.028 1.341 2.783 1.127 3.617 .879 3.549 .744 3.47 .541 3.38 .271 2.614 .586 1.78 .879 .879 1.15 .428 .901-.096 .715-.693 .592-1.29 .468-1.938 .394-2.636 .372-2.659 .552-2.761 .755-2.941 .981-2.378 .935-1.837 .941-1.318 .998-.8 1.054-.338 1.161 .068 1.319-.496 1.431-1.239 1.567-2.163 1.725-1.825 2.063-1.589 2.322-1.453 2.502H-2.096C-2.276 2.502-2.603 2.491-3.076 2.469V3.01C-2.67 2.987-2.344 2.976-2.096 2.976H-1.082C-.834 3.269-.631 3.562-.473 3.855L.101 3.449C.056 3.472-.113 3.314-.406 2.976M.676 4.329H3.515C3.492 4.193 3.481 4.035 3.481 3.855 3.481 3.697 3.492 3.517 3.515 3.314H2.873V3.889H-2.298V3.28H-2.941C-2.918 3.46-2.907 3.641-2.907 3.821-2.907 4.024-2.918 4.193-2.941 4.329H0C-.135 4.576-.27 4.779-.406 4.937-.113 5.05 .079 5.151 .169 5.242 .417 4.858 .586 4.554 .676 4.329M.71 1.691C1.002 1.848 1.296 2.119 1.589 2.502H-.777C-.913 2.344-1.059 2.175-1.217 1.995-.519 1.882 .124 1.781 .71 1.691" fill="#2c292a"/>
<path transform="matrix(1,0,0,-1,305.3112,254.78961)" d="M0 0V-4.565C0-5.017 .011-5.501 .034-6.019H-.642C-.62-5.546-.608-5.084-.608-4.633V-1.15C-.744-1.42-.946-1.758-1.217-2.164-1.307-2.052-1.51-1.883-1.825-1.657-1.533-1.387-1.2-.874-.828-.118-.456 .637-.226 1.285-.135 1.826 .045 1.713 .315 1.612 .676 1.522 .518 1.341 .293 .834 0 0M2.569 1.184C2.907 1.184 3.199 1.195 3.448 1.217V.609C3.199 .631 2.929 .643 2.636 .643H2.163C2.141 .372 2.084-.068 1.994-.676H3.38C3.335-1.849 3.138-2.886 2.788-3.788 2.439-4.689 1.847-5.433 1.014-6.019 .924-5.839 .744-5.636 .473-5.411 1.239-5.05 1.825-4.385 2.231-3.416 2.028-3.235 1.735-3.021 1.352-2.773 1.487-2.593 1.611-2.424 1.724-2.266 2.062-2.536 2.298-2.717 2.434-2.807 2.569-2.379 2.67-1.849 2.738-1.217H1.859C1.746-1.691 1.431-2.311 .913-3.077 .732-2.897 .529-2.739 .304-2.604 .619-2.288 .89-1.877 1.115-1.37 1.34-.862 1.476-.192 1.521 .643 1.183 .643 .946 .631 .811 .609V1.217C1.036 1.195 1.329 1.184 1.69 1.184ZM4.495-.812V-2.773C4.495-3.314 4.507-3.709 4.529-3.957H3.819C3.864-3.709 3.887-3.326 3.887-2.807V-.778C3.864-.259 3.842 .169 3.819 .507H4.563C4.518 .191 4.495-.248 4.495-.812M5.881 .609V-4.87C5.881-5.343 5.791-5.636 5.611-5.749 5.43-5.861 5.047-5.94 4.462-5.986 4.439-5.737 4.349-5.456 4.191-5.14 4.664-5.186 4.957-5.197 5.07-5.174 5.182-5.152 5.25-5.028 5.273-4.802V.575C5.273 1.003 5.25 1.364 5.205 1.657H5.949C5.903 1.387 5.881 1.037 5.881 .609" fill="#2c292a"/>
<path transform="matrix(1,0,0,-1,224.4916,224.27912)" d="M0 0V-1.522H.507C.845-1.522 1.205-1.511 1.589-1.488V-2.097C1.205-2.074 .856-2.063 .541-2.063H0V-5.546C0-5.929 .011-6.278 .034-6.594H-.642C-.62-6.233-.608-5.884-.608-5.546V-3.348C-.946-3.979-1.453-4.701-2.129-5.512-2.243-5.355-2.423-5.197-2.67-5.039-2.175-4.565-1.741-4.019-1.369-3.399-.997-2.779-.789-2.333-.744-2.063H-1.352C-1.848-2.063-2.209-2.074-2.434-2.097V-1.488C-2.186-1.511-1.825-1.522-1.352-1.522H-.608V-.101C-.902-.147-1.364-.203-1.994-.271-2.04-.045-2.107 .157-2.197 .338-1.769 .36-1.228 .417-.575 .507 .079 .597 .63 .732 1.082 .913 1.126 .665 1.228 .417 1.386 .169 1.183 .169 .721 .113 0 0M.101-3.01C.237-2.92 .406-2.785 .608-2.604 1.036-3.077 1.397-3.562 1.69-4.058 1.464-4.193 1.273-4.34 1.115-4.498 .822-3.934 .484-3.438 .101-3.01M4.867-1.42V-4.903C4.867-5.309 4.878-5.636 4.901-5.884H4.225V-5.073H2.603V-5.952H1.96C1.983-5.433 1.994-5.118 1.994-5.005V-1.42C1.994-1.037 1.983-.62 1.96-.169H4.901C4.878-.62 4.867-1.037 4.867-1.42M4.225-.744H2.603V-4.532H4.225ZM4.225-4.531" fill="#2c292a"/>
<path transform="matrix(1,0,0,-1,237.7657,227.18741)" d="M0 0V-2.705C0-3.179-.147-3.466-.439-3.568-.733-3.669-1.149-3.754-1.69-3.821-1.736-3.551-1.825-3.291-1.961-3.044-1.465-3.044-1.127-3.015-.946-2.959-.766-2.903-.676-2.728-.676-2.435V.71H-6.152V-3.618H-6.828C-6.806-2.987-6.794-2.153-6.794-1.116-6.794-.057-6.806 .732-6.828 1.251H.034C.011 .868 0 .451 0 0M-3.008 2.469H-.811C-.811 2.852-.823 3.224-.845 3.585H-.101C-.124 3.269-.135 2.964-.135 2.672V1.928H-6.625V2.773C-6.625 3.044-6.637 3.325-6.659 3.618H-5.848C-5.893 3.438-5.915 3.269-5.915 3.111V2.469H-3.718V3.28C-3.718 3.551-3.73 3.799-3.752 4.024H-2.974C-2.997 3.776-3.008 3.539-3.008 3.314ZM-3.819-1.184C-4.203-.936-4.732-.676-5.408-.406-5.205-.226-5.036-.057-4.901 .101-4.225-.237-3.673-.519-3.245-.744-2.885-.496-2.501-.135-2.096 .338-1.938 .18-1.736 .011-1.487-.169-1.668-.259-1.854-.389-2.045-.558-2.237-.727-2.434-.902-2.636-1.082-2.051-1.443-1.555-1.747-1.149-1.995-1.375-2.176-1.589-2.333-1.791-2.469-2.152-2.198-2.625-1.883-3.211-1.522-3.684-1.883-4.349-2.277-5.205-2.705-5.408-2.458-5.577-2.277-5.712-2.164-4.834-1.849-4.203-1.522-3.819-1.184" fill="#2c292a"/>
<path transform="matrix(1,0,0,-1,240.8658,225.05692)" d="M0 0V-4.295C0-5.017 .011-5.568 .034-5.952H-.71C-.665-5.546-.642-5.005-.642-4.329V-1.082C-.98-1.691-1.251-2.142-1.453-2.435-1.611-2.142-1.769-1.928-1.927-1.792-1.634-1.477-1.313-.958-.963-.237-.614 .485-.349 1.217-.169 1.961 .124 1.781 .406 1.657 .676 1.589 .518 1.431 .293 .901 0 0M4.698-2.029C4.54-2.593 4.315-3.472 4.022-4.667H5.172C5.599-4.667 5.892-4.656 6.05-4.633V-5.309C5.848-5.287 5.554-5.275 5.172-5.275H1.724C1.16-5.275 .778-5.287 .575-5.309V-4.633C.778-4.656 1.138-4.667 1.656-4.667H3.313C3.605-3.675 3.887-2.379 4.158-.778 4.518-.868 4.822-.936 5.07-.981 4.98-1.116 4.856-1.466 4.698-2.029M4.901 .372C5.307 .372 5.611 .383 5.814 .406V-.237C5.611-.215 5.295-.203 4.867-.203H1.859C1.543-.203 1.217-.215 .879-.237V.406C1.239 .383 1.566 .372 1.859 .372ZM2.873-4.092C2.603-4.182 2.377-4.261 2.197-4.329 2.084-3.81 1.955-3.303 1.808-2.807 1.662-2.311 1.476-1.77 1.251-1.184 1.476-1.139 1.701-1.06 1.927-.947 2.332-2.097 2.648-3.145 2.873-4.092M3.752 .744C3.571 .699 3.335 .597 3.042 .44 2.884 .845 2.67 1.24 2.4 1.623 2.625 1.713 2.839 1.826 3.042 1.961 3.313 1.488 3.549 1.082 3.752 .744" fill="#2c292a"/>
<path transform="matrix(1,0,0,-1,255.3567,224.11002)" d="M0 0C-.406 .022-.755 .034-1.048 .034H-3.042C-3.2-.282-3.392-.631-3.617-1.014V-5.242C-3.617-5.693-3.606-6.2-3.583-6.763H-4.326C-4.304-6.222-4.293-5.715-4.293-5.242V-1.928C-4.991-2.897-5.938-3.788-7.132-4.599-7.313-4.329-7.481-4.137-7.639-4.024-7.188-3.821-6.591-3.388-5.848-2.722-5.104-2.058-4.417-1.139-3.786 .034H-6.016C-6.445 .034-6.895 .022-7.368 0V.676C-6.693 .654-6.174 .643-5.814 .643H-1.082C-.789 .643-.428 .654 0 .676ZM-3.008-1.995C-2.828-1.838-2.682-1.68-2.569-1.522-2.028-2.018-1.566-2.452-1.183-2.824-.8-3.196-.439-3.562-.101-3.923-.327-4.103-.53-4.295-.71-4.498-1.138-3.957-1.904-3.123-3.008-1.995" fill="#2c292a"/>
<path transform="matrix(1,0,0,-1,256.5979,224.38062)" d="M0 0C.338-.023 .732-.034 1.183-.034H3.11C2.884-1.477 2.603-2.593 2.265-3.382 2.828-4.171 3.245-4.78 3.515-5.208 3.357-5.321 3.177-5.467 2.974-5.647 2.501-4.836 2.152-4.284 1.927-3.99 1.656-4.464 1.386-4.859 1.115-5.174 .845-5.49 .507-5.839 .101-6.222-.057-6.019-.237-5.873-.439-5.783-.057-5.512 .292-5.197 .608-4.836 .924-4.475 1.228-4.013 1.521-3.449 .98-2.796 .484-2.255 .034-1.826 .169-1.714 .326-1.567 .507-1.387 1.16-2.108 1.6-2.593 1.825-2.841 2.118-2.029 2.309-1.274 2.4-.575H1.183C.732-.575 .338-.586 0-.609ZM3.245-.744C3.786-.767 4.157-.778 4.36-.778H5.814V.237C5.814 .529 5.791 .845 5.746 1.184H6.523C6.501 .913 6.49 .575 6.49 .169V-.778C6.715-.778 7.086-.767 7.605-.744V-1.353C7.086-1.33 6.715-1.319 6.49-1.319V-5.58C6.512-6.008 6.371-6.278 6.067-6.391 5.763-6.504 5.419-6.583 5.036-6.628 4.969-6.358 4.867-6.109 4.732-5.884 5.227-5.884 5.537-5.856 5.661-5.8 5.785-5.744 5.836-5.58 5.814-5.309V-1.319H4.394C4.191-1.319 3.808-1.342 3.245-1.387ZM4.935-3.957C4.642-4.07 4.428-4.182 4.293-4.295 4.09-3.686 3.797-3.055 3.414-2.401 3.571-2.333 3.752-2.221 3.955-2.063 4.337-2.739 4.664-3.371 4.935-3.957" fill="#2c292a"/>
<path transform="matrix(1,0,0,-1,271.7987,225.83469)" d="M0 0V-3.551C0-3.957 .011-4.396 .034-4.87H-.676V-4.16H-5.239V-4.87H-5.949C-5.927-4.486-5.915-4.047-5.915-3.551V0C-5.915 .541-5.927 1.048-5.949 1.522H.034C.011 1.048 0 .541 0 0M-.676 .947H-5.2390005V-3.584H-.676ZM-.676-3.585" fill="#2c292a"/>
<path transform="matrix(1,0,0,-1,229.5616,240.73432)" d="M0 0C-.406 .023-.766 .034-1.082 .034H-6.354C-6.715 .034-7.132 .023-7.605 0V.744C-7.177 .721-6.76 .71-6.354 .71H-1.082C-.744 .71-.383 .732 0 .778ZM-6.895 6.493C-6.445 6.47-6.028 6.459-5.645 6.459H-1.893C-1.465 6.459-1.071 6.47-.71 6.493V5.783C-1.048 5.805-1.442 5.817-1.893 5.817H-5.678C-6.062 5.817-6.468 5.805-6.895 5.783ZM-5.307 3.111C-5.645 3.111-6.005 3.1-6.388 3.077V3.821C-6.028 3.799-5.667 3.788-5.307 3.788H-2.4C-2.062 3.788-1.69 3.799-1.284 3.821V3.077C-1.735 3.1-2.107 3.111-2.4 3.111Z" fill="#2c292a"/>
<path transform="matrix(1,0,0,-1,231.9182,234.7825)" d="M0 0C.428 .676 .664 1.161 .71 1.454 1.048 1.319 1.363 1.217 1.656 1.15 1.453 .947 1.228 .62 .98 .169H4.394C4.889 .169 5.396 .18 5.915 .203V-.372C5.442-.35 4.935-.338 4.394-.338H3.279V-1.725C4.135-1.725 4.889-1.714 5.543-1.691V-2.266C4.867-2.244 4.112-2.232 3.279-2.232V-3.821H5.002C5.498-3.821 5.96-3.81 6.388-3.788V-4.362C5.983-4.34 5.521-4.329 5.002-4.329H3.279V-5.106C3.279-5.625 3.29-6.098 3.312-6.527H2.569C2.591-6.098 2.603-5.647 2.603-5.174V-4.329H.304C-.327-4.329-.924-4.34-1.487-4.362V-3.788C-.946-3.81-.417-3.821 .101-3.821 .101-2.942 .09-2.244 .067-1.725H2.603V-.338H.676C.203-1.06-.226-1.646-.608-2.097-.857-1.894-1.116-1.77-1.386-1.725-.89-1.251-.428-.676 0 0M2.603-2.232H.74399998V-3.821H2.603ZM2.603-3.821" fill="#2c292a"/>
<path transform="matrix(1,0,0,-1,242.7587,238.198)" d="M0 0C-.744-.564-1.645-1.398-2.704-2.502-2.907-2.277-3.076-2.108-3.211-1.995-3.031-1.77-2.941-1.522-2.941-1.251V2.502C-2.941 2.841-2.952 3.213-2.974 3.618H-2.197C-2.22 3.46-2.231 3.201-2.231 2.841V-1.082C-1.578-.496-1.003 .079-.507 .643-.35 .394-.181 .18 0 0M2.89 2.164C2.788 1.104 2.569 .237 2.231-.44 3.155-1.342 3.786-2.018 4.124-2.469 3.921-2.604 3.718-2.761 3.515-2.942 3.11-2.356 2.546-1.725 1.825-1.048 .946-2.018-.034-2.739-1.115-3.213-1.341-2.874-1.521-2.649-1.656-2.536-.688-2.244 .135-1.77 .811-1.116 1.487-.462 1.904 .423 2.062 1.539 2.219 2.655 2.287 3.607 2.265 4.396 2.647 4.306 2.963 4.238 3.211 4.193 3.098 3.9 2.991 3.224 2.89 2.164M0 3.635C.27 3.308 .575 2.908 .913 2.435 .71 2.3 .507 2.142 .304 1.961 .011 2.48-.53 3.19-1.318 4.092-1.138 4.204-.958 4.351-.777 4.531-.53 4.261-.27 3.962 0 3.635" fill="#2c292a"/>
<path transform="matrix(1,0,0,-1,251.6387,234.681)" d="M0 0V-1.42H1.927C2.377-1.42 2.805-1.409 3.211-1.387V-2.13C2.76-2.108 2.31-2.097 1.859-2.097H0V-5.512H2.67C3.008-5.512 3.402-5.501 3.853-5.478V-6.189C3.425-6.166 3.03-6.155 2.67-6.155H-2.67C-3.031-6.155-3.437-6.166-3.887-6.189V-5.478C-3.459-5.501-3.054-5.512-2.67-5.512H-.71V-.034C-.71 .304-.721 .676-.744 1.082H.034C.011 .699 0 .338 0 0" fill="#2c292a"/>
<path transform="matrix(1,0,0,-1,257.24,235.57721)" d="M0 0C.428 .823 .698 1.539 .811 2.147 1.036 2.012 1.318 1.888 1.656 1.775 1.453 1.572 1.217 1.076 .946 .287V-4.075C.946-4.751 .958-5.259 .98-5.597H.27C.293-5.281 .304-4.785 .304-4.109V-.862C.011-1.358-.293-1.809-.608-2.215-.721-2.012-.879-1.832-1.082-1.674-.789-1.381-.428-.823 0 0M5.172-4.819C5.352-4.864 5.521-4.881 5.679-4.87 5.836-4.859 5.954-4.808 6.033-4.717 6.112-4.628 6.197-4.323 6.287-3.804 6.444-3.962 6.693-4.087 7.031-4.176 6.895-4.673 6.765-4.999 6.642-5.157 6.518-5.315 6.321-5.405 6.05-5.428H5.003C4.529-5.428 4.293-5.157 4.293-4.616V-.761H3.853C3.74-2.971 3.076-4.594 1.859-5.631 1.701-5.428 1.476-5.281 1.183-5.191 2.354-4.379 3.019-2.903 3.177-.761H2.569C2.073-.761 1.656-.772 1.318-.795V-.186C1.656-.209 2.073-.22 2.569-.22H3.211C3.211 .907 3.199 1.674 3.177 2.08 3.335 2.034 3.594 2.001 3.955 1.978 3.887 1.64 3.853 .907 3.853-.22H5.679C5.926-.22 6.253-.209 6.659-.186V-.795C6.275-.772 5.96-.761 5.712-.761H4.935V-4.413C4.912-4.639 4.991-4.774 5.172-4.819M5.611 1.319C5.746 1.127 5.881 .952 6.017 .795 5.836 .682 5.645 .535 5.442 .355 5.307 .626 5.047 1.009 4.664 1.505 4.822 1.617 5.003 1.753 5.205 1.911 5.341 1.708 5.476 1.51 5.611 1.319" fill="#2c292a"/>
<path transform="matrix(1,0,0,-1,270.6157,234.2583)" d="M0 0C-.406-.034-.89-.085-1.453-.152V-1.031H.676C1.014-1.031 1.408-1.02 1.859-.998V-1.606C1.431-1.584 1.036-1.573 .676-1.573H-.845C-.642-1.798-.367-2.041-.017-2.3 .332-2.559 .676-2.756 1.014-2.891 1.352-3.027 1.701-3.14 2.062-3.23 1.836-3.432 1.667-3.658 1.555-3.906 1.171-3.771 .71-3.546 .169-3.23-.372-2.914-.913-2.362-1.453-1.573V-3.432H.034C-.034-3.635-.124-4.053-.237-4.684H1.318C1.251-5.045 1.2-5.366 1.166-5.647 1.132-5.93 1.087-6.189 1.031-6.425 .974-6.662 .794-6.819 .49-6.899 .186-6.977-.135-7.039-.473-7.085-.541-6.836-.654-6.589-.811-6.341-.158-6.363 .22-6.324 .321-6.222 .423-6.121 .495-5.777 .541-5.191H-1.048C-.935-4.56-.857-4.143-.811-3.94H-2.265C-2.31-4.391-2.395-4.774-2.518-5.089-2.642-5.405-2.8-5.681-2.991-5.918-3.183-6.155-3.453-6.375-3.803-6.577-4.152-6.78-4.518-6.961-4.901-7.119-5.104-6.848-5.296-6.633-5.476-6.476-4.417-6.228-3.735-5.879-3.431-5.428-3.126-4.977-2.963-4.481-2.941-3.94-3.234-3.94-3.606-3.951-4.056-3.974V-3.466C-4.146-3.512-4.293-3.579-4.496-3.669-4.698-3.76-4.924-3.85-5.171-3.94-5.262-3.715-5.431-3.489-5.679-3.263-5.318-3.241-4.93-3.134-4.512-2.942-4.096-2.751-3.758-2.531-3.498-2.283-3.24-2.035-3.042-1.798-2.907-1.573H-4.191C-4.575-1.573-5.003-1.584-5.476-1.606V-.998C-4.98-1.02-4.552-1.031-4.191-1.031H-2.096V-.186C-2.276-.209-2.569-.231-2.974-.254-3.38-.276-3.91-.321-4.563-.389-4.608-.209-4.698-.017-4.833 .186-4.541 .186-4.186 .197-3.769 .22-3.352 .242-2.885 .276-2.366 .321-1.848 .366-1.341 .423-.845 .49-.35 .558 .101 .648 .507 .761 .552 .58 .71 .343 .98 .051 .732 .051 .406 .034 0 0M-2.839-3.432H-2.096V-1.573H-2.197C-2.467-2.001-2.727-2.339-2.974-2.587-3.223-2.835-3.561-3.106-3.988-3.399-3.583-3.421-3.2-3.432-2.839-3.432" fill="#2c292a"/>
<path transform="matrix(1,0,0,-1,274.4932,234.3428)" d="M0 0V-6.933H-.642C-.62-6.143-.608-5.614-.608-5.343V-1.116C-.608-.372-.62 .18-.642 .541H1.758C1.509-.293 1.262-1.173 1.014-2.097 1.555-2.886 1.847-3.506 1.893-3.957 1.915-4.385 1.808-4.701 1.572-4.904 1.335-5.106 .969-5.276 .473-5.411 .406-5.163 .304-4.926 .169-4.701 .642-4.656 .946-4.554 1.082-4.396 1.217-4.261 1.245-4.024 1.166-3.686 1.087-3.348 .811-2.852 .338-2.198 .563-1.612 .766-.879 .946 0ZM5.915 .507C6.298 .507 6.602 .518 6.828 .541V-.068C6.377-.045 6.14-.034 6.118-.034V-5.817C6.118-6.29 6.017-6.577 5.814-6.679 5.611-6.78 5.261-6.865 4.766-6.933 4.721-6.662 4.608-6.403 4.428-6.155 4.878-6.177 5.171-6.16 5.307-6.104 5.442-6.048 5.509-5.884 5.509-5.614V-.034H3.11C2.952-.034 2.569-.045 1.961-.068V.541C2.434 .518 2.817 .507 3.11 .507ZM4.766-3.01C4.766-3.776 4.777-4.385 4.8-4.836H4.158V-4.295H3.008V-5.174H2.366C2.388-4.814 2.4-4.16 2.4-3.213 2.4-2.244 2.388-1.544 2.366-1.116H4.8C4.777-1.612 4.766-2.244 4.766-3.01M4.158-1.691H3.0089999V-3.754H4.158ZM4.158-3.754" fill="#2c292a"/>
<path transform="matrix(1,0,0,-1,288.8827,235.7294)" d="M0 0C0-.812 .011-1.454 .034-1.928H-2.569V-2.841H-.98C-.688-2.841-.304-2.818 .169-2.773V-3.449C-.304-3.427-.688-3.416-.98-3.416H-2.569V-4.565H-.237C.101-4.565 .495-4.554 .946-4.531V-5.208C.495-5.185 .101-5.174-.237-5.174H-5.205C-5.611-5.174-6.073-5.196-6.591-5.242V-4.531C-6.208-4.554-5.746-4.565-5.205-4.565H-3.211V-3.416H-4.698C-4.991-3.416-5.374-3.427-5.848-3.449V-2.773C-5.509-2.818-5.127-2.841-4.698-2.841H-3.211V-1.928H-5.712C-5.69-1.454-5.673-.885-5.662-.22-5.65 .445-5.667 1.161-5.712 1.928H.034C.011 1.454 0 .812 0 0M-3.211 1.353H-5.002V.23699999H-3.211ZM-3.211-.304H-5.002V-1.352H-3.211ZM-.642 1.353H-2.569V.23699999H-.642ZM-.642-.304H-2.569V-1.352H-.642ZM-.642-1.353" fill="#2c292a"/>
<path transform="matrix(1,0,0,-1,292.8618,239.0773)" d="M0 0C.495 .631 .839 1.279 1.031 1.945 1.222 2.609 1.329 3.23 1.352 3.804 1.374 4.379 1.363 4.982 1.318 5.614 1.566 5.591 1.847 5.568 2.163 5.546 2.096 5.185 2.062 4.813 2.062 4.43 2.062 4.046 2.084 3.607 2.129 3.111 2.174 2.615 2.495 1.865 3.093 .862 3.69-.141 4.563-.891 5.712-1.386 5.442-1.657 5.261-1.882 5.172-2.063 3.594-1.297 2.467 .09 1.791 2.097 1.34 .315 .248-1.105-1.487-2.164-1.622-1.984-1.814-1.792-2.062-1.589-1.183-1.161-.496-.631 0 0" fill="#2c292a"/>
<path transform="matrix(1,0,0,-1,171.9709,236.17029)" d="M0 0C-.034 4.11 3.325 7.471 7.48 7.483H36.372C40.455 7.471 43.814 4.11 43.814-.035 43.814-4.181 40.455-7.542 36.372-7.483H7.48C3.325-7.542-.034-4.181 0 0" fill="#ffffff"/>
<path transform="matrix(1,0,0,-1,171.9709,236.17029)" stroke-width="1" stroke-linecap="butt" stroke-miterlimit="10" stroke-linejoin="miter" fill="none" stroke="#f43040" d="M0 0C-.034 4.11 3.325 7.471 7.48 7.483H36.372C40.455 7.471 43.814 4.11 43.814-.035 43.814-4.181 40.455-7.542 36.372-7.483H7.48C3.325-7.542-.034-4.181 0 0"/>
<path transform="matrix(1,0,0,-1,182.8946,238.56049)" d="M0 0C-.237-.53-.411-.93-.524-1.201-.727-1.02-.963-.851-1.234-.693-.986-.401-.733-.006-.473 .49-.214 .986 .005 1.505 .186 2.046 .389 1.888 .592 1.742 .794 1.606 .501 1.065 .237 .529 0 0M.524 3.094C.343 2.914 .186 2.733 .051 2.553-.242 2.914-.625 3.263-1.099 3.602-.963 3.737-.828 3.906-.693 4.109-.22 3.748 .186 3.41 .524 3.094M-.862 5.664C-.727 5.822-.592 5.991-.456 6.172 .017 5.856 .423 5.551 .76 5.259 .603 5.146 .456 4.976 .321 4.751-.04 5.089-.434 5.394-.862 5.664M2.822 2.486C2.8 1.516 2.636 .715 2.332 .085 2.028-.547 1.684-1.065 1.301-1.471 1.098-1.29 .884-1.167 .659-1.099 1.2-.581 1.594 0 1.842 .643 2.09 1.285 2.219 1.967 2.231 2.688 2.242 3.41 2.225 4.007 2.18 4.481 2.428 4.435 2.676 4.402 2.924 4.379 2.878 4.086 2.845 3.455 2.822 2.486M3.904 4.751V2.35C3.904 1.944 3.915 1.55 3.938 1.167H3.296V5.191H1.673V1.133H1.065C1.087 1.539 1.098 1.944 1.098 2.35V4.751C1.098 4.932 1.087 5.259 1.065 5.732H3.938C3.915 5.506 3.904 5.179 3.904 4.751M4.31-.828C4.129-.918 3.938-1.065 3.735-1.268 3.374-.615 2.991-.073 2.586 .355 2.766 .468 2.935 .603 3.093 .761 3.453 .4 3.859-.13 4.31-.828M5.155 4.176V1.809C5.155 1.336 5.166 .896 5.188 .49H4.512C4.535 .761 4.546 1.201 4.546 1.809V4.176C4.546 4.56 4.535 4.875 4.512 5.123H5.188C5.166 4.875 5.155 4.56 5.155 4.176M6.439 5.259V-.659C6.439-.952 6.338-1.144 6.135-1.234 5.932-1.324 5.628-1.403 5.222-1.471 5.177-1.223 5.087-.975 4.952-.727 5.267-.727 5.487-.715 5.611-.693 5.734-.671 5.797-.547 5.797-.321V5.259C5.797 5.619 5.785 5.935 5.763 6.205H6.473C6.45 5.957 6.439 5.642 6.439 5.259" fill="#2c292a"/>
<path transform="matrix(1,0,0,-1,191.555,238.3407)" d="M0 0V3.01C-.608 3.01-1.026 2.998-1.251 2.976V3.652C-1.026 3.63-.755 3.618-.439 3.618H.676C.653 3.167 .642 2.716 .642 2.266V.101C.89 .327 1.183 .62 1.521 .981 1.611 .845 1.735 .654 1.893 .406 1.487 .045 1.155-.248 .896-.473 .636-.699 .383-.947 .135-1.217 0-.969-.169-.756-.372-.575-.124-.417 0-.226 0 0M1.115 4.903C.913 4.768 .732 4.621 .575 4.464 .326 4.824-.045 5.253-.541 5.749-.406 5.861-.248 6.008-.068 6.189 .203 5.963 .597 5.534 1.115 4.903M6.422 5.208C5.971 5.23 5.307 5.242 4.428 5.242V1.995H5.476C5.971 1.995 6.41 2.006 6.794 2.029V1.387C6.433 1.409 5.994 1.42 5.476 1.42H4.428V-.609C4.428-1.059 4.439-1.454 4.462-1.792H3.718C3.74-1.364 3.752-.969 3.752-.609V1.42H2.603C2.197 1.42 1.814 1.409 1.453 1.387V2.029C1.814 2.006 2.197 1.995 2.603 1.995H3.752V5.242C2.783 5.242 2.107 5.23 1.724 5.208V5.85C2.107 5.828 2.501 5.817 2.907 5.817H5.138C5.543 5.817 5.971 5.828 6.422 5.85ZM3.11 2.773C2.839 2.683 2.614 2.581 2.434 2.469 2.208 3.213 1.96 3.81 1.69 4.261 1.915 4.329 2.118 4.418 2.298 4.531 2.681 3.788 2.952 3.201 3.11 2.773M5.712 4.599C5.96 4.531 6.231 4.441 6.523 4.329 6.478 4.283 6.355 4.046 6.152 3.618 5.949 3.19 5.768 2.795 5.611 2.435 5.385 2.547 5.172 2.626 4.969 2.672 5.307 3.393 5.554 4.035 5.712 4.599" fill="#2c292a"/>
<path transform="matrix(1,0,0,-1,201.1448,237.8335)" d="M0 0C.495 .631 .839 1.279 1.031 1.944 1.222 2.609 1.329 3.23 1.352 3.804 1.374 4.379 1.363 4.982 1.318 5.614 1.566 5.591 1.847 5.568 2.163 5.546 2.096 5.185 2.062 4.813 2.062 4.43 2.062 4.046 2.084 3.607 2.129 3.111 2.174 2.615 2.495 1.865 3.093 .862 3.69-.141 4.563-.891 5.712-1.387 5.442-1.657 5.261-1.882 5.172-2.063 3.594-1.297 2.467 .09 1.791 2.097 1.341 .315 .248-1.105-1.487-2.164-1.622-1.984-1.814-1.792-2.062-1.589-1.183-1.161-.496-.631 0 0" fill="#2c292a"/>
<path transform="matrix(1,0,0,-1,182.8946,258.6789)" d="M0 0C-.237-.53-.411-.93-.524-1.201-.727-1.02-.963-.851-1.234-.693-.986-.401-.733-.006-.473 .49-.214 .986 .005 1.505 .186 2.046 .389 1.888 .592 1.742 .794 1.606 .501 1.065 .237 .529 0 0M.524 3.094C.343 2.914 .186 2.733 .051 2.553-.242 2.914-.625 3.263-1.099 3.602-.963 3.737-.828 3.906-.693 4.109-.22 3.748 .186 3.41 .524 3.094M-.862 5.664C-.727 5.822-.592 5.991-.456 6.172 .017 5.856 .423 5.551 .76 5.259 .603 5.146 .456 4.976 .321 4.751-.04 5.089-.434 5.394-.862 5.664M2.822 2.486C2.8 1.516 2.636 .715 2.332 .085 2.028-.547 1.684-1.065 1.301-1.471 1.098-1.29 .884-1.167 .659-1.099 1.2-.581 1.594 0 1.842 .643 2.09 1.285 2.219 1.967 2.231 2.688 2.242 3.41 2.225 4.007 2.18 4.481 2.428 4.435 2.676 4.402 2.924 4.379 2.878 4.086 2.845 3.455 2.822 2.486M3.904 4.751V2.35C3.904 1.944 3.915 1.55 3.938 1.167H3.296V5.191H1.673V1.133H1.065C1.087 1.539 1.098 1.944 1.098 2.35V4.751C1.098 4.931 1.087 5.259 1.065 5.732H3.938C3.915 5.506 3.904 5.179 3.904 4.751M4.31-.829C4.129-.918 3.938-1.065 3.735-1.268 3.374-.615 2.991-.073 2.586 .355 2.766 .468 2.935 .603 3.093 .761 3.453 .4 3.859-.13 4.31-.829M5.155 4.176V1.809C5.155 1.336 5.166 .896 5.188 .49H4.512C4.535 .761 4.546 1.201 4.546 1.809V4.176C4.546 4.56 4.535 4.875 4.512 5.123H5.188C5.166 4.875 5.155 4.56 5.155 4.176M6.439 5.259V-.659C6.439-.952 6.338-1.144 6.135-1.234 5.932-1.324 5.628-1.403 5.222-1.471 5.177-1.223 5.087-.975 4.952-.727 5.267-.727 5.487-.715 5.611-.693 5.734-.671 5.797-.547 5.797-.321V5.259C5.797 5.619 5.785 5.935 5.763 6.205H6.473C6.45 5.957 6.439 5.642 6.439 5.259" fill="#2c292a"/>
<path transform="matrix(1,0,0,-1,191.555,258.459)" d="M0 0V3.01C-.608 3.01-1.026 2.998-1.251 2.976V3.652C-1.026 3.63-.755 3.618-.439 3.618H.676C.653 3.167 .642 2.716 .642 2.266V.101C.89 .327 1.183 .62 1.521 .981 1.611 .845 1.735 .654 1.893 .406 1.487 .045 1.155-.248 .896-.473 .636-.699 .383-.947 .135-1.217 0-.969-.169-.756-.372-.575-.124-.417 0-.226 0 0M1.115 4.903C.913 4.768 .732 4.621 .575 4.464 .326 4.824-.045 5.253-.541 5.749-.406 5.861-.248 6.008-.068 6.189 .203 5.963 .597 5.534 1.115 4.903M6.422 5.208C5.971 5.23 5.307 5.242 4.428 5.242V1.995H5.476C5.971 1.995 6.41 2.006 6.794 2.029V1.386C6.433 1.409 5.994 1.42 5.476 1.42H4.428V-.609C4.428-1.059 4.439-1.454 4.462-1.792H3.718C3.74-1.364 3.752-.969 3.752-.609V1.42H2.603C2.197 1.42 1.814 1.409 1.453 1.386V2.029C1.814 2.006 2.197 1.995 2.603 1.995H3.752V5.242C2.783 5.242 2.107 5.23 1.724 5.208V5.85C2.107 5.828 2.501 5.817 2.907 5.817H5.138C5.543 5.817 5.971 5.828 6.422 5.85ZM3.11 2.773C2.839 2.683 2.614 2.581 2.434 2.469 2.208 3.213 1.96 3.81 1.69 4.261 1.915 4.329 2.118 4.418 2.298 4.531 2.681 3.788 2.952 3.201 3.11 2.773M5.712 4.599C5.96 4.531 6.231 4.441 6.523 4.329 6.478 4.283 6.355 4.046 6.152 3.618 5.949 3.19 5.768 2.795 5.611 2.435 5.385 2.547 5.172 2.626 4.969 2.672 5.307 3.393 5.554 4.035 5.712 4.599" fill="#2c292a"/>
<path transform="matrix(1,0,0,-1,200.4351,257.9349)" d="M0 0C-.361-.124-.766-.287-1.217-.49-1.262-.22-1.352 .028-1.487 .254-1.127 .321-.778 .4-.439 .49V4.244C-.733 4.244-1.048 4.232-1.386 4.21V4.785C-1.003 4.762-.564 4.751-.068 4.751 .428 4.751 .833 4.762 1.149 4.785V4.21C.901 4.232 .586 4.244 .203 4.244V.693C.495 .761 .833 .873 1.217 1.031 1.171 .806 1.16 .58 1.183 .355 .755 .242 .36 .124 0 0M4.124 1.201C4.078 .84 3.994 .434 3.87-.017 3.746-.468 3.459-.879 3.008-1.251 2.557-1.623 1.96-1.978 1.217-2.316 1.104-2.091 .924-1.877 .676-1.674 1.42-1.471 1.977-1.246 2.349-.998 2.721-.75 2.991-.457 3.16-.118 3.329 .22 3.425 .586 3.448 .981 3.47 1.375 3.481 1.809 3.481 2.283 3.706 2.237 3.966 2.192 4.259 2.147 4.213 1.877 4.169 1.561 4.124 1.201M5.205 5.089C5.565 5.089 5.926 5.101 6.287 5.123V4.548C5.926 4.571 5.565 4.582 5.205 4.582H4.124C4.056 4.221 3.977 3.86 3.887 3.5H5.746C5.723 3.162 5.712 2.79 5.712 2.384V.693C5.712 .4 5.723 .039 5.746-.389H5.104V2.993H2.535V-.423H1.859C1.881-.017 1.893 .343 1.893 .659V2.384C1.893 2.722 1.881 3.094 1.859 3.5H3.279C3.346 3.883 3.391 4.244 3.414 4.582H2.569C2.231 4.582 1.881 4.571 1.521 4.548V5.123C1.881 5.101 2.231 5.089 2.569 5.089ZM6.253-1.64C6.027-1.775 5.848-1.956 5.712-2.181 5.464-1.843 4.867-1.336 3.921-.659 4.146-.457 4.315-.276 4.428-.118 5.216-.727 5.825-1.234 6.253-1.64" fill="#2c292a"/>
</g>
<path transform="matrix(1,0,0,-1,0,595.276)" d="M176.957 305.108H210.54199V292.342H176.957Z" fill="#ffffff"/>
<g clip-path="url(#clip_9)">
<path transform="matrix(1,0,0,-1,182.0622,294.1046)" d="M0 0V-4.879C0-5.539 .012-6.077 .037-6.493H-.697C-.697-6.077-.685-5.539-.66-4.879V-1.174C-.953-1.712-1.223-2.14-1.467-2.458-1.589-2.287-1.797-2.116-2.09-1.944-1.577-1.382-1.137-.722-.77 .037-.403 .794-.159 1.467-.037 2.054 .281 1.908 .562 1.81 .807 1.761 .66 1.516 .391 .929 0 0M3.703 1.357C4.363 .208 5.328-.648 6.6-1.211 6.38-1.407 6.196-1.627 6.05-1.871 5.023-1.284 4.131-.404 3.373 .77 2.737-.379 1.907-1.333 .88-2.091 .757-1.92 .587-1.737 .367-1.541 1.271-.954 1.931-.306 2.347 .404 2.762 1.113 3.007 1.651 3.08 2.018 3.471 1.822 3.752 1.699 3.923 1.651ZM2.457-3.943C2.383-4.91 1.894-5.771 .99-6.53 .843-6.309 .647-6.126 .403-5.979 1.307-5.344 1.79-4.58 1.852-3.687 1.912-2.794 1.931-2.091 1.907-1.577 2.224-1.627 2.481-1.651 2.677-1.651 2.603-2.214 2.53-2.978 2.457-3.943M4.986-3.008V-5.319C4.986-5.686 4.999-6.077 5.023-6.493H4.253C4.277-6.077 4.29-5.673 4.29-5.282V-2.788C4.29-2.519 4.277-2.116 4.253-1.577H5.023C4.999-2.116 4.986-2.592 4.986-3.008" fill="#2c292a"/>
<path transform="matrix(1,0,0,-1,191.4484,294.1413)" d="M0 0V-4.842C0-5.356 .012-5.845 .037-6.309H-.733C-.709-5.893-.697-5.442-.697-4.952V-1.174C-.99-1.663-1.259-2.054-1.503-2.348-1.699-2.079-1.883-1.871-2.053-1.724-1.809-1.48-1.473-1.009-1.045-.312-.618 .385-.281 1.174-.037 2.054 .305 1.883 .599 1.761 .843 1.687 .647 1.467 .367 .904 0 0M2.97 1.027V1.981C3.263 1.956 3.593 1.932 3.96 1.908 3.837 1.736 3.764 1.443 3.74 1.027H5.096C5.512 1.027 5.878 1.039 6.196 1.064V.404C5.854 .428 5.487 .44 5.096 .44H3.703L3.63-.367H5.5C5.475-.66 5.463-1.052 5.463-1.541V-5.282C5.952-5.282 6.306-5.27 6.526-5.246V-5.906C6.208-5.881 5.768-5.869 5.206-5.869H1.76C1.197-5.869 .733-5.881 .367-5.906V-5.246C.587-5.27 .929-5.282 1.393-5.282V-1.541C1.393-1.076 1.381-.685 1.357-.367H2.86L2.933 .44H2.273C1.662 .44 1.185 .428 .843 .404V1.064C1.161 1.039 1.637 1.027 2.273 1.027ZM4.803-.88H2.09V-1.6140001H4.803ZM4.803-2.164H2.09V-2.8240002H4.803ZM4.803-3.375H2.09V-4.035H4.803ZM4.803-4.585H2.09V-5.282H4.803ZM4.803-5.282" fill="#2c292a"/>
<path transform="matrix(1,0,0,-1,202.228,292.6739)" d="M0 0C-.098-.832-.202-1.529-.312-2.091-.422-2.654-.575-3.228-.77-3.815-.428-4.329-.073-4.891 .293-5.502 .073-5.674-.147-5.857-.367-6.053-.611-5.49-.88-4.977-1.173-4.512-1.369-4.904-1.613-5.277-1.907-5.631-2.2-5.986-2.518-6.346-2.86-6.713-3.007-6.518-3.227-6.297-3.52-6.053-3.056-5.735-2.677-5.405-2.383-5.062-2.09-4.72-1.833-4.329-1.613-3.888-2.029-3.277-2.457-2.739-2.897-2.274-2.677-2.104-2.481-1.944-2.31-1.797-1.968-2.164-1.626-2.617-1.283-3.155-1.039-2.372-.868-1.517-.77-.587H-1.907C-2.347-.587-2.75-.6-3.116-.624V.037C-2.775 .012-2.383 0-1.943 0ZM3.19-6.64C3.19-6.86 3.245-6.982 3.355-7.006 3.465-7.031 3.63-7.043 3.85-7.043 4.094-7.043 4.247-7 4.308-6.915 4.369-6.829 4.424-6.518 4.473-5.979 4.693-6.126 4.95-6.236 5.243-6.31 5.096-7.043 4.937-7.459 4.767-7.557 4.595-7.654 4.375-7.703 4.106-7.703H3.263C2.97-7.703 2.774-7.617 2.677-7.447 2.579-7.275 2.53-7.092 2.53-6.896V-4.622C2.407-5.087 2.2-5.533 1.907-5.961 1.613-6.389 1.265-6.768 .862-7.098 .458-7.428 .037-7.703-.403-7.924-.501-7.679-.697-7.434-.99-7.19-.306-7.018 .262-6.713 .715-6.273 1.167-5.833 1.485-5.368 1.668-4.879 1.852-4.39 1.962-3.833 1.998-3.21 2.035-2.586 2.041-1.944 2.017-1.284 2.359-1.333 2.64-1.37 2.86-1.394 2.762-1.785 2.701-2.299 2.677-2.935 2.652-3.571 2.603-4.084 2.53-4.475H3.263C3.239-4.622 3.214-4.952 3.19-5.466ZM4.51-2.054C4.51-3.326 4.522-4.194 4.546-4.659H3.813V-.147H1.247V-4.695H.513C.537-4.109 .55-3.253 .55-2.128 .55-.978 .537-.123 .513 .44H4.546C4.522 .049 4.51-.783 4.51-2.054" fill="#2c292a"/>
</g>
</g>
</g>
</svg>
