<svg xmlns="http://www.w3.org/2000/svg" xmlns:xlink="http://www.w3.org/1999/xlink" xmlns:inkscape="http://www.inkscape.org/namespaces/inkscape" version="1.1" width="411.024" height="595.276" viewBox="0 0 411.024 595.276">
<defs>
<clipPath id="clip_1">
<path transform="matrix(1,0,0,-1,0,595.276)" d="M0 0H411.024V595.276H0Z"/>
</clipPath>
<clipPath id="clip_2">
<path transform="matrix(1,0,0,-1,0,595.276)" d="M0 0H411.024V595.276H0Z"/>
</clipPath>
<path id="font_3_5" d="M.45999146 .19407654C.45999146 .28303529 .4229889 .34100343 .35099793 .36799623 .4149933 .39700318 .44699098 .450943 .44699098 .52586367 .44699098 .64175418 .36698915 .71875 .25099183 .71875 .14299011 .71875 .05899048 .6507416 .050994874 .53585818H.12298584C.12998963 .60879519 .17599488 .6547394 .25099183 .6547394 .31999208 .6547394 .375 .609787 .375 .5248718 .375 .4449463 .33499146 .3959961 .24798584 .3959961H.23298645V.3330078H.24798584C.34498597 .3330078 .3880005 .28103639 .3880005 .19508362 .3880005 .10812378 .32798768 .057159425 .25099183 .057159425 .18299866 .057159425 .11999512 .09213257 .11399841 .18109131H.041992189C.04798889 .05215454 .13899231-.0068359377 .25099183-.0068359377 .36698915-.0068359377 .45999146 .06315613 .45999146 .19407654Z"/>
<path id="font_3_2" d="M.45599366 .19004822V.5218506C.45599366 .6397705 .37199403 .71777346 .26098634 .71777346 .1499939 .71777346 .06599426 .6397705 .06599426 .5218506V.19004822C.06599426 .072128299 .1499939-.005859375 .26098634-.005859375 .37199403-.005859375 .45599366 .072128299 .45599366 .19004822M.38398744 .19404602C.38398744 .116104129 .33999635 .058135988 .26098634 .058135988 .18199158 .058135988 .13798523 .116104129 .13798523 .19404602V.5178528C.13798523 .5957947 .18199158 .6537628 .26098634 .6537628 .33999635 .6537628 .38398744 .5957947 .38398744 .5178528V.19404602Z"/>
<path id="font_3_11" d="M.45700074 .51272585C.45700074 .63575747 .37998963 .71777346 .25898744 .71777346 .13798523 .71777346 .06199646 .62776187 .06199646 .5067291 .06199646 .3896942 .1349945 .3046875 .24598694 .3046875 .27398683 .3046875 .2999878 .30967713 .32199098 .3196869L.1619873 0H.23699951L.4119873 .3526764C.44198609 .4126892 .45700074 .4617157 .45700074 .51272585M.3849945 .50971987C.3849945 .4216919 .33499146 .36567689 .25898744 .36567689 .1769867 .36567689 .13398743 .43069459 .13398743 .50971987 .13398743 .596756 .18299866 .6537628 .25898744 .6537628 .33499146 .6537628 .3849945 .596756 .3849945 .50971987Z"/>
<clipPath id="clip_4">
<path transform="matrix(1,0,0,-1,0,595.276)" d="M0 0H411.024V595.276H0Z"/>
</clipPath>
<clipPath id="clip_5">
<path transform="matrix(1,0,0,-1,0,595.276)" d="M0 0H411.024V595.276H0Z"/>
</clipPath>
<clipPath id="clip_6">
<path transform="matrix(1,0,0,-1,0,595.276)" d="M0 0H411.024V595.276H0Z"/>
</clipPath>
<clipPath id="clip_7">
<path transform="matrix(1,0,0,-1,0,595.276)" d="M0 0H411.024V595.276H0Z"/>
</clipPath>
<clipPath id="clip_8">
<path transform="matrix(1,0,0,-1,0,595.276)" d="M0 0H411.024V595.276H0Z"/>
</clipPath>
</defs>
<g clip-path="url(#clip_1)">
<g clip-path="url(#clip_2)">
<use data-text="3" xlink:href="#font_3_5" transform="matrix(9,0,0,-9,363.685,567.547)" fill="#f43040"/>
<use data-text="0" xlink:href="#font_3_2" transform="matrix(9,0,0,-9,367.285,567.547)" fill="#f43040"/>
<use data-text="9" xlink:href="#font_3_11" transform="matrix(9,0,0,-9,370.885,567.547)" fill="#f43040"/>
<path transform="matrix(1,0,0,-1,0,595.276)" d="M.55 0H411.024V595.275H.55Z" fill="#f43040"/>
<g clip-path="url(#clip_4)">
<path transform="matrix(1,0,0,-1,48.6722,319.4372)" d="M0 0C.005 3.112 2.539 5.647 5.638 5.641H322.722C325.766 5.647 328.3 3.112 328.361 0V-22.564C328.3-25.794 325.766-28.329 322.722-28.205H5.638C2.539-28.329 .005-25.794 0-22.564Z" fill="#f43040"/>
<path transform="matrix(1,0,0,-1,371.3121,348.6619)" d="M0 0H-316.975C-320.59 0-323.531 2.942-323.531 6.558V29.209C-323.531 32.825-320.59 35.767-316.975 35.767H0C3.615 35.767 6.555 32.825 6.555 29.209V6.558C6.555 2.942 3.615 0 0 0M-316.975 33.976C-319.602 33.976-321.74 31.838-321.74 29.209V6.558C-321.74 3.93-319.602 1.791-316.975 1.791H0C2.627 1.791 4.765 3.93 4.765 6.558V29.209C4.765 31.838 2.627 33.976 0 33.976Z" fill="#ffffff"/>
<path transform="matrix(1,0,0,-1,48.1352,164.44351)" d="M0 0C.089 3.255 2.624 5.79 5.638 5.91H322.722C325.851 5.79 328.385 3.255 328.361 0V-22.564C328.385-25.65 325.851-28.186 322.722-28.205H5.638C2.624-28.186 .089-25.65 0-22.564Z" fill="#f43040"/>
<path transform="matrix(1,0,0,-1,370.8598,193.52469)" d="M0 0H-316.975C-320.59 0-323.53 2.942-323.53 6.558V29.209C-323.53 32.825-320.59 35.767-316.975 35.767H0C3.615 35.767 6.555 32.825 6.555 29.209V6.558C6.555 2.942 3.615 0 0 0M-316.975 33.976C-319.602 33.976-321.74 31.838-321.74 29.209V6.558C-321.74 3.929-319.602 1.791-316.975 1.791H0C2.627 1.791 4.765 3.929 4.765 6.558V29.209C4.765 31.838 2.627 33.976 0 33.976Z" fill="#ffffff"/>
<path transform="matrix(1,0,0,-1,64.3636,176.92511)" d="M0 0V1.461C0 1.964-.017 2.418-.05 2.82H1.007C.973 2.451 .957 1.997 .957 1.461V0C1.259 0 1.678 .017 2.215 .05V-.856C1.712-.823 1.292-.806 .957-.806V-2.669C1.493-2.435 1.863-2.266 2.064-2.166 2.064-2.367 2.097-2.653 2.165-3.022 1.963-3.09 1.561-3.274 .957-3.576V-7.253C.889-7.689 .738-8.033 .503-8.285 .268-8.537-.185-8.713-.856-8.814-.923-8.21-1.024-7.807-1.158-7.605-.654-7.672-.336-7.613-.201-7.429-.068-7.245 0-7.069 0-6.9V-3.979C-.201-4.047-.672-4.265-1.409-4.634-1.611-4.13-1.762-3.777-1.863-3.576-.923-3.308-.302-3.106 0-2.972V-.806H-.302C-.772-.806-1.258-.823-1.762-.856V.05C-1.292 .017-.805 0-.302 0ZM10.119 .201C9.917 .234 9.515 .252 8.911 .252H7.954C7.954-.185 7.97-.672 8.004-1.209H6.997V.252H5.085V-1.209H4.128C4.161-.672 4.178-.185 4.178 .252H3.725C3.054 .252 2.618 .234 2.416 .201V1.108C2.819 1.074 3.172 1.058 3.474 1.058H4.178V1.964C4.178 2.468 4.161 2.803 4.128 2.972H5.135C5.101 2.871 5.085 2.535 5.085 1.964V1.058H6.997V1.763C6.997 2.266 6.98 2.669 6.947 2.972H8.004C7.97 2.77 7.954 2.418 7.954 1.914V1.058H9.011C9.548 1.058 9.917 1.074 10.119 1.108ZM2.92-3.223C2.886-2.653 2.852-2.216 2.819-1.914H9.364C9.33-2.351 9.313-2.737 9.313-3.072V-7.202C9.313-7.505 9.33-8.025 9.364-8.764H8.357V-8.008H3.876V-8.764H2.819C2.852-8.495 2.886-8.041 2.92-7.404ZM5.689-2.669H3.877V-4.583H5.689ZM5.689-5.389H3.877V-7.253H5.689ZM8.357-2.669H6.5950005V-4.583H8.357ZM8.357-5.389H6.5950005V-7.253H8.357ZM8.357-7.253" fill="#ffffff"/>
<path transform="matrix(1,0,0,-1,77.9559,178.6376)" d="M0 0C-.034-.672-.05-1.327-.05-1.964V-4.533C.99-5.373 2.449-5.792 4.329-5.792 6.208-5.792 7.904-5.691 9.414-5.49 9.179-5.826 9.028-6.245 8.961-6.749 7.484-6.816 6.267-6.832 5.311-6.799 4.354-6.766 3.557-6.715 2.92-6.648 2.282-6.581 1.753-6.489 1.334-6.371 .914-6.253 .536-6.077 .201-5.842-.135-5.608-.437-5.599-.705-5.817-.974-6.035-1.343-6.413-1.812-6.951-2.081-6.581-2.35-6.296-2.618-6.094-2.114-5.658-1.578-5.222-1.007-4.785V-.907C-1.443-.907-1.913-.924-2.416-.957V.05C-1.88 .017-1.393 0-.957 0ZM.302 2.065C-.135 1.93-.521 1.796-.856 1.662-.99 2.233-1.259 3.022-1.661 4.029-1.326 4.096-.974 4.197-.604 4.331-.235 3.425 .067 2.669 .302 2.065M4.128 4.684H5.235C5.202 4.046 5.185 3.156 5.185 2.015 7.03 2.048 8.239 2.065 8.81 2.065V1.108C8.273 1.141 7.064 1.158 5.185 1.158V-3.475C5.185-4.013 5.202-4.601 5.235-5.238H4.128C4.161-4.601 4.178-4.013 4.178-3.475V-.655C4.01-1.025 3.708-1.528 3.272-2.166 2.836-2.804 2.248-3.493 1.51-4.231 1.241-3.962 .906-3.744 .503-3.576 1.108-3.106 1.745-2.451 2.416-1.612 3.087-.773 3.574 .151 3.876 1.158 2.6 1.158 1.661 1.141 1.057 1.108V2.065C1.661 2.031 2.701 2.015 4.178 2.015 4.178 2.854 4.161 3.744 4.128 4.684M8.86-2.921C8.524-3.157 8.206-3.408 7.904-3.677 7.131-2.502 6.376-1.478 5.638-.604 5.906-.437 6.158-.219 6.393 .05 7.064-.722 7.886-1.712 8.86-2.921M8.105 3.072C7.803 2.871 7.517 2.652 7.249 2.418 7.014 2.854 6.662 3.341 6.192 3.878 6.393 4.012 6.628 4.213 6.897 4.483 7.433 3.945 7.836 3.475 8.105 3.072" fill="#ffffff"/>
<path transform="matrix(1,0,0,-1,91.7745,178.285)" d="M0 0C-.151-.269-.361-.604-.629-1.007V-5.54C-.629-5.977-.613-6.648-.579-7.555H-1.636C-1.603-6.548-1.586-5.792-1.586-5.288V-2.065C-1.888-2.569-2.291-3.072-2.794-3.576-3.029-3.241-3.247-2.955-3.448-2.72-2.677-1.982-2.073-1.276-1.636-.604-1.2 .067-.814 .705-.478 1.31-.143 1.108 .243 .889 .68 .655 .378 .486 .151 .268 0 0M-.831 2.644C-1.267 1.956-1.871 1.191-2.643 .353-2.844 .621-3.063 .873-3.297 1.108-2.761 1.645-2.274 2.224-1.837 2.846-1.402 3.467-1.082 4.012-.881 4.483-.546 4.281-.176 4.029 .227 3.727-.043 3.693-.395 3.332-.831 2.644M6.721 .05C7.358 .05 7.945 .067 8.482 .101V-.907C7.945-.874 7.375-.856 6.771-.856H6.066V-6.346C6.099-6.749 5.973-7.026 5.689-7.177 5.403-7.328 4.841-7.454 4.002-7.555 3.934-7.152 3.75-6.749 3.448-6.346 4.019-6.413 4.421-6.438 4.657-6.422 4.891-6.404 5.025-6.228 5.059-5.893V-.856H3.046C2.408-.856 1.804-.874 1.233-.907V.101C1.837 .067 2.442 .05 3.046 .05ZM5.865 3.475C6.435 3.475 7.023 3.492 7.627 3.526V2.569C7.023 2.602 6.401 2.619 5.764 2.619H3.902C3.163 2.619 2.525 2.602 1.989 2.569V3.526C2.525 3.492 3.163 3.475 3.902 3.475Z" fill="#ffffff"/>
<path transform="matrix(1,0,0,-1,107.5314,175.46451)" d="M0 0C-.05-.571-.126-1.327-.227-2.267H4.959C4.891-2.838 4.841-3.324 4.808-3.727L4.254-8.764C4.153-9.368 3.834-9.754 3.297-9.922 2.76-10.09 2.089-10.191 1.284-10.224 1.183-9.754 1.015-9.351 .78-9.016 1.787-9.082 2.442-9.066 2.744-8.965 3.046-8.865 3.23-8.562 3.297-8.059L3.801-3.123H-.327C-.629-4.668-1.192-6.011-2.014-7.152-2.836-8.294-3.868-9.318-5.11-10.224-5.445-9.788-5.748-9.485-6.016-9.318-4.942-8.781-3.977-7.983-3.121-6.925-2.265-5.868-1.686-4.601-1.384-3.123H-3.046C-3.617-3.123-4.354-3.14-5.261-3.173V-2.216C-4.354-2.25-3.734-2.267-3.398-2.267H-1.233C-1.1-1.125-1.032 .134-1.032 1.511-.496 1.41-.059 1.343 .277 1.31 .142 1.007 .05 .571 0 0M-3.801 .856C-2.862-.05-2.224-.705-1.888-1.108-2.157-1.343-2.441-1.595-2.744-1.864-3.113-1.327-3.717-.655-4.556 .151-4.254 .386-4.002 .621-3.801 .856M2.744-6.296C2.542-6.497 2.307-6.833 2.039-7.303 1.3-6.632 .529-6.044-.277-5.54-.042-5.171 .126-4.869 .227-4.634 1.065-5.171 1.904-5.725 2.744-6.296" fill="#ffffff"/>
<path transform="matrix(1,0,0,-1,147.0915,176.16959)" d="M0 0V-1.158H2.114V.856C2.114 1.292 2.097 1.712 2.064 2.115H3.222C3.188 1.745 3.172 1.36 3.172 .957H5.689C6.158 .957 6.662 .973 7.199 1.007V.101C6.662 .134 6.158 .151 5.689 .151H3.172V-1.158H6.544C7.148-1.158 7.753-1.142 8.357-1.108V-2.015C7.753-1.982 7.148-1.964 6.544-1.964H-1.561C-2.098-1.964-2.668-1.982-3.272-2.015V-1.108C-2.668-1.142-2.098-1.158-1.561-1.158H-1.007V.151C-1.007 .486-1.024 .873-1.057 1.31H.101C.033 .907 0 .47 0 0M6.393-4.281V-8.159C6.326-8.864 6.091-9.275 5.689-9.393 5.286-9.511 4.799-9.57 4.229-9.57 4.195-9.2 4.094-8.797 3.927-8.361 4.564-8.495 4.975-8.503 5.16-8.386 5.344-8.269 5.42-7.941 5.387-7.404H-.302V-9.519H-1.309C-1.276-8.847-1.258-8.244-1.258-7.706V-4.483C-1.258-3.946-1.276-3.375-1.309-2.77H6.444C6.41-3.375 6.393-3.878 6.393-4.281M5.437-3.576H-.30200006V-4.684H5.437ZM5.437-5.49H-.30200006V-6.5979998H5.437ZM5.437-6.598" fill="#ffffff"/>
<path transform="matrix(1,0,0,-1,164.5097,178.1843)" d="M0 0C.637 0 1.292 .017 1.963 .05V-.907C1.359-.874 .637-.856-.201-.856H-1.309V-2.871H.805C1.174-2.871 1.694-2.854 2.366-2.821V-3.777C1.694-3.744 1.158-3.727 .755-3.727H-1.309V-6.094C.101-6.263 1.779-6.245 3.725-6.044 3.456-6.48 3.289-6.883 3.222-7.253 1.879-7.253 .772-7.235-.101-7.202-.974-7.169-1.712-7.068-2.316-6.9-2.92-6.732-3.457-6.48-3.927-6.145-4.397-5.809-4.833-5.406-5.235-4.936-5.773-5.91-6.393-6.749-7.098-7.454-7.4-7.152-7.736-6.933-8.105-6.799-7.166-6.061-6.477-5.188-6.041-4.18-5.605-3.173-5.37-2.401-5.336-1.864-5.001-2.065-4.598-2.216-4.128-2.317-4.229-2.451-4.338-2.662-4.455-2.946-4.573-3.232-4.716-3.593-4.883-4.029-4.649-4.332-4.296-4.676-3.826-5.062-3.356-5.448-2.853-5.725-2.316-5.893V-.856H-3.927C-4.498-.856-5.068-.874-5.638-.907V.05C-5.068 .017-4.397 0-3.625 0ZM3.071 1.259C3.071 1.024 3.087 .705 3.121 .302H2.064V1.511H-5.991V.302H-7.048C-7.015 .571-6.997 .873-6.997 1.209-6.997 1.544-7.015 1.914-7.048 2.317H3.121C3.087 1.846 3.071 1.494 3.071 1.259M-2.215 4.382C-1.846 3.945-1.51 3.441-1.208 2.871-1.679 2.669-2.014 2.501-2.215 2.367-2.283 2.669-2.585 3.173-3.121 3.878-2.819 3.979-2.517 4.147-2.215 4.382" fill="#ffffff"/>
<path transform="matrix(1,0,0,-1,169.4935,178.38571)" d="M0 0C.503-.034 1.107-.05 1.812-.05H3.725C4.329-.05 5.017-.034 5.789 0V-.907C5.017-.874 4.346-.856 3.776-.856H3.222C3.021-1.394 2.794-1.964 2.542-2.569 2.29-3.173 1.996-3.777 1.661-4.382 2.97-4.248 3.96-4.114 4.631-3.979 4.463-3.576 4.195-3.072 3.826-2.468 4.195-2.266 4.463-2.099 4.631-1.964 4.966-2.569 5.252-3.081 5.487-3.5 5.722-3.921 5.973-4.432 6.242-5.037 5.973-5.205 5.671-5.373 5.336-5.54 5.202-5.238 5.084-4.986 4.984-4.785 3.909-4.953 3.046-5.087 2.391-5.188 1.737-5.288 1.174-5.423 .705-5.591 .57-5.255 .403-4.936 .201-4.634 .637-4.365 1.032-3.828 1.384-3.022 1.737-2.216 1.996-1.494 2.165-.856H1.812C1.107-.856 .503-.874 0-.907ZM3.474 2.82C4.044 2.82 4.682 2.837 5.387 2.871V1.914C4.682 1.947 4.044 1.964 3.474 1.964H2.265C1.728 1.964 1.208 1.947 .705 1.914V2.871C1.174 2.837 1.678 2.82 2.215 2.82ZM8.91 4.13C8.843 3.794 8.801 3.416 8.785 2.997 8.767 2.577 8.759 2.065 8.759 1.461H11.578C11.545 1.024 11.511 .537 11.478 0L11.226-5.742C11.125-6.413 10.849-6.825 10.396-6.976 9.942-7.127 9.43-7.235 8.86-7.303 8.759-6.9 8.591-6.53 8.357-6.195 9.094-6.228 9.598-6.186 9.867-6.069 10.135-5.952 10.27-5.725 10.27-5.389L10.572 .604H8.759C8.692-.874 8.583-1.998 8.432-2.77 8.281-3.543 8.046-4.256 7.727-4.911 7.408-5.565 6.762-6.413 5.789-7.454 5.453-7.118 5.151-6.9 4.883-6.799 5.52-6.296 6.041-5.767 6.444-5.213 6.846-4.659 7.131-4.088 7.3-3.5 7.467-2.913 7.584-2.3 7.652-1.662 7.719-1.025 7.769-.269 7.803 .604H6.947C6.577 .604 6.142 .587 5.638 .554V1.511C6.142 1.477 6.611 1.461 7.048 1.461H7.803V2.871C7.803 3.341 7.786 3.811 7.753 4.281 8.155 4.18 8.541 4.13 8.91 4.13" fill="#ffffff"/>
<path transform="matrix(1,0,0,-1,187.3647,180.7026)" d="M0 0C-.235-.201-.521-.42-.856-.655-1.057-.219-1.409 .369-1.913 1.108V-2.569C-1.913-3.241-1.896-3.995-1.863-4.835H-2.97C-2.937-3.995-2.92-3.241-2.92-2.569V.655C-3.088 .151-3.272-.327-3.474-.781-3.675-1.234-3.96-1.746-4.329-2.317-4.631-1.982-4.9-1.712-5.135-1.511-4.867-1.209-4.514-.622-4.078 .252-3.642 1.125-3.306 2.098-3.071 3.173H-3.373C-3.843 3.173-4.313 3.139-4.782 3.072V4.029C-4.313 3.995-3.86 3.979-3.423 3.979H-2.92V4.986C-2.92 5.523-2.937 6.027-2.97 6.497H-1.812C-1.88 6.161-1.913 5.658-1.913 4.986V3.979H-1.359C-.99 3.979-.571 3.995-.101 4.029V3.123C-.839 3.156-1.443 3.173-1.913 3.173V1.158C-1.712 1.326-1.477 1.511-1.208 1.712-.672 .973-.269 .403 0 0M4.682 3.425V-3.123C4.682-3.56 4.782-3.794 4.984-3.828 5.185-3.861 5.353-3.87 5.487-3.853 5.621-3.836 5.714-3.719 5.764-3.5 5.814-3.282 5.84-2.955 5.84-2.518 6.142-2.687 6.494-2.821 6.897-2.921 6.762-3.626 6.628-4.096 6.494-4.332 6.359-4.566 6.142-4.684 5.84-4.684H4.782C4.38-4.684 4.086-4.591 3.902-4.407 3.717-4.222 3.641-3.844 3.675-3.274V4.986H1.762C1.762 3.072 1.737 1.587 1.686 .529 1.636-.529 1.485-1.486 1.233-2.342 .982-3.198 .486-4.062-.252-4.936-.42-4.734-.722-4.465-1.158-4.13-.688-3.761-.311-3.308-.025-2.77 .26-2.233 .453-1.679 .554-1.108 .654-.538 .721 .067 .755 .705 .788 1.343 .805 2.148 .805 3.123 .805 4.13 .788 5.037 .755 5.842H4.732C4.698 4.902 4.682 4.096 4.682 3.425" fill="#ffffff"/>
<path transform="matrix(1,0,0,-1,230.2242,175.46451)" d="M0 0C0 .436-.017 .923-.05 1.461H1.108C1.04 1.058 1.007 .571 1.007 0H4.078C4.547 0 5.051 .017 5.588 .05V-.907C5.051-.84 4.564-.806 4.128-.806H1.007V-1.763H3.473C4.01-1.763 4.531-1.746 5.034-1.712V-2.619C4.564-2.586 4.044-2.569 3.473-2.569H1.007V-3.677H4.581C5.185-3.677 5.755-3.66 6.293-3.626V-4.583C5.789-4.516 5.235-4.483 4.631-4.483H.252C.017-4.785-.352-5.205-.856-5.742V-8.663C-.252-8.328 .419-7.908 1.158-7.404 1.225-7.807 1.342-8.159 1.51-8.462 .872-8.764 .293-9.082-.227-9.419-.747-9.754-1.141-10.039-1.41-10.275-1.679-9.939-1.913-9.637-2.114-9.368-1.88-9.2-1.779-8.814-1.812-8.21V-6.598C-2.215-6.934-2.635-7.245-3.071-7.53-3.508-7.815-3.961-8.092-4.43-8.361-4.631-8.059-4.883-7.774-5.185-7.505-4.38-7.169-3.583-6.716-2.794-6.145-2.006-5.574-1.41-5.02-1.007-4.483H-3.373C-4.011-4.483-4.631-4.516-5.235-4.583V-3.626C-4.833-3.66-4.162-3.677-3.222-3.677H0V-2.569H-2.265C-2.836-2.569-3.306-2.586-3.675-2.619V-1.712C-3.138-1.746-2.668-1.763-2.265-1.763H0V-.806H-2.517C-3.155-.806-3.743-.84-4.279-.907V.101C-3.776 .033-3.105 0-2.265 0ZM2.416-6.9C3.087-6.363 3.691-5.725 4.229-4.986 4.531-5.288 4.883-5.574 5.286-5.843 4.984-5.943 4.648-6.153 4.279-6.472 3.909-6.792 3.507-7.152 3.071-7.555 3.406-7.891 3.909-8.151 4.581-8.336 5.252-8.521 5.873-8.63 6.444-8.663 6.142-9.032 5.957-9.435 5.89-9.872 4.178-9.469 2.928-8.848 2.14-8.008 1.35-7.169 .771-6.195 .403-5.087L1.208-4.734C1.443-5.44 1.845-6.162 2.416-6.9" fill="#ffffff"/>
<path transform="matrix(1,0,0,-1,240.5444,179.9975)" d="M0 0V-2.921C.47-3.493 1.09-3.912 1.862-4.18 2.634-4.45 3.826-4.583 5.437-4.583 7.081-4.583 8.272-4.499 9.011-4.332 8.776-4.868 8.659-5.288 8.659-5.591 7.249-5.624 6.066-5.624 5.11-5.591 4.153-5.557 3.355-5.481 2.718-5.364 2.081-5.246 1.586-5.104 1.233-4.936 .881-4.767 .511-4.524 .126-4.206-.26-3.887-.613-3.896-.932-4.231-1.251-4.566-1.594-4.969-1.964-5.44-2.199-5.204-2.484-4.952-2.819-4.684-2.35-4.281-1.746-3.744-1.007-3.072V.655C-1.477 .655-2.014 .637-2.618 .604V1.561C-1.913 1.527-1.024 1.511 .05 1.511 .017 .873 0 .369 0 0M.554 3.727C.252 3.492-.034 3.24-.302 2.972-.839 3.811-1.393 4.549-1.964 5.188-1.695 5.355-1.427 5.573-1.158 5.842-.521 5.104 .05 4.398 .554 3.727M4.027 6.044C4.597 5.976 5 5.926 5.235 5.893 5.135 5.456 5.067 4.483 5.034 2.972 6.779 2.972 7.92 2.988 8.457 3.022V2.015C7.92 2.048 6.762 2.065 4.984 2.065 4.883 .923 4.572-.118 4.052-1.058 3.532-1.998 2.735-2.888 1.661-3.727 1.527-3.459 1.275-3.19 .906-2.921 1.778-2.317 2.474-1.62 2.995-.831 3.515-.043 3.842 .923 3.977 2.065 2.6 2.065 1.594 2.048 .956 2.015V3.022C1.594 2.988 2.634 2.972 4.078 2.972 4.078 4.449 4.06 5.473 4.027 6.044M8.558-2.871C8.222-3.072 7.904-3.324 7.601-3.626 7.098-2.854 6.192-1.73 4.883-.252 5.117-.084 5.369 .151 5.638 .453 7.148-1.192 8.121-2.3 8.558-2.871" fill="#ffffff"/>
<path transform="matrix(1,0,0,-1,258.4658,175.56522)" d="M0 0H1.158C1.795 0 2.433 .017 3.071 .05V-.755C2.433-.722 1.795-.705 1.158-.705H-1.561V-1.662H.403C.939-1.662 1.527-1.646 2.165-1.612V-2.418C1.527-2.385 .939-2.367 .403-2.367H-1.561V-3.324H1.158C1.728-3.324 2.316-3.308 2.92-3.274V-4.08C2.316-4.047 1.728-4.029 1.158-4.029H.604C.806-4.198 1.074-4.365 1.41-4.533 1.074-4.802 .872-5.054 .806-5.288H2.064C2.6-5.288 3.154-5.272 3.725-5.238V-6.094C3.188-6.027 2.634-5.994 2.064-5.994H-6.041C-6.645-5.994-7.216-6.027-7.752-6.094V-5.238C-7.182-5.272-6.612-5.288-6.041-5.288H-4.934C-5.169-5.054-5.354-4.835-5.487-4.634-5.185-4.466-4.917-4.331-4.682-4.231-4.413-4.567-4.178-4.919-3.977-5.288H-2.517V-4.029H-5.034C-5.84-4.029-6.478-4.047-6.947-4.08V-3.274C-6.478-3.308-5.857-3.324-5.084-3.324H-2.517V-2.367H-4.581C-5.185-2.367-5.706-2.385-6.142-2.418V-1.612C-5.739-1.646-5.219-1.662-4.581-1.662H-2.517V-.705H-5.286C-5.924-.705-6.562-.722-7.199-.755V.05C-6.562 .017-5.924 0-5.286 0H-4.128C-4.363 .47-4.631 .856-4.934 1.158-4.699 1.326-4.447 1.494-4.178 1.662-3.776 1.259-3.44 .873-3.172 .504-3.44 .369-3.709 .201-3.977 0H-.956C-.554 .806-.336 1.376-.302 1.712L.856 1.209C.587 1.007 .302 .604 0 0M2.165-10.124H1.158V-9.519H-5.135V-10.124H-6.142V-6.9H2.165ZM1.158-7.605H-5.135V-8.7630009H1.158ZM-.151-5.288C.05-4.885 .201-4.466 .302-4.029H-1.561V-5.288Z" fill="#ffffff"/>
<path transform="matrix(1,0,0,-1,264.557,185.5881)" d="M0 0C-.403 .168-.739 .286-1.007 .353-.604 .89-.269 1.628 0 2.569 .302 2.434 .621 2.333 .956 2.266 .654 1.628 .335 .874 0 0M1.561 9.67C.956 9.67 .318 9.653-.352 9.62V10.476C.352 10.442 .989 10.426 1.561 10.426H4.581C4.547 10.694 4.43 11.047 4.229 11.484 4.597 11.517 4.984 11.584 5.387 11.685 5.52 11.081 5.621 10.66 5.688 10.426H8.004C8.675 10.426 9.263 10.442 9.766 10.476V9.62C9.195 9.653 8.608 9.67 8.004 9.67H2.97C3.205 9.334 3.406 9.016 3.574 8.713L2.87 8.411H6.041C6.175 8.579 6.326 8.965 6.494 9.57 6.897 9.469 7.266 9.368 7.602 9.267 7.366 8.965 7.181 8.68 7.048 8.411H8.558C9.296 8.411 9.984 8.428 10.622 8.462V7.605C9.984 7.638 9.296 7.656 8.558 7.656H1.007C.302 7.656-.352 7.638-.956 7.605V8.462C-.319 8.428 .335 8.411 1.007 8.411H2.668C2.567 8.68 2.399 8.965 2.165 9.267 2.366 9.368 2.6 9.502 2.87 9.67ZM8.76 5.087C8.76 4.516 8.776 3.895 8.81 3.223H.805C.838 3.895 .856 4.533 .856 5.137 .856 5.742 .838 6.346 .805 6.951H8.81C8.776 6.312 8.76 5.691 8.76 5.087M7.752 6.245H1.862V5.439H7.752ZM7.752 4.684H1.862V3.979H7.752ZM3.02 1.662C3.02 1.461 3.028 1.276 3.046 1.108 3.062 .94 3.222 .856 3.524 .856H6.494C6.695 .924 6.863 1.31 6.997 2.015 7.266 1.779 7.635 1.594 8.105 1.461 7.87 .823 7.669 .437 7.501 .302 7.332 .168 7.048 .101 6.645 .101H2.97C2.399 .135 2.097 .277 2.064 .529 2.03 .781 2.014 1.075 2.014 1.41 2.014 1.746 1.98 2.132 1.913 2.569H3.071C3.037 2.199 3.02 1.897 3.02 1.662M5.991 1.813C5.688 1.612 5.387 1.427 5.084 1.259 4.984 1.561 4.698 1.981 4.229 2.518 4.43 2.686 4.715 2.871 5.084 3.072 5.453 2.569 5.755 2.148 5.991 1.813M10.723 .957C10.421 .722 10.152 .521 9.917 .353 9.682 .722 9.195 1.36 8.457 2.266 8.659 2.434 8.927 2.619 9.263 2.821 9.9 1.981 10.387 1.36 10.723 .957" fill="#ffffff"/>
<path transform="matrix(1,0,0,-1,308.4213,176.0437)" d="M0 0C-.336-.856-.672-1.57-1.007-2.141L.453-2.09C.721-1.654 .957-1.083 1.158-.378 1.527-.546 1.913-.68 2.316-.781 2.114-.982 1.913-1.259 1.712-1.612 1.51-1.964 1.2-2.561 .78-3.4 .36-4.239 .033-4.827-.201-5.163 .604-5.062 1.326-4.961 1.964-4.86 1.829-5.263 1.745-5.616 1.712-5.918 1.309-5.918 .831-5.961 .277-6.044-.277-6.128-.839-6.238-1.409-6.371-1.544-5.968-1.679-5.583-1.812-5.213-1.477-5.213-1.158-5.004-.856-4.583-.554-4.164-.235-3.619 .101-2.946-.235-2.946-.588-2.972-.956-3.022-1.326-3.072-1.661-3.148-1.963-3.249-2.064-2.946-2.199-2.611-2.366-2.241-2.098-2.108-1.787-1.746-1.435-1.158-1.082-.571-.722 .478-.352 1.989 .05 1.821 .436 1.67 .806 1.536 .604 1.368 .335 .856 0 0M-.151-7.605C.554-7.454 1.275-7.278 2.014-7.076 1.946-7.413 1.93-7.731 1.964-8.033 1.527-8.134 .923-8.294 .151-8.512-.621-8.73-1.242-8.94-1.711-9.141-1.812-8.671-1.93-8.252-2.064-7.882-1.494-7.849-.856-7.756-.151-7.605M5.789 1.234C6.225 .294 6.746-.496 7.35-1.133 7.954-1.771 8.659-2.275 9.464-2.644 9.162-2.913 8.911-3.216 8.709-3.551 8.172-3.249 7.735-2.93 7.4-2.594V-3.45C7.031-3.417 6.696-3.4 6.393-3.4H4.782C4.38-3.4 3.977-3.417 3.574-3.45V-2.745C3.339-3.115 2.987-3.534 2.517-4.004 2.282-3.669 1.964-3.383 1.561-3.148 1.997-2.88 2.399-2.518 2.769-2.065 3.138-1.612 3.449-1.167 3.7-.73 3.952-.294 4.17 .168 4.355 .655 4.539 1.141 4.698 1.653 4.833 2.191 5.269 2.056 5.705 1.939 6.142 1.838 6.007 1.67 5.89 1.468 5.789 1.234M7.048-9.494V-8.587H4.078V-9.695H3.021C3.054-9.293 3.071-8.487 3.071-7.278 3.071-6.069 3.054-5.196 3.021-4.659H8.055C8.021-5.096 8.004-5.868 8.004-6.976 8.004-8.084 8.021-8.923 8.055-9.494ZM6.066-1.083C5.781-.613 5.538-.143 5.336 .327 5.067-.176 4.815-.663 4.581-1.133 4.346-1.604 4.061-2.074 3.725-2.544 4.027-2.577 4.38-2.594 4.782-2.594H6.293C6.628-2.561 6.98-2.544 7.35-2.544 6.779-2.04 6.351-1.553 6.066-1.083M7.048-5.565H4.078V-7.781H7.048ZM7.048-7.782" fill="#ffffff"/>
<path transform="matrix(1,0,0,-1,321.2083,176.52219)" d="M0 0V-2.015H2.97V.957C2.97 1.427 2.953 1.897 2.92 2.367H3.977C3.943 1.964 3.927 1.494 3.927 .957V-2.015H6.947V-.151C6.947 .386 6.93 .822 6.897 1.158H7.954C7.92 .822 7.904 .369 7.904-.201V-1.561C7.904-2.099 7.92-2.536 7.954-2.871H3.927V-7.505H7.4V-5.389C7.4-4.886 7.383-4.45 7.35-4.08H8.407C8.373-4.45 8.357-4.869 8.357-5.339V-7.605C8.357-8.277 8.373-8.831 8.407-9.267H7.4V-8.361H-1.561C-1.528-7.958-1.51-7.472-1.51-6.9V-5.389C-1.51-4.819-1.528-4.365-1.561-4.029H-.504C-.537-4.365-.554-4.819-.554-5.389V-7.505H2.97V-2.871H-1.007C-.974-2.536-.957-2.115-.957-1.612V-.05C-.957 .386-.974 .806-1.007 1.209H.05C.016 .772 0 .369 0 0" fill="#ffffff"/>
<path transform="matrix(1,0,0,-1,333.7935,178.73831)" d="M0 0H1.661C1.493-1.31 1.334-2.233 1.183-2.77 1.032-3.308 .872-3.795 .705-4.231 1.174-4.668 1.712-4.995 2.316-5.213 2.92-5.432 3.625-5.583 4.43-5.666 5.235-5.75 6.091-5.783 6.997-5.767 7.904-5.75 8.81-5.691 9.716-5.591 9.481-5.926 9.346-6.296 9.313-6.699 7.769-6.732 6.502-6.724 5.513-6.674 4.522-6.623 3.7-6.522 3.046-6.371 2.391-6.22 1.854-6.027 1.435-5.792 1.015-5.558 .621-5.288 .252-4.986-.151-5.591-.672-6.212-1.309-6.85-1.544-6.581-1.812-6.346-2.114-6.145-1.443-5.675-.873-5.07-.403-4.332-.705-3.929-.949-3.559-1.133-3.223-1.317-2.888-1.494-2.502-1.661-2.065-1.494-2.032-1.208-1.914-.805-1.712-.705-2.115-.42-2.703 .05-3.475 .285-2.77 .47-1.881 .604-.806-.135-.806-.722-.89-1.158-1.058L-1.409-.151C-1.007-.017-.672 .378-.403 1.033-.135 1.687 .101 2.283 .302 2.821-.37 2.821-.99 2.803-1.561 2.77V3.626C-.89 3.593 .134 3.576 1.51 3.576 1.409 3.307 .906 2.115 0 0M4.682 4.835H5.689C5.655 4.533 5.638 4.163 5.638 3.727H8.357C8.323 3.324 8.306 2.753 8.306 2.015 8.776 2.015 9.195 2.031 9.565 2.065V1.209C9.229 1.242 8.81 1.259 8.306 1.259 8.306 .52 8.323-.05 8.357-.453H5.638V-1.461C6.947-1.461 7.819-1.444 8.256-1.41V-2.266C7.853-2.233 6.98-2.216 5.638-2.216V-3.223H7.149C7.786-3.223 8.373-3.207 8.91-3.173V-4.08C8.373-4.047 7.786-4.029 7.149-4.029H5.638C5.638-4.601 5.655-5.087 5.689-5.49H4.682C4.715-5.087 4.732-4.601 4.732-4.029H3.574C3.071-4.029 2.517-4.047 1.913-4.08V-3.173C2.483-3.207 3.053-3.223 3.625-3.223H4.732V-2.216C3.792-2.216 2.97-2.233 2.265-2.266V-1.41C3.003-1.444 3.826-1.461 4.732-1.461V-.453C3.859-.453 3.121-.471 2.517-.504V.353C3.121 .319 3.859 .302 4.732 .302V1.259H3.826C3.222 1.259 2.55 1.242 1.812 1.209V2.065C2.55 2.031 3.222 2.015 3.826 2.015H4.732V2.972C3.826 2.972 3.071 2.954 2.467 2.921V3.777C3.071 3.744 3.826 3.727 4.732 3.727 4.732 4.163 4.715 4.533 4.682 4.835M7.4 2.972H5.638V2.0149999H7.4ZM7.4 1.259H5.638V.30199994H7.4ZM7.4 .302" fill="#ffffff"/>
<path transform="matrix(1,0,0,-1,345.6236,184.58081)" d="M0 0C.47 .302 .705 .705 .705 1.209V5.691H.05C-.285 5.691-.655 5.674-1.057 5.641V6.648C-.655 6.581-.285 6.548 .05 6.548H1.712C1.678 5.976 1.661 5.322 1.661 4.583V1.41C2.03 1.813 2.517 2.367 3.121 3.072 3.255 2.904 3.474 2.636 3.776 2.266 3.272 1.763 2.769 1.251 2.265 .73 1.762 .209 1.292-.369 .856-1.007 .621-.705 .335-.369 0 0M2.165 8.361C1.863 8.226 1.543 8.059 1.208 7.857 .671 8.998 .302 9.721 .101 10.023 .403 10.157 .687 10.325 .956 10.527 1.493 9.62 1.896 8.898 2.165 8.361M4.581 6.774C4.715 6.186 4.916 5.591 5.185 4.986 5.453 4.382 5.873 3.693 6.444 2.921 6.879 3.76 7.19 4.524 7.375 5.213 7.559 5.901 7.719 6.581 7.853 7.253 7.987 7.924 8.105 8.696 8.206 9.57 8.575 9.469 9.011 9.385 9.514 9.318 9.313 9.016 9.179 8.721 9.112 8.436 9.044 8.151 8.961 7.739 8.86 7.202 8.76 6.665 8.608 5.976 8.407 5.137 8.206 4.298 7.803 3.29 7.199 2.115 7.735 1.578 8.273 1.166 8.81 .881 9.346 .596 10.001 .353 10.773 .151 10.404-.117 10.101-.52 9.867-1.058 8.994-.554 8.357-.176 7.954 .076 7.551 .327 7.064 .755 6.494 1.36 5.89 .688 5.353 .176 4.883-.176 4.413-.529 3.909-.889 3.373-1.259 3.071-1.024 2.701-.722 2.265-.353 2.97-.083 3.632 .26 4.254 .68 4.874 1.099 5.369 1.578 5.739 2.115 5.101 2.954 4.631 3.744 4.329 4.483 4.027 5.221 3.801 5.901 3.65 6.522 3.499 7.143 3.356 7.84 3.222 8.613 3.557 8.646 3.909 8.713 4.279 8.814 4.346 8.041 4.447 7.361 4.581 6.774M6.947 6.749C6.544 6.715 6.208 6.648 5.94 6.548 5.739 7.756 5.453 9.049 5.085 10.426 5.387 10.527 5.721 10.627 6.091 10.728 6.46 9.116 6.746 7.789 6.947 6.749" fill="#ffffff"/>
</g>
<path transform="matrix(1,0,0,-1,0,595.276)" d="M168.955 290.344H247.353V270.466H168.955Z" fill="#f43040"/>
<g clip-path="url(#clip_5)">
<path transform="matrix(1,0,0,-1,182.1187,318.1699)" d="M0 0V4.671C-.853 4.671-1.483 4.652-1.89 4.616V5.672C-1.483 5.635-1.038 5.617-.556 5.617H1.167C1.13 4.95 1.112 4.319 1.112 3.726V.445C1.408 .741 1.982 1.371 2.835 2.336 2.982 2.002 3.187 1.668 3.446 1.335 2.89 .779 2.353 .222 1.834-.334 1.315-.89 .889-1.39 .556-1.835 .185-1.465-.13-1.168-.389-.945-.13-.649 0-.334 0 0M-.389 9.065C-.056 9.287 .203 9.546 .389 9.843 .982 9.361 1.686 8.656 2.501 7.73 2.13 7.508 1.834 7.248 1.612 6.952 1.019 7.767 .352 8.471-.389 9.065M7.643-.167C7.105 .759 6.651 1.965 6.281 3.448 5.873 1.816 5.289 .491 4.53-.528 3.77-1.548 3.057-2.336 2.39-2.892 2.242-2.632 1.89-2.372 1.334-2.113 2.149-1.557 2.881-.844 3.53 .028 4.178 .898 4.66 1.77 4.975 2.642 5.289 3.512 5.475 4.384 5.531 5.255 5.586 6.126 5.614 6.896 5.614 7.563 5.614 8.231 5.595 9.009 5.559 9.899 6.003 9.862 6.484 9.843 7.004 9.843 6.893 9.695 6.818 9.287 6.781 8.62 6.744 7.953 6.762 7.109 6.837 6.09 6.911 5.069 7.096 4.096 7.393 3.17 7.689 2.243 8.116 1.316 8.671 .389 9.227-.538 10.024-1.316 11.062-1.946 10.468-2.169 10.098-2.465 9.95-2.836 8.949-1.983 8.18-1.094 7.643-.167" fill="#ffffff"/>
<path transform="matrix(1,0,0,-1,196.2395,318.8094)" d="M0 0C.389 .574 .713 1.168 .973 1.78 1.232 2.391 1.398 2.994 1.473 3.587 .102 3.587-.881 3.568-1.473 3.531V4.588C-.917 4.551 .12 4.532 1.64 4.532 1.751 5.311 1.807 6.256 1.807 7.369H.528C.342 6.849 .064 6.237-.306 5.533-.714 5.645-1.084 5.737-1.417 5.812-1.159 6.182-.899 6.673-.639 7.285-.38 7.897-.167 8.49 0 9.065 .167 9.639 .287 10.149 .361 10.594 .731 10.483 1.158 10.39 1.64 10.316 1.454 10.056 1.306 9.76 1.195 9.426 1.084 9.093 .954 8.722 .806 8.314 2.918 8.314 4.233 8.332 4.753 8.37V7.369H2.863C2.863 6.553 2.825 5.607 2.752 4.532 3.641 4.532 4.419 4.551 5.086 4.588V3.531C4.419 3.568 3.585 3.587 2.585 3.587 2.547 3.179 2.474 2.789 2.362 2.419 2.696 2.159 3.066 1.872 3.474 1.557 3.881 1.242 4.4 .714 5.03-.028 4.771-.139 4.475-.399 4.141-.806 3.808-.25 3.465 .203 3.113 .556 2.76 .908 2.399 1.232 2.029 1.529 1.807 .936 1.464 .306 1-.361 .537-1.029 .064-1.621-.417-2.141-.603-1.919-.899-1.696-1.306-1.474-.825-1.065-.389-.575 0 0M10.7 6.813V1.029C10.7 .324 10.718-.399 10.756-1.14H9.589V.361H6.642V-1.363H5.475C5.512-.659 5.531 .083 5.531 .862V6.813C5.531 7.405 5.512 8.072 5.475 8.815H10.756C10.718 8.072 10.7 7.405 10.7 6.813M9.589 7.925H6.6429998V1.2510004H9.589ZM9.589 1.251" fill="#ffffff"/>
<path transform="matrix(1,0,0,-1,210.3602,308.3821)" d="M0 0H1.223C1.185-.593 1.167-1.78 1.167-3.559 1.871-3.559 2.464-3.541 2.946-3.504V-4.505C2.464-4.468 1.871-4.449 1.167-4.449V-10.566C1.167-11.086 1.185-11.753 1.223-12.568H0C.036-11.753 .055-11.086 .055-10.566V-4.449C-.686-4.449-1.279-4.468-1.723-4.505V-3.504C-1.279-3.541-.686-3.559 .055-3.559 .055-1.78 .036-.593 0 0M5.448 .167C5.855 .056 6.3-.019 6.781-.056 6.633-.649 6.577-1.557 6.614-2.781H9.616C9.541-3.114 9.468-3.67 9.394-4.449L9.005-10.622C8.93-11.215 8.708-11.576 8.338-11.707 7.967-11.836 7.449-11.975 6.781-12.124 6.633-11.641 6.466-11.234 6.281-10.9 7.059-10.864 7.532-10.826 7.698-10.789 7.865-10.752 7.967-10.492 8.004-10.01L8.393-3.67H6.559C6.521-5.339 6.262-6.915 5.781-8.398 5.299-9.881 4.465-11.215 3.28-12.402 3.057-12.104 2.612-11.845 1.945-11.623 2.798-11.178 3.576-10.27 4.28-8.898 4.984-7.527 5.372-5.784 5.448-3.67 4.743-3.67 4.038-3.69 3.335-3.726V-2.725C4.038-2.762 4.761-2.781 5.503-2.781 5.503-1.594 5.484-.612 5.448 .167M3.335-8.564C2.964-8.417 2.612-8.324 2.279-8.286 2.798-6.915 3.093-5.97 3.168-5.45 3.464-5.561 3.872-5.654 4.391-5.728 4.169-6.025 3.816-6.971 3.335-8.564M11.562-7.953C11.154-8.027 10.802-8.157 10.506-8.342 10.283-7.563 9.968-6.711 9.561-5.784 9.894-5.673 10.209-5.525 10.506-5.339 11.061-6.526 11.413-7.396 11.562-7.953" fill="#ffffff"/>
<path transform="matrix(1,0,0,-1,227.788,317.002)" d="M0 0C-.482-.482-.871-.89-1.167-1.223-1.464-1.557-1.872-2.002-2.39-2.558-2.65-2.262-2.891-2.002-3.113-1.78-2.854-1.483-2.724-1.168-2.724-.834V3.615H-3.224C-3.484 3.615-3.966 3.596-4.669 3.559V4.56C-3.966 4.523-3.484 4.505-3.224 4.505H-1.668C-1.705 3.837-1.723 3.095-1.723 2.28V-.334C-1.538-.186-1.167 .222-.611 .89-.464 .556-.26 .259 0 0M-.945 6.451C-1.279 6.265-1.576 6.025-1.834 5.728-2.576 6.84-3.095 7.544-3.391 7.841-3.095 8.027-2.817 8.249-2.557 8.509-2.149 8.027-1.612 7.341-.945 6.451M7.893-2.225C7.93-2.966 7.745-3.439 7.337-3.643 6.929-3.846 6.337-4.004 5.559-4.115 5.447-3.67 5.299-3.226 5.114-2.781 5.855-2.817 6.327-2.781 6.531-2.669 6.734-2.558 6.855-2.336 6.893-2.002V7.396H1.501V2.391C1.501 .834 1.371-.399 1.112-1.307 .852-2.216 .389-3.151-.278-4.115-.5-3.818-.834-3.559-1.279-3.337-.797-2.781-.436-2.234-.195-1.696 .046-1.159 .222-.584 .333 .028 .445 .64 .5 1.909 .5 3.837 .5 5.802 .481 7.266 .445 8.231H7.949C7.911 7.675 7.893 6.932 7.893 6.006ZM3.613 6.896H4.669C4.632 6.451 4.614 5.987 4.614 5.506 5.021 5.506 5.503 5.524 6.059 5.561V4.616C5.503 4.652 5.021 4.671 4.614 4.671V3.281C5.281 3.281 5.836 3.299 6.281 3.337V2.336C5.688 2.372 5.003 2.391 4.224 2.391 3.446 2.391 2.742 2.372 2.112 2.336V3.337C2.742 3.299 3.26 3.281 3.669 3.281V4.671C3.187 4.671 2.686 4.652 2.168 4.616V5.561C2.724 5.524 3.224 5.506 3.669 5.506 3.669 5.951 3.649 6.414 3.613 6.896M6.003-.056C6.003-.501 6.021-1.057 6.059-1.724H2.279C2.316-1.057 2.335-.501 2.335-.056 2.335 .389 2.316 .871 2.279 1.39H6.059C6.021 .871 6.003 .389 6.003-.056M5.058 .612H3.279V-.94500008H5.058ZM5.058-.945" fill="#ffffff"/>
<path transform="matrix(1,0,0,-1,124.6233,328.9997)" d="M0 0C-.034-.773-.05-1.545-.05-2.317-.05-3.09-.034-3.811 0-4.483H-2.97V-8.411C-1.729-7.74-.805-7.169-.201-6.699-.134-7.102-.034-7.421 .101-7.656-.537-8.026-1.158-8.395-1.762-8.764-2.366-9.133-2.987-9.536-3.625-9.973-3.826-9.67-4.061-9.385-4.329-9.116-4.027-8.848-3.894-8.495-3.927-8.059V-5.288C-3.927-4.819-3.944-4.281-3.977-3.677H-.956V-.806H-2.618C-3.189-.806-3.776-.823-4.38-.856V.05C-3.776 .017-3.189 0-2.618 0ZM5.512-8.562C6.167-8.999 6.728-9.3 7.199-9.469 6.964-9.636 6.695-9.955 6.393-10.426 5.957-10.157 5.495-9.838 5.009-9.469 4.522-9.099 3.977-8.613 3.373-8.008 2.802-8.546 2.206-8.999 1.586-9.368 .964-9.737 .268-10.09-.503-10.426-.638-10.124-.873-9.821-1.208-9.519-.503-9.318 .227-9.016 .982-8.613 1.737-8.21 2.366-7.723 2.87-7.152 2.601-6.749 2.316-6.263 2.014-5.691 1.712-5.121 1.426-4.567 1.158-4.029L.906-4.382C.57-4.147 .302-3.962 .101-3.828 .436-3.425 .831-2.779 1.284-1.889 1.737-.999 2.114 .05 2.416 1.259 2.819 1.058 3.188 .94 3.524 .907 3.323 .571 3.138 .193 2.97-.227 2.802-.647 2.634-1.058 2.467-1.461H4.984C5.689-1.461 6.275-1.444 6.746-1.41V-2.317C6.41-2.284 5.973-2.266 5.437-2.266 5.236-4.315 4.765-5.977 4.027-7.253 4.362-7.69 4.858-8.126 5.512-8.562M1.963-3.526C2.198-4.097 2.449-4.642 2.718-5.163 2.987-5.684 3.238-6.112 3.474-6.447 4.01-5.44 4.346-4.047 4.48-2.266H2.165C1.863-2.804 1.543-3.341 1.208-3.878 1.51-3.777 1.762-3.66 1.963-3.526" fill="#ffffff"/>
<path transform="matrix(1,0,0,-1,135.1447,331.9713)" d="M0 0C-.37-.471-.772-.957-1.208-1.461-1.544-1.226-1.846-1.025-2.114-.856-1.309-.118-.688 .705-.252 1.612 .05 1.376 .403 1.158 .805 .957 .637 .789 .369 .47 0 0M7.602-2.115C7.266-2.619 6.821-3.182 6.268-3.803 5.714-4.424 5.135-4.936 4.531-5.339 4.866-5.54 5.487-5.734 6.393-5.918 7.3-6.102 8.239-6.212 9.213-6.245 8.81-6.681 8.575-7.051 8.508-7.353 7.433-7.219 6.469-7.009 5.613-6.724 4.757-6.438 4.094-6.145 3.625-5.842 3.054-6.178 2.332-6.48 1.46-6.749 .587-7.017-.386-7.253-1.46-7.454-1.594-7.118-1.796-6.782-2.064-6.447-1.326-6.413-.462-6.287 .529-6.069 1.518-5.851 2.282-5.608 2.819-5.339 2.081-4.802 1.309-3.996 .503-2.921 .067-2.921-.386-2.939-.856-2.972V-2.065C-.252-2.099 .47-2.115 1.309-2.115ZM4.279 2.921H6.544C7.517 2.921 8.39 2.938 9.162 2.972V2.015C8.357 2.048 7.517 2.065 6.645 2.065H5.437V-.151C5.437-.689 5.453-1.226 5.487-1.763H4.38C4.413-1.226 4.43-.689 4.43-.151V2.065H2.668V-.151C2.668-.521 2.685-1.058 2.718-1.763H1.611C1.644-1.058 1.661-.521 1.661-.151V2.065H.554C-.42 2.065-1.276 2.048-2.014 2.015V2.972C-1.309 2.938-.453 2.921 .554 2.921H3.121C3.054 3.19 2.869 3.626 2.568 4.231 2.902 4.264 3.255 4.365 3.625 4.533 3.859 4.029 4.078 3.492 4.279 2.921M3.675-4.886C4.48-4.349 5.168-3.694 5.739-2.921H1.561C2.165-3.727 2.869-4.382 3.675-4.886M9.112-.705C8.843-.907 8.541-1.158 8.206-1.461 7.635-.789 6.93-.05 6.091 .755 6.393 .99 6.662 1.225 6.897 1.461 7.602 .822 8.339 .101 9.112-.705" fill="#ffffff"/>
<path transform="matrix(1,0,0,-1,149.1144,331.8706)" d="M0 0C-.151-.269-.361-.604-.629-1.007V-5.54C-.629-5.977-.613-6.648-.579-7.555H-1.636C-1.603-6.548-1.586-5.792-1.586-5.288V-2.065C-1.888-2.569-2.29-3.072-2.794-3.576-3.029-3.241-3.247-2.955-3.448-2.72-2.677-1.982-2.073-1.276-1.636-.604-1.2 .067-.814 .705-.478 1.31-.143 1.108 .243 .889 .68 .655 .378 .486 .151 .268 0 0M-.831 2.644C-1.267 1.956-1.871 1.191-2.643 .353-2.844 .621-3.063 .873-3.297 1.108-2.761 1.645-2.274 2.224-1.837 2.846-1.402 3.467-1.082 4.012-.881 4.483-.546 4.281-.176 4.029 .227 3.727-.042 3.693-.395 3.332-.831 2.644M6.721 .05C7.358 .05 7.945 .067 8.483 .101V-.907C7.945-.874 7.375-.856 6.771-.856H6.066V-6.346C6.099-6.749 5.973-7.026 5.689-7.177 5.403-7.328 4.841-7.454 4.002-7.555 3.935-7.152 3.75-6.749 3.448-6.346 4.019-6.413 4.422-6.438 4.657-6.422 4.891-6.404 5.026-6.228 5.059-5.893V-.856H3.046C2.408-.856 1.804-.874 1.233-.907V.101C1.837 .067 2.442 .05 3.046 .05ZM5.865 3.475C6.435 3.475 7.023 3.492 7.627 3.526V2.569C7.023 2.602 6.401 2.619 5.764 2.619H3.902C3.163 2.619 2.525 2.602 1.989 2.569V3.526C2.525 3.492 3.163 3.475 3.902 3.475Z" fill="#ffffff"/>
<path transform="matrix(1,0,0,-1,164.8713,329.0501)" d="M0 0C-.05-.571-.126-1.327-.227-2.266H4.959C4.891-2.838 4.841-3.324 4.808-3.727L4.254-8.764C4.153-9.368 3.834-9.754 3.297-9.922 2.76-10.09 2.089-10.191 1.284-10.224 1.183-9.754 1.015-9.351 .78-9.016 1.787-9.082 2.442-9.066 2.744-8.965 3.046-8.864 3.23-8.562 3.297-8.059L3.801-3.123H-.327C-.629-4.668-1.192-6.011-2.014-7.152-2.836-8.294-3.868-9.318-5.11-10.224-5.445-9.788-5.747-9.485-6.016-9.318-4.942-8.781-3.977-7.983-3.121-6.925-2.265-5.868-1.686-4.601-1.384-3.123H-3.046C-3.617-3.123-4.354-3.14-5.261-3.173V-2.216C-4.354-2.25-3.734-2.266-3.398-2.266H-1.233C-1.099-1.125-1.032 .134-1.032 1.511-.495 1.41-.059 1.343 .277 1.31 .142 1.007 .05 .571 0 0M-3.801 .856C-2.862-.05-2.224-.705-1.888-1.108-2.157-1.343-2.441-1.595-2.743-1.864-3.113-1.327-3.717-.655-4.556 .151-4.254 .386-4.002 .621-3.801 .856M2.744-6.296C2.542-6.497 2.307-6.833 2.039-7.303 1.3-6.632 .529-6.044-.277-5.54-.042-5.171 .126-4.869 .227-4.634 1.065-5.171 1.904-5.725 2.744-6.296" fill="#ffffff"/>
<path transform="matrix(1,0,0,-1,181.5587,337.6123)" d="M0 0C-.503-.504-.923-.973-1.258-1.41-1.494-1.074-1.762-.822-2.064-.655-1.796-.286-1.661 .067-1.661 .403V5.288C-2.333 5.288-2.887 5.271-3.322 5.238V6.145C-2.92 6.111-2.517 6.094-2.114 6.094H-.604C-.638 5.523-.654 4.952-.654 4.382V.655C-.352 .889 .117 1.36 .755 2.065 .889 1.796 1.057 1.494 1.259 1.158 .923 .889 .503 .504 0 0M-.201 7.807C-.437 7.638-.688 7.454-.956 7.253-1.46 7.89-1.997 8.512-2.567 9.116-2.366 9.284-2.148 9.485-1.913 9.721-1.409 9.284-.839 8.646-.201 7.807M4.38 7.908V6.044H6.091C6.628 6.044 7.115 6.06 7.551 6.094V5.188C7.148 5.221 6.678 5.238 6.142 5.238H4.38V-.353H6.041C6.779-.353 7.433-.32 8.004-.252V-1.209C7.433-1.175 6.779-1.158 6.041-1.158H2.316C1.644-1.158 1.023-1.175 .453-1.209V-.252C1.023-.32 1.627-.353 2.265-.353H3.373V7.958C3.373 8.495 3.356 9.049 3.323 9.62H4.43C4.396 8.982 4.38 8.411 4.38 7.908" fill="#ffffff"/>
<path transform="matrix(1,0,0,-1,196.1074,329.5537)" d="M0 0H5.034C5-.773 4.984-1.478 4.984-2.115V-7.756C4.984-8.361 5-8.965 5.034-9.57H4.027V-8.361H-2.718V-9.57H-3.725C-3.692-8.931-3.675-8.344-3.675-7.807V-2.065C-3.675-1.461-3.692-.773-3.725 0H-.956C-.823 .907-.739 1.578-.705 2.015-.302 1.88 .134 1.779 .604 1.712 .403 1.41 .201 .839 0 0M4.027-.856H-2.7189999V-2.518H4.027ZM4.027-3.324H-2.7189999V-4.936H4.027ZM4.027-5.742H-2.7189999V-7.5550005H4.027ZM4.027-7.555" fill="#ffffff"/>
<path transform="matrix(1,0,0,-1,213.7269,328.3953)" d="M0 0C-.034-.638-.05-1.259-.05-1.864V-3.878C-.05-4.45-.034-5.087 0-5.792H-1.158V-4.886H-7.652V-8.764C-7.72-9.368-7.384-9.637-6.645-9.57-4.732-9.703-2.819-9.703-.906-9.57-.571-9.603-.311-9.444-.126-9.091 .058-8.739 .167-8.244 .201-7.605 .705-7.874 1.141-8.059 1.51-8.159 1.241-9.167 .939-9.813 .604-10.098 .268-10.383-.135-10.527-.604-10.527-2.887-10.627-5.169-10.627-7.451-10.527-8.29-10.56-8.709-10.207-8.709-9.469V-5.893C-8.709-5.255-8.726-4.601-8.76-3.929H-1.158V-.957H-6.746C-7.418-.957-8.155-.974-8.961-1.007V.05C-8.155 .017-7.434 0-6.796 0Z" fill="#ffffff"/>
<path transform="matrix(1,0,0,-1,218.0561,330.8381)" d="M0 0C.57 1.058 1.007 2.123 1.309 3.198 1.644 2.997 1.98 2.846 2.316 2.745 2.047 2.308 1.694 1.486 1.259 .277V-5.817C1.259-6.925 1.275-7.731 1.309-8.235H.302C.335-7.664 .353-6.842 .353-5.767V-1.385C.017-1.923-.319-2.443-.654-2.946-.89-2.577-1.141-2.309-1.409-2.141-1.041-1.772-.571-1.058 0 0M3.524 1.435C3.524 2.006 3.507 2.443 3.474 2.745H4.48C4.447 2.443 4.43 2.006 4.43 1.435V.076C4.799 .076 5.218 .092 5.689 .126V-.781C5.118-.748 4.698-.73 4.43-.73V-2.544H5.689C5.655-3.014 5.638-3.685 5.638-4.558 5.638-5.432 5.655-6.086 5.689-6.522H4.732V-6.019H3.172V-7.076H2.215C2.248-6.607 2.265-5.851 2.265-4.81 2.265-3.77 2.248-3.014 2.215-2.544H3.524V-.73C2.92-.73 2.417-.748 2.014-.781V.126C2.383 .092 2.886 .076 3.524 .076ZM4.732-3.299H3.171V-5.263H4.732ZM6.217 0C6.57 .957 6.829 1.972 6.997 3.047 7.332 2.913 7.735 2.778 8.206 2.644 7.97 2.409 7.669 1.67 7.3 .428H8.508C9.145 .428 9.666 .445 10.068 .478V-.327C9.732-.294 9.447-.277 9.213-.277 9.246-2.359 8.943-4.173 8.307-5.717 8.877-6.522 9.515-7.076 10.219-7.379 9.85-7.681 9.598-7.966 9.464-8.235 8.927-7.865 8.34-7.278 7.702-6.472 7.131-7.177 6.376-7.832 5.437-8.436 5.235-8.167 4.984-7.915 4.682-7.681 5.554-7.345 6.376-6.691 7.149-5.717 6.746-4.945 6.426-3.77 6.192-2.191L5.991-2.644C5.789-2.41 5.538-2.191 5.235-1.989 5.538-1.62 5.865-.957 6.217 0M6.897-1.335C7.165-3.081 7.433-4.223 7.702-4.76 8.071-3.786 8.273-2.309 8.307-.327H7.048C6.947-.597 6.796-.982 6.595-1.486Z" fill="#ffffff"/>
<path transform="matrix(1,0,0,-1,232.4537,330.1078)" d="M0 0H2.265C2.232-.571 2.215-1.293 2.215-2.166V-6.598C2.215-7.102 2.232-7.824 2.265-8.764H1.259V-7.756H-1.309V-8.864H-2.315C-2.282-7.79-2.265-7.119-2.265-6.85V-2.216C-2.265-1.31-2.282-.571-2.315 0H-.856C-.688 .772-.554 1.578-.453 2.418 .017 2.249 .403 2.132 .705 2.065 .536 1.763 .302 1.074 0 0M1.259-.856H-1.308V-3.3739999H1.259ZM1.259-4.231H-1.308V-6.8999998H1.259ZM7.954-7.605C7.887-8.21 7.568-8.613 6.997-8.814 6.426-9.016 5.789-9.149 5.085-9.217 5.051-8.847 4.9-8.462 4.632-8.059 5.302-8.092 5.831-8.075 6.217-8.008 6.603-7.941 6.847-7.79 6.947-7.555 7.048-7.32 7.123-6.632 7.174-5.49 7.224-4.349 7.266-2.754 7.3-.705H4.38C4.111-1.343 3.725-2.099 3.222-2.972 2.987-2.737 2.701-2.552 2.366-2.418 2.668-2.015 2.953-1.528 3.222-.957 3.49-.386 3.725 .235 3.927 .907 4.128 1.578 4.245 2.098 4.279 2.468 4.749 2.267 5.152 2.115 5.487 2.015 5.319 1.746 5.177 1.452 5.059 1.133 4.941 .814 4.815 .504 4.682 .201H8.256C8.222-.504 8.206-1.158 8.206-1.763 8.172-3.811 8.088-5.759 7.954-7.605M5.236-3.828C5.437-4.231 5.671-4.752 5.94-5.389 5.705-5.49 5.387-5.658 4.984-5.893 4.749-5.255 4.531-4.709 4.329-4.256 4.128-3.803 3.927-3.425 3.725-3.123 3.96-2.989 4.262-2.82 4.632-2.619Z" fill="#ffffff"/>
<path transform="matrix(1,0,0,-1,254,334.7918)" d="M0 0V-.907C-.336-.874-.89-.856-1.661-.856-1.661-1.73-1.645-2.418-1.611-2.921H-2.618V-2.418H-5.336V-3.375C-5.37-3.777-5.512-4.046-5.764-4.18-6.016-4.314-6.511-4.432-7.249-4.533-7.317-4.197-7.484-3.828-7.752-3.425-7.148-3.425-6.746-3.408-6.544-3.375-6.343-3.341-6.242-3.241-6.242-3.072V-2.418H-9.061C-9.431-2.418-9.867-2.435-10.37-2.468V-1.561C-9.867-1.595-9.431-1.612-9.061-1.612H-6.242V-.856H-10.018C-10.454-.856-10.874-.874-11.276-.907V0C-10.874-.034-10.454-.05-10.018-.05H-6.242V.655H-9.162C-9.532 .655-9.934 .637-10.37 .604V1.511C-9.934 1.477-9.532 1.461-9.162 1.461H-6.242V2.115H-9.766C-9.733 2.619-9.716 3.072-9.716 3.475-9.716 3.911-9.733 4.332-9.766 4.734H-6.242V5.44H-9.816C-10.354 5.44-10.857 5.422-11.327 5.389V6.296C-10.857 6.262-10.37 6.245-9.867 6.245H-6.242C-6.242 6.48-6.26 6.782-6.293 7.152H-5.286C-5.32 6.883-5.336 6.581-5.336 6.245H-1.913C-1.343 6.245-.755 6.262-.151 6.296V5.389C-.755 5.422-1.343 5.44-1.913 5.44H-5.336V4.734H-1.712C-1.745 4.332-1.762 3.911-1.762 3.475-1.762 3.038-1.745 2.585-1.712 2.115H-5.336V1.461H-1.611C-1.645 1.125-1.661 .621-1.661-.05-1.158-.05-.604-.034 0 0M-6.242 3.929H-8.809V2.922H-6.242ZM-2.718 3.929H-5.336V2.922H-2.718ZM-2.618 .655H-5.336V-.050000013H-2.618ZM-2.618-.856H-5.336V-1.6110001H-2.618ZM-2.618-1.612" fill="#ffffff"/>
<path transform="matrix(1,0,0,-1,258.9335,332.3239)" d="M0 0C-.168-.235-.37-.554-.604-.957V-5.087C-.604-5.288-.588-5.926-.554-7.001H-1.611C-1.578-5.926-1.561-5.288-1.561-5.087V-2.115C-1.862-2.451-2.316-2.921-2.92-3.526-3.189-3.223-3.473-2.989-3.776-2.821-3.071-2.317-2.459-1.721-1.938-1.033-1.418-.345-.99 .386-.654 1.158-.352 .957 .05 .772 .554 .604 .352 .436 .168 .235 0 0M-.906 3.576H.856C1.561 3.576 2.131 3.592 2.567 3.626V2.72C2.198 2.753 1.594 2.77 .755 2.77L1.51 1.259C1.108 1.158 .738 1.04 .403 .907 .235 1.544 .017 2.166-.252 2.77H-1.309C-1.779 2.065-2.215 1.393-2.618 .755-2.92 1.091-3.256 1.343-3.625 1.511-3.155 1.88-2.718 2.392-2.316 3.047-1.913 3.702-1.611 4.331-1.409 4.936-1.007 4.701-.638 4.516-.302 4.382-.503 4.18-.705 3.911-.906 3.576M5.185-.655C5.185-.151 5.168 .319 5.135 .755H6.192C6.158 .353 6.142-.118 6.142-.655 6.879-.655 7.517-.638 8.055-.604V-1.561C7.551-1.528 6.913-1.511 6.142-1.511V-5.339C6.142-6.111 5.957-6.564 5.588-6.699 5.218-6.832 4.698-6.967 4.027-7.102 3.893-6.665 3.725-6.278 3.524-5.943 4.229-5.943 4.682-5.918 4.883-5.868 5.085-5.817 5.185-5.574 5.185-5.137V-1.511H2.064C1.561-1.511 .99-1.528 .352-1.561V-.604C1.023-.638 1.594-.655 2.064-.655ZM3.474-4.18C3.138-4.349 2.819-4.533 2.517-4.734 2.215-4.063 1.829-3.425 1.359-2.821 1.728-2.653 2.047-2.485 2.316-2.317 2.785-3.022 3.172-3.644 3.474-4.18M2.014 1.36C2.449 1.897 2.811 2.468 3.096 3.072 3.381 3.677 3.607 4.281 3.776 4.886 4.245 4.717 4.648 4.583 4.984 4.483 4.749 4.281 4.547 3.995 4.38 3.626H6.393C6.728 3.626 7.333 3.643 8.206 3.677V2.77C7.602 2.803 6.879 2.82 6.041 2.82 6.511 2.148 6.829 1.645 6.997 1.31 6.561 1.141 6.225 1.007 5.991 .907 5.722 1.612 5.403 2.249 5.034 2.82H4.078C3.843 2.283 3.474 1.612 2.97 .806 2.668 1.04 2.349 1.225 2.014 1.36" fill="#ffffff"/>
<path transform="matrix(1,0,0,-1,274.3884,328.3953)" d="M0 0C.973-1.176 1.762-1.982 2.366-2.418 2.97-2.854 3.524-3.19 4.027-3.425 4.531-3.66 5.017-3.845 5.487-3.979 5.152-4.349 4.934-4.701 4.833-5.037 4.161-4.734 3.557-4.416 3.021-4.08 2.483-3.744 1.938-3.316 1.385-2.795 .831-2.275 .201-1.561-.503-.655-1.141-1.561-1.77-2.309-2.391-2.896-3.013-3.484-3.541-3.946-3.977-4.281-4.413-4.617-4.9-4.953-5.437-5.288-5.504-5.155-5.773-4.886-6.242-4.483-5.537-4.147-4.867-3.744-4.229-3.274-3.591-2.804-2.953-2.208-2.316-1.486-1.679-.764-1.158 .017-.755 .856-.386 .621-.05 .436 .252 .302ZM3.323-8.361C3.323-9.57 3.339-10.358 3.373-10.728H2.316V-9.771H-3.272V-10.879H-4.279C-4.246-10.476-4.229-9.703-4.229-8.562-4.229-7.387-4.246-6.548-4.279-6.044H3.373C3.339-6.38 3.323-7.152 3.323-8.361M1.108-3.979C1.644-3.979 2.114-3.962 2.517-3.929V-4.886C2.081-4.852 1.627-4.835 1.158-4.835H-1.661C-2.366-4.835-2.937-4.852-3.373-4.886V-3.929C-2.736-3.962-2.165-3.979-1.661-3.979ZM2.316-6.85H-3.2719999V-8.965H2.316ZM2.316-8.965" fill="#ffffff"/>
<path transform="matrix(1,0,0,-1,281.0333,331.9713)" d="M0 0C.503-.034 1.108-.05 1.812-.05H3.725C4.329-.05 5.017-.034 5.789 0V-.907C5.017-.874 4.346-.856 3.776-.856H3.222C3.02-1.394 2.794-1.964 2.542-2.569 2.291-3.173 1.996-3.777 1.661-4.382 2.97-4.248 3.96-4.114 4.631-3.979 4.463-3.576 4.195-3.072 3.826-2.468 4.195-2.266 4.463-2.099 4.631-1.964 4.967-2.569 5.252-3.081 5.487-3.5 5.722-3.921 5.973-4.432 6.242-5.037 5.973-5.205 5.671-5.373 5.336-5.54 5.202-5.238 5.084-4.986 4.984-4.785 3.909-4.953 3.046-5.087 2.391-5.188 1.737-5.288 1.174-5.423 .705-5.591 .57-5.255 .403-4.936 .201-4.634 .637-4.365 1.032-3.828 1.384-3.022 1.737-2.216 1.996-1.494 2.165-.856H1.812C1.108-.856 .503-.874 0-.907ZM3.473 2.82C4.044 2.82 4.682 2.837 5.387 2.871V1.914C4.682 1.947 4.044 1.964 3.473 1.964H2.265C1.728 1.964 1.208 1.947 .705 1.914V2.871C1.174 2.837 1.678 2.82 2.215 2.82ZM8.91 4.13C8.843 3.794 8.801 3.416 8.784 2.997 8.767 2.577 8.76 2.065 8.76 1.461H11.578C11.545 1.024 11.511 .537 11.478 0L11.226-5.742C11.125-6.413 10.849-6.825 10.395-6.976 9.942-7.127 9.43-7.235 8.86-7.303 8.76-6.9 8.591-6.53 8.357-6.195 9.094-6.228 9.598-6.186 9.867-6.069 10.135-5.952 10.27-5.725 10.27-5.389L10.572 .604H8.76C8.692-.874 8.583-1.998 8.432-2.77 8.281-3.543 8.046-4.256 7.727-4.911 7.408-5.565 6.762-6.413 5.789-7.454 5.453-7.118 5.151-6.9 4.883-6.799 5.52-6.296 6.041-5.767 6.444-5.213 6.846-4.659 7.131-4.088 7.299-3.5 7.467-2.913 7.584-2.3 7.652-1.662 7.719-1.025 7.769-.269 7.803 .604H6.947C6.578 .604 6.142 .587 5.638 .554V1.511C6.142 1.477 6.611 1.461 7.048 1.461H7.803V2.871C7.803 3.341 7.786 3.811 7.752 4.281 8.155 4.18 8.541 4.13 8.91 4.13" fill="#ffffff"/>
<path transform="matrix(1,0,0,-1,298.9047,334.2882)" d="M0 0C-.235-.201-.521-.42-.856-.655-1.057-.219-1.41 .369-1.913 1.108V-2.569C-1.913-3.241-1.897-3.995-1.863-4.835H-2.97C-2.937-3.995-2.92-3.241-2.92-2.569V.655C-3.088 .151-3.272-.327-3.474-.781-3.675-1.234-3.961-1.746-4.329-2.317-4.632-1.982-4.9-1.712-5.135-1.511-4.867-1.209-4.514-.622-4.078 .252-3.642 1.125-3.306 2.098-3.071 3.173H-3.373C-3.843 3.173-4.313 3.139-4.782 3.072V4.029C-4.313 3.995-3.86 3.979-3.423 3.979H-2.92V4.986C-2.92 5.523-2.937 6.027-2.97 6.497H-1.812C-1.88 6.161-1.913 5.658-1.913 4.986V3.979H-1.359C-.991 3.979-.571 3.995-.101 4.029V3.123C-.839 3.156-1.444 3.173-1.913 3.173V1.158C-1.712 1.326-1.477 1.511-1.208 1.712-.672 .973-.269 .403 0 0M4.682 3.425V-3.123C4.682-3.559 4.782-3.794 4.984-3.828 5.185-3.861 5.353-3.87 5.487-3.853 5.621-3.836 5.714-3.719 5.764-3.5 5.814-3.282 5.84-2.955 5.84-2.518 6.142-2.687 6.494-2.82 6.897-2.921 6.762-3.626 6.628-4.096 6.494-4.331 6.36-4.566 6.142-4.684 5.84-4.684H4.782C4.38-4.684 4.085-4.591 3.901-4.407 3.717-4.222 3.641-3.844 3.675-3.274V4.986H1.762C1.762 3.072 1.737 1.587 1.686 .529 1.636-.529 1.485-1.486 1.233-2.342 .982-3.198 .486-4.062-.252-4.936-.42-4.734-.722-4.465-1.158-4.13-.688-3.761-.311-3.308-.025-2.77 .259-2.233 .453-1.679 .554-1.108 .654-.538 .721 .067 .755 .705 .788 1.343 .805 2.148 .805 3.123 .805 4.13 .788 5.037 .755 5.842H4.732C4.698 4.902 4.682 4.096 4.682 3.425" fill="#ffffff"/>
</g>
<path transform="matrix(1,0,0,-1,0,595.276)" d="M170.834 448.561H245.474V428.683H170.834Z" fill="#f43040"/>
<g clip-path="url(#clip_6)">
<path transform="matrix(1,0,0,-1,188.7889,151.63599)" d="M0 0H1.278C1.982 0 2.686 .018 3.391 .056V-.834C2.686-.798 1.982-.779 1.278-.779H-1.723V-1.835H.445C1.037-1.835 1.686-1.817 2.39-1.78V-2.669C1.686-2.633 1.037-2.614 .445-2.614H-1.723V-3.67H1.278C1.908-3.67 2.557-3.652 3.224-3.615V-4.505C2.557-4.468 1.908-4.449 1.278-4.449H.667C.889-4.635 1.186-4.82 1.556-5.005 1.186-5.302 .963-5.58 .889-5.839H2.279C2.871-5.839 3.483-5.821 4.113-5.784V-6.729C3.52-6.655 2.909-6.618 2.279-6.618H-6.67C-7.337-6.618-7.968-6.655-8.56-6.729V-5.784C-7.93-5.821-7.301-5.839-6.67-5.839H-5.447C-5.707-5.58-5.911-5.339-6.059-5.116-5.725-4.931-5.429-4.783-5.169-4.671-4.873-5.043-4.614-5.432-4.391-5.839H-2.779V-4.449H-5.558C-6.448-4.449-7.152-4.468-7.671-4.505V-3.615C-7.152-3.652-6.467-3.67-5.614-3.67H-2.779V-2.614H-5.058C-5.725-2.614-6.3-2.633-6.781-2.669V-1.78C-6.337-1.817-5.763-1.835-5.058-1.835H-2.779V-.779H-5.836C-6.541-.779-7.245-.798-7.949-.834V.056C-7.245 .018-6.541 0-5.836 0H-4.558C-4.818 .519-5.114 .945-5.447 1.279-5.188 1.464-4.911 1.649-4.614 1.835-4.169 1.39-3.799 .964-3.502 .556-3.799 .408-4.095 .222-4.391 0H-1.056C-.611 .89-.371 1.52-.333 1.891L.945 1.335C.648 1.112 .334 .667 0 0M2.39-11.178H1.278V-10.511H-5.67V-11.178H-6.781V-7.619H2.39ZM1.278-8.398H-5.67V-9.677H1.278ZM-.167-5.839C.056-5.394 .222-4.931 .334-4.449H-1.723V-5.839Z" fill="#ffffff"/>
<path transform="matrix(1,0,0,-1,195.6002,162.70291)" d="M0 0C-.445 .186-.815 .315-1.112 .389-.667 .983-.297 1.798 0 2.836 .334 2.688 .685 2.576 1.056 2.503 .723 1.798 .37 .965 0 0M1.723 10.678C1.056 10.678 .352 10.659-.389 10.622V11.567C.389 11.53 1.093 11.512 1.723 11.512H5.058C5.021 11.808 4.892 12.197 4.669 12.68 5.076 12.716 5.503 12.791 5.948 12.902 6.095 12.235 6.206 11.771 6.281 11.512H8.838C9.579 11.512 10.228 11.53 10.784 11.567V10.622C10.153 10.659 9.505 10.678 8.838 10.678H3.28C3.538 10.307 3.761 9.955 3.947 9.621L3.168 9.287H6.67C6.818 9.472 6.985 9.899 7.17 10.566 7.615 10.455 8.023 10.344 8.393 10.233 8.134 9.899 7.93 9.584 7.782 9.287H9.45C10.264 9.287 11.024 9.306 11.729 9.343V8.398C11.024 8.434 10.264 8.453 9.45 8.453H1.112C.334 8.453-.389 8.434-1.056 8.398V9.343C-.353 9.306 .37 9.287 1.112 9.287H2.946C2.835 9.584 2.649 9.899 2.39 10.233 2.613 10.344 2.871 10.492 3.168 10.678ZM9.672 5.617C9.672 4.986 9.69 4.3 9.727 3.559H.889C.926 4.3 .945 5.005 .945 5.672 .945 6.34 .926 7.007 .889 7.675H9.727C9.69 6.97 9.672 6.284 9.672 5.617M8.56 6.896H2.0570007V6.006H8.56ZM8.56 5.172H2.0570007V4.393H8.56ZM3.335 1.835C3.335 1.613 3.344 1.409 3.363 1.223 3.381 1.038 3.557 .945 3.891 .945H7.17C7.393 1.02 7.578 1.446 7.726 2.224 8.023 1.965 8.43 1.76 8.949 1.613 8.69 .909 8.467 .482 8.282 .334 8.096 .186 7.782 .111 7.337 .111H3.28C2.649 .149 2.316 .306 2.279 .584 2.242 .862 2.223 1.187 2.223 1.557 2.223 1.927 2.186 2.354 2.112 2.836H3.391C3.353 2.428 3.335 2.094 3.335 1.835M6.615 2.002C6.281 1.78 5.948 1.575 5.614 1.39 5.503 1.724 5.188 2.187 4.669 2.781 4.892 2.966 5.206 3.17 5.614 3.392 6.022 2.836 6.355 2.372 6.615 2.002M11.84 1.057C11.506 .798 11.209 .575 10.95 .389 10.691 .798 10.153 1.502 9.338 2.503 9.561 2.688 9.857 2.892 10.228 3.114 10.931 2.187 11.469 1.502 11.84 1.057" fill="#ffffff"/>
<path transform="matrix(1,0,0,-1,211.8609,155.19532)" d="M0 0C-.334-.371-.575-.723-.723-1.057-1.427-.5-2.261 .018-3.224 .501-3.039 .834-2.835 1.168-2.612 1.502-1.76 1.019-.889 .519 0 0M-1.501-4.477C-.982-3.68-.445-2.689 .111-1.502 .445-1.873 .759-2.151 1.056-2.336 .648-3.003 .129-3.884-.5-4.977-1.131-6.071-1.538-6.766-1.723-7.063-2.02-6.766-2.428-6.507-2.946-6.284-2.501-5.877-2.02-5.275-1.501-4.477M.278 2.113C-.649 2.928-1.445 3.522-2.112 3.893-1.853 4.189-1.612 4.505-1.39 4.838-.686 4.356 .129 3.763 1.056 3.059 .723 2.762 .463 2.447 .278 2.113M4.002 3.837C3.853 3.577 3.669 3.244 3.446 2.836H9.561C9.523 2.243 9.486 1.427 9.449 .389L9.283-5.672C9.208-6.376 8.977-6.849 8.588-7.091 8.199-7.331 7.448-7.526 6.337-7.675 6.299-7.341 6.133-6.914 5.837-6.395 6.689-6.395 7.29-6.33 7.643-6.201 7.995-6.071 8.171-5.747 8.171-5.228L8.393 1.891H3.113C2.631 .964 2.13 .129 1.612-.612 1.352-.315 1.019-.075 .612 .111 1.093 .593 1.593 1.353 2.112 2.391 2.631 3.429 3.001 4.374 3.224 5.228 3.669 4.968 4.094 4.764 4.502 4.616 4.317 4.356 4.15 4.096 4.002 3.837M4.085-1.613C3.733-2.244 3.353-2.855 2.946-3.448L5.67-3.337C5.521-2.855 5.354-2.391 5.169-1.946 5.428-1.873 5.781-1.724 6.225-1.502 6.67-2.614 7.06-3.67 7.393-4.671 6.948-4.82 6.577-4.969 6.281-5.116 6.17-4.671 6.077-4.357 6.003-4.171 5.076-4.246 4.28-4.32 3.613-4.393 2.946-4.468 2.39-4.616 1.945-4.838 1.835-4.505 1.648-4.097 1.39-3.615 1.723-3.615 2.103-3.226 2.529-2.447 2.955-1.668 3.353-.686 3.724 .501 4.169 .203 4.576 0 4.947-.111 4.725-.482 4.437-.983 4.085-1.613" fill="#ffffff"/>
<path transform="matrix(1,0,0,-1,225.5646,156.80802)" d="M0 0V-3.337C.926-4.264 2.631-4.727 5.114-4.727 7.596-4.727 9.412-4.616 10.561-4.393 10.339-4.838 10.209-5.301 10.172-5.784 7.207-5.82 5.104-5.784 3.863-5.673 2.621-5.561 1.612-5.311 .834-4.922 .056-4.532-.464-4.477-.722-4.755-.982-5.033-1.297-5.487-1.668-6.117-2.001-5.746-2.334-5.431-2.668-5.172-2.076-4.653-1.501-4.171-.945-3.726V1.057C-1.242 1.057-1.705 1.037-2.334 1.001V2.058C-1.742 2.02-.945 2.002 .056 2.002 .018 1.26 0 .593 0 0M.667 4.393C.259 4.171-.075 3.911-.333 3.615-.593 4.171-1.075 4.912-1.779 5.839-1.482 6.062-1.167 6.284-.834 6.507-.204 5.617 .296 4.912 .667 4.393M9.505 6.562C8.986 5.969 8.44 5.413 7.865 4.894 7.291 4.374 6.781 3.893 6.337 3.448H9.561C9.523 2.632 9.505 1.835 9.505 1.057V-2.781C9.542-3.263 9.412-3.578 9.116-3.726 8.819-3.875 8.374-4.004 7.782-4.115 7.707-3.782 7.522-3.392 7.226-2.948 7.782-2.911 8.152-2.855 8.338-2.781 8.523-2.707 8.597-2.355 8.56-1.724H6.059V-4.004H5.058V-1.724H2.612V-4.004H1.612C1.648-2.781 1.668-1.557 1.668-.334 1.668 .89 1.648 2.15 1.612 3.448H4.892C4.706 3.744 4.298 4.152 3.669 4.671 3.928 4.894 4.169 5.135 4.391 5.394 5.058 4.875 5.521 4.485 5.781 4.227 6.373 4.857 6.837 5.339 7.171 5.672H3.613C2.871 5.672 2.223 5.653 1.668 5.617V6.618C2.223 6.581 2.835 6.562 3.502 6.562ZM5.058 2.614H2.612V1.391H5.058ZM5.058 .5H2.612V-.83500006H5.058ZM8.56 2.614H6.0590007V1.391H8.56ZM8.56 .5H6.0590007V-.83500006H8.56ZM8.56-.834" fill="#ffffff"/>
</g>
<path transform="matrix(1,0,0,-1,134.8115,176.25479)" d="M0 0V-2.686-5.372L5.37-2.686ZM1.342-1.791H-17.446V-3.582H1.342Z" fill="#ffffff"/>
<path transform="matrix(1,0,0,-1,218.668,176.25479)" d="M0 0V-2.686-5.372L5.37-2.686ZM1.343-1.791H-17.445V-3.582H1.343Z" fill="#ffffff"/>
<path transform="matrix(1,0,0,-1,295.5639,176.25479)" d="M0 0V-2.686-5.372L5.37-2.686ZM1.342-1.791H-17.446V-3.582H1.342Z" fill="#ffffff"/>
<path transform="matrix(1,0,0,-1,212.7993,228.52552)" d="M0 0H-2.685-5.37L-2.685-5.372ZM-1.79 32.63H-3.58V-1.3429985H-1.79Z" fill="#ffffff"/>
<path transform="matrix(1,0,0,-1,0,595.276)" d="M187.749 389.465H232.855V371.468H187.749Z" fill="#f43040"/>
<g clip-path="url(#clip_7)">
<path transform="matrix(1,0,0,-1,204.3774,210.2424)" d="M0 0V-1.058H3.474C3.943-1.058 4.513-1.041 5.185-1.007V-1.914C4.513-1.881 3.943-1.864 3.474-1.864H0V-2.72H3.474C3.44-3.223 3.423-3.845 3.423-4.583 3.423-5.322 3.44-5.961 3.474-6.497H0V-7.353H2.265C2.869-7.353 3.507-7.337 4.178-7.303V-8.109C3.54-8.076 2.92-8.059 2.316-8.059H0V-8.965H3.272C3.843-8.965 4.463-8.948 5.135-8.915V-9.771C4.463-9.737 3.859-9.721 3.323-9.721H-3.927C-4.598-9.721-5.286-9.737-5.991-9.771V-8.915C-5.286-8.948-4.615-8.965-3.977-8.965H-1.007V-8.059H-2.769C-3.574-8.059-4.313-8.076-4.984-8.109V-7.303C-4.111-7.337-3.356-7.353-2.718-7.353H-1.007V-6.497H-4.38C-4.347-5.658-4.329-5.02-4.329-4.583-4.329-4.147-4.347-3.526-4.38-2.72H-1.007V-1.864H-4.43C-4.9-1.864-5.454-1.881-6.091-1.914V-1.007C-5.454-1.041-4.9-1.058-4.43-1.058H-1.007V-.05C-1.679-.084-2.92-.168-4.732-.302-4.833 0-4.967 .285-5.135 .554-3.256 .587-1.586 .68-.126 .831 1.334 .982 2.383 1.158 3.021 1.36 3.154 1.024 3.406 .688 3.776 .353 1.896 .184 .637 .067 0 0M-1.007-3.526H-3.373V-4.231H-1.007ZM-1.007-5.037H-3.373V-5.6920006H-1.007ZM2.467-3.526H0V-4.231H2.467ZM2.416-5.037H0V-5.6920006H2.416ZM2.416-5.691" fill="#ffffff"/>
<path transform="matrix(1,0,0,-1,214.6472,216.6893)" d="M0 0C-.302-.302-.596-.579-.881-.831-1.167-1.083-1.561-1.377-2.064-1.712-2.198-1.545-2.45-1.327-2.819-1.058-2.148-.689-1.569-.286-1.082 .151-.596 .587-.235 1.04 0 1.511H-1.359C-1.326 1.914-1.309 2.333-1.309 2.77V5.288C-1.712 4.886-2.232 4.432-2.869 3.929-3.105 4.231-3.356 4.483-3.625 4.684-2.819 5.12-2.139 5.641-1.586 6.245-1.032 6.85-.604 7.454-.302 8.059 .033 7.857 .369 7.706 .705 7.605 .536 7.471 .302 7.219 0 6.85H5.487C5.89 6.85 6.494 6.866 7.299 6.9V6.044C6.762 6.077 6.259 6.094 5.789 6.094H-.453C-.722 5.825-.99 5.573-1.259 5.339H6.242C6.208 4.868 6.192 4.213 6.192 3.375 6.192 2.569 6.208 1.947 6.242 1.511H1.108C.973 1.31 .788 1.058 .554 .755H6.041C5.638 .117 5.227-.42 4.808-.856 4.388-1.293 3.943-1.679 3.473-2.015 4.01-2.183 4.673-2.334 5.462-2.468 6.25-2.602 7.115-2.686 8.055-2.72 7.886-2.954 7.719-3.29 7.551-3.727 6.142-3.526 5.042-3.324 4.254-3.123 3.465-2.921 2.886-2.736 2.517-2.569 1.678-2.904 .864-3.156 .076-3.324-.714-3.492-1.679-3.643-2.819-3.777-2.987-3.341-3.138-3.022-3.272-2.82-2.299-2.82-1.326-2.736-.352-2.569 .621-2.401 1.292-2.233 1.661-2.065 .956-1.662 .268-1.176-.403-.604-.068-.403 .168-.201 .302 0ZM5.286 4.583H-.40300036V3.7770003H5.286ZM5.286 3.022H-.40300036V2.2670003H5.286ZM2.618-1.612C3.255-1.243 3.843-.705 4.38 0H.403C1.04-.638 1.779-1.176 2.618-1.612" fill="#ffffff"/>
<path transform="matrix(1,0,0,-1,48.1352,247.44699)" d="M0 0C.089 3.105 2.624 5.64 5.638 5.641H322.722C325.851 5.64 328.385 3.105 328.361 0V-22.564C328.385-25.801 325.851-28.336 322.722-28.205H5.638C2.624-28.336 .089-25.801 0-22.564Z" fill="#f43040"/>
<path transform="matrix(1,0,0,-1,370.8598,276.6786)" d="M0 0H-316.975C-320.59 0-323.53 2.942-323.53 6.558V29.209C-323.53 32.825-320.59 35.767-316.975 35.767H0C3.615 35.767 6.555 32.825 6.555 29.209V6.558C6.555 2.942 3.615 0 0 0M-316.975 33.976C-319.602 33.976-321.74 31.838-321.74 29.209V6.558C-321.74 3.929-319.602 1.791-316.975 1.791H0C2.627 1.791 4.765 3.929 4.765 6.558V29.209C4.765 31.838 2.627 33.976 0 33.976Z" fill="#ffffff"/>
<path transform="matrix(1,0,0,-1,96.0402,257.0893)" d="M0 0H5.034C5-.773 4.984-1.478 4.984-2.115V-7.756C4.984-8.361 5-8.965 5.034-9.57H4.027V-8.361H-2.718V-9.57H-3.725C-3.692-8.931-3.675-8.344-3.675-7.807V-2.065C-3.675-1.461-3.692-.773-3.725 0H-.956C-.823 .907-.739 1.578-.705 2.015-.302 1.88 .134 1.779 .604 1.712 .403 1.41 .201 .839 0 0M4.027-.856H-2.7189999V-2.518H4.027ZM4.027-3.324H-2.7189999V-4.936H4.027ZM4.027-5.742H-2.7189999V-7.5550005H4.027ZM4.027-7.555" fill="#ffffff"/>
<path transform="matrix(1,0,0,-1,113.6597,255.93091)" d="M0 0C-.034-.638-.05-1.259-.05-1.864V-3.878C-.05-4.45-.034-5.087 0-5.792H-1.158V-4.886H-7.652V-8.764C-7.72-9.368-7.384-9.637-6.645-9.57-4.732-9.703-2.819-9.703-.906-9.57-.571-9.603-.311-9.444-.126-9.091 .058-8.739 .168-8.243 .201-7.605 .705-7.874 1.141-8.059 1.51-8.159 1.241-9.167 .939-9.813 .604-10.098 .268-10.383-.134-10.527-.604-10.527-2.887-10.627-5.169-10.627-7.451-10.527-8.29-10.56-8.709-10.207-8.709-9.469V-5.893C-8.709-5.255-8.726-4.601-8.759-3.929H-1.158V-.957H-6.746C-7.417-.957-8.155-.974-8.961-1.007V.05C-8.155 .017-7.434 0-6.796 0Z" fill="#ffffff"/>
<path transform="matrix(1,0,0,-1,117.989,258.3737)" d="M0 0C.57 1.058 1.007 2.123 1.309 3.198 1.644 2.997 1.98 2.846 2.316 2.745 2.047 2.308 1.694 1.486 1.259 .277V-5.817C1.259-6.925 1.275-7.731 1.309-8.235H.302C.335-7.664 .352-6.842 .352-5.767V-1.385C.017-1.923-.319-2.443-.654-2.946-.89-2.577-1.141-2.309-1.409-2.141-1.041-1.771-.571-1.058 0 0M3.524 1.435C3.524 2.006 3.507 2.443 3.474 2.745H4.481C4.447 2.443 4.43 2.006 4.43 1.435V.076C4.799 .076 5.218 .092 5.689 .126V-.781C5.118-.748 4.698-.73 4.43-.73V-2.543H5.689C5.655-3.014 5.638-3.685 5.638-4.558 5.638-5.432 5.655-6.086 5.689-6.522H4.732V-6.019H3.172V-7.076H2.215C2.248-6.607 2.265-5.851 2.265-4.81 2.265-3.77 2.248-3.014 2.215-2.543H3.524V-.73C2.92-.73 2.416-.748 2.014-.781V.126C2.383 .092 2.886 .076 3.524 .076ZM4.732-3.299H3.171V-5.263H4.732ZM6.217 0C6.57 .957 6.829 1.972 6.997 3.047 7.333 2.913 7.735 2.778 8.206 2.644 7.971 2.409 7.669 1.67 7.3 .428H8.508C9.145 .428 9.666 .445 10.068 .478V-.327C9.732-.294 9.447-.277 9.213-.277 9.246-2.359 8.944-4.173 8.306-5.717 8.877-6.522 9.515-7.076 10.219-7.379 9.85-7.681 9.598-7.966 9.464-8.235 8.927-7.865 8.339-7.278 7.702-6.472 7.131-7.177 6.376-7.832 5.437-8.436 5.236-8.167 4.984-7.915 4.682-7.681 5.554-7.345 6.376-6.691 7.149-5.717 6.746-4.945 6.426-3.77 6.192-2.191L5.991-2.644C5.789-2.41 5.538-2.191 5.236-1.989 5.538-1.62 5.865-.957 6.217 0M6.897-1.335C7.165-3.081 7.433-4.223 7.702-4.76 8.071-3.786 8.273-2.309 8.306-.327H7.048C6.947-.596 6.796-.982 6.595-1.486Z" fill="#ffffff"/>
<path transform="matrix(1,0,0,-1,131.4806,264.5435)" d="M0 0V3.979C-.571 3.979-1.125 3.945-1.661 3.878V4.734H1.007C.973 4.13 .957 3.626 .957 3.223V.201C1.728-.672 3.054-1.108 4.934-1.108 6.846-1.108 8.357-1.025 9.464-.856 9.229-1.225 9.078-1.645 9.011-2.115 7.735-2.115 6.653-2.107 5.764-2.09 4.875-2.073 4.136-2.023 3.549-1.939 2.961-1.855 2.492-1.738 2.14-1.587 1.787-1.435 1.41-1.209 1.007-.907 .604-.604 .184-.655-.252-1.058-.688-1.461-1.024-1.813-1.259-2.115-1.561-1.679-1.812-1.376-2.014-1.209-1.007-.537-.336-.135 0 0M1.057 6.749C.721 6.548 .436 6.346 .201 6.145-.302 7.017-.856 7.756-1.46 8.361-1.192 8.528-.906 8.746-.604 9.016 .302 7.908 .856 7.152 1.057 6.749M5.538 3.576C6.007 4.348 6.343 5.188 6.544 6.094 3.993 6.094 2.416 6.077 1.812 6.044V6.951C2.416 6.917 2.886 6.9 3.222 6.9H7.249C7.753 6.9 8.306 6.917 8.91 6.951V6.044C8.239 6.077 7.803 6.094 7.602 6.094 7.232 4.785 6.813 3.71 6.343 2.871L7.4 1.813C7.769 1.443 8.206 .99 8.709 .453 8.339 .218 8.037-.05 7.803-.353 7.433 .117 7.106 .512 6.821 .831 6.536 1.15 6.142 1.561 5.638 2.065 5.202 1.528 4.749 1.091 4.279 .755 3.809 .419 3.205 .033 2.467-.403 2.366-.168 2.114 .134 1.712 .504 2.316 .671 2.92 .974 3.524 1.41 4.128 1.846 4.598 2.283 4.934 2.72 4.564 3.156 3.725 3.895 2.416 4.936L3.121 5.641C4.262 4.767 5.067 4.08 5.538 3.576M3.776 8.864C4.078 9.066 4.312 9.267 4.48 9.469 5.353 8.562 5.873 8.008 6.041 7.807 5.84 7.638 5.588 7.42 5.286 7.152 5.118 7.487 4.614 8.059 3.776 8.864" fill="#ffffff"/>
<path transform="matrix(1,0,0,-1,144.0659,259.1543)" d="M0 0C-.336-.504-.739-1.058-1.208-1.662-1.377-1.327-1.611-1.075-1.913-.907-1.309-.302-.755 .436-.252 1.31 .252 2.182 .671 3.123 1.007 4.13 1.41 3.861 1.762 3.677 2.064 3.576 1.829 3.375 1.46 2.736 .957 1.662V-5.188C.957-6.263 .973-7.068 1.007-7.605H-.05C-.017-7.135 0-6.346 0-5.238ZM3.574 1.158H5.538V2.166C5.538 3.005 5.52 3.576 5.487 3.878H6.544C6.511 3.609 6.494 3.055 6.494 2.216V1.158H8.004C8.44 1.158 8.843 1.175 9.213 1.209V.252C8.843 .285 8.44 .302 8.004 .302H6.494V-2.418H8.155C8.659-2.418 9.263-2.401 9.968-2.367V-3.324C9.397-3.291 8.776-3.274 8.105-3.274H6.494V-5.893C6.494-6.397 6.511-6.951 6.544-7.555H5.487C5.52-6.951 5.538-6.397 5.538-5.893V-3.274H3.574C3.003-3.274 2.332-3.291 1.561-3.324V-2.367C2.298-2.401 2.902-2.418 3.373-2.418H5.538V.302H3.272C3.172 .033 2.886-.588 2.416-1.561 2.316-1.461 2.014-1.31 1.51-1.108 1.845-.604 2.147-.034 2.416 .604 2.685 1.242 2.92 2.048 3.121 3.022 3.389 2.854 3.776 2.702 4.279 2.569 4.111 2.434 3.876 1.964 3.574 1.158" fill="#ffffff"/>
<path transform="matrix(1,0,0,-1,166.8203,262.3274)" d="M0 0V-.907C-.336-.874-.89-.856-1.661-.856-1.661-1.73-1.645-2.418-1.611-2.921H-2.618V-2.418H-5.336V-3.375C-5.37-3.777-5.512-4.046-5.764-4.18-6.016-4.314-6.511-4.432-7.249-4.533-7.317-4.197-7.484-3.828-7.753-3.425-7.148-3.425-6.746-3.408-6.544-3.375-6.343-3.341-6.242-3.241-6.242-3.072V-2.418H-9.061C-9.431-2.418-9.867-2.435-10.37-2.468V-1.561C-9.867-1.595-9.431-1.612-9.061-1.612H-6.242V-.856H-10.018C-10.454-.856-10.874-.874-11.276-.907V0C-10.874-.034-10.454-.05-10.018-.05H-6.242V.655H-9.162C-9.532 .655-9.935 .637-10.37 .604V1.511C-9.935 1.477-9.532 1.461-9.162 1.461H-6.242V2.115H-9.766C-9.733 2.619-9.716 3.072-9.716 3.475-9.716 3.911-9.733 4.332-9.766 4.734H-6.242V5.44H-9.817C-10.354 5.44-10.857 5.422-11.327 5.389V6.296C-10.857 6.262-10.37 6.245-9.867 6.245H-6.242C-6.242 6.48-6.26 6.782-6.293 7.152H-5.286C-5.32 6.883-5.336 6.581-5.336 6.245H-1.913C-1.343 6.245-.755 6.262-.151 6.296V5.389C-.755 5.422-1.343 5.44-1.913 5.44H-5.336V4.734H-1.712C-1.745 4.332-1.762 3.911-1.762 3.475-1.762 3.039-1.745 2.585-1.712 2.115H-5.336V1.461H-1.611C-1.645 1.125-1.661 .621-1.661-.05-1.158-.05-.604-.034 0 0M-6.242 3.929H-8.809V2.922H-6.242ZM-2.719 3.929H-5.337V2.922H-2.719ZM-2.618 .655H-5.337V-.050000013H-2.618ZM-2.618-.856H-5.337V-1.6110001H-2.618ZM-2.618-1.612" fill="#ffffff"/>
<path transform="matrix(1,0,0,-1,169.287,263.6873)" d="M0 0H1.812V-2.015C1.712-2.854 1.292-3.475 .554-3.878L.05-3.425C.655-3.089 .957-2.585 .957-1.914H0Z" fill="#ffffff"/>
<path transform="matrix(1,0,0,-1,171.5428,336.2559)" d="M0 0H1.812V-2.015C1.712-2.854 1.292-3.475 .554-3.878L.05-3.425C.655-3.089 .957-2.585 .957-1.914H0Z" fill="#ffffff"/>
<path transform="matrix(1,0,0,-1,182.6275,264.1406)" d="M0 0C-.235-.403-.503-.856-.805-1.36-1.074-1.158-1.377-.974-1.712-.806-1.276-.336-.805 .436-.302 1.511 0 1.343 .318 1.175 .654 1.007 .453 .738 .234 .403 0 0M2.97 7.001C3.507 7.001 4.111 7.017 4.782 7.051V6.195C4.111 6.228 3.507 6.245 2.97 6.245H.151C-.42 6.245-.974 6.228-1.51 6.195V7.051C-1.007 7.017-.453 7.001 .151 7.001ZM3.876 3.576C3.876 3.139 3.893 2.636 3.927 2.065H2.165V-1.41C2.165-1.914 2.021-2.241 1.737-2.392 1.451-2.543 .939-2.652 .201-2.72 .167-2.283 .033-1.93-.201-1.662 .604-1.695 1.057-1.662 1.158-1.561 1.258-1.461 1.309-1.259 1.309-.957V2.065H-.755C-.722 2.636-.705 3.19-.705 3.727-.705 4.298-.722 4.818-.755 5.288H3.927C3.893 4.616 3.876 4.046 3.876 3.576M3.02 4.533H.20099998V2.821H3.02ZM2.467 7.605C2.131 7.404 1.863 7.219 1.661 7.051 1.359 7.555 .939 8.059 .403 8.562 .738 8.764 .99 8.948 1.158 9.116 1.728 8.512 2.165 8.008 2.467 7.605M4.48-.252C4.211-.386 3.927-.571 3.625-.806 3.389-.201 3.003 .453 2.467 1.158 2.701 1.326 2.953 1.511 3.222 1.712 3.625 1.175 4.044 .52 4.48-.252M6.846 5.288H8.608C8.91 5.288 9.313 5.305 9.817 5.339V4.432C9.414 4.465 9.028 4.483 8.659 4.483H6.846C6.779 3.341 6.67 2.359 6.519 1.536 6.368 .713 6.116-.017 5.764-.655 5.412-1.293 4.866-2.015 4.128-2.82 3.893-2.551 3.591-2.333 3.222-2.166 3.792-1.729 4.254-1.251 4.606-.73 4.959-.21 5.227 .327 5.412 .881 5.596 1.435 5.722 2.006 5.789 2.594 5.856 3.181 5.906 3.811 5.94 4.483 5.47 4.483 4.966 4.465 4.43 4.432V5.339C4.833 5.305 5.336 5.288 5.94 5.288 5.973 6.598 5.973 7.84 5.94 9.016L6.997 8.915C6.897 8.142 6.846 6.933 6.846 5.288M7.853 1.763V-1.108C7.886-1.41 7.987-1.569 8.155-1.587 8.323-1.603 8.508-1.612 8.709-1.612 8.91-1.612 9.044-1.502 9.112-1.284 9.179-1.066 9.229-.705 9.263-.201 9.497-.437 9.833-.604 10.27-.705 10.068-1.477 9.883-1.956 9.716-2.141 9.548-2.325 9.288-2.434 8.936-2.468 8.583-2.501 8.163-2.484 7.677-2.418 7.19-2.35 6.947-1.964 6.947-1.259V1.511C6.947 2.216 6.93 2.871 6.897 3.475H7.904C7.87 2.904 7.853 2.333 7.853 1.763M9.565 6.195C9.195 6.061 8.893 5.893 8.659 5.691 8.457 6.127 8.055 6.766 7.451 7.605 7.685 7.739 7.954 7.908 8.256 8.109 8.927 7.135 9.364 6.497 9.565 6.195" fill="#ffffff"/>
<path transform="matrix(1,0,0,-1,203.5193,261.0179)" d="M0 0C.57 0 1.208 .017 1.913 .05V-.856C1.208-.823 .57-.806 0-.806H-3.222V-2.065C-1.242-2.065 .05-2.048 .654-2.015V-2.921C.05-2.888-1.242-2.871-3.222-2.871V-4.382C-2.585-4.483-1.796-4.533-.856-4.533 .083-4.533 1.124-4.466 2.265-4.332 1.996-4.701 1.829-5.104 1.762-5.54H-.805C-1.544-5.54-2.232-5.498-2.87-5.414-3.507-5.33-4.137-5.17-4.757-4.936-5.379-4.701-6.041-4.281-6.746-3.677-6.88-3.946-7.073-4.256-7.325-4.608-7.576-4.961-7.954-5.389-8.458-5.893-8.793-5.624-9.129-5.389-9.464-5.188-8.793-4.785-8.24-4.198-7.803-3.425-7.367-2.653-7.116-1.931-7.048-1.259L-5.84-1.612C-5.94-1.746-6.109-2.133-6.343-2.77-5.739-3.408-5.018-3.862-4.178-4.13V-.806H-7.4C-8.004-.806-8.642-.823-9.313-.856V.05C-8.608 .017-7.971 0-7.4 0ZM-.05 3.375C-.05 2.501-.034 1.679 0 .907H-7.501C-7.468 1.679-7.451 2.501-7.451 3.375-7.451 4.281-7.468 4.986-7.501 5.49H0C-.034 4.986-.05 4.281-.05 3.375M-1.057 4.684H-6.4440004V3.677H-1.057ZM-1.057 2.82H-6.4440004V1.762H-1.057ZM-1.057 1.763" fill="#ffffff"/>
<path transform="matrix(1,0,0,-1,209.1072,257.6433)" d="M0 0V-2.015H2.97V.957C2.97 1.427 2.953 1.897 2.92 2.367H3.977C3.943 1.964 3.927 1.494 3.927 .957V-2.015H6.947V-.151C6.947 .386 6.93 .822 6.897 1.158H7.954C7.92 .822 7.904 .369 7.904-.201V-1.561C7.904-2.099 7.92-2.536 7.954-2.871H3.927V-7.505H7.4V-5.389C7.4-4.886 7.383-4.45 7.35-4.08H8.407C8.373-4.45 8.357-4.869 8.357-5.339V-7.605C8.357-8.277 8.373-8.831 8.407-9.267H7.4V-8.361H-1.561C-1.528-7.958-1.51-7.471-1.51-6.9V-5.389C-1.51-4.819-1.528-4.365-1.561-4.029H-.503C-.537-4.365-.554-4.819-.554-5.389V-7.505H2.97V-2.871H-1.007C-.974-2.536-.956-2.115-.956-1.612V-.05C-.956 .386-.974 .806-1.007 1.209H.05C.016 .772 0 .369 0 0" fill="#ffffff"/>
<path transform="matrix(1,0,0,-1,224.9143,260.7157)" d="M0 0H-3.524C-4.196 0-4.782-.017-5.286-.05V.957C-4.782 .923-4.196 .907-3.524 .907H0V4.08H-2.467C-3.071 4.08-3.591 4.062-4.027 4.029V5.037C-3.591 5.003-3.071 4.986-2.467 4.986H3.272C3.843 4.986 4.413 5.003 4.984 5.037V4.029C4.413 4.062 3.843 4.08 3.272 4.08H1.057V.907H4.329C5.067 .907 5.739 .923 6.343 .957V-.05C5.806-.017 5.135 0 4.329 0H1.057V-4.634C1.057-5.238 .856-5.599 .453-5.717 .05-5.834-.537-5.909-1.309-5.943-1.343-5.506-1.477-5.053-1.712-4.583-1.175-4.651-.755-4.676-.453-4.659-.151-4.642 0-4.5 0-4.231Z" fill="#ffffff"/>
<path transform="matrix(1,0,0,-1,240.3691,256.6864)" d="M0 0H1.158C1.795 0 2.433 .017 3.071 .05V-.755C2.433-.722 1.795-.705 1.158-.705H-1.561V-1.662H.403C.939-1.662 1.527-1.646 2.165-1.612V-2.418C1.527-2.384 .939-2.367 .403-2.367H-1.561V-3.324H1.158C1.728-3.324 2.316-3.308 2.92-3.274V-4.08C2.316-4.047 1.728-4.029 1.158-4.029H.604C.806-4.198 1.074-4.365 1.41-4.533 1.074-4.802 .872-5.054 .806-5.288H2.064C2.6-5.288 3.154-5.272 3.725-5.238V-6.094C3.188-6.027 2.634-5.994 2.064-5.994H-6.041C-6.645-5.994-7.216-6.027-7.753-6.094V-5.238C-7.182-5.272-6.612-5.288-6.041-5.288H-4.934C-5.169-5.054-5.354-4.835-5.487-4.634-5.185-4.466-4.917-4.331-4.682-4.231-4.413-4.567-4.178-4.919-3.977-5.288H-2.517V-4.029H-5.034C-5.84-4.029-6.478-4.047-6.947-4.08V-3.274C-6.478-3.308-5.857-3.324-5.084-3.324H-2.517V-2.367H-4.581C-5.185-2.367-5.706-2.384-6.142-2.418V-1.612C-5.739-1.646-5.219-1.662-4.581-1.662H-2.517V-.705H-5.286C-5.924-.705-6.562-.722-7.199-.755V.05C-6.562 .017-5.924 0-5.286 0H-4.128C-4.363 .47-4.631 .856-4.934 1.158-4.699 1.326-4.447 1.494-4.178 1.662-3.776 1.259-3.44 .873-3.172 .504-3.44 .369-3.709 .201-3.977 0H-.956C-.554 .806-.336 1.376-.302 1.712L.856 1.209C.587 1.007 .302 .604 0 0M2.165-10.124H1.158V-9.519H-5.135V-10.124H-6.142V-6.9H2.165ZM1.158-7.605H-5.135V-8.7630009H1.158ZM-.151-5.288C.05-4.886 .201-4.466 .302-4.029H-1.561V-5.288Z" fill="#ffffff"/>
<path transform="matrix(1,0,0,-1,246.4606,266.7093)" d="M0 0C-.403 .168-.739 .286-1.007 .353-.604 .89-.269 1.628 0 2.569 .302 2.434 .621 2.333 .956 2.266 .654 1.628 .335 .874 0 0M1.561 9.67C.956 9.67 .318 9.653-.352 9.62V10.476C.352 10.442 .989 10.426 1.561 10.426H4.581C4.547 10.694 4.43 11.047 4.229 11.483 4.597 11.517 4.984 11.584 5.387 11.685 5.52 11.081 5.621 10.66 5.688 10.426H8.004C8.675 10.426 9.263 10.442 9.766 10.476V9.62C9.195 9.653 8.608 9.67 8.004 9.67H2.97C3.205 9.334 3.406 9.016 3.574 8.713L2.87 8.411H6.041C6.175 8.579 6.326 8.965 6.494 9.57 6.897 9.469 7.266 9.368 7.602 9.267 7.366 8.965 7.181 8.68 7.048 8.411H8.558C9.296 8.411 9.984 8.428 10.622 8.462V7.605C9.984 7.638 9.296 7.656 8.558 7.656H1.007C.302 7.656-.352 7.638-.956 7.605V8.462C-.319 8.428 .335 8.411 1.007 8.411H2.668C2.567 8.68 2.399 8.965 2.165 9.267 2.366 9.368 2.6 9.502 2.87 9.67ZM8.76 5.087C8.76 4.516 8.776 3.895 8.81 3.223H.805C.838 3.895 .856 4.533 .856 5.137 .856 5.742 .838 6.346 .805 6.951H8.81C8.776 6.312 8.76 5.691 8.76 5.087M7.752 6.245H1.862V5.439H7.752ZM7.752 4.684H1.862V3.979H7.752ZM3.02 1.662C3.02 1.461 3.028 1.276 3.046 1.108 3.062 .94 3.222 .856 3.524 .856H6.494C6.695 .924 6.863 1.31 6.997 2.015 7.266 1.779 7.635 1.594 8.105 1.461 7.87 .823 7.669 .437 7.501 .302 7.332 .168 7.048 .101 6.645 .101H2.97C2.399 .135 2.097 .277 2.064 .529 2.03 .781 2.014 1.075 2.014 1.41 2.014 1.746 1.98 2.132 1.913 2.569H3.071C3.037 2.199 3.02 1.897 3.02 1.662M5.991 1.813C5.688 1.612 5.387 1.427 5.084 1.259 4.984 1.561 4.698 1.981 4.229 2.518 4.43 2.686 4.715 2.871 5.084 3.072 5.453 2.569 5.755 2.148 5.991 1.813M10.723 .957C10.421 .722 10.152 .521 9.917 .353 9.682 .722 9.195 1.36 8.457 2.266 8.659 2.434 8.927 2.619 9.263 2.82 9.9 1.981 10.387 1.36 10.723 .957" fill="#ffffff"/>
<path transform="matrix(1,0,0,-1,259.4991,263.6873)" d="M0 0H1.812V-2.015C1.711-2.854 1.291-3.475 .554-3.878L.05-3.425C.654-3.089 .956-2.585 .956-1.914H0Z" fill="#ffffff"/>
<path transform="matrix(1,0,0,-1,276.4639,257.0893)" d="M0 0H5.034C5-.773 4.984-1.478 4.984-2.115V-7.756C4.984-8.361 5-8.965 5.034-9.57H4.027V-8.361H-2.718V-9.57H-3.725C-3.692-8.931-3.675-8.344-3.675-7.807V-2.065C-3.675-1.461-3.692-.773-3.725 0H-.956C-.823 .907-.739 1.578-.705 2.015-.302 1.88 .134 1.779 .604 1.712 .403 1.41 .201 .839 0 0M4.027-.856H-2.7189999V-2.518H4.027ZM4.027-3.324H-2.7189999V-4.936H4.027ZM4.027-5.742H-2.7189999V-7.5550005H4.027ZM4.027-7.555" fill="#ffffff"/>
<path transform="matrix(1,0,0,-1,294.0834,255.93091)" d="M0 0C-.034-.638-.05-1.259-.05-1.864V-3.878C-.05-4.45-.034-5.087 0-5.792H-1.158V-4.886H-7.652V-8.764C-7.719-9.368-7.384-9.637-6.645-9.57-4.732-9.703-2.819-9.703-.906-9.57-.571-9.603-.311-9.444-.126-9.091 .058-8.739 .168-8.243 .201-7.605 .705-7.874 1.141-8.059 1.51-8.159 1.241-9.167 .939-9.813 .604-10.098 .268-10.383-.135-10.527-.604-10.527-2.887-10.627-5.169-10.627-7.451-10.527-8.29-10.56-8.709-10.207-8.709-9.469V-5.893C-8.709-5.255-8.726-4.601-8.759-3.929H-1.158V-.957H-6.746C-7.417-.957-8.155-.974-8.961-1.007V.05C-8.155 .017-7.434 0-6.796 0Z" fill="#ffffff"/>
<path transform="matrix(1,0,0,-1,306.6186,261.0179)" d="M0 0C.57 0 1.208 .017 1.913 .05V-.856C1.208-.823 .57-.806 0-.806H-3.222V-2.065C-1.242-2.065 .05-2.048 .654-2.015V-2.921C.05-2.888-1.242-2.871-3.222-2.871V-4.382C-2.585-4.483-1.796-4.533-.856-4.533 .083-4.533 1.124-4.466 2.265-4.332 1.996-4.701 1.829-5.104 1.762-5.54H-.806C-1.544-5.54-2.232-5.498-2.87-5.414-3.508-5.33-4.137-5.17-4.757-4.936-5.379-4.701-6.041-4.281-6.746-3.677-6.88-3.946-7.073-4.256-7.325-4.608-7.576-4.961-7.954-5.389-8.457-5.893-8.793-5.624-9.129-5.389-9.464-5.188-8.793-4.785-8.24-4.198-7.803-3.425-7.367-2.653-7.116-1.931-7.048-1.259L-5.84-1.612C-5.94-1.746-6.109-2.133-6.343-2.77-5.739-3.408-5.018-3.862-4.178-4.13V-.806H-7.4C-8.004-.806-8.642-.823-9.313-.856V.05C-8.608 .017-7.971 0-7.4 0ZM-.05 3.375C-.05 2.501-.034 1.679 0 .907H-7.501C-7.468 1.679-7.451 2.501-7.451 3.375-7.451 4.281-7.468 4.986-7.501 5.49H0C-.034 4.986-.05 4.281-.05 3.375M-1.057 4.684H-6.4440004V3.677H-1.057ZM-1.057 2.82H-6.4440004V1.762H-1.057ZM-1.057 1.763" fill="#ffffff"/>
<path transform="matrix(1,0,0,-1,312.9112,256.6612)" d="M0 0C-.101-.453-.201-.899-.302-1.335H2.215C2.047-2.342 1.863-3.249 1.661-4.055 1.46-4.86 1.141-5.7 .705-6.573 1.241-7.043 1.863-7.614 2.567-8.285 2.265-8.521 1.996-8.772 1.762-9.041 1.259-8.403 .738-7.849 .201-7.379-.235-7.916-.672-8.395-1.107-8.814-1.544-9.234-1.997-9.628-2.467-9.998-2.601-9.762-2.853-9.511-3.222-9.242-2.718-8.94-2.24-8.596-1.787-8.21-1.334-7.824-.906-7.346-.503-6.774-1.107-6.304-1.762-5.851-2.467-5.414-2.031-4.407-1.679-3.316-1.409-2.141-1.947-2.141-2.416-2.158-2.819-2.191V-1.284C-2.416-1.318-1.88-1.335-1.208-1.335-1.007-.529-.839 .428-.705 1.536-.37 1.435 .017 1.335 .453 1.234 .252 .864 .101 .453 0 0M-.05-5.968C.184-5.565 .403-5.029 .604-4.357 .806-3.685 .973-2.946 1.108-2.141H-.453C-.755-3.249-1.057-4.223-1.359-5.062-.856-5.398-.42-5.7-.05-5.968M8.256 .327V-.579C7.92-.848 7.551-1.142 7.149-1.461 6.746-1.78 6.326-2.124 5.89-2.493V-4.055H7.249C7.685-4.055 8.172-4.038 8.709-4.004V-4.961C8.172-4.928 7.685-4.911 7.249-4.911H5.89V-8.537C5.89-9.175 5.697-9.577 5.311-9.746 4.925-9.913 4.396-10.048 3.725-10.149 3.625-9.779 3.474-9.393 3.272-8.99 4.01-8.99 4.472-8.948 4.657-8.864 4.841-8.781 4.934-8.537 4.934-8.134V-4.911H4.178C3.474-4.911 2.785-4.928 2.114-4.961V-4.004C2.785-4.038 3.423-4.055 4.027-4.055H4.934C4.934-3.551 4.925-3.157 4.908-2.871 4.891-2.586 4.849-2.359 4.782-2.191 5.085-1.989 5.437-1.73 5.84-1.41 6.242-1.092 6.595-.781 6.897-.478H3.876C3.541-.478 3.087-.496 2.517-.529V.378C3.087 .344 3.541 .327 3.876 .327Z" fill="#ffffff"/>
<path transform="matrix(1,0,0,-1,325.9498,263.5362)" d="M0 0C.738 .94 1.25 1.905 1.535 2.896 1.82 3.886 1.98 4.81 2.014 5.666 2.047 6.522 2.03 7.42 1.963 8.361 2.332 8.327 2.752 8.293 3.222 8.26 3.121 7.723 3.071 7.169 3.071 6.598 3.071 6.027 3.104 5.372 3.172 4.634 3.238 3.895 3.717 2.778 4.606 1.284 5.495-.21 6.796-1.327 8.508-2.065 8.105-2.468 7.836-2.803 7.702-3.072 5.353-1.931 3.675 .134 2.668 3.123 1.996 .47 .369-1.646-2.215-3.223-2.417-2.954-2.702-2.669-3.071-2.367-1.762-1.73-.739-.94 0 0" fill="#ffffff"/>
</g>
<path transform="matrix(1,0,0,-1,0,595.276)" d="M170.834 362.334H245.474V342.45603H170.834Z" fill="#f43040"/>
<g clip-path="url(#clip_8)">
<path transform="matrix(1,0,0,-1,182.3411,242.50672)" d="M0 0C-.186-.945-.445-2.085-.778-3.42-1.223-3.272-1.667-3.161-2.112-3.086-1.594-1.604-1.205 .102-.945 2.03-.611 1.955-.148 1.863 .445 1.752 .333 1.529 .185 .945 0 0M3.113 .528V-4.254C3.113-4.699 3.335-4.922 3.78-4.922H6.392C6.8-4.959 7.068-4.857 7.198-4.616 7.328-4.375 7.429-3.829 7.504-2.975 7.874-3.272 8.3-3.476 8.782-3.587 8.523-4.774 8.263-5.487 8.004-5.728 7.745-5.969 7.429-6.07 7.059-6.034H3.002C2.335-6.034 1.964-5.626 1.89-4.811V.473C1.89 1.214 1.871 1.899 1.834 2.53H3.168C3.131 2.086 3.113 1.418 3.113 .528M5.892 3.643C5.447 3.42 5.039 3.179 4.669 2.92 4.076 4.143 3.502 5.144 2.946 5.923 3.28 6.108 3.613 6.33 3.947 6.59 4.354 5.885 5.003 4.903 5.892 3.643M10.895-1.307C10.487-1.493 10.097-1.752 9.727-2.085 8.949-.603 8.189 .62 7.448 1.585 7.782 1.77 8.115 1.992 8.449 2.252 9.301 1.065 10.117-.121 10.895-1.307" fill="#ffffff"/>
<path transform="matrix(1,0,0,-1,197.2678,237.41822)" d="M0 0C2.001 0 3.391 .018 4.169 .056V-.945C3.353-.909 2.612-.89 1.945-.89 1.945-1.223 1.926-1.65 1.89-2.169 3.076-2.169 3.947-2.151 4.502-2.113V-3.114C3.947-3.078 3.02-3.059 1.723-3.059L1.612-3.448C2.76-3.893 3.669-4.282 4.336-4.616 4.039-5.024 3.816-5.358 3.669-5.617 2.853-5.024 2.019-4.579 1.167-4.282 .537-5.098-.297-5.803-1.334-6.395-1.556-6.099-1.834-5.821-2.168-5.561-1.538-5.302-.954-4.931-.417-4.449 .12-3.968 .463-3.504 .611-3.059-.76-3.059-1.742-3.078-2.335-3.114V-2.113C-1.742-2.151-.686-2.169 .834-2.169 .908-1.687 .926-1.261 .889-.89H-.389C-.612-1.298-.871-1.687-1.167-2.058-1.576-1.835-1.89-1.65-2.112-1.502-1.816-1.168-1.473-.687-1.084-.056-.695 .574-.445 1.093-.334 1.502-.037 1.353 .352 1.204 .834 1.057 .574 .797 .296 .445 0 0M7.893-8.731C7.893-9.955 7.911-10.881 7.949-11.512H6.781V-10.844H.945V-11.512H-.222C-.186-10.918-.167-10.01-.167-8.787-.167-7.527-.186-6.581-.222-5.951H7.949C7.911-6.581 7.893-7.508 7.893-8.731M6.781-6.729H.9450002V-7.952H6.781ZM6.781-8.787H.9450002V-9.955H6.781ZM5.003-4.838C5.039-4.246 5.058-3.448 5.058-2.447 5.058-1.409 5.039-.594 5.003 0H9.394C9.357-.445 9.338-1.223 9.338-2.336 9.338-3.448 9.357-4.282 9.394-4.838ZM8.227-.89H6.1150004V-3.949H8.227ZM8.227-3.948" fill="#ffffff"/>
<path transform="matrix(1,0,0,-1,213.9174,238.08551)" d="M0 0C.704 0 1.334 .018 1.89 .056V-.89C1.334-.853 .741-.834 .111-.834H-.722C-.76-1.946-.797-2.669-.834-3.003H.389C.389-2.669 .37-2.244 .334-1.724H1.39C1.353-2.169 1.334-2.633 1.334-3.114 1.334-3.559 1.353-4.079 1.39-4.671H.389V-3.893H-.945C-1.093-4.486-1.409-5.024-1.89-5.506-2.372-5.988-2.983-6.433-3.724-6.84-3.984-6.581-4.317-6.322-4.725-6.062-4.132-5.877-3.595-5.608-3.113-5.255-2.632-4.904-2.298-4.449-2.112-3.893H-4.335C-4.299-3.523-4.28-3.152-4.28-2.781-4.28-2.41-4.299-2.021-4.335-1.613H-3.168C-3.206-1.946-3.224-2.41-3.224-3.003H-1.89C-1.816-2.262-1.779-1.539-1.779-.834H-3.224C-3.854-.834-4.466-.853-5.058-.89V.056C-4.466 .018-3.854 0-3.224 0H-1.056C-.575 .852-.278 1.557-.167 2.113 .278 1.891 .723 1.724 1.167 1.613 .796 1.242 .408 .704 0 0M.834-7.23C.834-7.007 .815-6.655 .779-6.173H2.001C1.964-6.655 1.945-7.007 1.945-7.23H4.391C5.021-7.23 5.614-7.211 6.17-7.174V-8.175C5.614-8.139 5.021-8.119 4.391-8.119H1.945V-9.732H5.948C6.689-9.732 7.3-9.713 7.782-9.677V-10.678C7.337-10.64 6.744-10.622 6.004-10.622H-3.168C-3.946-10.622-4.577-10.64-5.058-10.678V-9.677C-4.577-9.713-3.946-9.732-3.168-9.732H.834V-8.119H-1.501C-2.242-8.119-2.946-8.139-3.613-8.175V-7.174C-2.946-7.211-2.242-7.23-1.501-7.23ZM-2.057 .779C-2.354 .593-2.65 .37-2.946 .111-3.428 .779-3.78 1.224-4.002 1.446-3.743 1.668-3.465 1.891-3.168 2.113-2.946 1.853-2.576 1.409-2.057 .779M7.282-4.671C7.282-5.191 7.096-5.543 6.726-5.728 6.355-5.914 5.873-6.025 5.281-6.062 5.243-5.654 5.095-5.265 4.836-4.894 5.725-4.969 6.17-4.838 6.17-4.505V-3.726H3.613C3.391-4.579 3.094-5.339 2.724-6.006 2.353-5.747 1.945-5.58 1.501-5.506 2.131-4.653 2.502-3.875 2.613-3.17 2.724-2.466 2.78-1.668 2.78-.779 2.78 .148 2.76 .852 2.724 1.335H7.282ZM6.225-2.781V-1.668H3.78C3.78-2.077 3.761-2.447 3.724-2.781ZM6.225 .445H3.78V-.723H6.225ZM6.225-.723" fill="#ffffff"/>
<path transform="matrix(1,0,0,-1,225.2312,246.20499)" d="M0 0V4.393C-.704 4.393-1.371 4.374-2.001 4.338V5.339C-1.26 5.301-.222 5.283 1.112 5.283 1.074 4.578 1.056 4.022 1.056 3.615V.111C1.537-.408 2.186-.779 3.001-1.001 3.816-1.223 4.91-1.354 6.281-1.39 7.652-1.427 9.227-1.39 11.006-1.279 10.709-1.649 10.542-2.076 10.506-2.558 6.948-2.483 4.836-2.391 4.169-2.28 3.502-2.169 2.946-2.03 2.501-1.863 2.057-1.696 1.602-1.455 1.14-1.14 .676-.826 .203-.881-.278-1.307-.76-1.733-1.149-2.15-1.445-2.558-1.705-2.224-2.001-1.909-2.335-1.613-1.223-.76-.445-.222 0 0M.222 6.896C-.297 7.675-.816 8.416-1.334 9.12-1.038 9.343-.76 9.565-.5 9.788 .389 8.601 .945 7.841 1.167 7.508 .87 7.285 .556 7.081 .222 6.896M3.78 8.398H5.67C5.67 9.287 5.65 9.899 5.614 10.233H6.726C6.688 9.862 6.67 9.25 6.67 8.398 8.004 8.398 9.023 8.416 9.727 8.453V7.508C9.06 7.544 8.041 7.563 6.67 7.563V5.728C8.634 5.728 9.968 5.746 10.672 5.784V4.783C9.968 4.819 8.43 4.838 6.059 4.838 3.724 4.838 2.223 4.819 1.556 4.783V5.784C2.223 5.746 3.594 5.728 5.67 5.728V7.563H3.502C3.28 7.155 3.075 6.729 2.89 6.284 2.557 6.432 2.223 6.562 1.89 6.674 2.334 7.489 2.705 8.527 3.001 9.788 3.372 9.713 3.78 9.621 4.224 9.51 4.002 9.101 3.854 8.731 3.78 8.398M9.449 1.613C9.449 .908 9.468 .203 9.505-.501H8.338V.278H3.946V-.445H2.835C2.871 .259 2.89 .964 2.89 1.668 2.89 2.372 2.871 3.077 2.835 3.782H9.505C9.468 3.04 9.449 2.317 9.449 1.613M8.338 2.892H3.9470006V1.112H8.338ZM8.338 1.112" fill="#ffffff"/>
</g>
<path transform="matrix(1,0,0,-1,212.7993,297.7446)" d="M0 0H-2.685-5.37L-2.685-5.372ZM-1.79 17.789H-3.58V-1.3430004H-1.79Z" fill="#ffffff"/>
</g>
</g>
</svg>
