<svg xmlns="http://www.w3.org/2000/svg" xmlns:xlink="http://www.w3.org/1999/xlink" xmlns:inkscape="http://www.inkscape.org/namespaces/inkscape" version="1.1" width="411.024" height="595.276" viewBox="0 0 411.024 595.276">
<defs>
<clipPath id="clip_1">
<path transform="matrix(1,0,0,-1,0,595.276)" d="M0 0H411.024V595.276H0Z"/>
</clipPath>
<clipPath id="clip_2">
<path transform="matrix(1,0,0,-1,0,595.276)" d="M0 0H411.024V595.276H0Z"/>
</clipPath>
<path id="font_3_2" d="M.45599366 .19004822V.5218506C.45599366 .6397705 .37199403 .71777346 .26098634 .71777346 .1499939 .71777346 .06599426 .6397705 .06599426 .5218506V.19004822C.06599426 .072128299 .1499939-.005859375 .26098634-.005859375 .37199403-.005859375 .45599366 .072128299 .45599366 .19004822M.38398744 .19404602C.38398744 .116104129 .33999635 .058135988 .26098634 .058135988 .18199158 .058135988 .13798523 .116104129 .13798523 .19404602V.5178528C.13798523 .5957947 .18199158 .6537628 .26098634 .6537628 .33999635 .6537628 .38398744 .5957947 .38398744 .5178528V.19404602Z"/>
<path id="font_3_6" d="M.48199464 .11273193V.17773438H.394989V.37979127H.32398988V.17773438H.116989139L.37399293 .71191409H.29699708L.039993287 .17773438V.11273193H.32398988V0H.394989V.11273193H.48199464Z"/>
<path id="font_3_10" d="M.47099305 .19602967C.47099305 .27897645 .4249878 .33493043 .36499024 .368927 .42099 .40092469 .45700074 .45289613 .45700074 .52685549 .45700074 .6377716 .37399293 .71777346 .26098634 .71777346 .147995 .71777346 .06498718 .6377716 .06498718 .52685549 .06498718 .45289613 .101989749 .40092469 .1579895 .368927 .09799194 .33493043 .050994874 .27897645 .050994874 .19602967 .050994874 .0761261 .14299011-.005859375 .26098634-.005859375 .3789978-.005859375 .47099305 .0761261 .47099305 .19602967M.39898683 .19703675C.39898683 .11808777 .33898927 .058135988 .26098634 .058135988 .18299866 .058135988 .12298584 .11808777 .12298584 .19703675 .12298584 .27597047 .18299866 .3359375 .26098634 .3359375 .33898927 .3359375 .39898683 .27597047 .39898683 .19703675M.3849945 .5258484C.3849945 .45089723 .33399964 .39892579 .26098634 .39892579 .18798828 .39892579 .13699341 .45089723 .13699341 .5258484 .13699341 .59980776 .18798828 .6537628 .26098634 .6537628 .33399964 .6537628 .3849945 .59980776 .3849945 .5258484Z"/>
<clipPath id="clip_4">
<path transform="matrix(1,0,0,-1,0,595.276)" d="M0 0H411.024V595.276H0Z"/>
</clipPath>
<clipPath id="clip_5">
<path transform="matrix(1,0,0,-1,0,595.276)" d="M0 0H411.024V595.276H0Z"/>
</clipPath>
</defs>
<g clip-path="url(#clip_1)">
<g clip-path="url(#clip_2)">
<use data-text="0" xlink:href="#font_3_2" transform="matrix(9,0,0,-9,35.4331,567.547)" fill="#f43040"/>
<use data-text="4" xlink:href="#font_3_6" transform="matrix(9,0,0,-9,39.0331,567.547)" fill="#f43040"/>
<use data-text="8" xlink:href="#font_3_10" transform="matrix(9,0,0,-9,42.6331,567.547)" fill="#f43040"/>
<path transform="matrix(1,0,0,-1,199.0872,391.1261)" stroke-width="1.2" stroke-linecap="round" stroke-linejoin="round" fill="none" stroke="#2c292a" d="M0 0V213.739"/>
<g clip-path="url(#clip_4)">
<path transform="matrix(1,0,0,-1,130.2439,210.24082)" d="M0 0C.321-.193 .61-.37 .868-.531 .675-.724 .482-.997 .289-1.351 .032-1.158-.225-.973-.482-.796-.74-.62-1.061-.434-1.446-.241-1.19 .048-.997 .305-.868 .531-.611 .369-.322 .193 0 0M.988-3.425C.844-3.714 .603-4.205 .265-4.896-.072-5.588-.322-6.142-.482-6.56-.771-6.271-1.093-6.014-1.446-5.789-1.19-5.532-.973-5.258-.796-4.969-.619-4.679-.362-4.205-.024-3.546 .313-2.887 .546-2.38 .675-2.026 .899-2.219 1.157-2.412 1.446-2.605 1.285-2.863 1.133-3.135 .988-3.425M.53 2.894C.851 2.669 1.189 2.428 1.543 2.171 1.254 2.009 1.012 1.752 .82 1.399 .562 1.656 .289 1.881 0 2.074-.289 2.267-.595 2.46-.916 2.653-.659 3.007-.451 3.28-.289 3.473-.065 3.312 .209 3.119 .53 2.894M3.375-.338C2.861-.338 2.298-.354 1.688-.386V.482C2.298 .45 2.845 .434 3.327 .434H8.341C8.823 .434 9.305 .45 9.787 .482V-.386C9.305-.354 8.823-.338 8.341-.338H7.28V-1.544H9.595C9.562-1.994 9.547-2.46 9.547-2.943V-6.174C9.547-6.496 9.442-6.745 9.233-6.922 9.024-7.099 8.517-7.252 7.714-7.38 7.618-7.091 7.441-6.753 7.184-6.367 7.955-6.335 8.389-6.271 8.486-6.174 8.582-6.078 8.63-5.966 8.63-5.837V-2.315H7.232C7.2-2.67 7.152-3.056 7.087-3.473 7.73-4.052 8.18-4.486 8.437-4.776 8.245-4.937 8.019-5.146 7.762-5.403 7.505-5.017 7.2-4.648 6.846-4.293 6.492-5.097 6.171-5.709 5.882-6.126 5.689-5.902 5.416-5.709 5.063-5.547 5.448-5.13 5.745-4.672 5.954-4.173 6.163-3.674 6.3-3.056 6.364-2.315H5.063C5.03-2.508 4.982-2.75 4.918-3.039 5.4-3.393 5.738-3.683 5.93-3.907 5.802-4.133 5.657-4.374 5.496-4.631 5.239-4.341 4.982-4.069 4.725-3.811 4.629-4.069 4.516-4.35 4.388-4.655 4.259-4.961 4.082-5.29 3.857-5.644 3.632-5.451 3.343-5.29 2.989-5.161 3.343-4.679 3.624-4.197 3.833-3.714 4.042-3.232 4.162-2.766 4.195-2.315H2.845V-7.284H1.88C1.912-6.673 1.929-6.11 1.929-5.596V-3.135C1.929-2.653 1.912-2.122 1.88-1.544H4.243V-.338ZM3.905 2.653V2.991C3.905 3.28 3.889 3.585 3.857 3.907H4.821C4.789 3.618 4.773 3.328 4.773 3.039V2.653H6.654V2.943C6.654 3.264 6.637 3.585 6.605 3.907H7.618C7.585 3.618 7.57 3.296 7.57 2.943V2.653H8.148C8.63 2.653 9.161 2.669 9.739 2.701V1.833C9.161 1.865 8.614 1.881 8.1 1.881H7.57C7.57 1.688 7.585 1.351 7.618 .868H6.654V1.881H4.773V.868H3.857C3.889 1.318 3.905 1.656 3.905 1.881H3.327C3.038 1.881 2.523 1.865 1.784 1.833V2.701C2.523 2.669 3.038 2.653 3.327 2.653ZM5.063-1.544H6.413V-.33800007H5.063ZM5.063-.338" fill="#2c292a"/>
<path transform="matrix(1,0,0,-1,144.1074,214.2446)" d="M0 0C.739-.901 1.543-1.464 2.411-1.688V3.618H-.771C-.74 4.228-.723 4.904-.723 5.644-.723 6.383-.74 7.026-.771 7.573H6.557C6.525 7.026 6.509 6.383 6.509 5.644 6.509 4.904 6.525 4.228 6.557 3.618H3.375V1.495H5.786C6.235 1.495 6.75 1.511 7.329 1.544V.675C6.782 .707 6.3 .724 5.882 .724H3.375V-1.833C4.018-1.962 4.821-2.018 5.786-2.002 6.75-1.986 7.601-1.93 8.341-1.833 8.212-1.994 8.083-2.364 7.955-2.943 6.83-2.91 5.793-2.886 4.846-2.87 3.897-2.854 3.005-2.733 2.17-2.508 1.333-2.283 .514-1.737-.289-.868-.707-1.898-1.19-2.733-1.736-3.377-1.993-3.055-2.266-2.814-2.555-2.653-2.138-2.267-1.825-1.881-1.615-1.495-1.407-1.109-1.214-.611-1.037 0-.86 .61-.771 1.382-.771 2.315-.289 2.251 .112 2.187 .434 2.122 .273 1.833 .128 1.125 0 0M5.545 6.802H.24100018V4.342H5.545ZM5.545 4.341" fill="#2c292a"/>
<path transform="matrix(1,0,0,-1,156.8136,214.38932)" d="M0 0C.707 .9 1.197 1.825 1.471 2.774 1.743 3.722 1.896 4.607 1.929 5.427 1.96 6.247 1.944 7.107 1.88 8.008 2.234 7.975 2.635 7.943 3.086 7.911 2.989 7.396 2.941 6.866 2.941 6.319 2.941 5.772 2.973 5.145 3.038 4.438 3.102 3.73 3.56 2.661 4.412 1.23 5.263-.201 6.509-1.271 8.148-1.978 7.763-2.364 7.505-2.685 7.377-2.943 5.127-1.85 3.52 .128 2.555 2.991 1.912 .45 .353-1.576-2.121-3.087-2.314-2.829-2.588-2.557-2.941-2.267-1.687-1.657-.707-.901 0 0" fill="#2c292a"/>
<path transform="matrix(1,0,0,-1,166.9645,212.2186)" d="M0 0C-.322 .064-.611 .128-.868 .193-.643 1.029-.466 2.026-.337 3.184-.081 3.151 .209 3.103 .53 3.039 .338 1.688 .161 .675 0 0M1.88 3.907V-3.328C1.88-4.004 1.896-4.679 1.929-5.354H.916C.948-4.679 .964-4.004 .964-3.328V3.907C.964 4.583 .948 5.21 .916 5.789H1.929C1.896 5.145 1.88 4.518 1.88 3.907M3.52 1.64C3.23 1.544 2.973 1.431 2.748 1.302 2.523 2.009 2.282 2.669 2.025 3.28 2.282 3.408 2.523 3.521 2.748 3.618 3.005 3.103 3.262 2.444 3.52 1.64M4.966 3.087H6.461V4.1C6.461 4.647 6.444 5.177 6.413 5.692H7.425C7.393 5.177 7.377 4.647 7.377 4.1V3.087H8.341C8.758 3.087 9.257 3.103 9.836 3.135V2.219C9.257 2.251 8.758 2.267 8.341 2.267H7.377V-.289H8.245C8.727-.289 9.209-.274 9.691-.241V-1.158C9.209-1.126 8.727-1.109 8.245-1.109H7.377V-4.1H8.679C9.225-4.1 9.755-4.084 10.27-4.052V-4.92C9.755-4.888 9.225-4.872 8.679-4.872H4.966C4.388-4.872 3.825-4.888 3.279-4.92V-4.052C3.825-4.084 4.371-4.1 4.918-4.1H6.461V-1.109H5.641C5.223-1.109 4.741-1.126 4.195-1.158V-.241C4.612-.274 5.094-.289 5.641-.289H6.461V2.267H4.773C4.677 1.785 4.419 1.077 4.002 .145 3.648 .338 3.358 .45 3.134 .482 3.584 1.415 3.873 2.219 4.002 2.894 4.13 3.57 4.243 4.213 4.339 4.824 4.66 4.727 4.982 4.647 5.304 4.583 5.142 4.004 5.03 3.505 4.966 3.087" fill="#2c292a"/>
<path transform="matrix(1,0,0,-1,119.2797,173.435)" d="M0 0V-3.342C0-4.172 .021-4.937 .066-5.636H-5.174V-9.568C-3.602-8.912-2.554-8.454-2.03-8.191-2.249-7.842-2.533-7.471-2.882-7.077-2.402-6.772-2.03-6.488-1.768-6.225-1.375-6.794-.939-7.438-.458-8.159 .021-8.879 .458-9.59 .851-10.288 .501-10.464 .087-10.726-.393-11.075-.699-10.419-1.048-9.764-1.441-9.109-2.489-9.633-3.396-10.07-4.159-10.419-4.924-10.77-5.655-11.162-6.353-11.599-6.615-11.162-6.877-10.747-7.139-10.354-6.703-10.092-6.484-9.612-6.484-8.912V0C-6.484 .698-6.507 1.376-6.55 2.031H.066C.021 1.376 0 .698 0 0M-1.31 1.049H-5.175V-1.31H-1.31ZM-1.31-2.294H-5.175V-4.588H-1.31ZM6.812-.917V-7.995C6.812-8.65 6.658-9.099 6.353-9.338 6.047-9.579 5.348-9.808 4.257-10.026 4.169-9.328 3.973-8.804 3.668-8.454 4.628-8.498 5.185-8.476 5.338-8.388 5.491-8.301 5.567-7.929 5.567-7.274V.917H2.62V-12.451H1.31C1.353-11.358 1.375-10.18 1.375-8.912V-.655C1.375 .262 1.353 1.114 1.31 1.9H6.877C6.833 .895 6.812-.044 6.812-.917" fill="#f43040"/>
<path transform="matrix(1,0,0,-1,134.279,177.9567)" d="M0 0C0-2.228 .021-3.976 .065-5.242H-1.31V-3.997H-3.93V-6.16H-5.305C-5.263-4.151-5.24-2.141-5.24-.131-5.24 1.922-5.263 3.866-5.305 5.701H.065C.021 4.128 0 2.228 0 0M-1.31 4.587H-3.9299999V1.507H-1.31ZM-1.31 .393H-3.9299999V-2.8839999H-1.31ZM6.157 7.405H7.598C7.554 6.268 7.532 5.046 7.532 3.735 8.187 3.735 8.885 3.757 9.628 3.801V2.556C8.885 2.599 8.187 2.621 7.532 2.621V-6.16C7.532-6.815 7.27-7.23 6.746-7.405 6.222-7.579 5.545-7.71 4.716-7.798 4.716-7.274 4.475-6.771 3.995-6.291 4.824-6.378 5.404-6.4 5.731-6.357 6.059-6.312 6.222-6.029 6.222-5.505V2.621C4.038 2.621 2.204 2.599 .721 2.556V3.801C2.117 3.757 3.951 3.735 6.222 3.735 6.222 5.046 6.2 6.268 6.157 7.405M4.388-2.097C3.951-2.228 3.493-2.425 3.013-2.687 2.663-1.638 2.161-.655 1.506 .262 1.899 .436 2.314 .633 2.751 .852 3.318-.065 3.864-1.048 4.388-2.097" fill="#f43040"/>
<path transform="matrix(1,0,0,-1,147.0513,175.9252)" d="M0 0C.436-.262 .829-.503 1.179-.721 .917-.983 .655-1.355 .393-1.835 .043-1.573-.306-1.322-.655-1.081-1.005-.842-1.441-.59-1.965-.328-1.616 .066-1.354 .415-1.179 .721-.83 .502-.437 .262 0 0M1.343-4.653C1.146-5.046 .819-5.712 .36-6.651-.098-7.591-.437-8.344-.655-8.912-1.048-8.519-1.485-8.17-1.965-7.864-1.616-7.515-1.321-7.143-1.081-6.75-.841-6.357-.491-5.712-.033-4.817 .426-3.922 .742-3.234 .917-2.752 1.222-3.014 1.572-3.277 1.965-3.539 1.746-3.889 1.539-4.26 1.343-4.653M.721 3.932C1.156 3.626 1.615 3.298 2.096 2.949 1.703 2.73 1.375 2.381 1.113 1.9 .764 2.25 .393 2.556 0 2.818-.393 3.08-.809 3.342-1.245 3.604-.895 4.084-.612 4.456-.393 4.718-.088 4.499 .284 4.237 .721 3.932M4.585-.459C3.886-.459 3.121-.481 2.292-.524V.655C3.121 .611 3.864 .59 4.519 .59H11.331C11.986 .59 12.641 .611 13.296 .655V-.524C12.641-.481 11.986-.459 11.331-.459H9.89V-2.097H13.034C12.99-2.709 12.969-3.342 12.969-3.997V-8.388C12.969-8.824 12.826-9.163 12.543-9.404 12.259-9.643 11.571-9.851 10.48-10.026 10.349-9.633 10.108-9.174 9.759-8.65 10.807-8.606 11.397-8.519 11.528-8.388 11.659-8.257 11.724-8.104 11.724-7.929V-3.146H9.825C9.781-3.627 9.715-4.151 9.628-4.718 10.501-5.505 11.112-6.094 11.462-6.488 11.2-6.707 10.894-6.99 10.545-7.339 10.195-6.815 9.781-6.314 9.301-5.832 8.82-6.925 8.384-7.755 7.991-8.322 7.729-8.017 7.357-7.755 6.877-7.536 7.401-6.969 7.805-6.346 8.089-5.668 8.373-4.992 8.558-4.151 8.646-3.146H6.877C6.833-3.408 6.768-3.735 6.681-4.128 7.336-4.61 7.794-5.003 8.056-5.308 7.881-5.614 7.685-5.942 7.467-6.291 7.117-5.898 6.768-5.527 6.419-5.177 6.288-5.527 6.134-5.909 5.96-6.324 5.785-6.74 5.545-7.187 5.24-7.667 4.934-7.405 4.541-7.187 4.061-7.012 4.541-6.357 4.923-5.701 5.207-5.046 5.491-4.391 5.654-3.758 5.698-3.146H3.864V-9.895H2.554C2.597-9.065 2.62-8.301 2.62-7.602V-4.26C2.62-3.604 2.597-2.883 2.554-2.097H5.764V-.459ZM5.305 3.604V4.063C5.305 4.456 5.283 4.871 5.24 5.308H6.55C6.506 4.915 6.484 4.522 6.484 4.128V3.604H9.039V3.997C9.039 4.434 9.016 4.871 8.973 5.308H10.349C10.305 4.915 10.283 4.478 10.283 3.997V3.604H11.069C11.724 3.604 12.445 3.626 13.231 3.67V2.49C12.445 2.533 11.702 2.556 11.004 2.556H10.283C10.283 2.294 10.305 1.835 10.349 1.18H9.039V2.556H6.484V1.18H5.24C5.283 1.791 5.305 2.25 5.305 2.556H4.519C4.126 2.556 3.427 2.533 2.423 2.49V3.67C3.427 3.626 4.126 3.604 4.519 3.604ZM6.877-2.097H8.7109999V-.45899988H6.877ZM6.877-.459" fill="#f43040"/>
<path transform="matrix(1,0,0,-1,165.7839,181.36429)" d="M0 0C1.004-1.224 2.096-1.988 3.275-2.294V4.915H-1.048C-1.005 5.744-.982 6.662-.982 7.667-.982 8.672-1.005 9.545-1.048 10.288H8.908C8.864 9.545 8.842 8.672 8.842 7.667 8.842 6.662 8.864 5.744 8.908 4.915H4.585V2.031H7.86C8.471 2.031 9.17 2.053 9.956 2.097V.917C9.213 .96 8.558 .983 7.991 .983H4.585V-2.49C5.458-2.665 6.55-2.742 7.86-2.72 9.17-2.698 10.326-2.621 11.331-2.49 11.156-2.709 10.981-3.211 10.807-3.997 9.278-3.953 7.87-3.921 6.583-3.899 5.294-3.877 4.083-3.713 2.948-3.408 1.812-3.102 .698-2.359-.393-1.18-.961-2.578-1.616-3.713-2.358-4.587-2.708-4.15-3.078-3.822-3.471-3.604-2.904-3.08-2.479-2.556-2.194-2.031-1.911-1.507-1.649-.83-1.408 0-1.169 .829-1.048 1.878-1.048 3.145-.393 3.057 .153 2.97 .59 2.883 .371 2.49 .174 1.529 0 0M7.532 9.24H.32700015V5.898H7.532ZM7.532 5.898" fill="#f43040"/>
<path transform="matrix(1,0,0,-1,183.3028,211.41101)" d="M0 0C-.113 3.427 2.701 6.243 6.173 6.243 9.644 6.243 12.459 3.427 12.459-.046 12.459-3.519 9.644-6.335 6.173-6.335 2.701-6.335-.113-3.519 0 0" fill="#ffffff"/>
<path transform="matrix(1,0,0,-1,183.3028,211.41101)" stroke-width="1" stroke-linecap="butt" stroke-miterlimit="10" stroke-linejoin="miter" fill="none" stroke="#2c292a" d="M0 0C-.113 3.427 2.701 6.243 6.173 6.243 9.644 6.243 12.459 3.427 12.459-.046 12.459-3.519 9.644-6.335 6.173-6.335 2.701-6.335-.113-3.519 0 0"/>
<path transform="matrix(1,0,0,-1,183.1897,211.457)" stroke-width="1" stroke-linecap="butt" stroke-miterlimit="8" stroke-linejoin="miter" fill="none" stroke="#2c292a" d="M0 0C0 3.473 2.814 6.289 6.286 6.289 9.757 6.289 12.572 3.473 12.572 0 12.572-3.473 9.757-6.289 6.286-6.289 2.814-6.289 0-3.473 0 0"/>
<path transform="matrix(1,0,0,-1,226.1735,171.79669)" d="M0 0C-1.048-2.272-1.768-3.91-2.161-4.915H.197C-.023-6.094-.229-7.11-.426-7.962-.622-8.814-.874-9.656-1.179-10.485-.524-11.053 .403-11.523 1.605-11.894 2.805-12.266 4.082-12.472 5.436-12.516 6.789-12.56 8.536-12.472 10.676-12.254 10.283-12.735 10.064-13.215 10.021-13.696 8.099-13.739 6.517-13.729 5.273-13.663 4.028-13.598 2.969-13.467 2.096-13.27 1.222-13.073 .501-12.833-.066-12.549-.633-12.266-1.201-11.905-1.768-11.468-2.424-12.385-3.101-13.172-3.799-13.827-4.061-13.521-4.411-13.237-4.847-12.975-4.018-12.277-3.275-11.491-2.62-10.616-3.101-10.049-3.461-9.568-3.701-9.174-3.941-8.781-4.192-8.322-4.454-7.798-4.28-7.711-3.93-7.515-3.406-7.208-3.144-7.733-2.926-8.137-2.751-8.421-2.577-8.705-2.358-9.022-2.096-9.371-1.791-8.585-1.485-7.428-1.179-5.898-2.315-5.898-3.123-5.963-3.602-6.094L-3.93-4.915C-3.537-4.697-3.144-4.151-2.751-3.277-2.358-2.403-2.053-1.661-1.834-1.049-2.882-1.049-3.756-1.071-4.454-1.114V.066C-3.188 .021-2.271 0-1.703 0ZM6.288-.917V-4.325C7.51-4.325 8.471-4.304 9.17-4.26V-5.439C8.471-5.396 7.51-5.374 6.288-5.374V-9.305C7.117-9.305 8.143-9.284 9.366-9.24V-10.485C8.187-10.442 7.248-10.419 6.55-10.419H1.572C1.615-9.328 1.638-8.411 1.638-7.667V-6.16C1.638-5.374 1.615-4.391 1.572-3.211H3.078C2.991-4.391 2.948-5.549 2.948-6.684V-9.305H4.978V-1.114C3.362-1.376 2.183-1.573 1.441-1.704 1.353-1.399 1.179-.983 .917-.459 2.401-.328 3.657-.164 4.683 .033 5.709 .229 6.855 .59 8.122 1.114 8.253 .895 8.667 .415 9.366-.328 8.798-.328 7.772-.524 6.288-.917" fill="#f43040"/>
<path transform="matrix(1,0,0,-1,256.7614,175.9252)" d="M0 0C.436-.262 .829-.503 1.179-.721 .917-.983 .655-1.355 .393-1.835 .043-1.573-.306-1.322-.655-1.081-1.005-.842-1.441-.59-1.965-.328-1.616 .066-1.354 .415-1.179 .721-.83 .502-.437 .262 0 0M1.343-4.653C1.146-5.046 .819-5.712 .36-6.651-.098-7.591-.437-8.344-.655-8.912-1.048-8.519-1.485-8.17-1.965-7.864-1.616-7.515-1.321-7.143-1.081-6.75-.841-6.357-.491-5.712-.033-4.817 .426-3.922 .742-3.234 .917-2.752 1.222-3.014 1.572-3.277 1.965-3.539 1.746-3.889 1.539-4.26 1.343-4.653M.721 3.932C1.157 3.626 1.615 3.298 2.096 2.949 1.703 2.73 1.375 2.381 1.114 1.9 .764 2.25 .393 2.556 0 2.818-.393 3.08-.808 3.342-1.244 3.604-.895 4.084-.612 4.456-.393 4.718-.088 4.499 .284 4.237 .721 3.932M4.585-.459C3.886-.459 3.122-.481 2.293-.524V.655C3.122 .611 3.865 .59 4.52 .59H11.331C11.987 .59 12.641 .611 13.296 .655V-.524C12.641-.481 11.987-.459 11.331-.459H9.89V-2.097H13.034C12.99-2.709 12.969-3.342 12.969-3.997V-8.388C12.969-8.824 12.827-9.163 12.543-9.404 12.259-9.643 11.571-9.851 10.48-10.026 10.349-9.633 10.108-9.174 9.759-8.65 10.807-8.606 11.397-8.519 11.528-8.388 11.659-8.257 11.724-8.104 11.724-7.929V-3.146H9.825C9.781-3.627 9.715-4.151 9.629-4.718 10.501-5.505 11.112-6.094 11.462-6.488 11.2-6.707 10.894-6.99 10.546-7.339 10.195-6.815 9.781-6.314 9.301-5.832 8.82-6.925 8.384-7.755 7.991-8.322 7.729-8.017 7.357-7.755 6.878-7.536 7.401-6.969 7.805-6.346 8.089-5.668 8.373-4.992 8.558-4.151 8.646-3.146H6.878C6.833-3.408 6.768-3.735 6.681-4.128 7.336-4.61 7.795-5.003 8.056-5.308 7.881-5.614 7.685-5.942 7.467-6.291 7.117-5.898 6.768-5.527 6.419-5.177 6.288-5.527 6.134-5.909 5.961-6.324 5.785-6.74 5.545-7.187 5.24-7.667 4.934-7.405 4.541-7.187 4.061-7.012 4.541-6.357 4.923-5.701 5.207-5.046 5.491-4.391 5.655-3.758 5.698-3.146H3.865V-9.895H2.555C2.598-9.065 2.62-8.301 2.62-7.602V-4.26C2.62-3.604 2.598-2.883 2.555-2.097H5.764V-.459ZM5.306 3.604V4.063C5.306 4.456 5.283 4.871 5.24 5.308H6.55C6.506 4.915 6.484 4.522 6.484 4.128V3.604H9.039V3.997C9.039 4.434 9.016 4.871 8.973 5.308H10.349C10.305 4.915 10.283 4.478 10.283 3.997V3.604H11.07C11.724 3.604 12.445 3.626 13.231 3.67V2.49C12.445 2.533 11.702 2.556 11.004 2.556H10.283C10.283 2.294 10.305 1.835 10.349 1.18H9.039V2.556H6.484V1.18H5.24C5.283 1.791 5.306 2.25 5.306 2.556H4.52C4.127 2.556 3.428 2.533 2.424 2.49V3.67C3.428 3.626 4.127 3.604 4.52 3.604ZM6.878-2.097H8.712V-.45899988H6.878ZM6.878-.459" fill="#f43040"/>
<path transform="matrix(1,0,0,-1,275.4942,181.36429)" d="M0 0C1.004-1.224 2.096-1.988 3.275-2.294V4.915H-1.048C-1.005 5.744-.983 6.662-.983 7.667-.983 8.672-1.005 9.545-1.048 10.288H8.908C8.864 9.545 8.842 8.672 8.842 7.667 8.842 6.662 8.864 5.744 8.908 4.915H4.585V2.031H7.86C8.471 2.031 9.17 2.053 9.956 2.097V.917C9.213 .96 8.558 .983 7.991 .983H4.585V-2.49C5.458-2.665 6.55-2.742 7.86-2.72 9.17-2.698 10.326-2.621 11.331-2.49 11.156-2.709 10.981-3.211 10.807-3.997 9.278-3.953 7.87-3.921 6.583-3.899 5.294-3.877 4.083-3.713 2.948-3.408 1.811-3.102 .698-2.359-.393-1.18-.961-2.578-1.616-3.713-2.358-4.587-2.708-4.15-3.078-3.822-3.471-3.604-2.904-3.08-2.479-2.556-2.194-2.031-1.911-1.507-1.649-.83-1.408 0-1.169 .829-1.048 1.878-1.048 3.145-.393 3.057 .152 2.97 .59 2.883 .37 2.49 .174 1.529 0 0M7.532 9.24H.32700015V5.898H7.532ZM7.532 5.898" fill="#f43040"/>
<path transform="matrix(1,0,0,-1,202.4889,211.457)" stroke-width="1" stroke-linecap="butt" stroke-miterlimit="8" stroke-linejoin="miter" fill="none" stroke="#f43040" d="M0 0C0 3.473 2.814 6.289 6.286 6.289 9.757 6.289 12.572 3.473 12.572 0 12.572-3.473 9.757-6.289 6.286-6.289 2.814-6.289 0-3.473 0 0"/>
<path transform="matrix(1,0,0,-1,230.1698,207.82889)" d="M0 0C.482 0 1.013 .016 1.591 .048V-.868C1.013-.837 .482-.82 0-.82H-2.893V-2.171H.386C.353-2.621 .338-3.152 .338-3.763 .338-4.374 .353-5.001 .386-5.644H-1.832V-8.152C-1.832-8.474-1.639-8.635-1.254-8.635H.241C.466-8.635 .627-8.538 .723-8.345 .82-8.152 .868-7.815 .868-7.332 1.285-7.59 1.671-7.766 2.025-7.863 1.864-8.538 1.664-8.98 1.422-9.189 1.181-9.398 .82-9.486 .338-9.455H-1.687C-2.395-9.455-2.765-9.133-2.796-8.49V-5.644H-4.05C-4.211-7.606-5.448-8.972-7.762-9.744-7.891-9.326-8.117-8.972-8.437-8.683-6.252-8.169-5.127-7.156-5.062-5.644H-7.184C-7.152-5.065-7.136-4.486-7.136-3.907-7.136-3.328-7.152-2.75-7.184-2.171H-3.761V-.82H-6.461C-7.008-.82-7.618-.837-8.293-.868V.048C-7.618 .016-7.023 0-6.509 0H-3.761C-3.761 .643-3.777 1.125-3.809 1.447H-2.796C-2.861 1.125-2.893 .643-2.893 0ZM-.578-2.943H-6.171V-4.8240005H-.578ZM-.578-4.824" fill="#2c292a"/>
<path transform="matrix(1,0,0,-1,238.1994,208.6489)" d="M0 0V-7.139C0-7.815-.145-8.225-.434-8.369-.723-8.514-1.126-8.65-1.639-8.779-1.768-8.297-1.929-7.911-2.121-7.622-1.672-7.622-1.35-7.606-1.157-7.573-.964-7.542-.868-7.301-.868-6.85V-4.438H-2.748C-2.813-5.242-2.925-5.982-3.086-6.657-3.247-7.332-3.472-7.991-3.761-8.635-4.018-8.409-4.323-8.216-4.677-8.056-4.291-7.349-4.026-6.681-3.881-6.054-3.737-5.427-3.64-4.792-3.592-4.148-3.544-3.506-3.52-2.493-3.52-1.109-3.52 .273-3.536 1.238-3.568 1.785H.048C.016 1.527 0 .932 0 0M-.868-3.618V-1.688H-2.652L-2.7-3.618ZM-.868 .965H-2.652V-.868H-.868ZM2.025-8.828H1.109C1.141-8.056 1.157-7.332 1.157-6.657V.048C1.157 .595 1.141 1.189 1.109 1.833H5.593C5.56 1.382 5.528 .892 5.496 .362 5.464-.169 5.416-.571 5.352-.844 5.287-1.118 5.094-1.319 4.773-1.447 4.452-1.576 4.033-1.673 3.52-1.737 3.423-1.351 3.279-1.03 3.086-.772 3.889-.772 4.339-.684 4.436-.507 4.532-.33 4.58 .176 4.58 1.013H2.025V-2.219H6.027C5.898-3.056 5.738-3.803 5.545-4.462 5.352-5.122 5.094-5.773 4.773-6.416 5.319-7.059 5.946-7.542 6.654-7.863 6.428-8.056 6.203-8.329 5.979-8.683 5.368-8.265 4.789-7.75 4.243-7.139 3.857-7.687 3.327-8.265 2.652-8.876 2.491-8.586 2.314-8.329 2.121-8.104 2.571-7.782 3.069-7.236 3.616-6.464 3.198-5.918 2.78-4.776 2.363-3.039H2.025ZM4.146-5.692C4.532-4.953 4.805-4.069 4.966-3.039H3.23C3.487-4.262 3.792-5.146 4.146-5.692" fill="#2c292a"/>
<path transform="matrix(1,0,0,-1,249.1217,214.38932)" d="M0 0C.707 .9 1.197 1.825 1.471 2.774 1.743 3.722 1.896 4.607 1.929 5.427 1.96 6.247 1.945 7.107 1.88 8.008 2.234 7.975 2.635 7.943 3.086 7.911 2.989 7.396 2.941 6.866 2.941 6.319 2.941 5.772 2.973 5.145 3.038 4.438 3.102 3.73 3.56 2.661 4.412 1.23 5.263-.201 6.509-1.271 8.148-1.978 7.762-2.364 7.505-2.685 7.377-2.943 5.127-1.85 3.52 .128 2.555 2.991 1.912 .45 .353-1.576-2.121-3.087-2.314-2.829-2.588-2.557-2.941-2.267-1.687-1.657-.707-.901 0 0" fill="#2c292a"/>
<path transform="matrix(1,0,0,-1,259.2725,212.2186)" d="M0 0C-.322 .064-.611 .128-.868 .193-.643 1.029-.466 2.026-.337 3.184-.081 3.151 .209 3.103 .53 3.039 .337 1.688 .16 .675 0 0M1.88 3.907V-3.328C1.88-4.004 1.896-4.679 1.929-5.354H.916C.948-4.679 .964-4.004 .964-3.328V3.907C.964 4.583 .948 5.21 .916 5.789H1.929C1.896 5.145 1.88 4.518 1.88 3.907M3.52 1.64C3.23 1.544 2.973 1.431 2.748 1.302 2.523 2.009 2.282 2.669 2.025 3.28 2.282 3.408 2.523 3.521 2.748 3.618 3.005 3.103 3.262 2.444 3.52 1.64M4.966 3.087H6.461V4.1C6.461 4.647 6.444 5.177 6.413 5.692H7.425C7.393 5.177 7.377 4.647 7.377 4.1V3.087H8.341C8.758 3.087 9.257 3.103 9.836 3.135V2.219C9.257 2.251 8.758 2.267 8.341 2.267H7.377V-.289H8.245C8.727-.289 9.209-.274 9.691-.241V-1.158C9.209-1.126 8.727-1.109 8.245-1.109H7.377V-4.1H8.679C9.225-4.1 9.755-4.084 10.27-4.052V-4.92C9.755-4.888 9.225-4.872 8.679-4.872H4.966C4.388-4.872 3.825-4.888 3.279-4.92V-4.052C3.825-4.084 4.371-4.1 4.918-4.1H6.461V-1.109H5.641C5.223-1.109 4.741-1.126 4.195-1.158V-.241C4.612-.274 5.094-.289 5.641-.289H6.461V2.267H4.773C4.677 1.785 4.419 1.077 4.002 .145 3.648 .338 3.358 .45 3.134 .482 3.584 1.415 3.873 2.219 4.002 2.894 4.13 3.57 4.243 4.213 4.339 4.824 4.66 4.727 4.982 4.647 5.304 4.583 5.142 4.004 5.03 3.505 4.966 3.087" fill="#2c292a"/>
<path transform="matrix(1,0,0,-1,202.4889,233.33152)" stroke-width="1" stroke-linecap="butt" stroke-miterlimit="8" stroke-linejoin="miter" fill="none" stroke="#f43040" d="M0 0C0 3.473 2.814 6.289 6.286 6.289 9.757 6.289 12.572 3.473 12.572 0 12.572-3.473 9.757-6.289 6.286-6.289 2.814-6.289 0-3.473 0 0"/>
<path transform="matrix(1,0,0,-1,222.5038,229.79639)" d="M0 0C0 .579-.017 1.093-.048 1.544H.916C.884 .996 .868 .482 .868 0V-1.93C1.285-1.93 1.703-1.914 2.121-1.881V-2.798C1.671-2.766 1.253-2.75 .868-2.75V-7.959C.868-8.57 .884-9.052 .916-9.406H-.048C-.017-9.085 0-8.602 0-7.959V-2.75C-.451-2.75-.9-2.766-1.35-2.798V-1.881C-.868-1.914-.418-1.93 0-1.93ZM7.425-6.078C7.425-5.821 7.408-5.564 7.377-5.306H8.341C8.309-5.564 8.293-5.821 8.293-6.078H8.63C9.209-6.078 9.707-6.062 10.125-6.03V-6.946C9.674-6.915 9.177-6.898 8.63-6.898H8.293V-8.49C8.293-9.004 8.124-9.31 7.787-9.406 7.449-9.503 7.023-9.599 6.509-9.696 6.444-9.342 6.316-9.004 6.123-8.683 6.669-8.683 7.023-8.666 7.184-8.635 7.344-8.602 7.425-8.41 7.425-8.056V-6.898H3.375C2.7-6.898 2.17-6.931 1.784-6.995V-6.03C2.17-6.062 2.7-6.078 3.375-6.078ZM5.111 .386C5.111 .932 5.094 1.334 5.063 1.592H6.075C6.043 1.27 6.027 .868 6.027 .386H7.955C8.694 .386 9.241 .402 9.595 .434V-.434C9.241-.403 8.71-.386 8.004-.386H6.027V-1.158H8.823C8.791-1.64 8.775-2.107 8.775-2.557V-3.618C8.775-4.229 8.791-4.727 8.823-5.113H7.907V-4.631H6.027C6.027-4.92 6.043-5.21 6.075-5.499H5.063C5.094-5.178 5.111-4.889 5.111-4.631H3.52V-5.451H2.555C2.587-5.098 2.604-4.647 2.604-4.1V-2.605C2.604-1.994 2.587-1.512 2.555-1.158H5.111V-.386H4.098C3.455-.386 2.828-.403 2.218-.434V.434C2.796 .402 3.407 .386 4.05 .386ZM5.111-8.249C4.822-8.442 4.548-8.635 4.291-8.828 4.033-8.41 3.713-7.976 3.327-7.525 3.584-7.365 3.841-7.187 4.098-6.995 4.484-7.445 4.822-7.863 5.111-8.249M5.111-1.881H3.52V-2.508H5.111ZM5.111-3.232H3.52V-3.907H5.111ZM7.907-1.881H6.027V-2.508H7.907ZM7.907-3.232H6.027V-3.907H7.907ZM7.136 1.206 7.859 1.688C8.019 1.463 8.245 1.206 8.534 .917 8.245 .788 8.004 .643 7.811 .482 7.553 .739 7.329 .98 7.136 1.206" fill="#2c292a"/>
<path transform="matrix(1,0,0,-1,238.1994,228.8317)" d="M0 0C.546 0 1.013 .016 1.398 .048V-.772C1.141-.74 .884-.724 .627-.724V-7.236C.98-7.139 1.382-7.027 1.832-6.898V-7.718C1.414-7.815 1.013-7.911 .627-8.008 .627-9.262 .643-10.178 .675-10.757H-.289C-.258-10.275-.241-9.422-.241-8.201-1.013-8.362-1.72-8.555-2.363-8.779-3.006-9.005-3.552-9.23-4.002-9.455L-4.388-8.345-3.327-8.152V-.724C-3.584-.724-3.905-.74-4.291-.772V.048C-3.874 .016-3.311 0-2.604 0ZM-.241-.724H-2.4589999V-2.75H-.241ZM-.241-3.473H-2.4589999V-5.1610004H-.241ZM-.241-7.477V-5.933H-2.459V-7.959C-1.687-7.799-.948-7.638-.241-7.477M2.145-8.707C2.483-8.338 2.86-7.831 3.279-7.187 2.796-6.288 2.483-5.371 2.338-4.438 2.194-3.506 2.089-2.429 2.025-1.206H1.639V-.386C2.282-.418 2.86-.434 3.375-.434H6.075C5.946-2.01 5.762-3.313 5.521-4.341 5.28-5.371 4.901-6.319 4.387-7.187 4.644-7.638 4.99-8.056 5.424-8.442 5.858-8.828 6.332-9.165 6.846-9.455 6.525-9.679 6.251-9.953 6.027-10.275 5.352-9.824 4.629-9.069 3.857-8.008 3.279-8.941 2.619-9.728 1.88-10.371 1.687-10.113 1.398-9.872 1.013-9.648 1.43-9.391 1.808-9.077 2.145-8.707M3.158-4.1C3.238-4.744 3.455-5.483 3.809-6.319 4.323-5.258 4.653-4.269 4.797-3.353 4.942-2.436 5.03-1.721 5.063-1.206H2.893C2.989-2.493 3.077-3.457 3.158-4.1" fill="#2c292a"/>
<path transform="matrix(1,0,0,-1,252.1594,228.15631)" d="M0 0C.386-.033 .755-.065 1.109-.096 1.044-.515 1.028-1.271 1.061-2.364H2.459C3.134-2.364 3.873-2.348 4.677-2.315V-3.232C3.84-3.2 3.101-3.184 2.459-3.184H1.109C1.14-4.406 1.35-5.74 1.736-7.187 2.346-6.255 2.828-5.178 3.182-3.956 3.503-4.213 3.873-4.438 4.291-4.631 4.033-4.92 3.744-5.403 3.423-6.078 3.101-6.753 2.683-7.461 2.17-8.201 2.459-8.779 2.772-9.238 3.11-9.575 3.447-9.913 3.68-10.058 3.809-10.009 3.937-9.961 4.066-9.406 4.195-8.345 4.516-8.603 4.853-8.796 5.207-8.924 4.982-10.242 4.732-10.974 4.46-11.119 4.186-11.264 3.857-11.264 3.471-11.119 3.086-10.974 2.724-10.701 2.386-10.299 2.049-9.897 1.767-9.455 1.543-8.972 .771-9.809-.21-10.596-1.398-11.336-1.56-11.047-1.801-10.789-2.122-10.564-1.479-10.275-.86-9.889-.265-9.406 .329-8.924 .771-8.474 1.061-8.056 .835-7.445 .643-6.698 .482-5.813 .321-4.929 .224-4.052 .193-3.184H-3.954V-4.872H-.82C-.884-5.451-.933-6.046-.964-6.657L-1.109-8.586C-1.141-9.198-1.31-9.568-1.615-9.696-1.921-9.825-2.443-9.921-3.182-9.985-3.215-9.696-3.343-9.343-3.568-8.924-2.765-8.957-2.299-8.908-2.17-8.779-2.042-8.651-1.961-8.281-1.929-7.67L-1.832-5.74H-3.954C-3.954-6.995-4.05-8.04-4.243-8.876-4.436-9.713-4.79-10.484-5.304-11.191-5.658-10.933-5.979-10.757-6.268-10.661-5.851-10.146-5.561-9.656-5.4-9.189-5.24-8.724-5.119-8.217-5.038-7.67-4.959-7.124-4.911-6.352-4.894-5.354-4.878-4.358-4.886-3.361-4.918-2.364H.096C.064-1.431 .032-.644 0 0M4.195-1.544C3.905-1.769 3.648-1.994 3.423-2.219 3.037-1.705 2.523-1.174 1.88-.627 2.105-.434 2.314-.225 2.507 0 3.15-.515 3.713-1.03 4.195-1.544" fill="#2c292a"/>
<path transform="matrix(1,0,0,-1,261.2975,232.83539)" d="M0 0V3.184C0 3.473-.017 3.891-.048 4.438H1.013C.98 3.827 .964 3.425 .964 3.232V0H6.798C7.216 0 7.666 .016 8.148 .048V-.917C7.537-.885 6.975-.868 6.461-.868H3.664C3.889-1.512 4.235-2.139 4.701-2.75 5.167-3.361 5.721-3.867 6.364-4.269 7.007-4.672 7.585-4.953 8.1-5.113 7.682-5.371 7.36-5.692 7.136-6.078 6.461-5.724 5.834-5.306 5.255-4.824 4.677-4.341 4.162-3.755 3.713-3.063 3.262-2.372 2.924-1.64 2.7-.868H.964V-4.679C1.896-4.1 2.523-3.666 2.845-3.377 3.069-3.731 3.294-4.052 3.52-4.341 2.909-4.631 2.298-4.993 1.687-5.427 1.077-5.861 .627-6.223 .337-6.512 .08-6.158-.161-5.853-.386-5.596-.129-5.339 0-5.001 0-4.583V-.868H-1.109C-1.56-.868-2.073-.885-2.652-.917V.048C-2.073 .016-1.591 0-1.205 0ZM4.508 2.195C3.817 1.503 3.134 .836 2.459 .193 2.17 .579 1.929 .836 1.736 .965 2.282 1.351 2.893 1.897 3.568 2.605 4.243 3.312 4.757 3.923 5.111 4.438 5.368 4.212 5.689 3.956 6.075 3.666 5.721 3.377 5.199 2.886 4.508 2.195" fill="#2c292a"/>
<path transform="matrix(1,0,0,-1,273.7146,230.61652)" d="M0 0H2.17C2.137-.547 2.121-1.239 2.121-2.074V-6.319C2.121-6.802 2.137-7.494 2.17-8.393H1.205V-7.429H-1.254V-8.49H-2.218C-2.186-7.461-2.17-6.818-2.17-6.56V-2.122C-2.17-1.254-2.186-.547-2.218 0H-.82C-.659 .739-.53 1.511-.434 2.315 .016 2.154 .386 2.042 .675 1.978 .514 1.688 .289 1.029 0 0M1.205-.82H-1.2540001V-3.2319999H1.205ZM1.205-4.052H-1.2540001V-6.609H1.205ZM7.618-7.284C7.553-7.863 7.248-8.249 6.702-8.442 6.155-8.635 5.545-8.763 4.87-8.828 4.837-8.473 4.693-8.104 4.436-7.718 5.078-7.75 5.584-7.734 5.954-7.67 6.324-7.606 6.557-7.461 6.653-7.236 6.75-7.011 6.822-6.352 6.871-5.258 6.919-4.165 6.959-2.637 6.991-.675H4.195C3.937-1.287 3.568-2.01 3.086-2.846 2.86-2.621 2.587-2.444 2.266-2.315 2.555-1.93 2.828-1.464 3.086-.917 3.343-.37 3.568 .225 3.761 .868 3.953 1.511 4.066 2.009 4.098 2.364 4.548 2.171 4.934 2.026 5.255 1.93 5.094 1.672 4.958 1.39 4.845 1.085 4.733 .779 4.612 .482 4.484 .193H7.907C7.875-.482 7.859-1.109 7.859-1.688 7.826-3.65 7.746-5.516 7.618-7.284M5.014-3.666C5.207-4.052 5.432-4.551 5.689-5.161 5.464-5.258 5.159-5.419 4.773-5.644 4.548-5.033 4.339-4.51 4.146-4.076 3.953-3.642 3.761-3.28 3.568-2.991 3.792-2.863 4.082-2.701 4.436-2.508Z" fill="#2c292a"/>
<path transform="matrix(1,0,0,-1,288.0602,234.62021)" d="M0 0C-.225-.193-.499-.403-.82-.627-1.013-.21-1.35 .353-1.832 1.061V-2.46C-1.832-3.104-1.816-3.827-1.784-4.631H-2.845C-2.813-3.827-2.796-3.104-2.796-2.46V.627C-2.958 .145-3.134-.314-3.327-.748-3.52-1.182-3.793-1.673-4.147-2.219-4.436-1.898-4.693-1.64-4.918-1.447-4.661-1.158-4.324-.595-3.905 .241-3.488 1.077-3.166 2.009-2.941 3.039H-3.23C-3.681 3.039-4.131 3.006-4.581 2.943V3.859C-4.131 3.827-3.697 3.811-3.279 3.811H-2.796V4.776C-2.796 5.29-2.813 5.772-2.845 6.223H-1.736C-1.801 5.901-1.832 5.418-1.832 4.776V3.811H-1.302C-.949 3.811-.547 3.827-.096 3.859V2.991C-.804 3.022-1.383 3.039-1.832 3.039V1.109C-1.639 1.27-1.415 1.447-1.157 1.64-.643 .932-.258 .386 0 0M4.484 3.28V-2.991C4.484-3.409 4.58-3.634 4.773-3.666 4.966-3.698 5.126-3.706 5.255-3.69 5.383-3.674 5.472-3.562 5.521-3.353 5.569-3.144 5.593-2.83 5.593-2.412 5.882-2.573 6.22-2.701 6.605-2.798 6.476-3.473 6.348-3.923 6.22-4.148 6.091-4.373 5.882-4.486 5.593-4.486H4.58C4.194-4.486 3.913-4.397 3.736-4.221 3.559-4.044 3.487-3.682 3.52-3.135V4.776H1.687C1.687 2.943 1.663 1.52 1.615 .507 1.567-.507 1.422-1.423 1.181-2.243 .94-3.063 .466-3.891-.241-4.727-.402-4.534-.692-4.277-1.109-3.956-.659-3.602-.298-3.168-.024-2.653 .248-2.139 .434-1.608 .53-1.061 .627-.515 .691 .064 .723 .675 .755 1.286 .771 2.058 .771 2.991 .771 3.956 .755 4.824 .723 5.596H4.532C4.5 4.695 4.484 3.923 4.484 3.28" fill="#2c292a"/>
<path transform="matrix(1,0,0,-1,306.9861,232.59421)" d="M0 0C-.289-.258-.514-.547-.675-.868-2.861 .128-4.516 1.415-5.641 2.991-7.152 1.286-8.807-.081-10.607-1.109-10.929-.66-11.202-.386-11.427-.289-10.238 .128-9.105 .82-8.028 1.785-6.951 2.75-6.22 3.634-5.834 4.438-5.545 4.245-5.207 4.068-4.821 3.907L-5.111 3.618C-3.986 2.009-2.283 .803 0 0M-8.293-5.547C-6.171-5.483-4.532-5.419-3.375-5.354-3.664-5.033-4.098-4.615-4.677-4.1-4.452-3.907-4.227-3.699-4.002-3.473-3.552-3.892-3.118-4.302-2.7-4.703-2.283-5.106-1.801-5.596-1.254-6.174-1.479-6.367-1.752-6.609-2.073-6.898-2.362-6.48-2.604-6.19-2.796-6.03-3.536-6.061-4.733-6.126-6.388-6.223-8.044-6.319-9.113-6.432-9.595-6.56-9.756-6.142-9.884-5.82-9.98-5.596-9.467-5.435-8.856-5.025-8.148-4.366-7.441-3.707-6.943-3.168-6.653-2.75H-8.052C-8.92-2.75-9.723-2.766-10.462-2.798V-1.978C-9.691-2.01-8.904-2.026-8.1-2.026H-3.278C-2.475-2.026-1.687-2.01-.916-1.978V-2.798C-1.687-2.766-2.54-2.75-3.471-2.75H-6.364C-6.107-3.007-5.866-3.2-5.641-3.328-5.866-3.49-6.75-4.229-8.293-5.547M-4.773 .193C-4.067 .193-3.488 .209-3.037 .241V-.627C-3.52-.595-4.098-.579-4.773-.579H-6.846C-7.457-.579-7.972-.595-8.389-.627V.241C-7.972 .209-7.473 .193-6.895 .193Z" fill="#2c292a"/>
<path transform="matrix(1,0,0,-1,118.9925,232.4559)" d="M0 0C.048-.708 .056-1.495 .024-2.364-.008-3.232-.169-4.069-.458-4.872-.747-5.676-1.214-6.447-1.856-7.187-2.146-6.962-2.419-6.769-2.676-6.609-2.097-6.126-1.68-5.604-1.422-5.041-1.165-4.479-.988-3.867-.892-3.208-.796-2.549-.756-1.817-.771-1.013-.788-.21-.796 .659-.796 1.592H.12C-.008 1.238-.048 .707 0 0M1.47-.145C1.47-1.657 1.486-2.83 1.519-3.666H.651V2.46H-1.422V-3.714H-2.29C-2.259-2.943-2.242-1.785-2.242-.241-2.242 1.334-2.259 2.476-2.29 3.184H1.519C1.486 2.476 1.47 1.366 1.47-.145M1.47-5.354C1.181-5.58 .988-5.805 .892-6.03 .667-5.74 .297-5.371-.217-4.92 .04-4.696 .233-4.47 .362-4.245 .554-4.47 .924-4.84 1.47-5.354M2.411-4.993C2.845-4.462 3.158-3.876 3.351-3.232 3.158-3.232 2.821-3.249 2.338-3.28V-2.508C2.724-2.541 3.174-2.557 3.688-2.557V-1.495C2.884-1.495 2.29-1.512 1.904-1.544V-.772C2.29-.804 2.884-.82 3.688-.82V.096C3.141 .096 2.676 .08 2.29 .048V.82C2.676 .788 3.141 .772 3.688 .772V1.93C3.013 1.93 2.483 1.913 2.097 1.881V2.653C2.483 2.621 3.608 2.605 5.472 2.605 5.697 3.344 5.826 3.907 5.858 4.293 6.244 4.164 6.613 4.052 6.967 3.956 6.838 3.73 6.629 3.28 6.34 2.605 7.208 2.605 7.883 2.621 8.365 2.653V1.881C7.915 1.913 7.16 1.93 6.099 1.93V.772H7.787C7.754 .386 7.738-.145 7.738-.82 7.899-.82 8.188-.804 8.606-.772V-1.544C8.221-1.512 7.931-1.495 7.738-1.495V-1.978C7.738-2.429 7.754-2.846 7.787-3.232H6.533C6.886-4.004 7.24-4.559 7.594-4.896 7.947-5.234 8.365-5.547 8.847-5.837 8.526-6.126 8.317-6.432 8.221-6.753 7.738-6.335 7.32-5.868 6.967-5.354 6.613-4.84 6.324-4.31 6.099-3.763V-5.306C6.099-5.885 6.115-6.447 6.147-6.995H5.279V-3.232H4.46V-7.091H3.64C3.672-6.48 3.688-5.885 3.688-5.306V-4.293C3.399-4.969 3.077-5.516 2.724-5.933 2.37-6.351 2.049-6.721 1.76-7.043 1.47-6.753 1.213-6.528 .988-6.367 1.502-5.982 1.977-5.523 2.411-4.993M3.833 2.653C3.511 3.264 3.286 3.682 3.158 3.907 3.382 4.035 3.624 4.164 3.881 4.293 4.202 3.714 4.427 3.328 4.556 3.135 4.267 2.974 4.026 2.814 3.833 2.653M5.279 1.93H4.4589998V.77199998H5.279ZM5.279 .096H4.4589998V-.821H5.279ZM5.279-1.495H4.4589998V-2.556H5.279ZM6.967 .096H6.099V-.821H6.967ZM6.967-1.495H6.099V-2.556H6.967ZM6.967-2.557" fill="#2c292a"/>
<path transform="matrix(1,0,0,-1,132.8318,231.1052)" d="M0 0V-4.438C0-5.017 .016-5.66 .048-6.367H-.868V-5.789H-2.555V-7.043H-3.471C-3.44-6.174-3.423-5.387-3.423-4.679V0C-3.423 .675-3.44 1.351-3.471 2.026H.048C.016 1.351 0 .675 0 0M-.868 1.302H-2.555V-.19299996H-.868ZM-.868-.965H-2.555V-2.605H-.868ZM-.868-3.328H-2.555V-5.065H-.868ZM5.93 .724V-.724C5.93-1.206 5.946-1.833 5.979-2.605H3.761C3.825-3.28 4.066-3.988 4.484-4.727 4.837-4.438 5.142-4.165 5.4-3.907 5.657-3.65 5.93-3.313 6.22-2.894 6.413-3.152 6.669-3.425 6.991-3.714 6.798-3.811 6.492-4.044 6.075-4.414 5.657-4.784 5.271-5.13 4.918-5.451 5.111-5.773 5.407-6.111 5.81-6.464 6.211-6.818 6.685-7.124 7.232-7.38 6.75-7.638 6.461-7.894 6.364-8.152 5.624-7.67 5.046-7.18 4.629-6.681 4.21-6.183 3.849-5.588 3.544-4.896 3.238-4.205 3.021-3.442 2.893-2.605H1.929V-6.753C2.346-6.432 2.7-6.126 2.989-5.837 3.021-6.126 3.166-6.448 3.423-6.802 3.23-6.898 2.917-7.115 2.483-7.453 2.049-7.79 1.703-8.12 1.446-8.442 1.221-8.152 .98-7.911 .723-7.718 1.012-7.429 1.141-7.043 1.109-6.56V.241C1.109 .98 1.092 1.704 1.061 2.412H5.979C5.946 1.833 5.93 1.27 5.93 .724M5.063 1.688H1.9290001V.337H5.063ZM5.063-.434H1.9290001V-1.8330001H5.063ZM5.063-1.833" fill="#2c292a"/>
<path transform="matrix(1,0,0,-1,149.805,229.12741)" d="M0 0C-.177-.289-.378-.627-.603-1.013H1.374C1.824-1.013 2.322-.997 2.869-.965V-1.881C2.354-1.817 1.791-1.785 1.181-1.785H-6.437C-7.273-1.785-7.98-1.817-8.558-1.881V-.965C-7.883-.997-7.176-1.013-6.437-1.013H-1.567C-1.021 .016-.716 .707-.651 1.061-.298 .868 .088 .724 .506 .627 .345 .498 .176 .289 0 0M-4.146-9.334C-3.97-9.318-3.881-9.197-3.881-8.972V-7.477H-6.485V-10.419H-7.497C-7.433-9.841-7.401-9.197-7.401-8.49V-4.631C-7.401-3.988-7.418-3.377-7.449-2.798H-2.917C-2.949-3.345-2.965-3.94-2.965-4.583V-9.455C-2.965-9.776-3.094-9.985-3.351-10.082-3.609-10.178-4.042-10.275-4.653-10.371-4.749-10.017-4.878-9.679-5.038-9.358-4.621-9.358-4.323-9.35-4.146-9.334M-3.881-3.521H-6.485V-4.823H-3.881ZM-3.881-5.547H-6.485V-6.753H-3.881ZM-5.665 .579C-5.312 .739-5.023 .9-4.797 1.061-4.348 .482-4.01 0-3.785-.386-4.074-.515-4.396-.675-4.749-.868-4.878-.515-5.183-.033-5.665 .579M-1.76-8.056C-1.728-7.573-1.712-7.156-1.712-6.802V-4.583C-1.712-4.069-1.728-3.618-1.76-3.232H-.747C-.78-3.618-.796-4.069-.796-4.583V-6.753C-.796-7.236-.78-7.67-.747-8.056ZM.482-9.31C.627-9.278 .699-9.134 .699-8.876V-3.859C.699-3.473 .682-3.056 .651-2.605H1.663C1.631-3.023 1.615-3.442 1.615-3.859V-9.214C1.615-9.631 1.51-9.905 1.302-10.034 1.092-10.162 .603-10.258-.169-10.323-.234-9.905-.378-9.567-.603-9.31-.024-9.342 .337-9.342 .482-9.31" fill="#2c292a"/>
<path transform="matrix(1,0,0,-1,156.5568,230.67111)" d="M0 0H2.17C2.137-.547 2.121-1.238 2.121-2.074V-6.319C2.121-6.802 2.137-7.494 2.17-8.393H1.205V-7.429H-1.254V-8.49H-2.218C-2.186-7.461-2.17-6.818-2.17-6.56V-2.122C-2.17-1.254-2.186-.547-2.218 0H-.82C-.659 .739-.53 1.511-.434 2.315 .016 2.154 .386 2.042 .675 1.978 .514 1.688 .289 1.029 0 0M1.205-.82H-1.2540001V-3.2319999H1.205ZM1.205-4.052H-1.2540001V-6.609H1.205ZM7.618-7.284C7.553-7.863 7.248-8.249 6.702-8.442 6.155-8.635 5.545-8.763 4.87-8.828 4.837-8.473 4.693-8.104 4.436-7.718 5.078-7.75 5.585-7.734 5.955-7.67 6.324-7.606 6.557-7.461 6.654-7.236 6.75-7.011 6.822-6.352 6.871-5.258 6.919-4.165 6.959-2.637 6.991-.675H4.195C3.937-1.287 3.568-2.01 3.086-2.846 2.861-2.621 2.587-2.444 2.266-2.315 2.555-1.93 2.828-1.464 3.086-.917 3.343-.37 3.568 .225 3.761 .868 3.954 1.511 4.066 2.009 4.098 2.364 4.548 2.171 4.934 2.026 5.255 1.93 5.094 1.672 4.958 1.391 4.846 1.085 4.733 .779 4.612 .482 4.484 .193H7.907C7.875-.482 7.859-1.109 7.859-1.688 7.827-3.65 7.746-5.516 7.618-7.284M5.014-3.666C5.207-4.052 5.432-4.551 5.689-5.161 5.464-5.258 5.159-5.419 4.773-5.644 4.548-5.033 4.339-4.51 4.146-4.076 3.954-3.642 3.761-3.28 3.568-2.991 3.792-2.863 4.082-2.701 4.436-2.508Z" fill="#2c292a"/>
<path transform="matrix(1,0,0,-1,167.2622,229.9957)" d="M0 0C.434 .675 .747 1.286 .94 1.833 1.197 1.575 1.519 1.382 1.904 1.254 1.615 .996 1.326 .595 1.037 .048 2.001 .048 2.772 .064 3.351 .096V-.724C2.772-.692 1.84-.675 .554-.675 .072-1.383-.33-1.93-.651-2.315-.812-1.994-1.021-1.769-1.278-1.64-.86-1.223-.434-.675 0 0M.603-7.284V-5.161C.056-5.161-.49-5.178-1.037-5.21V-4.39C-.394-4.422 .152-4.438 .603-4.438V-2.943C.377-2.943 .04-2.959-.41-2.991V-2.122C.008-2.187 .362-2.219 .651-2.219H1.953C2.21-2.219 2.515-2.203 2.869-2.171V-2.991C2.354-2.959 1.888-2.943 1.47-2.943V-4.438C2.274-4.438 2.885-4.422 3.303-4.39V-5.21C2.852-5.178 2.242-5.161 1.47-5.161V-7.863C1.888-7.542 2.37-7.075 2.917-6.464 2.981-6.722 3.141-6.995 3.399-7.284 3.141-7.445 2.78-7.727 2.314-8.128 1.848-8.53 1.374-8.972 .892-9.455 .699-9.1 .49-8.828 .265-8.635 .49-8.249 .603-7.799 .603-7.284M8.558-9.334C7.947-9.125 7.336-8.49 6.726-7.429 5.729-8.201 4.781-8.779 3.881-9.165 3.72-8.811 3.463-8.522 3.11-8.297 3.688-8.137 4.25-7.935 4.797-7.694 5.344-7.453 5.841-7.124 6.292-6.705 6.003-5.966 5.793-5.161 5.665-4.293 5.215-4.422 4.636-4.631 3.929-4.92L3.64-4.052C4.122-3.956 4.765-3.779 5.569-3.521 5.504-3.039 5.456-2.573 5.424-2.122 4.653-2.284 4.09-2.429 3.737-2.557L3.496-1.737C3.913-1.673 4.54-1.544 5.376-1.351 5.279 .064 5.215 1.125 5.183 1.833 5.472 1.737 5.826 1.656 6.244 1.592 6.147 1.302 6.099 .948 6.099 .531 6.099 .145 6.115-.418 6.147-1.158 7.401-.837 8.365-.531 9.04-.241L9.329-1.061C9.072-1.094 8.654-1.19 8.076-1.351L6.244-1.881C6.275-2.364 6.324-2.846 6.388-3.328 7.127-3.135 8.156-2.782 9.474-2.267L9.763-3.039C8.381-3.457 7.288-3.795 6.485-4.052 6.581-4.856 6.758-5.532 7.015-6.078 7.787-5.178 8.269-4.503 8.462-4.052 8.718-4.374 9.008-4.648 9.329-4.872 9.104-4.969 8.871-5.161 8.63-5.451 8.389-5.74 7.979-6.223 7.401-6.898 8.14-8.088 8.622-8.57 8.847-8.345 9.072-8.121 9.185-7.766 9.185-7.284 9.474-7.509 9.812-7.654 10.197-7.718 9.715-9.004 9.168-9.543 8.558-9.334M8.654 .386C8.429 .225 8.221 .048 8.028-.145 7.802 .145 7.481 .514 7.063 .965 7.224 1.125 7.417 1.302 7.642 1.495 8.059 1.045 8.397 .675 8.654 .386" fill="#2c292a"/>
<path transform="matrix(1,0,0,-1,183.3028,233.31299)" d="M0 0C-.113 3.455 2.701 6.27 6.173 6.27 9.644 6.27 12.459 3.455 12.459-.018 12.459-3.492 9.644-6.307 6.173-6.307 2.701-6.307-.113-3.492 0 0" fill="#ffffff"/>
<path transform="matrix(1,0,0,-1,183.3028,233.31299)" stroke-width="1" stroke-linecap="butt" stroke-miterlimit="10" stroke-linejoin="miter" fill="none" stroke="#2c292a" d="M0 0C-.113 3.455 2.701 6.27 6.173 6.27 9.644 6.27 12.459 3.455 12.459-.018 12.459-3.492 9.644-6.307 6.173-6.307 2.701-6.307-.113-3.492 0 0"/>
<path transform="matrix(1,0,0,-1,183.1897,233.33152)" stroke-width="1" stroke-linecap="butt" stroke-miterlimit="8" stroke-linejoin="miter" fill="none" stroke="#2c292a" d="M0 0C0 3.473 2.814 6.289 6.286 6.289 9.757 6.289 12.572 3.473 12.572 0 12.572-3.473 9.757-6.289 6.286-6.289 2.814-6.289 0-3.473 0 0"/>
<path transform="matrix(1,0,0,-1,202.4889,278.4024)" stroke-width="1" stroke-linecap="butt" stroke-miterlimit="8" stroke-linejoin="miter" fill="none" stroke="#f43040" d="M0 0C0 3.473 2.814 6.289 6.286 6.289 9.757 6.289 12.572 3.473 12.572 0 12.572-3.473 9.757-6.289 6.286-6.289 2.814-6.289 0-3.473 0 0"/>
<path transform="matrix(1,0,0,-1,230.0735,278.1476)" d="M0 0V-1.013C-.451-1.109-.86-1.262-1.23-1.471-1.599-1.681-2.025-1.898-2.507-2.122V-2.557H.53C.916-2.557 1.414-2.541 2.025-2.508V-3.473C1.382-3.442 .884-3.425 .53-3.425H-2.507V-5.403C-2.507-5.853-2.684-6.134-3.038-6.247-3.392-6.359-3.97-6.447-4.773-6.512-4.87-6.158-5.031-5.805-5.255-5.451H-3.954C-3.633-5.451-3.472-5.274-3.472-4.92V-3.425H-6.798C-7.313-3.425-7.892-3.442-8.534-3.473V-2.508C-7.859-2.541-7.297-2.557-6.847-2.557H-3.472C-3.472-2.3-3.504-2.01-3.568-1.688L-1.832-.82H-4.484C-5.095-.82-5.786-.837-6.557-.868V.048C-5.851 .016-5.176 0-4.532 0ZM-.723 2.171H1.928C1.896 1.881 1.88 1.544 1.88 1.158 1.88 .772 1.896 .402 1.928 .048H.916V1.351H-7.425V0H-8.438C-8.406 .386-8.389 .772-8.389 1.158-8.389 1.544-8.406 1.881-8.438 2.171H-1.736C-1.479 2.621-1.214 3.095-.94 3.594-.668 4.092-.451 4.583-.289 5.065 .224 4.776 .627 4.566 .916 4.438 .273 3.698-.273 2.943-.723 2.171M-5.496 3.087C-5.851 2.829-6.123 2.588-6.316 2.364-6.734 2.974-7.216 3.505-7.763 3.956-7.409 4.213-7.152 4.421-6.991 4.583-6.412 4.1-5.915 3.601-5.496 3.087M-2.507 3.232C-2.796 3.007-3.103 2.798-3.423 2.605-3.681 3.119-4.067 3.698-4.58 4.341-4.26 4.566-3.97 4.759-3.713 4.92-3.103 4.148-2.7 3.586-2.507 3.232" fill="#2c292a"/>
<path transform="matrix(1,0,0,-1,235.3547,282.1272)" d="M0 0C-.258-.338-.627-.813-1.109-1.423-1.334-1.198-1.575-1.005-1.832-.844-1.157-.105-.627 .667-.241 1.471 .08 1.213 .386 1.005 .675 .844 .482 .619 .257 .338 0 0M2.7 4.703C3.246 4.703 3.809 4.719 4.388 4.751V3.787C3.841 3.818 3.021 3.835 1.929 3.835V2.629C2.925 2.629 3.713 2.645 4.291 2.677V1.712C3.713 1.744 2.925 1.761 1.929 1.761V-1.182C1.929-1.664 1.776-1.985 1.471-2.147 1.165-2.307 .771-2.388 .289-2.388 .16-2.002 0-1.648-.193-1.327 .257-1.358 .57-1.358 .747-1.327 .924-1.294 1.013-1.15 1.013-.892V1.761C-.017 1.761-.82 1.744-1.398 1.712V2.677C-.788 2.645 .016 2.629 1.013 2.629V3.835C-.177 3.835-1.061 3.818-1.639 3.787V4.751C-1.061 4.719-.514 4.703 0 4.703H1.832C2.089 5.475 2.282 6.07 2.411 6.488 2.668 6.423 3.021 6.327 3.472 6.199 3.246 6.07 2.989 5.572 2.7 4.703M2.122 7.598C2.86 7.598 3.551 7.613 4.195 7.646V6.681C3.52 6.713 2.973 6.729 2.555 6.729H.241C-.306 6.729-.836 6.713-1.35 6.681V7.646C-.804 7.613-.274 7.598 .241 7.598H1.109C1.044 7.951 .948 8.321 .82 8.707 1.141 8.803 1.478 8.9 1.832 8.996 1.993 8.321 2.089 7.855 2.122 7.598M.771 5.089C.482 5.024 .209 4.928-.048 4.8-.209 5.282-.386 5.716-.579 6.102-.354 6.23-.096 6.343 .193 6.44 .417 5.989 .61 5.539 .771 5.089M4.05-.265C3.728-.427 3.472-.635 3.279-.892 3.021-.314 2.683 .249 2.266 .796 2.491 .989 2.732 1.165 2.989 1.327 3.375 .812 3.728 .281 4.05-.265M5.979 7.501V5.041H8.486C8.839 5.041 9.209 5.057 9.595 5.089V4.173C9.144 4.204 8.758 4.221 8.438 4.221V-.748C8.438-1.294 8.453-1.873 8.486-2.484H7.473C7.505-1.873 7.522-1.31 7.522-.796V4.221H5.979C5.979 3.417 5.946 2.645 5.882 1.905 5.817 1.165 5.681 .434 5.472-.289 5.263-1.013 4.95-1.761 4.532-2.533 4.211-2.34 3.889-2.178 3.568-2.05 4.082-1.31 4.443-.531 4.653 .289 4.861 1.109 4.982 1.825 5.014 2.436 5.046 3.047 5.062 3.963 5.062 5.186 5.062 6.44 5.046 7.436 5.014 8.176 6.461 8.241 7.762 8.466 8.92 8.852 9.177 8.337 9.385 7.983 9.546 7.79 9.064 7.79 7.875 7.694 5.979 7.501" fill="#2c292a"/>
<path transform="matrix(1,0,0,-1,250.2307,278.8229)" d="M0 0C-.451-.225-.916-.451-1.398-.675V-4.293C-1.367-4.679-1.479-4.969-1.736-5.161-1.993-5.354-2.507-5.515-3.279-5.644-3.343-5.322-3.472-4.969-3.664-4.583-3.022-4.614-2.628-4.559-2.483-4.414-2.338-4.269-2.266-4.1-2.266-3.907V-1.109C-2.781-1.335-3.279-1.592-3.761-1.881-3.857-1.528-4.018-1.223-4.243-.965-3.922-.901-3.263-.644-2.266-.193V2.171C-2.941 2.171-3.504 2.154-3.954 2.122V2.991C-3.504 2.958-2.941 2.943-2.266 2.943-2.266 4.1-2.283 4.952-2.314 5.499H-1.35C-1.383 5.017-1.398 4.164-1.398 2.943-1.045 2.943-.611 2.958-.096 2.991V2.122C-.611 2.154-1.045 2.171-1.398 2.171V.193C-.949 .386-.53 .611-.145 .868-.113 .643-.065 .354 0 0M.53 .917C1.205 .884 1.993 .868 2.893 .868V2.798H1.784C1.205 2.798 .723 2.781 .337 2.75V3.618C.82 3.586 1.269 3.57 1.687 3.57H2.893C2.893 4.052 2.876 4.647 2.845 5.354H3.857C3.825 4.776 3.809 4.18 3.809 3.57H5.496C5.85 3.57 6.251 3.586 6.702 3.618V2.75C6.251 2.781 5.85 2.798 5.496 2.798H3.809V.868H6.268C6.107 .225 5.85-.482 5.496-1.254 5.142-2.026 4.677-2.75 4.098-3.425 4.612-3.811 5.142-4.117 5.689-4.341 6.236-4.566 6.733-4.727 7.184-4.824 6.959-5.113 6.766-5.419 6.605-5.74 5.545-5.419 4.484-4.84 3.423-4.004 2.748-4.55 1.623-5.113 .048-5.692-.081-5.499-.322-5.193-.675-4.776-.193-4.711 .337-4.566 .916-4.341 1.495-4.117 2.105-3.811 2.748-3.425 2.008-2.364 1.478-1.19 1.157 .096H.53ZM3.423-2.798C3.713-2.541 4.009-2.139 4.315-1.592 4.62-1.045 4.87-.466 5.063 .145H2.025C2.442-1.238 2.909-2.219 3.423-2.798" fill="#2c292a"/>
<path transform="matrix(1,0,0,-1,263.5636,276.2663)" d="M0 0V.917C0 1.688-.017 2.331-.048 2.846H1.061C1.028 2.267 1.013 1.624 1.013 .917V0H4.05C4.596 0 5.191 .016 5.834 .048V-.917C5.223-.885 4.644-.868 4.098-.868H1.88C2.073-1.479 2.322-2.043 2.628-2.557 2.933-3.071 3.279-3.538 3.664-3.956 4.05-4.374 4.467-4.736 4.918-5.041 5.368-5.347 5.786-5.564 6.171-5.692 5.786-6.014 5.48-6.319 5.255-6.609 4.677-6.255 4.178-5.893 3.761-5.523 3.343-5.154 2.941-4.711 2.555-4.197 2.17-3.683 1.856-3.16 1.615-2.629 1.374-2.098 1.173-1.576 1.013-1.061V-6.367C1.013-6.85 1.028-7.412 1.061-8.056H-.048C-.017-7.412 0-6.85 0-6.367V-1.302C-.193-1.785-.418-2.284-.675-2.798-.933-3.313-1.214-3.779-1.519-4.197-1.825-4.615-2.194-5.041-2.628-5.475-3.062-5.909-3.616-6.384-4.291-6.898-4.484-6.609-4.79-6.336-5.207-6.078-4.757-5.853-4.299-5.547-3.833-5.161-3.368-4.776-2.949-4.35-2.58-3.883-2.21-3.417-1.88-2.918-1.591-2.388-1.302-1.857-1.077-1.351-.916-.868H-2.941C-3.456-.868-4.067-.885-4.773-.917V.048C-4.067 .016-3.472 0-2.989 0ZM4.098 1.978C4.323 1.72 4.58 1.382 4.87 .965 4.452 .675 4.162 .45 4.002 .289 3.68 .803 3.415 1.206 3.206 1.495 2.997 1.785 2.796 2.026 2.603 2.219L3.375 2.75C3.632 2.492 3.873 2.235 4.098 1.978" fill="#2c292a"/>
<path transform="matrix(1,0,0,-1,117.5653,274.1984)" d="M0 0C.353 0 .739 .016 1.157 .048V-.868C.707-.837 .193-.82-.386-.82V-3.57C.032-3.57 .466-3.554 .916-3.521V-4.438C.466-4.406 .032-4.39-.386-4.39V-7.236C.161-7.043 .643-6.866 1.061-6.705 1.028-7.027 1.013-7.349 1.013-7.67 .273-7.895-.386-8.112-.964-8.321-1.543-8.531-2.057-8.763-2.507-9.021-2.636-8.635-2.796-8.265-2.989-7.911-2.411-7.847-1.832-7.718-1.254-7.525V-4.39C-1.704-4.39-2.138-4.406-2.555-4.438V-3.521C-2.138-3.554-1.704-3.57-1.254-3.57V-.82C-1.768-.82-2.25-.837-2.7-.868V.048C-2.186 .016-1.784 0-1.495 0ZM6.461-2.894C7.039-2.894 7.634-2.878 8.245-2.846V-3.714C7.666-3.683 7.055-3.666 6.413-3.666H5.882V-8.731C5.882-9.021 5.995-9.173 6.22-9.189 6.444-9.205 6.67-9.214 6.895-9.214 7.152-9.214 7.312-9.093 7.377-8.852 7.441-8.611 7.489-8.233 7.522-7.718 7.811-7.911 8.164-8.056 8.582-8.152 8.421-8.86 8.261-9.358 8.1-9.648 7.939-9.937 7.618-10.082 7.136-10.082H6.075C5.335-10.082 4.966-9.712 4.966-8.972V-3.666H3.713C3.744-5.564 3.544-6.995 3.11-7.959 2.676-8.924 2.025-9.776 1.157-10.516 .836-10.13 .498-9.889 .145-9.792 1.141-9.149 1.848-8.369 2.266-7.453 2.684-6.536 2.861-5.275 2.796-3.666 2.314-3.666 1.8-3.683 1.254-3.714V-2.846C1.832-2.878 2.378-2.894 2.893-2.894ZM5.641 .241C6.316 .241 6.895 .257 7.377 .289V-.579C6.895-.547 6.332-.531 5.689-.531H3.664C3.182-.531 2.652-.547 2.073-.579V.289C2.619 .257 3.117 .241 3.568 .241Z" fill="#2c292a"/>
<path transform="matrix(1,0,0,-1,138.4199,277.7198)" d="M0 0C-.289-.258-.515-.547-.675-.868-2.861 .128-4.516 1.415-5.641 2.991-7.152 1.286-8.807-.081-10.607-1.109-10.929-.659-11.202-.386-11.427-.289-10.238 .128-9.105 .82-8.028 1.785-6.951 2.75-6.22 3.634-5.834 4.438-5.545 4.245-5.207 4.068-4.821 3.907L-5.111 3.618C-3.986 2.009-2.283 .803 0 0M-8.293-5.547C-6.171-5.483-4.532-5.419-3.375-5.354-3.664-5.033-4.098-4.615-4.677-4.1-4.452-3.907-4.227-3.698-4.002-3.473-3.552-3.891-3.118-4.301-2.7-4.703-2.283-5.106-1.801-5.596-1.254-6.174-1.479-6.367-1.752-6.609-2.073-6.898-2.363-6.48-2.604-6.19-2.796-6.03-3.536-6.061-4.733-6.126-6.388-6.223-8.044-6.319-9.113-6.432-9.595-6.56-9.756-6.142-9.884-5.82-9.98-5.596-9.467-5.435-8.856-5.025-8.148-4.366-7.442-3.707-6.943-3.168-6.654-2.75H-8.052C-8.92-2.75-9.724-2.766-10.463-2.798V-1.978C-9.691-2.01-8.904-2.026-8.1-2.026H-3.279C-2.476-2.026-1.688-2.01-.916-1.978V-2.798C-1.688-2.766-2.54-2.75-3.471-2.75H-6.364C-6.107-3.007-5.866-3.2-5.641-3.328-5.866-3.49-6.75-4.229-8.293-5.547M-4.773 .193C-4.067 .193-3.488 .209-3.038 .241V-.627C-3.52-.595-4.098-.579-4.773-.579H-6.846C-7.457-.579-7.972-.595-8.389-.627V.241C-7.972 .209-7.473 .193-6.895 .193Z" fill="#2c292a"/>
<path transform="matrix(1,0,0,-1,155.4877,281.8683)" d="M0 0C-.113-.354-.241-.764-.386-1.23-.53-1.696-.651-2.187-.747-2.701-1.165-2.444-1.535-2.267-1.856-2.171-1.471-1.495-1.198-.901-1.037-.386-.876 .128-.747 .562-.651 .917-.555 1.27-.458 1.656-.362 2.074-.041 1.881 .265 1.72 .555 1.592 .297 .884 .112 .354 0 0M-.699 3.835C-.988 4.011-1.342 4.197-1.76 4.39-1.567 4.647-1.391 4.904-1.23 5.161-.973 5-.659 4.816-.289 4.607 .08 4.397 .426 4.18 .747 3.956 .555 3.666 .377 3.408 .217 3.184-.105 3.441-.41 3.658-.699 3.835M-.096 7.694C.241 7.453 .538 7.219 .796 6.995 .538 6.705 .329 6.447 .169 6.223-.153 6.576-.699 7.026-1.471 7.573-1.278 7.831-1.085 8.072-.892 8.297-.699 8.136-.434 7.935-.096 7.694M3.447-1.447C3.544-1.383 3.592-1.254 3.592-1.061V3.232H2.531C2.531 2.653 2.499 2.082 2.435 1.52 2.37 .957 2.282 .434 2.17-.048 2.057-.531 1.896-.981 1.688-1.399 1.478-1.816 1.197-2.251 .844-2.701 .651-2.412 .377-2.187 .024-2.026 .506-1.608 .868-1.085 1.109-.458 1.35 .169 1.502 .803 1.567 1.447 1.631 2.09 1.671 2.766 1.688 3.473 1.703 4.18 1.712 4.904 1.712 5.644 1.486 5.644 1.165 5.627 .747 5.596V6.367C1.422 6.335 1.856 6.319 2.049 6.319H3.737C4.026 6.319 4.379 6.335 4.797 6.367V5.596C4.412 5.627 4.042 5.644 3.688 5.644H2.579V4.004H4.508C4.476 3.489 4.46 3.007 4.46 2.557V-1.254C4.46-1.575 4.355-1.825 4.146-2.002 3.937-2.178 3.479-2.331 2.772-2.46 2.74-2.171 2.611-1.849 2.387-1.495 2.997-1.527 3.351-1.511 3.447-1.447M3.496 7.091C3.238 6.995 2.965 6.85 2.676 6.657 2.579 6.914 2.467 7.163 2.338 7.405 2.21 7.646 2.049 7.894 1.856 8.152 2.113 8.28 2.354 8.425 2.579 8.586 3.093 7.815 3.399 7.316 3.496 7.091M5.014 5.354C5.191 5.676 5.344 6.006 5.472 6.343 5.6 6.681 5.721 7.043 5.834 7.429 5.946 7.815 6.034 8.201 6.099 8.586 6.452 8.425 6.838 8.313 7.256 8.249 7.095 8.023 6.967 7.798 6.871 7.573 6.774 7.348 6.694 7.107 6.629 6.85H7.497C8.14 6.85 8.831 6.866 9.571 6.898V6.078C8.831 6.11 8.124 6.126 7.449 6.126H6.388C6.26 5.868 6.147 5.636 6.051 5.427 5.954 5.217 5.842 4.984 5.713 4.727H9.137V3.811C8.975 3.65 8.791 3.473 8.582 3.28 8.373 3.087 8.14 2.829 7.883 2.508V1.93H8.413C8.638 1.93 9.04 1.945 9.619 1.978V1.158C9.104 1.189 8.703 1.206 8.413 1.206H7.883V-1.495C7.883-1.978 7.738-2.291 7.449-2.436 7.16-2.581 6.678-2.701 6.003-2.798 5.97-2.508 5.842-2.154 5.617-1.737 6.131-1.768 6.485-1.768 6.678-1.737 6.871-1.704 6.967-1.495 6.967-1.109V1.206H6.533C6.147 1.206 5.681 1.189 5.135 1.158V1.978C5.649 1.945 6.099 1.93 6.485 1.93H6.967C6.967 2.219 6.95 2.492 6.919 2.75 7.304 3.071 7.69 3.489 8.076 4.004H6.678L5.713 3.956V4.679C5.521 4.421 5.359 4.164 5.231 3.907 5.006 4.132 4.733 4.341 4.412 4.534 4.636 4.759 4.837 5.033 5.014 5.354" fill="#2c292a"/>
<path transform="matrix(1,0,0,-1,170.3396,274.8728)" d="M0 0C-.032-.482-.096-1.181-.193-2.097-.289-3.013-.499-4.034-.82-5.158-.145-6.188 .369-6.99 .723-7.569 .401-7.73 .112-7.923-.145-8.148-.402-7.473-.771-6.814-1.254-6.171-2.057-7.489-2.813-8.533-3.52-9.305-3.745-8.951-4.018-8.661-4.339-8.437-3.664-7.891-3.158-7.384-2.821-6.918-2.483-6.453-2.186-5.93-1.929-5.351-2.186-4.838-2.796-3.986-3.761-2.796-3.536-2.668-3.311-2.475-3.086-2.218-2.314-3.214-1.784-3.905-1.495-4.291-1.302-3.712-1.126-2.539-.964-.771H-2.314C-2.925-.771-3.52-.788-4.098-.82V.048C-3.552 .016-2.973 0-2.363 0ZM1.687 1.543C2.137 1.478 2.491 1.446 2.748 1.446 2.652 .032 2.668-1.174 2.796-2.169 4.821-1.687 6.058-1.382 6.509-1.253L6.654-2.218C6.268-2.25 5.014-2.507 2.893-2.989 3.021-4.211 3.246-5.175 3.568-5.882 4.146-4.886 4.532-4.001 4.725-3.23 4.982-3.423 5.368-3.584 5.882-3.712 5.593-4.034 5.344-4.444 5.135-4.942 4.925-5.44 4.548-6.091 4.002-6.894 4.58-7.665 5.03-8.156 5.352-8.364 5.673-8.573 5.882-8.581 5.979-8.389 6.075-8.196 6.155-7.875 6.22-7.424 6.509-7.65 6.83-7.827 7.184-7.955 6.959-8.565 6.766-9.007 6.605-9.28 6.444-9.553 6.235-9.714 5.979-9.763 5.721-9.811 5.311-9.594 4.749-9.112 4.186-8.63 3.712-8.083 3.327-7.473 2.33-8.469 1.559-9.192 1.012-9.642 .787-9.353 .482-9.112 .096-8.919 .803-8.501 1.39-8.083 1.856-7.665 2.322-7.248 2.668-6.911 2.893-6.653 2.507-5.754 2.218-4.612 2.025-3.23 1.543-3.327 .948-3.471 .241-3.664L.096-2.7C.61-2.636 1.221-2.507 1.929-2.314 1.832-1.575 1.751-.289 1.687 1.543M5.738-.386C5.48-.514 5.191-.675 4.87-.868 4.708-.643 4.355-.209 3.809 .434 4.098 .627 4.355 .82 4.58 1.012 5.126 .337 5.512-.129 5.738-.386" fill="#2c292a"/>
<path transform="matrix(1,0,0,-1,183.3028,278.515)" d="M0 0C-.113 3.586 2.701 6.401 6.173 6.401 9.644 6.401 12.459 3.586 12.459 .113 12.459-3.361 9.644-6.176 6.173-6.176 2.701-6.176-.113-3.361 0 0" fill="#ffffff"/>
<path transform="matrix(1,0,0,-1,183.3028,278.515)" stroke-width="1" stroke-linecap="butt" stroke-miterlimit="10" stroke-linejoin="miter" fill="none" stroke="#2c292a" d="M0 0C-.113 3.586 2.701 6.401 6.173 6.401 9.644 6.401 12.459 3.586 12.459 .113 12.459-3.361 9.644-6.176 6.173-6.176 2.701-6.176-.113-3.361 0 0"/>
<path transform="matrix(1,0,0,-1,183.1897,278.4024)" stroke-width="1" stroke-linecap="butt" stroke-miterlimit="8" stroke-linejoin="miter" fill="none" stroke="#2c292a" d="M0 0C0 3.473 2.814 6.289 6.286 6.289 9.757 6.289 12.572 3.473 12.572 0 12.572-3.473 9.757-6.289 6.286-6.289 2.814-6.289 0-3.473 0 0"/>
<path transform="matrix(1,0,0,-1,202.4889,322.2949)" stroke-width="1" stroke-linecap="butt" stroke-miterlimit="8" stroke-linejoin="miter" fill="none" stroke="#f43040" d="M0 0C0 3.473 2.814 6.289 6.286 6.289 9.757 6.289 12.572 3.473 12.572 0 12.572-3.473 9.757-6.289 6.286-6.289 2.814-6.289 0-3.473 0 0"/>
<path transform="matrix(1,0,0,-1,223.709,322.1318)" d="M0 0V-4.148C0-4.792 .016-5.467 .048-6.174H-.916C-.884-5.499-.868-4.824-.868-4.148V-1.158C-1.222-1.64-1.527-2.058-1.784-2.412-1.977-2.122-2.218-1.865-2.507-1.64-1.928-1.094-1.382-.427-.868 .362-.354 1.15-.016 1.768 .145 2.219 .466 1.961 .803 1.768 1.157 1.64 .868 1.351 .482 .803 0 0M-1.687 1.158C-1.945 1.447-2.17 1.672-2.362 1.833-1.174 2.926-.337 3.956 .145 4.92 .434 4.727 .755 4.55 1.109 4.39 .145 3.135-.788 2.058-1.687 1.158M5.304-1.737H6.268C6.878-1.737 7.473-1.721 8.052-1.688V-2.605C7.473-2.573 6.878-2.557 6.268-2.557H5.304V-4.631C5.721-4.792 6.292-4.88 7.015-4.896 7.739-4.913 8.309-4.904 8.727-4.872 8.502-5.193 8.357-5.547 8.293-5.933 7.329-5.901 6.565-5.837 6.003-5.74 5.44-5.644 4.894-5.458 4.364-5.186 3.833-4.913 3.23-4.422 2.555-3.714 2.234-4.711 1.864-5.531 1.446-6.174 1.221-5.885 .948-5.676 .627-5.547 1.109-4.969 1.446-4.293 1.639-3.521 1.832-2.75 1.945-1.85 1.977-.82 2.33-.917 2.684-.997 3.038-1.061 2.941-1.319 2.845-1.881 2.748-2.75 3.295-3.393 3.857-3.891 4.436-4.245V-.241H5.304ZM1.206 .048V.917C1.752 .884 2.378 .868 3.086 .868H4.339V2.508H3.327C2.748 2.508 2.218 2.492 1.736 2.46V3.328C2.218 3.296 2.748 3.28 3.327 3.28H4.339C4.339 4.02 4.323 4.55 4.291 4.872H5.255C5.223 4.583 5.207 4.052 5.207 3.28H6.316C6.895 3.28 7.441 3.296 7.955 3.328V2.46C7.473 2.492 6.943 2.508 6.365 2.508H5.207V.868H7.088C7.634 .868 8.132 .884 8.582 .917V.048C8.132 .08 7.634 .096 7.088 .096H3.086C2.378 .096 1.752 .08 1.206 .048" fill="#2c292a"/>
<path transform="matrix(1,0,0,-1,242.3458,318.9963)" d="M0 0C.45 0 .932 .016 1.446 .048V-.82C.932-.788 .45-.772 0-.772H-2.121V-2.412H.627C1.333-2.412 1.96-2.396 2.507-2.364V-3.28C1.96-3.249 1.333-3.232 .627-3.232H-6.412C-6.96-3.232-7.602-3.264-8.341-3.328V-2.364C-7.602-2.396-6.96-2.412-6.412-2.412H-5.93V-.917C-5.93-.338-5.947 .128-5.979 .482H-4.966C-4.999 .064-5.014-.403-5.014-.917V-2.412H-3.037C-3.037-.161-3.054 1.189-3.086 1.64H-2.073C-2.106 1.189-2.121 .643-2.121 0ZM-2.121-5.113V-7.332C-1.415-6.946-.756-6.448-.145-5.837 .466-5.226 .899-4.696 1.157-4.245 1.478-4.534 1.8-4.76 2.121-4.92 1.832-5.21 1.486-5.564 1.085-5.982 .683-6.4 .152-6.858-.506-7.356-1.165-7.855-2.018-8.28-3.062-8.635-4.107-8.988-5.658-9.262-7.714-9.455-7.811-9.133-8.004-8.811-8.293-8.49-7.297-8.49-6.268-8.409-5.207-8.249-4.146-8.088-3.423-7.895-3.037-7.67V-5.113C-3.037-4.631-3.054-4.117-3.086-3.57H-2.073C-2.106-4.117-2.121-4.631-2.121-5.113M-5.448-5.74C-5.834-6.159-6.412-6.722-7.184-7.429-7.442-7.172-7.683-6.963-7.907-6.802-7.297-6.352-6.742-5.845-6.244-5.282-5.746-4.72-5.384-4.277-5.159-3.956-4.902-4.181-4.597-4.39-4.243-4.583-4.661-4.937-5.062-5.323-5.448-5.74" fill="#2c292a"/>
<path transform="matrix(1,0,0,-1,251.1951,324.8813)" d="M0 0C0 .386-.017 .803-.048 1.254H.916C.884 .803 .868 .386 .868 0H3.086C3.568 0 4.066 .016 4.58 .048V-.82C4.066-.788 3.584-.772 3.134-.772H.868V-2.412H3.954C4.564-2.412 5.255-2.395 6.027-2.364V-3.28C5.223-3.248 4.548-3.232 4.002-3.232H-3.038C-3.777-3.232-4.436-3.248-5.014-3.28V-2.364C-4.404-2.395-3.713-2.412-2.941-2.412H0V-.772H-1.832C-2.733-.772-3.311-.788-3.568-.82V.048C-3.311 .016-2.733 0-1.832 0ZM-3.423 5.499V3.135C-3.423 2.588-3.407 2.058-3.375 1.544H-4.388C-4.356 2.09-4.339 2.621-4.339 3.135V5.499C-4.339 6.013-4.356 6.512-4.388 6.995H-3.375C-3.407 6.544-3.423 6.046-3.423 5.499M-1.302 5.837V3.039C-1.302 2.364-1.286 1.737-1.254 1.158H-2.218C-2.186 1.737-2.17 2.364-2.17 3.039V5.837C-2.17 6.416-2.186 6.962-2.218 7.477H-1.254C-1.286 6.93-1.302 6.383-1.302 5.837M5.255 6.802C4.998 6.126 4.668 5.467 4.267 4.824 3.865 4.18 3.487 3.682 3.134 3.328 4.002 2.653 4.918 2.187 5.882 1.93 5.593 1.704 5.335 1.415 5.111 1.061 4.114 1.544 3.246 2.106 2.507 2.75 2.057 2.395 1.574 2.09 1.061 1.833 .546 1.575 .064 1.367-.386 1.206-.547 1.527-.74 1.801-.964 2.026-.451 2.122 .04 2.275 .506 2.484 .972 2.693 1.43 2.958 1.88 3.28 1.237 3.891 .658 4.824 .144 6.078-.145 6.046-.434 6.03-.723 6.03V6.85C-.113 6.818 .61 6.802 1.446 6.802ZM1.012 6.078C1.398 5.145 1.896 4.406 2.507 3.859 3.053 4.341 3.536 5.081 3.954 6.078H1.446Z" fill="#2c292a"/>
<path transform="matrix(1,0,0,-1,260.3815,318.6104)" d="M0 0C0 .45-.017 .852-.048 1.206H1.012C.948 .82 .916 .386 .916-.096V-1.206C1.462-1.206 1.929-1.19 2.314-1.158V-2.122C1.832-2.091 1.366-2.074 .916-2.074V-4.1C1.333-3.94 1.736-3.763 2.121-3.57 2.121-3.924 2.137-4.213 2.17-4.438 1.623-4.663 1.205-4.872 .916-5.065V-8.49C.916-8.94 .779-9.254 .506-9.431 .233-9.607-.273-9.728-1.013-9.792-1.077-9.471-1.206-9.117-1.398-8.731-.723-8.731-.322-8.707-.193-8.659-.065-8.611 0-8.442 0-8.152V-5.451C-.225-5.547-.451-5.652-.675-5.764-.9-5.878-1.19-6.046-1.543-6.271-1.639-6.014-1.801-5.66-2.025-5.21-1.029-4.889-.354-4.647 0-4.486V-2.074C-.643-2.074-1.238-2.091-1.784-2.122V-1.158C-1.302-1.19-.707-1.206 0-1.206ZM5.062-2.846V-1.206H4.339C3.696-1.206 3.182-1.223 2.796-1.254V-.434C3.31-.466 3.825-.482 4.339-.482H5.062C5.062 .321 5.046 .917 5.014 1.302H6.027C5.994 .917 5.979 .321 5.979-.482H6.943C7.457-.482 7.955-.466 8.437-.434V-1.254C7.955-1.223 7.457-1.206 6.943-1.206H5.979V-2.846H7.762C8.405-2.846 8.92-2.83 9.305-2.798V-3.666C8.855-3.634 8.373-3.618 7.859-3.618H7.473V-5.017H7.811C8.357-5.017 8.807-5.001 9.161-4.969V-5.837C8.743-5.805 8.293-5.789 7.811-5.789H7.473V-8.538C7.473-9.085 7.32-9.431 7.015-9.575 6.709-9.72 6.203-9.808 5.496-9.841 5.464-9.551 5.335-9.197 5.111-8.779 5.689-8.811 6.075-8.803 6.268-8.755 6.461-8.707 6.557-8.522 6.557-8.201V-5.789H3.713C3.262-5.789 2.828-5.805 2.411-5.837V-4.969C2.796-5.001 3.23-5.017 3.713-5.017H6.557V-3.618H3.568C3.246-3.618 2.812-3.634 2.266-3.666V-2.798C2.683-2.83 3.069-2.846 3.423-2.846ZM4.821-8.008C4.5-8.233 4.21-8.426 3.953-8.586 3.632-7.911 3.262-7.284 2.845-6.705 3.069-6.577 3.343-6.4 3.664-6.174 4.21-6.915 4.596-7.525 4.821-8.008" fill="#2c292a"/>
<path transform="matrix(1,0,0,-1,274.1726,324.1337)" d="M0 0C-.048-.21-.089-.555-.121-1.037 .555-1.809 1.213-2.324 1.856-2.581V1.809H-1.23C-1.744 1.809-2.355 1.792-3.062 1.761V2.677C-2.355 2.645-.716 2.629 1.856 2.629V4.366C.185 4.366-.973 4.349-1.615 4.317V5.234C-.973 5.202 .185 5.186 1.856 5.186 1.856 5.636 1.84 6.166 1.808 6.777H2.821C2.788 6.263 2.772 5.732 2.772 5.186 4.701 5.186 5.97 5.202 6.581 5.234V4.317C5.97 4.349 4.701 4.366 2.772 4.366V2.629C5.279 2.629 6.822 2.645 7.401 2.677V1.761C6.822 1.792 5.279 1.809 2.772 1.809V.169C4.701 .169 5.954 .185 6.533 .217V-.699C5.954-.668 4.701-.651 2.772-.651V-2.822C3.318-2.918 4.154-2.951 5.279-2.918 6.404-2.887 7.288-2.839 7.931-2.774 7.674-3.127 7.497-3.497 7.401-3.883H4.797C3.833-3.883 3.126-3.835 2.676-3.738 2.225-3.642 1.719-3.457 1.157-3.184 .594-2.911 .072-2.501-.41-1.954-.764-2.854-1.358-3.642-2.194-4.317-2.452-4.06-2.757-3.867-3.11-3.738-2.275-3.191-1.728-2.661-1.471-2.147-1.214-1.633-1.053-1.094-.988-.531-.924 .032-.892 .538-.892 .989-.475 .892-.105 .844 .217 .844 .12 .49 .048 .209 0 0" fill="#2c292a"/>
<path transform="matrix(1,0,0,-1,292.6406,322.85533)" d="M0 0C.61 0 1.189 .016 1.736 .048V-.868C1.189-.837 .61-.82 0-.82H-2.073V-3.859C-2.073-4.148-1.953-4.301-1.712-4.317-1.471-4.334-1.141-4.341-.723-4.341-.274-4.341 .04-4.293 .217-4.197 .393-4.1 .514-3.714 .578-3.039 1.028-3.297 1.43-3.457 1.784-3.521 1.591-4.165 1.374-4.599 1.133-4.824 .892-5.048 .627-5.177 .337-5.21H-2.073C-2.748-5.177-3.086-4.872-3.086-4.293V-.82H-4.822C-4.854-1.592-4.999-2.299-5.255-2.943-5.513-3.586-5.963-4.148-6.605-4.631-7.249-5.113-7.892-5.467-8.534-5.692-8.792-5.37-9.081-5.081-9.402-4.824-8.534-4.566-7.859-4.269-7.377-3.931-6.895-3.594-6.55-3.216-6.34-2.798-6.132-2.38-5.979-1.721-5.882-.82H-7.377C-8.084-.82-8.695-.837-9.209-.868V.048C-8.663 .016-8.052 0-7.377 0ZM-4.002 5.837C-3.585 5.29-3.263 4.792-3.038 4.341H1.494C1.43 3.891 1.398 3.473 1.398 3.087 1.398 2.733 1.43 2.38 1.494 2.026H.434V3.521H-7.907V2.026H-9.016C-8.985 2.444-8.968 2.846-8.968 3.232-8.968 3.618-8.985 3.987-9.016 4.341H-4.243C-4.372 4.566-4.58 4.888-4.87 5.306-4.645 5.434-4.356 5.612-4.002 5.837M-2.363 2.171C-1.752 2.171-1.174 2.187-.627 2.219V1.254C-1.174 1.286-1.752 1.302-2.363 1.302H-5.352C-5.963 1.302-6.557 1.286-7.136 1.254V2.219C-6.557 2.187-5.963 2.171-5.352 2.171Z" fill="#2c292a"/>
<path transform="matrix(1,0,0,-1,106.5447,322.1955)" d="M0 0V-4.148C0-4.792 .016-5.467 .048-6.174H-.916C-.884-5.499-.868-4.824-.868-4.148V-1.158C-1.222-1.64-1.527-2.058-1.784-2.412-1.977-2.122-2.218-1.865-2.507-1.64-1.929-1.094-1.382-.427-.868 .362-.354 1.15-.017 1.768 .145 2.219 .466 1.961 .803 1.768 1.157 1.64 .868 1.351 .482 .803 0 0M-1.688 1.158C-1.945 1.447-2.17 1.672-2.363 1.833-1.174 2.926-.338 3.956 .145 4.92 .434 4.727 .755 4.55 1.109 4.39 .145 3.135-.788 2.058-1.688 1.158M5.304-1.737H6.268C6.878-1.737 7.473-1.721 8.052-1.688V-2.605C7.473-2.573 6.878-2.557 6.268-2.557H5.304V-4.631C5.721-4.792 6.292-4.88 7.015-4.896 7.738-4.913 8.309-4.904 8.727-4.872 8.502-5.193 8.357-5.547 8.293-5.933 7.329-5.901 6.565-5.837 6.003-5.74 5.44-5.644 4.894-5.458 4.363-5.186 3.833-4.913 3.23-4.422 2.555-3.714 2.234-4.711 1.864-5.531 1.446-6.174 1.221-5.885 .948-5.676 .627-5.547 1.109-4.969 1.446-4.293 1.639-3.521 1.832-2.75 1.944-1.85 1.977-.82 2.33-.917 2.683-.997 3.038-1.061 2.941-1.319 2.845-1.881 2.748-2.75 3.294-3.393 3.857-3.891 4.436-4.245V-.241H5.304ZM1.205 .048V.917C1.751 .884 2.378 .868 3.086 .868H4.339V2.508H3.327C2.748 2.508 2.218 2.492 1.736 2.46V3.328C2.218 3.296 2.748 3.28 3.327 3.28H4.339C4.339 4.02 4.323 4.55 4.291 4.872H5.255C5.223 4.583 5.207 4.052 5.207 3.28H6.316C6.895 3.28 7.441 3.296 7.955 3.328V2.46C7.473 2.492 6.943 2.508 6.364 2.508H5.207V.868H7.088C7.634 .868 8.132 .884 8.582 .917V.048C8.132 .08 7.634 .096 7.088 .096H3.086C2.378 .096 1.751 .08 1.205 .048" fill="#2c292a"/>
<path transform="matrix(1,0,0,-1,125.1814,319.06)" d="M0 0C.45 0 .932 .016 1.446 .048V-.82C.932-.788 .45-.772 0-.772H-2.121V-2.412H.627C1.333-2.412 1.96-2.396 2.507-2.364V-3.28C1.96-3.249 1.333-3.232 .627-3.232H-6.413C-6.96-3.232-7.602-3.264-8.341-3.328V-2.364C-7.602-2.396-6.96-2.412-6.413-2.412H-5.93V-.917C-5.93-.338-5.947 .128-5.979 .482H-4.966C-4.998 .064-5.014-.403-5.014-.917V-2.412H-3.038C-3.038-.161-3.054 1.189-3.086 1.64H-2.073C-2.106 1.189-2.121 .643-2.121 0ZM-2.121-5.113V-7.332C-1.415-6.946-.756-6.448-.145-5.837 .466-5.226 .899-4.696 1.157-4.245 1.478-4.534 1.8-4.76 2.121-4.92 1.832-5.21 1.486-5.564 1.085-5.982 .682-6.4 .152-6.858-.506-7.356-1.165-7.855-2.017-8.28-3.062-8.635-4.107-8.988-5.658-9.262-7.714-9.455-7.811-9.133-8.004-8.811-8.293-8.49-7.297-8.49-6.268-8.409-5.207-8.249-4.146-8.088-3.423-7.895-3.038-7.67V-5.113C-3.038-4.631-3.054-4.117-3.086-3.57H-2.073C-2.106-4.117-2.121-4.631-2.121-5.113M-5.448-5.74C-5.834-6.159-6.413-6.722-7.184-7.429-7.442-7.172-7.683-6.963-7.907-6.802-7.297-6.352-6.743-5.845-6.244-5.282-5.746-4.72-5.384-4.277-5.159-3.956-4.902-4.181-4.597-4.39-4.243-4.583-4.661-4.937-5.063-5.323-5.448-5.74" fill="#2c292a"/>
<path transform="matrix(1,0,0,-1,132.1741,324.1974)" d="M0 0C-.048-.21-.089-.555-.12-1.037 .555-1.809 1.213-2.324 1.856-2.581V1.809H-1.229C-1.744 1.809-2.355 1.792-3.062 1.761V2.677C-2.355 2.645-.716 2.629 1.856 2.629V4.366C.185 4.366-.973 4.349-1.615 4.317V5.234C-.973 5.202 .185 5.186 1.856 5.186 1.856 5.636 1.84 6.166 1.808 6.777H2.821C2.788 6.263 2.772 5.732 2.772 5.186 4.701 5.186 5.97 5.202 6.581 5.234V4.317C5.97 4.349 4.701 4.366 2.772 4.366V2.629C5.28 2.629 6.822 2.645 7.401 2.677V1.761C6.822 1.792 5.28 1.809 2.772 1.809V.169C4.701 .169 5.955 .185 6.533 .217V-.699C5.955-.668 4.701-.651 2.772-.651V-2.822C3.319-2.918 4.154-2.951 5.28-2.918 6.404-2.887 7.288-2.839 7.931-2.774 7.674-3.127 7.497-3.497 7.401-3.883H4.797C3.833-3.883 3.126-3.835 2.676-3.738 2.225-3.642 1.719-3.457 1.157-3.184 .594-2.911 .072-2.501-.41-1.954-.764-2.854-1.358-3.642-2.194-4.317-2.451-4.06-2.757-3.867-3.11-3.738-2.274-3.191-1.728-2.661-1.47-2.147-1.214-1.633-1.053-1.094-.988-.531-.924 .032-.892 .538-.892 .989-.475 .892-.105 .844 .217 .844 .121 .49 .048 .209 0 0" fill="#2c292a"/>
<path transform="matrix(1,0,0,-1,152.2814,318.6741)" d="M0 0C-.579 .032-1.077 .048-1.495 .048H-4.339C-4.565-.403-4.838-.901-5.159-1.447V-7.477C-5.159-8.121-5.143-8.844-5.111-9.648H-6.171C-6.14-8.876-6.123-8.152-6.123-7.477V-2.75C-7.12-4.133-8.47-5.403-10.173-6.56-10.431-6.175-10.672-5.902-10.897-5.74-10.254-5.451-9.402-4.832-8.341-3.883-7.28-2.935-6.3-1.624-5.4 .048H-8.582C-9.193 .048-9.836 .032-10.511 0V.965C-9.547 .932-8.807 .917-8.293 .917H-1.543C-1.126 .917-.611 .932 0 .965ZM-4.291-2.846C-4.034-2.621-3.826-2.396-3.664-2.171-2.893-2.878-2.234-3.497-1.688-4.028-1.141-4.559-.627-5.082-.145-5.596-.466-5.853-.756-6.126-1.013-6.416-1.624-5.644-2.717-4.455-4.291-2.846" fill="#2c292a"/>
<path transform="matrix(1,0,0,-1,162.818,318.1917)" d="M0 0C.61 0 1.237 .016 1.88 .048V-.965C1.173-.933 .546-.917 0-.917H-3.327V-8.345C-3.327-8.763-3.311-9.293-3.279-9.937H-4.388C-4.356-9.358-4.339-8.828-4.339-8.345V-.917H-6.991C-7.634-.917-8.261-.933-8.871-.965V.048C-8.261 .016-7.634 0-6.991 0ZM.386-7.139C-.129-6.464-1.126-5.451-2.603-4.1L-1.88-3.377C-1.012-4.084 .032-5.082 1.254-6.367 .932-6.593 .643-6.85 .386-7.139" fill="#2c292a"/>
<path transform="matrix(1,0,0,-1,170.8475,325.2586)" d="M0 0C-.418-.531-1.029-1.182-1.832-1.954-.9-1.857-.032-1.769 .771-1.688 1.575-1.608 2.459-1.504 3.423-1.375 2.716-.539 2.218-.008 1.929 .217 2.218 .345 2.523 .538 2.845 .796 3.23 .378 3.68-.129 4.195-.724 4.708-1.319 5.255-1.922 5.834-2.533 5.448-2.725 5.094-2.934 4.773-3.16 4.516-2.774 4.226-2.404 3.905-2.05 1.688-2.275 .088-2.476-.892-2.653-1.873-2.829-2.572-2.998-2.989-3.16-3.118-2.805-3.295-2.419-3.52-2.002-3.134-1.905-2.548-1.455-1.76-.651-.973 .152-.418 .972-.096 1.809H-2.459C-3.359 1.809-4.131 1.792-4.773 1.761V2.629C-4.098 2.597-3.327 2.581-2.459 2.581H.482V4.848H-1.254C-2.057 4.848-2.765 4.831-3.375 4.8V5.668C-2.765 5.636-2.073 5.62-1.302 5.62H.482V6.585C.482 7.067 .466 7.533 .434 7.983H1.591C1.526 7.565 1.495 7.131 1.495 6.681V5.62H2.941C3.744 5.62 4.5 5.636 5.207 5.668V4.8C4.5 4.831 3.761 4.848 2.989 4.848H1.495V2.581H4.436C5.207 2.581 5.946 2.597 6.654 2.629V1.761C5.946 1.792 5.207 1.809 4.436 1.809H.241C.594 1.551 .9 1.327 1.157 1.134 .803 .908 .417 .531 0 0" fill="#2c292a"/>
<path transform="matrix(1,0,0,-1,183.3028,322.319)" d="M0 0C-.113 3.497 2.701 6.313 6.173 6.313 9.644 6.313 12.459 3.497 12.459 .024 12.459-3.449 9.644-6.265 6.173-6.265 2.701-6.265-.113-3.449 0 0" fill="#ffffff"/>
<path transform="matrix(1,0,0,-1,183.3028,322.319)" stroke-width="1" stroke-linecap="butt" stroke-miterlimit="10" stroke-linejoin="miter" fill="none" stroke="#2c292a" d="M0 0C-.113 3.497 2.701 6.313 6.173 6.313 9.644 6.313 12.459 3.497 12.459 .024 12.459-3.449 9.644-6.265 6.173-6.265 2.701-6.265-.113-3.449 0 0"/>
<path transform="matrix(1,0,0,-1,183.1897,322.2949)" stroke-width="1" stroke-linecap="butt" stroke-miterlimit="8" stroke-linejoin="miter" fill="none" stroke="#2c292a" d="M0 0C0 3.473 2.814 6.289 6.286 6.289 9.757 6.289 12.572 3.473 12.572 0 12.572-3.473 9.757-6.289 6.286-6.289 2.814-6.289 0-3.473 0 0"/>
<path transform="matrix(1,0,0,-1,202.4889,300.5967)" stroke-width="1" stroke-linecap="butt" stroke-miterlimit="8" stroke-linejoin="miter" fill="none" stroke="#f43040" d="M0 0C0 3.473 2.814 6.289 6.286 6.289 9.757 6.289 12.572 3.473 12.572 0 12.572-3.473 9.757-6.289 6.286-6.289 2.814-6.289 0-3.473 0 0"/>
<path transform="matrix(1,0,0,-1,226.2163,297.4911)" d="M0 0C0 .965-.017 1.656-.048 2.074H1.013C.98 1.688 .964 .996 .964 0H3.086C3.696 0 4.275 .016 4.822 .048V-.82C4.275-.788 3.696-.772 3.086-.772H.964V-2.701H3.809C4.516-2.701 5.175-2.685 5.786-2.653V-3.521C5.175-3.49 4.532-3.473 3.857-3.473H1.543C2.121-4.341 2.756-5.089 3.447-5.716 4.138-6.343 5.111-6.834 6.364-7.187 5.946-7.38 5.657-7.718 5.496-8.201 4.629-7.879 3.816-7.397 3.062-6.753 2.306-6.11 1.607-5.21 .964-4.052V-7.429C.964-8.039 .98-8.602 1.013-9.117H-.096C-.032-8.602 0-8.039 0-7.429V-3.907C-.771-5.161-1.527-6.11-2.266-6.753-3.006-7.397-3.664-7.911-4.243-8.297-4.372-8.008-4.661-7.718-5.111-7.429-4.565-7.236-3.865-6.786-3.013-6.078-2.162-5.371-1.415-4.503-.771-3.473H-3.182C-3.89-3.473-4.436-3.49-4.822-3.521V-2.653C-4.339-2.685-3.761-2.701-3.086-2.701H0V-.772H-2.025C-2.796-.772-3.423-.788-3.905-.82V.048C-3.423 .016-2.829 0-2.121 0Z" fill="#2c292a"/>
<path transform="matrix(1,0,0,-1,239.7423,295.6098)" d="M0 0C-.033-.322-.048-.659-.048-1.013V-1.592H2.844C3.23-1.592 3.648-1.576 4.098-1.544V-2.508C3.648-2.444 3.23-2.412 2.844-2.412H-.048V-5.21H3.279C3.761-5.21 4.291-5.194 4.87-5.161V-6.078C4.323-6.046 3.792-6.03 3.279-6.03H.771C.996-6.352 1.269-6.657 1.591-6.946 1.912-7.236 2.258-7.518 2.628-7.79 2.997-8.064 3.406-8.297 3.857-8.49 4.307-8.683 4.741-8.828 5.159-8.924 4.837-9.214 4.629-9.439 4.532-9.599 4.436-9.761 4.371-9.905 4.339-10.034 3.664-9.744 3.11-9.447 2.676-9.141 2.242-8.836 1.84-8.507 1.47-8.152 1.101-7.799 .787-7.461 .53-7.139 .273-6.818 .08-6.512-.048-6.223V-8.972C-.048-9.487-.033-10.098 0-10.805H-1.109C-1.045-10.098-1.013-9.487-1.013-8.972V-6.126C-1.688-7.188-2.395-8.048-3.134-8.707-3.874-9.366-4.549-9.873-5.159-10.227-5.352-9.937-5.641-9.648-6.027-9.358-4.87-8.844-3.938-8.225-3.23-7.501-2.524-6.777-2.106-6.288-1.977-6.03H-4.484C-4.87-6.03-5.32-6.062-5.834-6.126V-5.161C-5.32-5.194-4.87-5.21-4.484-5.21H-1.013V-2.412H-3.761C-4.308-2.412-4.773-2.444-5.159-2.508V-1.544C-4.773-1.576-4.323-1.592-3.809-1.592H-1.013V-.965C-1.077-.611-1.109-.289-1.109 0ZM-2.025-4.583C-2.314-4.711-2.588-4.856-2.845-5.017-3.134-4.438-3.504-3.859-3.954-3.28-3.729-3.12-3.504-2.943-3.279-2.75-2.765-3.328-2.347-3.94-2.025-4.583M1.736-5.065C1.446-4.937 1.173-4.824 .916-4.727 1.43-3.795 1.816-3.12 2.073-2.701 2.362-2.798 2.635-2.943 2.893-3.135 2.571-3.683 2.185-4.326 1.736-5.065" fill="#2c292a"/>
<path transform="matrix(1,0,0,-1,248.8808,297.877)" d="M0 0H2.17C2.137-.547 2.121-1.238 2.121-2.074V-6.319C2.121-6.802 2.137-7.494 2.17-8.393H1.205V-7.429H-1.254V-8.49H-2.218C-2.186-7.461-2.17-6.818-2.17-6.56V-2.122C-2.17-1.254-2.186-.547-2.218 0H-.82C-.659 .74-.53 1.511-.434 2.315 .016 2.154 .386 2.042 .675 1.978 .514 1.688 .289 1.029 0 0M1.205-.82H-1.2540001V-3.2319999H1.205ZM1.205-4.052H-1.2540001V-6.609H1.205ZM7.618-7.284C7.553-7.863 7.248-8.249 6.702-8.442 6.155-8.635 5.545-8.763 4.87-8.828 4.837-8.473 4.693-8.104 4.436-7.718 5.078-7.75 5.584-7.734 5.954-7.67 6.324-7.606 6.557-7.461 6.653-7.236 6.75-7.011 6.822-6.352 6.871-5.258 6.919-4.165 6.959-2.637 6.991-.675H4.195C3.937-1.286 3.568-2.01 3.086-2.846 2.86-2.621 2.587-2.444 2.266-2.315 2.555-1.93 2.828-1.464 3.086-.917 3.343-.37 3.568 .225 3.761 .868 3.953 1.511 4.066 2.009 4.098 2.364 4.548 2.171 4.934 2.026 5.255 1.93 5.094 1.672 4.958 1.391 4.845 1.085 4.733 .779 4.612 .482 4.484 .193H7.907C7.875-.482 7.859-1.109 7.859-1.688 7.826-3.65 7.746-5.516 7.618-7.284M5.014-3.666C5.207-4.052 5.432-4.551 5.689-5.161 5.464-5.258 5.159-5.419 4.773-5.644 4.548-5.033 4.339-4.51 4.146-4.076 3.953-3.642 3.761-3.28 3.568-2.991 3.792-2.863 4.082-2.701 4.436-2.508Z" fill="#2c292a"/>
<path transform="matrix(1,0,0,-1,259.7064,298.8418)" d="M0 0V-3.618L1.639-3.328V1.881C1.639 2.331 1.623 2.798 1.591 3.28H2.556C2.523 2.894 2.507 2.444 2.507 1.93V-6.078C2.507-6.529 2.523-7.074 2.556-7.718H1.591C1.623-7.043 1.639-6.464 1.639-5.982V-4.052C.16-4.438-.659-4.711-.82-4.872-.981-4.615-1.157-4.341-1.35-4.052-1.061-3.891-.916-3.602-.916-3.184V.241C-.916 .691-.933 1.141-.964 1.592H.096C.032 1.174 0 .643 0 0M5.448 1.158H8.148C8.823 1.158 9.45 1.174 10.029 1.206V.289C9.45 .321 8.92 .338 8.438 .338 8.341-.949 8.164-2.01 7.907-2.846 7.65-3.683 7.36-4.374 7.039-4.92 7.457-5.435 7.915-5.837 8.414-6.126 8.911-6.416 9.498-6.641 10.173-6.802 9.788-7.059 9.53-7.364 9.402-7.718 8.758-7.46 8.212-7.171 7.763-6.85 7.312-6.529 6.878-6.126 6.461-5.644 5.85-6.319 4.885-7.059 3.568-7.863 3.407-7.605 3.102-7.348 2.652-7.091 3.905-6.609 4.966-5.869 5.834-4.872 5.609-4.358 5.392-3.803 5.183-3.208 4.974-2.613 4.741-1.833 4.484-.868 4.13-1.576 3.857-2.043 3.664-2.267 3.439-2.107 3.182-1.946 2.893-1.785 3.343-1.142 3.801-.298 4.267 .748 4.733 1.792 5.046 2.701 5.207 3.473 5.593 3.312 5.995 3.184 6.413 3.087 6.251 2.829 5.93 2.187 5.448 1.158M5.4-.579C5.496-1.158 5.649-1.761 5.858-2.388 6.067-3.015 6.284-3.554 6.509-4.004 7.055-3.007 7.393-1.56 7.522 .338H5.111C4.885-.113 4.708-.451 4.58-.675Z" fill="#2c292a"/>
<path transform="matrix(1,0,0,-1,274.2209,300.699)" d="M0 0C-.53-.37-1.037-.699-1.519-.989H6.292C6.26-1.504 6.244-2.131 6.244-2.87V-4.896C6.95-4.896 7.545-4.88 8.028-4.848V-5.813C7.449-5.78 6.854-5.764 6.244-5.764H-1.326C-2.13-5.764-2.821-5.78-3.399-5.813V-4.848C-2.949-4.88-2.355-4.896-1.615-4.896V-2.774C-1.615-2.098-1.632-1.536-1.664-1.085-1.856-1.247-2.082-1.391-2.338-1.52-2.531-1.198-2.772-.925-3.062-.699-2.58-.506-2.009-.201-1.35 .217-.692 .635-.041 1.15 .603 1.761 .892 1.439 1.213 1.134 1.567 .844 1.052 .651 .53 .369 0 0M4.725 4.148C4.58 3.811 4.395 3.449 4.171 3.063H5.038C5.97 3.063 6.79 3.079 7.497 3.111V2.195C6.79 2.227 5.97 2.243 5.038 2.243H-.072C-.876 2.243-1.792 2.227-2.821 2.195V3.111C-2.018 3.079-1.102 3.063-.072 3.063H3.206C3.334 3.353 3.471 3.706 3.616 4.124 3.761 4.542 3.913 4.944 4.074 5.33L5.231 4.944C5.038 4.751 4.87 4.486 4.725 4.148M.699-1.761H-.747V-4.896H.699ZM1.229 3.594C.94 3.497 .618 3.353 .265 3.16 .008 3.835-.298 4.414-.651 4.896-.394 4.993-.089 5.137 .265 5.33 .554 4.912 .875 4.333 1.229 3.594M3.062-1.761H1.519V-4.896H3.062ZM5.569 .844C6.244 .555 6.886 .281 7.497 .024 7.24-.234 7.015-.555 6.822-.941 6.147-.555 5.48-.21 4.821 .096 4.162 .402 3.592 .635 3.11 .796 3.27 1.021 3.447 1.31 3.64 1.664 4.25 1.406 4.894 1.134 5.569 .844M5.376-1.761H3.881V-4.896H5.376ZM5.376-4.896" fill="#2c292a"/>
<path transform="matrix(1,0,0,-1,122.5844,296.2042)" d="M0 0C1.575-2.251 3.294-3.747 5.159-4.486 4.837-4.776 4.58-5.097 4.387-5.451 2.427-4.293 .803-2.685-.482-.627-1.608-2.396-3.215-4.02-5.304-5.499-5.496-5.178-5.754-4.92-6.075-4.727-4.983-4.181-3.946-3.409-2.965-2.412-1.985-1.415-1.27-.338-.82 .82-.53 .691-.177 .547 .241 .386ZM3.471-5.692V-6.512C3.246-6.609 2.716-7.212 1.88-8.321 1.044-9.431 .482-10.275 .193-10.854 .064-10.725-.225-10.499-.675-10.178-.161-9.535 .707-8.329 1.929-6.56H-2.7C-3.311-6.56-3.745-6.577-4.002-6.609V-5.644C-3.745-5.676-3.295-5.692-2.652-5.692ZM.579-4.631C.289-4.824 0-5.049-.289-5.306-.771-4.534-1.254-3.924-1.736-3.473-1.382-3.184-1.141-2.959-1.012-2.798-.37-3.538 .161-4.148 .579-4.631" fill="#2c292a"/>
<path transform="matrix(1,0,0,-1,136.9783,296.1077)" d="M0 0C.579 0 1.157 .016 1.736 .048V-.965C1.157-.933 .579-.917 0-.917H-1.977V-3.521H1.109C1.719-3.521 2.266-3.505 2.748-3.473V-4.486C2.298-4.455 1.767-4.438 1.157-4.438H-1.832C-1.382-5.66-.74-6.705 .096-7.573 .932-8.442 2.008-9.037 3.327-9.358 2.876-9.712 2.604-10.034 2.507-10.323 1.51-9.969 .594-9.415-.241-8.659-1.077-7.904-1.801-6.818-2.411-5.403-2.796-6.722-3.407-7.775-4.243-8.562-5.079-9.351-6.123-10.017-7.377-10.564-7.506-10.242-7.779-9.937-8.197-9.648-7.265-9.391-6.285-8.852-5.255-8.032-4.227-7.212-3.504-6.014-3.086-4.438H-5.738C-6.445-4.438-7.039-4.455-7.522-4.486V-3.473C-7.008-3.505-6.413-3.521-5.738-3.521H-2.941V-.917H-4.966C-5.641-.917-6.22-.933-6.702-.965V.048C-6.188 .016-5.61 0-4.966 0Z" fill="#2c292a"/>
<path transform="matrix(1,0,0,-1,144.1397,297.9407)" d="M0 0H2.17C2.137-.547 2.121-1.238 2.121-2.074V-6.319C2.121-6.802 2.137-7.494 2.17-8.393H1.205V-7.429H-1.254V-8.49H-2.218C-2.186-7.461-2.17-6.818-2.17-6.56V-2.122C-2.17-1.254-2.186-.547-2.218 0H-.82C-.659 .74-.53 1.511-.434 2.315 .016 2.154 .386 2.042 .675 1.978 .514 1.688 .289 1.029 0 0M1.205-.82H-1.2540001V-3.2319999H1.205ZM1.205-4.052H-1.2540001V-6.609H1.205ZM7.618-7.284C7.553-7.863 7.248-8.249 6.702-8.442 6.155-8.635 5.545-8.763 4.87-8.828 4.837-8.473 4.693-8.104 4.436-7.718 5.078-7.75 5.585-7.734 5.955-7.67 6.324-7.606 6.557-7.461 6.654-7.236 6.75-7.011 6.822-6.352 6.871-5.258 6.919-4.165 6.959-2.637 6.991-.675H4.195C3.937-1.286 3.568-2.01 3.086-2.846 2.861-2.621 2.587-2.444 2.266-2.315 2.555-1.93 2.828-1.464 3.086-.917 3.343-.37 3.568 .225 3.761 .868 3.954 1.511 4.066 2.009 4.098 2.364 4.548 2.171 4.934 2.026 5.255 1.93 5.094 1.672 4.958 1.391 4.846 1.085 4.733 .779 4.612 .482 4.484 .193H7.907C7.875-.482 7.859-1.109 7.859-1.688 7.827-3.65 7.746-5.516 7.618-7.284M5.014-3.666C5.207-4.052 5.432-4.551 5.689-5.161 5.464-5.258 5.159-5.419 4.773-5.644 4.548-5.033 4.339-4.51 4.146-4.076 3.954-3.642 3.761-3.28 3.568-2.991 3.792-2.863 4.082-2.701 4.436-2.508Z" fill="#2c292a"/>
<path transform="matrix(1,0,0,-1,154.5318,301.7033)" d="M0 0C-.322 .064-.627 .128-.916 .193-.692 .803-.499 1.897-.337 3.473-.081 3.441 .224 3.393 .579 3.328 .386 1.849 .193 .74 0 0M1.784 4.341V-2.508C1.784-3.313 1.8-4.148 1.832-5.017H.868C.9-4.148 .916-3.313 .916-2.508V4.341C.916 5.017 .9 5.612 .868 6.126H1.832C1.8 5.644 1.784 5.048 1.784 4.341M3.616 1.447C3.487 1.415 3.214 1.318 2.796 1.158 2.635 1.865 2.363 2.669 1.977 3.57 2.298 3.666 2.539 3.779 2.7 3.907 3.15 2.91 3.455 2.09 3.616 1.447M5.496 6.126C5.786 6.094 6.139 6.078 6.557 6.078 6.428 5.306 6.38 4.566 6.412 3.859H9.016C8.984 3.28 8.968 2.781 8.968 2.364V.434C9.257 .434 9.707 .45 10.318 .482V-.338C9.611-.306 8.887-.289 8.148-.289H6.895C7.344-1.19 7.891-1.97 8.534-2.629 9.177-3.288 9.836-3.811 10.511-4.197 10.157-4.518 9.916-4.792 9.788-5.017 9.113-4.502 8.598-4.052 8.245-3.666 7.891-3.28 7.546-2.839 7.208-2.34 6.871-1.841 6.541-1.271 6.22-.627 5.962-1.592 5.552-2.429 4.99-3.135 4.427-3.843 3.777-4.47 3.038-5.017 2.845-4.759 2.587-4.518 2.266-4.293 2.973-3.907 3.544-3.473 3.978-2.991 4.412-2.508 4.749-2.026 4.99-1.544 5.231-1.061 5.368-.644 5.4-.289 4.66-.289 3.841-.306 2.941-.338V.482C3.873 .45 4.741 .434 5.545 .434V3.135C4.805 3.135 4.13 3.119 3.52 3.087V3.907C4.226 3.875 4.901 3.859 5.545 3.859 5.545 4.502 5.528 5.258 5.496 6.126M8.1 3.135H6.4120008V.43400003H8.1ZM8.1 .434" fill="#2c292a"/>
<path transform="matrix(1,0,0,-1,176.6398,303.4158)" d="M0 0C-.225-.113-.539-.096-.94 .048-1.342 .193-1.865 .555-2.507 1.134-2.893 .715-3.343 .329-3.857-.024-4.082 .233-4.323 .426-4.58 .555-3.905 .941-3.375 1.358-2.989 1.809-3.343 2.388-3.609 3.022-3.785 3.714-3.962 4.406-4.082 5.057-4.146 5.668H-8.486C-8.486 4.221-8.51 3.239-8.558 2.725-8.606 2.211-8.711 1.728-8.871 1.278-9.033 .828-9.274 .345-9.595-.169-9.98 .088-10.286 .249-10.511 .314-10.125 .796-9.844 1.27-9.667 1.737-9.491 2.202-9.386 2.741-9.354 3.353-9.322 3.963-9.322 4.993-9.354 6.44H-4.243C-4.243 6.697-4.259 7.163-4.291 7.839-4.002 7.774-3.664 7.726-3.279 7.694-3.343 7.308-3.359 6.89-3.327 6.44H-1.205C-.756 6.44-.225 6.456 .386 6.488V5.62C-.225 5.651-.74 5.668-1.157 5.668H-3.279C-3.15 4.317-2.877 3.304-2.459 2.629-2.266 2.95-2.09 3.344-1.928 3.811-1.768 4.277-1.639 4.719-1.543 5.137-1.222 5.009-.884 4.896-.53 4.8-.659 4.671-.828 4.317-1.037 3.738-1.246 3.16-1.543 2.516-1.928 1.809-1.575 1.487-1.262 1.246-.988 1.085-.716 .924-.539 .892-.458 .989-.378 1.085-.273 1.423-.145 2.002 .112 1.777 .417 1.616 .771 1.52 .482 .619 .224 .112 0 0M-9.161-.362C-8.904-.491-8.599-.62-8.245-.748-8.663-1.712-8.984-2.419-9.209-2.87-9.467-2.741-9.772-2.612-10.125-2.484-9.836-2.131-9.515-1.423-9.161-.362M-4.629 .941H-8.004V3.401H-4.629ZM-4.677 4.173H-7.955V4.897H-4.677ZM-2.218-2.943C-2.379-3.055-2.588-3.111-2.845-3.111H-6.509C-6.927-3.079-7.176-2.886-7.256-2.533-7.337-2.178-7.377-1.841-7.377-1.52-7.377-1.198-7.393-.813-7.425-.362H-6.412C-6.445-.909-6.461-1.295-6.461-1.52-6.461-1.712-6.445-1.905-6.412-2.098-6.381-2.291-6.171-2.371-5.786-2.34H-3.568C-3.247-2.34-3.03-2.283-2.917-2.171-2.805-2.058-2.717-1.761-2.652-1.278-2.395-1.471-2.057-1.648-1.639-1.809-1.865-2.452-2.057-2.829-2.218-2.943M-5.4 2.725H-7.2320005V1.6159999H-5.4ZM-5.063 .41C-4.516-.298-4.163-.796-4.002-1.085-4.259-1.247-4.5-1.44-4.725-1.664-4.918-1.311-5.272-.796-5.786-.121-5.593 .04-5.352 .217-5.063 .41M-2.652 7.308C-2.459 7.533-2.298 7.742-2.17 7.935-1.945 7.806-1.559 7.533-1.012 7.115-1.205 6.954-1.398 6.761-1.591 6.536-1.784 6.697-2.138 6.954-2.652 7.308M.675-2.243C.353-2.436 .064-2.629-.193-2.822-.514-2.211-.949-1.6-1.495-.989-1.27-.828-1.012-.635-.723-.41-.016-1.278 .45-1.889 .675-2.243" fill="#2c292a"/>
<path transform="matrix(1,0,0,-1,183.3028,300.65)" d="M0 0C-.113 3.527 2.701 6.342 6.173 6.342 9.644 6.342 12.459 3.527 12.459 .053 12.459-3.42 9.644-6.236 6.173-6.236 2.701-6.236-.113-3.42 0 0" fill="#ffffff"/>
<path transform="matrix(1,0,0,-1,183.3028,300.65)" stroke-width="1" stroke-linecap="butt" stroke-miterlimit="10" stroke-linejoin="miter" fill="none" stroke="#2c292a" d="M0 0C-.113 3.527 2.701 6.342 6.173 6.342 9.644 6.342 12.459 3.527 12.459 .053 12.459-3.42 9.644-6.236 6.173-6.236 2.701-6.236-.113-3.42 0 0"/>
<path transform="matrix(1,0,0,-1,183.1897,300.5967)" stroke-width="1" stroke-linecap="butt" stroke-miterlimit="8" stroke-linejoin="miter" fill="none" stroke="#2c292a" d="M0 0C0 3.473 2.814 6.289 6.286 6.289 9.757 6.289 12.572 3.473 12.572 0 12.572-3.473 9.757-6.289 6.286-6.289 2.814-6.289 0-3.473 0 0"/>
<path transform="matrix(1,0,0,-1,202.5288,255.78421)" stroke-width="1" stroke-linecap="butt" stroke-miterlimit="8" stroke-linejoin="miter" fill="none" stroke="#f43040" d="M0 0C0 3.473 2.814 6.289 6.286 6.289 9.757 6.289 12.572 3.473 12.572 0 12.572-3.473 9.757-6.289 6.286-6.289 2.814-6.289 0-3.473 0 0"/>
<path transform="matrix(1,0,0,-1,224.4296,257.9903)" d="M0 0C.61 0 1.004 .08 1.181 .241 1.357 .402 1.43 1.158 1.398 2.508H-.82V-1.978C-.82-2.429-.627-2.653-.241-2.653H1.736C1.96-2.685 2.129-2.573 2.242-2.315 2.354-2.058 2.426-1.737 2.459-1.351 2.716-1.512 3.053-1.657 3.471-1.785 3.246-2.621 3.029-3.111 2.821-3.256 2.611-3.401 2.33-3.473 1.977-3.473H-.723C-1.367-3.473-1.687-3.135-1.687-2.46V1.64C-1.687 2.122-1.704 2.653-1.736 3.232-1.961 2.974-2.218 2.701-2.507 2.412-2.796 2.733-3.07 2.974-3.327 3.135-2.973 3.393-2.636 3.674-2.314 3.98-1.993 4.285-1.687 4.631-1.398 5.017-1.109 5.403-.836 5.789-.579 6.174-.322 6.56-.096 6.995 .096 7.477 .353 7.284 .707 7.074 1.157 6.85 .964 6.721 .803 6.592 .675 6.464 .964 6.239 1.333 5.982 1.784 5.692 2.234 5.403 2.796 4.92 3.471 4.245 3.214 4.052 2.973 3.794 2.748 3.473 2.137 4.213 1.663 4.711 1.326 4.969 .988 5.226 .643 5.483 .289 5.74-.193 5.065-.579 4.55-.868 4.197L-1.591 3.377H2.363C2.33 2.444 2.314 1.72 2.314 1.206 2.314 .724 2.274 .314 2.194-.024 2.113-.362 1.912-.603 1.591-.748 1.269-.892 .868-.997 .386-1.061 .289-.708 .16-.354 0 0M4.773 3.763V.289C4.773-.322 4.789-.837 4.822-1.254H3.809C3.841-.74 3.857-.225 3.857 .289V3.907C3.857 4.39 3.841 4.904 3.809 5.451H4.822C4.789 4.936 4.773 4.373 4.773 3.763M7.28 5.451V-2.508C7.28-3.055 7.143-3.393 6.871-3.521 6.597-3.65 6.139-3.763 5.496-3.859 5.4-3.441 5.255-3.071 5.063-2.75 5.641-2.75 6.01-2.733 6.172-2.701 6.332-2.67 6.413-2.492 6.413-2.171V5.451C6.413 5.965 6.396 6.528 6.364 7.139H7.329C7.296 6.592 7.28 6.03 7.28 5.451" fill="#2c292a"/>
<path transform="matrix(1,0,0,-1,235.5449,259.4857)" d="M0 0V3.811C-.611 3.811-1.19 3.794-1.736 3.763V4.631C-1.093 4.599-.193 4.583 .964 4.583 .932 3.971 .916 3.489 .916 3.135V.096C1.333-.354 1.896-.675 2.604-.868 3.31-1.061 4.259-1.174 5.448-1.206 6.637-1.238 8.003-1.206 9.546-1.109 9.289-1.431 9.144-1.801 9.112-2.219 6.027-2.154 4.195-2.074 3.616-1.978 3.037-1.881 2.555-1.761 2.17-1.616 1.784-1.471 1.39-1.262 .988-.989 .586-.716 .176-.764-.241-1.134-.659-1.503-.997-1.865-1.254-2.219-1.479-1.93-1.736-1.656-2.025-1.399-1.061-.659-.386-.193 0 0M.193 5.982C-.258 6.657-.707 7.3-1.157 7.911-.9 8.104-.659 8.297-.434 8.49 .337 7.46 .82 6.802 1.013 6.512 .755 6.319 .482 6.142 .193 5.982M3.279 7.284H4.918C4.918 8.056 4.901 8.586 4.87 8.876H5.834C5.802 8.554 5.786 8.023 5.786 7.284 6.943 7.284 7.826 7.3 8.438 7.332V6.512C7.859 6.544 6.975 6.56 5.786 6.56V4.969C7.489 4.969 8.646 4.984 9.257 5.017V4.148C8.646 4.18 7.312 4.197 5.255 4.197 3.23 4.197 1.929 4.18 1.35 4.148V5.017C1.929 4.984 3.117 4.969 4.918 4.969V6.56H3.037C2.845 6.206 2.668 5.837 2.507 5.451 2.218 5.579 1.929 5.692 1.639 5.789 2.025 6.496 2.346 7.396 2.604 8.49 2.925 8.425 3.279 8.345 3.664 8.249 3.471 7.894 3.343 7.573 3.279 7.284M8.196 1.399C8.196 .788 8.212 .176 8.245-.434H7.232V.241H3.423V-.386H2.459C2.491 .225 2.507 .836 2.507 1.447 2.507 2.058 2.491 2.669 2.459 3.28H8.245C8.212 2.637 8.196 2.009 8.196 1.399M7.232 2.508H3.4229999V.96399989H7.232ZM7.232 .965" fill="#2c292a"/>
<path transform="matrix(1,0,0,-1,248.7333,253.40772)" d="M0 0V-6.416C0-7.284 .016-7.991 .048-8.538H-.916C-.916-7.991-.9-7.284-.868-6.416V-1.544C-1.254-2.251-1.608-2.814-1.929-3.232-2.09-3.007-2.363-2.782-2.748-2.557-2.073-1.817-1.495-.949-1.013 .048-.53 1.045-.209 1.93-.048 2.701 .369 2.508 .739 2.38 1.061 2.315 .868 1.994 .514 1.222 0 0M4.87 1.785C5.738 .273 7.007-.852 8.679-1.592 8.389-1.85 8.148-2.139 7.955-2.46 6.605-1.688 5.432-.531 4.436 1.013 3.599-.499 2.507-1.753 1.157-2.75 .996-2.525 .771-2.284 .482-2.026 1.671-1.254 2.539-.403 3.086 .531 3.632 1.463 3.954 2.171 4.05 2.653 4.564 2.395 4.934 2.235 5.159 2.171ZM3.23-5.186C3.134-6.456 2.491-7.589 1.302-8.586 1.109-8.297 .851-8.056 .53-7.863 1.719-7.027 2.354-6.022 2.435-4.848 2.515-3.674 2.539-2.75 2.507-2.074 2.925-2.139 3.262-2.171 3.52-2.171 3.423-2.911 3.327-3.915 3.23-5.186M6.557-3.956V-6.995C6.557-7.477 6.573-7.991 6.605-8.538H5.593C5.625-7.991 5.641-7.46 5.641-6.946V-3.666C5.641-3.313 5.625-2.782 5.593-2.074H6.605C6.573-2.782 6.557-3.409 6.557-3.956" fill="#2c292a"/>
<path transform="matrix(1,0,0,-1,261.1501,253.4559)" d="M0 0V-6.367C0-7.043 .016-7.686 .048-8.297H-.964C-.933-7.75-.916-7.156-.916-6.512V-1.544C-1.302-2.187-1.656-2.701-1.977-3.087-2.234-2.734-2.475-2.46-2.7-2.267-2.379-1.946-1.937-1.327-1.374-.41-.812 .507-.37 1.544-.048 2.701 .402 2.476 .787 2.315 1.109 2.219 .851 1.93 .482 1.189 0 0M3.905 1.351V2.605C4.291 2.573 4.725 2.54 5.207 2.508 5.046 2.283 4.95 1.897 4.918 1.351H6.702C7.248 1.351 7.73 1.367 8.148 1.399V.531C7.698 .562 7.216 .579 6.702 .579H4.87L4.773-.482H7.232C7.2-.868 7.184-1.383 7.184-2.026V-6.946C7.827-6.946 8.293-6.93 8.582-6.898V-7.766C8.164-7.734 7.585-7.718 6.846-7.718H2.314C1.575-7.718 .964-7.734 .482-7.766V-6.898C.771-6.93 1.221-6.946 1.832-6.946V-2.026C1.832-1.416 1.816-.901 1.784-.482H3.761L3.857 .579H2.989C2.186 .579 1.559 .562 1.109 .531V1.399C1.526 1.367 2.153 1.351 2.989 1.351ZM6.316-1.158H2.748V-2.123H6.316ZM6.316-2.846H2.748V-3.714H6.316ZM6.316-4.438H2.748V-5.306H6.316ZM6.316-6.03H2.748V-6.947H6.316ZM6.316-6.946" fill="#2c292a"/>
<path transform="matrix(1,0,0,-1,132.1125,258.0449)" d="M0 0C.61 0 1.004 .08 1.181 .241 1.358 .402 1.43 1.158 1.398 2.508H-.82V-1.978C-.82-2.429-.627-2.653-.241-2.653H1.736C1.96-2.685 2.129-2.573 2.242-2.315 2.354-2.058 2.427-1.737 2.459-1.351 2.716-1.512 3.053-1.657 3.471-1.785 3.246-2.621 3.029-3.111 2.821-3.256 2.611-3.401 2.33-3.473 1.977-3.473H-.723C-1.367-3.473-1.688-3.135-1.688-2.46V1.64C-1.688 2.122-1.704 2.653-1.736 3.232-1.961 2.974-2.218 2.701-2.507 2.412-2.796 2.733-3.07 2.974-3.327 3.135-2.973 3.393-2.636 3.674-2.314 3.98-1.993 4.285-1.688 4.631-1.398 5.017-1.109 5.403-.836 5.789-.579 6.174-.322 6.56-.096 6.995 .096 7.477 .353 7.284 .707 7.074 1.157 6.85 .964 6.721 .803 6.592 .675 6.464 .964 6.239 1.333 5.982 1.784 5.692 2.234 5.403 2.796 4.92 3.471 4.245 3.214 4.052 2.973 3.794 2.748 3.473 2.137 4.213 1.663 4.711 1.326 4.969 .988 5.226 .643 5.483 .289 5.74-.193 5.065-.579 4.55-.868 4.197L-1.591 3.377H2.363C2.33 2.444 2.314 1.72 2.314 1.206 2.314 .724 2.274 .314 2.194-.024 2.113-.362 1.912-.603 1.591-.748 1.269-.892 .868-.997 .386-1.061 .289-.708 .16-.354 0 0M4.773 3.763V.289C4.773-.322 4.789-.837 4.821-1.254H3.809C3.841-.74 3.857-.225 3.857 .289V3.907C3.857 4.39 3.841 4.904 3.809 5.451H4.821C4.789 4.936 4.773 4.373 4.773 3.763M7.28 5.451V-2.508C7.28-3.055 7.143-3.393 6.871-3.521 6.597-3.65 6.139-3.763 5.496-3.859 5.4-3.441 5.255-3.071 5.063-2.75 5.641-2.75 6.01-2.733 6.171-2.701 6.332-2.67 6.413-2.492 6.413-2.171V5.451C6.413 5.965 6.396 6.528 6.364 7.139H7.329C7.296 6.592 7.28 6.03 7.28 5.451" fill="#2c292a"/>
<path transform="matrix(1,0,0,-1,143.2278,259.5403)" d="M0 0V3.811C-.611 3.811-1.19 3.794-1.736 3.763V4.631C-1.093 4.599-.193 4.583 .964 4.583 .932 3.971 .916 3.489 .916 3.135V.096C1.333-.354 1.896-.675 2.604-.868 3.31-1.061 4.259-1.174 5.448-1.206 6.637-1.238 8.004-1.206 9.546-1.109 9.289-1.431 9.144-1.801 9.112-2.219 6.027-2.154 4.195-2.074 3.616-1.978 3.037-1.881 2.555-1.761 2.17-1.616 1.784-1.471 1.39-1.262 .988-.989 .586-.716 .176-.764-.241-1.134-.659-1.503-.997-1.865-1.254-2.219-1.479-1.93-1.736-1.656-2.025-1.399-1.061-.659-.386-.193 0 0M.193 5.982C-.258 6.657-.707 7.3-1.157 7.911-.9 8.104-.659 8.297-.434 8.49 .337 7.46 .82 6.802 1.012 6.512 .755 6.319 .482 6.142 .193 5.982M3.279 7.284H4.918C4.918 8.056 4.901 8.586 4.87 8.876H5.834C5.802 8.554 5.786 8.023 5.786 7.284 6.943 7.284 7.827 7.3 8.438 7.332V6.512C7.859 6.544 6.975 6.56 5.786 6.56V4.969C7.489 4.969 8.646 4.984 9.257 5.017V4.148C8.646 4.18 7.312 4.197 5.255 4.197 3.23 4.197 1.929 4.18 1.35 4.148V5.017C1.929 4.984 3.117 4.969 4.918 4.969V6.56H3.037C2.845 6.206 2.668 5.837 2.507 5.451 2.218 5.579 1.929 5.692 1.639 5.789 2.025 6.496 2.346 7.396 2.604 8.49 2.924 8.425 3.279 8.345 3.664 8.249 3.471 7.894 3.343 7.573 3.279 7.284M8.196 1.399C8.196 .788 8.212 .176 8.245-.434H7.232V.241H3.423V-.386H2.459C2.491 .225 2.507 .836 2.507 1.447 2.507 2.058 2.491 2.669 2.459 3.28H8.245C8.212 2.637 8.196 2.009 8.196 1.399M7.232 2.508H3.4229999V.96399989H7.232ZM7.232 .965" fill="#2c292a"/>
<path transform="matrix(1,0,0,-1,157.2357,255.633)" d="M0 0C0-1.03-.072-1.881-.217-2.557-.362-3.232-.635-3.876-1.037-4.486-1.439-5.097-1.977-5.692-2.652-6.271-2.909-5.982-3.166-5.74-3.423-5.547-2.748-5.129-2.218-4.647-1.832-4.1-1.446-3.554-1.19-2.943-1.061-2.267-.933-1.592-.868-.852-.868-.048-.868 .755-.884 1.608-.916 2.508-.563 2.412-.193 2.347 .193 2.315 .064 1.801 0 1.029 0 0M1.736 .917C1.736-.466 1.751-1.657 1.784-2.653H.916V3.425H-1.929V-2.701H-2.845C-2.813-1.833-2.796-.675-2.796 .772-2.796 2.251-2.813 3.408-2.845 4.245H1.784C1.751 3.408 1.736 2.299 1.736 .917M2.218-5.065C1.929-5.29 1.671-5.515 1.446-5.74 .739-4.776 .193-4.1-.193-3.714 .064-3.554 .305-3.328 .53-3.039 1.462-4.1 2.025-4.776 2.218-5.065M5.448 4.969H6.413C6.38 4.486 6.364 3.586 6.364 2.267 6.91 2.267 7.441 2.283 7.955 2.315V1.399C7.505 1.431 6.975 1.447 6.364 1.447V-4.872C6.364-5.419 6.211-5.772 5.906-5.933 5.6-6.094 5.159-6.223 4.58-6.319 4.484-5.933 4.323-5.579 4.098-5.258 4.644-5.258 5.014-5.226 5.207-5.161 5.4-5.097 5.496-4.904 5.496-4.583V.724C5.111-.273 4.701-1.15 4.267-1.905 3.833-2.661 3.278-3.442 2.604-4.245 2.411-4.02 2.105-3.811 1.687-3.618 2.201-3.2 2.756-2.557 3.351-1.688 3.945-.82 4.436 .225 4.821 1.447 3.728 1.447 2.924 1.431 2.411 1.399V2.315C2.924 2.283 3.954 2.267 5.496 2.267 5.496 3.586 5.48 4.486 5.448 4.969" fill="#2c292a"/>
<path transform="matrix(1,0,0,-1,172.6421,251.96689)" d="M0 0H4.339C4.307-.386 4.291-.756 4.291-1.109 4.291-1.431 4.307-1.769 4.339-2.122H3.423V-.724H-5.014V-2.219H-5.93C-5.899-1.801-5.882-1.431-5.882-1.109-5.882-.756-5.899-.386-5.93 0H-1.205C-1.27 .225-1.415 .531-1.639 .917-1.254 1.013-.916 1.141-.627 1.302-.306 .659-.096 .225 0 0M3.616-7.718C3.616-8.555 3.632-9.262 3.664-9.841H2.748V-9.503H-4.339V-9.889H-5.255C-5.224-9.245-5.207-8.522-5.207-7.718-5.207-6.882-5.224-6.159-5.255-5.547H3.664C3.632-6.126 3.616-6.85 3.616-7.718M.627-1.447C1.205-1.447 1.88-1.431 2.652-1.399V-2.171C1.88-2.139 1.205-2.122 .627-2.122H-2.363C-2.973-2.122-3.633-2.139-4.339-2.171V-1.399C-3.664-1.431-3.022-1.447-2.411-1.447ZM-1.205-6.271H-4.339V-7.1879999H-1.205ZM-1.205-7.863H-4.339V-8.78H-1.205ZM2.507-5.017H-4.243V-2.8460003H2.507ZM1.687-3.521H-3.424V-4.341H1.687ZM2.748-6.271H-.33800007V-7.1879999H2.748ZM2.748-7.863H-.33800007V-8.78H2.748ZM2.748-8.779" fill="#2c292a"/>
<path transform="matrix(1,0,0,-1,183.3028,255.681)" d="M0 0C-.073 3.37 2.741 6.186 6.213 6.186 9.684 6.186 12.498 3.37 12.498-.103 12.498-3.576 9.684-6.392 6.213-6.392 2.741-6.392-.073-3.576 0 0" fill="#ffffff"/>
<path transform="matrix(1,0,0,-1,183.3028,255.681)" stroke-width="1" stroke-linecap="butt" stroke-miterlimit="10" stroke-linejoin="miter" fill="none" stroke="#2c292a" d="M0 0C-.073 3.37 2.741 6.186 6.213 6.186 9.684 6.186 12.498 3.37 12.498-.103 12.498-3.576 9.684-6.392 6.213-6.392 2.741-6.392-.073-3.576 0 0"/>
<path transform="matrix(1,0,0,-1,183.2296,255.78421)" stroke-width="1" stroke-linecap="butt" stroke-miterlimit="8" stroke-linejoin="miter" fill="none" stroke="#2c292a" d="M0 0C0 3.473 2.814 6.289 6.286 6.289 9.757 6.289 12.572 3.473 12.572 0 12.572-3.473 9.757-6.289 6.286-6.289 2.814-6.289 0-3.473 0 0"/>
</g>
<path transform="matrix(1,0,0,-1,214.1924,176.38779)" stroke-width="1.2" stroke-linecap="round" stroke-linejoin="round" fill="none" stroke="#2c292a" d="M0 0H-31.003"/>
<g clip-path="url(#clip_5)">
<path transform="matrix(1,0,0,-1,252.5245,171.3476)" d="M0 0H-7.803C-7.758-1.461-7.735-2.722-7.735-3.785-7.735-4.847-7.78-5.711-7.87-6.375-7.962-7.039-8.153-7.747-8.447-8.499-8.742-9.253-9.251-10.027-9.974-10.823-9.431-11.045-8.979-11.288-8.617-11.554-7.848-10.27-7.317-9.208-7.022-8.367-6.729-7.526-6.559-6.507-6.513-5.312H-1.357V-6.043H0C-.046-4.714-.068-3.697-.068-2.988-.068-2.28-.046-1.284 0 0M-11.941-4.914C-12.711-4.914-13.434-4.892-14.112-4.847V-6.109C-13.479-6.065-12.755-6.043-11.941-6.043V-11.421C-12.439-11.776-13.208-12.395-14.248-13.28-13.796-13.589-13.389-13.921-13.027-14.276-12.575-13.612-12.145-13.091-11.738-12.716-11.331-12.34-10.901-12.284-10.449-12.55-9.997-12.815-9.465-13.058-8.854-13.28-8.244-13.501-7.554-13.667-6.785-13.778-6.016-13.888-4.987-13.955-3.698-13.977-2.409-13.999-.928-14.011 .746-14.011 .836-13.523 1.108-12.992 1.561-12.417-.249-12.639-2.375-12.727-4.817-12.683-7.26-12.639-9.227-12.151-10.72-11.222V-7.503C-10.72-6.618-10.698-5.755-10.652-4.914ZM-6.513-1.195H-1.3569999V-4.117H-6.513ZM-3.867-6.308C-4.184-6.707-4.501-7.039-4.817-7.304-3.28-8.81-1.991-10.204-.95-11.487-.498-11.001-.091-10.624 .271-10.359-1.855-8.146-3.234-6.796-3.867-6.308M-11.67 .73C-12.032 .508-12.439 .332-12.891 .199-12.348-.82-11.873-1.882-11.466-2.988-11.105-2.812-10.675-2.634-10.177-2.457-10.584-1.484-11.083-.421-11.67 .73" fill="#f43040"/>
<path transform="matrix(1,0,0,-1,148.3954,273.3301)" d="M0 0H-1.177C-1.144-.512-1.126-1.195-1.126-2.047V-9.367C-1.126-10.322-.665-10.8 .256-10.8H2.15C2.764-10.766 3.156-10.586 3.327-10.263 3.497-9.939 3.702-9.452 3.941-8.804 3.463-8.736 3.037-8.497 2.662-8.087 2.627-8.633 2.567-9.052 2.482-9.341 2.397-9.632 2.15-9.776 1.74-9.776H.717C.17-9.776-.102-9.504-.102-8.957V-2.099C-.102-1.177-.069-.478 0 0M-4.76-.102C-4.658-1.228-4.632-2.482-4.683-3.864-4.735-5.246-4.991-6.432-5.451-7.422-5.912-8.412-6.859-9.418-8.292-10.442-7.849-10.714-7.473-11.005-7.166-11.312-5.63-9.913-4.658-8.633-4.248-7.473-3.839-6.313-3.626-5.102-3.609-3.839-3.592-2.577-3.532-1.348-3.429-.154-3.805-.154-4.248-.137-4.76-.102" fill="#2c292a"/>
</g>
</g>
</g>
</svg>
