<svg xmlns="http://www.w3.org/2000/svg" xmlns:xlink="http://www.w3.org/1999/xlink" xmlns:inkscape="http://www.inkscape.org/namespaces/inkscape" version="1.1" width="411.024" height="595.276" viewBox="0 0 411.024 595.276">
<defs>
<clipPath id="clip_1">
<path transform="matrix(1,0,0,-1,0,595.276)" d="M0 0H411.024V595.276H0Z"/>
</clipPath>
<clipPath id="clip_2">
<path transform="matrix(1,0,0,-1,0,595.276)" d="M0 0H411.024V595.276H0Z"/>
</clipPath>
<path id="font_3_5" d="M.45999146 .19407654C.45999146 .28303529 .4229889 .34100343 .35099793 .36799623 .4149933 .39700318 .44699098 .450943 .44699098 .52586367 .44699098 .64175418 .36698915 .71875 .25099183 .71875 .14299011 .71875 .05899048 .6507416 .050994874 .53585818H.12298584C.12998963 .60879519 .17599488 .6547394 .25099183 .6547394 .31999208 .6547394 .375 .609787 .375 .5248718 .375 .4449463 .33499146 .3959961 .24798584 .3959961H.23298645V.3330078H.24798584C.34498597 .3330078 .3880005 .28103639 .3880005 .19508362 .3880005 .10812378 .32798768 .057159425 .25099183 .057159425 .18299866 .057159425 .11999512 .09213257 .11399841 .18109131H.041992189C.04798889 .05215454 .13899231-.0068359377 .25099183-.0068359377 .36698915-.0068359377 .45999146 .06315613 .45999146 .19407654Z"/>
<path id="font_3_9" d="M.47099305 .64790347V.71191409H.07598877V.5359192H.14698792V.64790347H.394989L.147995 0H.22399903L.47099305 .64790347Z"/>
<path id="font_3_6" d="M.48199464 .11273193V.17773438H.394989V.37979127H.32398988V.17773438H.116989139L.37399293 .71191409H.29699708L.039993287 .17773438V.11273193H.32398988V0H.394989V.11273193H.48199464Z"/>
<clipPath id="clip_4">
<path transform="matrix(1,0,0,-1,0,595.276)" d="M0 0H411.024V595.276H0Z"/>
</clipPath>
<clipPath id="clip_5">
<path transform="matrix(1,0,0,-1,0,595.276)" d="M0 0H411.024V595.276H0Z"/>
</clipPath>
<clipPath id="clip_6">
<path transform="matrix(1,0,0,-1,0,595.276)" d="M0 0H411.024V595.276H0Z"/>
</clipPath>
</defs>
<g clip-path="url(#clip_1)">
<g clip-path="url(#clip_2)">
<use data-text="3" xlink:href="#font_3_5" transform="matrix(9,0,0,-9,35.4331,567.547)" fill="#f43040"/>
<use data-text="7" xlink:href="#font_3_9" transform="matrix(9,0,0,-9,39.0331,567.547)" fill="#f43040"/>
<use data-text="4" xlink:href="#font_3_6" transform="matrix(9,0,0,-9,42.6331,567.547)" fill="#f43040"/>
<path transform="matrix(1,0,0,-1,0,595.276)" d="M0 0H411.024V595.275H0Z" fill="#f43040"/>
<path transform="matrix(1,0,0,-1,273.1443,290.2261)" d="M0 0-1.005 1 29.274 31.43 30.278 30.43Z" fill="#2c292a"/>
<path transform="matrix(1,0,0,-1,334.2925,292.0252)" d="M0 0-30.278 30.43-29.274 31.43 1.005 1Z" fill="#2c292a"/>
<path transform="matrix(1,0,0,-1,0,595.276)" d="M330.688 334.331H272.899V335.818H330.688Z" fill="#2c292a"/>
<path transform="matrix(1,0,0,-1,0,595.276)" d="M327.894 364.748H277.474V366.482H327.894Z" fill="#2c292a"/>
<path transform="matrix(1,0,0,-1,0,595.276)" d="M215.986 364.552H166.802V366.286H215.986Z" fill="#2c292a"/>
<path transform="matrix(1,0,0,-1,272.3461,260.1584)" d="M0 0-1.004 1 29.274 31.43 30.278 30.43Z" fill="#2c292a"/>
<path transform="matrix(1,0,0,-1,333.4944,261.9575)" d="M0 0-30.278 30.43-29.274 31.43 1.005 1Z" fill="#2c292a"/>
<path transform="matrix(1,0,0,-1,301.3511,292.3879)" d="M0 0-30.278 30.43-29.274 31.43 1.005 1Z" fill="#2c292a"/>
<path transform="matrix(1,0,0,-1,303.952,290.5888)" d="M0 0-1.005 1 29.274 31.43 30.278 30.43Z" fill="#2c292a"/>
<path transform="matrix(1,0,0,-1,0,595.276)" d="M302.537 301.57H301.04899V359.388H302.537Z" fill="#2c292a"/>
<g clip-path="url(#clip_4)">
<path transform="matrix(1,0,0,-1,296.0245,229.81812)" d="M0 0C.069 3.293 2.768 5.993 6.098 5.993 9.427 5.993 12.127 3.293 12.127-.039 12.127-3.37 9.427-6.07 6.098-6.07 2.768-6.07 .069-3.37 0 0" fill="#ffffff"/>
<path transform="matrix(1,0,0,-1,302.1222,236.5971)" d="M0 0C-3.715 0-6.737 3.024-6.737 6.74-6.737 10.457-3.715 13.481 0 13.481 3.715 13.481 6.737 10.457 6.737 6.74 6.737 3.024 3.715 0 0 0M0 12.063C-2.934 12.063-5.32 9.676-5.32 6.74-5.32 3.805-2.934 1.417 0 1.417 2.934 1.417 5.32 3.805 5.32 6.74 5.32 9.676 2.934 12.063 0 12.063" fill="#ffffff"/>
<path transform="matrix(1,0,0,-1,265.855,259.5774)" d="M0 0C-.04 3.25 2.659 5.951 5.989 5.951 9.319 5.951 12.018 3.25 12.018-.081 12.018-3.412 9.319-6.113 5.989-6.113 2.659-6.113-.04-3.412 0 0" fill="#ffffff"/>
<path transform="matrix(1,0,0,-1,271.844,266.399)" d="M0 0C-3.715 0-6.737 3.024-6.737 6.74-6.737 10.457-3.715 13.481 0 13.481 3.715 13.481 6.737 10.457 6.737 6.74 6.737 3.024 3.715 0 0 0M0 12.064C-2.934 12.064-5.32 9.676-5.32 6.74-5.32 3.805-2.934 1.417 0 1.417 2.934 1.417 5.32 3.805 5.32 6.74 5.32 9.676 2.934 12.064 0 12.064" fill="#ffffff"/>
<path transform="matrix(1,0,0,-1,296.0245,259.5774)" d="M0 0C.069 3.25 2.768 5.951 6.098 5.951 9.427 5.951 12.127 3.25 12.127-.081 12.127-3.412 9.427-6.113 6.098-6.113 2.768-6.113 .069-3.412 0 0" fill="#ffffff"/>
<path transform="matrix(1,0,0,-1,302.1222,266.399)" d="M0 0C-3.715 0-6.737 3.024-6.737 6.74-6.737 10.457-3.715 13.481 0 13.481 3.715 13.481 6.737 10.457 6.737 6.74 6.737 3.024 3.715 0 0 0M0 12.064C-2.934 12.064-5.32 9.676-5.32 6.74-5.32 3.805-2.934 1.417 0 1.417 2.934 1.417 5.32 3.805 5.32 6.74 5.32 9.676 2.934 12.064 0 12.064" fill="#ffffff"/>
<path transform="matrix(1,0,0,-1,327.8937,259.5774)" d="M0 0C.074 3.232 2.773 5.933 6.103 5.933 9.433 5.933 12.132 3.232 12.132-.099 12.132-3.43 9.433-6.131 6.103-6.131 2.773-6.131 .074-3.43 0 0" fill="#ffffff"/>
<path transform="matrix(1,0,0,-1,333.9968,266.4165)" d="M0 0C-3.715 0-6.737 3.024-6.737 6.74-6.737 10.457-3.715 13.481 0 13.481 3.715 13.481 6.737 10.457 6.737 6.74 6.737 3.024 3.715 0 0 0M0 12.063C-2.934 12.063-5.32 9.675-5.32 6.74-5.32 3.805-2.934 1.417 0 1.417 2.934 1.417 5.32 3.805 5.32 6.74 5.32 9.675 2.934 12.063 0 12.063" fill="#ffffff"/>
<path transform="matrix(1,0,0,-1,296.0245,288.9115)" d="M0 0C.069 3.232 2.768 5.933 6.098 5.933 9.427 5.933 12.127 3.232 12.127-.099 12.127-3.43 9.427-6.131 6.098-6.131 2.768-6.131 .069-3.43 0 0" fill="#ffffff"/>
<path transform="matrix(1,0,0,-1,302.1222,295.751)" d="M0 0C-3.715 0-6.737 3.024-6.737 6.74-6.737 10.457-3.715 13.481 0 13.481 3.715 13.481 6.737 10.457 6.737 6.74 6.737 3.024 3.715 0 0 0M0 12.064C-2.934 12.064-5.32 9.676-5.32 6.74-5.32 3.805-2.934 1.417 0 1.417 2.934 1.417 5.32 3.805 5.32 6.74 5.32 9.676 2.934 12.064 0 12.064" fill="#ffffff"/>
<path transform="matrix(1,0,0,-1,333.9968,236.5971)" d="M0 0C-3.715 0-6.737 3.024-6.737 6.74-6.737 10.457-3.715 13.481 0 13.481 3.715 13.481 6.737 10.457 6.737 6.74 6.737 3.024 3.715 0 0 0M0 12.063C-2.934 12.063-5.32 9.676-5.32 6.74-5.32 3.805-2.934 1.417 0 1.417 2.934 1.417 5.32 3.805 5.32 6.74 5.32 9.676 2.934 12.063 0 12.063" fill="#2c292a"/>
<path transform="matrix(1,0,0,-1,271.844,236.5971)" d="M0 0C-3.715 0-6.737 3.024-6.737 6.74-6.737 10.457-3.715 13.481 0 13.481 3.715 13.481 6.737 10.457 6.737 6.74 6.737 3.024 3.715 0 0 0M0 12.063C-2.934 12.063-5.32 9.676-5.32 6.74-5.32 3.805-2.934 1.417 0 1.417 2.934 1.417 5.32 3.805 5.32 6.74 5.32 9.676 2.934 12.063 0 12.063" fill="#2c292a"/>
<path transform="matrix(1,0,0,-1,265.855,288.9115)" d="M0 0C-.04 3.232 2.659 5.933 5.989 5.933 9.319 5.933 12.018 3.232 12.018-.099 12.018-3.43 9.319-6.131 5.989-6.131 2.659-6.131-.04-3.43 0 0" fill="#ffffff"/>
<path transform="matrix(1,0,0,-1,271.844,295.751)" d="M0 0C-3.715 0-6.737 3.024-6.737 6.74-6.737 10.457-3.715 13.481 0 13.481 3.715 13.481 6.737 10.457 6.737 6.74 6.737 3.024 3.715 0 0 0M0 12.064C-2.934 12.064-5.32 9.676-5.32 6.74-5.32 3.805-2.934 1.417 0 1.417 2.934 1.417 5.32 3.805 5.32 6.74 5.32 9.676 2.934 12.064 0 12.064" fill="#ffffff"/>
<path transform="matrix(1,0,0,-1,327.8937,288.9115)" d="M0 0C.074 3.232 2.773 5.933 6.103 5.933 9.433 5.933 12.132 3.232 12.132-.099 12.132-3.43 9.433-6.131 6.103-6.131 2.773-6.131 .074-3.43 0 0" fill="#ffffff"/>
<path transform="matrix(1,0,0,-1,333.9968,295.751)" d="M0 0C-3.715 0-6.737 3.024-6.737 6.74-6.737 10.457-3.715 13.481 0 13.481 3.715 13.481 6.737 10.457 6.737 6.74 6.737 3.024 3.715 0 0 0M0 12.064C-2.934 12.064-5.32 9.676-5.32 6.74-5.32 3.805-2.934 1.417 0 1.417 2.934 1.417 5.32 3.805 5.32 6.74 5.32 9.676 2.934 12.064 0 12.064" fill="#ffffff"/>
</g>
<path transform="matrix(1,0,0,-1,0,595.276)" d="M219.327 334.675H161.53699V336.162H219.327Z" fill="#2c292a"/>
<path transform="matrix(1,0,0,-1,160.9854,259.81523)" d="M0 0-1.005 1 29.274 31.43 30.278 30.43Z" fill="#2c292a"/>
<path transform="matrix(1,0,0,-1,222.1335,261.6144)" d="M0 0-30.278 30.43-29.274 31.43 1.005 1Z" fill="#2c292a"/>
<path transform="matrix(1,0,0,-1,0,595.276)" d="M191.176 301.913H189.68799V359.731H191.176Z" fill="#2c292a"/>
<g clip-path="url(#clip_5)">
<path transform="matrix(1,0,0,-1,184.7618,229.60559)" d="M0 0C-.029 3.423 2.67 6.124 6 6.124 9.329 6.124 12.028 3.423 12.028 .092 12.028-3.239 9.329-5.94 6-5.94 2.67-5.94-.029-3.239 0 0" fill="#ffffff"/>
<path transform="matrix(1,0,0,-1,190.7613,236.2539)" d="M0 0C-3.715 0-6.737 3.024-6.737 6.74-6.737 10.457-3.715 13.481 0 13.481 3.715 13.481 6.737 10.457 6.737 6.74 6.737 3.024 3.715 0 0 0M0 12.063C-2.934 12.063-5.32 9.676-5.32 6.74-5.32 3.805-2.934 1.417 0 1.417 2.934 1.417 5.32 3.805 5.32 6.74 5.32 9.676 2.934 12.063 0 12.063" fill="#ffffff"/>
<path transform="matrix(1,0,0,-1,154.3799,259.3648)" d="M0 0C.074 3.381 2.774 6.081 6.103 6.081 9.433 6.081 12.132 3.381 12.132 .049 12.132-3.282 9.433-5.982 6.103-5.982 2.774-5.982 .074-3.282 0 0" fill="#ffffff"/>
<path transform="matrix(1,0,0,-1,160.4831,266.0558)" d="M0 0C-3.715 0-6.737 3.024-6.737 6.74-6.737 10.457-3.715 13.481 0 13.481 3.715 13.481 6.737 10.457 6.737 6.74 6.737 3.024 3.715 0 0 0M0 12.063C-2.934 12.063-5.32 9.675-5.32 6.74-5.32 3.805-2.934 1.417 0 1.417 2.934 1.417 5.32 3.805 5.32 6.74 5.32 9.675 2.934 12.063 0 12.063" fill="#ffffff"/>
<path transform="matrix(1,0,0,-1,184.7618,259.3648)" d="M0 0C-.029 3.381 2.67 6.081 6 6.081 9.329 6.081 12.028 3.381 12.028 .049 12.028-3.282 9.329-5.982 6-5.982 2.67-5.982-.029-3.282 0 0" fill="#ffffff"/>
<path transform="matrix(1,0,0,-1,190.7613,266.0558)" d="M0 0C-3.715 0-6.737 3.024-6.737 6.74-6.737 10.457-3.715 13.481 0 13.481 3.715 13.481 6.737 10.457 6.737 6.74 6.737 3.024 3.715 0 0 0M0 12.063C-2.934 12.063-5.32 9.675-5.32 6.74-5.32 3.805-2.934 1.417 0 1.417 2.934 1.417 5.32 3.805 5.32 6.74 5.32 9.675 2.934 12.063 0 12.063" fill="#ffffff"/>
<path transform="matrix(1,0,0,-1,216.631,259.3648)" d="M0 0C-.024 3.363 2.675 6.063 6.005 6.063 9.334 6.063 12.034 3.363 12.034 .032 12.034-3.3 9.334-6 6.005-6 2.675-6-.024-3.3 0 0" fill="#ffffff"/>
<path transform="matrix(1,0,0,-1,222.6358,266.0735)" d="M0 0C-3.715 0-6.737 3.024-6.737 6.74-6.737 10.457-3.715 13.481 0 13.481 3.715 13.481 6.737 10.457 6.737 6.74 6.737 3.024 3.715 0 0 0M0 12.064C-2.934 12.064-5.32 9.676-5.32 6.74-5.32 3.805-2.934 1.417 0 1.417 2.934 1.417 5.32 3.805 5.32 6.74 5.32 9.676 2.934 12.064 0 12.064" fill="#ffffff"/>
<path transform="matrix(1,0,0,-1,184.7618,288.6989)" d="M0 0C-.029 3.363 2.67 6.063 6 6.063 9.329 6.063 12.028 3.363 12.028 .031 12.028-3.3 9.329-6 6-6 2.67-6-.029-3.3 0 0" fill="#ffffff"/>
<path transform="matrix(1,0,0,-1,190.7613,295.4079)" d="M0 0C-3.715 0-6.737 3.024-6.737 6.74-6.737 10.457-3.715 13.481 0 13.481 3.715 13.481 6.737 10.457 6.737 6.74 6.737 3.024 3.715 0 0 0M0 12.064C-2.934 12.064-5.32 9.676-5.32 6.74-5.32 3.805-2.934 1.417 0 1.417 2.934 1.417 5.32 3.805 5.32 6.74 5.32 9.676 2.934 12.064 0 12.064" fill="#ffffff"/>
<path transform="matrix(1,0,0,-1,222.6358,236.2539)" d="M0 0C-3.715 0-6.737 3.024-6.737 6.74-6.737 10.457-3.715 13.481 0 13.481 3.715 13.481 6.737 10.457 6.737 6.74 6.737 3.024 3.715 0 0 0M0 12.063C-2.934 12.063-5.32 9.676-5.32 6.74-5.32 3.805-2.934 1.417 0 1.417 2.934 1.417 5.32 3.805 5.32 6.74 5.32 9.676 2.934 12.063 0 12.063" fill="#2c292a"/>
<path transform="matrix(1,0,0,-1,160.4831,236.2539)" d="M0 0C-3.715 0-6.737 3.024-6.737 6.74-6.737 10.457-3.715 13.481 0 13.481 3.715 13.481 6.737 10.457 6.737 6.74 6.737 3.024 3.715 0 0 0M0 12.063C-2.934 12.063-5.32 9.676-5.32 6.74-5.32 3.805-2.934 1.417 0 1.417 2.934 1.417 5.32 3.805 5.32 6.74 5.32 9.676 2.934 12.063 0 12.063" fill="#2c292a"/>
</g>
<path transform="matrix(1,0,0,-1,0,595.276)" d="M98.574 364.274H67.738V366.008H98.574Z" fill="#2c292a"/>
<path transform="matrix(1,0,0,-1,0,595.276)" d="M92.633 334.82H91.145008V358.814H92.633Z" fill="#2c292a"/>
<g clip-path="url(#clip_6)">
<path transform="matrix(1,0,0,-1,86.1126,230.45581)" d="M0 0C.076 3.357 2.776 6.057 6.105 6.057 9.435 6.057 12.134 3.357 12.134 .025 12.134-3.306 9.435-6.006 6.105-6.006 2.776-6.006 .076-3.306 0 0" fill="#ffffff"/>
<path transform="matrix(1,0,0,-1,92.2178,237.1708)" d="M0 0C-3.715 0-6.737 3.024-6.737 6.74-6.737 10.457-3.715 13.481 0 13.481 3.715 13.481 6.737 10.457 6.737 6.74 6.737 3.024 3.715 0 0 0M0 12.064C-2.934 12.064-5.32 9.676-5.32 6.74-5.32 3.805-2.934 1.417 0 1.417 2.934 1.417 5.32 3.805 5.32 6.74 5.32 9.676 2.934 12.064 0 12.064" fill="#ffffff"/>
<path transform="matrix(1,0,0,-1,86.1126,260.2151)" d="M0 0C.076 3.314 2.776 6.014 6.105 6.014 9.435 6.014 12.134 3.314 12.134-.017 12.134-3.349 9.435-6.049 6.105-6.049 2.776-6.049 .076-3.349 0 0" fill="#ffffff"/>
<path transform="matrix(1,0,0,-1,92.2178,266.9727)" d="M0 0C-3.715 0-6.737 3.024-6.737 6.74-6.737 10.457-3.715 13.481 0 13.481 3.715 13.481 6.737 10.457 6.737 6.74 6.737 3.024 3.715 0 0 0M0 12.063C-2.934 12.063-5.32 9.676-5.32 6.74-5.32 3.805-2.934 1.417 0 1.417 2.934 1.417 5.32 3.805 5.32 6.74 5.32 9.676 2.934 12.063 0 12.063" fill="#ffffff"/>
<path transform="matrix(1,0,0,-1,61.9396,237.1708)" d="M0 0C-3.715 0-6.737 3.024-6.737 6.74-6.737 10.457-3.715 13.481 0 13.481 3.715 13.481 6.737 10.457 6.737 6.74 6.737 3.024 3.715 0 0 0M0 12.064C-2.934 12.064-5.32 9.676-5.32 6.74-5.32 3.805-2.934 1.417 0 1.417 2.934 1.417 5.32 3.805 5.32 6.74 5.32 9.676 2.934 12.064 0 12.064" fill="#2c292a"/>
<path transform="matrix(1,0,0,-1,66.7182,312.7096)" d="M0 0H4.897C4.864-.752 4.848-1.438 4.848-2.058V-7.544C4.848-8.132 4.864-8.72 4.897-9.308H3.917V-8.132H-2.644V-9.308H-3.623C-3.591-8.687-3.574-8.116-3.574-7.593V-2.009C-3.574-1.421-3.591-.752-3.623 0H-.93C-.8 .882-.718 1.535-.686 1.96-.294 1.829 .13 1.731 .588 1.666 .392 1.372 .196 .816 0 0M3.917-.833H-2.6439999V-2.45H3.917ZM3.917-3.233H-2.6439999V-4.801H3.917ZM3.917-5.585H-2.6439999V-7.349H3.917ZM3.917-7.348" fill="#ffffff"/>
<path transform="matrix(1,0,0,-1,83.7936,311.5829)" d="M0 0C-.033-.621-.049-1.225-.049-1.813V-3.772C-.049-4.328-.033-4.948 0-5.634H-1.126V-4.752H-7.443V-8.524C-7.509-9.112-7.182-9.374-6.463-9.308-4.603-9.438-2.742-9.438-.881-9.308-.555-9.341-.302-9.186-.122-8.843 .057-8.5 .163-8.018 .196-7.397 .686-7.659 1.109-7.838 1.469-7.936 1.207-8.916 .914-9.545 .588-9.822 .261-10.1-.131-10.239-.588-10.239-2.808-10.337-5.027-10.337-7.247-10.239-8.063-10.271-8.471-9.928-8.471-9.21V-5.732C-8.471-5.112-8.488-4.475-8.52-3.821H-1.126V-.931H-6.561C-7.215-.931-7.932-.948-8.716-.98V.049C-7.932 .016-7.231 0-6.61 0Z" fill="#ffffff"/>
<path transform="matrix(1,0,0,-1,90.3901,312.5137)" d="M0 0V-2.205H.735C1.224-2.205 1.746-2.189 2.301-2.156V-3.037C1.746-3.005 1.24-2.988 .783-2.988H0V-8.034C0-8.589 .016-9.095 .049-9.553H-.93C-.898-9.03-.881-8.524-.881-8.034V-4.85C-1.371-5.765-2.106-6.81-3.085-7.985-3.249-7.757-3.509-7.528-3.868-7.299-3.151-6.614-2.522-5.822-1.983-4.923-1.444-4.026-1.143-3.38-1.077-2.988H-1.959C-2.677-2.988-3.2-3.005-3.525-3.037V-2.156C-3.167-2.189-2.644-2.205-1.959-2.205H-.881V-.147C-1.306-.213-1.975-.294-2.889-.392-2.955-.066-3.053 .228-3.183 .49-2.563 .522-1.78 .604-.832 .735 .114 .865 .914 1.061 1.567 1.323 1.632 .963 1.779 .604 2.008 .245 1.714 .245 1.044 .163 0 0M.147-4.36C.343-4.23 .588-4.034 .881-3.772 1.501-4.458 2.024-5.161 2.448-5.879 2.122-6.075 1.844-6.288 1.616-6.516 1.191-5.7 .702-4.981 .147-4.36M7.051-2.058V-7.104C7.051-7.691 7.067-8.165 7.1-8.524H6.121V-7.348H3.77V-8.622H2.84C2.872-7.871 2.889-7.414 2.889-7.25V-2.058C2.889-1.503 2.872-.899 2.84-.245H7.1C7.067-.899 7.051-1.503 7.051-2.058M6.121-1.078H3.771V-6.565H6.121ZM6.121-6.565" fill="#ffffff"/>
<path transform="matrix(1,0,0,-1,108.4938,320.45)" d="M0 0C0-.49 .032-1.078 .098-1.764H-.93V-1.029H-5.974V-1.813H-7.002C-6.97-1.127-6.953-.555-6.953-.098V1.029C-6.953 1.225-6.97 1.519-7.002 1.911-7.231 1.813-7.932 1.584-9.108 1.225-9.206 1.617-9.369 1.992-9.597 2.352-8.422 2.514-7.443 2.694-6.659 2.89-5.876 3.086-5.141 3.363-4.456 3.723-4.848 3.919-5.435 4.343-6.219 4.997-6.61 4.605-7.051 4.213-7.541 3.821-7.769 4.147-8.047 4.392-8.373 4.556-7.688 4.98-7.092 5.462-6.586 6.001-6.08 6.54-5.713 7.087-5.484 7.642-5.06 7.446-4.636 7.283-4.211 7.152-4.407 7.022-4.636 6.81-4.896 6.516H-.196C-.555 5.96-.898 5.495-1.224 5.119-1.551 4.743-2.057 4.278-2.742 3.723-2.285 3.527-1.673 3.331-.906 3.135-.139 2.939 .849 2.808 2.057 2.743 1.828 2.352 1.681 1.943 1.616 1.519 .995 1.682 .49 1.813 .098 1.911 .032 1.584 0 1.241 0 .882ZM1.616 8.671C1.583 8.115 1.567 7.707 1.567 7.446 1.567 7.217 1.583 6.859 1.616 6.369H.588V7.789H-7.981V6.32H-9.059C-9.026 6.646-9.01 6.957-9.01 7.25-9.01 7.544-9.026 8.017-9.059 8.671H-4.113C-4.211 8.997-4.342 9.308-4.505 9.602-4.015 9.7-3.623 9.781-3.33 9.847-3.102 9.193-2.971 8.801-2.938 8.671ZM-6.904 1.911H0C-1.012 2.139-1.771 2.352-2.277 2.547-2.783 2.743-3.248 2.923-3.672 3.086-4.228 2.825-4.766 2.596-5.288 2.4-5.811 2.205-6.349 2.041-6.904 1.911M-.93 1.127H-5.973V-.29400004H-.93ZM-5.631 5.585C-4.815 4.899-4.113 4.441-3.526 4.213-2.906 4.67-2.367 5.176-1.91 5.732H-5.533C-5.566 5.699-5.599 5.65-5.631 5.585" fill="#ffffff"/>
<path transform="matrix(1,0,0,-1,122.1906,315.747)" d="M0 0C0-.98 .016-1.748 .049-2.303H-1.028V-1.568H-7.835C-7.965-2.613-8.128-3.397-8.324-3.919-8.52-4.442-8.733-4.908-8.961-5.315-9.19-5.723-9.434-6.107-9.695-6.467-10.022-6.205-10.381-6.009-10.772-5.879-10.12-5.193-9.671-4.548-9.426-3.944-9.181-3.34-9.018-2.768-8.936-2.229-8.855-1.69-8.814-1.111-8.814-.49-8.814 .13-8.831 1.192-8.863 2.694H.049C.016 1.911 0 1.012 0 0M-1.077 1.813H-7.8830006V-.6860001H-1.077ZM-3.77 3.233C-4.195 3.135-4.522 3.021-4.75 2.89-4.978 3.576-5.239 4.18-5.533 4.703-5.207 4.801-4.897 4.931-4.603 5.095-4.211 4.311-3.934 3.69-3.77 3.233" fill="#ffffff"/>
<path transform="matrix(1,0,0,-1,59.6583,333.0612)" d="M0 0C-.458-.066-1.053-.164-1.787-.294-2.522-.425-3.216-.588-3.868-.784-3.966-.458-4.081-.164-4.211 .098-3.787 .294-3.371 .596-2.962 1.004-2.555 1.412-2.122 1.96-1.665 2.645-2.122 2.645-2.546 2.637-2.938 2.621-3.33 2.604-3.689 2.531-4.015 2.401-4.113 2.694-4.244 2.988-4.407 3.282-4.015 3.543-3.583 4.025-3.109 4.728-2.636 5.429-2.187 6.189-1.763 7.006-1.469 6.842-1.143 6.712-.783 6.614-.914 6.483-1.2 6.082-1.64 5.413-2.081 4.744-2.595 4.066-3.183 3.38-2.301 3.347-1.665 3.315-1.273 3.282-.914 3.87-.653 4.327-.49 4.654-.164 4.458 .163 4.327 .49 4.262 .261 4.033-.155 3.478-.759 2.596-1.363 1.715-1.975 .963-2.595 .343-1.943 .441-1.045 .588 .098 .784 .032 .555 0 .294 0 0M-2.154-2.89C-2.906-3.119-3.444-3.298-3.77-3.429-3.868-3.037-4.015-2.727-4.211-2.498-3.787-2.433-3.273-2.327-2.669-2.18-2.065-2.033-1.126-1.797 .147-1.47 .081-1.764 .049-2.042 .049-2.302-.669-2.466-1.404-2.662-2.154-2.89M1.714-4.066H.832C.865-3.478 .881-2.743 .881-1.862V2.939C.881 3.755 .865 4.458 .832 5.046H3.281C3.281 5.862 3.264 6.565 3.232 7.153 3.591 7.153 3.966 7.136 4.358 7.104 4.26 6.908 4.203 6.63 4.187 6.271 4.17 5.911 4.162 5.503 4.162 5.046H6.855C6.822 4.392 6.806 3.772 6.806 3.184V-3.086C6.806-3.51 6.675-3.772 6.415-3.87 6.153-3.968 5.729-4.066 5.141-4.164 5.043-3.837 4.913-3.51 4.75-3.184 5.109-3.184 5.394-3.168 5.607-3.135 5.818-3.102 5.925-2.939 5.925-2.645V4.311H4.162C4.162 3.559 4.113 2.89 4.015 2.303 4.276 2.009 4.578 1.682 4.921 1.323 5.264 .963 5.565 .604 5.827 .245 5.598 .081 5.386-.131 5.19-.392 4.929 .098 4.472 .702 3.819 1.421 3.656 .963 3.468 .571 3.256 .245 3.044-.082 2.791-.458 2.497-.882 2.204-.686 1.942-.539 1.714-.441ZM1.714-.343C2.106 .081 2.399 .457 2.595 .784 2.791 1.143 2.938 1.51 3.036 1.886 3.134 2.261 3.199 2.645 3.232 3.037 3.264 3.429 3.281 3.853 3.281 4.311H1.714Z" fill="#ffffff"/>
<path transform="matrix(1,0,0,-1,76.097,334.6778)" d="M0 0C-.718 .816-1.518 2.384-2.399 4.703-3.314 1.992-5.011-.311-7.492-2.205-7.623-1.878-7.916-1.535-8.373-1.176-6.251-.164-4.456 2.107-2.987 5.634-3.085 5.895-3.379 6.287-3.868 6.81-4.358 7.332-4.864 7.691-5.386 7.887-5.027 8.181-4.75 8.475-4.554 8.769-3.738 8.148-3.085 7.56-2.595 7.006-2.106 6.45-1.486 5.242-.734 3.38 .016 1.519 1.322 .13 3.183-.784 2.725-1.111 2.415-1.519 2.253-2.009 1.469-1.486 .718-.817 0 0" fill="#ffffff"/>
<path transform="matrix(1,0,0,-1,86.0233,333.698)" d="M0 0C.881 .882 1.55 1.911 2.008 3.086 2.268 2.89 2.595 2.678 2.987 2.449 2.203 1.208 1.436 .179 .686-.637 1.795-1.487 3.395-2.009 5.484-2.205 5.158-2.661 4.962-3.037 4.897-3.331 2.807-2.939 1.142-2.238-.098-1.225-1.502-2.27-3.134-3.004-4.994-3.429-5.092-3.037-5.272-2.678-5.533-2.352-3.542-2.123-1.975-1.535-.832-.588-1.584 .294-2.187 1.274-2.644 2.352-2.252 2.514-1.943 2.678-1.714 2.841-1.126 1.502-.555 .555 0 0M-3.819 5.046C-4.309 5.046-4.783 5.029-5.239 4.997V5.977L-3.868 5.879H3.77C4.292 5.911 4.831 5.944 5.386 5.977V4.948C4.831 4.98 4.292 5.013 3.77 5.046ZM-4.26 1.666C-4.522 1.992-4.832 2.254-5.19 2.449-4.571 2.776-4.008 3.184-3.501 3.674-2.995 4.164-2.612 4.588-2.35 4.948-2.024 4.719-1.682 4.474-1.322 4.213-1.78 3.788-2.759 2.939-4.26 1.666M.832 6.32C.375 6.189-.017 6.075-.343 5.977-.539 6.532-.783 7.136-1.077 7.789-.685 7.92-.294 8.034 .098 8.132 .424 7.381 .669 6.777 .832 6.32M3.33 4.091C3.917 3.65 4.488 3.233 5.043 2.841 4.684 2.58 4.374 2.303 4.113 2.009 3.819 2.401 2.905 3.135 1.371 4.213 1.632 4.474 1.91 4.719 2.203 4.948 2.366 4.817 2.742 4.532 3.33 4.091" fill="#ffffff"/>
<path transform="matrix(1,0,0,-1,102.3643,327.7213)" d="M0 0V-1.176C0-1.535 .016-2.025 .049-2.645H-5.044C-5.207-2.939-5.468-3.282-5.827-3.674H.93L.783-5.242 .441-8.132C.343-8.622 .041-8.941-.465-9.088-.972-9.235-1.469-9.324-1.959-9.357-2.122-8.867-2.301-8.507-2.497-8.279-2.138-8.311-1.738-8.304-1.298-8.255-.857-8.206-.588-7.985-.49-7.593L-.098-4.409H-1.371C-2.122-6.043-2.971-7.202-3.917-7.887-4.864-8.573-5.942-9.079-7.149-9.406-7.215-9.177-7.443-8.932-7.835-8.671-7.247-8.573-6.603-8.369-5.9-8.059-5.199-7.749-4.546-7.292-3.942-6.687-3.338-6.083-2.824-5.324-2.399-4.409H-3.917C-4.701-5.814-6.072-6.908-8.03-7.691-8.194-7.397-8.455-7.186-8.814-7.055-8.226-6.892-7.541-6.589-6.757-6.148-5.974-5.707-5.354-5.128-4.897-4.409H-6.512C-7.427-5.095-8.161-5.569-8.716-5.83-8.814-5.569-9.043-5.324-9.401-5.095-8.88-4.899-8.292-4.573-7.639-4.115-6.986-3.658-6.496-3.168-6.17-2.645H-7.737C-7.705-2.091-7.688-1.568-7.688-1.078V0C-7.688 .424-7.705 .947-7.737 1.568H.049C.016 .98 0 .457 0 0M-.93 .784H-6.757V-.14700002H-.93ZM-.93-.931H-6.757V-1.911H-.93ZM-.93-1.911" fill="#ffffff"/>
<path transform="matrix(1,0,0,-1,107.5898,327.7213)" d="M0 0C-.294-.523-.653-1.176-1.077-1.96-.36-1.927 .163-1.911 .49-1.911 .784-1.389 1.028-.882 1.224-.392 1.55-.621 1.91-.833 2.301-1.029 2.138-1.16 1.852-1.519 1.444-2.107 1.036-2.694 .392-3.658-.49-4.997 .588-4.834 1.436-4.703 2.057-4.605 1.959-4.965 1.91-5.275 1.91-5.536 1.616-5.569 1.093-5.634 .343-5.732-.409-5.83-1.143-5.977-1.861-6.173-1.991-5.847-2.106-5.52-2.203-5.193-1.812-5.095-1.42-4.793-1.028-4.287-.637-3.781-.294-3.25 0-2.694-.229-2.694-.563-2.719-1.004-2.768-1.444-2.817-1.828-2.89-2.154-2.988-2.252-2.662-2.35-2.352-2.448-2.058-2.089-1.764-1.706-1.258-1.298-.539-.89 .179-.571 .963-.343 1.813 .049 1.617 .441 1.437 .832 1.274 .571 .947 .294 .522 0 0M2.057-7.887C1.436-7.985 .735-8.1-.049-8.23-.832-8.36-1.502-8.507-2.057-8.671-2.187-8.246-2.318-7.871-2.448-7.544-1.763-7.512-1.143-7.455-.588-7.373-.033-7.292 .881-7.152 2.155-6.957 2.057-7.25 2.024-7.561 2.057-7.887M5.092-.049C5.092 .506 5.076 1.159 5.043 1.911H6.072C6.039 1.323 6.023 .669 6.023-.049H7.443C8.063-.049 8.634-.033 9.157 0V-.882C8.634-.85 8.079-.833 7.492-.833H6.023V-2.449H7.149C7.606-2.449 8.063-2.434 8.52-2.4V-3.282C8.128-3.25 7.655-3.233 7.1-3.233H4.26C3.705-3.233 3.215-3.25 2.791-3.282V-2.4C3.215-2.434 3.672-2.449 4.162-2.449H5.092V-.833H4.015C3.428-.833 2.872-.85 2.35-.882V0C2.774-.033 3.297-.049 3.917-.049ZM8.275-5.879V-7.544C8.275-8.165 8.291-8.703 8.324-9.161H7.345V-8.23H4.015V-9.259H3.036C3.068-8.409 3.085-7.855 3.085-7.593V-5.781C3.085-5.389 3.068-4.948 3.036-4.458H8.324C8.291-4.883 8.275-5.357 8.275-5.879M7.345-5.242H4.015V-7.447H7.345ZM7.345-7.446" fill="#ffffff"/>
<path transform="matrix(1,0,0,-1,120.7479,331.1016)" d="M0 0V-3.723C0-4.409 .016-5.111 .049-5.83H-.979C-.947-5.078-.93-4.377-.93-3.723V-.196C-1.29-1.013-1.829-1.911-2.546-2.89-2.742-2.629-2.971-2.368-3.232-2.107-2.644-1.454-2.163-.727-1.787 .073-1.412 .873-1.192 1.519-1.126 2.009-1.649 2.009-2.154 1.992-2.644 1.96V2.841C-2.154 2.808-1.584 2.792-.93 2.792V3.919C-.93 4.409-.947 4.85-.979 5.242H.049C.016 4.915 0 4.474 0 3.919V2.792C.424 2.792 .881 2.808 1.371 2.841V1.96C.881 1.992 .424 2.009 0 2.009V.098C.261 .228 .522 .375 .783 .539 1.109-.049 1.42-.621 1.714-1.176 1.42-1.307 1.126-1.47 .832-1.666 .571-1.046 .294-.49 0 0M3.795 4.213C3.648 3.886 3.509 3.559 3.379 3.233H8.226C8.193 2.743 8.16 2.139 8.128 1.421 8.128-.572 8.063-2.434 7.932-4.164 7.802-4.882 7.532-5.331 7.125-5.511 6.716-5.69 6.088-5.813 5.239-5.879 5.174-5.519 5.043-5.144 4.848-4.752 5.533-4.785 6.055-4.769 6.415-4.703 6.773-4.638 6.985-4.213 7.051-3.429 7.181-1.601 7.23 .343 7.198 2.401H3.036C2.742 1.747 2.415 1.127 2.057 .539 1.795 .735 1.518 .882 1.224 .98 1.714 1.698 2.122 2.465 2.448 3.282 2.774 4.098 3.003 4.817 3.134 5.438 3.526 5.242 3.9 5.111 4.26 5.046 4.096 4.817 3.942 4.539 3.795 4.213M3.599-2.988C2.93-3.086 2.366-3.233 1.91-3.429 1.779-3.037 1.632-2.662 1.469-2.303 1.665-2.238 1.893-1.993 2.155-1.568 2.415-1.144 2.627-.71 2.791-.269 2.954 .171 3.117 .702 3.281 1.323 3.672 1.159 4.047 .98 4.407 .784 4.211 .588 3.925 .122 3.55-.612 3.174-1.347 2.872-1.878 2.644-2.205 3.362-2.172 4.145-2.123 4.995-2.058 4.864-1.601 4.701-1.111 4.505-.588L5.484-.294C5.68-.85 5.859-1.372 6.023-1.862 6.186-2.352 6.3-2.825 6.366-3.282 6.006-3.348 5.663-3.446 5.337-3.576 5.271-3.282 5.206-3.021 5.141-2.792 4.782-2.825 4.268-2.89 3.599-2.988" fill="#ffffff"/>
<path transform="matrix(1,0,0,-1,166.5057,313.29753)" d="M0 0C.359-.033 .995-.049 1.91-.049 1.91 .996 1.893 1.829 1.861 2.449H2.889C2.856 2.123 2.84 1.29 2.84-.049 3.101-.049 3.509-.033 4.064 0V-.882C3.477-.85 3.068-.833 2.84-.833V-2.89C3.33-2.662 3.737-2.433 4.064-2.205 4.129-2.498 4.194-2.776 4.26-3.037 3.868-3.233 3.395-3.478 2.84-3.772V-7.593C2.84-8.018 2.66-8.32 2.301-8.5 1.942-8.679 1.42-8.801 .734-8.867 .669-8.605 .539-8.246 .343-7.789 1.224-7.822 1.705-7.773 1.787-7.642 1.868-7.512 1.91-7.299 1.91-7.006V-4.164C1.616-4.295 1.093-4.573 .343-4.997 .179-4.638 0-4.344-.196-4.115 .359-3.919 1.06-3.642 1.91-3.282V-.833C.962-.833 .326-.85 0-.882ZM11.409-8.181C10.854-8.148 10.348-8.132 9.891-8.132H5.631C4.88-8.132 4.26-8.148 3.77-8.181V-7.299C4.227-7.332 4.831-7.348 5.582-7.348H7.688C7.916-6.696 8.185-5.83 8.495-4.752 8.805-3.674 9.075-2.531 9.303-1.323 9.662-1.584 10.038-1.748 10.43-1.813 10.266-2.042 10.07-2.564 9.842-3.38 9.613-4.197 9.206-5.52 8.618-7.348H9.891C10.413-7.348 10.919-7.332 11.409-7.299ZM4.456 .049C4.848 .016 5.304 0 5.827 0H9.793C10.348 .032 10.707 .049 10.87 .049V-.833C10.74-.801 10.364-.784 9.744-.784H5.827C5.598-.784 5.141-.801 4.456-.833ZM7.345-6.222C7.018-6.32 6.675-6.434 6.317-6.565 5.99-5.324 5.516-3.854 4.897-2.156 5.19-2.058 5.5-1.944 5.827-1.813 6.544-3.805 7.051-5.275 7.345-6.222M8.177 .539C7.916 .473 7.59 .343 7.198 .147 7.067 .604 6.789 1.274 6.366 2.156 6.594 2.221 6.887 2.352 7.247 2.547 7.704 1.666 8.013 .996 8.177 .539" fill="#ffffff"/>
<path transform="matrix(1,0,0,-1,187.1066,319.7152)" d="M0 0C-.718 .816-1.518 2.384-2.399 4.703-3.314 1.992-5.011-.311-7.492-2.205-7.623-1.878-7.916-1.535-8.373-1.176-6.251-.164-4.456 2.107-2.987 5.634-3.085 5.895-3.379 6.287-3.868 6.81-4.358 7.332-4.864 7.691-5.386 7.887-5.027 8.181-4.75 8.475-4.554 8.769-3.738 8.148-3.085 7.56-2.595 7.006-2.106 6.45-1.486 5.242-.734 3.38 .016 1.519 1.322 .13 3.183-.784 2.725-1.111 2.415-1.519 2.253-2.009 1.469-1.486 .718-.817 0 0" fill="#ffffff"/>
<path transform="matrix(1,0,0,-1,200.9011,311.6808)" d="M0 0C.294 0 .702 .016 1.224 .049V-.833C.8-.801 .392-.784 0-.784H-3.33V-1.813H.245C.212-2.368 .196-3.119 .196-4.066 .196-4.981 .212-5.716 .245-6.271H-3.477C-3.575-6.957-3.803-7.593-4.162-8.181-3.672-8.475-2.962-8.737-2.032-8.965-1.101-9.194-.384-9.324 .122-9.357 .628-9.389 1.126-9.406 1.616-9.406 1.42-9.569 1.256-9.912 1.126-10.435 .245-10.369-.734-10.214-1.812-9.969-2.889-9.724-3.852-9.373-4.701-8.916-5.027-9.21-5.508-9.512-6.145-9.822-6.782-10.132-7.72-10.386-8.961-10.582-9.091-10.222-9.254-9.912-9.45-9.651-8.504-9.618-7.68-9.48-6.977-9.235-6.276-8.99-5.762-8.72-5.435-8.426-6.056-8.002-6.708-7.463-7.394-6.81-7.198-6.679-7.002-6.5-6.806-6.271H-7.981C-7.949-5.651-7.932-4.883-7.932-3.968-7.932-3.021-7.949-2.303-7.981-1.813H-4.26V-.784H-7.296C-7.818-.784-8.373-.801-8.961-.833V.049C-8.373 .016-7.834 0-7.345 0ZM-4.26-2.547H-6.953V-3.576H-4.26ZM-4.309-5.438C-4.277-5.079-4.26-4.72-4.26-4.36H-6.953V-5.438ZM-6.659-6.271C-6.072-6.892-5.484-7.381-4.896-7.74-4.636-7.25-4.473-6.761-4.407-6.271ZM-.783-5.438V-4.36H-3.33C-3.33-4.589-3.346-4.948-3.379-5.438ZM-.783-2.547H-3.329V-3.576H-.783ZM-.783-3.576" fill="#ffffff"/>
<path transform="matrix(1,0,0,-1,204.364,316.4329)" d="M0 0C.62 .032 1.371 .163 2.253 .392 3.134 .62 3.819 .865 4.309 1.127 3.917 1.649 3.477 2.107 2.987 2.499 3.248 2.694 3.46 2.906 3.624 3.135 4.243 2.547 4.75 2.025 5.141 1.568 5.631 1.862 6.072 2.18 6.464 2.523 6.855 2.866 7.198 3.233 7.492 3.625H3.281C2.595 3.037 1.795 2.449 .881 1.862 .686 2.156 .441 2.384 .147 2.547 1.028 2.939 1.828 3.445 2.546 4.066 3.264 4.686 3.738 5.225 3.966 5.683 4.227 5.487 4.505 5.291 4.799 5.095 4.635 4.964 4.374 4.719 4.015 4.36H9.108C8.161 2.988 7.23 1.992 6.317 1.372 5.402 .751 4.513 .285 3.648-.024 2.783-.335 1.779-.637 .637-.931 .506-.605 .294-.294 0 0M7.247 .637C6.953 .375 6.675 .13 6.415-.098H10.479C10.087-1.078 9.573-1.927 8.936-2.645 8.3-3.364 7.59-3.919 6.806-4.311 6.023-4.703 5.158-5.029 4.211-5.291 3.264-5.552 2.106-5.748 .735-5.879 .604-5.519 .408-5.176 .147-4.85 .963-4.882 1.934-4.801 3.06-4.605 4.187-4.409 5.206-4.099 6.121-3.674 5.533-3.086 5.043-2.613 4.652-2.254 4.913-2.058 5.141-1.846 5.337-1.617 5.794-2.074 6.317-2.613 6.904-3.233 7.328-2.972 7.728-2.638 8.104-2.229 8.479-1.821 8.797-1.356 9.059-.833H5.68C5.353-1.095 4.897-1.413 4.309-1.788 3.722-2.164 2.905-2.58 1.861-3.037 1.697-2.711 1.485-2.449 1.224-2.254 2.302-1.927 3.321-1.421 4.285-.735 5.247-.049 5.925 .604 6.317 1.225 6.578 .963 6.887 .767 7.247 .637" fill="#ffffff"/>
<path transform="matrix(1,0,0,-1,166.4395,332.9632)" d="M0 0C-.229-.196-.474-.441-.734-.735-1.192-.049-1.665 .555-2.154 1.078V-2.547C-2.154-3.331-2.138-3.919-2.106-4.311H-3.183C-3.151-3.886-3.134-3.298-3.134-2.547V.882C-3.493 .196-3.836-.376-4.162-.833-4.489-1.291-4.913-1.829-5.435-2.45-5.631-2.123-5.909-1.846-6.268-1.617-5.55-1.029-4.905-.286-4.333 .612-3.763 1.51-3.395 2.237-3.232 2.792H-4.162C-4.945 2.792-5.517 2.776-5.876 2.743V3.674C-5.484 3.641-4.913 3.625-4.162 3.625H-3.134V5.536C-3.787 5.405-4.489 5.274-5.239 5.144-5.337 5.47-5.468 5.781-5.631 6.075-5.076 6.107-4.309 6.222-3.33 6.418-2.35 6.614-1.42 6.859-.539 7.152-.376 6.761-.164 6.418 .098 6.124-.555 6.026-1.306 5.895-2.154 5.732V3.625H-1.322C-.637 3.625-.033 3.641 .49 3.674V2.743C-.033 2.776-.62 2.792-1.273 2.792H-2.154V2.205C-1.437 1.551-.718 .816 0 0M2.155 3.478V.392C2.155-.294 2.171-.882 2.203-1.372H1.126C1.158-.784 1.175-.196 1.175 .392V3.478C1.175 4 1.158 4.523 1.126 5.046H2.203C2.171 4.654 2.155 4.131 2.155 3.478M4.407 5.389V-3.184C4.407-3.576 4.252-3.829 3.942-3.944 3.631-4.058 3.085-4.18 2.301-4.311 2.203-3.821 2.089-3.429 1.959-3.135 2.644-3.168 3.06-3.151 3.207-3.086 3.354-3.021 3.428-2.89 3.428-2.694V5.438C3.428 5.895 3.411 6.434 3.379 7.055H4.456C4.423 6.728 4.407 6.173 4.407 5.389" fill="#ffffff"/>
<path transform="matrix(1,0,0,-1,175.9987,331.0771)" d="M0 0C-.539-.376-1.053-.71-1.542-1.004H6.39C6.357-1.527 6.341-2.164 6.341-2.915V-4.972C7.059-4.972 7.663-4.956 8.153-4.923V-5.903C7.565-5.87 6.961-5.854 6.341-5.854H-1.346C-2.163-5.854-2.864-5.87-3.452-5.903V-4.923C-2.995-4.956-2.392-4.972-1.64-4.972V-2.817C-1.64-2.131-1.657-1.56-1.689-1.102-1.885-1.266-2.114-1.413-2.375-1.543-2.571-1.217-2.815-.939-3.109-.71-2.62-.514-2.04-.204-1.371 .22-.702 .645-.041 1.167 .612 1.788 .906 1.461 1.232 1.151 1.591 .857 1.069 .661 .539 .375 0 0M4.799 4.213C4.652 3.87 4.464 3.503 4.236 3.111H5.117C6.063 3.111 6.896 3.127 7.614 3.16V2.229C6.896 2.261 6.063 2.278 5.117 2.278H-.073C-.89 2.278-1.82 2.261-2.864 2.229V3.16C-2.049 3.127-1.119 3.111-.073 3.111H3.256C3.386 3.405 3.526 3.764 3.672 4.189 3.819 4.613 3.974 5.021 4.138 5.413L5.313 5.021C5.117 4.825 4.946 4.556 4.799 4.213M.71-1.788H-.759V-4.972H.71ZM1.249 3.65C.955 3.552 .628 3.405 .269 3.209 .008 3.895-.302 4.483-.661 4.972-.4 5.07-.09 5.217 .269 5.413 .563 4.988 .889 4.401 1.249 3.65M3.109-1.788H1.5419999V-4.972H3.109ZM5.656 .857C6.341 .563 6.994 .285 7.614 .025 7.353-.237 7.125-.563 6.929-.955 6.243-.563 5.565-.213 4.897 .098 4.227 .408 3.648 .645 3.158 .808 3.321 1.036 3.501 1.33 3.697 1.69 4.317 1.428 4.97 1.151 5.656 .857M5.46-1.788H3.942V-4.972H5.46ZM5.46-4.972" fill="#ffffff"/>
<path transform="matrix(1,0,0,-1,187.2225,325.7617)" d="M0 0H1.077C1.044-.49 1.028-1.388 1.028-2.694 1.812-2.694 2.415-2.678 2.84-2.645V-3.576C2.448-3.544 1.844-3.527 1.028-3.527V-5.389C1.191-5.226 1.371-5.03 1.567-4.801 2.154-5.422 2.66-6.026 3.085-6.614 2.889-6.745 2.644-6.957 2.35-7.25 1.991-6.63 1.55-6.059 1.028-5.536V-9.259C1.028-9.815 1.044-10.533 1.077-11.415H0C.032-10.533 .049-9.831 .049-9.308V-5.977C-.376-7.186-.865-8.149-1.42-8.867-1.649-8.508-1.878-8.23-2.106-8.034-1.878-7.838-1.551-7.324-1.126-6.491-.702-5.658-.376-4.671-.147-3.527-.865-3.527-1.453-3.544-1.91-3.576V-2.645C-1.322-2.678-.669-2.694 .049-2.694 .049-1.356 .032-.458 0 0M8.814-3.184V-8.72C8.814-9.602 8.83-10.467 8.863-11.317H7.884V-10.386H4.211V-11.415H3.232C3.264-10.435 3.281-9.586 3.281-8.867V-3.135C3.281-2.286 3.264-1.487 3.232-.735H8.863C8.83-1.519 8.814-2.336 8.814-3.184M7.884-1.568H4.2109997V-3.724H7.884ZM7.884-4.507H4.2109997V-6.467H7.884ZM7.884-7.299H4.2109997V-9.5529999H7.884ZM7.884-9.553" fill="#ffffff"/>
<path transform="matrix(1,0,0,-1,205.5466,327.3783)" d="M0 0C-.213-.392-.4-.752-.563-1.078H.514C1.2-1.078 1.803-1.062 2.326-1.029V-1.96C1.901-1.927 1.347-1.911 .661-1.911H-1.885V-4.36H1.2C1.852-4.36 2.44-4.344 2.962-4.311V-5.242C2.44-5.21 1.885-5.193 1.298-5.193H-1.689C-.71-6.859 .922-7.936 3.207-8.426 2.913-8.752 2.652-9.144 2.424-9.602 .367-8.916-1.184-7.724-2.228-6.026-2.784-7.463-4.318-8.703-6.831-9.749-6.962-9.422-7.206-9.128-7.565-8.867-5.052-8.181-3.501-6.957-2.913-5.193H-5.509C-6.26-5.193-6.88-5.21-7.369-5.242V-4.36C-7.01-4.393-6.456-4.409-5.705-4.409H-2.816V-1.911H-5.117C-5.737-1.911-6.292-1.927-6.782-1.96V-1.029C-6.292-1.062-5.721-1.078-5.068-1.078H-1.543C-1.086-.033-.759 .833-.563 1.519-.237 1.323 .154 1.127 .612 .931 .416 .702 .212 .392 0 0M-3.06-.392C-3.452-.588-3.763-.784-3.991-.98-4.383-.229-4.774 .392-5.166 .882-4.872 1.078-4.611 1.274-4.383 1.47-3.959 .947-3.518 .326-3.06-.392" fill="#ffffff"/>
<path transform="matrix(1,0,0,-1,219.6349,328.35823)" d="M0 0C-.343-.36-.825-.85-1.445-1.47H-.073C.481-1.47 1.053-1.454 1.64-1.421V-2.302C1.053-2.27 .465-2.254-.122-2.254H-2.424C-2.946-2.645-3.534-3.07-4.187-3.527H-.024C-.057-4.115-.073-4.654-.073-5.144V-6.859C-.073-7.446-.057-8.083-.024-8.769H-1.004V-8.034H-5.705V-8.769H-6.733C-6.701-8.246-6.684-7.756-6.684-7.299V-5.046C-7.337-5.406-8.072-5.765-8.887-6.124-9.214-5.667-9.443-5.389-9.573-5.291-9.345-5.226-8.912-5.07-8.275-4.825-7.639-4.581-7.109-4.311-6.684-4.017V-3.527H-5.753C-5.036-3.135-4.399-2.711-3.844-2.254H-7.32C-8.006-2.254-8.643-2.27-9.23-2.302V-1.421C-8.577-1.454-7.941-1.47-7.32-1.47H-4.725V.049H-6.194C-6.75 .049-7.255 .032-7.712 0V.882C-7.255 .849-6.75 .833-6.194 .833H-4.725C-4.725 1.323-4.742 1.878-4.774 2.499H-3.697C-3.73 2.041-3.746 1.486-3.746 .833H-3.011C-2.588 .833-2.098 .849-1.542 .882V0C-2.098 .032-2.588 .049-3.011 .049H-3.746V-1.47H-2.767C-2.31-1.111-1.853-.686-1.396-.196-.939 .294-.465 .914 .024 1.666 .383 1.306 .677 1.045 .906 .882 .644 .653 .343 .359 0 0M-1.004-4.311H-5.705V-5.34H-1.004ZM-1.004-6.124H-5.705V-7.251H-1.004ZM-1.004-7.25" fill="#ffffff"/>
<path transform="matrix(1,0,0,-1,256.4323,321.0869)" d="M0 0C-.36 .196-.686 .359-.979 .49-.49 1.208 0 2.221 .49 3.527 .783 3.266 1.126 3.119 1.518 3.086 1.06 2.139 .555 1.11 0 0M9.157 7.006C9.157 6.091 9.172 5.176 9.206 4.262H.636C.669 5.209 .685 6.14 .685 7.055 .685 7.969 .669 8.883 .636 9.798H9.206C9.172 8.85 9.157 7.92 9.157 7.006M4.456 8.965H1.665V7.495H4.456ZM4.456 6.614H1.665V5.095H4.456ZM3.281 1.862V.686C3.248 .228 3.493 .017 4.015 .049H6.512C6.74 .049 6.936 .106 7.1 .22 7.263 .334 7.394 .767 7.492 1.519 7.818 1.225 8.177 1.029 8.569 .931 8.34 .179 8.071-.294 7.761-.49 7.45-.686 7.1-.784 6.708-.784H3.281C2.693-.784 2.382-.473 2.35 .147V1.862C2.35 2.221 2.333 2.612 2.301 3.037H3.33C3.297 2.645 3.281 2.254 3.281 1.862M6.365 2.009C5.941 1.78 5.631 1.584 5.435 1.421 5.075 2.172 4.717 2.792 4.358 3.282 4.652 3.412 4.929 3.576 5.19 3.772 5.549 3.249 5.941 2.661 6.365 2.009M8.226 8.965H5.3859999V7.495H8.226ZM8.226 6.614H5.3859999V5.095H8.226ZM10.576 1.176C10.283 .98 10.005 .751 9.744 .49 9.255 1.274 8.65 2.074 7.932 2.89 8.128 2.988 8.389 3.184 8.716 3.478 9.433 2.661 10.054 1.894 10.576 1.176" fill="#ffffff"/>
<path transform="matrix(1,0,0,-1,277.5716,318.4414)" d="M0 0C-.066-.392-.172-.964-.318-1.715-.465-2.466-.62-2.939-.783-3.135-.947-3.331-1.29-3.478-1.812-3.576-2.334-3.674-3.053-3.755-3.966-3.821-3.999-3.396-4.113-3.037-4.309-2.743-2.579-2.808-1.64-2.694-1.493-2.401-1.347-2.107-1.224-1.568-1.126-.784H-3.819C-4.505-.784-5.06-.85-5.484-.98-5.55-.686-5.664-.409-5.827-.147-5.599-.115-5.403 .008-5.239 .22-5.076 .432-4.897 .751-4.701 1.176H-5.68C-6.04 .98-6.505 .751-7.076 .49-7.647 .228-8.308-.049-9.059-.343-9.157-.082-9.353 .196-9.646 .49-8.896 .686-8.014 1.004-7.002 1.445-5.991 1.886-4.995 2.482-4.015 3.233H-7.345C-7.769 3.233-8.406 3.217-9.255 3.184V4.066C-8.406 4.033-7.769 4.017-7.345 4.017H-4.799V5.585H-6.17C-6.464 5.585-6.904 5.568-7.492 5.536V6.369C-6.904 6.336-6.48 6.32-6.219 6.32H-4.799C-4.799 6.94-4.816 7.397-4.848 7.691H-3.917C-3.95 7.234-3.966 6.777-3.966 6.32H-3.232C-3.004 6.32-2.481 6.336-1.665 6.369V5.536C-2.546 5.568-3.053 5.585-3.183 5.585H-3.966V4.017H-3.036C-2.416 4.539-1.853 5.062-1.347 5.585-.841 6.107-.458 6.565-.196 6.957 .065 6.695 .375 6.467 .734 6.271 .506 6.107 .154 5.821-.318 5.413-.792 5.005-1.306 4.539-1.861 4.017H.147C.604 4.017 1.109 4.033 1.665 4.066V3.184C1.109 3.217 .604 3.233 .147 3.233H-2.742C-3.134 2.939-3.705 2.514-4.456 1.96H-.979C-.458 1.96-.049 1.976 .245 2.009V1.127C-.049 1.159-.441 1.176-.93 1.176H-3.77C-3.934 .816-4.13 .424-4.358 0Z" fill="#ffffff"/>
<path transform="matrix(1,0,0,-1,288.0367,310.701)" d="M0 0C.424-.196 .865-.36 1.322-.49 1.158-.719 .987-1.029 .808-1.421 .628-1.813 .457-2.205 .294-2.596 1.469-2.596 2.333-2.581 2.889-2.547V-3.527C2.399-3.495 1.599-3.478 .49-3.478V-6.124C2.024-6.124 3.117-6.108 3.77-6.075V-7.055C3.281-7.022 2.187-7.006 .49-7.006V-9.504C.49-10.027 .506-10.647 .539-11.366H-.49C-.458-10.68-.441-10.109-.441-9.651V-7.006H-3.33C-3.428-8.083-3.705-8.949-4.162-9.602-4.62-10.256-5.321-10.908-6.268-11.562-6.562-11.17-6.872-10.876-7.198-10.68-6.284-10.256-5.591-9.741-5.117-9.137-4.644-8.533-4.375-7.822-4.309-7.006-5.746-7.006-6.806-7.022-7.492-7.055V-6.075C-6.839-6.108-5.746-6.124-4.211-6.124V-3.478C-5.19-3.478-6.023-3.495-6.708-3.527V-2.547C-6.317-2.581-5.419-2.596-4.015-2.596-4.342-1.878-4.734-1.258-5.19-.735-4.734-.474-4.424-.278-4.26-.147-3.575-1.029-3.134-1.682-2.938-2.107-3.2-2.27-3.461-2.434-3.721-2.596H-.783C-.458-1.813-.196-.948 0 0M-.441-3.478H-3.281V-6.123H-.441ZM-.441-6.124" fill="#ffffff"/>
<path transform="matrix(1,0,0,-1,294.2904,314.7672)" d="M0 0C.326-.196 .62-.376 .881-.539 .686-.735 .49-1.013 .294-1.372 .032-1.176-.229-.988-.49-.808-.751-.629-1.077-.441-1.469-.245-1.208 .049-1.012 .31-.881 .539-.62 .375-.327 .196 0 0M1.004-3.478C.857-3.772 .612-4.271 .269-4.972-.073-5.675-.327-6.238-.49-6.663-.783-6.369-1.11-6.108-1.469-5.879-1.208-5.618-.988-5.34-.808-5.046-.629-4.752-.367-4.271-.024-3.601 .318-2.932 .555-2.417 .686-2.058 .914-2.254 1.175-2.449 1.469-2.645 1.305-2.907 1.151-3.184 1.004-3.478M.539 2.939C.865 2.71 1.207 2.465 1.567 2.205 1.273 2.041 1.028 1.78 .832 1.421 .571 1.682 .294 1.911 0 2.107-.294 2.303-.604 2.499-.93 2.694-.669 3.053-.458 3.331-.294 3.527-.066 3.363 .212 3.168 .539 2.939M3.428-.343C2.905-.343 2.334-.36 1.714-.392V.49C2.334 .457 2.889 .441 3.379 .441H8.471C8.961 .441 9.45 .457 9.94 .49V-.392C9.45-.36 8.961-.343 8.471-.343H7.394V-1.568H9.744C9.711-2.025 9.695-2.498 9.695-2.988V-6.271C9.695-6.597 9.589-6.85 9.377-7.03 9.164-7.209 8.65-7.364 7.835-7.495 7.737-7.202 7.557-6.859 7.296-6.467 8.079-6.434 8.52-6.369 8.618-6.271 8.716-6.173 8.765-6.059 8.765-5.928V-2.352H7.345C7.312-2.711 7.263-3.103 7.198-3.527 7.851-4.115 8.307-4.556 8.569-4.85 8.373-5.014 8.145-5.226 7.884-5.487 7.622-5.095 7.312-4.72 6.953-4.36 6.594-5.177 6.268-5.798 5.974-6.222 5.778-5.994 5.5-5.798 5.141-5.634 5.533-5.21 5.835-4.744 6.047-4.238 6.259-3.732 6.398-3.103 6.464-2.352H5.141C5.109-2.547 5.06-2.792 4.995-3.086 5.484-3.446 5.827-3.74 6.023-3.968 5.892-4.197 5.745-4.442 5.582-4.703 5.321-4.409 5.06-4.132 4.799-3.87 4.701-4.132 4.586-4.418 4.456-4.728 4.325-5.038 4.145-5.373 3.917-5.732 3.689-5.536 3.395-5.373 3.036-5.242 3.395-4.752 3.68-4.262 3.893-3.772 4.105-3.282 4.227-2.809 4.26-2.352H2.889V-7.397H1.91C1.942-6.777 1.959-6.206 1.959-5.683V-3.184C1.959-2.694 1.942-2.156 1.91-1.568H4.309V-.343ZM3.966 2.694V3.037C3.966 3.331 3.949 3.641 3.917 3.968H4.897C4.864 3.674 4.848 3.38 4.848 3.086V2.694H6.757V2.988C6.757 3.315 6.74 3.641 6.708 3.968H7.737C7.704 3.674 7.688 3.347 7.688 2.988V2.694H8.275C8.765 2.694 9.303 2.71 9.891 2.743V1.862C9.303 1.894 8.748 1.911 8.226 1.911H7.688C7.688 1.715 7.704 1.372 7.737 .882H6.757V1.911H4.848V.882H3.917C3.949 1.339 3.966 1.682 3.966 1.911H3.379C3.085 1.911 2.562 1.894 1.812 1.862V2.743C2.562 2.71 3.085 2.694 3.379 2.694ZM5.141-1.568H6.512V-.34299995H5.141ZM5.141-.343" fill="#ffffff"/>
<path transform="matrix(1,0,0,-1,308.2319,318.8334)" d="M0 0C.751-.915 1.567-1.486 2.448-1.715V3.674H-.783C-.751 4.294-.734 4.98-.734 5.732-.734 6.483-.751 7.136-.783 7.691H6.659C6.626 7.136 6.61 6.483 6.61 5.732 6.61 4.98 6.626 4.294 6.659 3.674H3.428V1.519H5.876C6.333 1.519 6.855 1.535 7.443 1.568V.686C6.887 .718 6.398 .735 5.974 .735H3.428V-1.862C4.08-1.993 4.896-2.05 5.876-2.033 6.855-2.017 7.72-1.96 8.471-1.862 8.34-2.025 8.209-2.4 8.079-2.988 6.936-2.955 5.884-2.931 4.921-2.915 3.958-2.898 3.052-2.776 2.203-2.547 1.354-2.318 .522-1.764-.294-.882-.718-1.927-1.208-2.776-1.763-3.429-2.024-3.102-2.302-2.857-2.595-2.694-2.171-2.302-1.853-1.911-1.64-1.519-1.428-1.127-1.233-.621-1.053 0-.874 .62-.783 1.404-.783 2.352-.294 2.286 .114 2.221 .441 2.156 .277 1.862 .13 1.143 0 0M5.631 6.908H.24499989V4.41H5.631ZM5.631 4.409" fill="#ffffff"/>
<path transform="matrix(1,0,0,-1,326.5315,311.044)" d="M0 0C.49 0 1.044 .016 1.665 .049V-.784C1.044-.752 .49-.735 0-.735H-2.399V-1.568H2.497V-3.87H1.567V-2.303H-2.399V-3.674C-2.399-4.23-2.383-4.736-2.35-5.193H-3.379C-3.346-4.769-3.33-4.279-3.33-3.723V-2.303H-7.345V-3.87H-8.324C-8.324-3.511-8.316-3.152-8.3-2.792-8.284-2.434-8.292-2.025-8.324-1.568H-3.33V-.735H-5.729C-6.219-.735-6.708-.752-7.198-.784V.049C-6.708 .016-6.235 0-5.778 0ZM.881-5.83C1.338-5.83 1.877-5.814 2.497-5.781V-6.614C1.877-6.581 1.338-6.565 .881-6.565H-2.497C-2.661-6.859-2.775-7.153-2.84-7.446H1.763C1.73-7.871 1.714-8.247 1.714-8.573V-10.043C1.714-10.435 1.616-10.687 1.42-10.802 1.224-10.916 .8-11.039 .147-11.17 .114-10.876-.033-10.533-.294-10.141 .228-10.141 .539-10.108 .637-10.043 .734-9.977 .783-9.815 .783-9.553V-8.181H-1.126V-10.68H-2.057V-8.181H-3.77V-10.68H-4.701V-8.181H-6.561V-11.072H-7.492C-7.46-10.614-7.443-10.124-7.443-9.602V-8.818C-7.443-8.394-7.46-7.936-7.492-7.446H-3.721C-3.623-7.153-3.542-6.859-3.477-6.565H-6.561C-7.117-6.565-7.655-6.581-8.177-6.614V-5.781C-7.688-5.814-7.166-5.83-6.61-5.83ZM-4.358-5.144H-6.757V-4.458H-4.358ZM-4.309-3.772H-6.61V-3.086H-4.309ZM.588-3.723H-1.713V-3.0370002H.588ZM.637-5.046H-1.664V-4.36H.637Z" fill="#ffffff"/>
<path transform="matrix(1,0,0,-1,330.7288,313.1015)" d="M0 0C.522-.033 1.077-.049 1.665-.049H4.701C4.701 .898 4.684 1.633 4.652 2.156H5.729C5.696 1.633 5.68 .898 5.68-.049H9.157C9.613-.049 10.119-.033 10.674 0V-.882C10.087-.85 9.58-.833 9.157-.833H5.68C5.712-1.356 5.867-1.911 6.145-2.499 6.422-3.086 6.708-3.576 7.002-3.968 7.72-3.38 8.389-2.629 9.01-1.715 9.238-1.976 9.564-2.238 9.989-2.499 9.597-2.694 8.732-3.413 7.394-4.654 7.818-5.21 8.332-5.732 8.936-6.222 9.54-6.712 10.201-7.055 10.919-7.251 10.462-7.512 10.136-7.822 9.94-8.181 9.222-7.789 8.496-7.243 7.761-6.54 7.027-5.838 6.333-4.736 5.68-3.233V-7.593C5.712-8.083 5.558-8.409 5.215-8.573 4.872-8.736 4.374-8.85 3.721-8.916 3.656-8.589 3.509-8.23 3.281-7.838 3.835-7.871 4.219-7.863 4.431-7.814 4.643-7.765 4.733-7.593 4.701-7.299V-4.605C3.395-5.618 2.456-6.353 1.885-6.81 1.314-7.267 .848-7.659 .49-7.985 .196-7.659-.082-7.365-.343-7.104 .114-6.875 .702-6.524 1.42-6.05 2.138-5.577 3.232-4.72 4.701-3.478V-.833H1.665C1.077-.833 .522-.85 0-.882ZM3.477-3.331 2.644-4.066C2.155-3.511 1.501-2.939 .685-2.352L1.469-1.666C2.187-2.254 2.856-2.809 3.477-3.331M9.45 .784C9.222 .62 8.977 .408 8.716 .147 8.356 .539 7.834 1.012 7.149 1.568 7.345 1.731 7.59 1.911 7.883 2.107 8.405 1.747 8.928 1.306 9.45 .784" fill="#ffffff"/>
<path transform="matrix(1,0,0,-1,274.4948,326.9374)" d="M0 0C.424-.033 .881-.049 1.371-.049H4.896C4.799 .343 4.684 .686 4.554 .98 4.945 1.012 5.337 1.078 5.729 1.176 5.794 .849 5.908 .441 6.072-.049H9.451C9.907-.049 10.381-.033 10.87 0V-.882C10.381-.85 9.776-.833 9.059-.833H1.42C.897-.833 .424-.85 0-.882ZM10.577-9.063C10.609-9.553 10.43-9.863 10.038-9.994 9.646-10.124 9.271-10.206 8.912-10.239 8.781-9.847 8.618-9.504 8.422-9.21 8.748-9.21 9.042-9.202 9.304-9.186 9.564-9.169 9.678-8.949 9.646-8.524V-5.438H1.322V-10.141H.343C.375-9.683 .392-8.753 .392-7.348 .392-5.912 .375-5.03 .343-4.703H10.626C10.593-5.161 10.577-5.667 10.577-6.222ZM8.765-2.792C8.765-3.152 8.781-3.527 8.814-3.919H1.91C1.942-3.625 1.959-3.25 1.959-2.792 1.959-2.336 1.942-1.927 1.91-1.568H8.814C8.781-1.993 8.765-2.4 8.765-2.792M7.883-2.303H2.889V-3.185H7.883ZM7.932-7.446C7.932-7.838 7.949-8.23 7.981-8.622H2.987C3.052-8.23 3.085-7.838 3.085-7.446 3.085-7.022 3.052-6.63 2.987-6.271H7.981C7.949-6.63 7.932-7.022 7.932-7.446M7.051-6.957H3.868V-7.937H7.051ZM7.051-7.936" fill="#ffffff"/>
<path transform="matrix(1,0,0,-1,289.3175,329.4359)" d="M0 0C-.131-.098-.343-.376-.636-.833-.963-1.323-1.371-1.911-1.861-2.596-2.154-2.4-2.448-2.221-2.742-2.058-2.318-1.666-1.951-1.209-1.64-.686-1.33-.164-1.11 .277-.979 .637-.62 .441-.294 .228 0 0M.588-3.429C.849-3.005 1.028-2.466 1.126-1.813 1.452-1.976 1.779-2.107 2.106-2.205 1.812-2.956 1.55-3.576 1.322-4.066L2.693-5.438C2.399-5.667 2.122-5.912 1.861-6.173 1.632-5.814 1.273-5.389 .784-4.899 .522-5.193 .212-5.528-.147-5.903-.506-6.279-1.061-6.761-1.812-7.348-2.073-7.022-2.367-6.761-2.693-6.565-2.269-6.369-1.812-6.092-1.322-5.732-.832-5.373-.36-4.867 .098-4.213-.36-3.821-.898-3.364-1.518-2.841L-1.028-2.156C-.474-2.613 .065-3.037 .588-3.429M1.714 1.715C2.203 1.715 2.644 1.731 3.036 1.764V.931C2.644 .963 2.22 .98 1.763 .98H-1.224C-1.747 .98-2.22 .963-2.644 .931V1.764C-2.22 1.731-1.747 1.715-1.224 1.715ZM1.077 2.254C.784 2.123 .473 1.992 .147 1.862-.049 2.352-.278 2.874-.538 3.429-.245 3.527 .065 3.641 .392 3.772 .653 3.282 .881 2.776 1.077 2.254M2.399-.441C2.693-.833 2.954-1.176 3.183-1.47 2.889-1.633 2.611-1.829 2.35-2.058 1.697-1.111 1.207-.425 .881 0 1.142 .13 1.403 .326 1.665 .588 1.861 .294 2.106-.049 2.399-.441M3.673-1.813C3.542-1.454 3.346-1.127 3.085-.833 3.477-.245 3.836 .49 4.162 1.372 4.488 2.254 4.717 3.086 4.848 3.87 5.239 3.674 5.663 3.527 6.121 3.429 5.957 3.266 5.794 3.013 5.631 2.67 5.467 2.327 5.288 1.894 5.092 1.372 7.149 1.372 8.405 1.388 8.863 1.421V.588C8.471 .62 8.03 .637 7.541 .637 7.508-.311 7.394-1.298 7.198-2.327 7.002-3.356 6.691-4.23 6.268-4.948 6.366-5.242 6.684-5.585 7.222-5.977 7.761-6.369 8.324-6.663 8.912-6.859 8.52-7.087 8.259-7.397 8.128-7.789 7.573-7.495 7.1-7.177 6.708-6.834 6.317-6.491 5.957-6.108 5.631-5.683 5.207-6.075 4.774-6.426 4.333-6.736 3.893-7.046 3.248-7.43 2.399-7.887 2.236-7.528 1.959-7.234 1.567-7.006 1.991-6.94 2.578-6.687 3.33-6.246 4.08-5.805 4.652-5.373 5.043-4.948 4.782-4.393 4.578-3.821 4.432-3.233 4.285-2.645 4.145-1.976 4.015-1.225ZM5.068-2.229C5.215-2.899 5.418-3.527 5.68-4.115 6.006-3.495 6.243-2.678 6.39-1.666 6.537-.654 6.594 .114 6.562 .637H4.848C4.586-.049 4.341-.572 4.113-.931 4.341-.931 4.57-.866 4.799-.735 4.831-1.062 4.921-1.56 5.068-2.229" fill="#ffffff"/>
<path transform="matrix(1,0,0,-1,301.7902,330.2198)" d="M0 0C-.033-.654-.049-1.193-.049-1.617V-4.654C.898-5.471 2.351-5.879 4.309-5.879 6.3-5.879 7.835-5.83 8.912-5.732 8.716-6.058 8.585-6.418 8.52-6.81 7.214-6.81 6.039-6.801 4.995-6.785 3.95-6.768 3.019-6.687 2.204-6.54 1.387-6.393 .742-6.156 .269-5.83-.204-5.504-.587-5.479-.881-5.756-1.175-6.033-1.502-6.385-1.861-6.81-2.057-6.548-2.318-6.303-2.644-6.075-1.894-5.455-1.355-5.03-1.028-4.801V-.784C-1.453-.784-1.91-.801-2.399-.833V.049C-1.877 .016-1.404 0-.979 0ZM.294 1.617C0 1.519-.311 1.355-.636 1.127-.8 1.617-1.29 2.367-2.106 3.38-1.812 3.641-1.535 3.837-1.273 3.968-.653 3.086-.131 2.303 .294 1.617M3.624 4.458C4.145 4.229 4.521 4.082 4.75 4.017 4.586 3.886 4.341 3.478 4.015 2.792H6.66C7.345 2.792 7.884 2.808 8.275 2.841V1.96C7.851 1.992 7.361 2.009 6.806 2.009H3.624C3.46 1.682 3.068 1.012 2.448 0H4.407C4.407 .62 4.39 1.143 4.358 1.568H5.337C5.304 1.208 5.288 .686 5.288 0 6.92 0 7.786 .016 7.884 .049V-.882C7.688-.817 6.823-.784 5.288-.784V-2.4H7.1C7.818-2.4 8.275-2.384 8.471-2.352V-3.233C8.079-3.201 7.622-3.184 7.1-3.184H5.288C5.288-4.099 5.304-4.899 5.337-5.585H4.358C4.39-4.899 4.407-4.099 4.407-3.184 2.155-3.184 .914-3.201 .686-3.233V-2.352C1.567-2.384 2.807-2.4 4.407-2.4V-.784H2.84C2.122-.817 1.665-.866 1.469-.931L1.126-.049C1.387 .114 1.641 .359 1.885 .686 2.13 1.012 2.383 1.453 2.644 2.009 1.795 2.009 1.142 1.992 .686 1.96V2.841C1.11 2.808 1.893 2.792 3.036 2.792 3.362 3.543 3.558 4.098 3.624 4.458" fill="#ffffff"/>
<path transform="matrix(1,0,0,-1,313.3815,328.2112)" d="M0 0V1.47C0 1.666-.033 1.943-.098 2.303H.979C.913 1.943 .881 1.666 .881 1.47V0C1.207 0 1.616 .016 2.106 .049V-.882C1.616-.85 1.207-.833 .881-.833V-3.135C1.044-3.037 1.42-2.858 2.008-2.596 2.008-3.021 2.023-3.331 2.057-3.527 1.469-3.789 1.077-3.968 .881-4.066V-7.593C.881-8.05 .75-8.377 .49-8.573 .228-8.769-.278-8.899-1.028-8.965-1.028-8.736-1.159-8.344-1.42-7.789-.767-7.887-.376-7.887-.245-7.789-.115-7.691-.033-7.495 0-7.202V-4.409C-.262-4.507-.735-4.752-1.42-5.144-1.584-4.654-1.731-4.295-1.861-4.066-1.045-3.87-.425-3.674 0-3.478V-.833H-.343C-.8-.833-1.257-.85-1.714-.882V.098C-1.224 .032-.767 0-.343 0ZM5.533-4.017H8.667C9.255-3.985 9.613-3.968 9.744-3.968V-4.85C9.515-4.818 9.189-4.801 8.765-4.801H7.932C7.638-5.553 7.296-6.206 6.904-6.761 7.916-7.251 8.797-7.691 9.548-8.083 9.45-8.181 9.206-8.475 8.814-8.965 8.291-8.573 7.443-8.067 6.268-7.446 5.81-7.838 5.28-8.157 4.676-8.402 4.072-8.647 3.346-8.85 2.497-9.014 2.464-8.752 2.317-8.458 2.057-8.132 2.578-8.067 3.134-7.961 3.721-7.814 4.309-7.667 4.863-7.414 5.386-7.055 5.092-6.924 4.407-6.63 3.33-6.173 3.525-5.879 3.786-5.422 4.113-4.801H3.33C2.807-4.801 2.431-4.818 2.203-4.85V-3.919C2.366-3.952 2.725-3.985 3.281-4.017H4.456C4.684-3.462 4.815-3.07 4.847-2.841 5.402-3.07 5.778-3.217 5.974-3.282 5.876-3.38 5.729-3.625 5.533-4.017M8.177-.245C7.981-.409 7.704-.98 7.345-1.96H8.324C8.846-1.927 9.189-1.895 9.352-1.862V-2.792C9.124-2.76 8.814-2.743 8.422-2.743H3.623C3.395-2.743 3.019-2.76 2.497-2.792V-1.862C2.987-1.895 3.33-1.927 3.525-1.96H6.414C6.74-1.078 6.953-.327 7.051 .294 7.606 0 7.981-.18 8.177-.245M5.435 1.225C5.304 1.78 5.19 2.156 5.092 2.352 5.549 2.449 5.892 2.531 6.121 2.596L6.512 1.225H8.177C8.634 1.257 9.026 1.274 9.352 1.274V.392C8.993 .424 8.618 .441 8.226 .441H3.917C3.395 .441 2.954 .424 2.595 .392V1.274C2.921 1.241 3.313 1.225 3.77 1.225ZM5.239-1.47C4.717-1.633 4.39-1.764 4.26-1.862 3.998-1.242 3.754-.784 3.525-.49 3.884-.327 4.178-.164 4.407 0 4.799-.654 5.075-1.144 5.239-1.47M6.121-6.467C6.544-5.847 6.838-5.291 7.002-4.801H5.141C4.847-5.226 4.635-5.553 4.505-5.781 5.255-6.043 5.794-6.271 6.121-6.467" fill="#ffffff"/>
</g>
</g>
</g>
</svg>
