<svg xmlns="http://www.w3.org/2000/svg" xmlns:xlink="http://www.w3.org/1999/xlink" xmlns:inkscape="http://www.inkscape.org/namespaces/inkscape" version="1.1" width="411.024" height="595.276" viewBox="0 0 411.024 595.276">
<defs>
<clipPath id="clip_1">
<path transform="matrix(1,0,0,-1,0,595.276)" d="M0 0H411.024V595.276H0Z"/>
</clipPath>
<clipPath id="clip_2">
<path transform="matrix(1,0,0,-1,0,595.276)" d="M0 0H411.024V595.276H0Z"/>
</clipPath>
<path id="font_3_5" d="M.45999146 .19407654C.45999146 .28303529 .4229889 .34100343 .35099793 .36799623 .4149933 .39700318 .44699098 .450943 .44699098 .52586367 .44699098 .64175418 .36698915 .71875 .25099183 .71875 .14299011 .71875 .05899048 .6507416 .050994874 .53585818H.12298584C.12998963 .60879519 .17599488 .6547394 .25099183 .6547394 .31999208 .6547394 .375 .609787 .375 .5248718 .375 .4449463 .33499146 .3959961 .24798584 .3959961H.23298645V.3330078H.24798584C.34498597 .3330078 .3880005 .28103639 .3880005 .19508362 .3880005 .10812378 .32798768 .057159425 .25099183 .057159425 .18299866 .057159425 .11999512 .09213257 .11399841 .18109131H.041992189C.04798889 .05215454 .13899231-.0068359377 .25099183-.0068359377 .36698915-.0068359377 .45999146 .06315613 .45999146 .19407654Z"/>
<path id="font_3_8" d="M.45999146 .20516968C.45999146 .32221986 .38598634 .40722657 .2749939 .40722657 .24699402 .40722657 .22200012 .40222169 .19999695 .3922119L.35899354 .71191409H.2849884L.10998535 .3592224C.07998657 .2992096 .06498718 .25019837 .06498718 .19917298 .06498718 .07614136 .14199829-.005859375 .2630005-.005859375 .38398744-.005859375 .45999146 .08413696 .45999146 .20516968M.3880005 .20217896C.3880005 .11514282 .33799745 .058135988 .2619934 .058135988 .18598938 .058135988 .13699341 .11514282 .13699341 .20217896 .13699341 .2902069 .18598938 .34622193 .2619934 .34622193 .34399415 .34622193 .3880005 .28120423 .3880005 .20217896Z"/>
<path id="font_3_3" d="M.32998658 0V.71191409H.2579956L.125 .5969238V.51493838L.2579956 .63191226V0H.32998658Z"/>
<clipPath id="clip_4">
<path transform="matrix(1,0,0,-1,0,595.276)" d="M0 0H411.024V595.276H0Z"/>
</clipPath>
<clipPath id="clip_5">
<path transform="matrix(1,0,0,-1,0,595.276)" d="M0 0H411.024V595.276H0Z"/>
</clipPath>
<clipPath id="clip_6">
<path transform="matrix(1,0,0,-1,0,595.276)" d="M0 0H411.024V595.276H0Z"/>
</clipPath>
<clipPath id="clip_7">
<path transform="matrix(1,0,0,-1,0,595.276)" d="M0 0H411.024V595.276H0Z"/>
</clipPath>
<clipPath id="clip_8">
<path transform="matrix(1,0,0,-1,0,595.276)" d="M0 0H411.024V595.276H0Z"/>
</clipPath>
<clipPath id="clip_9">
<path transform="matrix(1,0,0,-1,0,595.276)" d="M0 0H411.024V595.276H0Z"/>
</clipPath>
<clipPath id="clip_10">
<path transform="matrix(1,0,0,-1,0,595.276)" d="M0 0H411.024V595.276H0Z"/>
</clipPath>
<clipPath id="clip_11">
<path transform="matrix(1,0,0,-1,0,595.276)" d="M0 0H411.024V595.276H0Z"/>
</clipPath>
<clipPath id="clip_12">
<path transform="matrix(1,0,0,-1,0,595.276)" d="M0 0H411.024V595.276H0Z"/>
</clipPath>
<clipPath id="clip_13">
<path transform="matrix(1,0,0,-1,0,595.276)" d="M0 0H411.024V595.276H0Z"/>
</clipPath>
<clipPath id="clip_14">
<path transform="matrix(1,0,0,-1,0,595.276)" d="M0 0H411.024V595.276H0Z"/>
</clipPath>
</defs>
<g clip-path="url(#clip_1)">
<g clip-path="url(#clip_2)">
<use data-text="3" xlink:href="#font_3_5" transform="matrix(9,0,0,-9,363.685,567.547)" fill="#f43040"/>
<use data-text="6" xlink:href="#font_3_8" transform="matrix(9,0,0,-9,367.285,567.547)" fill="#f43040"/>
<use data-text="1" xlink:href="#font_3_3" transform="matrix(9,0,0,-9,370.885,567.547)" fill="#f43040"/>
<g clip-path="url(#clip_4)">
<path transform="matrix(1,0,0,-1,114.0095,230.1666)" stroke-width="1" stroke-linecap="butt" stroke-dasharray="2.748,1.748" stroke-miterlimit="4" stroke-linejoin="miter" fill="none" stroke="#2c292a" d="M0 0C-.933-.516-1.843-1.328-2.324-2.672"/>
<path transform="matrix(1,0,0,-1,111.3337,237.8229)" stroke-width="1" stroke-linecap="butt" stroke-dasharray="2.515,1.515" stroke-miterlimit="4" stroke-linejoin="miter" fill="none" stroke="#2c292a" d="M0 0V-3.281"/>
<path transform="matrix(1,0,0,-1,112.1249,246.1041)" stroke-width="1" stroke-linecap="butt" stroke-dasharray="2.748,1.748" stroke-miterlimit="4" stroke-linejoin="miter" fill="none" stroke="#2c292a" d="M0 0C.503-.937 1.325-1.844 2.669-2.328"/>
<path transform="matrix(1,0,0,-1,120.5006,248.776)" stroke-width="1" stroke-linecap="butt" stroke-dasharray="2.998,1.998" stroke-miterlimit="4" stroke-linejoin="miter" fill="none" stroke="#2c292a" d="M0 0H33.979"/>
<path transform="matrix(1,0,0,-1,159.9714,247.99481)" stroke-width="1" stroke-linecap="butt" stroke-dasharray="2.748,1.748" stroke-miterlimit="4" stroke-linejoin="miter" fill="none" stroke="#2c292a" d="M0 0C.933 .5 1.843 1.328 2.324 2.672"/>
<path transform="matrix(1,0,0,-1,162.6472,240.3385)" stroke-width="1" stroke-linecap="butt" stroke-dasharray="2.515,1.515" stroke-miterlimit="4" stroke-linejoin="miter" fill="none" stroke="#2c292a" d="M0 0V3.266"/>
<path transform="matrix(1,0,0,-1,161.856,232.05731)" stroke-width="1" stroke-linecap="butt" stroke-dasharray="2.748,1.748" stroke-miterlimit="4" stroke-linejoin="miter" fill="none" stroke="#2c292a" d="M0 0C-.503 .937-1.325 1.844-2.669 2.328"/>
<path transform="matrix(1,0,0,-1,153.4802,229.3854)" stroke-width="1" stroke-linecap="butt" stroke-dasharray="2.998,1.998" stroke-miterlimit="4" stroke-linejoin="miter" fill="none" stroke="#2c292a" d="M0 0H-33.979"/>
<path transform="matrix(1,0,0,-1,111.4573,233.68231)" stroke-width="1" stroke-linecap="butt" stroke-miterlimit="4" stroke-linejoin="miter" fill="none" stroke="#2c292a" d="M0 0C-.08-.422-.124-.875-.124-1.375V-2.625M-.124-8.172V-9.438C-.124-9.438-.124-10 .06-10.797M4.179-14.969C4.593-15.063 5.048-15.094 5.546-15.094H7.045M44.021-15.094H45.521C45.521-15.094 46.096-15.094 46.88-14.922M51.066-10.797C51.146-10.375 51.19-9.922 51.19-9.438V-8.172M51.19-2.625V-1.375C51.19-1.375 51.19-.797 51.007-.016M46.887 4.172C46.473 4.25 46.019 4.297 45.521 4.297H44.021M7.045 4.297H5.546C5.546 4.297 4.97 4.297 4.186 4.109"/>
<path transform="matrix(1,0,0,-1,166.3229,230.1666)" stroke-width="1" stroke-linecap="butt" stroke-dasharray="2.748,1.748" stroke-miterlimit="4" stroke-linejoin="miter" fill="none" stroke="#2c292a" d="M0 0C-.933-.516-1.843-1.328-2.324-2.672"/>
<path transform="matrix(1,0,0,-1,163.6472,237.8229)" stroke-width="1" stroke-linecap="butt" stroke-dasharray="2.515,1.515" stroke-miterlimit="4" stroke-linejoin="miter" fill="none" stroke="#2c292a" d="M0 0V-3.281"/>
<path transform="matrix(1,0,0,-1,164.4383,246.1041)" stroke-width="1" stroke-linecap="butt" stroke-dasharray="2.748,1.748" stroke-miterlimit="4" stroke-linejoin="miter" fill="none" stroke="#2c292a" d="M0 0C.503-.937 1.325-1.844 2.669-2.328"/>
<path transform="matrix(1,0,0,-1,172.8141,248.776)" stroke-width="1" stroke-linecap="butt" stroke-dasharray="2.998,1.998" stroke-miterlimit="4" stroke-linejoin="miter" fill="none" stroke="#2c292a" d="M0 0H33.979"/>
<path transform="matrix(1,0,0,-1,212.2848,247.99481)" stroke-width="1" stroke-linecap="butt" stroke-dasharray="2.748,1.748" stroke-miterlimit="4" stroke-linejoin="miter" fill="none" stroke="#2c292a" d="M0 0C.933 .5 1.843 1.328 2.324 2.672"/>
<path transform="matrix(1,0,0,-1,214.9606,240.3385)" stroke-width="1" stroke-linecap="butt" stroke-dasharray="2.515,1.515" stroke-miterlimit="4" stroke-linejoin="miter" fill="none" stroke="#2c292a" d="M0 0V3.266"/>
<path transform="matrix(1,0,0,-1,214.1694,232.05731)" stroke-width="1" stroke-linecap="butt" stroke-dasharray="2.748,1.748" stroke-miterlimit="4" stroke-linejoin="miter" fill="none" stroke="#2c292a" d="M0 0C-.503 .937-1.325 1.844-2.669 2.328"/>
<path transform="matrix(1,0,0,-1,205.7937,229.3854)" stroke-width="1" stroke-linecap="butt" stroke-dasharray="2.998,1.998" stroke-miterlimit="4" stroke-linejoin="miter" fill="none" stroke="#2c292a" d="M0 0H-33.979"/>
<path transform="matrix(1,0,0,-1,163.7707,233.68231)" stroke-width="1" stroke-linecap="butt" stroke-miterlimit="4" stroke-linejoin="miter" fill="none" stroke="#2c292a" d="M0 0C-.08-.422-.124-.875-.124-1.375V-2.625M-.124-8.172V-9.438C-.124-9.438-.124-10 .06-10.797M4.179-14.969C4.593-15.063 5.048-15.094 5.546-15.094H7.045M44.021-15.094H45.521C45.521-15.094 46.096-15.094 46.88-14.922M51.066-10.797C51.146-10.375 51.19-9.922 51.19-9.438V-8.172M51.19-2.625V-1.375C51.19-1.375 51.19-.797 51.007-.016M46.887 4.172C46.473 4.25 46.019 4.297 45.521 4.297H44.021M7.045 4.297H5.546C5.546 4.297 4.97 4.297 4.186 4.109"/>
<path transform="matrix(1,0,0,-1,218.6364,230.1666)" stroke-width="1" stroke-linecap="butt" stroke-dasharray="2.748,1.748" stroke-miterlimit="4" stroke-linejoin="miter" fill="none" stroke="#2c292a" d="M0 0C-.933-.516-1.843-1.328-2.324-2.672"/>
<path transform="matrix(1,0,0,-1,215.9606,237.8229)" stroke-width="1" stroke-linecap="butt" stroke-dasharray="2.515,1.515" stroke-miterlimit="4" stroke-linejoin="miter" fill="none" stroke="#2c292a" d="M0 0V-3.281"/>
<path transform="matrix(1,0,0,-1,216.7517,246.1041)" stroke-width="1" stroke-linecap="butt" stroke-dasharray="2.748,1.748" stroke-miterlimit="4" stroke-linejoin="miter" fill="none" stroke="#2c292a" d="M0 0C.503-.937 1.325-1.844 2.669-2.328"/>
<path transform="matrix(1,0,0,-1,225.1275,248.776)" stroke-width="1" stroke-linecap="butt" stroke-dasharray="2.998,1.998" stroke-miterlimit="4" stroke-linejoin="miter" fill="none" stroke="#2c292a" d="M0 0H33.979"/>
<path transform="matrix(1,0,0,-1,264.5983,247.99481)" stroke-width="1" stroke-linecap="butt" stroke-dasharray="2.748,1.748" stroke-miterlimit="4" stroke-linejoin="miter" fill="none" stroke="#2c292a" d="M0 0C.933 .5 1.843 1.328 2.324 2.672"/>
<path transform="matrix(1,0,0,-1,267.274,240.3385)" stroke-width="1" stroke-linecap="butt" stroke-dasharray="2.515,1.515" stroke-miterlimit="4" stroke-linejoin="miter" fill="none" stroke="#2c292a" d="M0 0V3.266"/>
<path transform="matrix(1,0,0,-1,266.4829,232.05731)" stroke-width="1" stroke-linecap="butt" stroke-dasharray="2.748,1.748" stroke-miterlimit="4" stroke-linejoin="miter" fill="none" stroke="#2c292a" d="M0 0C-.503 .937-1.325 1.844-2.669 2.328"/>
<path transform="matrix(1,0,0,-1,258.1071,229.3854)" stroke-width="1" stroke-linecap="butt" stroke-dasharray="2.998,1.998" stroke-miterlimit="4" stroke-linejoin="miter" fill="none" stroke="#2c292a" d="M0 0H-33.979"/>
<path transform="matrix(1,0,0,-1,216.0841,233.68231)" stroke-width="1" stroke-linecap="butt" stroke-miterlimit="4" stroke-linejoin="miter" fill="none" stroke="#2c292a" d="M0 0C-.08-.422-.124-.875-.124-1.375V-2.625M-.124-8.172V-9.438C-.124-9.438-.124-10 .06-10.797M4.179-14.969C4.593-15.063 5.048-15.094 5.546-15.094H7.045M44.021-15.094H45.521C45.521-15.094 46.096-15.094 46.88-14.922M51.066-10.797C51.146-10.375 51.19-9.922 51.19-9.438V-8.172M51.19-2.625V-1.375C51.19-1.375 51.19-.797 51.007-.016M46.887 4.172C46.473 4.25 46.019 4.297 45.521 4.297H44.021M7.045 4.297H5.546C5.546 4.297 4.97 4.297 4.186 4.109"/>
<path transform="matrix(1,0,0,-1,270.9498,230.1666)" stroke-width="1" stroke-linecap="butt" stroke-dasharray="2.748,1.748" stroke-miterlimit="4" stroke-linejoin="miter" fill="none" stroke="#2c292a" d="M0 0C-.933-.516-1.843-1.328-2.324-2.672"/>
<path transform="matrix(1,0,0,-1,268.274,237.8229)" stroke-width="1" stroke-linecap="butt" stroke-dasharray="2.515,1.515" stroke-miterlimit="4" stroke-linejoin="miter" fill="none" stroke="#2c292a" d="M0 0V-3.281"/>
<path transform="matrix(1,0,0,-1,269.0652,246.1041)" stroke-width="1" stroke-linecap="butt" stroke-dasharray="2.748,1.748" stroke-miterlimit="4" stroke-linejoin="miter" fill="none" stroke="#2c292a" d="M0 0C.503-.937 1.325-1.844 2.669-2.328"/>
<path transform="matrix(1,0,0,-1,277.441,248.776)" stroke-width="1" stroke-linecap="butt" stroke-dasharray="2.998,1.998" stroke-miterlimit="4" stroke-linejoin="miter" fill="none" stroke="#2c292a" d="M0 0H33.979"/>
<path transform="matrix(1,0,0,-1,316.9117,247.99481)" stroke-width="1" stroke-linecap="butt" stroke-dasharray="2.748,1.748" stroke-miterlimit="4" stroke-linejoin="miter" fill="none" stroke="#2c292a" d="M0 0C.933 .5 1.843 1.328 2.324 2.672"/>
<path transform="matrix(1,0,0,-1,319.5875,240.3385)" stroke-width="1" stroke-linecap="butt" stroke-dasharray="2.515,1.515" stroke-miterlimit="4" stroke-linejoin="miter" fill="none" stroke="#2c292a" d="M0 0V3.266"/>
<path transform="matrix(1,0,0,-1,318.7963,232.05731)" stroke-width="1" stroke-linecap="butt" stroke-dasharray="2.748,1.748" stroke-miterlimit="4" stroke-linejoin="miter" fill="none" stroke="#2c292a" d="M0 0C-.503 .937-1.325 1.844-2.669 2.328"/>
<path transform="matrix(1,0,0,-1,310.4205,229.3854)" stroke-width="1" stroke-linecap="butt" stroke-dasharray="2.998,1.998" stroke-miterlimit="4" stroke-linejoin="miter" fill="none" stroke="#2c292a" d="M0 0H-33.979"/>
<path transform="matrix(1,0,0,-1,268.3976,233.68231)" stroke-width="1" stroke-linecap="butt" stroke-miterlimit="4" stroke-linejoin="miter" fill="none" stroke="#2c292a" d="M0 0C-.08-.422-.124-.875-.124-1.375V-2.625M-.124-8.172V-9.438C-.124-9.438-.124-10 .06-10.797M4.179-14.969C4.593-15.063 5.048-15.094 5.546-15.094H7.045M44.021-15.094H45.521C45.521-15.094 46.096-15.094 46.88-14.922M51.066-10.797C51.146-10.375 51.19-9.922 51.19-9.438V-8.172M51.19-2.625V-1.375C51.19-1.375 51.19-.797 51.007-.016M46.887 4.172C46.473 4.25 46.019 4.297 45.521 4.297H44.021M7.045 4.297H5.546C5.546 4.297 4.97 4.297 4.186 4.109"/>
<path transform="matrix(1,0,0,-1,238.7687,281.2675)" d="M0 0H-48.027C-50.109 0-51.803 1.694-51.803 3.777V16.531C-51.803 18.614-50.109 20.309-48.027 20.309H0C2.082 20.309 3.776 18.614 3.776 16.531V3.777C3.776 1.694 2.082 0 0 0M-48.027 19.132C-49.46 19.132-50.626 17.965-50.626 16.531V3.777C-50.626 2.343-49.46 1.177-48.027 1.177H0C1.433 1.177 2.599 2.343 2.599 3.777V16.531C2.599 17.965 1.433 19.132 0 19.132Z" fill="#f43040"/>
<path transform="matrix(1,0,0,-1,209.841,266.7661)" d="M0 0C.895-1.383 2.358-2.36 4.392-2.929 4.12-3.119 3.917-3.417 3.782-3.824 1.667-2.929 .257-1.831-.447-.529-1.369-1.885-2.779-3.065-4.676-4.068-4.866-3.716-5.07-3.445-5.286-3.255-3.904-2.712-2.84-2.041-2.094-1.241-1.349-.441-.895 .203-.732 .692-.569 .583-.258 .448 .203 .285ZM-3.253-8.299C-3.416-8.299-3.822-8.313-4.473-8.34V-7.567C-3.741-7.595-3.389-7.608-3.416-7.608H-2.968V-5.004C-2.968-4.679-2.996-4.258-3.05-3.743H-2.074C-2.128-4.258-2.155-4.679-2.155-5.004V-7.608H-.569V-3.662C-.569-3.336-.583-2.916-.61-2.4H.285C.257-2.889 .244-3.567 .244-4.435H1.505C1.938-4.435 2.413-4.421 2.928-4.394V-5.167C2.44-5.14 1.979-5.126 1.545-5.126H.244V-7.608H2.765C2.846-7.608 3.131-7.595 3.619-7.567V-8.34C3.131-8.313 2.833-8.299 2.724-8.299Z" fill="#2c292a"/>
<path transform="matrix(1,0,0,-1,219.1822,266.4)" d="M0 0C-.055-.76-.081-1.411-.081-1.953V-7.933H1.26V-1.465C1.26-1.031 1.233-.543 1.179 0H2.196C2.141-.434 2.115-.895 2.115-1.383V-7.933H3.7C4.134-7.933 4.662-7.907 5.286-7.852V-8.747C4.662-8.692 4.148-8.666 3.741-8.666H-2.44C-2.82-8.666-3.362-8.692-4.066-8.747V-7.852C-3.362-7.907-2.833-7.933-2.48-7.933H-.976V-1.912C-.976-1.343-1.017-.706-1.098 0ZM-1.586-5.736C-1.885-5.791-2.196-5.899-2.521-6.062-3.009-4.489-3.443-3.269-3.822-2.4-3.552-2.292-3.253-2.17-2.928-2.034-2.603-2.875-2.155-4.109-1.586-5.736M3.456-6.143C3.185-5.981 2.9-5.858 2.602-5.777 3.172-4.719 3.605-3.445 3.904-1.953 4.202-2.062 4.54-2.17 4.92-2.278 4.568-3.201 4.08-4.489 3.456-6.143" fill="#2c292a"/>
<path transform="matrix(1,0,0,-1,118.0396,238.4227)" d="M0 0C-.317-.317-.719-.621-1.205-.914V-.219C-.597 .195-.098 .682 .292 1.243H.731V-5.043H0Z" fill="#2c292a"/>
<path transform="matrix(1,0,0,-1,121.0265,239.9748)" d="M0 0C.024 .645 .115 1.156 .274 1.534 .432 1.912 .658 2.222 .95 2.466 1.242 2.709 1.601 2.831 2.027 2.831 2.453 2.831 2.825 2.654 3.141 2.301 3.458 1.948 3.665 1.503 3.762 .968 3.859 .432 3.89-.183 3.854-.877 3.817-1.571 3.695-2.137 3.488-2.575 3.281-3.014 2.971-3.319 2.557-3.489 2.143-3.659 1.729-3.641 1.315-3.434 .901-3.227 .608-2.953 .438-2.612 .268-2.271 .146-1.912 .073-1.534 0-1.157-.025-.646 0 0M.767 .219C.694-.451 .718-1.047 .84-1.571 .962-2.095 1.163-2.466 1.443-2.685 1.723-2.904 2.009-2.947 2.301-2.813 2.594-2.679 2.806-2.411 2.941-2.009 3.074-1.607 3.141-1.169 3.141-.694 3.141-.219 3.123 .213 3.087 .603 3.05 .992 2.941 1.345 2.758 1.662 2.575 1.978 2.332 2.143 2.027 2.155 1.723 2.167 1.455 2.015 1.224 1.699 .992 1.382 .84 .889 .767 .219" fill="#2c292a"/>
<path transform="matrix(1,0,0,-1,125.7302,239.9748)" d="M0 0C.024 .645 .115 1.156 .274 1.534 .432 1.912 .658 2.222 .95 2.466 1.242 2.709 1.601 2.831 2.027 2.831 2.453 2.831 2.825 2.654 3.141 2.301 3.458 1.948 3.665 1.503 3.762 .968 3.859 .432 3.89-.183 3.854-.877 3.817-1.571 3.695-2.137 3.488-2.575 3.281-3.014 2.971-3.319 2.557-3.489 2.143-3.659 1.729-3.641 1.315-3.434 .901-3.227 .608-2.953 .438-2.612 .268-2.271 .146-1.912 .073-1.534 0-1.157-.025-.646 0 0M.767 .219C.694-.451 .718-1.047 .84-1.571 .962-2.095 1.163-2.466 1.443-2.685 1.723-2.904 2.009-2.947 2.301-2.813 2.594-2.679 2.806-2.411 2.941-2.009 3.074-1.607 3.141-1.169 3.141-.694 3.141-.219 3.123 .213 3.087 .603 3.05 .992 2.941 1.345 2.758 1.662 2.575 1.978 2.332 2.143 2.027 2.155 1.723 2.167 1.455 2.015 1.224 1.699 .992 1.382 .84 .889 .767 .219" fill="#2c292a"/>
<path transform="matrix(1,0,0,-1,135.7529,237.436)" d="M0 0C-.743-.073-1.735-.134-2.977-.183V-1.937H1.151C1.711-1.937 2.344-1.925 3.05-1.9V-2.668C2.344-2.619 1.784-2.595 1.37-2.595H.676V-5.628C.676-6.116 .688-6.627 .712-7.163H-.091C-.067-6.602-.055-6.091-.055-5.628V-2.595H-2.977C-3.002-3.545-3.068-4.246-3.178-4.696-3.288-5.147-3.434-5.573-3.616-5.975-3.799-6.377-4.036-6.773-4.329-7.163-4.451-7.041-4.73-6.895-5.169-6.725-4.78-6.359-4.487-5.939-4.292-5.464-4.098-4.989-3.958-4.501-3.872-4.002-3.787-3.503-3.744-2.827-3.744-1.974-3.744-1.096-3.757-.292-3.781 .439-3.026 .439-2.253 .469-1.461 .53-.67 .59-.025 .658 .475 .731 .974 .804 1.467 .914 1.954 1.06 2.051 .791 2.21 .524 2.429 .256 1.552 .158 .743 .073 0 0" fill="#2c292a"/>
<path transform="matrix(1,0,0,-1,142.4389,240.03079)" d="M0 0V-3.18C0-3.57 .012-4.008 .037-4.495H-.731C-.707-4.032-.694-3.594-.694-3.18V-.694C-1.108-1.084-1.559-1.45-2.046-1.791-2.168-1.571-2.314-1.365-2.484-1.169-2.07-.95-1.577-.566-1.005-.018-.433 .53-.073 .962 .073 1.279 .292 1.108 .584 .962 .95 .841 .658 .645 .341 .365 0 0M.658 2.229C.658 1.961 .67 1.681 .694 1.389H-.11C-.086 1.681-.073 1.961-.073 2.229H-1.096C-1.51 2.229-1.924 2.217-2.338 2.193V2.851C-1.924 2.826-1.51 2.814-1.096 2.814H-.073C-.073 3.203-.086 3.545-.11 3.837H.731C.682 3.545 .658 3.203 .658 2.814H2.521V3.91H3.288C3.263 3.618 3.251 3.253 3.251 2.814H4.712C5.151 2.814 5.528 2.826 5.845 2.851V2.193C5.528 2.217 5.151 2.229 4.712 2.229H3.251C3.251 2.01 3.263 1.73 3.288 1.389H2.521V2.229ZM2.813 .073V-.95C3.08-.804 3.403-.554 3.781-.201 4.158 .152 4.432 .463 4.603 .731 4.822 .536 5.089 .365 5.406 .219 5.114 .049 4.822-.177 4.53-.457 4.237-.737 3.665-1.169 2.813-1.754V-3.253C2.813-3.521 2.971-3.655 3.288-3.655H4.42C4.663-3.655 4.834-3.6 4.931-3.49 5.028-3.381 5.114-3.106 5.187-2.668 5.43-2.839 5.686-2.948 5.954-2.997 5.783-3.582 5.619-3.934 5.461-4.057 5.302-4.178 5.065-4.239 4.749-4.239H2.959C2.398-4.239 2.119-4.044 2.119-3.655V-2.156C1.875-2.302 1.449-2.534 .84-2.851 .718-2.631 .548-2.425 .329-2.229 .84-2.083 1.437-1.803 2.119-1.389V.073C2.119 .487 2.106 .841 2.082 1.133H2.849C2.825 .841 2.813 .487 2.813 .073" fill="#2c292a"/>
<path transform="matrix(1,0,0,-1,151.2983,237.52732)" d="M0 0C-.098-.256-.195-.506-.292-.749H1.9V.53C1.9 .846 1.887 1.151 1.863 1.444H2.703C2.679 1.175 2.667 .871 2.667 .53V-.749H4.274C4.663-.749 5.102-.737 5.589-.713V-1.444C5.126-1.42 4.688-1.407 4.274-1.407H2.667V-3.052H3.799C4.14-3.052 4.554-3.04 5.041-3.015V-3.746C4.578-3.722 4.164-3.709 3.799-3.709H2.667V-5.902H4.858C5.248-5.902 5.698-5.89 6.21-5.866V-6.56C5.722-6.535 5.272-6.523 4.858-6.523H-.402C-.816-6.523-1.242-6.535-1.68-6.56V-5.866C-1.218-5.89-.792-5.902-.402-5.902H1.9V-3.709H.548C.207-3.709-.146-3.722-.511-3.746V-3.015C-.146-3.04 .207-3.052 .548-3.052H1.9V-1.407H-.548C-.767-1.919-.986-2.357-1.205-2.723-1.474-2.601-1.766-2.516-2.082-2.467-1.814-2.174-1.528-1.706-1.224-1.06-.919-.415-.707 .274-.584 1.005L.365 .64C.219 .469 .097 .256 0 0" fill="#2c292a"/>
<path transform="matrix(1,0,0,-1,171.9037,240.25)" d="M0 0C.28 .536 .457 1.023 .53 1.462H.128C-.018 1.462-.25 1.449-.566 1.425V2.047C-.25 2.022-.018 2.01 .128 2.01H.603V3.07C.603 3.386 .59 3.691 .566 3.984H1.37C1.345 3.691 1.333 3.386 1.333 3.07V2.01C1.576 2.01 1.845 2.022 2.137 2.047V1.425C1.845 1.449 1.576 1.462 1.333 1.462V-3.216C1.333-3.582 1.345-3.947 1.37-4.312H.566C.59-4.02 .603-3.655 .603-3.216V-.146C.457-.439 .316-.737 .183-1.042 .048-1.347-.128-1.681-.347-2.047-.469-1.754-.627-1.523-.822-1.352-.554-.987-.28-.536 0 0M2.283 .183C2.405 .037 2.551-.146 2.721-.365 2.526-.512 2.356-.658 2.21-.804L1.845-.256C1.747-.11 1.601 .073 1.406 .292 1.552 .414 1.723 .524 1.918 .621ZM4.95 4.13C5.193 3.642 5.339 3.313 5.388 3.143H7.433C7.409 2.924 7.397 2.692 7.397 2.449 7.397 2.229 7.409 2.01 7.433 1.791H6.739V2.595H3.196V1.718H2.466C2.49 1.985 2.502 2.217 2.502 2.412 2.502 2.607 2.49 2.851 2.466 3.143H4.584C4.511 3.386 4.402 3.63 4.255 3.874 4.548 3.947 4.779 4.032 4.95 4.13M4.548 .146H6.191C6.654 .146 7.08 .158 7.47 .183V-.439C7.08-.415 6.654-.402 6.191-.402H4.877V-1.096H6.045C6.386-1.096 6.763-1.084 7.178-1.06V-1.681C6.788-1.657 6.411-1.645 6.045-1.645H4.877V-2.376H6.082C6.471-2.376 6.886-2.364 7.324-2.339V-2.997C6.886-2.973 6.471-2.96 6.082-2.96H4.877V-3.253C4.877-3.545 4.888-3.898 4.913-4.312H4.146C4.17-4.02 4.182-3.667 4.182-3.253V-.512C4.012-.78 3.829-1.018 3.635-1.224 3.439-1.432 3.22-1.633 2.977-1.827 2.855-1.608 2.697-1.413 2.502-1.243 2.941-.95 3.293-.603 3.561-.201 3.829 .201 4.073 .67 4.292 1.206 4.56 1.06 4.803 .95 5.023 .877 4.852 .658 4.694 .414 4.548 .146M4.018 1.188C3.811 .956 3.561 .694 3.269 .402 3.123 .597 2.964 .755 2.794 .877 3.014 1.047 3.214 1.23 3.397 1.425 3.58 1.62 3.756 1.876 3.927 2.193 4.146 2.047 4.353 1.924 4.548 1.827 4.402 1.632 4.225 1.419 4.018 1.188M6.283 1.736C6.489 1.553 6.703 1.34 6.922 1.096 6.8 1.023 6.617 .865 6.374 .621 6.203 .865 5.85 1.255 5.315 1.791L5.717 2.193C5.887 2.071 6.076 1.919 6.283 1.736" fill="#2c292a"/>
<path transform="matrix(1,0,0,-1,180.6334,243.31992)" d="M0 0C.024 .365 .195 .694 .511 .987 .828 1.279 1.229 1.736 1.717 2.357 2.204 2.979 2.52 3.459 2.667 3.801 2.813 4.142 2.867 4.434 2.831 4.678 2.794 4.921 2.679 5.122 2.484 5.281 2.289 5.439 2.064 5.506 1.808 5.482 1.553 5.457 1.309 5.36 1.078 5.19 .846 5.019 .67 4.763 .548 4.422L-.146 4.532C.049 5.092 .298 5.5 .603 5.756 .907 6.012 1.266 6.152 1.68 6.176 1.923 6.2 2.143 6.195 2.338 6.158 2.532 6.121 2.733 6.036 2.941 5.902 3.147 5.768 3.318 5.567 3.452 5.299 3.586 5.031 3.635 4.708 3.598 4.331 3.562 3.953 3.373 3.502 3.032 2.979 2.691 2.454 2.033 1.632 1.059 .512H3.689V-.146H0Z" fill="#2c292a"/>
<path transform="matrix(1,0,0,-1,185.7023,241.74842)" d="M0 0C.17-.658 .462-1.023 .877-1.096 1.291-1.169 1.626-1.127 1.881-.968 2.137-.81 2.32-.603 2.429-.347 2.539-.091 2.587 .195 2.575 .512 2.563 .828 2.478 1.096 2.32 1.316 2.161 1.535 1.96 1.681 1.717 1.754 1.473 1.827 1.199 1.827 .895 1.754 .59 1.681 .341 1.51 .146 1.243L-.475 1.316C-.426 1.462-.195 2.509 .219 4.459H3.105V3.801H.767C.645 3.143 .523 2.619 .402 2.229 .767 2.399 1.108 2.479 1.425 2.467 1.741 2.454 2.046 2.381 2.338 2.248 2.63 2.113 2.843 1.931 2.977 1.699 3.111 1.468 3.208 1.236 3.269 1.005 3.33 .773 3.354 .524 3.342 .256 3.33-.013 3.275-.287 3.178-.566 3.08-.847 2.934-1.078 2.74-1.261 2.544-1.444 2.307-1.59 2.027-1.699 1.747-1.809 1.425-1.852 1.059-1.827 .694-1.803 .347-1.669 .018-1.425-.31-1.182-.536-.767-.657-.183Z" fill="#2c292a"/>
<path transform="matrix(1,0,0,-1,195.2511,237.436)" d="M0 0C-.743-.073-1.735-.134-2.977-.183V-1.937H1.151C1.711-1.937 2.344-1.925 3.05-1.9V-2.668C2.344-2.619 1.784-2.595 1.37-2.595H.676V-5.628C.676-6.116 .688-6.627 .712-7.163H-.091C-.067-6.602-.055-6.091-.055-5.628V-2.595H-2.977C-3.002-3.545-3.068-4.246-3.178-4.696-3.288-5.147-3.434-5.573-3.616-5.975-3.799-6.377-4.036-6.773-4.329-7.163-4.451-7.041-4.73-6.895-5.169-6.725-4.78-6.359-4.487-5.939-4.292-5.464-4.098-4.989-3.958-4.501-3.872-4.002-3.787-3.503-3.744-2.827-3.744-1.974-3.744-1.096-3.757-.292-3.781 .439-3.026 .439-2.253 .469-1.461 .53-.67 .59-.025 .658 .475 .731 .974 .804 1.467 .914 1.954 1.06 2.051 .791 2.21 .524 2.429 .256 1.552 .158 .743 .073 0 0" fill="#2c292a"/>
<path transform="matrix(1,0,0,-1,201.6449,239.70182)" d="M0 0C-.195-.244-.317-.463-.365-.658-.926-.292-1.486 .012-2.046 .256-1.949 .475-1.839 .682-1.717 .877-1.181 .633-.609 .341 0 0M-.548-3.216C-.84-3.923-1.084-4.459-1.279-4.824-1.449-4.629-1.705-4.471-2.046-4.349-1.729-3.984-1.425-3.496-1.132-2.887-.84-2.278-.634-1.754-.511-1.316-.268-1.486-.049-1.621 .146-1.718-.025-2.01-.256-2.51-.548-3.216M.511 2.12C.316 1.949 .158 1.742 .037 1.498-.451 1.888-.962 2.241-1.498 2.558L-1.059 3.143C-.548 2.826-.025 2.485 .511 2.12M2.886 2.229C2.886 2.546 2.873 2.96 2.849 3.472H3.616C3.592 2.96 3.58 2.546 3.58 2.229V1.498H5.881C5.857 .914 5.845 .463 5.845 .146V-3.362C5.845-3.631 5.857-4.093 5.881-4.751H5.151V-3.984H1.315V-4.751H.584C.608-4.117 .621-3.643 .621-3.326V.11C.621 .426 .608 .889 .584 1.498H2.886ZM2.886 .914H1.3149999V-.91300007H2.886ZM2.886-1.498H1.3149999V-3.398H2.886ZM5.151 .914H3.58V-.91300007H5.151ZM5.151-1.498H3.58V-3.398H5.151ZM5.151-3.399" fill="#2c292a"/>
</g>
<path transform="matrix(1,0,0,-1,282.2059,240.25492)" d="M0 0H-1.79V-1.791H-2.411V0H-4.201V.585H-2.411V2.376H-1.79V.585H0Z" fill="#2c292a"/>
<g clip-path="url(#clip_5)">
<path transform="matrix(1,0,0,-1,284.5717,238.0986)" d="M0 0C-.317-.317-.719-.621-1.205-.914V-.219C-.597 .195-.098 .682 .292 1.243H.731V-5.043H0Z" fill="#2c292a"/>
<path transform="matrix(1,0,0,-1,288.0337,241.42429)" d="M0 0C.17-.658 .462-1.023 .877-1.096 1.29-1.169 1.625-1.127 1.881-.968 2.137-.81 2.319-.603 2.429-.347 2.539-.091 2.587 .195 2.575 .512 2.563 .828 2.478 1.096 2.319 1.316 2.161 1.535 1.96 1.681 1.717 1.754 1.473 1.827 1.199 1.827 .895 1.754 .59 1.681 .341 1.51 .146 1.243L-.475 1.316C-.426 1.462-.195 2.509 .219 4.459H3.105V3.801H.767C.645 3.143 .523 2.619 .402 2.229 .767 2.399 1.108 2.479 1.425 2.467 1.741 2.454 2.046 2.381 2.338 2.248 2.63 2.113 2.843 1.931 2.977 1.699 3.111 1.468 3.208 1.236 3.269 1.005 3.33 .773 3.354 .524 3.342 .256 3.33-.013 3.275-.287 3.178-.566 3.08-.847 2.934-1.078 2.74-1.261 2.544-1.444 2.307-1.59 2.027-1.699 1.747-1.809 1.425-1.852 1.059-1.827 .694-1.803 .347-1.669 .018-1.425-.31-1.182-.536-.767-.657-.183Z" fill="#2c292a"/>
<path transform="matrix(1,0,0,-1,297.5814,237.11191)" d="M0 0C-.743-.073-1.735-.134-2.977-.183V-1.937H1.151C1.711-1.937 2.343-1.925 3.05-1.9V-2.668C2.343-2.619 1.784-2.595 1.37-2.595H.676V-5.628C.676-6.116 .688-6.627 .712-7.163H-.091C-.067-6.602-.055-6.091-.055-5.628V-2.595H-2.977C-3.002-3.545-3.068-4.246-3.178-4.696-3.288-5.147-3.434-5.573-3.616-5.975-3.799-6.377-4.036-6.773-4.329-7.163-4.451-7.041-4.73-6.895-5.169-6.725-4.779-6.359-4.487-5.939-4.292-5.464-4.098-4.989-3.958-4.501-3.872-4.002-3.787-3.503-3.744-2.827-3.744-1.974-3.744-1.096-3.757-.292-3.781 .439-3.026 .439-2.253 .469-1.461 .53-.67 .59-.024 .658 .475 .731 .974 .804 1.467 .914 1.954 1.06 2.051 .791 2.21 .524 2.429 .256 1.552 .158 .742 .073 0 0" fill="#2c292a"/>
<path transform="matrix(1,0,0,-1,303.9751,239.37772)" d="M0 0C-.195-.244-.317-.463-.365-.658-.926-.292-1.486 .012-2.046 .256-1.949 .475-1.839 .682-1.717 .877-1.181 .633-.609 .341 0 0M-.548-3.216C-.84-3.923-1.084-4.459-1.278-4.824-1.449-4.629-1.705-4.471-2.046-4.349-1.729-3.984-1.424-3.496-1.132-2.887-.84-2.278-.634-1.754-.511-1.316-.268-1.486-.049-1.621 .146-1.718-.025-2.01-.256-2.51-.548-3.216M.511 2.12C.316 1.949 .158 1.742 .037 1.498-.451 1.888-.962 2.241-1.498 2.558L-1.059 3.143C-.548 2.826-.025 2.485 .511 2.12M2.886 2.229C2.886 2.546 2.873 2.96 2.849 3.472H3.616C3.592 2.96 3.58 2.546 3.58 2.229V1.498H5.881C5.857 .914 5.845 .463 5.845 .146V-3.362C5.845-3.631 5.857-4.093 5.881-4.751H5.151V-3.984H1.315V-4.751H.585C.609-4.117 .621-3.643 .621-3.326V.11C.621 .426 .609 .889 .585 1.498H2.886ZM2.886 .914H1.3149999V-.91300007H2.886ZM2.886-1.498H1.3149999V-3.398H2.886ZM5.151 .914H3.58V-.91300007H5.151ZM5.151-1.498H3.58V-3.398H5.151ZM5.151-3.399" fill="#2c292a"/>
</g>
<path transform="matrix(1,0,0,-1,249.6412,272.9604)" d="M0 0H-1.79V-1.791H-2.411V0H-4.201V.585H-2.411V2.375H-1.79V.585H0Z" fill="#2c292a"/>
<g clip-path="url(#clip_6)">
<path transform="matrix(1,0,0,-1,250.7643,274.1299)" d="M0 0C.17-.658 .462-1.023 .877-1.096 1.29-1.169 1.625-1.127 1.881-.968 2.137-.81 2.319-.603 2.429-.347 2.539-.091 2.587 .195 2.575 .512 2.563 .828 2.478 1.096 2.319 1.316 2.161 1.535 1.96 1.681 1.717 1.754 1.473 1.827 1.199 1.827 .895 1.754 .59 1.681 .341 1.51 .146 1.243L-.475 1.316C-.426 1.462-.195 2.509 .219 4.459H3.105V3.801H.767C.645 3.143 .523 2.619 .402 2.229 .767 2.399 1.108 2.479 1.425 2.467 1.741 2.454 2.046 2.381 2.338 2.248 2.63 2.113 2.843 1.931 2.977 1.699 3.111 1.468 3.208 1.236 3.269 1.005 3.33 .773 3.354 .524 3.342 .256 3.33-.013 3.275-.287 3.178-.566 3.08-.847 2.934-1.078 2.74-1.261 2.544-1.444 2.307-1.59 2.027-1.699 1.747-1.809 1.425-1.852 1.059-1.827 .694-1.803 .347-1.669 .018-1.425-.31-1.182-.536-.767-.658-.183Z" fill="#2c292a"/>
<path transform="matrix(1,0,0,-1,260.307,269.8174)" d="M0 0C-.743-.073-1.735-.134-2.977-.183V-1.937H1.151C1.711-1.937 2.343-1.925 3.05-1.9V-2.668C2.343-2.619 1.784-2.595 1.37-2.595H.676V-5.628C.676-6.116 .688-6.627 .712-7.163H-.091C-.067-6.602-.055-6.091-.055-5.628V-2.595H-2.977C-3.002-3.545-3.068-4.246-3.178-4.696-3.288-5.147-3.434-5.573-3.616-5.975-3.799-6.377-4.036-6.773-4.329-7.163-4.451-7.041-4.73-6.895-5.169-6.725-4.779-6.359-4.487-5.939-4.292-5.464-4.098-4.989-3.958-4.501-3.872-4.002-3.787-3.503-3.744-2.827-3.744-1.973-3.744-1.096-3.757-.292-3.781 .439-3.026 .439-2.253 .469-1.461 .53-.67 .59-.024 .658 .475 .731 .974 .804 1.467 .914 1.954 1.06 2.051 .791 2.21 .524 2.429 .256 1.552 .158 .742 .073 0 0" fill="#2c292a"/>
<path transform="matrix(1,0,0,-1,288.3863,339.6644)" d="M0 0H-48.027C-50.109 0-51.803 1.694-51.803 3.777V16.531C-51.803 18.614-50.109 20.309-48.027 20.309H0C2.082 20.309 3.776 18.614 3.776 16.531V3.777C3.776 1.694 2.082 0 0 0M-48.027 19.132C-49.46 19.132-50.626 17.965-50.626 16.531V3.777C-50.626 2.343-49.46 1.177-48.027 1.177H0C1.433 1.177 2.599 2.343 2.599 3.777V16.531C2.599 17.965 1.433 19.132 0 19.132Z" fill="#f43040"/>
<path transform="matrix(1,0,0,-1,258.6479,334.0335)" d="M0 0C.027 .597 .041 1.532 .041 2.807-.475 2.047-1.092 1.471-1.81 1.078-2.528 .685-3.199 .353-3.822 .081-3.931 .38-4.134 .638-4.432 .854-3.484 1.125-2.731 1.41-2.175 1.709-1.62 2.007-1.138 2.414-.732 2.929H-2.765C-3.226 2.929-3.687 2.915-4.148 2.889V3.58C-3.687 3.553-3.226 3.539-2.765 3.539H.041C.041 3.784 .027 4.068 0 4.394H.813C.786 4.095 .773 3.81 .773 3.539H3.416C3.985 3.539 4.5 3.553 4.961 3.58V2.889C4.5 2.915 3.998 2.929 3.456 2.929H1.586C2.155 2.251 2.765 1.79 3.416 1.546 4.066 1.302 4.676 1.152 5.246 1.098 5.002 .882 4.839 .61 4.758 .285 3.917 .475 3.178 .76 2.542 1.139 1.904 1.519 1.315 2.116 .773 2.929 .773 1.573 .786 .597 .813 0ZM-3.944 7.567C-3.809 7.784-3.7 7.987-3.619 8.177-2.996 7.933-2.467 7.675-2.033 7.404-2.223 7.187-2.372 6.97-2.48 6.754-2.887 7.052-3.375 7.323-3.944 7.567M-2.013 5.228C-2.325 4.943-2.738 4.557-3.253 4.068L-3.863 4.679C-3.456 4.923-3.043 5.234-2.623 5.614-2.203 5.994-1.87 6.347-1.626 6.672-1.518 6.373-1.397 6.143-1.26 5.981-1.45 5.763-1.701 5.513-2.013 5.228M-3.05 9.072C-2.887 9.289-2.738 9.479-2.602 9.642-1.979 9.262-1.504 8.923-1.179 8.625-1.397 8.462-1.573 8.286-1.708 8.096-1.952 8.367-2.399 8.692-3.05 9.072M4.676 9.195V8.544C4.161 8.57 3.741 8.584 3.416 8.584H.203V7.852H4.026C3.998 7.499 3.985 7.16 3.985 6.835 3.985 6.536 3.998 6.238 4.026 5.94H.203V5.208H3.294C3.619 5.208 4.039 5.221 4.554 5.248V4.597C4.039 4.624 3.619 4.638 3.294 4.638H-.61C-.583 5.099-.569 5.818-.569 6.794-.569 7.797-.583 8.584-.61 9.154H3.416C3.741 9.154 4.161 9.167 4.676 9.195M3.253 7.242H.20300007V6.51H3.253ZM3.253 6.509" fill="#2c292a"/>
<path transform="matrix(1,0,0,-1,264.6955,328.3785)" d="M0 0C.433-.027 .813-.041 1.138-.041H1.992C1.965-.475 1.952-.936 1.952-1.424V-3.702C2.656-4.353 3.849-4.679 5.53-4.679 7.238-4.679 8.539-4.611 9.434-4.475 9.298-4.801 9.19-5.126 9.109-5.452 8.051-5.478 7.136-5.485 6.364-5.472 5.591-5.458 4.947-5.424 4.432-5.37 3.917-5.316 3.497-5.228 3.172-5.106 2.846-4.984 2.514-4.807 2.175-4.577 1.836-4.347 1.559-4.34 1.342-4.557 1.125-4.773 .867-5.085 .569-5.492 .325-5.248 .081-5.045-.163-4.882 .244-4.611 .691-4.231 1.179-3.743V-.692C.772-.692 .379-.706 0-.732ZM.651 3.214C.976 3.268 1.26 3.349 1.504 3.458 1.694 2.915 1.87 2.319 2.033 1.668 1.762 1.613 1.477 1.519 1.179 1.383 1.071 1.871 .895 2.482 .651 3.214M2.724 2.441C3.131 2.414 4.364 2.4 6.425 2.4 6.641 2.915 6.845 3.444 7.035 3.987 7.387 3.851 7.685 3.743 7.929 3.662 7.739 3.471 7.495 3.051 7.197 2.4 8.255 2.4 9.013 2.414 9.475 2.441V1.709C9.013 1.735 7.983 1.749 6.384 1.749L6.181 .936H8.539C8.512 .285 8.499-.57 8.499-1.627 8.499-2.658 8.512-3.431 8.539-3.946H3.456C3.51-3.35 3.538-2.577 3.538-1.627 3.538-.678 3.524 .176 3.497 .936H5.327L5.53 1.749C4.066 1.749 3.131 1.735 2.724 1.709ZM5.286 2.889C5.069 2.753 4.852 2.604 4.636 2.441 4.446 2.767 4.174 3.133 3.822 3.539 4.012 3.675 4.215 3.824 4.432 3.987 4.784 3.553 5.069 3.187 5.286 2.889M7.726 .285H4.351V-.488H7.726ZM7.726-1.098H4.351V-1.871H7.726ZM7.726-2.482H4.351V-3.296H7.726ZM7.726-3.295" fill="#2c292a"/>
<path transform="matrix(1,0,0,-1,178.5509,339.6644)" d="M0 0H-48.027C-50.109 0-51.803 1.694-51.803 3.777V16.531C-51.803 18.614-50.109 20.309-48.027 20.309H0C2.082 20.309 3.776 18.614 3.776 16.531V3.777C3.776 1.694 2.082 0 0 0M-48.027 19.132C-49.46 19.132-50.626 17.965-50.626 16.531V3.777C-50.626 2.343-49.46 1.177-48.027 1.177H0C1.433 1.177 2.599 2.343 2.599 3.777V16.531C2.599 17.965 1.433 19.132 0 19.132Z" fill="#f43040"/>
<path transform="matrix(1,0,0,-1,152.3536,332.5282)" d="M0 0C0-.407 .027-.895 .081-1.465H-.773V-.854H-4.961V-1.505H-5.815C-5.788-.936-5.774-.461-5.774-.081V.854C-5.774 1.017-5.788 1.261-5.815 1.587-6.005 1.505-6.587 1.315-7.563 1.017-7.645 1.343-7.781 1.654-7.97 1.953-6.994 2.088-6.181 2.238-5.53 2.4-4.88 2.563-4.27 2.793-3.7 3.092-4.026 3.255-4.514 3.607-5.164 4.15-5.49 3.824-5.856 3.499-6.262 3.173-6.452 3.444-6.683 3.648-6.953 3.784-6.384 4.136-5.89 4.536-5.469 4.984-5.049 5.431-4.744 5.885-4.554 6.347-4.202 6.184-3.85 6.048-3.497 5.94-3.66 5.831-3.85 5.655-4.066 5.411H-.163C-.461 4.949-.746 4.563-1.017 4.251-1.288 3.939-1.708 3.553-2.277 3.092-1.898 2.929-1.39 2.766-.752 2.604-.116 2.441 .705 2.332 1.708 2.278 1.518 1.953 1.396 1.613 1.342 1.261 .827 1.397 .407 1.505 .081 1.587 .027 1.315 0 1.03 0 .732ZM1.342 7.201C1.315 6.74 1.301 6.401 1.301 6.184 1.301 5.994 1.315 5.696 1.342 5.289H.488V6.469H-6.628V5.248H-7.523C-7.496 5.519-7.482 5.777-7.482 6.021-7.482 6.265-7.496 6.658-7.523 7.201H-3.416C-3.497 7.472-3.606 7.73-3.741 7.974-3.334 8.055-3.009 8.123-2.765 8.177-2.576 7.635-2.467 7.309-2.44 7.201ZM-5.734 1.587H0C-.841 1.776-1.471 1.953-1.891 2.116-2.311 2.278-2.698 2.427-3.05 2.563-3.511 2.346-3.958 2.156-4.392 1.993-4.826 1.831-5.273 1.695-5.734 1.587M-.773 .936H-4.9610006V-.24399996H-.773ZM-4.676 4.638C-3.999 4.068-3.416 3.688-2.928 3.499-2.413 3.878-1.966 4.299-1.586 4.76H-4.595C-4.622 4.733-4.65 4.692-4.676 4.638" fill="#2c292a"/>
<path transform="matrix(1,0,0,-1,163.7281,328.6226)" d="M0 0C0-.814 .013-1.451 .041-1.912H-.854V-1.302H-6.506C-6.615-2.17-6.75-2.821-6.913-3.255-7.076-3.689-7.252-4.075-7.441-4.414-7.631-4.753-7.835-5.072-8.051-5.37-8.323-5.153-8.621-4.99-8.946-4.882-8.404-4.312-8.031-3.777-7.828-3.275-7.624-2.774-7.489-2.299-7.421-1.851-7.354-1.404-7.32-.922-7.32-.407-7.32 .108-7.333 .99-7.36 2.238H.041C.013 1.587 0 .84 0 0M-.895 1.505H-6.547V-.57000008H-.895ZM-3.131 2.685C-3.484 2.604-3.755 2.508-3.944 2.4-4.134 2.97-4.351 3.471-4.595 3.906-4.324 3.987-4.066 4.095-3.822 4.231-3.497 3.58-3.267 3.065-3.131 2.685" fill="#2c292a"/>
</g>
<path transform="matrix(1,0,0,-1,250.7944,314.5015)" d="M0 0 1.975 2.018 3.95 4.036 6.009-1.934ZM2.325 .357-24.506 26.641-23.19 27.986 3.642 1.703Z" fill="#2c292a"/>
<path transform="matrix(1,0,0,-1,192.5747,287.5455)" d="M0 0 1.975-2.018 3.95-4.036 6.009 1.934ZM-23.19-27.986 3.642-1.703 2.325-.357-24.506-26.641Z" fill="#2c292a"/>
<path transform="matrix(1,0,0,-1,189.4087,326.9373)" d="M0 0V-2.824-5.649L-5.646-2.824ZM-1.411-1.883H44.934003V-3.766H-1.411Z" fill="#2c292a"/>
<path transform="matrix(1,0,0,-1,214.1687,256.97203)" d="M0 0-2.935 3.5H-23.725V4.677H-2.386L0 1.831 2.386 4.677H23.06V3.5H2.935Z" fill="#2c292a"/>
<g clip-path="url(#clip_7)">
<path transform="matrix(1,0,0,-1,224.2171,239.9259)" d="M0 0C.28 .536 .457 1.023 .53 1.462H.128C-.018 1.462-.25 1.449-.566 1.425V2.047C-.25 2.022-.018 2.01 .128 2.01H.603V3.07C.603 3.386 .59 3.691 .566 3.984H1.37C1.345 3.691 1.333 3.386 1.333 3.07V2.01C1.576 2.01 1.845 2.022 2.137 2.047V1.425C1.845 1.449 1.576 1.462 1.333 1.462V-3.216C1.333-3.582 1.345-3.947 1.37-4.312H.566C.59-4.02 .603-3.655 .603-3.216V-.146C.457-.439 .316-.737 .183-1.042 .048-1.347-.128-1.681-.347-2.047-.469-1.754-.627-1.523-.822-1.352-.554-.987-.28-.536 0 0M2.283 .183C2.405 .037 2.551-.146 2.721-.365 2.526-.512 2.356-.658 2.21-.804L1.845-.256C1.747-.11 1.601 .073 1.406 .292 1.552 .414 1.723 .524 1.918 .621ZM4.95 4.13C5.193 3.642 5.339 3.313 5.388 3.143H7.434C7.409 2.924 7.397 2.692 7.397 2.449 7.397 2.229 7.409 2.01 7.434 1.791H6.74V2.595H3.196V1.718H2.466C2.49 1.985 2.502 2.217 2.502 2.412 2.502 2.607 2.49 2.851 2.466 3.143H4.584C4.511 3.386 4.402 3.63 4.256 3.874 4.548 3.947 4.779 4.032 4.95 4.13M4.548 .146H6.191C6.654 .146 7.08 .158 7.47 .183V-.439C7.08-.415 6.654-.402 6.191-.402H4.877V-1.096H6.046C6.386-1.096 6.763-1.084 7.178-1.06V-1.681C6.788-1.657 6.411-1.645 6.046-1.645H4.877V-2.376H6.082C6.471-2.376 6.886-2.364 7.324-2.339V-2.997C6.886-2.973 6.471-2.96 6.082-2.96H4.877V-3.253C4.877-3.545 4.888-3.898 4.913-4.312H4.146C4.17-4.02 4.182-3.667 4.182-3.253V-.512C4.012-.78 3.829-1.018 3.634-1.224 3.439-1.432 3.22-1.633 2.977-1.827 2.855-1.608 2.697-1.413 2.502-1.243 2.94-.95 3.293-.603 3.562-.201 3.829 .201 4.073 .67 4.292 1.206 4.56 1.06 4.803 .95 5.023 .877 4.852 .658 4.694 .414 4.548 .146M4.018 1.188C3.811 .956 3.562 .694 3.269 .402 3.123 .597 2.964 .755 2.794 .877 3.014 1.047 3.215 1.23 3.397 1.425 3.58 1.62 3.756 1.876 3.927 2.193 4.146 2.047 4.353 1.924 4.548 1.827 4.402 1.632 4.225 1.419 4.018 1.188M6.283 1.736C6.489 1.553 6.703 1.34 6.922 1.096 6.8 1.023 6.617 .865 6.374 .621 6.204 .865 5.85 1.255 5.315 1.791L5.717 2.193C5.887 2.071 6.076 1.919 6.283 1.736" fill="#2c292a"/>
</g>
<path transform="matrix(1,0,0,-1,235.4308,241.7533)" d="M0 0H-2.813V.621L.146 4.897H.694V.621H1.571V0H.694V-1.389H0ZM0 .621V3.508L-2.046 .621Z" fill="#2c292a"/>
<g clip-path="url(#clip_8)">
<path transform="matrix(1,0,0,-1,237.5408,239.6507)" d="M0 0C.024 .645 .115 1.156 .274 1.534 .432 1.912 .658 2.222 .95 2.466 1.242 2.709 1.601 2.831 2.027 2.831 2.453 2.831 2.825 2.654 3.141 2.301 3.458 1.948 3.665 1.503 3.762 .968 3.859 .432 3.89-.183 3.854-.877 3.817-1.571 3.695-2.137 3.488-2.575 3.281-3.014 2.971-3.319 2.557-3.489 2.143-3.659 1.729-3.641 1.315-3.434 .901-3.227 .608-2.953 .438-2.612 .268-2.271 .146-1.912 .073-1.534 0-1.157-.024-.646 0 0M.767 .219C.694-.451 .718-1.047 .84-1.571 .962-2.095 1.163-2.466 1.443-2.685 1.723-2.904 2.009-2.947 2.301-2.813 2.594-2.679 2.806-2.411 2.941-2.009 3.074-1.607 3.141-1.169 3.141-.694 3.141-.219 3.123 .213 3.087 .603 3.05 .992 2.941 1.345 2.758 1.662 2.575 1.978 2.332 2.143 2.027 2.155 1.723 2.167 1.455 2.015 1.224 1.699 .992 1.382 .84 .889 .767 .219" fill="#2c292a"/>
<path transform="matrix(1,0,0,-1,247.5645,237.11191)" d="M0 0C-.743-.073-1.735-.134-2.977-.183V-1.937H1.151C1.711-1.937 2.343-1.925 3.05-1.9V-2.668C2.343-2.619 1.784-2.595 1.37-2.595H.676V-5.628C.676-6.116 .688-6.627 .712-7.163H-.091C-.067-6.602-.055-6.091-.055-5.628V-2.595H-2.977C-3.002-3.545-3.068-4.246-3.178-4.696-3.288-5.147-3.434-5.573-3.616-5.975-3.799-6.377-4.036-6.773-4.329-7.163-4.451-7.041-4.731-6.895-5.169-6.725-4.779-6.359-4.487-5.939-4.292-5.464-4.098-4.989-3.958-4.501-3.872-4.002-3.787-3.503-3.744-2.827-3.744-1.974-3.744-1.096-3.757-.292-3.781 .439-3.026 .439-2.253 .469-1.461 .53-.67 .59-.025 .658 .475 .731 .974 .804 1.467 .914 1.954 1.06 2.051 .791 2.21 .524 2.429 .256 1.552 .158 .742 .073 0 0" fill="#2c292a"/>
<path transform="matrix(1,0,0,-1,253.9583,239.37772)" d="M0 0C-.195-.244-.317-.463-.365-.658-.926-.292-1.486 .012-2.046 .256-1.949 .475-1.839 .682-1.717 .877-1.181 .633-.609 .341 0 0M-.548-3.216C-.84-3.923-1.084-4.459-1.278-4.824-1.449-4.629-1.705-4.471-2.046-4.349-1.729-3.984-1.424-3.496-1.132-2.887-.84-2.278-.634-1.754-.511-1.316-.268-1.486-.049-1.621 .146-1.718-.024-2.01-.256-2.51-.548-3.216M.511 2.12C.316 1.949 .158 1.742 .037 1.498-.451 1.888-.962 2.241-1.498 2.558L-1.059 3.143C-.548 2.826-.024 2.485 .511 2.12M2.886 2.229C2.886 2.546 2.873 2.96 2.849 3.472H3.616C3.592 2.96 3.58 2.546 3.58 2.229V1.498H5.881C5.857 .914 5.845 .463 5.845 .146V-3.362C5.845-3.631 5.857-4.093 5.881-4.751H5.151V-3.984H1.315V-4.751H.585C.609-4.117 .621-3.643 .621-3.326V.11C.621 .426 .609 .889 .585 1.498H2.886ZM2.886 .914H1.3149999V-.91300007H2.886ZM2.886-1.498H1.3149999V-3.398H2.886ZM5.151 .914H3.58V-.91300007H5.151ZM5.151-1.498H3.58V-3.398H5.151ZM5.151-3.399" fill="#2c292a"/>
</g>
<path transform="matrix(1,0,0,-1,0,595.276)" d="M291.332 341.775H236.043V343.011H291.332Z" fill="#2c292a"/>
<path transform="matrix(1,0,0,-1,0,595.276)" d="M195.978 341.775H137.31299V343.011H195.978Z" fill="#2c292a"/>
<g clip-path="url(#clip_9)">
<path transform="matrix(1,0,0,-1,189.3039,227.58679)" d="M0 0C-5.237 0-9.497 4.263-9.497 9.502-9.497 14.741-5.237 19.004 0 19.004 5.237 19.004 9.497 14.741 9.497 9.502 9.497 4.263 5.237 0 0 0M0 17.827C-4.588 17.827-8.321 14.092-8.321 9.502-8.321 4.911-4.588 1.177 0 1.177 4.588 1.177 8.32 4.911 8.32 9.502 8.32 14.092 4.588 17.827 0 17.827" fill="#f43040"/>
<path transform="matrix(1,0,0,-1,185.6848,219.89539)" d="M0 0C.163 .827 .244 1.512 .244 2.055V5.024C.244 5.594 .23 6.014 .203 6.286H6.75C7.346 6.286 7.767 6.299 8.011 6.326V5.594C7.793 5.621 7.373 5.635 6.75 5.635H1.057V2.177C1.03 1.39 .969 .705 .874 .122 .779-.461 .63-.997 .427-1.485 .224-1.973 .041-2.353-.122-2.624-.393-2.434-.678-2.299-.976-2.217-.488-1.566-.163-.828 0 0M1.972-.956C2.284-.631 2.548-.278 2.765 .102 3.009-.142 3.226-.332 3.416-.468 2.684-1.336 2.06-1.959 1.545-2.339 1.383-2.149 1.193-1.959 .976-1.77 1.328-1.553 1.66-1.282 1.972-.956M4.432 4.333H7.441C7.414 4.089 7.401 3.709 7.401 3.194V1.932C7.401 1.498 7.414 1.091 7.441 .712H5.164V-1.77C5.164-2.149 5.042-2.386 4.798-2.482 4.554-2.576 4.161-2.651 3.619-2.705 3.564-2.38 3.47-2.068 3.334-1.77 3.849-1.796 4.148-1.79 4.229-1.749 4.31-1.709 4.351-1.594 4.351-1.404V.712H2.033C2.06 1.037 2.074 1.43 2.074 1.892V3.234C2.074 3.668 2.06 4.034 2.033 4.333H3.7C3.863 4.929 3.944 5.323 3.944 5.513L4.839 5.269C4.649 4.997 4.514 4.685 4.432 4.333M6.587 3.723H2.846V2.828H6.587ZM6.587 2.217H2.846V1.363H6.587ZM8.214-1.648C8.024-1.81 7.834-2 7.645-2.217 7.292-1.783 6.71-1.214 5.896-.509 6.086-.292 6.262-.102 6.425 .061 7.373-.78 7.97-1.35 8.214-1.648" fill="#2c292a"/>
<path transform="matrix(1,0,0,-1,239.4011,213.97589)" d="M0 0C.298 0 .664 .013 1.098 .041V-.732C.664-.706 .203-.692-.285-.692V-2.929C.095-2.929 .501-2.916 .935-2.889V-3.662C.501-3.635 .095-3.621-.285-3.621V-6.103C.176-5.994 .651-5.858 1.139-5.696 1.111-5.994 1.098-6.252 1.098-6.469 .203-6.686-.515-6.889-1.057-7.079-1.6-7.269-2.006-7.432-2.277-7.567-2.358-7.188-2.467-6.862-2.602-6.591-2.169-6.537-1.64-6.442-1.017-6.306V-3.621C-1.45-3.621-1.87-3.635-2.277-3.662V-2.889C-1.87-2.916-1.45-2.929-1.017-2.929V-.692C-1.504-.692-1.939-.706-2.318-.732V.041C-1.992 .013-1.681 0-1.383 0ZM4.331-2.685C4.29-3.336 4.202-4.028 4.066-4.76H4.88C4.852-5.031 4.839-5.398 4.839-5.858V-7.16C4.839-7.567 4.913-7.784 5.063-7.811 5.211-7.838 5.381-7.845 5.571-7.832 5.76-7.818 5.896-7.723 5.978-7.547 6.059-7.371 6.113-7.052 6.14-6.591 6.411-6.754 6.71-6.862 7.035-6.916 6.899-7.486 6.764-7.872 6.628-8.076 6.492-8.279 6.208-8.408 5.774-8.462H4.961C4.364-8.462 4.066-8.204 4.066-7.689V-4.841C3.822-5.71 3.47-6.435 3.009-7.018 2.548-7.601 1.857-8.137 .935-8.625 .799-8.408 .569-8.218 .244-8.055 1.111-7.703 1.749-7.317 2.155-6.896 2.562-6.476 2.887-5.94 3.131-5.289 3.375-4.638 3.517-3.96 3.558-3.255 3.599-2.55 3.605-1.845 3.578-1.139 3.93-1.194 4.256-1.234 4.554-1.261 4.446-1.56 4.371-2.034 4.331-2.685M6.303-.895V-3.621C6.303-4.136 6.316-4.584 6.344-4.963H5.571V-.244H2.48V-5.004H1.708C1.735-4.543 1.749-4.028 1.749-3.458V-1.221C1.749-.624 1.735-.081 1.708 .407H6.344C6.316-.027 6.303-.461 6.303-.895" fill="#2c292a"/>
<path transform="matrix(1,0,0,-1,289.5797,218.00351)" d="M0 0C.515 .027 1.139 .135 1.871 .325 2.603 .515 3.172 .718 3.578 .936 3.253 1.369 2.887 1.749 2.48 2.075 2.697 2.238 2.873 2.414 3.009 2.604 3.524 2.116 3.944 1.681 4.27 1.302 4.676 1.546 5.042 1.81 5.368 2.095 5.693 2.38 5.978 2.685 6.222 3.011H2.725C2.155 2.522 1.491 2.034 .732 1.546 .569 1.79 .366 1.98 .122 2.116 .854 2.441 1.518 2.861 2.115 3.377 2.71 3.892 3.104 4.339 3.294 4.719 3.51 4.557 3.741 4.394 3.985 4.231 3.849 4.122 3.632 3.919 3.335 3.621H7.564C6.777 2.482 6.004 1.654 5.246 1.139 4.486 .624 3.748 .237 3.03-.02 2.311-.278 1.477-.529 .529-.773 .42-.502 .244-.244 0 0M6.018 .529C5.774 .311 5.544 .108 5.327-.081H8.702C8.377-.895 7.95-1.601 7.421-2.197 6.893-2.794 6.303-3.255 5.652-3.58 5.002-3.906 4.283-4.176 3.497-4.394 2.71-4.611 1.749-4.773 .61-4.882 .501-4.583 .339-4.299 .122-4.028 .799-4.054 1.606-3.987 2.542-3.824 3.477-3.662 4.324-3.404 5.083-3.051 4.595-2.563 4.188-2.17 3.863-1.871 4.08-1.709 4.27-1.533 4.432-1.343 4.812-1.723 5.246-2.17 5.734-2.685 6.086-2.468 6.418-2.191 6.73-1.851 7.041-1.512 7.305-1.126 7.523-.692H4.717C4.446-.909 4.066-1.173 3.578-1.485 3.091-1.797 2.413-2.143 1.545-2.522 1.409-2.252 1.233-2.034 1.017-1.871 1.911-1.601 2.758-1.18 3.558-.61 4.357-.041 4.92 .502 5.246 1.017 5.462 .8 5.72 .637 6.018 .529" fill="#2c292a"/>
</g>
<path transform="matrix(1,0,0,-1,299.9441,329.8003)" d="M0 0H-1.79V-1.791H-2.411V0H-4.201V.585H-2.411V2.376H-1.79V.585H0Z" fill="#2c292a"/>
<g clip-path="url(#clip_10)">
<path transform="matrix(1,0,0,-1,301.0681,330.9698)" d="M0 0C.17-.658 .462-1.023 .877-1.096 1.29-1.169 1.625-1.127 1.881-.968 2.137-.81 2.319-.603 2.429-.347 2.539-.091 2.587 .195 2.575 .512 2.563 .828 2.478 1.096 2.319 1.316 2.161 1.535 1.96 1.681 1.717 1.754 1.473 1.827 1.199 1.827 .895 1.754 .59 1.681 .341 1.51 .146 1.243L-.475 1.316C-.426 1.462-.195 2.509 .219 4.459H3.105V3.801H.767C.645 3.143 .523 2.619 .402 2.229 .767 2.4 1.108 2.479 1.425 2.467 1.741 2.454 2.046 2.381 2.338 2.248 2.63 2.113 2.843 1.931 2.977 1.699 3.111 1.468 3.208 1.236 3.269 1.005 3.33 .773 3.354 .524 3.342 .256 3.33-.013 3.275-.287 3.178-.566 3.08-.847 2.934-1.078 2.74-1.261 2.544-1.444 2.307-1.59 2.027-1.699 1.747-1.809 1.425-1.852 1.059-1.827 .694-1.803 .347-1.669 .018-1.425-.31-1.182-.536-.767-.657-.183Z" fill="#2c292a"/>
<path transform="matrix(1,0,0,-1,310.6169,326.6573)" d="M0 0C-.743-.073-1.735-.134-2.977-.183V-1.937H1.151C1.711-1.937 2.343-1.925 3.05-1.9V-2.668C2.343-2.619 1.784-2.595 1.37-2.595H.676V-5.628C.676-6.116 .688-6.627 .712-7.163H-.091C-.067-6.602-.055-6.091-.055-5.628V-2.595H-2.977C-3.002-3.545-3.068-4.246-3.178-4.696-3.288-5.147-3.434-5.573-3.616-5.975-3.799-6.377-4.036-6.773-4.329-7.163-4.451-7.041-4.73-6.895-5.169-6.725-4.779-6.359-4.487-5.939-4.292-5.464-4.098-4.989-3.958-4.501-3.872-4.002-3.787-3.503-3.744-2.827-3.744-1.974-3.744-1.096-3.757-.292-3.781 .439-3.026 .439-2.253 .469-1.461 .53-.67 .59-.024 .658 .475 .731 .974 .804 1.467 .914 1.954 1.06 2.051 .791 2.21 .524 2.429 .256 1.552 .158 .742 .073 0 0" fill="#2c292a"/>
</g>
<path transform="matrix(1,0,0,-1,109.3102,330.3313)" d="M0 0H-1.79V-1.791H-2.411V0H-4.201V.585H-2.411V2.376H-1.79V.585H0Z" fill="#2c292a"/>
<g clip-path="url(#clip_11)">
<path transform="matrix(1,0,0,-1,110.4331,331.5008)" d="M0 0C.17-.658 .462-1.023 .877-1.096 1.29-1.169 1.626-1.127 1.881-.968 2.137-.81 2.32-.603 2.429-.347 2.539-.091 2.587 .195 2.575 .512 2.563 .828 2.478 1.096 2.32 1.316 2.161 1.535 1.96 1.681 1.717 1.754 1.473 1.827 1.199 1.827 .895 1.754 .59 1.681 .341 1.51 .146 1.243L-.475 1.316C-.426 1.462-.195 2.509 .219 4.459H3.105V3.801H.767C.645 3.143 .523 2.619 .402 2.229 .767 2.399 1.108 2.479 1.425 2.467 1.741 2.454 2.046 2.381 2.338 2.248 2.63 2.113 2.843 1.931 2.977 1.699 3.111 1.468 3.208 1.236 3.269 1.005 3.33 .773 3.354 .524 3.342 .256 3.33-.013 3.275-.287 3.178-.566 3.08-.847 2.934-1.078 2.74-1.261 2.544-1.444 2.307-1.59 2.027-1.699 1.747-1.809 1.425-1.852 1.059-1.827 .694-1.803 .347-1.669 .018-1.425-.31-1.182-.536-.767-.658-.183Z" fill="#2c292a"/>
<path transform="matrix(1,0,0,-1,119.9759,327.1883)" d="M0 0C-.743-.073-1.735-.134-2.977-.183V-1.937H1.151C1.711-1.937 2.344-1.925 3.05-1.9V-2.668C2.344-2.619 1.784-2.595 1.37-2.595H.676V-5.628C.676-6.116 .688-6.627 .712-7.163H-.091C-.067-6.602-.055-6.091-.055-5.628V-2.595H-2.977C-3.002-3.545-3.068-4.246-3.178-4.696-3.288-5.147-3.434-5.573-3.616-5.975-3.799-6.377-4.036-6.773-4.329-7.163-4.451-7.041-4.73-6.895-5.169-6.725-4.78-6.359-4.487-5.939-4.292-5.464-4.098-4.989-3.958-4.501-3.872-4.002-3.787-3.503-3.744-2.827-3.744-1.974-3.744-1.096-3.757-.292-3.781 .439-3.026 .439-2.253 .469-1.461 .53-.67 .59-.025 .658 .475 .731 .974 .804 1.467 .914 1.954 1.06 2.051 .791 2.21 .524 2.429 .256 1.552 .158 .743 .073 0 0" fill="#2c292a"/>
<path transform="matrix(1,0,0,-1,303.746,281.6761)" d="M0 0H-28.756C-30.837 0-32.531 1.694-32.531 3.777V8.159L-35.969 10.154-32.531 12.149V16.531C-32.531 18.614-30.837 20.308-28.756 20.308H0C2.082 20.308 3.775 18.614 3.775 16.531V3.777C3.775 1.694 2.082 0 0 0M-33.625 10.154-31.355 8.836V3.777C-31.355 2.343-30.189 1.176-28.756 1.176H0C1.433 1.176 2.599 2.343 2.599 3.777V16.531C2.599 17.965 1.433 19.132 0 19.132H-28.756C-30.189 19.132-31.355 17.965-31.355 16.531V11.471Z" fill="#2c292a"/>
<path transform="matrix(1,0,0,-1,283.6841,273.4789)" d="M0 0C-.171-.146-.353-.329-.548-.548-.889-.037-1.242 .414-1.607 .804V-1.9C-1.607-2.485-1.595-2.924-1.571-3.216H-2.374C-2.35-2.899-2.338-2.461-2.338-1.9V.658C-2.606 .146-2.862-.28-3.105-.621-3.348-.963-3.665-1.365-4.055-1.827-4.201-1.584-4.408-1.377-4.676-1.206-4.14-.767-3.659-.214-3.233 .457-2.807 1.127-2.533 1.669-2.411 2.083H-3.105C-3.689 2.083-4.116 2.071-4.383 2.047V2.741C-4.091 2.716-3.665 2.704-3.105 2.704H-2.338V4.13C-2.825 4.032-3.348 3.934-3.908 3.837-3.981 4.081-4.079 4.312-4.201 4.532-3.787 4.556-3.214 4.641-2.484 4.788-1.753 4.934-1.059 5.116-.402 5.336-.28 5.043-.122 4.788 .073 4.568-.414 4.495-.974 4.398-1.607 4.276V2.704H-.986C-.475 2.704-.024 2.716 .365 2.741V2.047C-.024 2.071-.463 2.083-.95 2.083H-1.607V1.645C-1.072 1.157-.536 .609 0 0M1.607 2.595V.292C1.607-.219 1.619-.658 1.644-1.023H.84C.864-.585 .877-.146 .877 .292V2.595C.877 2.984 .864 3.374 .84 3.764H1.644C1.619 3.472 1.607 3.082 1.607 2.595M3.288 4.02V-2.375C3.288-2.668 3.172-2.856 2.941-2.942 2.709-3.027 2.301-3.118 1.717-3.216 1.644-2.851 1.558-2.558 1.461-2.339 1.973-2.363 2.283-2.351 2.393-2.302 2.502-2.253 2.557-2.156 2.557-2.01V4.057C2.557 4.398 2.544 4.8 2.521 5.263H3.324C3.3 5.019 3.288 4.605 3.288 4.02" fill="#2c292a"/>
<path transform="matrix(1,0,0,-1,290.3519,271.5786)" d="M0 0C-.219-.219-.402-.427-.548-.621-.986-.207-1.486 .195-2.046 .585-1.875 .731-1.729 .914-1.607 1.133-1.023 .743-.487 .365 0 0M-.548-3.399C-.816-4.154-1.011-4.702-1.132-5.043-1.376-4.848-1.668-4.69-2.009-4.568-1.766-4.3-1.492-3.801-1.187-3.07-.883-2.339-.694-1.815-.621-1.498-.402-1.669-.171-1.815 .073-1.937-.073-2.156-.28-2.644-.548-3.399M.256 2.083C.061 1.961-.159 1.803-.402 1.608-.719 2.047-1.084 2.449-1.498 2.814-1.254 2.936-1.072 3.07-.95 3.216-.463 2.826-.061 2.449 .256 2.083M1.388 1.498C1.364 1.084 1.352 .682 1.352 .292V-3.874C1.352-4.239 1.364-4.665 1.388-5.153H.621C.645-4.641 .658-4.227 .658-3.91V.292C.658 .731 .645 1.133 .621 1.498ZM1.023 3.18C1.217 3.277 1.425 3.399 1.644 3.545 1.936 3.13 2.204 2.704 2.447 2.266 2.204 2.095 1.985 1.961 1.79 1.864 1.546 2.376 1.29 2.814 1.023 3.18M3.982 1.096C4.42 1.096 4.773 1.108 5.041 1.133V.475C4.724 .499 4.322 .512 3.835 .512V-.767C4.201-.767 4.542-.755 4.858-.731V-1.389C4.566-1.34 4.225-1.316 3.835-1.316V-2.668C4.493-2.668 4.943-2.656 5.187-2.631V-3.253C4.943-3.229 4.566-3.216 4.055-3.216H2.849C2.386-3.216 2.021-3.229 1.753-3.253V-2.631C2.094-2.656 2.569-2.668 3.178-2.668V-1.316C2.74-1.316 2.374-1.34 2.082-1.389V-.731C2.35-.755 2.715-.767 3.178-.767V.512C2.764 .512 2.35 .499 1.936 .475V1.133C2.35 1.108 2.764 1.096 3.178 1.096ZM6.429 2.778C6.404 2.388 6.393 1.912 6.393 1.352V-4.312C6.393-4.58 6.295-4.769 6.1-4.879 5.905-4.989 5.54-5.08 5.004-5.153 4.931-4.909 4.785-4.629 4.566-4.312 5.028-4.336 5.333-4.331 5.479-4.294 5.625-4.258 5.698-4.13 5.698-3.91V2.156H4.201C3.884 2.156 3.519 2.144 3.105 2.12V2.814C3.47 2.79 3.835 2.778 4.201 2.778Z" fill="#2c292a"/>
</g>
<path transform="matrix(1,0,0,-1,301.7714,272.6018)" d="M0 0H-1.79V-1.791H-2.411V0H-4.201V.585H-2.411V2.375H-1.79V.585H0Z" fill="#2c292a"/>
<g clip-path="url(#clip_12)">
<path transform="matrix(1,0,0,-1,175.4585,366.7838)" d="M0 0H-42.936C-45.018 0-46.712 1.694-46.712 3.777V16.532C-46.712 18.614-45.018 20.309-42.936 20.309H-23.39L-21.468 23.624-19.546 20.309H0C2.082 20.309 3.776 18.614 3.776 16.532V3.777C3.776 1.694 2.082 0 0 0M-42.936 19.132C-44.369 19.132-45.535 17.965-45.535 16.532V3.777C-45.535 2.343-44.369 1.177-42.936 1.177H0C1.433 1.177 2.599 2.343 2.599 3.777V16.532C2.599 17.965 1.433 19.132 0 19.132H-20.224L-21.468 21.277-22.712 19.132Z" fill="#2c292a"/>
<path transform="matrix(1,0,0,-1,139.5032,357.2218)" d="M0 0C-.244 .049-.463 .097-.657 .146-.487 .78-.353 1.535-.256 2.412-.061 2.388 .158 2.351 .402 2.302 .256 1.279 .122 .512 0 0M1.425 2.96V-2.522C1.425-3.033 1.437-3.545 1.461-4.057H.694C.718-3.545 .731-3.033 .731-2.522V2.96C.731 3.472 .718 3.947 .694 4.386H1.461C1.437 3.898 1.425 3.423 1.425 2.96M2.667 1.243C2.447 1.169 2.252 1.084 2.082 .987 1.911 1.522 1.729 2.022 1.534 2.485 1.729 2.582 1.911 2.668 2.082 2.741 2.277 2.351 2.471 1.851 2.667 1.243M3.762 2.339H4.895V3.106C4.895 3.521 4.882 3.923 4.858 4.312H5.625C5.601 3.923 5.589 3.521 5.589 3.106V2.339H6.319C6.636 2.339 7.013 2.351 7.452 2.376V1.681C7.013 1.705 6.636 1.718 6.319 1.718H5.589V-.219H6.246C6.612-.219 6.977-.207 7.342-.183V-.877C6.977-.853 6.612-.841 6.246-.841H5.589V-3.106H6.575C6.989-3.106 7.391-3.094 7.781-3.07V-3.728C7.391-3.703 6.989-3.691 6.575-3.691H3.762C3.324-3.691 2.898-3.703 2.484-3.728V-3.07C2.898-3.094 3.311-3.106 3.726-3.106H4.895V-.841H4.274C3.957-.841 3.592-.853 3.178-.877V-.183C3.494-.207 3.859-.219 4.274-.219H4.895V1.718H3.616C3.543 1.352 3.348 .816 3.032 .11 2.764 .256 2.544 .341 2.374 .365 2.715 1.072 2.934 1.681 3.032 2.193 3.129 2.704 3.215 3.192 3.288 3.655 3.531 3.582 3.774 3.521 4.018 3.472 3.896 3.033 3.811 2.655 3.762 2.339" fill="#2c292a"/>
<path transform="matrix(1,0,0,-1,150.2987,354.8463)" d="M0 0V-4.861C0-5.518 .012-6.054 .037-6.469H-.694C-.694-6.054-.682-5.518-.658-4.861V-1.169C-.95-1.706-1.218-2.132-1.461-2.449-1.583-2.278-1.79-2.108-2.082-1.937-1.571-1.377-1.132-.719-.767 .037-.402 .791-.159 1.462-.037 2.047 .28 1.9 .56 1.803 .804 1.754 .657 1.51 .389 .926 0 0M3.689 1.352C4.347 .207 5.309-.646 6.575-1.206 6.356-1.401 6.173-1.621 6.027-1.864 5.004-1.279 4.115-.402 3.361 .767 2.727-.378 1.899-1.328 .877-2.083 .755-1.913 .584-1.73 .365-1.535 1.266-.95 1.923-.305 2.338 .402 2.752 1.108 2.995 1.645 3.068 2.01 3.458 1.815 3.738 1.693 3.909 1.645ZM2.447-3.929C2.374-4.892 1.887-5.75 .986-6.505 .84-6.286 .645-6.103 .402-5.957 1.302-5.324 1.784-4.563 1.845-3.673 1.905-2.784 1.923-2.083 1.899-1.571 2.216-1.621 2.471-1.645 2.667-1.645 2.593-2.205 2.52-2.966 2.447-3.929M4.968-2.997V-5.299C4.968-5.665 4.98-6.054 5.004-6.469H4.237C4.261-6.054 4.274-5.652 4.274-5.263V-2.778C4.274-2.51 4.261-2.108 4.237-1.571H5.004C4.98-2.108 4.968-2.583 4.968-2.997" fill="#2c292a"/>
<path transform="matrix(1,0,0,-1,159.1216,354.5174)" d="M0 0V-1.243H.877C1.339-1.243 1.838-1.23 2.374-1.206V-1.973C1.838-1.95 1.339-1.937 .877-1.937H0V-5.153C.389-4.983 .736-4.818 1.041-4.66 1.345-4.501 1.777-4.276 2.338-3.984 2.386-4.3 2.435-4.556 2.484-4.751 1.923-5.019 1.345-5.299 .749-5.592 .152-5.884-.256-6.127-.475-6.323-.646-6.103-.816-5.847-.986-5.555-.865-5.458-.78-5.263-.731-4.97V-.073C-.731 .512-.743 1.011-.767 1.425H.036C.012 1.035 0 .56 0 0M3.653 .146V-1.389C4.797-.853 5.637-.305 6.173 .256 6.368-.013 6.575-.256 6.794-.475 6.502-.646 6.082-.883 5.534-1.188 4.986-1.493 4.359-1.803 3.653-2.12V-5.19C3.653-5.531 3.799-5.701 4.091-5.701H5.479C5.649-5.701 5.777-5.628 5.863-5.482 5.948-5.336 6.039-5.019 6.137-4.532 6.331-4.654 6.612-4.764 6.977-4.861 6.806-5.518 6.624-5.933 6.429-6.103 6.234-6.273 6.027-6.359 5.808-6.359H3.872C3.238-6.359 2.922-6.054 2.922-5.445V0C2.922 .536 2.91 1.072 2.886 1.608H3.689C3.665 1.096 3.653 .609 3.653 .146" fill="#2c292a"/>
</g>
<path transform="matrix(1,0,0,-1,171.0942,357.2583)" d="M0 0H-1.79V-1.791H-2.411V0H-4.201V.585H-2.411V2.376H-1.79V.585H0Z" fill="#2c292a"/>
<g clip-path="url(#clip_13)">
<path transform="matrix(1,0,0,-1,284.8074,367.0254)" d="M0 0H-42.936C-45.018 0-46.712 1.694-46.712 3.777V16.531C-46.712 18.614-45.018 20.309-42.936 20.309H-23.39L-21.468 23.624-19.546 20.309H0C2.082 20.309 3.776 18.614 3.776 16.531V3.777C3.776 1.694 2.082 0 0 0M-42.936 19.132C-44.369 19.132-45.535 17.965-45.535 16.531V3.777C-45.535 2.343-44.369 1.177-42.936 1.177H0C1.433 1.177 2.599 2.343 2.599 3.777V16.531C2.599 17.965 1.433 19.132 0 19.132H-20.224L-21.468 21.277-22.712 19.132Z" fill="#2c292a"/>
<path transform="matrix(1,0,0,-1,255.9546,355.0876)" d="M0 0C.353 .633 .639 1.352 .858 2.156 1.102 2.01 1.357 1.9 1.625 1.827 1.479 1.657 1.297 1.267 1.078 .658V-4.605C1.078-5.043 1.089-5.616 1.114-6.323H.384C.408-5.616 .42-5.043 .42-4.605V-.585C.079-1.169-.225-1.645-.493-2.01-.615-1.815-.798-1.645-1.041-1.498-.7-1.133-.353-.634 0 0M2.246-3.472V0C2.246 .487 2.234 .999 2.21 1.535H7.032C7.007 1.169 6.995 .706 6.995 .146V-5.299C6.995-5.738 6.879-6.012 6.648-6.122 6.416-6.231 6.118-6.31 5.753-6.359 5.631-5.969 5.534-5.701 5.461-5.555 5.85-5.555 6.088-5.537 6.173-5.5 6.258-5.464 6.301-5.348 6.301-5.153V-3.326H4.877V-4.239C4.877-4.8 4.888-5.336 4.913-5.847H4.146C4.17-5.36 4.182-4.837 4.182-4.276V-3.326H2.94C2.891-4.52 2.624-5.555 2.137-6.432 1.966-6.261 1.735-6.14 1.443-6.067 1.905-5.458 2.173-4.593 2.246-3.472M4.182 .914H2.94V-.621H4.182ZM4.182-1.206H2.94V-2.741H4.182ZM6.301 .914H4.8760006V-.621H6.301ZM6.301-1.206H4.8760006V-2.741H6.301ZM6.301-2.741" fill="#2c292a"/>
<path transform="matrix(1,0,0,-1,267.572,360.27723)" d="M0 0C-.171-.098-.341-.232-.512-.402H.621V1.718H-.621C-.962 1.718-1.437 1.705-2.046 1.681V2.376C-1.437 2.351-.974 2.339-.658 2.339H.621V3.472C-.183 3.472-.816 3.459-1.279 3.435V4.02C-1.668 3.728-2.143 3.423-2.703 3.106-2.849 3.326-3.032 3.532-3.251 3.728-2.789 3.898-2.314 4.154-1.826 4.495-1.34 4.836-.865 5.256-.402 5.756 .06 6.255 .438 6.785 .73 7.346 .779 7.297 1.035 7.163 1.498 6.944L1.278 6.725C1.546 6.432 1.875 6.103 2.265 5.738 2.654 5.372 3.117 5.049 3.653 4.769 4.188 4.489 4.749 4.263 5.333 4.093 5.138 3.898 4.98 3.667 4.858 3.399 4.371 3.569 3.872 3.788 3.361 4.057V3.435C2.873 3.459 2.484 3.472 2.192 3.472H1.315V2.339H2.593C3.007 2.339 3.519 2.351 4.128 2.376V1.681C3.543 1.705 3.032 1.718 2.593 1.718H1.315V-.402H2.009C2.569 .572 2.873 1.23 2.922 1.572 3.141 1.425 3.409 1.279 3.726 1.133 3.555 .914 3.226 .402 2.74-.402 3.494-.402 4.225-.389 4.931-.365V-1.06C4.225-1.035 3.653-1.023 3.214-1.023H-1.132C-1.644-1.023-2.143-1.035-2.63-1.06V-.365C-2.119-.389-1.62-.402-1.132-.402H-.694C-.865-.013-1.169 .475-1.607 1.06-1.388 1.206-1.193 1.352-1.023 1.498-.634 .962-.292 .463 0 0M-.146 4.093H2.046C2.411 4.117 2.8 4.13 3.214 4.13 2.8 4.422 2.38 4.769 1.954 5.171 1.528 5.573 1.181 5.944 .913 6.286 .645 5.921 .322 5.549-.055 5.171-.433 4.793-.804 4.446-1.169 4.13-.804 4.105-.463 4.093-.146 4.093" fill="#2c292a"/>
</g>
<path transform="matrix(1,0,0,-1,277.7129,357.4997)" d="M0 0H-1.79V-1.791H-2.411V0H-4.201V.585H-2.411V2.376H-1.79V.585H0Z" fill="#2c292a"/>
<g clip-path="url(#clip_14)">
<path transform="matrix(1,0,0,-1,241.3714,227.58679)" d="M0 0C-5.237 0-9.497 4.263-9.497 9.502-9.497 14.741-5.237 19.004 0 19.004 5.237 19.004 9.497 14.741 9.497 9.502 9.497 4.263 5.237 0 0 0M0 17.827C-4.588 17.827-8.321 14.092-8.321 9.502-8.321 4.911-4.588 1.177 0 1.177 4.588 1.177 8.32 4.911 8.32 9.502 8.32 14.092 4.588 17.827 0 17.827" fill="#f43040"/>
<path transform="matrix(1,0,0,-1,293.5289,227.58679)" d="M0 0C-5.237 0-9.497 4.263-9.497 9.502-9.497 14.741-5.237 19.004 0 19.004 5.237 19.004 9.497 14.741 9.497 9.502 9.497 4.263 5.237 0 0 0M0 17.827C-4.588 17.827-8.321 14.092-8.321 9.502-8.321 4.911-4.588 1.177 0 1.177 4.588 1.177 8.32 4.911 8.32 9.502 8.32 14.092 4.588 17.827 0 17.827" fill="#f43040"/>
</g>
</g>
</g>
</svg>
