<svg xmlns="http://www.w3.org/2000/svg" xmlns:xlink="http://www.w3.org/1999/xlink" xmlns:inkscape="http://www.inkscape.org/namespaces/inkscape" version="1.1" width="411.024" height="595.276" viewBox="0 0 411.024 595.276">
<defs>
<clipPath id="clip_1">
<path transform="matrix(1,0,0,-1,0,595.276)" d="M0 0H411.024V595.276H0Z"/>
</clipPath>
<clipPath id="clip_2">
<path transform="matrix(1,0,0,-1,0,595.276)" d="M0 0H411.024V595.276H0Z"/>
</clipPath>
<path id="font_3_5" d="M.45999146 .19407654C.45999146 .28303529 .4229889 .34100343 .35099793 .36799623 .4149933 .39700318 .44699098 .450943 .44699098 .52586367 .44699098 .64175418 .36698915 .71875 .25099183 .71875 .14299011 .71875 .05899048 .6507416 .050994874 .53585818H.12298584C.12998963 .60879519 .17599488 .6547394 .25099183 .6547394 .31999208 .6547394 .375 .609787 .375 .5248718 .375 .4449463 .33499146 .3959961 .24798584 .3959961H.23298645V.3330078H.24798584C.34498597 .3330078 .3880005 .28103639 .3880005 .19508362 .3880005 .10812378 .32798768 .057159425 .25099183 .057159425 .18299866 .057159425 .11999512 .09213257 .11399841 .18109131H.041992189C.04798889 .05215454 .13899231-.0068359377 .25099183-.0068359377 .36698915-.0068359377 .45999146 .06315613 .45999146 .19407654Z"/>
<path id="font_3_4" d="M.46099855 0V.06399536H.15499878L.4039917 .38186646C.44299317 .43185426 .46099855 .46884156 .46099855 .5258179 .46099855 .6427765 .38198854 .71777346 .2649994 .71777346 .1459961 .71777346 .068984989 .6367645 .068984989 .5248108H.14099121C.14099121 .6167755 .19898987 .6537628 .2649994 .6537628 .34298707 .6537628 .3889923 .6027832 .3889923 .5258179 .3889923 .48683167 .37599183 .45584107 .34899903 .42085267L.067993167 .06399536V0H.46099855Z"/>
<clipPath id="clip_4">
<path transform="matrix(1,0,0,-1,0,595.276)" d="M0 0H411.024V595.276H0Z"/>
</clipPath>
<clipPath id="clip_5">
<path transform="matrix(1,0,0,-1,0,595.276)" d="M0 0H411.024V595.276H0Z"/>
</clipPath>
<clipPath id="clip_6">
<path transform="matrix(1,0,0,-1,0,595.276)" d="M0 0H411.024V595.276H0Z"/>
</clipPath>
<clipPath id="clip_7">
<path transform="matrix(1,0,0,-1,0,595.276)" d="M0 0H411.024V595.276H0Z"/>
</clipPath>
<clipPath id="clip_8">
<path transform="matrix(1,0,0,-1,0,595.276)" d="M0 0H411.024V595.276H0Z"/>
</clipPath>
<clipPath id="clip_9">
<path transform="matrix(1,0,0,-1,0,595.276)" d="M0 0H411.024V595.276H0Z"/>
</clipPath>
<clipPath id="clip_10">
<path transform="matrix(1,0,0,-1,0,595.276)" d="M0 0H411.024V595.276H0Z"/>
</clipPath>
<clipPath id="clip_11">
<path transform="matrix(1,0,0,-1,0,595.276)" d="M0 0H411.024V595.276H0Z"/>
</clipPath>
<clipPath id="clip_12">
<path transform="matrix(1,0,0,-1,0,595.276)" d="M0 0H411.024V595.276H0Z"/>
</clipPath>
<clipPath id="clip_13">
<path transform="matrix(1,0,0,-1,0,595.276)" d="M0 0H411.024V595.276H0Z"/>
</clipPath>
<clipPath id="clip_14">
<path transform="matrix(1,0,0,-1,0,595.276)" d="M0 0H411.024V595.276H0Z"/>
</clipPath>
</defs>
<g clip-path="url(#clip_1)">
<g clip-path="url(#clip_2)">
<use data-text="3" xlink:href="#font_3_5" transform="matrix(9,0,0,-9,363.685,567.547)" fill="#f43040"/>
<use data-text="2" xlink:href="#font_3_4" transform="matrix(9,0,0,-9,367.285,567.547)" fill="#f43040"/>
<use data-text="3" xlink:href="#font_3_5" transform="matrix(9,0,0,-9,370.885,567.547)" fill="#f43040"/>
<g clip-path="url(#clip_4)">
<path transform="matrix(1,0,0,-1,157.096,196.85889)" d="M0 0C.036 1.276 .045 2.133 .027 2.571 .009 3.009-.019 3.427-.055 3.829 .383 3.756 .875 3.701 1.422 3.665 1.312 3.3 1.23 2.771 1.176 2.079 1.121 1.385 1.093 .692 1.093 0H3.882C4.866 0 5.777 .036 6.616 .109V-1.094C5.886-1.058 5.139-1.039 4.374-1.039H1.148C1.293-1.66 1.549-2.289 1.914-2.927 2.278-3.565 2.652-4.13 3.034-4.622 3.417-5.115 3.945-5.634 4.62-6.181 5.294-6.728 6.032-7.185 6.834-7.549 6.542-7.768 6.251-8.132 5.96-8.643 5.304-8.278 4.656-7.822 4.019-7.275 3.38-6.728 2.742-6.009 2.105-5.115 1.467-4.221 .984-3.392 .656-2.626 .364-3.428 .055-4.094-.273-4.622-.601-5.151-.957-5.634-1.339-6.072-1.722-6.509-2.214-6.947-2.816-7.385-3.417-7.822-4.101-8.26-4.866-8.698-5.158-8.26-5.486-7.877-5.85-7.549-5.085-7.294-4.329-6.929-3.581-6.455-2.834-5.981-2.224-5.443-1.75-4.841-1.276-4.239-.893-3.61-.601-2.954-.31-2.297-.128-1.66-.055-1.039H-3.062C-3.937-1.039-4.629-1.058-5.139-1.094V.109C-4.629 .073-3.937 .036-3.062 0Z" fill="#2c292a"/>
<path transform="matrix(1,0,0,-1,177.4744,194.39731)" d="M0 0C-.547 .036-1.276 .055-2.187 .055H-10.279V-10.065H-1.367C-.638-10.065-.055-10.046 .383-10.01V-10.995C-.091-10.958-.711-10.94-1.476-10.94H-11.427C-11.391-10.065-11.372-9.427-11.372-9.026V-.711C-11.372-.091-11.391 .474-11.427 .985H0ZM-4.483-3.993C-3.645-3.009-3.026-2.024-2.624-1.039-2.224-1.295-1.75-1.55-1.203-1.805-1.604-2.061-1.95-2.407-2.242-2.844-2.534-3.282-2.971-3.903-3.554-4.704-2.315-5.726-1.312-6.728-.547-7.713-.984-8.005-1.294-8.315-1.476-8.643-2.06-7.768-3.026-6.765-4.374-5.634-4.921-6.255-5.477-6.82-6.042-7.33-6.607-7.841-7.308-8.406-8.147-9.026-8.475-8.698-8.839-8.424-9.24-8.205-8.511-7.877-7.855-7.486-7.272-7.029-6.689-6.574-5.996-5.853-5.194-4.868-6.106-4.03-7.236-3.191-8.584-2.352-8.22-2.061-7.965-1.75-7.818-1.422-6.543-2.297-5.432-3.155-4.483-3.993" fill="#2c292a"/>
</g>
<path transform="matrix(1,0,0,-1,185.2662,204.02481)" d="M0 0H-1.422L-3.937 4.65-4.811 3.501V0H-6.069V9.354H-4.811V5.306L-1.695 9.354H-.219L-3.116 5.689Z" fill="#2c292a"/>
<g clip-path="url(#clip_5)">
<path transform="matrix(1,0,0,-1,192.0179,197.51529)" d="M0 0C0-.875-.255-1.568-.766-2.079-1.276-2.59-1.987-2.844-2.898-2.844H-4.483V-6.509H-5.741V2.844H-2.898C-1.987 2.844-1.276 2.589-.766 2.079-.255 1.568 0 .875 0 0M-1.258 0C-1.258 .692-1.422 1.167-1.75 1.422-2.078 1.677-2.57 1.805-3.226 1.805H-4.483V-1.805H-3.226C-2.57-1.805-2.078-1.678-1.75-1.422-1.422-1.168-1.258-.693-1.258 0" fill="#2c292a"/>
</g>
<path transform="matrix(1,0,0,-1,0,595.276)" d="M196.582 391.251H195.324V400.605H196.582Z" fill="#2c292a"/>
<g clip-path="url(#clip_6)">
<path transform="matrix(1,0,0,-1,208.5989,196.9136)" d="M0 0C.547 .547 1.02 1.149 1.422 1.805 1.822 2.462 2.15 3.136 2.406 3.829 2.916 3.537 3.316 3.337 3.609 3.227 3.134 2.571 2.824 2.097 2.679 1.805 3.59 1.805 4.355 1.823 4.975 1.86V.821C4.355 .856 3.408 .875 2.132 .875 1.586 .145 1.166-.365 .875-.656 .619-.365 .328-.146 0 0M4.647-1.477C4.173-1.441 3.699-1.422 3.226-1.422V-3.063C3.845-3.063 4.501-3.045 5.194-3.009V-3.993C4.501-3.957 3.845-3.938 3.226-3.938V-6.455C3.554-6.236 3.955-5.872 4.429-5.361 4.538-5.689 4.72-6.017 4.975-6.345 4.611-6.601 4.228-6.884 3.827-7.193 3.426-7.503 3.007-7.895 2.57-8.369 2.387-8.041 2.15-7.749 1.859-7.494 2.078-7.275 2.205-6.947 2.242-6.509V-3.938C1.804-3.938 1.275-3.957 .656-3.993V-3.009C1.275-3.045 1.804-3.063 2.242-3.063V-1.422C1.804-1.422 1.44-1.441 1.148-1.477V-.492C1.621-.529 2.168-.547 2.788-.547 3.444-.547 4.064-.529 4.647-.492ZM7.818 .93C7.49 .784 7.162 .602 6.834 .383 6.579 .966 6.159 1.677 5.577 2.516 5.941 2.662 6.251 2.844 6.506 3.063 7.089 2.151 7.526 1.44 7.818 .93M8.639 2.079C8.639 2.626 8.62 3.209 8.584 3.829H9.677C9.641 3.427 9.623 2.844 9.623 2.079V-.328H12.247C12.21-.875 12.192-1.605 12.192-2.516V-7.275C12.192-7.786 12.019-8.096 11.673-8.205 11.326-8.315 10.862-8.424 10.279-8.533 10.205-8.168 10.041-7.804 9.787-7.439 10.625-7.403 11.062-7.303 11.099-7.139 11.135-6.974 11.154-6.455 11.154-5.58H7.326V-8.369H6.288C6.323-7.603 6.342-6.984 6.342-6.509V-2.626C6.342-1.715 6.323-.949 6.288-.328H8.639ZM11.154-1.149H7.3270008V-2.571H11.154ZM11.154-3.391H7.3270008V-4.759H11.154ZM11.427 .328C11.099 .51 10.752 .656 10.388 .766 10.789 1.239 11.189 2.005 11.591 3.063 11.882 2.88 12.265 2.716 12.739 2.571 12.447 2.206 12.01 1.458 11.427 .328" fill="#2c292a"/>
<path transform="matrix(1,0,0,-1,226.2981,194.61609)" d="M0 0H6.506C7.126 0 7.745 .018 8.365 .055V-.821C7.745-.785 7.126-.766 6.506-.766H3.991V-1.696H5.905C6.524-1.696 7.108-1.678 7.655-1.641V-2.626C7.144-2.553 6.579-2.516 5.959-2.516H3.991V-3.446H7.709V-4.376C7.198-4.34 6.633-4.321 6.014-4.321H3.991V-5.361H6.288C7.016-5.361 7.8-5.343 8.639-5.306V-6.291C7.836-6.218 7.053-6.181 6.288-6.181H-.328V-6.674H-1.476C-1.44-5.798-1.422-4.321-1.422-2.243-1.896-3.045-2.333-3.647-2.734-4.048-2.989-3.72-3.245-3.483-3.499-3.337-3.099-2.863-2.743-2.398-2.433-1.942-2.124-1.486-1.786-.976-1.422-.41-1.058 .155-.747 .875-.492 1.75-.019 1.495 .419 1.276 .82 1.094 .637 .948 .364 .583 0 0M7.381-9.08C7.381-9.846 7.399-10.521 7.436-11.104H6.288V-10.503H-.492V-11.159H-1.64C-1.568-10.539-1.531-9.846-1.531-9.08-1.531-8.315-1.568-7.658-1.64-7.111H7.436C7.399-7.658 7.381-8.315 7.381-9.08M6.288-7.986H-.4920001V-9.627H6.288ZM2.898-.766H-.32800008V-1.696H2.898ZM2.898-2.516H-.32800008V-3.446H2.898ZM2.898-4.321H-.32800008V-5.36H2.898ZM4.374 .547C4.155 .474 3.827 .346 3.39 .164 3.28 .456 3.043 .875 2.679 1.422 3.007 1.532 3.316 1.677 3.608 1.86 3.972 1.276 4.228 .838 4.374 .547" fill="#2c292a"/>
<path transform="matrix(1,0,0,-1,247.6606,196.58539)" d="M0 0V-6.4C0-6.947 .018-7.786 .055-8.916H-1.148V-7.932H-8.256V-8.862H-9.404C-9.368-7.877-9.349-7.093-9.349-6.509V0C-9.349 1.203-9.368 2.206-9.404 3.009H.055C.018 1.95 0 .948 0 0M-1.148 2.133H-8.256V-.27400018H-1.148ZM-1.148-1.149H-8.256V-3.611H-1.148ZM-1.148-4.486H-8.256V-7.057H-1.148ZM-1.148-7.057" fill="#2c292a"/>
<path transform="matrix(1,0,0,-1,252.6754,194.6708)" d="M0 0C0 .583-.019 1.149-.055 1.696H1.039C1.002 1.185 .984 .62 .984 0V-1.313C1.567-1.313 2.187-1.295 2.843-1.258V-2.297C2.187-2.262 1.567-2.243 .984-2.243V-4.103C1.239-3.921 1.494-3.72 1.75-3.501 2.223-4.267 2.642-5.015 3.007-5.744 2.605-5.927 2.26-6.127 1.968-6.345 1.75-5.616 1.422-4.942 .984-4.321V-8.588C.984-9.354 1.002-10.12 1.039-10.886H-.055C-.019-10.083 0-9.318 0-8.588V-5.033C-.365-6.054-.93-7.039-1.695-7.986-1.914-7.695-2.187-7.421-2.515-7.166-1.896-6.546-1.394-5.771-1.012-4.841-.629-3.911-.383-3.045-.273-2.243-.966-2.243-1.568-2.28-2.078-2.352V-1.258C-1.386-1.295-.693-1.313 0-1.313ZM4.265-7.494C3.863-8.443 3.554-9.117 3.335-9.518 3.007-9.336 2.642-9.172 2.242-9.026 2.715-8.297 3.07-7.631 3.308-7.029 3.544-6.427 3.736-5.835 3.882-5.251 4.282-5.434 4.683-5.598 5.085-5.744 4.939-5.962 4.665-6.546 4.265-7.494M8.529-2.79C9.258-2.79 9.896-2.772 10.443-2.735V-3.774C9.896-3.738 9.331-3.72 8.748-3.72H7.053V-9.245C7.053-9.828 6.889-10.21 6.561-10.393 6.233-10.575 5.65-10.721 4.811-10.831 4.738-10.393 4.593-9.974 4.374-9.573 5.103-9.573 5.558-9.545 5.741-9.491 5.923-9.436 6.014-9.227 6.014-8.862V-3.72H4.647C3.736-3.72 3.08-3.756 2.679-3.829V-2.735C3.152-2.772 3.808-2.79 4.647-2.79ZM7.928 .82C8.693 .82 9.313 .838 9.787 .875V-.219C9.094-.146 8.365-.109 7.6-.109H4.921C4.337-.109 3.773-.146 3.226-.219V.875C3.736 .838 4.301 .82 4.921 .82ZM10.771-8.533C10.369-8.716 9.969-8.935 9.568-9.19 9.166-8.133 8.565-7.021 7.764-5.853 8.128-5.671 8.456-5.452 8.748-5.197 9.549-6.437 10.224-7.549 10.771-8.533" fill="#2c292a"/>
<path transform="matrix(1,0,0,-1,266.8435,196.4213)" d="M0 0C-.474-.474-1.076-.93-1.804-1.368V-.328C-.894 .292-.146 1.021 .438 1.86H1.094V-7.549H0Z" fill="#2c292a"/>
<path transform="matrix(1,0,0,-1,271.2441,198.74521)" d="M0 0C.036 .966 .172 1.731 .41 2.297 .647 2.862 .984 3.327 1.422 3.692 1.859 4.056 2.396 4.238 3.035 4.238 3.672 4.238 4.228 3.974 4.702 3.445 5.175 2.917 5.485 2.251 5.631 1.449 5.777 .647 5.823-.273 5.768-1.313 5.714-2.352 5.531-3.199 5.221-3.856 4.911-4.512 4.447-4.968 3.827-5.223 3.207-5.478 2.588-5.451 1.968-5.141 1.348-4.832 .911-4.421 .656-3.91 .401-3.4 .219-2.863 .109-2.297 0-1.732-.037-.966 0 0M1.148 .328C1.039-.675 1.075-1.568 1.257-2.352 1.439-3.136 1.74-3.692 2.16-4.02 2.578-4.348 3.007-4.412 3.445-4.211 3.882-4.011 4.2-3.61 4.401-3.008 4.601-2.406 4.702-1.75 4.702-1.039 4.702-.328 4.675 .319 4.62 .902 4.565 1.485 4.401 2.014 4.128 2.488 3.855 2.962 3.49 3.208 3.035 3.227 2.578 3.245 2.178 3.017 1.832 2.543 1.485 2.069 1.257 1.331 1.148 .328" fill="#2c292a"/>
<path transform="matrix(1,0,0,-1,278.2147,198.74521)" d="M0 0C.036 .966 .172 1.731 .41 2.297 .647 2.862 .984 3.327 1.422 3.692 1.859 4.056 2.396 4.238 3.035 4.238 3.672 4.238 4.228 3.974 4.702 3.445 5.175 2.917 5.485 2.251 5.631 1.449 5.777 .647 5.823-.273 5.768-1.313 5.714-2.352 5.531-3.199 5.221-3.856 4.911-4.512 4.447-4.968 3.827-5.223 3.207-5.478 2.588-5.451 1.968-5.141 1.348-4.832 .911-4.421 .656-3.91 .401-3.4 .219-2.863 .109-2.297 0-1.732-.037-.966 0 0M1.148 .328C1.039-.675 1.075-1.568 1.257-2.352 1.439-3.136 1.74-3.692 2.16-4.02 2.578-4.348 3.007-4.412 3.445-4.211 3.882-4.011 4.2-3.61 4.401-3.008 4.601-2.406 4.702-1.75 4.702-1.039 4.702-.328 4.675 .319 4.62 .902 4.565 1.485 4.401 2.014 4.128 2.488 3.855 2.962 3.49 3.208 3.035 3.227 2.578 3.245 2.178 3.017 1.832 2.543 1.485 2.069 1.257 1.331 1.148 .328" fill="#2c292a"/>
<path transform="matrix(1,0,0,-1,285.1849,198.74521)" d="M0 0C.036 .966 .172 1.731 .41 2.297 .647 2.862 .984 3.327 1.422 3.692 1.859 4.056 2.396 4.238 3.035 4.238 3.672 4.238 4.228 3.974 4.702 3.445 5.175 2.917 5.485 2.251 5.631 1.449 5.777 .647 5.823-.273 5.768-1.313 5.714-2.352 5.531-3.199 5.221-3.856 4.911-4.512 4.447-4.968 3.827-5.223 3.207-5.478 2.588-5.451 1.968-5.141 1.348-4.832 .911-4.421 .656-3.91 .401-3.4 .219-2.863 .109-2.297 0-1.732-.037-.966 0 0M1.148 .328C1.039-.675 1.075-1.568 1.257-2.352 1.439-3.136 1.74-3.692 2.16-4.02 2.578-4.348 3.007-4.412 3.445-4.211 3.882-4.011 4.2-3.61 4.401-3.008 4.601-2.406 4.702-1.75 4.702-1.039 4.702-.328 4.675 .319 4.62 .902 4.565 1.485 4.401 2.014 4.128 2.488 3.855 2.962 3.49 3.208 3.035 3.227 2.578 3.245 2.178 3.017 1.832 2.543 1.485 2.069 1.257 1.331 1.148 .328" fill="#2c292a"/>
<path transform="matrix(1,0,0,-1,299.0504,204.24359)" d="M0 0C.766-.037 1.303-.019 1.613 .055 1.922 .127 2.114 .255 2.187 .438 2.26 .62 2.324 1.048 2.378 1.723 2.433 2.397 2.515 3.72 2.625 5.689H-1.585C-2.06 2.662-3.354 .309-5.467-1.368-5.795-.966-6.16-.711-6.561-.602-5.504 .055-4.557 1.139-3.718 2.653-2.88 4.166-2.46 6.363-2.46 9.245H-4.101C-4.903 9.245-5.613 9.226-6.233 9.19V10.229C-5.65 10.192-4.921 10.174-4.046 10.174H3.39C4.191 10.174 4.921 10.192 5.577 10.229V9.19C4.921 9.226 4.191 9.245 3.39 9.245H-1.312C-1.349 8.333-1.403 7.475-1.476 6.674H3.827C3.609 3.318 3.462 1.285 3.39 .574 3.316-.137 3.025-.602 2.515-.821 2.004-1.039 1.348-1.185 .547-1.258 .401-.711 .219-.292 0 0" fill="#2c292a"/>
<path transform="matrix(1,0,0,-1,123.8047,261.2393)" d="M0 0C-.54-.18-1.024-.402-1.449-.663-1.58-.238-1.711 .139-1.842 .467-1.515 .467-1.04 .565-.417 .762V4.742C-.876 4.742-1.301 4.725-1.694 4.693V5.577C-1.301 5.544-.876 5.528-.417 5.528V7.297C-.417 7.657-.434 8.083-.467 8.575H.516C.483 8.149 .467 7.722 .467 7.297V5.528C.86 5.528 1.252 5.544 1.645 5.577V4.693C1.252 4.725 .86 4.742 .467 4.742V1.056C.827 1.122 1.219 1.236 1.645 1.4 1.612 1.073 1.596 .778 1.596 .516 1.072 .352 .54 .18 0 0M9.062 4.447C8.897 3.988 8.758 3.496 8.644 2.973 8.529 2.448 8.382 1.908 8.202 1.351 8.022 .794 7.85 .369 7.686 .074 8.013-.516 8.292-.877 8.521-1.007 8.75-1.139 8.914-.779 9.013 .074 9.307-.221 9.602-.435 9.897-.565 9.765-1.123 9.594-1.597 9.381-1.99 9.168-2.383 8.906-2.498 8.595-2.334 8.283-2.17 7.997-1.933 7.736-1.622 7.473-1.31 7.244-.991 7.048-.663 6.786-.991 6.483-1.318 6.139-1.646 5.796-1.973 5.41-2.268 4.985-2.531 4.756-2.203 4.494-1.941 4.199-1.744 4.723-1.482 5.173-1.196 5.55-.885 5.926-.574 6.262-.205 6.557 .221 6.262 1.007 6.049 1.949 5.918 3.047 5.787 4.144 5.705 5.102 5.673 5.921H3.119V4.152H5.231C5.198 3.693 5.182 3.169 5.182 2.58L5.132 .565C5.132-.025 4.977-.41 4.666-.59 4.354-.77 3.954-.909 3.463-1.007 3.397-.582 3.282-.205 3.119 .123 3.675 .123 4.011 .172 4.126 .27 4.24 .369 4.298 .548 4.298 .811L4.347 3.317H3.119C3.119 2.825 3.094 2.276 3.045 1.671 2.996 1.064 2.832 .425 2.554-.246 2.275-.918 1.825-1.613 1.203-2.334 .974-2.138 .663-1.957 .27-1.794 .925-1.139 1.391-.5 1.67 .123 1.948 .745 2.112 1.343 2.161 1.916 2.21 2.489 2.235 3.251 2.235 4.201 2.235 5.184 2.218 6.036 2.186 6.757H5.624C5.624 7.378 5.591 8.115 5.525 8.968 5.885 8.902 6.245 8.87 6.606 8.87 6.508 8.312 6.475 7.608 6.508 6.757H7.244C7.964 6.757 8.669 6.773 9.356 6.806V5.872C8.669 5.904 7.964 5.921 7.244 5.921H6.557C6.589 5.2 6.647 4.43 6.729 3.612 6.81 2.792 6.966 1.957 7.195 1.106 7.392 1.597 7.555 2.17 7.686 2.825 7.817 3.48 7.915 4.152 7.981 4.84 8.276 4.709 8.636 4.578 9.062 4.447M9.062 7.444C8.701 7.28 8.423 7.101 8.227 6.904 7.932 7.428 7.588 7.936 7.195 8.427 7.457 8.558 7.719 8.722 7.981 8.919 8.472 8.329 8.832 7.838 9.062 7.444" fill="#2c292a"/>
<path transform="matrix(1,0,0,-1,143.5015,254.2862)" d="M0 0C.786 0 1.637 .016 2.554 .049V-.934C1.637-.901 .786-.884 0-.884H-2.554V-2.555H1.228C1.195-3.145 1.179-3.751 1.179-4.373V-6.781C1.179-7.339 .99-7.715 .614-7.911 .237-8.108-.295-8.239-.982-8.304-1.048-7.911-1.196-7.518-1.424-7.125-.737-7.125-.303-7.109-.123-7.076 .057-7.044 .147-6.879 .147-6.585V-3.44H-2.554V-7.322C-2.554-8.141-2.538-8.845-2.505-9.435H-3.634C-3.602-8.845-3.585-8.141-3.585-7.322V-3.44H-6.336V-8.255H-7.416C-7.384-7.732-7.367-7.109-7.367-6.388V-4.57C-7.367-3.817-7.384-3.145-7.416-2.555H-3.585V-.884H-6.139C-6.991-.884-7.842-.901-8.693-.934V.049C-7.842 .016-6.991 0-6.139 0ZM-2.308 .54C-2.669 .376-2.964 .213-3.192 .049-3.487 .573-3.864 1.081-4.322 1.572-4.06 1.769-3.799 1.949-3.536 2.113-3.143 1.72-2.734 1.195-2.308 .54" fill="#2c292a"/>
<path transform="matrix(1,0,0,-1,150.0599,254.3353)" d="M0 0C-.295-.491-.77-1.228-1.424-2.211-1.196-2.211-.557-2.179 .491-2.113 .851-1.589 1.162-1.049 1.424-.491 1.686-.754 1.997-.951 2.357-1.081 2.03-1.474 1.637-1.982 1.179-2.604 .72-3.227 .032-4.095-.884-5.209 .393-5.045 1.309-4.898 1.866-4.766 1.833-4.963 1.817-5.242 1.817-5.602 1.523-5.668 .982-5.749 .196-5.847-.589-5.946-1.326-6.077-2.014-6.241-2.047-6.012-2.161-5.717-2.357-5.356-1.997-5.193-1.629-4.898-1.252-4.472-.876-4.046-.475-3.522-.049-2.899-.41-2.899-.794-2.924-1.203-2.973-1.613-3.022-1.948-3.08-2.21-3.145-2.276-2.916-2.407-2.621-2.603-2.26-2.243-2.032-1.834-1.523-1.375-.737-.917 .049-.54 .852-.246 1.671-.017 1.474 .311 1.294 .737 1.13 .54 .868 .295 .491 0 0M2.014-7.764C1.424-7.862 .744-7.993-.025-8.157-.794-8.32-1.49-8.484-2.112-8.648-2.276-8.255-2.423-7.911-2.554-7.616-1.638-7.518-.95-7.428-.491-7.346-.033-7.265 .786-7.125 1.965-6.929 1.965-7.125 1.981-7.404 2.014-7.764M7.564 .934C7.399 .606 7.187 .246 6.925-.147 6.663-.541 6.319-.983 5.894-1.474 7.334-2.425 8.283-3.047 8.742-3.341 8.48-3.604 8.234-3.882 8.006-4.177 7.58-3.751 6.712-3.047 5.403-2.064 4.977-2.457 4.543-2.809 4.101-3.12 3.659-3.432 3.061-3.817 2.308-4.275 2.112-3.948 1.882-3.669 1.621-3.44 2.177-3.243 2.677-3.014 3.119-2.752 3.561-2.49 4.077-2.081 4.666-1.523 5.255-.967 5.729-.41 6.09 .147H3.978C3.389 .147 2.832 .13 2.308 .098V.983C2.832 .95 3.389 .934 3.978 .934ZM6.434-4.521C6.957-4.521 7.449-4.505 7.907-4.472V-5.356C7.482-5.324 7.007-5.307 6.483-5.307H5.697V-8.206H7.122C7.58-8.206 8.071-8.19 8.595-8.157V-9.041C8.071-9.008 7.58-8.992 7.122-8.992H3.291C2.865-8.992 2.308-9.008 1.621-9.041V-8.157C2.308-8.19 2.865-8.206 3.291-8.206H4.764V-5.307H4.077C3.519-5.307 2.979-5.324 2.456-5.356V-4.472C2.979-4.505 3.519-4.521 4.077-4.521Z" fill="#2c292a"/>
<path transform="matrix(1,0,0,-1,162.9052,253.6474)" d="M0 0C.36 0 .753 .016 1.179 .049V-.884C.72-.852 .327-.835 0-.835H-.442V-3.489C.016-3.489 .474-3.473 .933-3.44V-4.373C.474-4.341 .016-4.324-.442-4.324V-7.469C.18-7.24 .704-7.027 1.13-6.83 1.195-7.158 1.26-7.437 1.326-7.666 .704-7.862 .008-8.116-.761-8.427-1.531-8.739-2.129-9.025-2.554-9.287-2.685-8.959-2.832-8.616-2.996-8.255-2.571-8.19-2.014-8.01-1.326-7.715V-4.324C-1.915-4.324-2.423-4.341-2.849-4.373V-3.44C-2.39-3.473-1.883-3.489-1.326-3.489V-.835H-1.915C-2.21-.835-2.571-.852-2.996-.884V.049C-2.571 .016-2.21 0-1.915 0ZM7.957-2.162C7.957-3.571 7.973-4.587 8.006-5.209H5.304V-6.683H6.778C7.367-6.683 7.825-6.667 8.153-6.634V-7.518C7.792-7.486 7.334-7.469 6.778-7.469H5.304V-9.14H7.073C7.694-9.14 8.218-9.123 8.644-9.091V-9.975C8.218-9.942 7.711-9.926 7.122-9.926H2.357C1.833-9.926 1.375-9.942 .982-9.975V-9.091C1.408-9.123 1.866-9.14 2.357-9.14H4.371V-7.469H2.75C2.325-7.469 1.948-7.486 1.621-7.518V-6.634C1.948-6.667 2.325-6.683 2.75-6.683H4.371V-5.209H1.719C1.751-4.717 1.768-3.718 1.768-2.211 1.768-.705 1.751 .246 1.719 .639H8.006C7.973 .213 7.957-.721 7.957-2.162M4.371-.147H2.7009998V-1.916H4.371ZM4.371-2.653H2.7009998V-4.422H4.371ZM7.023-.147H5.304V-1.916H7.023ZM7.023-2.653H5.304V-4.422H7.023ZM7.023-4.422" fill="#2c292a"/>
<path transform="matrix(1,0,0,-1,174.8748,255.46552)" d="M0 0C-.426-.426-.966-.835-1.621-1.228V-.295C-.803 .262-.131 .917 .393 1.671H.982V-6.781H0Z" fill="#2c292a"/>
<path transform="matrix(1,0,0,-1,178.8909,257.5531)" d="M0 0C.032 .867 .155 1.555 .368 2.063 .581 2.571 .884 2.988 1.277 3.316 1.67 3.643 2.153 3.807 2.726 3.807 3.298 3.807 3.798 3.569 4.224 3.095 4.649 2.62 4.927 2.022 5.059 1.302 5.189 .581 5.231-.246 5.182-1.179 5.132-2.113 4.968-2.874 4.69-3.464 4.412-4.053 3.994-4.463 3.438-4.692 2.881-4.921 2.324-4.897 1.768-4.618 1.211-4.34 .818-3.972 .589-3.513 .36-3.054 .196-2.572 .098-2.063 0-1.556-.033-.868 0 0M1.031 .295C.933-.606 .965-1.409 1.13-2.113 1.293-2.817 1.563-3.316 1.94-3.611 2.316-3.906 2.701-3.963 3.094-3.783 3.487-3.603 3.773-3.242 3.954-2.702 4.133-2.162 4.224-1.572 4.224-.933 4.224-.295 4.199 .286 4.15 .811 4.101 1.334 3.954 1.809 3.708 2.235 3.463 2.661 3.135 2.882 2.726 2.899 2.316 2.915 1.956 2.71 1.645 2.284 1.334 1.858 1.13 1.195 1.031 .295" fill="#2c292a"/>
<path transform="matrix(1,0,0,-1,185.2153,257.5531)" d="M0 0C.032 .867 .155 1.555 .368 2.063 .581 2.571 .884 2.988 1.277 3.316 1.67 3.643 2.153 3.807 2.726 3.807 3.298 3.807 3.798 3.569 4.224 3.095 4.649 2.62 4.927 2.022 5.059 1.302 5.189 .581 5.231-.246 5.182-1.179 5.132-2.113 4.968-2.874 4.69-3.464 4.412-4.053 3.994-4.463 3.438-4.692 2.881-4.921 2.324-4.897 1.768-4.618 1.211-4.34 .818-3.972 .589-3.513 .36-3.054 .196-2.572 .098-2.063 0-1.556-.033-.868 0 0M1.031 .295C.933-.606 .965-1.409 1.13-2.113 1.293-2.817 1.563-3.316 1.94-3.611 2.316-3.906 2.701-3.963 3.094-3.783 3.487-3.603 3.773-3.242 3.954-2.702 4.133-2.162 4.224-1.572 4.224-.933 4.224-.295 4.199 .286 4.15 .811 4.101 1.334 3.954 1.809 3.708 2.235 3.463 2.661 3.135 2.882 2.726 2.899 2.316 2.915 1.956 2.71 1.645 2.284 1.334 1.858 1.13 1.195 1.031 .295" fill="#2c292a"/>
<path transform="matrix(1,0,0,-1,197.7827,262.4923)" d="M0 0C.688-.033 1.17-.017 1.449 .049 1.727 .114 1.899 .229 1.965 .393 2.03 .557 2.087 .941 2.136 1.548 2.186 2.154 2.259 3.341 2.357 5.11H-1.424C-1.85 2.391-3.013 .278-4.911-1.228-5.206-.868-5.534-.639-5.894-.541-4.944 .049-4.093 1.023-3.34 2.383-2.587 3.742-2.21 5.716-2.21 8.304H-3.684C-4.404 8.304-5.043 8.287-5.599 8.255V9.189C-5.076 9.156-4.42 9.14-3.635 9.14H3.045C3.765 9.14 4.42 9.156 5.01 9.189V8.255C4.42 8.287 3.765 8.304 3.045 8.304H-1.179C-1.212 7.485-1.261 6.715-1.326 5.995H3.438C3.242 2.981 3.11 1.155 3.045 .516 2.979-.123 2.717-.541 2.259-.737 1.8-.934 1.211-1.064 .491-1.13 .36-.639 .196-.262 0 0" fill="#2c292a"/>
</g>
<path transform="matrix(1,0,0,-1,209.7996,257.9224)" d="M0 0-.491-.884-2.505 .393-2.407-2.113H-3.389L-3.291 .393-5.304-.884-5.795 0-3.684 1.081-5.795 2.162-5.304 3.047-3.291 1.769-3.389 4.128H-2.407L-2.505 1.769-.491 3.047 0 2.162-2.112 1.081Z" fill="#2c292a"/>
<g clip-path="url(#clip_7)">
<path transform="matrix(1,0,0,-1,212.832,255.46552)" d="M0 0C-.426-.426-.966-.835-1.621-1.228V-.295C-.803 .262-.131 .917 .393 1.671H.982V-6.781H0Z" fill="#2c292a"/>
<path transform="matrix(1,0,0,-1,216.8481,257.5531)" d="M0 0C.032 .867 .155 1.555 .368 2.063 .581 2.571 .884 2.988 1.277 3.316 1.67 3.643 2.153 3.807 2.726 3.807 3.298 3.807 3.798 3.569 4.224 3.095 4.649 2.62 4.928 2.022 5.059 1.302 5.189 .581 5.231-.246 5.182-1.179 5.133-2.113 4.968-2.874 4.69-3.464 4.412-4.053 3.995-4.463 3.438-4.692 2.881-4.921 2.325-4.897 1.768-4.618 1.211-4.34 .818-3.972 .59-3.513 .36-3.054 .196-2.572 .098-2.063 0-1.556-.033-.868 0 0M1.031 .295C.933-.606 .966-1.409 1.13-2.113 1.293-2.817 1.563-3.316 1.94-3.611 2.316-3.906 2.701-3.963 3.094-3.783 3.487-3.603 3.773-3.242 3.954-2.702 4.133-2.162 4.224-1.572 4.224-.933 4.224-.295 4.199 .286 4.15 .811 4.101 1.334 3.954 1.809 3.708 2.235 3.463 2.661 3.135 2.882 2.726 2.899 2.316 2.915 1.956 2.71 1.646 2.284 1.334 1.858 1.13 1.195 1.031 .295" fill="#2c292a"/>
<path transform="matrix(1,0,0,-1,275.7974,262.00093)" d="M0 0C0-.491 .032-1.081 .098-1.769H-.933V-1.032H-5.992V-1.818H-7.023C-6.991-1.13-6.974-.557-6.974-.098V1.032C-6.974 1.228-6.991 1.523-7.023 1.916-7.253 1.818-7.956 1.589-9.135 1.228-9.234 1.622-9.398 1.998-9.627 2.359-8.448 2.522-7.466 2.703-6.68 2.899-5.894 3.096-5.157 3.374-4.47 3.735-4.862 3.931-5.452 4.356-6.238 5.012-6.63 4.619-7.072 4.226-7.564 3.833-7.793 4.16-8.072 4.406-8.399 4.57-7.711 4.995-7.114 5.479-6.606 6.019-6.099 6.56-5.73 7.108-5.501 7.666-5.076 7.469-4.65 7.305-4.224 7.174-4.42 7.043-4.65 6.83-4.912 6.535H-.197C-.557 5.978-.901 5.511-1.228 5.135-1.556 4.758-2.063 4.291-2.751 3.735-2.292 3.538-1.678 3.341-.909 3.145-.14 2.948 .851 2.817 2.063 2.752 1.833 2.359 1.686 1.949 1.621 1.523 .998 1.687 .491 1.818 .098 1.916 .032 1.589 0 1.245 0 .884ZM1.621 8.698C1.588 8.14 1.572 7.731 1.572 7.469 1.572 7.239 1.588 6.879 1.621 6.388H.589V7.813H-8.006V6.339H-9.086C-9.054 6.666-9.037 6.978-9.037 7.273-9.037 7.567-9.054 8.042-9.086 8.698H-4.126C-4.224 9.025-4.355 9.336-4.519 9.631-4.028 9.729-3.635 9.811-3.34 9.877-3.111 9.221-2.98 8.828-2.947 8.698ZM-6.925 1.916H0C-1.015 2.145-1.777 2.359-2.284 2.555-2.792 2.752-3.258 2.931-3.684 3.096-4.241 2.833-4.781 2.604-5.304 2.408-5.828 2.211-6.369 2.047-6.925 1.916M-.933 1.13H-5.992V-.29499997H-.933ZM-5.648 5.602C-4.83 4.914-4.126 4.455-3.536 4.226-2.915 4.684-2.374 5.192-1.915 5.749H-5.55C-5.583 5.716-5.616 5.667-5.648 5.602" fill="#2c292a"/>
<path transform="matrix(1,0,0,-1,288.7407,254.53189)" d="M0 0V-5.012H-3.684V-6.191H-.442C.278-6.191 .9-6.175 1.424-6.142V-7.125C.867-7.093 .245-7.076-.442-7.076H-3.684C-3.684-8.091-3.668-8.812-3.634-9.238H-4.715C-4.65-8.812-4.617-8.091-4.617-7.076H-7.809C-8.595-7.076-9.168-7.093-9.528-7.125V-6.142C-9.201-6.175-8.661-6.191-7.907-6.191H-4.617V-5.012H-8.153C-8.121-4.456-8.104-3.653-8.104-2.604-8.104-1.556-8.121-.688-8.153 0H-3.291C-2.931 .753-2.62 1.523-2.357 2.31-2.031 2.145-1.654 1.966-1.228 1.769-1.359 1.605-1.523 1.351-1.719 1.007-1.915 .663-2.112 .327-2.308 0ZM-4.617-.835H-7.171V-2.113H-4.617ZM-4.617-2.899H-7.171V-4.226H-4.617ZM-5.108 .541C-5.469 .376-5.763 .229-5.992 .098-6.32 .818-6.647 1.376-6.974 1.769-6.746 1.899-6.5 2.064-6.238 2.26-5.911 1.899-5.534 1.327-5.108 .541M-.982-.835H-3.683V-2.113H-.982ZM-.982-2.899H-3.683V-4.226H-.982ZM-.982-4.226" fill="#2c292a"/>
<path transform="matrix(1,0,0,-1,294.2679,255.12149)" d="M0 0V-6.535C0-7.42 .016-8.14 .049-8.698H-.933C-.933-8.14-.917-7.42-.884-6.535V-1.572C-1.277-2.293-1.638-2.867-1.965-3.292-2.129-3.064-2.407-2.834-2.799-2.604-2.112-1.851-1.523-.967-1.031 .049-.54 1.064-.213 1.966-.049 2.752 .376 2.555 .753 2.424 1.081 2.359 .884 2.031 .523 1.245 0 0M4.961 1.818C5.845 .278 7.138-.868 8.841-1.622 8.546-1.884 8.3-2.179 8.104-2.506 6.729-1.72 5.533-.541 4.519 1.032 3.667-.508 2.554-1.786 1.179-2.801 1.015-2.572 .786-2.326 .491-2.064 1.702-1.278 2.586-.41 3.143 .541 3.7 1.49 4.028 2.211 4.126 2.703 4.649 2.44 5.026 2.276 5.255 2.211ZM3.291-5.282C3.192-6.577 2.537-7.731 1.326-8.747 1.13-8.452 .867-8.206 .54-8.01 1.751-7.158 2.398-6.135 2.48-4.938 2.562-3.743 2.586-2.801 2.554-2.113 2.979-2.179 3.323-2.211 3.585-2.211 3.487-2.965 3.389-3.989 3.291-5.282M6.68-4.029V-7.125C6.68-7.616 6.696-8.14 6.729-8.698H5.697C5.73-8.14 5.746-7.6 5.746-7.076V-3.735C5.746-3.374 5.73-2.834 5.697-2.113H6.729C6.696-2.834 6.68-3.473 6.68-4.029" fill="#2c292a"/>
<path transform="matrix(1,0,0,-1,263.1511,291.5768)" d="M0 0C0-.491 .032-1.081 .098-1.769H-.933V-1.032H-5.992V-1.818H-7.023C-6.991-1.13-6.974-.557-6.974-.098V1.032C-6.974 1.228-6.991 1.523-7.023 1.916-7.253 1.818-7.956 1.589-9.135 1.228-9.234 1.622-9.398 1.998-9.627 2.359-8.448 2.522-7.466 2.703-6.68 2.899-5.894 3.096-5.157 3.374-4.47 3.734-4.862 3.931-5.452 4.356-6.238 5.012-6.63 4.619-7.072 4.226-7.564 3.833-7.793 4.16-8.072 4.406-8.399 4.57-7.711 4.995-7.114 5.479-6.606 6.019-6.099 6.56-5.73 7.108-5.501 7.666-5.076 7.469-4.65 7.305-4.224 7.174-4.42 7.043-4.65 6.83-4.912 6.535H-.197C-.557 5.978-.901 5.511-1.228 5.135-1.556 4.758-2.063 4.291-2.751 3.734-2.292 3.538-1.678 3.341-.909 3.145-.14 2.948 .851 2.817 2.063 2.752 1.833 2.359 1.686 1.949 1.621 1.523 .998 1.687 .491 1.818 .098 1.916 .032 1.589 0 1.245 0 .884ZM1.621 8.698C1.588 8.14 1.572 7.731 1.572 7.469 1.572 7.239 1.588 6.879 1.621 6.388H.589V7.813H-8.006V6.339H-9.086C-9.054 6.666-9.037 6.978-9.037 7.272-9.037 7.567-9.054 8.042-9.086 8.698H-4.126C-4.224 9.025-4.355 9.336-4.519 9.631-4.028 9.729-3.635 9.811-3.34 9.877-3.111 9.221-2.98 8.828-2.947 8.698ZM-6.925 1.916H0C-1.015 2.145-1.777 2.359-2.284 2.555-2.792 2.752-3.258 2.931-3.684 3.096-4.241 2.833-4.781 2.604-5.304 2.408-5.828 2.211-6.369 2.047-6.925 1.916M-.933 1.13H-5.992V-.29499997H-.933ZM-5.648 5.602C-4.83 4.914-4.126 4.455-3.536 4.226-2.915 4.684-2.374 5.192-1.915 5.749H-5.55C-5.583 5.716-5.616 5.667-5.648 5.602" fill="#2c292a"/>
<path transform="matrix(1,0,0,-1,277.0277,286.8595)" d="M0 0C0-.983 .016-1.753 .049-2.31H-1.031V-1.572H-7.858C-7.989-2.621-8.153-3.407-8.349-3.931-8.546-4.455-8.759-4.922-8.988-5.332-9.217-5.741-9.463-6.125-9.725-6.486-10.052-6.224-10.412-6.027-10.805-5.897-10.151-5.209-9.7-4.562-9.455-3.956-9.209-3.35-9.045-2.776-8.963-2.236-8.882-1.695-8.841-1.114-8.841-.491-8.841 .13-8.857 1.196-8.89 2.703H.049C.016 1.916 0 1.015 0 0M-1.081 1.818H-7.908V-.6880001H-1.081ZM-3.782 3.243C-4.208 3.145-4.535 3.03-4.764 2.899-4.994 3.587-5.255 4.193-5.55 4.717-5.223 4.816-4.912 4.946-4.617 5.11-4.224 4.324-3.946 3.702-3.782 3.243" fill="#2c292a"/>
<path transform="matrix(1,0,0,-1,285.158,281.8474)" d="M0 0C.393-.033 .769-.066 1.13-.098 1.063-.524 1.047-1.294 1.08-2.408H2.505C3.192-2.408 3.945-2.392 4.764-2.359V-3.292C3.912-3.26 3.159-3.243 2.505-3.243H1.13C1.162-4.489 1.375-5.848 1.768-7.322 2.39-6.372 2.881-5.275 3.242-4.029 3.568-4.292 3.945-4.521 4.371-4.717 4.109-5.012 3.814-5.504 3.487-6.191 3.159-6.879 2.733-7.6 2.21-8.354 2.505-8.943 2.824-9.41 3.168-9.754 3.512-10.098 3.749-10.245 3.88-10.196 4.01-10.147 4.142-9.582 4.273-8.501 4.6-8.764 4.944-8.96 5.304-9.091 5.075-10.434 4.821-11.179 4.543-11.326 4.264-11.474 3.929-11.474 3.536-11.326 3.143-11.179 2.775-10.9 2.431-10.491 2.087-10.082 1.8-9.631 1.572-9.14 .786-9.992-.213-10.794-1.424-11.548-1.589-11.253-1.834-10.99-2.161-10.761-1.507-10.467-.876-10.073-.27-9.582 .335-9.091 .786-8.632 1.08-8.206 .851-7.584 .655-6.823 .491-5.921 .327-5.02 .229-4.128 .196-3.243H-4.027V-4.963H-.835C-.901-5.553-.95-6.159-.982-6.781L-1.13-8.747C-1.163-9.369-1.335-9.746-1.645-9.877-1.957-10.008-2.489-10.106-3.242-10.172-3.275-9.877-3.406-9.517-3.635-9.091-2.816-9.124-2.341-9.074-2.21-8.943-2.08-8.813-1.998-8.436-1.965-7.813L-1.866-5.848H-4.027C-4.027-7.125-4.126-8.19-4.322-9.042-4.519-9.894-4.879-10.679-5.403-11.4-5.763-11.138-6.09-10.958-6.385-10.86-5.96-10.335-5.665-9.836-5.501-9.361-5.337-8.886-5.215-8.37-5.132-7.813-5.051-7.256-5.002-6.47-4.985-5.454-4.969-4.439-4.978-3.423-5.01-2.408H.098C.065-1.458 .032-.656 0 0M4.273-1.572C3.978-1.802 3.716-2.032 3.487-2.26 3.094-1.737 2.57-1.196 1.915-.639 2.144-.442 2.357-.23 2.554 0 3.208-.524 3.782-1.049 4.273-1.572" fill="#2c292a"/>
<path transform="matrix(1,0,0,-1,297.3154,289.8569)" d="M0 0C.884 .884 1.555 1.916 2.014 3.096 2.275 2.899 2.603 2.686 2.996 2.457 2.21 1.212 1.44 .18 .687-.639 1.8-1.491 3.405-2.015 5.501-2.211 5.173-2.67 4.977-3.047 4.911-3.341 2.815-2.948 1.146-2.244-.098-1.228-1.507-2.277-3.143-3.014-5.01-3.44-5.108-3.047-5.288-2.686-5.55-2.359-3.553-2.13-1.982-1.54-.835-.59-1.589 .295-2.194 1.278-2.652 2.359-2.259 2.522-1.949 2.686-1.719 2.85-1.13 1.506-.557 .557 0 0M-3.831 5.061C-4.322 5.061-4.797 5.044-5.255 5.012V5.995L-3.88 5.897H3.782C4.305 5.929 4.845 5.962 5.402 5.995V4.963C4.845 4.995 4.305 5.028 3.782 5.061ZM-4.273 1.671C-4.536 1.998-4.846 2.26-5.206 2.457-4.584 2.784-4.02 3.194-3.512 3.685-3.004 4.177-2.62 4.602-2.357 4.963-2.031 4.734-1.687 4.488-1.326 4.226-1.785 3.8-2.767 2.948-4.273 1.671M.835 6.339C.376 6.208-.017 6.093-.344 5.995-.54 6.552-.786 7.157-1.081 7.813-.688 7.944-.295 8.059 .098 8.157 .425 7.403 .671 6.797 .835 6.339M3.34 4.103C3.929 3.661 4.502 3.243 5.059 2.85 4.698 2.587 4.387 2.31 4.126 2.015 3.831 2.408 2.914 3.145 1.375 4.226 1.637 4.488 1.915 4.734 2.21 4.963 2.373 4.832 2.75 4.545 3.34 4.103" fill="#2c292a"/>
<path transform="matrix(1,0,0,-1,307.1155,282.093)" d="M0 0H.982C.949-.688 .933-1.442 .933-2.26 2.046-2.26 2.832-2.244 3.291-2.211V-3.096C2.832-3.064 2.046-3.047 .933-3.047 .933-3.997 .949-4.734 .982-5.258H0C.032-4.799 .049-4.226 .049-3.538-.115-3.801-.426-4.136-.884-4.545-1.343-4.955-1.768-5.275-2.161-5.504-2.325-5.209-2.571-4.996-2.898-4.865-2.603-4.766-2.21-4.538-1.719-4.177-1.228-3.817-.852-3.44-.589-3.047-1.245-3.047-1.866-3.064-2.456-3.096V-2.211C-1.899-2.244-1.064-2.26 .049-2.26 .049-1.474 .032-.721 0 0M.245-6.241H2.947C2.75-7.06 2.407-7.879 1.916-8.698 2.439-8.894 2.849-9.074 3.143-9.238 2.979-9.468 2.832-9.713 2.701-9.975 2.407-9.779 1.965-9.582 1.375-9.385 .72-10.106-.41-10.744-2.014-11.302-2.178-10.941-2.391-10.695-2.652-10.565-1.113-10.204-.066-9.713 .491-9.091-.426-8.862-1.179-8.665-1.768-8.501-1.572-8.206-1.31-7.715-.982-7.027-1.31-7.027-1.85-7.044-2.603-7.076V-6.191C-1.982-6.224-1.343-6.241-.688-6.241-.557-5.946-.459-5.619-.393-5.258-.033-5.389 .327-5.504 .687-5.602 .556-5.733 .409-5.946 .245-6.241M-.491-1.572-1.228-2.015C-1.457-1.556-1.801-1.13-2.259-.737-1.965-.54-1.752-.361-1.621-.197-1.163-.656-.786-1.114-.491-1.572M1.031-8.452C1.293-8.125 1.539-7.649 1.768-7.027H-.049C-.213-7.355-.393-7.699-.589-8.059-.197-8.157 .344-8.288 1.031-8.452M2.849-4.668C2.652-4.832 2.439-5.029 2.21-5.258 1.751-4.701 1.375-4.259 1.08-3.931 1.277-3.767 1.457-3.587 1.621-3.391 2.046-3.817 2.456-4.243 2.849-4.668M2.701-1.278C2.603-1.507 2.472-1.786 2.308-2.113 2.046-1.982 1.784-1.884 1.522-1.818 1.784-1.393 2.03-.852 2.259-.197 2.586-.361 2.865-.475 3.094-.54 2.93-.803 2.8-1.049 2.701-1.278M5.206-1.007C5.108-1.286 4.96-1.786 4.764-2.506H7.023C7.35-2.506 7.743-2.49 8.202-2.457V-3.341C7.841-3.309 7.564-3.292 7.367-3.292 7.367-3.817 7.276-4.644 7.097-5.774 6.917-6.904 6.597-7.879 6.139-8.698 6.466-9.091 6.834-9.443 7.244-9.754 7.653-10.065 8.038-10.286 8.399-10.417 8.006-10.712 7.743-10.99 7.613-11.253 7.22-11.023 6.859-10.761 6.532-10.467 6.204-10.172 5.877-9.811 5.55-9.385 5.189-9.779 4.805-10.114 4.396-10.393 3.986-10.671 3.47-10.974 2.849-11.302 2.684-11.007 2.456-10.778 2.161-10.614 2.652-10.417 3.175-10.139 3.733-9.779 4.289-9.418 4.715-9.058 5.01-8.698 4.78-8.239 4.559-7.748 4.346-7.223 4.133-6.7 3.945-6.012 3.782-5.16 3.684-5.422 3.519-5.766 3.291-6.191 3.061-6.061 2.783-5.93 2.456-5.798 2.979-4.882 3.405-3.882 3.733-2.801 4.06-1.72 4.273-.786 4.371 0 4.764-.164 5.124-.279 5.452-.344 5.386-.508 5.304-.729 5.206-1.007M5.599-7.813C5.926-7.06 6.147-6.298 6.262-5.528 6.376-4.759 6.45-4.013 6.483-3.292H4.568L4.371-3.784C4.666-5.717 5.075-7.06 5.599-7.813" fill="#2c292a"/>
<path transform="matrix(1,0,0,-1,258.4853,333.4966)" d="M0 0C-.263-.066-.754-.18-1.473-.344V-2.506C-.95-2.506-.426-2.49 .098-2.457V-3.292C-.426-3.26-.95-3.243-1.473-3.243V-5.209C-.852-5.209-.279-5.192 .245-5.16V-6.044C-.312-6.012-.901-5.995-1.523-5.995-1.621-6.912-1.842-7.674-2.186-8.28-2.529-8.886-3.062-9.516-3.782-10.172-4.143-9.811-4.453-9.565-4.715-9.435-4.028-9.009-3.496-8.509-3.119-7.936-2.743-7.363-2.522-6.716-2.456-5.995-3.536-5.995-4.306-6.012-4.764-6.044V-5.16C-4.371-5.192-3.586-5.209-2.407-5.209V-3.243C-3.094-3.243-3.733-3.26-4.322-3.292V-2.457C-3.733-2.49-3.094-2.506-2.407-2.506V-.541C-3.062-.705-3.668-.835-4.224-.934-4.322-.573-4.42-.295-4.519-.098-3.995-.066-3.315 .049-2.48 .246-1.645 .442-.999 .671-.54 .934-.377 .573-.197 .262 0 0M6.139-.491C5.55-.459 4.764-.442 3.782-.442V-1.818C4.6-1.818 5.287-1.802 5.844-1.769V-2.654C5.287-2.621 4.6-2.604 3.782-2.604V-4.029C4.731-4.029 5.452-4.013 5.943-3.98V-4.816C5.419-4.783 4.698-4.766 3.782-4.766V-6.29C5.157-6.29 6.09-6.274 6.581-6.241V-7.125C6.09-7.093 5.157-7.076 3.782-7.076V-8.255C3.782-8.78 3.798-9.418 3.831-10.172H2.799C2.832-9.418 2.848-8.78 2.848-8.255V-7.076C1.735-7.076 .802-7.093 .049-7.125V-6.241C.737-6.274 1.67-6.29 2.848-6.29V-4.766C1.997-4.766 1.26-4.783 .638-4.816V-3.98C1.26-4.013 1.997-4.029 2.848-4.029V-2.604C1.866-2.604 1.146-2.621 .687-2.654V-1.769C1.146-1.802 1.866-1.818 2.848-1.818V-.442C1.768-.442 .998-.459 .54-.491V.393C.998 .36 1.899 .344 3.242 .344 4.584 .344 5.55 .36 6.139 .393Z" fill="#2c292a"/>
<path transform="matrix(1,0,0,-1,269.1694,342.0959)" d="M0 0C-.393-.361-.754-.704-1.081-1.032-1.343-.737-1.572-.491-1.768-.295-1.408 0-1.245 .311-1.277 .639V5.061H-2.799V5.995C-2.407 5.962-2.031 5.946-1.67 5.946H-.246C-.279 5.323-.295 4.684-.295 4.029V.885C0 1.113 .507 1.572 1.228 2.26 1.26 1.966 1.375 1.687 1.572 1.425 .916 .835 .393 .36 0 0M.196 7.567C-.033 7.403-.312 7.206-.639 6.978-1.13 7.796-1.638 8.517-2.161 9.14-1.834 9.336-1.572 9.516-1.375 9.68-1.081 9.353-.557 8.648 .196 7.567M2.112 .934C2.472 1.589 2.684 2.243 2.75 2.899 2.815 3.554 2.849 4.193 2.849 4.816V6.683C2.128 6.683 1.424 6.666 .737 6.634V7.567C1.326 7.534 1.817 7.518 2.21 7.518H7.122C7.481 7.518 7.94 7.534 8.497 7.567V6.634C8.006 6.666 7.481 6.683 6.925 6.683H3.782V5.012H7.564C7.498 4.651 7.448 4.144 7.416 3.489L7.171-.049C7.105-.639 6.884-1.024 6.508-1.204 6.131-1.384 5.566-1.49 4.813-1.523 4.78-1.196 4.649-.835 4.42-.442 5.042-.474 5.484-.467 5.746-.418 6.008-.369 6.188-.115 6.286 .344L6.532 4.177H3.782C3.716 3.391 3.634 2.727 3.536 2.187 3.438 1.646 3.225 1.056 2.898 .418 2.57-.221 2.079-.884 1.424-1.572 1.097-1.278 .818-1.081 .589-.983 1.244-.361 1.751 .278 2.112 .934M4.126 9.975C4.452 9.549 4.829 8.91 5.255 8.059 4.928 7.96 4.617 7.813 4.322 7.617 4.126 8.14 3.782 8.763 3.291 9.484 3.617 9.614 3.896 9.779 4.126 9.975" fill="#2c292a"/>
<path transform="matrix(1,0,0,-1,288.4487,341.9485)" d="M0 0C0-.491 .032-1.081 .098-1.769H-.933V-1.032H-5.992V-1.818H-7.023C-6.991-1.13-6.974-.557-6.974-.098V1.032C-6.974 1.228-6.991 1.523-7.023 1.916-7.253 1.818-7.956 1.589-9.135 1.228-9.234 1.622-9.398 1.998-9.627 2.359-8.448 2.522-7.466 2.703-6.68 2.899-5.894 3.096-5.157 3.374-4.469 3.735-4.862 3.931-5.452 4.356-6.238 5.012-6.63 4.619-7.072 4.226-7.564 3.833-7.793 4.16-8.072 4.406-8.399 4.57-7.711 4.995-7.114 5.479-6.606 6.019-6.099 6.56-5.73 7.108-5.501 7.666-5.076 7.469-4.65 7.305-4.224 7.174-4.42 7.043-4.65 6.83-4.911 6.535H-.197C-.557 5.978-.901 5.511-1.228 5.135-1.556 4.758-2.063 4.291-2.751 3.735-2.292 3.538-1.678 3.341-.909 3.145-.14 2.948 .851 2.817 2.063 2.752 1.833 2.359 1.686 1.949 1.621 1.523 .998 1.687 .491 1.818 .098 1.916 .032 1.589 0 1.245 0 .884ZM1.621 8.698C1.588 8.14 1.572 7.731 1.572 7.469 1.572 7.24 1.588 6.879 1.621 6.388H.589V7.813H-8.006V6.339H-9.086C-9.054 6.666-9.037 6.978-9.037 7.272-9.037 7.567-9.054 8.042-9.086 8.698H-4.126C-4.224 9.025-4.355 9.336-4.519 9.631-4.027 9.729-3.635 9.811-3.34 9.877-3.111 9.221-2.98 8.828-2.947 8.698ZM-6.925 1.916H0C-1.015 2.145-1.777 2.359-2.284 2.555-2.792 2.752-3.258 2.931-3.684 3.096-4.241 2.833-4.781 2.604-5.304 2.408-5.828 2.211-6.369 2.047-6.925 1.916M-.933 1.13H-5.992V-.29499997H-.933ZM-5.648 5.602C-4.83 4.914-4.126 4.455-3.536 4.226-2.915 4.684-2.374 5.192-1.915 5.749H-5.55C-5.583 5.716-5.616 5.667-5.648 5.602" fill="#2c292a"/>
<path transform="matrix(1,0,0,-1,302.325,337.2312)" d="M0 0C0-.983 .016-1.753 .049-2.31H-1.031V-1.572H-7.858C-7.989-2.621-8.153-3.407-8.349-3.931-8.546-4.455-8.759-4.922-8.988-5.332-9.217-5.741-9.463-6.125-9.725-6.486-10.052-6.224-10.412-6.027-10.805-5.897-10.151-5.209-9.7-4.562-9.455-3.956-9.209-3.35-9.045-2.776-8.963-2.236-8.882-1.695-8.841-1.114-8.841-.491-8.841 .13-8.857 1.196-8.89 2.703H.049C.016 1.916 0 1.015 0 0M-1.081 1.818H-7.908V-.6880001H-1.081ZM-3.782 3.243C-4.208 3.145-4.535 3.03-4.764 2.899-4.994 3.587-5.255 4.193-5.55 4.717-5.223 4.816-4.912 4.946-4.617 5.11-4.224 4.324-3.946 3.702-3.782 3.243" fill="#2c292a"/>
<path transform="matrix(1,0,0,-1,307.1155,332.4648)" d="M0 0H.982C.949-.688 .933-1.442 .933-2.26 2.046-2.26 2.832-2.244 3.291-2.211V-3.096C2.832-3.064 2.046-3.047 .933-3.047 .933-3.997 .949-4.734 .982-5.258H0C.032-4.799 .049-4.226 .049-3.538-.115-3.801-.426-4.136-.884-4.545-1.343-4.955-1.768-5.275-2.161-5.504-2.325-5.209-2.571-4.996-2.898-4.865-2.603-4.766-2.21-4.538-1.719-4.177-1.228-3.817-.852-3.44-.589-3.047-1.245-3.047-1.866-3.064-2.456-3.096V-2.211C-1.899-2.244-1.064-2.26 .049-2.26 .049-1.474 .032-.721 0 0M.245-6.241H2.947C2.75-7.06 2.407-7.879 1.916-8.698 2.439-8.894 2.849-9.074 3.143-9.238 2.979-9.467 2.832-9.713 2.701-9.975 2.407-9.779 1.965-9.582 1.375-9.385 .72-10.106-.41-10.744-2.014-11.302-2.178-10.941-2.391-10.695-2.652-10.565-1.113-10.204-.066-9.713 .491-9.091-.426-8.862-1.179-8.665-1.768-8.501-1.572-8.206-1.31-7.715-.982-7.027-1.31-7.027-1.85-7.044-2.603-7.076V-6.191C-1.982-6.224-1.343-6.241-.688-6.241-.557-5.946-.459-5.619-.393-5.258-.033-5.389 .327-5.504 .687-5.602 .556-5.733 .409-5.946 .245-6.241M-.491-1.572-1.228-2.015C-1.457-1.556-1.801-1.13-2.259-.737-1.965-.54-1.752-.361-1.621-.197-1.163-.656-.786-1.114-.491-1.572M1.031-8.452C1.293-8.125 1.539-7.649 1.768-7.027H-.049C-.213-7.355-.393-7.699-.589-8.059-.197-8.157 .344-8.288 1.031-8.452M2.849-4.668C2.652-4.832 2.439-5.029 2.21-5.258 1.751-4.701 1.375-4.259 1.08-3.931 1.277-3.767 1.457-3.587 1.621-3.391 2.046-3.817 2.456-4.243 2.849-4.668M2.701-1.278C2.603-1.507 2.472-1.786 2.308-2.113 2.046-1.982 1.784-1.884 1.522-1.818 1.784-1.393 2.03-.852 2.259-.197 2.586-.361 2.865-.475 3.094-.54 2.93-.803 2.8-1.049 2.701-1.278M5.206-1.007C5.108-1.286 4.96-1.786 4.764-2.506H7.023C7.35-2.506 7.743-2.49 8.202-2.457V-3.341C7.841-3.309 7.564-3.292 7.367-3.292 7.367-3.817 7.276-4.644 7.097-5.774 6.917-6.904 6.597-7.879 6.139-8.698 6.466-9.091 6.834-9.443 7.244-9.754 7.653-10.065 8.038-10.286 8.399-10.417 8.006-10.712 7.743-10.99 7.613-11.253 7.22-11.023 6.859-10.761 6.532-10.466 6.204-10.172 5.877-9.811 5.55-9.385 5.189-9.779 4.805-10.114 4.396-10.393 3.986-10.671 3.47-10.974 2.849-11.302 2.684-11.007 2.456-10.778 2.161-10.614 2.652-10.417 3.175-10.139 3.733-9.779 4.289-9.418 4.715-9.058 5.01-8.698 4.78-8.239 4.559-7.748 4.346-7.223 4.133-6.7 3.945-6.012 3.782-5.16 3.684-5.422 3.519-5.766 3.291-6.191 3.061-6.061 2.783-5.93 2.456-5.798 2.979-4.882 3.405-3.882 3.733-2.801 4.06-1.72 4.273-.786 4.371 0 4.764-.164 5.124-.279 5.452-.344 5.386-.508 5.304-.729 5.206-1.007M5.599-7.813C5.926-7.06 6.147-6.298 6.262-5.528 6.376-4.759 6.45-4.013 6.483-3.292H4.568L4.371-3.784C4.666-5.717 5.075-7.06 5.599-7.813" fill="#2c292a"/>
<path transform="matrix(1,0,0,-1,262.1268,373.1468)" d="M0 0C0-.491 .032-1.081 .098-1.769H-.933V-1.032H-5.992V-1.818H-7.023C-6.991-1.13-6.974-.557-6.974-.098V1.032C-6.974 1.228-6.991 1.523-7.023 1.916-7.253 1.818-7.957 1.589-9.135 1.228-9.234 1.622-9.398 1.998-9.627 2.359-8.448 2.522-7.466 2.703-6.68 2.899-5.894 3.096-5.157 3.374-4.47 3.735-4.862 3.931-5.452 4.356-6.238 5.012-6.63 4.619-7.073 4.226-7.564 3.833-7.793 4.16-8.072 4.406-8.399 4.57-7.711 4.995-7.114 5.479-6.606 6.019-6.099 6.56-5.73 7.108-5.501 7.666-5.076 7.469-4.65 7.305-4.224 7.174-4.42 7.043-4.65 6.83-4.912 6.535H-.197C-.557 5.978-.901 5.511-1.228 5.135-1.556 4.758-2.063 4.291-2.751 3.735-2.292 3.538-1.678 3.341-.909 3.145-.14 2.948 .851 2.817 2.063 2.752 1.833 2.359 1.686 1.949 1.621 1.523 .998 1.687 .491 1.818 .098 1.916 .032 1.589 0 1.245 0 .884ZM1.621 8.698C1.588 8.14 1.571 7.731 1.571 7.469 1.571 7.24 1.588 6.879 1.621 6.388H.589V7.813H-8.006V6.339H-9.086C-9.054 6.666-9.037 6.978-9.037 7.272-9.037 7.567-9.054 8.042-9.086 8.698H-4.126C-4.224 9.025-4.355 9.336-4.519 9.631-4.028 9.729-3.635 9.811-3.34 9.877-3.111 9.221-2.98 8.828-2.947 8.698ZM-6.925 1.916H0C-1.016 2.145-1.777 2.359-2.284 2.555-2.792 2.752-3.258 2.931-3.684 3.096-4.241 2.833-4.781 2.604-5.304 2.408-5.828 2.211-6.369 2.047-6.925 1.916M-.933 1.13H-5.992V-.29499997H-.933ZM-5.648 5.602C-4.83 4.914-4.126 4.455-3.536 4.226-2.915 4.684-2.374 5.192-1.916 5.749H-5.55C-5.583 5.716-5.616 5.667-5.648 5.602" fill="#2c292a"/>
<path transform="matrix(1,0,0,-1,276.0034,368.4296)" d="M0 0C0-.983 .016-1.753 .049-2.31H-1.031V-1.572H-7.858C-7.989-2.621-8.153-3.407-8.349-3.931-8.546-4.455-8.759-4.922-8.988-5.332-9.217-5.741-9.463-6.125-9.725-6.486-10.052-6.224-10.412-6.027-10.805-5.897-10.151-5.209-9.7-4.562-9.455-3.956-9.209-3.35-9.045-2.776-8.963-2.236-8.882-1.695-8.841-1.114-8.841-.491-8.841 .131-8.857 1.196-8.89 2.703H.049C.016 1.916 0 1.015 0 0M-1.081 1.818H-7.908V-.6880001H-1.081ZM-3.782 3.243C-4.208 3.145-4.535 3.03-4.764 2.899-4.994 3.587-5.255 4.193-5.55 4.717-5.223 4.816-4.912 4.946-4.617 5.11-4.224 4.324-3.946 3.702-3.782 3.243" fill="#2c292a"/>
<path transform="matrix(1,0,0,-1,283.1514,374.965)" d="M0 0C.032 .721 .049 1.85 .049 3.391-.573 2.473-1.318 1.777-2.186 1.302-3.054 .828-3.864 .426-4.617 .098-4.748 .459-4.994 .77-5.354 1.032-4.208 1.359-3.299 1.703-2.628 2.064-1.957 2.424-1.375 2.915-.884 3.538H-3.34C-3.897 3.538-4.453 3.521-5.01 3.489V4.324C-4.453 4.291-3.897 4.275-3.34 4.275H.049C.049 4.57 .032 4.914 0 5.307H.982C.949 4.946 .933 4.602 .933 4.275H4.126C4.813 4.275 5.435 4.291 5.992 4.324V3.489C5.435 3.521 4.829 3.538 4.175 3.538H1.915C2.603 2.719 3.34 2.162 4.126 1.867 4.911 1.572 5.648 1.392 6.336 1.327 6.041 1.065 5.844 .737 5.746 .344 4.731 .573 3.839 .917 3.07 1.376 2.3 1.834 1.588 2.555 .933 3.538 .933 1.9 .949 .721 .982 0ZM-4.764 9.14C-4.601 9.402-4.47 9.647-4.371 9.877-3.618 9.582-2.98 9.27-2.456 8.943-2.685 8.681-2.866 8.419-2.996 8.157-3.487 8.517-4.077 8.845-4.764 9.14M-2.431 6.314C-2.808 5.97-3.308 5.504-3.929 4.914L-4.666 5.651C-4.175 5.946-3.676 6.322-3.168 6.781-2.661 7.24-2.259 7.666-1.965 8.059-1.834 7.698-1.687 7.42-1.523 7.223-1.752 6.961-2.055 6.658-2.431 6.314M-3.684 10.958C-3.487 11.22-3.308 11.449-3.143 11.646-2.391 11.187-1.817 10.778-1.424 10.417-1.687 10.221-1.9 10.007-2.063 9.779-2.358 10.106-2.898 10.499-3.684 10.958M5.648 11.105V10.319C5.026 10.351 4.518 10.368 4.126 10.368H.245V9.484H4.862C4.829 9.058 4.813 8.648 4.813 8.255 4.813 7.894 4.829 7.534 4.862 7.174H.245V6.29H3.978C4.371 6.29 4.878 6.306 5.501 6.339V5.553C4.878 5.585 4.371 5.602 3.978 5.602H-.737C-.705 6.159-.688 7.027-.688 8.206-.688 9.418-.705 10.368-.737 11.056H4.126C4.518 11.056 5.026 11.072 5.648 11.105M3.929 8.747H.24499989V7.863H3.929ZM3.929 7.862" fill="#2c292a"/>
<path transform="matrix(1,0,0,-1,290.5938,368.1347)" d="M0 0C.523-.033 .982-.049 1.375-.049H2.407C2.373-.573 2.357-1.13 2.357-1.72V-4.472C3.208-5.258 4.649-5.651 6.68-5.651 8.742-5.651 10.314-5.569 11.395-5.405 11.23-5.798 11.1-6.191 11.001-6.585 9.725-6.617 8.619-6.625 7.686-6.609 6.753-6.592 5.975-6.552 5.353-6.486 4.731-6.42 4.224-6.314 3.831-6.167 3.438-6.019 3.037-5.806 2.628-5.528 2.218-5.25 1.882-5.242 1.621-5.504 1.358-5.765 1.047-6.142 .687-6.634 .393-6.339 .098-6.093-.197-5.897 .295-5.569 .835-5.11 1.424-4.521V-.835C.933-.835 .458-.852 0-.885ZM.786 3.882C1.179 3.947 1.523 4.046 1.817 4.177 2.046 3.521 2.259 2.801 2.456 2.015 2.128 1.949 1.784 1.834 1.424 1.671 1.293 2.26 1.08 2.997 .786 3.882M3.291 2.948C3.782 2.915 5.271 2.899 7.76 2.899 8.022 3.521 8.267 4.16 8.497 4.816 8.922 4.651 9.283 4.521 9.577 4.422 9.348 4.193 9.053 3.685 8.693 2.899 9.97 2.899 10.887 2.915 11.443 2.948V2.064C10.887 2.096 9.643 2.113 7.711 2.113L7.465 1.13H10.314C10.281 .344 10.265-.688 10.265-1.966 10.265-3.211 10.281-4.145 10.314-4.766H4.175C4.24-4.046 4.273-3.113 4.273-1.966 4.273-.819 4.256 .213 4.224 1.13H6.434L6.68 2.113C4.911 2.113 3.782 2.096 3.291 2.064ZM6.385 3.489C6.122 3.324 5.861 3.145 5.599 2.948 5.37 3.341 5.042 3.784 4.617 4.275 4.845 4.439 5.091 4.619 5.353 4.816 5.779 4.291 6.122 3.849 6.385 3.489M9.332 .344H5.2559998V-.59000006H9.332ZM9.332-1.327H5.2559998V-2.2610002H9.332ZM9.332-2.997H5.2559998V-3.98H9.332ZM9.332-3.98" fill="#2c292a"/>
</g>
<path transform="matrix(1,0,0,-1,0,595.276)" d="M303.84 227.092H305.755V225.176H303.84ZM307.966 227.092H309.881V225.176H307.966ZM311.993 227.092H313.909V225.176H311.993Z" fill="#2c292a"/>
<path transform="matrix(1,0,0,-1,0,595.276)" d="M315.712 227.092H317.627V225.176H315.712ZM319.838 227.092H321.75303V225.176H319.838ZM323.865 227.092H325.78099V225.176H323.865Z" fill="#2c292a"/>
<path transform="matrix(1,0,0,-1,0,595.276)" d="M145.71 394.806H81.24601V396.467H145.71Z" fill="#f43040"/>
<path transform="matrix(1,0,0,-1,0,595.276)" d="M372.25 394.806H309.822V396.467H372.25Z" fill="#f43040"/>
<path transform="matrix(1,0,0,-1,170.842,245.94101)" d="M0 0H2.372 4.745L2.372-4.747ZM3.163-1.187H1.5820001V35.584H3.163Z" fill="#2c292a"/>
<path transform="matrix(1,0,0,-1,0,595.276)" d="M135.651 374.368H210.616V358.22804H135.651Z" fill="#ffffff"/>
<g clip-path="url(#clip_8)">
<path transform="matrix(1,0,0,-1,141.318,223.65149)" d="M0 0H.934C.904-.712 .89-1.499 .89-2.359 1.305-2.359 1.779-2.344 2.313-2.314V-3.16C1.749-3.13 1.275-3.115 .89-3.115V-5.029C1.335-4.851 1.779-4.658 2.224-4.45 2.253-4.628 2.298-4.881 2.358-5.207 2.031-5.326 1.542-5.534 .89-5.83V-8.945C.89-9.449 .785-9.775 .578-9.924 .371-10.072-.074-10.206-.756-10.325-.816-9.939-.949-9.583-1.156-9.257-.653-9.257-.327-9.241-.178-9.212-.03-9.183 .045-8.99 .045-8.634V-6.141C-.667-6.438-1.142-6.646-1.379-6.764-1.498-6.468-1.631-6.171-1.779-5.874-1.512-5.845-.905-5.667 .045-5.34V-3.115C-.697-3.115-1.261-3.13-1.646-3.16V-2.314C-1.261-2.344-.697-2.359 .045-2.359 .045-1.558 .029-.772 0 0M8.096-1.202C6.375-1.439 4.937-1.617 3.781-1.736V-3.605H7.161C7.517-3.605 7.962-3.59 8.496-3.56V-4.406C7.754-4.377 7.102-4.361 6.539-4.361V-6.675C7.517-7.269 8.185-7.699 8.54-7.966 8.333-8.233 8.155-8.515 8.007-8.812 7.473-8.337 6.984-7.966 6.539-7.699V-8.767C6.539-9.36 6.553-9.864 6.583-10.28H5.649C5.678-9.835 5.694-9.33 5.694-8.767V-7.209C5.397-7.031 4.878-6.735 4.137-6.319 4.285-6.082 4.418-5.815 4.537-5.518 5.011-5.785 5.397-6.008 5.694-6.186V-4.361H3.781C3.781-5.578 3.699-6.624 3.536-7.499 3.373-8.374 2.965-9.271 2.313-10.191 2.075-9.953 1.794-9.761 1.468-9.613 1.883-9.168 2.202-8.663 2.424-8.1 2.647-7.536 2.795-6.92 2.869-6.253 2.943-5.585 2.98-4.703 2.98-3.605 2.98-2.507 2.965-1.662 2.936-1.068 3.825-1.039 4.76-.928 5.738-.734 6.717-.542 7.295-.386 7.473-.267 7.621-.594 7.829-.905 8.096-1.202" fill="#2c292a"/>
<path transform="matrix(1,0,0,-1,154.5734,225.5206)" d="M0 0C-.178-.356-.356-.675-.534-.957-.712-1.239-.978-1.617-1.334-2.092-1.69-2.567-2.12-3.056-2.624-3.56-2.891-3.293-3.158-3.086-3.425-2.937-2.832-2.403-2.365-1.914-2.024-1.469-1.683-1.024-1.357-.542-1.045-.022-.734 .496-.46 1.068-.222 1.691 .015 1.513 .311 1.364 .667 1.246 .4 .771 .178 .356 0 0M-3.114-7.743C-2.64-7.565-2.209-7.35-1.824-7.098-1.439-6.846-1.097-6.535-.801-6.164-.504-5.793-.282-5.385-.133-4.94 .015-4.495 .118-3.946 .178-3.293-.504-3.293-1.053-3.309-1.468-3.338V-2.403C-.994-2.433-.386-2.448 .356-2.448H4.804C4.744-2.893 4.7-3.279 4.671-3.605L4.315-6.898C4.255-7.432 4.018-7.788 3.603-7.966 3.187-8.144 2.728-8.248 2.224-8.278 2.194-7.981 2.046-7.639 1.779-7.254 2.402-7.284 2.825-7.262 3.047-7.187 3.269-7.113 3.41-6.853 3.47-6.408L3.781-3.293H1.112C1.023-4.065 .897-4.71 .734-5.229 .571-5.749 .341-6.201 .045-6.586-.252-6.972-.608-7.328-1.023-7.654-1.439-7.981-1.883-8.262-2.357-8.5-2.565-8.173-2.818-7.922-3.114-7.743M4.159-.267C4.796-1.068 5.694-1.766 6.85-2.359 6.612-2.567 6.375-2.878 6.138-3.293 5.605-2.908 5.138-2.544 4.737-2.203 4.337-1.862 4.003-1.543 3.737-1.246 3.47-.95 3.173-.527 2.847 .022 2.52 .571 2.253 1.083 2.046 1.558 2.372 1.647 2.654 1.75 2.891 1.869 3.098 1.246 3.521 .534 4.159-.267" fill="#2c292a"/>
<path transform="matrix(1,0,0,-1,162.2241,226.85572)" d="M0 0C.445 .445 .83 .935 1.156 1.469 1.482 2.003 1.749 2.551 1.957 3.115 2.372 2.877 2.698 2.715 2.936 2.626 2.55 2.092 2.298 1.706 2.18 1.469 2.92 1.469 3.543 1.483 4.048 1.513V.668C3.543 .697 2.773 .712 1.735 .712 1.29 .118 .949-.297 .712-.534 .504-.297 .267-.119 0 0M3.781-1.202C3.395-1.172 3.01-1.157 2.624-1.157V-2.492C3.128-2.492 3.662-2.478 4.226-2.448V-3.249C3.662-3.219 3.128-3.204 2.624-3.204V-5.251C2.891-5.073 3.217-4.777 3.603-4.361 3.692-4.628 3.84-4.895 4.048-5.162 3.751-5.37 3.44-5.6 3.114-5.852 2.787-6.104 2.446-6.423 2.091-6.809 1.942-6.542 1.749-6.304 1.512-6.097 1.69-5.919 1.794-5.652 1.824-5.296V-3.204C1.468-3.204 1.038-3.219 .534-3.249V-2.448C1.038-2.478 1.468-2.492 1.824-2.492V-1.157C1.468-1.157 1.171-1.172 .934-1.202V-.401C1.319-.43 1.764-.445 2.269-.445 2.802-.445 3.306-.43 3.781-.401ZM6.361 .757C6.094 .638 5.827 .49 5.56 .312 5.352 .786 5.011 1.364 4.537 2.047 4.833 2.165 5.086 2.314 5.293 2.492 5.767 1.75 6.123 1.172 6.361 .757M7.028 1.691C7.028 2.136 7.013 2.61 6.984 3.115H7.873C7.843 2.788 7.829 2.314 7.829 1.691V-.267H9.964C9.934-.712 9.919-1.306 9.919-2.047V-5.919C9.919-6.334 9.778-6.586 9.497-6.675 9.215-6.764 8.836-6.853 8.362-6.942 8.303-6.646 8.169-6.349 7.962-6.052 8.644-6.022 9-5.941 9.03-5.808 9.059-5.674 9.074-5.251 9.074-4.539H5.961V-6.809H5.115C5.144-6.186 5.16-5.682 5.16-5.296V-2.136C5.16-1.395 5.144-.772 5.115-.267H7.028ZM9.074-.935H5.96V-2.092H9.074ZM9.074-2.759H5.96V-3.8720003H9.074ZM9.297 .267C9.03 .415 8.747 .534 8.451 .623 8.777 1.008 9.103 1.631 9.43 2.492 9.667 2.343 9.978 2.21 10.364 2.092 10.126 1.795 9.771 1.186 9.297 .267" fill="#2c292a"/>
<path transform="matrix(1,0,0,-1,176.6804,224.9866)" d="M0 0H5.293C5.797 0 6.301 .015 6.806 .044V-.668C6.301-.638 5.797-.623 5.293-.623H3.247V-1.38H4.804C5.308-1.38 5.783-1.365 6.227-1.335V-2.136C5.812-2.077 5.352-2.047 4.849-2.047H3.247V-2.804H6.272V-3.56C5.856-3.531 5.397-3.516 4.893-3.516H3.247V-4.361H5.115C5.708-4.361 6.345-4.347 7.028-4.317V-5.118C6.375-5.059 5.738-5.029 5.115-5.029H-.267V-5.429H-1.201C-1.172-4.717-1.156-3.516-1.156-1.825-1.542-2.478-1.898-2.967-2.224-3.293-2.432-3.026-2.64-2.834-2.847-2.715-2.521-2.329-2.232-1.951-1.979-1.58-1.728-1.209-1.453-.794-1.156-.334-.86 .126-.608 .712-.4 1.424-.015 1.216 .341 1.038 .667 .89 .518 .771 .296 .474 0 0M6.005-7.388C6.005-8.011 6.02-8.559 6.049-9.034H5.115V-8.545H-.4V-9.079H-1.334C-1.275-8.574-1.245-8.011-1.245-7.388-1.245-6.764-1.275-6.23-1.334-5.785H6.049C6.02-6.23 6.005-6.764 6.005-7.388M5.115-6.497H-.40100003V-7.8320004H5.115ZM2.357-.623H-.26699997V-1.3800001H2.357ZM2.357-2.047H-.26699997V-2.804H2.357ZM2.357-3.516H-.26699997V-4.362H2.357ZM3.558 .445C3.381 .385 3.114 .282 2.758 .133 2.669 .371 2.476 .712 2.18 1.157 2.447 1.246 2.698 1.364 2.936 1.513 3.232 1.038 3.44 .682 3.558 .445" fill="#2c292a"/>
<path transform="matrix(1,0,0,-1,187.5338,226.0102)" d="M0 0V-5.652C0-6.424 .014-7.194 .044-7.966H-.934C-.905-7.194-.89-6.438-.89-5.696V-1.38C-1.246-1.914-1.587-2.374-1.913-2.759-2.062-2.522-2.269-2.3-2.536-2.092-2.062-1.676-1.557-1.001-1.023-.067-.489 .868-.104 1.72 .133 2.492 .489 2.314 .83 2.165 1.156 2.047 .89 1.72 .504 1.038 0 0M7.117 .935C6.019 .727 5.219 .579 4.715 .49V-2.314H6.539C6.983-2.314 7.413-2.3 7.829-2.27V-3.115C7.413-3.086 6.998-3.071 6.583-3.071H4.715V-6.364H6.094C6.509-6.364 6.954-6.349 7.428-6.319V-7.165C6.954-7.135 6.509-7.12 6.094-7.12H2.58C2.105-7.12 1.616-7.135 1.112-7.165V-6.319C1.616-6.349 2.105-6.364 2.58-6.364H3.825V-3.071H1.868C1.364-3.071 .934-3.086 .578-3.115V-2.27C.963-2.3 1.393-2.314 1.868-2.314H3.825V.356C2.669 .207 1.913 .118 1.557 .089 1.468 .415 1.334 .682 1.156 .89 1.779 .89 2.691 .986 3.892 1.179 5.093 1.372 6.005 1.587 6.628 1.825 6.835 1.38 6.998 1.083 7.117 .935" fill="#2c292a"/>
<path transform="matrix(1,0,0,-1,200.4332,224.7641)" d="M0 0H4.937C4.671-.445 4.322-.92 3.892-1.424 3.462-1.929 2.921-2.403 2.268-2.848 2.684-3.115 3.247-3.315 3.959-3.449 4.671-3.582 5.516-3.665 6.494-3.694 6.257-3.961 6.094-4.272 6.005-4.628 5.174-4.569 4.359-4.421 3.559-4.183 2.758-3.946 2.091-3.665 1.557-3.338 .608-3.783-.252-4.11-1.023-4.317-1.794-4.525-2.551-4.688-3.292-4.806-3.41-4.45-3.588-4.139-3.825-3.872-3.173-3.872-2.432-3.783-1.601-3.605-.771-3.427 .045-3.175 .845-2.848 .222-2.255-.311-1.647-.756-1.024-1.261-1.647-1.779-2.166-2.313-2.581-2.521-2.344-2.788-2.166-3.114-2.047-2.284-1.454-1.676-.883-1.29-.334-.905 .215-.623 .727-.445 1.202-.06 .994 .296 .83 .623 .712 .385 .504 .178 .267 0 0M.534-5.162C.593-4.806 .623-4.391 .623-3.916 .979-3.976 1.334-4.021 1.69-4.05 1.601-4.228 1.512-4.599 1.423-5.162H5.026C4.997-5.518 4.967-5.927 4.937-6.386 4.908-6.846 4.855-7.343 4.782-7.877 4.707-8.411 4.493-8.723 4.137-8.812 3.781-8.901 3.217-8.99 2.447-9.079 2.387-8.693 2.239-8.367 2.002-8.1 2.861-8.1 3.381-8.07 3.559-8.011 3.736-7.951 3.855-7.788 3.914-7.521L4.048-5.83H1.334C.919-7.106 .334-7.937-.423-8.322-1.179-8.707-1.987-9.049-2.847-9.346-2.936-9.079-3.144-8.767-3.469-8.411-2.758-8.351-2.017-8.129-1.245-7.743-.475-7.358 .074-6.72 .4-5.83H-.623C-1.512-5.83-2.165-5.86-2.58-5.919V-5.118C-2.135-5.148-1.468-5.162-.578-5.162ZM3.336-.668H0C.563-1.41 1.097-1.973 1.601-2.359 2.194-2.003 2.772-1.439 3.336-.668" fill="#2c292a"/>
</g>
<path transform="matrix(1,0,0,-1,282.342,245.94101)" d="M0 0H2.372 4.745L2.372-4.747ZM3.163-1.187H1.5810001V35.584H3.163Z" fill="#2c292a"/>
<path transform="matrix(1,0,0,-1,0,595.276)" d="M247.15 374.368H322.115V358.22804H247.15Z" fill="#ffffff"/>
<g clip-path="url(#clip_9)">
<path transform="matrix(1,0,0,-1,252.8163,223.65149)" d="M0 0H.934C.904-.712 .89-1.499 .89-2.359 1.304-2.359 1.779-2.344 2.313-2.314V-3.16C1.749-3.13 1.275-3.115 .89-3.115V-5.029C1.334-4.851 1.779-4.658 2.224-4.45 2.253-4.628 2.298-4.881 2.357-5.207 2.031-5.326 1.542-5.534 .89-5.83V-8.945C.89-9.449 .786-9.775 .578-9.924 .37-10.072-.074-10.206-.756-10.325-.816-9.939-.949-9.583-1.156-9.257-.652-9.257-.327-9.241-.178-9.212-.03-9.183 .044-8.99 .044-8.634V-6.141C-.667-6.438-1.142-6.646-1.379-6.764-1.498-6.468-1.631-6.171-1.779-5.874-1.512-5.845-.905-5.667 .044-5.34V-3.115C-.697-3.115-1.261-3.13-1.646-3.16V-2.314C-1.261-2.344-.697-2.359 .044-2.359 .044-1.558 .029-.772 0 0M8.096-1.202C6.375-1.439 4.937-1.617 3.781-1.736V-3.605H7.161C7.517-3.605 7.962-3.59 8.496-3.56V-4.406C7.754-4.377 7.102-4.361 6.539-4.361V-6.675C7.517-7.269 8.185-7.699 8.54-7.966 8.332-8.233 8.155-8.515 8.007-8.812 7.473-8.337 6.983-7.966 6.539-7.699V-8.767C6.539-9.36 6.553-9.864 6.583-10.28H5.649C5.678-9.835 5.694-9.33 5.694-8.767V-7.209C5.397-7.031 4.878-6.735 4.137-6.319 4.285-6.082 4.418-5.815 4.537-5.518 5.011-5.785 5.397-6.008 5.694-6.186V-4.361H3.781C3.781-5.578 3.699-6.624 3.536-7.499 3.373-8.374 2.965-9.271 2.313-10.191 2.075-9.953 1.794-9.761 1.468-9.613 1.883-9.168 2.202-8.663 2.424-8.1 2.647-7.536 2.795-6.92 2.869-6.253 2.943-5.585 2.98-4.703 2.98-3.605 2.98-2.507 2.965-1.662 2.936-1.068 3.825-1.039 4.759-.928 5.738-.734 6.717-.542 7.295-.386 7.473-.267 7.621-.594 7.829-.905 8.096-1.202" fill="#2c292a"/>
<path transform="matrix(1,0,0,-1,264.8262,224.7196)" d="M0 0H2.313C2.164-.208 1.972-.49 1.735-.846 1.497-1.202 1.334-1.469 1.245-1.647H2.847C2.787-2.24 2.758-2.834 2.758-3.427V-8.011C2.758-8.367 2.661-8.596 2.469-8.7 2.275-8.804 1.972-8.885 1.557-8.945 1.497-8.618 1.408-8.307 1.29-8.011 1.527-8.011 1.705-8.004 1.824-7.988 1.942-7.974 2.002-7.832 2.002-7.565V-6.097H1.068V-8.189H.311V-6.097H-.623C-.653-6.542-.727-7.002-.845-7.476-.964-7.951-1.157-8.47-1.423-9.034-1.69-8.885-1.972-8.737-2.268-8.589-1.972-8.173-1.75-7.662-1.601-7.054-1.453-6.446-1.364-5.667-1.334-4.717-1.305-3.768-1.305-2.819-1.334-1.869-1.572-2.136-1.765-2.344-1.913-2.492-2.091-2.255-2.298-2.047-2.535-1.869-2.091-1.513-1.683-1.076-1.312-.556-.942-.038-.638 .579-.4 1.291-.163 1.142 .148 .979 .534 .801 .296 .682 .118 .415 0 0M.356-1.647C.593-1.35 .801-1.024 .979-.668H-.445C-.712-1.024-.949-1.35-1.157-1.647ZM.311-5.385V-4.183H-.534L-.578-5.385ZM.311-2.314H-.53400006V-3.5159999H.311ZM2.002-2.314H1.0680001V-3.5159999H2.002ZM2.002-4.183H1.0680001V-5.385H2.002ZM5.516-1.914C5.841-1.914 6.101-1.899 6.294-1.869 6.487-1.84 6.598-1.751 6.628-1.602 6.657-1.454 6.701-.935 6.761-.044H5.16C4.982-.875 4.804-1.476 4.626-1.847 4.448-2.218 4.166-2.626 3.781-3.071 3.603-2.834 3.365-2.611 3.069-2.403 3.395-2.166 3.662-1.862 3.87-1.491 4.077-1.12 4.226-.638 4.315-.044 3.959-.044 3.529-.06 3.025-.089V.668C3.499 .638 3.929 .623 4.315 .623H7.651C7.562-.831 7.48-1.706 7.406-2.003 7.332-2.3 7.146-2.507 6.85-2.626 6.553-2.745 6.212-2.819 5.827-2.848 5.767-2.522 5.664-2.211 5.516-1.914M4.492-4.361H5.249C5.249-3.738 5.234-3.323 5.204-3.115H6.094C6.034-3.382 6.005-3.798 6.005-4.361H6.628C7.073-4.361 7.428-4.347 7.695-4.317V-5.118C7.309-5.059 6.924-5.029 6.539-5.029H6.005V-6.319H6.316C6.879-6.319 7.458-6.305 8.051-6.275V-7.031C7.487-7.002 6.909-6.987 6.316-6.987H6.005V-7.743C6.005-8.159 6.019-8.678 6.049-9.301H5.204C5.234-8.678 5.249-8.159 5.249-7.743V-6.987H4.27C3.943-6.987 3.529-7.002 3.025-7.031V-6.275C3.469-6.305 3.885-6.319 4.27-6.319H5.249V-5.029H4.137C4.048-5.267 3.914-5.563 3.736-5.919 3.529-5.801 3.292-5.637 3.025-5.429 3.232-5.192 3.41-4.881 3.558-4.495 3.706-4.11 3.825-3.738 3.914-3.382L4.804-3.827C4.655-3.946 4.552-4.124 4.492-4.361" fill="#2c292a"/>
<path transform="matrix(1,0,0,-1,276.1689,227.47879)" d="M0 0C-.03-.564-.045-1.142-.045-1.736V-4.272C.904-4.925 2.239-5.259 3.959-5.274 5.678-5.289 7.057-5.237 8.096-5.118 7.918-5.474 7.799-5.815 7.74-6.141 6.523-6.171 5.516-6.171 4.715-6.141 3.914-6.111 3.225-6.067 2.646-6.008 2.068-5.948 1.594-5.852 1.223-5.719 .852-5.585 .496-5.414 .156-5.207-.186-5-.482-5.022-.734-5.274-.986-5.525-1.275-5.889-1.601-6.364-1.809-6.126-2.062-5.904-2.358-5.696-1.676-5.044-1.187-4.584-.89-4.317V-.757C-1.216-.757-1.676-.772-2.268-.801V.044C-1.646 .015-1.157 0-.801 0ZM.534 1.647C.267 1.498 0 1.305-.267 1.068-.653 1.72-1.112 2.343-1.646 2.937-1.35 3.144-1.098 3.338-.89 3.516-.149 2.566 .326 1.943 .534 1.647M6.094 3.026C6.39 3.026 6.85 3.041 7.473 3.071V2.225C6.939 2.254 6.405 2.27 5.871 2.27H4.848L4.27 1.113V-3.026C4.27-3.56 4.285-4.11 4.315-4.673H3.381C3.41-4.11 3.425-3.546 3.425-2.982V-.133C2.891-.875 2.031-1.736 .845-2.715 .696-2.478 .474-2.24 .178-2.003 .83-1.647 1.475-1.128 2.113-.445 2.75 .237 3.336 1.142 3.87 2.27H1.824C1.527 2.27 1.23 2.254 .934 2.225V3.071C1.23 3.071 1.646 3.055 2.179 3.026ZM7.873-2.047C7.606-2.196 7.339-2.389 7.072-2.626 6.776-2.151 6.094-1.291 5.026-.044 5.263 .134 5.471 .326 5.649 .534 6.064 .089 6.805-.772 7.873-2.047" fill="#2c292a"/>
<path transform="matrix(1,0,0,-1,286.266,231.0167)" d="M0 0C.178 .905 .267 1.654 .267 2.247V5.496C.267 6.119 .251 6.579 .222 6.876H7.384C8.036 6.876 8.496 6.89 8.763 6.92V6.119C8.525 6.148 8.066 6.164 7.384 6.164H1.156V2.381C1.126 1.52 1.06 .771 .956 .133 .852-.505 .689-1.09 .467-1.624 .245-2.158 .044-2.574-.134-2.87-.43-2.663-.742-2.514-1.068-2.425-.534-1.713-.178-.905 0 0M2.157-1.046C2.498-.69 2.787-.305 3.025 .111 3.292-.156 3.528-.364 3.736-.512 2.936-1.462 2.253-2.143 1.69-2.559 1.512-2.351 1.304-2.143 1.067-1.936 1.453-1.699 1.816-1.402 2.157-1.046M4.848 4.74H8.14C8.11 4.473 8.095 4.057 8.095 3.493V2.114C8.095 1.639 8.11 1.194 8.14 .779H5.649V-1.936C5.649-2.351 5.516-2.61 5.249-2.715 4.982-2.818 4.552-2.9 3.959-2.959 3.899-2.603 3.795-2.262 3.647-1.936 4.21-1.965 4.537-1.958 4.626-1.914 4.715-1.869 4.759-1.743 4.759-1.535V.779H2.224C2.253 1.135 2.268 1.565 2.268 2.069V3.538C2.268 4.012 2.253 4.413 2.224 4.74H4.048C4.226 5.392 4.315 5.822 4.315 6.03L5.293 5.763C5.085 5.466 4.937 5.125 4.848 4.74M7.206 4.072H3.1139999V3.093H7.206ZM7.206 2.425H3.1139999V1.49H7.206ZM8.985-1.802C8.777-1.98 8.569-2.188 8.362-2.425 7.977-1.951 7.339-1.328 6.45-.556 6.657-.319 6.85-.111 7.028 .067 8.066-.853 8.718-1.476 8.985-1.802" fill="#2c292a"/>
<path transform="matrix(1,0,0,-1,296.5855,227.47879)" d="M0 0C.445-.03 .979-.044 1.601-.044H3.292C3.825-.044 4.433-.03 5.115 0V-.801C4.433-.772 3.84-.757 3.336-.757H2.847C2.669-1.231 2.469-1.736 2.246-2.27 2.024-2.804 1.764-3.338 1.468-3.872 2.624-3.754 3.499-3.635 4.092-3.516 3.944-3.16 3.707-2.715 3.381-2.181 3.707-2.003 3.944-1.854 4.092-1.736 4.388-2.27 4.641-2.722 4.849-3.093 5.055-3.464 5.278-3.916 5.516-4.45 5.278-4.599 5.011-4.747 4.715-4.895 4.596-4.628 4.492-4.406 4.404-4.228 3.454-4.377 2.691-4.495 2.113-4.584 1.535-4.673 1.038-4.792 .623-4.94 .504-4.644 .356-4.361 .178-4.094 .563-3.857 .912-3.382 1.223-2.67 1.535-1.958 1.764-1.32 1.913-.757H1.601C.979-.757 .445-.772 0-.801ZM3.069 2.492C3.573 2.492 4.137 2.507 4.76 2.537V1.691C4.137 1.72 3.573 1.736 3.069 1.736H2.002C1.527 1.736 1.068 1.72 .623 1.691V2.537C1.038 2.507 1.483 2.492 1.957 2.492ZM7.873 3.649C7.813 3.352 7.776 3.019 7.762 2.648 7.747 2.277 7.74 1.825 7.74 1.291H10.231C10.201 .905 10.171 .474 10.142 0L9.919-5.073C9.83-5.666 9.586-6.03 9.185-6.164 8.785-6.297 8.333-6.393 7.829-6.453 7.74-6.097 7.591-5.77 7.384-5.474 8.036-5.503 8.481-5.466 8.718-5.363 8.955-5.259 9.074-5.059 9.074-4.762L9.341 .534H7.74C7.68-.772 7.584-1.766 7.451-2.448 7.317-3.13 7.109-3.76 6.828-4.339 6.546-4.918 5.975-5.666 5.115-6.586 4.819-6.289 4.552-6.097 4.315-6.008 4.878-5.563 5.338-5.096 5.694-4.606 6.049-4.117 6.301-3.612 6.45-3.093 6.598-2.574 6.701-2.033 6.761-1.469 6.82-.905 6.865-.238 6.894 .534H6.138C5.812 .534 5.427 .519 4.982 .49V1.335C5.427 1.305 5.842 1.291 6.227 1.291H6.894V2.537C6.894 2.952 6.879 3.367 6.85 3.783 7.206 3.694 7.547 3.649 7.873 3.649" fill="#2c292a"/>
<path transform="matrix(1,0,0,-1,310.597,225.9656)" d="M0 0V-5.696C0-6.646 .015-7.402 .044-7.966H-.979C-.949-7.432-.934-6.691-.934-5.741V-1.558C-1.35-2.24-1.75-2.819-2.135-3.293-2.373-2.937-2.58-2.685-2.758-2.537-2.373-2.122-1.906-1.432-1.357-.467-.808 .496-.4 1.483-.133 2.492 .193 2.284 .578 2.092 1.023 1.914 .756 1.706 .415 1.068 0 0M3.158 .401H6.094C6.746 .401 7.265 .415 7.651 .445V-.356C7.265-.327 6.746-.312 6.094-.312H4.048V-2.047H5.872C6.375-2.047 6.79-2.033 7.117-2.003V-2.848C6.731-2.819 6.316-2.804 5.872-2.804H4.048V-4.806H5.961C6.553-4.806 7.043-4.792 7.429-4.762V-5.607C7.043-5.578 6.568-5.563 6.005-5.563H4.048V-6.408C4.048-7.239 4.062-7.803 4.092-8.1H3.158C3.188-7.773 3.203-7.328 3.203-6.764V-.312H2.758C2.313-1.083 1.883-1.751 1.468-2.314 1.141-2.018 .86-1.825 .623-1.736 1.038-1.32 1.468-.727 1.913 .044 2.357 .816 2.714 1.647 2.98 2.537 3.425 2.329 3.81 2.181 4.137 2.092 3.84 1.854 3.514 1.291 3.158 .401" fill="#2c292a"/>
</g>
<path transform="matrix(1,0,0,-1,282.342,273.9099)" d="M0 0H2.372 4.745L2.372-4.747ZM3.163-1.187H1.5810001V7.29H3.163Z" fill="#2c292a"/>
<path transform="matrix(1,0,0,-1,282.342,325.0696)" d="M0 0H2.372 4.745L2.372-4.747ZM3.163-1.187H1.5810001V28.927H3.163Z" fill="#2c292a"/>
<path transform="matrix(1,0,0,-1,0,595.276)" d="M230.307 291.77H338.959V275.63H230.307Z" fill="#ffffff"/>
<g clip-path="url(#clip_10)">
<path transform="matrix(1,0,0,-1,256.6481,316.0543)" d="M0 0C.356 .475 .615 .957 .778 1.446 .941 1.936 1.082 2.529 1.201 3.226 1.319 3.923 1.379 4.702 1.379 5.563V7.743C1.379 8.337 1.349 8.856 1.29 9.301H8.185C8.836 9.301 9.341 9.316 9.697 9.346V8.5C9.4 8.529 9 8.545 8.496 8.545H2.268C2.268 6.646 2.261 5.392 2.246 4.784 2.231 4.176 2.187 3.575 2.113 2.982 2.039 2.388 1.95 1.898 1.846 1.513 1.742 1.127 1.624 .763 1.49 .423 1.357 .082 1.201-.223 1.023-.49 .726-.282 .385-.118 0 0M6.227 5.162C6.109 4.301 5.967 3.612 5.805 3.093 5.641 2.573 5.441 2.114 5.204 1.713 4.967 1.313 4.693 .942 4.381 .601 4.07 .26 3.706-.074 3.292-.401 2.995-.074 2.654 .163 2.268 .312 2.95 .668 3.477 1.046 3.848 1.446 4.218 1.847 4.507 2.27 4.715 2.715 4.922 3.16 5.063 3.553 5.138 3.894 5.211 4.235 5.278 4.658 5.338 5.162H4.448C3.736 5.162 3.247 5.147 2.98 5.118V5.963C3.543 5.933 4.003 5.919 4.359 5.919H5.382C5.411 6.304 5.427 6.675 5.427 7.031V8.322C5.842 8.203 6.212 8.129 6.539 8.1 6.45 7.655 6.39 7.276 6.361 6.965 6.331 6.653 6.301 6.304 6.272 5.919H9.653C9.593 5.474 9.534 4.836 9.474 4.005 9.415 3.174 9.37 2.484 9.341 1.936 9.311 1.387 9.252 .949 9.163 .623 9.074 .297 8.844 .082 8.474-.022 8.103-.126 7.695-.207 7.25-.267 7.161 .089 7.013 .475 6.806 .89 7.428 .86 7.829 .875 8.007 .935 8.185 .994 8.296 1.253 8.34 1.713 8.385 2.173 8.436 2.715 8.496 3.338 8.555 3.961 8.599 4.568 8.629 5.162Z" fill="#2c292a"/>
<path transform="matrix(1,0,0,-1,272.8838,305.9966)" d="M0 0C.474-.06 .874-.104 1.201-.134 1.082-.401 1.023-.964 1.023-1.825H4.537C4.507-2.359 4.492-2.982 4.492-3.694 4.492-4.377 4.507-4.984 4.537-5.518H.979C.919-5.993 .837-6.461 .734-6.92 .63-7.381 .489-7.773 .311-8.1 .696-8.396 1.141-8.619 1.646-8.767 2.15-8.916 2.669-9.02 3.203-9.079 3.736-9.138 4.581-9.153 5.738-9.123 5.411-9.419 5.219-9.746 5.16-10.102 4.359-10.102 3.677-10.058 3.114-9.969 2.55-9.88 2.009-9.761 1.49-9.613 .971-9.464 .37-9.183-.311-8.767-1.112-9.331-1.831-9.716-2.469-9.924-3.107-10.131-3.647-10.28-4.092-10.369-4.241-9.983-4.464-9.686-4.759-9.479-4.196-9.449-3.559-9.331-2.847-9.123-2.135-8.916-1.557-8.649-1.112-8.322-2.002-7.521-2.654-6.794-3.069-6.141-2.713-6.112-2.402-6.023-2.135-5.874-1.512-6.646-.964-7.225-.489-7.61-.311-7.254-.186-6.906-.111-6.564-.038-6.223 .015-5.874 .045-5.518H-3.647C-3.618-4.984-3.603-4.377-3.603-3.694-3.603-2.982-3.618-2.359-3.647-1.825H.089C.089-.935 .059-.327 0 0M.089-2.581H-2.669V-4.762H.089ZM3.558-2.581H1.023V-4.762H3.558ZM3.558-4.762" fill="#2c292a"/>
<path transform="matrix(1,0,0,-1,282.6251,313.0281)" d="M0 0C.385 .059 .801 .118 1.246 .178V-.579C.979-.608 .563-.668 0-.757 0-1.944 .015-2.804 .044-3.338H-.845C-.816-2.418-.801-1.617-.801-.935-1.987-1.113-2.743-1.246-3.069-1.335-3.129-1.009-3.188-.697-3.247-.401-2.832-.371-2.017-.297-.801-.178V1.335C-1.75 1.335-2.432 1.275-2.847 1.157L-3.158 2.047C-2.891 2.254-2.646 2.596-2.424 3.071-2.202 3.545-2.017 4.034-1.868 4.539-2.165 4.539-2.58 4.524-3.114 4.495V5.296C-2.64 5.266-2.165 5.251-1.69 5.251-1.483 5.874-1.35 6.423-1.29 6.898-.786 6.749-.445 6.646-.267 6.586-.445 6.29-.652 5.844-.89 5.251H1.023V4.495C.548 4.524 .148 4.539-.178 4.539H-1.067C-1.216 4.094-1.557 3.263-2.09 2.047H-.801C-.801 2.699-.816 3.233-.845 3.649H.044C.015 3.293 0 2.759 0 2.047 .385 2.047 .756 2.062 1.112 2.092V1.291C.786 1.32 .415 1.335 0 1.335ZM3.514-2.247C2.861-1.818 2.283-1.499 1.779-1.291 1.957-1.083 2.12-.861 2.269-.623 2.595-.801 3.069-1.068 3.692-1.424 4.285-.712 4.819-.06 5.293 .534H2.135L2.669 2.403H2.447C2.091 2.403 1.69 2.388 1.246 2.359V3.16C1.631 3.13 2.002 3.115 2.357 3.115H2.847L3.158 4.495H2.758C2.224 4.495 1.824 4.479 1.557 4.45V5.251C2.002 5.192 2.357 5.162 2.625 5.162H3.247C3.365 5.844 3.44 6.423 3.47 6.898L4.537 6.72C4.388 6.482 4.292 6.26 4.248 6.052 4.203 5.844 4.137 5.548 4.048 5.162H5.649C6.034 5.162 6.405 5.177 6.761 5.207V4.45C6.257 4.479 5.842 4.495 5.516 4.495H3.959L3.648 3.115H5.516C5.99 3.115 6.523 3.13 7.117 3.16V2.359C6.553 2.388 5.99 2.403 5.427 2.403H3.47L3.158 1.157H6.539V.445C6.331 .326 6.056 .089 5.716-.267 5.375-.623 4.937-1.157 4.404-1.869 4.908-2.196 5.367-2.507 5.783-2.804L5.249-3.516C4.744-3.1 4.166-2.677 3.514-2.247" fill="#2c292a"/>
<path transform="matrix(1,0,0,-1,294.101,307.621)" d="M0 0C-.119-.252-.267-.586-.445-1.001V-6.52C-.445-7.41-.43-8.136-.4-8.7H-1.334C-1.305-8.195-1.29-7.484-1.29-6.564V-2.292C-1.557-2.678-1.787-2.989-1.979-3.226-2.172-3.464-2.343-3.671-2.491-3.849-2.699-3.612-2.936-3.404-3.203-3.226-2.788-2.841-2.432-2.433-2.135-2.003-1.839-1.573-1.579-1.157-1.357-.757-1.134-.356-.949 .037-.801 .423-.652 .808-.534 1.12-.445 1.357-.267 1.209 .074 1.06 .578 .912 .311 .556 .118 .252 0 0M3.247 .111V-3.048C3.81-2.574 4.329-2.085 4.804-1.58 5.278-1.076 5.649-.572 5.916-.067 6.153-.305 6.45-.527 6.806-.734 6.568-1.001 6.168-1.424 5.605-2.003 5.041-2.581 4.604-2.997 4.292-3.249 3.981-3.501 3.632-3.79 3.247-4.117V-6.92C3.247-7.395 3.44-7.632 3.825-7.632H5.56C5.797-7.603 5.953-7.477 6.027-7.254 6.101-7.031 6.168-6.683 6.227-6.208 6.494-6.446 6.835-6.594 7.25-6.653 7.073-7.484 6.879-7.988 6.672-8.166 6.464-8.344 6.183-8.433 5.827-8.433H3.336C2.713-8.433 2.387-8.077 2.357-7.365V-4.74C2.15-4.918 1.89-5.111 1.579-5.318 1.268-5.526 .919-5.749 .534-5.986 .356-5.689 .148-5.437-.089-5.229 .296-5.051 .719-4.822 1.179-4.539 1.638-4.258 2.031-3.983 2.357-3.716V.289C2.357 .645 2.342 .957 2.313 1.224H3.292C3.262 1.075 3.247 .704 3.247 .111" fill="#2c292a"/>
<path transform="matrix(1,0,0,-1,308.1127,307.2872)" d="M0 0H2.224C2.758 0 3.35 .015 4.003 .045V-.712C3.35-.653 2.742-.623 2.179-.623H-1.335C-1.127-.772-.831-.935-.445-1.113-.712-1.291-.964-1.506-1.201-1.758-1.439-2.01-1.676-2.255-1.913-2.492H-.489C-.134-2.136 .162-1.751 .4-1.335 .667-1.543 .963-1.751 1.29-1.958 .904-2.166 .504-2.492 .089-2.937-.327-3.382-.905-3.902-1.646-4.495L.534-4.317C.385-4.139 .237-3.946 .089-3.738 .267-3.679 .504-3.546 .801-3.338 1.097-3.694 1.512-4.258 2.046-5.029 1.779-5.118 1.497-5.267 1.201-5.474 1.141-5.296 1.023-5.103 .845-4.895 .459-4.925 .103-4.94-.223-4.94V-6.186H2.847C3.469-6.186 4.032-6.171 4.537-6.141V-6.898C4.062-6.869 3.484-6.853 2.802-6.853H-.223V-7.743C-.223-8.307-.208-8.782-.178-9.168H-1.157C-1.127-8.782-1.112-8.307-1.112-7.743V-6.853H-3.959C-4.553-6.853-5.145-6.869-5.738-6.898V-6.141C-5.145-6.171-4.537-6.186-3.914-6.186H-1.112V-5.029C-1.379-5.059-1.646-5.096-1.913-5.14-2.18-5.185-2.447-5.251-2.714-5.34-2.802-5.044-2.907-4.762-3.025-4.495-2.758-4.466-2.476-4.347-2.18-4.139-1.883-3.932-1.498-3.576-1.023-3.071-1.824-3.16-2.387-3.264-2.714-3.382-2.773-3.086-2.877-2.759-3.025-2.403-2.758-2.403-2.476-2.218-2.18-1.847-1.883-1.476-1.631-1.068-1.423-.623H-3.292C-3.944-.623-4.567-.653-5.16-.712V.045C-4.567 .015-4.033 0-3.559 0H-1.023C-1.112 .356-1.216 .652-1.335 .89-1.068 .949-.756 1.024-.401 1.113-.282 .816-.149 .445 0 0M-3.069-4.139C-3.366-4.317-3.663-4.517-3.959-4.74-4.256-4.962-4.567-5.222-4.893-5.518-5.101-5.222-5.293-4.955-5.471-4.717-5.086-4.539-4.715-4.339-4.359-4.117-4.003-3.894-3.692-3.679-3.425-3.471-3.307-3.679-3.188-3.902-3.069-4.139M-3.158-2.225C-3.396-2.433-3.603-2.641-3.781-2.848-4.197-2.403-4.642-2.047-5.116-1.78-4.878-1.573-4.656-1.38-4.448-1.202-4.003-1.499-3.574-1.84-3.158-2.225M3.114-2.247C2.817-2.47 2.52-2.73 2.224-3.026 2.016-2.759 1.824-2.552 1.646-2.403 1.913-2.225 2.15-2.04 2.357-1.847 2.564-1.654 2.817-1.395 3.114-1.068 3.38-1.335 3.632-1.573 3.87-1.78 3.662-1.869 3.41-2.025 3.114-2.247M3.18-3.894C3.432-4.057 3.751-4.288 4.137-4.584 3.899-4.762 3.677-4.97 3.469-5.207 3.232-5 2.972-4.777 2.691-4.539 2.409-4.302 2.12-4.094 1.824-3.916 2.001-3.738 2.164-3.546 2.313-3.338 2.639-3.546 2.928-3.731 3.18-3.894" fill="#2c292a"/>
</g>
<path transform="matrix(1,0,0,-1,282.342,354.3682)" d="M0 0H2.372 4.745L2.372-4.747ZM3.163-1.187H1.5810001V7.29H3.163Z" fill="#2c292a"/>
<g clip-path="url(#clip_11)">
<path transform="matrix(1,0,0,-1,329.784,372.925)" d="M0 0V1.582C1.602 1.582 3.837 6.694 3.837 15.02V45.164C3.837 51.054 5.08 57.242 7.418 59.393 5.08 61.544 3.837 67.733 3.837 73.622V103.766C3.837 112.092 1.602 117.204 0 117.204V118.786C3.52 118.786 5.42 111.048 5.42 103.766V73.622C5.42 65.296 7.655 60.184 9.257 60.184V58.602C7.655 58.602 5.42 53.49 5.42 45.164V15.02C5.42 7.739 3.52 0 0 0" fill="#f43040"/>
<path transform="matrix(1,0,0,-1,349.1708,301.0406)" d="M0 0C.556 1.032 .982 2.072 1.277 3.12 1.604 2.924 1.931 2.776 2.259 2.678 1.997 2.252 1.653 1.45 1.228 .27V-5.676C1.228-6.757 1.244-7.543 1.277-8.034H.295C.327-7.477 .344-6.675 .344-5.626V-1.351C.016-1.876-.312-2.383-.639-2.875-.868-2.514-1.113-2.253-1.375-2.088-1.015-1.728-.557-1.032 0 0M3.438 1.4C3.438 1.957 3.421 2.383 3.389 2.678H4.371C4.338 2.383 4.322 1.957 4.322 1.4V.074C4.682 .074 5.091 .09 5.55 .123V-.762C4.993-.729 4.584-.712 4.322-.712V-2.482H5.55C5.517-2.941 5.501-3.595 5.501-4.447 5.501-5.299 5.517-5.938 5.55-6.363H4.617V-5.872H3.094V-6.904H2.161C2.193-6.445 2.21-5.708 2.21-4.693 2.21-3.678 2.193-2.941 2.161-2.482H3.438V-.712C2.849-.712 2.357-.729 1.965-.762V.123C2.324 .09 2.815 .074 3.438 .074ZM4.617-3.219H3.094V-5.135H4.617ZM6.066 0C6.409 .934 6.663 1.924 6.827 2.973 7.154 2.842 7.547 2.71 8.006 2.58 7.776 2.35 7.481 1.629 7.122 .418H8.3C8.922 .418 9.43 .434 9.823 .467V-.319C9.495-.287 9.216-.27 8.988-.27 9.02-2.302 8.725-4.071 8.104-5.577 8.66-6.363 9.283-6.904 9.97-7.199 9.61-7.494 9.364-7.772 9.233-8.034 8.709-7.673 8.136-7.101 7.515-6.314 6.957-7.002 6.221-7.641 5.304-8.231 5.108-7.968 4.862-7.722 4.568-7.494 5.419-7.166 6.221-6.528 6.974-5.577 6.581-4.824 6.27-3.678 6.041-2.138L5.844-2.58C5.648-2.351 5.402-2.138 5.108-1.941 5.402-1.581 5.722-.934 6.066 0M6.729-1.302C6.99-3.006 7.252-4.12 7.515-4.644 7.874-3.694 8.071-2.253 8.104-.319H6.876C6.778-.582 6.63-.958 6.434-1.45Z" fill="#2c292a"/>
<path transform="matrix(1,0,0,-1,364.1279,299.3945)" d="M0 0C-.197-.361-.393-.754-.589-1.179V-7.911C-.589-8.763-.573-9.435-.54-9.926H-1.67C-1.638-9.369-1.621-8.73-1.621-8.01V-2.997C-2.014-3.685-2.44-4.341-2.898-4.963-3.094-4.734-3.34-4.489-3.634-4.226-3.045-3.636-2.424-2.703-1.768-1.425-1.114-.147-.704 .835-.54 1.523-.18 1.294 .197 1.113 .589 .983 .393 .688 .197 .36 0 0M3.143-2.506V-.049C3.143 .409 3.126 .901 3.094 1.425H4.224C4.158 .901 4.126 .409 4.126-.049V-2.506H6.139C6.564-2.506 7.072-2.49 7.662-2.457V-3.44C7.105-3.407 6.614-3.391 6.188-3.391H4.126V-8.206C4.126-8.73 4.142-9.27 4.175-9.828H3.094C3.126-9.303 3.143-8.779 3.143-8.255V-3.391H1.424C.9-3.391 .393-3.407-.098-3.44V-2.457C.393-2.49 .884-2.506 1.375-2.506Z" fill="#2c292a"/>
<path transform="matrix(1,0,0,-1,378.4219,299.9596)" d="M0 0C-.442-.705-1.007-1.45-1.694-2.236-2.382-3.022-3.315-3.907-4.494-4.889-4.723-4.529-4.985-4.234-5.28-4.005-4.462-3.546-3.544-2.72-2.529-1.523-1.515-.328-.761 .827-.27 1.941 .155 1.646 .516 1.433 .811 1.302 .712 1.138 .442 .704 0 0M1.719-2.727C1.179-3.481 .499-4.3-.319-5.184-1.138-6.069-1.859-6.789-2.48-7.346-1.76-7.314-.819-7.265 .344-7.199 1.506-7.133 2.628-7.068 3.708-7.002 3.184-6.086 2.742-5.381 2.382-4.889 2.709-4.693 2.988-4.48 3.217-4.25 3.741-4.971 4.248-5.7 4.74-6.437 5.231-7.174 5.656-7.871 6.017-8.526 5.787-8.591 5.443-8.803 4.985-9.164 4.789-8.771 4.543-8.345 4.248-7.887 2.644-7.953 .933-8.067-.884-8.231-2.701-8.394-3.708-8.542-3.904-8.673-4.036-8.28-4.183-7.871-4.346-7.444-3.855-7.412-2.996-6.757-1.768-5.479-.54-4.201 .63-2.548 1.744-.516 2.071-.811 2.447-1.073 2.873-1.302 2.644-1.499 2.259-1.974 1.719-2.727" fill="#2c292a"/>
<path transform="matrix(1,0,0,-1,348.827,323.8775)" d="M0 0C-.328 .197-.623 .344-.884 .442-.459 1.162-.017 2.129 .442 3.341 .737 3.177 1.047 3.03 1.375 2.899 .884 1.785 .425 .818 0 0M7.318 9.385C8.071 9.385 8.758 9.402 9.381 9.435V8.501C8.758 8.533 8.071 8.55 7.318 8.55H3.291V7.469H6.63C7.285 7.469 7.957 7.485 8.644 7.518V6.634C8.022 6.666 7.35 6.683 6.63 6.683H3.291V5.553H7.023C7.809 5.553 8.497 5.569 9.086 5.602V4.717C8.332 4.75 7.645 4.766 7.023 4.766H3.291V3.833H2.308C2.341 4.651 2.357 5.356 2.357 5.946V8.452C1.735 7.666 .998 6.912 .147 6.191-.115 6.486-.377 6.699-.639 6.83 .9 7.977 1.997 9.319 2.652 10.86 3.012 10.63 3.34 10.434 3.634 10.27 3.405 10.007 3.192 9.713 2.996 9.385ZM3.242 1.769C3.242 1.376 3.249 1.089 3.266 .909 3.282 .729 3.487 .622 3.88 .59H6.434C6.761 .59 6.982 .663 7.097 .811 7.211 .958 7.35 1.245 7.515 1.671 7.809 1.343 8.12 1.113 8.448 .983 8.185 .459 7.907 .123 7.613-.025 7.318-.172 6.99-.246 6.63-.246H3.143C2.619-.246 2.333-.09 2.284 .221 2.235 .533 2.218 .958 2.235 1.499 2.251 2.039 2.242 2.587 2.21 3.145H3.291C3.258 2.653 3.242 2.194 3.242 1.769M6.139 2.162C5.812 1.966 5.55 1.785 5.353 1.622 4.993 2.178 4.568 2.735 4.076 3.292 4.305 3.456 4.551 3.652 4.813 3.882 5.238 3.391 5.68 2.817 6.139 2.162M10.265 1.179C10.035 1.015 9.774 .818 9.479 .59 8.89 1.376 8.251 2.113 7.563 2.801 7.76 2.965 7.989 3.177 8.251 3.44 8.939 2.686 9.609 1.933 10.265 1.179" fill="#2c292a"/>
<path transform="matrix(1,0,0,-1,365.7731,315.1554)" d="M0 0C-.442-.705-1.007-1.45-1.694-2.236-2.382-3.022-3.315-3.907-4.494-4.889-4.723-4.529-4.985-4.234-5.28-4.005-4.462-3.546-3.544-2.72-2.529-1.523-1.515-.328-.761 .827-.27 1.941 .155 1.646 .516 1.433 .811 1.302 .712 1.138 .442 .704 0 0M1.719-2.727C1.179-3.481 .499-4.3-.319-5.184-1.138-6.069-1.859-6.789-2.48-7.346-1.76-7.314-.819-7.265 .344-7.199 1.506-7.133 2.628-7.068 3.708-7.002 3.184-6.086 2.742-5.381 2.382-4.889 2.709-4.693 2.988-4.48 3.217-4.25 3.741-4.971 4.248-5.7 4.74-6.437 5.231-7.174 5.656-7.871 6.017-8.526 5.787-8.591 5.443-8.803 4.985-9.164 4.789-8.771 4.543-8.345 4.248-7.887 2.644-7.953 .933-8.067-.884-8.231-2.701-8.394-3.708-8.542-3.904-8.673-4.036-8.28-4.183-7.871-4.346-7.445-3.855-7.412-2.996-6.757-1.768-5.479-.54-4.201 .63-2.548 1.744-.516 2.071-.811 2.447-1.073 2.873-1.302 2.644-1.499 2.259-1.974 1.719-2.727" fill="#2c292a"/>
<path transform="matrix(1,0,0,-1,374.4683,316.2365)" d="M0 0C.556 1.032 .982 2.071 1.277 3.12 1.604 2.924 1.932 2.776 2.259 2.678 1.997 2.252 1.653 1.45 1.228 .27V-5.676C1.228-6.757 1.244-7.543 1.277-8.034H.295C.327-7.477 .344-6.675 .344-5.626V-1.351C.016-1.876-.312-2.383-.639-2.875-.868-2.514-1.113-2.253-1.375-2.088-1.015-1.728-.557-1.032 0 0M3.438 1.4C3.438 1.957 3.421 2.383 3.389 2.678H4.371C4.338 2.383 4.322 1.957 4.322 1.4V.074C4.682 .074 5.091 .09 5.55 .123V-.762C4.993-.729 4.584-.713 4.322-.713V-2.482H5.55C5.517-2.941 5.501-3.595 5.501-4.447 5.501-5.299 5.517-5.938 5.55-6.363H4.617V-5.872H3.094V-6.904H2.161C2.193-6.446 2.21-5.708 2.21-4.693 2.21-3.678 2.193-2.941 2.161-2.482H3.438V-.713C2.849-.713 2.358-.729 1.965-.762V.123C2.324 .09 2.816 .074 3.438 .074ZM4.617-3.219H3.094V-5.135H4.617ZM6.066 0C6.409 .934 6.663 1.924 6.827 2.973 7.154 2.842 7.547 2.71 8.006 2.58 7.776 2.35 7.481 1.629 7.122 .418H8.3C8.922 .418 9.43 .434 9.823 .467V-.319C9.495-.287 9.217-.27 8.988-.27 9.02-2.302 8.725-4.071 8.104-5.577 8.66-6.363 9.283-6.904 9.97-7.199 9.61-7.494 9.364-7.772 9.233-8.034 8.709-7.673 8.136-7.101 7.515-6.314 6.957-7.002 6.221-7.641 5.304-8.231 5.108-7.968 4.862-7.722 4.568-7.494 5.419-7.166 6.221-6.528 6.974-5.577 6.581-4.824 6.27-3.678 6.041-2.138L5.845-2.58C5.648-2.351 5.402-2.138 5.108-1.941 5.402-1.581 5.722-.934 6.066 0M6.729-1.302C6.99-3.006 7.252-4.12 7.515-4.644 7.874-3.694 8.071-2.253 8.104-.319H6.876C6.778-.582 6.63-.958 6.434-1.45Z" fill="#2c292a"/>
<path transform="matrix(1,0,0,-1,111.4716,340.94453)" d="M0 0C-3.52 0-5.42 7.739-5.42 15.02V45.164C-5.42 53.49-7.655 58.602-9.257 58.602V60.184C-7.655 60.184-5.42 65.297-5.42 73.622V103.766C-5.42 111.048-3.52 118.786 0 118.786V117.204C-1.602 117.204-3.837 112.092-3.837 103.766V73.622C-3.837 67.733-5.08 61.544-7.418 59.393-5.08 57.242-3.837 51.054-3.837 45.164V15.02C-3.837 6.695-1.602 1.582 0 1.582Z" fill="#f43040"/>
</g>
<path transform="matrix(1,0,0,-1,0,595.276)" d="M40.758 325.949H102.201007V292.958H40.758Z" fill="#ffffff"/>
<g clip-path="url(#clip_12)">
<path transform="matrix(1,0,0,-1,48.1367,283.5774)" d="M0 0C.032 .623 .049 1.392 .049 2.31V5.16C-.312 4.733-.622 4.422-.884 4.226-1.081 4.553-1.277 4.799-1.473 4.963-.95 5.356-.442 5.814 .049 6.339 .54 6.862 1.031 7.518 1.522 8.304 1.817 8.01 2.112 7.78 2.406 7.616 2.21 7.42 2.005 7.199 1.793 6.953 1.579 6.707 1.309 6.388 .982 5.995V2.211C.982 1.327 .998 .59 1.031 0ZM1.179 9.238C.655 8.615 .13 8.042-.393 7.518-.622 7.78-.884 8.01-1.179 8.206-.754 8.501-.295 8.926 .196 9.484 .688 10.04 1.097 10.614 1.424 11.204 1.784 10.909 2.095 10.679 2.357 10.516 2.095 10.286 1.702 9.86 1.179 9.238M3.831 5.749C3.765 4.7 3.61 3.784 3.364 2.997 3.119 2.211 2.701 1.392 2.112 .54 1.849 .77 1.555 .967 1.228 1.13 1.686 1.654 2.038 2.211 2.284 2.801 2.529 3.391 2.709 4.054 2.824 4.791 2.938 5.528 2.987 6.355 2.971 7.273 2.954 8.189 2.93 8.943 2.898 9.533H5.746C5.746 10.056 5.729 10.679 5.697 11.4H6.68C6.647 10.777 6.63 10.155 6.63 9.533H9.823C9.593 9.041 9.348 8.354 9.086 7.469 8.791 7.534 8.464 7.583 8.104 7.616 8.267 8.042 8.398 8.419 8.497 8.747H6.63V6.535H8.841C8.709 6.011 8.513 5.372 8.251 4.619 7.989 3.865 7.58 3.128 7.023 2.408 7.416 2.113 7.874 1.85 8.398 1.622 8.922 1.392 9.43 1.228 9.921 1.13 9.659 .901 9.413 .574 9.184 .147 8.824 .279 8.365 .491 7.809 .786 7.252 1.081 6.794 1.392 6.434 1.72 5.68 1.098 4.747 .54 3.634 .049 3.47 .377 3.242 .672 2.947 .934 3.896 1.162 4.829 1.638 5.746 2.359 5.353 2.85 5.05 3.358 4.838 3.882 4.624 4.406 4.436 5.028 4.273 5.749ZM5.746 8.747H3.8799997V6.536H5.746ZM6.385 3.047C6.974 3.767 7.399 4.668 7.662 5.749H5.157C5.452 4.537 5.861 3.636 6.385 3.047" fill="#2c292a"/>
<path transform="matrix(1,0,0,-1,62.7991,282.4718)" d="M0 0C-.491-.147-1.007-.295-1.547-.442-2.087-.59-2.473-.745-2.701-.909-2.865-.516-3.029-.139-3.192 .221-2.898 .253-2.636 .302-2.407 .369V5.725C-2.407 6.15-2.44 6.625-2.505 7.15H-1.473C-1.506 6.625-1.522 6.134-1.522 5.676V.516C-1.064 .614-.589 .729-.098 .86V8.231C-.098 8.689-.115 9.197-.147 9.754H.884C.851 9.197 .835 8.689 .835 8.231V6.118C1.719 6.118 2.324 6.15 2.652 6.216V5.184C2.226 5.216 1.621 5.233 .835 5.233V1.106C1.424 1.236 2.014 1.384 2.603 1.548V.614C1.358 .352 .491 .147 0 0M4.224 8.329V5.528C4.715 5.79 5.231 6.118 5.771 6.511 6.311 6.904 6.745 7.28 7.073 7.641 7.334 7.28 7.596 6.936 7.858 6.609 6.188 5.659 4.977 4.955 4.224 4.496V.811C4.191 .319 4.436 .09 4.961 .123H6.041C6.172 .123 6.303 .18 6.434 .295 6.564 .409 6.696 .827 6.827 1.548 7.154 1.318 7.531 1.138 7.957 1.007 7.727 .188 7.473-.319 7.195-.516 6.917-.713 6.581-.811 6.188-.811H4.715C3.667-.876 3.176-.45 3.242 .467V8.329C3.242 8.886 3.225 9.442 3.193 10H4.273C4.24 9.508 4.224 8.951 4.224 8.329" fill="#2c292a"/>
<path transform="matrix(1,0,0,-1,73.3358,273.848)" d="M0 0C0 .59-.017 1.113-.049 1.572H.933C.9 1.015 .884 .491 .884 0V-1.966C1.309-1.966 1.735-1.949 2.161-1.916V-2.85C1.702-2.818 1.277-2.801 .884-2.801V-8.108C.884-8.73 .9-9.221 .933-9.582H-.049C-.017-9.254 0-8.763 0-8.108V-2.801C-.459-2.801-.917-2.818-1.375-2.85V-1.916C-.884-1.949-.426-1.966 0-1.966ZM7.564-6.191C7.564-5.93 7.547-5.668 7.515-5.405H8.497C8.464-5.668 8.448-5.93 8.448-6.191H8.792C9.381-6.191 9.888-6.175 10.314-6.142V-7.076C9.855-7.044 9.348-7.027 8.792-7.027H8.448V-8.648C8.448-9.172 8.276-9.484 7.932-9.582 7.588-9.68 7.154-9.779 6.63-9.877 6.564-9.516 6.434-9.172 6.238-8.845 6.794-8.845 7.154-8.828 7.318-8.796 7.482-8.763 7.564-8.567 7.564-8.206V-7.027H3.438C2.75-7.027 2.21-7.06 1.817-7.125V-6.142C2.21-6.175 2.75-6.191 3.438-6.191ZM5.206 .393C5.206 .95 5.189 1.359 5.157 1.622H6.188C6.155 1.294 6.139 .884 6.139 .393H8.104C8.857 .393 9.413 .409 9.774 .442V-.442C9.413-.41 8.873-.393 8.153-.393H6.139V-1.179H8.988C8.955-1.671 8.939-2.146 8.939-2.604V-3.685C8.939-4.308 8.955-4.816 8.988-5.209H8.055V-4.717H6.139C6.139-5.012 6.155-5.307 6.188-5.602H5.157C5.189-5.275 5.206-4.98 5.206-4.717H3.585V-5.553H2.603C2.635-5.193 2.652-4.734 2.652-4.177V-2.654C2.652-2.032 2.635-1.54 2.603-1.179H5.206V-.393H4.175C3.519-.393 2.881-.41 2.259-.442V.442C2.849 .409 3.47 .393 4.126 .393ZM5.206-8.403C4.911-8.599 4.633-8.796 4.371-8.992 4.109-8.567 3.782-8.125 3.389-7.666 3.651-7.502 3.912-7.322 4.175-7.125 4.568-7.584 4.911-8.01 5.206-8.403M5.206-1.916H3.5849999V-2.555H5.206ZM5.206-3.292H3.5849999V-3.98H5.206ZM8.055-1.916H6.1400005V-2.555H8.055ZM8.055-3.292H6.1400005V-3.98H8.055ZM7.269 1.228 8.006 1.72C8.169 1.49 8.399 1.228 8.693 .934 8.399 .802 8.153 .655 7.957 .491 7.694 .753 7.465 .999 7.269 1.228" fill="#2c292a"/>
<path transform="matrix(1,0,0,-1,87.1142,282.0541)" d="M0 0C.523 .327 .851 .786 .982 1.376H-.491C-1.146 1.376-1.752 1.359-2.308 1.327V2.211C-1.785 2.178-1.179 2.162-.491 2.162H1.081C1.081 2.522 1.064 2.899 1.031 3.292L2.112 3.194C2.079 3.063 2.063 2.719 2.063 2.162H4.715C4.715 2.489 4.698 2.882 4.666 3.341H5.796C5.763 2.882 5.746 2.489 5.746 2.162H7.22C7.841 2.162 8.415 2.178 8.939 2.211V1.327C8.415 1.359 7.841 1.376 7.22 1.376H5.746V.246C5.746-.344 5.763-.934 5.796-1.523H4.666C4.698-.868 4.715-.295 4.715 .197V1.376H1.965C1.866 .557 1.523-.066 .933-.491 .344-.917-.41-1.294-1.326-1.622-1.522-1.327-1.752-1.064-2.014-.835-1.196-.606-.524-.328 0 0M-.344 7.027C-.115 6.83 .164 6.65 .491 6.486 .295 6.29 .074 6.027-.172 5.7-.417 5.372-.77 4.979-1.228 4.521-1.457 4.717-1.719 4.914-2.014 5.11-1.457 5.634-.901 6.273-.344 7.027M.712 4.594C1.056 4.872 1.302 5.2 1.449 5.577 1.596 5.953 1.686 6.683 1.719 7.764H.147C-.508 7.764-1.179 7.747-1.866 7.715V8.599C-1.212 8.566-.557 8.55 .098 8.55H2.947C2.849 9.074 2.734 9.484 2.603 9.779 2.996 9.811 3.372 9.86 3.733 9.926 3.831 9.467 3.912 9.008 3.978 8.55H6.925C7.482 8.55 8.022 8.566 8.546 8.599V7.715C8.055 7.747 7.515 7.764 6.925 7.764H5.157V4.865C5.157 4.406 5.01 4.128 4.715 4.029 4.42 3.931 3.978 3.833 3.389 3.734 3.356 3.931 3.225 4.242 2.996 4.668 3.651 4.668 4.019 4.717 4.101 4.816 4.182 4.914 4.224 5.11 4.224 5.405V7.764H2.603C2.603 6.715 2.537 5.946 2.407 5.454 2.275 4.963 2.038 4.528 1.695 4.152 1.351 3.775 .851 3.391 .196 2.997 .065 3.226-.246 3.456-.737 3.685-.115 4.012 .368 4.316 .712 4.594M5.943 6.437C6.205 6.601 6.434 6.764 6.63 6.929 7.187 6.306 7.743 5.651 8.3 4.963 8.104 4.865 7.809 4.684 7.416 4.422 6.957 5.077 6.466 5.749 5.943 6.437" fill="#2c292a"/>
<path transform="matrix(1,0,0,-1,49.5118,291.0094)" d="M0 0C-.033-.59-.049-1.228-.049-1.916V-5.553C.376-5.16 .851-4.652 1.375-4.029 1.572-4.422 1.784-4.75 2.014-5.012 1.555-5.373 1.105-5.758 .663-6.167 .221-6.577-.164-6.961-.491-7.322-.786-6.994-1.064-6.732-1.326-6.535-1.097-6.273-.982-5.93-.982-5.504V-.835C-1.801-.835-2.391-.852-2.75-.884V.049C-2.391 .016-1.948 0-1.424 0ZM.246 1.622C-.017 1.49-.312 1.327-.638 1.13-.901 1.85-1.261 2.538-1.719 3.194-1.49 3.325-1.212 3.489-.884 3.685-.491 3.161-.115 2.473 .246 1.622M5.894 .786C5.894 1.867 5.877 2.817 5.845 3.636H6.925C6.892 2.85 6.876 1.9 6.876 .786 7.432 .786 8.006 .802 8.595 .835V-.098C8.071-.066 7.498-.049 6.876-.049V-6.585C6.876-7.043 6.696-7.346 6.336-7.494 5.975-7.641 5.468-7.747 4.813-7.813 4.78-7.42 4.6-7.01 4.273-6.585 5.026-6.617 5.484-6.601 5.648-6.535 5.812-6.47 5.894-6.273 5.894-5.946V-.049H2.996C2.57-.049 1.964-.066 1.179-.098V.835C1.932 .802 2.505 .786 2.898 .786ZM4.273-3.636C3.945-3.833 3.651-4.013 3.389-4.177 3.028-3.391 2.505-2.588 1.817-1.769 2.046-1.638 2.308-1.458 2.603-1.228 3.258-2.015 3.814-2.818 4.273-3.636" fill="#2c292a"/>
<path transform="matrix(1,0,0,-1,62.0623,290.2232)" d="M0 0V-6.535C0-7.42 .016-8.14 .049-8.698H-.933C-.933-8.14-.917-7.42-.884-6.535V-1.572C-1.277-2.293-1.638-2.867-1.964-3.292-2.129-3.063-2.407-2.834-2.799-2.604-2.112-1.851-1.522-.967-1.031 .049-.54 1.064-.213 1.966-.049 2.752 .376 2.555 .753 2.424 1.081 2.359 .884 2.031 .523 1.245 0 0M4.961 1.818C5.845 .278 7.138-.868 8.841-1.622 8.546-1.884 8.3-2.179 8.104-2.506 6.729-1.72 5.533-.54 4.519 1.032 3.667-.508 2.554-1.786 1.179-2.801 1.015-2.572 .786-2.326 .491-2.064 1.702-1.278 2.586-.41 3.143 .541 3.7 1.49 4.027 2.211 4.126 2.703 4.649 2.44 5.026 2.277 5.255 2.211ZM3.291-5.282C3.193-6.577 2.537-7.731 1.326-8.747 1.13-8.452 .867-8.206 .54-8.01 1.751-7.158 2.398-6.135 2.48-4.938 2.562-3.743 2.586-2.801 2.554-2.113 2.979-2.179 3.323-2.211 3.585-2.211 3.487-2.965 3.389-3.989 3.291-5.282M6.68-4.029V-7.125C6.68-7.616 6.696-8.14 6.729-8.698H5.697C5.73-8.14 5.746-7.6 5.746-7.076V-3.735C5.746-3.374 5.73-2.834 5.697-2.113H6.729C6.696-2.834 6.68-3.473 6.68-4.029" fill="#2c292a"/>
<path transform="matrix(1,0,0,-1,74.6129,291.6973)" d="M0 0C-.033-.623-.049-1.261-.049-1.916V-4.717C.998-5.438 2.472-5.807 4.371-5.823 6.27-5.84 7.792-5.782 8.939-5.651 8.742-6.044 8.611-6.42 8.546-6.781 7.203-6.813 6.09-6.813 5.206-6.781 4.322-6.748 3.561-6.699 2.922-6.634 2.284-6.568 1.76-6.462 1.351-6.314 .941-6.167 .548-5.978 .172-5.749-.205-5.52-.533-5.545-.81-5.823-1.089-6.101-1.408-6.503-1.768-7.027-1.998-6.764-2.276-6.519-2.603-6.29-1.85-5.57-1.31-5.061-.982-4.766V-.835C-1.343-.835-1.85-.852-2.505-.885V.049C-1.817 .016-1.277 0-.884 0ZM.589 1.818C.295 1.654 0 1.441-.295 1.179-.721 1.899-1.228 2.587-1.817 3.243-1.49 3.472-1.212 3.685-.982 3.882-.164 2.833 .36 2.145 .589 1.818M6.729 3.341C7.056 3.341 7.564 3.358 8.251 3.391V2.457C7.662 2.489 7.072 2.506 6.483 2.506H5.353L4.715 1.228V-3.341C4.715-3.931 4.731-4.538 4.764-5.16H3.733C3.765-4.538 3.782-3.915 3.782-3.292V-.147C3.192-.967 2.242-1.916 .933-2.997 .769-2.736 .523-2.474 .196-2.211 .916-1.818 1.628-1.245 2.333-.491 3.037 .262 3.684 1.261 4.273 2.506H2.014C1.686 2.506 1.358 2.489 1.031 2.457V3.391C1.358 3.391 1.817 3.374 2.406 3.341ZM8.693-2.26C8.398-2.425 8.104-2.637 7.809-2.899 7.481-2.376 6.729-1.425 5.55-.049 5.812 .147 6.041 .36 6.237 .59 6.696 .098 7.514-.852 8.693-2.26" fill="#2c292a"/>
<path transform="matrix(1,0,0,-1,87.3598,290.2232)" d="M0 0V-6.535C0-7.42 .016-8.14 .049-8.698H-.933C-.933-8.14-.917-7.42-.884-6.535V-1.572C-1.277-2.293-1.638-2.867-1.964-3.292-2.129-3.063-2.407-2.834-2.799-2.604-2.112-1.851-1.523-.967-1.031 .049-.54 1.064-.213 1.966-.049 2.752 .376 2.555 .753 2.424 1.081 2.359 .884 2.031 .523 1.245 0 0M4.961 1.818C5.845 .278 7.138-.868 8.841-1.622 8.546-1.884 8.3-2.179 8.104-2.506 6.729-1.72 5.533-.54 4.519 1.032 3.667-.508 2.554-1.786 1.179-2.801 1.015-2.572 .786-2.326 .491-2.064 1.702-1.278 2.586-.41 3.143 .541 3.7 1.49 4.027 2.211 4.126 2.703 4.649 2.44 5.026 2.277 5.255 2.211ZM3.291-5.282C3.193-6.577 2.537-7.731 1.326-8.747 1.13-8.452 .867-8.206 .54-8.01 1.751-7.158 2.398-6.135 2.48-4.938 2.562-3.743 2.586-2.801 2.554-2.113 2.979-2.179 3.323-2.211 3.585-2.211 3.487-2.965 3.389-3.989 3.291-5.282M6.68-4.029V-7.125C6.68-7.616 6.696-8.14 6.729-8.698H5.697C5.729-8.14 5.746-7.6 5.746-7.076V-3.735C5.746-3.374 5.729-2.834 5.697-2.113H6.729C6.696-2.834 6.68-3.473 6.68-4.029" fill="#2c292a"/>
</g>
<path transform="matrix(1,0,0,-1,0,595.276)" d="M158.849 320.697H160.765V318.781H158.849ZM162.975 320.697H164.89V318.781H162.975ZM167.002 320.697H168.918V318.781H167.002Z" fill="#2c292a"/>
<path transform="matrix(1,0,0,-1,0,595.276)" d="M171.498 320.697H173.413V318.781H171.498ZM175.623 320.697H177.538V318.781H175.623ZM179.651 320.697H181.566V318.781H179.651Z" fill="#2c292a"/>
<g clip-path="url(#clip_13)">
<path transform="matrix(1,0,0,-1,366.2682,291.5665)" d="M0 0C-7.36 0-13.348 5.99-13.348 13.354-13.348 20.717-7.36 26.708 0 26.708 7.36 26.708 13.348 20.717 13.348 13.354 13.348 5.99 7.36 0 0 0M0 25.125C-6.487 25.125-11.765 19.845-11.765 13.354-11.765 6.863-6.487 1.582 0 1.582 6.487 1.582 11.765 6.863 11.765 13.354 11.765 19.845 6.487 25.125 0 25.125" fill="#f43040"/>
</g>
<path transform="matrix(1,0,0,-1,371.0645,269.8587)" d="M0 0 .89-.623-4.359-16.733-8.718-10.681-10.053-12.016-10.498-11.571-8.185-9.257-4.537-13.885Z" fill="#2c292a"/>
<g clip-path="url(#clip_14)">
<path transform="matrix(1,0,0,-1,60.2113,252.95029)" d="M0 0C.031 6.957 5.653 12.581 12.587 12.581 19.522 12.581 25.144 6.957 25.144 .018 25.144-6.92 19.522-12.544 12.587-12.544 5.653-12.544 .031-6.92 0 0" fill="#ffffff"/>
<path transform="matrix(1,0,0,-1,72.7988,266.2857)" d="M0 0C-7.36 0-13.348 5.99-13.348 13.354-13.348 20.717-7.36 26.708 0 26.708 7.36 26.708 13.348 20.717 13.348 13.354 13.348 5.99 7.36 0 0 0M0 25.125C-6.487 25.125-11.765 19.845-11.765 13.354-11.765 6.863-6.487 1.582 0 1.582 6.487 1.582 11.765 6.863 11.765 13.354 11.765 19.845 6.487 25.125 0 25.125" fill="#2c292a"/>
</g>
<path transform="matrix(1,0,0,-1,64.9303,243.7799)" d="M0 0 7.806-7.81 15.288 0 16.263-.868 8.674-8.678 16.48-16.38 15.504-17.356 7.806-9.546 0-17.356-.867-16.488 6.939-8.678-.867-.868Z" fill="#2c292a"/>
</g>
</g>
</svg>
