<svg xmlns="http://www.w3.org/2000/svg" xmlns:xlink="http://www.w3.org/1999/xlink" xmlns:inkscape="http://www.inkscape.org/namespaces/inkscape" version="1.1" width="411.024" height="595.276" viewBox="0 0 411.024 595.276">
<defs>
<clipPath id="clip_1">
<path transform="matrix(1,0,0,-1,0,595.276)" d="M0 0H411.024V595.276H0Z"/>
</clipPath>
<clipPath id="clip_2">
<path transform="matrix(1,0,0,-1,0,595.276)" d="M0 0H411.024V595.276H0Z"/>
</clipPath>
<path id="font_3_4" d="M.46099855 0V.06399536H.15499878L.4039917 .38186646C.44299317 .43185426 .46099855 .46884156 .46099855 .5258179 .46099855 .6427765 .38198854 .71777346 .2649994 .71777346 .1459961 .71777346 .068984989 .6367645 .068984989 .5248108H.14099121C.14099121 .6167755 .19898987 .6537628 .2649994 .6537628 .34298707 .6537628 .3889923 .6027832 .3889923 .5258179 .3889923 .48683167 .37599183 .45584107 .34899903 .42085267L.067993167 .06399536V0H.46099855Z"/>
<path id="font_3_6" d="M.48199464 .11273193V.17773438H.394989V.37979127H.32398988V.17773438H.116989139L.37399293 .71191409H.29699708L.039993287 .17773438V.11273193H.32398988V0H.394989V.11273193H.48199464Z"/>
<path id="font_3_8" d="M.45999146 .20516968C.45999146 .32221986 .38598634 .40722657 .2749939 .40722657 .24699402 .40722657 .22200012 .40222169 .19999695 .3922119L.35899354 .71191409H.2849884L.10998535 .3592224C.07998657 .2992096 .06498718 .25019837 .06498718 .19917298 .06498718 .07614136 .14199829-.005859375 .2630005-.005859375 .38398744-.005859375 .45999146 .08413696 .45999146 .20516968M.3880005 .20217896C.3880005 .11514282 .33799745 .058135988 .2619934 .058135988 .18598938 .058135988 .13699341 .11514282 .13699341 .20217896 .13699341 .2902069 .18598938 .34622193 .2619934 .34622193 .34399415 .34622193 .3880005 .28120423 .3880005 .20217896Z"/>
<clipPath id="clip_4">
<path transform="matrix(1,0,0,-1,0,595.276)" d="M0 0H411.024V595.276H0Z"/>
</clipPath>
<clipPath id="clip_5">
<path transform="matrix(1,0,0,-1,0,595.276)" d="M0 0H411.024V595.276H0Z"/>
</clipPath>
<clipPath id="clip_6">
<path transform="matrix(1,0,0,-1,0,595.276)" d="M0 0H411.024V595.276H0Z"/>
</clipPath>
<clipPath id="clip_7">
<path transform="matrix(1,0,0,-1,0,595.276)" d="M0 0H411.024V595.276H0Z"/>
</clipPath>
<clipPath id="clip_8">
<path transform="matrix(1,0,0,-1,0,595.276)" d="M0 0H411.024V595.276H0Z"/>
</clipPath>
<clipPath id="clip_9">
<path transform="matrix(1,0,0,-1,0,595.276)" d="M0 0H411.024V595.276H0Z"/>
</clipPath>
<clipPath id="clip_10">
<path transform="matrix(1,0,0,-1,0,595.276)" d="M0 0H411.024V595.276H0Z"/>
</clipPath>
<clipPath id="clip_11">
<path transform="matrix(1,0,0,-1,0,595.276)" d="M0 0H411.024V595.276H0Z"/>
</clipPath>
<clipPath id="clip_12">
<path transform="matrix(1,0,0,-1,0,595.276)" d="M0 0H411.024V595.276H0Z"/>
</clipPath>
<clipPath id="clip_13">
<path transform="matrix(1,0,0,-1,0,595.276)" d="M0 0H411.024V595.276H0Z"/>
</clipPath>
<clipPath id="clip_14">
<path transform="matrix(1,0,0,-1,0,595.276)" d="M0 0H411.024V595.276H0Z"/>
</clipPath>
<clipPath id="clip_15">
<path transform="matrix(1,0,0,-1,0,595.276)" d="M0 0H411.024V595.276H0Z"/>
</clipPath>
</defs>
<g clip-path="url(#clip_1)">
<g clip-path="url(#clip_2)">
<use data-text="2" xlink:href="#font_3_4" transform="matrix(9,0,0,-9,35.4331,567.547)" fill="#f43040"/>
<use data-text="4" xlink:href="#font_3_6" transform="matrix(9,0,0,-9,39.0331,567.547)" fill="#f43040"/>
<use data-text="6" xlink:href="#font_3_8" transform="matrix(9,0,0,-9,42.6331,567.547)" fill="#f43040"/>
<path transform="matrix(1,0,0,-1,188.5725,347.95539)" d="M0 0 53.904 103.142 78.075 100.489 87.035 103.474 141.087 0Z" fill="#f43040"/>
<path transform="matrix(1,0,0,-1,288.5541,347.95539)" d="M0 0-21.906 100.489-12.947 103.474 41.105 0Z" fill="#f43040"/>
<path transform="matrix(1,0,0,-1,268.6297,253.793)" d="M0 0-29.442 3.14-9.174 40.818Z" fill="#f43040"/>
<path transform="matrix(1,0,0,-1,259.1158,212.9748)" d="M0 0 16.491-31.507 7.532-34.491Z" fill="#f43040"/>
<path transform="matrix(1,0,0,-1,161.6828,347.95539)" d="M0 0 47.676 67.257 68.632 65.564 76.396 67.49 124.262 0Z" fill="#f43040"/>
<path transform="matrix(1,0,0,-1,248.4827,347.95539)" d="M0 0-20.036 62.073-12.012 63.897 37.462 0Z" fill="#f43040"/>
<path transform="matrix(1,0,0,-1,228.447,285.882)" d="M0 0-21.66 1.603-6.744 20.839Z" fill="#f43040"/>
<g clip-path="url(#clip_4)">
<path transform="matrix(1,0,0,-1,204.1039,295.8723)" d="M0 0C27.623 0 50.977-21.9 59-52.083H-58.999C-50.977-21.9-27.623 0 0 0" fill="#f43040"/>
<path transform="matrix(1,0,0,-1,204.083,299.4243)" d="M0 0C27.632 0 50.995-20.406 59.02-48.531H-7.155C-11.425-25.552-9.843-5.235 0 0" fill="#f43040"/>
</g>
<path transform="matrix(1,0,0,-1,305.9807,298.4293)" d="M0 0-15.999 1.327-4.972 16.693Z" fill="#f43040"/>
<path transform="matrix(1,0,0,-1,301.0087,281.7364)" d="M0 0 10.929-15.201 4.972-16.693Z" fill="#f43040"/>
<g clip-path="url(#clip_5)">
<path transform="matrix(1,0,0,-1,293.6738,309.9817)" d="M0 0C19.677 0 36.351-15.926 42.04-37.974H-42.041C-36.311-15.926-19.637 0 0 0" fill="#f43040"/>
<path transform="matrix(1,0,0,-1,294.2286,309.9817)" d="M0 0C19.439-.311 35.836-16.148 41.486-37.974H.711C-5.808-19.564-7.151-4.436 0 0" fill="#f43040"/>
<path transform="matrix(1,0,0,-1,170.0629,331.0966)" d="M0 0C21.664 0 40.008-7.098 46.373-16.859H-46.373C-40.008-7.098-21.625 0 0 0" fill="#f43040"/>
<path transform="matrix(1,0,0,-1,170.0675,331.0966)" d="M0 0C21.662 0 40.004-7.098 46.368-16.859H-11.74C-11.819-8.474-7.471-3.017 0 0" fill="#f43040"/>
<path transform="matrix(1,0,0,-1,241.0493,322.03163)" d="M0 0C19.603 0 36.202-10.857 41.893-25.924H-41.893C-36.162-10.857-19.563 0 0 0" fill="#f43040"/>
</g>
<path transform="matrix(1,0,0,-1,221.7028,265.0435)" d="M0 0 14.768-19.014 6.744-20.839Z" fill="#f43040"/>
<g clip-path="url(#clip_6)">
<path transform="matrix(1,0,0,-1,160.365,330.4333)" d="M0 0H1.526V-5.97C.964-6.368 .482-6.412 0-5.97Z" fill="#f43040"/>
<path transform="matrix(1,0,0,-1,161.1034,330.4333)" d="M0 0H.788V-5.991C.497-6.168 .249-6.301 0-6.301Z" fill="#f43040"/>
<path transform="matrix(1,0,0,-1,170.4567,338.835)" d="M0 0H1.969V-4.401C1.26-4.71 .63-4.754 0-4.401Z" fill="#f43040"/>
<path transform="matrix(1,0,0,-1,171.4413,338.835)" d="M0 0H.985V-4.432C.63-4.61 .315-4.698 0-4.698Z" fill="#f43040"/>
<path transform="matrix(1,0,0,-1,183.6989,305.7256)" d="M0 0H1.477V-5.745C.958-6.146 .479-6.191 0-5.745Z" fill="#f43040"/>
<path transform="matrix(1,0,0,-1,184.3881,305.7256)" d="M0 0H.788V-5.715C.497-5.936 .249-6.025 0-6.025Z" fill="#f43040"/>
<path transform="matrix(1,0,0,-1,193.3969,299.86653)" d="M0 0H.837V-3.384C.533-3.648 .266-3.648 0-3.384Z" fill="#f43040"/>
<path transform="matrix(1,0,0,-1,193.7907,299.86653)" d="M0 0H.443V-3.374C.282-3.505 .161-3.549 0-3.593Z" fill="#f43040"/>
<path transform="matrix(1,0,0,-1,268.1245,333.9709)" d="M0 0H.985V-4.321C.63-4.454 .315-4.543 0-4.588Z" fill="#f43040"/>
<path transform="matrix(1,0,0,-1,223.0812,309.5395)" d="M0 0H1.378V-3.051C.906-3.272 .433-3.316 0-3.051Z" fill="#f43040"/>
<path transform="matrix(1,0,0,-1,223.8196,309.5395)" d="M0 0H.64V-3.083C.414-3.217 .188-3.261 0-3.261Z" fill="#f43040"/>
<path transform="matrix(1,0,0,-1,223.8147,294.2837)" d="M0 0C2.524-4.526 3.943-9.628 3.943-15.396 1.341-16.328-1.301-16.417-3.983-15.396-3.746-10.249-2.208-5.102 0 0" fill="#f43040"/>
<path transform="matrix(1,0,0,-1,223.8107,294.2837)" d="M0 0C2.526-4.523 3.947-9.622 3.947-15.386 2.645-15.874 1.303-16.096-.039-16.14-.355-14.145-.434-4.523 0 0" fill="#f43040"/>
<path transform="matrix(1,0,0,-1,215.9924,304.8964)" d="M0 0H.985V-2.201C.63-2.377 .315-2.377 0-2.201Z" fill="#f43040"/>
<path transform="matrix(1,0,0,-1,216.4846,304.8964)" d="M0 0H.492V-2.242C.328-2.332 .164-2.377 0-2.377Z" fill="#f43040"/>
<path transform="matrix(1,0,0,-1,216.5044,294.00743)" d="M0 0C1.812-3.228 2.796-6.854 2.835-11.011 .985-11.674-.906-11.718-2.875-11.011-2.678-7.34-1.575-3.67 0 0" fill="#f43040"/>
<path transform="matrix(1,0,0,-1,216.5044,294.00743)" d="M0 0C1.812-3.231 2.796-6.861 2.835-11.021 1.89-11.331 .945-11.552 0-11.552-.236-10.136-.315-3.231 0 0" fill="#f43040"/>
<path transform="matrix(1,0,0,-1,257.0976,335.4633)" d="M0 0H1.92V-7.616C1.24-8.192 .6-8.236 0-7.616Z" fill="#f43040"/>
<path transform="matrix(1,0,0,-1,258.0821,335.4633)" d="M0 0H.935V-7.627C.624-7.893 .312-8.07 0-8.07Z" fill="#f43040"/>
</g>
<path transform="matrix(1,0,0,-1,0,595.276)" d="M259.707 390.175H335.714V239.59099H259.707Z" fill="#ffffff"/>
<path transform="matrix(1,0,0,-1,0,595.276)" d="M287.846 246.674H228.888V247.967H287.846Z" fill="#2c292a"/>
<path transform="matrix(1,0,0,-1,0,595.276)" d="M287.846 381.655H224.352V382.948H287.846Z" fill="#2c292a"/>
<path transform="matrix(1,0,0,-1,279.5154,339.6692)" d="M0 0H-1.847-3.693L-1.847-3.695ZM-3.693 118.734H-1.847 0L-1.847 122.429ZM-1.231 119.658H-2.462V-.92300418H-1.231Z" fill="#2c292a"/>
<path transform="matrix(1,0,0,-1,0,595.276)" d="M271.526 352.114H287.039V279.41804H271.526Z" fill="#ffffff"/>
<g clip-path="url(#clip_7)">
<path transform="matrix(1,0,0,-1,275.6693,246.0369)" d="M0 0H4.244C4.55 0 4.817 .013 5.047 .038V-.765C4.843-.74 4.55-.727 4.168-.727H-.382C-.943-1.492-1.466-2.155-1.95-2.716-2.179-2.512-2.422-2.347-2.676-2.219-2.192-1.811-1.708-1.25-1.223-.536-.74 .178-.37 .854-.115 1.492 .191 1.313 .484 1.173 .765 1.071 .612 .943 .357 .586 0 0M5.391-6.905C5.238-7.096 4.945-7.204 4.512-7.23H.23C-.204-7.23-.51-7.096-.688-6.828-.867-6.56-.912-6.242-.822-5.872-.733-5.502-.421-5.062 .115-4.552 .65-4.042 1.389-3.43 2.332-2.716H.382C-.051-2.716-.561-2.729-1.147-2.754V-1.951C-.484-1.977 .025-1.989 .382-1.989H3.747V-2.792C3.415-2.869 2.957-3.137 2.371-3.596 1.784-4.055 1.255-4.495 .784-4.915 .312-5.336 .038-5.7-.038-6.006-.115-6.312 .025-6.478 .382-6.503H4.091C4.422-6.503 4.645-6.407 4.76-6.216 4.875-6.025 4.957-5.7 5.009-5.241 5.315-5.47 5.607-5.61 5.888-5.661 5.709-6.299 5.544-6.713 5.391-6.905" fill="#2c292a"/>
<path transform="matrix(1,0,0,-1,277.5044,257.3898)" d="M0 0C-.076-.893-.191-1.607-.344-2.142-.497-2.678-.707-3.169-.975-3.615-1.242-4.061-1.593-4.482-2.026-4.877-2.46-5.272-2.982-5.661-3.594-6.044-3.722-5.839-3.976-5.623-4.359-5.394-3.747-5.088-3.237-4.769-2.829-4.437-2.422-4.106-2.071-3.73-1.778-3.309-1.485-2.888-1.268-2.41-1.128-1.874-.988-1.339-.892-.714-.841 0H-1.95C-2.689 0-3.364-.013-3.976-.038V.727C-3.364 .701-2.689 .689-1.95 .689H-.803V1.836C-.803 2.193-.816 2.563-.841 2.945-.561 2.894-.242 2.856 .115 2.831 .063 2.601 .032 2.27 .019 1.836 .006 1.402 0 1.02 0 .689H3.9C3.798-.689 3.734-1.639 3.709-2.161 3.683-2.684 3.632-3.322 3.556-4.074 3.479-4.826 3.269-5.291 2.925-5.47 2.581-5.648 1.988-5.776 1.147-5.853 1.121-5.547 .994-5.215 .765-4.858 1.504-4.884 2.001-4.845 2.256-4.743 2.51-4.642 2.657-4.45 2.696-4.169 2.734-3.889 2.772-3.526 2.81-3.079 2.849-2.633 2.906-1.607 2.982 0Z" fill="#2c292a"/>
<path transform="matrix(1,0,0,-1,278.0398,270.368)" d="M0 0C.407 0 .943 .013 1.606 .038V-.689C.918-.663 .382-.65 0-.65H-3.403C-3.913-.65-4.372-.663-4.779-.689V.038C-4.372 .013-3.913 0-3.403 0ZM-2.294 3.156C-2.371 2.684-2.409 2.244-2.409 1.836H.726C.777 2.346 .828 2.869 .879 3.404 .93 3.94 .981 4.424 1.032 4.858H-2.638C-3.123 4.858-3.645 4.845-4.206 4.82V5.585C-3.645 5.559-3.123 5.547-2.638 5.547H1.912C1.809 4.858 1.72 4.163 1.644 3.462 1.568 2.76 1.516 2.219 1.491 1.836H3.25C3.198 1.275 3.154 .656 3.116-.019 3.078-.695 2.995-1.256 2.867-1.702 2.74-2.148 2.523-2.423 2.218-2.525 1.912-2.626 1.325-2.703 .459-2.754 .433-2.473 .318-2.167 .115-1.836 1.109-1.862 1.669-1.843 1.797-1.779 1.924-1.715 2.032-1.601 2.122-1.434 2.211-1.269 2.281-.886 2.332-.287 2.383 .312 2.409 .803 2.409 1.186H-3.25C-3.199 1.696-3.148 2.225-3.097 2.773-3.046 3.321-3.008 3.85-2.982 4.361-2.651 4.309-2.332 4.259-2.026 4.208-2.129 3.978-2.218 3.627-2.294 3.156" fill="#2c292a"/>
<path transform="matrix(1,0,0,-1,274.3312,282.07463)" d="M0 0C.216 .013 .325 .172 .325 .478V2.506C-.338 2.225-.873 1.97-1.281 1.74-1.332 2.046-1.434 2.327-1.587 2.582-1.256 2.659-.618 2.875 .325 3.232V5.145C-.363 5.145-.924 5.132-1.357 5.107V5.91C-.95 5.859-.389 5.833 .325 5.833 .325 6.649 .312 7.338 .287 7.899H1.166C1.14 7.312 1.128 6.624 1.128 5.833 1.765 5.833 2.287 5.846 2.695 5.872V5.107C2.287 5.132 1.765 5.145 1.128 5.145V3.538C1.357 3.64 1.803 3.844 2.466 4.15 2.44 3.946 2.44 3.704 2.466 3.424 1.803 3.143 1.357 2.926 1.128 2.773V.172C1.128-.235 1.026-.503 .822-.631 .618-.759 .146-.848-.593-.899-.618-.593-.682-.274-.784 .057-.478 .006-.217-.013 0 0M4.454 6.484V.555C4.428 .147 4.632-.057 5.066-.057H5.792C6.047-.082 6.232-.019 6.347 .134 6.461 .287 6.531 .593 6.557 1.052 6.863 .848 7.169 .72 7.475 .669 7.322 .082 7.143-.287 6.939-.44 6.735-.593 6.467-.694 6.136-.746H4.569C3.957-.746 3.651-.465 3.651 .096V6.445C3.651 6.905 3.638 7.364 3.613 7.823H4.492C4.467 7.44 4.454 6.994 4.454 6.484" fill="#2c292a"/>
<path transform="matrix(1,0,0,-1,277.0266,290.2812)" d="M0 0C.28-.191 .599-.453 .956-.784 1.415-.504 1.784-.172 2.065 .21 2.345 .593 2.548 .962 2.676 1.32H-.994C-1.351 1.065-1.657 .828-1.912 .612-2.167 .395-2.524 .134-2.982-.172-3.084 .006-3.288 .21-3.594 .44-3.034 .695-2.498 1.058-1.988 1.53-1.479 2.002-1.058 2.531-.726 3.118-.446 2.913-.153 2.748 .153 2.62-.128 2.416-.37 2.2-.574 1.97H3.9C3.568 1.23 3.224 .58 2.867 .019 2.51-.542 2.09-.982 1.606-1.301 1.121-1.62 .497-1.887-.268-2.104-1.032-2.32-2.052-2.505-3.326-2.659-3.403-2.378-3.556-2.11-3.785-1.855-3.072-1.855-2.326-1.798-1.548-1.683-.771-1.568-.179-1.409 .229-1.205 .076-1.027-.14-.836-.421-.631-.701-.427-1.045-.198-1.453 .057-1.275 .235-1.109 .427-.956 .631-.599 .402-.281 .191 0 0M4.282 5.91C4.256 5.629 4.244 5.17 4.244 4.533 4.244 3.921 4.256 3.462 4.282 3.156H-3.365V5.91ZM-1.032 5.26H-2.599V3.8060003H-1.032ZM1.185 5.26H-.268V3.8060003H1.185ZM3.517 5.26H1.9879999V3.8060003H3.517ZM3.517 3.806" fill="#2c292a"/>
<path transform="matrix(1,0,0,-1,272.8592,308.4539)" d="M0 0C0 .383-.013 .803-.038 1.262H.688C.663 .65 .65 .23 .65 0V-3.557L1.3-3.404V1.836C1.3 2.295 1.287 2.716 1.262 3.098H1.988C1.963 2.486 1.95 2.066 1.95 1.836V-3.328L2.523-3.213V.115C2.523 .548 2.51 .931 2.485 1.262H3.25C3.224 .701 3.212 .319 3.212 .115V-3.06C3.212-3.29 3.224-3.774 3.25-4.514H2.523V-3.825L-.038-4.322C-.013-3.863 0-3.418 0-2.984ZM5.62 2.563H8.067C7.889 2.257 7.685 1.925 7.456 1.568 7.226 1.211 6.984 .918 6.729 .689 7.417 .357 8.131 .178 8.87 .153 8.666-.153 8.539-.434 8.488-.689 7.953-.561 7.532-.421 7.226-.268 6.92-.115 6.576 .063 6.194 .268 5.913 .089 5.582-.09 5.2-.268 4.817-.446 4.359-.638 3.823-.842 3.695-.612 3.543-.383 3.365-.153 3.798-.076 4.193 .025 4.55 .153 4.907 .28 5.276 .459 5.659 .689 5.403 .943 5.162 1.249 4.932 1.607 4.626 1.173 4.359 .842 4.129 .612 3.976 .765 3.798 .918 3.594 1.071 3.951 1.402 4.263 1.772 4.531 2.18 4.798 2.588 5.034 3.047 5.238 3.557 5.492 3.43 5.773 3.302 6.079 3.175 5.926 2.996 5.773 2.792 5.62 2.563M7.111-1.071C7.315-1.071 7.647-1.058 8.105-1.033V-1.683C7.647-1.658 7.328-1.645 7.15-1.645H6.462V-2.372H6.882C7.086-2.372 7.43-2.359 7.914-2.333V-2.984C7.609-2.959 7.29-2.945 6.958-2.945H6.462V-3.672H7.264C7.621-3.672 7.978-3.66 8.335-3.634V-4.284C8.054-4.259 7.71-4.246 7.303-4.246H6.462C6.462-4.629 6.474-5.036 6.5-5.47H5.773C5.798-5.011 5.811-4.603 5.811-4.246H4.97C4.792-4.246 4.448-4.259 3.938-4.284V-3.634C4.295-3.66 4.639-3.672 4.97-3.672H5.773V-2.945H5.276C4.919-2.945 4.55-2.959 4.168-2.984V-2.333C4.55-2.359 4.919-2.372 5.276-2.372H5.773V-1.645H5.315C4.907-1.645 4.498-1.658 4.091-1.683V-1.033C4.498-1.058 4.907-1.071 5.315-1.071H5.773C5.773-.816 5.76-.549 5.735-.268H6.5C6.474-.549 6.462-.816 6.462-1.071ZM6.958 1.989H5.391C5.697 1.53 5.964 1.224 6.194 1.071 6.448 1.249 6.704 1.555 6.958 1.989" fill="#2c292a"/>
</g>
<path transform="matrix(1,0,0,-1,0,595.276)" d="M131.451 246.674H61.136V247.967H131.451Z" fill="#2c292a"/>
<path transform="matrix(1,0,0,-1,0,595.276)" d="M136.86 381.655H61.136V382.948H136.86Z" fill="#2c292a"/>
<path transform="matrix(1,0,0,-1,71.4265,339.6692)" d="M0 0H1.847 3.694L1.847-3.695ZM3.694 118.734H1.847 0L1.847 122.429ZM1.231 119.658H2.462V-.92300418H1.231Z" fill="#2c292a"/>
<path transform="matrix(1,0,0,-1,0,595.276)" d="M81.681 336.593H70.416V292.98799H81.681Z" fill="#ffffff"/>
<g clip-path="url(#clip_8)">
<path transform="matrix(1,0,0,-1,71.5923,261.0253)" d="M0 0H2.179C2.689 0 3.198 .013 3.709 .038V-.65C3.198-.625 2.689-.612 2.179-.612H-2.218C-1.734-1.122-1.44-1.454-1.338-1.607-1.517-1.683-1.708-1.798-1.912-1.951H.153C.306-1.543 .459-1.109 .612-.65 .866-.752 1.16-.842 1.491-.918 1.312-1.148 1.109-1.492 .879-1.951H3.021C2.995-2.257 2.982-2.678 2.982-3.213V-7C2.982-7.306 2.842-7.522 2.562-7.65 2.281-7.778 1.899-7.88 1.415-7.956 1.389-7.65 1.287-7.37 1.109-7.115 1.618-7.14 1.937-7.115 2.065-7.038 2.192-6.962 2.256-6.835 2.256-6.656V-2.486H-3.326V-7.842H-4.091C-4.066-7.178-4.053-6.707-4.053-6.426V-3.137C-4.053-2.882-4.066-2.486-4.091-1.951H-1.988C-2.167-1.645-2.46-1.326-2.867-.995-2.664-.893-2.473-.765-2.294-.612H-3.173C-3.76-.612-4.27-.625-4.703-.65V.038C-4.27 .013-3.773 0-3.212 0H-.841C-.918 .255-1.084 .522-1.338 .803-1.084 .88-.841 .969-.612 1.071-.281 .561-.076 .204 0 0M-.726-3.328C-.981-3.456-1.351-3.8-1.835-4.361H1.071C1.045-4.692 1.032-5.049 1.032-5.432 1.032-5.814 1.045-6.197 1.071-6.579H-1.912C-1.887-6.197-1.873-5.827-1.873-5.47-1.873-5.088-1.887-4.743-1.912-4.437-2.09-4.59-2.269-4.731-2.447-4.858-2.575-4.68-2.766-4.539-3.02-4.437-2.231-3.825-1.708-3.303-1.453-2.869-1.198-3.048-.956-3.201-.726-3.328M.306-4.935H-1.1850001V-6.006H.306ZM2.065-4.093C1.835-4.221 1.644-4.386 1.491-4.59 1.236-4.284 .701-3.863-.115-3.328 .063-3.201 .216-3.035 .344-2.831 1.057-3.29 1.631-3.71 2.065-4.093" fill="#2c292a"/>
<path transform="matrix(1,0,0,-1,70.4835,270.1116)" d="M0 0C-.051-.714-.076-1.326-.076-1.836V-7.459H1.185V-1.377C1.185-.969 1.16-.51 1.109 0H2.065C2.013-.408 1.988-.842 1.988-1.301V-7.459H3.479C3.887-7.459 4.384-7.434 4.97-7.383V-8.224C4.384-8.173 3.9-8.148 3.518-8.148H-2.294C-2.651-8.148-3.161-8.173-3.823-8.224V-7.383C-3.161-7.434-2.664-7.459-2.332-7.459H-.918V-1.798C-.918-1.262-.956-.663-1.032 0ZM-1.491-5.394C-1.772-5.445-2.065-5.547-2.37-5.7-2.829-4.221-3.237-3.073-3.594-2.257-3.339-2.155-3.059-2.041-2.753-1.913-2.447-2.703-2.026-3.863-1.491-5.394M3.25-5.776C2.995-5.623 2.727-5.508 2.447-5.432 2.982-4.437 3.39-3.239 3.67-1.836 3.951-1.938 4.269-2.041 4.626-2.142 4.295-3.009 3.836-4.221 3.25-5.776" fill="#2c292a"/>
<path transform="matrix(1,0,0,-1,73.4275,279.8481)" d="M0 0C-.051-.332-.076-1.237-.076-2.716H.879C1.134-2.716 1.504-2.703 1.988-2.678V-3.443C1.58-3.418 1.224-3.404 .918-3.404H-.076C-.076-4.96-.051-5.942 0-6.35H-3.441C-3.39-5.993-3.364-5.011-3.364-3.404H-4.856V-7.689H-.076C.459-7.689 .956-7.676 1.415-7.65V-8.415C.956-8.39 .471-8.377-.038-8.377H-5.773C-5.697-8.046-5.659-7.65-5.659-7.191V-3.404C-6.092-3.404-6.487-3.418-6.844-3.443V-2.678C-6.461-2.703-6.066-2.716-5.659-2.716-5.659-1.543-5.684-.765-5.735-.383H-4.779C-4.831-.689-4.856-1.467-4.856-2.716H-3.364C-3.364-1.237-3.39-.332-3.441 0H-2.523C-2.549-.306-2.562-1.211-2.562-2.716H-.879C-.879-1.314-.893-.408-.918 0ZM-.879-3.404H-2.561V-5.6610004H-.879ZM-.879-5.661" fill="#2c292a"/>
<path transform="matrix(1,0,0,-1,73.3511,294.7679)" d="M0 0C.841-.319 1.58-.504 2.218-.555 1.988-.784 1.81-1.039 1.682-1.32 1.045-1.167 .421-.963-.191-.708-.217-.861-.229-1.065-.229-1.32V-2.505C-.229-2.888-.217-3.271-.191-3.653H-1.032C-1.007-3.296-.994-2.913-.994-2.505V-1.473C-.994-1.142-1.007-.822-1.032-.516H-.573C-1.134-.312-1.759 .07-2.447 .631-2.855 .325-3.378 .013-4.014-.306-4.652-.625-5.391-.925-6.232-1.205-6.334-.975-6.5-.759-6.729-.555-6.347-.478-5.837-.325-5.2-.096-4.563 .134-4.009 .408-3.537 .727-3.065 1.045-2.753 1.32-2.6 1.549-2.345 1.421-2.078 1.294-1.797 1.167L-1.988 1.014C-1.504 .656-.841 .319 0 0M-3.613-1.205C-3.626-1.409-3.664-1.651-3.728-1.932-3.792-2.213-3.926-2.5-4.129-2.792-4.333-3.085-4.678-3.424-5.161-3.806-5.34-3.577-5.531-3.398-5.735-3.271-5.328-3.015-5.015-2.767-4.798-2.525-4.582-2.282-4.448-2.046-4.397-1.817-4.346-1.587-4.314-1.39-4.301-1.224-4.289-1.058-4.282-.822-4.282-.516-3.951-.568-3.696-.606-3.517-.631-3.569-.81-3.6-1.001-3.613-1.205M1.032 3.73V2.888C1.032 2.556 1.045 2.148 1.071 1.664H-5.697C-5.672 2.148-5.659 2.569-5.659 2.926V3.73C-5.659 4.214-5.672 4.648-5.697 5.03H1.071C1.045 4.749 1.032 4.316 1.032 3.73M-2.715 4.495H-4.894V3.6149998H-2.715ZM-2.715 3.079H-4.894V2.199H-2.715ZM.268 4.495H-1.988V3.6149998H.268ZM.268 3.079H-1.988V2.199H.268ZM.268 2.2" fill="#2c292a"/>
<path transform="matrix(1,0,0,-1,148.6057,307.1964)" d="M0 0H1.5V-2.064H3.563V-3.565H1.5V-5.629H0V-3.565H-2.063V-2.064H0ZM.748 1.035C-.279 1.035-1.245 .634-1.97-.091-2.695-.822-3.095-1.785-3.095-2.814-3.095-3.842-2.695-4.808-1.97-5.534-1.242-6.26-.279-6.66 .748-6.66 1.779-6.66 2.744-6.26 3.469-5.534 4.194-4.808 4.594-3.842 4.594-2.814 4.594-1.785 4.194-.817 3.469-.091 2.741 .634 1.779 1.035 .748 1.035M.748 3.036C3.979 3.036 6.595 .417 6.595-2.814 6.595-6.044 3.979-8.662 .748-8.662-2.48-8.662-5.096-6.044-5.096-2.814-5.096 .417-2.48 3.036 .748 3.036M-8.629 15.223C-10.054 15.223-11.397 14.665-12.407 13.654-13.417 12.645-13.973 11.297-13.973 9.87-13.973 8.444-13.417 7.098-12.407 6.089-11.397 5.078-10.057 4.52-8.629 4.52-7.198 4.52-5.856 5.078-4.845 6.089-3.835 7.098-3.28 8.441-3.28 9.87-3.28 11.299-3.838 12.645-4.85 13.654-5.858 14.665-7.198 15.223-8.629 15.223M-8.629 17.224C-4.568 17.224-1.28 13.929-1.28 9.87-1.28 7.22-2.682 4.896-4.788 3.604-4.58 3.537-4.378 3.462-4.173 3.382-4.74 2.919-5.241 2.378-5.658 1.775-6.616 2.063-7.609 2.211-8.629 2.211-10.019 2.211-11.367 1.938-12.632 1.402-13.858 .887-14.958 .141-15.9-.802-16.846-1.748-17.586-2.849-18.106-4.075-18.606-5.256-18.874-6.51-18.909-7.806H-20.909C-20.794-2.476-17.288 2.016-12.467 3.602-14.57 4.893-15.973 7.218-15.973 9.87-15.973 13.934-12.687 17.224-8.629 17.224" fill="#2c292a"/>
<path transform="matrix(1,0,0,-1,145.3936,310.0474)" d="M0 0C.007 2.27 1.798 4.063 4.008 4.063 6.218 4.063 8.01 2.27 8.01 .059 8.01-2.152 6.218-3.944 4.008-3.944 1.798-3.944 .007-2.152 0 0" fill="#ffffff"/>
</g>
<path transform="matrix(1,0,0,-1,151.3543,312.8628)" d="M0 0H-.831L-1.316 1.836H-2.839L-3.324 0H-4.155L-2.424 5.993H-1.731ZM-1.489 2.494-2.043 4.608H-2.112L-2.666 2.494Z" fill="#2c292a"/>
<g clip-path="url(#clip_9)">
<path transform="matrix(1,0,0,-1,223.9143,253.7854)" d="M0 0H1.5V-2.064H3.563V-3.565H1.5V-5.629H0V-3.565H-2.063V-2.064H0ZM.748 1.035C-.279 1.035-1.245 .634-1.97-.091-2.695-.822-3.095-1.785-3.095-2.814-3.095-3.842-2.695-4.808-1.97-5.534-1.242-6.26-.279-6.66 .748-6.66 1.779-6.66 2.744-6.26 3.469-5.534 4.194-4.808 4.594-3.842 4.594-2.814 4.594-1.785 4.194-.817 3.469-.091 2.741 .634 1.779 1.035 .748 1.035M.748 3.036C3.979 3.036 6.595 .417 6.595-2.814 6.595-6.044 3.979-8.662 .748-8.662-2.48-8.662-5.095-6.044-5.095-2.814-5.095 .417-2.48 3.036 .748 3.036M-8.629 15.223C-10.054 15.223-11.397 14.665-12.407 13.654-13.417 12.645-13.973 11.296-13.973 9.87-13.973 8.444-13.417 7.098-12.407 6.089-11.397 5.078-10.057 4.52-8.629 4.52-7.199 4.52-5.856 5.078-4.845 6.089-3.835 7.098-3.28 8.441-3.28 9.87-3.28 11.299-3.838 12.645-4.85 13.654-5.858 14.665-7.199 15.223-8.629 15.223M-8.629 17.224C-4.568 17.224-1.28 13.929-1.28 9.87-1.28 7.22-2.682 4.896-4.788 3.604-4.58 3.537-4.378 3.462-4.173 3.382-4.74 2.919-5.241 2.378-5.658 1.775-6.616 2.063-7.609 2.211-8.629 2.211-10.019 2.211-11.367 1.938-12.632 1.402-13.858 .887-14.958 .141-15.9-.802-16.846-1.748-17.586-2.849-18.106-4.075-18.606-5.256-18.874-6.51-18.909-7.806H-20.909C-20.794-2.476-17.288 2.016-12.467 3.602-14.57 4.893-15.973 7.218-15.973 9.87-15.973 13.934-12.687 17.224-8.629 17.224" fill="#2c292a"/>
<path transform="matrix(1,0,0,-1,220.7408,256.65013)" d="M0 0C-.032 2.284 1.76 4.076 3.97 4.076 6.179 4.076 7.971 2.284 7.971 .073 7.971-2.138 6.179-3.931 3.97-3.931 1.76-3.931-.032-2.138 0 0" fill="#ffffff"/>
<path transform="matrix(1,0,0,-1,226.8023,257.6829)" d="M0 0C0-.67-.185-1.132-.554-1.386-.924-1.64-1.397-1.767-1.974-1.767H-3.705V4.157H-1.904C-1.328 4.157-.895 4.007-.606 3.707-.318 3.406-.173 3.049-.173 2.633-.173 2.217-.272 1.911-.467 1.715-.664 1.518-.866 1.386-1.073 1.316-.796 1.247-.549 1.103-.329 .883-.11 .664 0 .369 0 0M-.97 2.633C-.97 2.933-1.056 3.153-1.229 3.291-1.402 3.43-1.616 3.499-1.87 3.499H-2.909V1.663H-1.904C-1.651 1.663-1.432 1.738-1.247 1.888-1.062 2.038-.97 2.286-.97 2.633M-.831 0C-.831 .369-.952 .629-1.195 .779-1.437 .929-1.709 1.005-2.008 1.005H-2.909V-1.109H-2.112C-1.697-1.109-1.38-1.028-1.16-.866-.941-.705-.831-.416-.831 0" fill="#2c292a"/>
</g>
<path transform="matrix(1,0,0,-1,0,595.276)" d="M205.025 345.125H84.171V346.418H205.025Z" fill="#2c292a"/>
<path transform="matrix(1,0,0,-1,163.7378,294.734)" d="M0 0H-1.847-3.693L-1.847-3.695ZM-3.693 36.218H-1.847 0L-1.847 39.913ZM-1.231 37.142H-2.462V-.9240036H-1.231Z" fill="#2c292a"/>
<path transform="matrix(1,0,0,-1,0,595.276)" d="M200.242 324.399H153.889V310.542H200.242Z" fill="#ffffff"/>
<g clip-path="url(#clip_10)">
<path transform="matrix(1,0,0,-1,158.4988,274.13713)" d="M0 0C0 .357-.013 .689-.038 .995H.765C.739 .663 .726 .331 .726 0H3.479C3.479 .357 3.466 .689 3.441 .995H4.244C4.218 .663 4.206 .331 4.206 0H4.779C5.059 0 5.416 .013 5.85 .038V-.574C5.416-.549 5.059-.536 4.779-.536H4.206V-3.557H5.047C5.556-3.557 6.028-3.545 6.461-3.519V-4.208C6.053-4.157 5.595-4.131 5.085-4.131H4.129C4.512-4.539 4.881-4.852 5.238-5.068 5.595-5.285 6.053-5.457 6.614-5.585 6.385-5.866 6.245-6.146 6.194-6.426 5.531-6.12 4.964-5.77 4.492-5.374 4.02-4.979 3.645-4.565 3.365-4.131H1.071C.765-4.616 .363-5.049-.134-5.432-.631-5.814-1.223-6.146-1.912-6.426-1.988-6.197-2.128-5.955-2.332-5.7-1.899-5.598-1.421-5.4-.898-5.107-.376-4.814 0-4.489 .229-4.131H-.765C-1.223-4.131-1.682-4.157-2.141-4.208V-3.519C-1.682-3.545-1.223-3.557-.765-3.557H0V-.536C-.612-.536-1.134-.549-1.568-.574V.038C-1.134 .013-.701 0-.268 0ZM1.759-5.508C1.759-5.254 1.746-4.935 1.721-4.552H2.562C2.51-4.833 2.485-5.151 2.485-5.508H3.212C3.568-5.508 3.912-5.496 4.244-5.47V-6.197C3.912-6.146 3.556-6.12 3.173-6.12H2.485V-7.115H4.129C4.715-7.115 5.25-7.102 5.735-7.077V-7.765C5.25-7.74 4.715-7.727 4.129-7.727H0C-.51-7.727-.994-7.74-1.453-7.765V-7.077C-1.02-7.102-.535-7.115 0-7.115H1.759V-6.12H1.147C.713-6.12 .318-6.134-.038-6.159V-5.47C.318-5.496 .688-5.508 1.071-5.508ZM3.479-.536H.7260001V-1.186H3.479ZM3.479-1.798H.7260001V-2.334H3.479ZM3.479-2.907H.7260001V-3.5570002H3.479ZM3.479-3.557" fill="#2c292a"/>
<path transform="matrix(1,0,0,-1,168.8424,274.13713)" d="M0 0C.306 0 .612 .013 .918 .038V-.65C.765-.625 .459-.612 0-.612H-.344C-.472-1.224-.65-1.874-.879-2.563H.65C.624-3.022 .612-3.418 .612-3.749V-5.547C.612-5.955 .624-6.452 .65-7.038H-.038V-6.503H-1.071V-7.536H-1.797C-1.746-6.899-1.72-6.375-1.72-5.967V-4.016C-1.899-4.297-2.116-4.565-2.37-4.82-2.473-4.59-2.651-4.348-2.906-4.093-2.6-3.838-2.358-3.596-2.179-3.366-2.001-3.137-1.81-2.792-1.606-2.333-1.402-1.874-1.237-1.301-1.109-.612-1.542-.612-1.963-.625-2.37-.65V.038C-2.065 .013-1.772 0-1.491 0ZM-.038-3.213H-1.0699999V-5.891H-.038ZM2.141-1.262V-2.525H3.288V-.115C3.262 .319 3.237 .714 3.212 1.071H4.053C4.001 .714 3.976 .331 3.976-.077V-2.525H5.123V-1.071C5.123-.663 5.11-.332 5.085-.077H5.85C5.824-.332 5.812-.663 5.812-1.071V-2.142C5.812-2.576 5.824-2.92 5.85-3.175H3.976V-6.847L5.238-6.809V-5.241C5.238-4.858 5.225-4.489 5.2-4.131H5.964C5.939-4.463 5.926-4.807 5.926-5.164V-6.541C5.926-7.051 5.939-7.548 5.964-8.033H5.238V-7.383L1.415-7.536C1.44-7.178 1.453-6.784 1.453-6.35V-5.202C1.453-4.718 1.44-4.361 1.415-4.131H2.179C2.154-4.437 2.141-4.795 2.141-5.202V-6.924L3.288-6.885V-3.175H1.415C1.44-2.742 1.453-2.359 1.453-2.027V-1.415C1.453-.88 1.44-.446 1.415-.115H2.179C2.154-.421 2.141-.803 2.141-1.262" fill="#2c292a"/>
<path transform="matrix(1,0,0,-1,177.7712,275.3229)" d="M0 0V-4.896C0-5.687 .013-6.26 .038-6.618H-.726C-.701-6.286-.688-5.725-.688-4.935V-1.339C-.816-1.62-1.071-2.053-1.453-2.639-1.581-2.41-1.759-2.219-1.988-2.066-1.682-1.76-1.326-1.154-.918-.249-.51 .656-.255 1.428-.153 2.066 .127 1.938 .421 1.823 .726 1.721 .548 1.492 .306 .918 0 0M3.25 .115C3.25 1.033 3.237 1.683 3.212 2.066H3.976C3.951 1.708 3.938 1.058 3.938 .115H5.62C6.13 .115 6.5 .127 6.729 .153V-.536C6.5-.51 6.13-.497 5.62-.497H4.588C4.995-2.129 5.85-3.277 7.15-3.94 6.869-4.093 6.653-4.31 6.5-4.59 5.123-3.545 4.269-2.194 3.938-.536V-4.208C4.677-4.208 5.162-4.195 5.391-4.169V-4.858C5.162-4.833 4.677-4.82 3.938-4.82 3.938-5.381 3.951-5.992 3.976-6.656H3.212C3.237-5.967 3.25-5.355 3.25-4.82 2.791-4.82 2.307-4.833 1.797-4.858V-4.169C2.307-4.195 2.791-4.208 3.25-4.208V-.497C2.969-2.18 2.128-3.609 .726-4.781 .574-4.552 .344-4.361 .038-4.208 1.363-3.341 2.204-2.104 2.562-.497H1.759C1.351-.497 .994-.51 .688-.536V.153C.994 .127 1.351 .115 1.759 .115Z" fill="#2c292a"/>
<path transform="matrix(1,0,0,-1,189.6059,275.9732)" d="M0 0C-.841-.051-1.542-.102-2.103-.153-2.664-.204-3.084-.268-3.365-.344-3.441-.038-3.531 .229-3.632 .459-3.454 .536-3.18 .809-2.81 1.281-2.441 1.753-2.141 2.257-1.912 2.792-1.784 2.69-1.644 2.614-1.491 2.563-1.338 2.511-1.173 2.448-.994 2.372-1.198 2.219-1.409 1.989-1.625 1.683-1.842 1.377-2.192 .943-2.676 .383-1.606 .433-.816 .472-.306 .497-.612 .905-.829 1.173-.956 1.301-.778 1.402-.573 1.543-.344 1.721-.14 1.44 .057 1.186 .249 .956 .44 .727 .688 .433 .994 .077 .713-.128 .484-.293 .306-.421 .229-.293 .127-.153 0 0M-.459-5.221C-.408-5.132-.382-4.998-.382-4.82V-4.284H-2.447V-6.082H-3.173C-3.148-5.572-3.135-5.113-3.135-4.705V-2.142C-3.135-1.683-3.148-1.276-3.173-.918H.344C.318-1.301 .306-1.721 .306-2.18V-5.394C.28-5.674 .166-5.853-.038-5.929-.243-6.006-.535-6.069-.918-6.12-.969-5.891-1.071-5.636-1.223-5.355-.765-5.355-.51-5.311-.459-5.221M-.382-1.53H-2.447V-2.257H-.382ZM-.382-2.869H-2.447V-3.672H-.382ZM1.95 1.148C2.307 1.301 2.651 1.46 2.982 1.626 3.313 1.791 3.645 2.002 3.976 2.257 4.18 2.002 4.359 1.785 4.512 1.607 4.359 1.555 4.034 1.409 3.537 1.167 3.04 .924 2.51 .714 1.95 .536V-.038C1.95-.344 2.128-.497 2.485-.497H3.594C3.848-.497 4.014-.166 4.091 .497 4.345 .369 4.601 .255 4.856 .153 4.677-.663 4.359-1.071 3.9-1.071H2.179C1.568-1.071 1.262-.791 1.262-.23V1.721C1.262 2.027 1.249 2.358 1.224 2.716H1.988C1.962 2.537 1.95 2.167 1.95 1.607ZM3.651-3.022C3.154-3.251 2.587-3.468 1.95-3.672V-4.743C1.95-5.049 2.09-5.202 2.37-5.202H3.747C3.951-5.151 4.091-4.833 4.168-4.246 4.371-4.348 4.626-4.45 4.932-4.552 4.754-5.368 4.46-5.776 4.053-5.776H1.988C1.504-5.776 1.262-5.533 1.262-5.049V-2.563C1.262-2.18 1.249-1.836 1.224-1.53H1.988C1.962-1.836 1.95-2.168 1.95-2.525V-3.022C2.204-2.945 2.543-2.806 2.963-2.601 3.384-2.397 3.721-2.18 3.976-1.951 4.206-2.257 4.397-2.486 4.55-2.639 4.448-2.665 4.148-2.792 3.651-3.022" fill="#2c292a"/>
</g>
<path transform="matrix(1,0,0,-1,0,595.276)" d="M175.625 292.498H150.298V293.791H175.625Z" fill="#2c292a"/>
<path transform="matrix(1,0,0,-1,0,595.276)" d="M247.519 373.916H181.95999V360.24299H247.519Z" fill="#ffffff"/>
<g clip-path="url(#clip_11)">
<path transform="matrix(1,0,0,-1,188.6023,224.9527)" d="M0 0V-1.607H2.179C2.689-1.607 3.173-1.594 3.632-1.568V-2.41C3.122-2.385 2.612-2.372 2.103-2.372H0V-6.235H3.021C3.403-6.235 3.848-6.223 4.359-6.197V-7C3.874-6.974 3.428-6.962 3.021-6.962H-3.02C-3.428-6.962-3.887-6.974-4.397-7V-6.197C-3.913-6.223-3.454-6.235-3.02-6.235H-.803V-.038C-.803 .344-.816 .765-.841 1.224H.038C.013 .79 0 .383 0 0" fill="#2c292a"/>
<path transform="matrix(1,0,0,-1,201.1634,224.3024)" d="M0 0C.484 0 .981 .013 1.491 .038V-.765C.93-.74 .433-.727 0-.727H-2.638V-6.618C-2.638-6.949-2.626-7.37-2.6-7.88H-3.479C-3.454-7.421-3.441-7-3.441-6.618V-.727H-5.544C-6.054-.727-6.551-.74-7.035-.765V.038C-6.551 .013-6.054 0-5.544 0ZM.306-5.661C-.102-5.126-.892-4.323-2.065-3.251L-1.491-2.678C-.803-3.239 .025-4.03 .994-5.049 .739-5.228 .51-5.432 .306-5.661" fill="#2c292a"/>
<path transform="matrix(1,0,0,-1,203.8253,231.1113)" d="M0 0C.025 .383 .204 .727 .535 1.033 .866 1.339 1.287 1.817 1.797 2.467 2.306 3.118 2.638 3.621 2.791 3.978 2.944 4.335 3.001 4.641 2.963 4.896 2.925 5.151 2.804 5.361 2.6 5.527 2.395 5.693 2.16 5.763 1.893 5.738 1.625 5.712 1.37 5.61 1.128 5.432 .885 5.253 .701 4.985 .573 4.629L-.153 4.743C.051 5.33 .312 5.757 .631 6.025 .949 6.292 1.325 6.439 1.759 6.465 2.013 6.49 2.243 6.484 2.447 6.445 2.651 6.407 2.861 6.318 3.078 6.178 3.294 6.037 3.473 5.827 3.613 5.547 3.753 5.266 3.804 4.928 3.766 4.533 3.728 4.137 3.53 3.666 3.173 3.118 2.816 2.569 2.128 1.708 1.109 .536H3.861V-.153H0Z" fill="#2c292a"/>
<path transform="matrix(1,0,0,-1,208.6337,227.6106)" d="M0 0C.025 .675 .121 1.211 .287 1.606 .452 2.001 .688 2.326 .994 2.581 1.3 2.836 1.676 2.964 2.122 2.964 2.568 2.964 2.957 2.779 3.288 2.409 3.619 2.039 3.836 1.574 3.938 1.013 4.04 .452 4.072-.191 4.034-.918 3.995-1.645 3.868-2.237 3.651-2.696 3.434-3.155 3.109-3.474 2.676-3.652 2.243-3.831 1.81-3.812 1.376-3.595 .943-3.379 .637-3.092 .459-2.734 .28-2.378 .153-2.002 .077-1.606 0-1.211-.026-.676 0 0M.803 .229C.726-.472 .752-1.097 .879-1.645 1.007-2.193 1.217-2.581 1.51-2.811 1.803-3.04 2.103-3.085 2.409-2.945 2.715-2.805 2.937-2.524 3.078-2.103 3.218-1.683 3.288-1.224 3.288-.727 3.288-.229 3.269 .223 3.231 .631 3.192 1.039 3.078 1.408 2.887 1.74 2.696 2.071 2.44 2.243 2.122 2.256 1.803 2.269 1.523 2.109 1.281 1.778 1.038 1.447 .879 .93 .803 .229" fill="#2c292a"/>
<path transform="matrix(1,0,0,-1,215.474,229.8298)" d="M0 0C-.357-.599-.74-1.256-1.147-1.97-1.376-1.791-1.619-1.601-1.873-1.396-1.39-.836-.988-.281-.669 .268-.351 .816-.077 1.358 .153 1.893 .331 1.74 .56 1.574 .841 1.396 .637 1.064 .357 .599 0 0M.726 3.5C.522 3.372 .293 3.207 .038 3.003-.217 3.487-.726 4.189-1.491 5.107-1.287 5.26-1.084 5.425-.879 5.604-.038 4.558 .497 3.857 .726 3.5M3.938 1.683C3.989 1.313 4.103 .937 4.282 .555 4.46 .172 4.728-.185 5.085-.516 5.442-.848 5.786-1.122 6.117-1.339 6.448-1.556 6.792-1.74 7.15-1.893 6.869-2.097 6.665-2.339 6.538-2.62 6.028-2.314 5.588-2.008 5.219-1.702 4.849-1.396 4.537-1.071 4.282-.727 4.027-.383 3.798 .032 3.594 .516 3.288-.3 2.842-.963 2.256-1.473 1.669-1.983 1.109-2.378 .573-2.659 .395-2.403 .204-2.186 0-2.008 .56-1.779 1.076-1.479 1.548-1.109 2.02-.74 2.364-.363 2.581 .019 2.797 .402 2.944 .771 3.02 1.128 3.097 1.485 3.141 1.779 3.154 2.008 3.167 2.238 3.16 2.607 3.135 3.118 3.441 3.041 3.759 2.99 4.091 2.965 3.938 2.48 3.887 2.052 3.938 1.683M3.059 5.336C2.906 5.004 2.791 4.749 2.714 4.571H6.576C6.448 4.214 6.334 3.85 6.232 3.481 6.13 3.111 5.99 2.671 5.811 2.161 5.531 2.238 5.276 2.289 5.047 2.314 5.301 3.079 5.467 3.615 5.544 3.921H2.485C2.357 3.666 2.211 3.385 2.045 3.079 1.879 2.773 1.682 2.442 1.453 2.085 1.3 2.238 1.071 2.365 .765 2.467 1.096 2.824 1.427 3.366 1.759 4.093 2.09 4.82 2.345 5.553 2.523 6.292 2.854 6.114 3.148 5.999 3.403 5.948 3.326 5.872 3.212 5.667 3.059 5.336" fill="#2c292a"/>
</g>
<path transform="matrix(1,0,0,-1,227.6579,228.2424)" d="M0 0H-1.873V-1.874H-2.523V0H-4.397V.612H-2.523V2.486H-1.873V.612H0Z" fill="#2c292a"/>
<path transform="matrix(1,0,0,-1,232.5811,224.53189)" d="M0 0-4.053-7.23-4.435-7-.382 .23Z" fill="#2c292a"/>
<g clip-path="url(#clip_12)">
<path transform="matrix(1,0,0,-1,235.0173,225.06742)" d="M0 0C.484 .765 .752 1.313 .803 1.645 1.185 1.492 1.542 1.377 1.873 1.301 1.644 1.071 1.389 .701 1.109 .191H4.97C5.531 .191 6.104 .204 6.691 .23V-.421C6.156-.396 5.582-.383 4.97-.383H3.709V-1.951C4.677-1.951 5.531-1.938 6.27-1.913V-2.563C5.506-2.538 4.651-2.525 3.709-2.525V-4.322H5.659C6.219-4.322 6.742-4.31 7.226-4.284V-4.935C6.767-4.909 6.245-4.896 5.659-4.896H3.709V-5.776C3.709-6.363 3.721-6.898 3.747-7.383H2.906C2.931-6.898 2.944-6.388 2.944-5.853V-4.896H.344C-.37-4.896-1.045-4.909-1.682-4.935V-4.284C-1.071-4.31-.472-4.322 .115-4.322 .115-3.328 .102-2.538 .077-1.951H2.944V-.383H.765C.23-1.199-.255-1.862-.688-2.372-.969-2.142-1.262-2.002-1.567-1.951-1.007-1.415-.484-.765 0 0M2.944-2.525H.8410001V-4.323H2.944ZM2.944-4.322" fill="#2c292a"/>
</g>
<path transform="matrix(1,0,0,-1,0,595.276)" d="M151.857 278.208H92.946V264.16603H151.857Z" fill="#ffffff"/>
<g clip-path="url(#clip_13)">
<path transform="matrix(1,0,0,-1,99.7055,320.7132)" d="M0 0V-1.607H2.179C2.689-1.607 3.173-1.594 3.632-1.568V-2.41C3.122-2.385 2.612-2.372 2.103-2.372H0V-6.235H3.02C3.403-6.235 3.848-6.222 4.359-6.197V-7C3.874-6.975 3.428-6.962 3.02-6.962H-3.02C-3.428-6.962-3.887-6.975-4.397-7V-6.197C-3.913-6.222-3.454-6.235-3.02-6.235H-.803V-.038C-.803 .344-.816 .765-.841 1.224H.038C.013 .79 0 .383 0 0" fill="#2c292a"/>
<path transform="matrix(1,0,0,-1,112.2666,320.0629)" d="M0 0C.484 0 .981 .013 1.491 .038V-.765C.93-.74 .433-.727 0-.727H-2.638V-6.618C-2.638-6.949-2.626-7.37-2.6-7.88H-3.479C-3.454-7.421-3.441-7-3.441-6.618V-.727H-5.544C-6.054-.727-6.551-.74-7.035-.765V.038C-6.551 .013-6.054 0-5.544 0ZM.306-5.661C-.102-5.126-.893-4.323-2.065-3.251L-1.491-2.678C-.803-3.239 .025-4.03 .994-5.049 .739-5.228 .51-5.432 .306-5.661" fill="#2c292a"/>
<path transform="matrix(1,0,0,-1,116.6107,321.746)" d="M0 0C-.332-.332-.752-.65-1.262-.956V-.23C-.625 .204-.102 .714 .306 1.301H.765V-5.279H0Z" fill="#2c292a"/>
<path transform="matrix(1,0,0,-1,121.6478,325.5903)" d="M0 0C-.357-.599-.74-1.256-1.147-1.97-1.376-1.791-1.619-1.601-1.873-1.396-1.39-.836-.988-.281-.669 .268-.351 .816-.077 1.358 .153 1.893 .331 1.74 .56 1.574 .841 1.396 .637 1.065 .357 .599 0 0M.726 3.5C.522 3.372 .293 3.207 .038 3.003-.217 3.487-.726 4.189-1.491 5.107-1.287 5.26-1.084 5.425-.879 5.604-.038 4.558 .497 3.857 .726 3.5M3.938 1.683C3.989 1.313 4.103 .937 4.282 .555 4.46 .172 4.728-.185 5.085-.516 5.442-.848 5.786-1.122 6.117-1.339 6.448-1.556 6.792-1.74 7.15-1.893 6.869-2.097 6.665-2.339 6.538-2.62 6.028-2.314 5.588-2.008 5.219-1.702 4.849-1.396 4.537-1.071 4.282-.727 4.027-.383 3.798 .032 3.594 .516 3.288-.3 2.842-.963 2.256-1.473 1.669-1.983 1.109-2.378 .573-2.659 .395-2.403 .204-2.186 0-2.008 .56-1.779 1.076-1.479 1.548-1.109 2.02-.74 2.364-.363 2.581 .019 2.797 .402 2.944 .771 3.02 1.128 3.097 1.485 3.141 1.779 3.154 2.008 3.167 2.238 3.16 2.607 3.135 3.118 3.441 3.041 3.759 2.99 4.091 2.965 3.938 2.48 3.887 2.052 3.938 1.683M3.059 5.336C2.906 5.005 2.791 4.749 2.715 4.571H6.576C6.448 4.214 6.334 3.85 6.232 3.481 6.13 3.111 5.989 2.671 5.811 2.161 5.531 2.238 5.276 2.289 5.047 2.314 5.301 3.079 5.467 3.615 5.544 3.921H2.485C2.357 3.666 2.211 3.385 2.046 3.079 1.879 2.773 1.682 2.442 1.453 2.085 1.3 2.238 1.07 2.365 .765 2.467 1.096 2.824 1.427 3.366 1.759 4.093 2.09 4.82 2.345 5.553 2.523 6.293 2.854 6.114 3.148 5.999 3.403 5.948 3.326 5.872 3.212 5.667 3.059 5.336" fill="#2c292a"/>
</g>
<path transform="matrix(1,0,0,-1,133.8318,320.2924)" d="M0 0-4.053-7.23-4.435-7-.382 .23Z" fill="#2c292a"/>
<g clip-path="url(#clip_14)">
<path transform="matrix(1,0,0,-1,136.308,321.746)" d="M0 0C-.332-.332-.752-.65-1.262-.956V-.23C-.625 .204-.102 .714 .306 1.301H.765V-5.279H0Z" fill="#2c292a"/>
<path transform="matrix(1,0,0,-1,141.1984,320.8279)" d="M0 0C.484 .765 .752 1.313 .803 1.645 1.185 1.492 1.542 1.377 1.873 1.301 1.644 1.071 1.389 .701 1.109 .191H4.97C5.531 .191 6.104 .204 6.691 .229V-.421C6.156-.396 5.582-.383 4.97-.383H3.709V-1.951C4.677-1.951 5.531-1.938 6.27-1.913V-2.563C5.506-2.538 4.651-2.525 3.709-2.525V-4.323H5.659C6.219-4.323 6.742-4.31 7.226-4.284V-4.935C6.767-4.909 6.245-4.896 5.659-4.896H3.709V-5.776C3.709-6.363 3.721-6.898 3.747-7.383H2.906C2.931-6.898 2.944-6.388 2.944-5.853V-4.896H.344C-.37-4.896-1.046-4.909-1.682-4.935V-4.284C-1.071-4.31-.472-4.323 .115-4.323 .115-3.328 .102-2.538 .076-1.951H2.944V-.383H.765C.229-1.199-.255-1.862-.688-2.372-.969-2.142-1.262-2.002-1.568-1.951-1.007-1.415-.485-.765 0 0M2.944-2.525H.8410001V-4.323H2.944ZM2.944-4.323" fill="#2c292a"/>
</g>
<path transform="matrix(1,0,0,-1,0,595.276)" d="M126.111 292.498H86.645008V293.791H126.111Z" fill="#2c292a"/>
<path transform="matrix(1,0,0,-1,98.6636,294.734)" d="M0 0H-1.847-3.693L-1.847-3.695ZM-3.693 36.218H-1.847 0L-1.847 39.913ZM-1.231 37.142H-2.462V-.9240036H-1.231Z" fill="#2c292a"/>
<path transform="matrix(1,0,0,-1,0,595.276)" d="M145.209 324.399H90.545V310.542H145.209Z" fill="#ffffff"/>
<g clip-path="url(#clip_15)">
<path transform="matrix(1,0,0,-1,94.1237,280.0662)" d="M0 0V3.213C-.587 3.213-1.02 3.2-1.3 3.175V3.902C-1.02 3.876-.714 3.863-.382 3.863H.803C.777 3.404 .765 2.97 .765 2.563V.306C.968 .51 1.363 .943 1.95 1.607 2.051 1.377 2.192 1.148 2.37 .918 1.988 .536 1.618 .153 1.262-.23 .905-.612 .612-.956 .382-1.262 .127-1.008-.09-.803-.268-.65-.09-.446 0-.23 0 0M-.268 6.235C-.038 6.388 .14 6.566 .268 6.771 .675 6.439 1.16 5.954 1.721 5.317 1.465 5.164 1.262 4.985 1.109 4.782 .701 5.342 .242 5.827-.268 6.235M5.257-.115C4.887 .522 4.575 1.351 4.32 2.372 4.04 1.249 3.638 .338 3.116-.363 2.593-1.065 2.103-1.607 1.644-1.989 1.542-1.81 1.3-1.632 .918-1.454 1.478-1.071 1.982-.58 2.428 .019 2.874 .618 3.205 1.218 3.422 1.817 3.638 2.416 3.766 3.015 3.804 3.615 3.842 4.214 3.862 4.743 3.862 5.202 3.862 5.661 3.848 6.197 3.823 6.809 4.129 6.783 4.46 6.771 4.817 6.771 4.741 6.669 4.69 6.388 4.665 5.929 4.639 5.47 4.651 4.89 4.703 4.189 4.753 3.487 4.881 2.817 5.085 2.18 5.289 1.543 5.582 .905 5.964 .268 6.347-.37 6.895-.905 7.608-1.339 7.2-1.492 6.945-1.696 6.844-1.951 6.156-1.364 5.626-.752 5.257-.115" fill="#2c292a"/>
<path transform="matrix(1,0,0,-1,103.8364,280.5061)" d="M0 0C.268 .395 .49 .803 .669 1.224 .847 1.645 .962 2.059 1.013 2.467 .07 2.467-.606 2.454-1.013 2.429V3.156C-.631 3.13 .082 3.118 1.128 3.118 1.204 3.653 1.243 4.303 1.243 5.068H.363C.235 4.711 .044 4.29-.21 3.806-.491 3.883-.746 3.946-.975 3.997-.797 4.252-.618 4.59-.44 5.011-.262 5.432-.115 5.839 0 6.235 .115 6.63 .197 6.981 .249 7.287 .503 7.211 .796 7.147 1.128 7.096 1 6.917 .898 6.713 .822 6.484 .746 6.254 .656 5.999 .554 5.719 2.007 5.719 2.912 5.731 3.269 5.757V5.068H1.969C1.969 4.507 1.943 3.857 1.893 3.118 2.504 3.118 3.04 3.13 3.498 3.156V2.429C3.04 2.454 2.466 2.467 1.778 2.467 1.752 2.186 1.701 1.919 1.625 1.664 1.854 1.485 2.109 1.287 2.39 1.071 2.67 .854 3.026 .491 3.46-.019 3.281-.096 3.078-.274 2.848-.555 2.619-.172 2.383 .14 2.141 .383 1.899 .625 1.65 .848 1.396 1.052 1.243 .644 1.007 .21 .688-.249 .369-.708 .044-1.115-.287-1.473-.415-1.32-.618-1.167-.898-1.014-.568-.733-.268-.396 0 0M7.36 4.686V.708C7.36 .223 7.372-.274 7.398-.784H6.595V.249H4.569V-.937H3.766C3.791-.453 3.804 .057 3.804 .593V4.686C3.804 5.094 3.791 5.553 3.766 6.063H7.398C7.372 5.553 7.36 5.094 7.36 4.686M6.595 5.451H4.569V.86100009H6.595ZM6.595 .861" fill="#2c292a"/>
<path transform="matrix(1,0,0,-1,121.1574,274.2901)" d="M0 0C-.459 .025-.854 .038-1.185 .038H-3.441C-3.62-.319-3.836-.714-4.091-1.148V-5.929C-4.091-6.44-4.078-7.013-4.053-7.65H-4.894C-4.869-7.038-4.856-6.465-4.856-5.929V-2.18C-5.646-3.277-6.716-4.284-8.067-5.202-8.271-4.896-8.463-4.68-8.641-4.552-8.131-4.323-7.455-3.832-6.614-3.079-5.773-2.327-4.996-1.288-4.282 .038H-6.806C-7.29 .038-7.8 .025-8.335 0V.765C-7.57 .739-6.984 .727-6.576 .727H-1.223C-.893 .727-.484 .739 0 .765ZM-3.403-2.257C-3.199-2.079-3.034-1.9-2.906-1.721-2.294-2.283-1.772-2.773-1.338-3.194-.905-3.615-.497-4.03-.115-4.437-.37-4.642-.599-4.858-.803-5.088-1.287-4.476-2.154-3.532-3.403-2.257" fill="#2c292a"/>
<path transform="matrix(1,0,0,-1,122.6691,274.5961)" d="M0 0C.382-.026 .828-.038 1.338-.038H3.517C3.262-1.67 2.944-2.933 2.562-3.825 3.198-4.718 3.67-5.407 3.976-5.891 3.798-6.019 3.594-6.184 3.365-6.388 2.829-5.47 2.434-4.845 2.179-4.514 1.873-5.049 1.568-5.496 1.262-5.853 .956-6.21 .573-6.604 .115-7.038-.064-6.809-.268-6.643-.497-6.541-.064-6.235 .331-5.878 .688-5.47 1.045-5.062 1.389-4.539 1.72-3.902 1.109-3.162 .548-2.55 .038-2.066 .191-1.938 .369-1.773 .573-1.568 1.312-2.385 1.81-2.933 2.065-3.213 2.396-2.295 2.612-1.441 2.715-.65H1.338C.828-.65 .382-.663 0-.689ZM3.67-.842C4.282-.867 4.703-.88 4.932-.88H6.576V.268C6.576 .599 6.55 .956 6.5 1.339H7.379C7.353 1.033 7.341 .65 7.341 .191V-.88C7.595-.88 8.016-.867 8.603-.842V-1.53C8.016-1.505 7.595-1.492 7.341-1.492V-6.312C7.366-6.796 7.207-7.102 6.863-7.23 6.519-7.357 6.13-7.446 5.697-7.497 5.62-7.191 5.506-6.91 5.353-6.656 5.913-6.656 6.264-6.624 6.404-6.56 6.544-6.497 6.601-6.312 6.576-6.006V-1.492H4.97C4.741-1.492 4.307-1.517 3.67-1.568ZM5.582-4.476C5.25-4.603 5.009-4.731 4.856-4.858 4.626-4.169 4.295-3.456 3.862-2.716 4.04-2.639 4.244-2.512 4.473-2.333 4.906-3.098 5.276-3.813 5.582-4.476" fill="#2c292a"/>
<path transform="matrix(1,0,0,-1,132.8979,278.5935)" d="M0 0C.254 .522 .459 1.128 .612 1.817 .076 1.817-.332 1.804-.612 1.779V2.467C-.051 2.442 .484 2.429 .994 2.429V4.036C.739 3.984 .318 3.895-.268 3.768-.37 4.048-.472 4.278-.574 4.456-.243 4.482 .051 4.514 .306 4.552 .56 4.59 .815 4.634 1.071 4.686 1.325 4.737 1.568 4.801 1.797 4.877 2.026 4.954 2.281 5.068 2.562 5.221 2.715 4.89 2.88 4.622 3.059 4.418 2.625 4.367 2.166 4.278 1.682 4.15V2.429C1.962 2.429 2.37 2.442 2.906 2.467V1.702C2.37 1.753 1.962 1.779 1.682 1.779V.631C1.835 .759 2.001 .899 2.179 1.052 2.434 .669 2.676 .274 2.906-.134 2.727-.236 2.536-.377 2.332-.555 2.077-.045 1.86 .325 1.682 .555V-2.276C1.682-2.531 1.695-2.926 1.72-3.462H.918C.968-2.951 .994-2.556 .994-2.276V.822C.765 .108 .548-.44 .344-.822 .14-1.205-.09-1.587-.344-1.97-.497-1.74-.65-1.524-.803-1.32-.523-.963-.255-.523 0 0M3.976-.574C3.823-.995 3.594-1.575 3.288-2.314 2.982-2.161 2.727-2.046 2.523-1.97 2.931-1.256 3.301-.312 3.632 .861 3.887 .733 4.154 .618 4.435 .516 4.282 .21 4.129-.153 3.976-.574M4.55 3.844H7.876L7.264 1.702C7.009 1.753 6.767 1.817 6.538 1.893 6.639 2.2 6.754 2.633 6.882 3.194H4.359C4.18 2.659 3.976 2.097 3.747 1.511 3.441 1.638 3.186 1.727 2.982 1.779 3.313 2.365 3.575 2.984 3.766 3.634 3.957 4.284 4.116 4.928 4.244 5.566 4.575 5.413 4.856 5.311 5.085 5.26 4.957 4.979 4.779 4.507 4.55 3.844M5.811 1.014V-2.429C5.811-2.913 5.684-3.2 5.429-3.29 5.174-3.379 4.817-3.462 4.359-3.538 4.282-3.207 4.18-2.913 4.053-2.659 4.486-2.684 4.773-2.684 4.913-2.659 5.053-2.633 5.123-2.48 5.123-2.199V1.014C5.123 1.6 5.11 2.047 5.085 2.353H5.85C5.824 2.097 5.811 1.651 5.811 1.014M7.608-.402C7.863-.836 8.08-1.269 8.258-1.702 7.952-1.83 7.71-1.97 7.532-2.123 7.277-1.562 7.047-1.071 6.844-.65 6.639-.229 6.448 .096 6.27 .325 6.5 .453 6.716 .593 6.92 .746 7.124 .414 7.353 .032 7.608-.402" fill="#2c292a"/>
<path transform="matrix(1,0,0,-1,274.1892,296.9129)" d="M0 0H-.898C-.873-.469-.859-1.003-.859-1.602V-4.141C-.859-4.687-.873-5.248-.898-5.82H6.211V-6.641H7.07C7.044-5.937 7.031-5.273 7.031-4.648V-1.484C7.031-.834 7.044-.352 7.07-.039H6.172C6.198-.43 6.211-.912 6.211-1.484V-5.156H3.477V.703C3.477 1.276 3.489 1.744 3.516 2.109H2.656C2.682 1.641 2.695 1.172 2.695 .703V-5.156H-.039V-1.562C-.039-1.146-.026-.625 0 0" fill="#2c292a"/>
</g>
</g>
</g>
</svg>
