<svg xmlns="http://www.w3.org/2000/svg" xmlns:xlink="http://www.w3.org/1999/xlink" xmlns:inkscape="http://www.inkscape.org/namespaces/inkscape" version="1.1" width="411.024" height="595.276" viewBox="0 0 411.024 595.276">
<defs>
<clipPath id="clip_1">
<path transform="matrix(1,0,0,-1,0,595.276)" d="M0 0H411.024V595.276H0Z"/>
</clipPath>
<clipPath id="clip_2">
<path transform="matrix(1,0,0,-1,0,595.276)" d="M0 0H411.024V595.276H0Z"/>
</clipPath>
<path id="font_3_5" d="M.45999146 .19407654C.45999146 .28303529 .4229889 .34100343 .35099793 .36799623 .4149933 .39700318 .44699098 .450943 .44699098 .52586367 .44699098 .64175418 .36698915 .71875 .25099183 .71875 .14299011 .71875 .05899048 .6507416 .050994874 .53585818H.12298584C.12998963 .60879519 .17599488 .6547394 .25099183 .6547394 .31999208 .6547394 .375 .609787 .375 .5248718 .375 .4449463 .33499146 .3959961 .24798584 .3959961H.23298645V.3330078H.24798584C.34498597 .3330078 .3880005 .28103639 .3880005 .19508362 .3880005 .10812378 .32798768 .057159425 .25099183 .057159425 .18299866 .057159425 .11999512 .09213257 .11399841 .18109131H.041992189C.04798889 .05215454 .13899231-.0068359377 .25099183-.0068359377 .36698915-.0068359377 .45999146 .06315613 .45999146 .19407654Z"/>
<path id="font_3_7" d="M.46199037 .23516846C.46199037 .30218507 .45498658 .37419129 .40299989 .42619325 .375 .45419313 .33299256 .4711914 .27999879 .4711914 .22399903 .4711914 .17999268 .4532013 .1519928 .42219544V.64790347H.44699098V.71191409H.08699036V.33818055H.1519928C.1659851 .380188 .20799256 .40820313 .269989 .40820313 .37298585 .40820313 .3899994 .32218934 .3899994 .23516846 .3899994 .18417359 .3880005 .12716675 .35099793 .090164188 .32998658 .06915283 .2979889 .057159425 .2630005 .057159425 .18798828 .057159425 .15098572 .09716797 .14199829 .16816712H.069992069C.07398987 .11715698 .08898926 .076156619 .11999512 .044158937 .15098572 .013153076 .20098877-.0068359377 .2630005-.0068359377 .32598878-.0068359377 .37199403 .013153076 .40499879 .046157838 .45599366 .09716797 .46199037 .16416931 .46199037 .23516846Z"/>
<clipPath id="clip_4">
<path transform="matrix(1,0,0,-1,0,595.276)" d="M0 0H411.024V595.276H0Z"/>
</clipPath>
<clipPath id="clip_5">
<path transform="matrix(1,0,0,-1,0,595.276)" d="M0 0H411.024V595.276H0Z"/>
</clipPath>
<clipPath id="clip_6">
<path transform="matrix(1,0,0,-1,0,595.276)" d="M0 0H411.024V595.276H0Z"/>
</clipPath>
<clipPath id="clip_7">
<path transform="matrix(1,0,0,-1,0,595.276)" d="M0 0H411.024V595.276H0Z"/>
</clipPath>
</defs>
<g clip-path="url(#clip_1)">
<g clip-path="url(#clip_2)">
<use data-text="3" xlink:href="#font_3_5" transform="matrix(9,0,0,-9,363.685,567.547)" fill="#f43040"/>
<use data-text="5" xlink:href="#font_3_7" transform="matrix(9,0,0,-9,367.285,567.547)" fill="#f43040"/>
<use data-text="3" xlink:href="#font_3_5" transform="matrix(9,0,0,-9,370.885,567.547)" fill="#f43040"/>
<g clip-path="url(#clip_4)">
<path transform="matrix(1,0,0,-1,315.8656,288.4791)" d="M0 0H-43.251C-45.39 0-47.131 1.741-47.131 3.881V16.988C-47.131 19.128-45.39 20.869-43.251 20.869H0C2.139 20.869 3.88 19.128 3.88 16.988V3.881C3.88 1.741 2.139 0 0 0M-43.251 19.66C-44.724 19.66-45.922 18.461-45.922 16.988V3.881C-45.922 2.408-44.724 1.209-43.251 1.209H0C1.472 1.209 2.67 2.408 2.67 3.881V16.988C2.67 18.461 1.472 19.66 0 19.66Z" fill="#2c292a"/>
<path transform="matrix(1,0,0,-1,150.7208,288.4791)" d="M0 0H-41.03C-43.169 0-44.909 1.741-44.909 3.881V16.988C-44.909 19.128-43.169 20.869-41.03 20.869H0C2.139 20.869 3.88 19.128 3.88 16.988V3.881C3.88 1.741 2.139 0 0 0M-41.03 19.66C-42.502 19.66-43.7 18.461-43.7 16.988V3.881C-43.7 2.408-42.502 1.209-41.03 1.209H0C1.472 1.209 2.67 2.408 2.67 3.881V16.988C2.67 18.461 1.472 19.66 0 19.66Z" fill="#2c292a"/>
<path transform="matrix(1,0,0,-1,150.3607,230.5505)" d="M0 0H-41.03C-43.169 0-44.909 1.741-44.909 3.881V16.988C-44.909 19.128-43.169 20.869-41.03 20.869H0C2.139 20.869 3.88 19.128 3.88 16.988V3.881C3.88 1.741 2.139 0 0 0M-41.03 19.66C-42.502 19.66-43.7 18.461-43.7 16.988V3.881C-43.7 2.408-42.502 1.209-41.03 1.209H0C1.472 1.209 2.67 2.408 2.67 3.881V16.988C2.67 18.461 1.472 19.66 0 19.66Z" fill="#2c292a"/>
<path transform="matrix(1,0,0,-1,315.8656,230.5505)" d="M0 0H-43.251C-45.39 0-47.131 1.741-47.131 3.881V16.988C-47.131 19.128-45.39 20.869-43.251 20.869H0C2.139 20.869 3.88 19.128 3.88 16.988V3.881C3.88 1.741 2.139 0 0 0M-43.251 19.66C-44.724 19.66-45.922 18.461-45.922 16.988V3.881C-45.922 2.408-44.724 1.209-43.251 1.209H0C1.472 1.209 2.67 2.408 2.67 3.881V16.988C2.67 18.461 1.472 19.66 0 19.66Z" fill="#2c292a"/>
<path transform="matrix(1,0,0,-1,0,595.276)" d="M225.491 340.097H228.134V340.745H225.491ZM217.507 340.097H220.15001V340.745H217.507ZM225.491 342.091H228.134V346.077H225.491ZM217.507 342.091H220.15001V346.077H217.507ZM196.886 346.725C197.257 346.725 197.558 346.424 197.558 346.052 197.558 345.681 197.257 345.38 196.886 345.38 196.514 345.38 196.214 345.681 196.214 346.052 196.214 346.424 196.514 346.725 196.886 346.725M198.206 348.07C198.564 348.07 198.854 347.769 198.854 347.397 198.854 347.026 198.564 346.725 198.206 346.725 197.848 346.725 197.558 347.026 197.558 347.397 197.558 347.769 197.848 348.07 198.206 348.07M195.537 348.07C195.911 348.07 196.214 347.769 196.214 347.397 196.214 347.026 195.911 346.725 195.537 346.725 195.164 346.725 194.861 347.026 194.861 347.397 194.861 347.769 195.164 348.07 195.537 348.07M226.788 349.366C226.339 349.366 225.641 348.319 225.491 347.373H228.085C227.985 348.319 227.287 349.366 226.788 349.366M218.803 349.366C218.354 349.366 217.656 348.319 217.507 347.373H220.1C220 348.319 219.302 349.366 218.803 349.366M196.886 349.366C197.257 349.366 197.558 349.076 197.558 348.718 197.558 348.36 197.257 348.07 196.886 348.07 196.514 348.07 196.214 348.36 196.214 348.718 196.214 349.076 196.514 349.366 196.886 349.366M226.788 350.711C228.334 350.711 229.282 348.718 229.431 347.373H229.481V347.074 340.745 340.097C229.83 340.097 230.129 339.798 230.129 339.4 230.129 339.051 229.83 338.752 229.481 338.752H224.145C223.796 338.752 223.497 339.051 223.497 339.4 223.497 339.798 223.796 340.097 224.145 340.097V340.745 347.074 347.373C224.294 348.718 225.292 350.711 226.788 350.711M218.803 350.711C220.349 350.711 221.297 348.718 221.446 347.373H221.496V347.074 340.745 340.097C221.845 340.097 222.144 339.798 222.144 339.4 222.144 339.051 221.845 338.752 221.496 338.752H216.16C215.811 338.752 215.512 339.051 215.512 339.4 215.512 339.798 215.811 340.097 216.16 340.097V340.745 347.074 347.373C216.31 348.718 217.307 350.711 218.803 350.711M198.206 350.711C198.564 350.711 198.854 350.41 198.854 350.039 198.854 349.667 198.564 349.366 198.206 349.366 197.848 349.366 197.558 349.667 197.558 350.039 197.558 350.41 197.848 350.711 198.206 350.711M195.537 350.711C195.911 350.711 196.214 350.41 196.214 350.039 196.214 349.667 195.911 349.366 195.537 349.366 195.164 349.366 194.861 349.667 194.861 350.039 194.861 350.41 195.164 350.711 195.537 350.711M196.886 352.056C197.257 352.056 197.558 351.755 197.558 351.384 197.558 351.012 197.257 350.711 196.886 350.711 196.514 350.711 196.214 351.012 196.214 351.384 196.214 351.755 196.514 352.056 196.886 352.056M206.186 352.704C205.837 352.704 205.538 352.405 205.538 352.056 205.538 350.561 206.735 349.365 208.181 349.365 209.628 349.365 210.825 350.561 210.825 352.056V352.704H208.181L209.378 351.109 208.331 350.312 206.535 352.704ZM198.206 353.353C198.564 353.353 198.854 353.062 198.854 352.704 198.854 352.346 198.564 352.056 198.206 352.056 197.848 352.056 197.558 352.346 197.558 352.704 197.558 353.062 197.848 353.353 198.206 353.353M202.047 356.99C200.201 356.89 198.505 355.993 197.109 354.647 197.358 354.548 197.558 354.299 197.558 354.049 197.558 353.651 197.258 353.352 196.859 353.352 196.61 353.352 196.361 353.551 196.261 353.75 196.161 353.601 196.012 353.451 195.862 353.252 196.061 353.152 196.211 352.953 196.211 352.704 196.211 352.355 195.912 352.056 195.563 352.056 195.413 352.056 195.263 352.106 195.164 352.156 195.064 352.006 194.914 351.807 194.815 351.608 194.864 351.508 194.864 351.458 194.864 351.359 194.864 351.109 194.715 350.86 194.416 350.761 194.216 350.262 194.066 349.814 193.917 349.315 194.017 349.365 194.116 349.365 194.216 349.365 194.565 349.365 194.864 349.066 194.864 348.717 194.864 348.369 194.565 348.07 194.216 348.07 194.017 348.07 193.817 348.169 193.717 348.319 193.618 347.771 193.568 347.272 193.568 346.724V346.126 346.076C193.568 346.425 193.867 346.724 194.216 346.724 194.565 346.724 194.864 346.425 194.864 346.076 194.864 345.728 194.615 345.478 194.316 345.429 194.366 345.379 194.465 345.379 194.515 345.379H196.859 199.303V345.429C199.054 345.528 198.855 345.777 198.855 346.076 198.855 346.276 199.004 346.475 199.204 346.625 199.104 347.173 199.054 347.721 199.004 348.319 198.954 348.419 198.855 348.568 198.855 348.717 198.855 348.917 198.954 349.066 199.054 349.166 199.154 349.764 199.303 350.312 199.653 350.711H199.553C199.154 350.711 198.855 351.01 198.855 351.359 198.855 351.757 199.154 352.056 199.553 352.056 199.902 352.056 200.201 351.757 200.201 351.359 200.201 351.309 200.201 351.259 200.151 351.209 200.55 351.508 201.049 351.658 201.648 351.707 201.697 351.807 201.747 351.907 201.797 352.006L201.947 352.305C202.096 352.704 202.196 353.103 202.196 353.501V356.99ZM214.815 359.332V358.036H218.156C219.004 358.036 219.752 358.584 220.052 359.332ZM207.834 362.023C206.187 362.023 204.84 360.678 204.84 359.033 204.84 357.389 206.187 356.043 207.834 356.043H211.526V356.691H206.836V358.036H211.526V359.332H206.836V360.678H211.526V362.023ZM214.815 362.67V360.677H221.498 230.775V362.67H227.034ZM207.834 363.319H211.875C212.424 363.319 212.823 362.92 212.823 362.372V355.694C212.823 355.146 212.424 354.698 211.875 354.698H207.834C205.488 354.698 203.542 356.641 203.542 359.033 203.542 361.375 205.488 363.319 207.834 363.319M207.234 364.016C205.887 364.016 204.69 363.368 203.842 362.421V362.371L203.792 362.321C203.692 362.172 203.593 362.022 203.493 361.873L203.443 361.823C203.343 361.624 203.244 361.474 203.194 361.275L203.144 361.225C203.094 361.076 203.044 360.926 202.994 360.777V360.627C202.944 360.478 202.894 360.278 202.894 360.079 202.845 359.93 202.845 359.78 202.845 359.631V358.285 358.235C202.944 358.235 203.044 358.185 203.094 358.136L203.144 358.086C203.244 358.036 203.293 357.936 203.343 357.886 203.393 357.787 203.443 357.687 203.443 357.637 203.493 357.587 203.493 357.587 203.493 357.538 203.493 357.488 203.543 357.388 203.543 357.288V353.501C203.543 353.302 203.493 353.053 203.443 352.854V352.704H204.291L204.341 352.754C204.341 352.804 204.341 352.854 204.391 352.854 204.391 352.953 204.441 353.003 204.49 353.103 204.54 353.103 204.54 353.152 204.54 353.202 204.59 353.252 204.69 353.352 204.74 353.402L204.79 353.451C204.889 353.551 204.939 353.601 205.039 353.651 205.089 353.701 205.089 353.701 205.139 353.75 205.189 353.75 205.289 353.8 205.338 353.85 205.388 353.85 205.438 353.9 205.488 353.9 205.538 353.9 205.638 353.95 205.687 353.95 205.737 354 205.787 354 205.837 354 205.937 354 206.037 354.049 206.186 354.049H212.171 212.77C213.169 354.049 213.518 354.348 213.518 354.797V356.691 359.332 360.677 362.919C213.518 363.517 213.019 364.016 212.421 364.016ZM200.5 364.016C200.451 364.016 200.351 364.016 200.301 363.966 200.251 363.966 200.201 363.866 200.201 363.767V362.421L201.797 361.275V361.325C201.847 361.524 201.947 361.723 201.997 361.923 202.047 361.973 202.047 362.022 202.096 362.072 202.146 362.222 202.246 362.371 202.346 362.521 202.346 362.571 202.346 362.571 202.396 362.62ZM229.877 365.311 229.229 364.016H230.775V365.311ZM229.029 366.657H232.122V364.016 362.67 359.332H221.398C221.099 357.837 219.752 356.691 218.156 356.691H214.815V354.797C214.815 353.651 213.917 352.704 212.77 352.704H212.171V352.056C212.171 349.864 210.376 348.07 208.181 348.07 206.186 348.07 204.59 349.515 204.241 351.359H202.994C202.845 351.109 202.645 350.86 202.495 350.611L202.296 350.362H201.947C201.348 350.362 200.949 350.262 200.7 349.963 200.151 349.315 200.351 347.92 200.5 346.824 200.65 345.728 200.75 344.93 200.301 344.432 200.101 344.183 199.852 344.083 199.553 344.083H194.515C193.219 344.083 192.221 344.98 192.221 346.126V346.724C192.221 351.807 196.211 357.687 201.548 358.285V359.631 359.83L199.353 361.375C199.054 361.524 198.855 361.873 198.855 362.222V363.767C198.855 364.315 199.154 364.863 199.653 365.112 200.151 365.411 200.75 365.411 201.249 365.112L203.194 363.667C204.241 364.713 205.638 365.311 207.234 365.311H212.421C213.368 365.311 214.166 364.763 214.565 364.016H227.733Z" fill="#f43040"/>
<path transform="matrix(1,0,0,-1,211.3623,285.3636)" d="M0 0C-11.571 0-22.45 4.508-30.632 12.695-38.814 20.881-43.321 31.765-43.321 43.342-43.321 54.918-38.814 65.802-30.632 73.989-22.45 82.175-11.571 86.683 0 86.683 11.571 86.683 22.45 82.175 30.632 73.989 38.814 65.802 43.32 54.918 43.32 43.342 43.32 31.765 38.814 20.881 30.632 12.695 22.45 4.508 11.571 0 0 0M0 85.474C-23.22 85.474-42.111 66.573-42.111 43.342-42.111 20.11-23.22 1.209 0 1.209 23.22 1.209 42.111 20.11 42.111 43.342 42.111 66.573 23.22 85.474 0 85.474" fill="#f43040"/>
</g>
<path transform="matrix(1,0,0,-1,213.6644,297.6703)" d="M0 0-20.194 13.366-19.527 14.374-.024 1.466 18.57 14.668 19.27 13.682Z" fill="#f43040"/>
<g clip-path="url(#clip_5)">
<path transform="matrix(1,0,0,-1,114.0621,243.87659)" d="M0 0C-.175-.138-.313-.257-.413-.357-.163-.708 .025-1.152 .15-1.69 .275-2.229 .306-2.798 .244-3.399 .181-4-.032-4.444-.394-4.732-.757-5.019-1.252-5.226-1.877-5.352-1.902-5.151-2.002-4.926-2.177-4.676-1.602-4.6-1.195-4.475-.957-4.3-.72-4.125-.569-3.919-.507-3.68-.445-3.443-.407-3.205-.394-2.967-.382-2.729-.401-2.41-.45-2.009-.626-2.26-.839-2.492-1.089-2.704-1.339-2.917-1.74-3.236-2.29-3.662-2.415-3.461-2.59-3.286-2.815-3.136-2.365-2.936-1.946-2.666-1.558-2.328-1.17-1.99-.863-1.671-.638-1.371-.738-1.121-.839-.92-.938-.77-1.064-.87-1.22-.983-1.408-1.108-1.595-1.233-1.89-1.421-2.29-1.671-2.44-1.496-2.603-1.333-2.778-1.183-2.227-.958-1.74-.657-1.314-.282-1.639-.006-1.94 .194-2.215 .319-2.04 .469-1.89 .644-1.764 .845-1.314 .519-.989 .282-.788 .131-.438 .407-.201 .657-.075 .883 .05 .707 .25 .532 .526 .357 .35 .256 .175 .137 0 0M.488 1.746C.488 1.496 .5 1.245 .526 .995H-.263C-.238 1.32-.225 1.571-.225 1.746H-1.239C-1.614 1.746-2.027 1.733-2.477 1.709V2.385C-2.002 2.359-1.576 2.347-1.201 2.347H-.225C-.225 2.648-.238 2.948-.263 3.248H.526C.5 2.998 .488 2.697 .488 2.347H2.402C2.402 2.697 2.389 3.01 2.365 3.286H3.153C3.128 3.01 3.116 2.697 3.116 2.347H4.054C4.454 2.347 4.904 2.359 5.405 2.385V1.709C4.955 1.733 4.517 1.746 4.092 1.746H3.116C3.116 1.521 3.128 1.27 3.153 .995H2.365C2.389 1.245 2.402 1.496 2.402 1.746ZM3.078-.92H4.429C4.805-.92 5.13-.908 5.405-.883V-1.559C5.13-1.534 4.805-1.521 4.429-1.521H3.116C3.165-1.772 3.253-2.047 3.378-2.347 3.503-2.648 3.679-2.942 3.904-3.23 4.129-3.518 4.404-3.793 4.73-4.056 5.055-4.319 5.343-4.488 5.593-4.563 5.293-4.788 5.08-5.014 4.955-5.239 4.504-4.913 4.079-4.519 3.679-4.056 3.278-3.593 2.965-3.048 2.74-2.422 2.565-2.948 2.358-3.386 2.121-3.737 1.883-4.088 1.657-4.382 1.445-4.619 1.232-4.857 .951-5.101 .601-5.352 .425-5.126 .238-4.938 .038-4.788 .338-4.613 .625-4.4 .901-4.15 1.176-3.9 1.408-3.624 1.595-3.324 1.783-3.023 1.939-2.704 2.065-2.366 2.189-2.028 2.265-1.746 2.29-1.521H1.877C1.451-1.521 1.014-1.534 .563-1.559V-.883C1.014-.908 1.451-.92 1.877-.92H2.365C2.365-.119 2.352 .419 2.327 .695 2.577 .644 2.853 .607 3.153 .582 3.103 .306 3.078-.194 3.078-.92M5.067-.394C4.867-.52 4.679-.67 4.504-.845 4.204-.394 3.904-.019 3.604 .282 3.728 .357 3.904 .494 4.129 .695 4.404 .444 4.717 .081 5.067-.394" fill="#2c292a"/>
<path transform="matrix(1,0,0,-1,123.2224,248.1766)" d="M0 0C.162 .025 .256 .163 .282 .413V2.328H-1.032C-1.083 1.727-1.139 1.258-1.201 .92-1.264 .582-1.345 .269-1.445-.019-1.545-.306-1.67-.588-1.82-.864-2.046-.663-2.284-.526-2.534-.451-2.284-.1-2.083 .319-1.933 .807-1.783 1.296-1.696 1.94-1.67 2.741V5.971C-1.67 6.371-1.683 6.76-1.708 7.135H.995C.969 6.634 .957 6.134 .957 5.633V0C.982-.526 .507-.813-.469-.864-.445-.613-.52-.325-.694 0-.394-.025-.163-.025 0 0M.282 6.534H-.994V5.032H.282ZM.282 4.431H-.994V2.9290004H.282ZM2.308 5.483H3.284C3.284 6.534 3.271 7.198 3.247 7.473H4.035C4.01 7.248 3.998 6.584 3.998 5.483 4.823 5.483 5.424 5.495 5.799 5.521V4.882C5.424 4.907 4.823 4.92 3.998 4.92V3.004C4.798 3.004 5.349 3.017 5.649 3.042V2.366C5.298 2.391 4.748 2.404 3.998 2.404V-.075C4.998-.075 5.687-.063 6.062-.038V-.751C5.687-.726 5.274-.714 4.823-.714H2.534C2.033-.714 1.582-.726 1.182-.751V-.038C1.582-.063 2.283-.075 3.284-.075V2.404C2.483 2.404 1.933 2.391 1.633 2.366V3.042C1.933 3.017 2.483 3.004 3.284 3.004V4.92H2.158C2.058 4.519 1.883 4.056 1.633 3.53 1.432 3.63 1.22 3.705 .995 3.755 1.27 4.281 1.483 4.819 1.633 5.37 1.783 5.921 1.87 6.422 1.896 6.872 2.171 6.772 2.433 6.709 2.684 6.685 2.584 6.484 2.459 6.084 2.308 5.483" fill="#2c292a"/>
<path transform="matrix(1,0,0,-1,131.5568,241.67969)" d="M0 0C0 .325-.013 .638-.038 .939H.713C.663 .613 .638 .238 .638-.188V-.939C.838-.939 1.089-.927 1.389-.901V-1.54C1.063-1.515 .813-1.502 .638-1.502V-2.666C.763-2.591 .901-2.504 1.051-2.404 1.251-2.879 1.439-3.355 1.614-3.831 1.389-3.881 1.201-3.969 1.051-4.093 .951-3.743 .813-3.368 .638-2.967V-6.197C.638-6.623 .65-7.06 .676-7.511H-.038C-.013-6.985 0-6.547 0-6.197V-3.605C-.175-4.182-.401-4.72-.676-5.22-.776-5.02-.964-4.82-1.239-4.619-.914-4.144-.67-3.68-.507-3.23-.344-2.779-.201-2.203-.075-1.502-.526-1.502-.826-1.515-.976-1.54V-.901C-.776-.927-.451-.939 0-.939ZM2.853-4.431C3.027-4.306 3.215-4.182 3.416-4.056 3.566-4.306 3.697-4.538 3.81-4.751 3.922-4.964 4.066-5.22 4.242-5.521 4.091-5.646 3.891-5.796 3.641-5.971 3.591-5.821 3.515-5.646 3.416-5.445 3.215-5.621 2.965-5.815 2.665-6.028 2.365-6.241 2.102-6.472 1.877-6.722 1.701-6.472 1.539-6.272 1.389-6.121 1.564-5.947 1.664-5.684 1.689-5.333V-.638C1.689-.213 1.676 .137 1.651 .413H3.866C3.841 .038 3.829-.576 3.829-1.427 3.829-2.253 3.841-2.892 3.866-3.342H2.327V-5.521C2.502-5.421 2.778-5.22 3.153-4.92 3.053-4.72 2.952-4.557 2.853-4.431M3.191-.15H2.328V-1.164H3.191ZM3.191-1.728H2.328V-2.7800003H3.191ZM2.928-7.135C3.378-6.885 3.829-6.403 4.279-5.69 4.729-4.976 5.054-4.119 5.255-3.117H4.204C4.229-2.742 4.242-2.379 4.242-2.028 4.242-1.678 4.229-1.34 4.204-1.014H4.917C4.867-1.215 4.842-1.465 4.842-1.765V-2.554H5.405C5.48-1.778 5.518-.939 5.518-.038H5.142C4.792-.038 4.479-.05 4.204-.075V.563C4.504 .538 4.817 .526 5.142 .526H6.231C6.706 .526 7.057 .538 7.282 .563V-.075C7.081-.05 6.706-.038 6.156-.038 6.156-.739 6.118-1.577 6.043-2.554H6.569C6.794-2.554 7.069-2.541 7.395-2.516V-3.155C7.069-3.13 6.819-3.117 6.644-3.117H5.931C5.605-4.394 5.274-5.339 4.936-5.952 4.598-6.566 4.116-7.148 3.491-7.699 3.365-7.498 3.178-7.31 2.928-7.135M6.419-6.309C6.419-6.585 6.487-6.735 6.625-6.76 6.762-6.784 6.869-6.791 6.944-6.779 7.019-6.766 7.076-6.704 7.113-6.591 7.151-6.478 7.169-6.259 7.169-5.934 7.395-6.059 7.632-6.147 7.883-6.197 7.782-6.722 7.682-7.047 7.582-7.173 7.482-7.298 7.282-7.361 6.982-7.361H6.531C5.981-7.335 5.73-7.073 5.781-6.572V-4.056H6.456C6.431-4.732 6.419-5.483 6.419-6.309" fill="#2c292a"/>
<path transform="matrix(1,0,0,-1,145.0524,241.52951)" d="M0 0H1.877C2.327 0 2.828 .012 3.378 .038V-.601C2.828-.551 2.314-.526 1.839-.526H-1.126C-.951-.651-.701-.789-.375-.939-.601-1.089-.813-1.271-1.013-1.483-1.214-1.696-1.414-1.903-1.614-2.103H-.413C-.113-1.803 .137-1.478 .338-1.127 .563-1.302 .813-1.478 1.089-1.652 .763-1.828 .425-2.103 .075-2.479-.276-2.854-.764-3.292-1.389-3.793L.451-3.643C.325-3.493 .2-3.33 .075-3.155 .225-3.105 .425-2.992 .676-2.817 .925-3.117 1.276-3.593 1.727-4.244 1.501-4.319 1.263-4.444 1.014-4.619 .963-4.469 .863-4.306 .713-4.131 .388-4.156 .087-4.169-.188-4.169V-5.22H2.402C2.928-5.22 3.403-5.208 3.829-5.183V-5.821C3.428-5.796 2.94-5.783 2.365-5.783H-.188V-6.535C-.188-7.01-.175-7.411-.15-7.736H-.976C-.951-7.411-.938-7.01-.938-6.535V-5.783H-3.341C-3.842-5.783-4.342-5.796-4.842-5.821V-5.183C-4.342-5.208-3.829-5.22-3.303-5.22H-.938V-4.244C-1.164-4.269-1.389-4.3-1.614-4.338-1.839-4.375-2.064-4.431-2.29-4.507-2.365-4.257-2.453-4.018-2.552-3.793-2.327-3.768-2.09-3.668-1.839-3.493-1.589-3.318-1.264-3.017-.863-2.591-1.539-2.666-2.015-2.754-2.29-2.854-2.34-2.604-2.427-2.328-2.552-2.028-2.327-2.028-2.09-1.872-1.839-1.559-1.589-1.246-1.377-.901-1.201-.526H-2.778C-3.328-.526-3.854-.551-4.354-.601V.038C-3.854 .012-3.404 0-3.003 0H-.863C-.938 .3-1.026 .55-1.126 .751-.901 .801-.638 .864-.338 .939-.238 .688-.125 .376 0 0M-2.59-3.493C-2.84-3.643-3.091-3.812-3.341-4-3.591-4.187-3.854-4.407-4.129-4.657-4.304-4.407-4.467-4.181-4.617-3.981-4.292-3.831-3.979-3.662-3.679-3.474-3.378-3.286-3.115-3.105-2.89-2.929-2.791-3.105-2.69-3.292-2.59-3.493M-2.665-1.878C-2.866-2.053-3.04-2.229-3.191-2.404-3.541-2.028-3.917-1.728-4.317-1.502-4.117-1.327-3.929-1.164-3.754-1.014-3.378-1.265-3.016-1.553-2.665-1.878M2.628-1.896C2.377-2.084 2.127-2.304 1.877-2.554 1.701-2.328 1.539-2.154 1.389-2.028 1.614-1.878 1.814-1.722 1.989-1.559 2.164-1.396 2.377-1.177 2.628-.901 2.853-1.127 3.065-1.327 3.266-1.502 3.09-1.577 2.877-1.709 2.628-1.896M2.684-3.286C2.896-3.424 3.165-3.618 3.491-3.868 3.29-4.018 3.103-4.194 2.928-4.394 2.727-4.219 2.509-4.031 2.271-3.831 2.033-3.63 1.789-3.455 1.539-3.305 1.689-3.155 1.826-2.992 1.952-2.817 2.227-2.992 2.471-3.149 2.684-3.286" fill="#2c292a"/>
<path transform="matrix(1,0,0,-1,115.8167,257.875)" d="M0 0C0 .3 .075 .594 .225 .883 .375 1.17 .625 1.402 .976 1.577 .676 1.752 .475 1.946 .375 2.159 .275 2.372 .219 2.616 .206 2.892 .194 3.167 .231 3.405 .319 3.605 .406 3.805 .538 3.993 .713 4.169 .888 4.343 1.082 4.463 1.295 4.525 1.507 4.588 1.739 4.619 1.989 4.619 2.239 4.619 2.464 4.594 2.665 4.544 2.865 4.494 3.078 4.387 3.303 4.225 3.528 4.062 3.691 3.831 3.791 3.53 3.891 3.23 3.885 2.879 3.772 2.479 3.66 2.078 3.365 1.765 2.89 1.54 3.315 1.414 3.616 1.221 3.791 .958 3.966 .695 4.054 .376 4.054 0 4.054-.376 3.998-.676 3.885-.901 3.772-1.127 3.647-1.314 3.51-1.465 3.372-1.615 3.184-1.734 2.947-1.821 2.708-1.909 2.408-1.953 2.046-1.953 1.683-1.953 1.37-1.909 1.107-1.821 .845-1.734 .625-1.603 .45-1.427 .275-1.252 .156-1.046 .094-.807 .031-.57 0-.3 0 0M.769 .038C.757-.263 .807-.526 .92-.751 1.032-.976 1.239-1.121 1.539-1.183 1.839-1.246 2.152-1.239 2.477-1.164 2.802-1.089 3.027-.914 3.153-.638 3.278-.363 3.322-.088 3.284 .188 3.247 .463 3.09 .695 2.815 .883 2.54 1.07 2.239 1.151 1.914 1.127 1.589 1.101 1.32 .989 1.107 .789 .894 .588 .782 .338 .769 .038M.901 2.967C.901 2.716 .988 2.479 1.164 2.253 1.338 2.028 1.614 1.915 1.989 1.915 2.365 1.915 2.646 2.028 2.834 2.253 3.022 2.479 3.109 2.747 3.097 3.061 3.084 3.373 2.971 3.605 2.759 3.755 2.546 3.906 2.258 3.968 1.896 3.943 1.532 3.918 1.276 3.812 1.126 3.624 .976 3.436 .901 3.217 .901 2.967" fill="#2c292a"/>
<path transform="matrix(1,0,0,-1,120.7628,258.1003)" d="M0 0 .676 .113C.775-.213 .938-.482 1.164-.695 1.389-.908 1.67-1.008 2.008-.995 2.346-.983 2.615-.845 2.815-.582 3.015-.319 3.103-.019 3.078 .319 3.053 .657 2.921 .92 2.684 1.108 2.446 1.296 2.064 1.427 1.539 1.502V1.99C2.064 2.04 2.446 2.178 2.684 2.404 2.921 2.629 3.028 2.923 3.003 3.286 2.978 3.649 2.815 3.912 2.515 4.075 2.215 4.237 1.896 4.256 1.558 4.131 1.22 4.005 .951 3.655 .751 3.079L.075 3.192C.225 3.643 .432 4.018 .694 4.319 .957 4.619 1.314 4.794 1.764 4.845 2.215 4.894 2.609 4.838 2.947 4.676 3.284 4.512 3.522 4.262 3.66 3.924 3.797 3.586 3.816 3.217 3.716 2.817 3.616 2.416 3.328 2.066 2.853 1.765 3.203 1.615 3.472 1.389 3.66 1.089 3.848 .789 3.91 .394 3.848-.094 3.785-.582 3.566-.976 3.191-1.277 2.815-1.577 2.389-1.722 1.914-1.709 1.439-1.696 1.026-1.546 .676-1.258 .325-.971 .1-.551 0 0" fill="#2c292a"/>
</g>
<path transform="matrix(1,0,0,-1,0,595.276)" d="M125.971 335.524H126.835V336.34999H125.971Z" fill="#2c292a"/>
<g clip-path="url(#clip_6)">
<path transform="matrix(1,0,0,-1,130.4297,258.1003)" d="M0 0 .676 .113C.775-.213 .938-.482 1.164-.695 1.389-.908 1.67-1.008 2.008-.995 2.346-.983 2.615-.845 2.815-.582 3.015-.319 3.103-.019 3.078 .319 3.053 .657 2.921 .92 2.684 1.108 2.446 1.296 2.064 1.427 1.539 1.502V1.99C2.064 2.04 2.446 2.178 2.684 2.404 2.921 2.629 3.027 2.923 3.003 3.286 2.978 3.649 2.815 3.912 2.515 4.075 2.215 4.237 1.896 4.256 1.558 4.131 1.22 4.005 .951 3.655 .751 3.079L.075 3.192C.225 3.643 .432 4.018 .694 4.319 .957 4.619 1.314 4.794 1.764 4.845 2.215 4.894 2.609 4.838 2.947 4.676 3.284 4.512 3.522 4.262 3.66 3.924 3.797 3.586 3.816 3.217 3.716 2.817 3.616 2.416 3.328 2.066 2.853 1.765 3.203 1.615 3.472 1.389 3.66 1.089 3.847 .789 3.91 .394 3.847-.094 3.785-.582 3.566-.976 3.191-1.277 2.815-1.577 2.389-1.722 1.914-1.709 1.439-1.696 1.026-1.546 .676-1.258 .325-.971 .1-.551 0 0" fill="#2c292a"/>
<path transform="matrix(1,0,0,-1,135.2632,258.1003)" d="M0 0 .676 .113C.775-.213 .938-.482 1.164-.695 1.389-.908 1.67-1.008 2.008-.995 2.346-.983 2.615-.845 2.815-.582 3.015-.319 3.103-.019 3.078 .319 3.053 .657 2.921 .92 2.684 1.108 2.446 1.296 2.064 1.427 1.539 1.502V1.99C2.064 2.04 2.446 2.178 2.684 2.404 2.921 2.629 3.027 2.923 3.003 3.286 2.978 3.649 2.815 3.912 2.515 4.075 2.215 4.237 1.896 4.256 1.558 4.131 1.22 4.005 .951 3.655 .751 3.079L.075 3.192C.225 3.643 .432 4.018 .694 4.319 .957 4.619 1.314 4.794 1.764 4.845 2.215 4.894 2.609 4.838 2.947 4.676 3.284 4.512 3.522 4.262 3.66 3.924 3.797 3.586 3.816 3.217 3.716 2.817 3.616 2.416 3.328 2.066 2.853 1.765 3.203 1.615 3.472 1.389 3.66 1.089 3.847 .789 3.91 .394 3.847-.094 3.785-.582 3.566-.976 3.191-1.277 2.815-1.577 2.389-1.722 1.914-1.709 1.439-1.696 1.026-1.546 .676-1.258 .325-.971 .1-.551 0 0" fill="#2c292a"/>
<path transform="matrix(1,0,0,-1,141.8233,254.94571)" d="M0 0C0-.726-.107-1.189-.319-1.39-.532-1.59-.738-1.69-.938-1.69-1.139-1.69-1.345-1.59-1.558-1.39-1.771-1.189-1.877-.726-1.877 0-1.877 .726-1.771 1.189-1.558 1.39-1.345 1.59-1.139 1.69-.938 1.69-.738 1.69-.532 1.59-.319 1.39-.107 1.189 0 .726 0 0M1.839 1.577-1.051-4.882-1.351-4.769 1.539 1.69ZM-.601 0C-.601 .451-.626 .751-.676 .901-.726 1.052-.813 1.127-.938 1.127-1.064 1.127-1.151 1.052-1.201 .901-1.252 .751-1.276 .451-1.276 0-1.276-.451-1.252-.751-1.201-.901-1.151-1.052-1.064-1.127-.938-1.127-.813-1.127-.726-1.052-.676-.901-.626-.751-.601-.451-.601 0M2.365-3.192C2.365-3.919 2.258-4.382 2.046-4.582 1.833-4.782 1.626-4.882 1.426-4.882 1.226-4.882 1.019-4.782 .807-4.582 .594-4.382 .488-3.919 .488-3.192 .488-2.466 .594-2.003 .807-1.803 1.019-1.603 1.226-1.502 1.426-1.502 1.626-1.502 1.833-1.603 2.046-1.803 2.258-2.003 2.365-2.466 2.365-3.192M1.764-3.192C1.764-2.741 1.739-2.441 1.689-2.291 1.639-2.141 1.551-2.065 1.426-2.065 1.301-2.065 1.214-2.141 1.164-2.291 1.113-2.441 1.089-2.741 1.089-3.192 1.089-3.643 1.113-3.943 1.164-4.093 1.214-4.244 1.301-4.319 1.426-4.319 1.551-4.319 1.639-4.244 1.689-4.093 1.739-3.943 1.764-3.643 1.764-3.192" fill="#2c292a"/>
<path transform="matrix(1,0,0,-1,175.9434,312.5235)" d="M0 0C-.175-.201-.351-.413-.526-.638-1.126-.163-1.702 .25-2.252 .601-2.077 .801-1.914 1.001-1.764 1.202-1.239 .851-.651 .451 0 0M-.751-3.455C-1.051-4.081-1.276-4.531-1.426-4.807-1.677-4.606-1.952-4.444-2.252-4.319-2.052-4.094-1.802-3.743-1.501-3.267-1.201-2.792-.826-2.016-.375-.939-.15-1.164 .062-1.327 .263-1.427-.113-2.154-.45-2.83-.751-3.455M.375 2.328C.125 2.128-.063 1.928-.188 1.728-.563 2.128-1.076 2.541-1.727 2.967-1.552 3.142-1.376 3.329-1.201 3.53-.676 3.179-.15 2.779 .375 2.328M5.743 2.779C5.343 2.729 4.974 2.679 4.636 2.629 4.298 2.578 3.928 2.529 3.528 2.479V.901H5.143C5.543 .901 5.918 .914 6.269 .939V.263C5.968 .287 5.593 .3 5.143 .3H3.528V-1.277H5.63C5.605-1.753 5.593-2.391 5.593-3.192 5.593-3.994 5.605-4.544 5.63-4.845H4.88V-4.131H1.614V-4.882H.901C.926-4.557 .938-3.956 .938-3.079 .938-2.178 .926-1.577 .901-1.277H2.815V.3H1.614C1.063 .3 .588 .287 .188 .263V.939C.613 .914 1.101 .901 1.652 .901H2.815V2.328C2.14 2.253 1.489 2.165 .863 2.065 .838 2.341 .738 2.578 .563 2.779 1.113 2.754 1.958 2.829 3.097 3.004 4.235 3.179 4.942 3.342 5.218 3.493 5.343 3.267 5.518 3.029 5.743 2.779M4.88-1.878H1.6140001V-3.53H4.88ZM4.88-3.53" fill="#2c292a"/>
<path transform="matrix(1,0,0,-1,190.2648,309.4816)" d="M0 0C.475 0 .963 .012 1.464 .038V-.751C.913-.727 .425-.714 0-.714H-2.59V-6.497C-2.59-6.823-2.578-7.235-2.552-7.736H-3.416C-3.391-7.286-3.378-6.873-3.378-6.497V-.714H-5.443C-5.944-.714-6.432-.727-6.907-.751V.038C-6.432 .012-5.944 0-5.443 0ZM.3-5.558C-.1-5.032-.876-4.244-2.027-3.192L-1.464-2.629C-.788-3.18 .025-3.956 .976-4.957 .725-5.133 .5-5.333 .3-5.558" fill="#2c292a"/>
<path transform="matrix(1,0,0,-1,197.6045,308.8431)" d="M0 0C-.025-.25-.038-.513-.038-.789V-1.239H2.215C2.515-1.239 2.84-1.227 3.191-1.202V-1.953C2.84-1.903 2.515-1.878 2.215-1.878H-.038V-4.056H2.552C2.928-4.056 3.341-4.044 3.791-4.018V-4.732C3.365-4.707 2.952-4.694 2.552-4.694H.601C.775-4.945 .988-5.183 1.239-5.408 1.489-5.633 1.758-5.853 2.046-6.065 2.333-6.278 2.652-6.459 3.003-6.61 3.353-6.76 3.691-6.873 4.016-6.948 3.766-7.173 3.603-7.348 3.528-7.473 3.453-7.599 3.403-7.711 3.378-7.811 2.853-7.586 2.421-7.355 2.083-7.117 1.745-6.879 1.432-6.623 1.145-6.347 .857-6.071 .613-5.809 .413-5.558 .212-5.308 .062-5.07-.038-4.845V-6.985C-.038-7.386-.025-7.861 0-8.412H-.863C-.813-7.861-.788-7.386-.788-6.985V-4.769C-1.314-5.596-1.864-6.266-2.44-6.779-3.016-7.292-3.541-7.686-4.016-7.962-4.167-7.736-4.392-7.511-4.692-7.286-3.791-6.885-3.066-6.403-2.515-5.84-1.965-5.276-1.639-4.895-1.539-4.694H-3.491C-3.791-4.694-4.142-4.72-4.542-4.769V-4.018C-4.142-4.044-3.791-4.056-3.491-4.056H-.788V-1.878H-2.928C-3.354-1.878-3.716-1.903-4.016-1.953V-1.202C-3.716-1.227-3.366-1.239-2.965-1.239H-.788V-.751C-.839-.476-.863-.225-.863 0ZM-1.576-3.568C-1.802-3.668-2.015-3.781-2.215-3.906-2.44-3.455-2.728-3.004-3.078-2.554-2.903-2.429-2.728-2.291-2.552-2.141-2.152-2.591-1.827-3.067-1.576-3.568M1.351-3.943C1.126-3.844 .913-3.755 .713-3.68 1.113-2.954 1.414-2.429 1.614-2.103 1.839-2.178 2.052-2.291 2.252-2.441 2.002-2.867 1.701-3.368 1.351-3.943" fill="#2c292a"/>
<path transform="matrix(1,0,0,-1,209.7114,314.1759)" d="M0 0C.575 0 1.076 .012 1.501 .038V-.676C1.101-.601 .601-.576 0-.601H-2.29C-1.865-1.177-1.283-1.615-.544-1.915 .194-2.216 .913-2.391 1.614-2.441 1.464-2.616 1.314-2.867 1.164-3.192 .663-3.092 .225-2.979-.15-2.854-.526-2.729-.945-2.522-1.408-2.234-1.871-1.947-2.315-1.553-2.74-1.052-2.965-1.377-3.191-1.64-3.416-1.84-3.641-2.041-3.917-2.241-4.242-2.441-4.567-2.641-4.911-2.804-5.274-2.929-5.637-3.054-6.069-3.179-6.569-3.305-6.669-3.054-6.819-2.804-7.019-2.554-6.544-2.503-6.113-2.422-5.724-2.31-5.337-2.197-4.986-2.06-4.673-1.897-4.361-1.734-4.092-1.546-3.866-1.333-3.641-1.121-3.466-.877-3.341-.601H-5.63C-6.131-.601-6.619-.614-7.094-.638V.038C-6.619 .012-6.131 0-5.63 0H-3.191C-3.166 .175-3.153 .363-3.153 .563-2.653 .488-2.365 .451-2.29 .451-2.365 .3-2.415 .15-2.44 0ZM-3.979 4.356V1.953C-3.979 1.577-3.967 1.127-3.941 .601H-4.73C-4.705 1.127-4.692 1.577-4.692 1.953V2.216C-5.418 1.74-6.019 1.352-6.494 1.052-6.669 1.327-6.845 1.54-7.019 1.69-6.594 1.815-5.818 2.228-4.692 2.929V4.356C-4.692 4.732-4.705 5.082-4.73 5.408H-3.941C-3.967 5.107-3.979 4.757-3.979 4.356M-4.917 3.68-5.48 3.117C-5.806 3.467-6.181 3.818-6.606 4.169-6.432 4.319-6.269 4.494-6.118 4.694-5.643 4.319-5.243 3.981-4.917 3.68M-1.727 4.394H1.239C1.013 3.843 .794 3.386 .582 3.023 .369 2.66 .131 2.334-.131 2.047-.394 1.759-.745 1.489-1.182 1.239-1.621 .989-2.24 .776-3.04 .601-3.166 .826-3.316 1.052-3.491 1.277-2.74 1.301-2.065 1.489-1.464 1.84L-2.477 2.516C-2.327 2.691-2.19 2.867-2.065 3.042-1.815 2.892-1.614 2.76-1.464 2.648-1.314 2.535-1.126 2.404-.901 2.253-.476 2.629-.126 3.142 .15 3.793H-2.102C-2.228 3.643-2.378 3.467-2.552 3.267-2.728 3.067-2.965 2.791-3.266 2.441-3.466 2.616-3.679 2.754-3.904 2.854-3.528 3.179-3.172 3.568-2.834 4.018-2.496 4.469-2.215 4.957-1.989 5.483-1.665 5.333-1.377 5.22-1.126 5.145-1.327 4.944-1.527 4.694-1.727 4.394" fill="#2c292a"/>
<path transform="matrix(1,0,0,-1,215.5121,316.2039)" d="M0 0C-.175-.1-.351-.238-.526-.413H.638V1.765H-.638C-.989 1.765-1.477 1.752-2.102 1.727V2.441C-1.477 2.416-1.001 2.404-.676 2.404H.638V3.568C-.188 3.568-.839 3.555-1.314 3.53V4.131C-1.714 3.831-2.202 3.517-2.778 3.192-2.928 3.417-3.116 3.63-3.341 3.831-2.866 4.005-2.378 4.268-1.877 4.619-1.377 4.97-.889 5.401-.413 5.915 .062 6.428 .45 6.972 .751 7.548 .801 7.498 1.063 7.361 1.539 7.135L1.314 6.91C1.589 6.61 1.927 6.272 2.327 5.896 2.727 5.521 3.203 5.188 3.754 4.901 4.304 4.613 4.88 4.381 5.48 4.206 5.28 4.005 5.117 3.768 4.992 3.493 4.491 3.667 3.979 3.893 3.453 4.169V3.53C2.952 3.555 2.552 3.568 2.252 3.568H1.351V2.404H2.665C3.09 2.404 3.616 2.416 4.242 2.441V1.727C3.641 1.752 3.115 1.765 2.665 1.765H1.351V-.413H2.064C2.64 .588 2.952 1.264 3.003 1.615 3.228 1.465 3.503 1.314 3.829 1.164 3.653 .939 3.315 .413 2.815-.413 3.591-.413 4.341-.4 5.067-.376V-1.089C4.341-1.064 3.754-1.052 3.303-1.052H-1.164C-1.689-1.052-2.202-1.064-2.703-1.089V-.376C-2.177-.4-1.665-.413-1.164-.413H-.713C-.889-.013-1.201 .488-1.652 1.089-1.426 1.239-1.226 1.389-1.051 1.54-.651 .989-.3 .475 0 0M-.15 4.206H2.102C2.477 4.231 2.877 4.244 3.303 4.244 2.877 4.544 2.446 4.901 2.008 5.314 1.57 5.727 1.213 6.108 .938 6.459 .663 6.084 .331 5.702-.056 5.314-.445 4.925-.826 4.569-1.201 4.244-.826 4.219-.476 4.206-.15 4.206" fill="#2c292a"/>
<path transform="matrix(1,0,0,-1,233.2112,311.134)" d="M0 0C-.325-.326-.738-.638-1.239-.939V-.225C-.613 .2-.1 .701 .3 1.277H.751V-5.183H0Z" fill="#2c292a"/>
<path transform="matrix(1,0,0,-1,236.2804,312.7301)" d="M0 0C.025 .663 .118 1.189 .281 1.577 .444 1.965 .676 2.284 .976 2.535 1.276 2.785 1.645 2.911 2.083 2.911 2.521 2.911 2.903 2.729 3.228 2.366 3.553 2.003 3.766 1.546 3.866 .995 3.966 .444 3.998-.188 3.96-.901 3.923-1.615 3.797-2.197 3.585-2.648 3.372-3.098 3.053-3.412 2.628-3.586 2.202-3.762 1.777-3.743 1.351-3.53 .926-3.318 .625-3.036 .45-2.685 .275-2.335 .15-1.966 .075-1.577 0-1.189-.025-.664 0 0M.788 .225C.713-.464 .738-1.077 .863-1.615 .988-2.154 1.195-2.535 1.483-2.76 1.77-2.986 2.064-3.03 2.365-2.892 2.665-2.754 2.884-2.479 3.022-2.065 3.159-1.652 3.228-1.202 3.228-.714 3.228-.225 3.209 .219 3.172 .62 3.134 1.02 3.022 1.383 2.834 1.709 2.646 2.034 2.396 2.203 2.083 2.216 1.77 2.228 1.495 2.071 1.258 1.746 1.019 1.421 .863 .914 .788 .225" fill="#2c292a"/>
<path transform="matrix(1,0,0,-1,241.114,312.7301)" d="M0 0C.025 .663 .118 1.189 .281 1.577 .444 1.965 .676 2.284 .976 2.535 1.276 2.785 1.645 2.911 2.083 2.911 2.521 2.911 2.903 2.729 3.228 2.366 3.553 2.003 3.766 1.546 3.866 .995 3.966 .444 3.998-.188 3.96-.901 3.923-1.615 3.797-2.197 3.585-2.648 3.372-3.098 3.053-3.412 2.628-3.586 2.202-3.762 1.777-3.743 1.351-3.53 .926-3.318 .625-3.036 .45-2.685 .275-2.335 .15-1.966 .075-1.577 0-1.189-.025-.664 0 0M.788 .225C.713-.464 .738-1.077 .863-1.615 .988-2.154 1.195-2.535 1.483-2.76 1.77-2.986 2.064-3.03 2.365-2.892 2.665-2.754 2.884-2.479 3.022-2.065 3.159-1.652 3.228-1.202 3.228-.714 3.228-.225 3.209 .219 3.172 .62 3.134 1.02 3.022 1.383 2.834 1.709 2.646 2.034 2.396 2.203 2.083 2.216 1.77 2.228 1.495 2.071 1.258 1.746 1.019 1.421 .863 .914 .788 .225" fill="#2c292a"/>
<path transform="matrix(1,0,0,-1,250.7187,316.5043)" d="M0 0C.525-.025 .894-.013 1.107 .038 1.32 .088 1.451 .175 1.501 .3 1.551 .426 1.595 .719 1.633 1.183 1.67 1.646 1.727 2.554 1.802 3.906H-1.089C-1.414 1.827-2.303 .212-3.754-.939-3.979-.663-4.229-.488-4.504-.413-3.779 .038-3.128 .782-2.552 1.821-1.977 2.86-1.689 4.369-1.689 6.347H-2.815C-3.366 6.347-3.854 6.334-4.279 6.309V7.023C-3.879 6.998-3.378 6.985-2.778 6.985H2.327C2.877 6.985 3.378 6.998 3.829 7.023V6.309C3.378 6.334 2.877 6.347 2.327 6.347H-.901C-.926 5.721-.964 5.132-1.013 4.582H2.628C2.477 2.278 2.377 .883 2.327 .394 2.277-.094 2.077-.413 1.727-.563 1.376-.714 .925-.813 .375-.864 .275-.488 .15-.2 0 0" fill="#2c292a"/>
</g>
<path transform="matrix(1,0,0,-1,168.1535,260.623)" d="M0 0-13.675 19.279-.317 39.483 .692 38.816-12.21 19.303 .986 .699Z" fill="#f43040"/>
<path transform="matrix(1,0,0,-1,254.2109,260.623)" d="M0 0-.986 .699 12.21 19.303-.692 38.816 .317 39.483 13.675 19.279Z" fill="#f43040"/>
<g clip-path="url(#clip_7)">
<path transform="matrix(1,0,0,-1,121.9717,218.13779)" d="M0 0V-6.02C0-6.717 .014-7.344 .042-7.901H-.794C-.766-7.316-.752-6.717-.752-6.104V-1.547C-.892-1.881-1.143-2.369-1.504-3.01-1.728-2.787-1.964-2.62-2.215-2.508-1.937-2.202-1.581-1.582-1.149-.648-.718 .285-.432 1.129-.293 1.881 .014 1.742 .348 1.616 .71 1.505 .487 1.338 .251 .836 0 0M3.803 .962H7.062C7.034 .487 7.02-.112 7.02-.836 7.02-1.561 7.034-2.132 7.062-2.55H5.474C5.864-2.745 6.253-2.926 6.644-3.094 7.034-3.261 7.396-3.428 7.73-3.595 7.563-3.763 7.396-3.986 7.229-4.264 6.839-3.986 6.031-3.582 4.805-3.052 4.972-2.885 5.125-2.717 5.265-2.55H2.591C2.73-2.662 2.952-2.801 3.259-2.968 3.036-3.052 2.723-3.254 2.319-3.574 1.915-3.895 1.532-4.181 1.17-4.431 .947-4.209 .724-4.028 .501-3.888 1.086-3.637 1.713-3.192 2.382-2.55H1.295C1.323-2.077 1.337-1.478 1.337-.753 1.337 0 1.323 .571 1.295 .962H3.05C3.161 1.352 3.231 1.686 3.259 1.965L4.262 1.798C4.039 1.574 3.886 1.296 3.803 .962M3.594-4.097H6.602C6.184-5.157 5.71-5.909 5.181-6.355 5.961-6.745 6.797-6.94 7.689-6.94 7.438-7.246 7.284-7.553 7.229-7.86 6.226-7.692 5.334-7.358 4.555-6.856 3.663-7.442 2.591-7.831 1.337-8.027 1.226-7.748 1.045-7.497 .794-7.274 1.991-7.218 3.022-6.94 3.886-6.438 3.496-6.16 3.12-5.742 2.758-5.184 2.424-5.575 2.075-5.909 1.713-6.187 1.518-5.993 1.281-5.825 1.003-5.686 2.061-4.933 2.785-4.111 3.176-3.219L4.095-3.637C3.9-3.777 3.733-3.93 3.594-4.097M6.226 .334H2.0889998V-1.9239999H6.226ZM4.805-.711C5.195-.878 5.543-1.06 5.85-1.254 5.627-1.421 5.432-1.603 5.265-1.798 5.07-1.575 4.749-1.352 4.304-1.129 3.803-1.352 3.37-1.603 3.009-1.881 2.897-1.659 2.702-1.478 2.424-1.338 2.897-1.171 3.287-.99 3.594-.794 3.343-.627 3.009-.474 2.591-.334 2.813-.195 2.994-.028 3.134 .167 3.524 0 3.886-.182 4.22-.376 4.471-.237 4.722-.042 4.972 .209L5.641-.293C5.334-.404 5.056-.543 4.805-.711M5.474-4.766H3.301C3.746-5.407 4.164-5.825 4.555-6.02 4.972-5.658 5.279-5.24 5.474-4.766" fill="#2c292a"/>
<path transform="matrix(1,0,0,-1,134.7464,224.9313)" d="M0 0C.167 .069 .251 .244 .251 .523V3.574H-2.716C-3.107 3.574-3.566 3.56-4.095 3.533V4.285C-3.566 4.257-3.107 4.243-2.716 4.243H.251C.251 4.689 .236 5.191 .209 5.748 .599 5.916 .996 6.125 1.4 6.375 1.803 6.626 2.27 6.919 2.8 7.253H-1.462C-2.047 7.253-2.563 7.239-3.009 7.212V7.964C-2.424 7.936-1.937 7.922-1.546 7.922H4.346V7.17C3.928 7.003 3.468 6.779 2.967 6.501 2.465 6.222 1.839 5.832 1.086 5.33V4.243H3.886C4.359 4.243 4.889 4.271 5.474 4.327V3.574C4.889 3.602 4.359 3.602 3.886 3.574H1.086V.23C1.086-.327 .926-.662 .606-.773 .285-.884-.195-.968-.836-1.024-.892-.717-1.017-.397-1.212-.063-.571-.091-.167-.07 0 0" fill="#2c292a"/>
<path transform="matrix(1,0,0,-1,283.1606,223.8653)" d="M0 0C-.167-.056-.376-.14-.627-.251V-1.087C-.627-1.449-.613-1.839-.585-2.258H-1.379C-1.351-1.839-1.337-1.449-1.337-1.087V-.418C-1.616-.502-2.006-.621-2.507-.773-3.008-.927-3.454-1.101-3.844-1.296-3.984-.906-4.109-.641-4.22-.502L-3.385-.293V6.146C-3.58 6.146-3.817 6.131-4.095 6.104V6.814C-3.705 6.786-3.399 6.773-3.176 6.773H-.836C-.585 6.773-.265 6.786 .125 6.814V6.104C-.209 6.131-.46 6.146-.627 6.146V.502C-.46 .557-.279 .613-.083 .669-.083 .502-.056 .278 0 0M-1.337 6.146H-2.674V4.599H-1.337ZM-1.337 3.972H-2.674V2.383H-1.337ZM-1.337 .251V1.714H-2.674V-.084C-2.312 0-1.867 .111-1.337 .251M.982 .523C.912 .202 .808-.321 .669-1.045 .445-.99 .209-.934-.042-.878 .014-.655 .09-.307 .188 .167 .285 .641 .362 1.073 .418 1.463 .641 1.435 .891 1.38 1.17 1.296 1.114 1.101 1.051 .843 .982 .523M4.158 6.375C4.032 6.083 3.9 5.783 3.761 5.477H5.014C4.986 5.059 4.973 4.557 4.973 3.972 4.973 3.386 4.986 2.87 5.014 2.425H.501C.529 2.954 .543 3.456 .543 3.93 .543 4.431 .529 4.947 .501 5.477H3.009C3.148 5.811 3.259 6.117 3.343 6.396 3.427 6.675 3.524 7.051 3.635 7.525 3.886 7.385 4.206 7.246 4.597 7.107 4.429 6.912 4.283 6.668 4.158 6.375M2.298 5.895C2.048 5.811 1.811 5.699 1.588 5.56 1.337 6.173 1.086 6.689 .836 7.107 1.114 7.246 1.337 7.372 1.504 7.483 1.727 7.065 1.991 6.536 2.298 5.895M4.22 4.808H1.2949998V3.052H4.22ZM2.173 .293V-.836C2.145-1.143 2.312-1.31 2.674-1.338H3.51C3.677-1.338 3.803-1.031 3.886-.418 4.109-.53 4.36-.641 4.638-.753 4.471-1.589 4.192-2.007 3.803-2.007H2.089C1.672-1.951 1.463-1.672 1.463-1.171V.293C1.463 .599 1.448 .962 1.421 1.38H2.215C2.187 1.045 2.173 .683 2.173 .293M3.385 1.463C3.524 1.212 3.677 .905 3.844 .544 3.537 .376 3.301 .251 3.134 .167 2.967 .613 2.688 1.198 2.298 1.923 2.493 2.007 2.716 2.104 2.967 2.216ZM5.349 .669C5.488 .334 5.641-.056 5.808-.502 5.585-.585 5.349-.683 5.098-.794 5.014-.543 4.91-.251 4.785 .084 4.659 .418 4.499 .794 4.304 1.212L4.973 1.547C5.084 1.296 5.209 1.003 5.349 .669" fill="#2c292a"/>
<path transform="matrix(1,0,0,-1,293.5535,218.9321)" d="M0 0V-3.01C0-3.679 .014-4.279 .042-4.808H-.752V-4.181H-2.507V-5.351H-3.343C-3.315-4.878-3.301-4.264-3.301-3.512V.042C-3.301 .711-3.315 1.323-3.343 1.881H.042C.014 1.296 0 .669 0 0M-.752 1.171H-2.507V-.71000006H-.752ZM-.752-1.38H-2.507V-3.428H-.752ZM5.349 .376V-5.644C5.376-6.173 5.286-6.515 5.077-6.668 4.868-6.821 4.401-6.954 3.677-7.065 3.621-6.758 3.482-6.424 3.259-6.062 3.733-6.09 4.067-6.083 4.262-6.041 4.457-5.999 4.54-5.853 4.513-5.602V-3.386H2.047C1.88-4.836 1.406-6.131 .627-7.274 .348-7.023 .055-6.842-.251-6.731 .836-5.644 1.337-3.874 1.254-1.421V.334C1.254 1.003 1.239 1.63 1.212 2.216H5.39C5.362 1.686 5.349 1.073 5.349 .376M4.513 1.505H2.089V-.25100006H4.513ZM4.513-.962H2.089V-2.676H4.513ZM4.513-2.676" fill="#2c292a"/>
<path transform="matrix(1,0,0,-1,303.069,223.32181)" d="M0 0C.612 .78 1.038 1.581 1.275 2.404 1.511 3.226 1.643 3.992 1.672 4.703 1.699 5.414 1.685 6.159 1.63 6.94 1.936 6.912 2.284 6.884 2.674 6.856 2.591 6.41 2.549 5.95 2.549 5.477 2.549 5.002 2.576 4.459 2.633 3.846 2.688 3.233 3.085 2.306 3.823 1.066 4.561-.174 5.641-1.101 7.062-1.714 6.728-2.049 6.504-2.327 6.393-2.55 4.443-1.603 3.05 .111 2.215 2.592 1.657 .39 .306-1.366-1.839-2.676-2.006-2.452-2.243-2.216-2.549-1.965-1.462-1.436-.613-.781 0 0" fill="#2c292a"/>
<path transform="matrix(1,0,0,-1,188.58,303.4909)" d="M0 0C.025 .363 .094 .67 .206 .92 .319 1.17 .488 1.483 .713 1.859L2.252 4.262H3.116L1.539 1.784C2.215 1.959 2.753 1.934 3.153 1.709 3.553 1.483 3.822 1.226 3.96 .939 4.097 .651 4.172 .338 4.185 0 4.198-.338 4.148-.67 4.035-.995 3.923-1.321 3.722-1.615 3.435-1.878 3.147-2.141 2.746-2.285 2.233-2.31 1.72-2.335 1.282-2.241 .92-2.028 .557-1.816 .306-1.515 .169-1.127 .031-.739-.025-.363 0 0M1.164-1.239C1.389-1.478 1.689-1.609 2.064-1.634 2.44-1.659 2.753-1.534 3.003-1.258 3.253-.983 3.378-.582 3.378-.056 3.378 .469 3.222 .832 2.909 1.033 2.596 1.233 2.246 1.308 1.858 1.258 1.47 1.208 1.188 1.02 1.013 .695 .838 .369 .763 .025 .788-.338 .813-.701 .938-1.002 1.164-1.239" fill="#2c292a"/>
<path transform="matrix(1,0,0,-1,202.2711,301.7446)" d="M0 0C-.25-.3-.438-.588-.563-.864-2.19-.163-3.504 .951-4.504 2.479-5.43 1.001-6.669-.15-8.22-.976-8.346-.751-8.558-.513-8.859-.263-7.657 .238-6.725 .876-6.062 1.652-5.399 2.428-4.955 3.129-4.73 3.755-4.429 3.63-4.129 3.517-3.829 3.417-3.929 3.292-4.016 3.179-4.092 3.079-3.04 1.527-1.677 .501 0 0M-4.842-.638C-4.842-.238-4.867 .275-4.917 .901H-4.054C-4.079 .475-4.092-.051-4.092-.676V-3.342C-4.092-3.919-4.079-4.507-4.054-5.107H-4.88C-4.855-4.481-4.842-3.906-4.842-3.38Z" fill="#2c292a"/>
<path transform="matrix(1,0,0,-1,205.5193,304.3734)" d="M0 0C.55 .701 .932 1.421 1.145 2.159 1.357 2.898 1.476 3.586 1.501 4.225 1.526 4.863 1.514 5.533 1.464 6.234 1.739 6.209 2.052 6.184 2.402 6.159 2.327 5.758 2.29 5.345 2.29 4.92 2.29 4.494 2.314 4.005 2.365 3.455 2.415 2.904 2.771 2.071 3.435 .958 4.097-.157 5.067-.989 6.344-1.54 6.043-1.84 5.843-2.09 5.743-2.291 3.991-1.44 2.74 .1 1.989 2.328 1.489 .35 .275-1.227-1.652-2.404-1.802-2.203-2.015-1.99-2.29-1.765-1.314-1.29-.551-.701 0 0" fill="#2c292a"/>
<path transform="matrix(1,0,0,-1,213.6848,304.4861)" d="M0 0H1.351V-1.502C1.276-2.128 .963-2.591 .413-2.892L.038-2.554C.488-2.303 .713-1.928 .713-1.427H0Z" fill="#2c292a"/>
<path transform="matrix(1,0,0,-1,224.1484,300.5053)" d="M0 0C-.325-.326-.738-.638-1.239-.939V-.225C-.613 .2-.1 .701 .3 1.277H.751V-5.183H0Z" fill="#2c292a"/>
<path transform="matrix(1,0,0,-1,231.0829,305.8193)" d="M0 0C.15 .062 .225 .219 .225 .469V3.211H-2.44C-2.791 3.211-3.203 3.198-3.678 3.173V3.849C-3.203 3.824-2.791 3.812-2.44 3.812H.225C.225 4.212 .212 4.663 .188 5.164 .538 5.314 .894 5.502 1.258 5.727 1.62 5.952 2.039 6.215 2.515 6.516H-1.314C-1.839 6.516-2.303 6.503-2.703 6.478V7.154C-2.177 7.129-1.74 7.117-1.389 7.117H3.904V6.441C3.529 6.29 3.116 6.09 2.665 5.84 2.215 5.589 1.652 5.239 .976 4.788V3.812H3.491C3.916 3.812 4.392 3.836 4.917 3.887V3.211C4.392 3.236 3.916 3.236 3.491 3.211H.976V.207C.976-.294 .832-.594 .544-.695 .256-.794-.175-.87-.751-.92-.801-.644-.914-.357-1.089-.056-.513-.081-.15-.063 0 0" fill="#2c292a"/>
<path transform="matrix(1,0,0,-1,239.7365,298.6276)" d="M0 0C-.025-.401-.038-.802-.038-1.202-.038-1.602-.025-2.065 0-2.591H-1.727L-1.802-3.943H.038C-.013-4.294-.051-4.657-.075-5.032L-.225-6.797C-.276-7.298-.494-7.598-.882-7.699-1.27-7.798-1.664-7.874-2.064-7.924-2.115-7.598-2.202-7.286-2.327-6.985-1.752-7.01-1.376-7.004-1.201-6.966-1.026-6.929-.926-6.76-.901-6.459L-.751-4.582H-2.552C-2.453-3.781-2.402-2.917-2.402-1.99H-.713V-.601C-1.539-.601-2.19-.614-2.665-.638V.038C-2.265 .012-1.877 0-1.501 0ZM2.665-8.187C2.69-7.611 2.703-7.06 2.703-6.535H1.239C.838-6.56 .488-6.585 .188-6.61V-5.896C.488-5.921 .838-5.947 1.239-5.971H2.703V-4.957H.638C.663-4.332 .676-3.656 .676-2.929 .676-2.203 .663-1.577 .638-1.052H3.378C3.603-.526 3.803 .012 3.979 .563 4.254 .438 4.542 .325 4.842 .225 4.592-.05 4.354-.476 4.129-1.052H5.443C5.418-1.527 5.405-2.166 5.405-2.967 5.405-3.768 5.418-4.431 5.443-4.957H3.378V-5.971H4.654C4.979-5.971 5.418-5.959 5.968-5.934V-6.572C5.467-6.547 5.042-6.535 4.692-6.535H3.378C3.378-7.111 3.391-7.661 3.416-8.187ZM1.389 .3 2.064 .638C2.239 .313 2.415-.113 2.59-.638 2.365-.714 2.114-.814 1.839-.939 1.739-.488 1.589-.075 1.389 .3M2.703-1.615H1.389V-2.667H2.703ZM2.703-3.267H1.389V-4.356H2.703ZM4.73-1.615H3.3790003V-2.667H4.73ZM4.73-3.267H3.3790003V-4.356H4.73ZM4.73-4.356" fill="#2c292a"/>
<path transform="matrix(1,0,0,-1,122.3913,278.3827)" d="M0 0C.724 0 1.379 .014 1.964 .042V-1.045C1.379-1.018 .738-1.003 .042-1.003H-5.474C-6.199-1.003-6.895-1.018-7.563-1.045V.042C-6.895 .014-6.199 0-5.474 0Z" fill="#2c292a"/>
<path transform="matrix(1,0,0,-1,130.5695,275.2891)" d="M0 0H2.382C2.827 0 3.357 .014 3.97 .042V-.711C3.385-.683 2.855-.669 2.382-.669H-.083C-.14-1.06-.181-1.394-.209-1.672H2.841C2.813-2.174 2.8-2.732 2.8-3.344V-7.4H3.176C3.565-7.4 4.011-7.386 4.513-7.358V-8.152C4.039-8.124 3.594-8.11 3.176-8.11H-3.635C-4.109-8.11-4.611-8.124-5.14-8.152V-7.358C-4.583-7.386-4.081-7.4-3.635-7.4H-3.385V-3.344C-3.385-2.62-3.399-2.063-3.426-1.672H-1.045C-.989-1.338-.947-1.003-.919-.669H-3.092C-3.622-.669-4.151-.683-4.68-.711V.042C-4.151 .014-3.635 0-3.134 0H-.878C-.85 .306-.85 .613-.878 .92-.432 .864-.056 .836 .251 .836 .167 .669 .084 .39 0 0M2.006-2.341H-2.5900002V-3.1350003H2.006ZM2.006-3.763H-2.5900002V-4.516H2.006ZM2.006-5.142H-2.5900002V-5.9360005H2.006ZM2.006-6.605H-2.5900002V-7.399H2.006ZM2.006-7.4" fill="#2c292a"/>
<path transform="matrix(1,0,0,-1,138.4553,274.9128)" d="M0 0C.306 0 .64 .014 1.003 .042V-.753C.612-.725 .167-.711-.334-.711V-3.094C.027-3.094 .403-3.08 .794-3.052V-3.846C.403-3.819 .027-3.804-.334-3.804V-6.271C.139-6.104 .557-5.951 .919-5.811 .891-6.09 .878-6.369 .878-6.647 .236-6.843-.334-7.031-.836-7.212-1.337-7.393-1.783-7.595-2.173-7.818-2.285-7.483-2.424-7.163-2.591-6.856-2.089-6.801-1.588-6.689-1.086-6.522V-3.804C-1.477-3.804-1.853-3.819-2.215-3.846V-3.052C-1.853-3.08-1.477-3.094-1.086-3.094V-.711C-1.532-.711-1.95-.725-2.34-.753V.042C-1.895 .014-1.546 0-1.295 0ZM5.599-2.508C6.101-2.508 6.616-2.495 7.145-2.467V-3.219C6.644-3.192 6.114-3.177 5.557-3.177H5.098V-7.567C5.098-7.818 5.195-7.95 5.39-7.964 5.585-7.978 5.78-7.985 5.975-7.985 6.198-7.985 6.337-7.88 6.393-7.671 6.449-7.462 6.49-7.135 6.519-6.689 6.769-6.856 7.075-6.982 7.438-7.065 7.298-7.679 7.159-8.11 7.02-8.361 6.88-8.612 6.602-8.738 6.184-8.738H5.265C4.624-8.738 4.304-8.417 4.304-7.776V-3.177H3.217C3.245-4.822 3.071-6.062 2.695-6.898 2.319-7.734 1.755-8.472 1.003-9.114 .724-8.779 .432-8.57 .125-8.487 .988-7.93 1.602-7.253 1.964-6.459 2.326-5.665 2.479-4.571 2.424-3.177 2.006-3.177 1.56-3.192 1.086-3.219V-2.467C1.588-2.495 2.061-2.508 2.507-2.508ZM4.889 .209C5.474 .209 5.975 .223 6.393 .251V-.502C5.975-.474 5.488-.46 4.931-.46H3.176C2.758-.46 2.298-.474 1.797-.502V.251C2.27 .223 2.702 .209 3.092 .209Z" fill="#2c292a"/>
<path transform="matrix(1,0,0,-1,277.7757,242.6937)" d="M0 0H1.914C1.914 .901 1.901 1.577 1.877 2.028 2.127 2.003 2.415 1.977 2.74 1.953 2.69 1.602 2.659 1.289 2.646 1.014 2.633 .738 2.628 .4 2.628 0H4.392C4.792 0 5.205 .012 5.63 .038V-.676C5.23-.651 4.817-.638 4.392-.638H2.628C2.628-1.189 2.602-1.753 2.552-2.328H5.067C5.443-2.328 5.856-2.316 6.306-2.291V-3.004C5.856-2.98 5.443-2.967 5.067-2.967H2.853C3.153-3.643 3.666-4.194 4.392-4.619 5.117-5.045 5.83-5.333 6.531-5.483 6.331-5.733 6.156-6.021 6.006-6.347 5.28-6.071 4.566-5.69 3.866-5.201 3.165-4.713 2.64-4.119 2.29-3.417 1.989-4.069 1.551-4.657 .976-5.183 .4-5.708-.375-6.184-1.351-6.61-1.477-6.359-1.664-6.121-1.914-5.896-1.064-5.671-.307-5.289 .357-4.751 1.019-4.213 1.451-3.618 1.652-2.967H-.526C-.926-2.967-1.364-2.98-1.839-3.004V-2.291C-1.364-2.316-.926-2.328-.526-2.328H1.802C1.877-1.803 1.914-1.239 1.914-.638H-.263C-.563-1.164-.826-1.603-1.051-1.953-1.252-1.828-1.489-1.715-1.764-1.615-1.314-1.064-.97-.526-.732 0-.494 .526-.338 .989-.263 1.39 .038 1.239 .313 1.127 .563 1.052 .438 .926 .25 .576 0 0" fill="#2c292a"/>
<path transform="matrix(1,0,0,-1,290.2579,241.9426)" d="M0 0V-1.502H1.689C2.114-1.502 2.54-1.49 2.965-1.465V-2.178C2.54-2.178 2.114-2.166 1.689-2.141H0V-3.53H2.665C3.041-3.53 3.428-3.518 3.829-3.493V-4.206C3.428-4.182 3.041-4.169 2.665-4.169H0V-6.197C.025-6.572-.094-6.835-.357-6.985-.619-7.135-1.064-7.235-1.689-7.286-1.714-6.985-1.839-6.697-2.064-6.422-1.589-6.422-1.252-6.39-1.051-6.328-.851-6.266-.764-6.109-.788-5.859V-4.169H-3.491C-3.941-4.194-4.367-4.206-4.767-4.206V-3.493C-4.342-3.518-3.917-3.53-3.491-3.53H-.788V-2.141H-2.44C-2.89-2.141-3.354-2.154-3.829-2.178V-1.465C-3.378-1.49-2.915-1.502-2.44-1.502H-.788V-.075C-2.09-.15-3.078-.201-3.754-.225-3.829 .05-3.941 .288-4.091 .488-3.191 .463-2.021 .507-.582 .62 .857 .732 1.877 .901 2.477 1.127 2.628 .776 2.79 .488 2.965 .263 2.615 .238 1.626 .15 0 0" fill="#2c292a"/>
<path transform="matrix(1,0,0,-1,301.9144,244.3085)" d="M0 0C.65 0 1.239 .012 1.764 .038V-.939C1.239-.914 .663-.901 .038-.901H-4.917C-5.568-.901-6.194-.914-6.794-.939V.038C-6.194 .012-5.568 0-4.917 0Z" fill="#2c292a"/>
<path transform="matrix(1,0,0,-1,306.4762,246.6932)" d="M0 0C-.351-.589-.726-1.233-1.126-1.934-1.351-1.759-1.59-1.571-1.839-1.371-1.364-.82-.97-.276-.657 .263-.344 .801-.075 1.333 .15 1.859 .325 1.709 .55 1.546 .826 1.371 .625 1.045 .35 .588 0 0M.713 3.436C.513 3.311 .287 3.148 .038 2.948-.213 3.423-.713 4.112-1.464 5.014-1.264 5.164-1.064 5.326-.863 5.502-.038 4.475 .488 3.787 .713 3.436M3.866 1.652C3.916 1.289 4.029 .92 4.204 .545 4.379 .169 4.642-.182 4.992-.507 5.343-.833 5.68-1.102 6.006-1.314 6.331-1.527 6.668-1.709 7.019-1.859 6.744-2.059 6.544-2.297 6.419-2.573 5.918-2.272 5.486-1.972 5.124-1.671 4.761-1.371 4.454-1.052 4.204-.714 3.954-.376 3.728 .031 3.528 .507 3.228-.295 2.79-.945 2.215-1.446 1.639-1.946 1.089-2.334 .563-2.61 .388-2.359 .2-2.146 0-1.972 .55-1.746 1.057-1.452 1.52-1.089 1.983-.727 2.321-.357 2.534 .019 2.746 .394 2.89 .757 2.965 1.108 3.04 1.458 3.084 1.746 3.097 1.972 3.109 2.197 3.103 2.56 3.078 3.061 3.378 2.986 3.691 2.935 4.016 2.91 3.866 2.435 3.816 2.015 3.866 1.652M3.003 5.239C2.853 4.913 2.74 4.663 2.665 4.488H6.456C6.331 4.137 6.218 3.78 6.118 3.417 6.018 3.054 5.88 2.622 5.706 2.122 5.43 2.197 5.18 2.247 4.955 2.272 5.205 3.023 5.368 3.549 5.443 3.849H2.44C2.314 3.599 2.171 3.324 2.008 3.023 1.845 2.723 1.652 2.397 1.426 2.047 1.276 2.197 1.051 2.322 .751 2.422 1.076 2.773 1.401 3.305 1.727 4.018 2.052 4.732 2.302 5.451 2.477 6.178 2.802 6.002 3.09 5.89 3.341 5.84 3.266 5.765 3.153 5.564 3.003 5.239" fill="#2c292a"/>
<path transform="matrix(1,0,0,-1,287.11,254.0068)" d="M0 0V-1.502H2.215V.714C2.215 1.064 2.202 1.414 2.177 1.765H2.965C2.94 1.465 2.928 1.114 2.928 .714V-1.502H5.18V-.113C5.18 .287 5.167 .613 5.143 .864H5.931C5.905 .613 5.893 .275 5.893-.15V-1.164C5.893-1.565 5.905-1.891 5.931-2.141H2.928V-5.596H5.518V-4.018C5.518-3.643 5.505-3.318 5.48-3.042H6.269C6.243-3.318 6.231-3.63 6.231-3.981V-5.671C6.231-6.171 6.243-6.585 6.269-6.91H5.518V-6.234H-1.164C-1.139-5.934-1.126-5.571-1.126-5.145V-4.018C-1.126-3.593-1.139-3.255-1.164-3.004H-.375C-.401-3.255-.413-3.593-.413-4.018V-5.596H2.215V-2.141H-.751C-.726-1.891-.713-1.577-.713-1.202V-.038C-.713 .287-.726 .601-.751 .901H.038C.012 .576 0 .275 0 0" fill="#2c292a"/>
<path transform="matrix(1,0,0,-1,302.9142,260.5977)" d="M0 0C-.288-.113-.657-.181-1.107-.207-1.158 .144-1.27 .457-1.445 .732-.845 .682-.494 .695-.394 .77-.294 .845-.219 1.008-.169 1.258L-.094 4.187H-5.837C-5.937 2.986-6.106 2.071-6.344 1.446-6.582 .82-6.85 .307-7.151-.094-7.376 .131-7.639 .282-7.939 .357-7.564 .782-7.276 1.264-7.076 1.803-6.876 2.341-6.738 2.879-6.663 3.417-6.588 3.956-6.55 4.475-6.55 4.976V6.14C-6.55 6.39-6.563 7.091-6.588 8.243H.019C-.007 7.842-.019 7.442-.019 7.042-.019 6.641-.007 6.24 .019 5.84H-5.799V4.826H.694L.544 .995C.469 .445 .287 .113 0 0M-.694 7.605H-5.799V6.478H-.694ZM-1.577 2.197C-1.564 1.821-1.558 1.408-1.558 .958H-5.199C-5.149 1.283-5.124 1.658-5.124 2.084-5.124 2.535-5.137 2.998-5.161 3.474H-1.558C-1.583 2.998-1.59 2.573-1.577 2.197M-2.271 2.835H-4.4110004V1.5580001H-2.271ZM-2.271 1.559" fill="#2c292a"/>
<path transform="matrix(1,0,0,-1,294.0906,275.4145)" d="M0 0C-.501 .027-.934 .042-1.295 .042H-3.761C-3.956-.349-4.193-.781-4.471-1.254V-6.48C-4.471-7.038-4.457-7.664-4.429-8.361H-5.349C-5.321-7.692-5.307-7.065-5.307-6.48V-2.383C-6.17-3.582-7.341-4.682-8.817-5.686-9.04-5.351-9.249-5.115-9.444-4.975-8.887-4.724-8.148-4.188-7.229-3.365-6.31-2.544-5.46-1.408-4.68 .042H-7.438C-7.967 .042-8.524 .027-9.109 0V.836C-8.274 .808-7.633 .794-7.187 .794H-1.337C-.975 .794-.529 .808 0 .836ZM-3.719-2.467C-3.496-2.272-3.315-2.077-3.176-1.881-2.507-2.495-1.937-3.031-1.462-3.491-.989-3.951-.543-4.404-.125-4.849-.404-5.073-.655-5.309-.877-5.56-1.407-4.891-2.354-3.861-3.719-2.467" fill="#2c292a"/>
<path transform="matrix(1,0,0,-1,297.6725,274.9128)" d="M0 0C.306 0 .641 .014 1.003 .042V-.753C.612-.725 .167-.711-.334-.711V-3.094C.027-3.094 .404-3.08 .794-3.052V-3.846C.404-3.819 .027-3.804-.334-3.804V-6.271C.139-6.104 .557-5.951 .919-5.811 .891-6.09 .877-6.369 .877-6.647 .236-6.843-.334-7.031-.836-7.212-1.337-7.393-1.783-7.595-2.173-7.818-2.284-7.483-2.424-7.163-2.591-6.856-2.089-6.801-1.588-6.689-1.086-6.522V-3.804C-1.477-3.804-1.853-3.819-2.215-3.846V-3.052C-1.853-3.08-1.477-3.094-1.086-3.094V-.711C-1.532-.711-1.95-.725-2.34-.753V.042C-1.895 .014-1.546 0-1.295 0ZM5.599-2.508C6.101-2.508 6.616-2.495 7.145-2.467V-3.219C6.644-3.192 6.114-3.177 5.557-3.177H5.098V-7.567C5.098-7.818 5.195-7.95 5.39-7.964 5.585-7.978 5.78-7.985 5.975-7.985 6.198-7.985 6.337-7.88 6.393-7.671 6.449-7.462 6.49-7.135 6.519-6.689 6.769-6.856 7.076-6.982 7.438-7.065 7.298-7.679 7.159-8.11 7.02-8.361 6.88-8.612 6.602-8.738 6.184-8.738H5.265C4.624-8.738 4.304-8.417 4.304-7.776V-3.177H3.217C3.245-4.822 3.071-6.062 2.695-6.898 2.319-7.734 1.755-8.472 1.003-9.114 .724-8.779 .432-8.57 .125-8.487 .988-7.93 1.602-7.253 1.964-6.459 2.326-5.665 2.479-4.571 2.424-3.177 2.006-3.177 1.56-3.192 1.086-3.219V-2.467C1.588-2.495 2.061-2.508 2.507-2.508ZM4.889 .209C5.474 .209 5.975 .223 6.393 .251V-.502C5.975-.474 5.488-.46 4.931-.46H3.176C2.758-.46 2.298-.474 1.797-.502V.251C2.27 .223 2.702 .209 3.092 .209Z" fill="#2c292a"/>
<path transform="matrix(1,0,0,-1,227.5461,316.956)" d="M0 0H.909V1.77H2.729V2.299H.909V3.03H2.729V3.549H1.139L2.979 7.129H2.059L1.179 5.209C.949 4.719 .739 4.229 .499 3.699H.449C.21 4.229 0 4.719-.22 5.209L-1.09 7.129H-2.05L-.23 3.549H-1.8V3.03H0V2.299H-1.8V1.77H0Z" fill="#2c292a"/>
</g>
</g>
</g>
</svg>
