<svg xmlns="http://www.w3.org/2000/svg" xmlns:xlink="http://www.w3.org/1999/xlink" xmlns:inkscape="http://www.inkscape.org/namespaces/inkscape" version="1.1" width="411.024" height="595.276" viewBox="0 0 411.024 595.276">
<defs>
<clipPath id="clip_1">
<path transform="matrix(1,0,0,-1,0,595.276)" d="M0 0H411.024V595.276H0Z"/>
</clipPath>
<clipPath id="clip_2">
<path transform="matrix(1,0,0,-1,0,595.276)" d="M0 0H411.024V595.276H0Z"/>
</clipPath>
<path id="font_3_5" d="M.45999146 .19407654C.45999146 .28303529 .4229889 .34100343 .35099793 .36799623 .4149933 .39700318 .44699098 .450943 .44699098 .52586367 .44699098 .64175418 .36698915 .71875 .25099183 .71875 .14299011 .71875 .05899048 .6507416 .050994874 .53585818H.12298584C.12998963 .60879519 .17599488 .6547394 .25099183 .6547394 .31999208 .6547394 .375 .609787 .375 .5248718 .375 .4449463 .33499146 .3959961 .24798584 .3959961H.23298645V.3330078H.24798584C.34498597 .3330078 .3880005 .28103639 .3880005 .19508362 .3880005 .10812378 .32798768 .057159425 .25099183 .057159425 .18299866 .057159425 .11999512 .09213257 .11399841 .18109131H.041992189C.04798889 .05215454 .13899231-.0068359377 .25099183-.0068359377 .36698915-.0068359377 .45999146 .06315613 .45999146 .19407654Z"/>
<path id="font_3_8" d="M.45999146 .20516968C.45999146 .32221986 .38598634 .40722657 .2749939 .40722657 .24699402 .40722657 .22200012 .40222169 .19999695 .3922119L.35899354 .71191409H.2849884L.10998535 .3592224C.07998657 .2992096 .06498718 .25019837 .06498718 .19917298 .06498718 .07614136 .14199829-.005859375 .2630005-.005859375 .38398744-.005859375 .45999146 .08413696 .45999146 .20516968M.3880005 .20217896C.3880005 .11514282 .33799745 .058135988 .2619934 .058135988 .18598938 .058135988 .13699341 .11514282 .13699341 .20217896 .13699341 .2902069 .18598938 .34622193 .2619934 .34622193 .34399415 .34622193 .3880005 .28120423 .3880005 .20217896Z"/>
<path id="font_3_7" d="M.46199037 .23516846C.46199037 .30218507 .45498658 .37419129 .40299989 .42619325 .375 .45419313 .33299256 .4711914 .27999879 .4711914 .22399903 .4711914 .17999268 .4532013 .1519928 .42219544V.64790347H.44699098V.71191409H.08699036V.33818055H.1519928C.1659851 .380188 .20799256 .40820313 .269989 .40820313 .37298585 .40820313 .3899994 .32218934 .3899994 .23516846 .3899994 .18417359 .3880005 .12716675 .35099793 .090164188 .32998658 .06915283 .2979889 .057159425 .2630005 .057159425 .18798828 .057159425 .15098572 .09716797 .14199829 .16816712H.069992069C.07398987 .11715698 .08898926 .076156619 .11999512 .044158937 .15098572 .013153076 .20098877-.0068359377 .2630005-.0068359377 .32598878-.0068359377 .37199403 .013153076 .40499879 .046157838 .45599366 .09716797 .46199037 .16416931 .46199037 .23516846Z"/>
<clipPath id="clip_4">
<path transform="matrix(1,0,0,-1,0,595.276)" d="M0 0H411.024V595.276H0Z"/>
</clipPath>
<clipPath id="clip_5">
<path transform="matrix(1,0,0,-1,0,595.276)" d="M0 0H411.024V595.276H0Z"/>
</clipPath>
<clipPath id="clip_6">
<path transform="matrix(1,0,0,-1,0,595.276)" d="M0 0H411.024V595.276H0Z"/>
</clipPath>
<clipPath id="clip_7">
<path transform="matrix(1,0,0,-1,0,595.276)" d="M0 0H411.024V595.276H0Z"/>
</clipPath>
<clipPath id="clip_8">
<path transform="matrix(1,0,0,-1,0,595.276)" d="M0 0H411.024V595.276H0Z"/>
</clipPath>
<clipPath id="clip_9">
<path transform="matrix(1,0,0,-1,0,595.276)" d="M0 0H411.024V595.276H0Z"/>
</clipPath>
<clipPath id="clip_10">
<path transform="matrix(1,0,0,-1,0,595.276)" d="M0 0H411.024V595.276H0Z"/>
</clipPath>
</defs>
<g clip-path="url(#clip_1)">
<g clip-path="url(#clip_2)">
<use data-text="3" xlink:href="#font_3_5" transform="matrix(9,0,0,-9,363.685,567.547)" fill="#f43040"/>
<use data-text="6" xlink:href="#font_3_8" transform="matrix(9,0,0,-9,367.285,567.547)" fill="#f43040"/>
<use data-text="5" xlink:href="#font_3_7" transform="matrix(9,0,0,-9,370.885,567.547)" fill="#f43040"/>
<g clip-path="url(#clip_4)">
<path transform="matrix(1,0,0,-1,73.1915,189.18231)" stroke-width="1" stroke-linecap="butt" stroke-dasharray="2.748,1.748" stroke-miterlimit="4" stroke-linejoin="miter" fill="none" stroke="#2c292a" d="M0 0C-.933-.516-1.843-1.328-2.324-2.672"/>
<path transform="matrix(1,0,0,-1,70.5157,197.6041)" stroke-width="1" stroke-linecap="butt" stroke-dasharray="3.021,2.021" stroke-miterlimit="4" stroke-linejoin="miter" fill="none" stroke="#2c292a" d="M0 0V-54.453"/>
<path transform="matrix(1,0,0,-1,71.3069,257.5729)" stroke-width="1" stroke-linecap="butt" stroke-dasharray="2.748,1.748" stroke-miterlimit="4" stroke-linejoin="miter" fill="none" stroke="#2c292a" d="M0 0C.503-.922 1.325-1.844 2.669-2.313"/>
<path transform="matrix(1,0,0,-1,79.7093,260.2448)" stroke-width="1" stroke-linecap="butt" stroke-dasharray="3.016,2.016" stroke-miterlimit="4" stroke-linejoin="miter" fill="none" stroke="#2c292a" d="M0 0H94.607"/>
<path transform="matrix(1,0,0,-1,179.8261,259.4479)" stroke-width="1" stroke-linecap="butt" stroke-dasharray="2.748,1.748" stroke-miterlimit="4" stroke-linejoin="miter" fill="none" stroke="#2c292a" d="M0 0C.933 .5 1.843 1.312 2.324 2.656"/>
<path transform="matrix(1,0,0,-1,182.5019,251.0416)" stroke-width="1" stroke-linecap="butt" stroke-dasharray="3.021,2.021" stroke-miterlimit="4" stroke-linejoin="miter" fill="none" stroke="#2c292a" d="M0 0V54.453"/>
<path transform="matrix(1,0,0,-1,181.7107,191.0729)" stroke-width="1" stroke-linecap="butt" stroke-dasharray="2.748,1.748" stroke-miterlimit="4" stroke-linejoin="miter" fill="none" stroke="#2c292a" d="M0 0C-.503 .937-1.325 1.844-2.669 2.328"/>
<path transform="matrix(1,0,0,-1,173.3083,188.401)" stroke-width="1" stroke-linecap="butt" stroke-dasharray="3.016,2.016" stroke-miterlimit="4" stroke-linejoin="miter" fill="none" stroke="#2c292a" d="M0 0H-94.607"/>
<path transform="matrix(1,0,0,-1,70.6393,192.6979)" stroke-width="1" stroke-linecap="butt" stroke-miterlimit="4" stroke-linejoin="miter" fill="none" stroke="#2c292a" d="M0 0C-.08-.422-.124-.875-.124-1.375V-2.875M-.124-60.359V-61.875C-.124-61.875-.124-62.453 .06-63.234M4.179-67.422C4.593-67.5 5.048-67.547 5.546-67.547H7.054M104.685-67.547H106.193C106.193-67.547 106.769-67.547 107.553-67.359M111.739-63.25C111.819-62.828 111.863-62.375 111.863-61.875V-60.359M111.863-2.875V-1.375C111.863-1.375 111.863-.797 111.679-.016M107.56 4.172C107.146 4.25 106.691 4.297 106.193 4.297H104.685M7.054 4.297H5.546C5.546 4.297 4.97 4.297 4.186 4.109"/>
<path transform="matrix(1,0,0,-1,240.5894,189.18231)" stroke-width="1" stroke-linecap="butt" stroke-dasharray="2.748,1.748" stroke-miterlimit="4" stroke-linejoin="miter" fill="none" stroke="#2c292a" d="M0 0C-.933-.516-1.843-1.328-2.324-2.672"/>
<path transform="matrix(1,0,0,-1,237.9136,197.6041)" stroke-width="1" stroke-linecap="butt" stroke-dasharray="3.021,2.021" stroke-miterlimit="4" stroke-linejoin="miter" fill="none" stroke="#2c292a" d="M0 0V-54.453"/>
<path transform="matrix(1,0,0,-1,238.7048,257.5729)" stroke-width="1" stroke-linecap="butt" stroke-dasharray="2.748,1.748" stroke-miterlimit="4" stroke-linejoin="miter" fill="none" stroke="#2c292a" d="M0 0C.503-.922 1.325-1.844 2.669-2.313"/>
<path transform="matrix(1,0,0,-1,247.0655,260.2448)" stroke-width="1" stroke-linecap="butt" stroke-dasharray="2.988,1.988" stroke-miterlimit="4" stroke-linejoin="miter" fill="none" stroke="#2c292a" d="M0 0H98.542"/>
<path transform="matrix(1,0,0,-1,351.0893,259.4479)" stroke-width="1" stroke-linecap="butt" stroke-dasharray="2.748,1.748" stroke-miterlimit="4" stroke-linejoin="miter" fill="none" stroke="#2c292a" d="M0 0C.933 .5 1.843 1.312 2.324 2.656"/>
<path transform="matrix(1,0,0,-1,353.765,251.0416)" stroke-width="1" stroke-linecap="butt" stroke-dasharray="3.021,2.021" stroke-miterlimit="4" stroke-linejoin="miter" fill="none" stroke="#2c292a" d="M0 0V54.453"/>
<path transform="matrix(1,0,0,-1,352.9739,191.0729)" stroke-width="1" stroke-linecap="butt" stroke-dasharray="2.748,1.748" stroke-miterlimit="4" stroke-linejoin="miter" fill="none" stroke="#2c292a" d="M0 0C-.503 .937-1.325 1.844-2.669 2.328"/>
<path transform="matrix(1,0,0,-1,344.6132,188.401)" stroke-width="1" stroke-linecap="butt" stroke-dasharray="2.988,1.988" stroke-miterlimit="4" stroke-linejoin="miter" fill="none" stroke="#2c292a" d="M0 0H-98.542"/>
<path transform="matrix(1,0,0,-1,238.0372,192.6979)" stroke-width="1" stroke-linecap="butt" stroke-miterlimit="4" stroke-linejoin="miter" fill="none" stroke="#2c292a" d="M0 0C-.08-.422-.124-.875-.124-1.375V-2.875M-.124-60.359V-61.875C-.124-61.875-.124-62.453 .06-63.234M4.179-67.422C4.593-67.5 5.048-67.547 5.546-67.547H7.04M108.564-67.547H110.059C110.059-67.547 110.634-67.547 111.418-67.359M115.604-63.25C115.684-62.828 115.728-62.375 115.728-61.875V-60.359M115.728-2.875V-1.375C115.728-1.375 115.728-.797 115.545-.016M111.425 4.172C111.011 4.25 110.557 4.297 110.059 4.297H108.564M7.04 4.297H5.546C5.546 4.297 4.97 4.297 4.186 4.109"/>
<path transform="matrix(1,0,0,-1,73.1915,264.401)" stroke-width="1" stroke-linecap="butt" stroke-dasharray="2.748,1.748" stroke-miterlimit="4" stroke-linejoin="miter" fill="none" stroke="#2c292a" d="M0 0C-.933-.5-1.843-1.328-2.324-2.672"/>
<path transform="matrix(1,0,0,-1,70.5157,273.0729)" stroke-width="1" stroke-linecap="butt" stroke-dasharray="3.195,2.195" stroke-miterlimit="4" stroke-linejoin="miter" fill="none" stroke="#2c292a" d="M0 0V-15.063"/>
<path transform="matrix(1,0,0,-1,71.3069,293.8229)" stroke-width="1" stroke-linecap="butt" stroke-dasharray="2.748,1.748" stroke-miterlimit="4" stroke-linejoin="miter" fill="none" stroke="#2c292a" d="M0 0C.503-.937 1.325-1.844 2.669-2.328"/>
<path transform="matrix(1,0,0,-1,79.7116,296.5104)" stroke-width="1" stroke-linecap="butt" stroke-dasharray="3.018,2.018" stroke-miterlimit="4" stroke-linejoin="miter" fill="none" stroke="#2c292a" d="M0 0H265.866"/>
<path transform="matrix(1,0,0,-1,351.0893,295.7135)" stroke-width="1" stroke-linecap="butt" stroke-dasharray="2.748,1.748" stroke-miterlimit="4" stroke-linejoin="miter" fill="none" stroke="#2c292a" d="M0 0C.933 .5 1.843 1.328 2.324 2.672"/>
<path transform="matrix(1,0,0,-1,353.765,287.0416)" stroke-width="1" stroke-linecap="butt" stroke-dasharray="3.195,2.195" stroke-miterlimit="4" stroke-linejoin="miter" fill="none" stroke="#2c292a" d="M0 0V15.063"/>
<path transform="matrix(1,0,0,-1,352.9739,266.2916)" stroke-width="1" stroke-linecap="butt" stroke-dasharray="2.748,1.748" stroke-miterlimit="4" stroke-linejoin="miter" fill="none" stroke="#2c292a" d="M0 0C-.503 .937-1.325 1.844-2.669 2.328"/>
<path transform="matrix(1,0,0,-1,344.5692,263.6041)" stroke-width="1" stroke-linecap="butt" stroke-dasharray="3.018,2.018" stroke-miterlimit="4" stroke-linejoin="miter" fill="none" stroke="#2c292a" d="M0 0H-265.866"/>
<path transform="matrix(1,0,0,-1,70.6393,267.9166)" stroke-width="1" stroke-linecap="butt" stroke-miterlimit="4" stroke-linejoin="miter" fill="none" stroke="#2c292a" d="M0 0C-.08-.406-.124-.859-.124-1.359V-2.953M-.124-21.328V-22.922C-.124-22.922-.124-23.5 .06-24.281M4.179-28.469C4.593-28.547 5.048-28.594 5.546-28.594H7.055M275.948-28.594H277.456C277.456-28.594 278.032-28.594 278.816-28.406M283.002-24.281C283.082-23.875 283.126-23.422 283.126-22.922V-21.328M283.126-2.953V-1.359C283.126-1.359 283.126-.781 282.942 0M278.823 4.187C278.409 4.266 277.954 4.312 277.456 4.312H275.948M7.055 4.312H5.546C5.546 4.312 4.97 4.312 4.186 4.125"/>
<path transform="matrix(1,0,0,-1,186.1776,189.18231)" stroke-width="1" stroke-linecap="butt" stroke-dasharray="2.748,1.748" stroke-miterlimit="4" stroke-linejoin="miter" fill="none" stroke="#2c292a" d="M0 0C-.933-.516-1.843-1.328-2.324-2.672"/>
<path transform="matrix(1,0,0,-1,183.5019,197.6041)" stroke-width="1" stroke-linecap="butt" stroke-dasharray="3.021,2.021" stroke-miterlimit="4" stroke-linejoin="miter" fill="none" stroke="#2c292a" d="M0 0V-54.453"/>
<path transform="matrix(1,0,0,-1,184.293,257.5729)" stroke-width="1" stroke-linecap="butt" stroke-dasharray="2.748,1.748" stroke-miterlimit="4" stroke-linejoin="miter" fill="none" stroke="#2c292a" d="M0 0C.503-.922 1.325-1.844 2.669-2.313"/>
<path transform="matrix(1,0,0,-1,192.8655,260.2448)" stroke-width="1" stroke-linecap="butt" stroke-dasharray="3.13,2.13" stroke-miterlimit="4" stroke-linejoin="miter" fill="none" stroke="#2c292a" d="M0 0H35.749"/>
<path transform="matrix(1,0,0,-1,234.2379,259.4479)" stroke-width="1" stroke-linecap="butt" stroke-dasharray="2.748,1.748" stroke-miterlimit="4" stroke-linejoin="miter" fill="none" stroke="#2c292a" d="M0 0C.933 .5 1.843 1.312 2.324 2.656"/>
<path transform="matrix(1,0,0,-1,236.9136,251.0416)" stroke-width="1" stroke-linecap="butt" stroke-dasharray="3.021,2.021" stroke-miterlimit="4" stroke-linejoin="miter" fill="none" stroke="#2c292a" d="M0 0V54.453"/>
<path transform="matrix(1,0,0,-1,236.1225,191.0729)" stroke-width="1" stroke-linecap="butt" stroke-dasharray="2.748,1.748" stroke-miterlimit="4" stroke-linejoin="miter" fill="none" stroke="#2c292a" d="M0 0C-.503 .937-1.325 1.844-2.669 2.328"/>
<path transform="matrix(1,0,0,-1,227.55,188.401)" stroke-width="1" stroke-linecap="butt" stroke-dasharray="3.13,2.13" stroke-miterlimit="4" stroke-linejoin="miter" fill="none" stroke="#2c292a" d="M0 0H-35.749"/>
<path transform="matrix(1,0,0,-1,183.6254,192.6979)" stroke-width="1" stroke-linecap="butt" stroke-miterlimit="4" stroke-linejoin="miter" fill="none" stroke="#2c292a" d="M0 0C-.08-.422-.124-.875-.124-1.375V-2.875M-.124-60.359V-61.875C-.124-61.875-.124-62.453 .06-63.234M4.179-67.422C4.593-67.5 5.048-67.547 5.546-67.547H7.111M46.054-67.547H47.619C47.619-67.547 48.194-67.547 48.978-67.359M53.165-63.25C53.244-62.828 53.288-62.375 53.288-61.875V-60.359M53.288-2.875V-1.375C53.288-1.375 53.288-.797 53.105-.016M48.986 4.172C48.571 4.25 48.117 4.297 47.619 4.297H46.054M7.111 4.297H5.546C5.546 4.297 4.97 4.297 4.186 4.109"/>
<path transform="matrix(1,0,0,-1,286.2463,215.15561)" d="M0 0H-41.391C-43.185 0-44.645 1.46-44.645 3.255V14.247C-44.645 16.042-43.185 17.503-41.391 17.503H0C1.794 17.503 3.254 16.042 3.254 14.247V3.255C3.254 1.46 1.794 0 0 0M-41.391 16.488C-42.626 16.488-43.631 15.483-43.631 14.247V3.255C-43.631 2.02-42.626 1.014-41.391 1.014H0C1.235 1.014 2.24 2.02 2.24 3.255V14.247C2.24 15.483 1.235 16.488 0 16.488Z" fill="#f43040"/>
<path transform="matrix(1,0,0,-1,286.2463,289.4956)" d="M0 0H-41.391C-43.185 0-44.645 1.46-44.645 3.255V14.247C-44.645 16.042-43.185 17.503-41.391 17.503H0C1.794 17.503 3.254 16.042 3.254 14.247V3.255C3.254 1.46 1.794 0 0 0M-41.391 16.488C-42.626 16.488-43.631 15.483-43.631 14.247V3.255C-43.631 2.02-42.626 1.014-41.391 1.014H0C1.235 1.014 2.24 2.02 2.24 3.255V14.247C2.24 15.483 1.235 16.488 0 16.488Z" fill="#f43040"/>
<path transform="matrix(1,0,0,-1,344.8204,252.172)" d="M0 0H-41.391C-43.185 0-44.645 1.46-44.645 3.255V14.247C-44.645 16.042-43.185 17.503-41.391 17.503H0C1.794 17.503 3.254 16.042 3.254 14.247V3.255C3.254 1.46 1.794 0 0 0M-41.391 16.488C-42.626 16.488-43.631 15.483-43.631 14.247V3.255C-43.631 2.02-42.626 1.014-41.391 1.014H0C1.235 1.014 2.24 2.02 2.24 3.255V14.247C2.24 15.483 1.235 16.488 0 16.488Z" fill="#f43040"/>
<path transform="matrix(1,0,0,-1,286.2463,252.172)" d="M0 0H-41.391C-43.185 0-44.645 1.46-44.645 3.255V14.247C-44.645 16.042-43.185 17.503-41.391 17.503H0C1.794 17.503 3.254 16.042 3.254 14.247V3.255C3.254 1.46 1.794 0 0 0M-41.391 16.488C-42.626 16.488-43.631 15.483-43.631 14.247V3.255C-43.631 2.02-42.626 1.014-41.391 1.014H0C1.235 1.014 2.24 2.02 2.24 3.255V14.247C2.24 15.483 1.235 16.488 0 16.488Z" fill="#f43040"/>
<path transform="matrix(1,0,0,-1,230.9842,252.172)" d="M0 0H-41.391C-43.185 0-44.645 1.46-44.645 3.255V14.247C-44.645 16.042-43.185 17.503-41.391 17.503H0C1.794 17.503 3.254 16.042 3.254 14.247V3.255C3.254 1.46 1.794 0 0 0M-41.391 16.488C-42.626 16.488-43.631 15.483-43.631 14.247V3.255C-43.631 2.02-42.626 1.014-41.391 1.014H0C1.235 1.014 2.24 2.02 2.24 3.255V14.247C2.24 15.483 1.235 16.488 0 16.488Z" fill="#f43040"/>
<path transform="matrix(1,0,0,-1,176.0227,252.172)" d="M0 0H-41.391C-43.185 0-44.645 1.46-44.645 3.255V14.247C-44.645 16.042-43.185 17.503-41.391 17.503H0C1.794 17.503 3.254 16.042 3.254 14.247V3.255C3.254 1.46 1.794 0 0 0M-41.391 16.488C-42.626 16.488-43.631 15.483-43.631 14.247V3.255C-43.631 2.02-42.626 1.014-41.391 1.014H0C1.235 1.014 2.24 2.02 2.24 3.255V14.247C2.24 15.483 1.235 16.488 0 16.488Z" fill="#f43040"/>
<path transform="matrix(1,0,0,-1,175.5443,289.2658)" d="M0 0H-41.391C-43.185 0-44.645 1.46-44.645 3.255V14.247C-44.645 16.042-43.185 17.503-41.391 17.503H0C1.794 17.503 3.254 16.042 3.254 14.247V3.255C3.254 1.46 1.794 0 0 0M-41.391 16.488C-42.626 16.488-43.631 15.483-43.631 14.247V3.255C-43.631 2.02-42.626 1.014-41.391 1.014H0C1.235 1.014 2.24 2.02 2.24 3.255V14.247C2.24 15.483 1.235 16.488 0 16.488Z" fill="#f43040"/>
<path transform="matrix(1,0,0,-1,177.9412,217.89719)" d="M0 0H-41.391C-43.185 0-44.645 1.46-44.645 3.255V14.247C-44.645 16.042-43.185 17.503-41.391 17.503H0C1.794 17.503 3.254 16.042 3.254 14.247V3.255C3.254 1.46 1.794 0 0 0M-41.391 16.488C-42.626 16.488-43.631 15.483-43.631 14.247V3.255C-43.631 2.02-42.626 1.014-41.391 1.014H0C1.235 1.014 2.24 2.02 2.24 3.255V14.247C2.24 15.483 1.235 16.488 0 16.488Z" fill="#f43040"/>
<path transform="matrix(1,0,0,-1,120.3461,252.172)" d="M0 0H-41.391C-43.185 0-44.645 1.46-44.645 3.255V14.247C-44.645 16.042-43.185 17.503-41.391 17.503H0C1.794 17.503 3.254 16.042 3.254 14.247V3.255C3.254 1.46 1.794 0 0 0M-41.391 16.488C-42.626 16.488-43.631 15.483-43.631 14.247V3.255C-43.631 2.02-42.626 1.014-41.391 1.014H0C1.235 1.014 2.24 2.02 2.24 3.255V14.247C2.24 15.483 1.235 16.488 0 16.488Z" fill="#f43040"/>
<path transform="matrix(1,0,0,-1,83.5927,240.26941)" d="M0 0C0 .397-.012 .759-.035 1.087H.701C.677 .806 .666 .444 .666 0V-.771C.969-.771 1.297-.76 1.647-.736V-1.438C1.297-1.415 .969-1.402 .666-1.402V-2.63C.712-2.583 .853-2.478 1.086-2.314 1.39-2.782 1.659-3.191 1.892-3.541 1.659-3.682 1.46-3.81 1.297-3.927 1.063-3.506 .853-3.144 .666-2.84V-5.435C.666-5.926 .677-6.416 .701-6.907H-.035C.012-6.393 .023-5.903 0-5.435V-3.015C-.234-3.576-.584-4.184-1.051-4.839-1.239-4.535-1.39-4.313-1.507-4.172-1.25-3.916-.981-3.553-.701-3.085-.421-2.618-.199-2.057-.035-1.402-.385-1.402-.759-1.415-1.156-1.438V-.736C-.736-.76-.35-.771 0-.771ZM2.033-2.419C2.173-2.419 2.383-2.285 2.663-2.016 2.944-1.748 3.224-1.332 3.505-.771L4.24-1.192C4.053-1.309 3.872-1.473 3.697-1.683 3.522-1.893 3.294-2.139 3.014-2.419L4.556-2.384C4.789-2.081 4.976-1.742 5.117-1.367L5.923-1.718C5.805-1.788 5.642-1.987 5.432-2.314 5.222-2.642 4.918-3.027 4.521-3.471 4.123-3.916 3.738-4.284 3.364-4.576 2.99-4.868 2.593-5.143 2.173-5.4 2.009-5.213 1.81-5.026 1.577-4.839 2.068-4.652 2.535-4.389 2.979-4.05 3.422-3.711 3.808-3.343 4.135-2.945 3.761-2.945 3.434-2.957 3.154-2.98 2.874-3.004 2.57-3.05 2.243-3.121ZM6.08-3.787C5.905-4.044 5.665-4.371 5.362-4.768 5.829-5.189 6.185-5.528 6.431-5.785 6.676-6.043 6.81-6.182 6.834-6.206 6.624-6.346 6.401-6.533 6.168-6.767 6.028-6.557 5.858-6.334 5.66-6.101 5.461-5.867 5.198-5.587 4.871-5.259 4.544-5.563 4.24-5.815 3.96-6.013 3.68-6.212 3.382-6.393 3.066-6.557 2.751-6.72 2.43-6.872 2.103-7.012 1.986-6.778 1.81-6.568 1.577-6.381 2.208-6.194 2.769-5.949 3.259-5.645 3.75-5.341 4.17-5.008 4.521-4.646 4.871-4.284 5.146-3.951 5.344-3.646 5.543-3.343 5.689-3.074 5.783-2.84 6.016-3.004 6.273-3.144 6.553-3.261 6.413-3.355 6.256-3.53 6.08-3.787M1.927-.736V-.035C2.231-.082 2.546-.105 2.874-.105H5.502C5.876-.105 6.261-.082 6.659-.035V-.736C6.261-.713 5.876-.701 5.502-.701H2.558C2.348-.701 2.138-.713 1.927-.736M4.836 .281C4.486 .14 4.252 .023 4.135-.07 3.972 .327 3.796 .643 3.61 .877 3.96 1.04 4.193 1.145 4.311 1.192 4.451 .958 4.626 .654 4.836 .281" fill="#2c292a"/>
<path transform="matrix(1,0,0,-1,92.5195,243.19712)" d="M0 0C-.117-.596-.28-1.315-.491-2.156-.771-2.063-1.051-1.993-1.332-1.946-1.005-1.011-.759 .064-.596 1.28-.385 1.233-.094 1.175 .28 1.104 .21 .964 .117 .596 0 0M1.963 .333V-2.682C1.963-2.963 2.103-3.103 2.383-3.103H4.03C4.287-3.127 4.456-3.062 4.538-2.91 4.62-2.758 4.684-2.414 4.731-1.876 4.964-2.063 5.233-2.191 5.537-2.262 5.373-3.01 5.21-3.459 5.047-3.611 4.883-3.763 4.684-3.827 4.451-3.804H1.892C1.472-3.804 1.238-3.547 1.192-3.033V.298C1.192 .765 1.179 1.198 1.156 1.595H1.998C1.974 1.315 1.963 .894 1.963 .333M3.715 2.297C3.434 2.156 3.177 2.004 2.944 1.841 2.57 2.612 2.208 3.243 1.857 3.734 2.068 3.851 2.278 3.991 2.488 4.155 2.745 3.711 3.154 3.091 3.715 2.297M6.869-.824C6.611-.941 6.366-1.104 6.133-1.315 5.642-.38 5.163 .391 4.696 .999 4.906 1.116 5.117 1.256 5.327 1.42 5.864 .672 6.378-.076 6.869-.824" fill="#2c292a"/>
<path transform="matrix(1,0,0,-1,103.619,241.707)" d="M0 0C-.771-.047-1.414-.094-1.927-.14-2.442-.187-2.827-.245-3.084-.316-3.154-.035-3.236 .21-3.329 .421-3.166 .491-2.915 .742-2.576 1.175-2.237 1.607-1.963 2.069-1.752 2.56-1.636 2.466-1.507 2.396-1.367 2.349-1.227 2.302-1.075 2.244-.911 2.174-1.098 2.034-1.291 1.823-1.489 1.543-1.688 1.262-2.01 .865-2.453 .351-1.472 .397-.748 .432-.28 .456-.561 .829-.759 1.075-.876 1.192-.713 1.285-.526 1.414-.315 1.578-.129 1.32 .053 1.087 .228 .877 .403 .666 .631 .397 .911 .07 .654-.117 .444-.269 .28-.386 .21-.269 .117-.14 0 0M-.421-4.786C-.374-4.704-.35-4.582-.35-4.418V-3.927H-2.243V-5.575H-2.909C-2.886-5.107-2.874-4.687-2.874-4.313V-1.963C-2.874-1.543-2.886-1.169-2.909-.841H.315C.292-1.192 .28-1.578 .28-1.999V-4.944C.257-5.201 .152-5.365-.035-5.435-.222-5.505-.491-5.563-.841-5.61-.888-5.4-.981-5.166-1.121-4.909-.701-4.909-.468-4.868-.421-4.786M-.35-1.402H-2.2419999V-2.0679999H-.35ZM-.35-2.63H-2.2419999V-3.3660002H-.35ZM1.787 1.052C2.114 1.192 2.43 1.338 2.734 1.49 3.037 1.642 3.341 1.835 3.645 2.069 3.831 1.835 3.995 1.636 4.135 1.473 3.995 1.426 3.697 1.291 3.242 1.069 2.786 .847 2.301 .654 1.787 .491V-.035C1.787-.316 1.951-.456 2.278-.456H3.294C3.527-.456 3.68-.152 3.75 .456 3.983 .339 4.217 .233 4.451 .14 4.287-.608 3.995-.982 3.575-.982H1.998C1.437-.982 1.156-.725 1.156-.21V1.578C1.156 1.858 1.144 2.162 1.121 2.489H1.822C1.799 2.326 1.787 1.987 1.787 1.473ZM3.347-2.77C2.891-2.98 2.371-3.179 1.787-3.366V-4.348C1.787-4.628 1.915-4.768 2.173-4.768H3.434C3.621-4.721 3.75-4.43 3.82-3.892 4.007-3.986 4.24-4.079 4.521-4.172 4.357-4.92 4.088-5.294 3.715-5.294H1.822C1.378-5.294 1.156-5.072 1.156-4.628V-2.349C1.156-1.999 1.144-1.683 1.121-1.402H1.822C1.799-1.683 1.787-1.987 1.787-2.314V-2.77C2.021-2.7 2.33-2.572 2.716-2.384 3.101-2.197 3.411-1.999 3.645-1.788 3.855-2.069 4.03-2.279 4.17-2.419 4.077-2.443 3.802-2.56 3.347-2.77" fill="#2c292a"/>
<path transform="matrix(1,0,0,-1,113.1765,241.8121)" d="M0 0C-.07-.818-.175-1.473-.315-1.964-.456-2.454-.648-2.905-.894-3.313-1.139-3.723-1.46-4.108-1.857-4.47-2.255-4.833-2.734-5.189-3.294-5.54-3.411-5.353-3.645-5.154-3.995-4.944-3.434-4.663-2.967-4.371-2.593-4.067-2.22-3.764-1.898-3.419-1.63-3.033-1.361-2.647-1.163-2.209-1.034-1.718-.906-1.227-.818-.655-.771 0H-1.787C-2.465 0-3.084-.012-3.645-.035V.666C-3.084 .643-2.465 .631-1.787 .631H-.736V1.683C-.736 2.01-.748 2.349-.771 2.7-.514 2.653-.222 2.618 .105 2.595 .058 2.384 .029 2.08 .017 1.683 .005 1.285 0 .935 0 .631H3.575C3.481-.631 3.422-1.502 3.399-1.981 3.376-2.46 3.329-3.045 3.259-3.734 3.189-4.424 2.996-4.85 2.681-5.014 2.366-5.177 1.822-5.294 1.051-5.365 1.028-5.084 .911-4.78 .701-4.453 1.378-4.477 1.834-4.441 2.068-4.348 2.301-4.255 2.436-4.079 2.471-3.822 2.506-3.565 2.541-3.232 2.576-2.823 2.611-2.414 2.663-1.473 2.733 0Z" fill="#2c292a"/>
<path transform="matrix(1,0,0,-1,139.2449,243.53022)" d="M0 0C-.234 .257-.421 .432-.561 .526 .187 1.11 .771 1.671 1.192 2.209 1.308 2.092 1.472 1.951 1.682 1.788 1.098 1.25 .537 .654 0 0M3.452-1.718C3.393-1.976 3.242-2.238 2.996-2.507 2.751-2.776 2.395-3.027 1.927-3.261 1.46-3.494 .783-3.682-.105-3.822-.175-3.588-.315-3.366-.526-3.156 .152-3.132 .718-3.044 1.174-2.893 1.63-2.741 1.974-2.572 2.208-2.384 2.441-2.197 2.611-1.97 2.716-1.701 2.821-1.432 2.874-1.146 2.874-.841 3.154-.889 3.434-.924 3.715-.947 3.598-1.204 3.51-1.461 3.452-1.718M-.35 3.682C-.187 3.845-.047 4.009 .07 4.172 .28 4.032 .783 3.717 1.577 3.226 1.437 3.086 1.297 2.91 1.156 2.7 .783 2.98 .28 3.307-.35 3.682M6.168-.841C6.168-1.192 6.179-1.601 6.203-2.069H5.502V-.456H1.156V-2.279H.456C.479-1.742 .491-1.297 .491-.947 .491-.573 .479-.21 .456 .14H6.203C6.179-.164 6.168-.491 6.168-.841M4.661 2.121C4.801 1.922 4.994 1.736 5.239 1.56 5.485 1.385 5.788 1.239 6.15 1.122 6.512 1.005 6.915 .935 7.359 .912 7.172 .654 7.032 .409 6.939 .175 6.355 .292 5.835 .467 5.379 .701 4.924 .935 4.544 1.309 4.24 1.823 4.03 1.285 3.726 .912 3.329 .701 2.932 .491 2.5 .316 2.033 .175 1.845 .386 1.659 .572 1.472 .736 2.453 .923 3.095 1.204 3.399 1.578 3.703 1.951 3.866 2.407 3.89 2.945L4.696 2.84C4.532 2.56 4.521 2.32 4.661 2.121M2.348 2.244C2.184 2.407 2.009 2.548 1.822 2.665 2.103 2.852 2.366 3.103 2.611 3.419 2.856 3.734 3.049 4.067 3.189 4.418 3.399 4.324 3.656 4.254 3.96 4.208 3.843 3.997 3.703 3.81 3.54 3.647H6.834C6.764 3.506 6.553 3.05 6.203 2.279 5.923 2.349 5.689 2.396 5.502 2.419 5.619 2.676 5.724 2.898 5.817 3.086H3.154C2.874 2.711 2.605 2.431 2.348 2.244M5.432-2.384C5.853-2.548 6.355-2.758 6.939-3.015 6.799-3.202 6.67-3.436 6.553-3.717 6.109-3.459 5.671-3.237 5.239-3.05 4.807-2.864 4.346-2.688 3.855-2.524 3.972-2.338 4.065-2.127 4.135-1.893 4.579-2.057 5.012-2.221 5.432-2.384" fill="#2c292a"/>
<path transform="matrix(1,0,0,-1,148.5571,245.5989)" d="M0 0C-.21-.655-.363-1.133-.456-1.438-.666-1.274-.935-1.122-1.262-.982-1.121-.795-.935-.415-.701 .158-.468 .73-.269 1.39-.105 2.139 .128 1.951 .35 1.8 .561 1.683 .397 1.215 .21 .654 0 0M-.421 3.296-1.192 3.717C-1.098 3.88-.993 4.067-.876 4.278-.666 4.16-.415 4.026-.123 3.874 .169 3.722 .432 3.576 .666 3.436L.245 2.805C.058 2.992-.164 3.156-.421 3.296M-.841 5.89C-.701 6.054-.549 6.218-.385 6.381 .245 5.89 .666 5.528 .876 5.294 .712 5.131 .549 4.955 .386 4.768-.035 5.236-.444 5.61-.841 5.89M.806-.053C.969 .309 1.092 .736 1.174 1.227 1.256 1.718 1.302 2.226 1.314 2.752 1.326 3.278 1.332 3.845 1.332 4.453 1.332 5.084 1.32 5.657 1.297 6.171H5.292C5.829 6.171 6.343 6.182 6.834 6.206V5.54C6.343 5.563 5.829 5.575 5.292 5.575H1.998V3.226C1.998 2.665 1.98 2.156 1.945 1.701 1.91 1.245 1.828 .8 1.7 .368 1.571-.065 1.425-.438 1.262-.754 1.098-1.069 .899-1.379 .666-1.683 .549-1.449 .35-1.239 .07-1.052 .397-.748 .642-.415 .806-.053M2.173-.228C2.383 .064 2.593 .409 2.804 .806 2.967 .643 3.201 .491 3.505 .351 3.271 .14 3.06-.111 2.874-.403 2.686-.696 2.453-1.017 2.173-1.367 1.963-1.204 1.764-1.063 1.577-.947 1.764-.76 1.963-.52 2.173-.228M4.311 4.523H6.308C6.285 4.172 6.273 3.822 6.273 3.471V2.595C6.273 2.337 6.285 1.975 6.308 1.508H4.801V-.842C4.801-1.122 4.714-1.338 4.538-1.49 4.363-1.642 4.088-1.741 3.715-1.788 3.645-1.531 3.54-1.274 3.399-1.017 3.89-1.087 4.135-.97 4.135-.666V1.508H2.663C2.686 1.881 2.698 2.232 2.698 2.56V3.506C2.698 3.81 2.686 4.149 2.663 4.523H3.61C3.703 4.733 3.796 5.025 3.89 5.4 4.123 5.329 4.381 5.271 4.661 5.224 4.544 5.037 4.427 4.804 4.311 4.523M5.607 3.962H3.3639999V3.261H5.607ZM5.607 2.7H3.3639999V2.069H5.607ZM7.044-.666C6.834-.829 6.647-.993 6.483-1.157 6.296-.9 6.121-.661 5.958-.438 5.794-.216 5.572 .046 5.292 .351 5.455 .467 5.63 .607 5.818 .771 6.471 .046 6.88-.433 7.044-.666" fill="#2c292a"/>
<path transform="matrix(1,0,0,-1,157.6239,241.0408)" d="M0 0V1.052C-.538 1.052-.993 1.04-1.367 1.017V1.683C-.97 1.659-.28 1.648 .701 1.648 1.682 1.648 2.406 1.659 2.874 1.683V1.017C2.57 1.04 2.161 1.052 1.647 1.052V0H2.839C2.815-.771 2.804-1.765 2.804-2.98 2.804-4.196 2.815-5.224 2.839-6.066H2.173V-5.435H-.526V-6.171H-1.156C-1.133-5.423-1.121-4.348-1.121-2.945-1.121-1.52-1.133-.538-1.156 0ZM-.526-3.646H2.173V-2.84H1.472C1.215-2.77 1.086-2.595 1.086-2.314V-.526H.526C.526-1.04 .502-1.496 .456-1.893 .409-2.291 .28-2.712 .07-3.156-.094-3.039-.292-2.957-.526-2.91ZM-.105-1.806C-.035-1.444 0-1.017 0-.526H-.526V-2.77C-.315-2.489-.175-2.168-.105-1.806M2.173-4.137H-.52499988V-4.873H2.173ZM1.086 1.052H.525V0H1.086ZM2.173-2.314V-.526H1.612V-1.928C1.612-2.233 1.799-2.361 2.173-2.314M3.224 1.718C3.785 1.695 4.252 1.683 4.626 1.683H6.343C6.32 1.239 6.308 .631 6.308-.14 6.308-.889 6.32-1.473 6.343-1.893H4.1V-5.049C4.1-5.353 4.252-5.505 4.556-5.505H5.677C5.864-5.505 5.987-5.4 6.045-5.189 6.103-4.979 6.133-4.71 6.133-4.383 6.366-4.57 6.624-4.687 6.904-4.733 6.74-5.318 6.606-5.692 6.501-5.855 6.396-6.019 6.179-6.101 5.853-6.101H4.1C3.68-6.101 3.469-5.82 3.469-5.259V-2.454C3.469-2.127 3.457-1.753 3.434-1.332H5.642V1.087C4.474 1.087 3.668 1.075 3.224 1.052Z" fill="#2c292a"/>
<path transform="matrix(1,0,0,-1,169.6697,241.742)" d="M0 0H1.787C2.114 0 2.546 .012 3.084 .035V-.561C2.57-.538 2.138-.526 1.787-.526H-.105L-.175-1.017H2.138C2.114-1.601 2.103-2.092 2.103-2.489V-4.733C2.663-4.733 3.154-4.721 3.575-4.698V-5.224C3.06-5.201 2.581-5.189 2.138-5.189H-2.909C-3.376-5.189-3.843-5.201-4.311-5.224V-4.698C-3.82-4.721-3.329-4.733-2.839-4.733V-2.489C-2.839-2.092-2.851-1.601-2.874-1.017H-.841L-.771-.526H-2.628C-3.049-.526-3.493-.538-3.96-.561V.035C-3.493 .012-3.049 0-2.628 0H-.701C-.678 .187-.666 .362-.666 .526-.433 .479-.152 .456 .175 .456 .105 .292 .047 .14 0 0M2.909 1.367C2.909 1.087 2.92 .841 2.944 .631H-3.61C-3.587 .912-3.575 1.169-3.575 1.402-3.575 1.659-3.587 1.951-3.61 2.279H2.944C2.92 1.951 2.909 1.648 2.909 1.367M-1.577 1.823H-2.909V1.0869999H-1.577ZM1.542-1.508H-2.2779999V-1.9990001H1.542ZM1.542-2.454H-2.2779999V-2.91H1.542ZM1.542-3.436H-2.2779999V-3.7870002H1.542ZM1.542-4.278H-2.2779999V-4.7339999H1.542ZM.315 1.823H-1.0869999V1.0869999H.315ZM2.243 1.823H.87600007V1.0869999H2.243ZM2.243 1.087" fill="#2c292a"/>
<path transform="matrix(1,0,0,-1,142.6168,276.4039)" d="M0 0C.28-.024 .549-.047 .806-.07 .759-.374 .747-.924 .771-1.718H1.787C2.278-1.718 2.815-1.707 3.399-1.683V-2.349C2.792-2.326 2.254-2.314 1.787-2.314H.806C.829-3.203 .981-4.172 1.262-5.224 1.705-4.547 2.056-3.764 2.313-2.875 2.546-3.063 2.815-3.226 3.119-3.366 2.932-3.576 2.721-3.927 2.488-4.418 2.254-4.909 1.951-5.423 1.577-5.961 1.787-6.381 2.015-6.714 2.26-6.96 2.506-7.205 2.675-7.311 2.769-7.275 2.862-7.24 2.955-6.837 3.049-6.066 3.282-6.253 3.527-6.393 3.785-6.487 3.621-7.445 3.44-7.977 3.242-8.082 3.043-8.187 2.804-8.187 2.523-8.082 2.243-7.977 1.98-7.778 1.735-7.486 1.489-7.194 1.285-6.872 1.121-6.522 .561-7.13-.152-7.702-1.016-8.24-1.134-8.029-1.309-7.842-1.542-7.679-1.075-7.468-.625-7.188-.193-6.837 .239-6.487 .561-6.16 .771-5.855 .607-5.412 .467-4.868 .35-4.225 .233-3.582 .163-2.945 .14-2.314H-2.874V-3.541H-.596C-.643-3.962-.678-4.395-.701-4.839L-.806-6.241C-.83-6.685-.952-6.954-1.174-7.048-1.396-7.141-1.776-7.211-2.313-7.258-2.337-7.048-2.43-6.791-2.593-6.487-2.01-6.51-1.671-6.475-1.577-6.381-1.484-6.288-1.425-6.019-1.402-5.575L-1.332-4.172H-2.874C-2.874-5.084-2.944-5.844-3.084-6.452-3.224-7.06-3.482-7.62-3.855-8.135-4.112-7.947-4.346-7.819-4.556-7.749-4.253-7.375-4.042-7.019-3.925-6.679-3.808-6.341-3.721-5.973-3.662-5.575-3.604-5.178-3.569-4.617-3.557-3.892-3.546-3.168-3.552-2.443-3.575-1.718H.07C.047-1.04 .023-.468 0 0M3.049-1.122C2.839-1.286 2.651-1.45 2.488-1.613 2.208-1.239 1.834-.854 1.367-.456 1.53-.316 1.682-.164 1.822 0 2.289-.374 2.698-.748 3.049-1.122" fill="#2c292a"/>
<path transform="matrix(1,0,0,-1,150.8427,278.2272)" d="M0 0V.701C0 1.075-.012 1.426-.035 1.753H.736C.712 1.496 .701 1.157 .701 .736V0H2.663C3.06 0 3.527 .011 4.065 .035V-.631C3.551-.608 3.095-.596 2.698-.596H1.262C1.589-1.672 2.062-2.519 2.681-3.138 3.3-3.758 3.866-4.172 4.381-4.383 4.17-4.547 3.972-4.768 3.785-5.049 2.99-4.512 2.342-3.898 1.84-3.208 1.337-2.519 .958-1.718 .701-.806V-4.102H1.156C1.53-4.102 1.915-4.091 2.313-4.067V-4.733C1.915-4.71 1.518-4.698 1.121-4.698H.701C.701-5.236 .712-5.785 .736-6.346H-.035C-.012-5.785 0-5.236 0-4.698H-.456C-.83-4.698-1.204-4.71-1.577-4.733V-4.067C-1.204-4.091-.83-4.102-.456-4.102H0V-.877C-.374-1.835-.789-2.642-1.244-3.296-1.7-3.951-2.313-4.605-3.084-5.259-3.271-5.002-3.493-4.816-3.75-4.698-2.979-4.231-2.337-3.646-1.822-2.945-1.309-2.244-.9-1.461-.596-.596H-2.138C-2.512-.596-2.909-.608-3.329-.631V.035C-2.909 .011-2.523 0-2.173 0Z" fill="#2c292a"/>
<path transform="matrix(1,0,0,-1,157.7016,277.8415)" d="M0 0C-.21-.374-.468-.842-.771-1.403-.257-1.379 .117-1.367 .35-1.367 .561-.994 .736-.631 .876-.281 1.109-.444 1.367-.596 1.647-.736 1.53-.83 1.326-1.087 1.034-1.508 .741-1.928 .28-2.618-.35-3.576 .421-3.46 1.028-3.366 1.472-3.296 1.402-3.553 1.367-3.775 1.367-3.962 1.157-3.986 .783-4.032 .245-4.102-.292-4.172-.818-4.278-1.332-4.418-1.425-4.184-1.507-3.951-1.577-3.717-1.297-3.647-1.016-3.431-.736-3.068-.456-2.706-.21-2.326 0-1.928-.164-1.928-.403-1.946-.718-1.981-1.034-2.016-1.309-2.069-1.542-2.139-1.612-1.905-1.682-1.683-1.752-1.473-1.495-1.262-1.221-.9-.929-.386-.637 .128-.409 .689-.245 1.297 .035 1.157 .315 1.028 .596 .912 .409 .678 .21 .374 0 0M1.472-5.645C1.028-5.715 .526-5.797-.035-5.891-.596-5.984-1.075-6.089-1.472-6.206-1.565-5.902-1.659-5.634-1.752-5.4-1.262-5.377-.818-5.336-.421-5.277-.024-5.219 .631-5.119 1.542-4.979 1.472-5.189 1.448-5.412 1.472-5.645M3.645-.035C3.645 .362 3.633 .829 3.61 1.367H4.346C4.322 .947 4.311 .479 4.311-.035H5.327C5.77-.035 6.179-.024 6.553 0V-.631C6.179-.608 5.783-.596 5.362-.596H4.311V-1.753H5.117C5.444-1.753 5.77-1.742 6.098-1.718V-2.349C5.818-2.326 5.479-2.314 5.082-2.314H3.049C2.651-2.314 2.301-2.326 1.998-2.349V-1.718C2.301-1.742 2.628-1.753 2.979-1.753H3.645V-.596H2.874C2.453-.596 2.056-.608 1.682-.631V0C1.986-.024 2.36-.035 2.804-.035ZM5.923-4.208V-5.4C5.923-5.844 5.934-6.229 5.958-6.557H5.257V-5.891H2.874V-6.627H2.173C2.196-6.019 2.208-5.622 2.208-5.435V-4.137C2.208-3.857 2.196-3.541 2.173-3.191H5.958C5.934-3.495 5.923-3.834 5.923-4.208M5.257-3.752H2.874V-5.33H5.257ZM5.257-5.33" fill="#2c292a"/>
<path transform="matrix(1,0,0,-1,167.119,280.2608)" d="M0 0V-2.665C0-3.156 .012-3.658 .035-4.172H-.701C-.678-3.634-.666-3.133-.666-2.665V-.14C-.923-.725-1.309-1.367-1.822-2.069-1.963-1.882-2.126-1.695-2.313-1.508-1.892-1.04-1.548-.52-1.279 .053-1.011 .625-.853 1.087-.806 1.438-1.18 1.438-1.542 1.426-1.892 1.402V2.034C-1.542 2.01-1.134 1.999-.666 1.999V2.805C-.666 3.156-.678 3.471-.701 3.752H.035C.012 3.518 0 3.202 0 2.805V1.999C.303 1.999 .631 2.01 .981 2.034V1.402C.631 1.426 .303 1.438 0 1.438V.07C.187 .163 .373 .268 .561 .386 .794-.035 1.016-.444 1.227-.841 1.016-.935 .806-1.052 .596-1.192 .409-.748 .21-.351 0 0M2.716 3.015C2.611 2.781 2.511 2.548 2.418 2.314H5.888C5.864 1.964 5.841 1.531 5.817 1.017 5.817-.409 5.77-1.742 5.677-2.98 5.584-3.494 5.391-3.816 5.099-3.945 4.807-4.073 4.357-4.16 3.75-4.207 3.703-3.95 3.61-3.682 3.469-3.401 3.96-3.425 4.334-3.413 4.591-3.366 4.848-3.319 4.999-3.015 5.047-2.454 5.14-1.146 5.175 .245 5.152 1.718H2.173C1.963 1.25 1.729 .806 1.472 .386 1.285 .526 1.086 .631 .876 .701 1.227 1.215 1.518 1.765 1.752 2.349 1.986 2.933 2.149 3.448 2.243 3.892 2.523 3.752 2.792 3.658 3.049 3.611 2.932 3.448 2.821 3.249 2.716 3.015M2.576-2.139C2.097-2.209 1.694-2.314 1.367-2.454 1.273-2.174 1.168-1.905 1.051-1.648 1.192-1.601 1.355-1.426 1.542-1.122 1.729-.818 1.88-.508 1.998-.193 2.114 .123 2.231 .502 2.348 .947 2.628 .829 2.897 .701 3.154 .561 3.014 .421 2.809 .088 2.541-.438 2.272-.964 2.056-1.344 1.892-1.578 2.406-1.555 2.967-1.52 3.575-1.473 3.481-1.146 3.364-.795 3.224-.421L3.925-.21C4.065-.608 4.193-.982 4.311-1.332 4.427-1.683 4.509-2.022 4.556-2.349 4.299-2.396 4.053-2.466 3.82-2.56 3.773-2.349 3.726-2.162 3.68-1.999 3.422-2.022 3.054-2.069 2.576-2.139" fill="#2c292a"/>
<path transform="matrix(1,0,0,-1,194.7554,241.1109)" d="M0 0V-4.663C0-5.294 .011-5.808 .035-6.206H-.666C-.666-5.808-.654-5.294-.631-4.663V-1.122C-.911-1.636-1.169-2.046-1.402-2.349-1.519-2.186-1.717-2.022-1.998-1.858-1.507-1.321-1.086-.69-.736 .035-.386 .759-.152 1.402-.035 1.964 .268 1.823 .537 1.73 .771 1.683 .631 1.449 .373 .888 0 0M3.54 1.297C4.17 .198 5.093-.62 6.308-1.157 6.098-1.344 5.923-1.555 5.782-1.788 4.801-1.227 3.948-.386 3.224 .736 2.616-.363 1.822-1.274 .841-1.999 .724-1.835 .561-1.66 .35-1.473 1.214-.912 1.845-.293 2.243 .386 2.64 1.063 2.874 1.578 2.944 1.928 3.317 1.741 3.586 1.624 3.75 1.578ZM2.348-3.769C2.278-4.693 1.81-5.516 .946-6.241 .806-6.031 .619-5.855 .385-5.715 1.25-5.108 1.711-4.377 1.77-3.524 1.828-2.671 1.845-1.999 1.822-1.508 2.126-1.555 2.371-1.578 2.558-1.578 2.488-2.116 2.418-2.846 2.348-3.769M4.766-2.875V-5.084C4.766-5.435 4.778-5.808 4.801-6.206H4.065C4.088-5.808 4.1-5.423 4.1-5.049V-2.665C4.1-2.408 4.088-2.022 4.065-1.508H4.801C4.778-2.022 4.766-2.478 4.766-2.875" fill="#2c292a"/>
<path transform="matrix(1,0,0,-1,203.6821,241.1459)" d="M0 0V-4.628C0-5.119 .011-5.586 .035-6.031H-.701C-.678-5.633-.666-5.201-.666-4.733V-1.122C-.946-1.59-1.204-1.964-1.437-2.244-1.624-1.987-1.799-1.788-1.963-1.648-1.729-1.415-1.408-.964-.999-.298-.59 .368-.269 1.122-.035 1.964 .292 1.8 .572 1.683 .806 1.613 .619 1.402 .35 .865 0 0M2.839 .982V1.893C3.119 1.87 3.434 1.846 3.785 1.823 3.668 1.659 3.598 1.379 3.575 .982H4.871C5.268 .982 5.619 .993 5.923 1.017V.386C5.595 .409 5.245 .421 4.871 .421H3.54L3.469-.351H5.257C5.233-.631 5.222-1.005 5.222-1.473V-5.049C5.689-5.049 6.028-5.038 6.238-5.014V-5.645C5.934-5.621 5.514-5.61 4.976-5.61H1.682C1.144-5.61 .701-5.621 .35-5.645V-5.014C.561-5.038 .888-5.049 1.332-5.049V-1.473C1.332-1.029 1.32-.655 1.297-.351H2.734L2.804 .421H2.173C1.589 .421 1.133 .409 .806 .386V1.017C1.109 .993 1.565 .982 2.173 .982ZM4.591-.841H1.9980002V-1.542H4.591ZM4.591-2.069H1.9980002V-2.7H4.591ZM4.591-3.226H1.9980002V-3.857H4.591ZM4.591-4.383H1.9980002V-5.049H4.591ZM4.591-5.049" fill="#2c292a"/>
<path transform="matrix(1,0,0,-1,216.9543,241.0057)" d="M0 0C.374 0 .841 .012 1.402 .035V-.631C.841-.608 .374-.596 0-.596H-1.857V-2.349H-.456C-.082-2.349 .362-2.338 .876-2.314V-2.98C.362-2.957-.082-2.945-.456-2.945H-1.857V-5.189H.351C.771-5.189 1.262-5.178 1.822-5.154V-5.82C1.262-5.797 .771-5.785 .351-5.785H-6.168V-5.119C-5.607-5.166-5.105-5.189-4.661-5.189H-2.593V-2.945H-3.96C-4.334-2.945-4.778-2.957-5.292-2.98V-2.314C-4.731-2.338-4.287-2.349-3.96-2.349H-2.593V-.596H-4.346C-4.836-.596-5.315-.608-5.782-.631V.035C-5.269 .012-4.778 0-4.311 0ZM-3.294 1.438C-3.061 1.601-2.874 1.753-2.733 1.893-2.243 1.332-1.857 .853-1.577 .456-1.717 .386-1.928 .257-2.208 .07-2.488 .491-2.851 .947-3.294 1.438" fill="#2c292a"/>
<path transform="matrix(1,0,0,-1,222.6219,239.7785)" d="M0 0C-.024-.398-.035-.806-.035-1.227-.035-1.625-.024-2.034 0-2.454H-1.928L-1.998-3.717H-.07C-.094-4.301-.129-4.868-.175-5.417-.222-5.967-.263-6.364-.298-6.609-.333-6.855-.479-7.03-.736-7.135-.993-7.24-1.379-7.316-1.892-7.363-1.916-7.153-2.01-6.895-2.173-6.592-1.636-6.615-1.274-6.592-1.086-6.522-.9-6.452-.795-5.704-.771-4.278H-2.734C-2.663-3.53-2.617-2.735-2.593-1.893H-.701V-.561H-1.577C-1.951-.561-2.325-.573-2.698-.596V.035C-2.325 .012-1.963 0-1.612 0ZM1.016-1.122C1.016-.678 1.004-.164 .981 .421H1.717C1.694-.164 1.682-.666 1.682-1.087V-2.875H3.54C3.983-2.875 4.427-2.864 4.871-2.84V-3.471C4.381-3.448 3.948-3.436 3.575-3.436H2.979C3.142-4.301 3.434-4.985 3.855-5.487 4.276-5.99 4.743-6.37 5.257-6.627 4.999-6.814 4.824-7.013 4.731-7.223 4.147-6.895 3.639-6.399 3.207-5.733 2.774-5.067 2.5-4.301 2.383-3.436H1.682V-6.346C1.915-6.206 2.219-5.996 2.593-5.715L2.804-6.416C2.476-6.604 2.184-6.785 1.927-6.96 1.67-7.135 1.413-7.328 1.156-7.538 1.039-7.351 .899-7.153 .736-6.942 .946-6.779 1.039-6.545 1.016-6.241V-3.436C.642-3.436 .315-3.448 .035-3.471V-2.84C.315-2.864 .642-2.875 1.016-2.875ZM2.558-2.489C2.371-2.279 2.208-2.127 2.068-2.034 2.698-1.403 3.247-.655 3.715 .21 3.901 .07 4.112-.07 4.346-.21 3.761-1.052 3.166-1.812 2.558-2.489" fill="#2c292a"/>
<path transform="matrix(1,0,0,-1,254.8886,209.2991)" d="M0 0C0-.351 .023-.771 .07-1.262H-.666V-.736H-4.276V-1.297H-5.011C-4.988-.806-4.976-.397-4.976-.07V.736C-4.976 .877-4.988 1.087-5.011 1.367-5.175 1.297-5.677 1.134-6.518 .877-6.588 1.157-6.706 1.426-6.869 1.683-6.028 1.8-5.327 1.928-4.766 2.069-4.205 2.209-3.68 2.407-3.189 2.665-3.469 2.805-3.89 3.109-4.451 3.576-4.731 3.296-5.046 3.015-5.397 2.735-5.561 2.968-5.759 3.144-5.993 3.261-5.502 3.564-5.076 3.909-4.714 4.295-4.352 4.681-4.089 5.072-3.925 5.47-3.622 5.329-3.318 5.212-3.014 5.119-3.154 5.025-3.318 4.874-3.504 4.663H-.14C-.398 4.266-.643 3.932-.876 3.664-1.11 3.395-1.472 3.062-1.962 2.665-1.636 2.525-1.197 2.384-.648 2.244-.1 2.104 .607 2.01 1.472 1.964 1.308 1.683 1.203 1.39 1.156 1.087 .712 1.204 .35 1.297 .07 1.367 .023 1.134 0 .888 0 .631ZM1.156 6.206C1.133 5.808 1.121 5.516 1.121 5.329 1.121 5.166 1.133 4.909 1.156 4.558H.421V5.575H-5.712V4.523H-6.483C-6.46 4.756-6.448 4.979-6.448 5.189-6.448 5.4-6.46 5.738-6.483 6.206H-2.944C-3.014 6.439-3.107 6.662-3.224 6.872-2.874 6.942-2.593 7-2.383 7.048-2.22 6.58-2.126 6.299-2.103 6.206ZM-4.941 1.367H0C-.724 1.531-1.268 1.683-1.63 1.823-1.992 1.964-2.325 2.092-2.628 2.209-3.026 2.022-3.411 1.858-3.785 1.718-4.159 1.578-4.544 1.461-4.941 1.367M-.666 .806H-4.276V-.21099997H-.666ZM-4.03 3.997C-3.447 3.506-2.944 3.179-2.523 3.015-2.08 3.342-1.694 3.705-1.367 4.102H-3.96C-3.984 4.079-4.007 4.044-4.03 3.997" fill="#2c292a"/>
<path transform="matrix(1,0,0,-1,264.6914,205.9331)" d="M0 0C0-.701 .012-1.251 .035-1.648H-.736V-1.122H-5.607C-5.701-1.87-5.817-2.431-5.958-2.805-6.098-3.179-6.25-3.512-6.413-3.804-6.577-4.096-6.752-4.371-6.939-4.628-7.173-4.441-7.43-4.301-7.71-4.207-7.243-3.717-6.921-3.255-6.746-2.823-6.571-2.39-6.454-1.981-6.396-1.595-6.338-1.21-6.308-.795-6.308-.351-6.308 .093-6.32 .853-6.343 1.928H.035C.012 1.367 0 .724 0 0M-.771 1.297H-5.6419999V-.49099995H-.771ZM-2.698 2.314C-3.002 2.244-3.236 2.162-3.399 2.069-3.563 2.56-3.75 2.992-3.96 3.366-3.727 3.436-3.504 3.529-3.294 3.647-3.014 3.086-2.816 2.641-2.698 2.314" fill="#2c292a"/>
<path transform="matrix(1,0,0,-1,271.6733,203.54889)" d="M0 0C-.152-.28-.286-.538-.403-.771H.368C.859-.771 1.291-.76 1.665-.736V-1.402C1.361-1.379 .964-1.367 .473-1.367H-1.349V-3.121H.859C1.326-3.121 1.746-3.109 2.12-3.085V-3.752C1.746-3.729 1.349-3.717 .929-3.717H-1.209C-.508-4.909 .66-5.68 2.295-6.031 2.085-6.264 1.898-6.545 1.735-6.872 .263-6.381-.847-5.528-1.595-4.313-1.992-5.342-3.09-6.229-4.889-6.977-4.982-6.743-5.158-6.533-5.414-6.346-3.616-5.855-2.506-4.979-2.085-3.717H-3.943C-4.48-3.717-4.924-3.729-5.274-3.752V-3.121C-5.017-3.144-4.621-3.156-4.083-3.156H-2.015V-1.367H-3.662C-4.106-1.367-4.503-1.379-4.854-1.402V-.736C-4.503-.76-4.095-.771-3.627-.771H-1.104C-.777-.024-.543 .596-.403 1.087-.17 .947 .111 .806 .438 .666 .298 .502 .152 .281 0 0M-2.19-.28C-2.471-.421-2.693-.561-2.856-.701-3.137-.164-3.417 .281-3.697 .631-3.487 .771-3.3 .912-3.137 1.052-2.833 .678-2.518 .233-2.19-.28" fill="#2c292a"/>
<path transform="matrix(1,0,0,-1,276.6399,209.1589)" d="M0 0C-.339-.328-.683-.643-1.034-.947-1.244-.736-1.443-.584-1.63-.491-.976-.094-.368 .467 .193 1.192 .403 1.028 .648 .865 .929 .701 .648 .561 .338 .327 0 0M5.87 6.031C5.169 6.007 4.567 5.966 4.065 5.908 3.563 5.849 2.949 5.785 2.225 5.715 2.342 5.598 2.506 5.493 2.716 5.4 2.412 5.212 2.114 4.996 1.822 4.751 1.53 4.506 1.244 4.278 .964 4.067H2.716C3.3 4.464 3.79 4.827 4.188 5.154 4.421 4.967 4.702 4.804 5.029 4.663 4.702 4.523 4.386 4.371 4.083 4.207 3.779 4.044 3.282 3.746 2.593 3.313 1.904 2.881 1.314 2.525 .824 2.244 2.202 2.314 3.487 2.372 4.678 2.419 4.561 2.536 4.258 2.781 3.767 3.156 4.001 3.249 4.199 3.366 4.363 3.506 4.643 3.296 4.964 3.033 5.327 2.717 5.689 2.402 6.033 2.092 6.361 1.788 6.08 1.624 5.858 1.473 5.695 1.332 5.507 1.566 5.332 1.753 5.169 1.893 4.538 1.87 3.79 1.835 2.926 1.788V-.316C2.926-.759 2.815-1.022 2.593-1.104 2.371-1.186 1.968-1.274 1.384-1.367 1.337-1.087 1.232-.818 1.069-.561 1.606-.561 1.939-.543 2.068-.508 2.196-.473 2.26-.339 2.26-.105V1.788C.835 1.765-.135 1.706-.648 1.613-.718 1.846-.801 2.092-.894 2.349-.38 2.396 .075 2.512 .473 2.7 .87 2.887 1.349 3.167 1.91 3.541 1.372 3.541 .969 3.529 .701 3.506 .432 3.483 .134 3.448-.193 3.401-.263 3.658-.333 3.903-.403 4.137-.006 4.137 .391 4.295 .788 4.611 1.185 4.926 1.489 5.271 1.7 5.645 .391 5.598-.462 5.551-.859 5.505-.929 5.738-1.011 5.949-1.104 6.136 .204 6.136 1.372 6.182 2.401 6.276 3.428 6.369 4.386 6.533 5.274 6.767 5.414 6.533 5.613 6.288 5.87 6.031M5.309 .508C5.683 .239 5.998-.024 6.256-.28 6.068-.444 5.882-.631 5.695-.841 5.391-.514 5.075-.222 4.749 .035 4.421 .292 4.118 .514 3.837 .701 4.048 .865 4.211 1.04 4.328 1.227 4.608 1.017 4.935 .777 5.309 .508" fill="#2c292a"/>
<path transform="matrix(1,0,0,-1,250.9636,240.62)" d="M0 0C-.14-.28-.28-.532-.42-.754-.561-.976-.771-1.274-1.051-1.648-1.332-2.022-1.671-2.408-2.068-2.805-2.278-2.595-2.488-2.431-2.698-2.314-2.231-1.893-1.863-1.508-1.595-1.157-1.326-.806-1.069-.427-.824-.018-.578 .391-.363 .842-.175 1.332 .012 1.192 .245 1.075 .526 .982 .315 .608 .14 .281 0 0M-2.453-6.101C-2.08-5.961-1.741-5.791-1.437-5.592-1.133-5.394-.865-5.149-.631-4.856-.398-4.564-.222-4.243-.105-3.892 .012-3.541 .093-3.109 .14-2.595-.398-2.595-.83-2.607-1.156-2.63V-1.893C-.783-1.917-.304-1.928 .28-1.928H3.785C3.738-2.279 3.703-2.583 3.68-2.84L3.399-5.435C3.352-5.855 3.166-6.136 2.839-6.276 2.511-6.416 2.149-6.498 1.752-6.522 1.729-6.288 1.612-6.019 1.402-5.715 1.892-5.739 2.225-5.721 2.401-5.663 2.576-5.604 2.686-5.4 2.734-5.049L2.979-2.595H.876C.806-3.203 .706-3.711 .578-4.12 .45-4.529 .268-4.886 .035-5.189-.199-5.493-.479-5.774-.806-6.031-1.133-6.288-1.484-6.51-1.857-6.697-2.021-6.439-2.22-6.241-2.453-6.101M3.277-.21C3.779-.841 4.486-1.391 5.397-1.858 5.21-2.022 5.023-2.268 4.836-2.595 4.416-2.291 4.048-2.005 3.732-1.736 3.417-1.467 3.154-1.216 2.944-.982 2.734-.748 2.5-.415 2.243 .018 1.985 .45 1.775 .853 1.612 1.227 1.869 1.297 2.091 1.379 2.278 1.473 2.441 .982 2.774 .421 3.277-.21" fill="#2c292a"/>
<path transform="matrix(1,0,0,-1,256.9465,241.6719)" d="M0 0C.35 .351 .654 .736 .911 1.157 1.168 1.578 1.378 2.01 1.542 2.454 1.869 2.267 2.126 2.139 2.313 2.069 2.009 1.648 1.81 1.344 1.717 1.157 2.301 1.157 2.792 1.169 3.189 1.192V.526C2.792 .549 2.184 .561 1.367 .561 1.016 .093 .747-.234 .561-.421 .397-.234 .21-.094 0 0M2.979-.947C2.675-.924 2.371-.912 2.068-.912V-1.964C2.465-1.964 2.885-1.952 3.329-1.928V-2.56C2.885-2.537 2.465-2.525 2.068-2.525V-4.137C2.278-3.997 2.535-3.764 2.839-3.436 2.909-3.647 3.025-3.857 3.189-4.067 2.955-4.231 2.71-4.412 2.453-4.611 2.196-4.809 1.928-5.06 1.647-5.365 1.53-5.154 1.378-4.967 1.192-4.804 1.332-4.663 1.413-4.453 1.437-4.172V-2.525C1.156-2.525 .818-2.537 .421-2.56V-1.928C.818-1.952 1.156-1.964 1.437-1.964V-.912C1.156-.912 .923-.924 .736-.947V-.316C1.039-.339 1.39-.351 1.787-.351 2.208-.351 2.605-.339 2.979-.316ZM5.011 .596C4.801 .502 4.591 .386 4.381 .245 4.217 .619 3.948 1.075 3.575 1.613 3.808 1.706 4.007 1.823 4.17 1.963 4.544 1.379 4.824 .923 5.011 .596M5.537 1.332C5.537 1.683 5.525 2.057 5.502 2.454H6.203C6.179 2.197 6.168 1.823 6.168 1.332V-.21H7.85C7.827-.561 7.815-1.029 7.815-1.613V-4.663C7.815-4.99 7.704-5.189 7.482-5.259 7.26-5.33 6.962-5.4 6.588-5.47 6.541-5.236 6.436-5.002 6.273-4.769 6.81-4.745 7.091-4.681 7.114-4.576 7.137-4.47 7.149-4.137 7.149-3.576H4.696V-5.365H4.03C4.053-4.874 4.065-4.477 4.065-4.172V-1.683C4.065-1.099 4.053-.608 4.03-.21H5.537ZM7.149-.736H4.696V-1.648H7.149ZM7.149-2.174H4.696V-3.051H7.149ZM7.324 .21C7.114 .327 6.892 .421 6.659 .491 6.915 .794 7.172 1.285 7.43 1.963 7.616 1.846 7.862 1.741 8.166 1.648 7.978 1.414 7.698 .935 7.324 .21" fill="#2c292a"/>
<path transform="matrix(1,0,0,-1,269.6932,247.31699)" d="M0 0C.023 .515 .035 1.32 .035 2.419-.409 1.765-.941 1.268-1.56 .929-2.179 .591-2.757 .304-3.294 .07-3.388 .328-3.563 .55-3.82 .736-3.002 .97-2.354 1.215-1.875 1.473-1.396 1.729-.981 2.08-.631 2.525H-2.383C-2.781 2.525-3.178 2.512-3.575 2.489V3.086C-3.178 3.062-2.781 3.05-2.383 3.05H.035C.035 3.261 .023 3.506 0 3.787H.701C.677 3.529 .666 3.284 .666 3.05H2.944C3.435 3.05 3.878 3.062 4.276 3.086V2.489C3.878 2.512 3.446 2.525 2.979 2.525H1.367C1.857 1.94 2.383 1.543 2.944 1.332 3.505 1.122 4.03 .993 4.521 .947 4.311 .76 4.17 .526 4.1 .245 3.376 .409 2.739 .655 2.19 .982 1.641 1.309 1.133 1.823 .666 2.525 .666 1.355 .677 .515 .701 0ZM-3.399 6.522C-3.283 6.708-3.189 6.884-3.119 7.048-2.582 6.837-2.126 6.615-1.752 6.381-1.916 6.194-2.045 6.007-2.138 5.82-2.488 6.077-2.909 6.311-3.399 6.522M-1.735 4.506C-2.004 4.26-2.36 3.927-2.803 3.506L-3.329 4.032C-2.979 4.243-2.623 4.511-2.26 4.839-1.898 5.166-1.612 5.47-1.402 5.75-1.309 5.493-1.204 5.294-1.086 5.154-1.25 4.967-1.466 4.751-1.735 4.506M-2.628 7.819C-2.488 8.006-2.36 8.17-2.243 8.31-1.706 7.982-1.297 7.69-1.016 7.433-1.204 7.293-1.355 7.141-1.472 6.977-1.682 7.211-2.068 7.491-2.628 7.819M4.03 7.924V7.363C3.586 7.386 3.224 7.398 2.944 7.398H.175V6.767H3.47C3.446 6.463 3.435 6.171 3.435 5.891 3.435 5.633 3.446 5.376 3.47 5.119H.175V4.488H2.839C3.119 4.488 3.481 4.499 3.925 4.523V3.962C3.481 3.985 3.119 3.997 2.839 3.997H-.526C-.503 4.394-.491 5.014-.491 5.855-.491 6.72-.503 7.398-.526 7.889H2.944C3.224 7.889 3.586 7.901 4.03 7.924M2.804 6.241H.17599988V5.61H2.804ZM2.804 5.61" fill="#2c292a"/>
<path transform="matrix(1,0,0,-1,274.9052,242.4433)" d="M0 0C.373-.024 .701-.035 .981-.035H1.717C1.694-.409 1.682-.806 1.682-1.227V-3.191C2.289-3.752 3.317-4.032 4.766-4.032 6.238-4.032 7.359-3.973 8.13-3.857 8.013-4.137 7.92-4.418 7.85-4.698 6.939-4.721 6.15-4.727 5.484-4.716 4.819-4.704 4.263-4.675 3.82-4.628 3.376-4.581 3.014-4.506 2.734-4.4 2.453-4.295 2.167-4.143 1.875-3.945 1.582-3.746 1.343-3.74 1.156-3.927 .969-4.114 .747-4.383 .491-4.733 .28-4.523 .07-4.348-.14-4.207 .21-3.973 .596-3.647 1.016-3.226V-.596C.666-.596 .327-.608 0-.631ZM.561 2.77C.841 2.817 1.086 2.887 1.297 2.98 1.46 2.512 1.612 1.999 1.752 1.438 1.518 1.39 1.273 1.309 1.016 1.192 .923 1.613 .771 2.139 .561 2.77M2.348 2.104C2.698 2.08 3.761 2.069 5.537 2.069 5.724 2.512 5.899 2.968 6.063 3.436 6.366 3.319 6.624 3.226 6.834 3.156 6.67 2.992 6.46 2.63 6.203 2.069 7.114 2.069 7.768 2.08 8.166 2.104V1.473C7.768 1.496 6.88 1.508 5.502 1.508L5.327 .806H7.359C7.336 .245 7.324-.491 7.324-1.402 7.324-2.291 7.336-2.957 7.359-3.401H2.979C3.025-2.887 3.049-2.221 3.049-1.402 3.049-.585 3.037 .152 3.014 .806H4.591L4.766 1.508C3.504 1.508 2.698 1.496 2.348 1.473ZM4.556 2.489C4.369 2.372 4.182 2.244 3.995 2.104 3.831 2.384 3.598 2.7 3.294 3.05 3.457 3.167 3.633 3.296 3.82 3.436 4.123 3.062 4.369 2.746 4.556 2.489M6.659 .245H3.75V-.421H6.659ZM6.659-.947H3.75V-1.613H6.659ZM6.659-2.139H3.75V-2.84H6.659ZM6.659-2.84" fill="#2c292a"/>
<path transform="matrix(1,0,0,-1,313.7762,241.46149)" d="M0 0V-4.102C0-4.453 .012-4.99 .035-5.715H-.736V-5.084H-5.292V-5.68H-6.028C-6.005-5.049-5.993-4.547-5.993-4.172V0C-5.993 .771-6.005 1.414-6.028 1.928H.035C.012 1.25 0 .608 0 0M-.736 1.367H-5.2920005V-.176H-.736ZM-.736-.736H-5.2920005V-2.314H-.736ZM-.736-2.875H-5.2920005V-4.523H-.736ZM-.736-4.523" fill="#2c292a"/>
<path transform="matrix(1,0,0,-1,316.9905,240.23432)" d="M0 0C0 .374-.012 .736-.035 1.087H.666C.642 .759 .631 .397 .631 0V-.841C1.004-.841 1.402-.83 1.822-.806V-1.473C1.402-1.45 1.004-1.438 .631-1.438V-2.63C.794-2.513 .958-2.384 1.121-2.244 1.425-2.735 1.694-3.214 1.928-3.682 1.67-3.799 1.448-3.927 1.262-4.067 1.121-3.6 .911-3.168 .631-2.77V-5.505C.631-5.996 .642-6.487 .666-6.977H-.035C-.012-6.463 0-5.973 0-5.505V-3.226C-.234-3.88-.596-4.512-1.086-5.119-1.227-4.932-1.402-4.757-1.612-4.593-1.215-4.196-.894-3.699-.648-3.103-.403-2.507-.245-1.952-.175-1.438-.619-1.438-1.005-1.461-1.332-1.508V-.806C-.888-.83-.444-.841 0-.841ZM2.734-4.804C2.476-5.412 2.278-5.844 2.138-6.101 1.928-5.984 1.694-5.879 1.437-5.785 1.74-5.318 1.968-4.891 2.12-4.506 2.272-4.12 2.395-3.74 2.488-3.366 2.745-3.483 3.002-3.588 3.259-3.682 3.166-3.822 2.99-4.196 2.734-4.804M5.467-1.788C5.934-1.788 6.343-1.777 6.694-1.753V-2.419C6.343-2.396 5.981-2.384 5.607-2.384H4.521V-5.926C4.521-6.299 4.416-6.545 4.205-6.662 3.995-6.779 3.621-6.872 3.084-6.942 3.037-6.662 2.944-6.393 2.804-6.136 3.271-6.136 3.563-6.118 3.68-6.083 3.796-6.048 3.855-5.914 3.855-5.68V-2.384H2.979C2.395-2.384 1.974-2.408 1.717-2.454V-1.753C2.021-1.777 2.441-1.788 2.979-1.788ZM5.082 .526C5.572 .526 5.969 .537 6.273 .561V-.14C5.829-.094 5.362-.07 4.871-.07H3.154C2.78-.07 2.418-.094 2.068-.14V.561C2.395 .537 2.757 .526 3.154 .526ZM6.904-5.47C6.647-5.587 6.39-5.727 6.133-5.891 5.875-5.213 5.49-4.5 4.977-3.752 5.21-3.635 5.42-3.495 5.607-3.331 6.121-4.126 6.553-4.839 6.904-5.47" fill="#2c292a"/>
<path transform="matrix(1,0,0,-1,331.3143,246.01959)" d="M0 0C0-.351 .023-.771 .07-1.262H-.666V-.736H-4.276V-1.297H-5.011C-4.988-.806-4.976-.397-4.976-.07V.736C-4.976 .877-4.988 1.087-5.011 1.367-5.175 1.297-5.677 1.133-6.518 .877-6.588 1.157-6.706 1.426-6.869 1.683-6.028 1.8-5.327 1.928-4.766 2.069-4.205 2.209-3.68 2.407-3.189 2.665-3.469 2.805-3.89 3.108-4.451 3.576-4.731 3.296-5.046 3.015-5.397 2.735-5.561 2.968-5.759 3.144-5.993 3.261-5.502 3.564-5.076 3.909-4.714 4.295-4.352 4.681-4.089 5.072-3.925 5.47-3.622 5.329-3.318 5.212-3.014 5.119-3.154 5.025-3.318 4.874-3.504 4.663H-.14C-.398 4.266-.643 3.932-.876 3.664-1.11 3.395-1.472 3.062-1.962 2.665-1.636 2.525-1.197 2.384-.648 2.244-.1 2.104 .607 2.01 1.472 1.963 1.308 1.683 1.203 1.39 1.156 1.087 .712 1.204 .35 1.297 .07 1.367 .023 1.133 0 .888 0 .631ZM1.156 6.206C1.133 5.808 1.121 5.516 1.121 5.329 1.121 5.166 1.133 4.909 1.156 4.558H.421V5.575H-5.712V4.523H-6.483C-6.46 4.756-6.448 4.979-6.448 5.189-6.448 5.4-6.46 5.738-6.483 6.206H-2.944C-3.014 6.439-3.107 6.662-3.224 6.872-2.874 6.942-2.593 7-2.383 7.048-2.22 6.58-2.126 6.299-2.103 6.206ZM-4.941 1.367H0C-.724 1.531-1.268 1.683-1.63 1.823-1.992 1.963-2.325 2.092-2.628 2.209-3.026 2.022-3.411 1.858-3.785 1.718-4.159 1.578-4.544 1.461-4.941 1.367M-.666 .806H-4.276V-.21099997H-.666ZM-4.03 3.997C-3.447 3.506-2.944 3.179-2.523 3.015-2.08 3.342-1.694 3.705-1.367 4.102H-3.96C-3.984 4.079-4.007 4.044-4.03 3.997" fill="#2c292a"/>
<path transform="matrix(1,0,0,-1,341.1171,242.6536)" d="M0 0C0-.701 .012-1.251 .035-1.648H-.736V-1.122H-5.607C-5.701-1.87-5.817-2.431-5.958-2.805-6.098-3.179-6.25-3.512-6.413-3.804-6.577-4.096-6.752-4.371-6.939-4.628-7.173-4.441-7.43-4.301-7.71-4.208-7.243-3.717-6.921-3.255-6.746-2.823-6.571-2.39-6.454-1.981-6.396-1.595-6.338-1.21-6.308-.795-6.308-.351-6.308 .093-6.32 .853-6.343 1.928H.035C.012 1.367 0 .724 0 0M-.771 1.297H-5.6419999V-.49099995H-.771ZM-2.698 2.314C-3.002 2.244-3.236 2.162-3.399 2.069-3.563 2.56-3.75 2.992-3.96 3.366-3.727 3.436-3.504 3.529-3.294 3.646-3.014 3.085-2.816 2.641-2.698 2.314" fill="#2c292a"/>
<path transform="matrix(1,0,0,-1,255.2041,283.6916)" d="M0 0V-1.157C.467-1.157 .841-1.145 1.121-1.122V-1.788C.701-1.741 .163-1.718-.491-1.718H-6.063C-6.507-1.718-6.892-1.741-7.219-1.788V-1.122C-6.916-1.145-6.53-1.157-6.063-1.157V-.035C-6.063 .222-6.075 .537-6.098 .912H.035C.012 .654 0 .351 0 0M-3.224 2.91C-3.037 3.191-2.897 3.471-2.804 3.752H-4.521C-4.638 3.331-4.854 2.922-5.169 2.524-5.485 2.127-5.9 1.741-6.413 1.367-6.577 1.578-6.776 1.753-7.009 1.893-6.636 2.08-6.326 2.273-6.08 2.472-5.835 2.67-5.631 2.91-5.467 3.191-5.304 3.471-5.175 3.787-5.082 4.137-4.988 4.488-4.93 4.874-4.906 5.294H-5.327C-5.724 5.294-6.145 5.282-6.588 5.259V5.926C-6.145 5.878-5.724 5.855-5.327 5.855H-.561C-.608 5.621-.654 5.376-.701 5.119-.748 4.862-.783 4.593-.806 4.313H.561C.514 4.079 .467 3.857 .421 3.646L.175 2.069C.128 1.741 .012 1.543-.175 1.473-.363 1.402-.643 1.32-1.016 1.227-1.086 1.484-1.18 1.729-1.297 1.964-.97 1.964-.753 1.975-.648 1.999-.543 2.022-.468 2.15-.42 2.384L-.175 3.752H-1.507C-1.437 4.289-1.367 4.804-1.297 5.294H-4.24C-4.288 4.897-4.334 4.57-4.381 4.313H-1.927C-2.045 3.985-2.155 3.699-2.26 3.454-2.366 3.208-2.512 2.933-2.698 2.63-2.582 2.56-2.395 2.46-2.138 2.332-1.881 2.203-1.659 2.069-1.472 1.928-1.682 1.765-1.857 1.589-1.998 1.402-2.325 1.729-2.698 1.987-3.119 2.174-3.283 2.01-3.487 1.841-3.732 1.665-3.978 1.49-4.253 1.32-4.556 1.157-4.65 1.367-4.836 1.531-5.117 1.648-4.79 1.741-4.509 1.852-4.276 1.981-4.042 2.109-3.832 2.267-3.645 2.454-3.925 2.595-4.229 2.711-4.556 2.805-4.463 2.968-4.358 3.132-4.24 3.296-3.867 3.156-3.528 3.027-3.224 2.91M-4.24 .351H-5.396V-1.1570001H-4.24ZM-2.453 .351H-3.5740002V-1.1570001H-2.453ZM-.666 .351H-1.7870001V-1.1570001H-.666ZM-.666-1.157" fill="#2c292a"/>
<path transform="matrix(1,0,0,-1,261.5374,282.6748)" d="M0 0C-.164-.14-.339-.316-.526-.526-.853-.035-1.192 .397-1.542 .771V-1.823C-1.542-2.384-1.531-2.805-1.507-3.086H-2.278C-2.255-2.781-2.243-2.361-2.243-1.823V.631C-2.5 .14-2.746-.269-2.979-.596-3.213-.924-3.517-1.309-3.89-1.753-4.03-1.52-4.229-1.321-4.486-1.157-3.972-.736-3.511-.205-3.102 .438-2.693 1.081-2.43 1.601-2.313 1.999H-2.979C-3.54 1.999-3.949 1.987-4.205 1.964V2.63C-3.925 2.606-3.517 2.595-2.979 2.595H-2.243V3.962C-2.711 3.868-3.213 3.775-3.75 3.682-3.82 3.915-3.914 4.137-4.03 4.348-3.633 4.371-3.084 4.453-2.383 4.593-1.682 4.733-1.016 4.909-.386 5.119-.269 4.839-.117 4.593 .07 4.383-.398 4.313-.935 4.219-1.542 4.102V2.595H-.946C-.456 2.595-.024 2.606 .35 2.63V1.964C-.024 1.987-.444 1.999-.911 1.999H-1.542V1.578C-1.028 1.11-.514 .584 0 0M1.542 2.489V.28C1.542-.21 1.553-.631 1.577-.982H.806C.829-.561 .841-.14 .841 .28V2.489C.841 2.863 .829 3.237 .806 3.611H1.577C1.553 3.331 1.542 2.957 1.542 2.489M3.154 3.857V-2.279C3.154-2.56 3.043-2.74 2.821-2.823 2.599-2.904 2.208-2.992 1.647-3.086 1.577-2.735 1.495-2.454 1.402-2.244 1.892-2.267 2.19-2.255 2.295-2.209 2.401-2.162 2.453-2.069 2.453-1.928V3.892C2.453 4.219 2.441 4.605 2.418 5.049H3.189C3.166 4.815 3.154 4.418 3.154 3.857" fill="#2c292a"/>
<path transform="matrix(1,0,0,-1,267.9059,281.2723)" d="M0 0V-3.121C0-3.682 .012-4.079 .035-4.313H-.701C-.678-4.055-.666-3.682-.666-3.191V-.421C-.736-.631-.847-.871-.999-1.14-1.151-1.409-1.32-1.718-1.507-2.069-1.647-1.858-1.834-1.683-2.068-1.543-1.694-1.169-1.39-.701-1.156-.14-.923 .421-.771 .888-.701 1.262H-1.016C-1.25 1.262-1.507 1.25-1.787 1.227V1.823C-1.53 1.8-1.332 1.788-1.192 1.788H-.666V2.56C-.666 2.957-.678 3.331-.701 3.682H.035C.012 3.377 0 3.038 0 2.665V1.788C.374 1.788 .701 1.8 .981 1.823V1.227C.677 1.25 .35 1.262 0 1.262V.07C.163 .163 .315 .257 .456 .351 .596 .117 .73-.094 .859-.28 .987-.468 1.109-.655 1.227-.841 1.016-.982 .841-1.111 .701-1.227 .561-.924 .327-.514 0 0M5.607 .281C5.607-.351 5.619-.818 5.642-1.122H3.785C3.761-1.379 3.738-1.625 3.715-1.858H4.977C5.467-1.858 5.841-1.847 6.098-1.823V-2.384C5.818-2.361 5.444-2.349 4.977-2.349H4.24C4.591-2.794 4.935-3.127 5.274-3.348 5.613-3.57 5.969-3.728 6.343-3.822 6.133-3.985 5.969-4.184 5.853-4.418 5.315-4.207 4.854-3.903 4.468-3.506 4.083-3.109 3.82-2.758 3.68-2.454H3.575C3.364-2.922 3.043-3.313 2.611-3.629 2.178-3.945 1.682-4.207 1.122-4.418 1.004-4.184 .841-3.985 .631-3.822 1.238-3.705 1.74-3.518 2.138-3.261 2.535-3.004 2.804-2.7 2.944-2.349H2.313C1.822-2.349 1.39-2.361 1.016-2.384V-1.823C1.39-1.847 1.834-1.858 2.348-1.858H3.084C3.131-1.601 3.154-1.356 3.154-1.122H1.507C1.53-.795 1.542-.339 1.542 .245 1.542 .853 1.53 1.309 1.507 1.613H5.642C5.619 1.355 5.607 .912 5.607 .281M2.383 2.489H2.103C1.659 2.489 1.308 2.477 1.051 2.454V3.015C1.308 2.992 1.647 2.98 2.068 2.98H2.383C2.383 3.307 2.371 3.576 2.348 3.787H3.014C2.99 3.576 2.979 3.307 2.979 2.98H4.03C4.03 3.284 4.018 3.541 3.995 3.752H4.696C4.673 3.494 4.661 3.237 4.661 2.98H5.187C5.444 2.98 5.712 2.992 5.993 3.015V2.454C5.712 2.477 5.444 2.489 5.187 2.489H4.661V1.858H4.03V2.489H2.979V1.893H2.383ZM5.046 1.122H2.137V.491H5.046ZM5.046 0H2.137V-.631H5.046ZM5.046-.631" fill="#2c292a"/>
<path transform="matrix(1,0,0,-1,279.1106,279.3438)" d="M0 0C-.047 .818-.082 1.438-.105 1.858 .035 1.835 .338 1.811 .806 1.788 .759 1.624 .747 1.028 .771 0H2.173C2.616 0 3.072 .011 3.54 .035V-.666C3.119-.643 2.675-.631 2.208-.631H.806C.876-1.239 .975-1.806 1.104-2.332 1.232-2.858 1.402-3.355 1.612-3.822 1.822-4.29 2.097-4.704 2.436-5.067 2.774-5.429 2.979-5.447 3.049-5.119 3.119-4.792 3.142-4.465 3.119-4.137 3.329-4.301 3.621-4.453 3.995-4.593 3.831-5.598 3.592-6.136 3.277-6.206 2.961-6.276 2.646-6.2 2.33-5.978 2.015-5.756 1.717-5.435 1.437-5.014 1.156-4.593 .929-4.132 .753-3.629 .578-3.127 .432-2.607 .315-2.069 .198-1.531 .117-1.052 .07-.631H-2.488C-3.166-.631-3.715-.643-4.135-.666V.035C-3.692 .011-3.154 0-2.523 0ZM-1.472-1.858C-1.028-1.858-.608-1.847-.21-1.823V-2.489C-.631-2.466-1.075-2.454-1.542-2.454V-4.663C-1.051-4.547-.491-4.406 .14-4.243V-4.874C-.701-5.038-1.367-5.195-1.857-5.347-2.348-5.499-2.944-5.715-3.645-5.996L-3.995-5.154C-3.715-5.131-3.131-5.026-2.243-4.839V-2.454C-2.921-2.454-3.388-2.466-3.645-2.489V-1.823C-3.388-1.847-3.026-1.858-2.558-1.858ZM2.909 .561C2.791 .514 2.57 .374 2.243 .14 2.079 .421 1.787 .771 1.367 1.192 1.483 1.285 1.682 1.438 1.962 1.648 2.406 1.157 2.721 .794 2.909 .561" fill="#2c292a"/>
</g>
<path transform="matrix(1,0,0,-1,127.3868,272.8939)" d="M0 0 1.015 1.133 2.029 2.266 3.28-.897ZM-18.417 19.23 1.919 1.003 1.243 .248-19.094 18.474Z" fill="#2c292a"/>
<path transform="matrix(1,0,0,-1,195.4939,256.0262)" d="M0 0 1.015-1.133 2.029-2.266 3.28 .897ZM1.243-.248-14.004-13.912-13.327-14.668 1.919-1.003Z" fill="#2c292a"/>
<path transform="matrix(1,0,0,-1,227.7549,256.0262)" d="M0 0-1.015-1.133-2.029-2.266-3.28 .897ZM-1.243-.248 13.345-13.322 12.668-14.077-1.919-1.003Z" fill="#2c292a"/>
<path transform="matrix(1,0,0,-1,286.4821,268.37123)" d="M0 0-1.015 1.133-2.029 2.266-3.28-.897ZM13.371 14.707-1.919 1.003-1.243 .248 14.048 13.952Z" fill="#2c292a"/>
<g clip-path="url(#clip_5)">
<path transform="matrix(1,0,0,-1,129.3992,225.5859)" d="M0 0C0-.01-.002-.018-.006-.025-.01-.032-.018-.038-.028-.042-.038-.046-.051-.049-.068-.052-.084-.054-.105-.055-.128-.055-.153-.055-.174-.054-.191-.052-.207-.049-.221-.046-.232-.042-.242-.038-.25-.032-.255-.025-.26-.018-.262-.01-.262 0V.212C-.346 .121-.434 .049-.525-.002-.616-.053-.715-.078-.823-.078-.941-.078-1.041-.056-1.124-.01-1.208 .036-1.275 .098-1.327 .176-1.378 .253-1.416 .345-1.44 .45-1.464 .555-1.475 .666-1.475 .783-1.475 .921-1.461 1.045-1.431 1.156-1.401 1.267-1.357 1.362-1.299 1.441-1.241 1.519-1.169 1.579-1.083 1.621-.996 1.664-.897 1.685-.784 1.685-.69 1.685-.604 1.664-.527 1.623-.449 1.582-.372 1.522-.296 1.442V2.375C-.296 2.383-.294 2.391-.29 2.399-.285 2.407-.277 2.412-.266 2.417-.254 2.421-.239 2.424-.22 2.427-.202 2.43-.178 2.432-.15 2.432-.12 2.432-.096 2.43-.077 2.427-.058 2.424-.043 2.421-.032 2.417-.021 2.412-.013 2.407-.008 2.399-.003 2.391 0 2.383 0 2.375ZM-.296 1.129C-.375 1.227-.452 1.302-.527 1.354-.601 1.406-.678 1.432-.759 1.432-.834 1.432-.897 1.414-.95 1.378-1.002 1.342-1.045 1.296-1.077 1.237-1.11 1.179-1.134 1.113-1.148 1.039-1.163 .966-1.171 .891-1.171 .815-1.171 .734-1.164 .655-1.152 .578-1.14 .5-1.118 .432-1.087 .372-1.056 .312-1.015 .264-.964 .227-.913 .191-.849 .173-.772 .173-.732 .173-.695 .178-.658 .189-.622 .2-.585 .217-.547 .242-.509 .267-.469 .3-.428 .34-.386 .379-.342 .428-.296 .487Z" fill="#ffffff"/>
<path transform="matrix(1,0,0,-1,143.0525,205.6568)" d="M0 0C.677-.818 1.227-1.379 1.647-1.683 2.068-1.987 2.453-2.221 2.804-2.384 3.154-2.548 3.492-2.677 3.82-2.77 3.586-3.027 3.434-3.273 3.364-3.506 2.897-3.296 2.476-3.074 2.103-2.84 1.729-2.607 1.349-2.309 .964-1.946 .578-1.584 .14-1.087-.35-.456-.795-1.087-1.233-1.607-1.665-2.016-2.097-2.425-2.465-2.747-2.769-2.98-3.072-3.214-3.411-3.448-3.785-3.682-3.832-3.588-4.019-3.401-4.346-3.121-3.855-2.887-3.388-2.607-2.944-2.279-2.5-1.952-2.056-1.537-1.612-1.034-1.169-.532-.806 .012-.526 .596-.269 .432-.035 .304 .175 .21ZM2.313-5.82C2.313-6.662 2.324-7.211 2.348-7.468H1.612V-6.802H-2.278V-7.573H-2.979C-2.956-7.293-2.944-6.755-2.944-5.961-2.944-5.143-2.956-4.558-2.979-4.207H2.348C2.324-4.441 2.313-4.979 2.313-5.82M.771-2.77C1.144-2.77 1.472-2.758 1.752-2.735V-3.401C1.448-3.378 1.133-3.366 .806-3.366H-1.157C-1.647-3.366-2.045-3.378-2.348-3.401V-2.735C-1.905-2.758-1.507-2.77-1.157-2.77ZM1.612-4.768H-2.278V-6.241H1.612ZM1.612-6.241" fill="#2c292a"/>
<path transform="matrix(1,0,0,-1,149.6662,207.23459)" d="M0 0V-4.523C0-5.154 .012-5.622 .035-5.926H-.701C-.678-5.505-.666-5.038-.666-4.523V-1.122C-.83-1.402-1.134-1.823-1.577-2.384-1.671-2.244-1.846-2.092-2.103-1.928-1.589-1.391-1.128-.725-.718 .07-.31 .865-.07 1.473 0 1.893 .233 1.776 .502 1.659 .806 1.543 .619 1.309 .35 .794 0 0M3.592 .982C3.58 .561 3.569-.012 3.557-.736 3.545-1.461 3.732-2.262 4.118-3.138 4.503-4.015 5.163-4.792 6.098-5.47 5.911-5.54 5.712-5.738 5.502-6.066 4.404-5.201 3.656-4.044 3.259-2.595 2.862-3.904 2.138-5.038 1.086-5.996 .899-5.738 .712-5.563 .526-5.47 1.343-4.862 1.945-4.097 2.331-3.173 2.716-2.25 2.909-1.274 2.909-.245 2.909 .806 2.897 1.554 2.874 1.999 3.154 1.951 3.422 1.928 3.68 1.928 3.633 1.718 3.604 1.402 3.592 .982M1.77-.771C1.665-1.262 1.565-1.66 1.472-1.964 1.285-1.917 1.051-1.87 .771-1.823 1.074-.795 1.25-.035 1.297 .456 1.483 .409 1.74 .351 2.068 .28 1.974 .07 1.875-.281 1.77-.771M5.257-.877 4.906-1.964C4.673-1.847 4.451-1.765 4.24-1.718 4.591-.806 4.813-.094 4.906 .421 5.093 .327 5.35 .245 5.677 .175 5.56-.059 5.42-.409 5.257-.877" fill="#2c292a"/>
<path transform="matrix(1,0,0,-1,158.5929,207.23459)" d="M0 0V-4.523C0-5.154 .012-5.622 .035-5.926H-.701C-.678-5.505-.666-5.038-.666-4.523V-1.122C-.83-1.402-1.134-1.823-1.577-2.384-1.671-2.244-1.846-2.092-2.103-1.928-1.589-1.391-1.127-.725-.718 .07-.31 .865-.07 1.473 0 1.893 .233 1.776 .502 1.659 .806 1.543 .619 1.309 .35 .794 0 0M3.592 .982C3.58 .561 3.569-.012 3.557-.736 3.545-1.461 3.732-2.262 4.118-3.138 4.503-4.015 5.163-4.792 6.098-5.47 5.911-5.54 5.712-5.738 5.502-6.066 4.404-5.201 3.656-4.044 3.259-2.595 2.862-3.904 2.138-5.038 1.086-5.996 .899-5.738 .712-5.563 .526-5.47 1.343-4.862 1.945-4.097 2.331-3.173 2.716-2.25 2.909-1.274 2.909-.245 2.909 .806 2.897 1.554 2.874 1.999 3.154 1.951 3.422 1.928 3.68 1.928 3.633 1.718 3.604 1.402 3.592 .982M1.77-.771C1.665-1.262 1.565-1.66 1.472-1.964 1.285-1.917 1.051-1.87 .771-1.823 1.074-.795 1.25-.035 1.297 .456 1.483 .409 1.74 .351 2.068 .28 1.974 .07 1.875-.281 1.77-.771M5.257-.877 4.906-1.964C4.673-1.847 4.451-1.765 4.24-1.718 4.591-.806 4.813-.094 4.906 .421 5.093 .327 5.35 .245 5.677 .175 5.56-.059 5.42-.409 5.257-.877" fill="#2c292a"/>
<path transform="matrix(1,0,0,-1,167.7825,206.1301)" d="M0 0C-.129-.269-.275-.591-.438-.964V-5.347C-.438-6.072-.427-6.679-.403-7.17H-1.139C-1.116-6.656-1.104-6.048-1.104-5.347V-2.191C-1.384-2.659-1.665-3.068-1.945-3.419-2.039-3.255-2.19-3.068-2.401-2.858-2.074-2.531-1.717-2.022-1.332-1.332-.946-.643-.637 .123-.403 .964-.193 .847 .064 .73 .368 .614 .251 .473 .128 .268 0 0M2.576-2.226V.018C2.576 .391 2.564 .672 2.541 .859H3.277C3.253 .649 3.242 .356 3.242-.018V-2.226H4.258C4.679-2.226 5.076-2.215 5.45-2.191V-2.823C5.029-2.799 4.608-2.787 4.188-2.787H3.242V-4.155H4.608C5.099-4.155 5.496-4.143 5.8-4.12V-4.751C5.543-4.728 5.134-4.716 4.573-4.716H3.242V-5.873C3.242-6.387 3.253-6.82 3.277-7.17H2.541C2.564-6.82 2.576-6.375 2.576-5.838V-4.716H1.174C.706-4.716 .309-4.728-.018-4.751V-4.12C.309-4.143 .73-4.155 1.244-4.155H2.576V-2.787H1.524C1.034-2.787 .613-2.799 .263-2.823V-2.191C.66-2.215 1.08-2.226 1.524-2.226ZM2.015-1.315C1.875-1.409 1.676-1.537 1.419-1.701 1.139-1.069 .824-.532 .473-.088 .636 .005 .812 .134 .999 .298 1.419-.263 1.758-.801 2.015-1.315M4.819 .368C4.982 .228 5.204 .088 5.485-.053 5.367-.193 5.227-.392 5.064-.649 4.9-.906 4.667-1.268 4.363-1.736 4.153-1.549 3.966-1.42 3.802-1.35 4.153-.906 4.491-.333 4.819 .368" fill="#2c292a"/>
</g>
<path transform="matrix(1,0,0,-1,127.5883,215.957)" d="M0 0 1.015-1.133 2.029-2.266 3.28 .897ZM-18.418-19.23 1.919-1.003 1.243-.248-19.094-18.474Z" fill="#2c292a"/>
<path transform="matrix(1,0,0,-1,154.3582,231.1549)" d="M0 0H1.521 3.041L1.521-3.043ZM2.027-.761H1.0129999V11.832001H2.027Z" fill="#2c292a"/>
<path transform="matrix(1,0,0,-1,154.3582,267.6674)" d="M0 0H1.521 3.041L1.521-3.043ZM2.027-.761H1.0129999V13.185H2.027Z" fill="#2c292a"/>
<path transform="matrix(1,0,0,-1,129.0465,244.94199)" d="M0 0V1.521 3.043L3.041 1.521ZM-4.528 2.028H.7600002V1.014H-4.528Z" fill="#2c292a"/>
<path transform="matrix(1,0,0,-1,184.5045,244.94199)" d="M0 0V1.521 3.043L3.041 1.521ZM-3.757 2.028H.76100018V1.014H-3.757Z" fill="#2c292a"/>
<path transform="matrix(1,0,0,-1,195.1033,232.85352)" d="M0 0 1.015 1.133 2.029 2.266 3.28-.897ZM1.243 .248-13.459 13.424-12.783 14.18 1.919 1.003Z" fill="#2c292a"/>
<path transform="matrix(1,0,0,-1,237.4816,220.05109)" d="M0 0 1.015-1.133 2.029-2.266 3.28 .897ZM-12.668-14.077 1.919-1.003 1.243-.248-13.345-13.322Z" fill="#2c292a"/>
<path transform="matrix(1,0,0,-1,239.0708,244.94199)" d="M0 0V1.521 3.043L3.041 1.521ZM-4.258 2.028H.7600002V1.014H-4.258Z" fill="#2c292a"/>
<path transform="matrix(1,0,0,-1,295.5698,244.94199)" d="M0 0V1.521 3.043L3.041 1.521ZM-4.798 2.028H.76100018V1.014H-4.798Z" fill="#2c292a"/>
<path transform="matrix(1,0,0,-1,299.1157,234.9797)" d="M0 0 1.015 1.133 2.029 2.266 3.28-.897ZM1.243 .248-12.737 12.777-12.061 13.533 1.919 1.003Z" fill="#2c292a"/>
<path transform="matrix(1,0,0,-1,264.0301,231.1702)" d="M0 0H1.521 3.041L1.521-3.043ZM2.027-.761H1.0129999V13.741H2.027Z" fill="#2c292a"/>
<path transform="matrix(1,0,0,-1,264.0301,267.4122)" d="M0 0H1.521 3.041L1.521-3.043ZM2.027-.761H1.0129999V13.269H2.027Z" fill="#2c292a"/>
<path transform="matrix(1,0,0,-1,0,595.276)" d="M101.878 412.916H144.303V400.593H101.878Z" fill="#ffffff"/>
<g clip-path="url(#clip_6)">
<path transform="matrix(1,0,0,-1,109.7997,185.4685)" d="M0 0C-.374 .023-.806 .035-1.297 .035L-.946-.666C-1.227-.736-1.472-.818-1.682-.912-1.752-.585-1.846-.269-1.963 .035H-2.418C-2.628-.222-2.81-.427-2.961-.579-3.114-.731-3.294-.889-3.505-1.052-3.645-.865-3.855-.701-4.135-.561-3.645-.234-3.271 .093-3.014 .421-2.757 .748-2.57 1.087-2.453 1.438-2.243 1.344-1.951 1.25-1.577 1.157-1.741 .993-1.892 .806-2.033 .596H-.876C-.596 .596-.304 .608 0 .631ZM.421-1.297H3.855C3.831-1.625 3.82-1.87 3.82-2.034 3.82-2.174 3.831-2.384 3.855-2.665H3.084V-1.858H-3.259V-2.7H-4.03C-4.007-2.489-3.995-2.279-3.995-2.069-3.995-1.858-4.007-1.601-4.03-1.297H-.386C-.456-1.11-.573-.877-.736-.596-.503-.549-.28-.456-.07-.316 .21-.854 .373-1.181 .421-1.297M2.383-3.261C2.383-3.425 2.395-3.682 2.418-4.032H-1.892V-4.628H2.769C2.745-5.143 2.734-5.528 2.734-5.785 2.734-6.019 2.745-6.346 2.769-6.767H2.068V-6.416H-1.892V-6.872H-2.628C-2.605-6.264-2.593-5.903-2.593-5.785V-3.576C-2.593-3.179-2.605-2.793-2.628-2.419H2.418C2.395-2.793 2.383-3.074 2.383-3.261M1.717-2.945H-1.8929999V-3.506H1.717ZM2.068-5.189H-1.892V-5.8900005H2.068ZM2.348-.947C2.278-.62 2.173-.293 2.033 .035H1.367C1.156-.293 .981-.561 .841-.771 .584-.631 .35-.503 .14-.386 .421-.129 .642 .146 .806 .438 .969 .73 1.098 1.052 1.192 1.402 1.448 1.309 1.74 1.227 2.068 1.157 1.88 .993 1.74 .806 1.647 .596H3.014C3.224 .596 3.563 .608 4.03 .631V0C3.68 .023 3.236 .035 2.698 .035L3.049-.666Z" fill="#2c292a"/>
<path transform="matrix(1,0,0,-1,116.6237,185.11789)" d="M0 0C.257 0 .537 .012 .841 .035V-.631C.514-.608 .233-.596 0-.596H-.315V-2.489C.012-2.489 .338-2.478 .666-2.454V-3.121C.338-3.098 .012-3.086-.315-3.086V-5.329C.128-5.166 .502-5.014 .806-4.874 .853-5.108 .899-5.306 .946-5.47 .502-5.61 .005-5.791-.543-6.013-1.092-6.236-1.519-6.439-1.822-6.627-1.916-6.393-2.021-6.148-2.138-5.891-1.834-5.844-1.437-5.715-.946-5.505V-3.086C-1.367-3.086-1.729-3.098-2.033-3.121V-2.454C-1.706-2.478-1.344-2.489-.946-2.489V-.596H-1.367C-1.577-.596-1.834-.608-2.138-.631V.035C-1.834 .012-1.577 0-1.367 0ZM5.677-1.543C5.677-2.548 5.689-3.273 5.712-3.717H3.785V-4.769H4.836C5.257-4.769 5.584-4.757 5.817-4.733V-5.365C5.56-5.342 5.233-5.329 4.836-5.329H3.785V-6.522H5.046C5.49-6.522 5.864-6.51 6.168-6.487V-7.118C5.864-7.094 5.502-7.083 5.082-7.083H1.682C1.308-7.083 .981-7.094 .701-7.118V-6.487C1.004-6.51 1.332-6.522 1.682-6.522H3.119V-5.329H1.963C1.659-5.329 1.39-5.342 1.156-5.365V-4.733C1.39-4.757 1.659-4.769 1.963-4.769H3.119V-3.717H1.227C1.25-3.366 1.262-2.653 1.262-1.578 1.262-.503 1.25 .175 1.227 .456H5.712C5.689 .152 5.677-.514 5.677-1.543M3.119-.105H1.9269999V-1.367H3.119ZM3.119-1.893H1.9269999V-3.155H3.119ZM5.011-.105H3.7840002V-1.367H5.011ZM5.011-1.893H3.7840002V-3.155H5.011ZM5.011-3.156" fill="#2c292a"/>
<path transform="matrix(1,0,0,-1,127.3026,188.9748)" d="M0 0C0 .187-.012 .491-.035 .912H.666C.642 .467 .631 .163 .631 0H3.049C3.399 0 3.808 .012 4.276 .035V-.596C3.808-.549 3.399-.526 3.049-.526H1.262C1.565-.9 1.88-1.192 2.208-1.402 2.535-1.613 2.879-1.788 3.242-1.928 3.604-2.069 3.972-2.174 4.346-2.244 4.112-2.525 3.96-2.758 3.89-2.945 3.446-2.781 3.06-2.618 2.734-2.454 2.406-2.291 2.044-2.051 1.647-1.736 1.25-1.42 .911-1.04 .631-.596V-2.384C.631-2.618 .642-2.945 .666-3.366H-.035C-.012-2.968 0-2.641 0-2.384V-.666C-.14-.877-.333-1.099-.578-1.332-.824-1.566-1.086-1.783-1.367-1.981-1.647-2.18-1.951-2.367-2.278-2.542-2.605-2.717-2.932-2.887-3.259-3.05-3.376-2.84-3.54-2.618-3.75-2.384-3.423-2.314-3.131-2.221-2.874-2.104-2.617-1.987-2.36-1.858-2.103-1.718-1.846-1.578-1.583-1.397-1.314-1.175-1.046-.953-.841-.736-.701-.526H-2.418C-2.746-.526-3.119-.549-3.54-.596V.035C-3.119 .012-2.746 0-2.418 0ZM-1.297 4.278C-1.32 4.114-1.332 3.962-1.332 3.822H.386C.362 3.634 .344 3.336 .333 2.928 .321 2.518 .309 2.127 .298 1.753 .286 1.379 .158 1.14-.088 1.034-.333 .929-.619 .841-.946 .771-1.016 1.005-1.145 1.25-1.332 1.508-.748 1.508-.433 1.613-.385 1.823-.339 2.034-.315 2.512-.315 3.261H-1.402C-1.425 2.887-1.524 2.448-1.7 1.946-1.875 1.443-2.337 .947-3.084 .456-3.248 .666-3.434 .841-3.645 .982-2.991 1.309-2.57 1.683-2.383 2.104-2.196 2.525-2.091 2.91-2.068 3.261H-2.348C-2.605 3.261-2.897 3.249-3.224 3.226V3.857C-2.944 3.833-2.652 3.822-2.348 3.822H-1.998C-1.975 4.195-1.963 4.511-1.963 4.768L-1.156 4.663C-1.227 4.57-1.274 4.441-1.297 4.278M3.715 2.595C3.715 2.08 3.726 1.566 3.75 1.052H1.051C1.074 1.566 1.086 2.069 1.086 2.56 1.086 3.073 1.074 3.541 1.051 3.962H3.75C3.726 3.588 3.715 3.132 3.715 2.595M3.084 3.401H1.6820002V1.613H3.084ZM3.084 1.613" fill="#2c292a"/>
<path transform="matrix(1,0,0,-1,134.5822,187.99301)" d="M0 0V-2.665C0-3.156 .012-3.658 .035-4.172H-.701C-.678-3.634-.666-3.133-.666-2.665V-.14C-.923-.725-1.309-1.367-1.822-2.069-1.963-1.882-2.126-1.695-2.313-1.508-1.892-1.04-1.548-.52-1.279 .053-1.011 .625-.853 1.087-.806 1.438-1.18 1.438-1.542 1.426-1.892 1.403V2.034C-1.542 2.01-1.134 1.999-.666 1.999V2.805C-.666 3.156-.678 3.471-.701 3.752H.035C.012 3.518 0 3.202 0 2.805V1.999C.303 1.999 .631 2.01 .981 2.034V1.403C.631 1.426 .303 1.438 0 1.438V.07C.187 .163 .373 .268 .561 .386 .794-.035 1.016-.444 1.227-.841 1.016-.935 .806-1.052 .596-1.192 .408-.748 .21-.351 0 0M2.716 3.015C2.611 2.781 2.511 2.548 2.418 2.314H5.888C5.864 1.964 5.84 1.531 5.817 1.017 5.817-.409 5.77-1.742 5.677-2.98 5.584-3.494 5.391-3.816 5.099-3.945 4.807-4.073 4.357-4.16 3.75-4.207 3.703-3.95 3.61-3.682 3.469-3.401 3.96-3.425 4.334-3.413 4.591-3.366 4.848-3.319 4.999-3.015 5.047-2.454 5.14-1.146 5.175 .245 5.152 1.718H2.173C1.963 1.25 1.729 .806 1.472 .386 1.285 .526 1.086 .631 .876 .701 1.227 1.215 1.518 1.765 1.752 2.349 1.986 2.933 2.149 3.448 2.243 3.892 2.523 3.752 2.792 3.658 3.049 3.611 2.932 3.448 2.821 3.249 2.716 3.015M2.576-2.139C2.097-2.209 1.694-2.314 1.367-2.454 1.273-2.174 1.168-1.905 1.051-1.648 1.192-1.601 1.355-1.426 1.542-1.122 1.729-.818 1.88-.508 1.998-.193 2.114 .123 2.231 .502 2.348 .947 2.628 .829 2.897 .701 3.154 .561 3.014 .421 2.809 .088 2.541-.438 2.272-.964 2.056-1.344 1.892-1.578 2.406-1.555 2.967-1.52 3.575-1.473 3.481-1.146 3.364-.795 3.224-.421L3.925-.21C4.065-.608 4.193-.982 4.311-1.332 4.427-1.683 4.509-2.022 4.556-2.349 4.298-2.396 4.053-2.466 3.82-2.56 3.773-2.349 3.726-2.162 3.68-1.999 3.422-2.022 3.054-2.069 2.576-2.139" fill="#2c292a"/>
<path transform="matrix(1,0,0,-1,213.371,225.58951)" d="M0 0C0-.009-.002-.018-.006-.025-.011-.032-.018-.038-.028-.042-.038-.046-.051-.049-.068-.052-.084-.054-.105-.055-.128-.055-.153-.055-.174-.054-.191-.052-.207-.049-.221-.046-.232-.042-.242-.038-.25-.032-.255-.025-.26-.018-.262-.009-.262 0V.212C-.346 .121-.434 .049-.525-.002-.616-.053-.715-.078-.823-.078-.941-.078-1.041-.056-1.125-.01-1.208 .036-1.275 .098-1.327 .176-1.378 .253-1.416 .345-1.44 .45-1.464 .555-1.476 .666-1.476 .783-1.476 .921-1.461 1.045-1.431 1.156-1.401 1.267-1.357 1.362-1.299 1.441-1.241 1.519-1.169 1.579-1.083 1.621-.996 1.664-.897 1.685-.784 1.685-.69 1.685-.605 1.664-.527 1.623-.449 1.582-.372 1.522-.296 1.442V2.375C-.296 2.383-.294 2.391-.29 2.399-.286 2.407-.278 2.412-.266 2.417-.254 2.421-.239 2.424-.22 2.427-.202 2.43-.178 2.432-.15 2.432-.12 2.432-.096 2.43-.077 2.427-.058 2.424-.043 2.421-.032 2.417-.021 2.412-.013 2.407-.008 2.399-.003 2.391 0 2.383 0 2.375ZM-.296 1.129C-.375 1.227-.452 1.302-.527 1.354-.601 1.406-.678 1.432-.759 1.432-.834 1.432-.898 1.414-.95 1.378-1.002 1.342-1.045 1.296-1.077 1.237-1.11 1.179-1.134 1.113-1.149 1.039-1.163 .966-1.171 .891-1.171 .815-1.171 .734-1.165 .655-1.152 .578-1.14 .5-1.118 .432-1.087 .372-1.056 .312-1.015 .264-.964 .227-.913 .191-.849 .173-.772 .173-.732 .173-.695 .178-.658 .189-.622 .2-.585 .217-.547 .242-.509 .267-.469 .3-.428 .34-.386 .379-.342 .428-.296 .487Z" fill="#ffffff"/>
</g>
<path transform="matrix(1,0,0,-1,0,595.276)" d="M191.594 412.916H234.019V400.593H191.594Z" fill="#ffffff"/>
<g clip-path="url(#clip_7)">
<path transform="matrix(1,0,0,-1,198.6694,186.88849)" d="M0 0C-.152-.269-.286-.52-.403-.754H.683C1.174-.754 1.501-.742 1.665-.719V-1.42C1.477-1.397 1.174-1.385 .753-1.385H-4.538C-4.538-3.232-4.982-4.587-5.87-5.452-5.964-5.265-6.139-5.09-6.396-4.926-5.788-4.249-5.438-3.541-5.344-2.805-5.251-2.069-5.228-1.385-5.274-.754H-1.139C-.836-.123-.613 .461-.473 .999-.17 .859 .123 .73 .403 .614 .286 .473 .152 .268 0 0M-1.489 1.701H.263C.683 1.701 1.08 1.712 1.454 1.736V1.069C1.08 1.092 .718 1.104 .368 1.104H-3.873C-4.223 1.104-4.667 1.092-5.204 1.069V1.736C-4.643 1.712-4.282 1.701-4.118 1.701H-2.295C-2.366 2.004-2.459 2.32-2.576 2.647-2.295 2.717-2.027 2.775-1.77 2.823-1.723 2.659-1.63 2.285-1.489 1.701M-2.541-.333C-2.775-.427-3.02-.543-3.277-.684-3.487-.193-3.732 .228-4.013 .579-3.779 .719-3.557 .847-3.347 .964-3.066 .59-2.798 .158-2.541-.333" fill="#2c292a"/>
<path transform="matrix(1,0,0,-1,204.2844,192.0252)" d="M0 0V.561H-1.892V-.035H-2.558C-2.535 .363-2.523 .993-2.523 1.858-2.523 2.746-2.535 3.389-2.558 3.787H.666C.619 3.389 .596 2.828 .596 2.104 .596 1.402 .619 .701 .666 0ZM0 3.156H-1.892V1.1919999H0ZM3.469 5.961C3.469 5.446 3.481 4.99 3.505 4.593H-1.297C-1.25 4.99-1.227 5.458-1.227 5.996-1.227 6.533-1.25 7-1.297 7.398H3.505C3.481 6.977 3.469 6.498 3.469 5.961M2.839 6.802H-.595V5.189H2.839ZM4.801 1.858C4.801 1.017 4.813 .421 4.836 .07H4.17V.561H2.173V-.035H1.507C1.53 .363 1.542 .993 1.542 1.858 1.542 2.723 1.53 3.366 1.507 3.787H4.836C4.813 3.366 4.801 2.723 4.801 1.858M4.17 3.156H2.172V1.1919999H4.17ZM4.17 1.192" fill="#2c292a"/>
</g>
<path transform="matrix(1,0,0,-1,214.039,185.0828)" d="M0 0-3.715-6.627-4.065-6.416-.35 .21Z" fill="#2c292a"/>
<g clip-path="url(#clip_8)">
<path transform="matrix(1,0,0,-1,218.0055,185.85419)" d="M0 0V-5.189C0-5.68-.105-5.978-.315-6.083-.526-6.189-.818-6.288-1.192-6.381-1.285-6.031-1.402-5.75-1.542-5.54-1.215-5.54-.981-5.528-.841-5.505-.701-5.482-.631-5.306-.631-4.979V-3.226H-1.998C-2.045-3.81-2.126-4.348-2.243-4.839-2.36-5.329-2.523-5.808-2.734-6.276-2.921-6.112-3.143-5.972-3.399-5.855-3.119-5.342-2.926-4.856-2.821-4.4-2.716-3.945-2.646-3.483-2.611-3.015-2.576-2.548-2.558-1.812-2.558-.806-2.558 .198-2.57 .9-2.593 1.297H.035C.011 1.11 0 .678 0 0M-.631-2.63V-1.227H-1.928L-1.963-2.63ZM-.631 .701H-1.928V-.63100007H-.631ZM1.472-6.416H.806C.829-5.855 .841-5.329 .841-4.839V.035C.841 .432 .829 .865 .806 1.332H4.065C4.042 1.005 4.018 .649 3.995 .263 3.972-.123 3.937-.415 3.89-.614 3.843-.812 3.703-.959 3.469-1.052 3.236-1.146 2.932-1.216 2.558-1.262 2.488-.982 2.383-.748 2.243-.561 2.827-.561 3.154-.497 3.224-.368 3.294-.24 3.329 .128 3.329 .736H1.472V-1.613H4.381C4.287-2.221 4.17-2.764 4.03-3.243 3.89-3.723 3.703-4.196 3.469-4.663 3.866-5.131 4.322-5.482 4.836-5.715 4.673-5.855 4.509-6.054 4.346-6.311 3.901-6.007 3.481-5.633 3.084-5.189 2.804-5.587 2.418-6.007 1.927-6.452 1.81-6.241 1.682-6.054 1.542-5.89 1.869-5.657 2.231-5.259 2.628-4.698 2.324-4.301 2.021-3.471 1.717-2.209H1.472ZM3.014-4.137C3.294-3.6 3.492-2.957 3.61-2.209H2.348C2.535-3.098 2.756-3.74 3.014-4.137" fill="#2c292a"/>
<path transform="matrix(1,0,0,-1,226.5327,185.2406)" d="M0 0H3.89C3.68-.351 3.405-.725 3.066-1.122 2.728-1.52 2.301-1.893 1.787-2.244 2.114-2.454 2.558-2.612 3.119-2.717 3.68-2.823 4.346-2.887 5.117-2.91 4.929-3.121 4.801-3.366 4.731-3.646 4.077-3.6 3.434-3.483 2.804-3.296 2.173-3.109 1.647-2.887 1.227-2.63 .479-2.98-.199-3.238-.806-3.401-1.414-3.565-2.01-3.694-2.593-3.787-2.687-3.506-2.827-3.261-3.014-3.05-2.5-3.05-1.916-2.98-1.262-2.84-.608-2.7 .035-2.501 .666-2.244 .175-1.777-.245-1.297-.596-.806-.993-1.297-1.402-1.707-1.822-2.034-1.986-1.847-2.196-1.707-2.453-1.613-1.799-1.146-1.32-.696-1.016-.263-.713 .169-.491 .573-.35 .947-.047 .783 .233 .654 .491 .561 .303 .397 .14 .21 0 0M.421-4.067C.467-3.787 .491-3.46 .491-3.086 .771-3.133 1.051-3.168 1.332-3.191 1.262-3.331 1.191-3.623 1.121-4.067H3.96C3.937-4.348 3.913-4.669 3.89-5.031 3.866-5.394 3.825-5.785 3.767-6.206 3.709-6.627 3.54-6.872 3.259-6.942 2.979-7.013 2.535-7.083 1.927-7.153 1.88-6.849 1.764-6.592 1.577-6.381 2.254-6.381 2.663-6.358 2.804-6.311 2.944-6.265 3.037-6.136 3.084-5.926L3.189-4.593H1.051C.724-5.598 .263-6.253-.333-6.557-.929-6.86-1.566-7.129-2.243-7.363-2.313-7.153-2.477-6.907-2.734-6.627-2.173-6.58-1.589-6.404-.981-6.101-.374-5.797 .058-5.294 .315-4.593H-.491C-1.192-4.593-1.706-4.617-2.033-4.663V-4.032C-1.682-4.056-1.157-4.067-.456-4.067ZM2.628-.526H0C.444-1.11 .864-1.555 1.262-1.858 1.729-1.578 2.184-1.134 2.628-.526" fill="#2c292a"/>
<path transform="matrix(1,0,0,-1,296.2385,225.5859)" d="M0 0C0-.01-.002-.018-.006-.025-.011-.032-.018-.038-.028-.042-.038-.046-.051-.049-.068-.052-.084-.054-.105-.055-.128-.055-.153-.055-.174-.054-.191-.052-.207-.049-.221-.046-.232-.042-.242-.038-.25-.032-.255-.025-.26-.018-.262-.01-.262 0V.212C-.346 .121-.434 .049-.525-.002-.616-.053-.715-.078-.823-.078-.941-.078-1.041-.056-1.125-.01-1.208 .036-1.275 .098-1.327 .176-1.378 .253-1.416 .345-1.44 .45-1.464 .555-1.476 .666-1.476 .783-1.476 .921-1.461 1.045-1.431 1.156-1.401 1.267-1.357 1.362-1.299 1.441-1.241 1.519-1.169 1.579-1.083 1.621-.996 1.664-.897 1.685-.784 1.685-.69 1.685-.605 1.664-.527 1.623-.449 1.582-.372 1.522-.296 1.442V2.375C-.296 2.383-.294 2.391-.29 2.399-.286 2.407-.278 2.412-.266 2.417-.254 2.421-.239 2.424-.22 2.427-.202 2.43-.178 2.432-.15 2.432-.12 2.432-.096 2.43-.077 2.427-.058 2.424-.043 2.421-.032 2.417-.021 2.412-.013 2.407-.008 2.399-.003 2.391 0 2.383 0 2.375ZM-.296 1.129C-.375 1.227-.452 1.302-.527 1.354-.601 1.406-.678 1.432-.759 1.432-.834 1.432-.898 1.414-.95 1.378-1.002 1.342-1.045 1.296-1.077 1.237-1.11 1.179-1.134 1.113-1.149 1.039-1.163 .966-1.171 .891-1.171 .815-1.171 .734-1.165 .655-1.152 .578-1.14 .5-1.118 .432-1.087 .372-1.056 .312-1.015 .264-.964 .227-.913 .191-.849 .173-.772 .173-.732 .173-.695 .178-.658 .189-.622 .2-.585 .217-.547 .242-.509 .267-.469 .3-.428 .34-.386 .379-.342 .428-.296 .487Z" fill="#ffffff"/>
</g>
<path transform="matrix(1,0,0,-1,0,595.276)" d="M277.508 413.525H319.781V401.202H277.508Z" fill="#ffffff"/>
<g clip-path="url(#clip_9)">
<path transform="matrix(1,0,0,-1,287.9484,190.4961)" d="M0 0C0-.351 .023-.771 .07-1.262H-.666V-.736H-4.276V-1.297H-5.011C-4.988-.806-4.976-.397-4.976-.07V.736C-4.976 .877-4.988 1.087-5.011 1.367-5.175 1.297-5.677 1.134-6.518 .877-6.588 1.157-6.706 1.426-6.869 1.683-6.028 1.8-5.327 1.928-4.766 2.069-4.205 2.209-3.68 2.407-3.189 2.665-3.469 2.805-3.89 3.109-4.451 3.576-4.731 3.296-5.046 3.015-5.397 2.735-5.561 2.968-5.759 3.144-5.993 3.261-5.502 3.564-5.076 3.909-4.714 4.295-4.352 4.681-4.089 5.072-3.925 5.47-3.622 5.329-3.318 5.212-3.014 5.119-3.154 5.025-3.318 4.874-3.504 4.663H-.14C-.398 4.266-.643 3.932-.876 3.664-1.11 3.395-1.472 3.062-1.962 2.665-1.636 2.525-1.197 2.384-.648 2.244-.1 2.104 .607 2.01 1.472 1.964 1.308 1.683 1.203 1.39 1.156 1.087 .712 1.204 .35 1.297 .07 1.367 .023 1.134 0 .888 0 .631ZM1.156 6.206C1.133 5.808 1.121 5.516 1.121 5.329 1.121 5.166 1.133 4.909 1.156 4.558H.421V5.575H-5.712V4.523H-6.483C-6.46 4.756-6.448 4.979-6.448 5.189-6.448 5.4-6.46 5.738-6.483 6.206H-2.944C-3.014 6.439-3.107 6.662-3.224 6.872-2.874 6.942-2.593 7-2.383 7.048-2.22 6.58-2.126 6.299-2.103 6.206ZM-4.941 1.367H0C-.724 1.531-1.268 1.683-1.63 1.823-1.992 1.964-2.325 2.092-2.628 2.209-3.026 2.022-3.411 1.858-3.785 1.718-4.159 1.578-4.544 1.461-4.941 1.367M-.666 .806H-4.276V-.21099997H-.666ZM-4.03 3.997C-3.447 3.506-2.944 3.179-2.523 3.015-2.08 3.342-1.694 3.705-1.367 4.102H-3.96C-3.984 4.079-4.007 4.044-4.03 3.997" fill="#2c292a"/>
<path transform="matrix(1,0,0,-1,297.7512,187.1301)" d="M0 0C0-.701 .012-1.251 .035-1.648H-.736V-1.122H-5.607C-5.701-1.87-5.817-2.431-5.958-2.805-6.098-3.179-6.25-3.512-6.413-3.804-6.577-4.096-6.752-4.371-6.939-4.628-7.173-4.441-7.43-4.301-7.71-4.207-7.243-3.717-6.921-3.255-6.746-2.823-6.571-2.39-6.454-1.981-6.396-1.595-6.338-1.21-6.308-.795-6.308-.351-6.308 .093-6.32 .853-6.343 1.928H.035C.012 1.367 0 .724 0 0M-.771 1.297H-5.6419999V-.49099995H-.771ZM-2.698 2.314C-3.002 2.244-3.236 2.162-3.399 2.069-3.563 2.56-3.75 2.992-3.96 3.366-3.727 3.436-3.504 3.529-3.294 3.646-3.014 3.086-2.816 2.641-2.698 2.314" fill="#2c292a"/>
<path transform="matrix(1,0,0,-1,305.2061,188.37479)" d="M0 0C.771-.293 1.448-.462 2.033-.508 1.822-.719 1.659-.953 1.542-1.21 .958-1.069 .386-.883-.175-.649-.199-.789-.21-.976-.21-1.21V-2.297C-.21-2.647-.199-2.998-.175-3.348H-.946C-.923-3.021-.911-2.67-.911-2.297V-1.35C-.911-1.046-.923-.754-.946-.473H-.526C-1.04-.287-1.612 .064-2.243 .579-2.617 .298-3.096 .012-3.68-.28-4.264-.573-4.941-.848-5.712-1.104-5.806-.894-5.958-.696-6.168-.508-5.818-.438-5.35-.298-4.766-.088-4.182 .123-3.674 .374-3.242 .666-2.81 .958-2.523 1.21-2.383 1.42-2.15 1.303-1.905 1.186-1.647 1.069L-1.822 .929C-1.379 .602-.771 .292 0 0M-3.312-1.104C-3.324-1.292-3.359-1.514-3.417-1.771-3.475-2.028-3.598-2.291-3.785-2.56-3.972-2.828-4.288-3.138-4.731-3.489-4.895-3.278-5.07-3.115-5.257-2.998-4.883-2.764-4.597-2.536-4.398-2.314-4.2-2.092-4.077-1.876-4.03-1.665-3.984-1.455-3.955-1.274-3.943-1.122-3.931-.97-3.925-.754-3.925-.473-3.622-.52-3.388-.556-3.224-.579-3.271-.742-3.3-.918-3.312-1.104M.946 3.419V2.647C.946 2.343 .958 1.969 .981 1.525H-5.222C-5.199 1.969-5.187 2.355-5.187 2.682V3.419C-5.187 3.862-5.199 4.26-5.222 4.611H.981C.958 4.353 .946 3.956 .946 3.419M-2.488 4.12H-4.4849998V3.314H-2.488ZM-2.488 2.823H-4.4849998V2.017H-2.488ZM.245 4.12H-1.8230001V3.314H.245ZM.245 2.823H-1.8230001V2.017H.245ZM.245 2.016" fill="#2c292a"/>
<path transform="matrix(1,0,0,-1,314.9388,184.07971)" d="M0 0C.35 0 .666 .012 .946 .035V-.631C.619-.608 .303-.596 0-.596H-2.803C-2.897-.806-3.049-1.204-3.259-1.788H.35C.327-2.232 .315-2.688 .315-3.156V-6.171C.315-6.685 .327-7.141 .35-7.538H-.35V-7.048H-5.502V-7.538H-6.203C-6.18-7.234-6.168-6.791-6.168-6.206V-3.085C-6.168-2.642-6.18-2.209-6.203-1.788H-3.925C-3.715-1.251-3.587-.854-3.54-.596H-5.747C-6.098-.596-6.448-.608-6.799-.631V.035C-6.425 .012-6.075 0-5.747 0ZM-4.31-2.349H-5.502V-6.486H-4.31ZM-2.138-2.349H-3.7150002V-3.3309999H-2.138ZM-2.138-3.857H-3.7150002V-4.804H-2.138ZM-2.138-5.329H-3.7150002V-6.486H-2.138ZM-.35-2.349H-1.542V-6.486H-.35ZM-.35-6.487" fill="#2c292a"/>
<path transform="matrix(1,0,0,-1,212.52,281.321)" d="M0 0C0-.009-.002-.018-.006-.025-.011-.032-.018-.038-.028-.042-.038-.046-.051-.049-.068-.052-.084-.054-.105-.055-.128-.055-.153-.055-.174-.054-.191-.052-.207-.049-.221-.046-.232-.042-.242-.038-.25-.032-.255-.025-.26-.018-.262-.009-.262 0V.212C-.346 .121-.434 .049-.525-.002-.616-.053-.715-.078-.823-.078-.941-.078-1.041-.056-1.124-.01-1.208 .036-1.275 .098-1.327 .176-1.378 .253-1.416 .345-1.44 .45-1.464 .555-1.476 .666-1.476 .783-1.476 .921-1.461 1.045-1.431 1.156-1.401 1.267-1.357 1.362-1.299 1.441-1.241 1.519-1.169 1.579-1.083 1.621-.996 1.664-.897 1.685-.784 1.685-.69 1.685-.605 1.664-.527 1.623-.449 1.582-.372 1.522-.296 1.442V2.375C-.296 2.383-.294 2.391-.29 2.399-.286 2.407-.278 2.412-.266 2.417-.254 2.421-.239 2.424-.22 2.427-.202 2.43-.178 2.432-.15 2.432-.12 2.432-.096 2.43-.077 2.427-.058 2.424-.043 2.421-.032 2.417-.021 2.412-.013 2.407-.008 2.399-.003 2.391 0 2.383 0 2.375ZM-.296 1.129C-.375 1.227-.452 1.302-.527 1.354-.601 1.406-.678 1.432-.759 1.432-.834 1.432-.898 1.414-.95 1.378-1.002 1.342-1.045 1.296-1.077 1.237-1.11 1.179-1.134 1.113-1.149 1.039-1.163 .966-1.171 .891-1.171 .815-1.171 .734-1.165 .655-1.152 .578-1.14 .5-1.118 .432-1.087 .372-1.056 .312-1.015 .264-.964 .227-.913 .191-.849 .173-.772 .173-.732 .173-.695 .178-.659 .189-.622 .2-.585 .217-.547 .242-.509 .267-.469 .3-.428 .34-.386 .379-.342 .428-.296 .487Z" fill="#ffffff"/>
</g>
<path transform="matrix(1,0,0,-1,0,595.276)" d="M190.378 304.291H232.651V291.968H190.378Z" fill="#ffffff"/>
<g clip-path="url(#clip_10)">
<path transform="matrix(1,0,0,-1,196.5278,296.4353)" d="M0 0C0-.748-.053-1.367-.158-1.858-.263-2.349-.462-2.817-.753-3.261-1.046-3.705-1.437-4.137-1.928-4.558-2.115-4.348-2.301-4.172-2.488-4.032-1.998-3.728-1.612-3.378-1.332-2.98-1.051-2.583-.865-2.139-.771-1.648-.678-1.157-.631-.62-.631-.035-.631 .549-.643 1.168-.666 1.823-.409 1.753-.14 1.706 .14 1.683 .047 1.309 0 .748 0 0M1.262 .666C1.262-.339 1.273-1.204 1.297-1.928H.666V2.489H-1.402V-1.964H-2.068C-2.045-1.332-2.033-.491-2.033 .561-2.033 1.636-2.045 2.477-2.068 3.085H1.297C1.273 2.477 1.262 1.671 1.262 .666M1.612-3.682C1.402-3.845 1.214-4.009 1.051-4.172 .537-3.471 .14-2.98-.14-2.7 .047-2.583 .222-2.419 .385-2.209 1.063-2.98 1.472-3.471 1.612-3.682M3.96 3.611H4.661C4.637 3.261 4.626 2.606 4.626 1.648 5.023 1.648 5.408 1.659 5.782 1.683V1.017C5.455 1.04 5.069 1.052 4.626 1.052V-3.541C4.626-3.938 4.515-4.195 4.293-4.313 4.071-4.429 3.75-4.523 3.329-4.593 3.259-4.313 3.142-4.055 2.979-3.822 3.376-3.822 3.645-3.798 3.785-3.752 3.925-3.705 3.995-3.565 3.995-3.331V.526C3.715-.199 3.417-.836 3.101-1.385 2.786-1.935 2.383-2.501 1.892-3.086 1.752-2.922 1.53-2.77 1.227-2.63 1.6-2.326 2.003-1.858 2.436-1.227 2.868-.596 3.224 .163 3.504 1.052 2.71 1.052 2.126 1.04 1.752 1.017V1.683C2.126 1.659 2.874 1.648 3.995 1.648 3.995 2.606 3.983 3.261 3.96 3.611" fill="#2c292a"/>
<path transform="matrix(1,0,0,-1,206.0503,293.7706)" d="M0 0H3.89C3.68-.351 3.405-.725 3.066-1.122 2.728-1.52 2.301-1.893 1.787-2.244 2.114-2.454 2.558-2.612 3.119-2.717 3.68-2.823 4.346-2.887 5.117-2.91 4.929-3.121 4.801-3.366 4.731-3.646 4.077-3.6 3.434-3.483 2.804-3.296 2.173-3.109 1.647-2.887 1.227-2.63 .479-2.98-.199-3.238-.806-3.401-1.414-3.565-2.01-3.694-2.593-3.787-2.687-3.506-2.827-3.261-3.014-3.05-2.5-3.05-1.916-2.98-1.262-2.84-.608-2.7 .035-2.501 .666-2.244 .175-1.777-.245-1.297-.596-.806-.993-1.297-1.402-1.707-1.822-2.034-1.986-1.847-2.196-1.707-2.453-1.613-1.799-1.146-1.32-.696-1.016-.263-.713 .169-.491 .572-.35 .947-.047 .783 .233 .654 .491 .561 .303 .397 .14 .21 0 0M.421-4.067C.467-3.787 .491-3.46 .491-3.086 .771-3.133 1.051-3.168 1.332-3.191 1.262-3.331 1.192-3.623 1.121-4.067H3.96C3.937-4.348 3.913-4.669 3.89-5.031 3.866-5.394 3.825-5.785 3.767-6.206 3.709-6.627 3.54-6.872 3.259-6.942 2.979-7.013 2.535-7.083 1.927-7.153 1.88-6.849 1.764-6.592 1.577-6.381 2.254-6.381 2.663-6.358 2.804-6.311 2.944-6.265 3.037-6.136 3.084-5.926L3.189-4.593H1.051C.724-5.599 .263-6.253-.333-6.557-.929-6.86-1.566-7.129-2.243-7.363-2.313-7.153-2.477-6.907-2.734-6.627-2.173-6.58-1.589-6.404-.981-6.101-.374-5.797 .058-5.294 .315-4.593H-.491C-1.192-4.593-1.706-4.617-2.033-4.663V-4.032C-1.682-4.056-1.157-4.067-.456-4.067ZM2.628-.526H0C.444-1.111 .864-1.555 1.262-1.858 1.729-1.578 2.184-1.134 2.628-.526" fill="#2c292a"/>
<path transform="matrix(1,0,0,-1,215.6077,293.8757)" d="M0 0C0 .304-.012 .643-.035 1.017H.771C.724 .736 .701 .397 .701 0H2.839C3.166 0 3.516 .011 3.89 .035V-.631C3.516-.585 3.177-.561 2.874-.561H.701V-1.227H2.418C2.792-1.227 3.154-1.216 3.505-1.192V-1.823C3.177-1.8 2.815-1.788 2.418-1.788H.701V-2.56H3.189C3.61-2.56 4.007-2.548 4.381-2.525V-3.191C4.03-3.144 3.645-3.121 3.224-3.121H.175C.012-3.331-.245-3.623-.596-3.997V-6.031C-.175-5.797 .292-5.505 .806-5.154 .853-5.435 .934-5.68 1.052-5.891 .607-6.101 .204-6.323-.158-6.557-.52-6.79-.795-6.989-.981-7.153-1.168-6.919-1.331-6.708-1.472-6.522-1.309-6.404-1.238-6.136-1.262-5.715V-4.593C-1.542-4.827-1.834-5.044-2.138-5.242-2.442-5.441-2.757-5.634-3.084-5.82-3.224-5.61-3.399-5.412-3.61-5.224-3.049-4.991-2.494-4.675-1.945-4.278-1.396-3.881-.981-3.495-.701-3.121H-2.348C-2.792-3.121-3.224-3.144-3.645-3.191V-2.525C-3.364-2.548-2.897-2.56-2.243-2.56H0V-1.788H-1.577C-1.975-1.788-2.301-1.8-2.558-1.823V-1.192C-2.185-1.216-1.857-1.227-1.577-1.227H0V-.561H-1.752C-2.196-.561-2.605-.585-2.979-.631V.07C-2.628 .023-2.161 0-1.577 0ZM1.682-4.804C2.15-4.43 2.57-3.986 2.944-3.471 3.154-3.682 3.4-3.881 3.68-4.067 3.47-4.137 3.236-4.284 2.979-4.506 2.721-4.728 2.441-4.979 2.138-5.259 2.371-5.493 2.721-5.675 3.189-5.803 3.656-5.932 4.088-6.008 4.486-6.031 4.276-6.288 4.147-6.568 4.101-6.872 2.909-6.592 2.038-6.16 1.49-5.575 .94-4.991 .537-4.313 .28-3.541L.841-3.296C1.004-3.787 1.285-4.29 1.682-4.804" fill="#2c292a"/>
<path transform="matrix(1,0,0,-1,222.9925,293.6654)" d="M0 0C.257 0 .572 .011 .946 .035V-.631C.572-.608 .175-.596-.245-.596V-2.525C.082-2.525 .432-2.513 .806-2.489V-3.156C.432-3.133 .082-3.121-.245-3.121V-5.259C.152-5.166 .561-5.049 .981-4.909 .958-5.166 .946-5.388 .946-5.575 .175-5.762-.444-5.938-.911-6.101-1.379-6.265-1.729-6.405-1.962-6.522-2.033-6.195-2.126-5.914-2.243-5.68-1.869-5.634-1.414-5.552-.876-5.435V-3.121C-1.25-3.121-1.612-3.133-1.962-3.156V-2.489C-1.612-2.513-1.25-2.525-.876-2.525V-.596C-1.297-.596-1.671-.608-1.998-.631V.035C-1.717 .011-1.449 0-1.192 0ZM3.732-2.314C3.697-2.875 3.621-3.471 3.505-4.102H4.205C4.182-4.336 4.171-4.652 4.171-5.049V-6.171C4.171-6.522 4.235-6.708 4.363-6.732 4.491-6.755 4.637-6.761 4.801-6.75 4.964-6.738 5.082-6.656 5.152-6.504 5.222-6.352 5.268-6.078 5.292-5.68 5.525-5.82 5.783-5.914 6.063-5.961 5.946-6.452 5.829-6.785 5.712-6.96 5.595-7.135 5.35-7.246 4.977-7.293H4.276C3.761-7.293 3.505-7.071 3.505-6.627V-4.172C3.294-4.921 2.99-5.546 2.593-6.048 2.196-6.551 1.6-7.012 .806-7.433 .689-7.246 .491-7.083 .21-6.942 .958-6.638 1.507-6.306 1.857-5.943 2.208-5.581 2.488-5.119 2.698-4.558 2.909-3.997 3.031-3.413 3.066-2.805 3.102-2.198 3.107-1.59 3.084-.982 3.387-1.029 3.668-1.064 3.925-1.087 3.831-1.344 3.767-1.753 3.732-2.314M5.432-.771V-3.121C5.432-3.565 5.444-3.951 5.467-4.278H4.801V-.21H2.138V-4.313H1.472C1.495-3.916 1.507-3.471 1.507-2.98V-1.052C1.507-.538 1.495-.07 1.472 .351H5.467C5.444-.024 5.432-.398 5.432-.771" fill="#2c292a"/>
</g>
</g>
</g>
</svg>
