<svg xmlns="http://www.w3.org/2000/svg" xmlns:xlink="http://www.w3.org/1999/xlink" xmlns:inkscape="http://www.inkscape.org/namespaces/inkscape" version="1.1" width="411.024" height="595.276" viewBox="0 0 411.024 595.276">
<defs>
<clipPath id="clip_1">
<path transform="matrix(1,0,0,-1,0,595.276)" d="M0 0H411.024V595.276H0Z"/>
</clipPath>
<clipPath id="clip_2">
<path transform="matrix(1,0,0,-1,0,595.276)" d="M0 0H411.024V595.276H0Z"/>
</clipPath>
<path id="font_3_6" d="M.48199464 .11273193V.17773438H.394989V.37979127H.32398988V.17773438H.116989139L.37399293 .71191409H.29699708L.039993287 .17773438V.11273193H.32398988V0H.394989V.11273193H.48199464Z"/>
<path id="font_3_2" d="M.45599366 .19004822V.5218506C.45599366 .6397705 .37199403 .71777346 .26098634 .71777346 .1499939 .71777346 .06599426 .6397705 .06599426 .5218506V.19004822C.06599426 .072128299 .1499939-.005859375 .26098634-.005859375 .37199403-.005859375 .45599366 .072128299 .45599366 .19004822M.38398744 .19404602C.38398744 .116104129 .33999635 .058135988 .26098634 .058135988 .18199158 .058135988 .13798523 .116104129 .13798523 .19404602V.5178528C.13798523 .5957947 .18199158 .6537628 .26098634 .6537628 .33999635 .6537628 .38398744 .5957947 .38398744 .5178528V.19404602Z"/>
<path id="font_3_3" d="M.32998658 0V.71191409H.2579956L.125 .5969238V.51493838L.2579956 .63191226V0H.32998658Z"/>
<clipPath id="clip_4">
<path transform="matrix(1,0,0,-1,0,595.276)" d="M0 0H411.024V595.276H0Z"/>
</clipPath>
<clipPath id="clip_5">
<path transform="matrix(1,0,0,-1,0,595.276)" d="M0 0H411.024V595.276H0Z"/>
</clipPath>
<clipPath id="clip_6">
<path transform="matrix(1,0,0,-1,0,595.276)" d="M0 0H411.024V595.276H0Z"/>
</clipPath>
</defs>
<g clip-path="url(#clip_1)">
<g clip-path="url(#clip_2)">
<use data-text="4" xlink:href="#font_3_6" transform="matrix(9,0,0,-9,363.685,567.547)" fill="#f43040"/>
<use data-text="0" xlink:href="#font_3_2" transform="matrix(9,0,0,-9,367.285,567.547)" fill="#f43040"/>
<use data-text="1" xlink:href="#font_3_3" transform="matrix(9,0,0,-9,370.885,567.547)" fill="#f43040"/>
<path transform="matrix(1,0,0,-1,0,595.276)" d="M0 0H411.024V595.275H0Z" fill="#f43040"/>
<path transform="matrix(1,0,0,-1,212.6454,338.1689)" d="M0 0-6.452 4.501H-54.957V6.338H-5.875L0 2.24 5.875 6.338H53.416V4.501H6.452Z" fill="#ffffff"/>
<g clip-path="url(#clip_4)">
<path transform="matrix(1,0,0,-1,91.5721,346.5119)" d="M0 0V-4.184H6.506C6.454-5.218 6.429-6.071 6.429-6.742V-12.708C6.429-13.379 6.454-14.232 6.506-15.266H4.802V-13.638H-5.731C-6.816-13.638-7.849-13.664-8.83-13.716V-12.243C-7.849-12.296-6.816-12.321-5.731-12.321H4.802V-9.531H-4.725C-5.913-9.531-7.048-9.558-8.132-9.609V-8.059C-7.048-8.111-5.913-8.136-4.725-8.136H4.802V-5.502H-5.654C-6.583-5.502-7.565-5.528-8.597-5.579V-4.107C-7.565-4.159-6.583-4.184-5.654-4.184H-1.626V0C-1.626 .93-1.653 1.808-1.704 2.635H.078C.025 2.015 0 1.136 0 0M-3.873-2.092C-4.389-2.402-4.906-2.764-5.422-3.177-6.248-1.782-7.178-.542-8.21 .542-7.642 .903-7.178 1.265-6.816 1.627-5.681 .335-4.699-.905-3.873-2.092M5.46-.852C4.969-1.472 4.311-2.274 3.485-3.255 3.072-2.894 2.633-2.532 2.169-2.17 3.201-1.189 4.182 .128 5.112 1.782 5.627 1.368 6.169 1.007 6.738 .697 6.377 .283 5.951-.232 5.46-.852" fill="#ffffff"/>
<path transform="matrix(1,0,0,-1,115.9694,345.19453)" d="M0 0C.98 0 1.987 .025 3.021 .077V-1.55C1.884-1.499 .877-1.472 0-1.472H-5.344V-13.406C-5.344-14.078-5.319-14.929-5.267-15.963H-7.048C-6.997-15.033-6.971-14.181-6.971-13.406V-1.472H-11.231C-12.264-1.472-13.271-1.499-14.251-1.55V.077C-13.271 .025-12.264 0-11.231 0ZM.62-11.469C-.207-10.384-1.808-8.756-4.182-6.587L-3.021-5.424C-1.626-6.561 .051-8.163 2.014-10.229 1.497-10.591 1.032-11.004 .62-11.469" fill="#ffffff"/>
<path transform="matrix(1,0,0,-1,123.405,348.64289)" d="M0 0C.877 1.627 1.549 3.267 2.014 4.921 2.529 4.611 3.046 4.378 3.563 4.223 3.149 3.551 2.607 2.286 1.936 .426V-8.95C1.936-10.655 1.962-11.895 2.014-12.67H.465C.516-11.791 .542-10.527 .542-8.873V-2.131C.025-2.958-.491-3.758-1.007-4.533-1.369-3.965-1.756-3.552-2.169-3.293-1.601-2.726-.879-1.627 0 0M5.422 2.208C5.422 3.086 5.395 3.758 5.344 4.223H6.893C6.841 3.758 6.816 3.086 6.816 2.208V.116C7.383 .116 8.028 .142 8.752 .194V-1.201C7.873-1.15 7.228-1.124 6.816-1.124V-3.913H8.752C8.7-4.637 8.675-5.67 8.675-7.013 8.675-8.357 8.7-9.364 8.752-10.035H7.28V-9.26H4.879V-10.887H3.408C3.459-10.165 3.485-9.002 3.485-7.4 3.485-5.8 3.459-4.637 3.408-3.913H5.422V-1.124C4.492-1.124 3.718-1.15 3.098-1.201V.194C3.666 .142 4.44 .116 5.422 .116ZM7.28-5.076H4.879V-8.098001H7.28ZM9.565 0C10.107 1.472 10.507 3.034 10.766 4.688 11.281 4.481 11.901 4.274 12.625 4.068 12.263 3.706 11.798 2.569 11.231 .659H13.089C14.07 .659 14.871 .684 15.49 .736V-.504C14.974-.453 14.534-.426 14.174-.426 14.224-3.63 13.76-6.42 12.78-8.795 13.657-10.035 14.638-10.887 15.723-11.352 15.154-11.817 14.767-12.255 14.561-12.67 13.734-12.101 12.83-11.197 11.85-9.957 10.972-11.042 9.81-12.05 8.365-12.98 8.055-12.565 7.668-12.178 7.203-11.817 8.545-11.3 9.81-10.294 10.998-8.795 10.379-7.607 9.887-5.8 9.527-3.371L9.217-4.068C8.907-3.707 8.52-3.371 8.055-3.061 8.52-2.493 9.023-1.472 9.565 0M10.611-2.053C11.023-4.74 11.436-6.497 11.85-7.323 12.418-5.825 12.727-3.552 12.78-.504H10.843C10.688-.918 10.456-1.511 10.146-2.286Z" fill="#ffffff"/>
<path transform="matrix(1,0,0,-1,144.8978,360.3051)" d="M0 0C-1.524-.258-2.595-.49-3.214-.697-3.369-.025-3.551 .62-3.757 1.24-2.827 1.291-2.066 1.343-1.472 1.395-.879 1.446-.168 1.523 .658 1.627V4.649H-.426C-1.46 4.649-2.337 4.597-3.059 4.494V5.967C-2.182 5.915-1.382 5.889-.658 5.889H.658V8.446C-.375 8.394-1.111 8.342-1.549 8.291-1.988 8.239-2.466 8.162-2.982 8.059-3.086 8.73-3.241 9.324-3.447 9.841-2.621 10.047-1.886 10.564-1.239 11.391-.594 12.217-.091 13.147 .271 14.181H-.891C-1.769 14.181-2.595 14.154-3.369 14.103V15.575C-2.544 15.523-1.743 15.498-.968 15.498H3.989C4.918 15.498 5.744 15.523 6.467 15.575V14.103C5.693 14.154 4.866 14.181 3.989 14.181H.813L2.207 13.251C1.69 12.837 1.2 12.321 .736 11.701 .271 11.081-.271 10.409-.891 9.686 .968 9.789 2.697 9.892 4.299 9.996 3.885 10.667 3.42 11.339 2.904 12.011 3.42 12.269 3.885 12.553 4.299 12.863 4.814 12.139 5.305 11.442 5.77 10.771 6.235 10.099 6.673 9.479 7.087 8.911 6.622 8.549 6.105 8.214 5.538 7.904 5.331 8.265 5.151 8.575 4.996 8.834 3.911 8.679 3.007 8.575 2.285 8.524V5.889H3.756C4.634 5.889 5.383 5.915 6.003 5.967V4.494C5.331 4.597 4.608 4.649 3.834 4.649H2.285V1.782C3.73 1.988 5.253 2.221 6.854 2.48 6.75 1.963 6.673 1.472 6.622 1.007 3.73 .593 1.522 .259 0 0M9.333 11.314V5.502C9.333 4.417 9.358 3.512 9.41 2.79H7.784C7.835 3.512 7.861 4.417 7.861 5.502V11.624C7.861 12.656 7.835 13.483 7.784 14.103H9.488C9.384 13.431 9.333 12.501 9.333 11.314M13.283 13.948V1.24C13.283 .052 13.063-.645 12.625-.852 12.185-1.058 11.242-1.291 9.798-1.55 9.643-.878 9.41-.258 9.1 .31 10.185 .31 10.894 .349 11.23 .426 11.566 .504 11.734 .93 11.734 1.705V13.948C11.734 15.084 11.707 15.963 11.656 16.583H13.438C13.334 15.808 13.283 14.929 13.283 13.948" fill="#ffffff"/>
<path transform="matrix(1,0,0,-1,163.9897,345.8145)" d="M0 0C0 .775-.027 1.472-.077 2.092H1.549C1.445 1.523 1.394 .826 1.394 0V-1.937C2.374-1.937 3.278-1.912 4.105-1.86V-3.332C3.278-3.281 2.374-3.255 1.394-3.255V-6.199C1.755-5.941 2.169-5.632 2.633-5.269 3.511-6.561 4.078-7.439 4.337-7.904 3.873-8.214 3.433-8.551 3.021-8.911 2.762-8.396 2.491-7.931 2.207-7.517 1.923-7.104 1.652-6.742 1.394-6.432V-12.243C1.394-13.328 1.445-14.413 1.549-15.498H-.077C-.027-14.361 0-13.277 0-12.243V-6.742C-.31-7.776-1.059-9.403-2.246-11.624-2.608-11.314-2.995-10.953-3.408-10.539-2.53-9.041-1.975-8.034-1.743-7.517-1.51-7.001-1.278-6.445-1.046-5.85-.813-5.257-.569-4.392-.31-3.255-1.136-3.255-1.988-3.281-2.866-3.332V-1.86C-1.936-1.912-.981-1.937 0-1.937ZM5.693-11.275C5.201-12.541 4.44-13.845 3.408-15.188 3.046-14.878 2.529-14.542 1.859-14.181 2.736-13.303 3.433-12.398 3.95-11.469 4.466-10.539 4.866-9.506 5.151-8.369 5.434-7.233 5.615-5.993 5.693-4.649 5.77-3.307 5.834-1.86 5.886-.31 5.008-.31 4.337-.337 3.873-.387V1.085C4.75 1.033 6.015 1.007 7.668 1.007H12.47L11.385-4.107H13.786C13.372-6.122 12.973-7.659 12.586-8.718 12.199-9.777 11.773-10.694 11.308-11.469 11.978-12.193 12.637-12.761 13.283-13.173 13.928-13.587 14.509-13.897 15.026-14.103 14.561-14.464 14.224-14.981 14.019-15.653 13.244-15.188 12.559-14.696 11.966-14.181 11.372-13.665 10.817-13.122 10.301-12.553 9.732-13.173 9.151-13.729 8.558-14.219 7.964-14.71 7.048-15.291 5.809-15.963 5.55-15.394 5.215-14.929 4.802-14.568 6.351-14.103 7.873-13.045 9.372-11.391 8.338-10.1 7.461-8.706 6.738-7.207 6.531-8.654 6.183-10.01 5.693-11.275M10.301-10.306C10.714-9.583 11.049-8.809 11.308-7.981 11.566-7.156 11.798-6.277 12.005-5.347H9.604L10.611-.31H7.203C7.203-1.395 7.151-2.867 7.048-4.727 8.287-7.569 9.372-9.428 10.301-10.306" fill="#ffffff"/>
<path transform="matrix(1,0,0,-1,189.1616,359.2202)" d="M0 0C-.982-.104-1.834-.246-2.556-.426-3.28-.606-4.196-.814-5.306-1.046-6.417-1.279-7.23-1.523-7.745-1.782-8.055-.955-8.287-.362-8.442 0-7.358 .103-6.119 .283-4.725 .542V3.565H-5.731C-6.506 3.565-7.23 3.512-7.9 3.41V4.882C-7.178 4.83-6.455 4.804-5.731 4.804H-4.725V7.439C-5.654 7.335-6.533 7.18-7.358 6.974-7.513 7.594-7.72 8.11-7.978 8.524-7.255 8.834-6.635 9.479-6.119 10.461-5.603 11.442-5.267 12.321-5.112 13.096H-5.809C-6.481 13.096-7.23 13.069-8.055 13.018V14.491C-7.126 14.438-6.403 14.413-5.886 14.413H-2.169C-1.446 14.413-.749 14.438-.078 14.491V13.018C-.852 13.069-1.472 13.096-1.936 13.096H-4.802C-4.389 12.786-3.925 12.476-3.408 12.166-3.822 11.649-4.209 11.081-4.57 10.461-4.932 9.841-5.371 9.221-5.886 8.601-3.873 8.704-2.505 8.807-1.781 8.911-2.246 9.737-2.608 10.306-2.866 10.616-2.505 10.926-2.143 11.209-1.781 11.469-.646 9.712 .051 8.549 .31 7.981-.155 7.567-.569 7.309-.93 7.207-1.084 7.517-1.188 7.774-1.239 7.981L-3.33 7.672V4.804H-2.169C-1.498 4.804-.852 4.83-.232 4.882V3.41C-.904 3.512-1.524 3.565-2.091 3.565H-3.33V.775C-2.091 .981-.982 1.188 0 1.395-.052 .981-.052 .516 0 0M-.31 6.587C.103 7.412 .451 8.175 .736 8.873 1.019 9.57 1.278 10.267 1.51 10.965 1.743 11.662 1.948 12.411 2.13 13.212 2.31 14.012 2.452 14.826 2.556 15.653 3.175 15.394 3.795 15.213 4.415 15.111 4.001 14.491 3.613 13.379 3.253 11.779H8.675V10.384C8.003 10.435 7.435 10.461 6.971 10.461 6.712 6.534 6.144 3.642 5.267 1.782 5.627 1.213 6.183 .71 6.932 .271 7.68-.168 8.442-.492 9.217-.697 8.958-.955 8.713-1.24 8.481-1.55 8.249-1.86 8.132-2.092 8.132-2.247 7.358-1.885 6.622-1.434 5.925-.891 5.228-.349 4.698 .155 4.337 .62 3.459-.207 2.75-.814 2.207-1.201 1.665-1.589 1.11-1.988 .542-2.402 .335-2.04-.078-1.627-.697-1.162 .077-.852 .864-.401 1.665 .194 2.465 .787 2.994 1.317 3.253 1.782 2.529 3.383 1.987 5.192 1.626 7.207 1.367 6.793 1.135 6.302 .929 5.734 .465 6.095 .051 6.379-.31 6.587M2.866 8.291C3.33 5.863 3.795 4.107 4.26 3.022 4.982 4.727 5.422 7.207 5.576 10.461H2.866C2.711 10.047 2.401 9.247 1.936 8.059 2.091 8.162 2.401 8.239 2.866 8.291" fill="#ffffff"/>
<path transform="matrix(1,0,0,-1,202.3284,356.8181)" d="M0 0H2.788V-3.1C2.633-4.39 1.987-5.347 .852-5.967L.078-5.269C1.007-4.752 1.472-3.977 1.472-2.945H0Z" fill="#ffffff"/>
<path transform="matrix(1,0,0,-1,232.3021,346.27943)" d="M0 0H2.014C3.046 0 3.846 .025 4.415 .077V-1.24C3.846-1.189 3.046-1.162 2.014-1.162H-2.169V-3.022H1.007C1.832-3.022 2.634-2.997 3.408-2.945V-4.184C2.634-4.134 1.832-4.107 1.007-4.107H-2.169V-5.889H2.711C3.691-5.889 4.595-5.864 5.422-5.812V-7.129C4.647-7.078 3.743-7.052 2.711-7.052H-8.442C-9.526-7.052-10.456-7.078-11.23-7.129V-5.812C-10.456-5.864-9.526-5.889-8.442-5.889H-3.563V-4.107H-6.506C-7.384-4.107-8.262-4.134-9.139-4.184V-2.945C-8.262-2.997-7.384-3.022-6.506-3.022H-3.563V-1.162H-7.513C-8.339-1.162-9.243-1.189-10.224-1.24V.077C-9.243 .025-8.339 0-7.513 0H-5.886C-6.196 .568-6.661 1.213-7.28 1.937-6.868 2.195-6.48 2.453-6.118 2.712L-4.492 .62C-4.957 .413-5.344 .206-5.654 0H-1.471C-1.007 .723-.517 1.678 0 2.867 .413 2.557 .93 2.272 1.549 2.015 1.29 1.808 .775 1.136 0 0M-8.442-13.561C-7.462-13.251-6.583-12.799-5.809-12.205-5.034-11.611-4.492-10.953-4.182-10.229H-7.048C-8.184-10.229-9.371-10.255-10.611-10.306V-8.989C-9.371-9.041-8.184-9.066-7.048-9.066H-3.872C-3.822-8.396-3.795-7.827-3.795-7.362-3.125-7.569-2.53-7.672-2.014-7.672-2.169-8.136-2.298-8.601-2.401-9.066H1.394C2.736-9.066 3.898-9.041 4.88-8.989V-10.306C3.898-10.255 2.762-10.229 1.472-10.229H-1.704C-1.084-10.953-.478-11.521 .116-11.933 .709-12.348 1.239-12.658 1.704-12.863 2.169-13.071 2.711-13.264 3.33-13.445 3.95-13.625 4.802-13.793 5.887-13.948 5.577-14.413 5.267-14.956 4.957-15.576 3.769-15.316 2.762-14.994 1.936-14.607 1.11-14.219 .271-13.702-.581-13.057-1.433-12.412-2.195-11.624-2.865-10.694-3.33-11.469-3.783-12.088-4.221-12.553-4.66-13.018-5.216-13.458-5.886-13.871-6.558-14.283-7.255-14.632-7.977-14.917-8.701-15.2-9.476-15.446-10.301-15.653-10.456-15.188-10.766-14.696-11.23-14.181-10.353-14.077-9.424-13.871-8.442-13.561" fill="#ffffff"/>
<path transform="matrix(1,0,0,-1,244.8495,346.00819)" d="M0 0C-.155-.697-.31-1.383-.465-2.053H3.408C3.149-3.603 2.866-4.998 2.556-6.238 2.246-7.478 1.755-8.77 1.084-10.112 1.91-10.837 2.866-11.714 3.95-12.747 3.485-13.109 3.071-13.497 2.711-13.909 1.936-12.929 1.135-12.076 .31-11.352-.362-12.179-1.033-12.916-1.704-13.561-2.376-14.206-3.073-14.813-3.795-15.382-4.002-15.02-4.389-14.632-4.957-14.219-4.183-13.754-3.447-13.226-2.75-12.631-2.052-12.038-1.394-11.301-.775-10.422-1.704-9.7-2.711-9.002-3.795-8.33-3.125-6.78-2.582-5.102-2.169-3.293-2.995-3.293-3.718-3.32-4.337-3.371V-1.976C-3.718-2.028-2.892-2.053-1.859-2.053-1.549-.814-1.291 .659-1.084 2.363-.569 2.208 .025 2.053 .697 1.898 .387 1.329 .155 .697 0 0M-.078-9.183C.283-8.563 .62-7.737 .929-6.703 1.239-5.67 1.497-4.533 1.704-3.293H-.697C-1.162-4.998-1.626-6.497-2.091-7.788-1.317-8.305-.646-8.77-.078-9.183M12.702 .504V-.891C12.185-1.305 11.618-1.757 10.998-2.247 10.379-2.739 9.732-3.268 9.062-3.836V-6.238H11.153C11.823-6.238 12.572-6.213 13.399-6.16V-7.633C12.572-7.582 11.823-7.555 11.153-7.555H9.062V-13.135C9.062-14.115 8.764-14.735 8.171-14.994 7.577-15.252 6.764-15.459 5.731-15.614 5.577-15.045 5.344-14.452 5.034-13.832 6.17-13.832 6.88-13.767 7.164-13.638 7.447-13.51 7.59-13.135 7.59-12.515V-7.555H6.428C5.344-7.555 4.285-7.582 3.253-7.633V-6.16C4.285-6.213 5.267-6.238 6.196-6.238H7.59C7.59-5.463 7.577-4.857 7.552-4.417 7.525-3.979 7.461-3.63 7.358-3.371 7.822-3.061 8.365-2.661 8.984-2.17 9.604-1.68 10.146-1.201 10.611-.736H5.964C5.447-.736 4.75-.763 3.873-.814V.581C4.75 .529 5.447 .504 5.964 .504Z" fill="#ffffff"/>
<path transform="matrix(1,0,0,-1,268.0853,346.6668)" d="M0 0H7.745C7.693-1.189 7.668-2.274 7.668-3.255V-11.933C7.668-12.863 7.693-13.793 7.745-14.723H6.196V-12.863H-4.183V-14.723H-5.732C-5.681-13.741-5.654-12.838-5.654-12.011V-3.177C-5.654-2.247-5.681-1.189-5.732 0H-1.472C-1.266 1.395-1.137 2.427-1.084 3.1-.465 2.892 .206 2.737 .929 2.635 .619 2.17 .31 1.291 0 0M6.196-1.317H-4.1829998V-3.874H6.196ZM6.196-5.114H-4.1829998V-7.594H6.196ZM6.196-8.834H-4.1829998V-11.624H6.196ZM6.196-11.624" fill="#ffffff"/>
<path transform="matrix(1,0,0,-1,284.0401,346.3569)" d="M0 0H4.492C4.337-.982 4.066-2.158 3.679-3.526 3.292-4.895 2.517-6.265 1.355-7.633 .193-9.002-1.033-10.074-2.324-10.849-2.634-10.436-3.098-10.1-3.718-9.841-2.479-9.221-1.421-8.421-.542-7.439-.904-6.923-1.549-6.329-2.479-5.657-2.118-5.347-1.808-4.986-1.549-4.572-.724-5.244-.052-5.864 .465-6.432 .825-6.019 1.162-5.554 1.471-5.037 .748-4.314 0-3.694-.775-3.177-.465-2.816-.207-2.454 0-2.092 .877-2.712 1.574-3.281 2.091-3.797 2.401-3.126 2.633-2.274 2.788-1.24H-.542C-1.162-2.325-1.988-3.565-3.021-4.959-3.435-4.599-3.925-4.339-4.492-4.184-3.512-3.152-2.699-2.003-2.053-.736-1.407 .529-.93 1.627-.62 2.557-.104 2.298 .49 2.092 1.162 1.937 .852 1.523 .465 .878 0 0M-2.711-15.498C-3.021-15.188-3.485-14.929-4.105-14.723-3.383-13.793-2.608-12.58-1.781-11.081-1.472-11.34-1.007-11.65-.387-12.011-1.162-13.096-1.936-14.258-2.711-15.498M1.239-11.856C1.807-11.753 2.271-11.573 2.633-11.314 3.253-12.451 3.718-13.586 4.027-14.723 3.304-14.929 2.814-15.111 2.556-15.266 2.349-14.438 1.91-13.303 1.239-11.856M12.779-3.797C12.056-3.746 10.766-3.72 8.907-3.72 9.268-5.012 9.875-6.148 10.727-7.129 11.579-8.111 12.625-8.86 13.864-9.376 13.192-9.79 12.675-10.229 12.315-10.694 11.23-9.971 10.352-9.17 9.681-8.291 9.01-7.414 8.442-6.406 7.977-5.269 7.616-6.251 7.099-7.233 6.428-8.214 5.757-9.196 4.905-10.1 3.873-10.926 3.511-10.513 3.021-10.126 2.401-9.764 3.381-9.248 4.26-8.485 5.034-7.478 5.809-6.47 6.428-5.218 6.893-3.72 5.86-3.72 4.957-3.746 4.182-3.797V-2.48C5.163-2.532 6.118-2.557 7.048-2.557 7.099-.077 7.073 1.523 6.971 2.247 7.59 2.143 8.158 2.092 8.675 2.092 8.57 1.213 8.52-.337 8.52-2.557 10.481-2.557 11.901-2.532 12.779-2.48ZM5.422-11.778 6.661-11.004C7.745-12.503 8.442-13.638 8.752-14.413 8.08-14.723 7.616-14.956 7.358-15.111 6.996-14.128 6.351-13.018 5.422-11.778M9.526 .697C9.784 .903 10.094 1.213 10.456 1.627 11.333 .903 12.16 .051 12.934-.93 12.573-1.189 12.211-1.499 11.85-1.86 11.126-.879 10.352-.027 9.526 .697M9.604-11.546C10.069-11.34 10.507-11.056 10.921-10.694 12.108-12.193 13.012-13.457 13.632-14.491 13.115-14.646 12.65-14.929 12.237-15.343 11.668-14.206 10.791-12.941 9.604-11.546" fill="#ffffff"/>
<path transform="matrix(1,0,0,-1,308.902,346.2406)" d="M0 0C-.155-.595-.362-1.408-.619-2.441H5.577C6.092-2.441 6.867-2.416 7.9-2.363V-3.836C6.867-3.785 6.092-3.758 5.577-3.758H-.929C-1.239-4.533-1.576-5.308-1.936-6.083H6.274C5.292-8.46 3.923-10.449 2.169-12.05 3.563-13.032 5.602-13.677 8.287-13.987 7.925-14.4 7.616-14.917 7.358-15.537 6.325-15.33 5.267-15.033 4.183-14.646 3.098-14.258 2.039-13.702 1.007-12.98 .181-13.497-.827-13.999-2.014-14.491-3.202-14.981-4.415-15.382-5.654-15.692-5.758-15.175-6.016-14.684-6.428-14.219-5.293-14.064-4.157-13.793-3.021-13.406-1.885-13.018-.878-12.541 0-11.972-.878-11.095-1.859-9.829-2.943-8.175-3.512-9.105-4.234-10.01-5.112-10.887-5.99-11.766-6.945-12.567-7.977-13.29-8.184-12.929-8.597-12.541-9.217-12.127-8.442-11.714-7.681-11.172-6.932-10.5-6.184-9.829-5.396-8.938-4.57-7.827-3.744-6.716-3.047-5.36-2.478-3.758-3.822-3.758-4.854-3.785-5.576-3.836-6.3-3.888-6.842-3.991-7.203-4.146-7.358-3.681-7.565-3.191-7.822-2.673-7.307-2.571-6.932-2.183-6.699-1.511-6.467-.84-6.223 .194-5.964 1.589-5.551 1.381-4.983 1.174-4.26 .969-4.519 .451-4.751-.078-4.957-.62-5.164-1.162-5.396-1.77-5.654-2.441H-2.091C-1.678-.788-1.369 .787-1.162 2.286-.594 1.976 0 1.794 .62 1.743 .361 1.174 .155 .593 0 0M1.162-11.197C2.297-10.267 3.304-8.977 4.183-7.323H-1.859C-1.136-8.615-.129-9.907 1.162-11.197M6.119-.814C5.757-1.021 5.318-1.356 4.802-1.821 3.976-.633 3.176 .374 2.401 1.201 2.762 1.459 3.124 1.794 3.485 2.208 4.363 1.226 5.24 .219 6.119-.814" fill="#ffffff"/>
<path transform="matrix(1,0,0,-1,323.6181,346.7056)" d="M0 0C-.207-.542-.414-1.073-.62-1.589H4.027V1.124C4.027 1.794 4.001 2.441 3.95 3.061H5.731C5.679 2.492 5.654 1.846 5.654 1.124V-1.589H9.062C9.887-1.589 10.817-1.563 11.85-1.511V-3.061C10.869-3.01 9.939-2.983 9.062-2.983H5.654V-6.47H8.055C8.777-6.47 9.655-6.445 10.688-6.393V-7.943C9.707-7.892 8.83-7.865 8.055-7.865H5.654V-12.515H10.301C11.126-12.515 12.083-12.489 13.167-12.437V-13.909C12.133-13.857 11.178-13.832 10.301-13.832H-.852C-1.731-13.832-2.633-13.857-3.563-13.909V-12.437C-2.582-12.489-1.679-12.515-.852-12.515H4.027V-7.865H1.162C.438-7.865-.31-7.892-1.084-7.943V-6.393C-.31-6.445 .438-6.47 1.162-6.47H4.027V-2.983H-1.162C-1.626-4.068-2.091-4.998-2.556-5.773-3.125-5.515-3.744-5.335-4.415-5.231-3.847-4.611-3.241-3.617-2.595-2.247-1.95-.879-1.498 .581-1.239 2.131L.774 1.356C.465 .994 .206 .542 0 0" fill="#ffffff"/>
<path transform="matrix(1,0,0,-1,132.3911,311.88893)" d="M0 0C1.652 0 2.868 .045 3.649 .138V-1.171C2.868-1.126 1.675-1.102 .069-1.102V-3.926H2.891C2.845-4.937 2.823-6.016 2.823-7.164 2.823-8.266 2.845-9.483 2.891-10.814H1.515V-9.712H-1.997V-11.021H-3.374C-3.328-9.827-3.305-8.634-3.305-7.439-3.305-6.199-3.328-5.028-3.374-3.926H-1.308C-1.308-.161-1.332 2.273-1.377 3.375H.069C.023 2.318 0 1.194 0 0M1.583-5.028H-1.997V-8.541H1.583ZM9.811-5.82C9.374-6.671 8.835-7.554 8.193-8.472 8.973-9.805 9.615-10.562 10.12-10.745 10.625-10.928 11.038-10.309 11.36-8.886 11.726-9.299 12.162-9.667 12.668-9.988 12.024-11.41 11.302-12.18 10.499-12.295 9.695-12.409 8.628-11.457 7.298-9.437 6.747-10.034 6.184-10.562 5.611-11.021 5.036-11.479 4.314-12.008 3.442-12.605 3.167-12.237 2.823-11.87 2.41-11.503 2.96-11.273 3.671-10.838 4.544-10.194 5.415-9.552 6.127-8.886 6.678-8.197 6.448-7.738 6.196-6.969 5.921-5.889 5.645-4.811 5.461-3.835 5.37-2.962 4.544-3.1 3.74-3.261 2.96-3.444 2.868-2.986 2.776-2.572 2.685-2.204 3.373-2.113 4.222-1.975 5.232-1.791 5.14 .183 5.048 1.951 4.957 3.513 5.508 3.467 6.012 3.444 6.471 3.444 6.379 2.112 6.379 .436 6.471-1.584 7.48-1.447 9.179-1.126 11.566-.62 11.566-1.033 11.611-1.447 11.704-1.86 10.647-2.044 8.95-2.342 6.609-2.755 6.838-4.592 7.16-6.039 7.573-7.095 8.031-6.452 8.375-5.832 8.606-5.235 8.835-4.639 9.064-3.995 9.294-3.306 9.845-3.628 10.349-3.857 10.809-3.995 10.579-4.363 10.246-4.971 9.811-5.82M10.533 .758C10.12 .482 9.73 .16 9.363-.207 9.088 .252 8.537 .964 7.711 1.929 8.078 2.158 8.444 2.411 8.812 2.686 9.684 1.676 10.258 1.033 10.533 .758" fill="#ffffff"/>
<path transform="matrix(1,0,0,-1,152.8385,313.1288)" d="M0 0V-6.199C0-6.981 .022-7.921 .069-9.023H-1.17V-8.128H-4.819V-9.437H-6.127C-6.036-8.703-5.99-7.876-5.99-6.957V0C-5.99 1.056-6.036 1.997-6.127 2.824H.069C.022 1.767 0 .827 0 0M-3.58 1.791H-4.819V-1.9970001H-3.58ZM-3.58-3.1H-4.819V-7.026H-3.58ZM-1.17 1.791H-2.409V-1.9970001H-1.17ZM-1.17-3.1H-2.409V-7.026H-1.17ZM3.649 2.824H8.261C7.986 1.951 7.607 1.078 7.125 .207 6.644-.666 6.104-1.424 5.508-2.066 6.012-2.526 6.644-2.882 7.401-3.134 8.158-3.387 8.881-3.559 9.57-3.651 9.202-4.156 8.95-4.615 8.812-5.028 8.169-4.891 7.458-4.649 6.678-4.305 5.897-3.961 5.208-3.513 4.613-2.962 4.245-3.237 3.763-3.582 3.167-3.995 2.57-4.408 1.813-4.822 .895-5.235 .711-4.776 .458-4.363 .138-3.995 .826-3.766 1.434-3.525 1.962-3.272 2.489-3.02 3.121-2.595 3.855-1.998 3.58-1.631 3.327-1.24 3.098-.827 2.868-.413 2.661-.024 2.478 .344 2.203-.161 1.813-.781 1.308-1.515 1.124-1.24 .734-.964 .138-.689 .78 0 1.342 .861 1.824 1.894 2.306 2.927 2.639 3.902 2.823 4.822 3.327 4.591 3.878 4.385 4.475 4.202 4.2 3.926 3.924 3.467 3.649 2.824M7.848-6.75V-9.437C7.848-10.033 7.871-10.676 7.917-11.365H6.609V-10.056H3.029V-11.434H1.721C1.766-10.653 1.79-9.941 1.79-9.299V-6.819C1.79-6.13 1.766-5.488 1.721-4.891H7.917C7.871-5.442 7.848-6.061 7.848-6.75M6.609-5.993H3.0290004V-8.886H6.609ZM6.54 1.791H3.167C3.534 .643 4.062-.344 4.75-1.171 5.439-.391 6.035 .596 6.54 1.791" fill="#ffffff"/>
<path transform="matrix(1,0,0,-1,170.8072,309.4092)" d="M0 0C1.102 0 1.95 .023 2.547 .069V-1.171C2.042-1.126 1.377-1.102 .551-1.102V-5.924C1.515-5.924 2.226-5.901 2.685-5.855V-7.164C2.272-7.118 1.56-7.095 .551-7.095V-11.985C.551-12.996 .573-13.776 .62-14.327H-.757C-.712-13.683-.688-12.927-.688-12.054V-7.095H-3.029C-3.122-9.299-3.42-10.986-3.924-12.157-4.43-13.328-4.888-14.189-5.301-14.74-5.807-14.372-6.289-14.143-6.747-14.052-6.013-13.318-5.428-12.388-4.991-11.262-4.556-10.137-4.315-8.748-4.268-7.095-5.049-7.095-5.76-7.118-6.403-7.164V-5.855C-5.76-5.901-5.026-5.924-4.2-5.924V-1.102C-4.98-1.102-5.554-1.126-5.921-1.171V.069C-5.554 .023-4.843 0-3.787 0ZM-.688-1.102H-2.96V-5.924H-.688ZM6.609-12.088C5.324-13.168 4.084-14.074 2.892-14.809 2.616-14.396 2.248-14.005 1.79-13.638 2.983-13.133 4.2-12.353 5.439-11.296 6.678-10.241 7.504-9.414 7.917-8.817 8.238-9.185 8.675-9.529 9.225-9.85 8.766-10.263 7.894-11.01 6.609-12.088M6.713-7.026C5.863-7.99 4.682-9.023 3.167-10.125 2.892-9.758 2.501-9.414 1.997-9.092 3.281-8.358 4.337-7.566 5.163-6.716 5.99-5.867 6.678-5.028 7.229-4.202 7.825-4.708 8.284-5.028 8.606-5.166 8.193-5.442 7.561-6.061 6.713-7.026M6.368-2.101C5.702-2.996 4.796-4.019 3.649-5.166 3.236-4.845 2.823-4.57 2.41-4.339 3.419-3.468 4.2-2.686 4.75-1.998 5.301-1.309 5.897-.413 6.54 .689 6.77 .551 7.274 .276 8.055-.138 7.596-.551 7.033-1.205 6.368-2.101" fill="#ffffff"/>
<path transform="matrix(1,0,0,-1,190.3594,308.376)" d="M0 0C.551-.046 1.078-.093 1.583-.138 1.491-.735 1.468-1.815 1.515-3.375H3.511C4.475-3.375 5.53-3.353 6.678-3.306V-4.615C5.484-4.57 4.429-4.546 3.511-4.546H1.583C1.629-6.292 1.928-8.197 2.478-10.263 3.35-8.932 4.038-7.394 4.544-5.648 5.002-6.016 5.53-6.337 6.127-6.612 5.759-7.026 5.346-7.715 4.888-8.679 4.429-9.643 3.832-10.654 3.098-11.71 3.511-12.536 3.959-13.191 4.441-13.673 4.922-14.155 5.255-14.361 5.439-14.293 5.622-14.224 5.806-13.432 5.99-11.916 6.448-12.284 6.93-12.56 7.435-12.743 7.114-14.625 6.758-15.67 6.368-15.877 5.978-16.083 5.508-16.083 4.957-15.877 4.406-15.67 3.89-15.28 3.408-14.706 2.926-14.132 2.524-13.5 2.203-12.812 1.102-14.006-.299-15.13-1.996-16.187-2.227-15.774-2.571-15.405-3.029-15.085-2.112-14.671-1.228-14.12-.379-13.432 .47-12.743 1.102-12.1 1.515-11.503 1.193-10.631 .918-9.564 .688-8.3 .458-7.038 .321-5.786 .275-4.546H-5.645V-6.957H-1.17C-1.263-7.783-1.332-8.634-1.377-9.505L-1.583-12.261C-1.63-13.133-1.871-13.662-2.306-13.845-2.743-14.029-3.489-14.167-4.544-14.258-4.59-13.845-4.774-13.34-5.095-12.743-3.948-12.789-3.282-12.72-3.098-12.536-2.915-12.353-2.8-11.825-2.754-10.952L-2.616-8.197H-5.645C-5.645-9.988-5.783-11.48-6.059-12.674-6.334-13.869-6.839-14.97-7.573-15.98-8.079-15.612-8.537-15.36-8.95-15.222-8.354-14.487-7.941-13.788-7.711-13.122-7.482-12.457-7.31-11.733-7.194-10.952-7.08-10.172-7.012-9.07-6.988-7.646-6.965-6.223-6.977-4.799-7.022-3.375H.138C.091-2.044 .045-.919 0 0M5.99-2.204C5.577-2.526 5.209-2.848 4.888-3.168 4.337-2.434 3.603-1.677 2.685-.895 3.006-.62 3.305-.322 3.58 0 4.498-.735 5.301-1.47 5.99-2.204" fill="#ffffff"/>
<path transform="matrix(1,0,0,-1,212.459,316.5039)" d="M0 0C.78 0 1.652 .023 2.616 .069V-1.171C1.652-1.126 .78-1.102 0-1.102H-4.406V-2.824C-1.698-2.824 .069-2.801 .895-2.755V-3.995C.069-3.95-1.698-3.926-4.406-3.926V-5.993C-3.535-6.13-2.456-6.199-1.17-6.199 .114-6.199 1.537-6.108 3.098-5.924 2.73-6.428 2.501-6.979 2.41-7.577H-1.102C-2.112-7.577-3.053-7.519-3.924-7.405-4.797-7.289-5.657-7.071-6.506-6.75-7.356-6.428-8.261-5.855-9.225-5.028-9.409-5.396-9.673-5.82-10.017-6.303-10.361-6.785-10.878-7.37-11.566-8.059-12.025-7.691-12.485-7.37-12.943-7.095-12.025-6.544-11.268-5.741-10.671-4.684-10.075-3.628-9.731-2.641-9.638-1.722L-7.986-2.204C-8.124-2.388-8.354-2.917-8.674-3.788-7.848-4.661-6.862-5.281-5.714-5.648V-1.102H-10.12C-10.946-1.102-11.819-1.126-12.736-1.171V.069C-11.773 .023-10.901 0-10.12 0ZM-.069 4.615C-.069 3.42-.046 2.296 0 1.24H-10.258C-10.213 2.296-10.189 3.42-10.189 4.615-10.189 5.855-10.213 6.819-10.258 7.508H0C-.046 6.819-.069 5.855-.069 4.615M-1.446 6.406H-8.813V5.028H-1.446ZM-1.446 3.857H-8.813V2.4110003H-1.446ZM-1.446 2.411" fill="#ffffff"/>
<path transform="matrix(1,0,0,-1,219.8256,320.8778)" d="M0 0C-.506-1.171-1.056-2.33-1.652-3.478-2.02-3.203-2.456-2.881-2.96-2.514-2.502-2.008-1.986-1.195-1.411-.069-.838 1.056-.39 2.123-.069 3.134 .252 2.812 .642 2.514 1.102 2.239 .872 1.917 .505 1.171 0 0M-2.892 6.785C-2.662 7.06-2.433 7.427-2.203 7.887-.919 7.289 .183 6.647 1.102 5.958 .78 5.545 .505 5.154 .276 4.787-.551 5.476-1.607 6.141-2.892 6.785M-2.341 11.193C-2.112 11.469-1.859 11.789-1.583 12.157-.39 11.469 .62 10.78 1.446 10.091 1.17 9.769 .895 9.402 .62 8.989-.206 9.769-1.194 10.504-2.341 11.193M5.026 10.849C4.107 10.849 3.281 10.825 2.547 10.78V11.951C3.236 11.904 4.062 11.882 5.026 11.882H11.842V10.917C10.923 10.366 9.592 9.333 7.849 7.818H12.117V-2.101C12.117-2.514 12.002-2.812 11.773-2.996 11.543-3.179 10.878-3.363 9.776-3.547 9.684-3.179 9.455-2.697 9.088-2.101 9.821-2.146 10.303-2.135 10.534-2.066 10.763-1.997 10.878-1.849 10.878-1.619V.103H7.78C7.78-1.274 7.802-2.353 7.849-3.134H6.471C6.517-2.215 6.54-1.137 6.54 .103H3.718V-3.547H2.41C2.455-2.353 2.479-1.321 2.479-.448V5.338C2.479 6.165 2.455 6.991 2.41 7.818H6.127C5.577 8.414 5.164 8.851 4.888 9.127 5.117 9.402 5.37 9.723 5.646 10.091 6.104 9.723 6.609 9.264 7.16 8.713 7.94 9.31 8.766 10.022 9.639 10.849ZM6.54 6.647H3.717V4.581H6.54ZM6.54 3.341H3.717V1.343H6.54ZM10.878 6.647H7.78V4.581H10.878ZM10.878 3.341H7.78V1.343H10.878ZM10.878 1.343" fill="#ffffff"/>
<path transform="matrix(1,0,0,-1,238.8271,310.0292)" d="M0 0C.505 0 1.124 .023 1.859 .069V-1.24C1.124-1.195 .344-1.171-.482-1.171V-4.959C.16-4.959 .849-4.937 1.583-4.89V-6.199C.849-6.154 .16-6.13-.482-6.13V-10.332C.298-10.149 1.102-9.919 1.928-9.643 1.881-10.149 1.859-10.585 1.859-10.952 .344-11.32-.873-11.664-1.79-11.985-2.709-12.307-3.397-12.582-3.855-12.812-3.993-12.169-4.177-11.618-4.406-11.159-3.673-11.067-2.778-10.907-1.721-10.676V-6.13C-2.456-6.13-3.167-6.154-3.855-6.199V-4.89C-3.167-4.937-2.456-4.959-1.721-4.959V-1.171C-2.547-1.171-3.282-1.195-3.924-1.24V.069C-3.373 .023-2.846 0-2.341 0ZM7.332-4.546C7.263-5.648 7.114-6.819 6.885-8.059H8.262C8.215-8.518 8.193-9.138 8.193-9.919V-12.123C8.193-12.812 8.318-13.179 8.571-13.225 8.823-13.27 9.11-13.282 9.432-13.259 9.752-13.236 9.983-13.075 10.12-12.777 10.258-12.479 10.349-11.94 10.396-11.159 10.854-11.434 11.36-11.618 11.91-11.71 11.68-12.674 11.451-13.328 11.222-13.673 10.992-14.017 10.51-14.234 9.776-14.327H8.399C7.389-14.327 6.885-13.89 6.885-13.018V-8.197C6.471-9.667 5.874-10.895 5.094-11.882 4.314-12.869 3.143-13.776 1.583-14.603 1.353-14.234 .964-13.914 .413-13.638 1.881-13.041 2.96-12.388 3.649-11.675 4.337-10.964 4.888-10.056 5.301-8.954 5.714-7.852 5.955-6.705 6.024-5.51 6.093-4.317 6.104-3.123 6.059-1.929 6.654-2.021 7.205-2.09 7.711-2.135 7.527-2.641 7.401-3.444 7.332-4.546M10.671-1.515V-6.13C10.671-7.003 10.694-7.761 10.74-8.403H9.432V-.413H4.2V-8.472H2.891C2.937-7.692 2.96-6.819 2.96-5.855V-2.066C2.96-1.057 2.937-.138 2.891 .689H10.74C10.694-.046 10.671-.781 10.671-1.515" fill="#ffffff"/>
<path transform="matrix(1,0,0,-1,256.1763,311.88893)" d="M0 0H3.098C3.052-.781 3.029-1.768 3.029-2.962V-9.023C3.029-9.712 3.052-10.7 3.098-11.985H1.721V-10.608H-1.79V-12.123H-3.167C-3.122-10.654-3.098-9.736-3.098-9.368V-3.031C-3.098-1.791-3.122-.781-3.167 0H-1.17C-.941 1.056-.757 2.158-.62 3.306 .023 3.076 .551 2.916 .964 2.824 .734 2.411 .413 1.469 0 0M1.721-1.171H-1.79V-4.615H1.721ZM1.721-5.786H-1.79V-9.437H1.721ZM10.878-10.401C10.785-11.227 10.349-11.779 9.57-12.054 8.789-12.33 7.917-12.512 6.953-12.605 6.907-12.099 6.701-11.572 6.334-11.021 7.252-11.066 7.974-11.043 8.503-10.952 9.03-10.86 9.363-10.654 9.501-10.332 9.639-10.011 9.742-9.07 9.811-7.508 9.879-5.947 9.936-3.766 9.983-.964H5.99C5.622-1.837 5.095-2.87 4.406-4.064 4.085-3.743 3.694-3.49 3.236-3.306 3.649-2.755 4.038-2.09 4.406-1.309 4.773-.528 5.095 .321 5.37 1.24 5.645 2.158 5.806 2.869 5.852 3.375 6.494 3.1 7.045 2.893 7.504 2.755 7.274 2.387 7.079 1.986 6.919 1.55 6.758 1.113 6.586 .689 6.403 .276H11.291C11.245-.689 11.222-1.584 11.222-2.411 11.176-5.212 11.061-7.876 10.878-10.401M7.16-5.235C7.436-5.786 7.756-6.498 8.124-7.37 7.802-7.508 7.367-7.738 6.816-8.059 6.494-7.187 6.196-6.44 5.921-5.82 5.645-5.2 5.37-4.684 5.095-4.271 5.415-4.088 5.828-3.857 6.334-3.582Z" fill="#ffffff"/>
<path transform="matrix(1,0,0,-1,272.493,320.9811)" d="M0 0V5.028C-1.102 5.028-1.905 5.005-2.41 4.959V6.337C-1.997 6.244-1.148 6.199 .137 6.199H1.446C1.399 5.51 1.377 4.822 1.377 4.133V-.138C2.708-1.286 4.67-1.871 7.263-1.894 9.856-1.917 11.91-1.813 13.425-1.584 13.15-2.043 12.943-2.617 12.805-3.306H8.675C7.527-3.306 6.471-3.272 5.507-3.203 4.544-3.134 3.728-2.938 3.064-2.617 2.398-2.296 1.812-1.951 1.308-1.584 .802-1.217 .332-1.252-.103-1.688-.54-2.123-1.033-2.732-1.584-3.513-1.859-3.053-2.272-2.663-2.823-2.342-1.401-1.102-.46-.322 0 0M1.79 8.886C1.331 8.61 .895 8.311 .482 7.99-.437 9.551-1.125 10.539-1.584 10.952-1.17 11.181-.757 11.503-.344 11.916 .114 11.365 .826 10.355 1.79 8.886M8.468 .62C8.743 .711 8.881 1.102 8.881 1.791V8.059H4.406C3.9 8.059 3.35 8.035 2.754 7.99V9.299C3.35 9.253 4.084 9.23 4.957 9.23H8.881C8.881 10.423 8.835 11.457 8.743 12.33H10.327C10.281 11.732 10.258 10.699 10.258 9.23 11.222 9.23 12.093 9.253 12.874 9.299V7.99C12.139 8.035 11.267 8.059 10.258 8.059V1.24C10.258 .183 9.948-.448 9.329-.654 8.709-.861 7.94-.988 7.022-1.033 6.93-.528 6.747 0 6.471 .551 7.527 .505 8.193 .527 8.468 .62M3.58 6.061C3.993 6.244 4.428 6.497 4.888 6.819 5.714 5.166 6.241 4.018 6.471 3.375 6.15 3.191 5.69 2.938 5.094 2.617 4.681 3.857 4.176 5.005 3.58 6.061" fill="#ffffff"/>
<path transform="matrix(1,0,0,-1,290.3585,309.0304)" d="M0 0C.986 .207 1.825 .47 2.513 .792 2.833 .195 3.155-.31 3.477-.723 3.155-.678 2.823-.689 2.479-.758 2.134-.827 1.756-.885 1.343-.93V-4.305C1.985-4.305 2.673-4.282 3.408-4.236V-5.545C2.673-5.5 1.985-5.476 1.343-5.476V-11.537C1.343-12.548 1.365-13.902 1.411-15.601H.034C.08-13.902 .103-12.571 .103-11.606V-8.438C-.54-9.724-1.251-10.941-2.031-12.088-2.353-11.63-2.719-11.217-3.132-10.849-2.49-10.206-1.917-9.471-1.411-8.644-.907-7.818-.447-6.762-.034-5.476-1.182-5.476-2.031-5.5-2.582-5.545V-4.236C-1.802-4.282-1.229-4.305-.86-4.305H.103V-1.205C-.494-1.343-1.251-1.481-2.169-1.619-2.306-1.205-2.468-.816-2.651-.448-1.871-.356-.987-.207 0 0M4.028-9.54C3.752-9.724 3.384-9.999 2.926-10.366 2.467-9.357 2.007-8.53 1.549-7.887 1.825-7.658 2.169-7.405 2.582-7.129 3.04-7.818 3.522-8.622 4.028-9.54M10.292-6.854C11.026-6.854 11.807-6.831 12.633-6.785V-8.025C11.807-7.979 11.026-7.956 10.292-7.956H8.984V-10.16H9.742C10.43-10.16 11.233-10.137 12.151-10.091V-11.4C11.233-11.354 10.499-11.331 9.948-11.331H8.984V-13.742H10.637C11.463-13.742 12.334-13.719 13.253-13.673V-14.981C12.518-14.935 11.646-14.913 10.637-14.913H6.024C5.014-14.913 4.142-14.958 3.408-15.05V-13.673C4.142-13.719 5.014-13.742 6.024-13.742H7.676V-11.331H6.713C5.978-11.331 5.289-11.377 4.647-11.469V-10.091C5.289-10.137 5.978-10.16 6.713-10.16H7.676V-7.956H6.575C5.749-7.956 4.968-7.979 4.234-8.025V-6.785C4.968-6.831 5.749-6.854 6.575-6.854ZM12.22-2.79C12.22-3.571 12.243-4.351 12.289-5.132H4.578C4.624-4.26 4.647-3.433 4.647-2.652 4.647-1.872 4.624-.999 4.578-.034H12.289C12.243-1.045 12.22-1.963 12.22-2.79M10.774-1.205H5.886V-3.8910003H10.774ZM10.774-3.892" fill="#ffffff"/>
<path transform="matrix(1,0,0,-1,190.718,203.86569)" d="M0 0C-.826 .045-1.538 .069-2.134 .069H-6.196C-6.518-.575-6.908-1.286-7.367-2.066V-10.676C-7.367-11.596-7.344-12.628-7.298-13.776H-8.812C-8.767-12.674-8.743-11.641-8.743-10.676V-3.926C-10.167-5.901-12.094-7.715-14.527-9.368-14.895-8.817-15.239-8.427-15.559-8.197-14.642-7.783-13.425-6.9-11.91-5.545-10.396-4.191-8.996-2.319-7.711 .069H-12.255C-13.127 .069-14.045 .045-15.008 0V1.378C-13.632 1.331-12.576 1.309-11.842 1.309H-2.203C-1.607 1.309-.872 1.331 0 1.378ZM-6.127-4.064C-5.76-3.743-5.463-3.421-5.232-3.1-4.131-4.11-3.191-4.994-2.41-5.751-1.63-6.509-.895-7.256-.207-7.99-.666-8.358-1.079-8.748-1.446-9.161-2.318-8.059-3.879-6.361-6.127-4.064" fill="#ffffff"/>
<path transform="matrix(1,0,0,-1,194.6422,214.8176)" d="M0 0H4.268C5.002 0 5.691 .023 6.334 .069V-1.171C5.691-1.126 4.795-1.102 3.649-1.102H-1.377C-1.332-.413-1.308 .39-1.308 1.309V9.299C-1.308 10.125-1.332 10.859-1.377 11.503H.069C.023 10.859 0 10.217 0 9.574ZM4.406 12.881C4.36 12.375 4.337 11.686 4.337 10.814V7.577C5.209 7.577 6.012 7.599 6.747 7.646V6.406C6.058 6.497 5.255 6.544 4.337 6.544V2.686C4.337 1.86 4.36 1.147 4.406 .551H3.029C3.074 1.882 3.098 3.306 3.098 4.822 2.592 3.535 1.973 2.411 1.239 1.446 .871 1.767 .527 2.043 .206 2.273 1.353 3.696 2.134 5.12 2.547 6.544 2.134 6.544 1.491 6.52 .62 6.475V7.646C1.262 7.599 2.088 7.577 3.098 7.577V10.745C3.098 11.663 3.074 12.375 3.029 12.881ZM1.859 11.71C2.088 10.286 2.248 9.321 2.341 8.817 2.019 8.77 1.606 8.701 1.102 8.61 1.055 9.115 .871 10.102 .551 11.572 1.009 11.617 1.446 11.663 1.859 11.71M7.229 2.893 6.127 2.066C5.714 2.984 5.163 3.995 4.475 5.097 4.704 5.28 5.026 5.487 5.439 5.717 5.99 4.753 6.586 3.811 7.229 2.893M6.471 9.953C6.288 9.471 6.081 8.977 5.852 8.472 5.484 8.655 5.095 8.817 4.682 8.954 5.232 9.872 5.622 10.837 5.852 11.847 6.31 11.617 6.769 11.41 7.229 11.227 6.907 10.859 6.654 10.435 6.471 9.953M10.809 11.606C11.773 11.767 12.484 11.961 12.943 12.192 13.081 11.824 13.356 11.342 13.769 10.745 13.31 10.745 12.702 10.711 11.945 10.642 11.188 10.573 10.212 10.492 9.019 10.401V7.095H12.599C12.966 7.095 13.425 7.117 13.976 7.164V5.924C13.379 5.969 12.851 5.993 12.392 5.993V-.689C12.392-1.469 12.437-2.18 12.53-2.824H11.084C11.176-2.043 11.222-1.263 11.222-.482V5.993H9.019C9.019 4.798 8.973 3.72 8.881 2.755 8.789 1.791 8.651 .93 8.468 .172 8.284-.585 7.733-1.629 6.816-2.962 6.448-2.686 6.058-2.456 5.645-2.273 6.471-1.263 7.022-.276 7.298 .689 7.573 1.653 7.733 2.64 7.78 3.651 7.825 4.66 7.848 5.993 7.848 7.646 7.848 9.299 7.802 10.539 7.711 11.365 8.812 11.365 9.845 11.445 10.809 11.606" fill="#ffffff"/>
<path transform="matrix(1,0,0,-1,213.4715,213.57779)" d="M0 0C-.391-1.24-.998-2.526-1.824-3.857-2.1-3.582-2.537-3.306-3.132-3.031-2.399-2.021-1.824-.873-1.411 .413-.998 1.698-.746 3.041-.654 4.443-.562 5.843-.528 6.945-.551 7.749-.574 8.552-.585 9.368-.585 10.194 .379 10.148 1.308 10.148 2.203 10.194 3.098 10.239 4.325 10.332 5.887 10.47 7.446 10.607 8.938 10.859 10.362 11.227 10.637 10.676 10.935 10.171 11.256 9.712 9.833 9.62 8.078 9.482 5.99 9.299 3.901 9.115 2.169 9.023 .792 9.023V6.406H10.774C10.499 5.441 10.028 4.271 9.363 2.893 8.697 1.515 7.906 .298 6.988-.758 7.584-1.217 8.491-1.653 9.707-2.066 10.923-2.48 11.807-2.709 12.358-2.755 11.898-3.076 11.577-3.558 11.394-4.202 10.659-4.018 9.776-3.72 8.743-3.306 7.711-2.893 6.781-2.342 5.955-1.653 5.22-2.204 4.36-2.709 3.373-3.169 2.386-3.627 1.296-4.018 .103-4.339 .011-3.926-.265-3.513-.723-3.1 .379-2.869 1.457-2.538 2.513-2.101 3.568-1.665 4.372-1.217 4.923-.758 4.234 .023 3.625 .884 3.098 1.825 2.57 2.766 2.1 3.88 1.687 5.166H.792C.654 2.962 .39 1.24 0 0M5.955 .207C7.195 1.629 8.135 3.283 8.778 5.166H3.064C3.844 3.007 4.808 1.354 5.955 .207" fill="#ffffff"/>
<path transform="matrix(1,0,0,-1,229.2028,216.2641)" d="M0 0C-.506 .276-.964 .505-1.377 .689-.689 1.698 0 3.122 .689 4.959 1.102 4.591 1.583 4.385 2.134 4.339 1.491 3.007 .78 1.561 0 0M12.874 9.85C12.874 8.564 12.897 7.278 12.943 5.993H.895C.94 7.324 .964 8.633 .964 9.919 .964 11.204 .94 12.49 .895 13.776H12.943C12.897 12.444 12.874 11.135 12.874 9.85M6.265 12.605H2.3409999V10.539H6.265ZM6.265 9.299H2.3409999V7.1639997H6.265ZM4.613 2.617V.964C4.567 .321 4.911 .024 5.645 .069H9.156C9.477 .069 9.752 .149 9.983 .31 10.212 .47 10.396 1.078 10.534 2.135 10.992 1.722 11.497 1.446 12.048 1.309 11.727 .252 11.348-.413 10.912-.689 10.475-.964 9.983-1.102 9.432-1.102H4.613C3.786-1.102 3.35-.665 3.305 .207V2.617C3.305 3.122 3.281 3.673 3.236 4.271H4.682C4.635 3.72 4.613 3.168 4.613 2.617M8.95 2.824C8.353 2.502 7.917 2.227 7.642 1.998 7.136 3.053 6.632 3.926 6.127 4.615 6.54 4.798 6.93 5.028 7.298 5.304 7.802 4.569 8.353 3.742 8.95 2.824M11.566 12.605H7.573V10.539H11.566ZM11.566 9.299H7.573V7.1639997H11.566ZM14.871 1.653C14.458 1.378 14.067 1.056 13.7 .689 13.012 1.791 12.162 2.916 11.153 4.064 11.428 4.202 11.795 4.477 12.255 4.891 13.264 3.742 14.136 2.663 14.871 1.653" fill="#ffffff"/>
</g>
<path transform="matrix(1,0,0,-1,112.1749,167.97492)" d="M0 0 4.682-4.822 9.432 0 10.12-.895 5.508-5.648 10.12-10.401 9.432-11.227 4.682-6.406 .069-11.227H0L-.688-10.401 3.993-5.579-.688-.827Z" fill="#ffffff"/>
<g clip-path="url(#clip_5)">
<path transform="matrix(1,0,0,-1,131.7316,175.0007)" d="M0 0C.183 .78 .321 1.354 .413 1.722H-1.102V-4.684C-1.148-5.464-1.446-5.946-1.996-6.13-2.547-6.313-3.167-6.406-3.855-6.406-3.948-5.9-4.108-5.418-4.337-4.959-3.328-5.051-2.743-5.039-2.582-4.925-2.421-4.811-2.341-4.523-2.341-4.064V1.722H-3.098C-3.695 1.722-4.315 1.698-4.957 1.653V2.824C-4.315 2.778-3.718 2.755-3.167 2.755H1.928C1.698 1.836 1.468 .872 1.239-.138 .78-.046 .367 0 0 0M-3.718 5.028C-3.489 5.257-3.236 5.533-2.96 5.855-2.64 5.624-2.318 5.373-1.996 5.097-1.401 5.969-.919 6.612-.551 7.026H-2.065C-2.984 7.026-3.855 7.002-4.682 6.957V8.128C-3.855 8.082-3.007 8.059-2.134 8.059H1.17V7.026C.482 6.52-.299 5.624-1.17 4.339L-.551 3.788C-.919 3.467-1.217 3.191-1.446 2.962-2.089 3.651-2.846 4.339-3.718 5.028M6.747 .758C6.701-.115 6.575-1.091 6.368-2.17 6.162-3.249 5.702-4.145 4.991-4.856 4.279-5.567 3.327-6.244 2.134-6.888 1.721-6.566 1.308-6.268 .895-5.993 1.997-5.579 2.88-5.073 3.546-4.477 4.21-3.881 4.682-3.203 4.957-2.445 5.232-1.688 5.405-.85 5.473 .069 5.542 .987 5.577 1.974 5.577 3.031L7.091 2.893C6.907 2.342 6.792 1.629 6.747 .758M8.399 8.197C9.088 8.197 9.776 8.219 10.465 8.266V7.095C9.776 7.14 9.088 7.164 8.399 7.164H6.472C6.334 6.475 6.196 5.717 6.058 4.891H9.845C9.799 4.202 9.776 3.467 9.776 2.686V-.276C9.776-1.057 9.799-1.86 9.845-2.686H8.537V3.857H3.855V-2.824H2.547C2.593-1.768 2.616-.919 2.616-.276V2.617C2.616 3.351 2.593 4.109 2.547 4.891H4.819C5.002 5.9 5.095 6.658 5.095 7.164H4.337C3.556 7.164 2.754 7.14 1.928 7.095V8.266C2.799 8.219 3.603 8.197 4.337 8.197ZM10.809-5.924C10.396-6.244 10.074-6.544 9.845-6.819 9.248-6.222 8.709-5.705 8.227-5.269 7.745-4.833 7.183-4.432 6.54-4.064 6.77-3.743 6.999-3.399 7.229-3.031 8.973-4.363 10.166-5.326 10.809-5.924" fill="#ffffff"/>
<path transform="matrix(1,0,0,-1,147.291,165.633)" d="M0 0H1.446C1.4-.46 1.377-1.286 1.377-2.48 1.973-2.48 2.661-2.457 3.442-2.411V-3.513C2.708-3.468 2.019-3.444 1.377-3.444 1.377-6.888 1.4-8.954 1.446-9.643H0C.045-8.496 .069-7.279 .069-5.993-.757-7.37-1.469-8.403-2.065-9.092-2.387-8.725-2.778-8.427-3.236-8.197-2.227-7.416-1.194-5.832-.138-3.444-1.056-3.444-1.882-3.468-2.616-3.513V-2.411C-1.882-2.457-.987-2.48 .069-2.48 .069-1.699 .045-.873 0 0M-.895-15.705C-1.308-15.567-1.814-15.405-2.41-15.222-1.859-14.304-1.377-12.927-.964-11.09-.413-11.227 .069-11.343 .482-11.434-.069-13.318-.528-14.74-.895-15.705M4.131-6.888C3.809-7.118 3.465-7.394 3.098-7.715 2.823-7.118 2.363-6.383 1.721-5.51 2.042-5.281 2.386-5.028 2.754-4.753 3.35-5.626 3.809-6.337 4.131-6.888M3.236-12.949C3.236-13.5 3.247-13.914 3.27-14.189 3.293-14.465 3.603-14.625 4.2-14.671H7.573C7.848-14.671 8.055-14.603 8.193-14.465 8.33-14.327 8.422-13.845 8.468-13.018 8.835-13.294 9.339-13.5 9.983-13.638 9.661-14.603 9.397-15.188 9.191-15.395 8.984-15.601 8.468-15.705 7.642-15.705H3.236C2.501-15.658 2.1-15.405 2.031-14.947 1.962-14.487 1.928-13.891 1.928-13.156 1.928-12.422 1.904-11.71 1.859-11.021H3.305C3.258-11.71 3.236-12.353 3.236-12.949M11.635-5.373C11.635-7.026 11.658-8.427 11.704-9.574H4.475C4.52-8.61 4.544-7.21 4.544-5.373 4.544-3.537 4.52-1.975 4.475-.689H11.704C11.658-2.159 11.635-3.72 11.635-5.373M7.16-12.674C6.747-12.812 6.334-13.042 5.921-13.363 5.783-13.042 5.37-12.307 4.682-11.159 4.957-10.929 5.346-10.7 5.852-10.47 6.448-11.527 6.885-12.261 7.16-12.674M10.327-1.791H5.8519999V-3.444H10.327ZM10.327-4.477H5.8519999V-5.992H10.327ZM10.327-7.026H5.8519999V-8.61H10.327ZM13.012-13.983C12.553-14.304 12.139-14.625 11.773-14.947 11.405-14.258 10.556-13.133 9.225-11.572 9.73-11.296 10.097-10.998 10.327-10.676 11.52-12.054 12.415-13.156 13.012-13.983" fill="#ffffff"/>
<path transform="matrix(1,0,0,-1,165.4663,169.1459)" d="M0 0C1.652 0 2.868 .045 3.649 .138V-1.171C2.868-1.126 1.675-1.102 .069-1.102V-3.926H2.891C2.845-4.937 2.823-6.016 2.823-7.164 2.823-8.266 2.845-9.483 2.891-10.814H1.515V-9.712H-1.997V-11.021H-3.374C-3.328-9.827-3.305-8.634-3.305-7.439-3.305-6.199-3.328-5.028-3.374-3.926H-1.308C-1.308-.161-1.332 2.273-1.377 3.375H.069C.023 2.318 0 1.194 0 0M1.583-5.028H-1.997V-8.541H1.583ZM9.811-5.82C9.374-6.671 8.835-7.554 8.193-8.472 8.973-9.805 9.615-10.562 10.12-10.745 10.625-10.928 11.038-10.309 11.359-8.885 11.726-9.299 12.162-9.667 12.668-9.988 12.024-11.41 11.302-12.18 10.499-12.295 9.695-12.409 8.628-11.457 7.298-9.437 6.747-10.034 6.184-10.562 5.611-11.021 5.036-11.479 4.314-12.008 3.442-12.605 3.167-12.237 2.823-11.87 2.41-11.503 2.96-11.273 3.671-10.838 4.544-10.194 5.415-9.552 6.127-8.885 6.678-8.197 6.448-7.738 6.196-6.969 5.921-5.889 5.645-4.811 5.461-3.835 5.37-2.962 4.544-3.1 3.74-3.261 2.96-3.444 2.868-2.986 2.776-2.572 2.685-2.204 3.373-2.113 4.222-1.975 5.232-1.791 5.14 .183 5.048 1.951 4.957 3.513 5.508 3.467 6.012 3.444 6.471 3.444 6.379 2.112 6.379 .436 6.471-1.584 7.48-1.446 9.179-1.126 11.566-.62 11.566-1.033 11.611-1.446 11.704-1.86 10.647-2.044 8.95-2.342 6.609-2.755 6.838-4.592 7.16-6.039 7.573-7.095 8.031-6.452 8.375-5.832 8.606-5.235 8.835-4.639 9.064-3.995 9.294-3.306 9.845-3.628 10.349-3.857 10.809-3.995 10.579-4.363 10.246-4.971 9.811-5.82M10.533 .758C10.12 .482 9.73 .16 9.363-.207 9.088 .252 8.537 .964 7.711 1.929 8.078 2.158 8.444 2.411 8.812 2.686 9.684 1.676 10.258 1.033 10.533 .758" fill="#ffffff"/>
<path transform="matrix(1,0,0,-1,185.9136,170.38571)" d="M0 0V-6.199C0-6.981 .022-7.921 .069-9.023H-1.17V-8.128H-4.819V-9.437H-6.127C-6.036-8.703-5.99-7.876-5.99-6.957V0C-5.99 1.056-6.036 1.998-6.127 2.824H.069C.022 1.767 0 .827 0 0M-3.58 1.791H-4.819V-1.9970001H-3.58ZM-3.58-3.1H-4.819V-7.026H-3.58ZM-1.17 1.791H-2.409V-1.9970001H-1.17ZM-1.17-3.1H-2.409V-7.026H-1.17ZM3.649 2.824H8.261C7.986 1.951 7.607 1.078 7.125 .207 6.644-.666 6.104-1.424 5.508-2.066 6.012-2.526 6.644-2.882 7.401-3.134 8.158-3.387 8.881-3.559 9.57-3.651 9.202-4.156 8.95-4.615 8.812-5.028 8.169-4.89 7.458-4.649 6.678-4.305 5.897-3.961 5.208-3.513 4.613-2.962 4.245-3.237 3.763-3.582 3.167-3.995 2.57-4.408 1.812-4.822 .895-5.235 .711-4.776 .458-4.363 .138-3.995 .826-3.766 1.434-3.525 1.962-3.272 2.489-3.02 3.121-2.595 3.855-1.998 3.58-1.631 3.327-1.24 3.098-.827 2.868-.413 2.661-.024 2.478 .344 2.203-.161 1.812-.781 1.308-1.515 1.124-1.24 .734-.964 .138-.689 .78 0 1.342 .861 1.824 1.894 2.306 2.927 2.639 3.902 2.823 4.822 3.327 4.591 3.878 4.385 4.475 4.202 4.2 3.926 3.924 3.467 3.649 2.824M7.848-6.75V-9.437C7.848-10.033 7.871-10.676 7.917-11.365H6.609V-10.056H3.029V-11.434H1.721C1.766-10.653 1.79-9.941 1.79-9.299V-6.819C1.79-6.13 1.766-5.488 1.721-4.89H7.917C7.871-5.441 7.848-6.061 7.848-6.75M6.609-5.993H3.0290004V-8.886H6.609ZM6.54 1.791H3.167C3.534 .643 4.062-.344 4.75-1.171 5.439-.391 6.035 .596 6.54 1.791" fill="#ffffff"/>
</g>
<path transform="matrix(1,0,0,-1,0,595.276)" d="M210.146 412.905H208.769V430.401H210.146Z" fill="#ffffff"/>
<path transform="matrix(1,0,0,-1,236.86,167.56162)" d="M0 0-4.2-12.605-7.78-7.921-8.743-8.817-9.225-8.334-7.504-6.544-4.475-10.194-.964 .482Z" fill="#ffffff"/>
<g clip-path="url(#clip_6)">
<path transform="matrix(1,0,0,-1,244.9109,170.79901)" d="M0 0C-.046-.827-.069-1.791-.069-2.893V-6.888C.389-6.43 .895-5.855 1.446-5.166 1.629-5.626 1.881-6.108 2.203-6.612 1.515-7.256 .929-7.852 .447-8.403-.034-8.954-.528-9.551-1.033-10.194-1.354-9.688-1.745-9.275-2.203-8.954-1.699-8.541-1.446-8.083-1.446-7.577V-1.171C-2.456-1.171-3.259-1.195-3.855-1.24V.069C-3.305 .023-2.685 0-1.997 0ZM1.102 2.617C.688 2.342 .298 1.998-.069 1.584-.941 2.916-1.63 3.857-2.134 4.408-1.767 4.638-1.401 4.936-1.033 5.304 .023 4.109 .733 3.214 1.102 2.617M4.131-8.403C3.487-9.275 2.776-10.148 1.996-11.021 1.766-10.745 1.399-10.423 .895-10.056 2.685-8.174 3.855-6.612 4.406-5.373 4.864-5.694 5.324-5.993 5.783-6.268 5.324-6.819 4.773-7.532 4.131-8.403M10.74-.069C10.74-1.952 10.763-3.306 10.809-4.133H2.616C2.661-3.352 2.685-1.997 2.685-.069 2.685 1.86 2.661 3.283 2.616 4.202H10.809C10.763 3.283 10.74 1.86 10.74-.069M9.294 2.893H4.1299998V-2.9620002H9.294ZM12.323-9.643C11.818-10.01 11.382-10.377 11.015-10.745 10.097-9.368 8.972-7.899 7.642-6.337 8.009-6.108 8.375-5.763 8.743-5.304 10.487-7.279 11.68-8.725 12.323-9.643" fill="#ffffff"/>
<path transform="matrix(1,0,0,-1,262.5356,174.1741)" d="M0 0C0 .505-.024 1.24-.069 2.204 .527 2.112 1.078 2.043 1.583 1.998 1.446 1.584 1.353 .918 1.308 0H5.37C5.324-.506 5.301-1.195 5.301-2.066L5.163-5.51C5.117-6.244 4.819-6.727 4.268-6.957 3.718-7.186 3.052-7.37 2.272-7.508 2.088-6.911 1.881-6.382 1.652-5.924 2.523-5.924 3.121-5.877 3.442-5.786 3.763-5.694 3.924-5.419 3.924-4.959L4.062-1.24H1.239C1.102-2.71 .768-3.881 .241-4.753-.287-5.626-1.286-6.612-2.754-7.715-3.076-7.209-3.442-6.795-3.855-6.475-2.662-5.832-1.756-5.097-1.136-4.271-.516-3.444-.184-2.434-.138-1.24H-1.446C-1.997-1.24-2.616-1.263-3.305-1.309V.069C-2.662 .023-2.043 0-1.446 0ZM4.406 4.959C4.406 3.72 4.429 2.847 4.475 2.342H-2.341C-2.296 2.893-2.272 3.811-2.272 5.097-2.272 6.428-2.296 7.324-2.341 7.783H4.475C4.429 7.14 4.406 6.199 4.406 4.959M3.098 6.544H-.96399977V3.5820003H3.098ZM8.055 4.339V-1.446C8.055-2.319 8.078-3.123 8.124-3.857H6.678C6.723-3.123 6.747-2.319 6.747-1.446V4.339C6.747 5.073 6.723 5.717 6.678 6.268H8.124C8.078 5.717 8.055 5.073 8.055 4.339M11.359 6.199V-5.373C11.359-6.337 11.129-6.911 10.671-7.095 10.212-7.278 9.454-7.462 8.399-7.646 8.262-7.095 8.055-6.566 7.779-6.061 8.743-6.061 9.363-6.003 9.638-5.889 9.914-5.775 10.051-5.465 10.051-4.959V6.199C10.051 7.026 10.028 7.715 9.982 8.266H11.428C11.382 7.806 11.359 7.117 11.359 6.199" fill="#ffffff"/>
<path transform="matrix(1,0,0,-1,280.0225,169.1459)" d="M0 0C1.652 0 2.868 .045 3.649 .138V-1.171C2.868-1.126 1.675-1.102 .069-1.102V-3.926H2.892C2.845-4.937 2.823-6.016 2.823-7.164 2.823-8.266 2.845-9.483 2.892-10.814H1.515V-9.712H-1.996V-11.021H-3.373C-3.328-9.827-3.305-8.634-3.305-7.439-3.305-6.199-3.328-5.028-3.373-3.926H-1.308C-1.308-.161-1.332 2.273-1.377 3.375H.069C.023 2.318 0 1.194 0 0M1.583-5.028H-1.997V-8.541H1.583ZM9.811-5.82C9.374-6.671 8.835-7.554 8.193-8.472 8.973-9.805 9.615-10.562 10.12-10.745 10.625-10.928 11.038-10.309 11.36-8.885 11.726-9.299 12.162-9.667 12.668-9.988 12.024-11.41 11.301-12.18 10.499-12.295 9.695-12.409 8.628-11.457 7.298-9.437 6.747-10.034 6.184-10.562 5.611-11.021 5.037-11.479 4.314-12.008 3.442-12.605 3.167-12.237 2.823-11.87 2.41-11.503 2.961-11.273 3.671-10.838 4.544-10.194 5.415-9.552 6.127-8.885 6.678-8.197 6.448-7.738 6.196-6.969 5.921-5.889 5.645-4.811 5.461-3.835 5.37-2.962 4.544-3.1 3.74-3.261 2.961-3.444 2.868-2.986 2.776-2.572 2.685-2.204 3.374-2.113 4.222-1.975 5.232-1.791 5.14 .183 5.048 1.951 4.957 3.513 5.508 3.467 6.012 3.444 6.471 3.444 6.379 2.112 6.379 .436 6.471-1.584 7.48-1.446 9.179-1.126 11.566-.62 11.566-1.033 11.611-1.446 11.704-1.86 10.647-2.044 8.95-2.342 6.609-2.755 6.838-4.592 7.16-6.039 7.573-7.095 8.031-6.452 8.376-5.832 8.606-5.235 8.835-4.639 9.064-3.995 9.294-3.306 9.845-3.628 10.349-3.857 10.809-3.995 10.579-4.363 10.246-4.971 9.811-5.82M10.534 .758C10.12 .482 9.73 .16 9.363-.207 9.088 .252 8.537 .964 7.711 1.929 8.078 2.158 8.444 2.411 8.812 2.686 9.684 1.676 10.258 1.033 10.534 .758" fill="#ffffff"/>
<path transform="matrix(1,0,0,-1,300.4696,170.38571)" d="M0 0V-6.199C0-6.981 .023-7.921 .069-9.023H-1.17V-8.128H-4.819V-9.437H-6.127C-6.036-8.703-5.99-7.876-5.99-6.957V0C-5.99 1.056-6.036 1.998-6.127 2.824H.069C.023 1.767 0 .827 0 0M-3.58 1.791H-4.819V-1.9970001H-3.58ZM-3.58-3.1H-4.819V-7.026H-3.58ZM-1.17 1.791H-2.409V-1.9970001H-1.17ZM-1.17-3.1H-2.409V-7.026H-1.17ZM3.649 2.824H8.262C7.986 1.951 7.607 1.078 7.126 .207 6.644-.666 6.104-1.424 5.508-2.066 6.012-2.526 6.644-2.882 7.401-3.134 8.158-3.387 8.881-3.559 9.569-3.651 9.202-4.156 8.95-4.615 8.812-5.028 8.169-4.89 7.458-4.649 6.678-4.305 5.897-3.961 5.208-3.513 4.613-2.962 4.245-3.237 3.763-3.582 3.167-3.995 2.57-4.408 1.812-4.822 .895-5.235 .711-4.776 .458-4.363 .138-3.995 .826-3.766 1.434-3.525 1.962-3.272 2.489-3.02 3.121-2.595 3.855-1.998 3.58-1.631 3.327-1.24 3.098-.827 2.868-.413 2.661-.024 2.478 .344 2.203-.161 1.812-.781 1.308-1.515 1.124-1.24 .733-.964 .138-.689 .78 0 1.342 .861 1.824 1.894 2.306 2.927 2.639 3.902 2.823 4.822 3.327 4.591 3.878 4.385 4.475 4.202 4.2 3.926 3.924 3.467 3.649 2.824M7.848-6.75V-9.437C7.848-10.033 7.871-10.676 7.917-11.365H6.609V-10.056H3.029V-11.434H1.721C1.766-10.653 1.79-9.941 1.79-9.299V-6.819C1.79-6.13 1.766-5.488 1.721-4.89H7.917C7.871-5.441 7.848-6.061 7.848-6.75M6.609-5.993H3.0290004V-8.886H6.609ZM6.54 1.791H3.167C3.534 .643 4.062-.344 4.75-1.171 5.439-.391 6.035 .596 6.54 1.791" fill="#ffffff"/>
<path transform="matrix(1,0,0,-1,126.366,268.3245)" d="M0 0C-.138-.62-.275-1.229-.413-1.825H3.029C2.799-3.203 2.547-4.443 2.272-5.545 1.997-6.647 1.56-7.795 .964-8.989 1.698-9.632 2.547-10.413 3.511-11.331 3.098-11.653 2.73-11.997 2.41-12.364 1.721-11.492 1.009-10.735 .275-10.091-.322-10.826-.919-11.48-1.515-12.054-2.112-12.628-2.731-13.167-3.373-13.673-3.557-13.351-3.902-13.006-4.406-12.639-3.718-12.226-3.064-11.756-2.444-11.227-1.824-10.7-1.239-10.046-.689-9.264-1.515-8.622-2.41-8.002-3.373-7.405-2.778-6.027-2.296-4.535-1.928-2.927-2.662-2.927-3.305-2.951-3.855-2.996V-1.756C-3.305-1.803-2.571-1.825-1.652-1.825-1.377-.723-1.148 .585-.964 2.101-.506 1.963 .023 1.825 .62 1.688 .344 1.182 .138 .62 0 0M-.069-8.162C.252-7.611 .551-6.877 .826-5.958 1.102-5.04 1.331-4.029 1.515-2.927H-.62C-1.033-4.443-1.446-5.775-1.859-6.922-1.17-7.382-.574-7.795-.069-8.162M11.291 .448V-.792C10.831-1.16 10.327-1.562 9.776-1.998 9.225-2.434 8.651-2.905 8.055-3.41V-5.545H9.914C10.51-5.545 11.176-5.522 11.91-5.476V-6.785C11.176-6.739 10.51-6.716 9.914-6.716H8.055V-11.675C8.055-12.547 7.79-13.098 7.263-13.328 6.735-13.558 6.012-13.742 5.095-13.879 4.957-13.373 4.75-12.846 4.475-12.295 5.484-12.295 6.115-12.237 6.368-12.123 6.62-12.009 6.747-11.675 6.747-11.124V-6.716H5.714C4.75-6.716 3.809-6.739 2.891-6.785V-5.476C3.809-5.522 4.682-5.545 5.508-5.545H6.747C6.747-4.856 6.735-4.317 6.712-3.926 6.689-3.537 6.632-3.227 6.54-2.996 6.953-2.721 7.435-2.366 7.986-1.929 8.537-1.493 9.019-1.068 9.432-.654H5.301C4.842-.654 4.222-.678 3.442-.723V.517C4.222 .47 4.842 .448 5.301 .448Z" fill="#ffffff"/>
<path transform="matrix(1,0,0,-1,139.9975,271.5963)" d="M0 0C.689-.046 1.491-.069 2.41-.069H2.961V2.962C2.501 2.824 1.721 2.64 .62 2.411 .436 2.824 .229 3.237 0 3.651 1.009 3.696 1.985 3.845 2.926 4.098 3.866 4.35 4.727 4.684 5.508 5.097 5.783 4.729 6.127 4.293 6.541 3.788 6.081 3.742 5.691 3.673 5.37 3.582 5.048 3.489 4.682 3.398 4.269 3.306V-.069C4.865-.069 5.599-.046 6.472 0V-1.24C5.599-1.195 4.865-1.171 4.269-1.171V-8.335C4.269-8.977 4.291-9.781 4.337-10.745H2.892C2.937-9.781 2.961-8.977 2.961-8.335V-3.788C2.593-4.708 2.26-5.442 1.962-5.993 1.663-6.544 1.262-7.21 .757-7.99 .389-7.485 .045-7.026-.275-6.612 .367-5.924 .952-5.121 1.48-4.202 2.007-3.284 2.386-2.273 2.616-1.171H1.584C.94-1.171 .413-1.195 0-1.24ZM6.127-3.1C6.356-3.421 6.609-3.881 6.885-4.477 6.472-4.661 6.081-4.891 5.714-5.166 5.484-4.661 5.289-4.236 5.129-3.892 4.968-3.547 4.75-3.192 4.475-2.824 4.75-2.641 5.117-2.411 5.577-2.135 5.714-2.457 5.897-2.779 6.127-3.1M10.602 5.579H12.048C12.002 5.073 11.979 3.902 11.979 2.066H15.559C15.513 1.561 15.49 .872 15.49 0V-4.684C15.49-5.19 15.513-5.763 15.559-6.406H14.182V-5.028H11.979V-7.921C11.979-9.115 12.002-10.102 12.048-10.883H10.602C10.648-10.102 10.671-9.115 10.671-7.921V-5.028H8.468V-6.681H7.091C7.136-6.13 7.16-5.51 7.16-4.822V-.138C7.16 .827 7.136 1.561 7.091 2.066H10.671C10.671 3.857 10.648 5.028 10.602 5.579M10.671 .964H8.467999V-3.9269999H10.671ZM14.182 .964H11.979V-3.9269999H14.182ZM14.182-3.926" fill="#ffffff"/>
<path transform="matrix(1,0,0,-1,164.369,280.3784)" d="M0 0C.275 .114 .413 .401 .413 .861V5.889H-4.475C-5.118 5.889-5.876 5.866-6.747 5.82V7.06C-5.876 7.014-5.118 6.991-4.475 6.991H.413C.413 7.725 .389 8.552 .344 9.471 .986 9.747 1.641 10.091 2.306 10.504 2.971 10.917 3.74 11.4 4.613 11.951H-2.41C-3.373 11.951-4.223 11.927-4.957 11.882V13.122C-3.993 13.075-3.191 13.053-2.547 13.053H7.16V11.813C6.471 11.537 5.714 11.169 4.888 10.711 4.062 10.251 3.029 9.609 1.79 8.782V6.991H6.403C7.182 6.991 8.055 7.036 9.019 7.129V5.889C8.055 5.934 7.182 5.934 6.403 5.889H1.79V.379C1.79-.539 1.525-1.09 .998-1.274 .47-1.457-.322-1.595-1.377-1.688-1.469-1.182-1.676-.654-1.997-.103-.941-.15-.275-.115 0 0" fill="#ffffff"/>
<path transform="matrix(1,0,0,-1,178.0004,278.6565)" d="M0 0C-.506-1.171-1.056-2.33-1.652-3.478-2.02-3.203-2.456-2.881-2.96-2.514-2.502-2.008-1.986-1.195-1.411-.069-.838 1.056-.39 2.123-.069 3.134 .252 2.812 .642 2.514 1.102 2.239 .871 1.917 .505 1.171 0 0M-2.891 6.785C-2.662 7.06-2.433 7.427-2.203 7.887-.919 7.289 .183 6.647 1.102 5.958 .78 5.545 .505 5.154 .275 4.787-.551 5.476-1.607 6.141-2.891 6.785M-2.341 11.193C-2.112 11.469-1.859 11.789-1.583 12.157-.39 11.469 .62 10.78 1.446 10.091 1.17 9.769 .895 9.402 .62 8.989-.206 9.769-1.194 10.504-2.341 11.193M5.026 10.849C4.107 10.849 3.281 10.825 2.547 10.78V11.951C3.236 11.904 4.062 11.882 5.026 11.882H11.842V10.917C10.923 10.366 9.592 9.333 7.849 7.818H12.117V-2.101C12.117-2.514 12.002-2.812 11.773-2.996 11.542-3.179 10.878-3.363 9.776-3.547 9.684-3.179 9.455-2.697 9.088-2.101 9.821-2.146 10.303-2.135 10.534-2.066 10.763-1.998 10.878-1.849 10.878-1.619V.103H7.78C7.78-1.274 7.802-2.353 7.849-3.134H6.472C6.517-2.215 6.54-1.137 6.54 .103H3.718V-3.547H2.41C2.455-2.353 2.478-1.321 2.478-.448V5.338C2.478 6.165 2.455 6.991 2.41 7.818H6.127C5.577 8.414 5.163 8.851 4.888 9.127 5.117 9.402 5.37 9.723 5.645 10.091 6.104 9.723 6.609 9.264 7.16 8.713 7.94 9.31 8.766 10.022 9.638 10.849ZM6.54 6.647H3.717V4.581H6.54ZM6.54 3.341H3.717V1.3440001H6.54ZM10.878 6.647H7.78V4.581H10.878ZM10.878 3.341H7.78V1.3440001H10.878ZM10.878 1.343" fill="#ffffff"/>
<path transform="matrix(1,0,0,-1,197.002,267.8079)" d="M0 0C.505 0 1.124 .023 1.859 .069V-1.24C1.124-1.195 .344-1.171-.482-1.171V-4.959C.16-4.959 .849-4.937 1.584-4.89V-6.199C.849-6.154 .16-6.13-.482-6.13V-10.332C.298-10.149 1.102-9.919 1.928-9.643 1.881-10.149 1.859-10.585 1.859-10.952 .344-11.32-.872-11.664-1.79-11.985-2.709-12.307-3.397-12.582-3.855-12.812-3.993-12.169-4.177-11.618-4.406-11.159-3.672-11.067-2.777-10.907-1.721-10.676V-6.13C-2.456-6.13-3.167-6.154-3.855-6.199V-4.89C-3.167-4.937-2.456-4.959-1.721-4.959V-1.171C-2.547-1.171-3.282-1.195-3.924-1.24V.069C-3.373 .023-2.846 0-2.341 0ZM7.332-4.546C7.263-5.648 7.114-6.819 6.885-8.059H8.262C8.215-8.518 8.193-9.138 8.193-9.919V-12.123C8.193-12.812 8.319-13.179 8.571-13.225 8.823-13.27 9.11-13.282 9.432-13.259 9.753-13.236 9.983-13.075 10.12-12.777 10.258-12.479 10.349-11.94 10.396-11.159 10.854-11.434 11.36-11.618 11.91-11.71 11.68-12.674 11.451-13.328 11.222-13.673 10.992-14.017 10.51-14.234 9.776-14.327H8.399C7.389-14.327 6.885-13.89 6.885-13.018V-8.197C6.472-9.667 5.875-10.895 5.095-11.882 4.314-12.869 3.143-13.776 1.584-14.603 1.353-14.234 .964-13.914 .413-13.638 1.881-13.041 2.961-12.388 3.649-11.675 4.337-10.964 4.888-10.056 5.301-8.954 5.714-7.852 5.955-6.705 6.024-5.51 6.093-4.317 6.104-3.123 6.058-1.929 6.654-2.021 7.205-2.09 7.711-2.135 7.527-2.641 7.401-3.444 7.332-4.546M10.671-1.515V-6.13C10.671-7.003 10.694-7.761 10.74-8.403H9.432V-.413H4.2V-8.472H2.892C2.937-7.692 2.961-6.819 2.961-5.855V-2.066C2.961-1.057 2.937-.138 2.892 .689H10.74C10.694-.046 10.671-.781 10.671-1.515" fill="#ffffff"/>
<path transform="matrix(1,0,0,-1,217.9317,278.8287)" d="M0 0-.62-1.378C-.895-1.195-1.136-1.033-1.343-.895-1.549-.758-1.767-.575-1.997-.344-2.365-.712-2.754-.999-3.167-1.205-3.58-1.412-4.062-1.515-4.613-1.515-5.531-1.515-6.323-1.24-6.988-.689-7.654-.138-7.986 .711-7.986 1.86-7.986 2.594-7.792 3.203-7.401 3.685-7.012 4.167-6.54 4.615-5.99 5.028-6.22 5.533-6.403 6.038-6.54 6.544-6.678 7.048-6.747 7.508-6.747 7.921-6.747 8.748-6.506 9.39-6.024 9.85-5.542 10.308-4.957 10.539-4.269 10.539-3.673 10.539-3.167 10.343-2.754 9.953-2.341 9.563-2.134 9-2.134 8.266-2.134 7.393-2.375 6.692-2.857 6.165-3.339 5.636-3.879 5.189-4.475 4.822-4.155 4.271-3.821 3.754-3.477 3.272-3.133 2.79-2.731 2.296-2.272 1.791-2.134 2.112-2.043 2.422-1.997 2.721-1.951 3.019-1.928 3.398-1.928 3.857H-.551C-.551 3.26-.609 2.721-.723 2.239-.838 1.756-1.01 1.309-1.239 .895-1.102 .758-.907 .596-.654 .413-.403 .229-.184 .092 0 0M-2.96 .551C-3.557 1.194-4.062 1.791-4.475 2.342-4.888 2.893-5.232 3.444-5.508 3.995-5.876 3.72-6.139 3.41-6.3 3.065-6.461 2.721-6.54 2.296-6.54 1.791-6.54 1.102-6.334 .585-5.921 .241-5.508-.103-5.026-.276-4.475-.276-4.155-.276-3.879-.207-3.649-.069-3.42 .069-3.191 .276-2.96 .551M-3.442 8.266C-3.442 8.586-3.523 8.839-3.683 9.023-3.845 9.206-4.062 9.299-4.337 9.299-4.613 9.299-4.865 9.184-5.095 8.954-5.325 8.724-5.439 8.403-5.439 7.99-5.439 7.668-5.404 7.336-5.336 6.991-5.267 6.647-5.141 6.268-4.957 5.855-4.59 6.038-4.246 6.325-3.924 6.716-3.604 7.105-3.442 7.622-3.442 8.266" fill="#ffffff"/>
<path transform="matrix(1,0,0,-1,232.8625,277.1755)" d="M0 0C.413-.322 .803-.666 1.17-1.033 .803-1.355 .458-1.677 .138-1.998-.23-1.677-.574-1.401-.895-1.171-1.538-1.264-2.869-1.378-4.888-1.515V-3.513C-4.888-4.155-5.106-4.534-5.542-4.649-5.979-4.763-6.564-4.89-7.298-5.028-7.39-4.569-7.55-4.155-7.779-3.788-7.091-3.834-6.655-3.834-6.471-3.788-6.289-3.742-6.196-3.513-6.196-3.1V-1.584C-7.115-1.63-8.01-1.699-8.881-1.791-9.754-1.883-10.764-1.998-11.91-2.135-11.957-1.584-12.071-1.126-12.254-.758-11.428-.712-10.614-.597-9.811-.413-9.008-.23-8.079 .114-7.022 .62-7.666 .62-8.423 .608-9.294 .585-10.167 .562-10.809 .505-11.222 .413-11.314 .78-11.475 1.171-11.704 1.584-11.061 1.629-10.533 1.745-10.12 1.929-9.754 2.158-9.156 2.594-8.33 3.237H-12.323C-12.186 3.742-12.094 4.408-12.048 5.235-12.554 5.235-13.012 5.211-13.425 5.166V6.13C-13.012 6.084-12.53 6.061-11.979 6.061-11.979 6.428-11.934 7.048-11.841 7.921-12.117 7.508-12.37 7.209-12.599 7.026-13.012 7.301-13.287 7.531-13.425 7.715-13.012 8.173-12.622 8.69-12.254 9.264-11.888 9.838-11.635 10.401-11.497 10.952L-10.258 10.401C-10.351 10.263-10.511 10.056-10.74 9.781H-7.504C-6.862 9.781-6.082 9.804-5.163 9.85V8.748C-6.082 8.793-6.885 8.817-7.573 8.817H-11.153C-11.428 8.495-11.635 8.219-11.773 7.99H-5.783L-5.921 6.061C-5.554 6.061-5.21 6.084-4.888 6.13V5.166C-5.21 5.211-5.554 5.235-5.921 5.235L-5.99 4.064H-5.232V3.237H-6.058V2.755H-7.229L-7.16 3.237H-8.261C-7.941 2.916-7.55 2.64-7.091 2.411-7.734 2.135-8.492 1.814-9.363 1.446H-5.645C-4.681 1.814-3.901 2.227-3.305 2.686-2.709 2.18-2.295 1.86-2.065 1.722-2.341 1.676-2.903 1.446-3.752 1.033-4.602 .62-6.036 .023-8.055-.758-6.265-.712-4.108-.575-1.583-.344-1.951-.115-2.318 .138-2.685 .413-2.318 .734-1.996 1.033-1.721 1.309-.987 .758-.413 .321 0 0M-9.776-3.651C-10.327-3.971-11.084-4.362-12.048-4.822-12.323-4.408-12.599-4.087-12.874-3.857-12.278-3.673-11.693-3.432-11.118-3.134-10.545-2.836-9.937-2.457-9.294-1.998-9.019-2.319-8.652-2.617-8.193-2.893-8.698-3.077-9.225-3.33-9.776-3.651M-9.432 4.064C-9.569 4.569-9.662 4.959-9.707 5.235H-10.947L-11.084 4.064ZM-9.225 6.061C-9.363 6.475-9.478 6.842-9.569 7.164H-10.809L-10.878 6.061ZM-9.225 4.064H-7.091L-7.022 5.235H-8.812C-8.767 4.959-8.675 4.66-8.537 4.339-8.767 4.293-8.996 4.202-9.225 4.064M-9.156 6.061H-7.022L-6.953 7.164H-8.606C-8.56 6.979-8.423 6.704-8.193 6.337-8.514 6.244-8.836 6.153-9.156 6.061M-5.508 6.888C-4.865 7.484-4.372 8.116-4.027 8.782-3.683 9.447-3.42 10.148-3.236 10.883-2.64 10.608-2.158 10.446-1.79 10.401-2.065 9.988-2.295 9.62-2.478 9.299H-.069C.39 9.299 .987 9.321 1.721 9.368V8.334C1.216 8.38 .849 8.403 .62 8.403 .39 7.484 .148 6.75-.103 6.199-.356 5.648-.666 5.073-1.033 4.477-.803 4.293-.471 4.109-.034 3.926 .401 3.742 1.009 3.582 1.79 3.444 1.422 3.168 1.17 2.778 1.033 2.273 .436 2.502-.103 2.743-.585 2.996-1.067 3.248-1.492 3.489-1.859 3.72-2.456 3.306-3.305 2.824-4.406 2.273-4.636 2.64-4.888 2.962-5.163 3.237-4.062 3.696-3.236 4.155-2.685 4.615-3.282 5.442-3.741 6.176-4.062 6.819-4.2 6.589-4.361 6.337-4.544 6.061-4.865 6.475-5.187 6.75-5.508 6.888M-.826-2.755C-.184-3.031 .436-3.306 1.033-3.582 .757-3.949 .527-4.316 .344-4.684-.253-4.316-.872-4.006-1.515-3.754-2.158-3.501-2.846-3.237-3.58-2.962-3.305-2.641-3.053-2.319-2.822-1.998-2.134-2.228-1.469-2.48-.826-2.755M-3.373 7.646C-2.822 6.635-2.318 5.855-1.859 5.304-1.263 6.313-.872 7.324-.688 8.334H-2.96C-3.098 8.15-3.236 7.921-3.373 7.646" fill="#ffffff"/>
<path transform="matrix(1,0,0,-1,240.3669,273.1116)" d="M0 0V-5.924C0-6.934 .023-7.99 .069-9.092H-1.239C-1.194-7.806-1.17-6.75-1.17-5.924V-1.446C-1.538-1.952-1.996-2.503-2.547-3.1-2.823-2.686-3.122-2.366-3.442-2.135-2.479-1.264-1.687-.379-1.067 .517-.447 1.412 .023 2.227 .344 2.962 .711 2.64 1.102 2.365 1.515 2.135 1.193 1.814 .689 1.102 0 0M-.172 4.649C-.792 3.845-1.538 2.962-2.41 1.998-2.64 2.365-2.938 2.663-3.305 2.893-2.571 3.489-1.905 4.19-1.308 4.994-.712 5.797-.253 6.475 .069 7.026 .482 6.704 .849 6.428 1.17 6.199 .895 5.969 .447 5.452-.172 4.649M3.752-6.234C3.408-7.175 3.121-7.921 2.892-8.472 2.432-8.104 2.019-7.852 1.652-7.715 2.019-7.21 2.455-6.326 2.961-5.063 3.465-3.8 3.809-2.801 3.993-2.066 4.222-2.25 4.567-2.457 5.026-2.686 4.52-4.11 4.096-5.293 3.752-6.234M4.957 .62C4.544 .252 4.245-.093 4.062-.413 3.602 .183 2.892 .872 1.928 1.653 2.203 1.882 2.478 2.18 2.754 2.549 3.901 1.584 4.635 .941 4.957 .62M5.646 4.615C5.324 4.293 5.026 3.971 4.75 3.651 4.52 3.971 3.763 4.638 2.478 5.648 2.799 5.924 3.074 6.222 3.305 6.544 4.451 5.624 5.232 4.982 5.646 4.615M10.258 1.653C10.763 1.653 11.382 1.676 12.117 1.722V.413C11.658 .458 11.13 .482 10.534 .482H10.052V-7.026C10.052-7.76 9.868-8.266 9.501-8.541 9.133-8.817 8.422-9 7.366-9.092 7.366-8.586 7.136-8.104 6.678-7.646 7.549-7.646 8.124-7.599 8.399-7.508 8.675-7.416 8.812-7.118 8.812-6.612V.482H7.711C7.068 .482 6.403 .458 5.714 .413V1.722C6.403 1.676 7.068 1.653 7.711 1.653ZM9.57 5.579C10.165 5.579 10.785 5.602 11.428 5.648V4.339C10.785 4.385 10.165 4.408 9.57 4.408H8.537C7.94 4.408 7.298 4.385 6.609 4.339V5.648C7.298 5.602 7.94 5.579 8.537 5.579Z" fill="#ffffff"/>
<path transform="matrix(1,0,0,-1,261.9934,278.8287)" d="M0 0-.62-1.378C-.895-1.195-1.136-1.033-1.343-.895-1.549-.758-1.767-.575-1.997-.344-2.365-.712-2.754-.999-3.167-1.205-3.58-1.412-4.062-1.515-4.613-1.515-5.531-1.515-6.323-1.24-6.988-.689-7.654-.138-7.986 .711-7.986 1.86-7.986 2.594-7.792 3.203-7.401 3.685-7.012 4.167-6.54 4.615-5.99 5.028-6.22 5.533-6.403 6.038-6.54 6.544-6.678 7.048-6.747 7.508-6.747 7.921-6.747 8.748-6.506 9.39-6.024 9.85-5.542 10.308-4.957 10.539-4.269 10.539-3.673 10.539-3.167 10.343-2.754 9.953-2.341 9.563-2.134 9-2.134 8.266-2.134 7.393-2.375 6.692-2.857 6.165-3.339 5.636-3.879 5.189-4.475 4.822-4.155 4.271-3.821 3.754-3.477 3.272-3.133 2.79-2.731 2.296-2.272 1.791-2.134 2.112-2.043 2.422-1.997 2.721-1.952 3.019-1.928 3.398-1.928 3.857H-.551C-.551 3.26-.609 2.721-.723 2.239-.838 1.756-1.01 1.309-1.239 .895-1.102 .758-.907 .596-.654 .413-.403 .229-.184 .092 0 0M-2.961 .551C-3.558 1.194-4.062 1.791-4.475 2.342-4.888 2.893-5.232 3.444-5.508 3.995-5.876 3.72-6.139 3.41-6.3 3.065-6.461 2.721-6.54 2.296-6.54 1.791-6.54 1.102-6.334 .585-5.921 .241-5.508-.103-5.026-.276-4.475-.276-4.155-.276-3.879-.207-3.649-.069-3.42 .069-3.191 .276-2.961 .551M-3.442 8.266C-3.442 8.586-3.523 8.839-3.683 9.023-3.845 9.206-4.062 9.299-4.337 9.299-4.613 9.299-4.865 9.184-5.095 8.954-5.325 8.724-5.439 8.403-5.439 7.99-5.439 7.668-5.404 7.336-5.336 6.991-5.267 6.647-5.141 6.268-4.957 5.855-4.59 6.038-4.246 6.325-3.924 6.716-3.604 7.105-3.442 7.622-3.442 8.266" fill="#ffffff"/>
<path transform="matrix(1,0,0,-1,268.1808,267.0502)" d="M0 0C0 .091-.024 .436-.069 1.033H1.308C1.262 .527 1.239 .183 1.239 0H4.888C4.888 .276 4.865 .62 4.819 1.033H6.196C6.15 .527 6.127 .183 6.127 0H8.262C9.317 0 10.303 .023 11.222 .069V-1.033C10.303-.988 9.317-.964 8.262-.964H6.127V-1.929H4.888V-.964H1.239V-1.929H0V-.964H-1.928C-3.075-.964-4.085-.988-4.957-1.033V.069C-4.085 .023-3.075 0-1.928 0ZM8.675-10.47C8.031-11.205 7.412-11.779 6.816-12.192 6.219-12.605 5.439-13.042 4.475-13.5 5.393-13.683 6.3-13.821 7.194-13.914 8.09-14.005 9.226-14.052 10.602-14.052 10.189-14.327 9.914-14.74 9.776-15.291 8.675-15.199 7.584-15.073 6.506-14.913 5.427-14.751 4.269-14.51 3.029-14.189 1.744-14.51 .78-14.728 .138-14.844-.506-14.958-1.102-15.05-1.652-15.119-2.203-15.188-3.007-15.268-4.062-15.36-4.154-14.901-4.384-14.465-4.75-14.052-3.604-14.052-2.594-14.028-1.721-13.983-.85-13.936 .321-13.776 1.79-13.5 .78-12.949-.069-12.261-.757-11.434H-2.341L-2.409-10.401C-1.63-10.447-.85-10.47-.069-10.47ZM10.052-8.748C10.052-9.023 10.074-9.368 10.12-9.781H-3.993C-3.948-9.368-3.924-9.001-3.924-8.679V-7.852C-3.924-7.532-3.948-7.164-3.993-6.75H10.12C10.074-7.072 10.052-7.463 10.052-7.921ZM8.537-3.926V-4.477C8.537-4.845 8.56-5.396 8.606-6.13H-2.685C-2.594-5.488-2.547-4.959-2.547-4.546V-4.064C-2.547-3.468-2.571-2.824-2.616-2.135H8.606C8.56-2.824 8.537-3.421 8.537-3.926M.207-7.715H-2.685V-8.886H.207ZM7.229-3.1H-1.2390003V-3.789H7.229ZM7.229-4.615H-1.2390003V-5.2349998H7.229ZM.551-11.434C.964-11.847 1.353-12.169 1.721-12.398 2.088-12.629 2.547-12.835 3.098-13.018 3.649-12.835 4.096-12.651 4.441-12.467 4.785-12.284 5.346-11.94 6.127-11.434ZM4.475-7.715H1.3769999V-8.886H4.475ZM8.881-7.715H5.6449997V-8.886H8.881ZM8.881-8.886" fill="#ffffff"/>
<path transform="matrix(1,0,0,-1,285.8054,267.4635)" d="M0 0C-1.102-2.388-1.859-4.11-2.272-5.166H.207C-.024-6.406-.241-7.473-.447-8.369-.654-9.264-.919-10.149-1.239-11.021-.551-11.618 .424-12.112 1.687-12.502 2.949-12.892 4.291-13.11 5.714-13.156 7.136-13.201 8.973-13.11 11.222-12.881 10.809-13.385 10.579-13.89 10.534-14.396 8.513-14.441 6.85-14.43 5.542-14.361 4.234-14.293 3.121-14.155 2.203-13.948 1.284-13.742 .527-13.489-.069-13.191-.666-12.892-1.263-12.514-1.859-12.054-2.547-13.018-3.259-13.845-3.993-14.534-4.268-14.212-4.636-13.914-5.094-13.638-4.223-12.904-3.442-12.078-2.754-11.159-3.259-10.562-3.638-10.056-3.89-9.643-4.142-9.23-4.406-8.748-4.681-8.197-4.498-8.105-4.131-7.899-3.58-7.577-3.305-8.128-3.075-8.553-2.891-8.851-2.709-9.15-2.478-9.483-2.203-9.85-1.882-9.023-1.561-7.807-1.239-6.199-2.433-6.199-3.282-6.268-3.786-6.406L-4.131-5.166C-3.718-4.937-3.305-4.363-2.891-3.444-2.478-2.526-2.158-1.746-1.928-1.102-3.029-1.102-3.948-1.126-4.681-1.171V.069C-3.351 .023-2.387 0-1.79 0ZM6.609-.964V-4.546C7.894-4.546 8.904-4.523 9.639-4.477V-5.717C8.904-5.672 7.894-5.648 6.609-5.648V-9.781C7.481-9.781 8.56-9.758 9.845-9.712V-11.021C8.606-10.976 7.618-10.952 6.885-10.952H1.652C1.698-9.805 1.721-8.84 1.721-8.059V-6.475C1.721-5.648 1.698-4.615 1.652-3.375H3.236C3.143-4.615 3.098-5.832 3.098-7.026V-9.781H5.232V-1.171C3.534-1.446 2.295-1.653 1.515-1.791 1.422-1.47 1.239-1.033 .964-.482 2.524-.344 3.844-.172 4.922 .034 6 .241 7.205 .62 8.537 1.171 8.675 .941 9.11 .436 9.845-.344 9.248-.344 8.169-.551 6.609-.964" fill="#ffffff"/>
<path transform="matrix(1,0,0,-1,160.1566,234.01361)" d="M0 0H1.377C1.331-.597 1.308-1.791 1.308-3.582 2.088-3.582 2.708-3.559 3.167-3.513V-4.753C2.708-4.708 2.088-4.684 1.308-4.684V-7.646C1.859-7.463 2.432-7.187 3.029-6.819 3.074-7.279 3.189-7.669 3.373-7.99 2.272-8.45 1.583-8.748 1.308-8.885V-13.5C1.308-14.234 1.136-14.74 .792-15.016 .448-15.291-.322-15.521-1.515-15.705-1.607-15.199-1.814-14.694-2.134-14.189-1.308-14.234-.735-14.212-.413-14.12-.093-14.029 .069-13.662 .069-13.018V-9.299C-.895-9.712-1.63-10.056-2.134-10.332-2.318-9.874-2.547-9.414-2.823-8.954-2.134-8.817-1.17-8.519 .069-8.059V-4.684C-1.033-4.684-1.836-4.708-2.341-4.753V-3.513C-1.79-3.559-.987-3.582 .069-3.582 .069-1.929 .045-.735 0 0M7.229-1.343C7.183-1.78 7.114-2.572 7.022-3.72H10.534C11.084-3.72 11.795-3.697 12.668-3.651V-4.89C11.795-4.845 11.061-4.822 10.465-4.822H6.885C6.792-5.419 6.678-6.039 6.54-6.681H11.842C11.611-7.783 11.291-8.863 10.878-9.919 10.465-10.976 9.983-11.871 9.432-12.605 9.983-13.111 10.602-13.559 11.291-13.948 11.979-14.338 12.599-14.625 13.15-14.809 12.69-15.13 12.346-15.521 12.117-15.98 10.878-15.383 9.707-14.556 8.606-13.5 7.412-14.51 6.058-15.337 4.544-15.98 4.314-15.521 4.016-15.176 3.649-14.947 4.429-14.717 5.198-14.384 5.955-13.948 6.713-13.512 7.343-13.065 7.848-12.605 7.16-11.687 6.517-10.447 5.921-8.885 5.278-10.585 4.314-12.307 3.029-14.052 2.661-13.638 2.272-13.34 1.859-13.156 2.823-12.147 3.637-10.941 4.303-9.54 4.968-8.14 5.415-6.567 5.645-4.822 4.864-4.822 4.153-4.845 3.511-4.89V-3.651C4.153-3.697 4.658-3.72 5.026-3.72H5.783C5.875-2.159 5.897-.942 5.852-.069 6.403-.253 6.953-.344 7.504-.344 7.367-.575 7.274-.907 7.229-1.343M10.258-7.783H6.747C6.93-8.381 7.229-9.116 7.642-9.988 8.055-10.86 8.375-11.434 8.606-11.71 9.248-10.883 9.799-9.574 10.258-7.783M11.773-2.48C11.451-2.664 11.084-2.939 10.671-3.306 10.166-2.526 9.638-1.815 9.088-1.171 9.408-.988 9.752-.735 10.12-.413 10.809-1.195 11.36-1.883 11.773-2.48" fill="#ffffff"/>
<path transform="matrix(1,0,0,-1,179.2271,240.0062)" d="M0 0C.688-.964 1.124-1.699 1.308-2.204 1.491-2.71 1.583-3.261 1.583-3.857 1.583-4.455 1.377-4.959 .964-5.373 .551-5.786-.093-6.085-.964-6.268-1.102-5.763-1.308-5.259-1.583-4.753-.666-4.661-.093-4.466 .138-4.167 .367-3.869 .379-3.375 .172-2.686-.034-1.998-.551-1.102-1.377 0-.735 1.24-.206 2.617 .207 4.133H-2.134V-9.85H-3.442C-3.397-8.748-3.373-7.325-3.373-5.579V2.342C-3.373 3.398-3.397 4.362-3.442 5.235H1.928C1.652 4.546 1.009 2.8 0 0M3.58-6.854C3.121-7.473 2.616-8.105 2.065-8.748 1.698-8.426 1.331-8.15 .964-7.921 1.468-7.463 1.928-6.969 2.341-6.44 2.754-5.913 3.143-5.304 3.511-4.615 3.878-4.937 4.291-5.212 4.75-5.442 4.429-5.763 4.038-6.234 3.58-6.854M6.953-.276V-2.342H8.537C9.179-2.342 9.936-2.319 10.809-2.273V-3.513C9.983-3.468 9.248-3.444 8.606-3.444H6.953V-7.921C6.953-8.748 6.77-9.253 6.403-9.437 6.035-9.62 5.415-9.804 4.544-9.988 4.498-9.482 4.314-8.931 3.993-8.334 4.727-8.334 5.209-8.311 5.439-8.266 5.668-8.219 5.783-7.945 5.783-7.439V-3.444H4.475C3.649-3.444 2.845-3.468 2.065-3.513V-2.273C2.799-2.319 3.625-2.342 4.544-2.342H5.783V-.276H5.026C4.566-.276 4.085-.299 3.58-.344V.689C3.029 0 2.592-.482 2.272-.758 1.95-.437 1.56-.138 1.102 .138 2.294 1.056 3.27 2.089 4.027 3.237 4.785 4.385 5.346 5.464 5.714 6.475 6.127 6.244 6.632 6.015 7.229 5.786 7.136 5.648 6.999 5.464 6.816 5.235 7.458 4.178 8.146 3.329 8.881 2.686 9.615 2.043 10.694 1.423 12.117 .827 11.704 .505 11.36 .045 11.084-.551 10.533-.276 9.89 .16 9.156 .758V-.344C8.56-.299 8.009-.276 7.504-.276ZM8.95 .895C7.711 1.997 6.77 3.122 6.127 4.271 5.346 2.938 4.544 1.813 3.718 .895ZM10.224-6.234C10.659-6.762 11.176-7.301 11.773-7.852 11.267-8.036 10.831-8.334 10.465-8.748 10.143-8.242 9.718-7.658 9.191-6.991 8.663-6.326 8.215-5.832 7.848-5.51L8.95-4.684C9.363-5.19 9.787-5.706 10.224-6.234" fill="#ffffff"/>
<path transform="matrix(1,0,0,-1,195.7501,241.1427)" d="M0 0C1.009 1.033 1.928 2.307 2.754 3.823H.275C-.368 3.823-1.17 3.799-2.134 3.754V5.063C-.941 5.016-.046 4.994 .551 4.994H3.167C3.534 6.096 3.74 6.899 3.787 7.405 4.475 7.221 5.026 7.083 5.439 6.991 5.301 6.854 5.071 6.187 4.75 4.994H10.327C11.107 4.994 11.91 5.016 12.737 5.063V3.754C11.91 3.799 11.176 3.823 10.533 3.823H4.337C4.016 3.226 3.671 2.628 3.305 2.032H11.222C11.176 .884 11.153-.15 11.153-1.068V-6.647C11.153-7.289 10.969-7.76 10.602-8.059 10.234-8.357 9.454-8.552 8.262-8.644 8.215-8.139 8.055-7.588 7.78-6.991 8.468-7.083 8.973-7.105 9.294-7.06 9.615-7.014 9.776-6.762 9.776-6.302V-4.925H2.616V-8.576H1.102C1.147-7.427 1.17-6.44 1.17-5.614V-.723C.207-1.825-.804-2.79-1.859-3.616-2.043-3.295-2.456-2.927-3.098-2.514-2.043-1.872-1.01-1.033 0 0M9.776 .93H2.6160002V-.999H9.776ZM9.776-2.101H2.6160002V-3.823H9.776ZM9.776-3.823" fill="#ffffff"/>
<path transform="matrix(1,0,0,-1,217.5742,238.0087)" d="M0 0C0 .183-.024 .574-.069 1.171H1.515C1.469 .665 1.446 .276 1.446 0H3.236C4.382 0 5.346 .023 6.127 .069V-1.171C5.393-1.126 4.406-1.102 3.167-1.102H1.446V-2.204H3.993C4.451-2.204 5.071-2.182 5.852-2.135V-3.375C5.071-3.33 4.429-3.306 3.924-3.306H1.446V-4.339H5.508C6.334-4.339 7.16-4.317 7.986-4.271V-5.51C7.16-5.465 6.334-5.441 5.508-5.441H1.446V-6.681H6.127C6.081-7.508 6.058-8.312 6.058-9.092 6.058-9.874 6.081-10.676 6.127-11.503H4.613V-10.883H-2.96V-11.71H-4.475C-4.43-10.837-4.406-9.988-4.406-9.161-4.406-8.334-4.43-7.508-4.475-6.681H0V-5.441H-4.131C-4.774-5.441-5.577-5.465-6.54-5.51V-4.271C-5.76-4.317-4.957-4.339-4.131-4.339H0V-3.306H-2.272C-2.96-3.306-3.718-3.33-4.544-3.375V-2.135C-3.626-2.182-2.869-2.204-2.272-2.204H0V-1.102H-1.79C-2.938-1.102-3.902-1.126-4.681-1.171V.069C-3.81 .023-2.869 0-1.859 0ZM1.239 4.477C1.377 4.018 1.537 3.444 1.721 2.755H8.124C8.078 2.066 8.055 1.469 8.055 .964 8.055 .505 8.078 .091 8.124-.276H6.609V1.584H-4.957V-.138H-6.471C-6.426 .045-6.403 .39-6.403 .895-6.403 1.447-6.426 2.066-6.471 2.755H0C-.093 3.306-.206 3.811-.344 4.271 .114 4.316 .642 4.385 1.239 4.477M4.613-7.783H-2.96V-9.712H4.613ZM4.613-9.712" fill="#ffffff"/>
<path transform="matrix(1,0,0,-1,228.1077,239.1796)" d="M0 0C.689-.046 1.491-.069 2.41-.069H2.961V2.962C2.501 2.824 1.721 2.64 .62 2.411 .436 2.824 .229 3.237 0 3.651 1.009 3.696 1.985 3.845 2.926 4.098 3.866 4.35 4.727 4.684 5.508 5.097 5.783 4.729 6.127 4.293 6.54 3.788 6.081 3.742 5.691 3.673 5.37 3.582 5.048 3.489 4.682 3.398 4.268 3.306V-.069C4.864-.069 5.599-.046 6.471 0V-1.24C5.599-1.195 4.864-1.171 4.268-1.171V-8.334C4.268-8.977 4.291-9.781 4.337-10.745H2.892C2.937-9.781 2.961-8.977 2.961-8.334V-3.788C2.592-4.708 2.26-5.441 1.962-5.993 1.663-6.544 1.262-7.21 .757-7.99 .39-7.485 .045-7.026-.275-6.612 .367-5.924 .952-5.121 1.48-4.202 2.007-3.284 2.386-2.273 2.616-1.171H1.583C.94-1.171 .413-1.195 0-1.24ZM6.127-3.1C6.357-3.421 6.609-3.881 6.885-4.477 6.471-4.661 6.081-4.89 5.714-5.166 5.484-4.661 5.289-4.236 5.129-3.892 4.968-3.547 4.751-3.192 4.475-2.824 4.751-2.641 5.117-2.411 5.577-2.135 5.714-2.457 5.897-2.779 6.127-3.1M10.602 5.579H12.048C12.002 5.073 11.979 3.902 11.979 2.066H15.559C15.513 1.561 15.49 .872 15.49 0V-4.684C15.49-5.19 15.513-5.763 15.559-6.406H14.182V-5.028H11.979V-7.921C11.979-9.115 12.002-10.102 12.048-10.883H10.602C10.648-10.102 10.671-9.115 10.671-7.921V-5.028H8.468V-6.681H7.091C7.136-6.13 7.16-5.51 7.16-4.822V-.138C7.16 .827 7.136 1.561 7.091 2.066H10.671C10.671 3.857 10.648 5.028 10.602 5.579M10.671 .964H8.467999V-3.9269999H10.671ZM14.182 .964H11.979V-3.9269999H14.182ZM14.182-3.926" fill="#ffffff"/>
<path transform="matrix(1,0,0,-1,252.4794,247.96179)" d="M0 0C.275 .114 .413 .401 .413 .861V5.889H-4.475C-5.118 5.889-5.876 5.866-6.747 5.82V7.06C-5.876 7.014-5.118 6.991-4.475 6.991H.413C.413 7.725 .389 8.552 .344 9.471 .986 9.747 1.64 10.091 2.306 10.504 2.971 10.917 3.74 11.4 4.612 11.951H-2.41C-3.374 11.951-4.223 11.927-4.957 11.882V13.122C-3.993 13.075-3.191 13.053-2.547 13.053H7.16V11.813C6.471 11.537 5.714 11.169 4.888 10.711 4.062 10.251 3.029 9.609 1.79 8.782V6.991H6.403C7.183 6.991 8.055 7.036 9.019 7.129V5.889C8.055 5.934 7.183 5.934 6.403 5.889H1.79V.379C1.79-.539 1.525-1.09 .998-1.274 .47-1.457-.322-1.595-1.377-1.688-1.469-1.182-1.676-.654-1.996-.103-.941-.15-.276-.115 0 0" fill="#ffffff"/>
</g>
<path transform="matrix(1,0,0,-1,195.0605,187.72751)" d="M0 0 14.595-6.612 28.915 0Z" fill="#ffffff"/>
<path transform="matrix(1,0,0,-1,195.0605,222.16751)" d="M0 0 14.595-6.612 28.915 0Z" fill="#ffffff"/>
<path transform="matrix(1,0,0,-1,195.0605,253.0257)" d="M0 0 14.595-6.612 28.915 0Z" fill="#ffffff"/>
</g>
</g>
</svg>
