<svg xmlns="http://www.w3.org/2000/svg" xmlns:xlink="http://www.w3.org/1999/xlink" xmlns:inkscape="http://www.inkscape.org/namespaces/inkscape" version="1.1" width="411.024" height="595.276" viewBox="0 0 411.024 595.276">
<defs>
<clipPath id="clip_1">
<path transform="matrix(1,0,0,-1,0,595.276)" d="M0 0H411.024V595.276H0Z"/>
</clipPath>
<clipPath id="clip_2">
<path transform="matrix(1,0,0,-1,0,595.276)" d="M0 0H411.024V595.276H0Z"/>
</clipPath>
<path id="font_3_2" d="M.45599366 .19004822V.5218506C.45599366 .6397705 .37199403 .71777346 .26098634 .71777346 .1499939 .71777346 .06599426 .6397705 .06599426 .5218506V.19004822C.06599426 .072128299 .1499939-.005859375 .26098634-.005859375 .37199403-.005859375 .45599366 .072128299 .45599366 .19004822M.38398744 .19404602C.38398744 .116104129 .33999635 .058135988 .26098634 .058135988 .18199158 .058135988 .13798523 .116104129 .13798523 .19404602V.5178528C.13798523 .5957947 .18199158 .6537628 .26098634 .6537628 .33999635 .6537628 .38398744 .5957947 .38398744 .5178528V.19404602Z"/>
<path id="font_3_8" d="M.45999146 .20516968C.45999146 .32221986 .38598634 .40722657 .2749939 .40722657 .24699402 .40722657 .22200012 .40222169 .19999695 .3922119L.35899354 .71191409H.2849884L.10998535 .3592224C.07998657 .2992096 .06498718 .25019837 .06498718 .19917298 .06498718 .07614136 .14199829-.005859375 .2630005-.005859375 .38398744-.005859375 .45999146 .08413696 .45999146 .20516968M.3880005 .20217896C.3880005 .11514282 .33799745 .058135988 .2619934 .058135988 .18598938 .058135988 .13699341 .11514282 .13699341 .20217896 .13699341 .2902069 .18598938 .34622193 .2619934 .34622193 .34399415 .34622193 .3880005 .28120423 .3880005 .20217896Z"/>
<path id="font_3_9" d="M.47099305 .64790347V.71191409H.07598877V.5359192H.14698792V.64790347H.394989L.147995 0H.22399903L.47099305 .64790347Z"/>
<clipPath id="clip_4">
<path transform="matrix(1,0,0,-1,0,595.276)" d="M0 0H411.024V595.276H0Z"/>
</clipPath>
<clipPath id="clip_5">
<path transform="matrix(1,0,0,-1,0,595.276)" d="M0 0H411.024V595.276H0Z"/>
</clipPath>
<clipPath id="clip_6">
<path transform="matrix(1,0,0,-1,0,595.276)" d="M0 0H411.024V595.276H0Z"/>
</clipPath>
<clipPath id="clip_7">
<path transform="matrix(1,0,0,-1,0,595.276)" d="M0 0H411.024V595.276H0Z"/>
</clipPath>
<clipPath id="clip_8">
<path transform="matrix(1,0,0,-1,0,595.276)" d="M0 0H411.024V595.276H0Z"/>
</clipPath>
<clipPath id="clip_9">
<path transform="matrix(1,0,0,-1,0,595.276)" d="M0 0H411.024V595.276H0Z"/>
</clipPath>
<clipPath id="clip_10">
<path transform="matrix(1,0,0,-1,0,595.276)" d="M0 0H411.024V595.276H0Z"/>
</clipPath>
<clipPath id="clip_11">
<path transform="matrix(1,0,0,-1,0,595.276)" d="M0 0H411.024V595.276H0Z"/>
</clipPath>
</defs>
<g clip-path="url(#clip_1)">
<g clip-path="url(#clip_2)">
<use data-text="0" xlink:href="#font_3_2" transform="matrix(9,0,0,-9,363.685,567.547)" fill="#f43040"/>
<use data-text="6" xlink:href="#font_3_8" transform="matrix(9,0,0,-9,367.285,567.547)" fill="#f43040"/>
<use data-text="7" xlink:href="#font_3_9" transform="matrix(9,0,0,-9,370.885,567.547)" fill="#f43040"/>
<g clip-path="url(#clip_4)">
<path transform="matrix(1,0,0,-1,128.8965,346.0896)" stroke-width="1.254" stroke-linecap="butt" stroke-miterlimit="8" stroke-linejoin="miter" fill="none" stroke="#f43040" d="M0 0C10.007 34.231 41.607 59.221 79.043 59.221 115.715 59.221 146.788 35.24 157.436 2.118"/>
<path transform="matrix(1,0,0,-1,101.9042,314.9044)" stroke-width="1.254" stroke-linecap="butt" stroke-miterlimit="8" stroke-linejoin="miter" fill="none" stroke="#f43040" d="M0 0C15.431 43.713 57.082 75.019 106.042 75.019 152.455 75.019 192.299 46.885 209.453 6.751"/>
<path transform="matrix(1,0,0,-1,73.8502,283.544)" stroke-width="1.254" stroke-linecap="butt" stroke-miterlimit="8" stroke-linejoin="miter" fill="none" stroke="#f43040" d="M0 0C22.386 51.729 73.856 87.909 133.773 87.909 190.21 87.909 239.151 55.811 263.341 8.883"/>
</g>
<path transform="matrix(1,0,0,-1,0,595.276)" d="M193.564 361.483H224.04199V345.785H193.564Z" fill="#ffffff"/>
<g clip-path="url(#clip_5)">
<path transform="matrix(1,0,0,-1,194.7279,310.9119)" d="M0 0C-.249 .149-.473 .261-.672 .336-.349 .884-.013 1.619 .336 2.54 .56 2.415 .796 2.303 1.045 2.204 .672 1.357 .323 .622 0 0M5.563 7.135C6.135 7.135 6.658 7.147 7.131 7.172V6.462C6.658 6.487 6.135 6.5 5.563 6.5H2.502V5.678H5.04C5.538 5.678 6.049 5.69 6.571 5.715V5.043C6.098 5.067 5.588 5.08 5.04 5.08H2.502V4.221H5.339C5.937 4.221 6.459 4.233 6.907 4.258V3.586C6.334 3.611 5.812 3.623 5.339 3.623H2.502V2.914H1.755C1.779 3.536 1.792 4.072 1.792 4.52V6.425C1.319 5.827 .759 5.254 .112 4.707-.087 4.931-.286 5.093-.485 5.192 .684 6.064 1.518 7.085 2.016 8.255 2.29 8.081 2.539 7.932 2.763 7.807 2.589 7.608 2.427 7.383 2.278 7.135ZM2.464 1.345C2.464 1.046 2.47 .828 2.483 .691 2.495 .554 2.651 .473 2.95 .448H4.891C5.14 .448 5.308 .504 5.395 .616 5.482 .728 5.588 .946 5.712 1.27 5.937 1.021 6.173 .846 6.422 .747 6.222 .349 6.011 .093 5.787-.019 5.563-.131 5.314-.187 5.04-.187H2.39C1.991-.187 1.773-.068 1.736 .168 1.699 .405 1.686 .728 1.699 1.139 1.711 1.55 1.705 1.967 1.68 2.391H2.502C2.476 2.017 2.464 1.668 2.464 1.345M4.667 1.644C4.418 1.494 4.219 1.357 4.07 1.233 3.796 1.656 3.472 2.079 3.099 2.503 3.273 2.627 3.459 2.777 3.659 2.951 3.982 2.578 4.318 2.142 4.667 1.644M7.803 .897C7.629 .772 7.43 .622 7.206 .448 6.758 1.046 6.273 1.606 5.75 2.129 5.899 2.254 6.073 2.415 6.273 2.615 6.795 2.042 7.305 1.469 7.803 .897" fill="#2c292a"/>
<path transform="matrix(1,0,0,-1,207.6103,304.2814)" d="M0 0C-.336-.536-.765-1.102-1.288-1.7-1.811-2.297-2.52-2.97-3.416-3.717-3.591-3.443-3.79-3.219-4.014-3.044-3.392-2.696-2.695-2.067-1.923-1.158-1.151-.249-.579 .629-.205 1.476 .118 1.251 .392 1.089 .616 .99 .541 .865 .336 .535 0 0M1.307-2.073C.896-2.646 .379-3.269-.243-3.941-.865-4.613-1.413-5.161-1.885-5.585-1.338-5.56-.622-5.523 .262-5.472 1.145-5.423 1.998-5.373 2.819-5.323 2.421-4.626 2.084-4.09 1.811-3.717 2.059-3.567 2.271-3.406 2.446-3.231 2.844-3.779 3.23-4.333 3.603-4.893 3.976-5.454 4.3-5.983 4.574-6.481 4.399-6.531 4.138-6.692 3.79-6.967 3.64-6.668 3.454-6.344 3.23-5.995 2.01-6.046 .709-6.133-.672-6.257-2.053-6.381-2.819-6.493-2.968-6.593-3.068-6.294-3.18-5.983-3.304-5.659-2.931-5.635-2.277-5.136-1.344-4.165-.411-3.194 .479-1.937 1.326-.392 1.574-.616 1.861-.816 2.184-.99 2.01-1.139 1.718-1.501 1.307-2.073" fill="#2c292a"/>
<path transform="matrix(1,0,0,-1,213.8844,308.9694)" d="M0 0C-.274 .149-.51 .286-.709 .411-.286 1.133 .099 1.892 .448 2.69 .722 2.54 .983 2.403 1.232 2.279 .734 1.382 .323 .622 0 0M3.51 5.267C3.485 4.968 3.472 4.607 3.472 4.184H6.272C6.222 3.909 6.173 3.474 6.123 2.876L5.899-.747C5.824-1.345 5.65-1.737 5.376-1.924 5.102-2.111 4.567-2.266 3.771-2.391 3.696-2.092 3.559-1.793 3.36-1.494 4.131-1.519 4.611-1.47 4.798-1.345 4.984-1.22 5.09-.897 5.115-.374L5.376 3.511H3.435C3.335 2.067 3.111 .958 2.763 .187 2.414-.511 2.022-1.052 1.587-1.438 1.151-1.824 .659-2.191 .112-2.54-.088-2.291-.349-2.067-.672-1.868 .075-1.544 .672-1.183 1.12-.784 1.543-.386 1.885 .137 2.147 .784 2.408 1.432 2.576 2.34 2.651 3.511H1.829C1.307 3.511 .796 3.499 .299 3.474V4.184C.722 4.159 1.219 4.146 1.792 4.146H2.688C2.688 5.018 2.675 5.74 2.651 6.313 3.049 6.238 3.385 6.188 3.659 6.164 3.584 5.865 3.534 5.566 3.51 5.267M8.102 .112C7.878 .037 7.617-.088 7.318-.262 6.969 .71 6.596 1.569 6.198 2.316 6.497 2.44 6.721 2.565 6.87 2.69 7.293 1.967 7.704 1.108 8.102 .112" fill="#2c292a"/>
<path transform="matrix(1,0,0,-1,179.5894,228.1799)" d="M0 0C.631 .609 1.048 1.466 1.251 2.571H-.203V-2.267H-.879C-.857-1.658-.845-1.128-.845-.677V1.996C-.845 2.289-.857 2.673-.879 3.146H1.319C1.341 3.53 1.364 3.969 1.386 4.466H-.271C-.541 4.466-.812 4.454-1.082 4.432V5.041C-.812 5.018-.553 5.007-.304 5.007H5.309C5.534 5.007 5.861 5.018 6.289 5.041V4.432C5.974 4.454 5.658 4.466 5.343 4.466H4.024C4.024 4.127 4.001 3.688 3.956 3.146H5.985C5.962 2.74 5.951 2.39 5.951 2.098V-1.252C5.951-1.635 5.833-1.883 5.596-1.996 5.36-2.109 4.914-2.199 4.261-2.267 4.193-1.951 4.08-1.692 3.922-1.489 4.599-1.511 4.999-1.489 5.123-1.421 5.246-1.353 5.309-1.184 5.309-.913V2.571H3.889C3.843 2.187 3.776 1.827 3.686 1.489 4.317 .992 4.802 .597 5.14 .304 4.937 .124 4.768-.057 4.633-.237 4.407 .056 4.046 .417 3.55 .846 3.257 .124 2.942-.474 2.604-.947 2.378-.79 2.164-.677 1.961-.609 2.232-.316 2.491 .096 2.739 .626 2.987 1.156 3.156 1.804 3.246 2.571H1.894C1.826 2.233 1.758 1.939 1.691 1.692 2.141 1.308 2.457 1.003 2.637 .778 2.48 .643 2.31 .485 2.13 .304 1.882 .665 1.668 .936 1.488 1.116 1.24 .53 .913 0 .507-.474 .394-.338 .225-.181 0 0M3.314 3.146C3.336 3.688 3.348 4.127 3.348 4.466H2.029C2.029 4.127 2.006 3.688 1.961 3.146Z" fill="#2c292a"/>
<path transform="matrix(1,0,0,-1,188.6517,225.84561)" d="M0 0C-.023-.384-.034-.733-.034-1.049V-3.011C.529-3.575 1.51-3.879 2.908-3.924 4.306-3.969 5.399-3.947 6.188-3.857 5.962-4.037 5.838-4.308 5.816-4.669 5.094-4.669 4.384-4.657 3.686-4.635 2.987-4.612 2.344-4.55 1.758-4.449 1.172-4.347 .687-4.138 .304-3.823-.079-3.507-.378-3.462-.592-3.688-.806-3.913-1.014-4.24-1.217-4.669-1.42-4.466-1.646-4.285-1.894-4.127-1.308-3.676-.913-3.327-.71-3.079V-.609C-1.116-.609-1.511-.621-1.894-.643V.034C-1.443 .011-1.026 0-.643 0ZM.101 1.353C-.124 1.286-.361 1.184-.609 1.049-.631 1.274-.868 1.815-1.319 2.673-1.071 2.763-.845 2.853-.643 2.943-.237 2.154 .011 1.624 .101 1.353M2.435 3.18C2.773 3.112 3.054 3.079 3.28 3.079 3.212 2.763 3.167 2.21 3.145 1.421H5.546C5.478 1.037 5.432 .654 5.41 .271L5.241-2.368C5.219-2.752 5.021-2.994 4.649-3.095 4.277-3.197 3.934-3.293 3.618-3.383 3.595-3.09 3.483-2.797 3.28-2.503 3.821-2.481 4.176-2.442 4.345-2.385 4.514-2.329 4.61-2.188 4.633-1.962L4.802 .812H3.111C3.021-.09 2.84-.84 2.57-1.438 2.299-2.036 1.894-2.639 1.353-3.248 1.15-3.045 .901-2.865 .609-2.706 1.104-2.368 1.516-1.9 1.843-1.302 2.169-.705 2.367 0 2.435 .812 1.894 .812 1.375 .789 .879 .744V1.455C1.285 1.432 1.814 1.421 2.468 1.421 2.468 2.142 2.457 2.729 2.435 3.18" fill="#2c292a"/>
<path transform="matrix(1,0,0,-1,196.4627,224.91532)" d="M0 0C.383 .71 .676 1.426 .879 2.148 1.104 2.013 1.33 1.911 1.556 1.844 1.375 1.55 1.138 .998 .845 .186V-3.907C.845-4.652 .857-5.193 .879-5.531H.203C.225-5.148 .237-4.596 .237-3.874V-.93C.011-1.291-.214-1.641-.44-1.979-.598-1.731-.767-1.551-.947-1.438-.699-1.19-.384-.71 0 0M2.367 .964C2.367 1.347 2.355 1.641 2.333 1.844H3.01C2.987 1.641 2.976 1.347 2.976 .964V.051C3.223 .051 3.505 .062 3.821 .085V-.524C3.437-.502 3.156-.491 2.976-.491V-1.708H3.821C3.798-2.025 3.787-2.475 3.787-3.062 3.787-3.648 3.798-4.088 3.821-4.381H3.179V-4.043H2.13V-4.753H1.488C1.51-4.438 1.522-3.93 1.522-3.231 1.522-2.532 1.51-2.025 1.488-1.708H2.367V-.491C1.961-.491 1.623-.502 1.353-.524V.085C1.6 .062 1.939 .051 2.367 .051ZM3.179-2.216H2.131V-3.535H3.179ZM4.176 0C4.413 .643 4.587 1.325 4.7 2.047 4.925 1.956 5.196 1.866 5.512 1.776 5.354 1.618 5.151 1.122 4.903 .288H5.715C6.143 .288 6.492 .299 6.763 .321V-.22C6.537-.198 6.345-.186 6.188-.186 6.21-1.585 6.007-2.803 5.579-3.84 5.962-4.381 6.391-4.753 6.864-4.956 6.616-5.159 6.447-5.351 6.357-5.531 5.996-5.283 5.602-4.889 5.174-4.347 4.79-4.821 4.283-5.261 3.652-5.667 3.517-5.486 3.348-5.317 3.145-5.159 3.731-4.934 4.283-4.494 4.802-3.84 4.531-3.321 4.317-2.532 4.159-1.472L4.024-1.776C3.889-1.619 3.72-1.472 3.517-1.336 3.72-1.088 3.939-.643 4.176 0M4.633-.897C4.813-2.069 4.993-2.836 5.174-3.197 5.421-2.543 5.557-1.551 5.579-.22H4.734C4.666-.401 4.565-.66 4.43-.998Z" fill="#2c292a"/>
<path transform="matrix(1,0,0,-1,205.6263,222.73322)" d="M0 0H.744C.721-.338 .71-.959 .71-1.861 1.251-1.861 1.668-1.85 1.961-1.827V-2.47C1.691-2.447 1.273-2.436 .71-2.436V-3.721C.823-3.609 .947-3.473 1.082-3.315 1.488-3.744 1.837-4.161 2.13-4.567 1.995-4.658 1.826-4.804 1.623-5.007 1.375-4.579 1.07-4.184 .71-3.823V-6.394C.71-6.778 .721-7.274 .744-7.883H0C.022-7.274 .034-6.789 .034-6.428V-4.127C-.259-4.962-.598-5.628-.981-6.123-1.139-5.875-1.297-5.684-1.454-5.548-1.297-5.413-1.071-5.058-.778-4.483-.485-3.907-.259-3.226-.102-2.436-.598-2.436-1.003-2.447-1.319-2.47V-1.827C-.913-1.85-.462-1.861 .034-1.861 .034-.936 .022-.316 0 0M6.087-2.199V-6.022C6.087-6.631 6.098-7.228 6.12-7.815H5.444V-7.172H2.908V-7.883H2.232C2.254-7.206 2.265-6.62 2.265-6.123V-2.165C2.265-1.579 2.254-1.027 2.232-.507H6.12C6.098-1.049 6.087-1.613 6.087-2.199M5.444-1.083H2.9079998V-2.572H5.444ZM5.444-3.112H2.9079998V-4.465H5.444ZM5.444-5.041H2.9079998V-6.597H5.444ZM5.444-6.597" fill="#2c292a"/>
<path transform="matrix(1,0,0,-1,220.234,224.3909)" d="M0 0V-5.447C0-5.762-.113-5.96-.338-6.039-.564-6.118-.925-6.179-1.42-6.225-1.42-6.022-1.511-5.762-1.691-5.447-1.33-5.447-1.071-5.43-.913-5.396-.756-5.362-.676-5.267-.676-5.108V.643H-6.256V-6.191H-7.033C-7.011-5.875-6.988-5.514-6.966-5.108V0C-6.966 .541-6.977 .969-6.999 1.286H.068C.022 .947 0 .519 0 0M-2.265-.304C-1.815-.304-1.488-.293-1.285-.271V-.947C-1.511-.925-1.849-.913-2.299-.913H-4.497C-5.038-.913-5.422-.925-5.647-.947V-.271C-5.399-.293-5.005-.304-4.463-.304ZM-1.961-3.079C-1.961-3.575-1.939-4.015-1.894-4.398H-5.072C-5.05-3.992-5.038-3.53-5.038-3.011-5.038-2.492-5.05-2.131-5.072-1.928H-1.894C-1.939-2.177-1.961-2.56-1.961-3.079M-2.57-2.47H-4.396V-3.823H-2.57ZM-2.57-3.823" fill="#2c292a"/>
<path transform="matrix(1,0,0,-1,222.9054,228.95801)" d="M0 0V2.706C-.406 2.706-.8 2.695-1.184 2.673V3.315C-.756 3.293-.338 3.282 .068 3.282H.642C.62 2.853 .609 2.515 .609 2.267V.135C1.082-.451 1.978-.75 3.297-.761 4.616-.773 5.635-.722 6.357-.609 6.199-.902 6.098-1.172 6.053-1.421H3.855C3.268-1.421 2.778-1.392 2.384-1.336 1.989-1.28 1.657-1.201 1.386-1.099 1.116-.998 .867-.851 .642-.66 .417-.468 .152-.507-.152-.778-.457-1.049-.688-1.274-.845-1.455-1.003-1.274-1.184-1.06-1.386-.812-.688-.361-.226-.09 0 0M.169 4.297C-.101 4.747-.44 5.176-.845 5.582L-.372 5.988C.214 5.356 .575 4.928 .71 4.702ZM2.604 .355C2.175 .299 1.882 .225 1.724 .135L1.386 .846C1.611 .936 1.848 1.184 2.096 1.59 2.344 1.996 2.536 2.515 2.671 3.146 1.905 3.146 1.319 3.135 .913 3.112V3.755C1.341 3.733 2.209 3.721 3.517 3.721 4.824 3.721 5.669 3.733 6.053 3.755V3.112C5.669 3.135 4.79 3.146 3.415 3.146 3.348 2.898 3.218 2.571 3.026 2.165 2.835 1.759 2.604 1.342 2.333 .913 3.167 .981 3.967 1.049 4.734 1.116 4.576 1.409 4.35 1.736 4.058 2.098 4.238 2.187 4.407 2.312 4.565 2.47 4.993 1.928 5.455 1.252 5.951 .44 5.748 .327 5.545 .203 5.343 .068 5.23 .271 5.117 .462 5.005 .643 3.832 .507 3.032 .411 2.604 .355M5.478 4.973C5.049 4.995 4.407 5.007 3.55 5.007 2.716 5.007 2.063 4.995 1.589 4.973V5.616C1.995 5.593 2.638 5.582 3.517 5.582 4.396 5.582 5.049 5.593 5.478 5.616Z" fill="#2c292a"/>
<path transform="matrix(1,0,0,-1,231.7309,223.37592)" d="M0 0H1.285C1.578 0 1.916 .011 2.299 .034V-.541C1.916-.519 1.476-.507 .981-.507 1.026-.665 1.093-.88 1.184-1.15 .935-1.173 .698-1.23 .473-1.319 .406-1.027 .338-.756 .271-.507H-.372C-.485-.71-.676-.97-.947-1.286-1.172-1.15-1.409-1.049-1.657-.981-1.432-.778-1.2-.536-.964-.254-.727 .028-.496 .372-.27 .778-.067 .665 .18 .575 .473 .507 .293 .327 .135 .158 0 0M4.971-3.011C4.971-3.643 4.982-4.173 5.005-4.601H4.193V-5.21H5.106C5.466-5.21 5.872-5.199 6.323-5.176V-5.751C5.872-5.729 5.466-5.717 5.106-5.717H4.193C4.193-6.237 4.204-6.743 4.227-7.24H3.483C3.505-6.743 3.517-6.237 3.517-5.717H1.589C1.431-6.078 1.195-6.383 .879-6.631 .563-6.879 .09-7.104-.541-7.307-.676-7.082-.845-6.89-1.048-6.732-.553-6.642-.147-6.512 .169-6.343 .485-6.174 .721-5.966 .879-5.717H-.338C-.722-5.717-1.138-5.729-1.589-5.751V-5.176C-1.116-5.199-.699-5.21-.338-5.21H.981C1.026-5.03 1.048-4.827 1.048-4.601H-.304C-.282-4.195-.27-3.676-.27-3.045-.27-2.391-.282-1.861-.304-1.455H5.005C4.982-1.861 4.971-2.38 4.971-3.011M4.294-1.928H.4050002V-2.3339999H4.294ZM4.294-2.808H.4050002V-3.214H4.294ZM4.294-3.688H.4050002V-4.128H4.294ZM3.517-5.21V-4.601H1.691C1.691-4.827 1.679-5.03 1.657-5.21ZM3.652 0H5.072C5.32 0 5.647 .011 6.053 .034V-.541C5.692-.519 5.252-.507 4.734-.507L5.005-1.049C4.779-1.071 4.542-1.128 4.294-1.218 4.227-.97 4.159-.733 4.092-.507H3.28C3.099-.801 2.93-1.06 2.773-1.286 2.524-1.128 2.299-1.027 2.097-.981 2.367-.71 2.604-.435 2.807-.152 3.01 .13 3.167 .428 3.28 .744 3.528 .654 3.81 .575 4.125 .507 3.945 .372 3.787 .203 3.652 0" fill="#2c292a"/>
<path transform="matrix(1,0,0,-1,157.7023,321.5897)" d="M0 0H2.637C3.065 0 3.483 .022 3.889 .068V-.609C3.483-.587 3.111-.575 2.773-.575H-.135C-.361-1.342-.575-1.962-.778-2.436H2.232C2.637-2.436 3.032-2.425 3.415-2.402V-3.079C3.054-3.056 2.671-3.045 2.266-3.045H1.285V-5.582H2.671C3.212-5.582 3.697-5.571 4.125-5.548V-6.225C3.629-6.202 3.167-6.191 2.739-6.191H-1.048C-1.522-6.191-1.916-6.202-2.232-6.225V-5.548C-1.916-5.571-1.511-5.582-1.014-5.582H.575V-3.045H-1.082C-1.33-3.473-1.612-3.885-1.927-4.28-2.243-4.674-2.638-5.097-3.111-5.548-3.224-5.391-3.438-5.244-3.753-5.108-3.303-4.77-2.914-4.41-2.587-4.026-2.26-3.643-1.939-3.163-1.623-2.588-1.308-2.013-1.048-1.342-.845-.575H-1.725C-2.266-.575-2.728-.587-3.111-.609V.068C-2.705 .022-2.243 0-1.725 0H-.71C-.62 .563-.575 1.026-.575 1.387-.259 1.342 .022 1.319 .27 1.319 .18 1.026 .09 .586 0 0" fill="#2c292a"/>
<path transform="matrix(1,0,0,-1,164.5327,323.2812)" d="M0 0C-.023-.384-.034-.733-.034-1.049V-3.011C.529-3.575 1.51-3.879 2.908-3.924 4.306-3.969 5.399-3.947 6.188-3.857 5.962-4.037 5.838-4.308 5.816-4.669 5.094-4.669 4.384-4.657 3.686-4.635 2.987-4.612 2.344-4.55 1.758-4.449 1.172-4.347 .687-4.138 .304-3.823-.079-3.507-.378-3.462-.592-3.688-.806-3.913-1.014-4.24-1.217-4.669-1.42-4.466-1.646-4.285-1.894-4.127-1.308-3.676-.913-3.327-.71-3.079V-.609C-1.116-.609-1.511-.621-1.894-.643V.034C-1.443 .011-1.026 0-.643 0ZM.101 1.353C-.124 1.286-.361 1.184-.609 1.049-.631 1.274-.868 1.815-1.319 2.673-1.071 2.762-.845 2.853-.643 2.943-.237 2.154 .011 1.624 .101 1.353M2.435 3.18C2.773 3.112 3.054 3.079 3.28 3.079 3.212 2.762 3.167 2.21 3.145 1.421H5.546C5.478 1.037 5.432 .654 5.41 .271L5.241-2.368C5.219-2.752 5.021-2.994 4.649-3.096 4.277-3.197 3.934-3.293 3.618-3.383 3.595-3.09 3.483-2.797 3.28-2.503 3.821-2.481 4.176-2.442 4.345-2.385 4.514-2.329 4.61-2.188 4.633-1.962L4.802 .812H3.111C3.021-.09 2.84-.84 2.57-1.438 2.299-2.036 1.894-2.639 1.353-3.248 1.15-3.045 .901-2.865 .609-2.706 1.104-2.368 1.516-1.9 1.843-1.302 2.169-.705 2.367 0 2.435 .812 1.894 .812 1.375 .789 .879 .744V1.455C1.285 1.432 1.814 1.421 2.468 1.421 2.468 2.142 2.457 2.729 2.435 3.18" fill="#2c292a"/>
<path transform="matrix(1,0,0,-1,174.2373,320.9808)" d="M0 0C-.226-.045-.406-.079-.541-.101V-1.59C-.203-1.59 .169-1.579 .575-1.556V-2.098C.169-2.075-.203-2.064-.541-2.064V-3.282C-.451-3.169-.304-3.011-.101-2.808 .101-3.079 .265-3.287 .389-3.434 .513-3.581 .654-3.755 .812-3.958 .609-4.071 .44-4.207 .304-4.364 .169-4.161 .039-3.998-.085-3.874-.209-3.75-.361-3.586-.541-3.383V-5.514C-.541-5.853-.53-6.304-.507-6.868H-1.184C-1.161-6.304-1.15-5.853-1.15-5.514V-3.417C-1.285-3.755-1.426-4.054-1.572-4.313-1.719-4.573-1.939-4.917-2.232-5.345-2.435-5.12-2.649-4.939-2.874-4.804-2.717-4.669-2.553-4.499-2.384-4.297-2.215-4.094-2.057-3.863-1.91-3.603-1.764-3.344-1.635-3.079-1.522-2.808-1.409-2.537-1.319-2.289-1.251-2.064-1.612-2.064-2.119-2.075-2.773-2.098V-1.556C-2.119-1.579-1.578-1.59-1.15-1.59V-.237C-1.713-.327-2.13-.406-2.401-.474-2.491-.226-2.582-.012-2.671 .169-2.311 .214-2.04 .242-1.86 .254-1.68 .265-1.477 .293-1.251 .338L-.541 .507C-.293 .575-.034 .654 .237 .744 .327 .519 .451 .293 .609 .068 .428 .068 .225 .045 0 0M2.266-.135H4.666C4.328-.925 4.041-1.461 3.804-1.742 3.567-2.025 3.223-2.323 2.773-2.639 2.976-2.706 3.19-2.774 3.415-2.842 3.28-3.023 3.156-3.214 3.043-3.417H5.005C4.824-4.094 4.576-4.658 4.261-5.108 3.945-5.56 3.601-5.915 3.229-6.174 2.857-6.433 2.457-6.625 2.029-6.749 1.6-6.873 1.172-6.991 .744-7.104 .654-6.901 .496-6.665 .27-6.394 .879-6.326 1.381-6.253 1.775-6.174 2.169-6.095 2.536-5.932 2.874-5.684 2.739-5.481 2.502-5.21 2.164-4.872 2.277-4.782 2.423-4.669 2.604-4.533 2.784-4.691 3.043-4.951 3.381-5.311 3.539-5.108 3.697-4.889 3.855-4.652 4.012-4.415 4.125-4.173 4.193-3.924H2.671C2.491-4.105 2.299-4.291 2.096-4.483 1.894-4.674 1.623-4.894 1.285-5.142 1.104-4.939 .924-4.782 .744-4.669 1.33-4.33 1.747-4.021 1.995-3.738 2.243-3.457 2.446-3.135 2.604-2.774 2.333-2.955 2.074-3.101 1.826-3.214 1.578-3.327 1.262-3.451 .879-3.586 .789-3.361 .62-3.124 .372-2.876 .8-2.831 1.161-2.757 1.454-2.656 1.747-2.554 2.085-2.391 2.468-2.165 2.152-1.895 1.905-1.68 1.725-1.522 1.814-1.41 1.961-1.274 2.164-1.116 2.457-1.365 2.716-1.602 2.942-1.827 3.122-1.669 3.28-1.5 3.415-1.319 3.55-1.139 3.663-.913 3.753-.643H1.961C1.668-1.116 1.397-1.5 1.15-1.793 .947-1.658 .744-1.534 .541-1.421 .947-1.015 1.251-.637 1.454-.288 1.657 .062 1.826 .44 1.961 .846 2.299 .733 2.581 .654 2.807 .609 2.649 .451 2.468 .203 2.266-.135" fill="#2c292a"/>
<path transform="matrix(1,0,0,-1,184.0435,321.0484)" d="M0 0C-.045-.203-.113-.451-.203-.744H2.299C2.66-.744 3.111-.733 3.652-.71V-1.387C3.246-1.365 2.784-1.353 2.266-1.353H-.406C-.586-1.895-.845-2.447-1.183-3.011H2.807C2.784-3.395 2.773-3.801 2.773-4.229V-5.819C2.773-6.179 2.784-6.597 2.807-7.071H2.063V-6.462H-1.386V-7.071H-2.096C-2.074-6.665-2.063-6.281-2.063-5.92V-4.263C-2.288-4.533-2.508-4.776-2.722-4.99-2.937-5.205-3.179-5.425-3.449-5.65-3.697-5.402-3.922-5.222-4.125-5.108-3.855-4.951-3.584-4.748-3.314-4.499-3.043-4.252-2.762-3.964-2.468-3.637-2.176-3.31-1.922-2.955-1.708-2.571-1.494-2.188-1.308-1.782-1.15-1.353H-2.401C-2.92-1.353-3.404-1.365-3.855-1.387V-.71C-3.404-.733-2.908-.744-2.367-.744H-.981C-.778-.113-.654 .417-.609 .846-.316 .755-.034 .688 .237 .643 .124 .417 .045 .203 0 0M2.063-3.62H-1.3859999V-5.8529999H2.063ZM2.063-5.853" fill="#2c292a"/>
<path transform="matrix(1,0,0,-1,190.502,323.2812)" d="M0 0C-.023-.384-.034-.733-.034-1.049V-3.011C.529-3.575 1.51-3.879 2.908-3.924 4.306-3.969 5.399-3.947 6.188-3.857 5.962-4.037 5.838-4.308 5.816-4.669 5.094-4.669 4.384-4.657 3.686-4.635 2.987-4.612 2.344-4.55 1.758-4.449 1.172-4.347 .687-4.138 .304-3.823-.079-3.507-.378-3.462-.592-3.688-.806-3.913-1.014-4.24-1.217-4.669-1.42-4.466-1.646-4.285-1.894-4.127-1.308-3.676-.913-3.327-.71-3.079V-.609C-1.116-.609-1.511-.621-1.894-.643V.034C-1.443 .011-1.026 0-.643 0ZM.101 1.353C-.124 1.286-.361 1.184-.609 1.049-.631 1.274-.868 1.815-1.319 2.673-1.071 2.762-.845 2.853-.643 2.943-.237 2.154 .011 1.624 .101 1.353M2.435 3.18C2.773 3.112 3.054 3.079 3.28 3.079 3.212 2.762 3.167 2.21 3.145 1.421H5.546C5.478 1.037 5.432 .654 5.41 .271L5.241-2.368C5.219-2.752 5.021-2.994 4.649-3.096 4.277-3.197 3.934-3.293 3.618-3.383 3.595-3.09 3.483-2.797 3.28-2.503 3.821-2.481 4.176-2.442 4.345-2.385 4.514-2.329 4.61-2.188 4.633-1.962L4.802 .812H3.111C3.021-.09 2.84-.84 2.57-1.438 2.299-2.036 1.894-2.639 1.353-3.248 1.15-3.045 .901-2.865 .609-2.706 1.104-2.368 1.516-1.9 1.843-1.302 2.169-.705 2.367 0 2.435 .812 1.894 .812 1.375 .789 .879 .744V1.455C1.285 1.432 1.814 1.421 2.468 1.421 2.468 2.142 2.457 2.729 2.435 3.18" fill="#2c292a"/>
<path transform="matrix(1,0,0,-1,198.144,325.9201)" d="M0 0H1.217V-1.353C1.15-1.917 .868-2.334 .372-2.605L.034-2.301C.44-2.075 .643-1.736 .643-1.286H0Z" fill="#2c292a"/>
<path transform="matrix(1,0,0,-1,211.4684,320.2703)" d="M0 0V-.474C-.338-.587-.485-.913-.44-1.455H.101V-2.571H-.981V-1.15C-.868-.496-.553-.124-.034-.034ZM1.893 0V-.474C1.555-.587 1.409-.913 1.454-1.455H2.029V-2.571H.913V-1.15C1.048-.496 1.364-.124 1.86-.034Z" fill="#2c292a"/>
</g>
<path transform="matrix(1,0,0,-1,218.9061,320.8454)" d="M0 0V-3.011H2.908V-3.518H0V-6.462H-.609V-3.518H-3.55V-3.011H-.609V0Z" fill="#2c292a"/>
<g clip-path="url(#clip_6)">
<path transform="matrix(1,0,0,-1,223.643,320.2703)" d="M0 0H1.116V-1.489C1.003-2.03 .71-2.391 .237-2.571H.102V-2.131C.44-1.996 .597-1.658 .575-1.116H0ZM1.995 0H3.077V-1.489C2.987-2.03 2.705-2.391 2.232-2.571H2.096V-2.131C2.435-1.996 2.581-1.658 2.536-1.116H1.995Z" fill="#2c292a"/>
<path transform="matrix(1,0,0,-1,233.5154,323.1121)" d="M0 0C-.248-.316-.519-.643-.812-.981-1.037-.824-1.24-.688-1.42-.575-.879-.079-.462 .474-.169 1.083 .034 .925 .27 .778 .541 .643 .428 .53 .248 .316 0 0M5.106-1.421C4.88-1.759 4.582-2.137 4.21-2.554 3.838-2.972 3.449-3.315 3.043-3.586 3.268-3.721 3.686-3.851 4.294-3.975 4.903-4.099 5.534-4.172 6.188-4.195 5.917-4.488 5.76-4.736 5.715-4.939 4.993-4.849 4.345-4.708 3.77-4.516 3.195-4.325 2.75-4.127 2.435-3.924 2.051-4.15 1.566-4.353 .981-4.533 .394-4.714-.26-4.872-.981-5.007-1.071-4.781-1.206-4.556-1.387-4.33-.891-4.308-.31-4.223 .355-4.077 1.02-3.93 1.533-3.767 1.893-3.586 1.397-3.226 .879-2.684 .338-1.962 .045-1.962-.26-1.974-.575-1.996V-1.387C-.169-1.41 .315-1.421 .879-1.421ZM2.874 1.962H4.396C5.049 1.962 5.635 1.973 6.154 1.996V1.353C5.613 1.375 5.049 1.387 4.463 1.387H3.652V-.101C3.652-.463 3.663-.824 3.686-1.184H2.942C2.964-.824 2.976-.463 2.976-.101V1.387H1.792V-.101C1.792-.35 1.803-.71 1.826-1.184H1.082C1.104-.71 1.116-.35 1.116-.101V1.387H.372C-.282 1.387-.857 1.375-1.353 1.353V1.996C-.879 1.973-.304 1.962 .372 1.962H2.096C2.051 2.142 1.927 2.436 1.725 2.842 1.95 2.864 2.186 2.932 2.435 3.045 2.592 2.706 2.739 2.345 2.874 1.962M2.468-3.282C3.009-2.921 3.471-2.481 3.855-1.962H1.048C1.454-2.503 1.927-2.943 2.468-3.282M6.12-.474C5.94-.609 5.737-.778 5.512-.981 5.128-.53 4.655-.034 4.091 .507 4.294 .665 4.474 .823 4.633 .981 5.106 .552 5.601 .068 6.12-.474" fill="#2c292a"/>
<path transform="matrix(1,0,0,-1,246.0929,320.2703)" d="M0 0V-.474C-.338-.587-.485-.913-.44-1.455H.101V-2.571H-.981V-1.15C-.868-.496-.553-.124-.034-.034ZM1.893 0V-.474C1.555-.587 1.409-.913 1.454-1.455H2.029V-2.571H.913V-1.15C1.048-.496 1.364-.124 1.86-.034Z" fill="#2c292a"/>
</g>
<path transform="matrix(1,0,0,-1,0,595.276)" d="M250.016 271.048H256.441V271.589H250.016Z" fill="#2c292a"/>
<g clip-path="url(#clip_7)">
<path transform="matrix(1,0,0,-1,258.266,320.2703)" d="M0 0H1.116V-1.489C1.003-2.03 .71-2.391 .237-2.571H.102V-2.131C.44-1.996 .597-1.658 .575-1.116H0ZM1.995 0H3.077V-1.489C2.987-2.03 2.705-2.391 2.232-2.571H2.096V-2.131C2.435-1.996 2.581-1.658 2.536-1.116H1.995Z" fill="#2c292a"/>
</g>
<path transform="matrix(1,0,0,-1,183.6021,342.94819)" d="M0 0H-1.353L-3.269 3.947-5.185 0H-6.537L-3.889 5.075-6.256 9.642H-4.903L-3.269 6.146-1.634 9.642H-.282L-2.649 5.075Z" fill="#2c292a"/>
<g clip-path="url(#clip_8)">
<path transform="matrix(1,0,0,-1,207.6761,340.3546)" d="M0 0C.262-1.015 .713-1.579 1.353-1.692 1.991-1.804 2.508-1.739 2.902-1.494 3.297-1.25 3.579-.93 3.748-.536 3.917-.141 3.992 .3 3.973 .789 3.954 1.277 3.823 1.692 3.579 2.03 3.334 2.368 3.024 2.594 2.649 2.706 2.273 2.819 1.85 2.819 1.381 2.706 .911 2.594 .526 2.33 .225 1.917L-.733 2.03C-.658 2.255-.301 3.871 .338 6.879H4.79V5.864H1.183C.995 4.849 .808 4.04 .62 3.439 1.183 3.702 1.709 3.824 2.198 3.806 2.686 3.787 3.156 3.674 3.607 3.468 4.058 3.261 4.386 2.979 4.593 2.622 4.799 2.264 4.95 1.907 5.044 1.551 5.137 1.193 5.175 .808 5.157 .395 5.137-.019 5.053-.442 4.903-.874 4.753-1.307 4.527-1.663 4.227-1.945 3.926-2.227 3.559-2.453 3.128-2.622 2.695-2.791 2.198-2.857 1.634-2.819 1.071-2.782 .535-2.575 .028-2.199-.479-1.824-.827-1.184-1.014-.282Z" fill="#2c292a"/>
<path transform="matrix(1,0,0,-1,236.1223,340.24183)" d="M0 0C0 .451 .113 .892 .338 1.325 .563 1.757 .939 2.105 1.465 2.368 1.014 2.631 .713 2.922 .563 3.242 .413 3.561 .328 3.928 .31 4.342 .291 4.755 .347 5.112 .479 5.413 .61 5.713 .808 5.995 1.071 6.259 1.333 6.521 1.625 6.7 1.944 6.794 2.263 6.888 2.611 6.935 2.987 6.935 3.362 6.935 3.7 6.897 4.001 6.823 4.302 6.747 4.621 6.587 4.959 6.343 5.298 6.098 5.541 5.751 5.692 5.3 5.842 4.849 5.833 4.322 5.664 3.721 5.495 3.12 5.053 2.65 4.34 2.312 4.978 2.123 5.429 1.833 5.692 1.438 5.954 1.043 6.087 .564 6.087 0 6.087-.564 6.002-1.015 5.833-1.353 5.664-1.692 5.475-1.973 5.269-2.199 5.062-2.425 4.781-2.603 4.424-2.735 4.067-2.867 3.616-2.932 3.071-2.932 2.526-2.932 2.057-2.867 1.662-2.735 1.268-2.603 .939-2.406 .676-2.143 .413-1.88 .234-1.57 .141-1.212 .047-.855 0-.451 0 0M1.155 .056C1.136-.395 1.212-.789 1.381-1.128 1.55-1.466 1.86-1.683 2.311-1.776 2.761-1.87 3.231-1.861 3.72-1.748 4.207-1.635 4.545-1.373 4.734-.959 4.922-.545 4.988-.132 4.931 .282 4.875 .695 4.64 1.043 4.227 1.325 3.813 1.607 3.362 1.729 2.874 1.692 2.385 1.654 1.981 1.484 1.662 1.184 1.343 .883 1.174 .507 1.155 .056M1.353 4.454C1.353 4.078 1.484 3.721 1.747 3.383 2.009 3.045 2.423 2.876 2.987 2.876 3.55 2.876 3.973 3.045 4.255 3.383 4.537 3.721 4.668 4.125 4.649 4.595 4.63 5.065 4.461 5.413 4.142 5.638 3.823 5.864 3.39 5.957 2.846 5.92 2.301 5.883 1.916 5.723 1.691 5.441 1.465 5.159 1.353 4.83 1.353 4.454" fill="#2c292a"/>
</g>
<path transform="matrix(1,0,0,-1,0,595.276)" d="M192.662 315.654H225.12401V299.776H192.662Z" fill="#ffffff"/>
<path transform="matrix(1,0,0,-1,204.6288,291.1871)" d="M0 0H-1.037V3.609H-3.607V0H-4.644V7.713H-3.607V4.466H-1.037V7.713H0Z" fill="#2c292a"/>
<g clip-path="url(#clip_9)">
<path transform="matrix(1,0,0,-1,210.5801,287.3078)" d="M0 0C0-1.414-.218-2.429-.654-3.045-1.09-3.661-1.698-3.969-2.48-3.969-3.262-3.969-3.877-3.661-4.328-3.045-4.779-2.429-5.004-1.414-5.004 0-5.004 1.413-4.779 2.42-4.328 3.022-3.877 3.623-3.262 3.924-2.48 3.924-1.698 3.924-1.09 3.623-.654 3.022-.218 2.42 0 1.413 0 0M-1.082 0C-1.082 1.263-1.217 2.09-1.488 2.481-1.758 2.871-2.089 3.067-2.48 3.067-2.871 3.067-3.209 2.871-3.494 2.481-3.78 2.09-3.922 1.263-3.922 0-3.922-1.263-3.78-2.098-3.494-2.503-3.209-2.909-2.871-3.112-2.48-3.112-2.089-3.112-1.758-2.909-1.488-2.503-1.217-2.098-1.082-1.263-1.082 0" fill="#2c292a"/>
</g>
<path transform="matrix(1,0,0,-1,216.5766,283.4736)" d="M0 0-.992-7.804H-1.894L-2.705-2.03H-2.795L-3.607-7.804H-4.509L-5.501 0H-4.509L-4.013-4.917H-3.923L-3.246 0H-2.254L-1.578-4.917H-1.488L-.992 0Z" fill="#2c292a"/>
<path transform="matrix(1,0,0,-1,205.3051,237.513)" d="M0 0-.992-7.804H-1.894L-2.705-2.03H-2.795L-3.607-7.804H-4.509L-5.5 0H-4.509L-4.013-4.917H-3.922L-3.246 0H-2.254L-1.578-4.917H-1.488L-.992 0Z" fill="#2c292a"/>
<path transform="matrix(1,0,0,-1,210.6704,245.22641)" d="M0 0H-1.037V3.609H-3.607V0H-4.644V7.713H-3.607V4.466H-1.037V7.713H0Z" fill="#2c292a"/>
<path transform="matrix(1,0,0,-1,216.757,237.513)" d="M0 0-2.119-4.24V-7.713H-3.156V-4.24L-5.275 0H-4.238L-2.66-3.293H-2.615L-1.037 0Z" fill="#2c292a"/>
<path transform="matrix(1,0,0,-1,0,595.276)" d="M189.957 406.772H227.649V390.894H189.957Z" fill="#ffffff"/>
<path transform="matrix(1,0,0,-1,202.5774,192.3841)" d="M0 0-.992-7.804H-1.894L-2.705-2.03H-2.795L-3.607-7.804H-4.509L-5.5 0H-4.509L-4.013-4.917H-3.922L-3.246 0H-2.254L-1.578-4.917H-1.488L-.992 0Z" fill="#2c292a"/>
<path transform="matrix(1,0,0,-1,207.9426,200.0975)" d="M0 0H-1.037V3.609H-3.607V0H-4.644V7.713H-3.607V4.466H-1.037V7.713H0Z" fill="#2c292a"/>
<path transform="matrix(1,0,0,-1,214.1194,200.0975)" d="M0 0H-1.082L-1.713 2.391H-3.697L-4.328 0H-5.41L-3.156 7.804H-2.254ZM-1.939 3.248-2.66 5.999H-2.75L-3.472 3.248Z" fill="#2c292a"/>
<path transform="matrix(1,0,0,-1,219.4846,193.24109)" d="M0 0H-1.803V-6.856H-2.84V0H-4.644V.857H0Z" fill="#2c292a"/>
<path transform="matrix(1,0,0,-1,231.7495,314.3894)" stroke-width="1.254" stroke-linecap="butt" stroke-miterlimit="8" stroke-linejoin="miter" fill="none" stroke="#2c292a" d="M0 0H-20.85L-23.57-3.241-26.289 0H-47.819M-.328 97.053H-21.178L-23.898 93.812-26.617 97.053H-48.147"/>
<g clip-path="url(#clip_10)">
<path transform="matrix(1,0,0,-1,155.8513,275.1696)" d="M0 0C.631 .609 1.048 1.466 1.251 2.571H-.203V-2.267H-.879C-.857-1.658-.845-1.128-.845-.677V1.996C-.845 2.289-.857 2.673-.879 3.146H1.319C1.341 3.53 1.364 3.969 1.386 4.466H-.271C-.541 4.466-.811 4.454-1.082 4.432V5.041C-.811 5.018-.553 5.007-.304 5.007H5.309C5.534 5.007 5.861 5.018 6.289 5.041V4.432C5.974 4.454 5.658 4.466 5.343 4.466H4.024C4.024 4.127 4.001 3.688 3.956 3.146H5.985C5.962 2.74 5.951 2.39 5.951 2.098V-1.252C5.951-1.635 5.833-1.883 5.596-1.996 5.36-2.109 4.914-2.199 4.261-2.267 4.193-1.951 4.08-1.692 3.922-1.489 4.599-1.511 4.999-1.489 5.123-1.421 5.247-1.353 5.309-1.184 5.309-.913V2.571H3.889C3.843 2.187 3.776 1.827 3.686 1.489 4.317 .992 4.802 .597 5.14 .304 4.937 .124 4.768-.057 4.633-.237 4.407 .056 4.046 .417 3.55 .846 3.257 .124 2.942-.474 2.604-.947 2.378-.79 2.164-.677 1.961-.609 2.232-.316 2.491 .096 2.739 .626 2.987 1.156 3.156 1.804 3.246 2.571H1.894C1.826 2.233 1.758 1.939 1.691 1.692 2.141 1.308 2.457 1.003 2.637 .778 2.48 .643 2.31 .485 2.13 .304 1.882 .665 1.668 .936 1.488 1.116 1.24 .53 .913 0 .507-.474 .394-.338 .225-.181 0 0M3.314 3.146C3.336 3.688 3.348 4.127 3.348 4.466H2.029C2.029 4.127 2.006 3.688 1.961 3.146Z" fill="#2c292a"/>
<path transform="matrix(1,0,0,-1,164.9136,272.8352)" d="M0 0C-.023-.384-.034-.733-.034-1.049V-3.011C.529-3.575 1.51-3.879 2.908-3.924 4.306-3.969 5.399-3.947 6.188-3.857 5.962-4.037 5.838-4.308 5.816-4.669 5.094-4.669 4.384-4.657 3.686-4.635 2.987-4.612 2.344-4.55 1.758-4.449 1.172-4.347 .687-4.138 .304-3.823-.079-3.507-.378-3.462-.592-3.688-.806-3.913-1.014-4.24-1.217-4.669-1.42-4.466-1.646-4.285-1.894-4.127-1.308-3.676-.913-3.327-.71-3.079V-.609C-1.116-.609-1.511-.621-1.894-.643V.034C-1.443 .011-1.026 0-.643 0ZM.101 1.353C-.124 1.286-.361 1.184-.609 1.049-.631 1.274-.868 1.815-1.319 2.673-1.071 2.762-.845 2.853-.643 2.943-.237 2.154 .011 1.624 .101 1.353M2.435 3.18C2.773 3.112 3.054 3.079 3.28 3.079 3.212 2.762 3.167 2.21 3.145 1.421H5.546C5.478 1.037 5.432 .654 5.41 .271L5.241-2.368C5.219-2.752 5.021-2.994 4.649-3.096 4.277-3.197 3.934-3.293 3.618-3.383 3.595-3.09 3.483-2.797 3.28-2.504 3.821-2.481 4.176-2.442 4.345-2.385 4.514-2.329 4.61-2.188 4.633-1.962L4.802 .812H3.111C3.021-.09 2.84-.84 2.57-1.438 2.299-2.036 1.894-2.639 1.353-3.248 1.15-3.045 .901-2.865 .609-2.706 1.104-2.368 1.516-1.9 1.843-1.302 2.169-.705 2.367 0 2.435 .812 1.894 .812 1.375 .789 .879 .744V1.455C1.285 1.432 1.814 1.421 2.468 1.421 2.468 2.142 2.457 2.729 2.435 3.18" fill="#2c292a"/>
<path transform="matrix(1,0,0,-1,172.7246,271.9049)" d="M0 0C.383 .71 .676 1.426 .879 2.148 1.104 2.013 1.33 1.911 1.556 1.844 1.375 1.55 1.138 .998 .845 .186V-3.908C.845-4.652 .857-5.193 .879-5.531H.203C.225-5.148 .237-4.596 .237-3.874V-.93C.011-1.291-.214-1.641-.44-1.979-.598-1.731-.767-1.551-.947-1.438-.699-1.19-.384-.71 0 0M2.367 .964C2.367 1.347 2.355 1.641 2.333 1.844H3.01C2.987 1.641 2.976 1.347 2.976 .964V.051C3.223 .051 3.505 .062 3.821 .085V-.524C3.437-.502 3.156-.491 2.976-.491V-1.708H3.821C3.798-2.025 3.787-2.475 3.787-3.062 3.787-3.648 3.798-4.088 3.821-4.381H3.179V-4.043H2.13V-4.753H1.488C1.51-4.438 1.522-3.93 1.522-3.231 1.522-2.532 1.51-2.025 1.488-1.708H2.367V-.491C1.961-.491 1.623-.502 1.353-.524V.085C1.6 .062 1.939 .051 2.367 .051ZM3.179-2.216H2.131V-3.535H3.179ZM4.176 0C4.413 .643 4.587 1.325 4.7 2.047 4.925 1.956 5.196 1.866 5.512 1.776 5.354 1.618 5.151 1.122 4.903 .288H5.715C6.143 .288 6.492 .299 6.763 .321V-.22C6.537-.198 6.345-.186 6.188-.186 6.21-1.585 6.007-2.803 5.579-3.84 5.962-4.381 6.391-4.753 6.864-4.956 6.616-5.159 6.447-5.351 6.357-5.531 5.996-5.283 5.602-4.889 5.174-4.347 4.79-4.821 4.283-5.261 3.652-5.667 3.517-5.486 3.348-5.317 3.145-5.159 3.731-4.934 4.283-4.494 4.802-3.84 4.531-3.321 4.317-2.532 4.159-1.472L4.024-1.776C3.889-1.619 3.72-1.472 3.517-1.336 3.72-1.088 3.939-.643 4.176 0M4.633-.897C4.813-2.069 4.993-2.837 5.174-3.197 5.421-2.543 5.557-1.551 5.579-.22H4.734C4.666-.401 4.565-.66 4.43-.998Z" fill="#2c292a"/>
<path transform="matrix(1,0,0,-1,187.6029,270.2641)" d="M0 0V-.744C-.248-.835-.71-1.105-1.386-1.556-2.063-2.008-2.548-2.346-2.84-2.571V-6.428C-2.863-6.811-3.06-7.054-3.432-7.155-3.804-7.257-4.182-7.33-4.565-7.375-4.678-6.901-4.791-6.585-4.903-6.428-4.34-6.451-3.979-6.445-3.821-6.411-3.664-6.377-3.584-6.225-3.584-5.954V-3.248C-3.584-2.729-3.618-2.368-3.686-2.165-3.303-2.008-2.469-1.489-1.184-.609H-4.768C-5.309-.632-5.828-.643-6.323-.643V.034C-5.828 .011-5.422 0-5.106 0Z" fill="#2c292a"/>
<path transform="matrix(1,0,0,-1,195.2787,273.1397)" d="M0 0C.586 0 1.116 .011 1.589 .034V-.846C1.116-.824 .597-.812 .034-.812H-4.43C-5.016-.812-5.579-.824-6.12-.846V.034C-5.579 .011-5.016 0-4.43 0Z" fill="#2c292a"/>
<path transform="matrix(1,0,0,-1,205.6597,273.0044)" d="M0 0C-.226-.271-.395-.53-.507-.778-1.973-.147-3.156 .857-4.058 2.233-4.892 .902-6.008-.135-7.405-.88-7.518-.677-7.71-.463-7.98-.237-6.898 .214-6.059 .789-5.461 1.489-4.864 2.187-4.464 2.819-4.261 3.383-3.99 3.27-3.72 3.168-3.449 3.079-3.539 2.965-3.618 2.864-3.686 2.774-2.739 1.375-1.511 .451 0 0M-4.362-.575C-4.362-.215-4.385 .248-4.43 .812H-3.652C-3.675 .428-3.686-.045-3.686-.609V-3.011C-3.686-3.53-3.675-4.06-3.652-4.601H-4.396C-4.374-4.037-4.362-3.518-4.362-3.045Z" fill="#2c292a"/>
<path transform="matrix(1,0,0,-1,213.8089,271.3805)" d="M0 0V-5.447C0-5.762-.113-5.96-.338-6.039-.564-6.118-.925-6.179-1.42-6.225-1.42-6.022-1.511-5.762-1.691-5.447-1.33-5.447-1.071-5.43-.913-5.396-.756-5.362-.676-5.266-.676-5.108V.643H-6.256V-6.191H-7.033C-7.011-5.875-6.988-5.514-6.966-5.108V0C-6.966 .541-6.977 .969-7 1.286H.068C.022 .947 0 .519 0 0M-2.265-.304C-1.815-.304-1.488-.293-1.285-.271V-.947C-1.511-.925-1.849-.913-2.299-.913H-4.497C-5.038-.913-5.422-.925-5.647-.947V-.271C-5.399-.293-5.004-.304-4.463-.304ZM-1.961-3.079C-1.961-3.575-1.939-4.015-1.894-4.398H-5.072C-5.05-3.992-5.038-3.53-5.038-3.011-5.038-2.492-5.05-2.131-5.072-1.928H-1.894C-1.939-2.177-1.961-2.56-1.961-3.079M-2.57-2.47H-4.396V-3.823H-2.57ZM-2.57-3.823" fill="#2c292a"/>
<path transform="matrix(1,0,0,-1,218.0358,273.5119)" d="M0 0C0-1.15 .011-2.053 .034-2.706H-.676V-2.064H-2.029V-3.18H-2.739C-2.717-2.143-2.705-1.105-2.705-.068-2.705 .992-2.717 1.996-2.739 2.943H.034C.011 2.131 0 1.15 0 0M-.676 2.368H-2.029V.778H-.676ZM-.676 .203H-2.029V-1.4890001H-.676ZM3.178 3.823H3.922C3.9 3.236 3.889 2.605 3.889 1.928 4.227 1.928 4.587 1.939 4.971 1.962V1.319C4.587 1.342 4.227 1.353 3.889 1.353V-3.18C3.889-3.518 3.753-3.732 3.483-3.823 3.212-3.913 2.863-3.98 2.435-4.026 2.435-3.755 2.31-3.496 2.063-3.248 2.491-3.293 2.79-3.304 2.959-3.282 3.128-3.259 3.212-3.112 3.212-2.842V1.353C2.085 1.353 1.138 1.342 .372 1.319V1.962C1.093 1.939 2.04 1.928 3.212 1.928 3.212 2.605 3.201 3.236 3.178 3.823M2.265-1.083C2.04-1.15 1.803-1.252 1.555-1.387 1.375-.846 1.116-.338 .778 .135 .981 .225 1.194 .327 1.42 .44 1.713-.034 1.995-.541 2.265-1.083" fill="#2c292a"/>
<path transform="matrix(1,0,0,-1,224.7308,275.44023)" d="M0 0C-.248-.496-.429-.88-.541-1.15-.767-.947-.981-.801-1.184-.71-.913-.372-.671 .011-.457 .44-.242 .868-.045 1.331 .135 1.827 .338 1.669 .541 1.534 .744 1.421 .496 .969 .248 .496 0 0M.609 3.112C.406 2.999 .191 2.853-.034 2.673-.147 2.965-.462 3.507-.981 4.297-.756 4.454-.553 4.589-.372 4.702 .011 4.094 .338 3.563 .609 3.112M3.72 5.616C3.967 5.593 4.215 5.582 4.464 5.582 4.418 5.401 4.396 4.95 4.396 4.229H5.106C5.489 4.229 5.917 4.24 6.391 4.263V3.654C5.962 3.676 5.546 3.688 5.14 3.688H4.43C4.407 2.627 4.531 1.646 4.802 .744 5.162 1.421 5.432 2.165 5.613 2.977 5.838 2.842 6.075 2.74 6.323 2.673 6.21 2.424 6.03 2.018 5.782 1.455 5.534 .891 5.297 .406 5.072 0 5.432-.699 5.709-1.105 5.901-1.218 6.092-1.331 6.256-1.049 6.391-.372 6.503-.485 6.695-.598 6.966-.71 6.808-1.207 6.639-1.578 6.459-1.827 6.278-2.075 6.053-2.12 5.782-1.962 5.512-1.804 5.151-1.342 4.7-.575 4.249-1.162 3.731-1.68 3.145-2.131 2.987-1.906 2.818-1.725 2.638-1.59 3.223-1.319 3.809-.756 4.396 .101 4.058 .981 3.866 2.176 3.821 3.688H1.42V1.725C1.465 .146 1.172-1.15 .541-2.165 .36-2.007 .135-1.883-.135-1.793 .248-1.319 .507-.727 .642-.017 .778 .694 .845 1.477 .845 2.334 .845 3.191 .834 3.823 .812 4.229H3.787C3.765 4.635 3.742 5.097 3.72 5.616M1.792 2.977H3.584V2.4359999H1.792ZM3.584 .575C3.584 .056 3.595-.304 3.618-.507H1.826C1.848-.192 1.86 .169 1.86 .575 1.86 1.003 1.848 1.409 1.826 1.793H3.618C3.595 1.522 3.584 1.116 3.584 .575M3.043 1.286H2.4V-.032999994H3.043ZM6.12 4.736C5.94 4.601 5.771 4.466 5.613 4.33 5.365 4.691 5.106 4.995 4.836 5.244 5.016 5.401 5.174 5.537 5.309 5.65 5.512 5.447 5.782 5.142 6.12 4.736" fill="#2c292a"/>
<path transform="matrix(1,0,0,-1,232.7099,274.9666)" d="M0 0C.157-.609 .428-.947 .812-1.015 1.195-1.083 1.505-1.043 1.741-.897 1.978-.75 2.147-.558 2.249-.321 2.35-.085 2.395 .18 2.384 .474 2.372 .766 2.294 1.015 2.147 1.218 2 1.421 1.814 1.556 1.589 1.624 1.364 1.692 1.11 1.692 .828 1.624 .546 1.556 .315 1.398 .135 1.15L-.44 1.218C-.395 1.353-.181 2.323 .203 4.127H2.874V3.518H.71C.597 2.909 .485 2.424 .372 2.064 .71 2.221 1.025 2.295 1.319 2.284 1.611 2.272 1.894 2.204 2.164 2.081 2.435 1.956 2.632 1.787 2.756 1.573 2.879 1.359 2.97 1.144 3.026 .93 3.082 .716 3.105 .485 3.094 .237 3.082-.012 3.032-.265 2.942-.524 2.851-.784 2.716-.998 2.536-1.167 2.355-1.336 2.136-1.472 1.877-1.573 1.617-1.675 1.319-1.714 .981-1.692 .642-1.669 .321-1.545 .017-1.319-.287-1.094-.496-.71-.609-.169Z" fill="#2c292a"/>
<path transform="matrix(1,0,0,-1,238.6633,271.4144)" d="M0 0H1.522C1.499-.384 1.488-.868 1.488-1.455V-4.432C1.488-4.77 1.499-5.255 1.522-5.887H.845V-5.21H-.879V-5.954H-1.555C-1.533-5.233-1.522-4.782-1.522-4.601V-1.489C-1.522-.88-1.533-.384-1.555 0H-.575C-.462 .519-.372 1.06-.304 1.624 .011 1.511 .271 1.432 .473 1.387 .36 1.184 .203 .722 0 0M.845-.575H-.87899997V-2.267H.845ZM.845-2.842H-.87899997V-4.635H.845ZM5.343-5.108C5.297-5.514 5.083-5.785 4.7-5.92 4.317-6.056 3.889-6.146 3.415-6.191 3.393-5.943 3.291-5.684 3.111-5.413 3.562-5.435 3.917-5.424 4.176-5.379 4.435-5.334 4.599-5.233 4.666-5.075 4.734-4.917 4.785-4.455 4.819-3.688 4.852-2.921 4.88-1.85 4.903-.474H2.942C2.761-.902 2.502-1.41 2.164-1.996 2.006-1.838 1.814-1.714 1.589-1.624 1.792-1.353 1.984-1.027 2.164-.643 2.344-.26 2.502 .158 2.638 .609 2.773 1.06 2.851 1.409 2.874 1.658 3.19 1.522 3.46 1.421 3.686 1.353 3.573 1.172 3.477 .975 3.398 .761 3.319 .547 3.235 .338 3.145 .135H5.546C5.523-.338 5.512-.778 5.512-1.184 5.489-2.56 5.432-3.868 5.343-5.108M3.517-2.571C3.652-2.842 3.81-3.192 3.99-3.62 3.832-3.688 3.618-3.801 3.348-3.958 3.19-3.53 3.043-3.163 2.908-2.859 2.773-2.554 2.638-2.3 2.502-2.098 2.66-2.008 2.863-1.895 3.111-1.759Z" fill="#2c292a"/>
<path transform="matrix(1,0,0,-1,246.5421,269.7228)" d="M0 0H.676C.609-.293 .586-.88 .609-1.759 .856-1.759 1.15-1.748 1.488-1.725V-2.334C1.127-2.312 .834-2.301 .609-2.301V-3.755C.856-3.665 1.127-3.552 1.42-3.417 1.42-3.665 1.431-3.857 1.454-3.992 1.138-4.15 .856-4.274 .609-4.364V-6.8C.609-7.206 .512-7.454 .321-7.544 .129-7.634-.181-7.725-.609-7.815-.676-7.522-.778-7.262-.913-7.037-.553-7.037-.304-7.026-.169-7.003-.034-6.981 .034-6.868 .034-6.665V-4.601C-.237-4.691-.575-4.872-.981-5.142-1.071-4.872-1.161-4.624-1.251-4.398-.981-4.353-.553-4.218 .034-3.992V-2.301C-.395-2.301-.778-2.312-1.116-2.334V-1.725C-.778-1.748-.395-1.759 .034-1.759 .034-.857 .022-.271 0 0M3.652-4.398H4.294C4.272-4.646 4.261-4.849 4.261-5.007 5.523-5.007 6.334-4.996 6.695-4.973V-5.582C6.289-5.56 5.658-5.548 4.802-5.548 5.23-6.248 5.884-6.71 6.763-6.935 6.537-7.138 6.368-7.352 6.256-7.578 5.263-7.104 4.599-6.439 4.261-5.582 4.261-6.732 4.272-7.499 4.294-7.883H3.652C3.674-7.477 3.686-6.732 3.686-5.65 3.235-6.439 2.581-7.127 1.725-7.713 1.566-7.51 1.375-7.33 1.15-7.172 1.961-6.812 2.592-6.27 3.043-5.548 2.277-5.548 1.725-5.571 1.386-5.616V-4.973C1.747-4.996 2.513-5.007 3.686-5.007 3.686-4.849 3.674-4.646 3.652-4.398M1.623-4.33C1.645-4.015 1.657-3.71 1.657-3.417 1.657-3.101 1.645-2.797 1.623-2.503H3.686C3.663-2.797 3.652-3.101 3.652-3.417 3.652-3.71 3.663-4.015 3.686-4.33ZM3.111-3.011H2.164V-3.823H3.111ZM5.512-.135C5.489-.429 5.478-.722 5.478-1.015 5.478-1.308 5.489-1.613 5.512-1.928H2.401C2.423-1.59 2.435-1.286 2.435-1.015 2.435-.722 2.423-.429 2.401-.135ZM4.903-.609H2.9759999V-1.421H4.903ZM6.391-2.503C6.368-2.797 6.357-3.101 6.357-3.417 6.357-3.71 6.368-4.015 6.391-4.33H4.227C4.249-4.015 4.261-3.71 4.261-3.417 4.261-3.101 4.249-2.797 4.227-2.503ZM5.816-3.011H4.768V-3.823H5.816ZM5.816-3.823" fill="#2c292a"/>
<path transform="matrix(1,0,0,-1,255.9762,271.5158)" d="M0 0V-4.33C0-5.052 .011-5.627 .034-6.056H-.744C-.722-5.65-.71-5.086-.71-4.364V-1.184C-1.026-1.703-1.33-2.143-1.623-2.503-1.804-2.233-1.961-2.041-2.096-1.928-1.804-1.613-1.449-1.088-1.031-.355-.614 .377-.304 1.128-.101 1.895 .146 1.736 .44 1.59 .778 1.455 .575 1.297 .316 .812 0 0M2.401 .304H4.633C5.128 .304 5.523 .316 5.816 .338V-.271C5.523-.248 5.128-.237 4.633-.237H3.077V-1.556H4.464C4.847-1.556 5.162-1.545 5.41-1.522V-2.165C5.117-2.143 4.802-2.131 4.464-2.131H3.077V-3.654H4.531C4.982-3.654 5.354-3.643 5.647-3.62V-4.263C5.354-4.24 4.993-4.229 4.565-4.229H3.077V-4.872C3.077-5.503 3.088-5.931 3.111-6.157H2.401C2.423-5.909 2.435-5.57 2.435-5.142V-.237H2.097C1.758-.824 1.431-1.331 1.116-1.759 .868-1.534 .654-1.387 .473-1.319 .789-1.004 1.116-.553 1.454 .034 1.792 .62 2.063 1.252 2.266 1.928 2.604 1.77 2.896 1.658 3.145 1.59 2.919 1.409 2.671 .981 2.401 .304" fill="#2c292a"/>
</g>
<path transform="matrix(1,0,0,-1,231.4215,263.3676)" stroke-width="1.254" stroke-linecap="butt" stroke-miterlimit="8" stroke-linejoin="miter" fill="none" stroke="#2c292a" d="M0 0H-20.85L-23.57-3.187-26.289 0H-47.819"/>
<g clip-path="url(#clip_11)">
<path transform="matrix(1,0,0,-1,198.8893,252.07932)" d="M0 0C-.037-.424-.093-.984-.168-1.681H3.678C3.627-2.105 3.59-2.465 3.566-2.764L3.155-6.5C3.08-6.948 2.843-7.234 2.446-7.359 2.047-7.483 1.549-7.558 .952-7.583 .877-7.234 .753-6.935 .579-6.687 1.325-6.736 1.811-6.724 2.035-6.649 2.259-6.574 2.395-6.35 2.446-5.977L2.819-2.316H-.243C-.467-3.462-.884-4.458-1.493-5.304-2.104-6.151-2.869-6.911-3.79-7.583-4.039-7.259-4.263-7.035-4.462-6.911-3.665-6.513-2.95-5.921-2.315-5.136-1.68-4.352-1.251-3.412-1.027-2.316H-2.259C-2.682-2.316-3.23-2.329-3.902-2.353V-1.644C-3.23-1.669-2.769-1.681-2.52-1.681H-.915C-.816-.835-.765 .099-.765 1.121-.368 1.046-.044 .996 .205 .971 .106 .747 .037 .423 0 0M-2.819 .635C-2.122-.037-1.649-.523-1.4-.822-1.6-.996-1.811-1.183-2.035-1.382-2.309-.984-2.757-.486-3.379 .112-3.155 .286-2.968 .461-2.819 .635M2.035-4.669C1.885-4.819 1.711-5.068 1.512-5.416 .964-4.919 .392-4.483-.205-4.109-.032-3.835 .093-3.611 .168-3.437 .79-3.835 1.412-4.246 2.035-4.669" fill="#2c292a"/>
<path transform="matrix(1,0,0,-1,206.694,252.15399)" d="M0 0C-.149-.274-.299-.573-.448-.897V-6.014C-.448-6.661-.436-7.172-.411-7.546H-1.27C-1.245-7.122-1.232-6.636-1.232-6.089V-2.279C-1.531-2.802-1.855-3.3-2.203-3.773-2.352-3.599-2.539-3.412-2.763-3.213-2.315-2.764-1.842-2.055-1.344-1.083-.846-.112-.535 .635-.411 1.158-.137 .983 .149 .846 .448 .747 .299 .523 .149 .274 0 0M2.389-1.905V-.037C2.389 .311 2.377 .685 2.352 1.083H3.211C3.161 .685 3.136 .311 3.136-.037V-1.905H4.667C4.99-1.905 5.376-1.893 5.825-1.868V-2.615C5.401-2.59 5.028-2.577 4.704-2.577H3.136V-6.238C3.136-6.636 3.149-7.047 3.174-7.471H2.352C2.377-7.072 2.389-6.674 2.389-6.276V-2.577H1.083C.684-2.577 .299-2.59-.075-2.615V-1.868C.299-1.893 .672-1.905 1.045-1.905Z" fill="#2c292a"/>
<path transform="matrix(1,0,0,-1,217.5602,252.58359)" d="M0 0C-.336-.536-.765-1.102-1.288-1.7-1.811-2.297-2.52-2.97-3.416-3.717-3.591-3.443-3.79-3.219-4.014-3.044-3.392-2.696-2.694-2.067-1.923-1.158-1.151-.249-.579 .629-.205 1.475 .118 1.251 .392 1.089 .616 .99 .541 .865 .336 .535 0 0M1.307-2.073C.896-2.646 .379-3.269-.243-3.941-.865-4.613-1.413-5.161-1.885-5.585-1.338-5.56-.622-5.523 .262-5.473 1.145-5.423 1.998-5.373 2.819-5.323 2.421-4.626 2.084-4.09 1.811-3.717 2.059-3.567 2.271-3.406 2.446-3.231 2.844-3.779 3.23-4.333 3.603-4.893 3.976-5.454 4.3-5.983 4.574-6.481 4.399-6.531 4.138-6.692 3.79-6.967 3.64-6.668 3.454-6.344 3.23-5.995 2.01-6.046 .709-6.133-.672-6.257-2.053-6.381-2.819-6.493-2.968-6.593-3.068-6.294-3.18-5.983-3.304-5.659-2.931-5.635-2.277-5.136-1.344-4.165-.411-3.194 .479-1.937 1.326-.392 1.574-.616 1.861-.816 2.184-.99 2.01-1.139 1.718-1.501 1.307-2.073" fill="#2c292a"/>
<path transform="matrix(1,0,0,-1,203.193,207.73691)" d="M0 0V.747C0 1.145-.013 1.519-.037 1.868H.784C.759 1.593 .747 1.233 .747 .784V0H2.838C3.261 0 3.758 .012 4.331 .037V-.672C3.783-.648 3.298-.635 2.875-.635H1.344C1.692-1.781 2.196-2.684 2.856-3.343 3.516-4.003 4.119-4.445 4.667-4.669 4.443-4.844 4.231-5.08 4.032-5.379 3.186-4.807 2.495-4.153 1.96-3.418 1.425-2.684 1.02-1.83 .747-.859V-4.371H1.232C1.63-4.371 2.041-4.358 2.464-4.333V-5.043C2.041-5.018 1.618-5.006 1.195-5.006H.747C.747-5.579 .759-6.164 .784-6.761H-.037C-.013-6.164 0-5.579 0-5.006H-.485C-.884-5.006-1.282-5.018-1.68-5.043V-4.333C-1.282-4.358-.884-4.371-.485-4.371H0V-.934C-.398-1.955-.84-2.814-1.325-3.511-1.811-4.209-2.464-4.906-3.286-5.603-3.485-5.329-3.721-5.13-3.995-5.006-3.174-4.508-2.489-3.885-1.941-3.138-1.394-2.391-.958-1.557-.635-.635H-2.277C-2.676-.635-3.099-.648-3.547-.672V.037C-3.099 .012-2.688 0-2.315 0Z" fill="#2c292a"/>
<path transform="matrix(1,0,0,-1,212.2111,208.1105)" d="M0 0H1.27V.971C-.249 .897-1.157 .859-1.456 .859V0C-1.481-1.146-1.506-1.999-1.531-2.559-1.556-3.119-1.624-3.679-1.736-4.24-1.848-4.8-2.104-5.442-2.502-6.164-2.725-6.014-3.012-5.902-3.36-5.827-2.962-5.304-2.688-4.763-2.539-4.202-2.389-3.642-2.296-2.914-2.259-2.017-2.221-1.121-2.203-.424-2.203 .075-2.203 .598-2.216 1.058-2.24 1.457-1.519 1.457-.828 1.469-.168 1.494 .491 1.519 1.219 1.569 2.016 1.644 2.813 1.718 3.497 1.868 4.07 2.092 4.119 1.843 4.281 1.556 4.555 1.233 4.256 1.233 3.914 1.214 3.528 1.177 3.142 1.139 2.626 1.096 1.979 1.046V0H3.846C4.194 0 4.58 .012 5.003 .037V-.672C4.63-.648 4.244-.635 3.846-.635H1.979V-1.606H4.294C4.269-2.03 4.256-2.453 4.256-2.876 4.256-3.3 4.269-3.723 4.294-4.146H3.51V-2.204H.037V-4.371H-.709C-.685-3.898-.672-3.424-.672-2.951-.672-2.478-.685-2.03-.709-1.606H1.27V-.635H0C-.423-.635-.846-.648-1.269-.672V.037C-.846 .012-.423 0 0 0M1.923-4.128C1.861-4.613 1.574-5.056 1.064-5.454 .554-5.852-.137-6.188-1.008-6.462-1.058-6.263-1.232-6.064-1.531-5.865-.834-5.69-.28-5.491 .131-5.267 .541-5.043 .834-4.776 1.008-4.464 1.182-4.153 1.282-3.823 1.307-3.474 1.331-3.126 1.331-2.864 1.307-2.69 1.606-2.715 1.891-2.752 2.166-2.802 2.066-3.2 1.985-3.642 1.923-4.128M3.864-4.931C4.35-5.205 4.779-5.479 5.152-5.753 5.003-5.877 4.841-6.076 4.667-6.35 4.119-5.902 3.286-5.404 2.166-4.856 2.315-4.608 2.439-4.396 2.539-4.221 2.937-4.421 3.379-4.657 3.864-4.931" fill="#2c292a"/>
</g>
<path transform="matrix(1,0,0,-1,199.2816,337.5374)" d="M0 0H-3.613V3.613H-4.867V0H-8.48V-1.18H-4.867V-4.793H-3.613V-1.18H0Z" fill="#2c292a"/>
<path transform="matrix(1,0,0,-1,0,595.276)" d="M228.661 259.988H220.254V258.808H228.661ZM228.661 255.489H220.254V254.309H228.661Z" fill="#2c292a"/>
</g>
</g>
</svg>
