<svg xmlns="http://www.w3.org/2000/svg" xmlns:xlink="http://www.w3.org/1999/xlink" xmlns:inkscape="http://www.inkscape.org/namespaces/inkscape" version="1.1" width="411.024" height="595.276" viewBox="0 0 411.024 595.276">
<defs>
<clipPath id="clip_1">
<path transform="matrix(1,0,0,-1,0,595.276)" d="M0 0H411.024V595.276H0Z"/>
</clipPath>
<clipPath id="clip_2">
<path transform="matrix(1,0,0,-1,0,595.276)" d="M0 0H411.024V595.276H0Z"/>
</clipPath>
<path id="font_3_4" d="M.46099855 0V.06399536H.15499878L.4039917 .38186646C.44299317 .43185426 .46099855 .46884156 .46099855 .5258179 .46099855 .6427765 .38198854 .71777346 .2649994 .71777346 .1459961 .71777346 .068984989 .6367645 .068984989 .5248108H.14099121C.14099121 .6167755 .19898987 .6537628 .2649994 .6537628 .34298707 .6537628 .3889923 .6027832 .3889923 .5258179 .3889923 .48683167 .37599183 .45584107 .34899903 .42085267L.067993167 .06399536V0H.46099855Z"/>
<path id="font_3_9" d="M.47099305 .64790347V.71191409H.07598877V.5359192H.14698792V.64790347H.394989L.147995 0H.22399903L.47099305 .64790347Z"/>
<path id="font_3_5" d="M.45999146 .19407654C.45999146 .28303529 .4229889 .34100343 .35099793 .36799623 .4149933 .39700318 .44699098 .450943 .44699098 .52586367 .44699098 .64175418 .36698915 .71875 .25099183 .71875 .14299011 .71875 .05899048 .6507416 .050994874 .53585818H.12298584C.12998963 .60879519 .17599488 .6547394 .25099183 .6547394 .31999208 .6547394 .375 .609787 .375 .5248718 .375 .4449463 .33499146 .3959961 .24798584 .3959961H.23298645V.3330078H.24798584C.34498597 .3330078 .3880005 .28103639 .3880005 .19508362 .3880005 .10812378 .32798768 .057159425 .25099183 .057159425 .18299866 .057159425 .11999512 .09213257 .11399841 .18109131H.041992189C.04798889 .05215454 .13899231-.0068359377 .25099183-.0068359377 .36698915-.0068359377 .45999146 .06315613 .45999146 .19407654Z"/>
<clipPath id="clip_4">
<path transform="matrix(1,0,0,-1,0,595.276)" d="M0 0H411.024V595.276H0Z"/>
</clipPath>
<clipPath id="clip_5">
<path transform="matrix(1,0,0,-1,0,595.276)" d="M0 0H411.024V595.276H0Z"/>
</clipPath>
<clipPath id="clip_6">
<path transform="matrix(1,0,0,-1,0,595.276)" d="M0 0H411.024V595.276H0Z"/>
</clipPath>
<clipPath id="clip_7">
<path transform="matrix(1,0,0,-1,0,595.276)" d="M0 0H411.024V595.276H0Z"/>
</clipPath>
<clipPath id="clip_8">
<path transform="matrix(1,0,0,-1,0,595.276)" d="M0 0H411.024V595.276H0Z"/>
</clipPath>
<clipPath id="clip_9">
<path transform="matrix(1,0,0,-1,0,595.276)" d="M0 0H411.024V595.276H0Z"/>
</clipPath>
<clipPath id="clip_10">
<path transform="matrix(1,0,0,-1,0,595.276)" d="M0 0H411.024V595.276H0Z"/>
</clipPath>
<clipPath id="clip_11">
<path transform="matrix(1,0,0,-1,0,595.276)" d="M0 0H411.024V595.276H0Z"/>
</clipPath>
<clipPath id="clip_12">
<path transform="matrix(1,0,0,-1,0,595.276)" d="M0 0H411.024V595.276H0Z"/>
</clipPath>
<clipPath id="clip_13">
<path transform="matrix(1,0,0,-1,0,595.276)" d="M0 0H411.024V595.276H0Z"/>
</clipPath>
</defs>
<g clip-path="url(#clip_1)">
<g clip-path="url(#clip_2)">
<use data-text="2" xlink:href="#font_3_4" transform="matrix(9,0,0,-9,363.685,567.547)" fill="#f43040"/>
<use data-text="7" xlink:href="#font_3_9" transform="matrix(9,0,0,-9,367.285,567.547)" fill="#f43040"/>
<use data-text="3" xlink:href="#font_3_5" transform="matrix(9,0,0,-9,370.885,567.547)" fill="#f43040"/>
<path transform="matrix(1,0,0,-1,0,595.276)" d="M0 0H411.024V595.275H0Z" fill="#f43040"/>
<path transform="matrix(1,0,0,-1,362.7121,282.8655)" d="M0 0V2.14 4.28L4.278 2.14ZM-304.505 2.853H1.0700073V1.4259999H-304.505Z" fill="#ffffff"/>
<g clip-path="url(#clip_4)">
<path transform="matrix(1,0,0,-1,102.697,280.8066)" d="M0 0C.087 2.485 2.034 4.433 4.437 4.433 6.839 4.433 8.787 2.485 8.787 .081 8.787-2.323 6.839-4.271 4.437-4.271 2.034-4.271 .087-2.323 0 0" fill="#ffffff"/>
<path transform="matrix(1,0,0,-1,153.39,280.8066)" d="M0 0C.052 2.485 2 4.433 4.402 4.433 6.805 4.433 8.752 2.485 8.752 .081 8.752-2.323 6.805-4.271 4.402-4.271 2-4.271 .052-2.323 0 0" fill="#ffffff"/>
<path transform="matrix(1,0,0,-1,186.5436,280.8066)" d="M0 0C.062 2.485 2.01 4.433 4.412 4.433 6.815 4.433 8.762 2.485 8.762 .081 8.762-2.323 6.815-4.271 4.412-4.271 2.01-4.271 .062-2.323 0 0" fill="#ffffff"/>
<path transform="matrix(1,0,0,-1,102.9608,298.1478)" d="M0 0C.31 .694 .538 1.263 .686 1.706 .893 1.558 1.173 1.351 1.528 1.085 1.351 .849 1.114 .377 .819-.332 .524-1.041 .214-1.721-.111-2.37-.406-2.134-.686-1.927-.952-1.75-.628-1.278-.31-.694 0 0M1.439 3.655C1.114 3.478 .819 3.315 .553 3.168 .435 3.611 .007 4.334-.731 5.339-.495 5.486-.244 5.649 .022 5.826 .76 4.851 1.232 4.127 1.439 3.655M5.07 1.085H8.126C7.712-.185 7.181-1.145 6.532-1.794 7.535-2.267 8.569-2.518 9.631-2.548 9.395-2.842 9.247-3.182 9.189-3.567 7.978-3.33 6.856-2.917 5.823-2.326 4.672-2.917 3.402-3.345 2.015-3.611 1.985-3.315 1.867-3.005 1.661-2.68 2.871-2.621 4.037-2.341 5.159-1.839 4.716-1.396 4.347-.849 4.052-.199 3.727-.613 3.343-1.012 2.9-1.396 2.664-1.189 2.384-.997 2.059-.82 2.62-.465 3.144 .029 3.631 .665 4.118 1.299 4.465 1.868 4.672 2.37L5.779 1.927C5.513 1.69 5.277 1.41 5.07 1.085M3.432 1.573 2.458 .598C2.251 .804 2 .997 1.705 1.174 2.561 1.823 3.136 2.415 3.432 2.946 3.609 2.798 3.919 2.636 4.362 2.459 4.096 2.222 3.786 1.927 3.432 1.573M6.045 6.579C6.015 6.372 6 6.032 6 5.56H6.975C7.624 5.56 8.214 5.575 8.746 5.605V4.763C8.214 4.822 7.609 4.851 6.93 4.851H6V3.832H7.86C8.392 3.832 8.938 3.847 9.499 3.877V3.079C8.967 3.108 8.421 3.124 7.86 3.124H3.83C3.181 3.124 2.591 3.108 2.059 3.079V3.877C2.62 3.847 3.211 3.832 3.83 3.832H5.115V4.851H4.406C3.727 4.851 3.107 4.836 2.546 4.807V5.605C3.107 5.575 3.727 5.56 4.406 5.56H5.115C5.115 5.974 5.099 6.313 5.07 6.579ZM6.93 .421H4.628C5.041-.406 5.439-.982 5.823-1.307 6.295-.835 6.664-.259 6.93 .421M8.392 2.237C8.775 1.972 9.144 1.706 9.499 1.44 9.262 1.203 9.041 .967 8.834 .731 8.539 1.026 7.801 1.558 6.62 2.326 6.826 2.532 7.033 2.754 7.24 2.991 7.624 2.754 8.008 2.503 8.392 2.237" fill="#ffffff"/>
<path transform="matrix(1,0,0,-1,111.7729,306.8332)" d="M0 0V-.753C-.502-.724-.93-.709-1.284-.709H-7.572V-2.658H-.974C-.561-2.658-.118-2.644 .354-2.614V-3.367C-.118-3.338-.591-3.323-1.063-3.323H-3.808C-3.572-3.677-3.203-4.032-2.701-4.386-2.258-4.12-1.845-3.796-1.461-3.411-1.255-3.618-1.018-3.825-.753-4.032-.93-4.091-1.137-4.202-1.373-4.364-1.609-4.527-1.845-4.682-2.081-4.829-1.255-5.213-.325-5.449 .709-5.538 .413-5.774 .221-6.084 .133-6.469-2.258-6.055-3.868-5.006-4.694-3.323H-5.668V-5.228L-4.34-4.608C-4.311-4.874-4.237-5.155-4.118-5.449-4.266-5.479-4.569-5.597-5.026-5.804-5.484-6.01-5.934-6.247-6.377-6.513L-6.864-5.671C-6.598-5.494-6.465-5.243-6.465-4.918V-3.323H-7.617C-7.676-3.914-7.801-4.468-7.993-4.984-8.185-5.501-8.473-6.01-8.857-6.513-9.063-6.336-9.329-6.158-9.654-5.981-9.329-5.597-9.078-5.206-8.901-4.807-8.724-4.408-8.598-3.987-8.524-3.544-8.451-3.101-8.421-2.525-8.436-1.816-8.451-1.108-8.473-.517-8.502-.044H-1.284C-.93-.044-.502-.03 0 0M-.708 2.127C-.708 1.506-.694 .989-.664 .576H-7.838C-7.809 1.048-7.794 1.58-7.794 2.171-7.794 2.762-7.823 3.263-7.882 3.677H-.664C-.694 3.263-.708 2.747-.708 2.127M-1.506 3.101H-6.997V2.348H-1.506ZM-1.506 1.772H-6.997V1.152H-1.506ZM-2.303-1.329C-1.831-1.329-1.255-1.315-.576-1.285V-2.038C-1.255-2.009-1.831-1.994-2.303-1.994H-5.004C-5.595-1.994-6.215-2.009-6.864-2.038V-1.285C-6.215-1.315-5.668-1.329-5.225-1.329Z" fill="#ffffff"/>
<path transform="matrix(1,0,0,-1,103.0936,336.0887)" d="M0 0C-.237 .177-.531 .325-.886 .443-.502 .946-.133 1.713 .221 2.747 .516 2.599 .841 2.496 1.196 2.437 .634 1.255 .236 .443 0 0M4.384 8.861H7.218C7.661 8.861 8.148 8.876 8.679 8.905V8.063C8.177 8.092 7.69 8.108 7.218 8.108H4.384V6.823H7.794C7.764 6.203 7.75 5.567 7.75 4.918 7.75 4.298 7.764 3.722 7.794 3.19H.62C.649 3.722 .664 4.312 .664 4.962 .664 5.611 .649 6.232 .62 6.823H3.454V9.082C3.454 9.555 3.439 9.969 3.41 10.323H4.428C4.399 9.998 4.384 9.51 4.384 8.861M6.864 6.07H1.5939999V3.943H6.864ZM2.037 2.082C2.303 2.171 2.568 2.304 2.834 2.481 3.277 1.477 3.557 .813 3.675 .487 3.35 .37 3.04 .237 2.745 .089 2.716 .414 2.48 1.079 2.037 2.082M4.561 2.127C4.767 2.244 5.019 2.392 5.314 2.57 5.934 1.506 6.303 .827 6.421 .532 6.125 .384 5.845 .237 5.58 .089 5.343 .65 5.004 1.329 4.561 2.127M9.299 .487C9.122 .399 8.827 .237 8.414 0 8.177 .561 7.779 1.27 7.218 2.127 7.513 2.274 7.764 2.437 7.971 2.614 8.502 1.787 8.945 1.079 9.299 .487" fill="#ffffff"/>
<path transform="matrix(1,0,0,-1,106.6362,350.3717)" d="M0 0C-1.122-.296-1.993-.525-2.613-.687-3.233-.849-3.764-1.019-4.207-1.196-4.325-.753-4.443-.428-4.561-.222-3.853-.133-3.188-.015-2.568 .133V5.095C-3.277 5.095-3.838 5.08-4.251 5.051V5.848C-3.779 5.819-3.336 5.804-2.923 5.804H-1.461C-1.048 5.804-.591 5.819-.089 5.848V5.051C-.561 5.08-1.107 5.095-1.727 5.095V.31C-1.167 .458-.591 .605 0 .753-.03 .487-.03 .236 0 0M-.133 2.127C-.399 2.363-.65 2.525-.886 2.614-.531 3.027-.155 3.677 .244 4.563 .642 5.449 .974 6.439 1.24 7.532 1.506 7.384 1.83 7.266 2.214 7.177 2.126 7.059 2.007 6.823 1.86 6.469L1.417 5.405H4.384C4.827 5.405 5.284 5.42 5.757 5.449V4.608C5.196 4.637 4.783 4.652 4.517 4.652 4.457 3.913 4.31 3.101 4.074 2.215 3.837 1.329 3.513 .561 3.1-.089 3.366-.384 3.734-.694 4.207-1.019 4.679-1.344 5.24-1.655 5.89-1.949 5.653-2.127 5.417-2.392 5.181-2.747 4.856-2.54 4.45-2.26 3.963-1.905 3.476-1.551 3.011-1.152 2.568-.709 2.007-1.211 1.454-1.639 .908-1.994 .361-2.348-.133-2.629-.576-2.835-.724-2.54-.93-2.274-1.196-2.038-.664-1.89-.096-1.639 .509-1.285 1.114-.93 1.609-.532 1.993-.089 1.697 .413 1.417 .982 1.151 1.617 .886 2.252 .693 2.836 .576 3.367 .399 2.924 .162 2.51-.133 2.127M3.299 2.37C3.491 3.094 3.616 3.855 3.675 4.652H1.151L1.019 4.253C1.136 3.662 1.365 2.983 1.705 2.215 2.044 1.447 2.332 .886 2.568 .532 2.863 1.034 3.107 1.646 3.299 2.37" fill="#ffffff"/>
<path transform="matrix(1,0,0,-1,110.5109,355.18043)" d="M0 0C.56 0 1.136 .015 1.727 .044V-.886C1.077-.857 .502-.842 0-.842H-3.055V-7.665C-3.055-8.049-3.041-8.536-3.011-9.127H-4.03C-4.001-8.595-3.985-8.108-3.985-7.665V-.842H-6.421C-7.012-.842-7.588-.857-8.148-.886V.044C-7.588 .015-7.012 0-6.421 0ZM.354-6.557C-.118-5.937-1.034-5.006-2.391-3.766L-1.727-3.101C-.93-3.751 .029-4.667 1.151-5.848 .856-6.055 .59-6.291 .354-6.557" fill="#ffffff"/>
<path transform="matrix(1,0,0,-1,103.7578,370.0905)" d="M0 0V-4.076H3.1V2.57C3.1 3.101 3.085 3.633 3.056 4.165H4.03C4 3.751 3.985 3.219 3.985 2.57V-4.076H7.085V.089C7.085 .738 7.07 1.285 7.041 1.728H8.06C8.03 1.373 8.015 .827 8.015 .089V-3.5C8.015-4.209 8.03-4.962 8.06-5.76H7.085V-4.829H-.974C-.945-4.18-.93-3.544-.93-2.924V-.044C-.93 .635-.945 1.241-.974 1.772H.044C.015 1.063 0 .472 0 0" fill="#ffffff"/>
<path transform="matrix(1,0,0,-1,108.6511,379.0751)" d="M0 0C0-.739-.074-1.89-.221-3.456H1.816C2.376-3.456 3.011-3.441 3.72-3.411V-4.342C3.011-4.313 2.406-4.298 1.904-4.298H-.399C-.724-5.125-1.137-5.775-1.639-6.247-2.141-6.72-2.679-7.126-3.255-7.465-3.83-7.805-4.547-8.152-5.403-8.507-5.551-8.211-5.816-7.945-6.2-7.709-5.462-7.62-4.547-7.251-3.454-6.601-2.362-5.952-1.654-5.184-1.328-4.298H-4.561C-5.152-4.298-5.772-4.313-6.421-4.342V-3.411C-5.772-3.441-5.241-3.456-4.827-3.456H-1.063C-1.004-2.954-.952-2.304-.908-1.506-.864-.709-.841 .443-.841 1.949-.517 1.89-.133 1.831 .31 1.772 .103 1.358 0 .768 0 0M-2.967-2.215C-3.233-2.452-3.454-2.718-3.631-3.013-3.897-2.718-4.665-2.215-5.934-1.506-5.698-1.27-5.506-1.034-5.358-.797-4.325-1.359-3.528-1.832-2.967-2.215M-1.771-.089C-2.008-.266-2.214-.517-2.391-.842-2.982-.34-3.75 .192-4.694 .753-4.488 .959-4.311 1.181-4.163 1.418-3.307 .915-2.51 .413-1.771-.089M1.727-6.247C2.287-6.631 2.893-7.044 3.543-7.488 3.336-7.635 3.129-7.886 2.923-8.241 2.391-7.857 1.86-7.465 1.328-7.067 .797-6.668 .206-6.291-.443-5.937-.295-5.76-.118-5.523 .089-5.228 .62-5.523 1.166-5.863 1.727-6.247" fill="#ffffff"/>
<path transform="matrix(1,0,0,-1,112.3625,241.1348)" d="M0 0V-5.184C0-5.627 .015-6.306 .044-7.222H-.93V-6.424H-6.687V-7.177H-7.617C-7.588-6.38-7.572-5.745-7.572-5.272V0C-7.572 .975-7.588 1.787-7.617 2.437H.044C.015 1.58 0 .768 0 0M-.93 1.728H-6.687V-.22099996H-.93ZM-.93-.93H-6.687V-2.924H-.93ZM-.93-3.633H-6.687V-5.715H-.93ZM-.93-5.715" fill="#ffffff"/>
<path transform="matrix(1,0,0,-1,105.1444,250.99411)" d="M0 0C0 .472-.015 .93-.044 1.373H.841C.812 .959 .797 .502 .797 0V-1.063C1.269-1.063 1.771-1.049 2.303-1.019V-1.861C1.771-1.832 1.269-1.816 .797-1.816V-3.323C1.003-3.175 1.21-3.013 1.417-2.836 1.8-3.456 2.14-4.061 2.436-4.652 2.11-4.8 1.83-4.962 1.594-5.139 1.417-4.549 1.151-4.003 .797-3.5V-6.956C.797-7.576 .812-8.196 .841-8.817H-.044C-.015-8.167 0-7.547 0-6.956V-4.076C-.295-4.903-.753-5.701-1.373-6.468-1.55-6.232-1.771-6.011-2.037-5.804-1.535-5.302-1.129-4.674-.819-3.921-.509-3.168-.31-2.467-.221-1.816-.783-1.816-1.27-1.846-1.683-1.905V-1.019C-1.122-1.049-.561-1.063 0-1.063ZM3.454-6.07C3.129-6.838 2.878-7.384 2.701-7.709 2.436-7.562 2.14-7.429 1.816-7.31 2.199-6.72 2.487-6.181 2.679-5.693 2.871-5.206 3.026-4.726 3.144-4.253 3.469-4.401 3.793-4.534 4.118-4.652 4-4.829 3.779-5.302 3.454-6.07M6.908-2.26C7.498-2.26 8.015-2.245 8.458-2.215V-3.057C8.015-3.028 7.557-3.013 7.085-3.013H5.712V-7.488C5.712-7.96 5.58-8.27 5.314-8.418 5.048-8.565 4.576-8.684 3.897-8.772 3.837-8.418 3.72-8.078 3.543-7.753 4.133-7.753 4.502-7.731 4.65-7.687 4.797-7.643 4.871-7.473 4.871-7.177V-3.013H3.764C3.026-3.013 2.494-3.043 2.17-3.101V-2.215C2.553-2.245 3.085-2.26 3.764-2.26ZM6.421 .665C7.041 .665 7.543 .679 7.927 .709V-.177C7.366-.118 6.775-.089 6.155-.089H3.986C3.513-.089 3.056-.118 2.613-.177V.709C3.026 .679 3.483 .665 3.986 .665ZM8.724-6.912C8.399-7.06 8.074-7.237 7.75-7.443 7.424-6.587 6.937-5.686 6.288-4.741 6.583-4.593 6.849-4.416 7.085-4.209 7.734-5.213 8.281-6.114 8.724-6.912" fill="#ffffff"/>
</g>
<path transform="matrix(1,0,0,-1,109.3448,270.8757)" d="M0 0H-1.063L-1.683 2.348H-3.631L-4.251 0H-5.314L-3.1 7.665H-2.214ZM-1.904 3.19-2.613 5.893H-2.701L-3.41 3.19Z" fill="#ffffff"/>
<g clip-path="url(#clip_5)">
<path transform="matrix(1,0,0,-1,163.0789,241.1348)" d="M0 0V-5.184C0-5.627 .015-6.306 .044-7.222H-.93V-6.424H-6.687V-7.177H-7.617C-7.588-6.38-7.572-5.745-7.572-5.272V0C-7.572 .975-7.588 1.787-7.617 2.437H.044C.015 1.58 0 .768 0 0M-.93 1.728H-6.687V-.22099996H-.93ZM-.93-.93H-6.687V-2.924H-.93ZM-.93-3.633H-6.687V-5.715H-.93ZM-.93-5.715" fill="#ffffff"/>
<path transform="matrix(1,0,0,-1,155.8607,250.99411)" d="M0 0C0 .472-.015 .93-.044 1.373H.841C.812 .959 .797 .502 .797 0V-1.063C1.269-1.063 1.771-1.049 2.303-1.019V-1.861C1.771-1.832 1.269-1.816 .797-1.816V-3.323C1.003-3.175 1.21-3.013 1.417-2.836 1.8-3.456 2.14-4.061 2.436-4.652 2.11-4.8 1.83-4.962 1.594-5.139 1.417-4.549 1.151-4.003 .797-3.5V-6.956C.797-7.576 .812-8.196 .841-8.817H-.044C-.015-8.167 0-7.547 0-6.956V-4.076C-.295-4.903-.753-5.701-1.373-6.468-1.55-6.232-1.771-6.011-2.037-5.804-1.535-5.302-1.129-4.674-.819-3.921-.509-3.168-.31-2.467-.221-1.816-.783-1.816-1.27-1.846-1.683-1.905V-1.019C-1.122-1.049-.561-1.063 0-1.063ZM3.454-6.07C3.129-6.838 2.878-7.384 2.701-7.709 2.436-7.562 2.14-7.429 1.816-7.31 2.199-6.72 2.487-6.181 2.679-5.693 2.871-5.206 3.026-4.726 3.144-4.253 3.469-4.401 3.793-4.534 4.118-4.652 4-4.829 3.779-5.302 3.454-6.07M6.908-2.26C7.498-2.26 8.015-2.245 8.458-2.215V-3.057C8.015-3.028 7.557-3.013 7.085-3.013H5.712V-7.488C5.712-7.96 5.58-8.27 5.314-8.418 5.048-8.565 4.576-8.684 3.897-8.772 3.837-8.418 3.72-8.078 3.543-7.753 4.133-7.753 4.502-7.731 4.65-7.687 4.797-7.643 4.871-7.473 4.871-7.177V-3.013H3.764C3.026-3.013 2.494-3.043 2.17-3.101V-2.215C2.553-2.245 3.085-2.26 3.764-2.26ZM6.421 .665C7.041 .665 7.543 .679 7.927 .709V-.177C7.366-.118 6.775-.089 6.155-.089H3.986C3.513-.089 3.056-.118 2.613-.177V.709C3.026 .679 3.483 .665 3.986 .665ZM8.724-6.912C8.399-7.06 8.074-7.237 7.75-7.443 7.424-6.587 6.937-5.686 6.288-4.741 6.583-4.593 6.849-4.416 7.085-4.209 7.734-5.213 8.281-6.114 8.724-6.912" fill="#ffffff"/>
<path transform="matrix(1,0,0,-1,159.8313,268.6162)" d="M0 0C0-.857-.237-1.448-.708-1.772-1.181-2.098-1.786-2.26-2.524-2.26H-4.738V5.317H-2.435C-1.698 5.317-1.144 5.124-.775 4.741-.406 4.356-.221 3.899-.221 3.367-.221 2.836-.347 2.444-.598 2.193-.849 1.942-1.107 1.772-1.373 1.684-1.018 1.595-.702 1.41-.421 1.13-.14 .849 0 .472 0 0M-1.24 3.367C-1.24 3.751-1.351 4.032-1.572 4.209-1.793 4.386-2.067 4.475-2.391 4.475H-3.72V2.127H-2.435C-2.111 2.127-1.831 2.222-1.594 2.415-1.358 2.606-1.24 2.924-1.24 3.367M-1.063 0C-1.063 .472-1.218 .804-1.528 .997-1.838 1.189-2.185 1.285-2.568 1.285H-3.72V-1.418H-2.701C-2.17-1.418-1.764-1.315-1.483-1.108-1.203-.901-1.063-.532-1.063 0" fill="#ffffff"/>
<path transform="matrix(1,0,0,-1,158.0173,294.7142)" d="M0 0C.029 1.034 .037 1.728 .022 2.082 .007 2.437-.015 2.776-.044 3.101 .31 3.042 .708 2.997 1.151 2.968 1.063 2.673 .996 2.244 .952 1.684 .908 1.122 .886 .561 .886 0H3.144C3.941 0 4.679 .029 5.358 .089V-.886C4.767-.857 4.163-.842 3.543-.842H.93C1.048-1.344 1.254-1.854 1.55-2.37 1.845-2.887 2.148-3.345 2.458-3.744 2.768-4.142 3.195-4.563 3.742-5.006 4.288-5.449 4.886-5.819 5.535-6.114 5.299-6.291 5.063-6.586 4.827-7 4.295-6.705 3.771-6.336 3.255-5.893 2.738-5.449 2.221-4.867 1.705-4.142 1.188-3.419 .797-2.747 .531-2.127 .295-2.777 .044-3.316-.221-3.744-.487-4.172-.775-4.563-1.085-4.918-1.395-5.272-1.793-5.627-2.281-5.981-2.768-6.336-3.321-6.69-3.941-7.044-4.178-6.69-4.443-6.38-4.738-6.114-4.118-5.908-3.506-5.612-2.901-5.228-2.296-4.844-1.801-4.408-1.417-3.921-1.034-3.434-.724-2.924-.487-2.392-.251-1.861-.104-1.344-.044-.842H-2.48C-3.188-.842-3.749-.857-4.163-.886V.089C-3.749 .059-3.188 .029-2.48 0Z" fill="#ffffff"/>
<path transform="matrix(1,0,0,-1,157.2202,304.0863)" d="M0 0C-.177-.089-.34-.177-.487-.266 .753-.266 1.535-.251 1.86-.222V-1.063C1.653-1.063 1.254-1.049 .664-1.019L1.417-1.373C1.21-1.699 .915-2.275 .531-3.101 1.24-3.101 1.786-3.087 2.17-3.057V-3.899C1.786-3.87 1.402-3.855 1.018-3.855H-2.303C-2.834-3.855-3.277-3.87-3.631-3.899V-3.057C-3.425-3.087-2.864-3.101-1.948-3.101-2.155-2.599-2.421-2.082-2.746-1.551-2.51-1.433-2.258-1.3-1.993-1.152-1.698-1.566-1.388-2.082-1.063-2.703-1.358-2.851-1.58-2.984-1.727-3.101H-.31C.073-2.186 .31-1.492 .399-1.019H-.664C-2.023-1.019-2.908-1.034-3.321-1.063V-.222C-2.967-.251-2.17-.266-.93-.266-1.167 .206-1.403 .576-1.639 .842-1.373 .989-1.137 1.137-.93 1.285-.458 .694-.148 .266 0 0M1.328-6.956C1.328-7.636 1.343-8.344 1.373-9.082H.487V-8.196H-1.904V-9.082H-2.79C-2.761-8.462-2.746-7.813-2.746-7.133-2.746-6.424-2.761-5.686-2.79-4.918H1.373C1.343-5.598 1.328-6.277 1.328-6.956M.487-5.627H-1.904V-7.488H.487ZM6.222-4.851C6.472-5.31 6.583-5.775 6.554-6.247 6.524-6.72 6.325-7.082 5.956-7.332 5.586-7.584 5.033-7.753 4.295-7.842 4.236-7.517 4.103-7.163 3.897-6.779 4.605-6.779 5.07-6.698 5.292-6.535 5.513-6.373 5.616-6.158 5.602-5.893 5.586-5.627 5.432-5.258 5.137-4.785 4.841-4.313 4.502-3.884 4.118-3.5 4.354-2.968 4.664-1.949 5.048-.443H3.454V-9.171H2.568C2.597-8.551 2.613-7.842 2.613-7.044V-1.639C2.613-.99 2.583-.34 2.524 .31H6.244C5.771-1.226 5.373-2.452 5.048-3.367 5.58-3.899 5.971-4.394 6.222-4.851" fill="#ffffff"/>
<path transform="matrix(1,0,0,-1,154.7403,315.7177)" d="M0 0V-8.95H-.886C-.857-8.27-.841-7.65-.841-7.089V-1.329C-.841-.739-.857-.044-.886 .753H3.011C2.746-.133 2.539-.791 2.391-1.218 2.243-1.647 2.066-2.142 1.86-2.703 2.303-3.323 2.597-3.832 2.746-4.231 2.893-4.63 2.952-5.014 2.923-5.383 2.893-5.753 2.76-6.085 2.524-6.38 2.288-6.675 1.727-6.897 .841-7.044 .753-6.661 .62-6.321 .443-6.025 .974-6.025 1.358-5.981 1.594-5.893 1.83-5.804 1.971-5.605 2.015-5.294 2.059-4.984 1.971-4.608 1.749-4.165 1.528-3.722 1.254-3.25 .93-2.747 1.166-2.275 1.476-1.359 1.86 0ZM5.646-.089C5.631-.532 5.653-1.108 5.713-1.816 5.771-2.525 5.948-3.256 6.244-4.01 6.539-4.763 6.856-5.413 7.196-5.959 7.535-6.506 7.86-6.941 8.17-7.266 8.48-7.591 8.783-7.857 9.078-8.063 8.783-8.3 8.547-8.551 8.37-8.817 7.867-8.374 7.343-7.746 6.797-6.934 6.251-6.122 5.757-5.006 5.314-3.589 5.107-4.593 4.893-5.339 4.672-5.826 4.45-6.313 4.141-6.838 3.742-7.399 3.343-7.96 2.863-8.477 2.303-8.95 2.126-8.654 1.875-8.418 1.55-8.241 2.288-7.769 2.871-7.222 3.299-6.601 3.727-5.981 4.044-5.317 4.251-4.608 4.457-3.899 4.59-3.205 4.65-2.525 4.709-1.846 4.738-1.226 4.738-.665 4.738-.074 4.709 .561 4.65 1.241 5.151 1.181 5.52 1.152 5.757 1.152 5.697 .768 5.661 .354 5.646-.089" fill="#ffffff"/>
<path transform="matrix(1,0,0,-1,155.3603,331.2482)" d="M0 0V-2.658C.738-3.397 2.096-3.766 4.074-3.766 6.052-3.766 7.498-3.677 8.414-3.5 8.237-3.854 8.133-4.224 8.104-4.608 5.742-4.637 4.066-4.608 3.078-4.519 2.088-4.43 1.284-4.231 .664-3.921 .044-3.611-.37-3.567-.576-3.788-.783-4.01-1.034-4.371-1.328-4.874-1.594-4.578-1.86-4.327-2.126-4.12-1.654-3.707-1.196-3.323-.753-2.968V.842C-.989 .842-1.358 .827-1.86 .797V1.639C-1.388 1.61-.753 1.595 .044 1.595 .015 1.004 0 .472 0 0M.531 3.5C.206 3.323-.059 3.116-.266 2.88-.473 3.323-.857 3.913-1.417 4.652-1.181 4.829-.93 5.006-.664 5.184-.163 4.475 .236 3.913 .531 3.5M7.572 5.228C7.159 4.755 6.723 4.312 6.266 3.899 5.808 3.485 5.403 3.101 5.048 2.747H7.617C7.587 2.097 7.572 1.462 7.572 .842V-2.215C7.602-2.599 7.498-2.851 7.262-2.968 7.026-3.087 6.672-3.19 6.2-3.279 6.14-3.013 5.993-2.703 5.757-2.348 6.2-2.319 6.494-2.275 6.642-2.215 6.79-2.156 6.849-1.876 6.82-1.373H4.827V-3.19H4.03V-1.373H2.081V-3.19H1.284C1.313-2.215 1.328-1.241 1.328-.266 1.328 .709 1.313 1.713 1.284 2.747H3.897C3.749 2.983 3.424 3.308 2.923 3.722 3.129 3.899 3.321 4.091 3.498 4.298 4.03 3.884 4.399 3.573 4.605 3.367 5.077 3.869 5.447 4.253 5.712 4.519H2.878C2.288 4.519 1.771 4.504 1.328 4.475V5.272C1.771 5.243 2.258 5.228 2.79 5.228ZM4.03 2.082H2.0820003V1.107H4.03ZM4.03 .399H2.0820003V-.664H4.03ZM6.82 2.082H4.827V1.107H6.82ZM6.82 .399H4.827V-.664H6.82ZM6.82-.665" fill="#ffffff"/>
<path transform="matrix(1,0,0,-1,155.1389,345.228)" d="M0 0V3.234C-.708 3.234-1.225 3.219-1.55 3.19V4.076C-1.284 4.016-.738 3.987 .089 3.987H.93C.9 3.544 .886 3.101 .886 2.658V-.089C1.742-.827 3.004-1.203 4.672-1.218 6.339-1.233 7.661-1.167 8.635-1.019 8.458-1.314 8.325-1.684 8.237-2.127H5.58C4.841-2.127 4.163-2.104 3.543-2.06 2.923-2.016 2.398-1.89 1.971-1.684 1.542-1.477 1.166-1.255 .841-1.019 .516-.783 .214-.805-.066-1.085-.347-1.366-.664-1.757-1.018-2.26-1.196-1.964-1.461-1.713-1.816-1.506-.901-.709-.295-.207 0 0M1.151 5.715C.856 5.538 .576 5.346 .31 5.139-.281 6.143-.724 6.779-1.018 7.044-.753 7.192-.487 7.399-.221 7.665 .073 7.31 .531 6.66 1.151 5.715M5.447 .399C5.624 .458 5.712 .709 5.712 1.152V5.184H2.834C2.509 5.184 2.155 5.168 1.771 5.139V5.981C2.155 5.951 2.627 5.937 3.188 5.937H5.712C5.712 6.705 5.683 7.369 5.624 7.931H6.642C6.613 7.546 6.598 6.882 6.598 5.937 7.218 5.937 7.779 5.951 8.281 5.981V5.139C7.808 5.168 7.247 5.184 6.598 5.184V.797C6.598 .118 6.399-.288 6-.421 5.602-.554 5.107-.636 4.517-.665 4.457-.34 4.34 0 4.163 .354 4.841 .325 5.27 .339 5.447 .399M2.303 3.899C2.568 4.016 2.849 4.179 3.144 4.386 3.676 3.323 4.015 2.584 4.163 2.171 3.956 2.053 3.66 1.89 3.277 1.684 3.011 2.481 2.686 3.219 2.303 3.899" fill="#ffffff"/>
<path transform="matrix(1,0,0,-1,196.1903,241.1348)" d="M0 0V-5.184C0-5.627 .015-6.306 .044-7.222H-.93V-6.424H-6.687V-7.177H-7.617C-7.588-6.38-7.572-5.745-7.572-5.272V0C-7.572 .975-7.588 1.787-7.617 2.437H.044C.015 1.58 0 .768 0 0M-.93 1.728H-6.687V-.22099996H-.93ZM-.93-.93H-6.687V-2.924H-.93ZM-.93-3.633H-6.687V-5.715H-.93ZM-.93-5.715" fill="#ffffff"/>
<path transform="matrix(1,0,0,-1,188.9722,250.99411)" d="M0 0C0 .472-.015 .93-.044 1.373H.841C.812 .959 .797 .502 .797 0V-1.063C1.269-1.063 1.771-1.049 2.303-1.019V-1.861C1.771-1.832 1.269-1.816 .797-1.816V-3.323C1.003-3.175 1.21-3.013 1.417-2.836 1.8-3.456 2.14-4.061 2.436-4.652 2.11-4.8 1.83-4.962 1.594-5.139 1.417-4.549 1.151-4.003 .797-3.5V-6.956C.797-7.576 .812-8.196 .841-8.817H-.044C-.015-8.167 0-7.547 0-6.956V-4.076C-.295-4.903-.753-5.701-1.373-6.468-1.55-6.232-1.771-6.011-2.037-5.804-1.535-5.302-1.129-4.674-.819-3.921-.509-3.168-.31-2.467-.221-1.816-.783-1.816-1.27-1.846-1.683-1.905V-1.019C-1.122-1.049-.561-1.063 0-1.063ZM3.454-6.07C3.129-6.838 2.878-7.384 2.701-7.709 2.436-7.562 2.14-7.429 1.816-7.31 2.199-6.72 2.487-6.181 2.679-5.693 2.871-5.206 3.026-4.726 3.144-4.253 3.469-4.401 3.793-4.534 4.118-4.652 4-4.829 3.779-5.302 3.454-6.07M6.908-2.26C7.498-2.26 8.015-2.245 8.458-2.215V-3.057C8.015-3.028 7.557-3.013 7.085-3.013H5.712V-7.488C5.712-7.96 5.58-8.27 5.314-8.418 5.048-8.565 4.576-8.684 3.897-8.772 3.837-8.418 3.72-8.078 3.543-7.753 4.133-7.753 4.502-7.731 4.65-7.687 4.797-7.643 4.871-7.473 4.871-7.177V-3.013H3.764C3.026-3.013 2.494-3.043 2.17-3.101V-2.215C2.553-2.245 3.085-2.26 3.764-2.26ZM6.421 .665C7.041 .665 7.543 .679 7.927 .709V-.177C7.366-.118 6.775-.089 6.155-.089H3.986C3.513-.089 3.056-.118 2.613-.177V.709C3.026 .679 3.483 .665 3.986 .665ZM8.724-6.912C8.399-7.06 8.074-7.237 7.75-7.443 7.424-6.587 6.937-5.686 6.288-4.741 6.583-4.593 6.849-4.416 7.085-4.209 7.734-5.213 8.281-6.114 8.724-6.912" fill="#ffffff"/>
<path transform="matrix(1,0,0,-1,193.3716,267.863)" d="M0 0C-.03-1.123-.266-1.92-.708-2.392-1.151-2.865-1.683-3.101-2.303-3.101-3.011-3.101-3.617-2.813-4.118-2.237-4.621-1.661-4.871-.739-4.871 .532-4.871 1.92-4.628 2.953-4.14 3.633-3.653 4.312-3.026 4.652-2.258 4.652-1.609 4.652-1.07 4.408-.642 3.921-.215 3.434-.015 2.747-.044 1.861H-1.018C-1.018 2.51-1.122 2.997-1.328 3.323-1.535 3.648-1.845 3.81-2.258 3.81-2.731 3.81-3.107 3.567-3.388 3.079-3.669 2.592-3.808 1.772-3.808 .62-3.808-.443-3.669-1.189-3.388-1.617-3.107-2.046-2.746-2.26-2.303-2.26-1.978-2.26-1.683-2.104-1.417-1.794-1.151-1.484-1.018-.886-1.018 0Z" fill="#ffffff"/>
<path transform="matrix(1,0,0,-1,195.095,296.7522)" d="M0 0C.561 0 1.092 .015 1.594 .044V-.797C1.092-.768 .561-.753 0-.753H-1.904V-3.544C-1.904-3.81-1.793-3.951-1.572-3.965-1.351-3.98-1.048-3.987-.664-3.987-.251-3.987 .037-3.943 .199-3.854 .361-3.766 .472-3.411 .531-2.791 .945-3.028 1.313-3.175 1.639-3.234 1.461-3.825 1.262-4.224 1.041-4.43 .819-4.637 .576-4.755 .31-4.785H-1.904C-2.524-4.755-2.834-4.475-2.834-3.943V-.753H-4.428C-4.458-1.462-4.591-2.112-4.827-2.703-5.063-3.294-5.477-3.81-6.067-4.253-6.658-4.696-7.248-5.021-7.838-5.228-8.075-4.932-8.34-4.667-8.635-4.43-7.838-4.194-7.218-3.921-6.775-3.611-6.332-3.301-6.016-2.954-5.823-2.57-5.631-2.186-5.491-1.58-5.402-.753H-6.775C-7.425-.753-7.986-.768-8.458-.797V.044C-7.956 .015-7.395 0-6.775 0ZM-3.675 5.361C-3.292 4.858-2.997 4.401-2.79 3.987H1.373C1.313 3.573 1.284 3.19 1.284 2.836 1.284 2.51 1.313 2.185 1.373 1.861H.399V3.234H-7.262V1.861H-8.281C-8.252 2.244-8.237 2.614-8.237 2.968-8.237 3.323-8.252 3.662-8.281 3.987H-3.897C-4.015 4.194-4.207 4.489-4.473 4.874-4.266 4.991-4.001 5.154-3.675 5.361M-2.17 1.994C-1.609 1.994-1.078 2.008-.576 2.038V1.152C-1.078 1.181-1.609 1.196-2.17 1.196H-4.915C-5.477 1.196-6.022 1.181-6.554 1.152V2.038C-6.022 2.008-5.477 1.994-4.915 1.994Z" fill="#ffffff"/>
<path transform="matrix(1,0,0,-1,192.1281,302.89)" d="M0 0C.354-.03 .693-.06 1.018-.089 .959-.473 .945-1.167 .974-2.171H2.258C2.878-2.171 3.557-2.156 4.295-2.127V-2.968C3.527-2.939 2.849-2.924 2.258-2.924H1.018C1.048-4.047 1.24-5.272 1.594-6.601 2.155-5.745 2.597-4.756 2.923-3.633 3.217-3.87 3.557-4.076 3.941-4.253 3.705-4.519 3.439-4.962 3.144-5.582 2.849-6.203 2.465-6.853 1.993-7.532 2.258-8.063 2.546-8.484 2.856-8.794 3.166-9.105 3.38-9.238 3.498-9.193 3.616-9.149 3.734-8.639 3.853-7.665 4.147-7.901 4.457-8.079 4.783-8.196 4.576-9.407 4.347-10.079 4.096-10.212 3.845-10.345 3.543-10.345 3.188-10.212 2.834-10.079 2.502-9.828 2.192-9.459 1.882-9.09 1.623-8.684 1.417-8.241 .709-9.009-.192-9.732-1.284-10.412-1.432-10.146-1.654-9.909-1.948-9.703-1.358-9.437-.79-9.082-.244-8.639 .302-8.196 .709-7.783 .974-7.399 .767-6.838 .59-6.151 .443-5.339 .295-4.527 .206-3.722 .177-2.924H-3.631V-4.475H-.753C-.812-5.006-.857-5.553-.886-6.114L-1.018-7.886C-1.048-8.448-1.203-8.788-1.483-8.905-1.764-9.024-2.244-9.112-2.923-9.171-2.952-8.905-3.071-8.581-3.277-8.196-2.539-8.226-2.111-8.182-1.993-8.063-1.875-7.946-1.801-7.606-1.771-7.044L-1.683-5.272H-3.631C-3.631-6.424-3.72-7.384-3.897-8.152-4.074-8.921-4.399-9.629-4.871-10.279-5.196-10.042-5.491-9.88-5.757-9.791-5.373-9.319-5.108-8.868-4.96-8.44-4.812-8.012-4.702-7.547-4.628-7.044-4.554-6.542-4.51-5.834-4.495-4.918-4.48-4.003-4.488-3.087-4.517-2.171H.089C.059-1.315 .029-.591 0 0M3.853-1.418C3.587-1.625 3.35-1.832 3.144-2.038 2.79-1.566 2.317-1.079 1.727-.576 1.933-.399 2.126-.207 2.303 0 2.893-.473 3.41-.946 3.853-1.418" fill="#ffffff"/>
<path transform="matrix(1,0,0,-1,188.8512,316.5595)" d="M0 0C1.063 0 1.845 .029 2.347 .089V-.753C1.845-.724 1.077-.709 .044-.709V-2.525H1.86C1.83-3.175 1.816-3.87 1.816-4.608 1.816-5.317 1.83-6.099 1.86-6.956H.974V-6.247H-1.284V-7.089H-2.17C-2.141-6.321-2.126-5.553-2.126-4.785-2.126-3.987-2.141-3.234-2.17-2.525H-.841C-.841-.104-.857 1.462-.886 2.171H.044C.014 1.491 0 .768 0 0M1.018-3.234H-1.285V-5.494H1.018ZM6.31-3.744C6.029-4.291 5.683-4.859 5.27-5.449 5.771-6.307 6.184-6.794 6.51-6.912 6.834-7.029 7.1-6.631 7.307-5.715 7.543-5.981 7.823-6.218 8.148-6.424 7.734-7.339 7.269-7.834 6.753-7.908 6.236-7.982 5.55-7.369 4.694-6.07 4.34-6.454 3.978-6.794 3.609-7.089 3.24-7.384 2.775-7.724 2.214-8.108 2.037-7.871 1.816-7.635 1.55-7.399 1.904-7.251 2.362-6.971 2.923-6.557 3.483-6.144 3.941-5.715 4.295-5.272 4.147-4.977 3.985-4.482 3.808-3.788 3.631-3.094 3.513-2.466 3.454-1.905 2.923-1.994 2.406-2.098 1.904-2.215 1.845-1.92 1.786-1.655 1.727-1.418 2.17-1.359 2.716-1.27 3.365-1.152 3.306 .118 3.247 1.255 3.188 2.26 3.543 2.23 3.867 2.215 4.163 2.215 4.103 1.358 4.103 .28 4.163-1.019 4.812-.93 5.904-.724 7.44-.399 7.44-.665 7.469-.93 7.528-1.196 6.849-1.315 5.757-1.506 4.251-1.772 4.398-2.954 4.605-3.884 4.871-4.563 5.166-4.15 5.387-3.751 5.535-3.367 5.683-2.984 5.83-2.57 5.978-2.127 6.332-2.334 6.657-2.481 6.952-2.57 6.804-2.806 6.591-3.197 6.31-3.744M6.775 .487C6.51 .31 6.258 .103 6.022-.133 5.845 .162 5.491 .62 4.96 1.241 5.196 1.388 5.431 1.551 5.668 1.728 6.229 1.078 6.598 .665 6.775 .487" fill="#ffffff"/>
<path transform="matrix(1,0,0,-1,190.6667,328.7671)" d="M0 0V-3.987C0-4.49 .014-5.095 .044-5.804H-.753V-5.228H-3.1V-6.07H-3.941C-3.882-5.598-3.853-5.066-3.853-4.475V0C-3.853 .679-3.882 1.285-3.941 1.816H.044C.014 1.137 0 .532 0 0M-2.303 1.152H-3.1V-1.2850001H-2.303ZM-2.303-1.994H-3.1V-4.519H-2.303ZM-.753 1.152H-1.55V-1.2850001H-.753ZM-.753-1.994H-1.55V-4.519H-.753ZM2.347 1.816H5.314C5.137 1.255 4.893 .694 4.583 .133 4.273-.428 3.926-.916 3.543-1.329 3.867-1.625 4.273-1.854 4.76-2.016 5.247-2.178 5.712-2.289 6.155-2.348 5.919-2.674 5.757-2.968 5.668-3.234 5.254-3.146 4.797-2.991 4.295-2.769 3.793-2.548 3.35-2.26 2.967-1.905 2.73-2.082 2.42-2.304 2.037-2.57 1.653-2.836 1.166-3.101 .576-3.367 .457-3.072 .295-2.806 .089-2.57 .531-2.422 .922-2.267 1.262-2.104 1.601-1.943 2.007-1.669 2.48-1.285 2.303-1.049 2.14-.797 1.993-.532 1.845-.266 1.712-.015 1.594 .222 1.417-.104 1.166-.503 .841-.975 .723-.797 .472-.62 .089-.443 .502 0 .863 .554 1.174 1.218 1.483 1.883 1.697 2.51 1.816 3.101 2.14 2.953 2.494 2.82 2.878 2.703 2.701 2.525 2.524 2.23 2.347 1.816M5.048-4.342V-6.07C5.048-6.453 5.063-6.867 5.093-7.31H4.251V-6.469H1.948V-7.355H1.107C1.136-6.852 1.151-6.395 1.151-5.981V-4.386C1.151-3.943 1.136-3.53 1.107-3.146H5.093C5.063-3.5 5.048-3.899 5.048-4.342M4.251-3.855H1.948V-5.716H4.251ZM4.207 1.152H2.037C2.273 .413 2.613-.222 3.056-.753 3.498-.251 3.882 .383 4.207 1.152" fill="#ffffff"/>
<path transform="matrix(1,0,0,-1,190.3568,338.3165)" d="M0 0C-.177-.089-.34-.177-.487-.266 .753-.266 1.535-.251 1.86-.222V-1.063C1.653-1.063 1.254-1.049 .664-1.019L1.417-1.373C1.21-1.699 .915-2.275 .531-3.101 1.24-3.101 1.786-3.087 2.17-3.057V-3.899C1.786-3.87 1.402-3.854 1.018-3.854H-2.303C-2.834-3.854-3.277-3.87-3.631-3.899V-3.057C-3.425-3.087-2.864-3.101-1.948-3.101-2.155-2.599-2.421-2.082-2.746-1.551-2.51-1.433-2.258-1.3-1.993-1.152-1.698-1.566-1.388-2.082-1.063-2.703-1.358-2.851-1.58-2.984-1.727-3.101H-.31C.073-2.186 .31-1.492 .398-1.019H-.664C-2.023-1.019-2.908-1.034-3.321-1.063V-.222C-2.967-.251-2.17-.266-.93-.266-1.167 .206-1.403 .576-1.639 .842-1.373 .989-1.137 1.137-.93 1.285-.458 .694-.148 .266 0 0M1.328-6.956C1.328-7.636 1.343-8.344 1.373-9.082H.487V-8.196H-1.904V-9.082H-2.79C-2.761-8.462-2.746-7.813-2.746-7.133-2.746-6.424-2.761-5.686-2.79-4.918H1.373C1.343-5.598 1.328-6.277 1.328-6.956M.487-5.627H-1.904V-7.488H.487ZM6.222-4.851C6.472-5.31 6.583-5.775 6.554-6.247 6.524-6.72 6.325-7.082 5.956-7.332 5.586-7.584 5.033-7.753 4.295-7.842 4.236-7.517 4.103-7.163 3.897-6.779 4.605-6.779 5.07-6.698 5.292-6.535 5.513-6.373 5.616-6.158 5.602-5.893 5.586-5.627 5.431-5.258 5.137-4.785 4.841-4.313 4.502-3.884 4.118-3.5 4.354-2.968 4.664-1.949 5.048-.443H3.454V-9.171H2.568C2.597-8.551 2.613-7.842 2.613-7.044V-1.639C2.613-.99 2.583-.34 2.524 .31H6.244C5.771-1.226 5.373-2.452 5.048-3.367 5.58-3.899 5.971-4.394 6.222-4.851" fill="#ffffff"/>
<path transform="matrix(1,0,0,-1,191.8623,352.1631)" d="M0 0C.679 0 1.299 .029 1.86 .089V-.709C2.539-.177 2.982 .251 3.188 .576 3.395 .28 3.69 .059 4.074-.089 3.749-.296 3.395-.525 3.011-.775 2.627-1.027 2.273-1.27 1.948-1.506H3.366C3.837-1.506 4.31-1.492 4.783-1.462V-2.215C4.31-2.186 3.837-2.171 3.366-2.171H.841C.635-2.289 .266-2.496-.266-2.791H3.321C3.292-3.323 3.277-3.973 3.277-4.741 3.277-5.479 3.292-6.099 3.321-6.601H2.48V-6.247H-2.347V-6.734H-3.233C-3.203-6.173-3.188-5.332-3.188-4.209-3.749-4.416-4.295-4.608-4.827-4.785-4.915-4.519-5.063-4.268-5.27-4.032-4.827-3.943-4.133-3.722-3.188-3.367V-2.791H-1.948C-1.358-2.555-.901-2.348-.576-2.171H-3.764C-4.237-2.171-4.679-2.186-5.093-2.215V-1.462C-4.679-1.492-4.222-1.506-3.72-1.506H-.841V-.709H-2.613C-3.085-.709-3.528-.724-3.941-.753V.089C-3.528 .029-3.085 0-2.613 0H-.841V.753H.044C.015 .458 0 .206 0 0M3.631 2.038C3.631 1.654 3.646 1.285 3.676 .93H-4.03C-4.001 1.373-3.985 1.772-3.985 2.127-3.985 2.481-4.001 2.865-4.03 3.279H3.676C3.646 2.865 3.631 2.451 3.631 2.038M-1.683 2.614H-3.1890002V1.5510001H-1.683ZM-2.347-4.253H2.48V-3.5H-1.638C-1.964-3.648-2.2-3.766-2.347-3.854ZM2.48-4.874H-2.3470002V-5.539H2.48ZM.576 2.614H-.885V1.5510001H.576ZM.576-1.506C.753-1.389 1.166-1.123 1.816-.709H0V-1.506ZM2.834 2.614H1.3730002V1.5510001H2.834ZM2.834 1.551" fill="#ffffff"/>
<path transform="matrix(1,0,0,-1,219.0556,280.8066)" d="M0 0C-.067 2.485 1.881 4.433 4.283 4.433 6.686 4.433 8.633 2.485 8.633 .081 8.633-2.323 6.686-4.271 4.283-4.271 1.881-4.271-.067-2.323 0 0" fill="#ffffff"/>
<path transform="matrix(1,0,0,-1,228.5745,241.1348)" d="M0 0V-5.184C0-5.627 .014-6.306 .044-7.222H-.93V-6.424H-6.687V-7.177H-7.617C-7.588-6.38-7.572-5.745-7.572-5.272V0C-7.572 .975-7.588 1.787-7.617 2.437H.044C.014 1.58 0 .768 0 0M-.93 1.728H-6.687V-.22099996H-.93ZM-.93-.93H-6.687V-2.924H-.93ZM-.93-3.633H-6.687V-5.715H-.93ZM-.93-5.715" fill="#ffffff"/>
<path transform="matrix(1,0,0,-1,221.3564,250.99411)" d="M0 0C0 .472-.015 .93-.044 1.373H.841C.811 .959 .797 .502 .797 0V-1.063C1.269-1.063 1.771-1.049 2.303-1.019V-1.861C1.771-1.832 1.269-1.816 .797-1.816V-3.323C1.003-3.175 1.21-3.013 1.417-2.836 1.8-3.456 2.14-4.061 2.435-4.652 2.11-4.8 1.83-4.962 1.594-5.139 1.417-4.549 1.151-4.003 .797-3.5V-6.956C.797-7.576 .811-8.196 .841-8.817H-.044C-.015-8.167 0-7.547 0-6.956V-4.076C-.296-4.903-.753-5.701-1.373-6.468-1.55-6.232-1.771-6.011-2.037-5.804-1.535-5.302-1.129-4.674-.819-3.921-.509-3.168-.31-2.467-.222-1.816-.783-1.816-1.27-1.846-1.683-1.905V-1.019C-1.122-1.049-.561-1.063 0-1.063ZM3.454-6.07C3.129-6.838 2.878-7.384 2.701-7.709 2.435-7.562 2.14-7.429 1.815-7.31 2.199-6.72 2.487-6.181 2.679-5.693 2.871-5.206 3.026-4.726 3.144-4.253 3.469-4.401 3.793-4.534 4.118-4.652 4-4.829 3.778-5.302 3.454-6.07M6.908-2.26C7.498-2.26 8.015-2.245 8.458-2.215V-3.057C8.015-3.028 7.557-3.013 7.085-3.013H5.712V-7.488C5.712-7.96 5.58-8.27 5.314-8.418 5.048-8.565 4.576-8.684 3.897-8.772 3.837-8.418 3.72-8.078 3.542-7.753 4.133-7.753 4.502-7.731 4.65-7.687 4.797-7.643 4.871-7.473 4.871-7.177V-3.013H3.764C3.026-3.013 2.494-3.043 2.17-3.101V-2.215C2.553-2.245 3.085-2.26 3.764-2.26ZM6.421 .665C7.041 .665 7.542 .679 7.927 .709V-.177C7.365-.118 6.775-.089 6.155-.089H3.985C3.513-.089 3.055-.118 2.613-.177V.709C3.026 .679 3.483 .665 3.985 .665ZM8.724-6.912C8.398-7.06 8.074-7.237 7.749-7.443 7.424-6.587 6.937-5.686 6.288-4.741 6.583-4.593 6.849-4.416 7.085-4.209 7.734-5.213 8.281-6.114 8.724-6.912" fill="#ffffff"/>
<path transform="matrix(1,0,0,-1,225.6674,267.1099)" d="M0 0C0-1.359-.288-2.326-.864-2.902-1.439-3.478-2.214-3.766-3.188-3.766H-4.694V3.81H-3.188C-2.097 3.81-1.292 3.515-.775 2.924-.259 2.333 0 1.358 0 0M-1.063 0C-1.063 1.092-1.24 1.861-1.594 2.304-1.949 2.747-2.48 2.968-3.188 2.968H-3.676V-2.924H-3.188C-2.48-2.924-1.949-2.71-1.594-2.282-1.24-1.854-1.063-1.093-1.063 0" fill="#ffffff"/>
</g>
<path transform="matrix(1,0,0,-1,0,595.276)" d="M222.388 301.492H220.661V303.22H222.388ZM222.388 297.771H220.661V299.499H222.388ZM222.388 294.138H220.661V295.866H222.388Z" fill="#ffffff"/>
<path transform="matrix(1,0,0,-1,0,595.276)" d="M192.505 233.103H190.778V234.831H192.505ZM192.505 229.382H190.778V231.11H192.505ZM192.505 225.749H190.778V227.47699H192.505Z" fill="#ffffff"/>
<path transform="matrix(1,0,0,-1,0,595.276)" d="M222.388 290.082H220.661V291.81H222.388ZM222.388 286.361H220.661V288.089H222.388ZM222.388 282.728H220.661V284.456H222.388Z" fill="#ffffff"/>
<path transform="matrix(1,0,0,-1,0,595.276)" d="M192.505 221.693H190.778V223.42099H192.505ZM192.505 217.972H190.778V219.7H192.505ZM192.505 214.339H190.778V216.067H192.505Z" fill="#ffffff"/>
<g clip-path="url(#clip_6)">
<path transform="matrix(1,0,0,-1,196.0189,234.32462)" d="M0 0H-1.426C-1.426 2.272-4.532 4.191-8.208 4.191H-43.114C-46.495 4.191-49.339 5.522-50.609 7.477-51.88 5.522-54.724 4.191-58.105 4.191H-93.01C-96.687 4.191-99.793 2.272-99.793 0H-101.219C-101.219 3.149-97.613 5.616-93.01 5.616H-58.105C-54.428 5.616-51.322 7.535-51.322 9.807H-49.896C-49.896 7.535-46.79 5.616-43.114 5.616H-8.208C-3.606 5.616 0 3.149 0 0" fill="#ffffff"/>
<path transform="matrix(1,0,0,-1,120.4584,211.62741)" d="M0 0C-.23-.806-.461-1.571-.69-2.293-.165-3.05 .156-3.634 .271-4.044 .386-4.456 .427-4.891 .394-5.351 .361-5.812 .205-6.157-.074-6.387-.354-6.617-.838-6.782-1.528-6.88-1.66-6.288-1.792-5.894-1.923-5.697-1.232-5.763-.813-5.664-.666-5.401-.518-5.138-.493-4.776-.592-4.316-.69-3.855-1.035-3.23-1.627-2.441-1.167-.995-.855 .106-.69 .863H-2.366V-8.804H-3.303C-3.271-7.916-3.254-7.144-3.254-6.486V-.617C-3.254 .139-3.271 .929-3.303 1.751H.542C.411 1.389 .229 .805 0 0M5.94-.641C6.712-1.25 7.377-1.652 7.937-1.85 7.608-2.179 7.345-2.524 7.148-2.885 6.063-2.129 5.275-1.463 4.782-.888 4.289-.313 3.911 .271 3.648 .863 3.418 .37 3.081-.23 2.637-.937 2.194-1.645 1.61-2.392 .887-3.181 .624-2.885 .328-2.656 0-2.491 .69-1.997 1.331-1.282 1.923-.345 2.514 .592 2.974 1.57 3.303 2.589 3.565 2.424 3.911 2.293 4.338 2.195 4.206 1.964 4.124 1.8 4.092 1.702 4.551 .748 5.168-.033 5.94-.641M2.761-4.833C2.662-5.902 2.448-6.749 2.12-7.373 1.791-7.998 1.396-8.524 .937-8.952 .641-8.721 .328-8.54 0-8.409 .493-8.047 .879-7.628 1.158-7.151 1.437-6.675 1.651-6.108 1.799-5.45 1.947-4.793 2.021-3.741 2.021-2.293 2.218-2.392 2.58-2.458 3.106-2.491 2.974-2.984 2.859-3.765 2.761-4.833M5.521-3.822V-7.127C5.521-7.456 5.537-8.031 5.57-8.853H4.535C4.568-7.965 4.584-7.373 4.584-7.077V-3.822C4.584-3.362 4.568-2.869 4.535-2.343H5.62C5.553-2.804 5.521-3.297 5.521-3.822" fill="#ffffff"/>
<path transform="matrix(1,0,0,-1,132.4481,210.6163)" d="M0 0C-.542-.099-.929-.165-1.158-.197V-1.825C-.173-1.825 .632-1.792 1.257-1.726V-2.663C.632-2.631-.173-2.614-1.158-2.614V-4.192C-.173-4.192 .632-4.176 1.257-4.143V-5.08C.632-5.048-.173-5.031-1.158-5.031V-6.905C-.304-6.774 .567-6.593 1.454-6.362 1.421-6.691 1.405-7.003 1.405-7.299 .484-7.431-.37-7.595-1.158-7.793V-8.631C-1.158-9.026-1.142-9.502-1.109-10.061H-2.144C-2.112-9.502-2.095-9.026-2.095-8.631V-7.99C-2.424-8.056-2.736-8.138-3.032-8.237-3.098-7.776-3.163-7.431-3.229-7.201-2.901-7.168-2.523-7.119-2.095-7.053V-1.332C-2.095-.773-2.112-.165-2.144 .493-1.75 .493-1.241 .559-.616 .69 .008 .822 .534 1.019 .961 1.282 1.092 .92 1.273 .592 1.504 .296 1.043 .197 .542 .099 0 0M7.123-3.946C6.926-4.867 6.663-5.68 6.335-6.387 6.006-7.094 5.677-7.645 5.349-8.039 5.644-8.27 6.071-8.475 6.63-8.656 7.189-8.836 7.764-8.976 8.356-9.075 8.125-9.272 7.928-9.617 7.764-10.111 6.877-9.847 6.219-9.609 5.792-9.396 5.365-9.181 4.97-8.943 4.609-8.68 4.083-9.009 3.574-9.28 3.081-9.494 2.588-9.708 2.046-9.913 1.454-10.111 1.323-9.782 1.125-9.502 .863-9.272 1.323-9.174 1.832-9.026 2.391-8.828 2.949-8.631 3.492-8.352 4.018-7.99 3.754-7.662 3.492-7.185 3.229-6.56 2.965-5.968 2.768-5.36 2.637-4.735H1.997V-3.896C2.62-3.929 3.212-3.946 3.771-3.946ZM6.285-.395V-1.628C6.285-1.924 6.392-2.096 6.606-2.145 6.819-2.195 7.304-2.187 8.06-2.121 7.928-2.351 7.846-2.647 7.813-3.009H6.285C5.726-3.009 5.43-2.73 5.398-2.17V.197H3.722C3.722-.658 3.656-1.349 3.525-1.874 3.393-2.401 3.081-2.927 2.588-3.452 2.358-3.223 2.095-3.009 1.799-2.811 2.423-2.351 2.752-1.768 2.785-1.06 2.818-.354 2.818 .328 2.785 .986H6.335C6.302 .493 6.285 .032 6.285-.395M3.525-4.685C3.656-5.245 3.845-5.779 4.092-6.288 4.338-6.798 4.543-7.135 4.708-7.299 4.937-7.07 5.168-6.716 5.398-6.239 5.628-5.763 5.808-5.245 5.94-4.685H3.771Z" fill="#ffffff"/>
<path transform="matrix(1,0,0,-1,151.8322,212.49051)" d="M0 0V-5.77C0-6.264 .016-7.02 .049-8.039H-1.035V-7.151H-7.444V-7.99H-8.479C-8.446-7.102-8.43-6.395-8.43-5.869V0C-8.43 1.085-8.446 1.989-8.479 2.713H.049C.016 1.759 0 .855 0 0M-1.035 1.924H-7.444V-.24600005H-1.035ZM-1.035-1.036H-7.444V-3.255H-1.035ZM-1.035-4.044H-7.444V-6.3620007H-1.035ZM-1.035-6.362" fill="#ffffff"/>
<path transform="matrix(1,0,0,-1,156.3537,210.76432)" d="M0 0C0 .526-.017 1.036-.049 1.529H.937C.904 1.068 .887 .559 .887 0V-1.184C1.413-1.184 1.972-1.168 2.563-1.134V-2.071C1.972-2.039 1.413-2.022 .887-2.022V-3.699C1.117-3.535 1.347-3.354 1.578-3.156 2.004-3.847 2.382-4.521 2.711-5.179 2.349-5.344 2.037-5.524 1.775-5.721 1.578-5.064 1.282-4.456 .887-3.896V-7.743C.887-8.434 .904-9.124 .937-9.815H-.049C-.017-9.091 0-8.401 0-7.743V-4.537C-.329-5.458-.838-6.346-1.528-7.201-1.725-6.938-1.972-6.691-2.268-6.461-1.709-5.902-1.257-5.203-.912-4.365-.567-3.526-.345-2.746-.246-2.022-.871-2.022-1.413-2.055-1.873-2.121V-1.134C-1.249-1.168-.625-1.184 0-1.184ZM3.845-6.757C3.483-7.612 3.204-8.22 3.007-8.582 2.711-8.418 2.382-8.27 2.021-8.138 2.448-7.48 2.768-6.88 2.982-6.338 3.196-5.795 3.368-5.261 3.5-4.735 3.861-4.9 4.223-5.048 4.585-5.179 4.453-5.376 4.206-5.902 3.845-6.757M7.69-2.515C8.347-2.515 8.923-2.499 9.416-2.466V-3.403C8.923-3.371 8.413-3.354 7.887-3.354H6.359V-8.335C6.359-8.861 6.211-9.206 5.916-9.371 5.62-9.535 5.094-9.667 4.338-9.765 4.272-9.371 4.141-8.992 3.944-8.631 4.601-8.631 5.011-8.606 5.176-8.557 5.34-8.508 5.423-8.319 5.423-7.99V-3.354H4.19C3.368-3.354 2.777-3.387 2.416-3.452V-2.466C2.842-2.499 3.434-2.515 4.19-2.515ZM7.148 .74C7.838 .74 8.396 .756 8.824 .789V-.197C8.199-.132 7.542-.099 6.852-.099H4.437C3.911-.099 3.401-.132 2.908-.197V.789C3.368 .756 3.878 .74 4.437 .74ZM9.711-7.694C9.349-7.859 8.988-8.056 8.627-8.286 8.265-7.333 7.723-6.33 7-5.277 7.328-5.113 7.624-4.916 7.887-4.685 8.61-5.804 9.218-6.806 9.711-7.694" fill="#ffffff"/>
</g>
<path transform="matrix(1,0,0,-1,0,595.276)" d="M172.226 376.276H173.11299V384.808H172.226Z" fill="#ffffff"/>
<g clip-path="url(#clip_7)">
<path transform="matrix(1,0,0,-1,196.9957,404.7804)" d="M0 0C-.214-.428-.428-.812-.642-1.15-.856-1.49-1.177-1.944-1.604-2.514-2.032-3.085-2.549-3.674-3.155-4.28-3.476-3.959-3.797-3.71-4.118-3.531-3.405-2.889-2.843-2.301-2.433-1.766-2.024-1.23-1.631-.651-1.257-.027-.882 .597-.553 1.284-.267 2.033 .017 1.819 .374 1.64 .802 1.498 .481 .927 .214 .428 0 0M-3.743-9.309C-3.173-9.095-2.656-8.836-2.193-8.533-1.73-8.231-1.319-7.856-.963-7.41-.607-6.964-.339-6.474-.161-5.939 .017-5.404 .142-4.744 .214-3.959-.607-3.959-1.266-3.977-1.765-4.013V-2.889C-1.195-2.925-.464-2.943 .428-2.943H5.775C5.703-3.478 5.65-3.941 5.615-4.333L5.187-8.293C5.115-8.935 4.83-9.363 4.331-9.577 3.832-9.79 3.279-9.915 2.674-9.951 2.638-9.594 2.46-9.184 2.139-8.721 2.888-8.756 3.396-8.73 3.663-8.64 3.93-8.552 4.099-8.239 4.171-7.704L4.545-3.959H1.337C1.23-4.887 1.078-5.663 .882-6.286 .686-6.911 .409-7.455 .053-7.918-.303-8.382-.731-8.81-1.23-9.202-1.73-9.594-2.264-9.933-2.834-10.219-3.084-9.826-3.387-9.523-3.743-9.309M5-.321C5.766-1.284 6.845-2.122 8.235-2.836 7.949-3.085 7.664-3.46 7.379-3.959 6.738-3.496 6.176-3.059 5.695-2.648 5.214-2.239 4.813-1.855 4.492-1.498 4.171-1.142 3.814-.634 3.422 .027 3.03 .686 2.709 1.302 2.46 1.872 2.852 1.979 3.19 2.104 3.476 2.247 3.725 1.498 4.233 .642 5-.321" fill="#ffffff"/>
<path transform="matrix(1,0,0,-1,210.7919,404.5664)" d="M0 0C.392 .784 .677 1.552 .856 2.301 1.354 2.122 1.8 1.961 2.192 1.819 2.014 1.676 1.693 1.07 1.23 0H5.187C6.256 0 7.129 .018 7.807 .053V-.91H.749C.178-1.908-.357-2.711-.856-3.317H1.925C1.925-2.533 1.907-1.891 1.872-1.391H2.995C2.959-1.891 2.941-2.533 2.941-3.317H6.684C6.648-3.959 6.631-4.601 6.631-5.243V-7.436C6.631-8.114 6.444-8.542 6.069-8.72 5.695-8.899 5.151-9.024 4.438-9.095 4.367-8.596 4.206-8.185 3.957-7.865 4.777-7.865 5.267-7.811 5.427-7.704 5.588-7.597 5.65-7.312 5.615-6.848V-4.227H2.941V-7.865C2.941-8.613 2.959-9.434 2.995-10.326H1.872C1.907-9.434 1.925-8.613 1.925-7.865V-4.227H-.588V-9.042H-1.658C-1.623-8.293-1.604-7.562-1.604-6.848V-4.28C-2.068-4.815-2.763-5.493-3.69-6.313-3.939-6.028-4.26-5.76-4.652-5.51-3.869-4.975-3.111-4.325-2.38-3.558-1.649-2.791-1.016-1.908-.481-.91H-1.765C-2.656-.91-3.476-.928-4.224-.963V.053C-3.476 .018-2.656 0-1.765 0Z" fill="#ffffff"/>
<path transform="matrix(1,0,0,-1,226.4596,405.2619)" d="M0 0C-.072 1.248-.125 2.193-.16 2.836 .054 2.8 .516 2.764 1.23 2.728 1.158 2.479 1.141 1.569 1.177 0H3.316C3.992 0 4.687 .018 5.401 .053V-1.017C4.759-.981 4.082-.963 3.369-.963H1.23C1.337-1.891 1.488-2.755 1.684-3.558 1.88-4.36 2.139-5.118 2.46-5.832 2.781-6.545 3.199-7.178 3.717-7.731 4.233-8.284 4.545-8.311 4.652-7.811 4.759-7.312 4.794-6.813 4.759-6.313 5.08-6.563 5.525-6.794 6.096-7.009 5.846-8.542 5.481-9.363 5-9.47 4.519-9.577 4.037-9.46 3.556-9.122 3.075-8.782 2.62-8.293 2.193-7.651 1.765-7.009 1.417-6.305 1.15-5.537 .882-4.771 .659-3.977 .481-3.156 .303-2.336 .178-1.605 .107-.963H-3.797C-4.831-.963-5.668-.981-6.31-1.017V.053C-5.633 .018-4.812 0-3.85 0ZM-2.246-2.836C-1.569-2.836-.927-2.818-.321-2.782V-3.798C-.962-3.763-1.64-3.745-2.353-3.745V-7.116C-1.604-6.937-.749-6.723 .214-6.474V-7.436C-1.069-7.686-2.085-7.927-2.834-8.159-3.583-8.39-4.492-8.721-5.561-9.148L-6.096-7.865C-5.668-7.829-4.777-7.669-3.422-7.383V-3.745C-4.457-3.745-5.169-3.763-5.561-3.798V-2.782C-5.169-2.818-4.617-2.836-3.903-2.836ZM4.438 .856C4.26 .784 3.921 .57 3.422 .214 3.173 .642 2.727 1.177 2.086 1.819 2.264 1.961 2.567 2.193 2.995 2.514 3.671 1.766 4.153 1.212 4.438 .856" fill="#ffffff"/>
<path transform="matrix(1,0,0,-1,235.2292,402.7474)" d="M0 0H1.176C1.14-.571 1.123-1.712 1.123-3.424 1.8-3.424 2.37-3.406 2.834-3.371V-4.333C2.37-4.298 1.8-4.28 1.123-4.28V-10.165C1.123-10.665 1.14-11.306 1.176-12.091H0C.035-11.306 .053-10.665 .053-10.165V-4.28C-.66-4.28-1.23-4.298-1.658-4.333V-3.371C-1.23-3.406-.66-3.424 .053-3.424 .053-1.712 .035-.571 0 0M5.24 .16C5.632 .053 6.06-.018 6.524-.053 6.381-.624 6.327-1.498 6.363-2.675H9.251C9.179-2.996 9.108-3.531 9.037-4.28L8.663-10.219C8.591-10.789 8.377-11.136 8.021-11.262 7.664-11.386 7.165-11.52 6.524-11.663 6.381-11.199 6.22-10.807 6.043-10.486 6.791-10.451 7.246-10.415 7.406-10.379 7.566-10.344 7.664-10.094 7.7-9.63L8.075-3.531H6.31C6.274-5.136 6.024-6.652 5.561-8.078 5.098-9.505 4.295-10.789 3.155-11.931 2.941-11.645 2.513-11.396 1.872-11.181 2.691-10.754 3.44-9.88 4.117-8.56 4.794-7.241 5.169-5.564 5.24-3.531 4.563-3.531 3.885-3.549 3.208-3.585V-2.621C3.885-2.657 4.58-2.675 5.294-2.675 5.294-1.534 5.276-.589 5.24 .16M3.208-8.239C2.852-8.097 2.513-8.007 2.192-7.971 2.691-6.652 2.976-5.743 3.048-5.243 3.333-5.35 3.725-5.439 4.224-5.51 4.011-5.796 3.671-6.706 3.208-8.239M11.123-7.651C10.73-7.722 10.391-7.847 10.106-8.025 9.893-7.276 9.589-6.456 9.197-5.564 9.518-5.457 9.821-5.315 10.106-5.136 10.641-6.278 10.98-7.116 11.123-7.651" fill="#ffffff"/>
<path transform="matrix(1,0,0,-1,250.5227,405.3154)" d="M0 0V-6.848C0-7.99 .018-8.899 .054-9.577H-1.176C-1.141-8.935-1.123-8.043-1.123-6.902V-1.872C-1.623-2.693-2.104-3.389-2.567-3.959-2.852-3.531-3.102-3.228-3.315-3.049-2.852-2.55-2.291-1.721-1.631-.562-.972 .597-.481 1.783-.16 2.996 .232 2.746 .695 2.514 1.23 2.301 .909 2.051 .499 1.284 0 0M3.797 .482H7.326C8.11 .482 8.734 .499 9.198 .535V-.428C8.734-.393 8.11-.375 7.326-.375H4.866V-2.461H7.059C7.664-2.461 8.163-2.443 8.556-2.408V-3.424C8.092-3.389 7.593-3.371 7.059-3.371H4.866V-5.778H7.165C7.878-5.778 8.466-5.76 8.93-5.725V-6.741C8.466-6.706 7.896-6.687 7.219-6.687H4.866V-7.704C4.866-8.702 4.884-9.38 4.92-9.737H3.797C3.832-9.344 3.85-8.809 3.85-8.132V-.375H3.315C2.781-1.302 2.263-2.105 1.765-2.782 1.372-2.426 1.034-2.194 .749-2.087 1.247-1.587 1.765-.874 2.299 .053 2.834 .981 3.262 1.979 3.583 3.049 4.117 2.8 4.58 2.621 4.973 2.514 4.616 2.229 4.224 1.551 3.797 .482" fill="#ffffff"/>
<path transform="matrix(1,0,0,-1,359.567,202.03989)" d="M0 0H-1.426C-1.426 2.312-4.584 4.265-8.322 4.265H-125.712C-129.149 4.265-132.038 5.621-133.321 7.611-134.605 5.621-137.494 4.265-140.931 4.265H-258.321C-262.059 4.265-265.217 2.312-265.217 0H-266.643C-266.643 3.191-262.987 5.691-258.321 5.691H-140.931C-137.193 5.691-134.034 7.644-134.034 9.956H-132.608C-132.608 7.644-129.45 5.691-125.712 5.691H-8.322C-3.656 5.691 0 3.191 0 0" fill="#ffffff"/>
</g>
<path transform="matrix(1,0,0,-1,0,595.276)" d="M117.883 323.671H146.33101V307.621H117.883Z" fill="#f43040"/>
<g clip-path="url(#clip_8)">
<path transform="matrix(1,0,0,-1,122.455,274.4168)" d="M0 0H.974C.944-.473 .93-1.418 .93-2.835 1.49-2.835 1.963-2.821 2.347-2.791V-3.589C1.963-3.56 1.49-3.544 .93-3.544V-8.418C.93-8.832 .944-9.363 .974-10.013H0C.029-9.363 .044-8.832 .044-8.418V-3.544C-.547-3.544-1.019-3.56-1.373-3.589V-2.791C-1.019-2.821-.547-2.835 .044-2.835 .044-1.418 .029-.473 0 0M4.34 .133C4.664 .044 5.018-.015 5.402-.044 5.284-.517 5.24-1.241 5.27-2.215H7.661C7.601-2.481 7.543-2.924 7.484-3.544L7.174-8.462C7.114-8.935 6.937-9.222 6.642-9.326 6.347-9.429 5.934-9.54 5.402-9.658 5.284-9.274 5.151-8.95 5.004-8.684 5.624-8.655 6-8.625 6.133-8.595 6.266-8.566 6.347-8.359 6.377-7.975L6.687-2.924H5.225C5.196-4.253 4.989-5.509 4.605-6.69 4.221-7.872 3.557-8.935 2.613-9.88 2.435-9.643 2.081-9.437 1.55-9.26 2.229-8.905 2.849-8.182 3.41-7.089 3.97-5.996 4.28-4.608 4.34-2.924 3.779-2.924 3.217-2.939 2.657-2.968V-2.171C3.217-2.201 3.793-2.215 4.384-2.215 4.384-1.27 4.369-.487 4.34 .133M2.657-6.823C2.362-6.705 2.081-6.631 1.816-6.601 2.229-5.509 2.465-4.756 2.524-4.342 2.76-4.43 3.084-4.505 3.498-4.563 3.321-4.8 3.04-5.553 2.657-6.823M9.211-6.336C8.886-6.395 8.605-6.498 8.369-6.646 8.192-6.025 7.941-5.346 7.617-4.608 7.882-4.519 8.133-4.401 8.369-4.253 8.812-5.199 9.092-5.893 9.211-6.336" fill="#ffffff"/>
<path transform="matrix(1,0,0,-1,135.1879,276.5434)" d="M0 0V-5.671C0-6.617 .015-7.369 .044-7.931H-.974C-.945-7.399-.93-6.661-.93-5.715V-1.551C-1.344-2.23-1.742-2.806-2.126-3.279-2.362-2.924-2.568-2.674-2.745-2.525-2.362-2.112-1.897-1.425-1.351-.465-.805 .494-.398 1.477-.133 2.481 .192 2.274 .576 2.082 1.019 1.905 .753 1.698 .413 1.063 0 0M3.144 .399H6.067C6.716 .399 7.233 .413 7.617 .443V-.354C7.233-.325 6.716-.31 6.067-.31H4.03V-2.038H5.845C6.347-2.038 6.76-2.023 7.085-1.994V-2.836C6.701-2.806 6.288-2.791 5.845-2.791H4.03V-4.785H5.934C6.524-4.785 7.011-4.77 7.395-4.741V-5.582C7.011-5.553 6.539-5.538 5.978-5.538H4.03V-6.38C4.03-7.206 4.044-7.768 4.074-8.063H3.144C3.173-7.738 3.188-7.295 3.188-6.734V-.31H2.746C2.303-1.079 1.875-1.743 1.461-2.304 1.136-2.009 .856-1.816 .62-1.728 1.033-1.315 1.461-.724 1.904 .044 2.347 .812 2.701 1.639 2.967 2.525 3.41 2.318 3.793 2.171 4.118 2.082 3.823 1.846 3.498 1.285 3.144 .399" fill="#ffffff"/>
<path transform="matrix(1,0,0,-1,245.7924,280.8066)" d="M0 0C-.045 2.485 1.902 4.433 4.305 4.433 6.707 4.433 8.655 2.485 8.655 .081 8.655-2.323 6.707-4.271 4.305-4.271 1.902-4.271-.045-2.323 0 0" fill="#ffffff"/>
<path transform="matrix(1,0,0,-1,255.3329,241.1348)" d="M0 0V-5.184C0-5.627 .014-6.306 .044-7.222H-.93V-6.424H-6.687V-7.177H-7.617C-7.588-6.38-7.572-5.745-7.572-5.272V0C-7.572 .975-7.588 1.787-7.617 2.437H.044C.014 1.58 0 .768 0 0M-.93 1.728H-6.687V-.22099996H-.93ZM-.93-.93H-6.687V-2.924H-.93ZM-.93-3.633H-6.687V-5.715H-.93ZM-.93-5.715" fill="#ffffff"/>
<path transform="matrix(1,0,0,-1,248.1148,250.99411)" d="M0 0C0 .472-.015 .93-.044 1.373H.841C.811 .959 .797 .502 .797 0V-1.063C1.269-1.063 1.771-1.049 2.303-1.019V-1.861C1.771-1.832 1.269-1.816 .797-1.816V-3.323C1.003-3.175 1.21-3.013 1.417-2.836 1.8-3.456 2.14-4.061 2.435-4.652 2.11-4.8 1.83-4.962 1.594-5.139 1.417-4.549 1.151-4.003 .797-3.5V-6.956C.797-7.576 .811-8.196 .841-8.817H-.044C-.015-8.167 0-7.547 0-6.956V-4.076C-.296-4.903-.753-5.701-1.373-6.468-1.55-6.232-1.771-6.011-2.037-5.804-1.535-5.302-1.129-4.674-.819-3.921-.509-3.168-.31-2.467-.222-1.816-.783-1.816-1.27-1.846-1.683-1.905V-1.019C-1.122-1.049-.561-1.063 0-1.063ZM3.454-6.07C3.129-6.838 2.878-7.384 2.701-7.709 2.435-7.562 2.14-7.429 1.815-7.31 2.199-6.72 2.487-6.181 2.679-5.693 2.871-5.206 3.026-4.726 3.144-4.253 3.469-4.401 3.793-4.534 4.118-4.652 4-4.829 3.778-5.302 3.454-6.07M6.908-2.26C7.498-2.26 8.015-2.245 8.458-2.215V-3.057C8.015-3.028 7.557-3.013 7.085-3.013H5.712V-7.488C5.712-7.96 5.58-8.27 5.314-8.418 5.048-8.565 4.576-8.684 3.897-8.772 3.837-8.418 3.72-8.078 3.542-7.753 4.133-7.753 4.502-7.731 4.65-7.687 4.797-7.643 4.871-7.473 4.871-7.177V-3.013H3.764C3.026-3.013 2.494-3.043 2.17-3.101V-2.215C2.553-2.245 3.085-2.26 3.764-2.26ZM6.421 .665C7.041 .665 7.542 .679 7.927 .709V-.177C7.365-.118 6.775-.089 6.155-.089H3.985C3.513-.089 3.055-.118 2.613-.177V.709C3.026 .679 3.483 .665 3.985 .665ZM8.724-6.912C8.398-7.06 8.074-7.237 7.749-7.443 7.424-6.587 6.937-5.686 6.288-4.741 6.583-4.593 6.849-4.416 7.085-4.209 7.734-5.213 8.281-6.114 8.724-6.912" fill="#ffffff"/>
</g>
<path transform="matrix(1,0,0,-1,252.3814,270.8757)" d="M0 0H-4.517V7.576H-.221V6.734H-3.498V4.386H-.487V3.544H-3.498V.842H0Z" fill="#ffffff"/>
<path transform="matrix(1,0,0,-1,0,595.276)" d="M249.146 301.492H247.41899V303.22H249.146ZM249.146 297.771H247.41899V299.499H249.146ZM249.146 294.138H247.41899V295.866H249.146Z" fill="#ffffff"/>
<path transform="matrix(1,0,0,-1,0,595.276)" d="M249.146 290.082H247.41899V291.81H249.146ZM249.146 286.361H247.41899V288.089H249.146ZM249.146 282.728H247.41899V284.456H249.146Z" fill="#ffffff"/>
<g clip-path="url(#clip_9)">
<path transform="matrix(1,0,0,-1,291.7798,280.8066)" d="M0 0C.097 2.485 2.045 4.433 4.448 4.433 6.85 4.433 8.798 2.485 8.798 .081 8.798-2.323 6.85-4.271 4.448-4.271 2.045-4.271 .097-2.323 0 0" fill="#ffffff"/>
<path transform="matrix(1,0,0,-1,301.4599,241.1348)" d="M0 0V-5.184C0-5.627 .014-6.306 .044-7.222H-.93V-6.424H-6.687V-7.177H-7.617C-7.588-6.38-7.572-5.745-7.572-5.272V0C-7.572 .975-7.588 1.787-7.617 2.437H.044C.014 1.58 0 .768 0 0M-.93 1.728H-6.687V-.22099996H-.93ZM-.93-.93H-6.687V-2.924H-.93ZM-.93-3.633H-6.687V-5.715H-.93ZM-.93-5.715" fill="#ffffff"/>
<path transform="matrix(1,0,0,-1,294.2418,250.99411)" d="M0 0C0 .472-.015 .93-.044 1.373H.841C.811 .959 .797 .502 .797 0V-1.063C1.269-1.063 1.771-1.049 2.303-1.019V-1.861C1.771-1.832 1.269-1.816 .797-1.816V-3.323C1.003-3.175 1.21-3.013 1.417-2.836 1.8-3.456 2.14-4.061 2.436-4.652 2.11-4.8 1.83-4.962 1.594-5.139 1.417-4.549 1.151-4.003 .797-3.5V-6.956C.797-7.576 .811-8.196 .841-8.817H-.044C-.015-8.167 0-7.547 0-6.956V-4.076C-.296-4.903-.753-5.701-1.373-6.468-1.55-6.232-1.771-6.011-2.037-5.804-1.535-5.302-1.129-4.674-.819-3.921-.509-3.168-.31-2.467-.222-1.816-.783-1.816-1.27-1.846-1.683-1.905V-1.019C-1.122-1.049-.561-1.063 0-1.063ZM3.454-6.07C3.129-6.838 2.878-7.384 2.701-7.709 2.436-7.562 2.14-7.429 1.815-7.31 2.199-6.72 2.487-6.181 2.679-5.693 2.871-5.206 3.026-4.726 3.144-4.253 3.469-4.401 3.793-4.534 4.118-4.652 4-4.829 3.778-5.302 3.454-6.07M6.908-2.26C7.498-2.26 8.015-2.245 8.458-2.215V-3.057C8.015-3.028 7.557-3.013 7.085-3.013H5.712V-7.488C5.712-7.96 5.58-8.27 5.314-8.418 5.048-8.565 4.576-8.684 3.897-8.772 3.837-8.418 3.72-8.078 3.542-7.753 4.133-7.753 4.502-7.731 4.65-7.687 4.797-7.643 4.871-7.473 4.871-7.177V-3.013H3.764C3.026-3.013 2.494-3.043 2.17-3.101V-2.215C2.553-2.245 3.085-2.26 3.764-2.26ZM6.421 .665C7.041 .665 7.542 .679 7.927 .709V-.177C7.365-.118 6.775-.089 6.155-.089H3.985C3.513-.089 3.055-.118 2.613-.177V.709C3.026 .679 3.483 .665 3.985 .665ZM8.724-6.912C8.398-7.06 8.074-7.237 7.749-7.443 7.424-6.587 6.937-5.686 6.288-4.741 6.583-4.593 6.849-4.416 7.085-4.209 7.734-5.213 8.281-6.114 8.724-6.912" fill="#ffffff"/>
</g>
<path transform="matrix(1,0,0,-1,298.5528,264.1414)" d="M0 0H-3.631V-2.481H-.886V-3.323H-3.631V-6.734H-4.65V.842H0Z" fill="#ffffff"/>
<path transform="matrix(1,0,0,-1,0,595.276)" d="M295.281 301.492H293.55403V303.22H295.281ZM295.281 297.771H293.55403V299.499H295.281ZM295.281 294.138H293.55403V295.866H295.281Z" fill="#ffffff"/>
<path transform="matrix(1,0,0,-1,0,595.276)" d="M295.281 290.082H293.55403V291.81H295.281ZM295.281 286.361H293.55403V288.089H295.281ZM295.281 282.728H293.55403V284.456H295.281Z" fill="#ffffff"/>
<g clip-path="url(#clip_10)">
<path transform="matrix(1,0,0,-1,318.7306,280.8066)" d="M0 0C-.095 2.485 1.853 4.433 4.255 4.433 6.658 4.433 8.605 2.485 8.605 .081 8.605-2.323 6.658-4.271 4.255-4.271 1.853-4.271-.095-2.323 0 0" fill="#ffffff"/>
<path transform="matrix(1,0,0,-1,328.2183,241.1348)" d="M0 0V-5.184C0-5.627 .014-6.306 .044-7.222H-.93V-6.424H-6.687V-7.177H-7.617C-7.588-6.38-7.572-5.745-7.572-5.272V0C-7.572 .975-7.588 1.787-7.617 2.437H.044C.014 1.58 0 .768 0 0M-.93 1.728H-6.687V-.22099996H-.93ZM-.93-.93H-6.687V-2.924H-.93ZM-.93-3.633H-6.687V-5.715H-.93ZM-.93-5.715" fill="#ffffff"/>
<path transform="matrix(1,0,0,-1,321.0002,250.99411)" d="M0 0C0 .472-.015 .93-.044 1.373H.841C.811 .959 .797 .502 .797 0V-1.063C1.269-1.063 1.771-1.049 2.303-1.019V-1.861C1.771-1.832 1.269-1.816 .797-1.816V-3.323C1.003-3.175 1.21-3.013 1.417-2.836 1.8-3.456 2.14-4.061 2.436-4.652 2.11-4.8 1.83-4.962 1.594-5.139 1.417-4.549 1.151-4.003 .797-3.5V-6.956C.797-7.576 .811-8.196 .841-8.817H-.044C-.015-8.167 0-7.547 0-6.956V-4.076C-.296-4.903-.753-5.701-1.373-6.468-1.55-6.232-1.771-6.011-2.037-5.804-1.535-5.302-1.129-4.674-.819-3.921-.509-3.168-.31-2.467-.222-1.816-.783-1.816-1.27-1.846-1.683-1.905V-1.019C-1.122-1.049-.561-1.063 0-1.063ZM3.454-6.07C3.129-6.838 2.878-7.384 2.701-7.709 2.436-7.562 2.14-7.429 1.815-7.31 2.199-6.72 2.487-6.181 2.679-5.693 2.871-5.206 3.026-4.726 3.144-4.253 3.469-4.401 3.793-4.534 4.118-4.652 4-4.829 3.778-5.302 3.454-6.07M6.908-2.26C7.498-2.26 8.015-2.245 8.458-2.215V-3.057C8.015-3.028 7.557-3.013 7.085-3.013H5.712V-7.488C5.712-7.96 5.58-8.27 5.314-8.418 5.048-8.565 4.576-8.684 3.897-8.772 3.837-8.418 3.72-8.078 3.542-7.753 4.133-7.753 4.502-7.731 4.65-7.687 4.797-7.643 4.871-7.473 4.871-7.177V-3.013H3.764C3.026-3.013 2.494-3.043 2.17-3.101V-2.215C2.553-2.245 3.085-2.26 3.764-2.26ZM6.421 .665C7.041 .665 7.542 .679 7.927 .709V-.177C7.365-.118 6.775-.089 6.155-.089H3.985C3.513-.089 3.055-.118 2.613-.177V.709C3.026 .679 3.483 .665 3.985 .665ZM8.724-6.912C8.398-7.06 8.074-7.237 7.749-7.443 7.424-6.587 6.937-5.686 6.288-4.741 6.583-4.593 6.849-4.416 7.085-4.209 7.734-5.213 8.281-6.114 8.724-6.912" fill="#ffffff"/>
<path transform="matrix(1,0,0,-1,325.1866,270.9644)" d="M0 0H-.753L-.886 .62C-1.004 .443-1.189 .295-1.439 .177-1.69 .059-1.964 0-2.258 0-2.878 0-3.432 .288-3.919 .864-4.406 1.44-4.65 2.363-4.65 3.633-4.65 5.021-4.428 6.055-3.986 6.734-3.543 7.413-2.938 7.753-2.17 7.753-1.491 7.753-.96 7.502-.576 7-.192 6.498 0 5.848 0 5.051H-.974C-.974 5.671-1.078 6.136-1.284 6.446-1.491 6.756-1.787 6.912-2.17 6.912-2.642 6.912-2.997 6.668-3.233 6.181-3.469 5.693-3.587 4.874-3.587 3.722-3.587 2.629-3.439 1.875-3.144 1.462-2.849 1.048-2.509 .842-2.126 .842-1.742 .842-1.439 .982-1.218 1.263-.996 1.543-.886 1.978-.886 2.57V3.057H-2.258V3.899H0Z" fill="#ffffff"/>
</g>
<path transform="matrix(1,0,0,-1,0,595.276)" d="M322.04 301.492H320.31303V303.22H322.04ZM322.04 297.771H320.31303V299.499H322.04ZM322.04 294.138H320.31303V295.866H322.04Z" fill="#ffffff"/>
<path transform="matrix(1,0,0,-1,0,595.276)" d="M322.04 290.082H320.31303V291.81H322.04ZM322.04 286.361H320.31303V288.089H322.04ZM322.04 282.728H320.31303V284.456H322.04Z" fill="#ffffff"/>
<g clip-path="url(#clip_11)">
<path transform="matrix(1,0,0,-1,209.8953,211.62741)" d="M0 0C-.23-.806-.461-1.571-.69-2.293-.165-3.05 .156-3.634 .271-4.044 .386-4.456 .427-4.891 .394-5.351 .361-5.812 .205-6.157-.074-6.387-.354-6.617-.838-6.782-1.528-6.88-1.66-6.288-1.792-5.894-1.923-5.697-1.232-5.763-.813-5.664-.666-5.401-.518-5.138-.493-4.776-.592-4.316-.69-3.855-1.035-3.23-1.627-2.441-1.167-.995-.855 .106-.69 .863H-2.366V-8.804H-3.303C-3.271-7.916-3.254-7.144-3.254-6.486V-.617C-3.254 .139-3.271 .929-3.303 1.751H.542C.411 1.389 .229 .805 0 0M5.94-.641C6.712-1.25 7.377-1.652 7.937-1.85 7.608-2.179 7.345-2.524 7.148-2.885 6.063-2.129 5.275-1.463 4.782-.888 4.289-.313 3.911 .271 3.648 .863 3.417 .37 3.081-.23 2.637-.937 2.194-1.645 1.61-2.392 .887-3.181 .624-2.885 .328-2.656 0-2.491 .69-1.997 1.331-1.282 1.923-.345 2.514 .592 2.974 1.57 3.303 2.589 3.565 2.424 3.911 2.293 4.338 2.195 4.206 1.964 4.124 1.8 4.091 1.702 4.551 .748 5.168-.033 5.94-.641M2.761-4.833C2.662-5.902 2.448-6.749 2.12-7.373 1.791-7.998 1.396-8.524 .937-8.952 .641-8.721 .328-8.54 0-8.409 .493-8.047 .879-7.628 1.158-7.151 1.437-6.675 1.651-6.108 1.799-5.45 1.947-4.793 2.021-3.741 2.021-2.293 2.218-2.392 2.58-2.458 3.106-2.491 2.974-2.984 2.859-3.765 2.761-4.833M5.521-3.822V-7.127C5.521-7.456 5.537-8.031 5.57-8.853H4.535C4.568-7.965 4.584-7.373 4.584-7.077V-3.822C4.584-3.362 4.568-2.869 4.535-2.343H5.62C5.554-2.804 5.521-3.297 5.521-3.822" fill="#ffffff"/>
<path transform="matrix(1,0,0,-1,221.8849,210.6163)" d="M0 0C-.542-.099-.929-.165-1.158-.197V-1.825C-.172-1.825 .632-1.792 1.257-1.726V-2.663C.632-2.631-.172-2.614-1.158-2.614V-4.192C-.172-4.192 .632-4.176 1.257-4.143V-5.08C.632-5.048-.172-5.031-1.158-5.031V-6.905C-.304-6.774 .567-6.593 1.454-6.362 1.421-6.691 1.405-7.003 1.405-7.299 .485-7.431-.37-7.595-1.158-7.793V-8.631C-1.158-9.026-1.142-9.502-1.109-10.061H-2.144C-2.112-9.502-2.095-9.026-2.095-8.631V-7.99C-2.424-8.056-2.736-8.138-3.032-8.237-3.098-7.776-3.163-7.431-3.229-7.201-2.901-7.168-2.522-7.119-2.095-7.053V-1.332C-2.095-.773-2.112-.165-2.144 .493-1.75 .493-1.241 .559-.616 .69 .008 .822 .534 1.019 .961 1.282 1.092 .92 1.273 .592 1.504 .296 1.043 .197 .542 .099 0 0M7.123-3.946C6.926-4.867 6.663-5.68 6.335-6.387 6.006-7.094 5.677-7.645 5.349-8.039 5.644-8.27 6.071-8.475 6.63-8.656 7.189-8.836 7.764-8.976 8.356-9.075 8.126-9.272 7.928-9.617 7.764-10.111 6.877-9.847 6.219-9.609 5.792-9.396 5.365-9.181 4.97-8.943 4.609-8.68 4.083-9.009 3.574-9.28 3.081-9.494 2.588-9.708 2.046-9.913 1.454-10.111 1.323-9.782 1.125-9.502 .863-9.272 1.323-9.174 1.832-9.026 2.391-8.828 2.949-8.631 3.492-8.352 4.018-7.99 3.754-7.662 3.492-7.185 3.229-6.56 2.966-5.968 2.768-5.36 2.637-4.735H1.997V-3.896C2.62-3.929 3.212-3.946 3.771-3.946ZM6.285-.395V-1.628C6.285-1.924 6.392-2.096 6.606-2.145 6.819-2.195 7.304-2.187 8.06-2.121 7.928-2.351 7.846-2.647 7.814-3.009H6.285C5.726-3.009 5.43-2.73 5.398-2.17V.197H3.722C3.722-.658 3.656-1.349 3.525-1.874 3.393-2.401 3.081-2.927 2.588-3.452 2.358-3.223 2.095-3.009 1.799-2.811 2.423-2.351 2.752-1.768 2.785-1.06 2.818-.354 2.818 .328 2.785 .986H6.335C6.302 .493 6.285 .032 6.285-.395M3.525-4.685C3.656-5.245 3.845-5.779 4.092-6.288 4.338-6.798 4.543-7.135 4.708-7.299 4.937-7.07 5.168-6.716 5.398-6.239 5.628-5.763 5.809-5.245 5.94-4.685H3.771Z" fill="#ffffff"/>
<path transform="matrix(1,0,0,-1,241.2693,212.49051)" d="M0 0V-5.77C0-6.264 .016-7.02 .049-8.039H-1.035V-7.151H-7.444V-7.99H-8.479C-8.447-7.102-8.43-6.395-8.43-5.869V0C-8.43 1.085-8.447 1.989-8.479 2.713H.049C.016 1.759 0 .855 0 0M-1.035 1.924H-7.444V-.24600005H-1.035ZM-1.035-1.036H-7.444V-3.255H-1.035ZM-1.035-4.044H-7.444V-6.3620007H-1.035ZM-1.035-6.362" fill="#ffffff"/>
<path transform="matrix(1,0,0,-1,245.7906,210.76432)" d="M0 0C0 .526-.017 1.036-.049 1.529H.937C.903 1.068 .887 .559 .887 0V-1.184C1.413-1.184 1.972-1.168 2.563-1.134V-2.071C1.972-2.039 1.413-2.022 .887-2.022V-3.699C1.117-3.535 1.347-3.354 1.577-3.156 2.004-3.847 2.382-4.521 2.711-5.179 2.349-5.344 2.037-5.524 1.775-5.721 1.577-5.064 1.282-4.456 .887-3.896V-7.743C.887-8.434 .903-9.124 .937-9.815H-.049C-.017-9.091 0-8.401 0-7.743V-4.537C-.329-5.458-.838-6.346-1.528-7.201-1.725-6.938-1.972-6.691-2.268-6.461-1.709-5.902-1.257-5.203-.912-4.365-.567-3.526-.345-2.746-.246-2.022-.871-2.022-1.413-2.055-1.873-2.121V-1.134C-1.249-1.168-.625-1.184 0-1.184ZM3.845-6.757C3.483-7.612 3.204-8.22 3.007-8.582 2.711-8.418 2.382-8.27 2.021-8.138 2.448-7.48 2.768-6.88 2.982-6.338 3.196-5.795 3.368-5.261 3.5-4.735 3.861-4.9 4.223-5.048 4.585-5.179 4.453-5.376 4.206-5.902 3.845-6.757M7.69-2.515C8.347-2.515 8.923-2.499 9.416-2.466V-3.403C8.923-3.371 8.413-3.354 7.887-3.354H6.359V-8.335C6.359-8.861 6.211-9.206 5.916-9.371 5.62-9.535 5.094-9.667 4.338-9.765 4.272-9.371 4.141-8.992 3.944-8.631 4.601-8.631 5.011-8.606 5.176-8.557 5.34-8.508 5.423-8.319 5.423-7.99V-3.354H4.19C3.368-3.354 2.777-3.387 2.415-3.452V-2.466C2.842-2.499 3.434-2.515 4.19-2.515ZM7.148 .74C7.838 .74 8.397 .756 8.824 .789V-.197C8.199-.132 7.542-.099 6.852-.099H4.437C3.911-.099 3.401-.132 2.908-.197V.789C3.368 .756 3.878 .74 4.437 .74ZM9.711-7.694C9.349-7.859 8.988-8.056 8.627-8.286 8.265-7.333 7.723-6.33 7-5.277 7.328-5.113 7.624-4.916 7.887-4.685 8.61-5.804 9.218-6.806 9.711-7.694" fill="#ffffff"/>
</g>
<path transform="matrix(1,0,0,-1,0,595.276)" d="M259.74 384.808H260.62699V376.276H259.74ZM263.536 384.808H264.423V376.276H263.536Z" fill="#ffffff"/>
<g clip-path="url(#clip_12)">
<path transform="matrix(1,0,0,-1,284.1934,211.62741)" d="M0 0C-.23-.806-.461-1.571-.69-2.293-.165-3.05 .155-3.634 .271-4.044 .386-4.456 .427-4.891 .394-5.351 .361-5.812 .205-6.157-.074-6.387-.354-6.617-.838-6.782-1.528-6.88-1.66-6.288-1.792-5.894-1.923-5.697-1.232-5.763-.813-5.664-.666-5.401-.518-5.138-.493-4.776-.592-4.316-.69-3.855-1.035-3.23-1.627-2.441-1.167-.995-.855 .106-.69 .863H-2.366V-8.804H-3.303C-3.271-7.916-3.253-7.144-3.253-6.486V-.617C-3.253 .139-3.271 .929-3.303 1.751H.542C.41 1.389 .229 .805 0 0M5.94-.641C6.712-1.25 7.377-1.652 7.937-1.85 7.608-2.179 7.345-2.524 7.148-2.885 6.063-2.129 5.275-1.463 4.782-.888 4.289-.313 3.911 .271 3.648 .863 3.418 .37 3.081-.23 2.637-.937 2.194-1.645 1.61-2.392 .887-3.181 .624-2.885 .328-2.656 0-2.491 .69-1.997 1.331-1.282 1.922-.345 2.514 .592 2.974 1.57 3.303 2.589 3.565 2.424 3.911 2.293 4.338 2.195 4.206 1.964 4.124 1.8 4.092 1.702 4.551 .748 5.168-.033 5.94-.641M2.76-4.833C2.662-5.902 2.448-6.749 2.12-7.373 1.791-7.998 1.396-8.524 .937-8.952 .641-8.721 .328-8.54 0-8.409 .493-8.047 .879-7.628 1.158-7.151 1.437-6.675 1.651-6.108 1.799-5.45 1.947-4.793 2.021-3.741 2.021-2.293 2.218-2.392 2.579-2.458 3.106-2.491 2.974-2.984 2.859-3.765 2.76-4.833M5.521-3.822V-7.127C5.521-7.456 5.537-8.031 5.57-8.853H4.535C4.568-7.965 4.585-7.373 4.585-7.077V-3.822C4.585-3.362 4.568-2.869 4.535-2.343H5.62C5.554-2.804 5.521-3.297 5.521-3.822" fill="#ffffff"/>
<path transform="matrix(1,0,0,-1,296.1831,210.6163)" d="M0 0C-.542-.099-.929-.165-1.158-.197V-1.825C-.172-1.825 .632-1.792 1.257-1.726V-2.663C.632-2.631-.172-2.614-1.158-2.614V-4.192C-.172-4.192 .632-4.176 1.257-4.143V-5.08C.632-5.048-.172-5.031-1.158-5.031V-6.905C-.304-6.774 .567-6.593 1.454-6.362 1.421-6.691 1.405-7.003 1.405-7.299 .485-7.431-.37-7.595-1.158-7.793V-8.631C-1.158-9.026-1.142-9.502-1.109-10.061H-2.144C-2.112-9.502-2.095-9.026-2.095-8.631V-7.99C-2.424-8.056-2.736-8.138-3.032-8.237-3.098-7.776-3.163-7.431-3.229-7.201-2.901-7.168-2.522-7.119-2.095-7.053V-1.332C-2.095-.773-2.112-.165-2.144 .493-1.75 .493-1.241 .559-.616 .69 .008 .822 .534 1.019 .961 1.282 1.092 .92 1.273 .592 1.504 .296 1.043 .197 .542 .099 0 0M7.123-3.946C6.926-4.867 6.663-5.68 6.335-6.387 6.006-7.094 5.677-7.645 5.349-8.039 5.644-8.27 6.071-8.475 6.63-8.656 7.189-8.836 7.764-8.976 8.356-9.075 8.126-9.272 7.928-9.617 7.764-10.111 6.877-9.847 6.219-9.609 5.792-9.396 5.365-9.181 4.97-8.943 4.609-8.68 4.083-9.009 3.574-9.28 3.081-9.494 2.588-9.708 2.046-9.913 1.454-10.111 1.323-9.782 1.125-9.502 .863-9.272 1.323-9.174 1.832-9.026 2.391-8.828 2.949-8.631 3.492-8.352 4.018-7.99 3.754-7.662 3.492-7.185 3.229-6.56 2.965-5.968 2.768-5.36 2.637-4.735H1.997V-3.896C2.62-3.929 3.212-3.946 3.771-3.946ZM6.285-.395V-1.628C6.285-1.924 6.392-2.096 6.606-2.145 6.819-2.195 7.304-2.187 8.06-2.121 7.928-2.351 7.846-2.647 7.814-3.009H6.285C5.726-3.009 5.43-2.73 5.398-2.17V.197H3.722C3.722-.658 3.656-1.349 3.525-1.874 3.393-2.401 3.081-2.927 2.588-3.452 2.358-3.223 2.095-3.009 1.799-2.811 2.423-2.351 2.752-1.768 2.785-1.06 2.818-.354 2.818 .328 2.785 .986H6.335C6.302 .493 6.285 .032 6.285-.395M3.525-4.685C3.656-5.245 3.845-5.779 4.092-6.288 4.338-6.798 4.543-7.135 4.708-7.299 4.937-7.07 5.168-6.716 5.398-6.239 5.628-5.763 5.809-5.245 5.94-4.685H3.771Z" fill="#ffffff"/>
<path transform="matrix(1,0,0,-1,315.5674,212.49051)" d="M0 0V-5.77C0-6.264 .016-7.02 .049-8.039H-1.035V-7.151H-7.444V-7.99H-8.479C-8.447-7.102-8.43-6.395-8.43-5.869V0C-8.43 1.085-8.447 1.989-8.479 2.713H.049C.016 1.759 0 .855 0 0M-1.035 1.924H-7.444V-.24600005H-1.035ZM-1.035-1.036H-7.444V-3.255H-1.035ZM-1.035-4.044H-7.444V-6.3620007H-1.035ZM-1.035-6.362" fill="#ffffff"/>
<path transform="matrix(1,0,0,-1,320.0888,210.76432)" d="M0 0C0 .526-.017 1.036-.049 1.529H.937C.903 1.068 .887 .559 .887 0V-1.184C1.413-1.184 1.972-1.168 2.563-1.134V-2.071C1.972-2.039 1.413-2.022 .887-2.022V-3.699C1.117-3.535 1.347-3.354 1.577-3.156 2.004-3.847 2.382-4.521 2.711-5.179 2.349-5.344 2.037-5.524 1.775-5.721 1.577-5.064 1.282-4.456 .887-3.896V-7.743C.887-8.434 .903-9.124 .937-9.815H-.049C-.017-9.091 0-8.401 0-7.743V-4.537C-.329-5.458-.838-6.346-1.528-7.201-1.725-6.938-1.972-6.691-2.268-6.461-1.709-5.902-1.257-5.203-.912-4.365-.567-3.526-.345-2.746-.246-2.022-.871-2.022-1.413-2.055-1.873-2.121V-1.134C-1.249-1.168-.625-1.184 0-1.184ZM3.845-6.757C3.483-7.612 3.204-8.22 3.007-8.582 2.711-8.418 2.382-8.27 2.021-8.138 2.448-7.48 2.768-6.88 2.982-6.338 3.196-5.795 3.368-5.261 3.5-4.735 3.861-4.9 4.223-5.048 4.584-5.179 4.453-5.376 4.206-5.902 3.845-6.757M7.69-2.515C8.347-2.515 8.923-2.499 9.416-2.466V-3.403C8.923-3.371 8.413-3.354 7.887-3.354H6.359V-8.335C6.359-8.861 6.211-9.206 5.915-9.371 5.62-9.535 5.094-9.667 4.338-9.765 4.272-9.371 4.141-8.992 3.944-8.631 4.601-8.631 5.011-8.606 5.176-8.557 5.34-8.508 5.423-8.319 5.423-7.99V-3.354H4.19C3.368-3.354 2.777-3.387 2.415-3.452V-2.466C2.842-2.499 3.434-2.515 4.19-2.515ZM7.148 .74C7.838 .74 8.397 .756 8.824 .789V-.197C8.199-.132 7.542-.099 6.852-.099H4.437C3.911-.099 3.401-.132 2.908-.197V.789C3.368 .756 3.878 .74 4.437 .74ZM9.711-7.694C9.349-7.859 8.988-8.056 8.627-8.286 8.265-7.333 7.723-6.33 7-5.277 7.328-5.113 7.624-4.916 7.887-4.685 8.61-5.804 9.218-6.806 9.711-7.694" fill="#ffffff"/>
</g>
<path transform="matrix(1,0,0,-1,0,595.276)" d="M332.962 384.808H333.89903V376.276H332.962ZM335.969 384.808H336.856V376.276H335.969ZM338.976 384.808H339.91304V376.276H338.976Z" fill="#ffffff"/>
<g clip-path="url(#clip_13)">
<path transform="matrix(1,0,0,-1,261.9574,235.6047)" d="M0 0H-1.426C-1.426 2.271-2.58 4.191-3.947 4.191H-22.427C-23.78 4.191-24.953 5.112-25.661 6.547-26.369 5.112-27.542 4.191-28.895 4.191H-47.376C-48.742 4.191-49.896 2.271-49.896 0H-51.322C-51.322 3.149-49.589 5.616-47.376 5.616H-28.895C-27.528 5.616-26.374 7.536-26.374 9.807H-24.948C-24.948 7.536-23.794 5.616-22.427 5.616H-3.947C-1.734 5.616 0 3.149 0 0" fill="#ffffff"/>
<path transform="matrix(1,0,0,-1,335.1397,235.6047)" d="M0 0H-1.426C-1.426 2.311-3.078 4.191-5.109 4.191H-21.265C-23.133 4.191-24.77 5.298-25.661 6.948-26.552 5.298-28.189 4.191-30.057 4.191H-46.213C-48.244 4.191-49.896 2.311-49.896 0H-51.322C-51.322 3.097-49.03 5.616-46.213 5.616H-30.057C-28.026 5.616-26.374 7.496-26.374 9.807H-24.948C-24.948 7.496-23.296 5.616-21.265 5.616H-5.109C-2.292 5.616 0 3.097 0 0" fill="#ffffff"/>
<path transform="matrix(1,0,0,-1,213.2811,180.3696)" d="M0 0C.032 1.151 .041 1.923 .024 2.318 .008 2.713-.017 3.09-.049 3.452 .345 3.386 .789 3.337 1.282 3.304 1.183 2.975 1.109 2.498 1.06 1.874 1.01 1.249 .986 .624 .986 0H3.5C4.387 0 5.208 .032 5.965 .099V-.986C5.307-.954 4.634-.937 3.944-.937H1.035C1.166-1.497 1.396-2.064 1.725-2.639 2.053-3.214 2.391-3.724 2.736-4.168 3.081-4.611 3.557-5.08 4.165-5.573 4.773-6.066 5.439-6.478 6.162-6.806 5.899-7.003 5.636-7.332 5.373-7.793 4.782-7.464 4.198-7.053 3.623-6.56 3.048-6.066 2.472-5.417 1.898-4.611 1.322-3.806 .887-3.058 .591-2.367 .328-3.091 .049-3.691-.247-4.168-.542-4.645-.863-5.08-1.208-5.475-1.553-5.869-1.997-6.264-2.539-6.658-3.081-7.053-3.697-7.447-4.387-7.842-4.651-7.447-4.947-7.102-5.275-6.806-4.585-6.577-3.903-6.247-3.229-5.82-2.556-5.393-2.005-4.907-1.578-4.365-1.151-3.822-.806-3.255-.542-2.663-.28-2.071-.116-1.497-.049-.937H-2.761C-3.549-.937-4.174-.954-4.634-.986V.099C-4.174 .066-3.549 .032-2.761 0Z" fill="#ffffff"/>
<path transform="matrix(1,0,0,-1,230.6686,180.12299)" d="M0 0V-5.77C0-6.264 .016-7.02 .049-8.039H-1.035V-7.151H-7.444V-7.99H-8.479C-8.447-7.102-8.43-6.395-8.43-5.869V0C-8.43 1.085-8.447 1.989-8.479 2.713H.049C.016 1.759 0 .855 0 0M-1.035 1.923H-7.444V-.2470001H-1.035ZM-1.035-1.036H-7.444V-3.255H-1.035ZM-1.035-4.044H-7.444V-6.3620007H-1.035ZM-1.035-6.362" fill="#ffffff"/>
<path transform="matrix(1,0,0,-1,235.1901,178.39679)" d="M0 0C0 .526-.017 1.036-.049 1.529H.937C.903 1.068 .887 .559 .887 0V-1.184C1.413-1.184 1.972-1.168 2.563-1.134V-2.071C1.972-2.039 1.413-2.022 .887-2.022V-3.699C1.117-3.535 1.347-3.354 1.577-3.157 2.004-3.847 2.382-4.521 2.711-5.179 2.349-5.344 2.037-5.524 1.775-5.721 1.577-5.064 1.282-4.456 .887-3.896V-7.743C.887-8.434 .903-9.124 .937-9.815H-.049C-.017-9.091 0-8.401 0-7.743V-4.537C-.329-5.458-.838-6.346-1.528-7.201-1.725-6.938-1.972-6.691-2.268-6.461-1.709-5.902-1.257-5.203-.912-4.365-.567-3.526-.345-2.746-.246-2.022-.871-2.022-1.413-2.055-1.873-2.121V-1.134C-1.249-1.168-.625-1.184 0-1.184ZM3.845-6.757C3.483-7.612 3.204-8.22 3.007-8.582 2.711-8.418 2.382-8.27 2.021-8.138 2.448-7.481 2.768-6.88 2.982-6.338 3.196-5.795 3.368-5.261 3.5-4.735 3.861-4.9 4.223-5.048 4.585-5.179 4.453-5.376 4.206-5.902 3.845-6.757M7.69-2.515C8.347-2.515 8.923-2.499 9.416-2.466V-3.403C8.923-3.371 8.413-3.354 7.887-3.354H6.359V-8.335C6.359-8.861 6.211-9.206 5.916-9.371 5.62-9.535 5.094-9.667 4.338-9.765 4.272-9.371 4.141-8.992 3.944-8.631 4.601-8.631 5.011-8.606 5.176-8.557 5.34-8.508 5.423-8.319 5.423-7.99V-3.354H4.19C3.368-3.354 2.777-3.387 2.415-3.452V-2.466C2.842-2.499 3.434-2.515 4.19-2.515ZM7.148 .74C7.838 .74 8.397 .756 8.824 .789V-.197C8.199-.132 7.542-.099 6.852-.099H4.437C3.911-.099 3.401-.132 2.908-.197V.789C3.368 .756 3.878 .74 4.437 .74ZM9.711-7.694C9.349-7.859 8.988-8.056 8.627-8.286 8.265-7.333 7.723-6.33 7-5.277 7.328-5.113 7.624-4.916 7.887-4.685 8.61-5.804 9.218-6.806 9.711-7.694" fill="#ffffff"/>
<path transform="matrix(1,0,0,-1,226.9585,399.3345)" d="M0 0H-1.426C-1.426 2.312-4.584 4.265-8.323 4.265H-125.712C-130.379 4.265-134.035 6.765-134.035 9.956H-132.609C-132.609 7.644-129.45 5.691-125.712 5.691H-8.323C-4.885 5.691-1.997 4.335-.713 2.345 .571 4.335 3.459 5.691 6.896 5.691H124.286C128.024 5.691 131.183 7.644 131.183 9.956H132.608C132.608 6.765 128.953 4.265 124.286 4.265H6.896C3.158 4.265 0 2.312 0 0" fill="#ffffff"/>
<path transform="matrix(1,0,0,-1,105.6823,323.1904)" d="M0 0C.45-.369 .98-.561 1.591-.577 2.201-.594 2.748-.409 3.231-.024 3.713 .361 3.994 .866 4.074 1.491 4.154 2.116 4.074 2.621 3.833 3.006 3.592 3.39 3.246 3.679 2.797 3.871 3.407 4.256 3.777 4.705 3.906 5.218 4.034 5.73 4.01 6.204 3.833 6.636 3.656 7.069 3.351 7.389 2.917 7.598 2.483 7.806 1.977 7.878 1.398 7.815 .82 7.75 .362 7.526 .024 7.141-.313 6.757-.579 6.276-.771 5.699L.096 5.554C.353 6.291 .699 6.74 1.133 6.901 1.567 7.061 1.977 7.037 2.363 6.829 2.748 6.62 2.957 6.283 2.99 5.819 3.021 5.354 2.885 4.977 2.58 4.689 2.274 4.4 1.784 4.224 1.109 4.16V3.535C1.784 3.438 2.274 3.27 2.58 3.03 2.885 2.789 3.054 2.453 3.086 2.02 3.118 1.587 3.005 1.202 2.748 .866 2.491 .529 2.146 .352 1.712 .337 1.278 .32 .916 .449 .627 .721 .338 .993 .128 1.338 0 1.755L-.868 1.611C-.74 .905-.451 .368 0 0" fill="#ffffff"/>
</g>
</g>
</g>
</svg>
