<svg xmlns="http://www.w3.org/2000/svg" xmlns:xlink="http://www.w3.org/1999/xlink" xmlns:inkscape="http://www.inkscape.org/namespaces/inkscape" version="1.1" width="411.024" height="595.276" viewBox="0 0 411.024 595.276">
<defs>
<clipPath id="clip_1">
<path transform="matrix(1,0,0,-1,0,595.276)" d="M0 0H411.024V595.276H0Z"/>
</clipPath>
<clipPath id="clip_2">
<path transform="matrix(1,0,0,-1,0,595.276)" d="M0 0H411.024V595.276H0Z"/>
</clipPath>
<path id="font_3_5" d="M.45999146 .19407654C.45999146 .28303529 .4229889 .34100343 .35099793 .36799623 .4149933 .39700318 .44699098 .450943 .44699098 .52586367 .44699098 .64175418 .36698915 .71875 .25099183 .71875 .14299011 .71875 .05899048 .6507416 .050994874 .53585818H.12298584C.12998963 .60879519 .17599488 .6547394 .25099183 .6547394 .31999208 .6547394 .375 .609787 .375 .5248718 .375 .4449463 .33499146 .3959961 .24798584 .3959961H.23298645V.3330078H.24798584C.34498597 .3330078 .3880005 .28103639 .3880005 .19508362 .3880005 .10812378 .32798768 .057159425 .25099183 .057159425 .18299866 .057159425 .11999512 .09213257 .11399841 .18109131H.041992189C.04798889 .05215454 .13899231-.0068359377 .25099183-.0068359377 .36698915-.0068359377 .45999146 .06315613 .45999146 .19407654Z"/>
<path id="font_3_11" d="M.45700074 .51272585C.45700074 .63575747 .37998963 .71777346 .25898744 .71777346 .13798523 .71777346 .06199646 .62776187 .06199646 .5067291 .06199646 .3896942 .1349945 .3046875 .24598694 .3046875 .27398683 .3046875 .2999878 .30967713 .32199098 .3196869L.1619873 0H.23699951L.4119873 .3526764C.44198609 .4126892 .45700074 .4617157 .45700074 .51272585M.3849945 .50971987C.3849945 .4216919 .33499146 .36567689 .25898744 .36567689 .1769867 .36567689 .13398743 .43069459 .13398743 .50971987 .13398743 .596756 .18299866 .6537628 .25898744 .6537628 .33499146 .6537628 .3849945 .596756 .3849945 .50971987Z"/>
<path id="font_3_8" d="M.45999146 .20516968C.45999146 .32221986 .38598634 .40722657 .2749939 .40722657 .24699402 .40722657 .22200012 .40222169 .19999695 .3922119L.35899354 .71191409H.2849884L.10998535 .3592224C.07998657 .2992096 .06498718 .25019837 .06498718 .19917298 .06498718 .07614136 .14199829-.005859375 .2630005-.005859375 .38398744-.005859375 .45999146 .08413696 .45999146 .20516968M.3880005 .20217896C.3880005 .11514282 .33799745 .058135988 .2619934 .058135988 .18598938 .058135988 .13699341 .11514282 .13699341 .20217896 .13699341 .2902069 .18598938 .34622193 .2619934 .34622193 .34399415 .34622193 .3880005 .28120423 .3880005 .20217896Z"/>
<clipPath id="clip_4">
<path transform="matrix(1,0,0,-1,0,595.276)" d="M0 0H411.024V595.276H0Z"/>
</clipPath>
</defs>
<g clip-path="url(#clip_1)">
<g clip-path="url(#clip_2)">
<use data-text="3" xlink:href="#font_3_5" transform="matrix(9,0,0,-9,35.4331,567.547)" fill="#f43040"/>
<use data-text="9" xlink:href="#font_3_11" transform="matrix(9,0,0,-9,39.0331,567.547)" fill="#f43040"/>
<use data-text="6" xlink:href="#font_3_8" transform="matrix(9,0,0,-9,42.6331,567.547)" fill="#f43040"/>
<path transform="matrix(1,0,0,-1,204.0066,340.08583)" d="M0 0-4.589 3.201H-39.084V4.507H-4.178L0 1.593 4.178 4.507H37.988V3.201H4.589Z" fill="#2c292a"/>
<g clip-path="url(#clip_4)">
<path transform="matrix(1,0,0,-1,142.4293,349.7567)" d="M0 0C0 .514-.019 .992-.055 1.433H1.157C1.047 .918 .991 .331 .991-.331V-1.378C1.358-1.378 1.781-1.36 2.258-1.323V-2.315C1.818-2.278 1.395-2.259 .991-2.259V-4.298C1.175-4.078 1.34-3.895 1.487-3.747 2.038-4.446 2.534-5.199 2.974-6.007 2.607-6.154 2.313-6.319 2.093-6.503 1.726-5.768 1.358-5.125 .991-4.574V-8.983C.991-9.644 1.009-10.36 1.047-11.132H-.055C-.019-10.36 0-9.644 0-8.983V-5.456C-.22-6.154-.625-6.999-1.212-7.991-1.359-7.66-1.597-7.329-1.928-6.999-1.451-6.375-1.047-5.593-.716-4.657-.386-3.72-.184-2.921-.11-2.259-.588-2.259-1.084-2.278-1.597-2.315V-1.323C-1.047-1.36-.515-1.378 0-1.378ZM6.059-.331C5.949-1.507 5.802-2.517 5.618-3.362 5.434-4.207 5.251-4.85 5.067-5.29 5.618-6.136 6.205-7.073 6.83-8.101 6.5-8.285 6.187-8.524 5.894-8.817 5.636-8.193 5.214-7.403 4.627-6.448 4.369-6.999 4.067-7.559 3.718-8.128 3.368-8.698 2.955-9.24 2.479-9.754 2.148-9.461 1.818-9.222 1.487-9.038 2.074-8.561 2.57-8.01 2.974-7.385 3.378-6.76 3.708-6.117 3.966-5.456 3.782-5.015 3.268-4.207 2.424-3.031 2.717-2.921 2.974-2.755 3.195-2.535 3.672-3.123 4.076-3.711 4.406-4.298 4.7-3.27 4.883-2.241 4.957-1.212H3.745C3.231-1.212 2.79-1.231 2.424-1.267V-.276C2.754-.313 3.195-.331 3.745-.331ZM8.482-6.503C8.005-6.723 7.692-6.907 7.546-7.054 7.179-6.026 6.72-5.052 6.169-4.133 6.61-3.876 6.921-3.711 7.105-3.637 7.619-4.703 8.078-5.658 8.482-6.503M8.648 1.433H9.749C9.712 .882 9.694-.074 9.694-1.433 10.061-1.433 10.465-1.397 10.906-1.323V-2.37C10.428-2.333 10.025-2.315 9.694-2.315V-10.085C9.657-10.452 9.51-10.719 9.254-10.884 8.996-11.049 8.538-11.168 7.877-11.242 7.803-10.837 7.637-10.433 7.381-10.03 7.932-10.066 8.298-10.057 8.482-10.002 8.666-9.947 8.739-9.699 8.703-9.258V-2.315C7.637-2.315 6.848-2.333 6.334-2.37V-1.378C6.811-1.415 7.601-1.433 8.703-1.433 8.666-.074 8.648 .882 8.648 1.433" fill="#2c292a"/>
<path transform="matrix(1,0,0,-1,164.269,355.95643)" d="M0 0C-.46-1.342-.891-2.471-1.294-3.389H.964C1.625-3.389 2.359-3.371 3.167-3.334V-4.436C2.359-4.399 1.716-4.381 1.239-4.381H-7.519C-8.143-4.381-8.749-4.399-9.336-4.436V-3.334C-8.749-3.371-8.161-3.389-7.574-3.389H-2.451C-1.827-1.956-1.341-.671-.991 .468-.643 1.607-.395 2.563-.248 3.334 .009 3.15 .468 2.966 1.129 2.783 .835 2.268 .459 1.341 0 0M.578 5.042C.872 5.042 1.423 5.06 2.231 5.098V4.05C1.46 4.087 .762 4.106 .138 4.106H-6.472C-6.913 4.106-7.574 4.087-8.455 4.05V5.098C-7.574 5.06-6.913 5.042-6.472 5.042ZM-3.938-2.452C-4.196-2.6-4.581-2.783-5.095-3.003-5.5-1.865-5.885-.882-6.252-.055-6.619 .772-7.005 1.589-7.408 2.397-7.078 2.581-6.711 2.764-6.307 2.948-5.095 .486-4.306-1.314-3.938-2.452M-2.451 5.869C-2.745 5.685-3.094 5.483-3.498 5.263-3.755 5.887-4.141 6.548-4.654 7.247-4.324 7.43-3.993 7.633-3.663 7.853-2.929 6.751-2.525 6.089-2.451 5.869" fill="#2c292a"/>
<path transform="matrix(1,0,0,-1,179.9947,351.8509)" d="M0 0V-6.448C0-6.999 .018-7.843 .055-8.983H-1.157V-7.991H-8.317V-8.928H-9.474C-9.438-7.936-9.419-7.146-9.419-6.558V0C-9.419 1.212-9.438 2.222-9.474 3.031H.055C.018 1.965 0 .955 0 0M-1.157 2.149H-8.318V-.27600003H-1.157ZM-1.157-1.157H-8.318V-3.637H-1.157ZM-1.157-4.519H-8.318V-7.109H-1.157ZM-1.157-7.109" fill="#2c292a"/>
<path transform="matrix(1,0,0,-1,185.1172,349.92213)" d="M0 0C0 .587-.019 1.157-.055 1.708H1.047C1.009 1.193 .991 .624 .991 0V-1.323C1.578-1.323 2.203-1.305 2.864-1.267V-2.315C2.203-2.278 1.578-2.259 .991-2.259V-4.133C1.248-3.95 1.505-3.747 1.763-3.527 2.239-4.298 2.662-5.052 3.029-5.786 2.625-5.971 2.276-6.172 1.983-6.393 1.763-5.658 1.432-4.979 .991-4.354V-8.652C.991-9.424 1.009-10.195 1.047-10.967H-.055C-.019-10.158 0-9.387 0-8.652V-5.07C-.368-6.099-.936-7.091-1.708-8.046-1.928-7.752-2.203-7.477-2.534-7.219-1.91-6.595-1.405-5.814-1.019-4.877-.633-3.94-.386-3.068-.275-2.259-.973-2.259-1.579-2.297-2.093-2.37V-1.267C-1.396-1.305-.698-1.323 0-1.323ZM4.296-7.55C3.892-8.506 3.58-9.185 3.36-9.589 3.029-9.406 2.662-9.24 2.258-9.093 2.735-8.358 3.093-7.688 3.332-7.081 3.571-6.475 3.764-5.879 3.911-5.29 4.314-5.475 4.718-5.64 5.122-5.786 4.975-6.007 4.7-6.595 4.296-7.55M8.593-2.811C9.327-2.811 9.97-2.793 10.521-2.755V-3.802C9.97-3.766 9.4-3.747 8.813-3.747H7.105V-9.313C7.105-9.901 6.94-10.286 6.61-10.471 6.279-10.654 5.691-10.801 4.847-10.911 4.773-10.471 4.627-10.048 4.406-9.644 5.141-9.644 5.599-9.616 5.784-9.561 5.967-9.506 6.059-9.295 6.059-8.928V-3.747H4.682C3.764-3.747 3.103-3.785 2.699-3.858V-2.755C3.176-2.793 3.837-2.811 4.682-2.811ZM7.987 .827C8.758 .827 9.382 .845 9.859 .882V-.22C9.161-.147 8.427-.11 7.656-.11H4.957C4.369-.11 3.801-.147 3.25-.22V.882C3.764 .845 4.332 .827 4.957 .827ZM10.851-8.597C10.446-8.781 10.043-9.002 9.639-9.258 9.235-8.193 8.629-7.073 7.821-5.897 8.188-5.713 8.519-5.493 8.813-5.235 9.62-6.485 10.3-7.605 10.851-8.597" fill="#2c292a"/>
<path transform="matrix(1,0,0,-1,198.3368,357.527)" d="M0 0H1.983V-2.204C1.873-3.122 1.413-3.802 .606-4.243L.055-3.747C.716-3.38 1.046-2.829 1.046-2.094H0Z" fill="#2c292a"/>
<path transform="matrix(1,0,0,-1,223.1235,357.16883)" d="M0 0C-.257-.129-.615-.11-1.074 .055-1.534 .22-2.13 .634-2.864 1.295-3.305 .817-3.82 .376-4.407-.028-4.664 .266-4.939 .486-5.233 .634-4.462 1.075-3.856 1.552-3.415 2.067-3.82 2.728-4.123 3.453-4.324 4.243-4.526 5.033-4.664 5.777-4.737 6.475H-9.694C-9.694 4.822-9.722 3.701-9.777 3.114-9.832 2.525-9.952 1.974-10.135 1.46-10.319 .945-10.595 .394-10.961-.193-11.402 .101-11.751 .284-12.008 .358-11.567 .909-11.246 1.451-11.044 1.984-10.843 2.516-10.723 3.132-10.686 3.83-10.65 4.527-10.65 5.704-10.686 7.357H-4.847C-4.847 7.65-4.866 8.184-4.902 8.955-4.572 8.881-4.186 8.826-3.746 8.79-3.82 8.349-3.838 7.871-3.801 7.357H-1.377C-.863 7.357-.257 7.375 .44 7.412V6.42C-.257 6.456-.845 6.475-1.322 6.475H-3.746C-3.599 4.932-3.287 3.775-2.809 3.003-2.589 3.37-2.387 3.82-2.203 4.354-2.02 4.886-1.873 5.391-1.763 5.869-1.396 5.722-1.01 5.593-.606 5.483-.753 5.336-.946 4.932-1.184 4.271-1.424 3.61-1.763 2.874-2.203 2.067-1.8 1.699-1.442 1.423-1.129 1.24-.818 1.056-.615 1.019-.523 1.13-.432 1.24-.312 1.626-.165 2.287 .128 2.029 .477 1.846 .881 1.736 .551 .707 .256 .128 0 0M-10.466-.413C-10.172-.561-9.823-.708-9.419-.854-9.897-1.956-10.264-2.764-10.521-3.279-10.815-3.132-11.163-2.984-11.567-2.838-11.237-2.434-10.87-1.626-10.466-.413M-5.288 1.075H-9.144V3.8860002H-5.288ZM-5.343 4.767H-9.087999V5.5940005H-5.343ZM-2.534-3.362C-2.718-3.49-2.956-3.555-3.25-3.555H-7.436C-7.914-3.517-8.199-3.297-8.29-2.893-8.382-2.488-8.428-2.104-8.428-1.736-8.428-1.369-8.447-.928-8.483-.413H-7.326C-7.363-1.038-7.381-1.479-7.381-1.736-7.381-1.956-7.363-2.177-7.326-2.397-7.29-2.618-7.05-2.709-6.61-2.673H-4.076C-3.709-2.673-3.462-2.608-3.333-2.48-3.204-2.352-3.103-2.011-3.03-1.46-2.736-1.681-2.351-1.883-1.873-2.067-2.13-2.801-2.351-3.232-2.534-3.362M-6.169 3.114H-8.262V1.8470001H-6.169ZM-5.784 .468C-5.16-.34-4.756-.909-4.572-1.24-4.866-1.424-5.142-1.645-5.398-1.901-5.618-1.498-6.023-.909-6.61-.138-6.389 .046-6.114 .248-5.784 .468M-3.03 8.349C-2.809 8.606-2.626 8.845-2.479 9.065-2.222 8.918-1.782 8.606-1.157 8.128-1.377 7.944-1.597 7.724-1.818 7.467-2.038 7.65-2.443 7.944-3.03 8.349M.771-2.563C.404-2.783 .073-3.003-.22-3.224-.588-2.525-1.084-1.828-1.708-1.13-1.451-.946-1.157-.726-.826-.468-.019-1.46 .514-2.159 .771-2.563" fill="#2c292a"/>
<path transform="matrix(1,0,0,-1,227.337,353.69703)" d="M0 0C.642 .312 1.202 .725 1.68 1.24 2.157 1.754 2.506 2.599 2.727 3.775H1.129C.394 3.775-.303 3.756-.964 3.72V4.767C-.12 4.73 .56 4.712 1.074 4.712H9.336C9.262 4.307 9.207 3.775 9.171 3.114L8.896 1.075C8.748 .229 8.464-.267 8.042-.413 7.619-.561 7.004-.671 6.197-.744 6.16-.45 6.031-.028 5.811 .523 6.545 .449 7.05 .477 7.326 .606 7.601 .734 7.757 .964 7.794 1.295L8.069 3.775H3.938C3.754 2.856 3.525 2.13 3.25 1.598 2.974 1.065 2.662 .615 2.313 .248 1.964-.12 1.478-.46 .854-.772 .229-1.084-.487-1.387-1.294-1.681-1.479-1.314-1.717-.983-2.01-.689-1.313-.542-.643-.313 0 0M9.006-3.169V-5.263C9.006-5.888 9.024-6.53 9.061-7.192H7.904V-6.145H1.35V-7.192L.138-7.137C.174-6.769 .193-6.291 .193-5.704V-3.169C.193-2.618 .174-2.067 .138-1.516H9.061C9.024-2.104 9.006-2.655 9.006-3.169M7.904-2.507H1.349V-5.207H7.904ZM7.904-5.208" fill="#2c292a"/>
<path transform="matrix(1,0,0,-1,243.531,349.3985)" d="M0 0C.091 .349 .174 .744 .248 1.185 .909 .964 1.368 .835 1.625 .799 1.22-.083 .945-.708 .799-1.075H8.069C8.032-1.736 8.014-2.379 8.014-3.003V-9.727C8.014-10.534 7.766-11.003 7.271-11.132 6.775-11.26 6.197-11.343 5.536-11.38 5.425-10.865 5.241-10.443 4.985-10.112 5.902-10.15 6.462-10.15 6.665-10.112 6.866-10.076 6.949-9.874 6.913-9.506V-2.067H-2.066V-11.325H-3.222C-3.222-10.369-3.204-9.598-3.167-9.01V-3.059C-3.204-2.397-3.222-1.736-3.222-1.075H-.358C-.212-.708-.092-.35 0 0M4.93-5.428V-6.696C4.93-7.174 4.948-7.688 4.985-8.239H-.358C-.322-7.725-.303-7.211-.303-6.696V-5.318C-.303-4.877-.322-4.436-.358-3.995H4.985C4.948-4.473 4.93-4.951 4.93-5.428M3.773-4.877H.799V-7.357H3.773ZM3.773-7.357" fill="#2c292a"/>
<path transform="matrix(1,0,0,-1,263.1398,349.1505)" d="M0 0C-.202-.331-.432-.716-.688-1.157H1.57C2.084-1.157 2.653-1.139 3.277-1.102V-2.149C2.69-2.076 2.047-2.039 1.35-2.039H-7.353C-8.309-2.039-9.116-2.076-9.777-2.149V-1.102C-9.006-1.139-8.198-1.157-7.353-1.157H-1.79C-1.166 .018-.817 .808-.744 1.212-.34 .992 .101 .827 .578 .716 .394 .569 .201 .331 0 0M-4.737-10.663C-4.536-10.645-4.434-10.507-4.434-10.25V-8.542H-7.408V-11.903H-8.565C-8.492-11.242-8.455-10.507-8.455-9.699V-5.29C-8.455-4.556-8.474-3.858-8.51-3.196H-3.332C-3.369-3.821-3.387-4.501-3.387-5.235V-10.801C-3.387-11.168-3.535-11.407-3.828-11.518-4.122-11.628-4.618-11.738-5.315-11.848-5.426-11.444-5.573-11.058-5.756-10.691-5.279-10.691-4.939-10.681-4.737-10.663M-4.434-4.023H-7.409V-5.5109999H-4.434ZM-4.434-6.337H-7.409V-7.715H-4.434ZM-6.472 .661C-6.068 .845-5.738 1.028-5.48 1.212-4.967 .551-4.581 0-4.324-.441-4.654-.588-5.022-.772-5.426-.992-5.573-.588-5.921-.037-6.472 .661M-2.01-9.203C-1.974-8.652-1.955-8.175-1.955-7.77V-5.235C-1.955-4.648-1.974-4.133-2.01-3.692H-.854C-.891-4.133-.909-4.648-.909-5.235V-7.715C-.909-8.266-.891-8.762-.854-9.203ZM.551-10.636C.716-10.599 .799-10.434 .799-10.14V-4.409C.799-3.968 .78-3.491 .744-2.976H1.9C1.863-3.454 1.845-3.932 1.845-4.409V-10.526C1.845-11.003 1.726-11.315 1.487-11.463 1.248-11.609 .689-11.719-.193-11.793-.267-11.315-.432-10.929-.688-10.636-.028-10.672 .386-10.672 .551-10.636" fill="#2c292a"/>
<path transform="matrix(1,0,0,-1,134.3984,324.18193)" d="M0 0C1.175 0 2.039 .032 2.595 .098V-.833C2.039-.801 1.191-.784 .049-.784V-2.792H2.056C2.023-3.511 2.007-4.279 2.007-5.094 2.007-5.878 2.023-6.744 2.056-7.691H1.077V-6.907H-1.42V-7.838H-2.399C-2.367-6.989-2.35-6.14-2.35-5.29-2.35-4.409-2.367-3.576-2.399-2.792H-.93C-.93-.115-.947 1.617-.979 2.4H.049C.016 1.649 0 .849 0 0M1.126-3.576H-1.42V-6.074H1.126ZM6.977-4.139C6.666-4.744 6.283-5.372 5.826-6.025 6.381-6.973 6.838-7.512 7.197-7.642 7.556-7.772 7.85-7.332 8.079-6.319 8.339-6.613 8.649-6.875 9.009-7.103 8.551-8.115 8.037-8.662 7.466-8.744 6.895-8.825 6.136-8.148 5.19-6.711 4.798-7.136 4.398-7.512 3.99-7.838 3.582-8.164 3.068-8.54 2.448-8.964 2.252-8.703 2.007-8.442 1.714-8.181 2.105-8.017 2.611-7.708 3.231-7.25 3.851-6.793 4.357-6.319 4.749-5.829 4.585-5.503 4.406-4.956 4.211-4.188 4.015-3.421 3.884-2.727 3.819-2.106 3.231-2.204 2.66-2.319 2.105-2.449 2.039-2.123 1.974-1.829 1.909-1.568 2.399-1.502 3.003-1.405 3.721-1.274 3.655 .13 3.59 1.388 3.525 2.498 3.917 2.465 4.276 2.449 4.602 2.449 4.537 1.502 4.537 .31 4.602-1.127 5.32-1.029 6.528-.801 8.225-.441 8.225-.735 8.258-1.029 8.323-1.323 7.572-1.453 6.365-1.665 4.7-1.959 4.863-3.266 5.092-4.295 5.386-5.045 5.712-4.589 5.956-4.148 6.12-3.723 6.283-3.299 6.446-2.841 6.61-2.351 7.001-2.58 7.36-2.743 7.687-2.841 7.523-3.103 7.287-3.535 6.977-4.139M7.491 .539C7.197 .343 6.92 .114 6.659-.147 6.463 .179 6.071 .686 5.484 1.372 5.744 1.535 6.005 1.715 6.267 1.91 6.887 1.192 7.295 .735 7.491 .539" fill="#2c292a"/>
<path transform="matrix(1,0,0,-1,148.9399,325.0636)" d="M0 0V-4.409C0-4.964 .016-5.633 .049-6.417H-.832V-5.78H-3.427V-6.711H-4.358C-4.292-6.189-4.26-5.601-4.26-4.948V0C-4.26 .751-4.292 1.421-4.358 2.008H.049C.016 1.257 0 .588 0 0M-2.546 1.274H-3.427V-1.42H-2.546ZM-2.546-2.204H-3.427V-4.9960005H-2.546ZM-.832 1.274H-1.713V-1.42H-.832ZM-.832-2.204H-1.713V-4.9960005H-.832ZM2.595 2.008H5.875C5.679 1.388 5.41 .767 5.067 .147 4.725-.474 4.341-1.013 3.917-1.47 4.276-1.796 4.725-2.05 5.263-2.229 5.802-2.409 6.316-2.531 6.806-2.596 6.544-2.956 6.365-3.282 6.267-3.576 5.81-3.478 5.304-3.306 4.749-3.062 4.194-2.817 3.704-2.498 3.28-2.106 3.019-2.302 2.676-2.547 2.252-2.841 1.828-3.135 1.289-3.429 .636-3.723 .506-3.397 .326-3.103 .098-2.841 .588-2.678 1.02-2.507 1.395-2.327 1.77-2.148 2.219-1.845 2.742-1.421 2.546-1.16 2.366-.882 2.203-.588 2.039-.294 1.893-.017 1.763 .245 1.567-.115 1.289-.556 .93-1.078 .799-.882 .522-.686 .098-.49 .555 0 .955 .612 1.297 1.347 1.64 2.082 1.877 2.775 2.007 3.429 2.366 3.265 2.758 3.118 3.182 2.988 2.987 2.792 2.791 2.465 2.595 2.008M5.582-4.801V-6.711C5.582-7.135 5.598-7.593 5.631-8.083H4.7V-7.152H2.154V-8.132H1.224C1.256-7.576 1.273-7.07 1.273-6.613V-4.85C1.273-4.36 1.256-3.903 1.224-3.478H5.631C5.598-3.87 5.582-4.311 5.582-4.801M4.7-4.262H2.1539999V-6.3190004H4.7ZM4.651 1.274H2.252C2.513 .457 2.889-.245 3.378-.833 3.868-.278 4.292 .424 4.651 1.274" fill="#2c292a"/>
<path transform="matrix(1,0,0,-1,161.7187,322.4184)" d="M0 0C.783 0 1.387 .016 1.812 .049V-.833C1.452-.801 .979-.784 .392-.784V-4.213C1.077-4.213 1.583-4.197 1.909-4.164V-5.094C1.616-5.062 1.109-5.045 .392-5.045V-8.523C.392-9.242 .408-9.797 .441-10.189H-.539C-.506-9.731-.49-9.193-.49-8.572V-5.045H-2.154C-2.22-6.613-2.432-7.813-2.791-8.646-3.15-9.479-3.476-10.091-3.77-10.483-4.13-10.221-4.472-10.058-4.798-9.993-4.276-9.471-3.86-8.81-3.55-8.009-3.24-7.209-3.068-6.221-3.036-5.045-3.591-5.045-4.097-5.062-4.553-5.094V-4.164C-4.097-4.197-3.574-4.213-2.987-4.213V-.784C-3.542-.784-3.95-.801-4.211-.833V.049C-3.95 .016-3.444 0-2.693 0ZM-.49-.784H-2.106V-4.213H-.49ZM4.7-8.597C3.786-9.365 2.905-10.009 2.056-10.532 1.861-10.238 1.599-9.96 1.273-9.699 2.121-9.34 2.987-8.785 3.868-8.034 4.749-7.283 5.337-6.695 5.631-6.27 5.859-6.532 6.169-6.777 6.561-7.005 6.234-7.299 5.614-7.83 4.7-8.597M4.774-4.996C4.169-5.682 3.329-6.417 2.252-7.201 2.056-6.94 1.779-6.695 1.42-6.466 2.333-5.944 3.085-5.381 3.672-4.776 4.26-4.172 4.749-3.576 5.141-2.988 5.565-3.348 5.891-3.576 6.12-3.674 5.826-3.87 5.377-4.311 4.774-4.996M4.529-1.494C4.055-2.131 3.411-2.858 2.595-3.674 2.301-3.446 2.007-3.25 1.714-3.086 2.431-2.466 2.987-1.91 3.378-1.421 3.77-.931 4.194-.294 4.651 .49 4.814 .392 5.173 .196 5.729-.098 5.402-.392 5.002-.857 4.529-1.494" fill="#2c292a"/>
<path transform="matrix(1,0,0,-1,175.6236,321.6836)" d="M0 0C.392-.033 .767-.066 1.126-.098 1.06-.523 1.044-1.29 1.077-2.4H2.497C3.182-2.4 3.933-2.384 4.749-2.351V-3.282C3.9-3.25 3.15-3.233 2.497-3.233H1.126C1.158-4.475 1.371-5.829 1.763-7.299 2.382-6.352 2.872-5.258 3.232-4.017 3.557-4.279 3.933-4.507 4.358-4.703 4.096-4.997 3.802-5.486 3.476-6.172 3.15-6.858 2.725-7.577 2.203-8.328 2.497-8.915 2.815-9.381 3.158-9.724 3.501-10.066 3.737-10.213 3.868-10.164 3.998-10.115 4.129-9.552 4.26-8.474 4.586-8.736 4.928-8.932 5.288-9.062 5.059-10.401 4.806-11.144 4.529-11.291 4.251-11.438 3.917-11.438 3.525-11.291 3.134-11.144 2.766-10.866 2.424-10.458 2.081-10.05 1.795-9.601 1.567-9.111 .783-9.961-.213-10.76-1.42-11.512-1.584-11.218-1.828-10.956-2.154-10.728-1.502-10.434-.874-10.042-.269-9.552 .334-9.062 .783-8.605 1.077-8.181 .848-7.561 .653-6.801 .49-5.903 .326-5.005 .228-4.115 .196-3.233H-4.015V-4.948H-.832C-.898-5.535-.947-6.14-.979-6.76L-1.126-8.719C-1.159-9.34-1.33-9.716-1.64-9.846-1.951-9.977-2.481-10.075-3.231-10.14-3.264-9.846-3.395-9.487-3.623-9.062-2.808-9.095-2.334-9.046-2.203-8.915-2.073-8.785-1.991-8.409-1.958-7.789L-1.86-5.829H-4.015C-4.015-7.103-4.113-8.164-4.309-9.013-4.504-9.863-4.864-10.646-5.386-11.365-5.745-11.103-6.071-10.924-6.365-10.826-5.941-10.303-5.647-9.805-5.484-9.332-5.321-8.859-5.198-8.344-5.116-7.789-5.035-7.234-4.986-6.45-4.969-5.437-4.953-4.426-4.962-3.413-4.994-2.4H.098C.065-1.453 .032-.654 0 0M4.26-1.568C3.966-1.796 3.704-2.025 3.476-2.253 3.085-1.731 2.562-1.193 1.909-.637 2.137-.441 2.35-.229 2.546 0 3.199-.523 3.77-1.046 4.26-1.568" fill="#2c292a"/>
<path transform="matrix(1,0,0,-1,191.3402,327.4639)" d="M0 0C.555 0 1.175 .016 1.86 .049V-.833C1.175-.801 .555-.784 0-.784H-3.134V-2.008C-1.208-2.008 .049-1.992 .637-1.959V-2.841C.049-2.809-1.208-2.792-3.134-2.792V-4.262C-2.514-4.36-1.747-4.409-.832-4.409 .081-4.409 1.093-4.344 2.203-4.213 1.942-4.572 1.779-4.964 1.714-5.388H-.783C-1.502-5.388-2.171-5.347-2.791-5.266-3.411-5.184-4.023-5.029-4.627-4.801-5.231-4.572-5.875-4.164-6.561-3.576-6.692-3.838-6.879-4.139-7.124-4.482-7.369-4.825-7.736-5.241-8.226-5.731-8.552-5.469-8.879-5.241-9.205-5.045-8.552-4.654-8.014-4.083-7.589-3.331-7.165-2.58-6.92-1.878-6.855-1.225L-5.68-1.568C-5.777-1.698-5.941-2.074-6.169-2.694-5.582-3.315-4.88-3.756-4.064-4.017V-.784H-7.197C-7.785-.784-8.405-.801-9.058-.833V.049C-8.372 .016-7.753 0-7.197 0ZM-.049 3.282C-.049 2.432-.033 1.633 0 .882H-7.295C-7.263 1.633-7.246 2.432-7.246 3.282-7.246 4.164-7.263 4.85-7.295 5.339H0C-.033 4.85-.049 4.164-.049 3.282M-1.028 4.556H-6.2669999V3.5760003H-1.028ZM-1.028 2.743H-6.2669999V1.714H-1.028ZM-1.028 1.714" fill="#2c292a"/>
<path transform="matrix(1,0,0,-1,197.5094,327.072)" d="M0 0V-3.723C0-4.409 .016-5.111 .049-5.829H-.979C-.947-5.078-.93-4.377-.93-3.723V-.196C-1.29-1.013-1.828-1.91-2.546-2.89-2.742-2.629-2.971-2.368-3.232-2.106-2.644-1.453-2.163-.727-1.787 .073-1.412 .873-1.192 1.519-1.126 2.008-1.649 2.008-2.154 1.992-2.644 1.959V2.841C-2.154 2.808-1.584 2.792-.93 2.792V3.919C-.93 4.409-.947 4.85-.979 5.241H.049C.016 4.915 0 4.474 0 3.919V2.792C.424 2.792 .881 2.808 1.371 2.841V1.959C.881 1.992 .424 2.008 0 2.008V.098C.261 .228 .522 .375 .783 .539 1.109-.049 1.42-.621 1.714-1.176 1.42-1.307 1.126-1.47 .832-1.666 .571-1.046 .294-.49 0 0M3.794 4.213C3.647 3.886 3.508 3.559 3.378 3.233H8.225C8.193 2.743 8.16 2.138 8.128 1.421 8.128-.572 8.062-2.433 7.932-4.164 7.801-4.882 7.531-5.331 7.124-5.511 6.715-5.69 6.087-5.812 5.239-5.878 5.173-5.518 5.043-5.143 4.847-4.752 5.533-4.784 6.054-4.768 6.414-4.703 6.773-4.638 6.985-4.213 7.05-3.429 7.18-1.6 7.229 .343 7.197 2.4H3.036C2.742 1.747 2.415 1.127 2.056 .539 1.795 .735 1.518 .882 1.224 .98 1.714 1.698 2.121 2.465 2.448 3.282 2.774 4.098 3.003 4.817 3.134 5.437 3.525 5.241 3.9 5.111 4.26 5.045 4.096 4.817 3.941 4.539 3.794 4.213M3.599-2.988C2.929-3.086 2.366-3.233 1.909-3.429 1.779-3.037 1.632-2.662 1.469-2.302 1.665-2.237 1.893-1.992 2.154-1.568 2.415-1.144 2.627-.71 2.791-.269 2.954 .171 3.117 .702 3.28 1.323 3.672 1.159 4.047 .98 4.406 .784 4.211 .588 3.925 .122 3.55-.612 3.174-1.347 2.872-1.878 2.644-2.204 3.361-2.172 4.145-2.123 4.994-2.057 4.863-1.6 4.7-1.111 4.504-.588L5.484-.294C5.679-.85 5.858-1.372 6.022-1.861 6.185-2.351 6.299-2.825 6.365-3.282 6.005-3.348 5.663-3.446 5.337-3.576 5.271-3.282 5.206-3.021 5.141-2.792 4.781-2.825 4.267-2.89 3.599-2.988" fill="#2c292a"/>
<path transform="matrix(1,0,0,-1,209.3579,322.8593)" d="M0 0H1.714C2.399 0 2.938 .016 3.329 .049V-.784C3.003-.752 2.562-.735 2.007-.735H1.42C1.746-1.453 1.974-1.959 2.105-2.253 1.746-2.384 1.42-2.515 1.126-2.645 1.06-2.351 .848-1.714 .489-.735H-.294C-.49-1.095-.678-1.413-.857-1.69-1.037-1.968-1.241-2.253-1.469-2.547-1.763-2.351-2.073-2.155-2.399-1.959-1.942-1.568-1.559-1.07-1.249-.465-.939 .139-.67 .718-.441 1.274-.017 1.045 .31 .882 .538 .784 .375 .555 .196 .294 0 0M.832-3.282C1.289-3.282 1.763-3.266 2.252-3.233V-4.115C1.697-4.083 1.191-4.066 .734-4.066V-7.299L2.203-7.005C2.17-7.397 2.17-7.691 2.203-7.887 1.746-7.985 1.134-8.115 .367-8.279-.4-8.442-1.126-8.638-1.812-8.866-1.91-8.54-2.073-8.197-2.301-7.838-1.747-7.773-1.045-7.659-.196-7.495V-4.066C-.816-4.066-1.388-4.083-1.91-4.115V-3.233C-1.388-3.266-.881-3.282-.392-3.282ZM7.246-4.654V-8.083C7.213-8.801 7.36-9.16 7.687-9.16H7.883C8.111-9.16 8.241-8.736 8.274-7.887 8.6-8.083 8.927-8.197 9.254-8.229 9.123-9.078 8.984-9.584 8.837-9.748 8.69-9.911 8.47-9.993 8.177-9.993H7.148C6.626-9.993 6.365-9.682 6.365-9.062V-3.723H3.819C3.819-4.54 3.794-5.274 3.745-5.927 3.696-6.581 3.615-7.169 3.501-7.691 3.386-8.213 3.231-8.687 3.036-9.111 2.84-9.535 2.578-9.96 2.252-10.385 1.958-10.189 1.632-10.042 1.273-9.944 1.665-9.584 2.007-9.062 2.301-8.376 2.595-7.691 2.766-6.989 2.815-6.27 2.864-5.552 2.896-4.94 2.913-4.433 2.929-3.927 2.921-3.429 2.889-2.939H7.295C7.262-3.527 7.246-4.099 7.246-4.654M3.134-2.106C3.459-1.617 3.77-1.07 4.064-.465 4.357 .139 4.585 .702 4.749 1.225 5.075 1.061 5.451 .914 5.875 .784 5.712 .686 5.516 .424 5.288 0H7.05C7.605 0 8.177 .016 8.764 .049V-.784C8.274-.752 7.719-.735 7.099-.735 7.425-1.421 7.654-1.927 7.785-2.253 7.425-2.384 7.099-2.515 6.805-2.645 6.74-2.253 6.544-1.617 6.218-.735H4.994C4.7-1.323 4.357-1.91 3.966-2.498 3.672-2.335 3.394-2.204 3.134-2.106M5.924-7.495C5.565-7.593 5.255-7.708 4.994-7.838 4.928-7.381 4.683-6.581 4.26-5.437 4.52-5.339 4.814-5.241 5.141-5.143Z" fill="#2c292a"/>
<path transform="matrix(1,0,0,-1,226.0046,328.3946)" d="M0 0V1.078H-3.036C-3.003 1.633-2.987 2.188-2.987 2.743-2.987 3.331-3.003 3.935-3.036 4.556H-.636L-.441 5.388H-4.211C-4.211 2.808-4.244 1.078-4.309 .196-4.374-.686-4.513-1.535-4.725-2.351-4.937-3.168-5.256-3.902-5.679-4.556-5.941-4.229-6.218-3.951-6.512-3.723-6.186-3.331-5.933-2.89-5.753-2.4-5.574-1.91-5.427-1.364-5.312-.759-5.198-.155-5.133 .808-5.116 2.131-5.1 3.453-5.109 4.768-5.141 6.074H2.693C3.28 6.074 3.868 6.09 4.456 6.123V5.388H.636L.343 4.556H3.672C3.639 3.935 3.623 3.331 3.623 2.743 3.623 2.188 3.639 1.633 3.672 1.078H.881V-.343C.914-.67 .791-.906 .514-1.053 .236-1.2-.18-1.307-.734-1.372-.767-1.078-.849-.768-.979-.441-.294-.507 .032-.36 0 0M-3.231-1.91C-3.003-2.139-2.726-2.335-2.399-2.498-2.857-2.923-3.427-3.608-4.113-4.556-4.341-4.36-4.57-4.18-4.798-4.017-4.407-3.592-3.885-2.89-3.231-1.91M-1.763 .735C-1.535 .539-1.273 .326-.979 .098-1.502-.294-2.252-.817-3.231-1.47L-3.819-.784C-2.938-.392-2.252 .114-1.763 .735M2.84 3.821H-2.1050003V3.1350003H2.84ZM2.889 2.4H-2.105V1.763H2.889ZM-.93-2.89C-.93-3.119-.923-3.339-.906-3.551-.89-3.763-.685-3.87-.294-3.87H1.567C1.926-3.837 2.17-3.511 2.301-2.89 2.562-3.086 2.889-3.282 3.28-3.478 3.019-3.935 2.807-4.229 2.644-4.36 2.48-4.49 2.17-4.556 1.714-4.556H-.685C-1.339-4.523-1.698-4.384-1.763-4.139-1.828-3.894-1.86-3.559-1.86-3.135-1.86-2.711-1.877-2.27-1.909-1.812H-.881C-.914-2.27-.93-2.629-.93-2.89M1.469-2.645C1.142-2.809 .881-2.972 .685-3.135 .457-2.743 .179-2.368-.147-2.008 .114-1.878 .343-1.731 .539-1.568 .767-1.829 1.077-2.188 1.469-2.645M4.504-.539C4.309-.833 4.145-1.111 4.015-1.372 3.329-.85 2.562-.376 1.714 .049 1.877 .31 2.024 .539 2.154 .735 3.232 .114 4.015-.311 4.504-.539M5.092-3.38C4.83-3.576 4.585-3.772 4.358-3.968 3.933-3.315 3.443-2.727 2.889-2.204 3.15-1.976 3.329-1.796 3.427-1.665 4.08-2.286 4.634-2.858 5.092-3.38" fill="#2c292a"/>
<path transform="matrix(1,0,0,-1,238.3918,326.5331)" d="M0 0H3.329C3.884 0 4.439 .032 4.994 .098V-.784C4.439-.752 3.884-.735 3.329-.735H-4.553C-4.978-.735-5.516-.752-6.169-.784V.049C-5.516 .016-4.978 0-4.553 0H-1.175C-1.208 .196-1.273 .441-1.371 .735-.979 .8-.636 .849-.343 .882-.245 .555-.131 .261 0 0M-3.305-5.584C-3.843-5.943-4.374-6.27-4.896-6.564-5.092-6.27-5.288-5.992-5.484-5.731-5.125-5.535-4.7-5.299-4.211-5.021-3.721-4.744-3.248-4.409-2.791-4.017-2.563-4.279-2.318-4.572-2.056-4.899-2.35-4.996-2.766-5.225-3.305-5.584M3.28 2.743C3.28 2.057 3.313 1.453 3.378 .931H-4.553C-4.521 1.453-4.504 2.057-4.504 2.743-4.504 3.461-4.521 4.082-4.553 4.605H3.329C3.297 4.082 3.28 3.461 3.28 2.743M3.134-2.694C3.134-3.086 3.15-3.397 3.183-3.625H.049V-5.731C.049-6.123-.09-6.384-.367-6.515-.645-6.645-1.126-6.727-1.811-6.76-1.844-6.4-1.975-6.008-2.203-5.584-1.648-5.682-1.281-5.707-1.102-5.658-.922-5.609-.849-5.453-.881-5.192V-3.625H-4.211C-4.178-3.331-4.162-2.972-4.162-2.547-4.162-2.09-4.178-1.682-4.211-1.323H3.183C3.15-1.845 3.134-2.302 3.134-2.694M2.35 3.821H-3.574V3.0370002H2.35ZM2.35 2.302H-3.574V1.665H2.35ZM2.252-2.057H-3.281V-2.939H2.252ZM2.913-4.629C3.419-4.874 3.982-5.16 4.603-5.486 4.407-5.78 4.211-6.106 4.015-6.466 3.721-6.204 3.313-5.927 2.791-5.633 2.268-5.339 1.714-5.078 1.126-4.85L1.616-3.968C1.975-4.164 2.407-4.384 2.913-4.629" fill="#2c292a"/>
<path transform="matrix(1,0,0,-1,247.4986,324.18193)" d="M0 0H2.203C2.17-.556 2.154-1.258 2.154-2.106V-6.417C2.154-6.907 2.17-7.61 2.203-8.523H1.224V-7.544H-1.273V-8.621H-2.252C-2.22-7.577-2.203-6.924-2.203-6.662V-2.155C-2.203-1.274-2.22-.556-2.252 0H-.832C-.669 .751-.538 1.535-.441 2.351 .016 2.187 .392 2.073 .685 2.008 .522 1.715 .294 1.045 0 0M1.224-.833H-1.273V-3.2819999H1.224ZM1.224-4.115H-1.273V-6.7109997H1.224ZM7.736-7.397C7.67-7.985 7.36-8.376 6.806-8.572 6.25-8.768 5.631-8.898 4.945-8.964 4.912-8.605 4.765-8.23 4.505-7.838 5.157-7.87 5.671-7.854 6.047-7.789 6.422-7.724 6.659-7.577 6.757-7.348 6.855-7.12 6.928-6.45 6.977-5.339 7.026-4.23 7.067-2.678 7.099-.686H4.26C3.998-1.307 3.623-2.041 3.134-2.89 2.905-2.662 2.627-2.482 2.301-2.351 2.595-1.959 2.872-1.486 3.134-.931 3.394-.376 3.623 .228 3.819 .882 4.015 1.535 4.129 2.041 4.162 2.4 4.618 2.204 5.01 2.057 5.337 1.959 5.173 1.698 5.035 1.412 4.921 1.102 4.806 .791 4.683 .49 4.553 .196H8.03C7.997-.49 7.981-1.127 7.981-1.714 7.948-3.707 7.866-5.601 7.736-7.397M5.092-3.723C5.288-4.115 5.516-4.621 5.777-5.241 5.549-5.339 5.239-5.503 4.847-5.731 4.618-5.111 4.407-4.58 4.211-4.139 4.015-3.698 3.819-3.331 3.623-3.037 3.851-2.907 4.145-2.743 4.505-2.547Z" fill="#2c292a"/>
<path transform="matrix(1,0,0,-1,259.1026,330.6479)" d="M0 0V3.576C-.783 3.576-1.355 3.559-1.714 3.527V4.507C-1.42 4.441-.816 4.409 .098 4.409H1.028C.995 3.919 .979 3.429 .979 2.939V-.098C1.926-.915 3.321-1.33 5.165-1.347 7.009-1.363 8.47-1.29 9.547-1.127 9.352-1.453 9.205-1.861 9.107-2.351H6.169C5.353-2.351 4.602-2.327 3.917-2.278 3.231-2.229 2.652-2.09 2.179-1.861 1.705-1.633 1.289-1.388 .93-1.127 .571-.866 .236-.89-.073-1.2-.384-1.51-.735-1.943-1.126-2.498-1.322-2.171-1.616-1.894-2.007-1.666-.996-.784-.327-.229 0 0M1.273 6.319C.946 6.123 .636 5.91 .343 5.682-.311 6.792-.8 7.495-1.126 7.789-.832 7.952-.539 8.181-.245 8.474 .081 8.083 .587 7.364 1.273 6.319M6.022 .441C6.218 .506 6.316 .784 6.316 1.274V5.731H3.134C2.774 5.731 2.382 5.714 1.958 5.682V6.613C2.382 6.58 2.905 6.564 3.525 6.564H6.316C6.316 7.413 6.283 8.148 6.218 8.768H7.344C7.311 8.344 7.295 7.609 7.295 6.564 7.981 6.564 8.6 6.58 9.156 6.613V5.682C8.633 5.714 8.013 5.731 7.295 5.731V.882C7.295 .13 7.075-.318 6.634-.465 6.194-.612 5.646-.703 4.994-.735 4.928-.376 4.798 0 4.602 .392 5.353 .359 5.826 .375 6.022 .441M2.546 4.311C2.84 4.441 3.149 4.621 3.476 4.85 4.064 3.674 4.439 2.857 4.602 2.4 4.373 2.269 4.047 2.09 3.623 1.861 3.329 2.743 2.97 3.559 2.546 4.311" fill="#2c292a"/>
<path transform="matrix(1,0,0,-1,271.8077,322.149)" d="M0 0C.702 .147 1.298 .334 1.787 .563 2.015 .139 2.244-.22 2.473-.514 2.244-.482 2.007-.49 1.763-.539 1.518-.588 1.249-.629 .955-.661V-3.062C1.412-3.062 1.901-3.046 2.424-3.013V-3.943C1.901-3.911 1.412-3.894 .955-3.894V-8.205C.955-8.924 .971-9.887 1.004-11.095H.025C.057-9.887 .073-8.94 .073-8.254V-6.001C-.384-6.915-.89-7.781-1.444-8.597-1.673-8.271-1.934-7.977-2.228-7.715-1.771-7.258-1.363-6.735-1.004-6.148-.645-5.56-.318-4.809-.024-3.894-.841-3.894-1.444-3.911-1.836-3.943V-3.013C-1.281-3.046-.874-3.062-.612-3.062H.073V-.857C-.351-.955-.89-1.053-1.542-1.151-1.64-.857-1.755-.58-1.885-.318-1.33-.253-.702-.147 0 0M2.864-6.784C2.668-6.915 2.407-7.111 2.081-7.372 1.754-6.654 1.427-6.067 1.102-5.609 1.298-5.446 1.542-5.266 1.836-5.07 2.162-5.56 2.505-6.132 2.864-6.784M7.32-4.874C7.841-4.874 8.397-4.858 8.984-4.825V-5.707C8.397-5.675 7.841-5.658 7.32-5.658H6.39V-7.225H6.928C7.418-7.225 7.988-7.209 8.642-7.176V-8.107C7.988-8.075 7.467-8.058 7.075-8.058H6.39V-9.773H7.565C8.152-9.773 8.772-9.757 9.425-9.724V-10.654C8.902-10.621 8.282-10.605 7.565-10.605H4.284C3.566-10.605 2.945-10.637 2.424-10.703V-9.724C2.945-9.757 3.566-9.773 4.284-9.773H5.459V-8.058H4.774C4.251-8.058 3.762-8.091 3.305-8.156V-7.176C3.762-7.209 4.251-7.225 4.774-7.225H5.459V-5.658H4.676C4.088-5.658 3.533-5.675 3.011-5.707V-4.825C3.533-4.858 4.088-4.874 4.676-4.874ZM8.691-1.984C8.691-2.54 8.707-3.095 8.74-3.649H3.256C3.288-3.029 3.305-2.442 3.305-1.886 3.305-1.331 3.288-.71 3.256-.025H8.74C8.707-.743 8.691-1.396 8.691-1.984M7.662-.857H4.186V-2.767H7.662ZM7.662-2.768" fill="#2c292a"/>
<path transform="matrix(1,0,0,-1,117.1523,249.37149)" d="M0 0V3.793C-.693 3.793-1.204 3.778-1.535 3.748V4.606C-1.204 4.576-.843 4.561-.451 4.561H.948C.917 4.019 .903 3.507 .903 3.026V.361C1.143 .602 1.609 1.113 2.302 1.897 2.422 1.626 2.588 1.355 2.798 1.084 2.347 .632 1.911 .181 1.489-.271 1.068-.723 .722-1.129 .451-1.49 .15-1.19-.106-.948-.316-.768-.106-.527 0-.271 0 0M-.316 7.361C-.045 7.541 .165 7.752 .316 7.993 .797 7.601 1.369 7.029 2.031 6.277 1.73 6.096 1.489 5.885 1.309 5.645 .827 6.307 .286 6.879-.316 7.361M6.206-.135C5.77 .617 5.401 1.595 5.1 2.8 4.769 1.475 4.295 .399 3.679-.429 3.061-1.257 2.482-1.897 1.941-2.348 1.82-2.137 1.535-1.926 1.083-1.716 1.745-1.264 2.339-.685 2.866 .023 3.392 .73 3.784 1.437 4.04 2.145 4.295 2.852 4.446 3.56 4.491 4.267 4.536 4.974 4.559 5.6 4.559 6.142 4.559 6.683 4.543 7.316 4.514 8.038 4.875 8.008 5.265 7.993 5.687 7.993 5.597 7.872 5.536 7.541 5.507 7 5.476 6.458 5.491 5.773 5.552 4.945 5.612 4.116 5.762 3.326 6.003 2.574 6.244 1.821 6.59 1.068 7.041 .316 7.493-.437 8.139-1.069 8.982-1.581 8.5-1.761 8.199-2.002 8.079-2.303 7.267-1.61 6.642-.888 6.206-.135" fill="#2c292a"/>
<path transform="matrix(1,0,0,-1,136.9543,243.41062)" d="M0 0V-7.27C0-7.692-.151-7.955-.451-8.061-.752-8.166-1.234-8.248-1.896-8.309-1.896-8.038-2.016-7.692-2.257-7.27-1.776-7.27-1.429-7.248-1.219-7.203-1.008-7.158-.903-7.03-.903-6.819V.858H-8.35V-8.264H-9.388C-9.359-7.842-9.328-7.361-9.298-6.819V0C-9.298 .723-9.313 1.294-9.343 1.716H.09C.03 1.264 0 .692 0 0M-3.024-.406C-2.422-.406-1.986-.392-1.715-.361V-1.264C-2.016-1.235-2.468-1.219-3.069-1.219H-6.003C-6.725-1.219-7.237-1.235-7.538-1.264V-.361C-7.207-.392-6.68-.406-5.958-.406ZM-2.618-4.109C-2.618-4.772-2.588-5.359-2.528-5.871H-6.77C-6.741-5.329-6.725-4.712-6.725-4.019-6.725-3.327-6.741-2.845-6.77-2.574H-2.528C-2.588-2.906-2.618-3.417-2.618-4.109M-3.43-3.297H-5.867V-5.1029999H-3.43ZM-3.43-5.103" fill="#2c292a"/>
<path transform="matrix(1,0,0,-1,147.684,244.2233)" d="M0 0V-5.284C0-5.735 .015-6.427 .045-7.361H-.948V-6.548H-6.815V-7.316H-7.763C-7.734-6.503-7.718-5.856-7.718-5.374V0C-7.718 .993-7.734 1.821-7.763 2.484H.045C.015 1.61 0 .782 0 0M-.948 1.761H-6.816V-.22599995H-.948ZM-.948-.948H-6.816V-2.98H-.948ZM-.948-3.703H-6.816V-5.825H-.948ZM-.948-5.825" fill="#2c292a"/>
<path transform="matrix(1,0,0,-1,151.8239,242.64292)" d="M0 0C0 .481-.016 .948-.045 1.4H.858C.827 .978 .813 .512 .813 0V-1.084C1.293-1.084 1.806-1.069 2.347-1.039V-1.897C1.806-1.867 1.293-1.851 .813-1.851V-3.387C1.023-3.237 1.234-3.071 1.444-2.89 1.835-3.522 2.181-4.14 2.482-4.742 2.151-4.893 1.865-5.058 1.625-5.238 1.444-4.636 1.174-4.08 .813-3.567V-7.09C.813-7.722 .827-8.354 .858-8.986H-.045C-.016-8.324 0-7.692 0-7.09V-4.155C-.301-4.998-.767-5.81-1.399-6.593-1.58-6.352-1.805-6.127-2.076-5.916-1.565-5.404-1.151-4.764-.835-3.996-.519-3.229-.316-2.514-.226-1.851-.798-1.851-1.294-1.882-1.715-1.942V-1.039C-1.144-1.069-.572-1.084 0-1.084ZM3.521-6.187C3.189-6.97 2.934-7.527 2.753-7.857 2.482-7.707 2.181-7.572 1.851-7.451 2.241-6.849 2.535-6.299 2.731-5.803 2.926-5.306 3.084-4.817 3.205-4.335 3.536-4.486 3.866-4.622 4.198-4.742 4.077-4.922 3.851-5.404 3.521-6.187M7.041-2.303C7.643-2.303 8.17-2.288 8.621-2.258V-3.116C8.17-3.086 7.703-3.071 7.222-3.071H5.823V-7.632C5.823-8.113 5.687-8.429 5.416-8.58 5.146-8.73 4.664-8.851 3.972-8.941 3.911-8.58 3.792-8.234 3.611-7.903 4.212-7.903 4.589-7.88 4.739-7.835 4.89-7.79 4.965-7.617 4.965-7.316V-3.071H3.837C3.084-3.071 2.543-3.101 2.212-3.161V-2.258C2.603-2.288 3.144-2.303 3.837-2.303ZM6.545 .677C7.177 .677 7.688 .692 8.079 .723V-.181C7.507-.121 6.906-.09 6.274-.09H4.062C3.581-.09 3.114-.121 2.663-.181V.723C3.084 .692 3.55 .677 4.062 .677ZM8.892-7.045C8.56-7.196 8.23-7.376 7.899-7.587 7.567-6.714 7.071-5.796 6.409-4.832 6.71-4.682 6.981-4.501 7.222-4.29 7.883-5.314 8.441-6.232 8.892-7.045" fill="#2c292a"/>
<path transform="matrix(1,0,0,-1,126.0635,262.9017)" d="M0 0C-.211-.106-.504-.09-.88 .045-1.257 .181-1.745 .519-2.347 1.061-2.708 .67-3.13 .308-3.611-.023-3.822 .218-4.047 .399-4.288 .519-3.656 .881-3.16 1.272-2.798 1.693-3.13 2.235-3.378 2.829-3.543 3.477-3.709 4.124-3.822 4.734-3.882 5.306H-7.944C-7.944 3.951-7.966 3.033-8.012 2.551-8.057 2.07-8.155 1.618-8.305 1.197-8.456 .775-8.682 .323-8.982-.158-9.343 .083-9.63 .233-9.84 .294-9.479 .745-9.216 1.189-9.05 1.626-8.885 2.062-8.787 2.566-8.756 3.139-8.727 3.71-8.727 4.674-8.756 6.029H-3.972C-3.972 6.269-3.987 6.706-4.017 7.338-3.746 7.278-3.43 7.232-3.069 7.203-3.13 6.841-3.145 6.45-3.114 6.029H-1.128C-.707 6.029-.211 6.043 .361 6.074V5.261C-.211 5.291-.693 5.306-1.083 5.306H-3.069C-2.949 4.042-2.693 3.093-2.302 2.461-2.121 2.762-1.956 3.131-1.805 3.568-1.655 4.004-1.535 4.418-1.444 4.809-1.144 4.689-.828 4.584-.497 4.493-.617 4.373-.775 4.042-.97 3.5-1.166 2.958-1.444 2.355-1.805 1.693-1.475 1.392-1.181 1.166-.925 1.016-.67 .865-.504 .835-.429 .926-.354 1.016-.256 1.332-.135 1.874 .105 1.663 .391 1.513 .722 1.422 .451 .579 .21 .105 0 0M-8.576-.339C-8.335-.459-8.05-.58-7.718-.7-8.11-1.603-8.411-2.265-8.621-2.687-8.862-2.566-9.148-2.446-9.479-2.326-9.208-1.995-8.907-1.332-8.576-.339M-4.333 .881H-7.493V3.184H-4.333ZM-4.378 3.906H-7.4469997V4.5829999H-4.378ZM-2.076-2.755C-2.227-2.86-2.423-2.913-2.663-2.913H-6.093C-6.485-2.882-6.718-2.702-6.793-2.371-6.868-2.039-6.906-1.724-6.906-1.422-6.906-1.122-6.921-.761-6.951-.339H-6.003C-6.033-.851-6.048-1.212-6.048-1.422-6.048-1.603-6.033-1.784-6.003-1.964-5.974-2.145-5.777-2.22-5.416-2.19H-3.34C-3.04-2.19-2.837-2.137-2.731-2.032-2.626-1.927-2.543-1.648-2.482-1.197-2.242-1.377-1.926-1.543-1.535-1.693-1.745-2.295-1.926-2.649-2.076-2.755M-5.055 2.551H-6.77V1.5120001H-5.055ZM-4.739 .384C-4.228-.279-3.897-.745-3.746-1.016-3.987-1.167-4.213-1.348-4.423-1.558-4.604-1.227-4.935-.745-5.416-.113-5.236 .037-5.01 .203-4.739 .384M-2.482 6.841C-2.302 7.052-2.152 7.248-2.031 7.429-1.821 7.308-1.46 7.052-.948 6.661-1.128 6.51-1.309 6.329-1.49 6.119-1.67 6.269-2.001 6.51-2.482 6.841M.632-2.1C.331-2.28 .06-2.461-.18-2.642-.482-2.07-.888-1.498-1.399-.926-1.189-.775-.948-.595-.677-.384-.015-1.197 .421-1.769 .632-2.1" fill="#2c292a"/>
<path transform="matrix(1,0,0,-1,129.4587,260.0568)" d="M0 0C.526 .255 .985 .594 1.377 1.016 1.767 1.437 2.054 2.13 2.234 3.093H.925C.323 3.093-.248 3.078-.79 3.048V3.906C-.098 3.876 .458 3.861 .88 3.861H7.651C7.59 3.529 7.545 3.093 7.515 2.551L7.289 .881C7.169 .188 6.935-.219 6.59-.339 6.244-.459 5.739-.55 5.078-.61 5.047-.369 4.942-.023 4.762 .429 5.363 .368 5.777 .391 6.003 .497 6.229 .602 6.356 .79 6.387 1.061L6.612 3.093H3.227C3.076 2.341 2.889 1.746 2.663 1.31 2.437 .873 2.181 .504 1.896 .203 1.609-.098 1.211-.377 .7-.632 .188-.888-.399-1.137-1.061-1.377-1.212-1.077-1.407-.806-1.647-.564-1.076-.444-.527-.256 0 0M7.38-2.597V-4.313C7.38-4.825 7.394-5.351 7.425-5.893H6.477V-5.035H1.106V-5.893L.113-5.848C.142-5.547 .158-5.155 .158-4.674V-2.597C.158-2.145 .142-1.693 .113-1.242H7.425C7.394-1.724 7.38-2.175 7.38-2.597M6.477-2.055H1.1060004V-4.268H6.477ZM6.477-4.267" fill="#2c292a"/>
<path transform="matrix(1,0,0,-1,147.1844,256.3312)" d="M0 0C-.166-.271-.354-.587-.564-.948H1.286C1.707-.948 2.174-.933 2.686-.903V-1.761C2.204-1.701 1.677-1.671 1.106-1.671H-6.026C-6.808-1.671-7.47-1.701-8.012-1.761V-.903C-7.38-.933-6.718-.948-6.026-.948H-1.467C-.956 .015-.67 .662-.609 .994-.279 .813 .083 .677 .474 .587 .323 .466 .165 .271 0 0M-3.882-8.738C-3.717-8.723-3.633-8.61-3.633-8.399V-6.999H-6.071V-9.754H-7.019C-6.959-9.212-6.928-8.61-6.928-7.948V-4.335C-6.928-3.733-6.944-3.161-6.973-2.619H-2.731C-2.761-3.131-2.776-3.688-2.776-4.29V-8.851C-2.776-9.152-2.896-9.348-3.137-9.438-3.378-9.528-3.784-9.619-4.356-9.709-4.446-9.377-4.567-9.061-4.717-8.761-4.326-8.761-4.047-8.753-3.882-8.738M-3.633-3.297H-6.0699999V-4.516H-3.633ZM-3.633-5.193H-6.0699999V-6.3219997H-3.633ZM-5.303 .542C-4.973 .692-4.702 .843-4.491 .994-4.07 .452-3.754 0-3.543-.361-3.814-.482-4.115-.632-4.446-.813-4.567-.482-4.852-.03-5.303 .542M-1.647-7.541C-1.618-7.09-1.602-6.699-1.602-6.367V-4.29C-1.602-3.809-1.618-3.387-1.647-3.025H-.7C-.73-3.387-.745-3.809-.745-4.29V-6.322C-.745-6.774-.73-7.18-.7-7.541ZM.451-8.716C.587-8.685 .654-8.55 .654-8.309V-3.613C.654-3.251 .639-2.86 .609-2.438H1.557C1.527-2.83 1.512-3.222 1.512-3.613V-8.625C1.512-9.016 1.414-9.272 1.219-9.393 1.023-9.513 .564-9.603-.158-9.664-.219-9.272-.354-8.956-.564-8.716-.023-8.745 .316-8.745 .451-8.716" fill="#2c292a"/>
<path transform="matrix(1,0,0,-1,153.7618,259.3567)" d="M0 0C-.135-.241-.324-.542-.564-.903V-4.967C-.564-5.359-.549-5.961-.519-6.774H-1.467C-1.437-5.871-1.422-5.193-1.422-4.742V-1.852C-1.693-2.303-2.054-2.755-2.505-3.206-2.716-2.906-2.911-2.65-3.092-2.439-2.4-1.777-1.858-1.145-1.467-.542-1.076 .06-.73 .632-.429 1.174-.128 .993 .218 .797 .609 .587 .338 .436 .135 .241 0 0M-.745 2.371C-1.136 1.753-1.678 1.068-2.37 .316-2.55 .557-2.746 .783-2.956 .993-2.475 1.475-2.039 1.994-1.648 2.551-1.257 3.108-.97 3.597-.79 4.019-.49 3.838-.158 3.613 .203 3.342-.038 3.311-.354 2.987-.745 2.371M6.026 .045C6.597 .045 7.124 .06 7.605 .09V-.813C7.124-.783 6.612-.768 6.071-.768H5.439V-5.69C5.468-6.051 5.356-6.3 5.1-6.435 4.844-6.571 4.34-6.684 3.588-6.774 3.528-6.413 3.363-6.051 3.092-5.69 3.603-5.75 3.964-5.773 4.175-5.758 4.385-5.742 4.506-5.584 4.536-5.284V-.768H2.731C2.159-.768 1.617-.783 1.106-.813V.09C1.647 .06 2.189 .045 2.731 .045ZM5.258 3.116C5.77 3.116 6.296 3.131 6.838 3.161V2.303C6.296 2.333 5.739 2.348 5.168 2.348H3.498C2.836 2.348 2.264 2.333 1.783 2.303V3.161C2.264 3.131 2.836 3.116 3.498 3.116Z" fill="#2c292a"/>
<path transform="matrix(1,0,0,-1,146.7363,247.92652)" d="M0 0H-3.259C-3.459-.696-3.611-1.403-3.702-2.122H0ZM0 2.755H-2.23C-2.532 2.086-2.805 1.41-3.035 .723H0ZM0 5.464H-.85C-1.213 4.809-1.564 4.147-1.89 3.477H0ZM9.756-11.385H13.051C13.622-11.385 14.149-11.37 14.631-11.34V-12.243C14.149-12.214 13.638-12.198 13.096-12.198H12.464V-17.12C12.494-17.482 12.381-17.73 12.126-17.865 11.87-18.001 11.365-18.114 10.614-18.204 10.553-17.843 10.388-17.482 10.117-17.12 10.527-17.168 10.84-17.192 11.057-17.192 11.111-17.192 11.159-17.191 11.201-17.188 11.411-17.173 11.531-17.015 11.562-16.714V-12.198H9.756C9.184-12.198 8.643-12.214 8.131-12.243V-11.34C8.673-11.37 9.214-11.385 9.756-11.385M4.521-14.637C4.31-14.336 4.114-14.08 3.934-13.869 4.625-13.207 5.167-12.575 5.559-11.972 5.949-11.37 6.296-10.798 6.597-10.256 6.897-10.437 7.243-10.633 7.635-10.843 7.364-10.994 7.161-11.19 7.026-11.43 6.89-11.672 6.702-11.972 6.461-12.334V-16.398C6.461-16.789 6.476-17.391 6.506-18.204H5.559C5.588-17.301 5.604-16.623 5.604-16.172V-13.282C5.333-13.733 4.972-14.185 4.521-14.637M10.524-8.314H12.284C12.795-8.314 13.322-8.3 13.864-8.269V-9.127C13.322-9.098 12.765-9.082 12.194-9.082H10.524C9.861-9.082 9.289-9.098 8.808-9.127V-8.269C9.289-8.3 9.861-8.314 10.524-8.314M4.656-11.114C4.475-10.874 4.279-10.648 4.069-10.437 4.55-9.956 4.987-9.436 5.378-8.879 5.769-8.322 6.055-7.833 6.236-7.411 6.536-7.592 6.867-7.818 7.229-8.089 6.987-8.119 6.671-8.443 6.281-9.06 5.889-9.677 5.348-10.362 4.656-11.114M7.841-2.574C7.57-2.424 7.269-2.288 6.938-2.168 7.329-1.566 7.622-1.016 7.818-.519 8.014-.023 8.172 .466 8.292 .948 8.623 .797 8.954 .662 9.285 .542 9.165 .361 8.939-.121 8.608-.903 8.277-1.686 8.021-2.243 7.841-2.574M12.987-2.303C12.655-1.43 12.159-.512 11.497 .452 11.797 .602 12.068 .783 12.31 .994 12.971-.03 13.528-.948 13.979-1.761 13.648-1.912 13.317-2.093 12.987-2.303M8.924 2.981H12.129C12.731 2.981 13.257 2.995 13.709 3.026V2.168C13.257 2.197 12.79 2.213 12.31 2.213H10.91V-2.348C10.91-2.829 10.775-3.145 10.504-3.297 10.233-3.447 9.751-3.567 9.06-3.658 8.999-3.297 8.879-2.95 8.699-2.619 9.3-2.619 9.676-2.597 9.827-2.551 9.977-2.506 10.053-2.333 10.053-2.032V2.213H8.924C8.172 2.213 7.63 2.183 7.299 2.122V3.026C7.69 2.995 8.232 2.981 8.924 2.981M9.15 5.961H11.632C12.264 5.961 12.776 5.976 13.167 6.006V5.103C12.595 5.163 11.994 5.193 11.362 5.193H9.15C8.668 5.193 8.202 5.163 7.751 5.103V6.006C8.172 5.976 8.638 5.961 9.15 5.961M5.088 4.2V5.284C5.088 5.765 5.072 6.232 5.043 6.684H5.945C5.915 6.262 5.9 5.795 5.9 5.284V4.2C6.381 4.2 6.893 4.215 7.435 4.245V3.387C6.893 3.417 6.381 3.432 5.9 3.432V1.897C6.11 2.047 6.321 2.213 6.532 2.393 6.923 1.761 7.269 1.144 7.57 .542 7.239 .391 6.953 .226 6.713 .045 6.532 .647 6.261 1.204 5.9 1.716V-1.806C5.9-2.438 5.915-3.071 5.945-3.703H5.043C5.072-3.04 5.088-2.409 5.088-1.806V1.129C4.787 .286 4.32-.527 3.688-1.31 3.508-1.069 3.282-.843 3.011-.632 3.523-.121 3.937 .519 4.253 1.287 4.569 2.055 4.772 2.77 4.862 3.432 4.29 3.432 3.794 3.402 3.373 3.342V4.245C3.944 4.215 4.516 4.2 5.088 4.2M73.408 51.654C68.652 51.653 63.369 49.948 58.395 49.948 53.222 49.948 47.895 51.654 43.129 51.654 41.739 51.654 40.397 51.508 39.12 51.133 32.952 49.236 29.097 43.07 24.214 39.75 19.074 36.43 11.621 35.007 8.022 30.264 4.167 25.52 4.938 18.643 3.139 12.951 2.261 10.721 .865 8.491-.444 6.187H.993C.963 5.313 .948 4.485 .948 3.703V-1.58C.948-2.032 .963-2.724 .993-3.658H0V-2.845H-3.772C-3.79-3.112-3.8-3.38-3.8-3.65-3.8-5.621-3.26-7.513-2.464-9.353H-1.019C-.508-8.39-.222-7.743-.161-7.411 .17-7.592 .531-7.727 .922-7.818 .771-7.938 .613-8.134 .448-8.405 .282-8.676 .094-8.992-.116-9.353H1.735C2.156-9.353 2.622-9.338 3.134-9.308V-10.166C2.652-10.106 2.125-10.076 1.554-10.076H-2.138C-1.837-10.715-1.509-11.349-1.167-11.978-1.174-11.782-1.185-11.6-1.199-11.43H-.251C-.282-11.792-.297-12.214-.297-12.695V-13.525C.171-14.336 .646-15.14 1.103-15.94V-12.017C1.103-11.656 1.087-11.265 1.058-10.843H2.005C1.975-11.235 1.96-11.627 1.96-12.017V-17.03C1.96-17.177 1.946-17.306 1.918-17.415 2.38-18.283 2.798-19.148 3.139-20.014 4.938-25.705 4.167-32.583 8.022-37.326 11.621-42.069 19.074-43.492 24.214-46.813 29.097-50.133 32.952-56.299 39.12-58.196 40.397-58.571 41.739-58.716 43.129-58.716 47.894-58.716 53.222-57.01 58.395-57.01 63.37-57.01 68.652-58.716 73.408-58.716 74.794-58.716 76.137-58.571 77.414-58.196 83.582-56.299 87.437-50.133 92.32-46.813 97.46-43.492 104.913-42.069 108.511-37.326 112.366-32.583 111.595-25.705 113.394-20.014 115.45-14.796 120.59-9.579 120.59-3.65 120.59 2.516 115.45 7.734 113.394 12.951 111.595 18.643 112.366 25.52 108.511 30.264 104.913 35.007 97.46 36.43 92.32 39.75 87.437 43.07 83.582 49.236 77.414 51.133 76.137 51.508 74.795 51.654 73.408 51.654" fill="#d2d3d5"/>
<path transform="matrix(1,0,0,-1,147.7292,241.7396)" d="M0 0H-1.437C-1.574-.24-1.709-.481-1.843-.723H-.993V-2.71H-2.883C-3-2.949-3.113-3.19-3.222-3.432H-.993V-5.464H-4.028C-4.108-5.704-4.183-5.945-4.252-6.187H-.993V-8.309H-4.695C-4.725-8.548-4.749-8.79-4.765-9.032H-.993V-9.845H0C-.03-8.911-.045-8.219-.045-7.767V-2.484C-.045-1.701-.03-.874 0 0" fill="#2c292a"/>
<path transform="matrix(1,0,0,-1,155.0287,246.97809)" d="M0 0C-.121-.482-.279-.971-.474-1.468-.67-1.964-.963-2.514-1.354-3.116-1.023-3.237-.722-3.372-.451-3.522-.271-3.191-.016-2.635 .316-1.851 .647-1.069 .872-.587 .993-.406 .661-.286 .331-.151 0 0M4.017 .045C3.776-.166 3.505-.346 3.205-.497 3.866-1.461 4.363-2.378 4.694-3.251 5.025-3.041 5.356-2.86 5.687-2.71 5.236-1.897 4.679-.979 4.017 .045M5.416 2.077C4.965 2.047 4.438 2.032 3.836 2.032H.632C-.061 2.032-.602 2.047-.993 2.077V1.174C-.662 1.234-.121 1.264 .632 1.264H1.76V-2.98C1.76-3.282 1.685-3.455 1.535-3.5 1.384-3.545 1.008-3.567 .406-3.567 .587-3.898 .707-4.245 .767-4.606 1.459-4.516 1.941-4.395 2.212-4.245 2.482-4.094 2.618-3.778 2.618-3.297V1.264H4.017C4.498 1.264 4.965 1.249 5.416 1.219ZM4.875 5.058C4.483 5.027 3.972 5.013 3.34 5.013H.858C.346 5.013-.121 5.027-.542 5.058V4.155C-.09 4.215 .376 4.245 .858 4.245H3.069C3.701 4.245 4.303 4.215 4.875 4.155ZM-2.347 5.735H-3.25C-3.22 5.284-3.205 4.816-3.205 4.335V3.251C-3.777 3.251-4.349 3.266-4.92 3.297V2.393C-4.499 2.453-4.002 2.484-3.43 2.484-3.521 1.821-3.724 1.106-4.04 .339-4.356-.429-4.77-1.069-5.281-1.581-5.01-1.791-4.784-2.017-4.604-2.258-3.972-1.475-3.506-.663-3.205 .181V-2.755C-3.205-3.357-3.22-3.989-3.25-4.651H-2.347C-2.377-4.019-2.392-3.387-2.392-2.755V.768C-2.031 .255-1.76-.301-1.58-.903-1.339-.723-1.054-.557-.722-.406-1.023 .196-1.37 .813-1.76 1.445-1.971 1.264-2.182 1.099-2.392 .948V2.484C-1.911 2.484-1.399 2.468-.858 2.439V3.297C-1.399 3.266-1.911 3.251-2.392 3.251V4.335C-2.392 4.847-2.377 5.313-2.347 5.735" fill="#2c292a"/>
<path transform="matrix(1,0,0,-1,146.4849,259.3567)" d="M0 0H-.948C-.934-.169-.923-.352-.916-.548-.633-1.067-.341-1.582-.045-2.095V-1.264C-.045-.783-.03-.361 0 0M2.257 .587H1.309C1.338 .165 1.354-.226 1.354-.587V-4.51C1.635-5.003 1.909-5.494 2.17-5.984 2.198-5.875 2.212-5.747 2.212-5.6V-.587C2.212-.196 2.226 .195 2.257 .587M.09 4.019C.03 3.687-.256 3.04-.767 2.077H-2.213C-2.108 1.836-1.999 1.595-1.886 1.355H1.805C2.377 1.355 2.904 1.324 3.385 1.264V2.122C2.873 2.092 2.407 2.077 1.986 2.077H.135C.346 2.438 .534 2.755 .7 3.025 .865 3.297 1.023 3.492 1.174 3.613 .782 3.703 .421 3.838 .09 4.019" fill="#2c292a"/>
<path transform="matrix(1,0,0,-1,161.3672,259.2664)" d="M0 0C-.482-.03-1.009-.045-1.58-.045H-4.875C-5.417-.045-5.958-.03-6.5 0V-.903C-5.988-.874-5.447-.858-4.875-.858H-3.069V-5.374C-3.1-5.675-3.22-5.833-3.43-5.848-3.472-5.851-3.52-5.852-3.574-5.852-3.791-5.852-4.104-5.828-4.514-5.78-4.243-6.142-4.078-6.503-4.017-6.864-3.266-6.774-2.761-6.661-2.505-6.525-2.25-6.39-2.137-6.142-2.167-5.78V-.858H-1.535C-.993-.858-.482-.874 0-.903ZM-8.034 1.084C-8.335 .542-8.682-.03-9.072-.632-9.464-1.235-10.006-1.867-10.697-2.529-10.517-2.74-10.321-2.996-10.11-3.297-9.659-2.845-9.298-2.393-9.027-1.942V-4.832C-9.027-5.284-9.043-5.961-9.072-6.864H-8.125C-8.155-6.051-8.17-5.449-8.17-5.058V-.994C-7.929-.632-7.741-.332-7.605-.09-7.47 .15-7.267 .346-6.996 .497-7.388 .707-7.734 .903-8.034 1.084M-.767 3.071C-1.309 3.04-1.836 3.026-2.347 3.026H-4.107C-4.77 3.026-5.342 3.04-5.823 3.071V2.213C-5.342 2.242-4.77 2.258-4.107 2.258H-2.437C-1.866 2.258-1.309 2.242-.767 2.213ZM-8.395 3.929C-8.576 3.507-8.862 3.018-9.253 2.461-9.644 1.904-10.081 1.384-10.562 .903-10.352 .692-10.156 .466-9.975 .226-9.283 .978-8.742 1.663-8.35 2.28-7.96 2.897-7.644 3.221-7.402 3.251-7.763 3.522-8.095 3.748-8.395 3.929" fill="#2c292a"/>
<path transform="matrix(1,0,0,-1,171.7178,245.6351)" d="M0 0H-.257C-.515 0-.515 .475-.515 .713-.515 .951-.257 1.426-.257 1.901 0 2.139 .257 2.139 .515 2.139 .772 2.139 1.029 1.664 1.029 1.426 .772 1.188 .772 .713 .515 .238 .515 0 .257 0 0 0" fill="#2c292a"/>
<path transform="matrix(1,0,0,-1,204.8842,301.1282)" d="M0 0C-.257 0-.514 .237-.514 .474-.514 .711-.257 .949 0 .949 1.029 .949 1.8 1.186 2.571 1.423 2.828 1.423 3.085 1.186 3.085 .949 3.343 .711 3.085 .474 2.828 .237 2.057 .237 1.029 0 .257 0ZM-2.571 0C-3.343 .237-4.371 .474-5.142 .711-5.4 .711-5.657 1.186-5.4 1.423-5.4 1.66-5.142 1.897-4.885 1.66H-4.628C-3.857 1.423-3.086 1.186-2.314 1.186-2.057 1.186-1.8 .711-1.8 .474-2.057 .237-2.314 0-2.571 0M5.142 1.186C4.885 1.186 4.628 1.186 4.628 1.423 4.371 1.66 4.628 1.897 4.885 2.134 5.657 2.609 6.171 2.846 6.942 3.32 6.942 3.557 7.457 3.557 7.714 3.32 7.714 3.083 7.714 2.846 7.457 2.609 6.942 2.134 6.171 1.66 5.4 1.186ZM-7.199 1.66C-7.457 1.66-7.457 1.66-7.457 1.897-8.228 2.134-8.999 2.609-9.771 3.32-10.028 3.557-10.028 3.794-9.771 4.031-9.514 4.268-9.257 4.268-8.999 4.031-8.485 3.557-7.714 3.083-6.942 2.609-6.685 2.609-6.685 2.134-6.685 1.897-6.942 1.897-7.199 1.66-7.199 1.66M8.742 4.268 8.485 4.506C8.228 4.506 8.228 4.98 8.485 5.217 8.742 5.691 9.256 6.403 9.514 7.114 9.514 7.351 9.771 7.589 10.028 7.589 10.285 7.351 10.542 7.114 10.542 6.877 10.285 5.928 9.771 5.217 9.256 4.506 9.256 4.506 8.999 4.268 8.742 4.268M-11.056 4.98H-11.571C-12.085 5.691-12.599 6.403-13.113 7.114-13.113 7.351-13.113 7.826-12.856 7.826-12.599 8.063-12.085 7.826-12.085 7.589-11.571 6.877-11.314 6.403-10.799 5.691-10.542 5.454-10.542 5.217-10.799 4.98ZM10.285 8.774C10.028 8.774 9.771 9.011 9.771 9.248V9.723C9.771 10.434 9.771 10.908 9.514 11.62 9.514 11.857 9.771 12.094 10.028 12.094 10.285 12.331 10.542 12.094 10.799 11.857 10.799 11.146 11.056 10.434 11.056 9.723V9.248C11.056 9.011 10.799 8.774 10.285 8.774M-13.37 9.011C-13.628 9.011-13.885 9.248-14.142 9.486V10.197C-14.399 10.671-14.399 11.383-14.656 11.857-14.656 12.094-14.399 12.331-14.142 12.568-13.628 12.568-13.37 12.331-13.37 12.094-13.37 11.383-13.37 10.908-13.113 10.434-13.113 10.197-13.113 9.96-12.856 9.723-12.856 9.486-13.113 9.248-13.37 9.011M-14.142 13.754C-14.399 13.754-14.656 13.991-14.656 14.228V16.837C-14.656 17.074-14.399 17.311-14.142 17.311-13.628 17.311-13.37 16.837-13.37 16.6-13.628 15.888-13.628 15.177-13.628 14.228-13.628 13.991-13.885 13.754-14.142 13.754M-13.885 18.497C-14.142 18.497-14.399 18.734-14.399 19.208V20.394 20.868 21.343C-14.399 21.817-14.142 22.054-13.885 22.054-13.628 22.054-13.37 21.817-13.37 21.58V20.868 20.394 18.971C-13.37 18.734-13.628 18.497-13.885 18.497M-14.142 23.24C-14.399 23.24-14.656 23.477-14.656 23.714-14.656 24.662-14.913 25.374-15.17 26.085-15.427 26.322-15.17 26.56-14.913 26.56-14.656 26.797-14.142 26.56-14.142 26.322-13.885 25.611-13.628 24.662-13.628 23.951-13.37 23.714-13.628 23.477-13.885 23.24ZM-15.685 27.745C-15.942 27.745-16.199 27.745-16.199 27.982-16.713 28.457-17.227 29.168-17.742 29.405V29.642C-17.999 29.879-18.256 30.117-17.999 30.354-17.742 30.591-17.484 30.591-17.227 30.354H-16.97C-16.199 29.879-15.685 29.168-15.427 28.457-15.17 28.219-15.17 27.982-15.427 27.745ZM-19.799 30.828H-20.056C-20.57 31.065-21.341 31.302-22.37 31.539-22.627 31.777-22.884 32.014-22.627 32.251-22.627 32.488-22.37 32.725-21.856 32.488-21.084 32.251-20.056 32.014-19.541 31.777-19.284 31.539-19.027 31.302-19.284 31.065-19.284 30.828-19.541 30.828-19.799 30.828M-24.684 32.251C-25.455 32.488-26.484 32.725-27.255 32.962-27.512 32.962-27.769 33.199-27.769 33.437-27.512 33.911-27.255 33.911-26.998 33.911-26.227 33.674-25.198 33.437-24.427 33.199-24.17 33.199-23.913 32.962-24.17 32.488-24.17 32.251-24.427 32.251-24.684 32.251M-29.569 33.911H-29.826-30.084C-30.598 34.385-31.369 34.859-31.883 35.334-32.141 35.571-32.141 35.808-31.883 36.045-31.626 36.282-31.369 36.282-31.112 36.045-30.598 35.571-30.084 35.334-29.569 34.859H-29.312C-29.055 34.622-28.798 34.385-29.055 34.148-29.055 33.911-29.312 33.911-29.569 33.911M-33.169 36.994C-33.426 36.994-33.426 37.231-33.683 37.231-34.198 37.942-34.455 38.654-34.969 39.602-34.969 39.839-34.969 40.076-34.455 40.076-34.198 40.314-33.94 40.076-33.94 39.839-33.426 39.128-33.169 38.416-32.655 37.942-32.655 37.705-32.655 37.231-32.912 37.231-32.912 36.994-33.169 36.994-33.169 36.994M-35.226 41.499C-35.483 41.499-35.483 41.499-35.74 41.974-35.74 42.685-35.997 43.396-35.997 44.345-35.997 44.582-35.74 44.819-35.483 44.819-35.226 44.819-34.969 44.582-34.969 44.345-34.969 43.634-34.712 42.922-34.455 41.974-34.455 41.736-34.712 41.499-34.969 41.499ZM-35.483 46.242C-35.74 46.242-35.997 46.479-35.997 46.716-35.997 47.428-35.74 48.376-35.74 49.088-35.74 49.325-35.483 49.562-34.969 49.562-34.712 49.562-34.455 49.325-34.712 49.088-34.712 48.139-34.969 47.428-34.969 46.716-34.969 46.479-35.226 46.242-35.483 46.242M-34.712 50.985C-34.969 50.985-35.226 51.222-35.226 51.459-34.969 52.171-34.712 53.119-34.455 53.831-34.455 54.068-34.198 54.305-33.683 54.305-33.426 54.068-33.426 53.831-33.426 53.593-33.683 52.645-33.94 51.933-34.198 51.222-34.198 50.985-34.455 50.985-34.712 50.985" fill="#2c292a"/>
<path transform="matrix(1,0,0,-1,214.1391,287.6213)" d="M0 0C-.257 0-.515 0-.515 .238-.772 .475-1.029 .713-1.287 .951-1.544 1.188-1.287 1.664-1.287 1.664-1.029 1.901-.515 1.901-.257 1.664 0 1.426 .257 .951 .515 .713 .515 .475 .515 0 .257 0Z" fill="#2c292a"/>
<path transform="matrix(1,0,0,-1,229.2984,258.7063)" d="M0 0C-.257 0-.514 .237-.514 .475-.514 .712-.257 .949 0 .949 1.028 .949 1.799 .949 2.57 1.187 2.828 1.187 3.085 .949 3.342 .712 3.342 .475 3.085 .237 2.828 .237 1.799 0 1.028 0 0 0M-2.571 0H-4.627-5.141C-5.398 .237-5.655 .475-5.655 .712-5.655 .949-5.398 1.187-5.141 1.187H-4.37C-3.856 .949-3.085 .949-2.571 .949-2.314 .949-2.056 .712-2.056 .475-2.056 .237-2.314 0-2.571 0M-7.712 .475H-7.969C-8.74 .475-9.768 .712-10.539 .949-10.796 .949-11.053 1.187-10.796 1.424-10.796 1.898-10.539 1.898-10.282 1.898-9.511 1.661-8.483 1.661-7.712 1.424-7.455 1.424-7.197 1.187-7.197 .949-7.197 .475-7.455 .475-7.712 .475M5.141 .712C4.884 .712 4.884 .712 4.627 .949 4.627 1.187 4.884 1.661 5.141 1.661 5.912 1.898 6.683 2.136 7.455 2.61 7.712 2.61 7.969 2.61 8.226 2.373 8.226 2.136 8.226 1.898 7.969 1.661 7.197 1.187 6.169 .949 5.398 .712ZM-12.853 1.661H-13.11C-13.881 2.136-14.652 2.61-15.423 3.085-15.68 3.085-15.68 3.56-15.423 3.797-15.423 4.034-14.909 4.034-14.652 3.797-14.138 3.322-13.367 3.085-12.596 2.61-12.339 2.61-12.082 2.136-12.339 1.898-12.339 1.898-12.596 1.661-12.853 1.661M9.768 3.085H9.254C8.997 3.322 9.254 3.797 9.254 3.797 10.025 4.509 10.539 4.983 11.053 5.695 11.31 5.933 11.567 5.933 11.824 5.695 12.081 5.695 12.081 5.221 11.824 4.983 11.31 4.271 10.796 3.797 10.025 3.085ZM-16.966 4.509-17.223 4.746C-17.994 5.458-18.251 6.17-18.765 6.882-19.022 7.119-18.765 7.594-18.508 7.594-18.251 7.831-17.994 7.594-17.737 7.357-17.48 6.645-16.966 5.933-16.451 5.458-16.194 5.221-16.194 4.983-16.451 4.746-16.708 4.509-16.708 4.509-16.966 4.509M12.853 6.882H12.596C12.339 7.119 12.081 7.357 12.339 7.594 12.596 8.306 12.853 9.018 13.11 9.729 13.367 9.967 13.624 10.204 13.881 10.204 14.138 9.967 14.395 9.729 14.395 9.492 14.138 8.78 13.624 7.831 13.367 7.119 13.11 6.882 13.11 6.882 12.853 6.882M-19.279 8.78C-19.536 8.78-19.793 9.018-19.793 9.255-20.05 9.967-20.307 10.679-20.564 11.628-20.564 11.865-20.564 12.103-20.307 12.103-19.793 12.34-19.536 12.103-19.536 11.865-19.279 10.916-19.022 10.204-18.765 9.492-18.765 9.255-18.765 9.018-19.022 8.78ZM14.395 11.391H14.138C13.881 11.628 13.624 11.865 13.881 12.103V13.289 14.476C14.138 14.713 14.138 14.95 14.652 14.95 14.909 14.95 15.166 14.713 15.166 14.476V13.289C14.909 12.814 14.909 12.34 14.909 11.865 14.909 11.628 14.652 11.391 14.395 11.391M-20.821 13.526C-21.078 13.526-21.335 13.764-21.335 13.764-21.593 14.713-21.85 15.425-22.107 16.137-22.107 16.374-22.107 16.611-21.593 16.849-21.335 16.849-21.078 16.849-21.078 16.611-20.821 15.899-20.564 15.188-20.307 14.238-20.05 13.764-20.307 13.526-20.564 13.526ZM14.395 16.374C14.138 16.374 13.881 16.611 13.881 16.849 13.881 17.561 13.881 18.272 13.624 19.222 13.624 19.459 13.881 19.696 14.138 19.696 14.395 19.696 14.652 19.696 14.909 19.222 14.909 18.51 14.909 17.561 15.166 16.849 15.166 16.611 14.909 16.374 14.652 16.374ZM-56.295 17.323H-56.809C-57.066 17.561-57.066 18.035-56.809 18.035-56.038 18.747-55.267 19.222-54.752 19.696-54.495 19.934-53.981 19.696-53.981 19.459-53.724 19.459-53.724 18.984-53.981 18.747-54.752 18.272-55.267 17.798-56.038 17.323ZM-22.621 18.035C-22.621 18.035-22.878 18.035-23.135 18.272-23.392 18.984-23.649 19.459-23.906 19.934-24.163 19.934-24.163 20.171-24.42 20.408-24.42 20.645-24.42 20.883-24.163 21.12-23.906 21.12-23.649 21.12-23.392 20.883-23.392 20.883-23.135 20.645-23.135 20.408-22.621 19.934-22.364 19.459-22.107 18.747-21.85 18.51-22.107 18.272-22.364 18.035ZM-52.182 20.171C-52.439 20.171-52.696 20.171-52.696 20.408-52.953 20.645-52.696 20.883-52.439 21.12-51.925 21.595-51.154 22.069-50.382 22.544-50.125 22.544-49.611 22.544-49.611 22.307-49.354 22.069-49.611 21.832-49.868 21.595-50.382 21.12-51.154 20.645-51.925 20.171ZM13.881 21.12C13.624 21.12 13.367 21.357 13.367 21.595 13.11 22.307 12.853 23.019 12.596 23.968 12.596 24.205 12.853 24.442 13.11 24.442 13.367 24.442 13.624 24.442 13.881 24.205 14.138 23.256 14.138 22.544 14.395 21.832 14.395 21.357 14.138 21.12 13.881 21.12M-25.705 21.832C-25.705 21.832-25.962 21.832-25.962 22.069-26.734 22.544-27.248 23.019-28.019 23.256-28.276 23.493-28.276 23.73-28.276 23.968-28.019 24.205-27.762 24.442-27.505 24.205-26.734 23.73-25.962 23.256-25.191 22.781-24.934 22.544-24.934 22.307-25.191 22.069-25.448 21.832-25.448 21.832-25.705 21.832M-47.812 22.781C-48.069 22.781-48.069 22.781-48.326 23.019-48.326 23.256-48.326 23.493-48.069 23.73-47.298 23.968-46.527 24.442-45.498 24.68-45.241 24.917-44.984 24.68-44.984 24.442-44.727 24.205-44.984 23.968-45.241 23.73-46.013 23.493-46.784 23.019-47.555 22.781ZM-30.075 24.442H-30.332C-31.104 24.68-31.875 24.917-32.646 25.154-33.16 25.154-33.16 25.392-33.16 25.629-33.16 25.866-32.903 26.103-32.389 26.103-31.618 25.866-30.846 25.629-29.818 25.392-29.561 25.154-29.561 24.917-29.561 24.68-29.561 24.442-29.818 24.442-30.075 24.442M-42.928 24.442C-43.185 24.442-43.442 24.68-43.442 24.917-43.699 25.154-43.442 25.392-43.185 25.629-42.157 25.866-41.386 26.103-40.615 26.103-40.1 26.103-39.843 26.103-39.843 25.629-39.843 25.392-40.1 25.154-40.357 25.154-41.129 24.917-41.9 24.917-42.671 24.68ZM-35.216 25.392H-37.787C-38.044 25.392-38.301 25.629-38.301 25.866-38.301 26.103-38.044 26.341-37.787 26.578-37.016 26.578-35.987 26.578-35.216 26.341-34.959 26.341-34.702 26.103-34.702 25.866-34.702 25.629-34.959 25.392-35.216 25.392" fill="#2c292a"/>
<path transform="matrix(1,0,0,-1,234.1702,259.155)" d="M0 0C0 9.967-8.741 18.035-19.538 18.035-30.592 18.035-39.333 9.967-39.333 0-39.333-3.322-38.305-6.17-36.762-8.78L-20.566-35.359C-20.309-35.834-20.052-35.834-19.538-35.834-19.281-35.834-19.024-35.834-18.767-35.359L-2.571-8.78C-1.028-6.17 0-3.322 0 0" fill="#f43040"/>
<path transform="matrix(1,0,0,-1,201.5097,259.1803)" d="M0 0C.019 6.702 5.828 12.119 12.994 12.119 20.16 12.119 25.969 6.702 25.969 .018 25.969-6.665 20.16-12.082 12.994-12.082 5.828-12.082 .019-6.665 0 0" fill="#f9a59a"/>
<path transform="matrix(1,0,0,-1,245.2375,233.31659)" d="M0 0C-.257 0-.257 .237-.514 .237-.771 .949-1.285 1.424-2.057 1.899-2.314 2.136-2.314 2.611-2.057 2.848-1.8 2.848-1.543 3.085-1.285 2.848-.514 2.136 0 1.661 .514 .949 .771 .712 .514 .237 .257 .237 .257 0 .257 0 0 0M-21.853 2.373C-22.367 2.373-22.367 2.611-22.624 2.848-22.624 3.085-22.367 3.323-22.11 3.323-21.081 3.56-20.31 3.56-19.539 3.797-19.024 3.797-18.767 3.56-18.767 3.323-18.767 3.085-19.024 2.611-19.282 2.611-20.31 2.611-21.081 2.373-21.853 2.373M-24.68 2.373C-25.195 2.373-25.966 2.611-26.737 2.611-26.994 2.611-26.994 2.848-27.251 2.848-27.508 2.848-27.765 3.085-27.765 3.56-27.508 3.797-27.251 3.797-26.994 3.797-26.737 3.797-26.48 3.797-26.48 3.56-25.709 3.56-25.195 3.56-24.423 3.323-24.166 3.323-23.909 3.085-23.909 2.848-23.909 2.611-24.166 2.373-24.68 2.373M-16.711 3.085C-16.968 3.085-17.225 3.323-17.225 3.56-17.482 3.797-17.225 4.035-16.968 4.035L-16.454 4.272C-15.682 4.272-14.911 4.509-14.397 4.509-13.883 4.746-13.626 4.509-13.626 4.272-13.626 3.797-13.883 3.56-14.14 3.56-14.654 3.56-15.425 3.323-16.197 3.085ZM-3.856 3.085H-4.113C-4.885 3.56-5.656 3.797-6.427 3.797-6.941 4.035-6.941 4.272-6.941 4.509-6.941 4.746-6.684 4.984-6.17 4.984-5.399 4.746-4.628 4.509-3.599 4.035-3.342 4.035-3.342 3.797-3.342 3.56-3.599 3.323-3.599 3.085-3.856 3.085M-29.565 3.797H-29.822C-30.593 4.035-31.365 4.509-32.136 5.221-32.393 5.221-32.393 5.696-32.136 5.933-31.879 6.17-31.622 6.17-31.365 5.933-30.593 5.459-30.079 4.984-29.308 4.746-29.051 4.509-28.794 4.272-29.051 4.035-29.051 3.797-29.308 3.797-29.565 3.797M-11.569 4.035C-11.826 4.035-12.083 4.035-12.083 4.272-12.083 4.746-12.083 4.984-11.569 4.984-10.798 4.984-10.026 5.221-8.998 5.221-8.741 5.221-8.484 4.984-8.484 4.509-8.484 4.272-8.741 4.035-8.998 4.035ZM-33.678 6.645C-33.678 6.645-33.936 6.645-33.936 6.882-34.707 7.357-35.221 8.069-35.735 8.781-35.992 9.018-35.735 9.256-35.478 9.493-35.221 9.73-34.964 9.73-34.707 9.493-34.193 8.781-33.678 8.069-33.164 7.594-32.907 7.357-33.164 7.12-33.164 6.882-33.421 6.645-33.421 6.645-33.678 6.645M-36.506 10.68C-36.764 10.68-37.021 10.68-37.021 10.917-37.535 11.629-37.792 12.341-38.049 13.053V13.29C-38.306 13.528-38.049 13.765-37.792 14.002-37.535 14.002-37.021 13.765-37.021 13.528V13.29C-36.764 12.578-36.506 12.104-35.992 11.392-35.992 11.154-35.992 10.917-36.249 10.68ZM-38.306 15.189C-38.563 15.189-38.82 15.426-38.82 15.664-39.077 16.375-39.077 17.325-39.334 18.037-39.334 18.274-39.077 18.511-38.82 18.511-38.563 18.749-38.306 18.511-38.306 18.274-38.049 17.325-38.049 16.613-37.792 15.901-37.792 15.664-37.792 15.189-38.049 15.189ZM-39.077 19.935C-39.334 19.935-39.591 20.173-39.591 20.41-39.591 21.359-39.591 22.071-39.849 23.021-39.849 23.258-39.591 23.495-39.077 23.495-38.82 23.495-38.563 23.258-38.563 23.021V20.647C-38.563 20.173-38.82 19.935-39.077 19.935M-39.077 24.919C-39.591 24.919-39.849 25.156-39.849 25.394-39.849 26.106-39.591 26.818-39.591 27.767-39.591 28.004-39.334 28.242-39.077 28.242-38.82 28.242-38.563 28.004-38.563 27.767V25.394C-38.563 25.156-38.82 24.919-39.077 24.919" fill="#2c292a"/>
<path transform="matrix(1,0,0,-1,253.2148,224.29831)" d="M0 0C0 4.739-4.375 8.766-9.522 8.766-14.669 8.766-18.787 4.739-18.787 0-18.787-1.422-18.273-2.843-17.5-4.028L-9.78-16.822-9.522-17.059C-9.265-17.059-9.008-16.822-9.008-16.822L-1.287-4.028C-.515-2.843 0-1.422 0 0" fill="#f9a59a"/>
<path transform="matrix(1,0,0,-1,237.545,224.3028)" d="M0 0C-.029 3.137 2.736 5.681 6.147 5.681 9.559 5.681 12.324 3.137 12.324-.003 12.324-3.142 9.559-5.686 6.147-5.686 2.736-5.686-.029-3.142 0 0" fill="#f43040"/>
<path transform="matrix(1,0,0,-1,212.8523,198.92209)" d="M0 0C0 3.557-3.088 6.166-6.691 6.166-10.552 6.166-13.64 3.557-13.64 0-13.64-1.186-13.125-2.134-12.611-3.083L-6.949-12.332H-6.691-6.434L-.772-3.083C-.257-2.134 0-1.186 0 0" fill="#f9a59a"/>
<path transform="matrix(1,0,0,-1,201.5097,198.8305)" d="M0 0C.019 2.267 2.035 4.173 4.523 4.173 7.01 4.173 9.026 2.267 9.026-.085 9.026-2.437 7.01-4.343 4.523-4.343 2.035-4.343 .019-2.437 0 0" fill="#f43040"/>
<path transform="matrix(1,0,0,-1,184.5857,223.34799)" d="M0 0C0 7.115-6.177 12.807-13.897 12.807-21.361 12.807-27.795 7.115-27.795 0-27.795-2.134-27.023-4.269-25.993-6.166L-14.412-24.902C-14.155-25.14-14.155-25.377-13.897-25.377-13.64-25.377-13.383-25.14-13.125-24.902L-1.544-6.166C-.515-4.269 0-2.134 0 0" fill="#f9a59a"/>
<path transform="matrix(1,0,0,-1,161.3616,223.32309)" d="M0 0C.062 4.683 4.21 8.504 9.327 8.504 14.444 8.504 18.592 4.683 18.592-.032 18.592-4.746 14.444-8.568 9.327-8.568 4.21-8.568 .062-4.746 0 0" fill="#f43040"/>
<path transform="matrix(1,0,0,-1,232.756,288.3101)" d="M0 0V-5.284C0-5.735 .015-6.427 .045-7.361H-.948V-6.548H-6.815V-7.316H-7.763C-7.734-6.503-7.718-5.856-7.718-5.374V0C-7.718 .993-7.734 1.821-7.763 2.484H.045C.015 1.61 0 .782 0 0M-.948 1.761H-6.816V-.22599995H-.948ZM-.948-.948H-6.816V-2.98H-.948ZM-.948-3.703H-6.816V-5.825H-.948ZM-.948-5.825" fill="#2c292a"/>
<path transform="matrix(1,0,0,-1,236.8958,286.7296)" d="M0 0C0 .481-.015 .948-.045 1.4H.858C.827 .978 .812 .512 .812 0V-1.084C1.294-1.084 1.805-1.069 2.347-1.039V-1.897C1.805-1.867 1.294-1.851 .812-1.851V-3.387C1.023-3.237 1.233-3.071 1.444-2.89 1.835-3.522 2.181-4.14 2.483-4.742 2.151-4.893 1.865-5.058 1.625-5.238 1.444-4.637 1.174-4.08 .812-3.568V-7.09C.812-7.722 .827-8.354 .858-8.986H-.045C-.015-8.324 0-7.692 0-7.09V-4.155C-.301-4.998-.767-5.811-1.399-6.593-1.58-6.353-1.805-6.127-2.076-5.916-1.565-5.404-1.151-4.764-.835-3.996-.519-3.229-.316-2.514-.226-1.851-.798-1.851-1.294-1.882-1.715-1.942V-1.039C-1.144-1.069-.572-1.084 0-1.084ZM3.521-6.187C3.189-6.97 2.934-7.527 2.753-7.858 2.483-7.707 2.181-7.572 1.851-7.451 2.241-6.849 2.535-6.3 2.731-5.803 2.926-5.306 3.084-4.817 3.205-4.335 3.535-4.486 3.866-4.622 4.198-4.742 4.077-4.922 3.851-5.404 3.521-6.187M7.041-2.303C7.643-2.303 8.17-2.288 8.621-2.258V-3.116C8.17-3.086 7.703-3.071 7.222-3.071H5.823V-7.632C5.823-8.113 5.687-8.429 5.416-8.58 5.146-8.73 4.664-8.851 3.972-8.941 3.911-8.58 3.791-8.234 3.611-7.903 4.213-7.903 4.588-7.88 4.739-7.835 4.89-7.79 4.965-7.617 4.965-7.316V-3.071H3.837C3.084-3.071 2.542-3.101 2.212-3.161V-2.258C2.602-2.288 3.144-2.303 3.837-2.303ZM6.545 .677C7.177 .677 7.688 .692 8.079 .723V-.181C7.507-.121 6.906-.09 6.274-.09H4.062C3.581-.09 3.114-.121 2.663-.181V.723C3.084 .692 3.55 .677 4.062 .677ZM8.892-7.045C8.56-7.196 8.23-7.376 7.899-7.587 7.567-6.714 7.071-5.796 6.409-4.832 6.71-4.682 6.981-4.501 7.222-4.29 7.883-5.314 8.44-6.232 8.892-7.045" fill="#2c292a"/>
</g>
</g>
</g>
</svg>
