<svg xmlns="http://www.w3.org/2000/svg" xmlns:xlink="http://www.w3.org/1999/xlink" xmlns:inkscape="http://www.inkscape.org/namespaces/inkscape" version="1.1" width="411.024" height="595.276" viewBox="0 0 411.024 595.276">
<defs>
<clipPath id="clip_1">
<path transform="matrix(1,0,0,-1,0,595.276)" d="M0 0H411.024V595.276H0Z"/>
</clipPath>
<clipPath id="clip_2">
<path transform="matrix(1,0,0,-1,0,595.276)" d="M0 0H411.024V595.276H0Z"/>
</clipPath>
<path id="font_3_4" d="M.46099855 0V.06399536H.15499878L.4039917 .38186646C.44299317 .43185426 .46099855 .46884156 .46099855 .5258179 .46099855 .6427765 .38198854 .71777346 .2649994 .71777346 .1459961 .71777346 .068984989 .6367645 .068984989 .5248108H.14099121C.14099121 .6167755 .19898987 .6537628 .2649994 .6537628 .34298707 .6537628 .3889923 .6027832 .3889923 .5258179 .3889923 .48683167 .37599183 .45584107 .34899903 .42085267L.067993167 .06399536V0H.46099855Z"/>
<path id="font_3_8" d="M.45999146 .20516968C.45999146 .32221986 .38598634 .40722657 .2749939 .40722657 .24699402 .40722657 .22200012 .40222169 .19999695 .3922119L.35899354 .71191409H.2849884L.10998535 .3592224C.07998657 .2992096 .06498718 .25019837 .06498718 .19917298 .06498718 .07614136 .14199829-.005859375 .2630005-.005859375 .38398744-.005859375 .45999146 .08413696 .45999146 .20516968M.3880005 .20217896C.3880005 .11514282 .33799745 .058135988 .2619934 .058135988 .18598938 .058135988 .13699341 .11514282 .13699341 .20217896 .13699341 .2902069 .18598938 .34622193 .2619934 .34622193 .34399415 .34622193 .3880005 .28120423 .3880005 .20217896Z"/>
<path id="font_3_3" d="M.32998658 0V.71191409H.2579956L.125 .5969238V.51493838L.2579956 .63191226V0H.32998658Z"/>
<clipPath id="clip_4">
<path transform="matrix(1,0,0,-1,0,595.276)" d="M0 0H411.024V595.276H0Z"/>
</clipPath>
<clipPath id="clip_5">
<path transform="matrix(1,0,0,-1,0,595.276)" d="M0 0H411.024V595.276H0Z"/>
</clipPath>
<clipPath id="clip_6">
<path transform="matrix(1,0,0,-1,0,595.276)" d="M0 0H411.024V595.276H0Z"/>
</clipPath>
<clipPath id="clip_7">
<path transform="matrix(1,0,0,-1,0,595.276)" d="M0 0H411.024V595.276H0Z"/>
</clipPath>
<clipPath id="clip_8">
<path transform="matrix(1,0,0,-1,0,595.276)" d="M0 0H411.024V595.276H0Z"/>
</clipPath>
</defs>
<g clip-path="url(#clip_1)">
<g clip-path="url(#clip_2)">
<use data-text="2" xlink:href="#font_3_4" transform="matrix(9,0,0,-9,363.685,567.547)" fill="#f43040"/>
<use data-text="6" xlink:href="#font_3_8" transform="matrix(9,0,0,-9,367.285,567.547)" fill="#f43040"/>
<use data-text="1" xlink:href="#font_3_3" transform="matrix(9,0,0,-9,370.885,567.547)" fill="#f43040"/>
<g clip-path="url(#clip_4)">
<path transform="matrix(1,0,0,-1,121.6041,271.3336)" stroke-width="1.5" stroke-linecap="butt" stroke-dasharray="4.397,2.897" stroke-miterlimit="10" stroke-linejoin="miter" fill="none" stroke="#2c292a" d="M0 0C2.5 42.656 36.916 76.639 79.658 78.476"/>
<path transform="matrix(1,0,0,-1,210.3191,192.9516)" stroke-width="1.5" stroke-linecap="butt" stroke-dasharray="4.61,3.11" stroke-miterlimit="10" stroke-linejoin="miter" fill="none" stroke="#2c292a" d="M0 0C42.328-2.708 76.079-36.966 78.012-79.521"/>
<path transform="matrix(1,0,0,-1,288.2465,281.74153)" stroke-width="1.5" stroke-linecap="butt" stroke-dasharray="4.61,3.11" stroke-miterlimit="10" stroke-linejoin="miter" fill="none" stroke="#2c292a" d="M0 0C-2.706-42.349-36.946-76.118-79.48-78.053"/>
<path transform="matrix(1,0,0,-1,199.5021,359.71009)" stroke-width="1.5" stroke-linecap="butt" stroke-dasharray="4.607,3.107" stroke-miterlimit="10" stroke-linejoin="miter" fill="none" stroke="#2c292a" d="M0 0C-42.328 2.706-76.079 36.959-77.961 79.429"/>
<path transform="matrix(1,0,0,-1,121.4586,276.4262)" stroke-width="1.5" stroke-linecap="butt" stroke-miterlimit="10" stroke-linejoin="miter" fill="none" stroke="#2c292a" d="M0 0C-.001 .735 .008 1.468 .025 2.198M81.251 83.619C81.982 83.638 82.715 83.647 83.45 83.647 84.22 83.647 84.989 83.637 85.754 83.616M166.929 2.4C166.95 1.634 166.96 .866 166.96 .095 166.96-.675 166.95-1.443 166.929-2.209M85.754-83.425C84.989-83.446 84.22-83.456 83.45-83.456 82.68-83.456 81.912-83.446 81.147-83.425M.028-2.303C.008-1.538-.001-.77 0 0"/>
</g>
<path transform="matrix(1,0,0,-1,0,595.276)" d="M206.041 245.178H204.983V391.912H206.041Z" fill="#2c292a"/>
<path transform="matrix(1,0,0,-1,0,595.276)" d="M309.018 315.798H102.00601V316.85603H309.018Z" fill="#2c292a"/>
<path transform="matrix(1,0,0,-1,0,595.276)" d="M187.481 408.444H223.574V389.407H187.481Z" fill="#ffffff"/>
<g clip-path="url(#clip_5)">
<path transform="matrix(1,0,0,-1,197.35,194.60352)" d="M0 0H5.267C5.946 0 6.588 .019 7.192 .057V-.907C6.588-.869 5.946-.85 5.267-.85H3.908C3.492-1.568 3.058-2.191 2.605-2.72 4.228-3.211 5.663-3.683 6.909-4.136 6.569-4.4 6.323-4.759 6.173-5.213 5.342-4.721 3.869-4.136 1.756-3.456 .849-4.023-.218-4.438-1.444-4.703-2.671-4.967-3.662-5.156-4.417-5.269-4.455-4.929-4.7-4.57-5.153-4.193-3.644-4.041-2.417-3.871-1.472-3.683-.529-3.494 .188-3.268 .68-3.003 .113-2.852-.406-2.72-.878-2.606-1.35-2.493-1.945-2.361-2.662-2.21-2.209-1.643-1.85-1.19-1.586-.85H-3.454C-4.134-.85-4.87-.869-5.663-.907V.057C-4.87 .019-4.116 0-3.398 0H-1.189C-.926 .567-.718 1.077-.566 1.53-.076 1.303 .396 1.152 .849 1.077 .51 .774 .226 .415 0 0M3.964 6.714C3.171 6.657 2.379 6.591 1.586 6.516V5.099H4.757C5.663 5.099 6.361 5.118 6.852 5.156V4.193C6.361 4.23 5.663 4.249 4.757 4.249H2.888C3.416 3.607 4.115 3.078 4.983 2.663 5.852 2.247 6.72 2.002 7.589 1.926 7.173 1.7 6.89 1.36 6.739 .907 5.53 1.208 4.539 1.624 3.766 2.153 2.992 2.682 2.284 3.361 1.642 4.193H1.586C1.586 3.022 1.604 2.172 1.642 1.643H.453C.49 2.172 .51 2.965 .51 4.023-.359 3.116-1.227 2.436-2.095 1.983-2.964 1.53-3.814 1.17-4.644 .907-4.757 1.246-5.04 1.567-5.493 1.87-4.285 2.134-3.304 2.455-2.548 2.833-1.794 3.21-1.152 3.683-.623 4.249H-3.001C-3.681 4.249-4.38 4.23-5.097 4.193V5.156C-4.342 5.118-3.644 5.099-3.001 5.099H.51V6.459C-.208 6.421-.916 6.393-1.614 6.374-2.313 6.355-3.078 6.308-3.908 6.232-3.946 6.534-4.077 6.874-4.304 7.252-2.341 7.252-.566 7.309 1.019 7.422 2.605 7.536 4.001 7.724 5.21 7.989 5.587 7.422 5.89 7.026 6.116 6.799 5.474 6.799 4.757 6.771 3.964 6.714M1.586-2.323C2.152-1.833 2.529-1.341 2.718-.85H-.396C-.548-1.001-.756-1.323-1.019-1.813 .15-2.04 1.019-2.21 1.586-2.323" fill="#2c292a"/>
<path transform="matrix(1,0,0,-1,207.4305,195.42499)" d="M0 0C.226 1.34 .34 2.748 .34 4.221 .34 5.694 .32 7.073 .283 8.357H10.816C10.778 7.791 10.76 7.243 10.76 6.714 10.76 6.185 10.778 5.638 10.816 5.071H1.416C1.416 3.975 1.387 2.89 1.331 1.813 1.274 .737 1.141-.283 .934-1.246 .726-2.21 .396-3.145-.057-4.051-.397-3.748-.793-3.522-1.246-3.371-.642-2.465-.227-1.341 0 0M9.627 7.394H1.4720001V5.978H9.627ZM11.156-.255C11.118-.746 11.1-1.426 11.1-2.295 11.1-3.163 11.118-3.824 11.156-4.278H10.024V-3.598L2.322-3.881C2.359-3.276 2.378-2.691 2.378-2.125 2.378-1.521 2.359-.935 2.322-.368H3.511C3.473-.973 3.454-1.841 3.454-2.975L6.116-2.861V.765H2.775C2.812 1.218 2.831 1.69 2.831 2.181 2.831 2.71 2.812 3.238 2.775 3.768H3.907C3.869 3.238 3.851 2.559 3.851 1.728H6.116C6.116 3.238 6.096 4.24 6.059 4.731H7.305C7.267 4.24 7.249 3.238 7.249 1.728H9.401C9.401 2.672 9.381 3.352 9.344 3.768H10.533C10.495 3.125 10.477 2.635 10.477 2.295 10.477 1.955 10.495 1.445 10.533 .765H7.249V-2.805L10.024-2.691C10.024-1.483 10.004-.671 9.967-.255Z" fill="#2c292a"/>
</g>
<path transform="matrix(1,0,0,-1,0,595.276)" d="M189.293 248.742H221.762V229.705H189.293Z" fill="#ffffff"/>
<g clip-path="url(#clip_6)">
<path transform="matrix(1,0,0,-1,197.5765,354.09883)" d="M0 0H5.663C5.625-.869 5.607-1.663 5.607-2.38V-8.725C5.607-9.405 5.625-10.085 5.663-10.765H4.531V-9.405H-3.058V-10.765H-4.191C-4.154-10.047-4.134-9.387-4.134-8.782V-2.323C-4.134-1.643-4.154-.869-4.191 0H-1.076C-.926 1.02-.831 1.775-.793 2.266-.34 2.115 .15 2.002 .68 1.926 .453 1.586 .227 .944 0 0M4.531-.963H-3.058V-2.833H4.531ZM4.531-3.74H-3.058V-5.553H4.531ZM4.531-6.459H-3.058V-8.499001H4.531ZM4.531-8.499" fill="#2c292a"/>
<path transform="matrix(1,0,0,-1,209.2426,354.6654)" d="M0 0V-7.762C0-8.895 .018-9.783 .056-10.425H-1.19C-1.076-9.745-1.02-8.839-1.02-7.706V-1.983C-1.473-2.89-1.907-3.646-2.322-4.249-2.548-3.872-2.832-3.57-3.171-3.343-2.757-2.89-2.247-2.088-1.643-.935-1.039 .217-.586 1.435-.283 2.72 .132 2.568 .585 2.417 1.076 2.266 .849 2.04 .49 1.284 0 0M10.024-.17C9.268-.133 7.777-.113 5.55-.113 3.322-.113 1.812-.133 1.019-.17V.793H10.024ZM9.174-2.21C8.532-2.173 7.362-2.153 5.663-2.153 3.964-2.153 2.699-2.173 1.869-2.21V-1.246C2.585-1.285 3.813-1.303 5.55-1.303 7.324-1.303 8.532-1.285 9.174-1.246ZM9.174-4.193C8.645-4.156 7.494-4.136 5.72-4.136 3.983-4.136 2.699-4.156 1.869-4.193V-3.23C2.661-3.268 3.945-3.286 5.72-3.286 7.532-3.286 8.683-3.268 9.174-3.23ZM9.004-7.706C9.004-8.725 9.023-9.499 9.061-10.029H7.985V-9.065H3.114V-10.255H1.982C2.019-9.689 2.039-8.895 2.039-7.876 2.039-6.819 2.019-6.006 1.982-5.439H9.061C9.023-5.893 9.004-6.649 9.004-7.706M7.985-6.233H3.1150003V-8.158999H7.985ZM5.72 2.04C5.833 1.775 5.946 1.492 6.059 1.19 5.72 1.077 5.38 .982 5.04 .907 4.776 1.7 4.549 2.19 4.36 2.38 4.738 2.53 5.077 2.663 5.38 2.776 5.493 2.55 5.606 2.304 5.72 2.04" fill="#2c292a"/>
<path transform="matrix(1,0,0,-1,167.7049,274.1619)" d="M0 0C-.028 20.949 16.911 37.896 37.807 37.896 58.702 37.896 75.641 20.949 75.641 .043 75.641-20.862 58.702-37.81 37.807-37.81 16.911-37.81-.028-20.862 0 0" fill="#ffffff"/>
<path transform="matrix(1,0,0,-1,167.8561,270.6989)" stroke-width="1" stroke-linecap="butt" stroke-dasharray="2.978,1.978" stroke-miterlimit="10" stroke-linejoin="miter" fill="none" stroke="#f43040" d="M0 0C1.649 18.507 16.584 33.151 35.179 34.353"/>
<path transform="matrix(1,0,0,-1,208.9729,236.4219)" stroke-width="1" stroke-linecap="butt" stroke-dasharray="2.977,1.977" stroke-miterlimit="10" stroke-linejoin="miter" fill="none" stroke="#f43040" d="M0 0C18.461-1.675 33.093-16.618 34.294-35.221"/>
<path transform="matrix(1,0,0,-1,243.1902,277.5798)" stroke-width="1" stroke-linecap="butt" stroke-dasharray="2.977,1.977" stroke-miterlimit="10" stroke-linejoin="miter" fill="none" stroke="#f43040" d="M0 0C-1.673-18.471-16.609-33.111-35.203-34.312"/>
<path transform="matrix(1,0,0,-1,202.0537,311.8158)" stroke-width="1" stroke-linecap="butt" stroke-dasharray="2.975,1.975" stroke-miterlimit="10" stroke-linejoin="miter" fill="none" stroke="#f43040" d="M0 0C-18.461 1.673-33.093 16.614-34.272 35.18"/>
<path transform="matrix(1,0,0,-1,167.7049,274.1619)" stroke-width="1" stroke-linecap="butt" stroke-miterlimit="10" stroke-linejoin="miter" fill="none" stroke="#f43040" d="M0 0C-.001 .499 .008 .995 .027 1.489M36.318 37.868C36.812 37.887 37.308 37.896 37.807 37.896 38.305 37.896 38.801 37.887 39.295 37.868M75.613 1.531C75.632 1.038 75.641 .542 75.641 .043 75.641-.455 75.632-.951 75.613-1.445M39.295-37.781C38.801-37.8 38.305-37.81 37.807-37.81 37.309-37.81 36.813-37.8 36.32-37.781M.027-1.487C.008-.994-.001-.498 0 0"/>
<path transform="matrix(1,0,0,-1,181.9369,268.0443)" d="M0 0C.68 0 1.302 .014 1.869 .042V-.807C1.302-.78 .68-.765 0-.765H-1.741V-7.479H1.019C1.67-7.479 2.265-7.465 2.803-7.436V-8.286C2.265-8.258 1.684-8.244 1.062-8.244H-5.522C-6.145-8.244-6.683-8.258-7.135-8.286V-7.436C-6.654-7.465-6.102-7.479-5.479-7.479H-2.676V-.765H-4.375C-5.111-.765-5.748-.78-6.286-.807V.042C-5.748 .014-5.111 0-4.375 0Z" fill="#2c292a"/>
<path transform="matrix(1,0,0,-1,188.1805,269.4042)" d="M0 0V-5.439C0-6.346 .014-7.068 .043-7.606H-.934C-.907-7.097-.892-6.389-.892-5.482V-1.487C-1.289-2.139-1.671-2.692-2.039-3.145-2.266-2.805-2.463-2.564-2.633-2.422-2.266-2.026-1.82-1.367-1.295-.446-.772 .474-.382 1.416-.127 2.38 .184 2.181 .552 1.997 .977 1.827 .722 1.629 .396 1.02 0 0M3.016 .382H5.819C6.441 .382 6.937 .396 7.305 .425V-.34C6.937-.312 6.441-.297 5.819-.297H3.865V-1.955H5.607C6.088-1.955 6.484-1.941 6.796-1.912V-2.72C6.427-2.692 6.031-2.677 5.607-2.677H3.865V-4.589H5.691C6.258-4.589 6.725-4.575 7.093-4.547V-5.354C6.725-5.326 6.271-5.312 5.734-5.312H3.865V-6.119C3.865-6.912 3.879-7.45 3.908-7.734H3.016C3.044-7.422 3.058-6.997 3.058-6.459V-.297H2.633C2.209-1.034 1.798-1.672 1.402-2.21 1.09-1.927 .821-1.742 .595-1.657 .991-1.261 1.402-.695 1.826 .043 2.251 .779 2.591 1.572 2.846 2.422 3.27 2.224 3.638 2.082 3.95 1.997 3.667 1.77 3.355 1.232 3.016 .382" fill="#2c292a"/>
<path transform="matrix(1,0,0,-1,200.8801,270.2965)" d="M0 0C-.934-.057-1.714-.114-2.336-.17-2.959-.227-3.426-.297-3.738-.382-3.823-.043-3.922 .255-4.035 .51-3.837 .595-3.533 .899-3.122 1.424-2.712 1.947-2.379 2.507-2.124 3.102-1.982 2.989-1.826 2.904-1.656 2.847-1.487 2.79-1.303 2.72-1.104 2.635-1.331 2.465-1.565 2.21-1.805 1.87-2.046 1.53-2.436 1.048-2.973 .425-1.784 .481-.907 .524-.34 .552-.68 1.005-.921 1.303-1.062 1.445-.864 1.558-.637 1.714-.382 1.912-.156 1.6 .064 1.317 .276 1.062 .488 .807 .765 .481 1.104 .085 .792-.142 .538-.326 .34-.467 .255-.326 .141-.17 0 0M-.51-5.8C-.453-5.701-.425-5.553-.425-5.354V-4.759H-2.718V-6.757H-3.525C-3.497-6.19-3.483-5.68-3.483-5.227V-2.38C-3.483-1.87-3.497-1.417-3.525-1.02H.382C.354-1.445 .34-1.912 .34-2.422V-5.992C.311-6.303 .184-6.502-.043-6.587-.269-6.672-.595-6.742-1.019-6.799-1.076-6.544-1.189-6.261-1.359-5.949-.849-5.949-.567-5.899-.51-5.8M-.425-1.7H-2.7189999V-2.507H-.425ZM-.425-3.187H-2.7189999V-4.079H-.425ZM2.166 1.275C2.562 1.445 2.945 1.621 3.313 1.806 3.681 1.99 4.049 2.224 4.417 2.507 4.643 2.224 4.842 1.983 5.012 1.785 4.842 1.728 4.481 1.565 3.929 1.296 3.377 1.027 2.789 .793 2.166 .595V-.043C2.166-.382 2.364-.552 2.761-.552H3.992C4.275-.552 4.46-.185 4.545 .552 4.827 .41 5.111 .283 5.394 .17 5.196-.737 4.842-1.19 4.332-1.19H2.421C1.741-1.19 1.402-.878 1.402-.255V1.912C1.402 2.252 1.387 2.62 1.359 3.017H2.209C2.18 2.819 2.166 2.408 2.166 1.785ZM4.056-3.357C3.504-3.612 2.874-3.853 2.166-4.079V-5.269C2.166-5.609 2.321-5.779 2.633-5.779H4.162C4.389-5.722 4.545-5.369 4.63-4.717 4.856-4.83 5.139-4.944 5.479-5.057 5.281-5.963 4.955-6.417 4.502-6.417H2.209C1.67-6.417 1.402-6.147 1.402-5.609V-2.847C1.402-2.422 1.387-2.04 1.359-1.7H2.209C2.18-2.04 2.166-2.408 2.166-2.805V-3.357C2.449-3.272 2.824-3.117 3.292-2.89 3.759-2.663 4.134-2.422 4.417-2.167 4.672-2.507 4.885-2.762 5.054-2.932 4.941-2.961 4.608-3.102 4.056-3.357" fill="#2c292a"/>
<path transform="matrix(1,0,0,-1,212.5176,270.424)" d="M0 0C-.085-.992-.212-1.785-.382-2.38-.552-2.975-.786-3.52-1.083-4.016-1.38-4.512-1.77-4.979-2.251-5.418-2.733-5.857-3.313-6.289-3.992-6.714-4.134-6.487-4.417-6.247-4.842-5.992-4.162-5.652-3.596-5.298-3.143-4.929-2.69-4.562-2.301-4.143-1.975-3.676-1.65-3.208-1.409-2.677-1.253-2.082-1.098-1.487-.991-.793-.934 0H-2.166C-2.988 0-3.738-.015-4.417-.043V.807C-3.738 .779-2.988 .765-2.166 .765H-.892V2.04C-.892 2.436-.907 2.847-.934 3.272-.623 3.215-.269 3.172 .128 3.145 .07 2.89 .035 2.521 .021 2.04 .007 1.558 0 1.133 0 .765H4.332C4.219-.765 4.148-1.821 4.12-2.401 4.091-2.982 4.035-3.69 3.95-4.526 3.865-5.362 3.632-5.878 3.249-6.077 2.867-6.275 2.209-6.417 1.274-6.502 1.246-6.162 1.104-5.793 .85-5.397 1.67-5.425 2.223-5.383 2.506-5.269 2.789-5.156 2.952-4.944 2.994-4.632 3.037-4.32 3.079-3.917 3.122-3.421 3.164-2.925 3.228-1.785 3.313 0Z" fill="#2c292a"/>
<path transform="matrix(1,0,0,-1,227.978,268.4268)" d="M0 0C-.51 .028-.949 .043-1.317 .043H-3.823C-4.021-.355-4.262-.793-4.545-1.275V-6.587C-4.545-7.154-4.531-7.79-4.502-8.499H-5.437C-5.409-7.819-5.394-7.182-5.394-6.587V-2.422C-6.272-3.641-7.461-4.759-8.962-5.779-9.189-5.439-9.401-5.199-9.599-5.057-9.033-4.802-8.282-4.257-7.348-3.421-6.413-2.586-5.55-1.431-4.757 .043H-7.56C-8.098 .043-8.665 .028-9.259 0V.85C-8.41 .821-7.759 .807-7.305 .807H-1.359C-.992 .807-.538 .821 0 .85ZM-3.78-2.507C-3.554-2.309-3.37-2.111-3.228-1.912-2.548-2.536-1.968-3.081-1.487-3.548-1.005-4.016-.552-4.477-.127-4.929-.411-5.156-.666-5.397-.892-5.652-1.43-4.972-2.393-3.924-3.78-2.507" fill="#2c292a"/>
<path transform="matrix(1,0,0,-1,230.2505,268.7242)" d="M0 0C.297 .538 .531 1.034 .701 1.487 1.068 1.289 1.394 1.119 1.678 .977 1.309 .609 1.026 .226 .828-.17 1.423-.17 1.946-.156 2.4-.128V-.892C1.89-.865 1.238-.85 .446-.85 .078-1.36-.291-1.842-.658-2.295-.828-2.068-1.013-1.842-1.211-1.615-.701-1.077-.297-.539 0 0M2.272-2.592C1.96-2.564 1.621-2.55 1.253-2.55V-3.782C1.79-3.782 2.272-3.768 2.697-3.74V-4.462C2.244-4.434 1.763-4.419 1.253-4.419V-6.502C1.706-6.134 2.074-5.779 2.357-5.439 2.47-5.751 2.584-6.02 2.697-6.247 2.385-6.502 2.045-6.778 1.678-7.075 1.309-7.373 .956-7.691 .616-8.031 .417-7.748 .234-7.507 .064-7.309 .319-7.054 .446-6.771 .446-6.459V-4.419C-.007-4.419-.418-4.434-.786-4.462V-3.74C-.39-3.768 .021-3.782 .446-3.782V-2.55C.248-2.55 .035-2.564-.191-2.592V-1.827C.092-1.856 .375-1.87 .658-1.87H1.55C1.776-1.87 2.017-1.856 2.272-1.827ZM4.099 1.36H4.948C4.92 .793 4.906 .325 4.906-.043H6.435C6.435 .439 6.42 .892 6.392 1.317H7.284C7.256 1.005 7.242 .552 7.242-.043 7.694-.043 8.091-.029 8.431 0V-.765C8.034-.737 7.638-.722 7.242-.722V-2.125C8.006-2.125 8.544-2.111 8.856-2.082V-2.805C8.516-2.777 8.063-2.762 7.497-2.762H3.929C3.73-2.762 3.362-2.777 2.824-2.805V-2.082C3.136-2.111 3.574-2.125 4.141-2.125V-.722C3.971-.722 3.603-.737 3.037-.765V0C3.546-.029 3.914-.043 4.141-.043 4.141 .58 4.126 1.048 4.099 1.36M7.921-5.949C7.921-7.026 7.935-7.776 7.964-8.201H7.157V-7.649H4.226V-8.329H3.419C3.447-7.507 3.462-6.7 3.462-5.907 3.462-5.085 3.447-4.377 3.419-3.782H7.964C7.935-4.122 7.921-4.844 7.921-5.949M7.157-4.419H4.226V-5.396H7.157ZM7.157-6.034H4.226V-7.0109999H7.157ZM6.435-.722H4.906V-2.124H6.435ZM6.435-2.125" fill="#2c292a"/>
<path transform="matrix(1,0,0,-1,188.0148,282.5018)" d="M0 0V-5.397C0-6.134 .014-6.869 .042-7.607H-.892C-.864-6.869-.849-6.148-.849-5.439V-1.317C-1.189-1.827-1.515-2.267-1.826-2.635-1.968-2.408-2.166-2.196-2.421-1.997-1.968-1.601-1.487-.956-.977-.064-.467 .829-.1 1.643 .127 2.38 .467 2.21 .792 2.068 1.104 1.955 .85 1.643 .481 .991 0 0M6.796 .892C5.748 .694 4.983 .552 4.502 .467V-2.21H6.244C6.668-2.21 7.078-2.196 7.475-2.167V-2.975C7.078-2.947 6.682-2.932 6.286-2.932H4.502V-6.077H5.819C6.215-6.077 6.64-6.063 7.093-6.034V-6.842C6.64-6.813 6.215-6.799 5.819-6.799H2.463C2.01-6.799 1.543-6.813 1.062-6.842V-6.034C1.543-6.063 2.01-6.077 2.463-6.077H3.653V-2.932H1.784C1.302-2.932 .892-2.947 .552-2.975V-2.167C.92-2.196 1.331-2.21 1.784-2.21H3.653V.34C2.548 .198 1.826 .113 1.487 .085 1.402 .396 1.274 .651 1.104 .85 1.699 .85 2.57 .941 3.716 1.126 4.863 1.31 5.734 1.515 6.329 1.742 6.526 1.317 6.682 1.034 6.796 .892" fill="#2c292a"/>
<path transform="matrix(1,0,0,-1,199.525,282.0769)" d="M0 0H-1.317C-1.798 0-2.223-.015-2.591-.042V.765C-2.223 .708-1.826 .68-1.402 .68H0V1.105C0 1.246-.015 1.459-.042 1.742H.934C.877 1.515 .849 1.275 .849 1.02V.68H3.016V1.147C3.016 1.317 2.987 1.515 2.931 1.742H3.908C3.879 1.487 3.865 1.246 3.865 1.02V.68H5.309C5.734 .68 6.13 .708 6.498 .765V-.042C6.13-.015 5.734 0 5.309 0H3.865V-.297C3.865-.552 3.879-.794 3.908-1.02H2.931C3.016-.765 3.044-.539 3.016-.34V0H.849V-.297C.849-.496 .863-.737 .892-1.02H-.042C-.015-.709 0-.454 0-.255ZM1.232-3.824C1.345-3.343 1.402-2.862 1.402-2.38 1.628-2.465 1.954-2.522 2.379-2.55 2.294-2.89 2.18-3.315 2.039-3.824H5.479C5.422-4.108 5.373-4.533 5.33-5.099 5.288-5.666 5.231-6.212 5.161-6.735 5.09-7.259 4.877-7.564 4.523-7.649 4.169-7.734 3.709-7.819 3.143-7.904 3.086-7.564 2.973-7.224 2.803-6.884 3.681-6.941 4.155-6.884 4.226-6.714 4.296-6.544 4.346-6.325 4.375-6.055 4.403-5.787 4.445-5.255 4.502-4.462H1.911C1.656-5.255 1.323-5.858 .913-6.268 .502-6.679 .106-7.012-.276-7.267-.658-7.521-1.218-7.804-1.954-8.116-2.152-7.776-2.365-7.507-2.591-7.309-1.911-7.139-1.338-6.927-.871-6.672-.403-6.417 0-6.105 .34-5.737 .68-5.369 .92-4.944 1.062-4.462H.127C-.496-4.462-.991-4.491-1.359-4.547V-3.782C-.991-3.811-.397-3.824 .425-3.824ZM6.498-1.487C6.47-1.714 6.456-2.04 6.456-2.465 6.456-2.862 6.47-3.173 6.498-3.4H5.607V-2.167H-1.444V-3.442H-2.378C-2.351-3.216-2.336-2.89-2.336-2.465-2.336-2.04-2.351-1.714-2.378-1.487Z" fill="#2c292a"/>
<path transform="matrix(1,0,0,-1,209.7611,282.5018)" d="M0 0V-5.397C0-6.134 .014-6.869 .042-7.607H-.892C-.864-6.869-.85-6.148-.85-5.439V-1.317C-1.189-1.827-1.515-2.267-1.826-2.635-1.968-2.408-2.166-2.196-2.421-1.997-1.968-1.601-1.487-.956-.977-.064-.467 .829-.1 1.643 .127 2.38 .467 2.21 .792 2.068 1.104 1.955 .849 1.643 .481 .991 0 0M6.796 .892C5.748 .694 4.983 .552 4.502 .467V-2.21H6.244C6.668-2.21 7.078-2.196 7.475-2.167V-2.975C7.078-2.947 6.682-2.932 6.286-2.932H4.502V-6.077H5.819C6.215-6.077 6.64-6.063 7.093-6.034V-6.842C6.64-6.813 6.215-6.799 5.819-6.799H2.463C2.01-6.799 1.543-6.813 1.062-6.842V-6.034C1.543-6.063 2.01-6.077 2.463-6.077H3.653V-2.932H1.784C1.302-2.932 .892-2.947 .552-2.975V-2.167C.92-2.196 1.331-2.21 1.784-2.21H3.653V.34C2.548 .198 1.826 .113 1.487 .085 1.402 .396 1.274 .651 1.104 .85 1.699 .85 2.57 .941 3.716 1.126 4.863 1.31 5.734 1.515 6.329 1.742 6.526 1.317 6.682 1.034 6.796 .892" fill="#2c292a"/>
<path transform="matrix(1,0,0,-1,219.0628,289.5134)" d="M0 0C-.283 .227-.51 .382-.68 .467-.255 1.034 .226 1.813 .764 2.805 .962 2.663 1.203 2.521 1.487 2.38 .948 1.558 .453 .765 0 0M2.039 8.286H4.12C3.921 6.757 3.659 5.715 3.334 5.163 3.008 4.611 2.584 4.186 2.06 3.888 1.536 3.591 .849 3.328 0 3.102-.113 3.3-.312 3.527-.595 3.782 0 3.895 .559 4.058 1.083 4.271 1.607 4.483 1.996 4.745 2.251 5.057 1.883 5.368 1.529 5.623 1.189 5.822 1.359 6.02 1.514 6.232 1.656 6.459 2.194 6.091 2.548 5.836 2.718 5.694 3.001 6.204 3.171 6.842 3.228 7.606H1.784C1.557 7.209 1.317 6.827 1.062 6.459 .807 6.091 .495 5.708 .127 5.312-.071 5.538-.312 5.694-.595 5.779-.142 6.147 .283 6.657 .68 7.309 1.076 7.96 1.373 8.64 1.572 9.349 1.798 9.235 2.095 9.122 2.463 9.009 2.35 8.839 2.209 8.598 2.039 8.286M2.931 1.445C2.931 1.048 2.937 .765 2.952 .595 2.966 .425 3.171 .34 3.568 .34H5.521C5.719 .34 5.897 .376 6.052 .446 6.208 .517 6.329 .807 6.413 1.317 6.611 1.147 6.895 .977 7.263 .807 7.121 .297 6.916-.028 6.647-.17 6.378-.311 6.088-.368 5.776-.34H3.058C2.491-.34 2.201-.155 2.187 .212 2.173 .58 2.166 .949 2.166 1.317 2.166 1.685 2.152 2.125 2.124 2.635H2.973C2.945 2.238 2.931 1.841 2.931 1.445M5.224 1.955C4.969 1.813 4.757 1.657 4.587 1.487 4.247 2.082 3.865 2.635 3.44 3.145 3.61 3.23 3.808 3.371 4.035 3.57 4.488 2.975 4.884 2.436 5.224 1.955M8.027 6.99C7.999 6.523 7.942 6.176 7.858 5.949 7.773 5.722 7.631 5.567 7.433 5.482 7.234 5.397 6.895 5.326 6.413 5.269 6.385 5.524 6.258 5.793 6.031 6.077 6.739 6.048 7.121 6.126 7.178 6.31 7.234 6.494 7.263 7.025 7.263 7.904H5.437V4.632C5.437 4.32 5.549 4.136 5.776 4.079H7.603C7.858 4.079 8.013 4.143 8.07 4.271 8.126 4.398 8.183 4.66 8.24 5.057 8.522 4.83 8.82 4.688 9.132 4.632 8.877 3.923 8.65 3.541 8.452 3.485 8.254 3.427 7.985 3.4 7.645 3.4H5.521C4.983 3.371 4.7 3.711 4.672 4.419V7.224C4.672 7.649 4.657 8.102 4.63 8.584H8.07C8.07 7.989 8.055 7.458 8.027 6.99M9.089 .85C8.806 .68 8.565 .495 8.367 .297 8.112 .665 7.56 1.345 6.711 2.337 6.909 2.479 7.107 2.649 7.305 2.847 8.041 1.997 8.636 1.331 9.089 .85" fill="#2c292a"/>
</g>
<path transform="matrix(1,0,0,-1,0,595.276)" d="M170.718 273.067H240.186V259.771H170.718Z" fill="#ffffff"/>
<g clip-path="url(#clip_7)">
<path transform="matrix(1,0,0,-1,178.2074,330.5274)" d="M0 0C-.327-.415-.806-.925-1.435-1.53-.705-1.454-.025-1.385 .604-1.322 1.233-1.259 1.925-1.177 2.681-1.077 2.127-.422 1.737-.007 1.51 .17 1.737 .27 1.976 .421 2.228 .623 2.53 .296 2.882-.101 3.285-.567 3.687-1.033 4.115-1.505 4.568-1.983 4.266-2.134 3.989-2.298 3.738-2.474 3.536-2.172 3.309-1.882 3.058-1.605 1.321-1.781 .069-1.939-.698-2.078-1.467-2.216-2.014-2.348-2.341-2.474-2.442-2.197-2.58-1.895-2.756-1.568-2.454-1.492-1.995-1.14-1.378-.51-.762 .119-.327 .761-.076 1.416H-1.926C-2.63 1.416-3.234 1.403-3.738 1.379V2.059C-3.209 2.033-2.605 2.021-1.926 2.021H.378V3.796H-.982C-1.611 3.796-2.165 3.783-2.643 3.758V4.438C-2.165 4.413-1.623 4.401-1.019 4.401H.378V5.156C.378 5.534 .365 5.898 .34 6.251H1.246C1.195 5.924 1.17 5.584 1.17 5.232V4.401H2.303C2.932 4.401 3.523 4.413 4.077 4.438V3.758C3.523 3.783 2.945 3.796 2.341 3.796H1.17V2.021H3.473C4.077 2.021 4.656 2.033 5.21 2.059V1.379C4.656 1.403 4.077 1.416 3.473 1.416H.189C.465 1.215 .704 1.039 .906 .888 .629 .711 .327 .415 0 0" fill="#2c292a"/>
<path transform="matrix(1,0,0,-1,188.2122,325.3337)" d="M0 0C0 .327-.013 .692-.038 1.095H.831C.78 .793 .755 .428 .755 0H3.058C3.41 0 3.788 .012 4.191 .038V-.68C3.788-.63 3.423-.604 3.096-.604H.755V-1.322H2.605C3.007-1.322 3.398-1.31 3.775-1.284V-1.964C3.423-1.939 3.033-1.926 2.605-1.926H.755V-2.757H3.436C3.889-2.757 4.316-2.745 4.719-2.72V-3.437C4.342-3.387 3.926-3.362 3.473-3.362H.189C.012-3.588-.264-3.904-.642-4.306V-6.497C-.189-6.245 .314-5.93 .868-5.553 .919-5.855 1.006-6.119 1.133-6.346 .654-6.572 .22-6.811-.17-7.063-.56-7.315-.856-7.529-1.057-7.706-1.259-7.454-1.435-7.227-1.586-7.026-1.41-6.899-1.334-6.61-1.359-6.157V-4.948C-1.661-5.2-1.976-5.433-2.303-5.647-2.63-5.861-2.97-6.069-3.322-6.27-3.473-6.044-3.662-5.83-3.889-5.628-3.285-5.377-2.687-5.037-2.095-4.608-1.504-4.18-1.057-3.765-.755-3.362H-2.53C-3.008-3.362-3.473-3.387-3.926-3.437V-2.72C-3.624-2.745-3.121-2.757-2.416-2.757H0V-1.926H-1.699C-2.127-1.926-2.479-1.939-2.756-1.964V-1.284C-2.354-1.31-2.001-1.322-1.699-1.322H0V-.604H-1.888C-2.366-.604-2.807-.63-3.209-.68V.076C-2.832 .025-2.328 0-1.699 0ZM1.812-5.175C2.315-4.772 2.768-4.294 3.171-3.739 3.398-3.966 3.662-4.18 3.964-4.382 3.738-4.457 3.486-4.615 3.209-4.854 2.932-5.093 2.63-5.364 2.303-5.666 2.554-5.918 2.932-6.113 3.436-6.251 3.939-6.39 4.404-6.472 4.833-6.497 4.606-6.774 4.467-7.076 4.417-7.403 3.134-7.101 2.196-6.636 1.605-6.006 1.013-5.377 .579-4.646 .302-3.815L.906-3.551C1.082-4.079 1.384-4.621 1.812-5.175" fill="#2c292a"/>
<path transform="matrix(1,0,0,-1,195.9518,328.73323)" d="M0 0V-2.191C.352-2.619 .818-2.934 1.397-3.135 1.976-3.337 2.869-3.437 4.077-3.437 5.31-3.437 6.204-3.374 6.758-3.248 6.582-3.651 6.494-3.966 6.494-4.193 5.437-4.218 4.549-4.218 3.832-4.193 3.115-4.167 2.517-4.111 2.039-4.023 1.56-3.934 1.189-3.827 .925-3.702 .661-3.575 .383-3.393 .094-3.154-.195-2.915-.46-2.921-.698-3.173-.938-3.424-1.196-3.727-1.472-4.079-1.649-3.903-1.863-3.714-2.114-3.513-1.762-3.211-1.309-2.808-.755-2.304V.491C-1.108 .491-1.51 .478-1.963 .453V1.171C-1.435 1.146-.768 1.133 .038 1.133 .012 .655 0 .277 0 0M.415 2.795C.189 2.619-.025 2.43-.226 2.229-.629 2.858-1.045 3.412-1.472 3.891-1.271 4.016-1.07 4.18-.868 4.382-.39 3.827 .038 3.299 .415 2.795M3.02 4.533C3.448 4.482 3.75 4.444 3.926 4.419 3.851 4.092 3.8 3.362 3.775 2.229 5.084 2.229 5.94 2.241 6.343 2.266V1.511C5.94 1.536 5.071 1.549 3.738 1.549 3.662 .692 3.429-.089 3.039-.793 2.649-1.499 2.051-2.166 1.246-2.795 1.145-2.594 .956-2.393 .68-2.191 1.334-1.738 1.856-1.215 2.246-.623 2.636-.032 2.882 .692 2.983 1.549 1.95 1.549 1.195 1.536 .717 1.511V2.266C1.195 2.241 1.976 2.229 3.058 2.229 3.058 3.336 3.045 4.104 3.02 4.533M6.418-2.153C6.166-2.304 5.927-2.493 5.701-2.72 5.323-2.141 4.644-1.297 3.662-.189 3.838-.063 4.027 .113 4.228 .34 5.361-.894 6.091-1.725 6.418-2.153" fill="#2c292a"/>
<path transform="matrix(1,0,0,-1,207.6888,331.1507)" d="M0 0-.34-.755C-.491-.655-.623-.567-.736-.491-.85-.415-.969-.315-1.095-.189-1.297-.391-1.51-.548-1.737-.661-1.963-.774-2.228-.831-2.53-.831-3.033-.831-3.468-.68-3.832-.378-4.197-.076-4.38 .39-4.38 1.02-4.38 1.422-4.273 1.756-4.059 2.021-3.845 2.285-3.587 2.531-3.285 2.757-3.411 3.034-3.511 3.311-3.587 3.588-3.662 3.865-3.7 4.117-3.7 4.344-3.7 4.797-3.568 5.149-3.304 5.401-3.039 5.653-2.718 5.779-2.341 5.779-2.014 5.779-1.737 5.672-1.51 5.458-1.284 5.244-1.17 4.935-1.17 4.533-1.17 4.054-1.303 3.67-1.567 3.381-1.831 3.091-2.127 2.845-2.454 2.644-2.278 2.342-2.095 2.059-1.907 1.794-1.718 1.53-1.498 1.259-1.246 .982-1.17 1.158-1.12 1.328-1.095 1.492-1.07 1.656-1.057 1.863-1.057 2.115H-.302C-.302 1.788-.334 1.492-.396 1.228-.46 .963-.554 .718-.68 .491-.604 .415-.497 .327-.359 .227-.221 .126-.101 .05 0 0M-1.624 .302C-1.951 .655-2.228 .982-2.454 1.284-2.681 1.586-2.869 1.889-3.02 2.191-3.222 2.04-3.367 1.87-3.455 1.681-3.543 1.492-3.587 1.259-3.587 .982-3.587 .604-3.473 .321-3.247 .132-3.02-.057-2.756-.151-2.454-.151-2.278-.151-2.127-.113-2.001-.038-1.875 .038-1.75 .151-1.624 .302M-1.888 4.533C-1.888 4.709-1.932 4.847-2.02 4.948-2.108 5.049-2.228 5.099-2.379 5.099-2.53 5.099-2.668 5.036-2.794 4.91-2.92 4.784-2.983 4.608-2.983 4.382-2.983 4.205-2.964 4.023-2.926 3.834-2.888 3.645-2.819 3.437-2.718 3.211-2.517 3.311-2.328 3.469-2.152 3.683-1.976 3.896-1.888 4.18-1.888 4.533" fill="#2c292a"/>
<path transform="matrix(1,0,0,-1,212.0316,330.5274)" d="M0 0C-.327-.415-.806-.925-1.435-1.53-.705-1.454-.025-1.385 .604-1.322 1.233-1.259 1.926-1.177 2.681-1.077 2.127-.422 1.737-.007 1.51 .17 1.737 .27 1.976 .421 2.228 .623 2.53 .296 2.882-.101 3.285-.567 3.687-1.033 4.115-1.505 4.568-1.983 4.266-2.134 3.989-2.298 3.738-2.474 3.536-2.172 3.309-1.882 3.058-1.605 1.321-1.781 .069-1.939-.698-2.078-1.466-2.216-2.014-2.348-2.341-2.474-2.442-2.197-2.58-1.895-2.756-1.568-2.454-1.492-1.995-1.14-1.378-.51-.762 .119-.327 .761-.075 1.416H-1.925C-2.63 1.416-3.234 1.403-3.738 1.379V2.059C-3.209 2.033-2.605 2.021-1.925 2.021H.378V3.796H-.982C-1.611 3.796-2.165 3.783-2.643 3.758V4.438C-2.165 4.413-1.623 4.401-1.019 4.401H.378V5.156C.378 5.534 .365 5.898 .34 6.251H1.246C1.195 5.924 1.17 5.584 1.17 5.232V4.401H2.303C2.932 4.401 3.524 4.413 4.078 4.438V3.758C3.524 3.783 2.945 3.796 2.341 3.796H1.17V2.021H3.473C4.078 2.021 4.656 2.033 5.21 2.059V1.379C4.656 1.403 4.078 1.416 3.473 1.416H.189C.466 1.215 .704 1.039 .906 .888 .629 .711 .327 .415 0 0" fill="#2c292a"/>
<path transform="matrix(1,0,0,-1,225.4722,326.8068)" d="M0 0C-.025-.353-.038-.844-.038-1.473H.377C.73-1.473 1.044-1.461 1.321-1.435V-2.078C1.069-2.053 .767-2.04 .415-2.04H-.038C-.038-3.022-.025-3.677 0-4.004H-.755V-3.626H-2.832V-5.288C-2.857-5.666-2.989-5.893-3.228-5.968-3.468-6.044-3.826-6.119-4.304-6.195-4.38-5.893-4.506-5.603-4.682-5.326-4.128-5.351-3.801-5.332-3.7-5.269-3.6-5.207-3.549-5.087-3.549-4.91V-3.626H-6.267V-3.022C-5.89-3.047-5.487-3.06-5.059-3.06H-3.549V-2.04H-5.927C-6.356-2.04-6.783-2.053-7.211-2.078V-1.435C-6.783-1.461-6.406-1.473-6.078-1.473H-3.549V-.529H-4.757C-5.11-.529-5.5-.542-5.927-.567V-.076C-6.129-.277-6.368-.491-6.645-.718-6.695-.617-6.871-.466-7.173-.264-6.695 .063-6.23 .51-5.776 1.077-5.323 1.643-4.971 2.191-4.719 2.72-4.543 2.569-4.279 2.455-3.926 2.38-4.078 2.253-4.197 2.134-4.285 2.021-4.374 1.908-4.468 1.788-4.568 1.662H-1.208C-1.41 1.385-1.774 .831-2.303 0ZM-4.946 1.02C-5.198 .718-5.487 .39-5.814 .038-5.512 .012-5.21 0-4.908 0H-3.058C-2.882 .327-2.694 .667-2.492 1.02ZM-.755-.529H-2.8309999V-1.473H-.755ZM-.755-2.04H-2.8309999V-3.06H-.755ZM-.755-3.06" fill="#2c292a"/>
<path transform="matrix(1,0,0,-1,231.2486,324.7293)" d="M0 0C.428 0 .793 .012 1.095 .038V-.604C.893-.58 .692-.567 .491-.567V-5.666C.767-5.59 1.082-5.502 1.435-5.401V-6.044C1.107-6.119 .793-6.195 .491-6.27 .491-7.252 .503-7.97 .529-8.423H-.227C-.202-8.046-.189-7.378-.189-6.421-.793-6.548-1.347-6.699-1.85-6.875-2.354-7.051-2.781-7.228-3.134-7.403L-3.436-6.535-2.605-6.384V-.567C-2.807-.567-3.058-.58-3.36-.604V.038C-3.033 .012-2.593 0-2.039 0ZM-.189-.567H-1.926V-2.1529999H-.189ZM-.189-2.72H-1.926V-4.042H-.189ZM-.189-5.855V-4.646H-1.926V-6.232C-1.321-6.107-.743-5.981-.189-5.855M1.68-6.818C1.944-6.529 2.24-6.132 2.567-5.628 2.19-4.923 1.944-4.206 1.831-3.475 1.718-2.745 1.636-1.902 1.586-.944H1.284V-.302C1.787-.328 2.24-.34 2.643-.34H4.757C4.656-1.574 4.512-2.594 4.323-3.4 4.134-4.206 3.838-4.948 3.436-5.628 3.637-5.981 3.908-6.308 4.247-6.61 4.587-6.912 4.958-7.177 5.361-7.403 5.109-7.579 4.895-7.794 4.719-8.046 4.191-7.693 3.624-7.101 3.02-6.27 2.567-7.001 2.051-7.617 1.472-8.121 1.321-7.919 1.095-7.73 .793-7.555 1.12-7.353 1.416-7.108 1.68-6.818M2.473-3.211C2.535-3.715 2.705-4.294 2.983-4.948 3.385-4.117 3.643-3.343 3.756-2.625 3.87-1.908 3.939-1.347 3.964-.944H2.265C2.341-1.952 2.41-2.707 2.473-3.211" fill="#2c292a"/>
</g>
<path transform="matrix(1,0,0,-1,0,595.276)" d="M170.718 381.701H240.186V368.556H170.718Z" fill="#ffffff"/>
<g clip-path="url(#clip_8)">
<path transform="matrix(1,0,0,-1,178.2074,221.85419)" d="M0 0C-.327-.416-.806-.925-1.435-1.53-.705-1.454-.025-1.385 .604-1.322 1.233-1.259 1.925-1.177 2.681-1.077 2.127-.422 1.737-.007 1.51 .17 1.737 .27 1.976 .421 2.228 .623 2.53 .296 2.882-.101 3.285-.567 3.687-1.033 4.115-1.505 4.568-1.983 4.266-2.134 3.989-2.298 3.738-2.474 3.536-2.172 3.309-1.882 3.058-1.605 1.321-1.781 .069-1.939-.698-2.078-1.467-2.216-2.014-2.348-2.341-2.474-2.442-2.197-2.58-1.895-2.756-1.568-2.454-1.492-1.995-1.14-1.378-.51-.762 .119-.327 .761-.076 1.416H-1.926C-2.63 1.416-3.234 1.403-3.738 1.379V2.059C-3.209 2.033-2.605 2.021-1.926 2.021H.378V3.796H-.982C-1.611 3.796-2.165 3.783-2.643 3.758V4.438C-2.165 4.413-1.623 4.401-1.019 4.401H.378V5.156C.378 5.534 .365 5.898 .34 6.251H1.246C1.195 5.924 1.17 5.584 1.17 5.232V4.401H2.303C2.932 4.401 3.523 4.413 4.077 4.438V3.758C3.523 3.783 2.945 3.796 2.341 3.796H1.17V2.021H3.473C4.077 2.021 4.656 2.033 5.21 2.059V1.379C4.656 1.403 4.077 1.416 3.473 1.416H.189C.465 1.215 .704 1.039 .906 .888 .629 .711 .327 .415 0 0" fill="#2c292a"/>
<path transform="matrix(1,0,0,-1,186.1358,218.92691)" d="M0 0C-.051-.453-.075-.856-.075-1.209V-3.588C.73-4.218 1.894-4.526 3.417-4.514 4.939-4.501 6.103-4.395 6.909-4.193 6.783-4.495 6.707-4.81 6.682-5.137 5.776-5.213 4.996-5.263 4.342-5.288 3.687-5.313 2.951-5.269 2.133-5.156 1.315-5.043 .711-4.873 .321-4.646-.07-4.419-.391-4.401-.642-4.589-.894-4.778-1.17-5.049-1.472-5.401-1.649-5.124-1.838-4.897-2.039-4.722-1.586-4.319-1.17-4.004-.793-3.777V-.718C-1.12-.718-1.472-.731-1.85-.755V.038C-1.448 .012-1.083 0-.755 0ZM.227 1.398C-.075 1.372-.353 1.284-.604 1.133-.68 1.561-.894 2.203-1.246 3.06-.995 3.11-.73 3.173-.453 3.248-.126 2.417 .1 1.8 .227 1.398M5.814 1.398C5.814 .667 5.827 .05 5.852-.453H2.001V-3.022C2.504-2.745 2.932-2.518 3.285-2.342 3.335-2.569 3.41-2.821 3.511-3.097 3.108-3.248 2.403-3.601 1.397-4.155L.906-3.437C1.133-3.261 1.246-3.009 1.246-2.682V1.813C1.246 2.291 1.233 2.77 1.208 3.248H5.852C5.827 2.77 5.814 2.153 5.814 1.398M5.097 2.606H2.0010002V1.737H5.097ZM5.097 1.095H2.0010002V.22600001H5.097ZM4.984-2.191C5.789-2.77 6.305-3.148 6.531-3.324 6.254-3.5 6.041-3.715 5.89-3.966 5.411-3.538 4.864-3.091 4.247-2.625 3.63-2.16 3.058-1.738 2.53-1.36 2.705-1.209 2.894-1.045 3.096-.869 3.775-1.322 4.228-1.65 4.455-1.851 4.807-1.549 5.172-1.146 5.55-.642 5.776-.819 6.053-.982 6.38-1.133 5.675-1.586 5.21-1.939 4.984-2.191" fill="#2c292a"/>
<path transform="matrix(1,0,0,-1,196.5559,223.08191)" d="M0 0C-.378-.378-.693-.73-.944-1.058-1.12-.806-1.321-.617-1.548-.491-1.347-.214-1.246 .05-1.246 .302V3.966C-1.75 3.966-2.165 3.953-2.492 3.928V4.608C-2.19 4.583-1.888 4.57-1.586 4.57H-.453C-.478 4.142-.491 3.714-.491 3.286V.491C-.264 .667 .088 1.02 .566 1.549 .667 1.347 .793 1.12 .944 .869 .692 .667 .378 .378 0 0M-.151 5.855C-.327 5.728-.516 5.59-.717 5.439-1.095 5.917-1.498 6.384-1.925 6.837-1.774 6.963-1.611 7.114-1.435 7.29-1.057 6.963-.629 6.484-.151 5.855M3.285 5.93V4.533H4.568C4.971 4.533 5.336 4.545 5.663 4.57V3.891C5.361 3.915 5.008 3.928 4.606 3.928H3.285V-.264H4.531C5.084-.264 5.575-.24 6.003-.189V-.907C5.575-.881 5.084-.869 4.531-.869H1.737C1.233-.869 .767-.881 .34-.907V-.189C.767-.24 1.221-.264 1.699-.264H2.53V5.968C2.53 6.371 2.517 6.786 2.492 7.215H3.322C3.297 6.736 3.285 6.308 3.285 5.93" fill="#2c292a"/>
<path transform="matrix(1,0,0,-1,207.6888,222.47751)" d="M0 0-.34-.755C-.491-.655-.623-.567-.736-.491-.85-.415-.969-.315-1.095-.189-1.297-.391-1.51-.548-1.737-.661-1.963-.774-2.228-.831-2.53-.831-3.033-.831-3.468-.68-3.832-.378-4.197-.076-4.38 .39-4.38 1.02-4.38 1.422-4.273 1.756-4.059 2.021-3.845 2.285-3.587 2.531-3.285 2.757-3.411 3.034-3.511 3.311-3.587 3.588-3.662 3.865-3.7 4.117-3.7 4.344-3.7 4.797-3.568 5.149-3.304 5.401-3.039 5.653-2.718 5.779-2.341 5.779-2.014 5.779-1.737 5.672-1.51 5.458-1.284 5.244-1.17 4.935-1.17 4.533-1.17 4.054-1.303 3.67-1.567 3.381-1.831 3.091-2.127 2.845-2.454 2.644-2.278 2.342-2.095 2.059-1.907 1.794-1.718 1.53-1.498 1.259-1.246 .982-1.17 1.158-1.12 1.328-1.095 1.492-1.07 1.655-1.057 1.863-1.057 2.115H-.302C-.302 1.788-.334 1.492-.396 1.228-.46 .963-.554 .718-.68 .491-.604 .415-.497 .327-.359 .227-.221 .126-.101 .05 0 0M-1.624 .302C-1.951 .655-2.228 .982-2.454 1.284-2.681 1.586-2.869 1.889-3.02 2.191-3.222 2.04-3.367 1.87-3.455 1.681-3.543 1.492-3.587 1.259-3.587 .982-3.587 .604-3.473 .321-3.247 .132-3.02-.057-2.756-.151-2.454-.151-2.278-.151-2.127-.113-2.001-.038-1.875 .038-1.75 .151-1.624 .302M-1.888 4.533C-1.888 4.709-1.932 4.847-2.02 4.948-2.108 5.049-2.228 5.099-2.379 5.099-2.53 5.099-2.668 5.036-2.794 4.91-2.92 4.784-2.983 4.608-2.983 4.382-2.983 4.205-2.964 4.023-2.926 3.834-2.888 3.645-2.819 3.437-2.718 3.211-2.517 3.311-2.328 3.469-2.152 3.683-1.976 3.896-1.888 4.18-1.888 4.533" fill="#2c292a"/>
<path transform="matrix(1,0,0,-1,212.0316,221.85419)" d="M0 0C-.327-.416-.806-.925-1.435-1.53-.705-1.454-.025-1.385 .604-1.322 1.233-1.259 1.926-1.177 2.681-1.077 2.127-.422 1.737-.007 1.51 .17 1.737 .27 1.976 .421 2.228 .623 2.53 .296 2.882-.101 3.285-.567 3.687-1.033 4.115-1.505 4.568-1.983 4.266-2.134 3.989-2.298 3.738-2.474 3.536-2.172 3.309-1.882 3.058-1.605 1.321-1.781 .069-1.939-.698-2.078-1.466-2.216-2.014-2.348-2.341-2.474-2.442-2.197-2.58-1.895-2.756-1.568-2.454-1.492-1.995-1.14-1.378-.51-.762 .119-.327 .761-.075 1.416H-1.925C-2.63 1.416-3.234 1.403-3.738 1.379V2.059C-3.209 2.033-2.605 2.021-1.925 2.021H.378V3.796H-.982C-1.611 3.796-2.165 3.783-2.643 3.758V4.438C-2.165 4.413-1.623 4.401-1.019 4.401H.378V5.156C.378 5.534 .365 5.898 .34 6.251H1.246C1.195 5.924 1.17 5.584 1.17 5.232V4.401H2.303C2.932 4.401 3.524 4.413 4.078 4.438V3.758C3.524 3.783 2.945 3.796 2.341 3.796H1.17V2.021H3.473C4.078 2.021 4.656 2.033 5.21 2.059V1.379C4.656 1.403 4.078 1.416 3.473 1.416H.189C.466 1.215 .704 1.039 .906 .888 .629 .711 .327 .415 0 0" fill="#2c292a"/>
<path transform="matrix(1,0,0,-1,219.6391,222.7797)" d="M0 0C-.542-.202-.988-.391-1.34-.567-1.416-.34-1.542-.089-1.718 .189-1.466 .239-1.227 .302-1.001 .378L-.434 .567V3.702H-.547C-.849 3.702-1.177 3.689-1.529 3.664V4.419C-1.177 4.369-.862 4.344-.585 4.344H-.434V5.553C-.434 5.98-.447 6.396-.472 6.799H.321C.296 6.421 .283 6.006 .283 5.553V4.344H.472C.698 4.344 1.001 4.369 1.378 4.419V3.664C1.001 3.689 .698 3.702 .472 3.702H.283V.755C.736 .931 1.076 1.058 1.303 1.133L1.34 .529C.988 .378 .541 .201 0 0M6.588 5.515V3.928C6.588 3.273 6.6 2.77 6.626 2.417H4.549V1.246H5.569C6.097 1.246 6.513 1.259 6.815 1.284V.642C6.462 .667 6.047 .68 5.569 .68H4.549V-.529H5.833C6.362-.529 6.815-.516 7.192-.491V-1.209C6.865-1.183 6.424-1.171 5.871-1.171H2.699C2.045-1.171 1.529-1.183 1.151-1.209V-.491C1.529-.516 2.058-.529 2.737-.529H3.87V.68H3.001C2.372 .68 1.894 .667 1.567 .642V1.284C1.869 1.259 2.334 1.246 2.964 1.246H3.87V2.417H1.68C1.705 2.744 1.718 3.185 1.718 3.74V5.553C1.718 6.031 1.705 6.446 1.68 6.799H6.626C6.6 6.472 6.588 6.044 6.588 5.515M3.87 6.233H2.3979998V4.911H3.87ZM3.87 4.306H2.3979998V2.9840003H3.87ZM5.871 6.233H4.5499999V4.911H5.871ZM5.871 4.306H4.5499999V2.9840003H5.871ZM5.871 2.984" fill="#2c292a"/>
<path transform="matrix(1,0,0,-1,228.3415,223.83731)" d="M0 0C-.252 .202-.453 .34-.604 .416-.227 .919 .201 1.611 .68 2.493 .855 2.367 1.07 2.241 1.321 2.115 .843 1.385 .402 .68 0 0M1.812 7.366H3.662C3.486 6.006 3.253 5.08 2.964 4.589 2.674 4.098 2.297 3.721 1.831 3.456 1.365 3.192 .755 2.959 0 2.757-.101 2.933-.277 3.135-.529 3.362 0 3.462 .497 3.607 .963 3.796 1.428 3.985 1.774 4.218 2.001 4.495 1.674 4.772 1.359 4.998 1.057 5.175 1.208 5.351 1.346 5.54 1.472 5.741 1.95 5.414 2.265 5.187 2.416 5.062 2.668 5.515 2.819 6.081 2.869 6.761H1.586C1.384 6.408 1.17 6.068 .944 5.741 .717 5.414 .44 5.074 .113 4.722-.063 4.923-.277 5.062-.529 5.137-.126 5.464 .251 5.917 .604 6.497 .956 7.076 1.221 7.68 1.397 8.31 1.598 8.209 1.862 8.108 2.19 8.008 2.089 7.857 1.963 7.642 1.812 7.366M2.605 1.284C2.605 .931 2.611 .68 2.624 .529 2.636 .378 2.819 .302 3.171 .302H4.908C5.084 .302 5.241 .334 5.38 .397 5.518 .459 5.625 .718 5.701 1.171 5.877 1.02 6.129 .869 6.456 .718 6.33 .264 6.147-.025 5.909-.151 5.669-.277 5.411-.327 5.135-.302H2.718C2.215-.302 1.957-.138 1.944 .189 1.931 .516 1.926 .843 1.926 1.171 1.926 1.498 1.913 1.889 1.888 2.342H2.643C2.618 1.989 2.605 1.637 2.605 1.284M4.644 1.738C4.417 1.611 4.228 1.473 4.078 1.322 3.775 1.851 3.436 2.342 3.058 2.795 3.209 2.871 3.385 2.996 3.587 3.173 3.989 2.644 4.342 2.165 4.644 1.738M7.136 6.214C7.11 5.798 7.06 5.489 6.985 5.288 6.909 5.086 6.783 4.948 6.607 4.873 6.431 4.797 6.129 4.734 5.701 4.684 5.675 4.91 5.562 5.149 5.361 5.401 5.99 5.376 6.33 5.445 6.38 5.609 6.431 5.773 6.456 6.245 6.456 7.026H4.833V4.117C4.833 3.84 4.933 3.676 5.135 3.626H6.758C6.985 3.626 7.123 3.683 7.173 3.796 7.223 3.909 7.274 4.142 7.324 4.495 7.576 4.293 7.84 4.167 8.117 4.117 7.891 3.487 7.689 3.148 7.513 3.097 7.337 3.047 7.098 3.022 6.796 3.022H4.908C4.43 2.996 4.178 3.299 4.153 3.928V6.421C4.153 6.799 4.14 7.202 4.115 7.63H7.173C7.173 7.101 7.16 6.629 7.136 6.214M8.079 .755C7.827 .604 7.613 .44 7.438 .264 7.211 .591 6.72 1.196 5.965 2.078 6.141 2.203 6.317 2.354 6.494 2.531 7.148 1.775 7.677 1.183 8.079 .755" fill="#2c292a"/>
</g>
</g>
</g>
</svg>
