<svg xmlns="http://www.w3.org/2000/svg" xmlns:xlink="http://www.w3.org/1999/xlink" xmlns:inkscape="http://www.inkscape.org/namespaces/inkscape" version="1.1" width="411.024" height="595.276" viewBox="0 0 411.024 595.276">
<defs>
<clipPath id="clip_1">
<path transform="matrix(1,0,0,-1,0,595.276)" d="M0 0H411.024V595.276H0Z"/>
</clipPath>
<clipPath id="clip_2">
<path transform="matrix(1,0,0,-1,0,595.276)" d="M0 0H411.024V595.276H0Z"/>
</clipPath>
<path id="font_3_5" d="M.45999146 .19407654C.45999146 .28303529 .4229889 .34100343 .35099793 .36799623 .4149933 .39700318 .44699098 .450943 .44699098 .52586367 .44699098 .64175418 .36698915 .71875 .25099183 .71875 .14299011 .71875 .05899048 .6507416 .050994874 .53585818H.12298584C.12998963 .60879519 .17599488 .6547394 .25099183 .6547394 .31999208 .6547394 .375 .609787 .375 .5248718 .375 .4449463 .33499146 .3959961 .24798584 .3959961H.23298645V.3330078H.24798584C.34498597 .3330078 .3880005 .28103639 .3880005 .19508362 .3880005 .10812378 .32798768 .057159425 .25099183 .057159425 .18299866 .057159425 .11999512 .09213257 .11399841 .18109131H.041992189C.04798889 .05215454 .13899231-.0068359377 .25099183-.0068359377 .36698915-.0068359377 .45999146 .06315613 .45999146 .19407654Z"/>
<path id="font_3_11" d="M.45700074 .51272585C.45700074 .63575747 .37998963 .71777346 .25898744 .71777346 .13798523 .71777346 .06199646 .62776187 .06199646 .5067291 .06199646 .3896942 .1349945 .3046875 .24598694 .3046875 .27398683 .3046875 .2999878 .30967713 .32199098 .3196869L.1619873 0H.23699951L.4119873 .3526764C.44198609 .4126892 .45700074 .4617157 .45700074 .51272585M.3849945 .50971987C.3849945 .4216919 .33499146 .36567689 .25898744 .36567689 .1769867 .36567689 .13398743 .43069459 .13398743 .50971987 .13398743 .596756 .18299866 .6537628 .25898744 .6537628 .33499146 .6537628 .3849945 .596756 .3849945 .50971987Z"/>
<path id="font_3_6" d="M.48199464 .11273193V.17773438H.394989V.37979127H.32398988V.17773438H.116989139L.37399293 .71191409H.29699708L.039993287 .17773438V.11273193H.32398988V0H.394989V.11273193H.48199464Z"/>
<clipPath id="clip_4">
<path transform="matrix(1,0,0,-1,0,595.276)" d="M0 0H411.024V595.276H0Z"/>
</clipPath>
<clipPath id="clip_5">
<path transform="matrix(1,0,0,-1,0,595.276)" d="M0 0H411.024V595.276H0Z"/>
</clipPath>
<clipPath id="clip_6">
<path transform="matrix(1,0,0,-1,0,595.276)" d="M0 0H411.024V595.276H0Z"/>
</clipPath>
</defs>
<g clip-path="url(#clip_1)">
<g clip-path="url(#clip_2)">
<use data-text="3" xlink:href="#font_3_5" transform="matrix(9,0,0,-9,35.4331,567.547)" fill="#f43040"/>
<use data-text="9" xlink:href="#font_3_11" transform="matrix(9,0,0,-9,39.0331,567.547)" fill="#f43040"/>
<use data-text="4" xlink:href="#font_3_6" transform="matrix(9,0,0,-9,42.6331,567.547)" fill="#f43040"/>
<path transform="matrix(1,0,0,-1,199.8696,373.4973)" d="M0 0-4.644 3.24H-39.558V4.562H-4.229L0 1.612 4.229 4.562H38.449V3.24H4.644Z" fill="#f43040"/>
<g clip-path="url(#clip_4)">
<path transform="matrix(1,0,0,-1,144.7891,382.7305)" d="M0 0C.781 0 1.486 .018 2.118 .056V-1.004C1.561-.967 .854-.948 0-.948H-2.62C-2.62-2.175-2.658-3.291-2.732-4.295H1.561C2.23-4.295 2.843-4.277 3.401-4.239V-5.299C2.843-5.262 2.248-5.243 1.617-5.243H-.892V-9.594C-.892-10.078-.613-10.319-.056-10.319H1.84C2.248-10.319 2.471-9.761 2.509-8.646 2.88-8.869 3.289-9.036 3.735-9.148 3.549-10.598 3.122-11.323 2.453-11.323H-.613C-1.469-11.285-1.896-10.802-1.896-9.873V-5.243H-2.843C-3.141-6.657-3.504-7.725-3.93-8.45-4.358-9.175-4.85-9.789-5.408-10.291-5.965-10.793-6.802-11.359-7.917-11.992-8.103-11.583-8.418-11.267-8.864-11.044-7.972-10.634-7.247-10.217-6.69-9.789-6.133-9.362-5.603-8.832-5.101-8.199-4.599-7.568-4.2-6.582-3.902-5.243H-6.356C-7.285-5.243-7.954-5.262-8.363-5.299V-4.239C-7.954-4.277-7.285-4.295-6.356-4.295H-3.791C-3.754-3.179-3.735-2.064-3.735-.948H-5.241C-5.984-.948-6.672-.967-7.303-1.004V.056C-6.672 .018-5.984 0-5.241 0Z" fill="#2c292a"/>
<path transform="matrix(1,0,0,-1,153.5418,386.6907)" d="M0 0C.743-.892 1.171-1.711 1.282-2.454 1.394-3.198 1.235-3.812 .808-4.295 .381-4.779-.149-5.113-.781-5.299-.818-4.816-.985-4.388-1.282-4.016-.613-4.016-.186-3.886 0-3.626 .185-3.366 .26-2.948 .223-2.371 .185-1.795-.26-1.023-1.115-.056-.521 1.618-.149 2.825 0 3.57H-1.673V-7.697H-2.732C-2.695-6.656-2.676-5.634-2.676-4.63V1.896C-2.676 2.566-2.695 3.421-2.732 4.462H1.394C.725 2.268 .26 .781 0 0M8.139 1.673C8.139 .52 8.158-.39 8.195-1.06H5.575C5.575-1.767 5.76-2.51 6.133-3.291 7.099-2.659 7.73-2.083 8.028-1.562 8.325-2.008 8.604-2.343 8.864-2.566 8.195-2.9 7.377-3.384 6.411-4.016 6.82-4.574 7.247-5.058 7.693-5.466 8.139-5.876 8.789-6.229 9.645-6.526 9.199-6.749 8.864-7.102 8.641-7.586 7.749-7.028 7.052-6.461 6.551-5.885 6.049-5.309 5.639-4.639 5.324-3.877 5.008-3.115 4.794-2.175 4.683-1.06H3.401V-6.136C3.995-5.838 4.534-5.485 5.017-5.076 5.054-5.41 5.129-5.801 5.24-6.247 4.906-6.434 4.469-6.674 3.93-6.972 3.391-7.269 2.936-7.567 2.564-7.865 2.415-7.567 2.211-7.232 1.951-6.861 2.174-6.638 2.322-6.303 2.397-5.857V2.008C2.397 2.751 2.378 3.57 2.341 4.462H8.195C8.158 3.793 8.139 2.863 8.139 1.673M7.136 3.57H3.4010003V2.1759999H7.136ZM7.136 1.339H3.4010003V-.16700006H7.136ZM7.136-.167" fill="#2c292a"/>
<path transform="matrix(1,0,0,-1,167.2006,384.4596)" d="M0 0C1.338 0 2.322 .037 2.955 .112V-.948C2.322-.912 1.356-.892 .056-.892V-3.179H2.341C2.304-3.998 2.286-4.872 2.286-5.801 2.286-6.693 2.304-7.679 2.341-8.757H1.227V-7.865H-1.617V-8.924H-2.732C-2.695-7.958-2.676-6.991-2.676-6.024-2.676-5.02-2.695-4.072-2.732-3.179H-1.059C-1.059-.131-1.078 1.841-1.115 2.733H.056C.018 1.877 0 .966 0 0M1.282-4.072H-1.617V-6.917H1.282ZM7.944-4.713C7.591-5.402 7.154-6.117 6.634-6.861 7.266-7.94 7.786-8.553 8.195-8.701 8.604-8.849 8.938-8.348 9.199-7.195 9.496-7.53 9.849-7.828 10.258-8.088 9.737-9.24 9.152-9.863 8.502-9.956 7.851-10.049 6.987-9.277 5.91-7.642 5.464-8.125 5.008-8.553 4.544-8.924 4.078-9.296 3.493-9.723 2.788-10.207 2.565-9.909 2.286-9.612 1.951-9.315 2.397-9.128 2.973-8.776 3.68-8.255 4.385-7.735 4.962-7.195 5.408-6.638 5.221-6.266 5.017-5.643 4.794-4.769 4.572-3.896 4.423-3.105 4.349-2.398 3.68-2.51 3.029-2.641 2.397-2.789 2.322-2.418 2.248-2.083 2.174-1.785 2.732-1.711 3.419-1.599 4.237-1.45 4.162 .148 4.088 1.58 4.014 2.845 4.46 2.807 4.869 2.789 5.24 2.789 5.166 1.71 5.166 .353 5.24-1.283 6.058-1.171 7.433-.912 9.366-.502 9.366-.837 9.403-1.171 9.478-1.506 8.622-1.655 7.247-1.896 5.352-2.231 5.538-3.719 5.798-4.89 6.133-5.745 6.504-5.225 6.782-4.723 6.969-4.239 7.154-3.756 7.34-3.235 7.526-2.677 7.972-2.938 8.381-3.124 8.753-3.235 8.566-3.533 8.297-4.026 7.944-4.713M8.53 .614C8.195 .39 7.879 .13 7.582-.167 7.359 .204 6.913 .781 6.244 1.562 6.541 1.747 6.838 1.952 7.136 2.175 7.842 1.357 8.307 .837 8.53 .614" fill="#2c292a"/>
<path transform="matrix(1,0,0,-1,183.7583,385.46363)" d="M0 0V-5.02C0-5.653 .018-6.414 .056-7.307H-.948V-6.582H-3.903V-7.642H-4.962C-4.888-7.047-4.85-6.378-4.85-5.634V0C-4.85 .855-4.888 1.618-4.962 2.287H.056C.018 1.431 0 .669 0 0M-2.899 1.45H-3.9029999V-1.618H-2.899ZM-2.899-2.51H-3.9029999V-5.689H-2.899ZM-.948 1.45H-1.9519999V-1.618H-.948ZM-.948-2.51H-1.9519999V-5.689H-.948ZM2.955 2.287H6.69C6.467 1.58 6.16 .873 5.77 .167 5.38-.54 4.943-1.153 4.46-1.673 4.869-2.046 5.38-2.334 5.993-2.538 6.606-2.743 7.192-2.882 7.749-2.956 7.451-3.366 7.247-3.737 7.136-4.072 6.615-3.96 6.039-3.765 5.408-3.486 4.775-3.207 4.218-2.845 3.735-2.398 3.437-2.622 3.047-2.9 2.564-3.235 2.081-3.57 1.468-3.904 .725-4.239 .576-3.868 .371-3.533 .112-3.235 .669-3.05 1.161-2.854 1.589-2.649 2.016-2.445 2.527-2.101 3.122-1.618 2.899-1.32 2.694-1.004 2.509-.669 2.322-.335 2.155-.019 2.007 .279 1.784-.131 1.468-.633 1.059-1.227 .91-1.004 .594-.781 .112-.558 .632 0 1.087 .697 1.477 1.534 1.868 2.371 2.137 3.16 2.286 3.904 2.694 3.718 3.14 3.551 3.624 3.402 3.401 3.179 3.178 2.807 2.955 2.287M6.356-5.466V-7.642C6.356-8.124 6.374-8.646 6.411-9.203H5.352V-8.143H2.453V-9.259H1.394C1.43-8.626 1.45-8.05 1.45-7.53V-5.522C1.45-4.964 1.43-4.444 1.394-3.96H6.411C6.374-4.406 6.356-4.908 6.356-5.466M5.352-4.853H2.4530004V-7.196H5.352ZM5.296 1.45H2.564C2.862 .52 3.289-.279 3.847-.948 4.404-.316 4.887 .483 5.296 1.45" fill="#2c292a"/>
<path transform="matrix(1,0,0,-1,194.1279,391.1529)" d="M0 0H2.007V-2.231C1.895-3.16 1.43-3.849 .613-4.295L.056-3.793C.725-3.421 1.059-2.863 1.059-2.12H0Z" fill="#2c292a"/>
<path transform="matrix(1,0,0,-1,209.5707,387.61109)" d="M0 0C.817 .837 1.561 1.869 2.23 3.096H.223C-.298 3.096-.948 3.076-1.728 3.04V4.1C-.762 4.062-.037 4.044 .446 4.044H2.565C2.861 4.936 3.029 5.586 3.066 5.996 3.624 5.847 4.07 5.735 4.404 5.661 4.293 5.55 4.106 5.01 3.847 4.044H8.363C8.994 4.044 9.645 4.062 10.314 4.1V3.04C9.645 3.076 9.05 3.096 8.53 3.096H3.512C3.252 2.612 2.973 2.128 2.676 1.645H9.087C9.05 .715 9.031-.121 9.031-.865V-5.383C9.031-5.903 8.883-6.284 8.585-6.526 8.288-6.767 7.656-6.925 6.69-7 6.653-6.59 6.523-6.144 6.3-5.661 6.857-5.735 7.266-5.754 7.526-5.717 7.786-5.68 7.917-5.476 7.917-5.104V-3.988H2.119V-6.944H.892C.929-6.014 .948-5.215 .948-4.546V-.586C.167-1.478-.651-2.259-1.505-2.928-1.654-2.669-1.989-2.371-2.509-2.036-1.654-1.516-.818-.837 0 0M7.917 .753H2.119V-.809H7.917ZM7.917-1.701H2.119V-3.095H7.917ZM7.917-3.096" fill="#2c292a"/>
<path transform="matrix(1,0,0,-1,224.9017,386.6907)" d="M0 0C.743-.892 1.171-1.711 1.282-2.454 1.394-3.198 1.235-3.812 .808-4.295 .381-4.779-.149-5.113-.78-5.299-.818-4.816-.985-4.388-1.282-4.016-.613-4.016-.186-3.886 0-3.626 .186-3.366 .26-2.948 .223-2.371 .186-1.795-.26-1.023-1.115-.056-.521 1.618-.149 2.825 0 3.57H-1.672V-7.697H-2.732C-2.695-6.656-2.676-5.634-2.676-4.63V1.896C-2.676 2.566-2.695 3.421-2.732 4.462H1.394C.725 2.268 .26 .781 0 0M8.14 1.673C8.14 .52 8.158-.39 8.195-1.06H5.575C5.575-1.767 5.761-2.51 6.133-3.291 7.099-2.659 7.73-2.083 8.028-1.562 8.325-2.008 8.604-2.343 8.864-2.566 8.195-2.9 7.377-3.384 6.411-4.016 6.82-4.574 7.248-5.058 7.694-5.466 8.14-5.876 8.789-6.229 9.645-6.526 9.199-6.749 8.864-7.102 8.641-7.586 7.749-7.028 7.052-6.461 6.551-5.885 6.049-5.309 5.64-4.639 5.324-3.877 5.008-3.115 4.795-2.175 4.683-1.06H3.401V-6.136C3.995-5.838 4.534-5.485 5.018-5.076 5.054-5.41 5.129-5.801 5.241-6.247 4.906-6.434 4.469-6.674 3.93-6.972 3.391-7.269 2.936-7.567 2.565-7.865 2.416-7.567 2.211-7.232 1.951-6.861 2.174-6.638 2.322-6.303 2.397-5.857V2.008C2.397 2.751 2.378 3.57 2.341 4.462H8.195C8.158 3.793 8.14 2.863 8.14 1.673M7.136 3.57H3.4010003V2.1759999H7.136ZM7.136 1.339H3.4010003V-.16700006H7.136ZM7.136-.167" fill="#2c292a"/>
<path transform="matrix(1,0,0,-1,238.6722,388.9776)" d="M0 0V-3.012C.966-3.793 2.509-4.221 4.627-4.295 6.746-4.369 8.53-4.277 9.979-4.016 9.793-4.202 9.607-4.63 9.422-5.299 7.117-5.335 5.454-5.317 4.432-5.243 3.409-5.168 2.545-5.029 1.84-4.825 1.133-4.62 .576-4.387 .167-4.128-.242-3.868-.595-3.896-.892-4.211-1.19-4.527-1.524-4.927-1.896-5.41-2.156-5.112-2.491-4.871-2.899-4.685-2.491-4.239-1.877-3.719-1.059-3.124V1.227C-1.617 1.227-2.212 1.208-2.843 1.171V2.175C-2.138 2.138-1.171 2.12 .056 2.12 .018 1.339 0 .632 0 0M.223 4.016C-.112 3.904-.446 3.774-.78 3.626-.929 4.072-1.301 4.908-1.896 6.136-1.561 6.247-1.19 6.377-.78 6.526-.298 5.41 .037 4.574 .223 4.016M2.788 5.132H4.627C4.627 5.875 4.608 6.582 4.571 7.251H5.854C5.779 6.73 5.742 6.024 5.742 5.132 7.043 5.168 7.972 5.187 8.53 5.187V4.239C7.897 4.276 6.969 4.295 5.742 4.295V2.343H7.638C8.195 2.343 8.753 2.361 9.31 2.398V1.394C8.753 1.431 7.897 1.45 6.746 1.45V-1.618C6.746-1.99 6.95-2.175 7.359-2.175H8.028C8.288-2.027 8.437-1.599 8.474-.892 8.845-1.116 9.235-1.265 9.645-1.339 9.422-2.603 9.032-3.235 8.474-3.235H6.969C6.113-3.235 5.686-2.845 5.686-2.064V1.45H4.571C4.571 .335 4.367-.614 3.958-1.394 3.549-2.175 2.991-2.9 2.286-3.57 2.025-3.31 1.653-3.105 1.171-2.956 2.099-2.287 2.722-1.627 3.038-.976 3.354-.326 3.512 .483 3.512 1.45 2.397 1.45 1.561 1.431 1.003 1.394V2.454C1.598 2.379 2.118 2.343 2.564 2.343H4.627V4.295H2.509C2.322 3.849 2.174 3.421 2.063 3.012 1.653 3.16 1.282 3.291 .948 3.402 1.505 4.369 1.914 5.522 2.174 6.861 2.545 6.749 2.973 6.638 3.456 6.526 3.196 6.116 2.973 5.652 2.788 5.132" fill="#2c292a"/>
<path transform="matrix(1,0,0,-1,254.0592,388.02943)" d="M0 0C-.409-.149-.8-.316-1.171-.502V-4.853C-1.246-5.484-1.45-5.865-1.784-5.996-2.119-6.126-2.658-6.247-3.401-6.359-3.438-5.912-3.531-5.41-3.68-4.853-2.788-4.928-2.323-4.872-2.286-4.685V-.948C-3.03-1.32-3.531-1.599-3.791-1.785-3.94-1.339-4.126-.912-4.349-.502-3.977-.428-3.289-.223-2.286 .112V2.789C-2.955 2.789-3.531 2.77-4.014 2.733V3.793C-3.568 3.755-2.992 3.737-2.286 3.737-2.286 4.555-2.305 5.447-2.341 6.414H-1.115C-1.153 5.522-1.171 4.63-1.171 3.737-.762 3.737-.223 3.755 .446 3.793V2.733C-.149 2.77-.688 2.789-1.171 2.789V.558C-.8 .706-.428 .873-.056 1.06-.056 .725-.038 .371 0 0M3.624 .669H4.906C4.869 .186 4.85-.279 4.85-.725 5.779-.725 6.671-.707 7.526-.669V-1.673C6.523-1.637 5.631-1.618 4.85-1.618V-3.291C6.039-3.291 7.284-3.273 8.585-3.235V-4.239C7.544-4.202 6.3-4.183 4.85-4.183 4.85-5.484 4.869-6.339 4.906-6.749H3.624C3.698-6.339 3.735-5.484 3.735-4.183 1.691-4.183 .39-4.202-.167-4.239V-3.235C.427-3.273 1.728-3.291 3.735-3.291V-1.618C2.36-1.618 1.43-1.637 .948-1.673V-.669C1.579-.707 2.509-.725 3.735-.725 3.735-.279 3.698 .186 3.624 .669M1.171 6.024C1.691 6.024 2.322 6.005 3.066 5.968H7.861C7.451 5.15 7.089 4.499 6.774 4.016 6.457 3.532 5.946 2.956 5.24 2.287 5.723 1.989 6.234 1.785 6.774 1.673 7.312 1.562 8.028 1.468 8.92 1.394 8.548 .985 8.325 .594 8.251 .223 7.322 .409 6.578 .604 6.021 .809 5.463 1.013 4.924 1.301 4.404 1.673 3.847 1.339 3.326 1.069 2.843 .865 2.36 .66 1.728 .446 .948 .223 .873 .52 .613 .837 .167 1.171 .836 1.283 1.43 1.413 1.951 1.562 2.471 1.71 2.991 1.952 3.512 2.287 2.694 3.142 2.137 4.072 1.84 5.076H1.171ZM4.404 2.845C4.701 3.068 5.008 3.355 5.324 3.709 5.639 4.062 5.946 4.518 6.244 5.076H2.843C3.289 3.96 3.809 3.216 4.404 2.845" fill="#2c292a"/>
</g>
<path transform="matrix(1,0,0,-1,0,595.276)" d="M202.11 313.344H200.722V387.326H202.11Z" fill="#2c292a"/>
<path transform="matrix(1,0,0,-1,152.2018,308.1264)" d="M0 0-.548 .821 49.662 35.056 50.21 34.235Z" fill="#2c292a"/>
<path transform="matrix(1,0,0,-1,152.2018,308.1264)" stroke-width=".5" stroke-linecap="butt" stroke-miterlimit="10" stroke-linejoin="miter" fill="none" stroke="#2c292a" d="M0 0-.548 .821 49.662 35.056 50.21 34.235 0 0Z"/>
<path transform="matrix(1,0,0,-1,252.0106,308.9768)" d="M0 0-50.947 34.522-50.39 35.35 .556 .828Z" fill="#2c292a"/>
<path transform="matrix(1,0,0,-1,252.0106,308.9768)" stroke-width=".5" stroke-linecap="butt" stroke-miterlimit="10" stroke-linejoin="miter" fill="none" stroke="#2c292a" d="M0 0-50.947 34.522-50.39 35.35 .556 .828 0 0Z"/>
<g clip-path="url(#clip_5)">
<path transform="matrix(1,0,0,-1,202.0954,334.1087)" d="M0 0C-16.858 0-32.707 6.568-44.628 18.495-56.548 30.421-63.113 46.278-63.113 63.144-63.113 80.01-56.548 95.867-44.628 107.794-32.707 119.72-16.858 126.288 0 126.288 16.858 126.288 32.707 119.72 44.628 107.794 56.548 95.867 63.113 80.01 63.113 63.144 63.113 46.278 56.548 30.421 44.628 18.495 32.707 6.568 16.858 0 0 0M0 124.966C-34.072 124.966-61.791 97.233-61.791 63.144-61.791 29.055-34.072 1.322 0 1.322 34.072 1.322 61.791 29.055 61.791 63.144 61.791 97.233 34.072 124.966 0 124.966" fill="#2c292a"/>
<path transform="matrix(1,0,0,-1,179.147,275.3885)" d="M0 0C-.012 13.246 10.67 23.933 23.847 23.933 37.024 23.933 47.706 13.246 47.706 .063 47.706-13.121 37.024-23.808 23.847-23.808 10.67-23.808-.012-13.121 0 0" fill="#ffffff"/>
<path transform="matrix(1,0,0,-1,179.147,275.3885)" stroke-width="1.5" stroke-linecap="butt" stroke-miterlimit="10" stroke-linejoin="miter" fill="none" stroke="#f43040" d="M0 0C-.012 13.246 10.67 23.933 23.847 23.933 37.024 23.933 47.706 13.246 47.706 .063 47.706-13.121 37.024-23.808 23.847-23.808 10.67-23.808-.012-13.121 0 0"/>
<path transform="matrix(1,0,0,-1,199.3405,273.6793)" d="M0 0C-.242-.428-.456-.828-.641-1.199H1.087C1.868-1.199 2.388-1.181 2.648-1.143V-2.259C2.35-2.222 1.868-2.203 1.199-2.203H-7.22C-7.22-5.141-7.926-7.297-9.338-8.673-9.487-8.375-9.766-8.096-10.174-7.837-9.208-6.759-8.651-5.634-8.502-4.462-8.354-3.291-8.316-2.203-8.39-1.199H-1.812C-1.329-.195-.976 .734-.753 1.59-.27 1.367 .195 1.162 .641 .976 .455 .753 .241 .427 0 0M-2.369 2.705H.418C1.087 2.705 1.719 2.724 2.314 2.761V1.701C1.719 1.738 1.143 1.757 .586 1.757H-6.16C-6.718 1.757-7.424 1.738-8.279 1.701V2.761C-7.387 2.724-6.811 2.705-6.551 2.705H-3.652C-3.763 3.188-3.912 3.69-4.098 4.211-3.652 4.323-3.225 4.415-2.815 4.49-2.741 4.23-2.592 3.634-2.369 2.705M-4.042-.53C-4.414-.679-4.804-.865-5.213-1.088-5.547-.307-5.937 .363-6.383 .92-6.012 1.143-5.659 1.347-5.324 1.534-4.878 .939-4.451 .251-4.042-.53" fill="#2c292a"/>
<path transform="matrix(1,0,0,-1,208.3441,281.8507)" d="M0 0V.892H-3.01V-.056H-4.07C-4.033 .577-4.014 1.58-4.014 2.956-4.014 4.369-4.033 5.391-4.07 6.024H1.059C.984 5.391 .948 4.499 .948 3.347 .948 2.231 .984 1.116 1.059 0ZM0 5.02H-3.01V1.8959999H0ZM5.519 9.482C5.519 8.664 5.538 7.939 5.575 7.307H-2.063C-1.989 7.939-1.951 8.682-1.951 9.538-1.951 10.393-1.989 11.136-2.063 11.769H5.575C5.538 11.1 5.519 10.337 5.519 9.482M4.516 10.821H-.947V8.255H4.516ZM7.638 2.956C7.638 1.618 7.656 .669 7.694 .112H6.634V.892H3.457V-.056H2.397C2.434 .577 2.453 1.58 2.453 2.956 2.453 4.331 2.434 5.355 2.397 6.024H7.694C7.656 5.355 7.638 4.331 7.638 2.956M6.634 5.02H3.4559999V1.8959999H6.634ZM6.634 1.896" fill="#2c292a"/>
<path transform="matrix(1,0,0,-1,159.0868,232.9501)" d="M0 0C.365-.031 .715-.061 1.051-.091 .989-.488 .974-1.204 1.005-2.24H2.33C2.969-2.24 3.67-2.225 4.431-2.194V-3.062C3.639-3.032 2.939-3.017 2.33-3.017H1.051C1.081-4.175 1.279-5.439 1.645-6.81 2.223-5.927 2.68-4.906 3.015-3.748 3.319-3.992 3.67-4.205 4.066-4.388 3.822-4.662 3.548-5.119 3.244-5.759 2.939-6.399 2.543-7.069 2.056-7.77 2.33-8.319 2.627-8.753 2.947-9.073 3.266-9.393 3.487-9.53 3.609-9.484 3.73-9.438 3.852-8.913 3.975-7.907 4.279-8.151 4.598-8.334 4.934-8.456 4.72-9.705 4.484-10.398 4.226-10.535 3.967-10.672 3.655-10.672 3.289-10.535 2.924-10.398 2.581-10.139 2.261-9.758 1.942-9.378 1.675-8.958 1.462-8.501 .731-9.294-.198-10.04-1.325-10.741-1.478-10.467-1.706-10.223-2.01-10.01-1.401-9.736-.815-9.37-.251-8.913 .312-8.456 .731-8.029 1.005-7.633 .792-7.055 .609-6.346 .457-5.508 .304-4.67 .213-3.839 .183-3.017H-3.746V-4.616H-.777C-.838-5.165-.884-5.729-.914-6.308L-1.051-8.136C-1.081-8.715-1.241-9.066-1.53-9.187-1.82-9.309-2.315-9.401-3.015-9.461-3.046-9.187-3.168-8.852-3.381-8.456-2.62-8.486-2.178-8.441-2.056-8.319-1.934-8.197-1.858-7.847-1.827-7.267L-1.736-5.439H-3.746C-3.746-6.627-3.838-7.618-4.02-8.41-4.203-9.203-4.538-9.933-5.025-10.604-5.361-10.36-5.665-10.193-5.939-10.101-5.543-9.613-5.269-9.149-5.117-8.707-4.965-8.266-4.85-7.786-4.774-7.267-4.698-6.75-4.653-6.018-4.637-5.073-4.622-4.129-4.63-3.184-4.66-2.24H.091C.061-1.356 .03-.61 0 0M3.975-1.463C3.7-1.676 3.456-1.89 3.244-2.103 2.878-1.615 2.391-1.113 1.782-.594 1.994-.411 2.193-.214 2.376 0 2.984-.488 3.518-.976 3.975-1.463" fill="#2c292a"/>
<path transform="matrix(1,0,0,-1,169.8098,235.32682)" d="M0 0V.914C0 1.401-.016 1.858-.046 2.285H.959C.929 1.95 .914 1.508 .914 .96V0H3.472C3.989 0 4.598 .015 5.299 .046V-.823C4.629-.793 4.035-.777 3.518-.777H1.645C2.071-2.179 2.688-3.284 3.495-4.091 4.301-4.898 5.04-5.439 5.711-5.713 5.436-5.927 5.177-6.216 4.934-6.582 3.898-5.881 3.053-5.081 2.398-4.182 1.743-3.284 1.248-2.24 .914-1.051V-5.348H1.508C1.994-5.348 2.497-5.333 3.015-5.302V-6.17C2.497-6.14 1.979-6.125 1.462-6.125H.914C.914-6.826 .929-7.542 .959-8.273H-.046C-.016-7.542 0-6.826 0-6.125H-.594C-1.081-6.125-1.569-6.14-2.056-6.17V-5.302C-1.569-5.333-1.081-5.348-.594-5.348H0V-1.143C-.488-2.392-1.028-3.444-1.622-4.296-2.216-5.15-3.015-6.003-4.02-6.856-4.264-6.521-4.553-6.277-4.888-6.125-3.883-5.516-3.046-4.753-2.376-3.839-1.706-2.925-1.173-1.905-.777-.777H-2.787C-3.274-.777-3.792-.793-4.34-.823V.046C-3.792 .015-3.289 0-2.832 0Z" fill="#2c292a"/>
<path transform="matrix(1,0,0,-1,179.7103,234.04709)" d="M0 0C.852-.731 1.599-1.433 2.239-2.103 1.964-2.316 1.736-2.53 1.553-2.742 1.157-2.194 .845-1.798 .617-1.554 .388-1.31 .061-.991-.365-.594-.67-1.143-.982-1.623-1.302-2.034-1.622-2.445-2.071-2.971-2.65-3.611-2.802-3.398-3.015-3.199-3.289-3.017-2.65-2.499-2.079-1.859-1.576-1.097-1.073-.336-.716 .396-.502 1.097-.228 .944 .091 .792 .457 .64 .274 .396 .121 .183 0 0M-1.188-4.845C-1.553-4.845-2.026-4.861-2.604-4.891V-4.114C-2.026-4.144-1.553-4.159-1.188-4.159H1.827V-4.708C1.583-5.013 1.309-5.386 1.005-5.828 .7-6.27 .304-6.872-.183-7.633 .061-7.816 .426-8.106 .914-8.501 .761-8.684 .563-8.928 .32-9.233-.228-8.654-1.127-7.938-2.376-7.085-2.223-6.902-2.056-6.673-1.873-6.399-1.264-6.826-.884-7.085-.731-7.176 .061-5.958 .548-5.181 .731-4.845ZM.548-3.382C.335-3.535 .091-3.687-.183-3.839-.67-3.017-1.021-2.514-1.233-2.331-.959-2.179-.731-2.011-.548-1.828-.061-2.438 .304-2.956 .548-3.382M5.117-4.799C5.117-5.318 5.078-5.82 5.002-6.307 4.926-6.795 4.69-7.298 4.294-7.816 3.898-8.334 3.045-8.913 1.736-9.553 1.614-9.308 1.431-9.065 1.188-8.821 2.01-8.547 2.673-8.197 3.175-7.77 3.678-7.344 3.99-6.925 4.112-6.513 4.233-6.102 4.294-5.622 4.294-5.073 4.294-4.525 4.279-3.961 4.249-3.382 4.583-3.444 4.918-3.474 5.254-3.474 5.162-3.839 5.117-4.281 5.117-4.799M5.985 .274C6.471 .274 6.99 .289 7.538 .32V-.457C6.99-.427 6.471-.411 5.985-.411H4.888C4.735-.808 4.568-1.295 4.386-1.874H7.035C7.005-2.331 6.99-2.819 6.99-3.337V-5.211C6.99-5.668 7.005-6.232 7.035-6.902H6.167V-2.56H3.152V-6.993H2.33C2.36-6.353 2.376-5.775 2.376-5.256V-3.382C2.376-2.987 2.36-2.484 2.33-1.874H3.563C3.746-1.295 3.883-.808 3.975-.411H3.381C2.802-.411 2.269-.427 1.782-.457V.32C2.269 .289 2.771 .274 3.289 .274ZM6.282-7.724C6.662-7.999 7.096-8.364 7.584-8.821L6.853-9.553C6.456-9.065 6.106-8.691 5.802-8.433 5.497-8.174 5.147-7.907 4.751-7.633 4.934-7.45 5.101-7.222 5.254-6.947 5.558-7.192 5.9-7.45 6.282-7.724" fill="#2c292a"/>
<path transform="matrix(1,0,0,-1,191.21,234.4813)" d="M0 0C-.091-.229-.198-.48-.32-.754H1.873C1.873 .16 1.857 .83 1.827 1.257H2.878C2.847 .891 2.832 .221 2.832-.754H4.386C4.995-.754 5.589-.739 6.167-.708V-1.623C5.619-1.593 5.04-1.577 4.431-1.577H2.832V-3.359H5.985C6.563-3.359 7.081-3.344 7.538-3.314V-4.228C7.081-4.198 6.563-4.182 5.985-4.182H4.112V-7.473C4.081-7.93 4.279-8.159 4.705-8.159H5.619C5.893-8.159 6.083-8.037 6.19-7.793 6.297-7.549 6.365-7.184 6.396-6.696 6.761-6.97 7.142-7.123 7.538-7.153 7.264-8.037 7.027-8.554 6.83-8.707 6.631-8.859 6.38-8.951 6.076-8.981H4.34C3.639-8.981 3.258-8.646 3.198-7.976V-4.182H1.37C1.248-6.467 .137-8.143-1.964-9.21-2.147-8.966-2.452-8.707-2.878-8.433-.899-7.884 .198-6.467 .411-4.182H-1.279C-1.919-4.182-2.452-4.198-2.878-4.228V-3.314C-2.421-3.344-1.889-3.359-1.279-3.359H1.873V-1.577H-.64C-.762-1.851-1.005-2.324-1.371-2.994-1.615-2.781-1.919-2.644-2.284-2.582-1.553-1.516-1.036-.328-.731 .983-.365 .83 0 .708 .365 .617 .213 .434 .091 .229 0 0" fill="#2c292a"/>
<path transform="matrix(1,0,0,-1,167.3342,247.83152)" d="M0 0C1.096 0 1.903 .03 2.421 .091V-.777C1.903-.747 1.111-.731 .046-.731V-2.605H1.919C1.888-3.276 1.873-3.992 1.873-4.753 1.873-5.485 1.888-6.292 1.919-7.176H1.005V-6.445H-1.325V-7.313H-2.238C-2.209-6.521-2.193-5.729-2.193-4.936-2.193-4.114-2.209-3.337-2.238-2.605H-.868C-.868-.107-.884 1.508-.914 2.24H.046C.015 1.538 0 .792 0 0M1.051-3.337H-1.3249999V-5.668H1.051ZM6.51-3.862C6.22-4.426 5.863-5.013 5.436-5.622 5.954-6.506 6.38-7.009 6.716-7.13 7.05-7.252 7.324-6.841 7.538-5.896 7.781-6.17 8.07-6.415 8.406-6.627 7.979-7.572 7.499-8.082 6.967-8.159 6.434-8.234 5.726-7.602 4.843-6.262 4.477-6.658 4.104-7.009 3.723-7.313 3.342-7.617 2.862-7.968 2.284-8.364 2.101-8.12 1.873-7.877 1.599-7.633 1.964-7.48 2.436-7.192 3.015-6.765 3.593-6.338 4.066-5.896 4.431-5.439 4.279-5.135 4.112-4.624 3.929-3.908 3.746-3.192 3.624-2.545 3.563-1.965 3.015-2.057 2.482-2.164 1.964-2.285 1.903-1.981 1.842-1.707 1.782-1.463 2.239-1.402 2.802-1.31 3.472-1.188 3.411 .121 3.35 1.295 3.289 2.331 3.655 2.3 3.99 2.285 4.294 2.285 4.233 1.401 4.233 .289 4.294-1.051 4.964-.96 6.091-.747 7.675-.411 7.675-.686 7.705-.96 7.766-1.234 7.065-1.356 5.939-1.554 4.386-1.828 4.538-3.047 4.751-4.007 5.025-4.708 5.329-4.281 5.558-3.87 5.711-3.474 5.863-3.078 6.015-2.651 6.167-2.194 6.533-2.407 6.868-2.56 7.172-2.651 7.02-2.895 6.799-3.299 6.51-3.862M6.99 .503C6.716 .32 6.456 .106 6.213-.137 6.03 .167 5.665 .64 5.117 1.28 5.36 1.432 5.603 1.6 5.848 1.783 6.426 1.112 6.807 .686 6.99 .503" fill="#2c292a"/>
<path transform="matrix(1,0,0,-1,180.844,248.6542)" d="M0 0V-4.114C0-4.632 .015-5.256 .046-5.988H-.777V-5.393H-3.198V-6.262H-4.066C-4.005-5.775-3.975-5.226-3.975-4.616V0C-3.975 .701-4.005 1.326-4.066 1.874H.046C.015 1.173 0 .548 0 0M-2.376 1.188H-3.198V-1.326H-2.376ZM-2.376-2.057H-3.198V-4.6619999H-2.376ZM-.777 1.188H-1.599V-1.326H-.777ZM-.777-2.057H-1.599V-4.6619999H-.777ZM2.421 1.874H5.482C5.299 1.295 5.048 .716 4.728 .137 4.408-.442 4.05-.945 3.655-1.371 3.989-1.676 4.408-1.913 4.911-2.08 5.414-2.247 5.893-2.362 6.35-2.422 6.106-2.758 5.939-3.062 5.848-3.337 5.421-3.245 4.949-3.085 4.431-2.857 3.913-2.628 3.456-2.331 3.061-1.965 2.817-2.148 2.497-2.377 2.101-2.651 1.705-2.925 1.203-3.199 .594-3.474 .472-3.169 .304-2.895 .091-2.651 .548-2.499 .952-2.339 1.302-2.171 1.652-2.004 2.071-1.722 2.558-1.326 2.376-1.082 2.208-.823 2.056-.548 1.903-.274 1.766-.016 1.645 .229 1.462-.107 1.203-.518 .868-1.006 .746-.823 .487-.64 .091-.457 .518 0 .891 .571 1.211 1.257 1.53 1.943 1.751 2.59 1.873 3.199 2.208 3.047 2.573 2.91 2.969 2.788 2.787 2.605 2.604 2.3 2.421 1.874M5.208-4.479V-6.262C5.208-6.657 5.223-7.085 5.254-7.542H4.386V-6.673H2.01V-7.587H1.142C1.172-7.069 1.188-6.597 1.188-6.17V-4.525C1.188-4.068 1.172-3.642 1.142-3.245H5.254C5.223-3.611 5.208-4.022 5.208-4.479M4.386-3.976H2.0100003V-5.896H4.386ZM4.34 1.188H2.101C2.345 .426 2.695-.229 3.152-.777 3.609-.259 4.004 .396 4.34 1.188" fill="#2c292a"/>
<path transform="matrix(1,0,0,-1,219.0608,234.68689)" d="M0 0H1.096C1.827 0 2.421 .015 2.878 .046V-.777C2.391-.747 1.797-.731 1.096-.731H-1.782C-1.843-1.067-1.919-1.433-2.01-1.828H.503C1.172-1.828 1.782-1.813 2.33-1.783V-2.605C1.782-2.575 1.157-2.56 .457-2.56H-2.193C-2.284-2.834-2.406-3.169-2.558-3.565H1.599C2.268-3.565 2.817-3.55 3.244-3.519V-4.342C2.847-4.312 2.314-4.296 1.645-4.296H-2.924C-3.198-4.753-3.442-5.135-3.655-5.439-3.168-5.47-2.65-5.485-2.101-5.485H.503C1.051-5.485 1.553-5.47 2.01-5.439V-6.262C1.553-6.232 1.081-6.216 .594-6.216H-.594V-7.907H1.371C1.614-7.907 2.162-7.892 3.015-7.862V-8.73C2.254-8.699 1.72-8.684 1.416-8.684H-3.929C-4.416-8.684-4.842-8.699-5.208-8.73V-7.862C-4.751-7.892-4.31-7.907-3.883-7.907H-1.508V-6.216H-2.101C-2.68-6.216-3.243-6.232-3.792-6.262V-5.622C-4.097-6.018-4.515-6.46-5.048-6.947-5.581-7.435-6.107-7.877-6.624-8.273-6.868-7.999-7.127-7.755-7.401-7.542-6.731-7.146-6.084-6.673-5.459-6.125-4.835-5.576-4.325-4.967-3.929-4.296H-5.345C-6.046-4.296-6.624-4.312-7.081-4.342V-3.519C-6.624-3.55-6.03-3.565-5.299-3.565H-3.518C-3.366-3.261-3.229-2.925-3.107-2.56H-4.614C-5.041-2.56-5.482-2.575-5.939-2.605V-1.783C-5.33-1.813-4.904-1.828-4.66-1.828H-2.924C-2.832-1.463-2.757-1.097-2.695-.731H-5.025C-5.513-.731-6.03-.747-6.578-.777V.046C-6.122 .015-5.65 0-5.162 0H-3.609C-3.853 .487-4.111 .898-4.386 1.234-4.173 1.355-3.929 1.523-3.655 1.737-3.411 1.432-3.122 1.021-2.787 .503-3.031 .381-3.274 .213-3.518 0H-.914C-.609 .518-.365 1.112-.183 1.783 .121 1.6 .472 1.432 .868 1.28 .594 .975 .304 .548 0 0" fill="#2c292a"/>
<path transform="matrix(1,0,0,-1,226.6771,239.669)" d="M0 0C0 .274-.016 .64-.046 1.097 .259 1.036 .624 1.006 1.051 1.006 .959 .64 .898 .304 .868 0H3.701C3.701 .274 3.685 .64 3.655 1.097H4.706C4.644 .64 4.614 .274 4.614 0H5.573C6.152 0 6.716 .015 7.264 .046V-.823C6.716-.793 6.152-.777 5.573-.777H4.614V-2.011C4.614-2.56 4.629-3.169 4.66-3.839H3.655C3.685-3.138 3.701-2.545 3.701-2.057V-.777H.777C.563-1.691 .213-2.362-.274-2.788-.762-3.214-1.401-3.58-2.193-3.885-2.528-3.428-2.772-3.138-2.924-3.017-1.949-2.804-1.279-2.537-.914-2.217-.548-1.897-.274-1.417-.091-.777H-1.416C-2.056-.777-2.604-.793-3.061-.823V.046C-2.574 .015-2.026 0-1.416 0ZM5.573 4.982C5.573 4.464 5.604 4.037 5.665 3.702L-.731 3.748V2.834C-.731 2.498-.427 2.331 .183 2.331H5.117C5.482 2.3 5.703 2.361 5.779 2.514 5.855 2.666 5.908 2.971 5.939 3.428 6.122 3.306 6.442 3.154 6.898 2.971 6.685 2.361 6.494 1.973 6.327 1.805 6.16 1.638 5.786 1.569 5.208 1.6H-.274C-.853 1.569-1.233 1.653-1.416 1.851-1.599 2.049-1.675 2.315-1.644 2.651V5.028C-1.644 5.546-1.66 5.988-1.69 6.353H5.665C5.604 5.988 5.573 5.53 5.573 4.982M4.706 5.668H-.73099997V4.434H4.706ZM4.706 4.434" fill="#2c292a"/>
<path transform="matrix(1,0,0,-1,238.3596,234.5727)" d="M0 0C-.122-.259-.274-.602-.457-1.028V-6.696C-.457-7.61-.442-8.356-.411-8.936H-1.37C-1.34-8.417-1.325-7.687-1.325-6.742V-2.354C-1.599-2.75-1.835-3.07-2.033-3.314-2.231-3.558-2.406-3.771-2.558-3.954-2.772-3.71-3.015-3.497-3.289-3.314-2.863-2.918-2.498-2.499-2.193-2.057-1.889-1.615-1.622-1.188-1.393-.777-1.165-.366-.975 .038-.822 .434-.67 .83-.548 1.15-.457 1.394-.274 1.241 .076 1.089 .594 .937 .32 .571 .121 .259 0 0M3.335 .114V-3.131C3.913-2.644 4.446-2.141 4.934-1.623 5.421-1.105 5.802-.587 6.076-.069 6.319-.313 6.624-.541 6.99-.754 6.746-1.028 6.334-1.463 5.756-2.057 5.177-2.651 4.728-3.078 4.409-3.337 4.089-3.596 3.73-3.893 3.335-4.228V-7.107C3.335-7.595 3.533-7.839 3.929-7.839H5.711C5.954-7.809 6.114-7.679 6.19-7.45 6.266-7.222 6.334-6.864 6.396-6.376 6.67-6.62 7.02-6.772 7.446-6.833 7.264-7.687 7.065-8.204 6.853-8.387 6.639-8.57 6.35-8.661 5.985-8.661H3.426C2.787-8.661 2.451-8.296 2.421-7.564V-4.868C2.208-5.051 1.942-5.249 1.622-5.462 1.302-5.675 .944-5.904 .548-6.148 .365-5.843 .152-5.584-.091-5.371 .304-5.188 .738-4.952 1.211-4.662 1.683-4.373 2.086-4.091 2.421-3.816V.297C2.421 .663 2.406 .983 2.376 1.257H3.381C3.35 1.104 3.335 .723 3.335 .114" fill="#2c292a"/>
<path transform="matrix(1,0,0,-1,220.0363,247.83152)" d="M0 0C1.096 0 1.903 .03 2.421 .091V-.777C1.903-.747 1.111-.731 .046-.731V-2.605H1.919C1.888-3.276 1.873-3.992 1.873-4.753 1.873-5.485 1.888-6.292 1.919-7.176H1.005V-6.445H-1.325V-7.313H-2.239C-2.209-6.521-2.193-5.729-2.193-4.936-2.193-4.114-2.209-3.337-2.239-2.605H-.868C-.868-.107-.884 1.508-.914 2.24H.046C.015 1.538 0 .792 0 0M1.051-3.337H-1.3249999V-5.668H1.051ZM6.51-3.862C6.22-4.426 5.862-5.013 5.436-5.622 5.954-6.506 6.38-7.009 6.715-7.13 7.05-7.252 7.324-6.841 7.538-5.896 7.781-6.17 8.07-6.415 8.406-6.627 7.979-7.572 7.499-8.082 6.967-8.159 6.434-8.234 5.725-7.602 4.842-6.262 4.477-6.658 4.104-7.009 3.723-7.313 3.342-7.617 2.862-7.968 2.284-8.364 2.101-8.12 1.873-7.877 1.599-7.633 1.964-7.48 2.436-7.192 3.015-6.765 3.593-6.338 4.066-5.896 4.431-5.439 4.279-5.135 4.111-4.624 3.929-3.908 3.746-3.192 3.624-2.545 3.563-1.965 3.015-2.057 2.482-2.164 1.964-2.285 1.903-1.981 1.842-1.707 1.782-1.463 2.238-1.402 2.802-1.31 3.472-1.188 3.411 .121 3.35 1.295 3.289 2.331 3.655 2.3 3.989 2.285 4.294 2.285 4.233 1.401 4.233 .289 4.294-1.051 4.964-.96 6.091-.747 7.675-.411 7.675-.686 7.705-.96 7.766-1.234 7.065-1.356 5.939-1.554 4.385-1.828 4.538-3.047 4.751-4.007 5.025-4.708 5.329-4.281 5.558-3.87 5.71-3.474 5.862-3.078 6.014-2.651 6.167-2.194 6.533-2.407 6.868-2.56 7.172-2.651 7.02-2.895 6.799-3.299 6.51-3.862M6.99 .503C6.715 .32 6.456 .106 6.213-.137 6.03 .167 5.665 .64 5.117 1.28 5.36 1.432 5.603 1.6 5.848 1.783 6.426 1.112 6.807 .686 6.99 .503" fill="#2c292a"/>
<path transform="matrix(1,0,0,-1,233.5459,248.6542)" d="M0 0V-4.114C0-4.632 .015-5.256 .046-5.988H-.777V-5.393H-3.198V-6.262H-4.066C-4.005-5.775-3.975-5.226-3.975-4.616V0C-3.975 .701-4.005 1.326-4.066 1.874H.046C.015 1.173 0 .548 0 0M-2.376 1.188H-3.198V-1.326H-2.376ZM-2.376-2.057H-3.198V-4.6619999H-2.376ZM-.777 1.188H-1.599V-1.326H-.777ZM-.777-2.057H-1.599V-4.6619999H-.777ZM2.421 1.874H5.482C5.299 1.295 5.048 .716 4.728 .137 4.409-.442 4.05-.945 3.655-1.371 3.989-1.676 4.409-1.913 4.911-2.08 5.414-2.247 5.893-2.362 6.35-2.422 6.106-2.758 5.939-3.062 5.848-3.337 5.421-3.245 4.949-3.085 4.431-2.857 3.913-2.628 3.456-2.331 3.061-1.965 2.817-2.148 2.497-2.377 2.101-2.651 1.705-2.925 1.203-3.199 .594-3.474 .472-3.169 .304-2.895 .091-2.651 .548-2.499 .952-2.339 1.302-2.171 1.652-2.004 2.071-1.722 2.558-1.326 2.376-1.082 2.208-.823 2.056-.548 1.903-.274 1.766-.016 1.645 .229 1.462-.107 1.203-.518 .868-1.006 .746-.823 .487-.64 .091-.457 .517 0 .891 .571 1.211 1.257 1.53 1.943 1.751 2.59 1.873 3.199 2.208 3.047 2.573 2.91 2.969 2.788 2.787 2.605 2.604 2.3 2.421 1.874M5.208-4.479V-6.262C5.208-6.657 5.223-7.085 5.254-7.542H4.386V-6.673H2.01V-7.587H1.142C1.172-7.069 1.188-6.597 1.188-6.17V-4.525C1.188-4.068 1.172-3.642 1.142-3.245H5.254C5.223-3.611 5.208-4.022 5.208-4.479M4.386-3.976H2.0100003V-5.896H4.386ZM4.34 1.188H2.101C2.345 .426 2.695-.229 3.152-.777 3.609-.259 4.004 .396 4.34 1.188" fill="#2c292a"/>
<path transform="matrix(1,0,0,-1,183.4412,304.1202)" d="M0 0C-.29-.564-.647-1.181-1.074-1.851-.647-1.851-.16-1.836 .388-1.805 .662-1.257 .875-.77 1.028-.343 1.332-.556 1.637-.708 1.942-.8 1.789-1.044 1.446-1.615 .914-2.514 .38-3.413-.13-4.152-.617-4.731 .418-4.639 1.211-4.564 1.759-4.502 1.637-4.746 1.56-5.021 1.53-5.325 1.256-5.325 .761-5.363 .046-5.439-.67-5.516-1.211-5.599-1.576-5.69-1.698-5.356-1.82-5.081-1.942-4.868-1.546-4.564-1.211-4.236-.937-3.885-.662-3.535-.358-3.085-.023-2.537-.328-2.537-.64-2.56-.959-2.605-1.279-2.651-1.576-2.735-1.85-2.857-1.942-2.522-2.079-2.232-2.261-1.988-1.927-1.684-1.561-1.173-1.165-.457-.769 .259-.45 .983-.206 1.714 .099 1.5 .434 1.348 .799 1.257 .555 .983 .289 .563 0 0M1.85-7.336C1.241-7.427 .578-7.564-.137-7.747-.853-7.93-1.439-8.097-1.896-8.25-1.957-7.976-2.064-7.656-2.216-7.29-1.546-7.169-.891-7.047-.251-6.925 .388-6.803 1.119-6.65 1.942-6.467 1.88-6.773 1.85-7.062 1.85-7.336M7.972-.937V-6.787C7.972-7.123 7.987-7.702 8.018-8.524H7.104V-7.656H3.175V-8.616H2.307C2.337-8.189 2.353-7.641 2.353-6.97V-1.074C2.353-.526 2.337-.008 2.307 .48H8.018C7.987-.008 7.972-.48 7.972-.937M4.683-.251H3.1750003V-3.131H4.683ZM4.683-3.817H3.1750003V-6.925H4.683ZM7.104-.251H5.505V-3.131H7.104ZM7.104-3.817H5.505V-6.925H7.104ZM7.104-6.925" fill="#2c292a"/>
<path transform="matrix(1,0,0,-1,196.4712,304.2802)" d="M0 0C-.183-.366-.365-.694-.548-.983-.731-1.273-1.005-1.661-1.371-2.148-1.736-2.636-2.178-3.139-2.695-3.657-2.969-3.382-3.244-3.169-3.518-3.017-2.909-2.468-2.429-1.965-2.079-1.508-1.729-1.051-1.393-.556-1.074-.023-.754 .51-.472 1.097-.228 1.737 .015 1.554 .32 1.401 .685 1.28 .411 .792 .183 .366 0 0M-3.198-7.953C-2.711-7.77-2.269-7.549-1.873-7.29-1.478-7.032-1.127-6.712-.822-6.33-.518-5.95-.29-5.531-.137-5.073 .015-4.616 .121-4.053 .183-3.382-.518-3.382-1.081-3.398-1.508-3.428V-2.468C-1.021-2.499-.396-2.514 .366-2.514H4.934C4.872-2.971 4.827-3.367 4.797-3.702L4.431-7.085C4.37-7.633 4.126-7.999 3.7-8.181 3.274-8.364 2.802-8.471 2.284-8.501 2.254-8.196 2.101-7.846 1.827-7.45 2.467-7.481 2.901-7.458 3.129-7.382 3.358-7.306 3.502-7.039 3.563-6.582L3.883-3.382H1.142C1.051-4.175 .921-4.838 .754-5.371 .586-5.904 .35-6.369 .046-6.765-.259-7.161-.625-7.527-1.051-7.862-1.478-8.196-1.934-8.486-2.421-8.73-2.635-8.394-2.894-8.136-3.198-7.953M4.271-.274C4.926-1.097 5.847-1.813 7.035-2.422 6.791-2.636 6.548-2.956 6.305-3.382 5.756-2.987 5.276-2.613 4.866-2.263 4.454-1.913 4.112-1.585 3.838-1.28 3.563-.976 3.258-.541 2.924 .023 2.588 .586 2.314 1.112 2.101 1.6 2.436 1.691 2.725 1.797 2.969 1.92 3.182 1.28 3.616 .548 4.271-.274" fill="#2c292a"/>
<path transform="matrix(1,0,0,-1,212.5393,304.1431)" d="M0 0C.731 0 1.522 .015 2.376 .046V-.868C1.522-.838 .731-.823 0-.823H-2.376V-2.377H1.142C1.111-2.925 1.096-3.489 1.096-4.068V-6.307C1.096-6.826 .921-7.176 .571-7.359 .221-7.542-.274-7.664-.914-7.724-.975-7.359-1.112-6.993-1.325-6.627-.685-6.627-.282-6.613-.114-6.582 .053-6.552 .137-6.399 .137-6.125V-3.199H-2.376V-6.81C-2.376-7.572-2.361-8.227-2.33-8.776H-3.381C-3.351-8.227-3.335-7.572-3.335-6.81V-3.199H-5.893V-7.679H-6.898C-6.868-7.192-6.853-6.613-6.853-5.942V-4.251C-6.853-3.55-6.868-2.925-6.898-2.377H-3.335V-.823H-5.711C-6.503-.823-7.294-.838-8.086-.868V.046C-7.294 .015-6.503 0-5.711 0ZM-2.147 .503C-2.483 .35-2.757 .198-2.97 .046-3.244 .533-3.594 1.006-4.02 1.463-3.777 1.645-3.533 1.813-3.289 1.965-2.924 1.6-2.543 1.112-2.147 .503" fill="#2c292a"/>
<path transform="matrix(1,0,0,-1,217.6886,303.8232)" d="M0 0C0 .335-.016 .761-.046 1.28H.914C.883 .731 .868 .304 .868 0V-1.691C1.325-1.691 1.797-1.676 2.284-1.645V-2.468C1.736-2.438 1.264-2.422 .868-2.422V-5.759C1.203-5.638 1.705-5.424 2.376-5.119 2.376-5.393 2.391-5.668 2.421-5.942 1.903-6.186 1.279-6.453 .548-6.742-.183-7.032-.792-7.313-1.279-7.587-1.401-7.313-1.584-7.009-1.827-6.673-1.279-6.521-.67-6.323 0-6.079V-2.422C-.67-2.422-1.203-2.438-1.599-2.468V-1.645C-1.081-1.676-.548-1.691 0-1.691ZM8.086 1.143V.411C7.659 .32 7.195 .046 6.693-.411 6.19-.868 5.512-1.508 4.66-2.331H8.771C8.741-2.545 8.71-3.032 8.68-3.794L8.497-7.222C8.467-7.984 8.307-8.456 8.018-8.639 7.728-8.821 7.218-8.943 6.487-9.004 6.426-8.639 6.289-8.273 6.076-7.907 6.716-7.969 7.127-7.953 7.31-7.862 7.492-7.77 7.599-7.572 7.629-7.267L7.812-3.108H6.944C6.791-4.022 6.608-4.784 6.396-5.393 6.182-6.003 5.931-6.529 5.642-6.97 5.352-7.412 5.025-7.793 4.66-8.113 4.294-8.433 3.838-8.76 3.289-9.096 3.137-8.791 2.924-8.531 2.65-8.319 3.167-8.044 3.639-7.724 4.066-7.359 4.492-6.993 4.843-6.567 5.117-6.079 5.391-5.592 5.596-5.073 5.733-4.525 5.871-3.976 5.969-3.504 6.03-3.108H5.117C5.055-3.565 4.926-4.03 4.728-4.502 4.53-4.975 4.249-5.439 3.883-5.896 3.518-6.353 3.045-6.795 2.467-7.222 2.345-7.009 2.116-6.78 1.782-6.536 2.513-6.14 3.084-5.607 3.495-4.936 3.906-4.266 4.142-3.656 4.203-3.108 3.867-3.139 3.639-3.169 3.518-3.199 3.396-3.23 3.198-3.291 2.924-3.382 2.832-3.017 2.741-2.712 2.65-2.468 3.167-2.408 3.769-2.065 4.454-1.44 5.139-.816 5.756-.214 6.304 .366H4.569C3.898 .366 3.274 .35 2.696 .32V1.188C3.244 1.158 3.853 1.143 4.523 1.143Z" fill="#2c292a"/>
<path transform="matrix(1,0,0,-1,195.1378,318.5601)" d="M0 0C1.096 0 1.903 .03 2.421 .091V-.777C1.903-.747 1.111-.731 .046-.731V-2.605H1.919C1.888-3.276 1.873-3.992 1.873-4.753 1.873-5.485 1.888-6.293 1.919-7.176H1.005V-6.445H-1.325V-7.313H-2.238C-2.209-6.521-2.193-5.729-2.193-4.936-2.193-4.114-2.209-3.337-2.238-2.605H-.868C-.868-.107-.884 1.508-.914 2.24H.046C.015 1.538 0 .792 0 0M1.051-3.337H-1.3249999V-5.668H1.051ZM6.51-3.862C6.22-4.426 5.863-5.013 5.436-5.622 5.954-6.506 6.38-7.009 6.715-7.13 7.05-7.252 7.324-6.841 7.538-5.896 7.781-6.17 8.07-6.415 8.406-6.627 7.979-7.572 7.499-8.082 6.967-8.159 6.434-8.234 5.725-7.602 4.842-6.262 4.477-6.658 4.104-7.009 3.723-7.313 3.342-7.617 2.862-7.968 2.284-8.364 2.101-8.12 1.873-7.876 1.599-7.633 1.964-7.48 2.436-7.192 3.015-6.765 3.593-6.338 4.066-5.896 4.431-5.439 4.279-5.135 4.112-4.624 3.929-3.908 3.746-3.192 3.624-2.545 3.563-1.965 3.015-2.057 2.482-2.164 1.964-2.285 1.903-1.981 1.842-1.707 1.782-1.463 2.239-1.402 2.802-1.311 3.472-1.188 3.411 .121 3.35 1.295 3.289 2.331 3.655 2.3 3.99 2.285 4.294 2.285 4.233 1.401 4.233 .289 4.294-1.051 4.964-.96 6.091-.747 7.675-.411 7.675-.686 7.705-.96 7.766-1.234 7.065-1.356 5.939-1.554 4.386-1.828 4.538-3.047 4.751-4.007 5.025-4.708 5.329-4.281 5.558-3.87 5.711-3.474 5.863-3.078 6.015-2.651 6.167-2.194 6.533-2.408 6.868-2.56 7.172-2.651 7.02-2.895 6.799-3.299 6.51-3.862M6.99 .503C6.715 .32 6.457 .106 6.213-.137 6.03 .167 5.665 .64 5.117 1.28 5.36 1.432 5.603 1.6 5.848 1.783 6.426 1.112 6.807 .686 6.99 .503" fill="#2c292a"/>
<path transform="matrix(1,0,0,-1,208.6474,319.3828)" d="M0 0V-4.114C0-4.632 .015-5.256 .046-5.988H-.777V-5.393H-3.198V-6.262H-4.066C-4.005-5.775-3.975-5.226-3.975-4.616V0C-3.975 .701-4.005 1.326-4.066 1.874H.046C.015 1.173 0 .548 0 0M-2.376 1.188H-3.198V-1.326H-2.376ZM-2.376-2.057H-3.198V-4.6619999H-2.376ZM-.777 1.188H-1.599V-1.326H-.777ZM-.777-2.057H-1.599V-4.6619999H-.777ZM2.421 1.874H5.482C5.299 1.295 5.048 .716 4.728 .137 4.409-.442 4.05-.945 3.655-1.371 3.989-1.676 4.409-1.913 4.911-2.08 5.414-2.248 5.893-2.362 6.35-2.422 6.106-2.758 5.939-3.062 5.848-3.337 5.421-3.245 4.949-3.085 4.431-2.857 3.913-2.628 3.456-2.331 3.061-1.965 2.817-2.148 2.497-2.377 2.101-2.651 1.705-2.925 1.203-3.199 .594-3.474 .472-3.169 .304-2.895 .091-2.651 .548-2.499 .952-2.339 1.302-2.171 1.652-2.004 2.071-1.722 2.558-1.325 2.376-1.082 2.208-.823 2.056-.548 1.903-.274 1.766-.016 1.645 .229 1.462-.107 1.203-.518 .868-1.006 .746-.823 .487-.64 .091-.457 .517 0 .891 .571 1.211 1.257 1.53 1.943 1.751 2.59 1.873 3.199 2.208 3.047 2.573 2.91 2.969 2.788 2.787 2.605 2.604 2.3 2.421 1.874M5.208-4.479V-6.262C5.208-6.657 5.223-7.085 5.254-7.542H4.386V-6.673H2.01V-7.587H1.142C1.172-7.069 1.188-6.597 1.188-6.17V-4.525C1.188-4.068 1.172-3.642 1.142-3.245H5.254C5.223-3.611 5.208-4.022 5.208-4.479M4.386-3.976H2.0100003V-5.896H4.386ZM4.34 1.188H2.101C2.345 .426 2.695-.229 3.152-.777 3.609-.259 4.004 .396 4.34 1.188" fill="#2c292a"/>
</g>
<path transform="matrix(1,0,0,-1,156.2527,251.94229)" d="M0 0-27.839 15.275-27.203 16.434 .636 1.159Z" fill="#2c292a"/>
<path transform="matrix(1,0,0,-1,247.5645,241.86042)" d="M0 0-.856 1.007 15.064 14.543 15.92 13.536Z" fill="#2c292a"/>
<path transform="matrix(1,0,0,-1,0,595.276)" d="M203.045 250.399H201.657V266.973H203.045Z" fill="#2c292a"/>
<g clip-path="url(#clip_6)">
<path transform="matrix(1,0,0,-1,111.4146,227.5126)" d="M0 0C-.518-.122-.944-.221-1.279-.297-1.615-.374-2.14-.518-2.855-.731-3.571-.945-4.082-1.097-4.386-1.188-4.508-.762-4.63-.427-4.751-.183-4.568-.183-3.914-.061-2.787 .183V5.302H-3.152C-3.518 5.302-3.96 5.286-4.477 5.256V6.125C-3.99 6.094-3.548 6.079-3.152 6.079H-1.462C-1.036 6.079-.655 6.094-.32 6.125V5.256C-.685 5.286-1.051 5.302-1.416 5.302H-1.873V.366L-.959 .594C-.716 .655-.427 .731-.091 .823ZM4.249-2.4C3.822-2.537 3.35-2.635 2.832-2.697 2.771-2.331 2.619-1.98 2.376-1.645 3.015-1.676 3.464-1.653 3.723-1.577 3.982-1.501 4.127-1.326 4.157-1.051 4.309 .594 4.431 2.331 4.523 4.159H2.467C2.436 3.275 2.36 2.452 2.239 1.691 2.116 .929 1.911 .274 1.622-.274 1.332-.823 1.005-1.31 .64-1.737 .274-2.163-.153-2.59-.64-3.017-.853-2.712-1.127-2.468-1.462-2.285-.792-1.858-.29-1.448 .046-1.051 .38-.656 .67-.206 .914 .297 1.157 .8 1.325 1.355 1.416 1.965 1.508 2.575 1.568 3.306 1.599 4.159H.914C.548 4.159 .183 4.144-.183 4.114V4.982C.213 4.951 .609 4.936 1.005 4.936H1.599V6.536C1.599 6.902 1.583 7.267 1.553 7.633 1.949 7.542 2.299 7.48 2.604 7.45 2.543 7.237 2.505 6.902 2.49 6.445 2.474 5.988 2.467 5.485 2.467 4.936H5.482C5.451 4.509 5.421 4.106 5.391 3.725 5.36 3.344 5.254 1.66 5.071-1.326 4.949-1.904 4.675-2.262 4.249-2.4" fill="#2c292a"/>
<path transform="matrix(1,0,0,-1,122.9142,223.21619)" d="M0 0C-1.005-.061-1.843-.122-2.513-.183-3.183-.244-3.685-.32-4.02-.411-4.112-.046-4.219 .274-4.34 .548-4.127 .64-3.8 .967-3.358 1.531-2.917 2.095-2.558 2.697-2.284 3.337-2.132 3.214-1.964 3.123-1.782 3.062-1.599 3.001-1.401 2.925-1.188 2.834-1.432 2.651-1.683 2.377-1.942 2.011-2.201 1.645-2.62 1.127-3.198 .457-1.919 .518-.975 .563-.365 .594-.731 1.081-.99 1.401-1.142 1.554-.929 1.675-.685 1.843-.411 2.057-.168 1.721 .068 1.417 .297 1.143 .525 .868 .822 .518 1.188 .091 .852-.153 .578-.351 .365-.503 .274-.351 .152-.183 0 0M-.548-6.239C-.488-6.132-.457-5.973-.457-5.759V-5.119H-2.924V-7.267H-3.792C-3.762-6.657-3.746-6.11-3.746-5.622V-2.56C-3.746-2.011-3.762-1.524-3.792-1.097H.411C.38-1.554 .365-2.057 .365-2.605V-6.445C.335-6.78 .198-6.993-.046-7.085-.29-7.176-.64-7.252-1.096-7.313-1.158-7.039-1.279-6.734-1.462-6.399-.914-6.399-.61-6.345-.548-6.239M-.457-1.828H-2.924V-2.6959999H-.457ZM-.457-3.428H-2.924V-4.388H-.457ZM2.33 1.371C2.756 1.554 3.167 1.744 3.563 1.943 3.959 2.14 4.355 2.392 4.751 2.697 4.995 2.392 5.208 2.133 5.391 1.92 5.208 1.858 4.82 1.683 4.226 1.394 3.632 1.104 2.999 .853 2.33 .64V-.046C2.33-.411 2.543-.594 2.969-.594H4.294C4.598-.594 4.797-.199 4.888 .594 5.192 .441 5.497 .304 5.802 .183 5.588-.793 5.208-1.28 4.66-1.28H2.604C1.873-1.28 1.508-.945 1.508-.274V2.057C1.508 2.422 1.492 2.818 1.462 3.245H2.376C2.345 3.032 2.33 2.59 2.33 1.92ZM4.363-3.611C3.769-3.885 3.091-4.144 2.33-4.388V-5.668C2.33-6.033 2.497-6.216 2.832-6.216H4.477C4.72-6.155 4.888-5.775 4.979-5.073 5.223-5.196 5.528-5.318 5.893-5.439 5.68-6.414 5.329-6.902 4.842-6.902H2.376C1.797-6.902 1.508-6.612 1.508-6.033V-3.062C1.508-2.605 1.492-2.194 1.462-1.828H2.376C2.345-2.194 2.33-2.59 2.33-3.017V-3.611C2.634-3.519 3.038-3.352 3.54-3.108 4.043-2.865 4.446-2.605 4.751-2.331 5.025-2.697 5.254-2.971 5.436-3.154 5.314-3.184 4.957-3.337 4.363-3.611" fill="#2c292a"/>
<path transform="matrix(1,0,0,-1,270.0989,222.01309)" d="M0 0V-5.85C0-6.795 .015-7.48 .046-7.907H-.868C-.838-7.511-.822-6.841-.822-5.896V-1.6C-.975-1.935-1.279-2.453-1.736-3.154-1.889-2.88-2.102-2.651-2.376-2.468-2.01-2.103-1.584-1.379-1.096-.297-.61 .784-.305 1.706-.183 2.468 .152 2.315 .503 2.178 .868 2.057 .655 1.783 .365 1.097 0 0M3.883 .137C3.883 1.234 3.867 2.011 3.837 2.468H4.751C4.72 2.041 4.705 1.264 4.705 .137H6.716C7.324 .137 7.766 .152 8.04 .183V-.64C7.766-.61 7.324-.594 6.716-.594H5.482C5.969-2.545 6.99-3.916 8.543-4.708 8.207-4.891 7.949-5.15 7.766-5.485 6.122-4.236 5.101-2.621 4.705-.64V-5.028C5.588-5.028 6.167-5.013 6.442-4.982V-5.805C6.167-5.775 5.588-5.759 4.705-5.759 4.705-6.43 4.72-7.16 4.751-7.953H3.837C3.867-7.13 3.883-6.399 3.883-5.759 3.335-5.759 2.756-5.775 2.147-5.805V-4.982C2.756-5.013 3.335-5.028 3.883-5.028V-.594C3.548-2.605 2.543-4.312 .868-5.713 .685-5.439 .411-5.211 .046-5.028 1.629-3.992 2.634-2.514 3.061-.594H2.102C1.614-.594 1.188-.61 .822-.64V.183C1.188 .152 1.614 .137 2.102 .137Z" fill="#2c292a"/>
<path transform="matrix(1,0,0,-1,282.101,227.63501)" d="M0 0C-.457-.091-.83-.168-1.119-.229-1.409-.29-1.858-.411-2.467-.594-2.558-.259-2.665 .076-2.787 .411-2.361 .441-1.919 .487-1.462 .548-1.005 .609-.487 .686 .091 .777 .061 .564 .03 .304 0 0M1.051 7.359C.989 7.085 .944 6.688 .914 6.17L.594 2.605H1.462C1.431 2.361 1.4 1.95 1.371 1.371L1.188-1.143C1.188-1.783 1.005-2.148 .639-2.24 .274-2.331-.228-2.422-.868-2.514-.959-2.087-1.081-1.737-1.233-1.463-.594-1.463-.176-1.455 .023-1.44 .221-1.424 .35-1.28 .411-1.006L.548 1.828H-2.147C-2.117 2.407-2.094 3.039-2.079 3.725-2.064 4.411-2.056 5.058-2.056 5.668H-1.142C-1.203 5.332-1.249 4.898-1.279 4.365-1.31 3.832-1.325 3.245-1.325 2.605H-.183L.137 6.627H-1.096C-1.584 6.627-2.056 6.612-2.513 6.582V7.404C-2.056 7.374-1.584 7.359-1.096 7.359ZM4.751 7.633C5.238 6.719 5.74 6.048 6.259 5.622 6.776 5.195 7.385 4.86 8.086 4.616 7.812 4.372 7.599 4.068 7.447 3.702 7.02 3.946 6.608 4.235 6.213 4.571V3.794C5.817 3.824 5.254 3.839 4.523 3.839 3.792 3.839 3.198 3.824 2.741 3.794V4.525C2.558 4.281 2.299 3.961 1.964 3.565 1.69 3.839 1.4 4.052 1.096 4.205 1.583 4.54 1.956 4.875 2.216 5.211 2.474 5.546 2.702 5.896 2.901 6.262 3.099 6.627 3.266 6.962 3.403 7.267 3.541 7.572 3.655 7.907 3.746 8.273 4.141 8.181 4.553 8.09 4.979 7.999ZM6.716 1.897C6.624 1.577 6.479 1.074 6.282 .389 6.083-.297 5.923-.838 5.802-1.234H6.442C6.654-1.234 6.99-1.219 7.447-1.188V-2.011C7.05-1.98 6.716-1.965 6.442-1.965H2.924C2.376-1.965 1.979-1.98 1.736-2.011V-1.188C2.102-1.219 2.513-1.234 2.969-1.234H5.025C5.269-.564 5.466 .121 5.619 .823L6.076 2.925C6.319 2.834 6.654 2.742 7.081 2.651 6.928 2.468 6.807 2.217 6.716 1.897M3.175 1.234C3.312 .686 3.441 .183 3.563-.274 3.289-.305 3.03-.381 2.787-.503 2.695 .076 2.596 .564 2.49 .96 2.383 1.355 2.238 1.858 2.056 2.468 2.299 2.56 2.543 2.635 2.787 2.697 2.908 2.27 3.038 1.783 3.175 1.234M6.167 4.616C5.802 4.891 5.466 5.226 5.162 5.622 4.857 6.018 4.553 6.52 4.249 7.13 4.005 6.642 3.784 6.223 3.586 5.873 3.388 5.523 3.121 5.103 2.787 4.616ZM4.705 1.737C4.766 1.341 4.843 .838 4.934 .229L4.203 .046C4.081 .716 3.989 1.226 3.929 1.577 3.867 1.927 3.792 2.331 3.701 2.788 3.975 2.849 4.249 2.895 4.523 2.925Z" fill="#2c292a"/>
<path transform="matrix(1,0,0,-1,195.5272,353.1754)" d="M0 0C-.305-.366-.533-.716-.685-1.051-2.665-.199-4.264 1.158-5.482 3.017-6.609 1.218-8.117-.183-10.005-1.188-10.158-.914-10.416-.625-10.781-.32-9.32 .289-8.185 1.066-7.378 2.011-6.571 2.955-6.03 3.809-5.756 4.571-5.391 4.418-5.025 4.281-4.66 4.159-4.782 4.007-4.888 3.869-4.98 3.748-3.7 1.858-2.041 .609 0 0M-5.893-.777C-5.893-.29-5.924 .335-5.985 1.097H-4.934C-4.965 .579-4.98-.061-4.98-.823V-4.068C-4.98-4.769-4.965-5.485-4.934-6.216H-5.939C-5.909-5.454-5.893-4.753-5.893-4.114Z" fill="#2c292a"/>
<path transform="matrix(1,0,0,-1,197.2047,354.3181)" d="M0 0C-.305 .061-.579 .121-.822 .183-.61 .975-.442 1.92-.32 3.017-.076 2.986 .198 2.94 .503 2.88 .32 1.6 .152 .64 0 0M1.782 3.702V-3.154C1.782-3.794 1.797-4.434 1.827-5.073H.868C.898-4.434 .914-3.794 .914-3.154V3.702C.914 4.342 .898 4.936 .868 5.485H1.827C1.797 4.875 1.782 4.281 1.782 3.702M3.335 1.554C3.061 1.463 2.817 1.356 2.604 1.234 2.391 1.904 2.162 2.529 1.919 3.108 2.162 3.229 2.391 3.337 2.604 3.428 2.848 2.94 3.091 2.315 3.335 1.554M4.706 2.925H6.122V3.885C6.122 4.403 6.106 4.906 6.076 5.393H7.036C7.005 4.906 6.99 4.403 6.99 3.885V2.925H7.904C8.299 2.925 8.771 2.94 9.32 2.971V2.103C8.771 2.133 8.299 2.148 7.904 2.148H6.99V-.274H7.812C8.269-.274 8.726-.259 9.183-.229V-1.097C8.726-1.067 8.269-1.051 7.812-1.051H6.99V-3.885H8.223C8.741-3.885 9.243-3.87 9.731-3.839V-4.662C9.243-4.631 8.741-4.616 8.223-4.616H4.706C4.157-4.616 3.624-4.631 3.107-4.662V-3.839C3.624-3.87 4.142-3.885 4.66-3.885H6.122V-1.051H5.345C4.949-1.051 4.492-1.067 3.975-1.097V-.229C4.37-.259 4.827-.274 5.345-.274H6.122V2.148H4.523C4.431 1.691 4.187 1.02 3.792 .137 3.456 .32 3.182 .426 2.97 .457 3.396 1.34 3.67 2.103 3.792 2.742 3.913 3.382 4.02 3.991 4.111 4.571 4.416 4.479 4.72 4.403 5.025 4.342 4.873 3.794 4.766 3.321 4.706 2.925" fill="#2c292a"/>
<path transform="matrix(1,0,0,-1,211.354,350.3188)" d="M0 0C-.122-.259-.274-.602-.457-1.028V-6.696C-.457-7.61-.442-8.356-.411-8.936H-1.37C-1.34-8.417-1.325-7.687-1.325-6.742V-2.354C-1.599-2.75-1.835-3.07-2.033-3.314-2.231-3.558-2.406-3.771-2.558-3.954-2.772-3.71-3.015-3.497-3.289-3.314-2.863-2.918-2.498-2.499-2.193-2.057-1.889-1.615-1.622-1.188-1.393-.777-1.165-.366-.975 .038-.822 .434-.67 .83-.548 1.15-.457 1.394-.274 1.241 .076 1.089 .594 .937 .32 .571 .121 .259 0 0M3.335 .114V-3.131C3.913-2.644 4.446-2.141 4.934-1.623 5.421-1.105 5.802-.587 6.076-.069 6.32-.313 6.624-.541 6.99-.754 6.746-1.028 6.334-1.463 5.756-2.057 5.177-2.651 4.728-3.078 4.409-3.337 4.089-3.596 3.73-3.893 3.335-4.228V-7.107C3.335-7.595 3.533-7.839 3.929-7.839H5.711C5.954-7.809 6.114-7.679 6.19-7.45 6.266-7.222 6.334-6.864 6.396-6.376 6.67-6.62 7.02-6.773 7.447-6.833 7.264-7.687 7.065-8.204 6.853-8.387 6.639-8.57 6.35-8.661 5.985-8.661H3.426C2.787-8.661 2.451-8.296 2.421-7.564V-4.868C2.208-5.051 1.942-5.249 1.622-5.462 1.302-5.676 .944-5.904 .548-6.148 .365-5.843 .152-5.584-.091-5.371 .304-5.188 .738-4.952 1.211-4.662 1.683-4.373 2.086-4.091 2.421-3.816V.297C2.421 .663 2.406 .983 2.376 1.257H3.381C3.35 1.104 3.335 .723 3.335 .114" fill="#2c292a"/>
</g>
</g>
</g>
</svg>
