<svg xmlns="http://www.w3.org/2000/svg" xmlns:xlink="http://www.w3.org/1999/xlink" xmlns:inkscape="http://www.inkscape.org/namespaces/inkscape" version="1.1" width="411.024" height="595.276" viewBox="0 0 411.024 595.276">
<defs>
<clipPath id="clip_1">
<path transform="matrix(1,0,0,-1,0,595.276)" d="M0 0H411.024V595.276H0Z"/>
</clipPath>
<clipPath id="clip_2">
<path transform="matrix(1,0,0,-1,0,595.276)" d="M0 0H411.024V595.276H0Z"/>
</clipPath>
<path id="font_3_6" d="M.48199464 .11273193V.17773438H.394989V.37979127H.32398988V.17773438H.116989139L.37399293 .71191409H.29699708L.039993287 .17773438V.11273193H.32398988V0H.394989V.11273193H.48199464Z"/>
<path id="font_3_2" d="M.45599366 .19004822V.5218506C.45599366 .6397705 .37199403 .71777346 .26098634 .71777346 .1499939 .71777346 .06599426 .6397705 .06599426 .5218506V.19004822C.06599426 .072128299 .1499939-.005859375 .26098634-.005859375 .37199403-.005859375 .45599366 .072128299 .45599366 .19004822M.38398744 .19404602C.38398744 .116104129 .33999635 .058135988 .26098634 .058135988 .18199158 .058135988 .13798523 .116104129 .13798523 .19404602V.5178528C.13798523 .5957947 .18199158 .6537628 .26098634 .6537628 .33999635 .6537628 .38398744 .5957947 .38398744 .5178528V.19404602Z"/>
<clipPath id="clip_4">
<path transform="matrix(1,0,0,-1,0,595.276)" d="M0 0H411.024V595.276H0Z"/>
</clipPath>
<clipPath id="clip_5">
<path transform="matrix(1,0,0,-1,0,595.276)" d="M0 0H411.024V595.276H0Z"/>
</clipPath>
<clipPath id="clip_6">
<path transform="matrix(1,0,0,-1,0,595.276)" d="M0 0H411.024V595.276H0Z"/>
</clipPath>
<clipPath id="clip_7">
<path transform="matrix(1,0,0,-1,0,595.276)" d="M0 0H411.024V595.276H0Z"/>
</clipPath>
<clipPath id="clip_8">
<path transform="matrix(1,0,0,-1,0,595.276)" d="M0 0H411.024V595.276H0Z"/>
</clipPath>
<clipPath id="clip_9">
<path transform="matrix(1,0,0,-1,0,595.276)" d="M0 0H411.024V595.276H0Z"/>
</clipPath>
</defs>
<g clip-path="url(#clip_1)">
<g clip-path="url(#clip_2)">
<use data-text="4" xlink:href="#font_3_6" transform="matrix(9,0,0,-9,35.4331,567.547)" fill="#f43040"/>
<use data-text="0" xlink:href="#font_3_2" transform="matrix(9,0,0,-9,39.0331,567.547)" fill="#f43040"/>
<use data-text="4" xlink:href="#font_3_6" transform="matrix(9,0,0,-9,42.6331,567.547)" fill="#f43040"/>
<path transform="matrix(1,0,0,-1,193.0747,318.4278)" d="M0 0-4.699 3.278H-40.021V4.615H-4.278L0 1.631 4.278 4.615H38.899V3.278H4.699Z" fill="#f43040"/>
<g clip-path="url(#clip_4)">
<path transform="matrix(1,0,0,-1,137.9167,328.1175)" d="M0 0C-.715-.038-1.523-.056-2.425-.056V-1.016H-1.184C-.245-1.016 .657-.997 1.523-.959V-1.806C.657-1.769-.226-1.749-1.128-1.749H-2.425V-2.426H.79C1.616-2.426 2.406-2.408 3.159-2.37V-3.273C2.444-3.236 1.654-3.216 .79-3.216H-2.425V-4.345C-2.501-4.721-2.67-4.975-2.933-5.107-3.196-5.238-3.742-5.323-4.569-5.361-4.681-4.946-4.832-4.571-5.02-4.232-4.155-4.269-3.676-4.251-3.582-4.176-3.488-4.1-3.441-3.781-3.441-3.216H-7.163C-7.991-3.216-8.762-3.236-9.476-3.273V-2.37C-8.762-2.408-7.972-2.426-7.107-2.426H-3.441V-1.749H-5.753C-6.581-1.749-7.276-1.769-7.84-1.806V-.959C-7.314-.997-6.618-1.016-5.753-1.016H-3.441V-.169C-4.306-.207-5.866-.264-8.122-.339-8.198-.038-8.329 .263-8.517 .564-6.825 .526-5.058 .555-3.215 .649-1.373 .742 .169 .883 1.41 1.072L2.087 .056C1.41 .056 .714 .037 0 0M0 5.474H2.933C2.933 5.135 2.923 4.768 2.905 4.373 2.885 3.978 2.895 3.536 2.933 3.047H1.805V4.627H-8.009V3.047H-9.137C-9.1 3.386-9.081 3.781-9.081 4.232-9.081 4.721-9.1 5.135-9.137 5.474H-3.723V6.659C-3.723 7.034-3.742 7.411-3.779 7.787H-2.595C-2.632 7.411-2.651 7.034-2.651 6.659V5.474H-1.015C-.527 6.264-.207 6.959-.056 7.562L1.128 7.054C.902 6.752 .526 6.226 0 5.474M-5.302 6.151C-5.49 6.038-5.791 5.831-6.204 5.53-6.468 6.019-6.863 6.526-7.389 7.054-7.314 7.167-7.05 7.373-6.599 7.674-6.373 7.486-5.942 6.978-5.302 6.151M.282 2.709C.282 2.332 .3 1.919 .338 1.467H-6.768C-6.731 1.919-6.712 2.351-6.712 2.765-6.712 3.178-6.731 3.555-6.768 3.894H.395C.319 3.517 .282 3.122 .282 2.709M-.733 3.104H-5.753V2.2580002H-.733ZM-.733 2.257" fill="#2c292a"/>
<path transform="matrix(1,0,0,-1,144.2338,321.7974)" d="M0 0C0 .601-.019 1.129-.056 1.58H1.072C1.034 1.279 1.015 .827 1.015 .226V-1.354C1.654-1.354 2.105-1.336 2.369-1.298V-2.257C2.03-2.22 1.579-2.201 1.015-2.201V-4.345C1.579-4.119 1.993-3.932 2.256-3.781 2.331-4.157 2.387-4.496 2.425-4.797 1.936-5.022 1.466-5.23 1.015-5.417V-10.214C.977-10.665 .78-10.947 .423-11.06 .065-11.173-.358-11.286-.846-11.399-.922-10.909-1.072-10.496-1.297-10.157-.433-10.157 0-10.008 0-9.706V-5.812C-.301-5.963-.753-6.207-1.354-6.546-1.392-6.32-1.542-5.945-1.805-5.417-.903-5.117-.301-4.891 0-4.74V-2.201C-.602-2.201-1.148-2.22-1.636-2.257V-1.298C-1.222-1.336-.677-1.354 0-1.354ZM10.942-.451C10.942-.979 10.961-1.467 10.998-1.919H4.286C4.286-3.537 4.202-4.901 4.033-6.01 3.863-7.12 3.656-8.079 3.412-8.888 3.167-9.697 2.839-10.514 2.425-11.342 2.162-11.004 1.805-10.759 1.354-10.609 1.955-9.857 2.425-8.803 2.764-7.449 3.102-6.094 3.271-4.59 3.271-2.934 3.271-1.279 3.252 .056 3.215 1.072H10.998C10.961 .583 10.942 .075 10.942-.451M8.291-8.069C9.456-8.069 10.284-8.051 10.773-8.013V-9.029C10.284-8.992 9.456-8.972 8.291-8.972V-10.44H9.701C10.378-10.44 10.979-10.42 11.506-10.383V-11.342C10.979-11.304 10.396-11.286 9.758-11.286H5.866C5.226-11.286 4.606-11.304 4.005-11.342V-10.383C4.456-10.42 5.076-10.44 5.866-10.44H7.332V-8.972C6.128-8.972 5.245-8.992 4.681-9.029V-8.013C5.245-8.051 6.128-8.069 7.332-8.069 7.332-7.618 7.313-7.186 7.276-6.772H8.348C8.31-7.186 8.291-7.618 8.291-8.069M9.983 .226H4.286V-1.128H9.983ZM4.963-5.643C5.302-5.455 5.584-5.248 5.809-5.022 6.035-4.797 6.261-4.383 6.486-3.781 5.846-3.781 5.245-3.8 4.681-3.837V-2.765C5.245-2.878 5.809-2.934 6.373-2.934H9.193C9.607-2.934 10.115-2.878 10.716-2.765V-3.837C10.152-3.8 9.625-3.781 9.137-3.781H7.558C7.407-4.383 7.05-4.985 6.486-5.587 7.238-5.55 8.178-5.512 9.306-5.474 9.156-5.286 8.968-5.117 8.742-4.966 9.081-4.665 9.325-4.421 9.476-4.232 10.189-5.022 10.773-5.681 11.224-6.207 11.035-6.358 10.773-6.64 10.434-7.054 10.284-6.828 10.077-6.546 9.814-6.207 9.099-6.245 8.263-6.292 7.304-6.348 6.345-6.405 5.677-6.527 5.302-6.715 5.226-6.34 5.113-5.982 4.963-5.643" fill="#2c292a"/>
<path transform="matrix(1,0,0,-1,160.1956,321.6281)" d="M0 0V-2.539C.413-2.539 .902-2.521 1.466-2.483V-3.499C.902-3.462 .413-3.442 0-3.442V-5.192C.15-5.004 .375-4.778 .677-4.514 .939-4.929 1.316-5.474 1.805-6.151 1.503-6.34 1.221-6.565 .959-6.828 .808-6.489 .488-6.001 0-5.361V-9.537C0-10.252 .018-11.022 .056-11.85H-1.072C-1.035-10.872-1.015-10.101-1.015-9.537V-6.151C-1.204-6.678-1.401-7.158-1.607-7.59-1.815-8.023-2.068-8.597-2.369-9.311-2.67-8.935-2.989-8.559-3.328-8.182-2.802-7.618-2.36-6.904-2.002-6.038-1.645-5.173-1.373-4.308-1.184-3.442-1.748-3.442-2.388-3.462-3.102-3.499V-2.483C-2.238-2.521-1.542-2.539-1.015-2.539V-.226C-1.43-.302-1.824-.395-2.2-.508-2.425-.132-2.67 .169-2.933 .395-2.219 .508-1.495 .649-.761 .818-.028 .987 .583 1.241 1.072 1.58 1.334 1.203 1.636 .827 1.974 .451 1.41 .376 .752 .226 0 0M4.963-2.257C5.377-2.408 5.809-2.539 6.261-2.652 5.997-2.916 5.772-3.273 5.584-3.724H8.009C8.686-3.724 9.4-3.706 10.152-3.668V-4.627C9.4-4.59 8.704-4.571 8.065-4.571H5.189C4.888-5.135 4.512-5.699 4.061-6.264H5.584C5.584-5.888 5.564-5.55 5.527-5.248H6.599C6.561-5.587 6.543-5.925 6.543-6.264H9.532C9.494-6.715 9.476-7.223 9.476-7.787V-9.762C9.476-10.29 9.343-10.627 9.081-10.778 8.817-10.928 8.385-11.06 7.784-11.173 7.708-10.722 7.558-10.327 7.332-9.988 7.971-9.988 8.328-9.96 8.404-9.903 8.479-9.847 8.517-9.669 8.517-9.367V-7.167H6.543V-10.214C6.543-10.702 6.561-11.248 6.599-11.85H5.527C5.564-11.286 5.584-10.74 5.584-10.214V-7.167H3.892V-11.06H2.877C2.913-10.233 2.933-9.123 2.933-7.731 2.293-8.333 1.748-8.822 1.297-9.198 1.034-8.785 .733-8.503 .395-8.352 1.221-7.825 1.926-7.242 2.51-6.602 3.092-5.963 3.59-5.286 4.005-4.571 3.215-4.571 2.462-4.59 1.748-4.627V-3.668C2.462-3.706 3.346-3.724 4.399-3.724 4.662-3.236 4.851-2.747 4.963-2.257M7.784 .169C7.52-.056 7.2-.302 6.825-.564 7.802-.979 8.704-1.392 9.532-1.806 9.194-2.144 8.968-2.465 8.855-2.765 8.366-2.389 7.407-1.882 5.979-1.241 5.377-1.731 4.794-2.126 4.23-2.427 3.666-2.728 3.159-2.991 2.707-3.217 2.444-2.803 2.162-2.502 1.861-2.314 2.575-2.126 3.159-1.91 3.61-1.665 4.061-1.421 4.549-1.129 5.076-.79 4.587-.564 4.136-.386 3.722-.254 3.308-.123 2.895 .018 2.482 .169 2.669 .545 2.82 .883 2.933 1.185 3.308 1.034 3.703 .883 4.117 .734 4.531 .583 5.113 .319 5.866-.056 6.805 .696 7.369 1.222 7.558 1.524 7.896 1.222 8.272 .959 8.686 .734 8.348 .583 8.046 .395 7.784 .169" fill="#2c292a"/>
<path transform="matrix(1,0,0,-1,171.1376,324.6189)" d="M0 0C.564 .714 1.034 1.448 1.41 2.201 1.785 2.953 2.03 3.555 2.143 4.007 2.557 3.856 2.97 3.724 3.384 3.612 3.159 3.386 2.801 2.765 2.312 1.749H4.456C5.057 1.749 5.659 1.768 6.261 1.806V.79C5.621 .827 4.925 .846 4.174 .846V-1.185C4.925-1.185 5.677-1.167 6.43-1.129V-2.088C5.677-2.051 4.925-2.031 4.174-2.031V-6.264L5.189-6.151C5.189-4.571 5.17-3.612 5.133-3.273H6.261C6.223-3.574 6.204-3.913 6.204-4.289V-7.223H5.189V-6.941L.902-7.449C.939-6.772 .959-6.151 .959-5.587 .959-4.985 .939-4.289 .902-3.499H1.974C1.936-3.913 1.918-4.891 1.918-6.433L3.159-6.32V-2.088C1.918-2.088 1.015-2.107 .451-2.144V-1.129C1.015-1.167 1.918-1.185 3.159-1.185V.846H1.861C1.598 .357 1.316-.094 1.015-.508 .752-.282 .413-.113 0 0M10.434-6.631C9.907-5.897 9.532-5.173 9.306-4.458 9.005-5.55 8.554-6.461 7.953-7.195 7.351-7.928 6.787-8.502 6.261-8.916 5.959-8.539 5.64-8.295 5.302-8.182 5.866-7.881 6.458-7.355 7.078-6.602 7.699-5.85 8.178-4.76 8.517-3.329 7.84-3.329 7.144-3.349 6.43-3.386V-2.426C7.107-2.464 7.84-2.483 8.629-2.483 8.667-1.769 8.704-.734 8.742 .621 8.102 .621 7.464 .601 6.825 .564V1.58C7.464 1.542 8.102 1.524 8.742 1.524 8.742 2.802 8.723 3.743 8.686 4.345 9.099 4.269 9.55 4.213 10.04 4.176 9.964 3.874 9.907 3.461 9.87 2.934 9.832 2.407 9.814 1.937 9.814 1.524H12.465C12.389 .883 12.352 .282 12.352-.282L12.296-2.483C12.596-2.483 13.009-2.464 13.537-2.426V-3.386C12.897-3.349 12.352-3.329 11.901-3.329H9.983C10.284-4.458 10.791-5.417 11.506-6.207 12.22-6.997 12.897-7.542 13.537-7.844 13.085-8.069 12.747-8.37 12.521-8.747 11.656-8.069 10.96-7.364 10.434-6.631M11.224-2.483 11.28 .621H9.758C9.72-.997 9.701-2.031 9.701-2.483Z" fill="#2c292a"/>
<path transform="matrix(1,0,0,-1,187.2687,329.8668)" d="M0 0H2.031V-2.257C1.918-3.197 1.447-3.894 .62-4.345L.056-3.837C.733-3.461 1.072-2.896 1.072-2.144H0Z" fill="#2c292a"/>
<path transform="matrix(1,0,0,-1,204.7534,325.3242)" d="M0 0C-.263-.207-.47-.386-.62-.536-.245-1.063 .037-1.731 .226-2.539 .413-3.349 .46-4.204 .367-5.107 .272-6.01-.047-6.678-.592-7.11-1.138-7.542-1.881-7.853-2.82-8.041-2.858-7.74-3.009-7.401-3.271-7.026-2.407-6.913-1.796-6.724-1.438-6.461-1.081-6.199-.856-5.888-.761-5.53-.668-5.173-.612-4.816-.592-4.458-.574-4.101-.602-3.621-.677-3.019-.94-3.396-1.26-3.744-1.636-4.063-2.012-4.383-2.614-4.863-3.44-5.502-3.629-5.201-3.892-4.938-4.23-4.712-3.553-4.411-2.924-4.007-2.341-3.499-1.758-2.991-1.297-2.511-.959-2.06-1.109-1.684-1.26-1.383-1.41-1.157-1.599-1.308-1.833-1.477-2.115-1.665-2.397-1.853-2.839-2.136-3.44-2.511-3.666-2.248-3.911-2.003-4.174-1.778-3.347-1.439-2.614-.988-1.974-.423-2.463-.01-2.914 .291-3.328 .48-3.065 .705-2.839 .968-2.651 1.27-1.974 .78-1.486 .423-1.184 .198-.658 .611-.301 .988-.113 1.326 .075 1.062 .375 .799 .79 .536 .526 .385 .263 .206 0 0M.733 2.624C.733 2.247 .752 1.871 .79 1.495H-.395C-.358 1.984-.338 2.36-.338 2.624H-1.861C-2.425 2.624-3.046 2.605-3.722 2.568V3.583C-3.009 3.545-2.369 3.527-1.805 3.527H-.338C-.338 3.978-.358 4.43-.395 4.881H.79C.752 4.505 .733 4.053 .733 3.527H3.61C3.61 4.053 3.59 4.523 3.553 4.938H4.738C4.7 4.523 4.682 4.053 4.682 3.527H6.091C6.693 3.527 7.369 3.545 8.122 3.583V2.568C7.445 2.605 6.787 2.624 6.148 2.624H4.682C4.682 2.285 4.7 1.909 4.738 1.495H3.553C3.59 1.871 3.61 2.247 3.61 2.624ZM4.625-1.383H6.656C7.22-1.383 7.708-1.364 8.122-1.326V-2.342C7.708-2.305 7.22-2.285 6.656-2.285H4.682C4.756-2.662 4.888-3.075 5.076-3.527 5.264-3.978 5.527-4.421 5.866-4.853 6.204-5.286 6.618-5.699 7.107-6.094 7.595-6.489 8.028-6.743 8.404-6.856 7.953-7.195 7.633-7.533 7.445-7.872 6.768-7.383 6.129-6.79 5.527-6.094 4.926-5.399 4.456-4.581 4.117-3.64 3.854-4.43 3.544-5.089 3.187-5.615 2.829-6.142 2.491-6.584 2.172-6.941 1.852-7.298 1.429-7.665 .902-8.041 .639-7.703 .357-7.421 .056-7.195 .508-6.931 .94-6.612 1.354-6.236 1.767-5.86 2.115-5.445 2.397-4.994 2.679-4.543 2.914-4.063 3.102-3.555 3.29-3.047 3.403-2.624 3.441-2.285H2.82C2.18-2.285 1.523-2.305 .846-2.342V-1.326C1.523-1.364 2.18-1.383 2.82-1.383H3.553C3.553-.179 3.534 .63 3.497 1.044 3.872 .968 4.287 .912 4.738 .875 4.662 .46 4.625-.292 4.625-1.383M7.614-.593C7.313-.781 7.031-1.007 6.768-1.27 6.317-.593 5.866-.028 5.415 .423 5.602 .536 5.866 .742 6.204 1.044 6.618 .667 7.087 .122 7.614-.593" fill="#2c292a"/>
<path transform="matrix(1,0,0,-1,216.7669,333.2526)" d="M0 0C.037 1.016 .056 1.862 .056 2.539V5.925C-.282 5.549-.696 5.116-1.184 4.627-1.41 5.003-1.673 5.323-1.974 5.587-1.222 6.151-.564 6.79 0 7.505 .564 8.219 1.052 8.972 1.467 9.762 1.767 9.499 2.124 9.255 2.538 9.029 2.2 8.577 1.711 7.919 1.072 7.054V2.539C1.072 1.862 1.09 1.016 1.128 0ZM-.733 8.859C-.959 9.16-1.222 9.442-1.523 9.706-.47 10.571 .451 11.662 1.241 12.979 1.541 12.715 1.88 12.471 2.256 12.245 1.203 10.928 .206 9.799-.733 8.859M1.805 4.909C2.482 4.871 3.234 4.853 4.061 4.853H8.178V5.982H4.456C3.816 5.982 3.215 5.962 2.651 5.925V6.884C3.215 6.846 3.816 6.828 4.456 6.828H8.686C9.476 6.828 10.152 6.846 10.717 6.884V5.925C10.227 5.962 9.72 5.982 9.194 5.982V4.853C9.871 4.853 10.509 4.871 11.111 4.909V3.894C10.547 3.931 9.908 3.95 9.194 3.95V1.806C9.231 1.016 9.024 .527 8.573 .339 8.122 .151 7.539 0 6.825-.113 6.749 .264 6.599 .697 6.373 1.185 7.238 1.185 7.764 1.25 7.953 1.383 8.141 1.514 8.215 1.786 8.178 2.201V3.95H4.061C3.234 3.95 2.482 3.931 1.805 3.894ZM5.415 1.636C5.151 1.486 4.813 1.26 4.399 .959 4.174 1.561 3.779 2.219 3.215 2.934 3.554 3.16 3.835 3.386 4.061 3.612 4.625 2.822 5.076 2.163 5.415 1.636M9.927 10.157C9.927 9.179 9.945 8.389 9.983 7.787H3.441C3.478 8.389 3.497 9.179 3.497 10.157 3.497 11.135 3.478 11.907 3.441 12.471H9.983C9.945 11.944 9.927 11.173 9.927 10.157M8.912 11.625H4.5129997V10.609H8.912ZM8.912 9.762H4.5129997V8.690001H8.912ZM8.912 8.69" fill="#2c292a"/>
<path transform="matrix(1,0,0,-1,230.8675,323.8571)" d="M0 0C.714 1.373 1.165 2.568 1.354 3.583 1.729 3.358 2.2 3.15 2.764 2.963 2.425 2.624 2.03 1.796 1.579 .48V-6.8C1.579-7.928 1.598-8.775 1.636-9.339H.451C.488-8.812 .508-7.985 .508-6.856V-1.439C.019-2.267-.489-3.019-1.015-3.696-1.204-3.358-1.466-3.057-1.805-2.793-1.316-2.305-.715-1.374 0 0M8.63-8.041C8.93-8.117 9.212-8.145 9.476-8.126 9.738-8.107 9.936-8.023 10.068-7.872 10.199-7.722 10.34-7.214 10.491-6.348 10.753-6.612 11.168-6.819 11.732-6.969 11.506-7.797 11.289-8.342 11.083-8.606 10.876-8.868 10.547-9.019 10.096-9.057H8.348C7.558-9.057 7.163-8.606 7.163-7.703V-1.27H6.43C6.241-4.957 5.133-7.666 3.102-9.396 2.839-9.057 2.462-8.812 1.974-8.662 3.929-7.308 5.038-4.844 5.302-1.27H4.287C3.459-1.27 2.764-1.289 2.2-1.326V-.31C2.764-.348 3.459-.367 4.287-.367H5.358C5.358 1.514 5.339 2.793 5.302 3.47 5.564 3.395 5.997 3.338 6.599 3.301 6.486 2.737 6.43 1.514 6.43-.367H9.476C9.889-.367 10.434-.348 11.111-.31V-1.326C10.471-1.289 9.945-1.27 9.532-1.27H8.235V-7.364C8.197-7.741 8.328-7.966 8.63-8.041M9.363 2.201C9.588 1.881 9.814 1.589 10.04 1.326 9.738 1.137 9.419 .893 9.081 .593 8.855 1.044 8.423 1.683 7.784 2.511 8.046 2.699 8.348 2.925 8.686 3.188 8.912 2.85 9.137 2.52 9.363 2.201" fill="#2c292a"/>
<path transform="matrix(1,0,0,-1,247.4499,324.8446)" d="M0 0V-2.088C-.038-2.502-.254-2.765-.649-2.878-1.043-2.991-1.542-3.104-2.143-3.216-2.181-2.803-2.332-2.389-2.595-1.975-1.768-2.013-1.297-1.994-1.184-1.919-1.072-1.844-1.015-1.618-1.015-1.241V-.226C-1.956-.489-2.745-.715-3.384-.903-3.497-.489-3.666-.151-3.892 .113-3.215 .188-2.256 .357-1.015 .621V1.919C-2.068 1.919-2.877 1.899-3.44 1.862V2.878C-2.877 2.84-2.068 2.822-1.015 2.822-1.015 3.499-1.035 4.044-1.072 4.458H.169C.056 4.081 0 3.536 0 2.822 .375 2.822 .846 2.84 1.41 2.878V1.862C.846 1.899 .375 1.919 0 1.919V.846C.451 .921 .902 1.034 1.354 1.185 1.316 .921 1.297 .621 1.297 .282 .695 .131 .263 .037 0 0M1.692-3.781C1.729-3.48 1.749-3.16 1.749-2.822 2.275-2.934 2.688-3.01 2.989-3.047 2.914-3.236 2.857-3.48 2.82-3.781H7.614C7.576-4.308 7.51-4.938 7.417-5.671 7.323-6.405 7.2-6.951 7.05-7.308 6.9-7.665 6.646-7.9 6.289-8.013 5.931-8.126 5.245-8.239 4.23-8.352 4.192-7.975 3.985-7.562 3.61-7.11 4.775-7.185 5.471-7.158 5.697-7.026 5.922-6.894 6.072-6.678 6.148-6.377 6.223-6.076 6.298-5.512 6.373-4.684H2.651C2.237-5.85 1.579-6.687 .677-7.195-.226-7.703-1.335-8.144-2.651-8.521-2.802-8.107-3.084-7.749-3.497-7.449-2.52-7.336-1.551-7.073-.592-6.659 .367-6.245 1.052-5.587 1.466-4.684H-.902C-1.617-4.684-2.294-4.703-2.933-4.74V-3.724C-2.294-3.762-1.617-3.781-.902-3.781ZM3.159-.282C2.895-.094 2.519 .113 2.031 .339 2.293 .564 2.482 .827 2.594 1.129L3.497 .564C3.572 .865 3.647 1.354 3.723 2.031 3.159 2.031 2.651 1.993 2.2 1.919L2.087 2.822H3.723C3.723 3.536 3.685 4.119 3.61 4.571 3.948 4.495 4.38 4.439 4.907 4.402 4.794 4.025 4.738 3.517 4.738 2.878L7.501 2.934C7.389 2.181 7.313 1.411 7.276 .621 7.238-.169 7.304-.772 7.473-1.185 7.643-1.599 7.812-1.834 7.981-1.89 8.15-1.947 8.235-1.505 8.235-.564 8.535-.866 8.93-1.054 9.419-1.129 9.194-2.031 9.005-2.596 8.855-2.822 8.705-3.047 8.497-3.18 8.235-3.216 7.971-3.255 7.605-3.067 7.135-2.652 6.664-2.239 6.373-1.636 6.261-.846 6.148-.056 6.148 .921 6.261 2.088L4.738 2.031C4.662 1.203 4.587 .545 4.512 .056 4.813-.132 5.189-.358 5.64-.621 5.302-.884 5.038-1.148 4.851-1.411 4.587-1.185 4.343-.997 4.117-.846 3.553-1.562 2.857-2.201 2.031-2.765 1.767-2.502 1.391-2.277 .902-2.088 1.918-1.712 2.669-1.11 3.159-.282" fill="#2c292a"/>
<path transform="matrix(1,0,0,-1,134.627,300.7145)" d="M0 0C1.203 0 2.088 .033 2.657 .1V-.853C2.088-.82 1.22-.803 .05-.803V-2.859H2.106C2.072-3.595 2.056-4.381 2.056-5.217 2.056-6.019 2.072-6.906 2.106-7.875H1.103V-7.073H-1.454V-8.026H-2.457C-2.424-7.156-2.406-6.287-2.406-5.417-2.406-4.514-2.424-3.662-2.457-2.859H-.953C-.953-.118-.97 1.655-1.003 2.458H.05C.016 1.688 0 .869 0 0M1.153-3.662H-1.4540001V-6.2200005H1.153ZM7.144-4.239C6.826-4.858 6.434-5.501 5.966-6.17 6.534-7.14 7.002-7.692 7.37-7.825 7.737-7.958 8.038-7.508 8.272-6.471 8.539-6.772 8.857-7.04 9.225-7.273 8.756-8.309 8.23-8.87 7.646-8.954 7.06-9.037 6.283-8.343 5.314-6.872 4.913-7.307 4.503-7.692 4.086-8.026 3.668-8.359 3.141-8.744 2.507-9.179 2.306-8.911 2.056-8.644 1.755-8.377 2.156-8.209 2.674-7.892 3.309-7.424 3.943-6.956 4.462-6.471 4.863-5.969 4.695-5.635 4.512-5.075 4.312-4.289 4.111-3.503 3.977-2.793 3.911-2.157 3.309-2.257 2.724-2.375 2.156-2.508 2.088-2.174 2.022-1.873 1.955-1.605 2.457-1.539 3.075-1.438 3.81-1.304 3.743 .133 3.676 1.421 3.61 2.558 4.011 2.524 4.378 2.508 4.713 2.508 4.645 1.538 4.645 .317 4.713-1.154 5.447-1.053 6.684-.82 8.423-.451 8.423-.752 8.456-1.053 8.523-1.354 7.754-1.488 6.518-1.705 4.813-2.006 4.98-3.344 5.214-4.398 5.515-5.167 5.849-4.699 6.099-4.247 6.267-3.812 6.434-3.378 6.601-2.909 6.768-2.408 7.169-2.642 7.537-2.809 7.871-2.909 7.704-3.177 7.461-3.62 7.144-4.239M7.671 .552C7.37 .351 7.085 .117 6.818-.151 6.618 .183 6.217 .702 5.615 1.404 5.882 1.571 6.149 1.756 6.417 1.956 7.052 1.22 7.47 .752 7.671 .552" fill="#2c292a"/>
<path transform="matrix(1,0,0,-1,149.5172,301.6174)" d="M0 0V-4.514C0-5.083 .016-5.768 .05-6.571H-.852V-5.919H-3.51V-6.872H-4.462C-4.395-6.337-4.362-5.735-4.362-5.066V0C-4.362 .769-4.395 1.455-4.462 2.057H.05C.016 1.287 0 .602 0 0M-2.607 1.304H-3.509V-1.455H-2.607ZM-2.607-2.257H-3.509V-5.116H-2.607ZM-.852 1.304H-1.754V-1.455H-.852ZM-.852-2.257H-1.754V-5.116H-.852ZM2.657 2.057H6.016C5.816 1.421 5.54 .785 5.189 .15 4.838-.485 4.445-1.037 4.011-1.505 4.378-1.839 4.838-2.099 5.389-2.282 5.941-2.466 6.467-2.592 6.969-2.658 6.701-3.027 6.518-3.361 6.417-3.662 5.949-3.561 5.431-3.386 4.863-3.135 4.294-2.884 3.793-2.558 3.359-2.157 3.091-2.358 2.74-2.608 2.306-2.909 1.871-3.21 1.32-3.511 .652-3.812 .518-3.478 .334-3.177 .1-2.909 .602-2.742 1.044-2.567 1.429-2.383 1.813-2.199 2.272-1.89 2.807-1.455 2.607-1.187 2.423-.903 2.256-.602 2.088-.301 1.938-.017 1.805 .251 1.604-.118 1.32-.569 .953-1.104 .819-.903 .534-.702 .1-.502 .568 0 .978 .627 1.329 1.379 1.679 2.132 1.922 2.842 2.055 3.511 2.423 3.344 2.824 3.193 3.259 3.06 3.058 2.859 2.858 2.524 2.657 2.057M5.715-4.916V-6.872C5.715-7.306 5.732-7.775 5.766-8.276H4.813V-7.323H2.206V-8.327H1.253C1.286-7.758 1.303-7.24 1.303-6.772V-4.966C1.303-4.464 1.286-3.996 1.253-3.561H5.766C5.732-3.963 5.715-4.414 5.715-4.916M4.813-4.364H2.206V-6.4709999H4.813ZM4.763 1.304H2.306C2.573 .468 2.958-.251 3.459-.853 3.961-.284 4.395 .434 4.763 1.304" fill="#2c292a"/>
<path transform="matrix(1,0,0,-1,162.6024,298.9088)" d="M0 0C.802 0 1.42 .016 1.855 .05V-.853C1.487-.82 1.003-.803 .401-.803V-4.314C1.103-4.314 1.621-4.297 1.955-4.264V-5.217C1.654-5.184 1.136-5.166 .401-5.166V-8.728C.401-9.464 .418-10.032 .451-10.433H-.551C-.519-9.965-.501-9.414-.501-8.778V-5.166H-2.206C-2.273-6.772-2.49-8-2.858-8.853-3.226-9.706-3.56-10.333-3.86-10.734-4.229-10.466-4.58-10.299-4.913-10.233-4.379-9.698-3.953-9.021-3.635-8.201-3.318-7.382-3.142-6.37-3.108-5.166-3.677-5.166-4.195-5.184-4.663-5.217V-4.264C-4.195-4.297-3.66-4.314-3.058-4.314V-.803C-3.627-.803-4.044-.82-4.312-.853V.05C-4.044 .016-3.527 0-2.757 0ZM-.501-.803H-2.155V-4.314H-.501ZM4.813-8.803C3.877-9.589 2.974-10.249 2.106-10.784 1.905-10.483 1.637-10.199 1.304-9.932 2.172-9.564 3.058-8.996 3.961-8.226 4.863-7.457 5.465-6.855 5.766-6.42 5.999-6.688 6.317-6.939 6.718-7.173 6.384-7.474 5.748-8.018 4.813-8.803M4.888-5.116C4.269-5.819 3.409-6.571 2.306-7.374 2.106-7.106 1.821-6.855 1.454-6.621 2.389-6.087 3.159-5.51 3.76-4.891 4.362-4.272 4.863-3.662 5.264-3.06 5.698-3.428 6.033-3.662 6.267-3.762 5.966-3.963 5.506-4.414 4.888-5.116M4.638-1.53C4.153-2.182 3.492-2.927 2.657-3.762 2.356-3.528 2.056-3.328 1.755-3.16 2.49-2.525 3.058-1.956 3.459-1.455 3.86-.953 4.294-.301 4.763 .502 4.93 .401 5.297 .201 5.866-.1 5.531-.401 5.122-.878 4.638-1.53" fill="#2c292a"/>
<path transform="matrix(1,0,0,-1,176.8408,298.1563)" d="M0 0C.401-.034 .785-.067 1.153-.1 1.086-.535 1.069-1.321 1.103-2.458H2.557C3.259-2.458 4.027-2.441 4.863-2.408V-3.361C3.994-3.328 3.225-3.311 2.557-3.311H1.153C1.186-4.582 1.404-5.969 1.805-7.474 2.439-6.504 2.941-5.384 3.309-4.113 3.643-4.381 4.027-4.615 4.462-4.815 4.194-5.116 3.893-5.618 3.56-6.32 3.225-7.022 2.79-7.758 2.256-8.527 2.557-9.129 2.883-9.606 3.234-9.957 3.585-10.308 3.827-10.458 3.961-10.408 4.094-10.358 4.228-9.781 4.362-8.678 4.696-8.946 5.047-9.146 5.415-9.28 5.18-10.65 4.921-11.411 4.638-11.562 4.353-11.712 4.011-11.712 3.61-11.562 3.209-11.411 2.833-11.127 2.482-10.709 2.131-10.291 1.838-9.831 1.604-9.33 .802-10.2-.218-11.018-1.454-11.788-1.622-11.487-1.872-11.219-2.206-10.985-1.538-10.684-.895-10.283-.276-9.781 .342-9.28 .802-8.812 1.103-8.377 .869-7.742 .668-6.964 .501-6.044 .334-5.125 .233-4.213 .201-3.311H-4.111V-5.066H-.852C-.92-5.668-.97-6.287-1.003-6.922L-1.153-8.928C-1.187-9.564-1.362-9.949-1.679-10.082-1.998-10.216-2.54-10.317-3.309-10.383-3.343-10.082-3.477-9.715-3.71-9.28-2.875-9.313-2.39-9.263-2.256-9.129-2.123-8.996-2.039-8.611-2.005-7.975L-1.905-5.969H-4.111C-4.111-7.273-4.211-8.36-4.412-9.229-4.612-10.099-4.981-10.901-5.515-11.637-5.883-11.369-6.217-11.186-6.518-11.085-6.084-10.55-5.783-10.041-5.615-9.555-5.448-9.071-5.323-8.544-5.239-7.975-5.156-7.407-5.106-6.605-5.089-5.568-5.072-4.532-5.081-3.495-5.114-2.458H.1C.067-1.488 .033-.669 0 0M4.362-1.605C4.061-1.839 3.793-2.074 3.56-2.307 3.159-1.773 2.624-1.221 1.955-.652 2.189-.451 2.407-.234 2.607 0 3.275-.535 3.86-1.071 4.362-1.605" fill="#2c292a"/>
<path transform="matrix(1,0,0,-1,192.9343,304.0752)" d="M0 0C.568 0 1.203 .016 1.905 .05V-.853C1.203-.82 .568-.803 0-.803H-3.209V-2.057C-1.237-2.057 .05-2.04 .652-2.006V-2.909C.05-2.876-1.237-2.859-3.209-2.859V-4.364C-2.574-4.464-1.788-4.514-.852-4.514 .083-4.514 1.119-4.448 2.256-4.314 1.988-4.681 1.821-5.083 1.755-5.518H-.802C-1.538-5.518-2.223-5.475-2.858-5.392-3.493-5.308-4.12-5.149-4.738-4.916-5.357-4.681-6.016-4.264-6.718-3.662-6.852-3.93-7.044-4.239-7.295-4.59-7.545-4.941-7.921-5.367-8.423-5.869-8.757-5.601-9.092-5.367-9.425-5.167-8.757-4.765-8.206-4.181-7.771-3.411-7.337-2.642-7.086-1.923-7.019-1.254L-5.816-1.605C-5.916-1.739-6.084-2.124-6.317-2.759-5.715-3.394-4.997-3.846-4.161-4.113V-.803H-7.37C-7.972-.803-8.607-.82-9.275-.853V.05C-8.573 .016-7.939 0-7.37 0ZM-.05 3.361C-.05 2.491-.034 1.672 0 .903H-7.47C-7.437 1.672-7.42 2.491-7.42 3.361-7.42 4.264-7.437 4.966-7.47 5.467H0C-.034 4.966-.05 4.264-.05 3.361M-1.053 4.665H-6.417V3.662H-1.053ZM-1.053 2.809H-6.417V1.756H-1.053ZM-1.053 1.756" fill="#2c292a"/>
<path transform="matrix(1,0,0,-1,197.5969,298.4573)" d="M0 0H1.103C1.069-.535 1.053-1.605 1.053-3.21 1.687-3.21 2.222-3.194 2.657-3.16V-4.063C2.222-4.03 1.687-4.013 1.053-4.013V-9.53C1.053-9.999 1.069-10.6 1.103-11.336H0C.033-10.6 .05-9.999 .05-9.53V-4.013C-.619-4.013-1.153-4.03-1.554-4.063V-3.16C-1.153-3.194-.619-3.21 .05-3.21 .05-1.605 .033-.535 0 0M4.913 .15C5.281 .05 5.682-.017 6.117-.05 5.983-.585 5.932-1.404 5.966-2.508H8.673C8.606-2.809 8.54-3.311 8.473-4.013L8.122-9.581C8.055-10.116 7.854-10.441 7.52-10.559 7.186-10.675 6.718-10.801 6.117-10.935 5.983-10.5 5.832-10.132 5.665-9.831 6.367-9.798 6.793-9.765 6.944-9.731 7.094-9.698 7.186-9.464 7.22-9.029L7.57-3.311H5.916C5.882-4.815 5.648-6.237 5.214-7.574 4.779-8.912 4.027-10.116 2.958-11.186 2.757-10.918 2.356-10.684 1.755-10.483 2.523-10.082 3.225-9.263 3.86-8.026 4.495-6.789 4.846-5.217 4.913-3.311 4.278-3.311 3.643-3.328 3.008-3.361V-2.458C3.643-2.492 4.294-2.508 4.963-2.508 4.963-1.438 4.946-.552 4.913 .15M3.008-7.725C2.674-7.591 2.356-7.508 2.056-7.474 2.523-6.237 2.79-5.384 2.858-4.916 3.125-5.016 3.492-5.1 3.961-5.167 3.76-5.435 3.442-6.287 3.008-7.725M10.428-7.173C10.06-7.24 9.743-7.357 9.476-7.524 9.275-6.822 8.991-6.053 8.623-5.217 8.924-5.116 9.208-4.983 9.476-4.815 9.977-5.886 10.294-6.671 10.428-7.173" fill="#2c292a"/>
<path transform="matrix(1,0,0,-1,215.5452,299.5608)" d="M0 0H2.858C3.526 0 4.194 .016 4.863 .05V-.853C4.194-.82 3.526-.803 2.858-.803H-2.908C-2.273-1.472-1.889-1.906-1.755-2.107-1.989-2.207-2.24-2.358-2.507-2.558H.201C.401-2.024 .602-1.455 .802-.853 1.136-.987 1.52-1.104 1.955-1.204 1.721-1.505 1.454-1.956 1.153-2.558H3.961C3.927-2.959 3.911-3.511 3.911-4.213V-9.179C3.911-9.581 3.727-9.864 3.359-10.032 2.991-10.199 2.49-10.333 1.855-10.433 1.821-10.032 1.687-9.664 1.454-9.33 2.122-9.363 2.54-9.33 2.707-9.229 2.874-9.129 2.958-8.962 2.958-8.728V-3.26H-4.362V-10.283H-5.364C-5.331-9.413-5.314-8.795-5.314-8.427V-4.113C-5.314-3.779-5.331-3.26-5.364-2.558H-2.607C-2.841-2.157-3.226-1.739-3.76-1.304-3.493-1.171-3.242-1.003-3.008-.803H-4.161C-4.931-.803-5.599-.82-6.167-.853V.05C-5.599 .016-4.947 0-4.211 0H-1.103C-1.203 .334-1.421 .685-1.755 1.053-1.421 1.154-1.103 1.27-.802 1.404-.368 .735-.1 .267 0 0M-.952-4.364C-1.287-4.532-1.772-4.983-2.406-5.718H1.404C1.37-6.153 1.354-6.621 1.354-7.123 1.354-7.624 1.37-8.126 1.404-8.628H-2.507C-2.474-8.126-2.457-7.642-2.457-7.173-2.457-6.671-2.474-6.22-2.507-5.819-2.741-6.019-2.975-6.203-3.209-6.37-3.376-6.137-3.627-5.953-3.961-5.819-2.925-5.016-2.24-4.331-1.905-3.762-1.571-3.996-1.253-4.197-.952-4.364M.401-6.471H-1.554V-7.875H.401ZM2.707-5.367C2.407-5.535 2.156-5.752 1.955-6.019 1.621-5.618 .919-5.066-.15-4.364 .083-4.197 .284-3.98 .451-3.712 1.387-4.314 2.139-4.866 2.707-5.367" fill="#2c292a"/>
<path transform="matrix(1,0,0,-1,224.7701,300.7145)" d="M0 0H2.256C2.223-.569 2.206-1.288 2.206-2.157V-6.571C2.206-7.073 2.223-7.792 2.256-8.728H1.253V-7.725H-1.304V-8.828H-2.306C-2.273-7.758-2.256-7.09-2.256-6.822V-2.207C-2.256-1.304-2.273-.569-2.306 0H-.852C-.685 .769-.551 1.571-.451 2.408 .016 2.24 .401 2.123 .702 2.057 .534 1.756 .301 1.07 0 0M1.253-.853H-1.3039999V-3.3609999H1.253ZM1.253-4.213H-1.3039999V-6.8719999H1.253ZM7.921-7.574C7.854-8.176 7.537-8.577 6.969-8.778 6.4-8.979 5.766-9.112 5.064-9.179 5.03-8.811 4.88-8.427 4.613-8.026 5.281-8.059 5.807-8.042 6.192-7.975 6.576-7.909 6.818-7.758 6.919-7.524 7.019-7.29 7.094-6.605 7.144-5.467 7.194-4.331 7.236-2.742 7.27-.702H4.362C4.094-1.338 3.71-2.09 3.209-2.959 2.975-2.726 2.69-2.542 2.356-2.408 2.657-2.006 2.941-1.522 3.209-.953 3.476-.385 3.71 .234 3.911 .903 4.111 1.571 4.228 2.089 4.261 2.458 4.729 2.257 5.13 2.107 5.465 2.006 5.297 1.738 5.155 1.446 5.039 1.129 4.921 .81 4.796 .502 4.663 .201H8.222C8.189-.502 8.172-1.154 8.172-1.756 8.138-3.796 8.055-5.735 7.921-7.574M5.214-3.812C5.415-4.213 5.648-4.732 5.916-5.367 5.682-5.467 5.365-5.635 4.963-5.869 4.729-5.234 4.512-4.69 4.312-4.239 4.111-3.787 3.911-3.411 3.71-3.11 3.943-2.977 4.244-2.809 4.613-2.608Z" fill="#2c292a"/>
<path transform="matrix(1,0,0,-1,236.6524,307.3356)" d="M0 0V3.662C-.802 3.662-1.387 3.644-1.755 3.612V4.615C-1.454 4.547-.836 4.514 .1 4.514H1.053C1.019 4.013 1.003 3.511 1.003 3.01V-.1C1.972-.937 3.4-1.362 5.289-1.379 7.177-1.396 8.673-1.321 9.776-1.154 9.576-1.488 9.425-1.906 9.325-2.408H6.317C5.481-2.408 4.713-2.383 4.011-2.332 3.309-2.282 2.715-2.14 2.231-1.906 1.746-1.672 1.32-1.421 .952-1.154 .584-.886 .242-.911-.075-1.229-.393-1.546-.752-1.989-1.153-2.558-1.354-2.223-1.655-1.939-2.056-1.705-1.02-.803-.335-.234 0 0M1.303 6.471C.969 6.27 .652 6.052 .351 5.819-.318 6.955-.819 7.674-1.153 7.975-.852 8.142-.552 8.377-.251 8.678 .083 8.276 .602 7.54 1.303 6.471M6.167 .451C6.367 .518 6.467 .803 6.467 1.304V5.869H3.209C2.84 5.869 2.439 5.852 2.005 5.819V6.772C2.439 6.738 2.974 6.721 3.61 6.721H6.467C6.467 7.591 6.434 8.343 6.367 8.979H7.52C7.487 8.544 7.47 7.791 7.47 6.721 8.172 6.721 8.806 6.738 9.375 6.772V5.819C8.84 5.852 8.205 5.869 7.47 5.869V.903C7.47 .133 7.244-.326 6.793-.477 6.342-.627 5.782-.719 5.114-.752 5.046-.385 4.913 0 4.713 .401 5.481 .368 5.966 .384 6.167 .451M2.607 4.414C2.908 4.547 3.225 4.732 3.56 4.966 4.161 3.762 4.545 2.926 4.713 2.458 4.478 2.324 4.144 2.14 3.71 1.906 3.409 2.809 3.041 3.644 2.607 4.414" fill="#2c292a"/>
<path transform="matrix(1,0,0,-1,249.6624,298.6329)" d="M0 0C.718 .151 1.329 .343 1.83 .577 2.063 .142 2.298-.226 2.532-.527 2.298-.494 2.056-.502 1.805-.552 1.554-.602 1.279-.644 .978-.677V-3.135C1.445-3.135 1.947-3.119 2.482-3.085V-4.038C1.947-4.005 1.445-3.988 .978-3.988V-8.402C.978-9.138 .994-10.124 1.028-11.361H.025C.058-10.124 .075-9.154 .075-8.452V-6.145C-.393-7.081-.911-7.968-1.479-8.803-1.713-8.469-1.98-8.168-2.281-7.9-1.813-7.432-1.396-6.897-1.028-6.295-.66-5.693-.326-4.924-.025-3.988-.861-3.988-1.479-4.005-1.88-4.038V-3.085C-1.312-3.119-.895-3.135-.627-3.135H.075V-.878C-.36-.978-.911-1.078-1.579-1.179-1.68-.878-1.797-.594-1.93-.326-1.362-.259-.719-.15 0 0M2.933-6.947C2.732-7.081 2.465-7.282 2.131-7.549 1.796-6.814 1.462-6.212 1.128-5.743 1.329-5.576 1.579-5.392 1.88-5.192 2.214-5.693 2.565-6.279 2.933-6.947M7.495-4.991C8.03-4.991 8.598-4.974 9.2-4.941V-5.844C8.598-5.811 8.03-5.793 7.495-5.793H6.543V-7.399H7.094C7.596-7.399 8.18-7.382 8.849-7.348V-8.301C8.18-8.269 7.646-8.251 7.245-8.251H6.543V-10.007H7.746C8.348-10.007 8.982-9.99 9.651-9.957V-10.91C9.116-10.876 8.481-10.86 7.746-10.86H4.387C3.651-10.86 3.016-10.893 2.482-10.96V-9.957C3.016-9.99 3.651-10.007 4.387-10.007H5.59V-8.251H4.888C4.353-8.251 3.852-8.285 3.384-8.352V-7.348C3.852-7.382 4.353-7.399 4.888-7.399H5.59V-5.793H4.788C4.186-5.793 3.618-5.811 3.083-5.844V-4.941C3.618-4.974 4.186-4.991 4.788-4.991ZM8.899-2.031C8.899-2.6 8.916-3.169 8.949-3.737H3.334C3.367-3.102 3.384-2.5 3.384-1.931 3.384-1.363 3.367-.727 3.334-.025H8.949C8.916-.761 8.899-1.43 8.899-2.031M7.846-.878H4.2860004V-2.834H7.846ZM7.846-2.834" fill="#2c292a"/>
<path transform="matrix(1,0,0,-1,265.6376,272.8234)" d="M0 0C-12.6 0-24.447 4.909-33.356 13.823-42.266 22.738-47.173 34.589-47.173 47.196-47.173 59.802-42.266 71.654-33.356 80.568-24.447 89.482-12.6 94.392 0 94.392 12.6 94.392 24.447 89.482 33.356 80.568 42.266 71.654 47.173 59.802 47.173 47.196 47.173 34.589 42.266 22.738 33.356 13.823 24.447 4.909 12.6 0 0 0M0 93.054C-25.274 93.054-45.835 72.482-45.835 47.196-45.835 21.91-25.274 1.338 0 1.338 25.274 1.338 45.835 21.91 45.835 47.196 45.835 72.482 25.274 93.054 0 93.054" fill="#f43040"/>
</g>
<path transform="matrix(1,0,0,-1,0,595.276)" d="M203.06 379.237H232.941V362.985H203.06Z" fill="#ffffff"/>
<g clip-path="url(#clip_5)">
<path transform="matrix(1,0,0,-1,208.7546,222.7912)" d="M0 0V-4.439C0-4.994 .015-5.626 .046-6.335H-.786C-.755-5.626-.74-4.994-.74-4.439V-1.064C-1.017-1.433-1.279-1.803-1.525-2.173-1.68-1.866-1.849-1.618-2.034-1.433-1.664-1.064-1.264-.571-.832 .046-.401 .663-.062 1.295 .185 1.942 .4 1.603 .647 1.371 .924 1.249 .647 1.032 .339 .616 0 0M-1.294 1.387C-1.479 1.603-1.71 1.788-1.987 1.942-1.094 2.743-.478 3.498-.139 4.208 .046 4.023 .293 3.838 .601 3.653 .077 2.975-.555 2.22-1.294 1.387M3.79-3.977C4.067-3.761 4.329-3.514 4.576-3.237L4.945-3.977C4.729-4.1 4.475-4.285 4.183-4.532 3.89-4.779 3.605-5.04 3.328-5.318L2.866-4.624C3.019-4.501 3.097-4.3 3.097-4.023V-2.266H2.08C2.08-2.944 2.026-3.553 1.918-4.092 1.81-4.632 1.556-5.21 1.155-5.826 .94-5.579 .693-5.394 .416-5.272 .878-4.748 1.148-4.123 1.225-3.399 1.301-2.675 1.324-2.097 1.294-1.665H3.836C3.805-2.251 3.79-3.022 3.79-3.977M4.298-.74C3.836-.71 3.25-.694 2.542-.694 1.833-.694 1.248-.71 .786-.74V-.046C1.248-.077 1.833-.092 2.542-.092 3.25-.092 3.836-.077 4.298-.046ZM1.756 1.295H2.45C2.45 2.527 2.434 3.468 2.403 4.115H3.189C3.158 3.498 3.143 2.558 3.143 1.295H3.929C3.929 1.911 3.913 2.543 3.882 3.191H4.622C4.591 2.851 4.576 2.435 4.576 1.942 4.576 1.48 4.591 1.064 4.622 .694H.971C1.001 1.125 1.017 1.541 1.017 1.942 1.017 2.342 1.001 2.759 .971 3.191H1.802C1.771 2.666 1.756 2.035 1.756 1.295M4.945-1.48C4.698-1.264 4.467-1.126 4.252-1.064 4.714-.17 5.076 .778 5.338 1.78 5.6 2.782 5.746 3.607 5.777 4.254 6.116 4.131 6.44 4.053 6.748 4.023 6.563 3.591 6.378 2.851 6.193 1.803H7.672C8.011 1.803 8.334 1.819 8.643 1.85V1.11C8.181 1.14 7.903 1.156 7.811 1.156 7.811 .293 7.765-.532 7.672-1.318 7.58-2.104 7.318-2.959 6.887-3.884 7.04-4.193 7.279-4.478 7.603-4.74 7.926-5.002 8.319-5.241 8.781-5.456 8.412-5.703 8.211-5.98 8.181-6.289 7.41-5.826 6.794-5.256 6.332-4.578 5.685-5.287 4.961-5.903 4.16-6.428 3.944-6.18 3.651-5.949 3.282-5.734 3.929-5.456 4.437-5.179 4.807-4.902 5.176-4.624 5.53-4.27 5.87-3.838 5.53-3.006 5.315-1.988 5.223-.786ZM5.824-.092C5.946-1.387 6.147-2.389 6.424-3.098 6.671-2.482 6.832-1.858 6.91-1.225 6.986-.594 7.04 .2 7.071 1.156H6.008C5.885 .755 5.715 .308 5.5-.185Z" fill="#2c292a"/>
<path transform="matrix(1,0,0,-1,222.7921,219.32309)" d="M0 0C-.124-1.048-.254-1.927-.393-2.636-.531-3.345-.724-4.069-.971-4.809-.539-5.456-.092-6.166 .37-6.936 .092-7.152-.185-7.383-.462-7.63-.771-6.921-1.109-6.274-1.479-5.688-1.726-6.181-2.034-6.651-2.403-7.098-2.773-7.545-3.174-8-3.605-8.462-3.79-8.216-4.067-7.938-4.437-7.63-3.852-7.229-3.374-6.813-3.004-6.381-2.634-5.95-2.311-5.456-2.034-4.902-2.558-4.131-3.097-3.453-3.651-2.867-3.374-2.652-3.128-2.451-2.912-2.266-2.481-2.728-2.049-3.299-1.618-3.977-1.31-2.99-1.094-1.912-.971-.74H-2.403C-2.958-.74-3.466-.756-3.929-.786V.046C-3.497 .015-3.004 0-2.45 0ZM4.021-8.37C4.021-8.647 4.09-8.801 4.229-8.832 4.368-8.862 4.576-8.878 4.853-8.878 5.161-8.878 5.353-8.824 5.431-8.716 5.507-8.609 5.577-8.216 5.639-7.537 5.916-7.722 6.239-7.861 6.609-7.953 6.424-8.878 6.224-9.402 6.008-9.526 5.792-9.649 5.515-9.711 5.176-9.711H4.113C3.744-9.711 3.497-9.602 3.374-9.387 3.25-9.171 3.189-8.94 3.189-8.693V-5.826C3.034-6.412 2.773-6.975 2.403-7.514 2.034-8.054 1.595-8.531 1.086-8.948 .578-9.364 .046-9.711-.508-9.988-.632-9.68-.878-9.371-1.248-9.063-.386-8.847 .331-8.462 .901-7.907 1.471-7.352 1.872-6.767 2.103-6.15 2.334-5.534 2.473-4.832 2.519-4.046 2.565-3.26 2.572-2.451 2.542-1.618 2.973-1.681 3.328-1.727 3.605-1.757 3.482-2.251 3.404-2.898 3.374-3.699 3.343-4.501 3.281-5.149 3.189-5.641H4.113C4.082-5.826 4.051-6.243 4.021-6.89ZM5.685-2.59C5.685-4.193 5.7-5.287 5.731-5.873H4.807V-.185H1.571V-5.919H.647C.677-5.179 .693-4.1 .693-2.682 .693-1.233 .677-.155 .647 .555H5.731C5.7 .061 5.685-.987 5.685-2.59" fill="#2c292a"/>
</g>
<path transform="matrix(1,0,0,-1,0,595.276)" d="M237.954 423.78H293.30299V406.324H237.954Z" fill="#ffffff"/>
<g clip-path="url(#clip_6)">
<path transform="matrix(1,0,0,-1,242.6431,184.10449)" d="M0 0C-1.02-.301-1.647-.502-1.88-.602-2.014-.234-2.148 .15-2.281 .552-1.88 .618-1.513 .685-1.178 .752V4.264C-1.178 4.932-1.195 5.484-1.228 5.919H-.176C-.209 5.484-.226 4.932-.226 4.264V.953L.927 1.204V8.026C-.143 8.026-.961 8.008-1.529 7.975V8.878C-.995 8.845-.476 8.828 .025 8.828H2.331C2.799 8.828 3.317 8.845 3.885 8.878V7.975C3.317 8.008 2.648 8.026 1.88 8.026V5.166C2.314 5.166 2.799 5.183 3.334 5.217V4.314C2.799 4.347 2.314 4.364 1.88 4.364V1.404L3.685 1.856V1.003C2.247 .635 1.019 .301 0 0M4.011 0C4.629 .334 5.155 .769 5.59 1.304 5.322 1.839 5.089 2.441 4.888 3.11 4.688 3.778 4.537 4.464 4.437 5.166L4.186 4.765C3.918 4.932 3.635 5.116 3.334 5.317 3.735 5.885 4.111 6.562 4.462 7.348 4.813 8.134 5.122 9.029 5.389 10.032 5.623 9.898 6.024 9.714 6.593 9.48 6.425 9.346 6.25 9.079 6.066 8.678 5.882 8.276 5.723 7.908 5.59 7.574H7.746C8.38 7.574 8.949 7.591 9.45 7.624V6.721C8.982 6.754 8.548 6.772 8.147 6.772 8.113 5.5 7.963 4.38 7.696 3.411 7.428 2.441 7.111 1.722 6.743 1.254 7.144 .785 7.595 .418 8.097 .15 8.598-.118 9.15-.318 9.751-.451 9.317-.853 9.049-1.237 8.949-1.605 8.38-1.304 7.888-1.003 7.47-.702 7.052-.401 6.626 0 6.192 .502 5.657-.034 5.13-.468 4.612-.803 4.094-1.136 3.567-1.437 3.033-1.705 2.833-1.237 2.565-.886 2.231-.652 2.799-.552 3.392-.335 4.011 0M5.389 5.367C5.556 4.196 5.823 3.143 6.192 2.207 6.459 2.842 6.676 3.486 6.843 4.138 7.01 4.79 7.127 5.668 7.194 6.772H5.289C5.055 6.303 4.788 5.801 4.487 5.267 4.821 5.3 5.122 5.333 5.389 5.367" fill="#2c292a"/>
<path transform="matrix(1,0,0,-1,253.4473,178.4364)" d="M0 0C.133 .267 .301 .568 .501 .903 1.437 .401 2.256-.084 2.958-.552 2.757-.82 2.557-1.137 2.356-1.505 1.654-.937 .869-.435 0 0M1.278-4.815C1.73-3.88 2.055-3.077 2.256-2.408 2.523-2.642 2.824-2.859 3.159-3.06 2.958-3.294 2.64-3.946 2.206-5.016 1.771-6.087 1.454-6.905 1.253-7.474 .919-7.206 .534-6.972 .1-6.772 .434-6.403 .827-5.752 1.278-4.815M.752 3.21C.953 3.444 1.153 3.695 1.354 3.963 2.156 3.461 2.891 2.942 3.56 2.408 3.325 2.207 3.091 1.923 2.858 1.555 2.289 2.123 1.587 2.675 .752 3.21M6.868 2.508C6.467 1.872 5.816 1.02 4.913-.05 6.584 .117 8.155 .251 9.626 .351 9.291 .886 8.957 1.354 8.623 1.756 8.924 1.956 9.175 2.14 9.375 2.307 10.579 .803 11.331-.218 11.631-.752 11.331-.886 11.03-1.071 10.729-1.304 10.561-1.037 10.344-.736 10.077-.401 8.74-.502 7.603-.594 6.668-.677 5.732-.761 4.863-.92 4.061-1.154 3.893-.72 3.726-.318 3.56 .05 3.86 .15 4.186 .368 4.537 .702 4.888 1.036 5.289 1.605 5.74 2.408 6.192 3.21 6.484 3.845 6.618 4.314 7.019 4.079 7.42 3.879 7.821 3.712 7.587 3.544 7.27 3.143 6.868 2.508M10.579-3.662V-5.819C10.579-6.286 10.595-6.838 10.629-7.474H9.526V-6.421H5.415V-7.474H4.362C4.395-6.972 4.412-6.421 4.412-5.819V-3.712C4.412-3.144 4.395-2.592 4.362-2.057H10.629C10.595-2.592 10.579-3.127 10.579-3.662M9.526-3.01H5.415V-5.468H9.526ZM9.526-5.467" fill="#2c292a"/>
<path transform="matrix(1,0,0,-1,267.5352,175.77802)" d="M0 0C0 .602-.017 1.136-.05 1.605H.953C.919 1.036 .902 .502 .902 0V-2.006C1.336-2.006 1.771-1.99 2.206-1.956V-2.909C1.738-2.876 1.304-2.859 .902-2.859V-8.276C.902-8.911 .919-9.413 .953-9.781H-.05C-.017-9.447 0-8.945 0-8.276V-2.859C-.468-2.859-.936-2.876-1.404-2.909V-1.956C-.902-1.99-.435-2.006 0-2.006ZM7.721-6.32C7.721-6.053 7.704-5.786 7.671-5.518H8.673C8.64-5.786 8.623-6.053 8.623-6.32H8.974C9.576-6.32 10.094-6.304 10.529-6.27V-7.223C10.06-7.19 9.542-7.173 8.974-7.173H8.623V-8.828C8.623-9.363 8.448-9.681 8.097-9.781 7.746-9.882 7.303-9.982 6.768-10.082 6.701-9.714 6.568-9.363 6.367-9.029 6.935-9.029 7.303-9.012 7.47-8.979 7.637-8.945 7.721-8.745 7.721-8.377V-7.173H3.51C2.808-7.173 2.256-7.207 1.855-7.273V-6.27C2.256-6.304 2.808-6.32 3.51-6.32ZM5.314 .401C5.314 .969 5.297 1.387 5.264 1.655H6.317C6.283 1.321 6.267 .903 6.267 .401H8.272C9.041 .401 9.609 .418 9.977 .451V-.451C9.609-.419 9.057-.401 8.323-.401H6.267V-1.204H9.175C9.141-1.705 9.125-2.191 9.125-2.658V-3.762C9.125-4.398 9.141-4.916 9.175-5.317H8.222V-4.815H6.267C6.267-5.116 6.283-5.417 6.317-5.718H5.264C5.297-5.384 5.314-5.083 5.314-4.815H3.66V-5.668H2.657C2.69-5.301 2.707-4.833 2.707-4.264V-2.709C2.707-2.074 2.69-1.572 2.657-1.204H5.314V-.401H4.262C3.593-.401 2.941-.419 2.306-.451V.451C2.908 .418 3.542 .401 4.211 .401ZM5.314-8.577C5.014-8.778 4.729-8.979 4.462-9.179 4.194-8.745 3.86-8.294 3.459-7.825 3.727-7.658 3.994-7.474 4.262-7.273 4.663-7.742 5.014-8.176 5.314-8.577M5.314-1.956H3.66V-2.608H5.314ZM5.314-3.361H3.66V-4.063H5.314ZM8.222-1.956H6.267V-2.608H8.222ZM8.222-3.361H6.267V-4.063H8.222ZM7.42 1.254 8.172 1.756C8.339 1.521 8.573 1.254 8.874 .953 8.573 .819 8.323 .669 8.122 .502 7.854 .769 7.621 1.02 7.42 1.254" fill="#2c292a"/>
<path transform="matrix(1,0,0,-1,281.523,184.1547)" d="M0 0C.534 .334 .869 .803 1.003 1.404H-.501C-1.17 1.404-1.788 1.387-2.356 1.354V2.257C-1.822 2.223-1.203 2.207-.501 2.207H1.103C1.103 2.575 1.086 2.959 1.053 3.361L2.156 3.26C2.122 3.126 2.106 2.775 2.106 2.207H4.813C4.813 2.541 4.796 2.942 4.763 3.411H5.916C5.882 2.942 5.866 2.541 5.866 2.207H7.37C8.004 2.207 8.589 2.223 9.125 2.257V1.354C8.589 1.387 8.004 1.404 7.37 1.404H5.866V.251C5.866-.351 5.882-.953 5.916-1.555H4.763C4.796-.886 4.813-.301 4.813 .201V1.404H2.005C1.905 .568 1.554-.067 .953-.502 .351-.936-.418-1.321-1.354-1.655-1.554-1.354-1.788-1.086-2.056-.853-1.221-.618-.535-.335 0 0M-.351 7.173C-.118 6.972 .167 6.788 .501 6.621 .301 6.42 .075 6.152-.175 5.819-.426 5.484-.786 5.083-1.253 4.615-1.488 4.815-1.755 5.016-2.056 5.217-1.488 5.751-.92 6.403-.351 7.173M.727 4.69C1.078 4.974 1.329 5.308 1.479 5.693 1.629 6.077 1.721 6.822 1.755 7.925H.15C-.519 7.925-1.203 7.908-1.905 7.875V8.778C-1.237 8.744-.569 8.728 .1 8.728H3.008C2.908 9.262 2.79 9.681 2.657 9.982 3.058 10.015 3.442 10.065 3.81 10.132 3.911 9.664 3.994 9.196 4.061 8.728H7.069C7.637 8.728 8.188 8.744 8.724 8.778V7.875C8.222 7.908 7.671 7.925 7.069 7.925H5.264V4.966C5.264 4.497 5.114 4.213 4.813 4.113 4.512 4.013 4.061 3.912 3.459 3.812 3.426 4.013 3.292 4.33 3.058 4.765 3.726 4.765 4.102 4.815 4.186 4.916 4.269 5.016 4.312 5.217 4.312 5.518V7.925H2.657C2.657 6.855 2.59 6.069 2.457 5.568 2.323 5.066 2.081 4.623 1.73 4.238 1.379 3.854 .869 3.461 .201 3.06 .067 3.293-.251 3.528-.752 3.762-.118 4.096 .376 4.405 .727 4.69M6.066 6.571C6.333 6.738 6.568 6.905 6.768 7.073 7.336 6.437 7.904 5.768 8.473 5.066 8.272 4.966 7.971 4.782 7.57 4.514 7.102 5.183 6.601 5.869 6.066 6.571" fill="#2c292a"/>
<path transform="matrix(1,0,0,-1,243.1557,211.33899)" d="M0 0C.585 .03 1.294 .154 2.126 .37 2.958 .585 3.605 .816 4.067 1.064 3.697 1.556 3.281 1.988 2.819 2.358 3.066 2.543 3.266 2.743 3.42 2.959 4.005 2.405 4.483 1.911 4.853 1.48 5.315 1.757 5.731 2.058 6.101 2.381 6.471 2.705 6.794 3.052 7.071 3.422H3.097C2.45 2.867 1.694 2.312 .832 1.757 .647 2.035 .416 2.25 .139 2.405 .971 2.774 1.725 3.252 2.403 3.838 3.081 4.423 3.528 4.932 3.744 5.364 3.99 5.179 4.252 4.994 4.529 4.809 4.375 4.686 4.129 4.454 3.79 4.115H8.597C7.703 2.821 6.824 1.88 5.962 1.295 5.099 .709 4.259 .27 3.443-.023 2.626-.316 1.679-.601 .601-.879 .477-.571 .277-.277 0 0M6.84 .601C6.563 .354 6.301 .123 6.055-.092H9.891C9.521-1.017 9.036-1.819 8.435-2.497 7.834-3.175 7.164-3.699 6.424-4.069 5.685-4.439 4.868-4.747 3.975-4.994 3.081-5.24 1.987-5.425 .693-5.549 .57-5.209 .385-4.886 .139-4.578 .908-4.608 1.826-4.532 2.889-4.347 3.952-4.162 4.914-3.869 5.777-3.468 5.223-2.913 4.76-2.467 4.391-2.127 4.637-1.942 4.853-1.742 5.038-1.526 5.469-1.958 5.962-2.467 6.517-3.052 6.917-2.806 7.295-2.49 7.649-2.104 8.003-1.719 8.303-1.28 8.55-.786H5.361C5.053-1.033 4.622-1.334 4.067-1.688 3.513-2.043 2.742-2.436 1.756-2.867 1.602-2.559 1.402-2.312 1.155-2.127 2.172-1.819 3.135-1.341 4.044-.694 4.953-.046 5.592 .57 5.962 1.156 6.208 .909 6.501 .724 6.84 .601" fill="#2c292a"/>
<path transform="matrix(1,0,0,-1,257.378,215.4545)" d="M0 0C-.863-.462-1.602-.848-2.218-1.156-2.465-.848-2.696-.57-2.912-.324-1.402 .169-.208 .694 .67 1.249 1.548 1.803 2.172 2.281 2.542 2.682 2.419 2.897 2.295 3.082 2.172 3.237 1.217 2.558 .37 2.019-.37 1.618-1.109 1.217-1.695 .94-2.126 .786-2.342 1.094-2.573 1.356-2.819 1.572-1.587 1.942-.609 2.342 .116 2.774 .839 3.206 1.356 3.561 1.664 3.838 1.54 3.992 1.402 4.162 1.248 4.347 .755 4.069 .223 3.799-.347 3.537-.917 3.275-1.525 3.006-2.172 2.728-2.357 3.036-2.573 3.345-2.819 3.653-1.556 3.961-.586 4.285 .093 4.624 .77 4.963 1.263 5.302 1.571 5.641H.924C.493 5.641-.016 5.626-.601 5.595V6.428C-.016 6.396 .493 6.381 .924 6.381H4.067C4.467 6.381 4.961 6.396 5.546 6.428V5.595C4.961 5.626 4.467 5.641 4.067 5.641H2.819C2.542 5.394 2.234 5.117 1.895 4.809 2.141 4.593 2.372 4.37 2.588 4.139 2.804 3.907 3.035 3.591 3.282 3.191 3.651 3.376 4.067 3.63 4.53 3.954 4.992 4.277 5.408 4.686 5.777 5.179 6.24 4.747 6.547 4.454 6.702 4.3 6.332 4.146 6.008 3.992 5.731 3.838 5.454 3.683 5.223 3.514 5.038 3.329 5.315 2.405 5.669 1.741 6.101 1.341 6.532 .94 7.133 .555 7.903 .185 7.595-.031 7.318-.324 7.072-.694 6.208-.139 5.577 .439 5.177 1.04 4.776 1.642 4.498 2.266 4.345 2.913 4.098 2.759 3.851 2.62 3.605 2.497 3.759 1.665 3.828 .971 3.813 .416 3.797-.139 3.566-.562 3.12-.855 2.673-1.148 2.141-1.341 1.525-1.433 1.402-1.032 1.263-.678 1.109-.37 1.633-.37 2.049-.324 2.357-.231 2.665-.139 2.842 .092 2.889 .462 2.935 .832 2.912 1.31 2.819 1.896 1.803 1.094 .862 .462 0 0M3.097 8.185H7.349C7.318 7.691 7.303 7.29 7.303 6.982 7.303 6.705 7.318 6.35 7.349 5.919H6.378V7.445H-1.664V5.688H-2.634C-2.604 6.18-2.588 6.612-2.588 6.982-2.588 7.383-2.604 7.784-2.634 8.185H1.987C1.864 8.585 1.725 8.94 1.571 9.248 1.972 9.341 2.341 9.448 2.681 9.572 2.742 9.263 2.881 8.801 3.097 8.185" fill="#2c292a"/>
<path transform="matrix(1,0,0,-1,266.0079,209.4432)" d="M0 0C.462 .431 .87 .971 1.225 1.618 1.579 2.266 1.879 2.913 2.126 3.561 2.403 3.376 2.773 3.237 3.235 3.144 2.927 2.774 2.603 2.281 2.265 1.665H2.958C3.358 1.665 3.898 1.68 4.576 1.711V.832C3.898 .863 3.358 .879 2.958 .879H1.849C1.294 .077 .893-.478 .647-.786 .4-.478 .185-.216 0 0M4.252-1.064C3.759-1.033 3.358-1.017 3.05-1.017V-2.358C3.574-2.358 4.113-2.343 4.668-2.312V-3.237C4.113-3.206 3.574-3.191 3.05-3.191V-5.549C3.513-5.149 3.913-4.779 4.252-4.439 4.345-4.84 4.437-5.164 4.529-5.41 4.345-5.503 4.036-5.734 3.605-6.104 3.173-6.474 2.788-6.844 2.45-7.214 2.265-6.936 2.064-6.674 1.849-6.428 2.064-6.12 2.187-5.75 2.219-5.318V-3.191C1.787-3.191 1.294-3.206 .74-3.237V-2.312C1.356-2.343 1.849-2.358 2.219-2.358V-1.017C2.034-1.017 1.756-1.033 1.387-1.064V-.277C1.879-.308 2.357-.324 2.819-.324 3.312-.324 3.79-.308 4.252-.277ZM10.076 .971V-.139C10.076-.663 10.091-1.218 10.122-1.803H7.857C7.95-2.358 8.119-2.898 8.366-3.422 8.982-3.022 9.459-2.574 9.798-2.081 10.014-2.297 10.291-2.559 10.63-2.867 9.736-3.36 9.105-3.792 8.735-4.162 9.259-5.056 10.045-5.719 11.092-6.15 10.723-6.396 10.43-6.689 10.214-7.029 9.475-6.535 8.812-5.819 8.227-4.878 7.641-3.938 7.24-2.913 7.025-1.803H6.24V-5.919C6.486-5.796 6.871-5.519 7.395-5.087 7.487-5.395 7.61-5.672 7.765-5.919 7.179-6.227 6.455-6.705 5.592-7.352 5.408-7.044 5.253-6.782 5.13-6.566 5.315-6.289 5.423-5.888 5.454-5.364V.786C5.454 1.433 5.438 2.127 5.408 2.867H10.122C10.091 2.281 10.076 1.649 10.076 .971M9.244 2.081H6.2400009V.9250001H9.244ZM9.244 .185H6.2400009V-1.017H9.244ZM9.244-1.017" fill="#2c292a"/>
<path transform="matrix(1,0,0,-1,281.0391,209.95182)" d="M0 0C-.139-.247-.331-.555-.578-.925V-5.087C-.578-5.488-.563-6.104-.532-6.936H-1.502C-1.472-6.011-1.456-5.318-1.456-4.855V-1.896C-1.733-2.358-2.103-2.821-2.565-3.283-2.781-2.975-2.981-2.713-3.166-2.497-2.458-1.819-1.903-1.172-1.502-.555-1.102 .061-.747 .647-.439 1.202-.131 1.017 .223 .816 .624 .601 .347 .447 .139 .246 0 0M-.763 2.428C-1.163 1.795-1.718 1.094-2.426 .324-2.611 .57-2.812 .801-3.027 1.017-2.535 1.51-2.088 2.042-1.687 2.613-1.287 3.183-.994 3.683-.809 4.115-.501 3.931-.162 3.699 .208 3.422-.039 3.391-.363 3.059-.763 2.428M6.17 .046C6.755 .046 7.295 .061 7.788 .092V-.832C7.295-.802 6.771-.786 6.216-.786H5.569V-5.826C5.6-6.196 5.484-6.451 5.223-6.589 4.961-6.728 4.444-6.844 3.674-6.936 3.612-6.566 3.443-6.196 3.166-5.826 3.69-5.888 4.059-5.911 4.275-5.896 4.49-5.88 4.614-5.718 4.645-5.41V-.786H2.796C2.211-.786 1.656-.802 1.132-.832V.092C1.687 .061 2.242 .046 2.796 .046ZM5.384 3.191C5.908 3.191 6.447 3.206 7.002 3.237V2.358C6.447 2.389 5.877 2.405 5.292 2.405H3.582C2.904 2.405 2.318 2.389 1.826 2.358V3.237C2.318 3.206 2.904 3.191 3.582 3.191Z" fill="#2c292a"/>
<path transform="matrix(1,0,0,-1,245.8363,221.14652)" d="M0 0C-.123-.17-.231-.363-.323-.578H5.361C5.824-.578 6.332-.563 6.887-.532V-1.272H3.004V-2.012H4.807C5.177-2.012 5.608-1.996 6.101-1.965V-2.751C5.608-2.721 5.177-2.705 4.807-2.705H3.004V-3.445H4.899C5.299-3.445 5.761-3.43 6.286-3.399V-4.185C5.761-4.154 5.299-4.139 4.899-4.139H3.004V-4.786H5.269C5.761-4.786 6.255-4.771 6.748-4.74V-5.526C6.286-5.495 5.808-5.48 5.315-5.48H-.693V-5.85H-1.618C-1.556-5.295-1.525-4.786-1.525-4.324V-2.196C-1.71-2.474-1.872-2.69-2.01-2.844-2.149-2.998-2.311-3.183-2.496-3.399-2.712-3.183-2.943-2.998-3.189-2.844-2.974-2.597-2.619-2.166-2.126-1.549-1.633-.933-1.271-.424-1.04-.023-.809 .377-.647 .732-.555 1.04-.277 .886 .061 .701 .462 .486 .277 .331 .123 .169 0 0M1.756-6.404C1.756-6.282 1.74-6.019 1.71-5.618H2.681C2.65-6.05 2.635-6.312 2.635-6.404H5.592C6.147-6.404 6.686-6.389 7.21-6.358V-7.098H3.929C4.36-7.468 4.837-7.753 5.361-7.953 5.885-8.154 6.609-8.362 7.534-8.578 7.256-8.886 7.056-9.194 6.933-9.503 6.316-9.287 5.816-9.094 5.431-8.925 5.045-8.755 4.691-8.57 4.368-8.37 4.044-8.17 3.774-7.969 3.559-7.769 3.343-7.568 3.112-7.345 2.866-7.098H2.635V-8.162C2.635-8.809 2.665-9.364 2.727-9.826H1.71C1.74-9.394 1.756-8.839 1.756-8.162V-7.098H1.571C1.356-7.407 1.109-7.684 .832-7.93 .555-8.177 .254-8.401-.069-8.601-.393-8.801-.739-8.994-1.109-9.179-1.479-9.364-1.926-9.533-2.45-9.688-2.573-9.379-2.758-9.071-3.004-8.763-2.357-8.609-1.695-8.401-1.017-8.138-.339-7.877 .169-7.53 .508-7.098H-2.819V-6.358C-2.45-6.389-1.895-6.404-1.155-6.404ZM2.08-1.272H-.6930001V-2.012H2.08ZM2.08-2.705H-.6930001V-3.445H2.08ZM2.08-4.139H-.6930001V-4.786H2.08ZM3.12 .624C3.289 .439 3.466 .223 3.651-.023 3.466-.178 3.204-.347 2.866-.532 2.681-.285 2.526-.085 2.403 .069 2.28 .223 2.126 .377 1.941 .532 2.187 .686 2.419 .871 2.635 1.087 2.788 .963 2.95 .809 3.12 .624" fill="#2c292a"/>
<path transform="matrix(1,0,0,-1,260.2899,220.15232)" d="M0 0C-.031-.863-.046-1.681-.046-2.451H3.975C3.944-3.068 3.929-3.915 3.929-4.994 3.929-6.042 3.944-6.829 3.975-7.352H2.958V-6.659H-.046V-8.647C-.046-9.017-.031-9.711 0-10.728H-1.109C-1.048-10.173-1.017-9.526-1.017-8.786V-6.659H-4.021V-7.352H-5.038C-5.008-6.89-4.992-6.104-4.992-4.994-4.992-3.854-5.008-3.006-5.038-2.451H-1.017C-1.017-1.618-1.033-.802-1.063 0ZM-1.017-3.191H-4.021V-5.9189999H-1.017ZM2.958-3.191H-.046000005V-5.9189999H2.958ZM2.958-5.919" fill="#2c292a"/>
<path transform="matrix(1,0,0,-1,270.1675,221.35462)" d="M0 0C-.185-.092-.355-.185-.508-.277 .786-.277 1.602-.262 1.941-.231V-1.11C1.725-1.11 1.309-1.095 .693-1.064L1.479-1.433C1.263-1.773 .955-2.374 .555-3.237 1.294-3.237 1.864-3.222 2.265-3.191V-4.069C1.864-4.039 1.463-4.023 1.063-4.023H-2.403C-2.958-4.023-3.42-4.039-3.79-4.069V-3.191C-3.575-3.222-2.989-3.237-2.034-3.237-2.25-2.713-2.527-2.173-2.865-1.618-2.619-1.496-2.357-1.357-2.08-1.202-1.772-1.634-1.449-2.173-1.109-2.821-1.418-2.975-1.649-3.114-1.803-3.237H-.323C.077-2.282 .324-1.557 .416-1.064H-.693C-2.111-1.064-3.035-1.079-3.466-1.11V-.231C-3.097-.262-2.265-.277-.971-.277-1.218 .215-1.464 .601-1.71 .879-1.433 1.033-1.187 1.186-.971 1.341-.478 .724-.154 .277 0 0M1.387-7.26C1.387-7.969 1.402-8.708 1.433-9.479H.508V-8.555H-1.987V-9.479H-2.912C-2.881-8.832-2.865-8.154-2.865-7.445-2.865-6.705-2.881-5.935-2.912-5.133H1.433C1.402-5.842 1.387-6.551 1.387-7.26M.508-5.873H-1.988V-7.815H.508ZM6.494-5.063C6.755-5.542 6.871-6.027 6.84-6.52 6.809-7.013 6.601-7.391 6.216-7.653 5.831-7.915 5.253-8.092 4.483-8.185 4.421-7.846 4.282-7.476 4.067-7.075 4.807-7.075 5.292-6.99 5.523-6.821 5.754-6.651 5.862-6.427 5.847-6.15 5.831-5.873 5.669-5.487 5.361-4.994 5.053-4.501 4.698-4.054 4.298-3.653 4.545-3.098 4.868-2.035 5.269-.462H3.605V-9.572H2.681C2.711-8.925 2.727-8.185 2.727-7.352V-1.711C2.727-1.033 2.696-.355 2.634 .324H6.517C6.024-1.28 5.608-2.559 5.269-3.514 5.824-4.069 6.232-4.586 6.494-5.063" fill="#2c292a"/>
<path transform="matrix(1,0,0,-1,283.5118,223.89789)" d="M0 0C.708 0 1.355 .03 1.941 .092V-.74C2.65-.185 3.112 .262 3.328 .601 3.543 .293 3.851 .061 4.252-.092 3.913-.309 3.543-.548 3.143-.809 2.742-1.072 2.372-1.326 2.034-1.572H3.513C4.005-1.572 4.498-1.557 4.992-1.526V-2.312C4.498-2.282 4.005-2.266 3.513-2.266H.878C.662-2.389 .277-2.605-.277-2.913H3.466C3.435-3.468 3.42-4.147 3.42-4.948 3.42-5.719 3.435-6.365 3.466-6.89H2.588V-6.52H-2.45V-7.029H-3.374C-3.344-6.443-3.328-5.565-3.328-4.393-3.913-4.609-4.483-4.809-5.038-4.994-5.13-4.717-5.285-4.455-5.5-4.208-5.038-4.115-4.314-3.884-3.328-3.514V-2.913H-2.034C-1.418-2.667-.94-2.451-.601-2.266H-3.929C-4.422-2.266-4.884-2.282-5.315-2.312V-1.526C-4.884-1.557-4.407-1.572-3.882-1.572H-.878V-.74H-2.727C-3.22-.74-3.682-.756-4.113-.786V.092C-3.682 .03-3.22 0-2.727 0H-.878V.786H.046C.015 .478 0 .215 0 0M3.79 2.127C3.79 1.726 3.805 1.341 3.836 .971H-4.206C-4.176 1.433-4.16 1.85-4.16 2.22-4.16 2.59-4.176 2.99-4.206 3.422H3.836C3.805 2.99 3.79 2.558 3.79 2.127M-1.756 2.728H-3.3270002V1.6179999H-1.756ZM-2.45-4.439H2.588V-3.653H-1.71C-2.049-3.808-2.296-3.931-2.45-4.023ZM2.588-5.087H-2.45V-5.781H2.588ZM.601 2.728H-.92399999V1.6179999H.601ZM.601-1.572C.786-1.449 1.217-1.172 1.895-.74H0V-1.572ZM2.958 2.728H1.433V1.6179999H2.958ZM2.958 1.618" fill="#2c292a"/>
</g>
<path transform="matrix(1,0,0,-1,256.6025,243.6625)" d="M0 0H-1.109L-1.756 2.451H-3.79L-4.437 0H-5.546L-3.235 8H-2.311ZM-1.987 3.329-2.727 6.15H-2.819L-3.559 3.329Z" fill="#2c292a"/>
<path transform="matrix(1,0,0,-1,262.079,236.63379)" d="M0 0H-1.849V-7.029H-2.912V0H-4.761V.879H0Z" fill="#2c292a"/>
<path transform="matrix(1,0,0,-1,268.1098,243.6625)" d="M0 0H-.924V5.641H-1.017L-2.126 0H-2.866L-3.975 5.641H-4.067V0H-4.992V7.907H-3.559L-2.542 2.682H-2.45L-1.433 7.907H0Z" fill="#2c292a"/>
<g clip-path="url(#clip_7)">
<path transform="matrix(1,0,0,-1,273.6517,240.4256)" d="M0 0C-.216-.185-.478-.386-.786-.601-.971-.201-1.294 .339-1.756 1.017V-2.358C-1.756-2.975-1.741-3.668-1.71-4.439H-2.727C-2.697-3.668-2.681-2.975-2.681-2.358V.601C-2.835 .139-3.004-.301-3.189-.717-3.374-1.133-3.636-1.603-3.975-2.127-4.252-1.819-4.499-1.572-4.714-1.387-4.468-1.11-4.144-.571-3.744 .231-3.344 1.033-3.035 1.926-2.819 2.913H-3.097C-3.528 2.913-3.96 2.882-4.391 2.821V3.699C-3.96 3.668-3.544 3.653-3.143 3.653H-2.681V4.578C-2.681 5.071-2.697 5.533-2.727 5.965H-1.664C-1.726 5.657-1.756 5.194-1.756 4.578V3.653H-1.248C-.909 3.653-.524 3.668-.092 3.699V2.867C-.771 2.897-1.325 2.913-1.756 2.913V1.064C-1.571 1.217-1.356 1.387-1.109 1.572-.617 .894-.247 .37 0 0M4.298 3.144V-2.867C4.298-3.268 4.391-3.483 4.576-3.514 4.761-3.545 4.914-3.553 5.038-3.537 5.161-3.522 5.246-3.415 5.292-3.214 5.338-3.014 5.361-2.713 5.361-2.312 5.639-2.467 5.962-2.59 6.332-2.682 6.208-3.329 6.085-3.761 5.962-3.977 5.839-4.192 5.639-4.3 5.361-4.3H4.391C4.021-4.3 3.751-4.215 3.582-4.046 3.412-3.876 3.343-3.53 3.374-3.006V4.578H1.618C1.618 2.821 1.595 1.457 1.548 .486 1.502-.486 1.364-1.364 1.132-2.15 .901-2.936 .446-3.73-.231-4.532-.386-4.347-.663-4.1-1.063-3.792-.632-3.453-.285-3.037-.023-2.543 .238-2.05 .416-1.542 .508-1.017 .601-.493 .662 .061 .693 .647 .724 1.233 .74 1.973 .74 2.867 .74 3.792 .724 4.624 .693 5.364H4.345C4.314 4.501 4.298 3.761 4.298 3.144" fill="#2c292a"/>
<path transform="matrix(1,0,0,-1,124.7432,272.8234)" d="M0 0C-12.6 0-24.447 4.909-33.356 13.823-42.266 22.738-47.173 34.589-47.173 47.196-47.173 59.802-42.266 71.654-33.356 80.568-24.447 89.482-12.6 94.392 0 94.392 12.6 94.392 24.447 89.482 33.357 80.568 42.266 71.654 47.173 59.802 47.173 47.196 47.173 34.589 42.266 22.738 33.357 13.823 24.447 4.909 12.6 0 0 0M0 93.054C-25.274 93.054-45.835 72.482-45.835 47.196-45.835 21.91-25.274 1.338 0 1.338 25.274 1.338 45.835 21.91 45.835 47.196 45.835 72.482 25.274 93.054 0 93.054" fill="#f43040"/>
</g>
<path transform="matrix(1,0,0,-1,0,595.276)" d="M160.535 379.237H190.416V362.985H160.535Z" fill="#ffffff"/>
<g clip-path="url(#clip_8)">
<path transform="matrix(1,0,0,-1,169.1412,222.9762)" d="M0 0H3.651C4.267 0 4.837 .015 5.361 .046V-.925C4.868-.863 4.314-.832 3.698-.832H-.37C-.894-1.942-1.449-2.852-2.033-3.561-2.619-4.27-3.251-4.933-3.929-5.549-4.175-5.272-4.468-5.025-4.807-4.809-4.375-4.594-3.829-4.131-3.166-3.422-2.504-2.713-1.911-1.85-1.386-.832H-2.265C-2.974-.832-3.667-.863-4.345-.925V.046C-3.667 .015-2.974 0-2.265 0H-1.017C-.709 .678-.478 1.341-.323 1.988-.016 1.803 .339 1.649 .74 1.526 .647 1.371 .4 .863 0 0M.277 4.67C.709 4.084 1.032 3.637 1.248 3.329 .878 3.113 .601 2.944 .416 2.821H4.992C4.961 2.389 4.945 2.065 4.945 1.85 4.945 1.634 4.961 1.341 4.992 .971H4.021V2.081H-2.865V.971H-3.836C-3.806 1.217-3.79 1.495-3.79 1.803-3.79 2.111-3.806 2.451-3.836 2.821H.277C.154 3.098-.123 3.545-.554 4.162-.339 4.285-.062 4.454 .277 4.67M.901-3.306C.516-3.877 .077-4.47-.416-5.087-.016-5.087 1.309-5.025 3.559-4.902 3.343-4.439 3.004-3.869 2.542-3.191 2.788-3.068 3.081-2.883 3.42-2.636 4.283-3.993 4.899-5.056 5.269-5.826 4.93-5.98 4.606-6.165 4.298-6.381 4.144-6.042 4.021-5.795 3.929-5.641 2.572-5.764 1.433-5.865 .508-5.942-.416-6.019-1.079-6.134-1.479-6.289-1.634-5.857-1.787-5.472-1.941-5.133-1.325-4.855-.794-4.355-.347-3.63 .1-2.906 .462-2.158 .74-1.387 1.017-1.603 1.371-1.819 1.803-2.035 1.587-2.312 1.286-2.736 .901-3.306" fill="#2c292a"/>
<path transform="matrix(1,0,0,-1,180.3131,219.32309)" d="M0 0C-.123-1.048-.254-1.927-.393-2.636-.532-3.345-.724-4.069-.971-4.809-.539-5.456-.092-6.166 .37-6.936 .092-7.152-.185-7.383-.462-7.63-.771-6.921-1.109-6.274-1.479-5.688-1.726-6.181-2.034-6.651-2.403-7.098-2.773-7.545-3.174-8-3.605-8.462-3.79-8.216-4.067-7.938-4.437-7.63-3.852-7.229-3.374-6.813-3.004-6.381-2.634-5.95-2.311-5.456-2.034-4.902-2.558-4.131-3.097-3.453-3.651-2.867-3.374-2.652-3.128-2.451-2.912-2.266-2.481-2.728-2.049-3.299-1.618-3.977-1.31-2.99-1.094-1.912-.971-.74H-2.403C-2.958-.74-3.466-.756-3.929-.786V.046C-3.497 .015-3.004 0-2.45 0ZM4.021-8.37C4.021-8.647 4.09-8.801 4.229-8.832 4.368-8.862 4.576-8.878 4.853-8.878 5.161-8.878 5.353-8.824 5.431-8.716 5.507-8.609 5.577-8.216 5.639-7.537 5.916-7.722 6.239-7.861 6.609-7.953 6.424-8.878 6.224-9.402 6.008-9.526 5.793-9.649 5.515-9.711 5.176-9.711H4.114C3.744-9.711 3.497-9.602 3.374-9.387 3.25-9.171 3.189-8.94 3.189-8.693V-5.826C3.034-6.412 2.773-6.975 2.403-7.514 2.034-8.054 1.595-8.531 1.086-8.948 .578-9.364 .046-9.711-.508-9.988-.632-9.68-.878-9.371-1.248-9.063-.386-8.847 .331-8.462 .901-7.907 1.471-7.352 1.872-6.767 2.103-6.15 2.334-5.534 2.473-4.832 2.519-4.046 2.565-3.26 2.572-2.451 2.542-1.618 2.973-1.681 3.328-1.727 3.605-1.757 3.482-2.251 3.404-2.898 3.374-3.699 3.343-4.501 3.282-5.149 3.189-5.641H4.114C4.082-5.826 4.051-6.243 4.021-6.89ZM5.685-2.59C5.685-4.193 5.7-5.287 5.731-5.873H4.807V-.185H1.571V-5.919H.647C.677-5.179 .693-4.1 .693-2.682 .693-1.233 .677-.155 .647 .555H5.731C5.7 .061 5.685-.987 5.685-2.59" fill="#2c292a"/>
</g>
<path transform="matrix(1,0,0,-1,0,595.276)" d="M98.969 423.78H154.118V406.324H98.969Z" fill="#ffffff"/>
<g clip-path="url(#clip_9)">
<path transform="matrix(1,0,0,-1,107.6374,174.9252)" d="M0 0C.969-1.171 1.755-1.974 2.356-2.408 2.958-2.843 3.509-3.177 4.011-3.411 4.512-3.645 4.996-3.829 5.465-3.963 5.13-4.331 4.913-4.682 4.813-5.016 4.144-4.715 3.542-4.398 3.008-4.063 2.473-3.729 1.93-3.303 1.379-2.784 .827-2.266 .2-1.555-.501-.652-1.137-1.555-1.763-2.3-2.381-2.884-3-3.47-3.527-3.93-3.961-4.264-4.395-4.598-4.88-4.933-5.415-5.267-5.482-5.134-5.749-4.866-6.217-4.464-5.515-4.13-4.847-3.729-4.211-3.26-3.577-2.793-2.942-2.199-2.306-1.48-1.672-.761-1.153 .016-.752 .853-.385 .618-.05 .434 .251 .301ZM3.309-8.327C3.309-9.53 3.325-10.316 3.359-10.684H2.306V-9.731H-3.259V-10.835H-4.261C-4.229-10.433-4.211-9.664-4.211-8.527-4.211-7.357-4.229-6.521-4.261-6.019H3.359C3.325-6.354 3.309-7.123 3.309-8.327M1.103-3.963C1.637-3.963 2.106-3.946 2.507-3.912V-4.866C2.072-4.833 1.621-4.815 1.153-4.815H-1.655C-2.356-4.815-2.925-4.833-3.359-4.866V-3.912C-2.725-3.946-2.156-3.963-1.655-3.963ZM2.306-6.822H-3.259V-8.929H2.306ZM2.306-8.928" fill="#2c292a"/>
<path transform="matrix(1,0,0,-1,117.2133,176.78119)" d="M0 0V-6.421C0-7.491 .016-8.343 .05-8.979H-1.103C-1.07-8.377-1.053-7.541-1.053-6.471V-1.756C-1.521-2.525-1.973-3.177-2.407-3.712-2.674-3.311-2.908-3.027-3.108-2.859-2.674-2.391-2.148-1.614-1.529-.527-.911 .56-.451 1.672-.15 2.809 .217 2.575 .652 2.358 1.153 2.157 .852 1.923 .468 1.204 0 0M3.56 .451H6.869C7.603 .451 8.189 .468 8.623 .502V-.401C8.189-.368 7.603-.351 6.869-.351H4.562V-2.307H6.618C7.186-2.307 7.654-2.291 8.022-2.257V-3.21C7.587-3.177 7.119-3.16 6.618-3.16H4.562V-5.417H6.718C7.386-5.417 7.938-5.401 8.373-5.367V-6.32C7.938-6.287 7.403-6.27 6.768-6.27H4.562V-7.223C4.562-8.159 4.579-8.794 4.613-9.129H3.56C3.592-8.761 3.61-8.259 3.61-7.624V-.351H3.108C2.607-1.221 2.122-1.973 1.654-2.608 1.286-2.274 .969-2.057 .702-1.956 1.17-1.488 1.654-.82 2.156 .05 2.657 .919 3.058 1.856 3.359 2.859 3.86 2.625 4.294 2.458 4.663 2.358 4.328 2.089 3.961 1.455 3.56 .451" fill="#2c292a"/>
<path transform="matrix(1,0,0,-1,131.201,174.82489)" d="M0 0C.401 0 .835 .016 1.304 .05V-.803C.935-.77 .602-.752 .301-.752V-7.424C.668-7.323 1.003-7.24 1.304-7.173 1.236-7.608 1.22-7.892 1.253-8.026 .852-8.093 .534-8.16 .301-8.226V-9.38C.301-9.882 .317-10.45 .351-11.085H-.702C-.635-10.45-.602-9.882-.602-9.38V-8.427C-.97-8.494-1.429-8.611-1.98-8.778-2.532-8.946-3.126-9.146-3.76-9.38-3.794-9.146-3.911-8.762-4.111-8.226-3.911-8.226-3.56-8.176-3.058-8.076V-.752C-3.393-.752-3.71-.786-4.011-.853V.05C-3.61 .016-3.192 0-2.757 0ZM-.602-.752H-2.1560002V-2.508H-.602ZM-.602-3.311H-2.1560002V-5.267H-.602ZM-.602-6.069H-2.156V-7.925C-1.788-7.859-1.271-7.758-.602-7.624ZM5.69-.727C5.573-.978 5.365-1.372 5.064-1.906 5.766-1.906 6.417-1.89 7.019-1.856V-2.759C6.417-2.692 5.899-2.658 5.465-2.658H4.462C4.428-3.896 4.395-4.765 4.362-5.267H5.816C6.217-5.267 6.701-5.25 7.27-5.217V-6.12C6.701-6.087 6.217-6.069 5.816-6.069H4.512C4.713-6.972 5.114-7.775 5.716-8.477 6.317-9.179 6.985-9.614 7.721-9.781 7.487-9.982 7.311-10.174 7.194-10.358 7.077-10.541 7.002-10.751 6.969-10.985 6.267-10.483 5.682-9.932 5.214-9.33 4.746-8.728 4.362-7.975 4.061-7.073 3.827-7.842 3.526-8.544 3.159-9.179 2.79-9.814 2.323-10.45 1.755-11.085 1.655-10.951 1.504-10.801 1.304-10.634 1.103-10.466 .953-10.383 .852-10.383 1.32-10.082 1.763-9.606 2.181-8.954 2.599-8.301 2.874-7.767 3.008-7.348 3.141-6.931 3.242-6.504 3.309-6.069H2.707C2.172-6.069 1.604-6.087 1.003-6.12V-5.217C1.604-5.25 2.172-5.267 2.707-5.267H3.409C3.476-4.297 3.509-3.428 3.509-2.658H3.008C2.54-2.658 1.988-2.692 1.354-2.759V-1.856C1.988-1.89 2.54-1.906 3.008-1.906H4.262C4.663-.97 4.964-.084 5.164 .752 5.365 .618 5.732 .434 6.267 .201 5.999-.168 5.807-.477 5.69-.727M3.509-1.204C3.108-1.372 2.841-1.539 2.707-1.705 2.54-1.304 2.189-.669 1.655 .201 1.755 .234 1.988 .384 2.356 .652 2.958-.285 3.342-.903 3.509-1.204" fill="#2c292a"/>
<path transform="matrix(1,0,0,-1,150.2023,183.30191)" d="M0 0V-1.505C.602-1.505 1.119-1.488 1.554-1.455V-2.358C.618-2.324-.318-2.307-1.253-2.307H-7.821C-8.958-2.307-9.794-2.324-10.328-2.358V-1.455C-9.827-1.488-9.292-1.505-8.724-1.505V0C-8.724 .434-8.757 .969-8.824 1.605H.1C.033 .936 0 .401 0 0M-5.515 5.718C-5.515 5.016-5.498 4.13-5.465 3.06H-9.526C-9.459 3.996-9.426 4.949-9.426 5.919-9.426 6.922-9.459 7.825-9.526 8.628H-5.465C-5.498 7.424-5.515 6.453-5.515 5.718M-6.417 7.825H-8.523V6.17H-6.417ZM-6.417 5.367H-8.523V3.8120003H-6.417ZM-6.016 .752H-7.8209998V-1.505H-6.016ZM.501 7.073V3.612C.501 3.076 .351 2.716 .05 2.533-.251 2.349-.736 2.207-1.404 2.107-1.404 2.541-1.571 2.909-1.905 3.21-1.17 3.243-.744 3.293-.627 3.361-.51 3.427-.451 3.561-.451 3.762V4.264H-3.459C-3.56 3.862-3.719 3.444-3.936 3.01-4.154 2.575-4.362 2.207-4.562 1.906-4.863 2.173-5.198 2.357-5.565 2.458-5.131 2.825-4.813 3.285-4.613 3.837-4.412 4.389-4.295 4.957-4.262 5.543-4.229 6.127-4.22 6.721-4.237 7.323-4.254 7.925-4.279 8.427-4.312 8.828H.551C.518 8.193 .501 7.607 .501 7.073M-3.509 .752H-5.163V-1.505H-3.509ZM-.451 5.066V6.069H-3.309C-3.309 5.735-3.326 5.4-3.359 5.066ZM-.451 8.026H-3.259V6.8719999H-.451ZM-.902 .752H-2.657V-1.505H-.902ZM-.902-1.505" fill="#2c292a"/>
<path transform="matrix(1,0,0,-1,105.4315,207.4234)" d="M0 0C-.108-.277-.224-.555-.347-.832H2.519C2.364-1.942 2.156-2.883 1.895-3.653 1.633-4.424 1.309-5.102 .924-5.688 .539-6.274 .084-6.836-.439-7.375-.963-7.915-1.595-8.416-2.334-8.878-2.55-8.539-2.827-8.308-3.166-8.185-2.457-7.877-1.795-7.438-1.179-6.867-.563-6.297-.116-5.75 .162-5.225-.239-4.794-.763-4.347-1.41-3.884-1.194-3.699-.994-3.484-.809-3.237-.193-3.73 .285-4.115 .624-4.393 .839-3.962 1.009-3.514 1.132-3.052 1.255-2.59 1.364-2.112 1.456-1.618H-.624C-.809-2.019-1.048-2.467-1.34-2.959-1.634-3.453-2.01-3.946-2.473-4.439-2.627-4.224-2.858-4.008-3.166-3.792-2.642-3.299-2.234-2.798-1.941-2.289-1.649-1.78-1.41-1.264-1.225-.74-1.04-.216-.855 .431-.67 1.202-.332 1.048 .038 .925 .439 .832 .254 .555 .108 .277 0 0M4.229-.185V-7.306C4.229-7.892 4.244-8.493 4.275-9.11H3.258C3.289-8.493 3.305-7.892 3.305-7.306V-.185C3.305 .308 3.289 .801 3.258 1.295H4.275C4.244 .801 4.229 .308 4.229-.185M6.332-3.214C6.871-3.846 7.326-4.439 7.695-4.994 7.387-5.179 7.125-5.38 6.91-5.595 6.632-5.102 6.247-4.548 5.754-3.931 5.261-3.314 4.814-2.79 4.414-2.358 4.599-2.173 4.83-1.988 5.107-1.803 5.385-2.112 5.793-2.582 6.332-3.214" fill="#2c292a"/>
<path transform="matrix(1,0,0,-1,120.0467,206.7298)" d="M0 0C1.017-1.572 2.681-2.682 4.992-3.329 4.683-3.545 4.452-3.884 4.298-4.347 1.895-3.329 .293-2.081-.508-.601-1.556-2.143-3.159-3.484-5.315-4.624-5.531-4.224-5.762-3.915-6.008-3.699-4.437-3.083-3.228-2.32-2.38-1.41-1.533-.501-1.017 .231-.832 .786-.647 .663-.293 .509 .231 .324ZM-3.698-9.433C-3.882-9.433-4.345-9.448-5.084-9.479V-8.601C-4.252-8.632-3.852-8.647-3.882-8.647H-3.374V-5.688C-3.374-5.318-3.405-4.84-3.466-4.254H-2.357C-2.419-4.84-2.45-5.318-2.45-5.688V-8.647H-.647V-4.162C-.647-3.792-.663-3.314-.693-2.728H.323C.293-3.283 .277-4.054 .277-5.04H1.71C2.203-5.04 2.742-5.025 3.328-4.994V-5.873C2.773-5.842 2.249-5.826 1.756-5.826H.277V-8.647H3.143C3.235-8.647 3.559-8.632 4.114-8.601V-9.479C3.559-9.448 3.219-9.433 3.097-9.433Z" fill="#2c292a"/>
<path transform="matrix(1,0,0,-1,131.8658,205.98999)" d="M0 0C-.031-.863-.046-1.681-.046-2.451H3.975C3.944-3.068 3.929-3.915 3.929-4.994 3.929-6.042 3.944-6.829 3.975-7.352H2.958V-6.659H-.046V-8.647C-.046-9.017-.031-9.711 0-10.728H-1.109C-1.048-10.173-1.017-9.526-1.017-8.786V-6.659H-4.021V-7.352H-5.038C-5.008-6.89-4.992-6.104-4.992-4.994-4.992-3.854-5.008-3.006-5.038-2.451H-1.017C-1.017-1.618-1.033-.802-1.063 0ZM-1.017-3.191H-4.021V-5.9189999H-1.017ZM2.958-3.191H-.046000005V-5.9189999H2.958ZM2.958-5.919" fill="#2c292a"/>
<path transform="matrix(1,0,0,-1,147.8444,208.9956)" d="M0 0V-4.948C0-5.904 .015-6.844 .046-7.769H-.878V-7.121H-8.55V-7.815H-9.475C-9.444-6.859-9.429-5.873-9.429-4.855V0C-9.429 .925-9.444 1.788-9.475 2.59H.046C.015 1.819 0 .955 0 0M-.878 1.896H-8.55V-6.427H-.878ZM-3.281 .647C-2.819 .647-2.327 .663-1.802 .694V-.139C-2.265-.108-2.758-.092-3.281-.092H-4.437V-1.618H-3.605C-3.05-1.618-2.527-1.603-2.034-1.572V-2.405C-2.527-2.374-3.05-2.358-3.605-2.358H-4.437V-4.439H-3.143C-2.588-4.439-2.065-4.424-1.571-4.393V-5.225C-2.034-5.195-2.558-5.179-3.143-5.179H-6.286C-6.81-5.179-7.334-5.195-7.857-5.225V-4.393C-7.334-4.424-6.81-4.439-6.286-4.439H-5.269V-2.358H-5.916C-6.44-2.358-6.933-2.374-7.395-2.405V-1.572C-6.933-1.603-6.44-1.618-5.916-1.618H-5.269V-.092H-5.962C-6.517-.092-7.056-.108-7.58-.139V.694C-7.056 .663-6.517 .647-5.962 .647ZM-2.218-3.653C-2.527-3.838-2.789-4.008-3.004-4.162-3.097-4.039-3.359-3.715-3.79-3.191-3.544-3.006-3.328-2.837-3.143-2.682-2.989-2.837-2.681-3.16-2.218-3.653" fill="#2c292a"/>
<path transform="matrix(1,0,0,-1,98.4132,224.45981)" d="M0 0H1.525C1.371-1.202 1.225-2.051 1.086-2.543 .948-3.037 .801-3.484 .647-3.884 1.078-4.285 1.571-4.586 2.126-4.786 2.681-4.987 3.328-5.126 4.067-5.202 4.807-5.279 5.592-5.31 6.424-5.295 7.256-5.279 8.088-5.225 8.92-5.133 8.704-5.441 8.581-5.78 8.55-6.15 7.133-6.18 5.969-6.173 5.061-6.127 4.152-6.081 3.397-5.988 2.796-5.85 2.195-5.711 1.702-5.533 1.317-5.318 .931-5.102 .57-4.855 .231-4.578-.139-5.133-.617-5.703-1.202-6.289-1.418-6.042-1.664-5.826-1.941-5.641-1.325-5.21-.802-4.655-.37-3.977-.647-3.607-.871-3.268-1.04-2.959-1.21-2.652-1.371-2.297-1.525-1.896-1.371-1.866-1.109-1.757-.739-1.572-.647-1.942-.386-2.482 .046-3.191 .261-2.543 .431-1.727 .555-.74-.123-.74-.663-.817-1.063-.971L-1.294-.139C-.924-.016-.617 .347-.37 .948-.123 1.549 .092 2.096 .277 2.59-.339 2.59-.909 2.574-1.433 2.543V3.329C-.817 3.298 .123 3.283 1.386 3.283 1.294 3.036 .832 1.942 0 0M4.298 4.439H5.223C5.192 4.162 5.176 3.822 5.176 3.422H7.672C7.641 3.052 7.626 2.527 7.626 1.85 8.057 1.85 8.442 1.865 8.782 1.896V1.11C8.473 1.14 8.088 1.156 7.626 1.156 7.626 .478 7.641-.046 7.672-.416H5.176V-1.341C6.378-1.341 7.179-1.326 7.58-1.295V-2.081C7.21-2.051 6.409-2.035 5.176-2.035V-2.959H6.563C7.148-2.959 7.687-2.944 8.181-2.913V-3.746C7.687-3.715 7.148-3.699 6.563-3.699H5.176C5.176-4.224 5.192-4.67 5.223-5.04H4.298C4.329-4.67 4.345-4.224 4.345-3.699H3.282C2.819-3.699 2.311-3.715 1.756-3.746V-2.913C2.28-2.944 2.803-2.959 3.328-2.959H4.345V-2.035C3.482-2.035 2.727-2.051 2.08-2.081V-1.295C2.757-1.326 3.513-1.341 4.345-1.341V-.416C3.543-.416 2.866-.432 2.311-.462V.324C2.866 .293 3.543 .277 4.345 .277V1.156H3.513C2.958 1.156 2.341 1.14 1.664 1.11V1.896C2.341 1.865 2.958 1.85 3.513 1.85H4.345V2.728C3.513 2.728 2.819 2.712 2.265 2.682V3.468C2.819 3.437 3.513 3.422 4.345 3.422 4.345 3.822 4.329 4.162 4.298 4.439M6.794 2.728H5.176V1.849H6.794ZM6.794 1.156H5.176V.277H6.794ZM6.794 .277" fill="#2c292a"/>
<path transform="matrix(1,0,0,-1,114.022,220.853)" d="M0 0C.893-1.079 1.618-1.819 2.172-2.22 2.727-2.621 3.235-2.929 3.698-3.144 4.16-3.36 4.606-3.53 5.038-3.653 4.73-3.993 4.529-4.316 4.437-4.624 3.82-4.347 3.266-4.054 2.773-3.746 2.28-3.438 1.78-3.045 1.271-2.566 .763-2.089 .185-1.433-.462-.601-1.048-1.433-1.625-2.12-2.195-2.659-2.766-3.199-3.251-3.623-3.651-3.931-4.052-4.239-4.499-4.548-4.991-4.855-5.054-4.732-5.3-4.485-5.731-4.115-5.084-3.808-4.468-3.438-3.882-3.006-3.297-2.574-2.712-2.027-2.126-1.364-1.541-.702-1.063 .015-.693 .786-.354 .57-.046 .4 .231 .277ZM3.051-7.676C3.051-8.786 3.066-9.51 3.097-9.849H2.126V-8.971H-3.004V-9.988H-3.929C-3.898-9.618-3.882-8.909-3.882-7.861-3.882-6.782-3.898-6.011-3.929-5.549H3.097C3.066-5.857 3.051-6.566 3.051-7.676M1.017-3.653C1.509-3.653 1.941-3.638 2.311-3.607V-4.485C1.91-4.455 1.494-4.439 1.063-4.439H-1.525C-2.172-4.439-2.696-4.455-3.097-4.485V-3.607C-2.512-3.638-1.987-3.653-1.525-3.653ZM2.126-6.289H-3.0040003V-8.231H2.126ZM2.126-8.231" fill="#2c292a"/>
<path transform="matrix(1,0,0,-1,121.1731,225.93952)" d="M0 0C-.308 .339-.555 .57-.739 .694 .246 1.464 1.017 2.204 1.571 2.913 1.725 2.759 1.941 2.574 2.218 2.358 1.448 1.649 .709 .863 0 0M4.552-2.266C4.475-2.605 4.275-2.952 3.952-3.306 3.628-3.661 3.158-3.992 2.542-4.3 1.925-4.608 1.032-4.855-.139-5.04-.231-4.732-.416-4.439-.693-4.162 .2-4.131 .948-4.015 1.548-3.815 2.149-3.615 2.603-3.391 2.912-3.144 3.219-2.898 3.443-2.597 3.582-2.243 3.721-1.889 3.79-1.511 3.79-1.11 4.16-1.172 4.53-1.218 4.899-1.249 4.745-1.588 4.629-1.927 4.552-2.266M-.462 4.855C-.247 5.071-.062 5.287 .092 5.503 .37 5.318 1.032 4.902 2.08 4.254 1.895 4.069 1.71 3.838 1.525 3.561 1.032 3.93 .37 4.362-.462 4.855M8.134-1.11C8.134-1.572 8.15-2.112 8.181-2.728H7.256V-.601H1.525V-3.006H.601C.631-2.297 .647-1.711 .647-1.249 .647-.756 .631-.277 .601 .185H8.181C8.15-.216 8.134-.647 8.134-1.11M6.147 2.798C6.332 2.535 6.586 2.289 6.91 2.058 7.233 1.827 7.633 1.634 8.111 1.48 8.589 1.325 9.12 1.233 9.706 1.202 9.459 .863 9.274 .539 9.151 .231 8.381 .385 7.695 .616 7.095 .925 6.494 1.233 5.993 1.726 5.592 2.405 5.315 1.695 4.914 1.202 4.391 .925 3.866 .647 3.297 .416 2.681 .231 2.434 .509 2.187 .755 1.941 .971 3.235 1.217 4.082 1.587 4.483 2.081 4.883 2.574 5.099 3.175 5.13 3.884L6.193 3.746C5.977 3.376 5.962 3.059 6.147 2.798M3.097 2.959C2.881 3.175 2.65 3.36 2.403 3.514 2.773 3.761 3.12 4.092 3.443 4.508 3.767 4.925 4.021 5.364 4.206 5.826 4.483 5.703 4.822 5.61 5.223 5.549 5.068 5.271 4.883 5.024 4.668 4.809H9.013C8.92 4.624 8.643 4.023 8.181 3.006 7.811 3.098 7.503 3.16 7.256 3.191 7.41 3.53 7.549 3.822 7.672 4.069H4.16C3.79 3.576 3.435 3.206 3.097 2.959M7.164-3.144C7.719-3.36 8.381-3.638 9.151-3.977 8.966-4.223 8.797-4.532 8.643-4.902 8.057-4.562 7.48-4.269 6.91-4.023 6.339-3.777 5.731-3.545 5.084-3.329 5.238-3.083 5.361-2.806 5.454-2.497 6.039-2.713 6.609-2.929 7.164-3.144" fill="#2c292a"/>
<path transform="matrix(1,0,0,-1,134.5635,224.13611)" d="M0 0C-.617-.925-1.248-1.696-1.895-2.312-2.142-1.973-2.403-1.727-2.681-1.572-2.034-1.079-1.356-.324-.647 .694 .061 1.711 .57 2.697 .878 3.653 1.093 3.498 1.402 3.36 1.802 3.237 1.217 2.004 .616 .925 0 0M3.975-3.098C4.282-2.913 4.545-2.728 4.76-2.543 5.223-3.222 5.654-3.892 6.055-4.555 6.455-5.218 6.763-5.749 6.979-6.15 6.64-6.335 6.347-6.504 6.101-6.659 5.916-6.289 5.669-5.842 5.361-5.318 3.297-5.595 1.841-5.795 .994-5.919 .146-6.042-.462-6.18-.832-6.335-.924-6.027-1.094-5.688-1.34-5.318-1.033-5.195-.739-4.979-.462-4.67-.185-4.363 .223-3.715 .763-2.728 1.301-1.742 1.679-.879 1.895-.139 2.357-.416 2.711-.586 2.958-.647 2.618-1.172 2.164-1.958 1.595-3.006 1.024-4.054 .616-4.732 .37-5.04 1.787-4.917 3.328-4.763 4.992-4.578 4.745-4.147 4.406-3.653 3.975-3.098M6.078 .462C6.74-.34 7.41-.925 8.088-1.295 7.656-1.511 7.364-1.773 7.21-2.081 6.286-1.311 5.5-.416 4.853 .601 4.206 1.618 3.681 2.651 3.282 3.699 3.62 3.761 3.929 3.868 4.206 4.023 4.791 2.451 5.415 1.264 6.078 .462" fill="#2c292a"/>
<path transform="matrix(1,0,0,-1,149.9413,222.8876)" d="M0 0C.4 0 .94 .015 1.618 .046V-.879C.97-.848 .446-.832 .046-.832H-4.252C-4.838-.832-5.439-.848-6.055-.879V.046C-5.439 .015-4.838 0-4.252 0ZM3.79 2.22C3.759 1.541 3.744 .94 3.744 .416V-6.797C3.713-7.198 3.505-7.468 3.12-7.607 2.734-7.745 2.172-7.861 1.433-7.954 1.433-7.676 1.278-7.306 .97-6.844 1.771-6.844 2.265-6.813 2.45-6.751 2.634-6.69 2.727-6.459 2.727-6.058V1.433H-3.651C-4.206 1.433-4.807 1.418-5.454 1.387V2.266C-4.807 2.235-4.222 2.22-3.698 2.22ZM.786-3.561V-4.578C.786-5.071 .801-5.58 .832-6.104H-.185V-5.503H-3.975V-6.751H-4.992C-4.93-6.196-4.899-5.704-4.899-5.272V-3.561C-4.899-3.16-4.93-2.698-4.992-2.173H.832C.801-2.605 .786-3.068 .786-3.561M-.185-2.913H-3.975V-4.763H-.185ZM-.185-4.763" fill="#2c292a"/>
<path transform="matrix(1,0,0,-1,105.6396,237.0108)" d="M0 0C0 1.233-.016 2.035-.046 2.405H1.063C1.001 2.035 .97 1.233 .97 0H3.513C3.513 1.264 3.497 2.081 3.466 2.451H4.576C4.513 2.081 4.483 1.264 4.483 0H5.407C5.962 0 6.439 .015 6.84 .046V-.786C6.439-.756 5.962-.74 5.407-.74H4.483V-3.422H6.054C6.609-3.422 7.071-3.407 7.441-3.376V-4.208C7.102-4.178 6.655-4.162 6.101-4.162H-1.756C-2.342-4.162-2.804-4.178-3.143-4.208V-3.376C-2.804-3.407-2.342-3.422-1.756-3.422H0V-.74H-.786C-1.525-.74-2.08-.756-2.45-.786V.046C-2.05 .015-1.479 0-.74 0ZM-.116-6.589C-.809-7.098-1.495-7.506-2.172-7.815-2.388-7.506-2.635-7.244-2.912-7.029-2.265-6.751-1.657-6.435-1.086-6.081-.517-5.727 .03-5.287 .555-4.763 .893-5.04 1.232-5.287 1.571-5.503 1.14-5.719 .578-6.081-.116-6.589M3.513-.74H.97099998V-3.422H3.513ZM5.361-5.734C6.07-6.166 6.686-6.597 7.21-7.029 6.933-7.244 6.686-7.491 6.47-7.768 5.946-7.368 5.368-6.959 4.737-6.543 4.105-6.127 3.543-5.796 3.05-5.549 3.297-5.303 3.528-5.04 3.744-4.763 4.113-4.979 4.652-5.303 5.361-5.734" fill="#2c292a"/>
<path transform="matrix(1,0,0,-1,123.6518,239.69281)" d="M0 0V-.832C-.771-.987-1.441-1.195-2.011-1.457-2.581-1.719-3.035-1.927-3.374-2.081H-.37C.277-2.081 .878-2.066 1.433-2.035V-2.867C.909-2.837 .308-2.821-.37-2.821H-3.42V-4.3C-3.39-4.608-3.505-4.839-3.767-4.994-4.029-5.148-4.499-5.272-5.176-5.364-5.176-5.056-5.3-4.732-5.546-4.393-4.838-4.423-4.453-4.385-4.391-4.277-4.329-4.169-4.298-3.684-4.298-2.821H-7.719C-8.335-2.821-8.874-2.837-9.336-2.867V-2.035C-8.844-2.066-8.273-2.081-7.626-2.081H-4.298C-4.298-1.988-4.314-1.866-4.345-1.711L-2.311-.74H-6.609C-7.01-.74-7.503-.756-8.088-.786V.046C-7.688 .015-7.164 0-6.517 0ZM-3.282 4.393H-.832C-.247 4.393 .308 4.408 .832 4.439V3.607C.308 3.637-.247 3.653-.832 3.653H-7.071C-7.626 3.653-8.227 3.637-8.874 3.607V4.439C-8.135 4.408-7.441 4.393-6.794 4.393H-4.298C-4.36 4.578-4.499 4.902-4.714 5.364L-3.698 5.641C-3.482 5.024-3.344 4.608-3.282 4.393M-.739 1.757C-.739 1.418-.724 1.079-.693 .74H-7.395C-7.365 1.11-7.349 1.464-7.349 1.803-7.349 2.173-7.365 2.543-7.395 2.913H-.693C-.724 2.512-.739 2.127-.739 1.757M-1.571 2.266H-6.5160005V1.3870001H-1.571ZM-1.571 1.387" fill="#2c292a"/>
<path transform="matrix(1,0,0,-1,129.9709,239.55411)" d="M0 0C-.432-.216-.878-.432-1.34-.647V-4.115C-1.31-4.485-1.418-4.763-1.664-4.948-1.911-5.133-2.403-5.287-3.143-5.41-3.205-5.102-3.328-4.763-3.513-4.393-2.897-4.423-2.519-4.37-2.38-4.231-2.242-4.092-2.172-3.93-2.172-3.745V-1.064C-2.666-1.28-3.143-1.526-3.605-1.803-3.698-1.465-3.852-1.172-4.067-.925-3.76-.863-3.128-.617-2.172-.185V2.081C-2.819 2.081-3.359 2.065-3.79 2.035V2.867C-3.359 2.836-2.819 2.821-2.172 2.821-2.172 3.931-2.188 4.747-2.219 5.272H-1.294C-1.325 4.809-1.34 3.992-1.34 2.821-1.002 2.821-.586 2.836-.092 2.867V2.035C-.586 2.065-1.002 2.081-1.34 2.081V.185C-.909 .37-.508 .585-.139 .832-.108 .616-.062 .339 0 0M.508 .879C1.155 .848 1.91 .832 2.773 .832V2.682H1.71C1.155 2.682 .693 2.666 .324 2.636V3.468C.786 3.437 1.217 3.422 1.618 3.422H2.773C2.773 3.884 2.757 4.454 2.727 5.133H3.697C3.666 4.578 3.651 4.007 3.651 3.422H5.269C5.608 3.422 5.992 3.437 6.424 3.468V2.636C5.992 2.666 5.608 2.682 5.269 2.682H3.651V.832H6.008C5.854 .215 5.608-.462 5.269-1.202 4.929-1.942 4.483-2.636 3.929-3.283 4.421-3.653 4.929-3.946 5.454-4.162 5.977-4.377 6.455-4.532 6.886-4.624 6.671-4.902 6.486-5.194 6.332-5.503 5.315-5.194 4.298-4.639 3.281-3.838 2.634-4.362 1.556-4.902 .046-5.456-.077-5.271-.308-4.978-.647-4.578-.185-4.516 .324-4.377 .878-4.162 1.433-3.946 2.018-3.653 2.634-3.283 1.925-2.266 1.417-1.141 1.109 .093H.508ZM3.281-2.682C3.559-2.436 3.843-2.05 4.136-1.526 4.429-1.002 4.668-.447 4.853 .139H1.941C2.341-1.187 2.788-2.127 3.281-2.682" fill="#2c292a"/>
<path transform="matrix(1,0,0,-1,142.6216,237.1033)" d="M0 0V.879C0 1.618-.016 2.235-.046 2.728H1.017C.986 2.173 .971 1.556 .971 .879V0H3.883C4.406 0 4.976 .015 5.592 .046V-.879C5.007-.848 4.452-.832 3.929-.832H1.803C1.987-1.418 2.226-1.958 2.519-2.451 2.811-2.944 3.143-3.391 3.513-3.792 3.883-4.193 4.283-4.54 4.714-4.832 5.146-5.126 5.546-5.334 5.916-5.456 5.546-5.765 5.253-6.058 5.038-6.335 4.483-5.996 4.005-5.649 3.605-5.295 3.204-4.941 2.819-4.516 2.45-4.023 2.08-3.53 1.78-3.029 1.548-2.52 1.317-2.011 1.124-1.511 .971-1.017V-6.104C.971-6.566 .986-7.105 1.017-7.722H-.046C-.016-7.105 0-6.566 0-6.104V-1.249C-.185-1.711-.401-2.189-.647-2.682-.894-3.175-1.163-3.623-1.456-4.023-1.749-4.424-2.103-4.832-2.519-5.248-2.935-5.665-3.466-6.12-4.113-6.612-4.298-6.335-4.591-6.073-4.992-5.826-4.56-5.611-4.121-5.318-3.674-4.948-3.228-4.578-2.827-4.17-2.473-3.722-2.119-3.276-1.802-2.798-1.525-2.289-1.248-1.78-1.033-1.295-.878-.832H-2.819C-3.313-.832-3.898-.848-4.576-.879V.046C-3.898 .015-3.328 0-2.865 0ZM3.929 1.896C4.144 1.649 4.391 1.325 4.668 .925 4.267 .647 3.99 .431 3.836 .277 3.528 .77 3.274 1.156 3.074 1.433 2.873 1.711 2.681 1.942 2.496 2.127L3.235 2.636C3.482 2.389 3.713 2.142 3.929 1.896" fill="#2c292a"/>
</g>
</g>
</g>
</svg>
