<svg xmlns="http://www.w3.org/2000/svg" xmlns:xlink="http://www.w3.org/1999/xlink" xmlns:inkscape="http://www.inkscape.org/namespaces/inkscape" version="1.1" width="411.024" height="595.276" viewBox="0 0 411.024 595.276">
<defs>
<clipPath id="clip_1">
<path transform="matrix(1,0,0,-1,0,595.276)" d="M0 0H411.024V595.276H0Z"/>
</clipPath>
<clipPath id="clip_2">
<path transform="matrix(1,0,0,-1,0,595.276)" d="M0 0H411.024V595.276H0Z"/>
</clipPath>
<path id="font_3_5" d="M.45999146 .19407654C.45999146 .28303529 .4229889 .34100343 .35099793 .36799623 .4149933 .39700318 .44699098 .450943 .44699098 .52586367 .44699098 .64175418 .36698915 .71875 .25099183 .71875 .14299011 .71875 .05899048 .6507416 .050994874 .53585818H.12298584C.12998963 .60879519 .17599488 .6547394 .25099183 .6547394 .31999208 .6547394 .375 .609787 .375 .5248718 .375 .4449463 .33499146 .3959961 .24798584 .3959961H.23298645V.3330078H.24798584C.34498597 .3330078 .3880005 .28103639 .3880005 .19508362 .3880005 .10812378 .32798768 .057159425 .25099183 .057159425 .18299866 .057159425 .11999512 .09213257 .11399841 .18109131H.041992189C.04798889 .05215454 .13899231-.0068359377 .25099183-.0068359377 .36698915-.0068359377 .45999146 .06315613 .45999146 .19407654Z"/>
<path id="font_3_3" d="M.32998658 0V.71191409H.2579956L.125 .5969238V.51493838L.2579956 .63191226V0H.32998658Z"/>
<path id="font_3_10" d="M.47099305 .19602967C.47099305 .27897645 .4249878 .33493043 .36499024 .368927 .42099 .40092469 .45700074 .45289613 .45700074 .52685549 .45700074 .6377716 .37399293 .71777346 .26098634 .71777346 .147995 .71777346 .06498718 .6377716 .06498718 .52685549 .06498718 .45289613 .101989749 .40092469 .1579895 .368927 .09799194 .33493043 .050994874 .27897645 .050994874 .19602967 .050994874 .0761261 .14299011-.005859375 .26098634-.005859375 .3789978-.005859375 .47099305 .0761261 .47099305 .19602967M.39898683 .19703675C.39898683 .11808777 .33898927 .058135988 .26098634 .058135988 .18299866 .058135988 .12298584 .11808777 .12298584 .19703675 .12298584 .27597047 .18299866 .3359375 .26098634 .3359375 .33898927 .3359375 .39898683 .27597047 .39898683 .19703675M.3849945 .5258484C.3849945 .45089723 .33399964 .39892579 .26098634 .39892579 .18798828 .39892579 .13699341 .45089723 .13699341 .5258484 .13699341 .59980776 .18798828 .6537628 .26098634 .6537628 .33399964 .6537628 .3849945 .59980776 .3849945 .5258484Z"/>
<clipPath id="clip_4">
<path transform="matrix(1,0,0,-1,0,595.276)" d="M0 0H411.024V595.276H0Z"/>
</clipPath>
<clipPath id="clip_5">
<path transform="matrix(1,0,0,-1,0,595.276)" d="M0 0H411.024V595.276H0Z"/>
</clipPath>
<clipPath id="clip_6">
<path transform="matrix(1,0,0,-1,0,595.276)" d="M0 0H411.024V595.276H0Z"/>
</clipPath>
<clipPath id="clip_7">
<path transform="matrix(1,0,0,-1,0,595.276)" d="M0 0H411.024V595.276H0Z"/>
</clipPath>
<clipPath id="clip_8">
<path transform="matrix(1,0,0,-1,0,595.276)" d="M0 0H411.024V595.276H0Z"/>
</clipPath>
<clipPath id="clip_9">
<path transform="matrix(1,0,0,-1,0,595.276)" d="M0 0H411.024V595.276H0Z"/>
</clipPath>
<clipPath id="clip_10">
<path transform="matrix(1,0,0,-1,0,595.276)" d="M0 0H411.024V595.276H0Z"/>
</clipPath>
<clipPath id="clip_11">
<path transform="matrix(1,0,0,-1,0,595.276)" d="M0 0H411.024V595.276H0Z"/>
</clipPath>
<clipPath id="clip_12">
<path transform="matrix(1,0,0,-1,0,595.276)" d="M0 0H411.024V595.276H0Z"/>
</clipPath>
</defs>
<g clip-path="url(#clip_1)">
<g clip-path="url(#clip_2)">
<use data-text="3" xlink:href="#font_3_5" transform="matrix(9,0,0,-9,35.4331,567.547)" fill="#f43040"/>
<use data-text="1" xlink:href="#font_3_3" transform="matrix(9,0,0,-9,39.0331,567.547)" fill="#f43040"/>
<use data-text="8" xlink:href="#font_3_10" transform="matrix(9,0,0,-9,42.6331,567.547)" fill="#f43040"/>
<path transform="matrix(1,0,0,-1,322.6678,378.7249)" d="M0 0V2.55 5.099L5.151 2.55ZM-248.847 189.373H-251.423-253.998L-251.423 194.472ZM1.288 1.7H-252.281V190.648H-250.564V2.55L-251.423 3.399H1.288Z" fill="#2c292a"/>
<g clip-path="url(#clip_4)">
<path transform="matrix(1,0,0,-1,59.6564,226.9252)" d="M0 0V-6.703C0-7.619 .018-8.533 .053-9.448H-1.12C-1.085-8.533-1.066-7.636-1.066-6.756V-1.636C-1.493-2.27-1.902-2.816-2.293-3.273-2.471-2.991-2.719-2.727-3.039-2.481-2.471-1.988-1.866-1.188-1.226-.079-.586 1.029-.125 2.04 .16 2.956 .587 2.745 .995 2.568 1.386 2.428 1.066 2.04 .604 1.231 0 0M8.531 1.108C7.215 .862 6.256 .686 5.652 .581V-2.745H7.838C8.371-2.745 8.886-2.727 9.384-2.692V-3.695C8.886-3.66 8.388-3.642 7.891-3.642H5.652V-7.548H7.304C7.802-7.548 8.335-7.531 8.904-7.495V-8.498C8.335-8.463 7.802-8.445 7.304-8.445H3.092C2.523-8.445 1.937-8.463 1.333-8.498V-7.495C1.937-7.531 2.523-7.548 3.092-7.548H4.585V-3.642H2.239C1.635-3.642 1.12-3.66 .693-3.695V-2.692C1.155-2.727 1.67-2.745 2.239-2.745H4.585V.422C3.199 .246 2.293 .14 1.866 .106 1.759 .492 1.6 .809 1.386 1.056 2.133 1.056 3.226 1.169 4.665 1.399 6.105 1.627 7.198 1.882 7.944 2.164 8.192 1.636 8.388 1.284 8.531 1.108" fill="#2c292a"/>
<path transform="matrix(1,0,0,-1,61.4692,239.04102)" d="M0 0H5.918C5.598-.528 5.18-1.091 4.665-1.689 4.15-2.288 3.501-2.85 2.719-3.378 3.217-3.695 3.892-3.932 4.745-4.091 5.598-4.249 6.611-4.346 7.784-4.381 7.499-4.698 7.304-5.067 7.198-5.489 6.202-5.419 5.225-5.244 4.265-4.962 3.306-4.68 2.506-4.346 1.866-3.959 .728-4.487-.302-4.874-1.226-5.12-2.151-5.367-3.057-5.56-3.945-5.701-4.088-5.278-4.301-4.909-4.585-4.592-3.804-4.592-2.915-4.487-1.919-4.275-.925-4.064 .053-3.766 1.013-3.378 .267-2.675-.373-1.953-.906-1.214-1.511-1.953-2.133-2.569-2.772-3.061-3.021-2.78-3.341-2.569-3.732-2.428-2.737-1.725-2.008-1.047-1.546-.396-1.085 .255-.746 .862-.533 1.425-.072 1.179 .355 .985 .746 .845 .462 .598 .213 .317 0 0M.64-6.123C.711-5.701 .746-5.208 .746-4.645 1.173-4.716 1.6-4.769 2.026-4.803 1.919-5.014 1.813-5.455 1.706-6.123H6.025C5.989-6.545 5.953-7.029 5.918-7.574 5.882-8.12 5.82-8.709 5.732-9.343 5.642-9.976 5.385-10.346 4.958-10.451 4.532-10.557 3.856-10.662 2.932-10.768 2.861-10.31 2.683-9.923 2.399-9.607 3.43-9.607 4.052-9.572 4.265-9.501 4.479-9.431 4.62-9.237 4.692-8.92L4.852-6.915H1.6C1.101-8.428 .4-9.414-.506-9.871-1.413-10.327-2.382-10.732-3.412-11.085-3.519-10.768-3.768-10.398-4.159-9.976-3.306-9.905-2.417-9.641-1.493-9.184-.569-8.727 .088-7.97 .48-6.915H-.746C-1.813-6.915-2.595-6.95-3.092-7.02V-6.07C-2.559-6.106-1.759-6.123-.693-6.123ZM3.999-.792H0C.675-1.672 1.315-2.341 1.919-2.798 2.63-2.375 3.323-1.707 3.999-.792" fill="#2c292a"/>
<path transform="matrix(1,0,0,-1,58.6434,261.0273)" d="M0 0C-.391-.563-.818-1.108-1.28-1.636-1.458-1.284-1.689-1.003-1.973-.792-1.475-.299-1.049 .185-.693 .66-.338 1.135 .018 1.742 .373 2.481 .088 3.009-.187 3.484-.453 3.906-.72 4.328-1.049 4.751-1.439 5.173-1.155 5.348-.906 5.542-.693 5.753-.445 5.471-.205 5.155 .027 4.803 .257 4.451 .515 4.064 .8 3.642 .977 4.099 1.12 4.645 1.226 5.278 1.333 5.912 1.421 6.615 1.493 7.39H.053C-.551 7.39-1.031 7.372-1.386 7.337V8.34C-1.031 8.304-.569 8.287 0 8.287H2.559C2.523 7.829 2.479 7.398 2.426 6.994 2.373 6.589 2.283 6.026 2.159 5.305 2.034 4.583 1.91 4.029 1.786 3.642 1.661 3.254 1.564 2.938 1.493 2.692 1.67 2.445 1.919 2.085 2.239 1.61 2.559 1.135 2.879 .651 3.199 .158 2.914 .017 2.63-.194 2.346-.475 2.133-.053 1.901 .36 1.653 .765 1.404 1.169 1.208 1.46 1.066 1.636 .746 1.108 .391 .562 0 0M9.81 1.108C9.312 1.143 8.761 1.161 8.157 1.161H7.784V-.792H8.584C9.33-.792 9.952-.774 10.45-.739V-1.636C9.988-1.601 9.365-1.584 8.584-1.584H4.798V-2.639H3.892C3.927-2.111 3.945-1.214 3.945 .053V5.384C3.803 5.102 3.679 4.838 3.572 4.592 3.466 4.346 3.323 4.064 3.146 3.748 2.932 3.959 2.613 4.134 2.186 4.275 2.506 4.732 2.79 5.216 3.039 5.727 3.287 6.237 3.501 6.704 3.679 7.126 3.856 7.548 4.007 7.97 4.132 8.393 4.256 8.815 4.336 9.202 4.372 9.554 4.798 9.413 5.189 9.29 5.545 9.184 5.438 9.043 5.313 8.806 5.172 8.472 5.029 8.137 4.869 7.724 4.692 7.231H8.317C8.957 7.231 9.561 7.249 10.13 7.284V6.387C9.81 6.421 9.224 6.44 8.371 6.44H7.784V4.698H8.211C8.779 4.698 9.295 4.715 9.757 4.751V3.8C9.365 3.835 8.851 3.853 8.211 3.853H7.784V1.953H8.157C8.797 1.953 9.348 1.97 9.81 2.006ZM6.771 6.44H4.798V4.698H6.771ZM6.771 3.853H4.798V1.953H6.771ZM6.771 1.161H4.798V-.79199996H6.771ZM6.824 8.63C6.611 8.894 6.451 9.096 6.345 9.237 6.593 9.413 6.824 9.607 7.038 9.818 7.322 9.501 7.571 9.237 7.784 9.026 7.997 8.815 8.175 8.604 8.317 8.393 7.997 8.146 7.713 7.899 7.464 7.654 7.251 8.04 7.038 8.366 6.824 8.63" fill="#2c292a"/>
<path transform="matrix(1,0,0,-1,63.5485,264.7504)" d="M0 0C.213-.388 .427-.897 .64-1.531H2.613C3.003-1.531 3.714-1.513 4.745-1.478V-2.428C3.75-2.393 3.003-2.375 2.506-2.375H-4.478C-4.478-3.959-4.497-5.235-4.532-6.202-4.568-7.17-4.665-8.129-4.825-9.079-4.985-10.029-5.332-11.067-5.865-12.193-6.185-11.982-6.523-11.824-6.878-11.718-6.31-10.733-5.945-9.765-5.785-8.815-5.625-7.865-5.536-6.651-5.518-5.173-5.501-3.695-5.51-2.481-5.545-1.531H-.586C-.729-1.074-.889-.686-1.066-.37-.676-.264-.32-.141 0 0M-3.679-7.548C-2.684-7.584-1.884-7.601-1.28-7.601H3.679C3.359-8.164 2.967-8.727 2.506-9.29 2.044-9.853 1.6-10.311 1.173-10.662 1.635-10.873 2.293-11.05 3.146-11.19 3.999-11.33 4.816-11.401 5.598-11.401 5.385-11.612 5.189-11.964 5.012-12.457 3.98-12.316 3.074-12.148 2.293-11.956 1.51-11.762 .853-11.541 .32-11.296-.426-11.612-1.165-11.867-1.893-12.061-2.622-12.254-3.377-12.404-4.159-12.51-4.265-12.228-4.478-11.929-4.798-11.612-4.159-11.612-3.43-11.524-2.612-11.349-1.795-11.172-1.085-10.944-.48-10.662-1.085-10.17-1.689-9.414-2.293-8.393L-3.679-8.445ZM-2.186-2.798H-1.066C-1.102-3.08-1.12-3.519-1.12-4.117H1.759C1.759-3.555 1.741-3.097 1.706-2.745H2.826C2.79-3.167 2.772-3.625 2.772-4.117 3.554-4.117 4.23-4.1 4.798-4.064V-4.962C4.265-4.927 3.59-4.909 2.772-4.909 2.772-5.859 2.79-6.545 2.826-6.967H-2.186C-2.151-6.405-2.133-5.719-2.133-4.909-2.559-4.909-3.181-4.927-3.999-4.962V-4.064C-3.181-4.1-2.559-4.117-2.133-4.117-2.133-3.555-2.151-3.114-2.186-2.798M-1.28-8.393C-.818-9.097-.267-9.695 .373-10.187 .906-9.8 1.457-9.203 2.026-8.393H-1.226ZM1.759-4.909H-1.12V-6.123H1.759ZM1.759-6.123" fill="#2c292a"/>
<path transform="matrix(1,0,0,-1,177.2873,387.9184)" d="M0 0C-.498-.246-1.013-.493-1.546-.739V-4.698C-1.511-5.12-1.635-5.437-1.919-5.648-2.204-5.859-2.773-6.035-3.626-6.176-3.697-5.824-3.839-5.437-4.052-5.014-3.341-5.049-2.906-4.988-2.746-4.83-2.586-4.671-2.506-4.487-2.506-4.275V-1.214C-3.075-1.461-3.626-1.742-4.159-2.059-4.265-1.672-4.444-1.338-4.692-1.056-4.337-.985-3.608-.704-2.506-.211V2.375C-3.252 2.375-3.875 2.357-4.372 2.323V3.273C-3.875 3.237-3.252 3.22-2.506 3.22-2.506 4.487-2.524 5.419-2.559 6.017H-1.493C-1.529 5.49-1.546 4.557-1.546 3.22-1.156 3.22-.676 3.237-.107 3.273V2.323C-.676 2.357-1.156 2.375-1.546 2.375V.211C-1.049 .422-.587 .668-.16 .95-.125 .704-.072 .387 0 0M.586 1.003C1.333 .968 2.203 .95 3.199 .95V3.061H1.973C1.333 3.061 .8 3.043 .373 3.009V3.959C.906 3.923 1.404 3.906 1.866 3.906H3.199C3.199 4.434 3.181 5.085 3.146 5.859H4.265C4.229 5.226 4.212 4.574 4.212 3.906H6.078C6.469 3.906 6.913 3.923 7.411 3.959V3.009C6.913 3.043 6.469 3.061 6.078 3.061H4.212V.95H6.931C6.753 .246 6.469-.528 6.078-1.372 5.686-2.217 5.172-3.009 4.532-3.748 5.1-4.17 5.686-4.505 6.291-4.751 6.895-4.996 7.446-5.173 7.944-5.278 7.695-5.595 7.482-5.929 7.304-6.281 6.131-5.929 4.958-5.296 3.785-4.381 3.039-4.979 1.794-5.595 .053-6.228-.089-6.017-.356-5.682-.747-5.226-.213-5.155 .373-4.996 1.013-4.751 1.653-4.505 2.328-4.17 3.039-3.748 2.221-2.586 1.634-1.302 1.28 .106H.586ZM3.785-3.061C4.105-2.78 4.433-2.341 4.772-1.742 5.109-1.144 5.385-.51 5.598 .158H2.239C2.701-1.355 3.216-2.428 3.785-3.061" fill="#2c292a"/>
<path transform="matrix(1,0,0,-1,191.8178,385.7542)" d="M0 0C-1.173-.071-2.151-.141-2.932-.211-3.715-.282-4.301-.37-4.692-.475-4.798-.053-4.923 .317-5.065 .633-4.817 .739-4.434 1.117-3.919 1.768-3.404 2.419-2.986 3.114-2.666 3.853-2.488 3.712-2.292 3.607-2.079 3.536-1.866 3.466-1.635 3.378-1.386 3.273-1.671 3.061-1.964 2.745-2.266 2.322-2.568 1.9-3.057 1.301-3.732 .528-2.239 .598-1.138 .651-.427 .686-.853 1.249-1.155 1.618-1.333 1.795-1.085 1.935-.8 2.129-.48 2.375-.196 1.988 .08 1.636 .347 1.32 .613 1.003 .96 .598 1.386 .106 .995-.177 .675-.405 .426-.581 .32-.405 .177-.211 0 0M-.64-7.205C-.569-7.081-.533-6.897-.533-6.651V-5.912H-3.412V-8.393H-4.425C-4.39-7.688-4.372-7.056-4.372-6.492V-2.956C-4.372-2.322-4.39-1.76-4.425-1.267H.48C.444-1.795 .426-2.375 .426-3.009V-7.443C.391-7.829 .231-8.076-.053-8.181-.338-8.287-.746-8.374-1.279-8.445-1.351-8.129-1.493-7.777-1.706-7.39-1.066-7.39-.711-7.328-.64-7.205M-.533-2.111H-3.412V-3.114H-.533ZM-.533-3.959H-3.412V-5.0670006H-.533ZM2.719 1.584C3.216 1.795 3.696 2.014 4.159 2.243 4.62 2.472 5.083 2.762 5.545 3.114 5.829 2.762 6.078 2.463 6.291 2.217 6.078 2.146 5.625 1.944 4.932 1.61 4.239 1.275 3.5 .985 2.719 .739V-.053C2.719-.475 2.968-.686 3.465-.686H5.012C5.367-.686 5.598-.229 5.705 .686 6.06 .51 6.415 .351 6.771 .211 6.522-.915 6.078-1.478 5.438-1.478H3.039C2.186-1.478 1.76-1.091 1.76-.317V2.375C1.76 2.798 1.741 3.254 1.706 3.748H2.773C2.737 3.501 2.719 2.99 2.719 2.217ZM5.092-4.17C4.399-4.487 3.607-4.786 2.719-5.067V-6.545C2.719-6.967 2.914-7.179 3.306-7.179H5.225C5.509-7.108 5.705-6.669 5.812-5.859 6.096-6 6.451-6.141 6.878-6.281 6.629-7.407 6.22-7.97 5.651-7.97H2.773C2.097-7.97 1.76-7.635 1.76-6.967V-3.537C1.76-3.009 1.741-2.534 1.706-2.111H2.773C2.737-2.534 2.719-2.991 2.719-3.484V-4.17C3.074-4.064 3.545-3.871 4.132-3.589 4.719-3.308 5.189-3.009 5.545-2.692 5.865-3.114 6.131-3.431 6.345-3.642 6.202-3.677 5.785-3.853 5.092-4.17" fill="#2c292a"/>
<path transform="matrix(1,0,0,-1,204.9622,385.2792)" d="M0 0C-.178-.95-.4-1.804-.666-2.56-.933-3.317-1.289-4.064-1.733-4.803-2.177-5.542-2.879-6.387-3.839-7.337-4.088-7.02-4.461-6.774-4.958-6.598-3.964-5.894-3.172-5.085-2.586-4.17-1.999-3.255-1.564-2.182-1.279-.95H-2.719C-3.252-.95-3.857-.985-4.532-1.056V.053C-3.892 .017-3.305 0-2.772 0ZM1.893 1.953C1.875 1.531 1.91 1.011 1.999 .396 2.088-.22 2.417-.95 2.986-1.795 4.443-.599 5.313 .334 5.598 1.003 5.989 .651 6.345 .317 6.664 0 6.202-.317 5.749-.669 5.305-1.056 4.86-1.443 4.247-1.971 3.466-2.639 3.75-3.238 4.265-3.906 5.012-4.645 5.758-5.384 6.664-5.912 7.731-6.228 7.126-6.511 6.771-6.862 6.664-7.284 5.313-6.475 4.274-5.578 3.546-4.592 2.817-3.607 2.257-2.622 1.866-1.636V-7.495C1.901-7.988 1.714-8.34 1.306-8.551 .897-8.762 .355-8.902-.32-8.973-.356-8.586-.516-8.163-.8-7.706-.232-7.812 .178-7.829 .427-7.759 .675-7.688 .8-7.461 .8-7.073V1.267C.8 2.146 .764 2.85 .693 3.378H1.92C1.92 2.85 1.91 2.375 1.893 1.953" fill="#2c292a"/>
<path transform="matrix(1,0,0,-1,222.9048,382.64)" d="M0 0C.533 0 1.19 .017 1.973 .053V-.95C1.226-.915 .568-.897 0-.897H-2.239V-5.912H1.013C1.795-5.912 2.523-5.894 3.199-5.859V-6.862C2.523-6.827 1.795-6.809 1.013-6.809H-2.239V-9.237C-2.239-10.011-2.222-10.75-2.186-11.454H-3.412C-3.377-10.75-3.359-10.011-3.359-9.237V-6.809H-7.251C-7.749-6.809-8.282-6.827-8.851-6.862V-5.859C-8.282-5.894-7.713-5.912-7.144-5.912H-3.359V-.897H-5.865C-6.398-.897-7.038-.915-7.784-.95V.053C-7.038 .017-6.416 0-5.918 0ZM-7.411-2.322C-7.127-2.111-6.843-1.883-6.558-1.636-5.67-2.692-4.958-3.625-4.425-4.434-4.852-4.751-5.19-5.014-5.438-5.226-5.971-4.17-6.63-3.202-7.411-2.322M.8-1.478C1.155-1.724 1.51-1.936 1.866-2.111 .977-3.484 .231-4.558-.373-5.331-.658-5.085-.96-4.874-1.279-4.698-.462-3.713 .231-2.639 .8-1.478" fill="#2c292a"/>
<path transform="matrix(1,0,0,-1,105.6951,217.55759)" d="M0 0H7.36C7.873 0 8.526 .019 9.318 .059V-1.058C8.526-1.019 7.873-.999 7.36-.999H4.511V-2.35H6.469C7.26-2.35 7.973-2.331 8.606-2.292V-3.349C7.973-3.311 7.26-3.29 6.469-3.29H4.511V-4.642H6.588C7.22-4.642 7.894-4.623 8.606-4.583V-5.641C7.894-5.602 7.22-5.582 6.588-5.582H4.511V-6.816H7.241C7.992-6.816 8.725-6.797 9.437-6.757V-7.874C8.725-7.796 8.012-7.756 7.3-7.756H-.534V-8.52H-1.84C-1.801-7.619-1.781-6.816-1.781-6.111V-2.879C-2.255-3.584-2.751-4.211-3.264-4.759-3.582-4.368-3.898-4.054-4.214-3.819-3.264-2.958-2.454-1.959-1.781-.823-1.108 .313-.653 1.293-.416 2.115 .059 1.841 .514 1.606 .95 1.41 .554 .979 .237 .509 0 0M-2.374-8.873C-1.979-8.99-1.564-9.108-1.128-9.225-1.524-9.852-1.979-10.694-2.493-11.752-2.849-11.555-3.304-11.399-3.858-11.282-3.186-10.537-2.691-9.735-2.374-8.873M3.264-.999H-.53400018V-2.35H3.264ZM3.264-3.29H-.53400018V-4.641H3.264ZM3.264-5.582H-.53400018V-6.816H3.264ZM2.433-11.341C1.919-11.419 1.484-11.517 1.128-11.634 1.009-10.89 .831-10.087 .593-9.225 .95-9.147 1.384-9.03 1.899-8.873ZM5.223 .764C4.827 .607 4.451 .391 4.095 .118 3.778 .588 3.383 1.116 2.908 1.704 3.224 1.86 3.541 2.057 3.858 2.292 4.174 1.9 4.629 1.39 5.223 .764M6.054-11.105C5.579-11.223 5.164-11.341 4.807-11.458 4.649-10.792 4.372-9.989 3.977-9.049 4.451-8.931 4.867-8.814 5.223-8.696 5.618-9.793 5.895-10.596 6.054-11.105M7.478-9.108C7.834-8.952 8.17-8.736 8.487-8.461 8.962-9.323 9.456-10.068 9.971-10.694 9.456-10.929 9.06-11.184 8.784-11.458 8.507-10.909 8.072-10.126 7.478-9.108" fill="#2c292a"/>
<path transform="matrix(1,0,0,-1,123.7214,216.3237)" d="M0 0H3.205C3.759 0 4.372 .019 5.045 .059V-.94C4.372-.902 3.759-.881 3.205-.881H0V-2.057H6.588C6.351-2.684 6.133-3.428 5.935-4.289 5.539-4.172 5.124-4.094 4.689-4.054 4.807-3.663 4.926-3.291 5.045-2.938H.237V-4.172C1.622-4.016 2.75-3.878 3.62-3.761L3.858-4.642C3.106-4.721 1.899-4.877 .237-5.112V-5.7C.276-6.092 .554-6.287 1.068-6.287H3.086C3.481-6.287 3.769-6.268 3.947-6.228 4.125-6.19 4.293-5.798 4.451-5.053 4.689-5.288 5.084-5.504 5.638-5.7 5.361-6.366 5.094-6.797 4.837-6.992 4.579-7.189 4.134-7.267 3.502-7.227H.653C-.337-7.227-.831-6.856-.831-6.111V-5.23C-2.414-5.465-3.442-5.622-3.917-5.7L-3.977-4.642C-3.463-4.642-2.414-4.545-.831-4.348V-2.938H-4.392C-4.392-5.758-4.432-7.551-4.511-8.314-4.59-9.078-4.739-9.804-4.956-10.489-5.174-11.174-5.481-11.928-5.876-12.751-6.113-12.554-6.49-12.339-7.003-12.104-6.647-11.517-6.331-10.91-6.054-10.283-5.777-9.657-5.609-9-5.549-8.314-5.49-7.629-5.46-6.581-5.46-5.171-5.46-3.761-5.481-2.723-5.52-2.057H-1.068V-.823C-1.068-.274-1.089 .353-1.128 1.058H.059C.019 .626 0 .274 0 0M-3.561-12.104C-3.878-11.947-4.234-11.752-4.629-11.517-4.273-11.047-3.779-10.029-3.146-8.461-2.711-8.696-2.335-8.873-2.018-8.99-2.73-10.479-3.245-11.517-3.561-12.104M-.415-10.165V-10.988C-.415-11.458-.159-11.693 .356-11.693H2.018C2.493-11.693 2.828-11.644 3.027-11.546 3.225-11.448 3.363-11.067 3.442-10.4 3.799-10.753 4.194-10.969 4.629-11.047 4.352-11.712 4.125-12.143 3.947-12.339 3.769-12.535 3.324-12.633 2.612-12.633H-.059C-1.009-12.633-1.484-12.281-1.484-11.576V-10.635C-1.484-9.93-1.504-9.284-1.543-8.696H-.356C-.396-9.284-.415-9.774-.415-10.165M2.73-9.754C2.294-9.989 1.959-10.205 1.721-10.4 1.523-10.009 1.048-9.284 .297-8.226 .573-8.07 .87-7.874 1.187-7.639 1.978-8.658 2.493-9.363 2.73-9.754M6.944-10.87C6.588-11.105 6.271-11.321 5.995-11.517 5.52-10.851 4.846-9.97 3.977-8.873 4.134-8.755 4.412-8.52 4.807-8.168 5.242-8.638 5.955-9.539 6.944-10.87" fill="#2c292a"/>
<path transform="matrix(1,0,0,-1,261.7086,347.2132)" d="M0 0C.831 0 1.582 .019 2.255 .059V-1.058C1.662-1.019 .91-.999 0-.999H-2.79C-2.79-2.292-2.829-3.467-2.908-4.524H1.662C2.374-4.524 3.027-4.505 3.62-4.466V-5.582C3.027-5.544 2.394-5.523 1.721-5.523H-.95V-10.107C-.95-10.616-.653-10.87-.059-10.87H1.959C2.394-10.87 2.631-10.283 2.671-9.108 3.066-9.343 3.502-9.519 3.977-9.637 3.778-11.164 3.324-11.928 2.612-11.928H-.653C-1.564-11.889-2.018-11.379-2.018-10.4V-5.523H-3.027C-3.344-7.012-3.73-8.138-4.184-8.902-4.64-9.666-5.164-10.312-5.757-10.841-6.351-11.37-7.241-11.967-8.428-12.633-8.626-12.202-8.962-11.869-9.437-11.634-8.487-11.203-7.716-10.763-7.122-10.312-6.529-9.862-5.965-9.304-5.431-8.638-4.897-7.972-4.472-6.934-4.155-5.523H-6.766C-7.756-5.523-8.468-5.544-8.903-5.582V-4.466C-8.468-4.505-7.756-4.524-6.766-4.524H-4.036C-3.997-3.349-3.977-2.174-3.977-.999H-5.579C-6.371-.999-7.103-1.019-7.775-1.058V.059C-7.103 .019-6.371 0-5.579 0Z" fill="#2c292a"/>
<path transform="matrix(1,0,0,-1,271.5443,346.6844)" d="M0 0C.475 0 .969 .019 1.484 .059V-.94C1.088-.902 .712-.881 .356-.881V-8.814C.712-8.696 1.048-8.599 1.365-8.52 1.365-8.755 1.404-9.128 1.484-9.637 1.246-9.637 .87-9.715 .356-9.872V-11.223C.356-11.849 .376-12.535 .415-13.28H-.712C-.673-12.535-.653-11.849-.653-11.223V-10.107C-1.009-10.185-1.494-10.322-2.107-10.518-2.721-10.714-3.403-10.949-4.155-11.223-4.273-10.753-4.412-10.303-4.57-9.872-4.254-9.833-3.858-9.774-3.383-9.695V-.881C-3.7-.881-4.036-.902-4.392-.94V.059C-3.878 .019-3.423 0-3.027 0ZM-.653-.881H-2.315V-2.996H-.653ZM-.653-3.937H-2.315V-6.2869999H-.653ZM-.653-9.166V-7.227H-2.315V-9.519ZM5.401-2.115C5.203-2.82 5.114-3.653 5.134-4.613 5.153-5.573 5.134-6.552 5.075-7.551 5.015-8.549 4.787-9.519 4.392-10.459 3.996-11.399 3.205-12.319 2.018-13.221 1.781-12.829 1.484-12.476 1.128-12.163 2.116-11.653 2.809-11.008 3.205-10.224 3.6-9.441 3.858-8.638 3.977-7.815 3.818-7.932 3.561-8.09 3.205-8.285 2.849-8.481 2.512-8.736 2.196-9.049 1.998-8.853 1.76-8.56 1.484-8.168 1.681-7.932 1.8-7.62 1.84-7.227V-2.115C1.84-1.332 1.819-.745 1.781-.353 2.215-.275 2.68-.157 3.175 0 3.67 .156 4.174 .391 4.689 .705 4.965 .156 5.223-.235 5.46-.47 5.104-.51 4.728-.588 4.333-.705 3.937-.823 3.442-.96 2.849-1.116V-7.286C3.047-7.169 3.244-7.061 3.442-6.963 3.64-6.866 3.837-6.757 4.036-6.64V-3.29C4.036-2.82 4.016-2.331 3.977-1.822 4.214-1.861 4.689-1.959 5.401-2.115M9.318-2.233V-8.638C9.318-9.46 8.744-9.93 7.597-10.048 7.557-9.813 7.379-9.382 7.063-8.755 7.894-8.834 8.309-8.618 8.309-8.109V-1.351H6.944V-9.93C6.944-10.988 6.964-12.046 7.003-13.103H5.876C5.915-12.046 5.935-11.008 5.935-9.989V-2.35C5.935-1.567 5.915-.921 5.876-.411H9.378C9.338-.881 9.318-1.489 9.318-2.233" fill="#2c292a"/>
<path transform="matrix(1,0,0,-1,60.1004,382.8876)" d="M0 0C.035 .932 .168 1.671 .4 2.216 .631 2.762 .96 3.21 1.386 3.562 1.813 3.913 2.337 4.09 2.959 4.09 3.581 4.09 4.123 3.834 4.585 3.325 5.047 2.814 5.349 2.172 5.492 1.398 5.633 .624 5.678-.264 5.625-1.267 5.572-2.269 5.393-3.087 5.092-3.72 4.789-4.354 4.336-4.794 3.732-5.04 3.127-5.286 2.523-5.26 1.919-4.961 1.315-4.662 .888-4.266 .64-3.773 .391-3.281 .213-2.762 .107-2.216 0-1.671-.036-.932 0 0M1.12 .317C1.013-.651 1.048-1.513 1.226-2.269 1.404-3.026 1.697-3.562 2.106-3.879 2.514-4.195 2.932-4.257 3.359-4.064 3.785-3.871 4.096-3.483 4.292-2.903 4.487-2.322 4.585-1.689 4.585-1.003 4.585-.317 4.559 .308 4.505 .871 4.452 1.433 4.292 1.944 4.025 2.401 3.759 2.858 3.403 3.095 2.959 3.114 2.514 3.131 2.124 2.911 1.786 2.454 1.448 1.996 1.226 1.284 1.12 .317" fill="#2c292a"/>
<path transform="matrix(1,0,0,-1,311.5125,381.6919)" d="M0 0C1.101 .035 2.133-.51 3.092-1.636 3.554-1.038 4.123-.581 4.798-.264 6.042 .123 7.091 .017 7.944-.581 8.619-1.214 8.904-1.9 8.797-2.639 8.584-3.625 7.944-4.258 6.878-4.539 5.42-4.786 4.159-4.241 3.092-2.903 2.772-3.291 2.399-3.642 1.973-3.959 1.368-4.416 .675-4.61-.107-4.539-1.351-4.399-2.133-3.924-2.453-3.114-2.595-2.833-2.648-2.534-2.613-2.217-2.471-1.056-1.831-.335-.693-.053ZM-.053-.686C-.836-.616-1.405-1.056-1.76-2.006-1.866-2.78-1.546-3.344-.8-3.695-.587-3.836-.249-3.924 .213-3.959H.48C1.12-3.819 1.813-3.255 2.559-2.27 2.026-1.355 1.19-.827 .053-.686ZM5.865-.686C5.296-.652 4.603-1.091 3.785-2.006L3.625-2.27C3.945-2.727 4.353-3.15 4.852-3.536 5.207-3.819 5.686-3.959 6.291-3.959H6.398C7.464-3.819 7.997-3.185 7.997-2.059 7.642-1.144 7.002-.686 6.078-.686Z" fill="#2c292a"/>
<path transform="matrix(1,0,0,-1,57.4821,192.3081)" d="M0 0C1.101 .035 2.133-.51 3.092-1.636 3.554-1.038 4.123-.581 4.798-.264 6.042 .123 7.091 .017 7.944-.581 8.619-1.214 8.904-1.9 8.797-2.639 8.584-3.625 7.944-4.258 6.878-4.539 5.42-4.786 4.159-4.241 3.092-2.903 2.772-3.291 2.399-3.642 1.973-3.959 1.368-4.417 .675-4.61-.107-4.539-1.351-4.399-2.133-3.924-2.453-3.114-2.595-2.833-2.648-2.534-2.613-2.217-2.471-1.056-1.831-.335-.693-.053ZM-.053-.686C-.836-.616-1.405-1.056-1.76-2.006-1.866-2.78-1.546-3.344-.8-3.695-.587-3.836-.249-3.924 .213-3.959H.48C1.12-3.819 1.813-3.255 2.559-2.27 2.026-1.355 1.19-.827 .053-.686ZM5.865-.686C5.296-.652 4.603-1.091 3.785-2.006L3.625-2.27C3.945-2.727 4.354-3.15 4.852-3.536 5.207-3.819 5.686-3.959 6.291-3.959H6.398C7.464-3.819 7.997-3.185 7.997-2.059 7.642-1.144 7.002-.686 6.078-.686Z" fill="#2c292a"/>
<path transform="matrix(1,0,0,-1,259.7022,221.7698)" d="M0 0C-.198-.999-.475-2.203-.831-3.614-1.306-3.458-1.78-3.34-2.255-3.261-1.702-1.695-1.286 .107-1.009 2.145-.653 2.066-.159 1.968 .475 1.851 .356 1.616 .198 .999 0 0M3.324 .558V-4.495C3.324-4.965 3.561-5.2 4.036-5.2H6.826C7.26-5.24 7.547-5.132 7.686-4.877 7.824-4.623 7.933-4.045 8.012-3.144 8.407-3.458 8.863-3.672 9.378-3.79 9.1-5.044 8.823-5.797 8.547-6.052 8.269-6.307 7.933-6.414 7.538-6.375H3.205C2.493-6.375 2.097-5.944 2.018-5.083V.499C2.018 1.283 1.998 2.007 1.959 2.674H3.383C3.343 2.203 3.324 1.498 3.324 .558M6.291 3.849C5.817 3.614 5.381 3.358 4.986 3.085 4.352 4.378 3.739 5.435 3.146 6.258 3.502 6.453 3.858 6.688 4.214 6.963 4.649 6.218 5.342 5.18 6.291 3.849M11.633-1.381C11.197-1.577 10.782-1.851 10.387-2.203 9.556-.637 8.744 .656 7.953 1.675 8.309 1.87 8.665 2.105 9.021 2.38 9.931 1.126 10.802-.128 11.633-1.381" fill="#2c292a"/>
<path transform="matrix(1,0,0,-1,275.8886,220.74161)" d="M0 0C-.317-.314-.594-.667-.831-1.058-1.543-.392-2.374 .176-3.324 .646-3.086 .959-2.849 1.312-2.612 1.704-1.702 1.155-.831 .588 0 0M-.89-5.083C-1.365-6.082-1.761-6.855-2.077-7.404-2.433-7.129-2.849-6.894-3.324-6.699-2.929-6.228-2.473-5.544-1.959-4.642-1.445-3.741-1.009-2.801-.653-1.822-.337-2.096 .019-2.35 .415-2.585 .019-3.252-.415-4.084-.89-5.083M.415 3.702C.138 3.349-.139 3.016-.415 2.703-1.049 3.329-1.781 3.878-2.612 4.348-2.335 4.701-2.098 5.014-1.899 5.288-.99 4.739-.218 4.211 .415 3.702M3.116-3.555C3.057-4.358 2.878-5.132 2.582-5.876 2.285-6.62 1.603-7.345 .534-8.05 .257-7.697-.04-7.404-.356-7.169 .435-6.816 1.018-6.337 1.395-5.729 1.77-5.122 1.978-4.436 2.018-3.672 2.057-2.909 2.057-2.233 2.018-1.645 2.413-1.724 2.849-1.763 3.324-1.763 3.244-2.155 3.175-2.752 3.116-3.555M5.935 4.054H7.835C8.467 4.054 9.179 4.074 9.971 4.113V3.055C9.021 3.094 8.309 3.114 7.835 3.114H4.036C4.352 2.879 4.629 2.703 4.867 2.585 4.668 2.428 4.412 2.154 4.095 1.763 3.778 1.371 3.303 .823 2.671 .118 4.095 .156 5.618 .215 7.241 .294 6.845 .764 6.449 1.175 6.054 1.528 6.449 1.801 6.726 2.036 6.885 2.233 7.992 1.096 8.922 .078 9.674-.823 9.318-1.097 9.001-1.351 8.725-1.586 8.407-1.156 8.131-.784 7.894-.47 7.023-.549 5.846-.637 4.362-.734 2.878-.833 1.879-.96 1.365-1.116 1.247-.764 1.068-.431 .831-.117 1.226 0 1.701 .391 2.255 1.058 2.809 1.723 3.264 2.409 3.62 3.114H2.968C2.255 3.114 1.523 3.075 .771 2.997V4.113C1.523 4.074 2.255 4.054 2.968 4.054H4.629C4.312 4.603 4.036 5.033 3.799 5.347 4.194 5.543 4.511 5.738 4.748 5.935 5.143 5.347 5.539 4.72 5.935 4.054M5.342-3.114V-5.7C5.342-6.209 5.361-6.835 5.401-7.58H4.155C4.194-6.875 4.214-6.249 4.214-5.7V-3.114C4.214-2.449 4.194-1.959 4.155-1.645H5.401C5.361-1.88 5.342-2.371 5.342-3.114M7.775-3.173V-6.052C7.775-6.405 7.953-6.581 8.309-6.581H8.903C9.219-6.581 9.397-6.131 9.437-5.23 9.753-5.465 10.149-5.641 10.624-5.758 10.387-6.737 10.139-7.286 9.882-7.404 9.624-7.521 9.318-7.58 8.962-7.58H7.835C7.082-7.58 6.707-7.207 6.707-6.464V-3.055C6.707-2.585 6.686-2.115 6.647-1.645H7.835C7.795-2.155 7.775-2.664 7.775-3.173" fill="#2c292a"/>
<path transform="matrix(1,0,0,-1,259.9989,240.15702)" d="M0 0V-3.526C.989-4.505 2.809-4.995 5.461-4.995 8.111-4.995 10.05-4.877 11.277-4.642 11.04-5.112 10.9-5.601 10.861-6.111 7.695-6.15 5.45-6.111 4.125-5.993 2.799-5.876 1.721-5.612 .89-5.2 .059-4.789-.495-4.73-.771-5.024-1.049-5.318-1.385-5.797-1.78-6.464-2.136-6.071-2.493-5.738-2.849-5.465-2.216-4.916-1.602-4.407-1.009-3.937V1.116C-1.326 1.116-1.82 1.096-2.493 1.058V2.174C-1.86 2.135-1.009 2.115 .059 2.115 .02 1.331 0 .626 0 0M.712 4.642C.276 4.407-.08 4.132-.356 3.819-.633 4.407-1.148 5.19-1.899 6.17-1.583 6.405-1.246 6.64-.89 6.875-.218 5.935 .316 5.19 .712 4.642M10.149 6.934C9.595 6.307 9.011 5.719 8.398 5.171 7.784 4.622 7.241 4.113 6.766 3.643H10.209C10.169 2.781 10.149 1.939 10.149 1.116V-2.938C10.188-3.448 10.05-3.781 9.734-3.937 9.417-4.094 8.942-4.231 8.309-4.348 8.23-3.996 8.032-3.584 7.716-3.114 8.309-3.076 8.704-3.017 8.903-2.938 9.1-2.86 9.179-2.488 9.14-1.822H6.469V-4.231H5.401V-1.822H2.79V-4.231H1.721C1.76-2.938 1.781-1.645 1.781-.353 1.781 .94 1.76 2.271 1.721 3.643H5.223C5.025 3.956 4.59 4.387 3.917 4.936 4.194 5.171 4.452 5.425 4.689 5.7 5.401 5.151 5.895 4.739 6.173 4.466 6.805 5.131 7.3 5.641 7.657 5.993H3.858C3.066 5.993 2.374 5.973 1.781 5.935V6.992C2.374 6.953 3.027 6.934 3.739 6.934ZM5.401 2.762H2.789V1.4690001H5.401ZM5.401 .529H2.789V-.881H5.401ZM9.14 2.762H6.4690005V1.4690001H9.14ZM9.14 .529H6.4690005V-.881H9.14ZM9.14-.881" fill="#2c292a"/>
<path transform="matrix(1,0,0,-1,272.5057,238.453)" d="M0 0C.632-.039 1.187-.059 1.662-.059H2.908C2.868-.686 2.849-1.351 2.849-2.057V-5.347C3.877-6.287 5.618-6.757 8.072-6.757 10.565-6.757 12.464-6.659 13.77-6.464 13.571-6.934 13.413-7.404 13.295-7.874 11.752-7.912 10.416-7.922 9.288-7.903 8.161-7.883 7.22-7.834 6.469-7.756 5.717-7.677 5.104-7.551 4.629-7.374 4.154-7.198 3.67-6.943 3.175-6.61 2.68-6.278 2.275-6.268 1.959-6.581 1.641-6.894 1.266-7.345 .831-7.932 .475-7.58 .118-7.286-.238-7.051 .356-6.659 1.009-6.111 1.721-5.406V-.999C1.127-.999 .554-1.019 0-1.058ZM.95 4.642C1.424 4.72 1.84 4.838 2.196 4.995 2.472 4.21 2.73 3.349 2.968 2.409 2.571 2.33 2.156 2.193 1.721 1.998 1.562 2.703 1.306 3.584 .95 4.642M3.977 3.526C4.57 3.486 6.37 3.467 9.377 3.467 9.694 4.21 9.99 4.974 10.268 5.758 10.781 5.562 11.217 5.406 11.573 5.288 11.296 5.014 10.94 4.407 10.505 3.467 12.048 3.467 13.156 3.486 13.829 3.526V2.468C13.156 2.507 11.652 2.527 9.318 2.527L9.021 1.351H12.464C12.424 .411 12.404-.823 12.404-2.35 12.404-3.84 12.424-4.956 12.464-5.7H5.045C5.124-4.838 5.164-3.722 5.164-2.35 5.164-.98 5.143 .254 5.104 1.351H7.775L8.072 2.527C5.935 2.527 4.57 2.507 3.977 2.468ZM7.716 4.172C7.398 3.975 7.082 3.761 6.766 3.526 6.489 3.996 6.093 4.524 5.579 5.112 5.855 5.308 6.152 5.523 6.469 5.758 6.983 5.131 7.398 4.603 7.716 4.172M11.277 .411H6.3510005V-.70500007H11.277ZM11.277-1.586H6.3510005V-2.7020002H11.277ZM11.277-3.584H6.3510005V-4.759H11.277ZM11.277-4.759" fill="#2c292a"/>
</g>
<path transform="matrix(1,0,0,-1,111.0809,365.279)" d="M0 0H-2.575-5.151L-2.575-5.099ZM-5.151 36.462H-2.575 0L-2.575 41.561ZM-1.717 37.737H-3.434V-1.2750015H-1.717Z" fill="#2c292a"/>
<path transform="matrix(1,0,0,-1,0,595.276)" d="M80.21 257.796H136.866V238.92899H80.21Z" fill="#ffffff"/>
<g clip-path="url(#clip_5)">
<path transform="matrix(1,0,0,-1,89.075,348.7091)" d="M0 0C.248-.95 .675-1.478 1.28-1.584 1.884-1.689 2.373-1.628 2.746-1.399 3.119-1.17 3.386-.871 3.546-.501 3.706-.132 3.776 .281 3.759 .739 3.74 1.196 3.616 1.583 3.386 1.9 3.154 2.217 2.861 2.428 2.506 2.534 2.15 2.639 1.75 2.639 1.306 2.534 .861 2.428 .497 2.182 .213 1.795L-.693 1.9C-.622 2.111-.285 3.624 .32 6.44H4.532V5.49H1.12C.941 4.539 .764 3.782 .586 3.22 1.12 3.466 1.617 3.58 2.079 3.563 2.541 3.545 2.986 3.439 3.412 3.246 3.839 3.052 4.149 2.789 4.345 2.454 4.54 2.12 4.683 1.786 4.772 1.452 4.86 1.117 4.896 .756 4.878 .369 4.86-.018 4.78-.414 4.638-.818 4.496-1.223 4.283-1.557 3.999-1.821 3.714-2.085 3.367-2.296 2.959-2.454 2.55-2.613 2.079-2.675 1.546-2.639 1.013-2.605 .506-2.411 .027-2.059-.453-1.707-.782-1.108-.96-.264Z" fill="#2c292a"/>
<path transform="matrix(1,0,0,-1,97.7532,344.4864)" d="M0 0C0-1.021-.152-1.672-.453-1.953-.756-2.235-1.049-2.375-1.333-2.375-1.618-2.375-1.911-2.235-2.213-1.953-2.515-1.672-2.666-1.021-2.666 0-2.666 1.02-2.515 1.671-2.213 1.953-1.911 2.234-1.618 2.375-1.333 2.375-1.049 2.375-.756 2.234-.453 1.953-.152 1.671 0 1.02 0 0M2.613 2.217-1.493-6.862-1.919-6.704 2.186 2.375ZM-.853 0C-.853 .633-.889 1.056-.96 1.267-1.031 1.478-1.155 1.583-1.333 1.583-1.511 1.583-1.635 1.478-1.706 1.267-1.778 1.056-1.813 .633-1.813 0-1.813-.633-1.778-1.056-1.706-1.267-1.635-1.478-1.511-1.583-1.333-1.583-1.155-1.583-1.031-1.478-.96-1.267-.889-1.056-.853-.633-.853 0M3.359-4.487C3.359-5.508 3.207-6.158 2.906-6.44 2.603-6.722 2.31-6.862 2.026-6.862 1.741-6.862 1.448-6.722 1.146-6.44 .844-6.158 .693-5.508 .693-4.487 .693-3.466 .844-2.816 1.146-2.534 1.448-2.252 1.741-2.111 2.026-2.111 2.31-2.111 2.603-2.252 2.906-2.534 3.207-2.816 3.359-3.466 3.359-4.487M2.506-4.487C2.506-3.853 2.47-3.431 2.399-3.22 2.328-3.009 2.204-2.903 2.026-2.903 1.848-2.903 1.724-3.009 1.653-3.22 1.581-3.431 1.546-3.853 1.546-4.487 1.546-5.12 1.581-5.542 1.653-5.753 1.724-5.965 1.848-6.07 2.026-6.07 2.204-6.07 2.328-5.965 2.399-5.753 2.47-5.542 2.506-5.12 2.506-4.487" fill="#2c292a"/>
</g>
<path transform="matrix(1,0,0,-1,0,595.276)" d="M101.9 248.256H107.978008V249.09999H101.9Z" fill="#2c292a"/>
<g clip-path="url(#clip_6)">
<path transform="matrix(1,0,0,-1,111.4839,343.90583)" d="M0 0C-.462-.458-1.049-.897-1.759-1.32V-.317C-.871 .281-.142 .985 .427 1.795H1.066V-7.284H0Z" fill="#2c292a"/>
<path transform="matrix(1,0,0,-1,115.8436,346.1491)" d="M0 0C.035 .932 .168 1.671 .4 2.217 .631 2.762 .96 3.211 1.386 3.563 1.813 3.914 2.337 4.091 2.959 4.091 3.58 4.091 4.123 3.835 4.585 3.325 5.047 2.815 5.349 2.172 5.492 1.399 5.633 .624 5.678-.264 5.625-1.267 5.571-2.27 5.393-3.088 5.092-3.721 4.789-4.355 4.336-4.795 3.732-5.041 3.127-5.287 2.523-5.261 1.919-4.962 1.315-4.663 .888-4.267 .64-3.774 .391-3.282 .213-2.763 .107-2.217 0-1.672-.036-.933 0 0M1.12 .317C1.013-.652 1.048-1.513 1.226-2.27 1.404-3.027 1.697-3.563 2.106-3.88 2.514-4.196 2.932-4.258 3.359-4.064 3.785-3.871 4.096-3.484 4.292-2.903 4.487-2.322 4.585-1.689 4.585-1.003 4.585-.317 4.558 .308 4.505 .871 4.452 1.433 4.292 1.944 4.025 2.402 3.759 2.859 3.403 3.096 2.959 3.114 2.514 3.132 2.123 2.911 1.786 2.454 1.448 1.997 1.226 1.284 1.12 .317" fill="#2c292a"/>
<path transform="matrix(1,0,0,-1,125.2148,344.4864)" d="M0 0C0-1.021-.152-1.672-.453-1.953-.756-2.235-1.049-2.375-1.333-2.375-1.618-2.375-1.911-2.235-2.213-1.953-2.515-1.672-2.666-1.021-2.666 0-2.666 1.02-2.515 1.671-2.213 1.953-1.911 2.234-1.618 2.375-1.333 2.375-1.049 2.375-.756 2.234-.453 1.953-.152 1.671 0 1.02 0 0M2.612 2.217-1.493-6.862-1.919-6.704 2.186 2.375ZM-.853 0C-.853 .633-.889 1.056-.96 1.267-1.031 1.478-1.155 1.583-1.333 1.583-1.511 1.583-1.635 1.478-1.706 1.267-1.778 1.056-1.813 .633-1.813 0-1.813-.633-1.778-1.056-1.706-1.267-1.635-1.478-1.511-1.583-1.333-1.583-1.155-1.583-1.031-1.478-.96-1.267-.889-1.056-.853-.633-.853 0M3.359-4.487C3.359-5.508 3.207-6.158 2.906-6.44 2.603-6.722 2.31-6.862 2.026-6.862 1.741-6.862 1.448-6.722 1.146-6.44 .844-6.158 .693-5.508 .693-4.487 .693-3.466 .844-2.816 1.146-2.534 1.448-2.252 1.741-2.111 2.026-2.111 2.31-2.111 2.603-2.252 2.906-2.534 3.207-2.816 3.359-3.466 3.359-4.487M2.506-4.487C2.506-3.853 2.47-3.431 2.399-3.22 2.328-3.009 2.203-2.903 2.026-2.903 1.848-2.903 1.724-3.009 1.653-3.22 1.581-3.431 1.546-3.853 1.546-4.487 1.546-5.12 1.581-5.542 1.653-5.753 1.724-5.965 1.848-6.07 2.026-6.07 2.203-6.07 2.328-5.965 2.399-5.753 2.47-5.542 2.506-5.12 2.506-4.487" fill="#2c292a"/>
</g>
<path transform="matrix(1,0,0,-1,101.1277,376.7177)" d="M0 0-.954 1.413 215.761 144.716 216.716 143.303Z" fill="#2c292a"/>
<path transform="matrix(1,0,0,-1,71.1777,345.9098)" d="M0 0-.986 1.392 222.074 156.051 223.06 154.659Z" fill="#2c292a"/>
<g clip-path="url(#clip_7)">
<path transform="matrix(1,0,0,-1,130.4279,247.99121)" d="M0 0C.078 2.478 2.193 4.573 4.803 4.573 7.413 4.573 9.529 2.478 9.529-.106 9.529-2.689 7.413-4.784 4.803-4.784 2.193-4.784 .078-2.689 0 0" fill="#f43040"/>
<path transform="matrix(1,0,0,-1,135.2314,253.62522)" d="M0 0C-3.079 0-5.585 2.48-5.585 5.528-5.585 8.577-3.079 11.057 0 11.057 3.079 11.057 5.585 8.577 5.585 5.528 5.585 2.48 3.079 0 0 0M0 9.357C-2.132 9.357-3.867 7.64-3.867 5.528-3.867 3.417-2.132 1.7 0 1.7 2.132 1.7 3.867 3.417 3.867 5.528 3.867 7.64 2.132 9.357 0 9.357" fill="#2c292a"/>
<path transform="matrix(1,0,0,-1,242.7095,320.3984)" d="M0 0C-.011 2.662 2.105 4.756 4.715 4.756 7.325 4.756 9.441 2.662 9.441 .078 9.441-2.506 7.325-4.601 4.715-4.601 2.105-4.601-.011-2.506 0 0" fill="#f43040"/>
<path transform="matrix(1,0,0,-1,247.4246,325.8492)" d="M0 0C-3.079 0-5.585 2.48-5.585 5.528-5.585 8.577-3.079 11.057 0 11.057 3.079 11.057 5.585 8.577 5.585 5.528 5.585 2.48 3.079 0 0 0M0 9.357C-2.132 9.357-3.867 7.64-3.867 5.528-3.867 3.417-2.132 1.7 0 1.7 2.132 1.7 3.867 3.417 3.867 5.528 3.867 7.64 2.132 9.357 0 9.357" fill="#2c292a"/>
</g>
<path transform="matrix(1,0,0,-1,133.4247,264.0099)" d="M0 0H2.575 5.151L2.575 5.099ZM3.434-43.3H1.717V-48.399H3.434ZM3.434-36.502H1.717V-41.600999H3.434ZM3.434-29.703H1.717V-34.802H3.434ZM3.434-22.904H1.717V-28.002999H3.434ZM3.434-16.105H1.717V-21.203999H3.434ZM3.434-9.306H1.717V-14.405H3.434ZM3.434-2.508H1.717V-7.607H3.434ZM3.434 1.275H1.717V-.80799999H3.434Z" fill="#2c292a"/>
<g clip-path="url(#clip_8)">
<path transform="matrix(1,0,0,-1,242.7095,247.99121)" d="M0 0C-.011 2.478 2.105 4.573 4.715 4.573 7.325 4.573 9.441 2.478 9.441-.106 9.441-2.689 7.325-4.784 4.715-4.784 2.105-4.784-.011-2.689 0 0" fill="#f43040"/>
<path transform="matrix(1,0,0,-1,247.4246,253.62522)" d="M0 0C-3.079 0-5.585 2.48-5.585 5.528-5.585 8.577-3.079 11.057 0 11.057 3.079 11.057 5.585 8.577 5.585 5.528 5.585 2.48 3.079 0 0 0M0 9.357C-2.132 9.357-3.867 7.64-3.867 5.528-3.867 3.417-2.132 1.7 0 1.7 2.132 1.7 3.867 3.417 3.867 5.528 3.867 7.64 2.132 9.357 0 9.357" fill="#2c292a"/>
<path transform="matrix(1,0,0,-1,130.4279,320.3984)" d="M0 0C.078 2.662 2.193 4.756 4.803 4.756 7.413 4.756 9.529 2.662 9.529 .078 9.529-2.506 7.413-4.601 4.803-4.601 2.193-4.601 .078-2.506 0 0" fill="#f43040"/>
<path transform="matrix(1,0,0,-1,135.2314,325.8492)" d="M0 0C-3.079 0-5.585 2.48-5.585 5.528-5.585 8.577-3.079 11.057 0 11.057 3.079 11.057 5.585 8.577 5.585 5.528 5.585 2.48 3.079 0 0 0M0 9.357C-2.132 9.357-3.867 7.64-3.867 5.528-3.867 3.417-2.132 1.7 0 1.7 2.132 1.7 3.867 3.417 3.867 5.528 3.867 7.64 2.132 9.357 0 9.357" fill="#2c292a"/>
</g>
<path transform="matrix(1,0,0,-1,231.4658,249.2768)" d="M0 0V2.55 5.099L5.151 2.55ZM-85.972 3.399H-80.821V1.6989999H-85.972ZM-79.105 3.399H-73.954V1.7H-79.105ZM-72.238 3.399H-67.087V1.6989999H-72.238ZM-65.37 3.399H-60.219V1.6989999H-65.37ZM-58.503 3.399H-53.351999V1.6989999H-58.503ZM-51.635 3.399H-46.483999V1.6989999H-51.635ZM-44.768 3.399H-39.617V1.6989999H-44.768ZM-37.901 3.399H-32.75V1.6989999H-37.901ZM-31.033 3.399H-25.882V1.6989999H-31.033ZM-24.166 3.399H-19.015V1.6989999H-24.166ZM-17.299 3.399H-12.148V1.6989999H-17.299ZM-10.431 3.399H-5.2799999V1.6989999H-10.431ZM-3.564 3.399H1.287V1.6989999H-3.564Z" fill="#2c292a"/>
<path transform="matrix(1,0,0,-1,232.4504,323.6876)" d="M0 0V2.55 5.099L5.151 2.55ZM-85.972 3.399H-80.821V1.6989999H-85.972ZM-79.105 3.399H-73.955V1.6989999H-79.105ZM-72.238 3.399H-67.087V1.6989999H-72.238ZM-65.37 3.399H-60.219V1.6989999H-65.37ZM-58.503 3.399H-53.351999V1.6989999H-58.503ZM-51.635 3.399H-46.483999V1.6989999H-51.635ZM-44.768 3.399H-39.617V1.6989999H-44.768ZM-37.901 3.399H-32.75V1.6989999H-37.901ZM-31.033 3.399H-25.882V1.6989999H-31.033ZM-24.166 3.399H-19.015V1.6989999H-24.166ZM-17.299 3.399H-12.148V1.6989999H-17.299ZM-10.431 3.399H-5.2799999V1.6989999H-10.431ZM-3.564 3.399H1.287V1.6989999H-3.564Z" fill="#2c292a"/>
<path transform="matrix(1,0,0,-1,244.8492,264.0098)" d="M0 0H2.575 5.151L2.575 5.099ZM3.434-43.3H1.717V-48.399H3.434ZM3.434-36.502H1.717V-41.600999H3.434ZM3.434-29.703H1.717V-34.802H3.434ZM3.434-22.904H1.717V-28.002999H3.434ZM3.434-16.105H1.717V-21.203999H3.434ZM3.434-9.306H1.717V-14.405H3.434ZM3.434-2.508H1.717V-7.607H3.434ZM3.434 1.275H1.717V-.80799999H3.434Z" fill="#2c292a"/>
<g clip-path="url(#clip_9)">
<path transform="matrix(1,0,0,-1,191.2267,331.0515)" d="M0 0C-.498-.246-1.013-.493-1.546-.739V-4.698C-1.511-5.12-1.635-5.437-1.919-5.648-2.204-5.859-2.773-6.035-3.625-6.176-3.697-5.824-3.839-5.437-4.052-5.014-3.341-5.049-2.906-4.988-2.746-4.83-2.586-4.671-2.506-4.487-2.506-4.275V-1.214C-3.075-1.461-3.625-1.742-4.159-2.059-4.265-1.672-4.444-1.338-4.692-1.056-4.337-.985-3.608-.704-2.506-.211V2.375C-3.252 2.375-3.875 2.357-4.372 2.322V3.273C-3.875 3.237-3.252 3.22-2.506 3.22-2.506 4.487-2.524 5.419-2.559 6.017H-1.493C-1.529 5.49-1.546 4.557-1.546 3.22-1.155 3.22-.676 3.237-.107 3.273V2.322C-.676 2.357-1.155 2.375-1.546 2.375V.211C-1.049 .422-.586 .668-.16 .95-.125 .704-.072 .387 0 0M.587 1.003C1.333 .968 2.203 .95 3.199 .95V3.061H1.973C1.333 3.061 .8 3.043 .373 3.009V3.959C.906 3.923 1.404 3.906 1.866 3.906H3.199C3.199 4.434 3.181 5.085 3.146 5.859H4.265C4.229 5.226 4.212 4.574 4.212 3.906H6.078C6.469 3.906 6.913 3.923 7.411 3.959V3.009C6.913 3.043 6.469 3.061 6.078 3.061H4.212V.95H6.931C6.753 .246 6.469-.528 6.078-1.372 5.687-2.217 5.172-3.009 4.532-3.748 5.1-4.17 5.687-4.505 6.291-4.751 6.895-4.996 7.446-5.173 7.944-5.278 7.695-5.595 7.482-5.929 7.304-6.281 6.131-5.929 4.958-5.296 3.785-4.381 3.039-4.979 1.794-5.595 .053-6.228-.089-6.017-.356-5.682-.747-5.226-.213-5.155 .373-4.996 1.013-4.751 1.653-4.505 2.327-4.17 3.039-3.748 2.221-2.586 1.635-1.302 1.279 .106H.587ZM3.785-3.061C4.105-2.78 4.433-2.341 4.772-1.742 5.109-1.144 5.385-.51 5.598 .158H2.239C2.701-1.355 3.216-2.428 3.785-3.061" fill="#2c292a"/>
<path transform="matrix(1,0,0,-1,205.7573,328.8873)" d="M0 0C-1.173-.071-2.151-.141-2.932-.211-3.715-.282-4.301-.369-4.692-.475-4.798-.053-4.923 .317-5.065 .633-4.817 .739-4.434 1.117-3.919 1.768-3.404 2.419-2.986 3.114-2.666 3.853-2.488 3.712-2.292 3.607-2.079 3.536-1.866 3.466-1.635 3.378-1.386 3.273-1.671 3.061-1.964 2.745-2.266 2.322-2.568 1.9-3.057 1.301-3.732 .528-2.239 .598-1.138 .651-.427 .686-.853 1.249-1.155 1.618-1.333 1.795-1.085 1.935-.8 2.129-.48 2.375-.196 1.988 .08 1.636 .347 1.32 .613 1.003 .96 .598 1.386 .106 .995-.177 .675-.405 .426-.581 .32-.405 .177-.211 0 0M-.64-7.205C-.569-7.081-.533-6.897-.533-6.651V-5.912H-3.412V-8.393H-4.425C-4.39-7.688-4.372-7.056-4.372-6.492V-2.956C-4.372-2.322-4.39-1.76-4.425-1.267H.48C.444-1.795 .426-2.375 .426-3.009V-7.442C.391-7.829 .231-8.076-.053-8.181-.338-8.287-.746-8.374-1.279-8.445-1.351-8.129-1.493-7.777-1.706-7.39-1.066-7.39-.711-7.328-.64-7.205M-.533-2.111H-3.412V-3.114H-.533ZM-.533-3.959H-3.412V-5.0670006H-.533ZM2.719 1.583C3.216 1.795 3.696 2.014 4.159 2.243 4.62 2.472 5.083 2.762 5.545 3.114 5.829 2.762 6.078 2.463 6.291 2.217 6.078 2.146 5.625 1.944 4.932 1.61 4.239 1.275 3.5 .985 2.719 .739V-.053C2.719-.475 2.968-.686 3.466-.686H5.012C5.367-.686 5.598-.229 5.705 .686 6.06 .51 6.415 .351 6.771 .211 6.522-.915 6.078-1.478 5.438-1.478H3.039C2.186-1.478 1.76-1.091 1.76-.317V2.375C1.76 2.798 1.741 3.254 1.706 3.748H2.773C2.737 3.501 2.719 2.991 2.719 2.217ZM5.092-4.17C4.399-4.487 3.607-4.786 2.719-5.067V-6.545C2.719-6.967 2.914-7.179 3.306-7.179H5.225C5.509-7.108 5.705-6.669 5.812-5.859 6.096-6 6.451-6.141 6.878-6.281 6.629-7.407 6.22-7.97 5.651-7.97H2.773C2.097-7.97 1.76-7.635 1.76-6.967V-3.536C1.76-3.009 1.741-2.534 1.706-2.111H2.773C2.737-2.534 2.719-2.991 2.719-3.484V-4.17C3.074-4.064 3.545-3.871 4.132-3.589 4.719-3.308 5.189-3.009 5.545-2.692 5.865-3.114 6.131-3.431 6.345-3.642 6.202-3.677 5.785-3.853 5.092-4.17" fill="#2c292a"/>
</g>
<path transform="matrix(1,0,0,-1,219.8759,331.4737)" d="M0 0H-2.612V-2.586H-3.519V0H-6.131V.845H-3.519V3.431H-2.612V.845H0Z" fill="#2c292a"/>
<g clip-path="url(#clip_10)">
<path transform="matrix(1,0,0,-1,166.8704,235.96121)" d="M0 0C-.498-.247-1.013-.493-1.546-.739V-4.698C-1.511-5.12-1.635-5.437-1.919-5.648-2.204-5.859-2.773-6.035-3.625-6.176-3.697-5.823-3.839-5.437-4.052-5.014-3.341-5.049-2.906-4.988-2.746-4.83-2.586-4.671-2.506-4.487-2.506-4.275V-1.214C-3.075-1.461-3.625-1.742-4.159-2.059-4.265-1.672-4.444-1.338-4.692-1.056-4.337-.986-3.608-.704-2.506-.211V2.375C-3.252 2.375-3.875 2.357-4.372 2.322V3.273C-3.875 3.237-3.252 3.22-2.506 3.22-2.506 4.487-2.524 5.419-2.559 6.017H-1.493C-1.529 5.49-1.546 4.557-1.546 3.22-1.156 3.22-.676 3.237-.107 3.273V2.322C-.676 2.357-1.156 2.375-1.546 2.375V.211C-1.049 .422-.586 .668-.16 .95-.125 .703-.072 .387 0 0M.586 1.003C1.333 .967 2.203 .95 3.199 .95V3.061H1.973C1.333 3.061 .8 3.043 .373 3.009V3.959C.906 3.923 1.404 3.906 1.866 3.906H3.199C3.199 4.434 3.181 5.085 3.146 5.859H4.265C4.229 5.226 4.212 4.574 4.212 3.906H6.078C6.469 3.906 6.913 3.923 7.411 3.959V3.009C6.913 3.043 6.469 3.061 6.078 3.061H4.212V.95H6.931C6.753 .246 6.469-.528 6.078-1.372 5.687-2.217 5.172-3.009 4.532-3.748 5.1-4.17 5.687-4.505 6.291-4.751 6.895-4.996 7.446-5.173 7.944-5.278 7.695-5.595 7.482-5.929 7.304-6.281 6.131-5.929 4.958-5.296 3.785-4.381 3.039-4.979 1.794-5.595 .053-6.228-.089-6.017-.356-5.682-.747-5.226-.213-5.155 .373-4.996 1.013-4.751 1.653-4.505 2.328-4.17 3.039-3.748 2.221-2.586 1.634-1.302 1.28 .106H.586ZM3.785-3.061C4.105-2.78 4.433-2.341 4.772-1.742 5.109-1.144 5.385-.511 5.598 .158H2.239C2.701-1.355 3.216-2.428 3.785-3.061" fill="#2c292a"/>
<path transform="matrix(1,0,0,-1,181.4009,233.79709)" d="M0 0C-1.173-.071-2.151-.141-2.932-.211-3.715-.282-4.301-.369-4.692-.475-4.798-.053-4.923 .317-5.065 .633-4.817 .739-4.434 1.117-3.919 1.768-3.404 2.419-2.986 3.114-2.666 3.853-2.488 3.712-2.293 3.607-2.079 3.536-1.866 3.466-1.635 3.378-1.386 3.273-1.671 3.061-1.964 2.745-2.266 2.323-2.568 1.9-3.057 1.301-3.732 .528-2.239 .598-1.138 .651-.427 .686-.853 1.249-1.155 1.618-1.333 1.795-1.085 1.935-.8 2.129-.48 2.375-.196 1.988 .08 1.636 .347 1.32 .613 1.003 .96 .598 1.386 .106 .995-.177 .675-.405 .427-.581 .32-.405 .177-.211 0 0M-.64-7.205C-.569-7.081-.533-6.897-.533-6.651V-5.912H-3.412V-8.393H-4.425C-4.39-7.688-4.372-7.056-4.372-6.492V-2.956C-4.372-2.322-4.39-1.76-4.425-1.267H.48C.444-1.795 .427-2.375 .427-3.009V-7.443C.391-7.829 .231-8.076-.053-8.181-.338-8.287-.746-8.374-1.28-8.445-1.351-8.129-1.493-7.776-1.706-7.39-1.066-7.39-.711-7.328-.64-7.205M-.533-2.111H-3.412V-3.114H-.533ZM-.533-3.959H-3.412V-5.0670006H-.533ZM2.719 1.583C3.216 1.795 3.696 2.014 4.159 2.243 4.62 2.472 5.083 2.762 5.545 3.114 5.829 2.762 6.078 2.463 6.291 2.217 6.078 2.146 5.625 1.944 4.932 1.61 4.239 1.275 3.501 .985 2.719 .739V-.053C2.719-.475 2.967-.686 3.466-.686H5.012C5.367-.686 5.598-.229 5.705 .686 6.06 .51 6.415 .351 6.771 .211 6.522-.915 6.078-1.478 5.438-1.478H3.039C2.186-1.478 1.76-1.091 1.76-.317V2.375C1.76 2.798 1.741 3.254 1.706 3.748H2.773C2.737 3.501 2.719 2.991 2.719 2.217ZM5.092-4.17C4.399-4.487 3.607-4.786 2.719-5.067V-6.545C2.719-6.967 2.914-7.179 3.306-7.179H5.225C5.509-7.108 5.705-6.669 5.812-5.859 6.096-6 6.451-6.141 6.878-6.281 6.629-7.407 6.22-7.97 5.651-7.97H2.773C2.097-7.97 1.76-7.635 1.76-6.967V-3.536C1.76-3.009 1.741-2.534 1.706-2.111H2.773C2.737-2.534 2.719-2.991 2.719-3.484V-4.17C3.074-4.064 3.546-3.871 4.132-3.589 4.719-3.308 5.189-3.009 5.545-2.692 5.865-3.114 6.131-3.431 6.345-3.642 6.202-3.678 5.785-3.853 5.092-4.17" fill="#2c292a"/>
</g>
<path transform="matrix(1,0,0,-1,195.5095,236.38352)" d="M0 0H-2.612V-2.586H-3.519V0H-6.131V.845H-3.519V3.431H-2.612V.845H0Z" fill="#2c292a"/>
<g clip-path="url(#clip_11)">
<path transform="matrix(1,0,0,-1,99.1239,286.8426)" d="M0 0C-.392-.563-.818-1.108-1.28-1.636-1.458-1.284-1.689-1.003-1.973-.792-1.475-.299-1.049 .185-.693 .66-.338 1.135 .017 1.742 .373 2.481 .088 3.009-.187 3.484-.453 3.906-.72 4.328-1.049 4.751-1.44 5.173-1.155 5.348-.906 5.542-.693 5.753-.445 5.471-.205 5.155 .027 4.803 .257 4.451 .515 4.064 .8 3.642 .977 4.099 1.12 4.645 1.226 5.278 1.333 5.912 1.421 6.615 1.493 7.39H.053C-.551 7.39-1.031 7.371-1.386 7.337V8.34C-1.031 8.304-.569 8.287 0 8.287H2.559C2.523 7.829 2.479 7.398 2.426 6.994 2.373 6.589 2.283 6.026 2.159 5.305 2.034 4.583 1.91 4.029 1.786 3.642 1.661 3.254 1.564 2.938 1.493 2.692 1.67 2.445 1.919 2.085 2.239 1.61 2.559 1.135 2.879 .651 3.199 .158 2.914 .017 2.63-.194 2.346-.475 2.133-.053 1.901 .36 1.653 .765 1.404 1.169 1.208 1.46 1.066 1.636 .746 1.108 .391 .562 0 0M9.81 1.108C9.312 1.143 8.761 1.161 8.157 1.161H7.784V-.792H8.584C9.33-.792 9.952-.774 10.45-.739V-1.636C9.988-1.601 9.365-1.584 8.584-1.584H4.798V-2.639H3.892C3.927-2.111 3.945-1.214 3.945 .053V5.384C3.803 5.102 3.679 4.838 3.572 4.592 3.466 4.346 3.323 4.064 3.146 3.748 2.932 3.959 2.612 4.134 2.186 4.275 2.506 4.732 2.79 5.216 3.039 5.727 3.287 6.237 3.501 6.703 3.679 7.126 3.856 7.548 4.007 7.97 4.132 8.393 4.256 8.815 4.336 9.202 4.372 9.554 4.798 9.413 5.189 9.29 5.545 9.184 5.438 9.043 5.313 8.806 5.172 8.472 5.029 8.137 4.869 7.724 4.692 7.231H8.317C8.957 7.231 9.561 7.249 10.13 7.284V6.387C9.81 6.421 9.224 6.44 8.371 6.44H7.784V4.698H8.211C8.779 4.698 9.294 4.715 9.757 4.751V3.8C9.365 3.835 8.851 3.853 8.211 3.853H7.784V1.953H8.157C8.797 1.953 9.348 1.97 9.81 2.006ZM6.771 6.44H4.798V4.698H6.771ZM6.771 3.853H4.798V1.953H6.771ZM6.771 1.161H4.798V-.79199996H6.771ZM6.824 8.63C6.611 8.894 6.451 9.096 6.345 9.237 6.593 9.413 6.824 9.607 7.038 9.818 7.322 9.501 7.571 9.237 7.784 9.026 7.997 8.815 8.175 8.604 8.317 8.393 7.997 8.146 7.712 7.899 7.464 7.654 7.251 8.04 7.038 8.366 6.824 8.63" fill="#2c292a"/>
<path transform="matrix(1,0,0,-1,117.7598,276.9721)" d="M0 0C.213-.388 .427-.897 .64-1.531H2.613C3.003-1.531 3.714-1.513 4.745-1.478V-2.428C3.75-2.393 3.003-2.375 2.506-2.375H-4.478C-4.478-3.959-4.497-5.235-4.532-6.202-4.568-7.17-4.665-8.129-4.825-9.079-4.985-10.029-5.332-11.067-5.865-12.193-6.185-11.982-6.523-11.824-6.878-11.718-6.31-10.733-5.945-9.765-5.785-8.815-5.625-7.865-5.536-6.651-5.518-5.173-5.501-3.695-5.51-2.481-5.545-1.531H-.586C-.729-1.074-.889-.686-1.066-.369-.676-.264-.32-.141 0 0M-3.679-7.548C-2.684-7.584-1.884-7.601-1.28-7.601H3.679C3.359-8.164 2.967-8.727 2.506-9.29 2.044-9.853 1.6-10.311 1.173-10.662 1.635-10.873 2.293-11.05 3.146-11.19 3.999-11.33 4.816-11.401 5.598-11.401 5.385-11.612 5.189-11.964 5.012-12.457 3.98-12.316 3.074-12.148 2.293-11.955 1.51-11.762 .853-11.541 .32-11.296-.426-11.612-1.165-11.867-1.893-12.061-2.622-12.254-3.377-12.404-4.159-12.51-4.265-12.228-4.478-11.929-4.798-11.612-4.159-11.612-3.43-11.524-2.612-11.348-1.795-11.172-1.085-10.944-.48-10.662-1.085-10.17-1.689-9.414-2.293-8.393L-3.679-8.445ZM-2.186-2.798H-1.066C-1.102-3.08-1.12-3.519-1.12-4.117H1.759C1.759-3.555 1.741-3.097 1.706-2.745H2.826C2.79-3.167 2.772-3.625 2.772-4.117 3.554-4.117 4.23-4.1 4.798-4.064V-4.962C4.265-4.927 3.59-4.909 2.772-4.909 2.772-5.859 2.79-6.545 2.826-6.967H-2.186C-2.151-6.405-2.133-5.719-2.133-4.909-2.559-4.909-3.181-4.927-3.999-4.962V-4.064C-3.181-4.1-2.559-4.117-2.133-4.117-2.133-3.555-2.151-3.114-2.186-2.798M-1.28-8.393C-.818-9.097-.267-9.695 .373-10.187 .906-9.8 1.457-9.203 2.026-8.393H-1.226ZM1.759-4.909H-1.12V-6.123H1.759ZM1.759-6.123" fill="#2c292a"/>
</g>
<path transform="matrix(1,0,0,-1,130.4923,283.5701)" d="M0 0H-2.612V-2.586H-3.519V0H-6.131V.845H-3.519V3.431H-2.612V.845H0Z" fill="#2c292a"/>
<g clip-path="url(#clip_12)">
<path transform="matrix(1,0,0,-1,254.7125,299.69)" d="M0 0C-.392-.563-.818-1.108-1.279-1.636-1.458-1.284-1.689-1.003-1.973-.792-1.475-.299-1.049 .185-.693 .66-.338 1.135 .018 1.742 .373 2.481 .088 3.009-.187 3.484-.453 3.906-.72 4.328-1.049 4.751-1.44 5.173-1.155 5.349-.906 5.542-.693 5.753-.445 5.471-.205 5.155 .027 4.803 .257 4.451 .515 4.064 .8 3.642 .977 4.099 1.12 4.645 1.226 5.278 1.333 5.912 1.421 6.615 1.493 7.39H.053C-.552 7.39-1.031 7.372-1.386 7.337V8.34C-1.031 8.304-.569 8.287 0 8.287H2.559C2.523 7.829 2.479 7.398 2.426 6.994 2.372 6.589 2.283 6.026 2.159 5.305 2.034 4.583 1.91 4.029 1.786 3.642 1.661 3.254 1.564 2.938 1.493 2.692 1.67 2.445 1.919 2.085 2.239 1.61 2.559 1.135 2.879 .651 3.199 .158 2.914 .017 2.63-.194 2.346-.475 2.133-.053 1.901 .361 1.653 .765 1.404 1.169 1.208 1.46 1.066 1.636 .747 1.108 .391 .562 0 0M9.81 1.108C9.312 1.143 8.761 1.161 8.157 1.161H7.784V-.792H8.584C9.33-.792 9.952-.774 10.45-.739V-1.636C9.988-1.601 9.365-1.583 8.584-1.583H4.799V-2.639H3.892C3.927-2.111 3.945-1.214 3.945 .053V5.384C3.803 5.102 3.679 4.838 3.572 4.592 3.466 4.346 3.323 4.064 3.146 3.748 2.932 3.959 2.612 4.135 2.186 4.276 2.506 4.732 2.79 5.217 3.039 5.727 3.287 6.237 3.5 6.704 3.679 7.126 3.856 7.548 4.007 7.97 4.132 8.393 4.256 8.815 4.336 9.202 4.372 9.554 4.799 9.413 5.189 9.29 5.545 9.184 5.438 9.043 5.313 8.806 5.172 8.472 5.029 8.137 4.869 7.724 4.692 7.231H8.317C8.957 7.231 9.561 7.249 10.13 7.284V6.387C9.81 6.421 9.224 6.44 8.371 6.44H7.784V4.698H8.211C8.779 4.698 9.294 4.715 9.757 4.751V3.8C9.365 3.835 8.851 3.853 8.211 3.853H7.784V1.953H8.157C8.797 1.953 9.348 1.97 9.81 2.006ZM6.771 6.44H4.798V4.698H6.771ZM6.771 3.853H4.798V1.953H6.771ZM6.771 1.161H4.798V-.79199996H6.771ZM6.825 8.63C6.611 8.894 6.451 9.096 6.345 9.237 6.593 9.413 6.825 9.607 7.038 9.818 7.322 9.501 7.571 9.237 7.784 9.026 7.997 8.815 8.175 8.604 8.317 8.393 7.997 8.146 7.713 7.899 7.464 7.654 7.251 8.041 7.038 8.366 6.825 8.63" fill="#2c292a"/>
<path transform="matrix(1,0,0,-1,273.3483,289.8194)" d="M0 0C.213-.388 .427-.897 .64-1.531H2.612C3.003-1.531 3.714-1.513 4.745-1.478V-2.428C3.75-2.393 3.003-2.375 2.506-2.375H-4.479C-4.479-3.959-4.497-5.235-4.532-6.202-4.568-7.17-4.665-8.129-4.825-9.079-4.985-10.029-5.331-11.067-5.865-12.193-6.184-11.982-6.523-11.824-6.878-11.718-6.31-10.733-5.945-9.765-5.785-8.815-5.625-7.865-5.537-6.651-5.518-5.173-5.501-3.695-5.51-2.481-5.545-1.531H-.586C-.729-1.074-.889-.686-1.066-.369-.676-.264-.32-.141 0 0M-3.679-7.548C-2.684-7.583-1.884-7.601-1.279-7.601H3.679C3.359-8.164 2.968-8.728 2.506-9.29 2.044-9.853 1.599-10.311 1.173-10.662 1.634-10.873 2.293-11.05 3.146-11.19 3.999-11.33 4.816-11.401 5.598-11.401 5.385-11.612 5.189-11.964 5.012-12.457 3.981-12.316 3.074-12.148 2.293-11.956 1.51-11.762 .853-11.541 .32-11.296-.427-11.612-1.164-11.867-1.893-12.061-2.622-12.254-3.377-12.404-4.158-12.51-4.265-12.228-4.479-11.929-4.798-11.612-4.158-11.612-3.431-11.524-2.612-11.348-1.795-11.172-1.084-10.944-.48-10.662-1.084-10.17-1.689-9.414-2.292-8.393L-3.679-8.445ZM-2.186-2.798H-1.066C-1.102-3.08-1.119-3.519-1.119-4.117H1.76C1.76-3.555 1.741-3.097 1.706-2.745H2.826C2.79-3.167 2.773-3.625 2.773-4.117 3.554-4.117 4.23-4.1 4.799-4.064V-4.962C4.265-4.927 3.59-4.909 2.773-4.909 2.773-5.859 2.79-6.545 2.826-6.967H-2.186C-2.151-6.405-2.132-5.719-2.132-4.909-2.559-4.909-3.181-4.927-3.999-4.962V-4.064C-3.181-4.1-2.559-4.117-2.132-4.117-2.132-3.555-2.151-3.114-2.186-2.798M-1.279-8.393C-.818-9.097-.266-9.695 .373-10.187 .907-9.8 1.457-9.203 2.026-8.393H-1.226ZM1.76-4.909H-1.119V-6.123H1.76ZM1.76-6.123" fill="#2c292a"/>
</g>
<path transform="matrix(1,0,0,-1,286.0707,296.4174)" d="M0 0H-2.612V-2.586H-3.519V0H-6.131V.845H-3.519V3.431H-2.612V.845H0Z" fill="#2c292a"/>
</g>
</g>
</svg>
