<svg xmlns="http://www.w3.org/2000/svg" xmlns:xlink="http://www.w3.org/1999/xlink" xmlns:inkscape="http://www.inkscape.org/namespaces/inkscape" version="1.1" width="411.024" height="595.276" viewBox="0 0 411.024 595.276">
<defs>
<clipPath id="clip_1">
<path transform="matrix(1,0,0,-1,0,595.276)" d="M0 0H411.024V595.276H0Z"/>
</clipPath>
<clipPath id="clip_2">
<path transform="matrix(1,0,0,-1,0,595.276)" d="M0 0H411.024V595.276H0Z"/>
</clipPath>
<path id="font_3_4" d="M.46099855 0V.06399536H.15499878L.4039917 .38186646C.44299317 .43185426 .46099855 .46884156 .46099855 .5258179 .46099855 .6427765 .38198854 .71777346 .2649994 .71777346 .1459961 .71777346 .068984989 .6367645 .068984989 .5248108H.14099121C.14099121 .6167755 .19898987 .6537628 .2649994 .6537628 .34298707 .6537628 .3889923 .6027832 .3889923 .5258179 .3889923 .48683167 .37599183 .45584107 .34899903 .42085267L.067993167 .06399536V0H.46099855Z"/>
<path id="font_3_6" d="M.48199464 .11273193V.17773438H.394989V.37979127H.32398988V.17773438H.116989139L.37399293 .71191409H.29699708L.039993287 .17773438V.11273193H.32398988V0H.394989V.11273193H.48199464Z"/>
<path id="font_3_10" d="M.47099305 .19602967C.47099305 .27897645 .4249878 .33493043 .36499024 .368927 .42099 .40092469 .45700074 .45289613 .45700074 .52685549 .45700074 .6377716 .37399293 .71777346 .26098634 .71777346 .147995 .71777346 .06498718 .6377716 .06498718 .52685549 .06498718 .45289613 .101989749 .40092469 .1579895 .368927 .09799194 .33493043 .050994874 .27897645 .050994874 .19602967 .050994874 .0761261 .14299011-.005859375 .26098634-.005859375 .3789978-.005859375 .47099305 .0761261 .47099305 .19602967M.39898683 .19703675C.39898683 .11808777 .33898927 .058135988 .26098634 .058135988 .18299866 .058135988 .12298584 .11808777 .12298584 .19703675 .12298584 .27597047 .18299866 .3359375 .26098634 .3359375 .33898927 .3359375 .39898683 .27597047 .39898683 .19703675M.3849945 .5258484C.3849945 .45089723 .33399964 .39892579 .26098634 .39892579 .18798828 .39892579 .13699341 .45089723 .13699341 .5258484 .13699341 .59980776 .18798828 .6537628 .26098634 .6537628 .33399964 .6537628 .3849945 .59980776 .3849945 .5258484Z"/>
<clipPath id="clip_4">
<path transform="matrix(1,0,0,-1,0,595.276)" d="M0 0H411.024V595.276H0Z"/>
</clipPath>
<clipPath id="clip_5">
<path transform="matrix(1,0,0,-1,0,595.276)" d="M0 0H411.024V595.276H0Z"/>
</clipPath>
<clipPath id="clip_6">
<path transform="matrix(1,0,0,-1,0,595.276)" d="M0 0H411.024V595.276H0Z"/>
</clipPath>
<clipPath id="clip_7">
<path transform="matrix(1,0,0,-1,0,595.276)" d="M0 0H411.024V595.276H0Z"/>
</clipPath>
<clipPath id="clip_8">
<path transform="matrix(1,0,0,-1,0,595.276)" d="M0 0H411.024V595.276H0Z"/>
</clipPath>
<clipPath id="clip_9">
<path transform="matrix(1,0,0,-1,0,595.276)" d="M0 0H411.024V595.276H0Z"/>
</clipPath>
<clipPath id="clip_10">
<path transform="matrix(1,0,0,-1,0,595.276)" d="M0 0H411.024V595.276H0Z"/>
</clipPath>
<clipPath id="clip_11">
<path transform="matrix(1,0,0,-1,0,595.276)" d="M0 0H411.024V595.276H0Z"/>
</clipPath>
<clipPath id="clip_12">
<path transform="matrix(1,0,0,-1,0,595.276)" d="M0 0H411.024V595.276H0Z"/>
</clipPath>
</defs>
<g clip-path="url(#clip_1)">
<g clip-path="url(#clip_2)">
<use data-text="2" xlink:href="#font_3_4" transform="matrix(9,0,0,-9,35.4331,567.547)" fill="#f43040"/>
<use data-text="4" xlink:href="#font_3_6" transform="matrix(9,0,0,-9,39.0331,567.547)" fill="#f43040"/>
<use data-text="8" xlink:href="#font_3_10" transform="matrix(9,0,0,-9,42.6331,567.547)" fill="#f43040"/>
<path transform="matrix(1,0,0,-1,258.2441,370.464)" d="M0 0H-118.841L-98.141 51.901H-20.7ZM-116.91 1.309H-1.931L-21.587 50.592H-97.253Z" fill="#f43040"/>
<path transform="matrix(1,0,0,-1,233.938,311.6123)" d="M0 0H-71.14L-35.57 89.582ZM-69.212 1.309H-1.928L-35.57 86.035Z" fill="#f43040"/>
<path transform="matrix(1,0,0,-1,0,595.276)" d="M74.729 197.009H73.354999V231.164H74.729Z" fill="#2c292a"/>
<g clip-path="url(#clip_4)">
<path transform="matrix(1,0,0,-1,83.9401,335.4964)" d="M0 0C.392-.033 .915-.049 1.57-.049H6.818C7.603-.049 8.143-.033 8.437 0V-.834C8.143-.802 7.603-.785 6.818-.785H1.57C.948-.785 .425-.802 0-.834ZM6.083 8.245C5.755 7.884 5.526 7.509 5.396 7.116H9.859C9.794 6.854 9.728 6.363 9.663 5.644L9.467 3.926C9.434 3.435 9.246 3.157 8.903 3.092 8.56 3.026 8.126 2.961 7.603 2.896 7.537 3.288 7.407 3.648 7.211 3.975 7.766 3.942 8.126 3.934 8.29 3.951 8.453 3.967 8.551 4.04 8.584 4.172L8.78 6.38H2.992V2.061H11.184C11.118 1.669 11.069 1.145 11.037 .491L10.939-2.012C10.841-2.437 10.578-2.699 10.154-2.797 9.728-2.896 9.173-2.977 8.486-3.043 8.388-2.65 8.241-2.274 8.045-1.914 8.731-1.979 9.197-1.995 9.443-1.963 9.688-1.93 9.876-1.816 10.007-1.62L10.154 1.325H2.011C2.043 2.044 2.06 2.699 2.06 3.288V5.153C2.06 5.774 2.043 6.429 2.011 7.116H4.415C4.578 7.509 4.709 7.999 4.807 8.588 5.134 8.457 5.559 8.343 6.083 8.245M6.475 3.975C6.115 3.746 5.837 3.55 5.641 3.386 5.249 4.073 4.823 4.678 4.366 5.202 4.627 5.365 4.888 5.546 5.151 5.742 5.706 5.12 6.148 4.531 6.475 3.975" fill="#2c292a"/>
<path transform="matrix(1,0,0,-1,99.3425,328.184)" d="M0 0H2.502C2.502 .229 2.485 .523 2.453 .883H3.434C3.401 .523 3.385 .229 3.385 0H5.69C6.115 0 6.556 .016 7.015 .049V-.785C6.556-.753 6.115-.736 5.69-.736H3.385V-1.62H6.328C7.015-1.62 7.652-1.603 8.241-1.57V-2.356C7.652-2.323 7.015-2.307 6.328-2.307H-.785C-1.471-2.307-2.109-2.323-2.698-2.356V-1.57C-2.109-1.603-1.471-1.62-.785-1.62H2.502V-.736H-.49C-.621-.9-.818-1.129-1.079-1.423-1.275-1.227-1.504-1.064-1.766-.932-1.373-.54-1.079-.196-.883 .098-.687 .393-.523 .687-.392 .982-.033 .817 .261 .67 .491 .54 .294 .344 .13 .163 0 0M6.671-2.896C6.638-3.158 6.622-3.517 6.622-3.975 6.622-4.434 6.638-4.81 6.671-5.104H4.415V-5.595H6.573C6.998-5.595 7.488-5.579 8.045-5.546V-6.331C7.554-6.299 7.064-6.282 6.573-6.282H4.415V-7.067H6.377C6.801-7.067 7.211-7.051 7.603-7.018V-7.852C7.211-7.82 6.801-7.803 6.377-7.803H4.415V-8.539H7.211C7.505-8.539 7.865-8.523 8.29-8.49V-9.325C7.832-9.292 7.472-9.275 7.211-9.275H4.415C4.415-9.635 4.431-9.963 4.464-10.257H3.581V-5.104H2.207V-10.257H1.325C1.357-9.864 1.373-9.537 1.373-9.275H-1.079C-1.603-9.275-2.093-9.292-2.551-9.325V-8.49C-2.093-8.523-1.603-8.539-1.079-8.539H1.373V-7.803H-.441C-.9-7.803-1.39-7.82-1.913-7.852V-7.018C-1.422-7.051-.932-7.067-.441-7.067H1.373V-6.282H-.736C-1.259-6.282-1.766-6.299-2.256-6.331V-5.546C-1.799-5.579-1.259-5.595-.638-5.595H1.373V-5.104H-.883C-.851-4.81-.834-4.434-.834-3.975-.834-3.517-.851-3.158-.883-2.896ZM5.788-3.632H0V-4.368H5.788ZM5.788-4.368" fill="#2c292a"/>
<path transform="matrix(1,0,0,-1,110.8209,327.2025)" d="M0 0H1.03C.997-.327 .981-.932 .981-1.816 1.668-1.816 2.256-1.8 2.747-1.767V-2.65C2.256-2.618 1.668-2.601 .981-2.601V-4.319H2.6C2.502-5.235 2.338-6.078 2.109-6.846 1.88-7.615 1.602-8.278 1.275-8.834 1.733-9.259 2.322-9.57 3.041-9.766 3.76-9.963 4.692-10.085 5.837-10.134 6.982-10.183 8.306-10.126 9.81-9.963 9.548-10.322 9.369-10.699 9.271-11.091 7.897-11.124 6.736-11.124 5.788-11.091 4.839-11.058 3.907-10.936 2.992-10.723 2.076-10.51 1.324-10.126 .736-9.57 .212-10.191-.442-10.78-1.226-11.337-1.488-11.042-1.75-10.813-2.011-10.65-1.096-10.126-.392-9.538 .098-8.883-.164-8.523-.409-8.122-.638-7.68-.867-7.239-1.079-6.74-1.275-6.184-.949-6.085-.655-5.971-.392-5.84-.164-6.691 .179-7.427 .638-8.049 1.095-7.165 1.39-6.184 1.521-5.104H-.343C-.769-5.104-1.194-5.121-1.619-5.153V-4.27C-1.063-4.303-.507-4.319 .049-4.319V-2.601C-.736-2.601-1.39-2.618-1.913-2.65V-1.767C-1.357-1.8-.704-1.816 .049-1.816 .049-1.064 .032-.459 0 0M5.837-.491C5.804-1.113 5.788-1.669 5.788-2.159V-8.147C5.788-8.703 5.6-9.03 5.224-9.128 4.848-9.226 4.415-9.308 3.924-9.374 3.826-8.981 3.711-8.621 3.581-8.294 4.235-8.294 4.619-8.253 4.734-8.171 4.848-8.09 4.905-7.934 4.905-7.705V-5.889C4.741-6.053 4.504-6.282 4.194-6.576 3.883-6.871 3.499-7.214 3.041-7.607 2.845-7.312 2.616-7.035 2.354-6.773 3.695-5.889 4.545-5.219 4.905-4.76V-1.276H4.415C3.989-1.276 3.483-1.293 2.894-1.325V-.442C3.483-.475 3.989-.491 4.415-.491ZM4.415-4.368C4.087-4.466 3.809-4.581 3.581-4.711 3.417-4.09 3.204-3.452 2.943-2.797 3.237-2.732 3.515-2.634 3.777-2.503 4.005-3.06 4.218-3.681 4.415-4.368M9.271-.54C9.238-1.129 9.222-1.652 9.222-2.11V-8.196C9.222-8.654 9.042-8.949 8.682-9.079 8.322-9.21 7.913-9.308 7.456-9.374 7.358-8.981 7.211-8.605 7.014-8.245 7.537-8.245 7.889-8.22 8.069-8.171 8.248-8.122 8.339-8.016 8.339-7.852V-5.693L6.671-7.361C6.442-7.035 6.213-6.773 5.984-6.576 6.736-6.085 7.521-5.398 8.339-4.515V-1.325H7.75C7.39-1.325 6.965-1.342 6.475-1.374V-.491C6.965-.524 7.407-.54 7.799-.54ZM7.799-4.172C7.537-4.237 7.243-4.336 6.916-4.466 6.785-3.845 6.605-3.223 6.377-2.601 6.638-2.503 6.932-2.405 7.26-2.307 7.488-2.863 7.668-3.484 7.799-4.172" fill="#2c292a"/>
<path transform="matrix(1,0,0,-1,122.3972,335.6927)" d="M0 0C.163 .883 .228 1.783 .196 2.699V5.546C.196 6.592 .179 7.361 .147 7.852H3.286C3.254 7.394 3.237 6.838 3.237 6.184V-1.129C3.204-1.652 3.057-1.988 2.796-2.135 2.534-2.282 2.158-2.405 1.668-2.503 1.635-2.208 1.504-1.881 1.275-1.521 1.7-1.521 2.003-1.489 2.183-1.423 2.362-1.358 2.453-1.178 2.453-.883V1.325H.981C.981 .899 .915 .335 .785-.368 .654-1.072 .392-1.865 0-2.748-.196-2.552-.474-2.405-.834-2.307-.441-1.652-.164-.883 0 0M2.453 7.165H.9820001V4.957H2.453ZM2.453 4.27H.9820001V2.062H2.453ZM7.75 2.797H9.418C9.745 2.797 10.17 2.813 10.693 2.846V1.963C10.17 1.995 9.761 2.012 9.467 2.012H6.426L6.23 1.031H9.614C9.516 .147 9.418-.655 9.32-1.374 9.222-1.995 9.001-2.388 8.658-2.552 8.314-2.715 7.832-2.83 7.211-2.896 7.145-2.503 7.015-2.175 6.818-1.914 7.603-1.914 8.085-1.832 8.265-1.669 8.445-1.505 8.567-.867 8.633 .245H6.083C5.951-.245 5.731-.778 5.42-1.35 5.109-1.922 4.725-2.454 4.268-2.945 3.973-2.682 3.679-2.503 3.385-2.405 4.104-1.816 4.619-1.146 4.93-.393 5.24 .36 5.428 1.161 5.494 2.012H4.905C4.611 2.012 4.153 1.995 3.532 1.963V2.846C4.12 2.813 4.578 2.797 4.905 2.797H6.671C6.605 3.092 6.442 3.418 6.181 3.779 6.475 3.844 6.752 3.958 7.015 4.122 7.309 3.73 7.554 3.288 7.75 2.797M8.388 4.957H10.546C10.513 4.793 10.497 4.58 10.497 4.319 10.497 4.089 10.513 3.779 10.546 3.386H9.614V4.221H4.66V3.288H3.728C3.76 3.55 3.777 3.844 3.777 4.172 3.777 4.498 3.76 4.76 3.728 4.957H5.69C5.494 5.382 5.249 5.807 4.954 6.233 5.216 6.331 5.445 6.461 5.641 6.625H5.543C4.921 6.625 4.317 6.608 3.728 6.576V7.411C4.513 7.378 5.069 7.361 5.396 7.361H6.573C6.475 7.786 6.328 8.147 6.132 8.441 6.524 8.506 6.834 8.621 7.064 8.785 7.292 8.326 7.488 7.852 7.652 7.361H9.32C9.745 7.361 10.17 7.378 10.595 7.411V6.576C10.17 6.608 9.729 6.625 9.271 6.625H8.241C8.567 6.527 8.878 6.429 9.173 6.331 8.878 5.905 8.616 5.447 8.388 4.957M5.788 6.625C6.05 6.233 6.328 5.807 6.622 5.349 6.262 5.185 5.984 5.055 5.788 4.957H7.456C7.75 5.709 7.946 6.265 8.045 6.625Z" fill="#2c292a"/>
<path transform="matrix(1,0,0,-1,101.4473,345.7626)" d="M0 0C-1.079-.066-1.979-.131-2.698-.196-3.418-.262-3.957-.344-4.317-.442-4.415-.049-4.53 .294-4.66 .589-4.432 .687-4.08 1.038-3.605 1.644-3.132 2.249-2.747 2.896-2.453 3.583-2.289 3.451-2.109 3.353-1.913 3.288-1.717 3.222-1.505 3.141-1.275 3.043-1.538 2.846-1.807 2.552-2.085 2.159-2.363 1.767-2.813 1.21-3.434 .491-2.06 .556-1.047 .605-.392 .638-.785 1.161-1.063 1.504-1.226 1.669-.998 1.799-.736 1.979-.441 2.208-.18 1.848 .074 1.521 .319 1.227 .564 .932 .883 .556 1.275 .098 .915-.164 .621-.377 .392-.54 .294-.377 .163-.196 0 0M-.589-6.699C-.523-6.584-.491-6.413-.491-6.184V-5.497H-3.139V-7.803H-4.071C-4.039-7.148-4.022-6.56-4.022-6.036V-2.748C-4.022-2.159-4.039-1.636-4.071-1.178H.441C.408-1.669 .392-2.208 .392-2.797V-6.92C.359-7.279 .212-7.509-.049-7.607-.311-7.705-.687-7.786-1.177-7.852-1.243-7.558-1.373-7.23-1.57-6.871-.981-6.871-.655-6.813-.589-6.699M-.491-1.963H-3.1399999V-2.895H-.491ZM-.491-3.681H-3.1399999V-4.712H-.491ZM2.502 1.472C2.959 1.669 3.401 1.873 3.826 2.086 4.251 2.298 4.676 2.568 5.101 2.896 5.363 2.568 5.592 2.29 5.788 2.061 5.592 1.995 5.175 1.807 4.537 1.497 3.9 1.185 3.221 .916 2.502 .687V-.049C2.502-.442 2.73-.638 3.188-.638H4.611C4.937-.638 5.151-.213 5.249 .638 5.575 .474 5.902 .327 6.23 .196 6-.851 5.592-1.374 5.003-1.374H2.796C2.011-1.374 1.619-1.015 1.619-.294V2.208C1.619 2.601 1.602 3.026 1.57 3.484H2.551C2.518 3.255 2.502 2.78 2.502 2.061ZM4.684-3.877C4.047-4.172 3.319-4.45 2.502-4.711V-6.086C2.502-6.478 2.681-6.674 3.041-6.674H4.807C5.068-6.608 5.249-6.201 5.347-5.448 5.608-5.579 5.935-5.71 6.328-5.84 6.099-6.887 5.722-7.411 5.2-7.411H2.551C1.929-7.411 1.619-7.099 1.619-6.478V-3.288C1.619-2.797 1.602-2.356 1.57-1.963H2.551C2.518-2.356 2.502-2.781 2.502-3.239V-3.877C2.828-3.779 3.262-3.599 3.802-3.337 4.341-3.076 4.774-2.797 5.101-2.503 5.396-2.896 5.641-3.19 5.837-3.386 5.706-3.419 5.322-3.583 4.684-3.877" fill="#2c292a"/>
<path transform="matrix(1,0,0,-1,118.2723,343.65229)" d="M0 0C.326-.294 .687-.606 1.079-.932 .752-1.097 .376-1.407-.049-1.865-.474-2.323-.883-2.765-1.275-3.19-.655-3.616-.196-3.918 .098-4.098 .392-4.278 .801-4.548 1.324-4.908 1.03-5.17 .768-5.497 .54-5.889 .212-5.563-.196-5.211-.687-4.834-1.177-4.458-1.636-4.122-2.06-3.828-2.028-4.515-1.93-5.153-1.766-5.742-1.603-6.331-1.357-6.863-1.03-7.337-.704-7.812-.36-8.139 0-8.319 .359-8.499 .596-8.458 .711-8.196 .825-7.934 .915-7.526 .981-6.969 1.341-7.231 1.7-7.444 2.06-7.607 1.831-8.425 1.602-8.989 1.373-9.3 1.144-9.611 .768-9.717 .245-9.619-.278-9.521-.802-9.218-1.325-8.711-1.848-8.204-2.249-7.526-2.526-6.674-2.804-5.824-2.968-4.859-3.017-3.779-3.066-2.699-3.074-1.505-3.041-.196H-7.358C-7.783-.196-8.274-.213-8.829-.245V.736C-8.274 .703-7.799 .687-7.407 .687H-2.011C-2.077 .032-2.109-.573-2.109-1.129V-2.748C-1.357-2.029-.655-1.113 0 0" fill="#2c292a"/>
<path transform="matrix(1,0,0,-1,187.6601,340.4455)" d="M0 0C.449 0 1.001 .02 1.655 .061V-1.104C1.001-1.064 .307-1.043-.429-1.043V-4.417C.143-4.417 .756-4.397 1.41-4.356V-5.521C.756-5.481 .143-5.46-.429-5.46V-9.202C.265-9.039 .981-8.834 1.717-8.588 1.676-9.039 1.655-9.427 1.655-9.754 .307-10.082-.777-10.389-1.594-10.674-2.412-10.961-3.026-11.206-3.434-11.41-3.556-10.838-3.72-10.347-3.924-9.938-3.271-9.857-2.474-9.714-1.533-9.509V-5.46C-2.187-5.46-2.821-5.481-3.434-5.521V-4.356C-2.821-4.397-2.187-4.417-1.533-4.417V-1.043C-2.269-1.043-2.923-1.064-3.495-1.104V.061C-3.005 .02-2.535 0-2.085 0ZM6.53-4.049C6.469-5.03 6.336-6.073 6.132-7.177H7.358C7.317-7.587 7.297-8.139 7.297-8.834V-10.797C7.297-11.41 7.409-11.737 7.634-11.778 7.858-11.819 8.114-11.829 8.4-11.809 8.686-11.788 8.891-11.645 9.013-11.38 9.136-11.114 9.217-10.634 9.259-9.938 9.667-10.183 10.117-10.347 10.608-10.429 10.403-11.288 10.198-11.87 9.994-12.177 9.789-12.484 9.36-12.677 8.707-12.76H7.48C6.581-12.76 6.132-12.371 6.132-11.594V-7.3C5.764-8.609 5.232-9.703 4.537-10.582 3.842-11.461 2.799-12.269 1.41-13.005 1.205-12.677 .858-12.392 .368-12.146 1.676-11.615 2.637-11.033 3.25-10.398 3.863-9.765 4.353-8.956 4.721-7.975 5.089-6.993 5.304-5.972 5.365-4.908 5.426-3.845 5.436-2.782 5.396-1.718 5.926-1.8 6.417-1.861 6.867-1.902 6.703-2.352 6.591-3.067 6.53-4.049M9.504-1.35V-5.46C9.504-6.237 9.524-6.912 9.565-7.484H8.4V-.368H3.74V-7.546H2.575C2.615-6.851 2.637-6.073 2.637-5.214V-1.84C2.637-.941 2.615-.123 2.575 .613H9.565C9.524-.041 9.504-.696 9.504-1.35" fill="#2c292a"/>
<path transform="matrix(1,0,0,-1,206.7598,346.97883)" d="M0 0C.224-.266 .521-.624 .889-1.074 1.461-.788 1.952-.501 2.361-.215 2.769 .071 3.219 .5 3.71 1.074 4.036 .705 4.404 .399 4.813 .153 4.486-.011 3.872-.44 2.974-1.135 3.668-2.362 4.282-3.139 4.813-3.466 5.344-3.794 6.121-4.059 7.143-4.264 6.734-4.509 6.428-4.938 6.224-5.552 4.915-5.02 3.964-4.377 3.372-3.619 2.779-2.863 2.361-2.178 2.115-1.564 1.91-1.647 1.665-1.79 1.38-1.994 1.542-3.18 1.564-4.07 1.441-4.662 1.318-5.255 1.032-5.664 .583-5.889 .132-6.113-.542-6.288-1.441-6.411-1.564-5.96-1.727-5.531-1.931-5.122-.788-5.163-.102-5 .123-4.632 .347-4.264 .419-3.63 .337-2.73-.562-3.385-1.318-3.865-1.931-4.172-2.545-4.478-3.158-4.765-3.771-5.03-4.384-5.296-5.12-5.592-5.978-5.92-6.142-5.674-6.429-5.347-6.837-4.938-6.061-4.775-5.355-4.591-4.721-4.386-4.088-4.182-3.322-3.845-2.422-3.374-1.523-2.904-.746-2.342-.092-1.687-.297-1.401-.46-1.135-.583-.89-1.033-1.38-1.605-1.82-2.299-2.208-2.995-2.598-3.639-2.894-4.231-3.098-4.824-3.303-5.448-3.527-6.101-3.773-6.224-3.364-6.51-2.996-6.959-2.669-5.774-2.464-4.865-2.25-4.231-2.024-3.597-1.8-3.056-1.534-2.606-1.227-2.157-.92-1.686-.563-1.196-.153-1.318 .01-1.482 .153-1.686 .276-2.259-.011-2.842-.297-3.434-.583-4.027-.869-4.813-1.135-5.794-1.38-5.877-1.095-6.162-.747-6.653-.337-5.713-.174-4.896 .02-4.2 .245-3.506 .47-2.811 .828-2.115 1.319H-5.426C-5.386 1.932-5.365 2.791-5.365 3.895-5.61 3.65-5.877 3.425-6.162 3.221-6.407 3.548-6.775 3.834-7.266 4.079-6.367 4.529-5.488 5.132-4.629 5.889-3.771 6.645-3.138 7.412-2.729 8.19-2.443 7.944-1.953 7.76-1.257 7.638-1.666 7.351-2.014 7.024-2.299 6.656H3.464C2.606 5.633 2.054 4.938 1.809 4.57H5.304C5.263 4.161 5.243 3.609 5.243 2.914 5.243 2.218 5.263 1.687 5.304 1.319H-.521C-.685 1.196-.808 1.074-.889 .951-.521 .583-.225 .266 0 0M.399 4.57C.644 4.979 .95 5.388 1.318 5.797H-3.096C-3.71 5.224-4.2 4.816-4.568 4.57ZM-1.257 2.178C-1.053 2.463-.808 2.975-.521 3.711H-4.139V2.178ZM4.077 2.178V3.711H.644C.48 3.261 .255 2.75-.031 2.178Z" fill="#2c292a"/>
<path transform="matrix(1,0,0,-1,190.358,290.9778)" d="M0 0V1.227C0 1.881-.021 2.494-.061 3.067H1.288C1.246 2.617 1.226 2.024 1.226 1.288V0H4.66C5.355 0 6.172 .02 7.113 .061V-1.104C6.213-1.064 5.416-1.043 4.721-1.043H2.207C2.779-2.924 3.607-4.407 4.691-5.49 5.773-6.575 6.765-7.3 7.664-7.668 7.297-7.955 6.949-8.343 6.622-8.834 5.232-7.893 4.098-6.82 3.219-5.613 2.34-4.407 1.676-3.006 1.226-1.411V-7.177H2.023C2.677-7.177 3.351-7.157 4.047-7.116V-8.282C3.351-8.241 2.657-8.22 1.962-8.22H1.226C1.226-9.162 1.246-10.122 1.288-11.104H-.061C-.021-10.122 0-9.162 0-8.22H-.797C-1.451-8.22-2.106-8.241-2.759-8.282V-7.116C-2.106-7.157-1.451-7.177-.797-7.177H0V-1.534C-.654-3.211-1.38-4.622-2.177-5.767-2.974-6.912-4.047-8.057-5.396-9.202-5.723-8.752-6.112-8.425-6.561-8.22-5.212-7.403-4.088-6.38-3.188-5.153-2.29-3.926-1.574-2.556-1.042-1.043H-3.74C-4.395-1.043-5.089-1.064-5.825-1.104V.061C-5.089 .02-4.415 0-3.802 0Z" fill="#2c292a"/>
<path transform="matrix(1,0,0,-1,205.0737,291.5912)" d="M0 0H2.085V1.595C-.409 1.472-1.901 1.411-2.391 1.411V0C-2.433-1.882-2.474-3.282-2.514-4.202-2.555-5.122-2.667-6.043-2.851-6.963-3.035-7.883-3.455-8.936-4.108-10.122-4.476-9.877-4.946-9.693-5.518-9.57-4.865-8.711-4.415-7.822-4.169-6.901-3.924-5.981-3.771-4.785-3.71-3.313-3.648-1.84-3.618-.696-3.618 .123-3.618 .982-3.639 1.738-3.679 2.392-2.494 2.392-1.359 2.413-.276 2.454 .807 2.494 2.002 2.577 3.311 2.699 4.619 2.822 5.743 3.067 6.683 3.435 6.765 3.026 7.03 2.555 7.48 2.024 6.99 2.024 6.428 1.994 5.794 1.932 5.16 1.871 4.312 1.799 3.25 1.718V0H6.315C6.887 0 7.521 .02 8.216 .061V-1.104C7.603-1.064 6.969-1.043 6.315-1.043H3.25V-2.638H7.051C7.01-3.334 6.99-4.029 6.99-4.724 6.99-5.419 7.01-6.114 7.051-6.809H5.764V-3.619H.061V-7.177H-1.165C-1.125-6.401-1.104-5.624-1.104-4.846-1.104-4.07-1.125-3.334-1.165-2.638H2.085V-1.043H0C-.696-1.043-1.39-1.064-2.085-1.104V.061C-1.39 .02-.696 0 0 0M3.158-6.779C3.055-7.576 2.585-8.303 1.747-8.956 .909-9.61-.225-10.162-1.656-10.613-1.738-10.285-2.023-9.958-2.514-9.631-1.37-9.345-.46-9.018 .215-8.65 .889-8.282 1.369-7.843 1.655-7.331 1.941-6.82 2.105-6.278 2.146-5.705 2.186-5.133 2.186-4.703 2.146-4.417 2.637-4.458 3.106-4.519 3.556-4.601 3.392-5.256 3.259-5.981 3.158-6.779M6.346-8.098C7.143-8.548 7.849-8.998 8.462-9.447 8.216-9.651 7.95-9.978 7.664-10.429 6.765-9.693 5.396-8.875 3.556-7.975 3.802-7.567 4.006-7.219 4.169-6.932 4.823-7.26 5.549-7.648 6.346-8.098" fill="#2c292a"/>
<path transform="matrix(1,0,0,-1,268.2176,328.0045)" d="M0 0H1.422C1.422 .817 1.406 1.455 1.373 1.914H2.502C2.469 1.488 2.452 .85 2.452 0H3.188C3.842 0 4.431 .016 4.954 .049V-.834C4.496-.802 3.924-.785 3.237-.785H2.452V-2.208H3.679C4.169-2.208 4.692-2.192 5.249-2.159V-2.994H2.452V-4.319H5.101C5.068-4.711 5.044-5.251 5.028-5.938 5.011-6.625 4.995-7.092 4.979-7.337 4.962-7.582 4.823-7.763 4.562-7.877 4.3-7.992 3.924-8.098 3.434-8.196 3.368-7.836 3.253-7.46 3.09-7.067 3.515-7.067 3.777-7.042 3.875-6.993 3.973-6.944 4.022-6.691 4.022-6.233V-5.104H2.452V-7.803C2.452-8.359 2.469-8.834 2.502-9.226H1.373C1.406-8.605 1.422-8.131 1.422-7.803V-5.104H-.098V-8.196H-1.128C-1.096-7.771-1.079-7.329-1.079-6.871V-5.791C-1.079-5.17-1.096-4.679-1.128-4.319H1.422V-2.994H-.147C-.736-2.994-1.243-3.011-1.668-3.043V-2.159C-1.243-2.192-.736-2.208-.147-2.208H1.422V-.785H-.294C-.458-1.178-.622-1.505-.785-1.767-1.079-1.57-1.374-1.407-1.668-1.276-1.44-.949-1.243-.573-1.079-.147-.916 .278-.769 .752-.638 1.276-.311 1.145 .065 1.031 .49 .932 .294 .605 .13 .294 0 0M7.014-.883V-4.957C7.014-5.415 7.031-5.971 7.063-6.625H5.984C6.049-6.069 6.082-5.513 6.082-4.957V-.883C6.082-.557 6.049-.147 5.984 .344H7.063C7.031-.115 7.014-.524 7.014-.883M9.369 .393V-8.098C9.369-8.555 9.197-8.841 8.854-8.956 8.511-9.071 8.012-9.177 7.358-9.275 7.26-8.85 7.129-8.473 6.965-8.147 7.521-8.147 7.897-8.131 8.094-8.098 8.29-8.065 8.388-7.852 8.388-7.46V.393C8.388 .949 8.371 1.423 8.339 1.816H9.418C9.385 1.488 9.369 1.014 9.369 .393" fill="#2c292a"/>
<path transform="matrix(1,0,0,-1,281.1184,334.9243)" d="M0 0V3.877C-.622 3.877-1.21 3.86-1.766 3.828V4.711C-1.112 4.678-.196 4.662 .981 4.662 .948 4.04 .932 3.55 .932 3.19V.098C1.357-.36 1.929-.687 2.649-.883 3.368-1.08 4.333-1.195 5.543-1.227 6.752-1.259 8.143-1.227 9.712-1.129 9.45-1.455 9.303-1.832 9.271-2.258 6.132-2.192 4.268-2.11 3.679-2.012 3.09-1.914 2.6-1.791 2.207-1.644 1.815-1.497 1.414-1.284 1.005-1.006 .596-.728 .179-.778-.245-1.153-.671-1.529-1.014-1.897-1.275-2.258-1.505-1.963-1.766-1.685-2.06-1.423-1.079-.671-.392-.196 0 0M.196 6.086C-.262 6.773-.72 7.427-1.177 8.049-.916 8.245-.671 8.441-.441 8.637 .343 7.59 .834 6.92 1.03 6.625 .768 6.429 .49 6.249 .196 6.086M3.335 7.411H5.003C5.003 8.196 4.986 8.736 4.954 9.03H5.935C5.902 8.703 5.886 8.163 5.886 7.411 7.064 7.411 7.962 7.427 8.584 7.46V6.625C7.995 6.658 7.096 6.674 5.886 6.674V5.055C7.619 5.055 8.796 5.071 9.418 5.104V4.221C8.796 4.253 7.439 4.27 5.347 4.27 3.286 4.27 1.962 4.253 1.373 4.221V5.104C1.962 5.071 3.172 5.055 5.003 5.055V6.674H3.09C2.894 6.314 2.714 5.938 2.551 5.546 2.256 5.676 1.962 5.791 1.668 5.889 2.06 6.608 2.387 7.525 2.649 8.637 2.975 8.572 3.335 8.49 3.728 8.392 3.532 8.032 3.401 7.705 3.335 7.411M8.339 1.423C8.339 .801 8.355 .179 8.388-.442H7.358V.245H3.483V-.393H2.502C2.534 .229 2.551 .85 2.551 1.472 2.551 2.093 2.534 2.715 2.502 3.337H8.388C8.355 2.682 8.339 2.044 8.339 1.423M7.358 2.552H3.4829999V.982H7.358ZM7.358 .982" fill="#2c292a"/>
<path transform="matrix(1,0,0,-1,293.5777,326.0905)" d="M0 0H1.03C.997-.327 .981-.932 .981-1.816 1.668-1.816 2.256-1.8 2.747-1.767V-2.65C2.256-2.618 1.668-2.601 .981-2.601V-4.319H2.6C2.502-5.235 2.338-6.078 2.109-6.846 1.88-7.615 1.602-8.278 1.275-8.834 1.733-9.259 2.322-9.57 3.041-9.766 3.76-9.963 4.692-10.085 5.837-10.134 6.982-10.183 8.306-10.126 9.811-9.963 9.548-10.322 9.369-10.699 9.271-11.091 7.898-11.124 6.736-11.124 5.788-11.091 4.839-11.058 3.907-10.936 2.992-10.723 2.076-10.51 1.324-10.126 .736-9.57 .212-10.191-.441-10.78-1.226-11.337-1.488-11.042-1.75-10.813-2.011-10.65-1.096-10.126-.392-9.538 .098-8.883-.164-8.523-.409-8.122-.638-7.681-.867-7.239-1.079-6.74-1.275-6.184-.949-6.086-.654-5.971-.392-5.84-.164-6.691 .179-7.427 .638-8.049 1.095-7.165 1.389-6.184 1.521-5.104H-.343C-.769-5.104-1.194-5.121-1.619-5.153V-4.27C-1.063-4.303-.507-4.319 .049-4.319V-2.601C-.736-2.601-1.39-2.618-1.913-2.65V-1.767C-1.357-1.8-.704-1.816 .049-1.816 .049-1.064 .032-.459 0 0M5.837-.491C5.804-1.113 5.788-1.669 5.788-2.159V-8.147C5.788-8.703 5.6-9.03 5.224-9.128 4.848-9.226 4.415-9.308 3.924-9.374 3.826-8.981 3.711-8.621 3.581-8.294 4.235-8.294 4.619-8.253 4.734-8.171 4.848-8.09 4.905-7.934 4.905-7.705V-5.889C4.741-6.053 4.504-6.282 4.194-6.576 3.883-6.871 3.499-7.214 3.041-7.607 2.845-7.312 2.616-7.035 2.355-6.773 3.695-5.889 4.545-5.219 4.905-4.76V-1.276H4.415C3.989-1.276 3.483-1.293 2.894-1.325V-.442C3.483-.475 3.989-.491 4.415-.491ZM4.415-4.368C4.087-4.466 3.809-4.581 3.581-4.711 3.417-4.09 3.205-3.452 2.943-2.797 3.238-2.732 3.515-2.634 3.777-2.503 4.006-3.06 4.219-3.681 4.415-4.368M9.271-.54C9.238-1.129 9.222-1.652 9.222-2.11V-8.196C9.222-8.654 9.042-8.949 8.682-9.079 8.322-9.21 7.914-9.308 7.456-9.374 7.358-8.981 7.211-8.605 7.015-8.245 7.537-8.245 7.889-8.22 8.069-8.171 8.249-8.122 8.339-8.016 8.339-7.852V-5.693L6.671-7.362C6.442-7.035 6.213-6.773 5.984-6.576 6.736-6.086 7.521-5.398 8.339-4.515V-1.325H7.75C7.39-1.325 6.965-1.342 6.475-1.374V-.491C6.965-.524 7.407-.54 7.799-.54ZM7.799-4.172C7.537-4.237 7.243-4.336 6.916-4.466 6.785-3.845 6.605-3.223 6.377-2.601 6.638-2.503 6.932-2.405 7.26-2.307 7.488-2.863 7.668-3.484 7.799-4.172" fill="#2c292a"/>
<path transform="matrix(1,0,0,-1,305.1539,334.5808)" d="M0 0C.163 .883 .228 1.783 .196 2.699V5.546C.196 6.592 .179 7.362 .147 7.852H3.287C3.254 7.394 3.238 6.838 3.238 6.184V-1.129C3.205-1.652 3.057-1.988 2.796-2.135 2.534-2.282 2.158-2.405 1.668-2.503 1.635-2.208 1.504-1.881 1.275-1.521 1.7-1.521 2.003-1.489 2.183-1.423 2.362-1.358 2.453-1.178 2.453-.883V1.325H.981C.981 .899 .915 .335 .785-.368 .654-1.072 .392-1.865 0-2.748-.196-2.552-.474-2.405-.834-2.307-.441-1.652-.164-.883 0 0M2.453 7.165H.98100009V4.957H2.453ZM2.453 4.27H.98100009V2.062H2.453ZM7.75 2.797H9.418C9.745 2.797 10.17 2.813 10.694 2.846V1.963C10.17 1.995 9.761 2.012 9.467 2.012H6.426L6.23 1.031H9.614C9.516 .147 9.418-.655 9.32-1.374 9.222-1.995 9.001-2.388 8.658-2.552 8.314-2.715 7.832-2.83 7.211-2.896 7.145-2.503 7.014-2.175 6.818-1.914 7.603-1.914 8.085-1.832 8.265-1.669 8.445-1.505 8.567-.867 8.633 .245H6.083C5.951-.245 5.731-.778 5.42-1.35 5.109-1.922 4.725-2.454 4.268-2.945 3.973-2.682 3.679-2.503 3.385-2.405 4.104-1.816 4.619-1.146 4.93-.393 5.24 .36 5.428 1.161 5.494 2.012H4.905C4.611 2.012 4.153 1.995 3.532 1.963V2.846C4.121 2.813 4.578 2.797 4.905 2.797H6.671C6.605 3.092 6.442 3.418 6.181 3.779 6.475 3.844 6.752 3.958 7.014 4.122 7.309 3.73 7.554 3.288 7.75 2.797M8.388 4.957H10.546C10.513 4.793 10.497 4.58 10.497 4.319 10.497 4.089 10.513 3.779 10.546 3.386H9.614V4.221H4.66V3.288H3.728C3.76 3.55 3.777 3.844 3.777 4.172 3.777 4.498 3.76 4.76 3.728 4.957H5.69C5.494 5.382 5.249 5.807 4.954 6.233 5.216 6.331 5.445 6.461 5.641 6.625H5.543C4.921 6.625 4.317 6.608 3.728 6.576V7.411C4.513 7.378 5.068 7.362 5.396 7.362H6.573C6.475 7.786 6.328 8.147 6.132 8.441 6.524 8.506 6.834 8.621 7.064 8.785 7.292 8.326 7.488 7.852 7.652 7.362H9.32C9.745 7.362 10.17 7.378 10.595 7.411V6.576C10.17 6.608 9.728 6.625 9.271 6.625H8.241C8.567 6.527 8.879 6.429 9.173 6.331 8.879 5.905 8.616 5.448 8.388 4.957M5.788 6.625C6.05 6.233 6.328 5.807 6.622 5.349 6.262 5.185 5.984 5.055 5.788 4.957H7.456C7.75 5.709 7.947 6.265 8.045 6.625Z" fill="#2c292a"/>
</g>
<path transform="matrix(1,0,0,-1,0,595.276)" d="M320.466 253.196H261.995V236.117H320.466Z" fill="#ffffff"/>
<g clip-path="url(#clip_5)">
<path transform="matrix(1,0,0,-1,275.9188,346.1291)" d="M0 0C.326-.294 .687-.606 1.079-.932 .752-1.097 .376-1.407-.049-1.865-.474-2.323-.883-2.765-1.275-3.19-.655-3.616-.196-3.918 .098-4.098 .392-4.278 .801-4.548 1.324-4.908 1.03-5.17 .768-5.497 .539-5.889 .212-5.563-.196-5.211-.687-4.834-1.177-4.458-1.636-4.122-2.06-3.828-2.028-4.515-1.93-5.153-1.766-5.742-1.603-6.331-1.357-6.863-1.03-7.337-.704-7.812-.36-8.139 0-8.319 .359-8.499 .596-8.458 .711-8.196 .826-7.934 .915-7.526 .981-6.969 1.34-7.231 1.7-7.444 2.06-7.607 1.831-8.425 1.602-8.989 1.373-9.3 1.144-9.611 .768-9.717 .245-9.619-.278-9.521-.802-9.218-1.324-8.711-1.848-8.204-2.249-7.526-2.526-6.674-2.804-5.824-2.968-4.859-3.017-3.779-3.066-2.699-3.074-1.505-3.041-.196H-7.358C-7.783-.196-8.274-.213-8.83-.245V.736C-8.274 .703-7.799 .687-7.407 .687H-2.011C-2.077 .032-2.109-.573-2.109-1.129V-2.748C-1.357-2.029-.655-1.113 0 0" fill="#2c292a"/>
<path transform="matrix(1,0,0,-1,282.5163,348.7793)" d="M0 0C-.147-.262-.352-.589-.613-.982V-5.398C-.613-5.824-.597-6.478-.564-7.361H-1.594C-1.562-6.38-1.545-5.644-1.545-5.153V-2.012C-1.839-2.503-2.232-2.994-2.722-3.484-2.952-3.158-3.164-2.879-3.36-2.65-2.608-1.931-2.02-1.244-1.594-.589-1.17 .065-.793 .687-.466 1.276-.14 1.08 .237 .867 .662 .638 .368 .474 .147 .261 0 0M-.809 2.577C-1.235 1.906-1.823 1.161-2.575 .344-2.771 .605-2.984 .85-3.213 1.08-2.69 1.603-2.216 2.167-1.79 2.773-1.366 3.378-1.055 3.909-.858 4.368-.532 4.172-.172 3.926 .221 3.632-.041 3.599-.385 3.247-.809 2.577M6.548 .049C7.169 .049 7.742 .065 8.265 .098V-.883C7.742-.851 7.186-.834 6.598-.834H5.911V-6.184C5.943-6.576 5.82-6.846 5.543-6.993 5.265-7.141 4.717-7.263 3.9-7.361 3.834-6.969 3.654-6.576 3.36-6.184 3.916-6.249 4.308-6.273 4.537-6.257 4.766-6.24 4.897-6.069 4.93-5.742V-.834H2.968C2.346-.834 1.758-.851 1.202-.883V.098C1.791 .065 2.379 .049 2.968 .049ZM5.715 3.386C6.27 3.386 6.843 3.402 7.431 3.435V2.503C6.843 2.535 6.237 2.552 5.617 2.552H3.802C3.082 2.552 2.46 2.535 1.938 2.503V3.435C2.46 3.402 3.082 3.386 3.802 3.386Z" fill="#2c292a"/>
<path transform="matrix(1,0,0,-1,294.5098,347.45423)" d="M0 0H2.502C2.502 1.178 2.485 2.061 2.452 2.65 2.779 2.617 3.155 2.584 3.581 2.552 3.515 2.093 3.474 1.685 3.458 1.325 3.441 .965 3.434 .523 3.434 0H5.739C6.262 0 6.801 .016 7.358 .049V-.883C6.834-.851 6.295-.834 5.739-.834H3.434C3.434-1.554 3.401-2.29 3.335-3.043H6.622C7.112-3.043 7.652-3.027 8.241-2.994V-3.926C7.652-3.894 7.112-3.877 6.622-3.877H3.728C4.12-4.76 4.79-5.48 5.739-6.036 6.687-6.593 7.619-6.969 8.535-7.165 8.273-7.492 8.045-7.868 7.848-8.294 6.899-7.934 5.967-7.435 5.052-6.797 4.136-6.159 3.45-5.382 2.992-4.466 2.6-5.317 2.027-6.086 1.275-6.773 .523-7.46-.491-8.081-1.766-8.637-1.93-8.31-2.175-7.999-2.502-7.705-1.39-7.411-.401-6.912 .466-6.208 1.332-5.505 1.896-4.728 2.158-3.877H-.687C-1.21-3.877-1.783-3.894-2.404-3.926V-2.994C-1.783-3.027-1.21-3.043-.687-3.043H2.355C2.452-2.356 2.502-1.62 2.502-.834H-.344C-.736-1.521-1.079-2.094-1.374-2.552-1.636-2.389-1.946-2.241-2.306-2.11-1.717-1.391-1.268-.687-.957 0-.646 .687-.441 1.292-.344 1.816 .049 1.62 .409 1.472 .736 1.374 .572 1.21 .326 .752 0 0" fill="#2c292a"/>
<path transform="matrix(1,0,0,-1,307.852,349.0738)" d="M0 0C0-.524-.033-1.26-.098-2.208-.164-3.092-.401-3.894-.809-4.613-1.219-5.333-1.913-6.036-2.894-6.723-3.058-6.494-3.303-6.265-3.63-6.036-2.42-5.349-1.636-4.597-1.275-3.779-1.014-3.027-.875-2.159-.858-1.178-.842-.196-.851 .736-.883 1.62-.589 1.554-.262 1.505 .098 1.472 .032 1.014 0 .523 0 0M1.962 0C1.962-1.603 1.978-2.732 2.011-3.386H1.128V2.601H-1.913V-3.435H-2.845C-2.813-2.781-2.796-1.685-2.796-.147-2.796 1.423-2.813 2.584-2.845 3.337H2.011C1.978 2.715 1.962 1.603 1.962 0M2.158-5.398C1.896-5.661 1.668-5.905 1.472-6.135 .817-5.284 .261-4.646-.196-4.221 0-4.057 .196-3.845 .392-3.583 .785-4.008 1.373-4.613 2.158-5.398M2.06-.687C2.452-.196 2.812 .482 3.139 1.35 3.466 2.216 3.728 3.239 3.924 4.417 4.382 4.221 4.741 4.106 5.003 4.073 4.872 3.844 4.758 3.566 4.66 3.239 4.562 2.912 4.415 2.47 4.218 1.914H6.426C7.047 1.914 7.537 1.93 7.897 1.963V1.129C7.603 1.161 7.227 1.178 6.769 1.178 6.703 .196 6.581-.761 6.401-1.693 6.221-2.626 5.902-3.534 5.445-4.417 5.673-4.711 6-5.023 6.426-5.349 6.85-5.677 7.374-5.97 7.995-6.233 7.766-6.396 7.537-6.658 7.309-7.018 6.752-6.723 6.254-6.388 5.813-6.012 5.371-5.636 5.052-5.317 4.856-5.055 4.562-5.382 4.186-5.717 3.728-6.061 3.27-6.405 2.779-6.74 2.256-7.067 2.092-6.773 1.864-6.527 1.57-6.331 2.125-6.069 2.624-5.799 3.066-5.521 3.507-5.244 3.956-4.842 4.415-4.319 3.989-3.501 3.695-2.765 3.532-2.11 3.368-1.456 3.27-.916 3.237-.491 3.073-.818 2.926-1.064 2.796-1.227 2.567-.965 2.322-.785 2.06-.687M4.268-1.816C4.464-2.503 4.692-3.076 4.954-3.534 5.216-3.011 5.42-2.389 5.567-1.669 5.715-.949 5.82 0 5.886 1.178H3.973L3.777 .638C3.907-.311 4.071-1.129 4.268-1.816" fill="#2c292a"/>
</g>
<path transform="matrix(1,0,0,-1,0,595.276)" d="M129.946 323.278H86.976V306.00303H129.946Z" fill="#ffffff"/>
<g clip-path="url(#clip_6)">
<path transform="matrix(1,0,0,-1,92.7554,275.9245)" d="M0 0H5.396C5.984 0 6.54 .016 7.064 .049V-.833C6.54-.801 5.984-.784 5.396-.784H-.392C-.556-1.111-.809-1.528-1.153-2.034-1.496-2.541-1.832-2.973-2.158-3.332-2.42-3.071-2.747-2.891-3.139-2.793-2.715-2.434-2.224-1.822-1.668-.956-1.112-.09-.72 .702-.49 1.421-.131 1.257 .245 1.11 .638 .98 .441 .686 .228 .359 0 0M6.818-10.071C6.36-10.152 5.967-9.932 5.641-9.409 5.314-8.887 5.085-8.291 4.954-7.621 4.823-6.951 4.79-5.979 4.856-4.705H-.54C-1.063-4.705-1.619-4.721-2.207-4.754V-3.872C-1.619-3.904-1.063-3.921-.54-3.921H5.886C5.82-4.934 5.796-5.718 5.813-6.273 5.829-6.829 5.911-7.327 6.058-7.768 6.205-8.209 6.368-8.544 6.548-8.772 6.728-9 6.965-8.478 7.26-7.204 7.619-7.629 7.93-7.874 8.192-7.939 7.733-9.278 7.276-9.989 6.818-10.071M4.562-1.911C5.085-1.911 5.608-1.895 6.132-1.862V-2.744C5.608-2.712 5.085-2.695 4.562-2.695H.932C.409-2.695-.115-2.712-.638-2.744V-1.911C-.115-1.944 .409-1.944 .932-1.911Z" fill="#2c292a"/>
<path transform="matrix(1,0,0,-1,112.7198,275.09233)" d="M0 0V-.982C-.327-.949-.883-.932-1.668-.932H-8.437V-5.3C-8.437-6.413-8.56-7.427-8.805-8.343-9.05-9.259-9.402-10.159-9.86-11.042-10.122-10.78-10.465-10.568-10.89-10.404-10.334-9.587-9.958-8.809-9.761-8.073-9.565-7.337-9.451-6.511-9.418-5.595V-1.914C-9.451-1.227-9.484-.606-9.516-.049H-1.668C-.949-.049-.392-.033 0 0M-4.807-4.417V-2.945C-4.807-2.422-4.824-1.98-4.856-1.62H-3.728C-3.794-1.882-3.826-2.34-3.826-2.994V-4.417H-2.06C-1.373-4.417-.867-4.401-.54-4.368V-5.448C-.867-5.415-1.373-5.398-2.06-5.398H-3.826V-9.423H-1.668C-.851-9.423-.229-9.407 .196-9.374V-10.404C-.229-10.371-.834-10.355-1.619-10.355H-6.622C-7.473-10.355-8.078-10.371-8.437-10.404V-9.374C-7.946-9.407-7.342-9.423-6.622-9.423H-4.807V-5.398H-5.935C-6.786-5.398-7.358-5.415-7.652-5.448V-4.368C-7.129-4.401-6.557-4.417-5.935-4.417ZM-.932-7.95C-1.292-8.147-1.619-8.343-1.913-8.539-2.24-7.852-2.6-7.231-2.992-6.674-2.698-6.511-2.437-6.331-2.207-6.135-1.685-6.822-1.259-7.427-.932-7.95" fill="#2c292a"/>
<path transform="matrix(1,0,0,-1,122.334,276.4664)" d="M0 0H1.177C1.962 0 2.6 .016 3.09 .049V-.834C2.567-.802 1.929-.785 1.177-.785H-1.913C-1.979-1.146-2.06-1.538-2.158-1.963H.54C1.259-1.963 1.913-1.947 2.502-1.914V-2.797C1.913-2.765 1.242-2.748 .491-2.748H-2.354C-2.453-3.043-2.584-3.403-2.747-3.828H1.717C2.436-3.828 3.024-3.812 3.483-3.779V-4.662C3.057-4.63 2.485-4.613 1.766-4.613H-3.139C-3.434-5.104-3.696-5.513-3.924-5.84-3.401-5.873-2.845-5.889-2.256-5.889H.54C1.128-5.889 1.668-5.873 2.158-5.84V-6.724C1.668-6.691 1.16-6.674 .638-6.674H-.638V-8.49H1.472C1.733-8.49 2.322-8.473 3.238-8.441V-9.374C2.42-9.341 1.847-9.325 1.521-9.325H-4.218C-4.742-9.325-5.2-9.341-5.592-9.374V-8.441C-5.101-8.473-4.628-8.49-4.169-8.49H-1.619V-6.674H-2.256C-2.878-6.674-3.483-6.691-4.071-6.724V-6.036C-4.399-6.462-4.849-6.937-5.42-7.46-5.993-7.983-6.557-8.457-7.113-8.883-7.375-8.588-7.652-8.327-7.946-8.098-7.228-7.673-6.532-7.165-5.862-6.576-5.192-5.987-4.644-5.333-4.218-4.613H-5.739C-6.492-4.613-7.113-4.63-7.603-4.662V-3.779C-7.113-3.812-6.475-3.828-5.69-3.828H-3.777C-3.614-3.501-3.467-3.141-3.336-2.748H-4.954C-5.413-2.748-5.886-2.765-6.377-2.797V-1.914C-5.723-1.947-5.265-1.963-5.003-1.963H-3.139C-3.041-1.57-2.96-1.178-2.894-.785H-5.396C-5.919-.785-6.475-.802-7.064-.834V.049C-6.573 .016-6.066 0-5.543 0H-3.875C-4.137 .523-4.415 .965-4.709 1.325-4.481 1.455-4.218 1.636-3.924 1.865-3.663 1.537-3.352 1.096-2.992 .54-3.254 .409-3.516 .229-3.777 0H-.981C-.654 .556-.392 1.194-.196 1.914 .13 1.718 .507 1.537 .932 1.374 .638 1.047 .326 .589 0 0" fill="#2c292a"/>
<path transform="matrix(1,0,0,-1,268.2176,276.7118)" d="M0 0H1.422C1.422 .817 1.406 1.455 1.373 1.914H2.502C2.469 1.488 2.452 .85 2.452 0H3.188C3.842 0 4.431 .016 4.954 .049V-.834C4.496-.802 3.924-.785 3.237-.785H2.452V-2.208H3.679C4.169-2.208 4.692-2.192 5.249-2.159V-2.994H2.452V-4.319H5.101C5.068-4.711 5.044-5.251 5.028-5.938 5.011-6.625 4.995-7.092 4.979-7.337 4.962-7.582 4.823-7.763 4.562-7.877 4.3-7.992 3.924-8.098 3.434-8.196 3.368-7.836 3.253-7.46 3.09-7.067 3.515-7.067 3.777-7.042 3.875-6.993 3.973-6.944 4.022-6.691 4.022-6.233V-5.104H2.452V-7.803C2.452-8.359 2.469-8.834 2.502-9.226H1.373C1.406-8.604 1.422-8.131 1.422-7.803V-5.104H-.098V-8.196H-1.128C-1.096-7.771-1.079-7.329-1.079-6.871V-5.791C-1.079-5.17-1.096-4.679-1.128-4.319H1.422V-2.994H-.147C-.736-2.994-1.243-3.011-1.668-3.043V-2.159C-1.243-2.192-.736-2.208-.147-2.208H1.422V-.785H-.294C-.458-1.178-.622-1.505-.785-1.767-1.079-1.57-1.374-1.407-1.668-1.276-1.44-.949-1.243-.573-1.079-.147-.916 .278-.769 .752-.638 1.276-.311 1.145 .065 1.031 .49 .932 .294 .605 .13 .294 0 0M7.014-.883V-4.957C7.014-5.415 7.031-5.971 7.063-6.625H5.984C6.049-6.069 6.082-5.513 6.082-4.957V-.883C6.082-.557 6.049-.147 5.984 .344H7.063C7.031-.115 7.014-.524 7.014-.883M9.369 .393V-8.098C9.369-8.555 9.197-8.841 8.854-8.956 8.511-9.071 8.012-9.177 7.358-9.275 7.26-8.85 7.129-8.473 6.965-8.147 7.521-8.147 7.897-8.131 8.094-8.098 8.29-8.065 8.388-7.852 8.388-7.46V.393C8.388 .949 8.371 1.423 8.339 1.816H9.418C9.385 1.488 9.369 1.014 9.369 .393" fill="#2c292a"/>
<path transform="matrix(1,0,0,-1,281.1184,283.6316)" d="M0 0V3.877C-.622 3.877-1.21 3.86-1.766 3.828V4.711C-1.112 4.678-.196 4.662 .981 4.662 .948 4.04 .932 3.55 .932 3.19V.098C1.357-.36 1.929-.687 2.649-.883 3.368-1.08 4.333-1.195 5.543-1.227 6.752-1.259 8.143-1.227 9.712-1.129 9.45-1.455 9.303-1.832 9.271-2.258 6.132-2.192 4.268-2.11 3.679-2.012 3.09-1.914 2.6-1.791 2.207-1.644 1.815-1.497 1.414-1.284 1.005-1.006 .596-.728 .179-.778-.245-1.153-.671-1.529-1.014-1.897-1.275-2.258-1.505-1.963-1.766-1.685-2.06-1.423-1.079-.671-.392-.196 0 0M.196 6.086C-.262 6.773-.72 7.427-1.177 8.049-.916 8.245-.671 8.441-.441 8.637 .343 7.59 .834 6.92 1.03 6.625 .768 6.429 .49 6.249 .196 6.086M3.335 7.411H5.003C5.003 8.196 4.986 8.736 4.954 9.03H5.935C5.902 8.703 5.886 8.163 5.886 7.411 7.064 7.411 7.962 7.427 8.584 7.46V6.625C7.995 6.658 7.096 6.674 5.886 6.674V5.055C7.619 5.055 8.796 5.071 9.418 5.104V4.221C8.796 4.253 7.439 4.27 5.347 4.27 3.286 4.27 1.962 4.253 1.373 4.221V5.104C1.962 5.071 3.172 5.055 5.003 5.055V6.674H3.09C2.894 6.314 2.714 5.938 2.551 5.546 2.256 5.676 1.962 5.791 1.668 5.889 2.06 6.608 2.387 7.525 2.649 8.637 2.975 8.572 3.335 8.49 3.728 8.392 3.532 8.032 3.401 7.705 3.335 7.411M8.339 1.423C8.339 .801 8.355 .179 8.388-.442H7.358V.245H3.483V-.393H2.502C2.534 .229 2.551 .85 2.551 1.472 2.551 2.093 2.534 2.715 2.502 3.337H8.388C8.355 2.682 8.339 2.044 8.339 1.423M7.358 2.552H3.4829999V.982H7.358ZM7.358 .982" fill="#2c292a"/>
<path transform="matrix(1,0,0,-1,301.0338,276.1719)" d="M0 0C.326-.294 .687-.606 1.079-.932 .752-1.097 .376-1.407-.049-1.865-.474-2.323-.883-2.765-1.275-3.19-.655-3.616-.196-3.918 .098-4.098 .392-4.278 .801-4.548 1.324-4.908 1.03-5.17 .768-5.497 .539-5.889 .212-5.563-.196-5.211-.687-4.834-1.177-4.458-1.636-4.122-2.06-3.828-2.028-4.515-1.93-5.153-1.766-5.742-1.603-6.331-1.357-6.863-1.03-7.337-.704-7.812-.36-8.139 0-8.318 .359-8.499 .596-8.458 .711-8.196 .825-7.934 .915-7.526 .981-6.969 1.34-7.231 1.7-7.444 2.06-7.607 1.831-8.425 1.602-8.989 1.373-9.3 1.144-9.611 .768-9.717 .245-9.619-.278-9.521-.802-9.218-1.324-8.711-1.848-8.204-2.249-7.526-2.526-6.674-2.804-5.824-2.968-4.859-3.017-3.779-3.066-2.699-3.074-1.505-3.041-.196H-7.358C-7.783-.196-8.274-.213-8.83-.245V.736C-8.274 .703-7.799 .687-7.407 .687H-2.011C-2.077 .032-2.109-.573-2.109-1.129V-2.748C-1.357-2.029-.655-1.113 0 0" fill="#2c292a"/>
<path transform="matrix(1,0,0,-1,309.1762,281.1778)" d="M0 0C-.229-.196-.507-.409-.834-.638-1.03-.213-1.373 .36-1.864 1.08V-2.503C-1.864-3.158-1.848-3.893-1.815-4.711H-2.894C-2.862-3.893-2.845-3.158-2.845-2.503V.638C-3.009 .147-3.188-.319-3.385-.761-3.581-1.202-3.859-1.702-4.218-2.258-4.513-1.931-4.775-1.669-5.003-1.472-4.742-1.178-4.399-.606-3.973 .245-3.549 1.096-3.221 2.044-2.992 3.092H-3.286C-3.745 3.092-4.202 3.059-4.66 2.994V3.926C-4.202 3.893-3.761 3.877-3.335 3.877H-2.845V4.859C-2.845 5.382-2.862 5.872-2.894 6.331H-1.766C-1.832 6.003-1.864 5.513-1.864 4.859V3.877H-1.324C-.965 3.877-.556 3.893-.098 3.926V3.043C-.818 3.075-1.406 3.092-1.864 3.092V1.129C-1.668 1.292-1.439 1.472-1.177 1.669-.654 .949-.262 .393 0 0M4.562 3.337V-3.043C4.562-3.468 4.66-3.697 4.856-3.73 5.052-3.762 5.216-3.77 5.347-3.754 5.477-3.737 5.568-3.624 5.617-3.411 5.666-3.198 5.69-2.879 5.69-2.454 5.984-2.618 6.328-2.748 6.72-2.846 6.589-3.534 6.458-3.991 6.328-4.221 6.197-4.449 5.984-4.564 5.69-4.564H4.66C4.268-4.564 3.981-4.474 3.802-4.294 3.622-4.114 3.548-3.746 3.581-3.19V4.859H1.717C1.717 2.994 1.692 1.546 1.643 .515 1.594-.515 1.447-1.448 1.202-2.282 .957-3.116 .474-3.958-.245-4.81-.409-4.613-.704-4.351-1.128-4.024-.671-3.665-.303-3.223-.025-2.699 .253-2.176 .441-1.636 .54-1.08 .638-.524 .703 .065 .736 .687 .768 1.308 .785 2.093 .785 3.043 .785 4.024 .768 4.908 .736 5.693H4.611C4.578 4.777 4.562 3.991 4.562 3.337" fill="#2c292a"/>
</g>
<path transform="matrix(1,0,0,-1,0,595.276)" d="M149.174 306.395H67.94299V289.12H149.174Z" fill="#ffffff"/>
<g clip-path="url(#clip_7)">
<path transform="matrix(1,0,0,-1,76.0681,293.3135)" d="M0 0V-2.061H2.796C3.45-2.061 4.071-2.045 4.66-2.012V-3.092C4.005-3.06 3.352-3.043 2.698-3.043H0V-8H3.875C4.366-8 4.937-7.983 5.592-7.95V-8.981C4.97-8.948 4.398-8.932 3.875-8.932H-3.875C-4.399-8.932-4.987-8.948-5.641-8.981V-7.95C-5.02-7.983-4.432-8-3.875-8H-1.03V-.049C-1.03 .442-1.047 .982-1.079 1.57H.049C.016 1.014 0 .491 0 0" fill="#2c292a"/>
<path transform="matrix(1,0,0,-1,87.4974,293.2644)" d="M0 0C0-.851-.017-1.816-.049-2.896H2.845V-.049C2.845 .605 2.828 1.145 2.796 1.57H3.924C3.891 1.145 3.875 .605 3.875-.049V-2.896C5.249-2.896 6.262-2.879 6.916-2.846V-3.828C6.328-3.796 5.314-3.779 3.875-3.779V-7.558C3.875-8.082 3.891-8.703 3.924-9.423H2.796C2.828-8.736 2.845-8.115 2.845-7.558V-3.779H-.049C-.147-4.925-.523-5.947-1.177-6.846-1.832-7.746-2.715-8.572-3.826-9.325-3.99-9.03-4.301-8.768-4.758-8.539-4.006-8.213-3.23-7.599-2.428-6.699-1.627-5.799-1.194-4.826-1.128-3.779H-3.483C-3.875-3.779-4.301-3.796-4.758-3.828V-2.846C-4.301-2.879-3.875-2.896-3.483-2.896H-1.079C-1.047-2.241-1.03-1.374-1.03-.294-2.175-.589-2.943-.802-3.336-.932-3.467-.573-3.696-.262-4.022 0-3.434 .065-2.641 .245-1.643 .54-.646 .834 .212 1.194 .932 1.62L1.864 .589C1.439 .523 .817 .327 0 0" fill="#2c292a"/>
<path transform="matrix(1,0,0,-1,101.2811,295.2765)" d="M0 0C-.098-1.146-.245-2.061-.441-2.748-.638-3.435-.907-4.066-1.251-4.638-1.594-5.211-2.044-5.75-2.6-6.257-3.156-6.764-3.826-7.263-4.611-7.754-4.775-7.492-5.101-7.214-5.592-6.92-4.807-6.527-4.153-6.118-3.63-5.693-3.107-5.268-2.657-4.785-2.281-4.245-1.905-3.705-1.627-3.092-1.447-2.405-1.268-1.718-1.145-.916-1.079 0H-2.502C-3.451 0-4.317-.017-5.101-.049V.932C-4.317 .899-3.451 .883-2.502 .883H-1.03V2.356C-1.03 2.813-1.047 3.288-1.079 3.779-.72 3.713-.311 3.664 .147 3.632 .081 3.337 .041 2.912 .025 2.356 .008 1.799 0 1.308 0 .883H5.003C4.872-.883 4.79-2.103 4.758-2.773 4.725-3.444 4.66-4.262 4.562-5.227 4.464-6.192 4.194-6.789 3.753-7.018 3.311-7.246 2.551-7.411 1.472-7.509 1.439-7.116 1.275-6.691 .981-6.233 1.929-6.266 2.567-6.217 2.894-6.086 3.221-5.955 3.409-5.71 3.458-5.349 3.507-4.99 3.556-4.523 3.605-3.951 3.654-3.379 3.728-2.061 3.826 0Z" fill="#2c292a"/>
<path transform="matrix(1,0,0,-1,110.8463,293.9515)" d="M0 0H2.207C2.174-.557 2.158-1.26 2.158-2.11V-6.429C2.158-6.92 2.174-7.624 2.207-8.539H1.226V-7.558H-1.275V-8.637H-2.256C-2.224-7.591-2.207-6.937-2.207-6.674V-2.159C-2.207-1.276-2.224-.557-2.256 0H-.834C-.671 .752-.54 1.537-.441 2.356 .016 2.192 .392 2.077 .687 2.012 .523 1.718 .294 1.047 0 0M1.226-.834H-1.2760002V-3.288H1.226ZM1.226-4.122H-1.2760002V-6.7230007H1.226ZM7.75-7.411C7.684-8 7.374-8.392 6.818-8.588 6.262-8.785 5.641-8.915 4.954-8.981 4.921-8.621 4.774-8.245 4.513-7.852 5.167-7.884 5.682-7.868 6.058-7.803 6.434-7.738 6.671-7.591 6.769-7.362 6.867-7.133 6.941-6.462 6.99-5.349 7.039-4.237 7.08-2.683 7.113-.687H4.268C4.005-1.309 3.63-2.045 3.139-2.896 2.91-2.667 2.632-2.487 2.306-2.356 2.6-1.963 2.877-1.489 3.139-.932 3.401-.377 3.63 .229 3.826 .883 4.022 1.537 4.137 2.044 4.169 2.405 4.627 2.208 5.02 2.061 5.347 1.963 5.183 1.701 5.044 1.415 4.93 1.104 4.815 .793 4.692 .491 4.562 .196H8.045C8.012-.491 7.996-1.129 7.996-1.718 7.963-3.714 7.881-5.612 7.75-7.411M5.101-3.73C5.298-4.122 5.526-4.63 5.788-5.251 5.559-5.349 5.249-5.513 4.856-5.742 4.627-5.121 4.415-4.589 4.219-4.147 4.022-3.705 3.826-3.337 3.63-3.043 3.858-2.912 4.153-2.748 4.513-2.552Z" fill="#2c292a"/>
<path transform="matrix(1,0,0,-1,126.7393,291.6449)" d="M0 0C-.033-.327-.049-.671-.049-1.031V-1.62H2.894C3.286-1.62 3.711-1.603 4.169-1.57V-2.552C3.711-2.487 3.286-2.454 2.894-2.454H-.049V-5.3H3.336C3.826-5.3 4.366-5.284 4.954-5.251V-6.184C4.398-6.151 3.858-6.135 3.336-6.135H.785C1.013-6.462 1.292-6.773 1.619-7.067 1.945-7.361 2.297-7.648 2.673-7.926 3.049-8.204 3.466-8.441 3.924-8.637 4.382-8.834 4.823-8.981 5.249-9.079 4.921-9.374 4.709-9.603 4.611-9.766 4.513-9.93 4.447-10.077 4.415-10.208 3.728-9.913 3.164-9.611 2.722-9.3 2.281-8.989 1.872-8.654 1.496-8.294 1.12-7.934 .801-7.591 .54-7.263 .277-6.937 .081-6.625-.049-6.331V-9.128C-.049-9.652-.033-10.273 0-10.993H-1.128C-1.063-10.273-1.03-9.652-1.03-9.128V-6.233C-1.717-7.312-2.437-8.188-3.188-8.858-3.941-9.529-4.628-10.045-5.249-10.404-5.445-10.11-5.739-9.815-6.132-9.521-4.954-8.998-4.006-8.368-3.286-7.631-2.568-6.895-2.142-6.397-2.011-6.135H-4.562C-4.954-6.135-5.413-6.168-5.935-6.233V-5.251C-5.413-5.284-4.954-5.3-4.562-5.3H-1.03V-2.454H-3.826C-4.383-2.454-4.856-2.487-5.249-2.552V-1.57C-4.856-1.603-4.399-1.62-3.875-1.62H-1.03V-.982C-1.096-.622-1.128-.294-1.128 0ZM-2.06-4.662C-2.355-4.793-2.633-4.941-2.894-5.104-3.188-4.515-3.565-3.926-4.022-3.337-3.794-3.174-3.565-2.994-3.336-2.797-2.813-3.386-2.388-4.008-2.06-4.662M1.766-5.153C1.472-5.023 1.193-4.908 .932-4.81 1.455-3.861 1.847-3.174 2.109-2.748 2.404-2.846 2.681-2.994 2.943-3.19 2.616-3.747 2.223-4.401 1.766-5.153" fill="#2c292a"/>
<path transform="matrix(1,0,0,-1,134.7839,300.5768)" d="M0 0C-.294-.916-.507-1.587-.638-2.012-.932-1.783-1.308-1.57-1.766-1.374-1.57-1.113-1.308-.581-.981 .221-.654 1.022-.376 1.946-.147 2.994 .179 2.731 .491 2.519 .785 2.356 .556 1.701 .294 .916 0 0M-.589 4.613-1.668 5.202C-1.537 5.431-1.39 5.693-1.226 5.987-.932 5.823-.581 5.635-.172 5.423 .237 5.21 .605 5.006 .932 4.81L.343 3.926C.081 4.188-.229 4.417-.589 4.613M-1.177 8.245C-.981 8.473-.769 8.703-.54 8.932 .343 8.245 .932 7.737 1.226 7.411 .997 7.181 .768 6.936 .54 6.674-.049 7.329-.622 7.852-1.177 8.245M1.128-.074C1.357 .433 1.528 1.031 1.643 1.718 1.757 2.405 1.823 3.116 1.84 3.853 1.856 4.589 1.864 5.382 1.864 6.233 1.864 7.116 1.847 7.917 1.815 8.638H7.407C8.159 8.638 8.879 8.654 9.565 8.687V7.754C8.879 7.786 8.159 7.803 7.407 7.803H2.796V4.515C2.796 3.73 2.771 3.018 2.722 2.38 2.673 1.742 2.558 1.12 2.379 .515 2.199-.09 1.994-.613 1.766-1.055 1.537-1.497 1.259-1.93 .932-2.356 .768-2.028 .491-1.734 .098-1.472 .556-1.047 .899-.581 1.128-.074M3.041-.319C3.336 .09 3.63 .572 3.924 1.129 4.153 .9 4.48 .687 4.905 .491 4.578 .196 4.284-.156 4.022-.564 3.76-.974 3.434-1.423 3.041-1.914 2.747-1.685 2.469-1.488 2.207-1.325 2.469-1.064 2.747-.728 3.041-.319M6.033 6.331H8.829C8.797 5.84 8.78 5.349 8.78 4.859V3.632C8.78 3.271 8.797 2.764 8.829 2.11H6.72V-1.178C6.72-1.57 6.598-1.873 6.352-2.086 6.107-2.298 5.722-2.437 5.2-2.503 5.102-2.142 4.954-1.783 4.758-1.423 5.445-1.521 5.788-1.357 5.788-.932V2.11H3.728C3.76 2.633 3.777 3.124 3.777 3.583V4.908C3.777 5.332 3.76 5.807 3.728 6.331H5.052C5.183 6.625 5.314 7.034 5.445 7.558 5.771 7.46 6.132 7.378 6.524 7.312 6.36 7.05 6.197 6.724 6.033 6.331M7.848 5.546H4.709V4.564H7.848ZM7.848 3.779H4.709V2.896H7.848ZM9.86-.932C9.565-1.161 9.303-1.39 9.075-1.62 8.813-1.259 8.567-.925 8.339-.613 8.11-.303 7.799 .065 7.407 .491 7.635 .654 7.881 .85 8.143 1.08 9.058 .065 9.63-.606 9.86-.932" fill="#2c292a"/>
</g>
<path transform="matrix(1,0,0,-1,0,595.276)" d="M320.466 305.806H261.995V288.531H320.466Z" fill="#ffffff"/>
<g clip-path="url(#clip_8)">
<path transform="matrix(1,0,0,-1,275.9188,293.6095)" d="M0 0C.326-.294 .687-.606 1.079-.932 .752-1.097 .376-1.407-.049-1.865-.474-2.323-.883-2.765-1.275-3.19-.655-3.616-.196-3.918 .098-4.098 .392-4.278 .801-4.548 1.324-4.908 1.03-5.17 .768-5.497 .539-5.889 .212-5.563-.196-5.211-.687-4.834-1.177-4.458-1.636-4.122-2.06-3.828-2.028-4.515-1.93-5.153-1.766-5.742-1.603-6.331-1.357-6.863-1.03-7.337-.704-7.812-.36-8.139 0-8.319 .359-8.499 .596-8.458 .711-8.196 .826-7.934 .915-7.526 .981-6.969 1.34-7.231 1.7-7.444 2.06-7.607 1.831-8.425 1.602-8.989 1.373-9.3 1.144-9.611 .768-9.717 .245-9.619-.278-9.521-.802-9.218-1.324-8.711-1.848-8.204-2.249-7.526-2.526-6.674-2.804-5.824-2.968-4.859-3.017-3.779-3.066-2.699-3.074-1.505-3.041-.196H-7.358C-7.783-.196-8.274-.213-8.83-.245V.736C-8.274 .703-7.799 .687-7.407 .687H-2.011C-2.077 .032-2.109-.573-2.109-1.129V-2.748C-1.357-2.029-.655-1.113 0 0" fill="#2c292a"/>
<path transform="matrix(1,0,0,-1,282.5163,296.2596)" d="M0 0C-.147-.262-.352-.589-.613-.982V-5.398C-.613-5.824-.597-6.478-.564-7.362H-1.594C-1.562-6.38-1.545-5.644-1.545-5.153V-2.012C-1.839-2.503-2.232-2.994-2.722-3.484-2.952-3.158-3.164-2.879-3.36-2.65-2.608-1.931-2.02-1.244-1.594-.589-1.17 .065-.793 .687-.466 1.276-.14 1.08 .237 .867 .662 .638 .368 .474 .147 .261 0 0M-.809 2.577C-1.235 1.906-1.823 1.161-2.575 .344-2.771 .605-2.984 .85-3.213 1.08-2.69 1.603-2.216 2.167-1.79 2.773-1.366 3.378-1.055 3.909-.858 4.368-.532 4.172-.172 3.926 .221 3.632-.041 3.599-.385 3.247-.809 2.577M6.548 .049C7.169 .049 7.742 .065 8.265 .098V-.883C7.742-.851 7.186-.834 6.598-.834H5.911V-6.184C5.943-6.576 5.82-6.846 5.543-6.993 5.265-7.141 4.717-7.263 3.9-7.362 3.834-6.969 3.654-6.576 3.36-6.184 3.916-6.249 4.308-6.273 4.537-6.257 4.766-6.24 4.897-6.069 4.93-5.742V-.834H2.968C2.346-.834 1.758-.851 1.202-.883V.098C1.791 .065 2.379 .049 2.968 .049ZM5.715 3.386C6.27 3.386 6.843 3.402 7.431 3.435V2.503C6.843 2.535 6.237 2.552 5.617 2.552H3.802C3.082 2.552 2.46 2.535 1.938 2.503V3.435C2.46 3.402 3.082 3.386 3.802 3.386Z" fill="#2c292a"/>
<path transform="matrix(1,0,0,-1,297.9925,292.039)" d="M0 0C.392-.033 .768-.066 1.128-.098 1.062-.524 1.046-1.293 1.079-2.405H2.502C3.188-2.405 3.94-2.389 4.758-2.356V-3.288C3.907-3.256 3.155-3.239 2.502-3.239H1.128C1.16-4.483 1.373-5.84 1.766-7.312 2.387-6.364 2.877-5.268 3.237-4.024 3.564-4.287 3.94-4.515 4.366-4.711 4.103-5.006 3.809-5.497 3.483-6.184 3.155-6.871 2.73-7.591 2.207-8.343 2.502-8.932 2.82-9.398 3.164-9.742 3.507-10.085 3.744-10.232 3.875-10.183 4.005-10.134 4.136-9.57 4.268-8.49 4.594-8.753 4.937-8.949 5.298-9.079 5.069-10.42 4.815-11.165 4.537-11.312 4.259-11.459 3.924-11.459 3.532-11.312 3.139-11.165 2.771-10.887 2.428-10.478 2.085-10.069 1.798-9.619 1.57-9.128 .785-9.979-.213-10.78-1.423-11.533-1.587-11.239-1.832-10.976-2.158-10.748-1.505-10.453-.875-10.061-.27-9.57 .335-9.079 .785-8.621 1.079-8.196 .85-7.575 .654-6.814 .49-5.914 .326-5.014 .228-4.122 .196-3.239H-4.022V-4.957H-.834C-.9-5.546-.949-6.151-.981-6.773L-1.128-8.736C-1.161-9.358-1.333-9.734-1.643-9.864-1.954-9.996-2.486-10.094-3.238-10.159-3.27-9.864-3.402-9.505-3.63-9.079-2.813-9.112-2.338-9.063-2.207-8.932-2.077-8.802-1.995-8.425-1.962-7.803L-1.864-5.84H-4.022C-4.022-7.116-4.121-8.18-4.317-9.03-4.513-9.881-4.873-10.666-5.396-11.386-5.756-11.124-6.083-10.944-6.377-10.846-5.952-10.322-5.658-9.824-5.494-9.349-5.331-8.875-5.208-8.36-5.126-7.803-5.045-7.247-4.996-6.462-4.979-5.448-4.963-4.434-4.971-3.419-5.004-2.405H.098C.065-1.456 .032-.655 0 0M4.268-1.57C3.973-1.8 3.711-2.029 3.483-2.258 3.09-1.735 2.567-1.195 1.913-.638 2.141-.442 2.355-.229 2.551 0 3.204-.524 3.777-1.047 4.268-1.57" fill="#2c292a"/>
<path transform="matrix(1,0,0,-1,309.4705,300.333)" d="M0 0C-.556-.131-1.014-.238-1.373-.319-1.734-.401-2.298-.557-3.066-.785-3.835-1.014-4.382-1.178-4.709-1.276-4.84-.818-4.971-.459-5.101-.196-4.905-.196-4.202-.066-2.992 .196V5.693H-3.385C-3.777 5.693-4.251 5.676-4.807 5.644V6.576C-4.284 6.543-3.81 6.527-3.385 6.527H-1.57C-1.112 6.527-.704 6.543-.343 6.576V5.644C-.736 5.676-1.128 5.693-1.521 5.693H-2.011V.393L-1.03 .638C-.769 .703-.458 .785-.098 .883ZM4.562-2.577C4.104-2.724 3.597-2.83 3.041-2.896 2.975-2.503 2.812-2.126 2.551-1.767 3.238-1.8 3.72-1.775 3.998-1.693 4.275-1.612 4.431-1.423 4.464-1.129 4.627 .638 4.758 2.503 4.856 4.466H2.649C2.616 3.517 2.534 2.633 2.404 1.816 2.273 .998 2.052 .294 1.741-.294 1.43-.883 1.079-1.407 .687-1.865 .294-2.323-.164-2.781-.687-3.239-.916-2.912-1.21-2.65-1.57-2.454-.851-1.995-.311-1.554 .049-1.129 .409-.704 .719-.221 .981 .319 1.242 .859 1.423 1.455 1.521 2.11 1.619 2.764 1.684 3.55 1.717 4.466H.981C.589 4.466 .196 4.449-.196 4.417V5.349C.229 5.316 .654 5.3 1.079 5.3H1.717V7.018C1.717 7.411 1.7 7.803 1.668 8.196 2.092 8.098 2.469 8.032 2.796 7.999 2.73 7.77 2.689 7.411 2.674 6.92 2.657 6.429 2.649 5.889 2.649 5.3H5.886C5.853 4.842 5.82 4.408 5.788 4 5.755 3.59 5.641 1.783 5.445-1.423 5.314-2.044 5.019-2.429 4.562-2.577" fill="#2c292a"/>
</g>
<path transform="matrix(1,0,0,-1,0,595.276)" d="M325.322 279.55H62.645998V281.39299H325.322Z" fill="#2c292a"/>
<path transform="matrix(1,0,0,-1,280.6162,384.90589)" d="M0 0V1.963 3.926L3.924 1.963ZM-162.535 2.617H.9810028V1.3080001H-162.535Z" fill="#2c292a"/>
<path transform="matrix(1,0,0,-1,0,595.276)" d="M325.322 197.009H323.948V231.164H325.322Z" fill="#2c292a"/>
<path transform="matrix(1,0,0,-1,0,595.276)" d="M112.091 220.609H82.463008V203.53H112.091Z" fill="#ffffff"/>
<g clip-path="url(#clip_9)">
<path transform="matrix(1,0,0,-1,87.9108,382.4489)" d="M0 0V-4.368C0-5.153 .016-5.709 .049-6.036H-.981C-.949-5.676-.932-5.153-.932-4.466V-.589C-1.03-.883-1.186-1.219-1.398-1.595-1.611-1.971-1.848-2.405-2.109-2.896-2.305-2.601-2.568-2.356-2.894-2.159-2.371-1.636-1.946-.982-1.619-.196-1.292 .589-1.079 1.243-.981 1.767H-1.423C-1.75 1.767-2.109 1.75-2.502 1.718V2.552C-2.142 2.519-1.864 2.503-1.668 2.503H-.932V3.583C-.932 4.139-.949 4.662-.981 5.153H.049C.016 4.727 0 4.253 0 3.73V2.503C.523 2.503 .981 2.519 1.374 2.552V1.718C.948 1.75 .491 1.767 0 1.767V.098C.228 .229 .442 .36 .638 .491 .834 .163 1.022-.131 1.202-.393 1.381-.655 1.553-.916 1.717-1.178 1.423-1.374 1.177-1.554 .981-1.718 .785-1.293 .458-.72 0 0M7.848 .393C7.848-.491 7.865-1.146 7.898-1.57H5.298C5.265-1.931 5.232-2.274 5.2-2.601H6.965C7.652-2.601 8.175-2.585 8.535-2.552V-3.337C8.143-3.305 7.619-3.288 6.965-3.288H5.935C6.426-3.91 6.908-4.376 7.382-4.687 7.856-4.997 8.355-5.218 8.879-5.349 8.584-5.578 8.355-5.856 8.192-6.184 7.439-5.889 6.794-5.464 6.254-4.908 5.715-4.352 5.347-3.861 5.151-3.435H5.003C4.709-4.09 4.259-4.638 3.654-5.079 3.049-5.521 2.355-5.889 1.57-6.184 1.406-5.856 1.177-5.578 .883-5.349 1.733-5.185 2.436-4.925 2.992-4.564 3.548-4.204 3.924-3.779 4.12-3.288H3.237C2.551-3.288 1.945-3.305 1.423-3.337V-2.552C1.945-2.585 2.567-2.601 3.287-2.601H4.317C4.382-2.241 4.415-1.898 4.415-1.57H2.109C2.141-1.113 2.158-.475 2.158 .344 2.158 1.194 2.141 1.832 2.109 2.258H7.898C7.865 1.897 7.848 1.276 7.848 .393M3.336 3.484H2.943C2.322 3.484 1.831 3.468 1.472 3.435V4.221C1.831 4.188 2.305 4.172 2.894 4.172H3.336C3.336 4.629 3.319 5.006 3.287 5.3H4.219C4.186 5.006 4.17 4.629 4.17 4.172H5.641C5.641 4.596 5.624 4.957 5.592 5.251H6.573C6.54 4.891 6.524 4.531 6.524 4.172H7.26C7.619 4.172 7.996 4.188 8.388 4.221V3.435C7.996 3.468 7.619 3.484 7.26 3.484H6.524V2.601H5.641V3.484H4.17V2.65H3.336ZM7.064 1.57H2.993V.68700006H7.064ZM7.064 0H2.993V-.883H7.064ZM7.064-.883" fill="#2c292a"/>
<path transform="matrix(1,0,0,-1,99.5854,381.27113)" d="M0 0C-.36-.655-.736-1.227-1.128-1.718-1.325-1.489-1.57-1.276-1.864-1.08-1.373-.524-.851 .27-.294 1.301 .261 2.331 .654 3.271 .883 4.122 1.307 3.86 1.668 3.681 1.962 3.583 1.798 3.419 1.455 2.764 .932 1.62V-4.957C.932-5.71 .948-6.494 .981-7.312H-.049C-.017-6.494 0-5.726 0-5.006ZM3.213-4.024C3.556-2.945 3.711-1.276 3.679 .982H3.09C2.6 .949 2.141 .916 1.717 .883V1.816C2.141 1.783 2.583 1.767 3.041 1.767H7.946C8.469 1.767 9.009 1.783 9.565 1.816V.932C9.009 .965 8.469 .982 7.946 .982H4.66L4.611-.638H8.731C8.665-1.064 8.616-1.538 8.584-2.061L8.29-6.036C8.224-6.592 7.987-6.936 7.579-7.067 7.169-7.197 6.671-7.296 6.082-7.361 6.017-7.001 5.886-6.641 5.69-6.282 6.311-6.282 6.736-6.249 6.965-6.184 7.194-6.118 7.325-5.922 7.358-5.595L7.603-1.472H4.562C4.464-3.959 3.744-5.938 2.404-7.411 2.24-7.181 1.929-6.92 1.471-6.625 2.289-5.971 2.87-5.104 3.213-4.024M6.132 2.356C5.869 2.225 5.559 2.061 5.2 1.865 5.003 2.421 4.692 3.026 4.268 3.681 4.562 3.811 4.839 3.975 5.101 4.172 5.298 3.877 5.641 3.271 6.132 2.356" fill="#2c292a"/>
</g>
<path transform="matrix(1,0,0,-1,0,595.276)" d="M318.7 220.609H289.07203V203.53H318.7Z" fill="#ffffff"/>
<g clip-path="url(#clip_10)">
<path transform="matrix(1,0,0,-1,293.3372,380.3141)" d="M0 0C.621 1.194 1.013 2.233 1.177 3.116 1.504 2.92 1.913 2.74 2.404 2.577 2.109 2.282 1.766 1.562 1.373 .417V-5.914C1.373-6.895 1.389-7.631 1.422-8.122H.392C.425-7.664 .441-6.944 .441-5.963V-1.251C.016-1.971-.425-2.626-.883-3.215-1.047-2.92-1.275-2.659-1.57-2.429-1.145-2.004-.622-1.195 0 0M7.505-6.993C7.766-7.059 8.012-7.084 8.241-7.067 8.469-7.051 8.641-6.977 8.756-6.846 8.87-6.716 8.993-6.274 9.124-5.521 9.352-5.75 9.712-5.931 10.203-6.061 10.007-6.781 9.818-7.255 9.639-7.484 9.459-7.713 9.173-7.844 8.78-7.877H7.26C6.573-7.877 6.23-7.484 6.23-6.699V-1.104H5.592C5.428-4.311 4.464-6.667 2.698-8.171 2.469-7.877 2.141-7.664 1.717-7.533 3.417-6.355 4.382-4.213 4.611-1.104H3.728C3.008-1.104 2.404-1.121 1.913-1.153V-.27C2.404-.303 3.008-.319 3.728-.319H4.66C4.66 1.317 4.643 2.429 4.611 3.018 4.839 2.952 5.216 2.903 5.739 2.871 5.641 2.38 5.592 1.317 5.592-.319H8.241C8.6-.319 9.075-.303 9.663-.27V-1.153C9.107-1.121 8.649-1.104 8.29-1.104H7.162V-6.405C7.129-6.732 7.243-6.928 7.505-6.993M8.143 1.914C8.339 1.636 8.535 1.382 8.731 1.153 8.469 .989 8.192 .777 7.897 .515 7.701 .908 7.325 1.464 6.769 2.184 6.998 2.347 7.26 2.544 7.554 2.773 7.75 2.478 7.947 2.192 8.143 1.914" fill="#2c292a"/>
<path transform="matrix(1,0,0,-1,308.004,378.8909)" d="M0 0C-.131-.278-.294-.646-.491-1.104V-7.19C-.491-8.171-.474-8.973-.441-9.594H-1.472C-1.44-9.038-1.423-8.253-1.423-7.239V-2.527C-1.717-2.953-1.971-3.297-2.183-3.558-2.396-3.82-2.584-4.049-2.747-4.245-2.976-3.984-3.238-3.754-3.532-3.558-3.074-3.133-2.682-2.683-2.355-2.208-2.028-1.735-1.741-1.276-1.496-.834-1.251-.393-1.047 .041-.883 .466-.72 .891-.589 1.235-.491 1.497-.294 1.333 .081 1.169 .638 1.006 .343 .613 .13 .278 0 0M3.581 .123V-3.362C4.202-2.839 4.774-2.299 5.298-1.742 5.82-1.186 6.23-.63 6.524-.074 6.785-.336 7.112-.581 7.505-.81 7.243-1.104 6.801-1.57 6.181-2.208 5.559-2.846 5.077-3.305 4.733-3.583 4.39-3.861 4.005-4.18 3.581-4.54V-7.631C3.581-8.155 3.793-8.417 4.218-8.417H6.132C6.393-8.384 6.565-8.245 6.646-7.999 6.728-7.754 6.801-7.37 6.867-6.846 7.162-7.108 7.537-7.272 7.995-7.337 7.799-8.253 7.586-8.809 7.358-9.006 7.129-9.202 6.818-9.3 6.426-9.3H3.679C2.992-9.3 2.632-8.907 2.6-8.122V-5.227C2.37-5.423 2.085-5.636 1.741-5.865 1.398-6.094 1.013-6.339 .589-6.601 .392-6.274 .163-5.996-.098-5.767 .326-5.57 .793-5.317 1.3-5.006 1.806-4.695 2.24-4.392 2.6-4.098V.319C2.6 .712 2.583 1.055 2.551 1.35H3.63C3.597 1.186 3.581 .777 3.581 .123" fill="#2c292a"/>
</g>
<path transform="matrix(1,0,0,-1,0,595.276)" d="M76.392 364.112H75.018V398.267H76.392Z" fill="#2c292a"/>
<path transform="matrix(1,0,0,-1,282.279,217.8028)" d="M0 0V1.963 3.926L3.924 1.963ZM-162.535 2.617H.9810028V1.3080001H-162.535Z" fill="#2c292a"/>
<path transform="matrix(1,0,0,-1,0,595.276)" d="M326.985 364.112H325.611V398.267H326.985Z" fill="#2c292a"/>
<path transform="matrix(1,0,0,-1,0,595.276)" d="M113.66 387.666H84.032009V370.58699H113.66Z" fill="#ffffff"/>
<g clip-path="url(#clip_11)">
<path transform="matrix(1,0,0,-1,92.0765,212.5947)" d="M0 0V.982C0 1.504-.017 1.995-.049 2.454H1.03C.997 2.093 .981 1.62 .981 1.031V0H3.728C4.284 0 4.937 .016 5.69 .049V-.883C4.97-.851 4.333-.834 3.777-.834H1.766C2.224-2.34 2.886-3.526 3.753-4.392 4.619-5.26 5.412-5.84 6.132-6.135 5.837-6.364 5.559-6.674 5.298-7.067 4.186-6.315 3.278-5.456 2.575-4.491 1.872-3.526 1.341-2.405 .981-1.129V-5.742H1.619C2.141-5.742 2.681-5.726 3.237-5.693V-6.625C2.681-6.593 2.125-6.576 1.57-6.576H.981C.981-7.329 .997-8.098 1.03-8.883H-.049C-.017-8.098 0-7.329 0-6.576H-.638C-1.161-6.576-1.685-6.593-2.207-6.625V-5.693C-1.685-5.726-1.161-5.742-.638-5.742H0V-1.227C-.523-2.569-1.104-3.698-1.741-4.613-2.379-5.53-3.237-6.446-4.317-7.362-4.579-7.002-4.889-6.74-5.249-6.576-4.169-5.922-3.27-5.104-2.551-4.122-1.832-3.141-1.259-2.045-.834-.834H-2.992C-3.516-.834-4.071-.851-4.66-.883V.049C-4.071 .016-3.532 0-3.041 0Z" fill="#2c292a"/>
<path transform="matrix(1,0,0,-1,103.8492,213.08539)" d="M0 0H1.668V1.276C-.327 1.178-1.521 1.129-1.913 1.129V0C-1.946-1.505-1.979-2.626-2.011-3.362-2.044-4.098-2.134-4.834-2.281-5.57-2.428-6.306-2.764-7.149-3.286-8.098-3.581-7.901-3.957-7.754-4.415-7.656-3.892-6.969-3.532-6.257-3.336-5.521-3.139-4.785-3.017-3.828-2.968-2.65-2.919-1.472-2.894-.557-2.894 .098-2.894 .785-2.911 1.39-2.943 1.914-1.995 1.914-1.088 1.93-.221 1.963 .645 1.995 1.602 2.061 2.649 2.159 3.695 2.258 4.594 2.454 5.347 2.748 5.412 2.421 5.624 2.044 5.984 1.62 5.592 1.62 5.142 1.595 4.635 1.546 4.128 1.497 3.45 1.439 2.6 1.374V0H5.052C5.51 0 6.017 .016 6.573 .049V-.883C6.083-.851 5.575-.834 5.052-.834H2.6V-2.11H5.641C5.608-2.667 5.592-3.223 5.592-3.779 5.592-4.336 5.608-4.892 5.641-5.448H4.611V-2.896H.049V-5.742H-.932C-.9-5.121-.883-4.499-.883-3.877-.883-3.256-.9-2.667-.932-2.11H1.668V-.834H0C-.556-.834-1.112-.851-1.668-.883V.049C-1.112 .016-.556 0 0 0M2.526-5.423C2.444-6.061 2.068-6.642 1.398-7.165 .727-7.688-.18-8.13-1.324-8.49-1.39-8.228-1.619-7.967-2.011-7.705-1.096-7.476-.368-7.214 .172-6.92 .711-6.625 1.095-6.274 1.324-5.865 1.553-5.456 1.684-5.023 1.717-4.564 1.749-4.106 1.749-3.763 1.717-3.534 2.109-3.566 2.485-3.616 2.845-3.681 2.714-4.204 2.607-4.785 2.526-5.423M5.077-6.478C5.715-6.839 6.279-7.198 6.769-7.558 6.573-7.721 6.36-7.983 6.132-8.343 5.412-7.754 4.317-7.1 2.845-6.38 3.041-6.053 3.205-5.775 3.336-5.546 3.858-5.808 4.439-6.118 5.077-6.478" fill="#2c292a"/>
</g>
<path transform="matrix(1,0,0,-1,0,595.276)" d="M320.466 387.666H290.838V370.58699H320.466Z" fill="#ffffff"/>
<g clip-path="url(#clip_12)">
<path transform="matrix(1,0,0,-1,295.3445,218.97461)" d="M0 0V4.122C-.753 4.122-1.308 4.106-1.668 4.073V5.006C-1.308 4.973-.916 4.957-.491 4.957H1.03C.997 4.368 .981 3.811 .981 3.288V.393C1.242 .654 1.749 1.21 2.502 2.061 2.632 1.767 2.812 1.472 3.041 1.178 2.551 .687 2.076 .196 1.619-.294 1.16-.785 .785-1.227 .491-1.62 .163-1.293-.115-1.031-.343-.834-.115-.573 0-.294 0 0M-.343 7.999C-.049 8.196 .179 8.424 .343 8.687 .866 8.261 1.488 7.639 2.207 6.822 1.88 6.625 1.619 6.396 1.422 6.135 .899 6.854 .31 7.476-.343 7.999M6.745-.147C6.27 .67 5.869 1.734 5.543 3.043 5.183 1.603 4.668 .433 3.998-.466 3.327-1.366 2.698-2.061 2.109-2.552 1.978-2.323 1.668-2.093 1.177-1.865 1.896-1.374 2.542-.745 3.115 .025 3.687 .793 4.112 1.562 4.39 2.331 4.668 3.099 4.832 3.869 4.881 4.638 4.93 5.406 4.954 6.085 4.954 6.674 4.954 7.263 4.937 7.95 4.905 8.736 5.298 8.703 5.722 8.687 6.181 8.687 6.082 8.555 6.017 8.196 5.984 7.607 5.951 7.018 5.968 6.273 6.034 5.374 6.099 4.474 6.262 3.615 6.524 2.797 6.785 1.979 7.162 1.161 7.652 .344 8.143-.475 8.845-1.162 9.761-1.718 9.238-1.914 8.911-2.175 8.78-2.503 7.897-1.75 7.218-.965 6.745-.147" fill="#2c292a"/>
<path transform="matrix(1,0,0,-1,307.7304,219.539)" d="M0 0C.343 .507 .629 1.031 .858 1.57 1.087 2.11 1.234 2.642 1.3 3.165 .09 3.165-.777 3.149-1.3 3.116V4.049C-.809 4.016 .106 4 1.447 4 1.545 4.687 1.594 5.521 1.594 6.503H.466C.302 6.044 .057 5.504-.27 4.883-.63 4.981-.957 5.063-1.251 5.129-1.023 5.455-.793 5.889-.564 6.429-.336 6.969-.147 7.492 0 7.999 .147 8.506 .253 8.957 .319 9.349 .645 9.251 1.022 9.169 1.447 9.104 1.283 8.874 1.153 8.613 1.055 8.319 .956 8.024 .841 7.697 .711 7.337 2.575 7.337 3.736 7.353 4.194 7.386V6.503H2.526C2.526 5.783 2.493 4.948 2.428 4 3.213 4 3.9 4.016 4.488 4.049V3.116C3.9 3.149 3.164 3.165 2.281 3.165 2.248 2.805 2.183 2.462 2.085 2.135 2.379 1.906 2.706 1.652 3.066 1.374 3.425 1.096 3.883 .63 4.439-.025 4.21-.123 3.949-.352 3.654-.712 3.36-.221 3.057 .179 2.747 .491 2.436 .801 2.117 1.087 1.79 1.35 1.594 .826 1.291 .27 .883-.319 .474-.908 .057-1.431-.368-1.889-.532-1.693-.793-1.497-1.153-1.301-.728-.94-.344-.508 0 0M9.442 6.012V.908C9.442 .286 9.459-.352 9.492-1.006H8.462V.319H5.862V-1.202H4.832C4.864-.581 4.881 .074 4.881 .761V6.012C4.881 6.535 4.864 7.124 4.832 7.779H9.492C9.459 7.124 9.442 6.535 9.442 6.012M8.462 6.993H5.862V1.1040001H8.462ZM8.462 1.104" fill="#2c292a"/>
</g>
</g>
</g>
</svg>
