<svg xmlns="http://www.w3.org/2000/svg" xmlns:xlink="http://www.w3.org/1999/xlink" xmlns:inkscape="http://www.inkscape.org/namespaces/inkscape" version="1.1" width="411.024" height="595.276" viewBox="0 0 411.024 595.276">
<defs>
<clipPath id="clip_1">
<path transform="matrix(1,0,0,-1,0,595.276)" d="M0 0H411.024V595.276H0Z"/>
</clipPath>
<clipPath id="clip_2">
<path transform="matrix(1,0,0,-1,0,595.276)" d="M0 0H411.024V595.276H0Z"/>
</clipPath>
<path id="font_3_4" d="M.46099855 0V.06399536H.15499878L.4039917 .38186646C.44299317 .43185426 .46099855 .46884156 .46099855 .5258179 .46099855 .6427765 .38198854 .71777346 .2649994 .71777346 .1459961 .71777346 .068984989 .6367645 .068984989 .5248108H.14099121C.14099121 .6167755 .19898987 .6537628 .2649994 .6537628 .34298707 .6537628 .3889923 .6027832 .3889923 .5258179 .3889923 .48683167 .37599183 .45584107 .34899903 .42085267L.067993167 .06399536V0H.46099855Z"/>
<path id="font_3_10" d="M.47099305 .19602967C.47099305 .27897645 .4249878 .33493043 .36499024 .368927 .42099 .40092469 .45700074 .45289613 .45700074 .52685549 .45700074 .6377716 .37399293 .71777346 .26098634 .71777346 .147995 .71777346 .06498718 .6377716 .06498718 .52685549 .06498718 .45289613 .101989749 .40092469 .1579895 .368927 .09799194 .33493043 .050994874 .27897645 .050994874 .19602967 .050994874 .0761261 .14299011-.005859375 .26098634-.005859375 .3789978-.005859375 .47099305 .0761261 .47099305 .19602967M.39898683 .19703675C.39898683 .11808777 .33898927 .058135988 .26098634 .058135988 .18299866 .058135988 .12298584 .11808777 .12298584 .19703675 .12298584 .27597047 .18299866 .3359375 .26098634 .3359375 .33898927 .3359375 .39898683 .27597047 .39898683 .19703675M.3849945 .5258484C.3849945 .45089723 .33399964 .39892579 .26098634 .39892579 .18798828 .39892579 .13699341 .45089723 .13699341 .5258484 .13699341 .59980776 .18798828 .6537628 .26098634 .6537628 .33399964 .6537628 .3849945 .59980776 .3849945 .5258484Z"/>
<clipPath id="clip_4">
<path transform="matrix(1,0,0,-1,0,595.276)" d="M0 0H411.024V595.276H0Z"/>
</clipPath>
<clipPath id="clip_5">
<path transform="matrix(1,0,0,-1,0,595.276)" d="M0 0H411.024V595.276H0Z"/>
</clipPath>
<clipPath id="clip_6">
<path transform="matrix(1,0,0,-1,0,595.276)" d="M0 0H411.024V595.276H0Z"/>
</clipPath>
<clipPath id="clip_7">
<path transform="matrix(1,0,0,-1,0,595.276)" d="M0 0H411.024V595.276H0Z"/>
</clipPath>
<clipPath id="clip_8">
<path transform="matrix(1,0,0,-1,0,595.276)" d="M0 0H411.024V595.276H0Z"/>
</clipPath>
<clipPath id="clip_9">
<path transform="matrix(1,0,0,-1,0,595.276)" d="M0 0H411.024V595.276H0Z"/>
</clipPath>
<clipPath id="clip_10">
<path transform="matrix(1,0,0,-1,0,595.276)" d="M0 0H411.024V595.276H0Z"/>
</clipPath>
<clipPath id="clip_11">
<path transform="matrix(1,0,0,-1,0,595.276)" d="M0 0H411.024V595.276H0Z"/>
</clipPath>
<clipPath id="clip_12">
<path transform="matrix(1,0,0,-1,0,595.276)" d="M0 0H411.024V595.276H0Z"/>
</clipPath>
<clipPath id="clip_13">
<path transform="matrix(1,0,0,-1,0,595.276)" d="M0 0H411.024V595.276H0Z"/>
</clipPath>
<clipPath id="clip_14">
<path transform="matrix(1,0,0,-1,0,595.276)" d="M0 0H411.024V595.276H0Z"/>
</clipPath>
<clipPath id="clip_15">
<path transform="matrix(1,0,0,-1,0,595.276)" d="M0 0H411.024V595.276H0Z"/>
</clipPath>
<clipPath id="clip_16">
<path transform="matrix(1,0,0,-1,0,595.276)" d="M0 0H411.024V595.276H0Z"/>
</clipPath>
</defs>
<g clip-path="url(#clip_1)">
<g clip-path="url(#clip_2)">
<use data-text="2" xlink:href="#font_3_4" transform="matrix(9,0,0,-9,35.4331,567.547)" fill="#f43040"/>
<use data-text="2" xlink:href="#font_3_4" transform="matrix(9,0,0,-9,39.0331,567.547)" fill="#f43040"/>
<use data-text="8" xlink:href="#font_3_10" transform="matrix(9,0,0,-9,42.6331,567.547)" fill="#f43040"/>
<path transform="matrix(1,0,0,-1,0,595.276)" d="M0 0H411.024V595.275H0Z" fill="#f43040"/>
<g clip-path="url(#clip_4)">
<path transform="matrix(1,0,0,-1,66.2807,276.9725)" stroke-width="1.2" stroke-linecap="butt" stroke-miterlimit="10" stroke-linejoin="miter" fill="none" stroke="#ffffff" d="M0 0C-.091 6.273 4.949 11.315 11.1 11.341H106.274C112.519 11.315 117.558 6.273 117.558 .053 117.558-6.167 112.519-11.209 106.274-11.105H11.1C4.949-11.209-.091-6.167 0 0"/>
<path transform="matrix(1,0,0,-1,97.8126,272.3943)" d="M0 0V-1.144H3.756C4.263-1.144 4.88-1.126 5.606-1.089V-2.069C4.88-2.034 4.263-2.015 3.756-2.015H0V-2.941H3.756C3.719-3.485 3.701-4.157 3.701-4.955 3.701-5.754 3.719-6.444 3.756-7.025H0V-7.95H2.449C3.102-7.95 3.791-7.933 4.518-7.896V-8.767C3.828-8.732 3.157-8.713 2.504-8.713H0V-9.693H3.538C4.154-9.693 4.825-9.674 5.552-9.639V-10.564C4.825-10.528 4.172-10.51 3.592-10.51H-4.245C-4.972-10.51-5.715-10.528-6.477-10.564V-9.639C-5.715-9.674-4.99-9.693-4.3-9.693H-1.089V-8.713H-2.994C-3.864-8.713-4.663-8.732-5.388-8.767V-7.896C-4.445-7.933-3.629-7.95-2.939-7.95H-1.089V-7.025H-4.735C-4.7-6.118-4.681-5.428-4.681-4.955-4.681-4.484-4.7-3.812-4.735-2.941H-1.089V-2.015H-4.79C-5.298-2.015-5.897-2.034-6.586-2.069V-1.089C-5.897-1.126-5.298-1.144-4.79-1.144H-1.089V-.054C-1.815-.091-3.157-.182-5.116-.327-5.225 0-5.37 .308-5.552 .599-3.52 .635-1.714 .735-.136 .898 1.442 1.062 2.576 1.252 3.266 1.47 3.41 1.107 3.682 .744 4.082 .381 2.05 .199 .689 .072 0 0M-1.089-3.812H-3.647V-4.574H-1.089ZM-1.089-5.446H-3.647V-6.1540005H-1.089ZM2.667-3.812H0V-4.574H2.667ZM2.613-5.446H0V-6.1540005H2.613ZM2.613-6.153" fill="#ffffff"/>
<path transform="matrix(1,0,0,-1,115.3234,271.0873)" d="M0 0C.544 0 1.161 .018 1.851 .054V-.871C1.161-.836 .544-.817 0-.817H-2.177V-2.233H.871C.834-2.85 .816-3.431 .816-3.975 .816-4.52 .834-5.083 .871-5.663H-4.898C-4.5-5.918-4.191-6.118-3.973-6.262-4.3-6.48-4.536-6.68-4.681-6.861H.435C1.015-6.861 1.633-6.826 2.286-6.752V-7.787C1.633-7.751 .997-7.733 .381-7.733H-1.197C-1.561-8.35-2.05-9.022-2.667-9.747-1.034-10.183 .508-10.655 1.959-11.163 1.596-11.417 1.306-11.726 1.089-12.089-.291-11.471-1.815-10.927-3.484-10.455-3.992-10.819-4.636-11.145-5.416-11.436-6.196-11.726-6.94-11.926-7.647-12.035-8.355-12.143-8.999-12.234-9.579-12.307-9.688-11.835-9.925-11.453-10.287-11.163-9.598-11.199-8.872-11.181-8.11-11.109-7.348-11.036-6.659-10.9-6.042-10.7-5.425-10.501-4.935-10.292-4.572-10.074-5.769-9.784-6.949-9.53-8.11-9.312-7.566-8.767-7.058-8.241-6.586-7.733H-8.872C-9.489-7.733-10.088-7.751-10.668-7.787V-6.807C-9.943-6.843-9.344-6.861-8.872-6.861H-5.987C-5.625-6.426-5.334-6.027-5.116-5.663H-9.144C-9.108-5.083-9.09-4.52-9.09-3.975-9.09-3.431-9.108-2.85-9.144-2.233H-6.15V-.817H-8.273C-8.891-.817-9.544-.836-10.233-.871V.054C-9.544 .018-8.908 0-8.328 0ZM-6.15-3.104H-8.055V-4.847H-6.15ZM-3.701-9.421C-3.266-8.985-2.813-8.423-2.34-7.733H-5.28C-5.606-8.059-5.933-8.405-6.259-8.767-5.679-8.876-4.826-9.094-3.701-9.421M-3.157-.817H-5.116V-2.233H-3.157ZM-3.157-3.104H-5.116V-4.847H-3.157ZM-.218-3.104H-2.177V-4.847H-.218ZM-.218-4.846" fill="#ffffff"/>
<path transform="matrix(1,0,0,-1,118.8459,281.70613)" d="M0 0C.58-.037 1.469-.054 2.667-.054V7.787C2.667 8.549 2.648 9.366 2.613 10.238H9.852C9.815 9.439 9.797 8.713 9.797 8.059V-.054C10.958-.054 11.847-.019 12.464 .054V-1.035C11.811-.998 11.194-.98 10.613-.98H1.905C1.215-.98 .58-.998 0-1.035ZM8.709 9.366H3.7559996V6.9700005H8.709ZM8.709 6.045H3.7559996V3.6490002H8.709ZM8.709 2.723H3.7559996V-.0539999H8.709ZM8.709-.054" fill="#ffffff"/>
<path transform="matrix(1,0,0,-1,135.9756,281.815)" d="M0 0C-.509-.327-1.197-.78-2.068-1.361-2.25-1.07-2.486-.798-2.776-.545-1.651 .036-.563 .708 .49 1.47 .634 1.252 .889 .98 1.252 .653 .925 .545 .508 .327 0 0M-1.415 8.767V7.569C-1.415 7.097-1.397 6.589-1.361 6.045H-2.395C-2.359 6.589-2.34 7.097-2.34 7.569V8.767C-2.34 9.348-2.359 9.838-2.395 10.238H-1.361C-1.397 9.874-1.415 9.384-1.415 8.767M5.388 5.936C5.715 5.609 6.042 5.318 6.368 5.064 5.933 4.919 5.343 4.647 4.599 4.247 3.855 3.848 2.63 3.249 .925 2.451 2.267 2.486 3.973 2.577 6.042 2.723 5.715 3.085 5.461 3.34 5.28 3.485 5.388 3.521 5.642 3.739 6.042 4.139 6.767 3.449 7.529 2.632 8.328 1.688 8.073 1.543 7.783 1.325 7.457 1.035L6.695 1.96C5.824 1.887 4.79 1.815 3.592 1.743V-.381C3.592-.926 3.392-1.261 2.994-1.389 2.594-1.515 2.014-1.634 1.252-1.743 1.179-1.379 1.034-.98 .816-.545 1.47-.58 1.913-.58 2.15-.545 2.386-.508 2.504-.327 2.504 0V1.688C.471 1.652-.98 1.506-1.851 1.252-1.924 1.724-2.05 2.087-2.232 2.342-1.687 2.414-1.098 2.55-.463 2.75 .172 2.949 .997 3.303 2.014 3.812 1.578 3.812 1.015 3.775 .327 3.703-.363 3.63-.925 3.557-1.361 3.485-1.47 3.848-1.597 4.174-1.742 4.465-1.234 4.501-.653 4.683 0 5.01 .653 5.337 1.215 5.736 1.687 6.208 1.832 5.99 2.104 5.718 2.504 5.391 2.286 5.354 2.05 5.263 1.796 5.119 1.542 4.973 1.233 4.792 .871 4.574L3.483 4.629C4.209 5.064 4.844 5.5 5.388 5.936M1.034 9.421V7.406C1.034 7.115 1.052 6.589 1.089 5.827H0C.036 6.48 .055 7.006 .055 7.406V9.584C.055 9.838 .036 10.255 0 10.837H1.089C1.052 10.437 1.034 9.965 1.034 9.421M8.491 10.292C8.273 9.82 7.982 9.348 7.62 8.876 7.257 8.404 6.767 7.914 6.15 7.406 6.839 6.97 7.838 6.625 9.144 6.371 8.853 6.08 8.6 5.736 8.382 5.337 7.838 5.518 7.275 5.736 6.695 5.99 6.114 6.244 5.624 6.516 5.225 6.807 4.572 6.407 3.701 6.008 2.613 5.609 2.431 5.899 2.177 6.208 1.851 6.535 3.011 6.752 3.864 7.043 4.409 7.406 3.682 8.095 3.157 8.803 2.83 9.53L2.014 9.475V10.346C2.558 10.31 3.102 10.292 3.647 10.292ZM3.864 9.53C4.263 8.876 4.735 8.332 5.28 7.896 5.86 8.295 6.386 8.84 6.858 9.53ZM8.545-.545C8.254-.762 7.982-1.053 7.729-1.416 6.858-.617 5.842 .145 4.681 .871 4.971 1.161 5.189 1.416 5.334 1.634 6.386 .98 7.457 .254 8.545-.545" fill="#ffffff"/>
<path transform="matrix(1,0,0,-1,147.5537,282.8496)" d="M0 0C-.291 .145-.653 .272-1.089 .381-.69 1.107-.272 2.105 .163 3.376 .49 3.231 .834 3.122 1.197 3.049ZM3.483 10.837H8.981C8.799 10.619 8.563 10.337 8.273 9.993 7.982 9.647 7.656 9.257 7.293 8.822H10.069C10.033 8.277 10.015 7.533 10.015 6.589 10.015 5.681 10.033 4.882 10.069 4.193H2.667C2.05 4.193 1.342 4.156 .544 4.084V5.119C1.342 5.082 2.05 5.064 2.667 5.064H8.926V6.099H2.612C2.068 6.099 1.433 6.08 .708 6.045V6.97C1.433 6.934 2.068 6.916 2.612 6.916H8.926V8.059H3.592C2.648 8.059 1.886 8.041 1.306 8.005V8.549C.798 8.114 .344 7.714-.055 7.351-.345 7.678-.635 7.932-.925 8.114-.237 8.549 .471 9.148 1.197 9.911 1.923 10.673 2.539 11.49 3.048 12.361 3.447 12.143 3.9 11.961 4.409 11.817 4.009 11.526 3.701 11.199 3.483 10.837M5.987 8.822C6.422 9.257 6.767 9.674 7.021 10.074H2.776C2.413 9.639 2.014 9.221 1.578 8.822ZM3.374 1.96C3.374 1.597 3.383 1.298 3.402 1.062 3.42 .826 3.61 .708 3.973 .708H6.912C7.166 .708 7.383 .808 7.565 1.007 7.747 1.207 7.873 1.597 7.946 2.178L9.144 1.743C8.89 .871 8.617 .354 8.327 .191 8.037 .027 7.62-.054 7.076-.054H3.483C2.866-.018 2.512 .163 2.422 .49 2.331 .817 2.294 1.207 2.313 1.661 2.331 2.114 2.322 2.723 2.286 3.485H3.429C3.392 2.832 3.374 2.323 3.374 1.96M6.749 2.396C6.422 2.251 6.096 2.069 5.769 1.851 5.443 2.396 5.098 2.904 4.735 3.376 4.989 3.557 5.243 3.721 5.497 3.866 5.896 3.431 6.314 2.941 6.749 2.396M11.648 1.634C11.357 1.416 11.049 1.144 10.722 .817 10.105 1.724 9.397 2.559 8.6 3.322 8.781 3.503 8.998 3.703 9.253 3.921 10.196 3.049 10.995 2.287 11.648 1.634" fill="#ffffff"/>
</g>
<path transform="matrix(1,0,0,-1,82.8465,309.3377)" d="M0 0V-3.308-6.616L-6.613-3.308ZM209.581-6.616V-3.308 0L216.194-3.308ZM-1.653-2.205H211.235V-4.41H-1.653Z" fill="#ffffff"/>
<g clip-path="url(#clip_5)">
<path transform="matrix(1,0,0,-1,185.7023,377.9745)" d="M0 0C-.653 .036-1.216 .054-1.687 .054H-4.898C-5.153-.454-5.461-1.017-5.824-1.634V-8.441C-5.824-9.167-5.806-9.983-5.769-10.891H-6.967C-6.931-10.02-6.912-9.203-6.912-8.441V-3.104C-8.037-4.665-9.561-6.099-11.484-7.406-11.775-6.97-12.047-6.662-12.301-6.48-11.575-6.153-10.613-5.455-9.416-4.384-8.219-3.313-7.112-1.834-6.096 .054H-9.688C-10.378 .054-11.103 .036-11.865 0V1.089C-10.777 1.052-9.942 1.035-9.362 1.035H-1.742C-1.27 1.035-.69 1.052 0 1.089ZM-4.844-3.213C-4.554-2.959-4.318-2.705-4.136-2.451-3.266-3.25-2.522-3.948-1.905-4.547-1.288-5.146-.707-5.736-.163-6.317-.526-6.608-.853-6.916-1.143-7.243-1.833-6.371-3.067-5.029-4.844-3.213" fill="#ffffff"/>
<path transform="matrix(1,0,0,-1,194.0146,378.0834)" d="M0 0V-1.144H3.756C4.263-1.144 4.88-1.126 5.606-1.089V-2.069C4.88-2.034 4.263-2.015 3.756-2.015H0V-2.941H3.756C3.719-3.485 3.701-4.157 3.701-4.955 3.701-5.754 3.719-6.444 3.756-7.025H0V-7.95H2.449C3.102-7.95 3.791-7.933 4.518-7.896V-8.767C3.828-8.732 3.157-8.713 2.504-8.713H0V-9.693H3.538C4.154-9.693 4.825-9.674 5.552-9.639V-10.564C4.825-10.528 4.172-10.51 3.592-10.51H-4.245C-4.972-10.51-5.715-10.528-6.477-10.564V-9.639C-5.715-9.674-4.99-9.693-4.3-9.693H-1.089V-8.713H-2.994C-3.864-8.713-4.663-8.732-5.388-8.767V-7.896C-4.445-7.933-3.629-7.95-2.939-7.95H-1.089V-7.025H-4.735C-4.7-6.118-4.681-5.428-4.681-4.955-4.681-4.484-4.7-3.812-4.735-2.941H-1.089V-2.015H-4.79C-5.298-2.015-5.897-2.034-6.586-2.069V-1.089C-5.897-1.126-5.298-1.144-4.79-1.144H-1.089V-.054C-1.815-.091-3.157-.182-5.116-.327-5.225 0-5.371 .308-5.552 .599-3.52 .635-1.715 .735-.136 .898 1.442 1.062 2.576 1.252 3.266 1.47 3.41 1.107 3.682 .744 4.082 .381 2.05 .199 .689 .072 0 0M-1.089-3.812H-3.647V-4.574H-1.089ZM-1.089-5.446H-3.647V-6.1540005H-1.089ZM2.667-3.812H0V-4.574H2.667ZM2.613-5.446H0V-6.1540005H2.613ZM2.613-6.153" fill="#ffffff"/>
<path transform="matrix(1,0,0,-1,211.5251,376.7765)" d="M0 0C.545 0 1.161 .018 1.851 .054V-.871C1.161-.836 .545-.817 0-.817H-2.177V-2.233H.871C.834-2.85 .817-3.431 .817-3.975 .817-4.52 .834-5.083 .871-5.663H-4.898C-4.499-5.918-4.191-6.118-3.973-6.262-4.3-6.48-4.536-6.68-4.681-6.861H.436C1.016-6.861 1.633-6.826 2.286-6.752V-7.787C1.633-7.751 .998-7.733 .381-7.733H-1.197C-1.56-8.35-2.05-9.022-2.667-9.747-1.034-10.183 .508-10.655 1.959-11.163 1.596-11.417 1.306-11.726 1.089-12.089-.291-11.471-1.815-10.927-3.483-10.455-3.992-10.819-4.636-11.145-5.416-11.436-6.196-11.726-6.939-11.926-7.647-12.035-8.355-12.143-8.999-12.234-9.579-12.307-9.688-11.835-9.925-11.453-10.287-11.163-9.598-11.199-8.872-11.181-8.11-11.109-7.348-11.036-6.659-10.9-6.041-10.7-5.425-10.501-4.935-10.292-4.572-10.074-5.769-9.784-6.949-9.53-8.11-9.312-7.566-8.767-7.057-8.241-6.586-7.733H-8.872C-9.489-7.733-10.088-7.751-10.668-7.787V-6.807C-9.942-6.844-9.344-6.861-8.872-6.861H-5.987C-5.625-6.426-5.334-6.027-5.116-5.663H-9.144C-9.108-5.083-9.089-4.52-9.089-3.975-9.089-3.431-9.108-2.85-9.144-2.233H-6.15V-.817H-8.273C-8.891-.817-9.543-.836-10.232-.871V.054C-9.543 .018-8.908 0-8.327 0ZM-6.15-3.104H-8.055V-4.847H-6.15ZM-3.701-9.421C-3.265-8.985-2.812-8.423-2.34-7.733H-5.279C-5.606-8.059-5.932-8.405-6.259-8.767-5.679-8.876-4.826-9.094-3.701-9.421M-3.157-.817H-5.116V-2.233H-3.157ZM-3.157-3.104H-5.116V-4.847H-3.157ZM-.217-3.104H-2.1759999V-4.847H-.217ZM-.217-4.846" fill="#ffffff"/>
</g>
<path transform="matrix(1,0,0,-1,195.9005,257.787)" d="M0 0H-3.306-6.613L-3.306 6.616ZM-6.613-105.985H-3.306 0L-3.306-112.601ZM-2.204-107.639H-4.408V1.6539993H-2.204Z" fill="#ffffff"/>
<g clip-path="url(#clip_6)">
<path transform="matrix(1,0,0,-1,187.0822,235.6047)" d="M0 0V-1.144H3.756C4.263-1.144 4.88-1.126 5.606-1.089V-2.069C4.88-2.034 4.263-2.015 3.756-2.015H0V-2.941H3.756C3.719-3.485 3.701-4.157 3.701-4.955 3.701-5.754 3.719-6.444 3.756-7.025H0V-7.95H2.449C3.102-7.95 3.791-7.933 4.518-7.896V-8.767C3.828-8.732 3.157-8.713 2.504-8.713H0V-9.693H3.538C4.154-9.693 4.825-9.674 5.552-9.639V-10.564C4.825-10.528 4.172-10.51 3.592-10.51H-4.245C-4.972-10.51-5.715-10.528-6.477-10.564V-9.639C-5.715-9.674-4.99-9.693-4.3-9.693H-1.089V-8.713H-2.994C-3.864-8.713-4.663-8.732-5.388-8.767V-7.896C-4.445-7.933-3.629-7.95-2.939-7.95H-1.089V-7.025H-4.735C-4.7-6.118-4.681-5.428-4.681-4.955-4.681-4.484-4.7-3.812-4.735-2.941H-1.089V-2.015H-4.79C-5.298-2.015-5.897-2.034-6.586-2.069V-1.089C-5.897-1.126-5.298-1.144-4.79-1.144H-1.089V-.054C-1.815-.091-3.157-.182-5.116-.327-5.225 0-5.371 .308-5.552 .599-3.52 .635-1.715 .735-.136 .898 1.442 1.062 2.576 1.252 3.266 1.47 3.41 1.107 3.682 .744 4.082 .381 2.05 .199 .689 .072 0 0M-1.089-3.812H-3.647V-4.574H-1.089ZM-1.089-5.446H-3.647V-6.1540005H-1.089ZM2.667-3.812H0V-4.574H2.667ZM2.613-5.446H0V-6.1540005H2.613ZM2.613-6.153" fill="#ffffff"/>
<path transform="matrix(1,0,0,-1,204.5927,234.29779)" d="M0 0C.545 0 1.161 .018 1.851 .054V-.871C1.161-.836 .545-.817 0-.817H-2.177V-2.233H.871C.834-2.85 .817-3.431 .817-3.975 .817-4.52 .834-5.083 .871-5.663H-4.898C-4.5-5.918-4.191-6.118-3.973-6.262-4.3-6.48-4.536-6.68-4.681-6.861H.436C1.016-6.861 1.633-6.826 2.286-6.752V-7.787C1.633-7.751 .998-7.733 .381-7.733H-1.197C-1.56-8.35-2.05-9.022-2.667-9.747-1.034-10.183 .508-10.655 1.959-11.163 1.596-11.417 1.306-11.726 1.089-12.089-.291-11.471-1.815-10.927-3.483-10.455-3.992-10.819-4.636-11.145-5.415-11.436-6.196-11.726-6.939-11.926-7.647-12.035-8.355-12.143-8.999-12.234-9.579-12.307-9.688-11.835-9.924-11.453-10.287-11.163-9.598-11.199-8.872-11.181-8.11-11.109-7.348-11.036-6.659-10.9-6.041-10.7-5.425-10.501-4.935-10.292-4.572-10.074-5.769-9.784-6.949-9.53-8.11-9.312-7.565-8.767-7.058-8.241-6.586-7.733H-8.872C-9.489-7.733-10.088-7.751-10.668-7.787V-6.807C-9.942-6.843-9.344-6.861-8.872-6.861H-5.987C-5.625-6.426-5.334-6.027-5.116-5.663H-9.144C-9.108-5.083-9.089-4.52-9.089-3.975-9.089-3.431-9.108-2.85-9.144-2.233H-6.15V-.817H-8.273C-8.89-.817-9.544-.836-10.232-.871V.054C-9.544 .018-8.908 0-8.327 0ZM-6.15-3.104H-8.055V-4.847H-6.15ZM-3.701-9.421C-3.266-8.985-2.812-8.423-2.34-7.733H-5.279C-5.606-8.059-5.932-8.405-6.259-8.767-5.679-8.876-4.826-9.094-3.701-9.421M-3.157-.817H-5.117V-2.233H-3.157ZM-3.157-3.104H-5.117V-4.847H-3.157ZM-.217-3.104H-2.1759999V-4.847H-.217ZM-.217-4.847" fill="#ffffff"/>
<path transform="matrix(1,0,0,-1,315.9793,307.4228)" d="M0 0C-.653 .036-1.216 .054-1.687 .054H-4.898C-5.153-.454-5.461-1.017-5.824-1.634V-8.441C-5.824-9.167-5.806-9.983-5.769-10.891H-6.967C-6.931-10.02-6.912-9.203-6.912-8.441V-3.104C-8.037-4.665-9.562-6.099-11.484-7.406-11.775-6.97-12.047-6.662-12.301-6.48-11.575-6.153-10.613-5.455-9.416-4.384-8.219-3.313-7.112-1.834-6.096 .054H-9.688C-10.378 .054-11.103 .036-11.865 0V1.089C-10.777 1.052-9.942 1.035-9.362 1.035H-1.742C-1.27 1.035-.69 1.052 0 1.089ZM-4.844-3.213C-4.554-2.959-4.319-2.705-4.137-2.451-3.266-3.25-2.522-3.948-1.905-4.547-1.288-5.146-.707-5.736-.163-6.317-.526-6.608-.853-6.916-1.143-7.243-1.833-6.371-3.067-5.029-4.844-3.213" fill="#ffffff"/>
<path transform="matrix(1,0,0,-1,320.8625,316.9524)" d="M0 0C-.509-.327-1.197-.78-2.068-1.361-2.25-1.07-2.486-.798-2.776-.545-1.651 .036-.563 .708 .49 1.47 .635 1.252 .889 .98 1.252 .653 .925 .545 .508 .327 0 0M-1.415 8.767V7.569C-1.415 7.097-1.397 6.589-1.361 6.045H-2.395C-2.359 6.589-2.34 7.097-2.34 7.569V8.767C-2.34 9.348-2.359 9.838-2.395 10.238H-1.361C-1.397 9.874-1.415 9.384-1.415 8.767M5.389 5.936C5.715 5.609 6.042 5.318 6.368 5.064 5.933 4.919 5.343 4.646 4.599 4.247 3.855 3.848 2.63 3.249 .925 2.451 2.267 2.486 3.973 2.577 6.042 2.723 5.715 3.085 5.461 3.34 5.28 3.485 5.389 3.521 5.642 3.739 6.042 4.139 6.767 3.448 7.529 2.632 8.328 1.688 8.073 1.543 7.783 1.325 7.457 1.035L6.695 1.96C5.824 1.887 4.79 1.815 3.592 1.743V-.381C3.592-.926 3.393-1.261 2.994-1.389 2.594-1.515 2.014-1.634 1.252-1.743 1.179-1.379 1.034-.98 .817-.545 1.47-.58 1.914-.58 2.15-.545 2.386-.508 2.504-.327 2.504 0V1.688C.471 1.651-.98 1.506-1.851 1.252-1.924 1.724-2.05 2.087-2.232 2.342-1.687 2.414-1.098 2.55-.463 2.75 .172 2.949 .998 3.303 2.014 3.812 1.579 3.812 1.016 3.775 .327 3.703-.363 3.63-.925 3.557-1.361 3.485-1.469 3.848-1.597 4.174-1.742 4.465-1.234 4.501-.653 4.683 0 5.01 .653 5.337 1.215 5.736 1.687 6.208 1.832 5.99 2.104 5.718 2.504 5.391 2.286 5.354 2.05 5.263 1.796 5.119 1.542 4.973 1.233 4.792 .871 4.574L3.484 4.629C4.209 5.064 4.844 5.5 5.389 5.936M1.034 9.421V7.406C1.034 7.115 1.052 6.589 1.089 5.827H0C.036 6.48 .054 7.006 .054 7.406V9.584C.054 9.838 .036 10.255 0 10.837H1.089C1.052 10.437 1.034 9.965 1.034 9.421M8.491 10.292C8.273 9.82 7.982 9.348 7.62 8.876 7.257 8.404 6.767 7.914 6.15 7.406 6.839 6.97 7.838 6.625 9.144 6.371 8.853 6.08 8.6 5.736 8.382 5.337 7.838 5.518 7.275 5.736 6.695 5.99 6.114 6.244 5.624 6.516 5.225 6.807 4.572 6.407 3.701 6.008 2.613 5.609 2.431 5.899 2.177 6.208 1.851 6.535 3.011 6.752 3.864 7.042 4.409 7.406 3.682 8.095 3.157 8.803 2.83 9.53L2.014 9.475V10.346C2.558 10.31 3.103 10.292 3.647 10.292ZM3.864 9.53C4.263 8.876 4.735 8.332 5.28 7.896 5.86 8.295 6.386 8.84 6.858 9.53ZM8.545-.545C8.255-.762 7.982-1.052 7.729-1.416 6.858-.617 5.842 .145 4.681 .871 4.971 1.161 5.189 1.416 5.334 1.634 6.386 .98 7.457 .254 8.545-.545" fill="#ffffff"/>
<path transform="matrix(1,0,0,-1,332.4407,317.9871)" d="M0 0C-.291 .146-.653 .272-1.088 .381-.69 1.107-.272 2.105 .163 3.376 .49 3.231 .834 3.122 1.198 3.049ZM3.484 10.837H8.981C8.799 10.619 8.563 10.337 8.273 9.993 7.982 9.647 7.656 9.257 7.294 8.822H10.069C10.033 8.277 10.015 7.533 10.015 6.589 10.015 5.681 10.033 4.882 10.069 4.193H2.667C2.05 4.193 1.342 4.156 .544 4.084V5.119C1.342 5.082 2.05 5.064 2.667 5.064H8.926V6.099H2.613C2.068 6.099 1.433 6.08 .708 6.045V6.97C1.433 6.934 2.068 6.916 2.613 6.916H8.926V8.059H3.592C2.648 8.059 1.886 8.041 1.306 8.005V8.549C.798 8.114 .344 7.714-.054 7.351-.345 7.678-.635 7.932-.925 8.114-.236 8.549 .471 9.148 1.198 9.911 1.923 10.673 2.54 11.49 3.048 12.361 3.447 12.143 3.9 11.961 4.409 11.817 4.009 11.526 3.701 11.199 3.484 10.837M5.987 8.822C6.423 9.257 6.767 9.674 7.021 10.074H2.776C2.413 9.639 2.014 9.221 1.579 8.822ZM3.375 1.96C3.375 1.597 3.383 1.297 3.402 1.062 3.42 .826 3.61 .708 3.973 .708H6.913C7.166 .708 7.384 .808 7.566 1.007 7.747 1.207 7.873 1.597 7.947 2.178L9.144 1.743C8.89 .871 8.618 .354 8.328 .191 8.037 .027 7.62-.054 7.076-.054H3.484C2.866-.018 2.512 .163 2.422 .49 2.331 .817 2.294 1.207 2.313 1.661 2.331 2.114 2.322 2.723 2.286 3.485H3.429C3.392 2.832 3.375 2.323 3.375 1.96M6.749 2.396C6.423 2.25 6.096 2.069 5.769 1.851 5.443 2.396 5.098 2.904 4.735 3.376 4.989 3.557 5.243 3.721 5.497 3.866 5.896 3.431 6.314 2.941 6.749 2.396M11.648 1.634C11.357 1.416 11.049 1.144 10.722 .817 10.105 1.724 9.397 2.559 8.6 3.322 8.781 3.503 8.999 3.703 9.253 3.921 10.196 3.049 10.995 2.287 11.648 1.634" fill="#ffffff"/>
<path transform="matrix(1,0,0,-1,48.0137,316.8047)" d="M0 0C-.509-.327-1.197-.78-2.068-1.361-2.25-1.07-2.486-.798-2.776-.545-1.651 .036-.563 .708 .49 1.47 .634 1.252 .889 .98 1.252 .653 .925 .545 .508 .327 0 0M-1.415 8.767V7.569C-1.415 7.097-1.397 6.589-1.361 6.045H-2.395C-2.359 6.589-2.34 7.097-2.34 7.569V8.767C-2.34 9.348-2.359 9.838-2.395 10.238H-1.361C-1.397 9.874-1.415 9.384-1.415 8.767M5.388 5.936C5.715 5.609 6.042 5.318 6.368 5.064 5.933 4.919 5.343 4.646 4.599 4.247 3.855 3.848 2.63 3.249 .925 2.451 2.267 2.486 3.973 2.577 6.042 2.723 5.715 3.085 5.461 3.34 5.28 3.485 5.388 3.521 5.642 3.739 6.042 4.139 6.767 3.448 7.529 2.632 8.328 1.688 8.073 1.543 7.783 1.325 7.457 1.035L6.695 1.96C5.824 1.887 4.79 1.815 3.592 1.743V-.381C3.592-.926 3.392-1.261 2.994-1.389 2.594-1.515 2.014-1.634 1.252-1.743 1.179-1.379 1.034-.98 .816-.545 1.47-.58 1.913-.58 2.15-.545 2.386-.508 2.504-.327 2.504 0V1.688C.471 1.651-.98 1.506-1.851 1.252-1.924 1.724-2.05 2.087-2.232 2.342-1.687 2.414-1.098 2.55-.463 2.75 .172 2.949 .997 3.303 2.014 3.812 1.578 3.812 1.015 3.775 .327 3.703-.363 3.63-.925 3.557-1.361 3.485-1.47 3.848-1.597 4.174-1.742 4.465-1.234 4.501-.653 4.683 0 5.01 .653 5.337 1.215 5.736 1.687 6.208 1.832 5.99 2.104 5.718 2.504 5.391 2.286 5.354 2.05 5.263 1.796 5.119 1.542 4.973 1.233 4.792 .871 4.574L3.483 4.629C4.209 5.064 4.844 5.5 5.388 5.936M1.034 9.421V7.406C1.034 7.115 1.052 6.589 1.089 5.827H0C.036 6.48 .055 7.006 .055 7.406V9.584C.055 9.838 .036 10.255 0 10.837H1.089C1.052 10.437 1.034 9.965 1.034 9.421M8.491 10.292C8.273 9.82 7.982 9.348 7.62 8.876 7.257 8.404 6.767 7.914 6.15 7.406 6.839 6.97 7.838 6.625 9.144 6.371 8.853 6.08 8.6 5.736 8.382 5.337 7.838 5.518 7.275 5.736 6.695 5.99 6.114 6.244 5.624 6.516 5.225 6.807 4.572 6.407 3.701 6.008 2.613 5.609 2.431 5.899 2.177 6.208 1.851 6.535 3.011 6.752 3.864 7.042 4.409 7.406 3.682 8.095 3.157 8.803 2.83 9.53L2.014 9.475V10.346C2.558 10.31 3.102 10.292 3.647 10.292ZM3.864 9.53C4.263 8.876 4.735 8.332 5.28 7.896 5.86 8.295 6.386 8.84 6.858 9.53ZM8.545-.545C8.254-.762 7.982-1.052 7.729-1.416 6.858-.617 5.842 .145 4.681 .871 4.971 1.161 5.189 1.416 5.334 1.634 6.386 .98 7.457 .254 8.545-.545" fill="#ffffff"/>
<path transform="matrix(1,0,0,-1,59.5917,317.8394)" d="M0 0C-.291 .146-.653 .272-1.089 .381-.69 1.107-.272 2.105 .163 3.376 .49 3.231 .834 3.122 1.197 3.049ZM3.483 10.837H8.981C8.799 10.619 8.563 10.337 8.273 9.993 7.982 9.647 7.656 9.257 7.293 8.822H10.069C10.033 8.277 10.015 7.533 10.015 6.589 10.015 5.681 10.033 4.882 10.069 4.193H2.667C2.05 4.193 1.342 4.156 .544 4.084V5.119C1.342 5.082 2.05 5.064 2.667 5.064H8.926V6.099H2.612C2.068 6.099 1.433 6.08 .708 6.045V6.97C1.433 6.934 2.068 6.916 2.612 6.916H8.926V8.059H3.592C2.648 8.059 1.886 8.041 1.306 8.005V8.549C.798 8.114 .344 7.714-.054 7.351-.345 7.678-.635 7.932-.925 8.114-.237 8.549 .471 9.148 1.197 9.911 1.923 10.673 2.539 11.49 3.048 12.361 3.447 12.143 3.9 11.961 4.409 11.817 4.009 11.526 3.701 11.199 3.483 10.837M5.987 8.822C6.422 9.257 6.767 9.674 7.021 10.074H2.776C2.413 9.639 2.014 9.221 1.578 8.822ZM3.375 1.96C3.375 1.597 3.383 1.297 3.402 1.062 3.42 .826 3.61 .708 3.973 .708H6.912C7.166 .708 7.384 .808 7.565 1.007 7.747 1.207 7.873 1.597 7.947 2.178L9.144 1.743C8.89 .871 8.618 .354 8.328 .191 8.037 .027 7.62-.054 7.076-.054H3.483C2.866-.018 2.512 .163 2.422 .49 2.331 .817 2.294 1.207 2.313 1.661 2.331 2.114 2.322 2.723 2.286 3.485H3.429C3.392 2.832 3.375 2.323 3.375 1.96M6.749 2.396C6.422 2.25 6.096 2.069 5.769 1.851 5.443 2.396 5.098 2.904 4.735 3.376 4.989 3.557 5.243 3.721 5.497 3.866 5.896 3.431 6.314 2.941 6.749 2.396M11.648 1.634C11.357 1.416 11.049 1.144 10.722 .817 10.105 1.724 9.397 2.559 8.6 3.322 8.781 3.503 8.999 3.703 9.253 3.921 10.196 3.049 10.995 2.287 11.648 1.634" fill="#ffffff"/>
<path transform="matrix(1,0,0,-1,118.0714,250.0928)" d="M0 0C0-.394 .019-.867 .059-1.418H-1.122V.236H-11.336V-1.713H-12.517C-12.478-1.24-12.458-.768-12.458-.295-12.458 .216-12.478 .728-12.517 1.24H.059C.019 .807 0 .393 0 0M-6.022-7.797C-5.314-7.797-4.586-7.778-3.838-7.738V-8.861C-4.586-8.822-5.314-8.801-6.022-8.801H-10.155C-10.982-8.801-11.71-8.822-12.34-8.861V-7.738C-11.71-7.778-11.002-7.797-10.214-7.797ZM-8.62-2.245H-3.661C-3.031-2.245-2.421-2.225-1.83-2.186V-3.249C-2.382-3.21-2.854-3.19-3.247-3.19H-8.679L-8.915-5.08H-.827C-.827-6.183-.896-7.384-1.033-8.683-1.172-9.983-1.496-10.741-2.007-10.957-2.519-11.173-3.327-11.341-4.428-11.46-4.507-11.026-4.685-10.612-4.959-10.219-3.936-10.219-3.316-10.179-3.1-10.101-2.884-10.023-2.677-9.875-2.48-9.658-2.283-9.442-2.146-8.231-2.066-6.025H-10.155C-9.84-2.915-9.683-1.063-9.683-.473L-8.384-.591C-8.502-1.221-8.581-1.772-8.62-2.245" fill="#ffffff"/>
<path transform="matrix(1,0,0,-1,123.149,253.3417)" d="M0 0C-.04-.63-.059-1.32-.059-2.067V-6.143C.531-5.71 1.181-5.12 1.889-4.371 2.046-4.726 2.244-5.12 2.48-5.553 1.85-6.065 1.259-6.548 .708-7 .157-7.452-.354-7.895-.827-8.329-.984-8.093-1.26-7.758-1.653-7.325-1.339-7.01-1.181-6.695-1.181-6.38V-1.063H-1.889C-2.283-1.063-2.697-1.084-3.129-1.122V.059C-2.697 .019-2.283 0-1.889 0ZM1.24 2.067C.964 1.831 .669 1.536 .354 1.181-.316 1.969-1.181 2.756-2.244 3.544-1.969 3.78-1.712 4.056-1.476 4.371-.571 3.623 .334 2.855 1.24 2.067M7.911 1.27C8.777 .226 9.742-.552 10.805-1.063 10.489-1.261 10.194-1.595 9.919-2.067 8.816-1.32 7.901-.453 7.173 .532 6.445 1.516 5.904 2.342 5.55 3.013 5.196 2.264 4.753 1.477 4.221 .65 3.69-.177 2.853-1.143 1.712-2.245 1.476-1.97 1.181-1.674 .827-1.359 1.456-.965 2.007-.493 2.48 .059 2.952 .61 3.385 1.23 3.779 1.92 4.172 2.608 4.467 3.209 4.664 3.721 4.861 4.233 4.998 4.646 5.078 4.962 5.432 4.804 5.845 4.646 6.317 4.489L6.081 4.017C6.435 3.229 7.045 2.313 7.911 1.27M4.487-3.662C4.998-3.466 5.589-3.151 6.258-2.717 6.927-2.284 7.498-1.831 7.971-1.359 8.364-1.831 8.698-2.206 8.974-2.481 8.423-2.717 7.754-3.052 6.967-3.485 6.179-3.919 5.352-4.332 4.487-4.726V-6.734C4.487-7.364 4.723-7.679 5.196-7.679H7.616C8.089-7.679 8.423-7.492 8.62-7.118 8.816-6.744 8.915-6.4 8.915-6.084 9.388-6.439 9.82-6.675 10.214-6.793 9.938-7.58 9.643-8.093 9.328-8.329 9.013-8.565 8.659-8.683 8.266-8.683H4.605C3.779-8.604 3.365-8.19 3.365-7.443V-2.304C3.365-1.753 3.345-1.221 3.306-.709H4.546C4.507-1.418 4.487-1.93 4.487-2.245Z" fill="#ffffff"/>
<path transform="matrix(1,0,0,-1,135.3113,252.5737)" d="M0 0V1.24C.905 1.201 1.732 1.181 2.48 1.181H10.864C11.572 1.181 12.418 1.201 13.402 1.24V0C12.418 .039 11.316 .059 10.096 .059 9.899-1.162 9.544-2.294 9.033-3.337 8.521-4.381 7.971-5.238 7.38-5.907 8.127-6.577 9.112-7.118 10.332-7.531 11.552-7.945 12.615-8.19 13.521-8.27 13.166-8.545 12.851-8.958 12.576-9.51 11.906-9.352 11.041-9.076 9.978-8.683 8.915-8.289 7.773-7.62 6.554-6.675 4.939-8.014 3.011-8.998 .768-9.628 .688-9.274 .413-8.88-.059-8.447 .61-8.368 1.525-8.122 2.686-7.709 3.847-7.295 4.841-6.715 5.668-5.966 4.29-4.548 3.306-2.521 2.716 .118H2.125C1.299 .118 .591 .078 0 0M6.495-5.198C7.754-3.662 8.541-1.911 8.856 .059H3.956C4.27-2.067 5.116-3.82 6.495-5.198M7.439 1.831C7.124 1.752 6.77 1.555 6.376 1.24 5.825 2.264 5.333 3.11 4.901 3.78 5.175 3.859 5.51 4.056 5.904 4.371 6.337 3.701 6.849 2.855 7.439 1.831" fill="#ffffff"/>
<path transform="matrix(1,0,0,-1,247.462,251.00839)" d="M0 0V-10.928H-1.063C-.984-10.298-.945-9.569-.945-8.742V-2.304C-1.181-2.856-1.476-3.446-1.83-4.076-2.067-3.84-2.362-3.584-2.716-3.308-2.243-2.678-1.771-1.723-1.299-.443-.827 .836-.571 1.792-.531 2.422-.217 2.342 .216 2.224 .767 2.067 .492 1.713 .236 1.024 0 0M10.037 1.181C9.997 .669 9.978-.02 9.978-.886 10.332-.886 10.706-.847 11.1-.768V-1.831C10.706-1.792 10.332-1.772 9.978-1.772 9.978-2.521 9.997-3.19 10.037-3.78H7.557V-5.08H9.151C9.624-5.041 10.017-5.021 10.332-5.021V-6.084C10.056-6.006 9.662-5.966 9.151-5.966H7.557V-7.088H9.388C9.82-7.088 10.214-7.069 10.568-7.029V-8.034C10.253-7.995 9.86-7.974 9.388-7.974H7.557V-9.628C8.58-9.707 9.78-9.649 11.159-9.451 10.923-9.844 10.765-10.258 10.686-10.692 9.19-10.73 7.783-10.711 6.465-10.633 5.146-10.553 3.838-10.081 2.539-9.215 2.184-9.726 1.712-10.337 1.122-11.046 .806-10.77 .492-10.553 .177-10.396 .846-9.806 1.397-9.156 1.83-8.447 1.318-7.738 .924-6.774 .65-5.553 .964-5.474 1.279-5.375 1.594-5.257 1.712-6.045 1.948-6.754 2.303-7.384 2.657-6.518 2.853-5.356 2.893-3.899 2.105-3.938 1.594-4.037 1.358-4.194 1.24-3.879 1.082-3.505 .886-3.072 1.24-3.033 1.544-2.629 1.801-1.861 2.056-1.093 2.263-.394 2.421 .236 1.948 .236 1.476 .216 1.004 .177V1.181C1.515 1.142 1.948 1.122 2.303 1.122H3.779C3.581 .689 3.148-.67 2.48-2.953H3.897C3.779-5.238 3.484-7.029 3.011-8.329 3.916-9.117 5.097-9.55 6.554-9.628V-7.974C5.845-7.974 5.097-7.995 4.31-8.034V-7.029C5.097-7.069 5.845-7.088 6.554-7.088V-5.966C5.963-5.966 5.274-6.006 4.487-6.084V-5.021C5.274-5.061 5.963-5.08 6.554-5.08V-3.78C5.884-3.78 5.215-3.801 4.546-3.84V-2.835C5.255-2.875 5.923-2.894 6.554-2.894V-1.772H5.55C4.998-1.772 4.526-1.792 4.133-1.831V-.768C4.565-.847 5.057-.886 5.609-.886H6.554V.295C5.923 .295 5.274 .275 4.605 .236V1.24C5.314 1.201 5.963 1.181 6.554 1.181 6.554 1.654 6.533 2.146 6.494 2.658H7.616C7.577 2.067 7.557 1.575 7.557 1.181ZM9.033 .295H7.557V-.88600006H9.033ZM9.033-1.772H7.557V-2.894H9.033ZM9.033-2.894" fill="#ffffff"/>
<path transform="matrix(1,0,0,-1,272.702,255.35)" d="M0 0C-.453-.375-.935-.778-1.446-1.211V-5.346C-1.446-6.015-1.683-6.428-2.155-6.586-2.627-6.743-3.257-6.861-4.044-6.941-4.084-6.428-4.28-5.937-4.635-5.464-3.73-5.503-3.159-5.503-2.922-5.464-2.686-5.424-2.568-5.228-2.568-4.873V-2.097H-2.745C-4.124-3.2-5.195-3.938-5.963-4.312-6.731-4.687-7.557-5.061-8.443-5.434-9.328-5.808-10.382-6.212-11.602-6.645-11.759-6.173-12.074-5.798-12.546-5.523-11.483-5.326-10.411-5.031-9.328-4.637-8.246-4.244-7.341-3.84-6.612-3.426-5.885-3.013-5.206-2.59-4.576-2.156H-10.303C-10.854-2.156-11.483-2.176-12.192-2.215V-1.034C-11.365-1.073-10.578-1.093-9.83-1.093V3.337C-9.83 4.046-9.851 4.814-9.889 5.641H-7.528C-7.371 6.35-7.272 6.882-7.232 7.236L-5.638 6.941C-5.954 6.507-6.19 6.074-6.347 5.641H-1.387C-1.427 4.814-1.446 4.046-1.446 3.337V.148C-.659 .817-.168 1.368 .03 1.802L1.27 .738C.876 .62 .452 .374 0 0M-2.568 4.755H-8.649V3.3370002H-2.568ZM-2.568 2.392H-8.649V1.033H-2.568ZM-3.159-1.093-2.568-.679V.089H-8.649V-1.093Z" fill="#ffffff"/>
<path transform="matrix(1,0,0,-1,108.4883,319.6373)" d="M0 0C0 .471-.019 .926-.054 1.361H1.143C1.07 1.035 1.015 .58 .98 0V-1.579C1.415-1.579 1.905-1.561 2.449-1.525V-2.505C1.905-2.469 1.415-2.451 .98-2.451V-4.683L2.068-4.247C2.068-4.502 2.086-4.829 2.123-5.228 1.796-5.337 1.415-5.5 .98-5.718V-10.074C.943-10.401 .789-10.646 .517-10.809 .245-10.973-.236-11.09-.925-11.163-.925-10.728-1.034-10.31-1.252-9.911-.49-9.983-.073-9.893 0-9.639V-6.099C-.653-6.39-1.143-6.662-1.47-6.916-1.543-6.589-1.687-6.19-1.905-5.718-1.143-5.537-.509-5.319 0-5.064V-2.451C-.69-2.451-1.271-2.469-1.742-2.505V-1.525C-1.306-1.561-.726-1.579 0-1.579ZM3.647-6.153V-5.228C4.191-5.264 4.681-5.282 5.116-5.282H9.307C9.198-5.791 8.962-6.398 8.6-7.106 8.237-7.814 7.801-8.477 7.293-9.094 7.729-9.385 8.264-9.621 8.899-9.802 9.533-9.983 10.178-10.092 10.831-10.129 10.468-10.382 10.232-10.745 10.124-11.218 9.397-11.109 8.754-10.936 8.191-10.7 7.628-10.464 7.057-10.129 6.477-9.693 5.606-10.419 4.481-10.963 3.102-11.327 3.029-11.036 2.757-10.709 2.286-10.346 3.084-10.238 3.783-10.065 4.381-9.829 4.98-9.594 5.443-9.331 5.769-9.04 5.189-8.35 4.681-7.388 4.245-6.153ZM9.28-1.797C9.08-2.269 8.89-2.687 8.709-3.049H10.831C10.795-3.376 10.777-3.703 10.777-4.03 10.777-4.321 10.795-4.647 10.831-5.01H9.743V-3.921H3.701V-5.01H2.667C2.703-4.683 2.721-4.356 2.721-4.03 2.721-3.667 2.703-3.34 2.667-3.049H7.729C8.273-1.67 8.545-.745 8.545-.272L9.852-.762C9.669-.98 9.479-1.326 9.28-1.797M7.076 .109C5.624 0 4.3-.128 3.102-.272 3.029 .09 2.903 .436 2.721 .762 3.955 .762 5.243 .825 6.586 .953 7.928 1.08 8.944 1.252 9.634 1.47 9.852 .961 10.051 .562 10.232 .272 9.579 .272 8.526 .218 7.076 .109M5.007-2.505C4.753-2.578 4.463-2.723 4.137-2.941 3.991-2.505 3.665-1.925 3.157-1.198 3.375-1.089 3.647-.926 3.973-.708 4.3-1.144 4.644-1.743 5.007-2.505M6.586-8.332C7.202-7.678 7.62-6.952 7.838-6.153H5.334C5.696-7.17 6.114-7.896 6.586-8.332M7.13-2.287C6.695-2.433 6.386-2.578 6.205-2.723 5.914-1.925 5.642-1.289 5.388-.817 5.715-.636 6.005-.49 6.259-.381 6.477-.89 6.767-1.525 7.13-2.287" fill="#ffffff"/>
<path transform="matrix(1,0,0,-1,121.808,324.5927)" d="M0 0C.362 .762 .671 1.615 .925 2.559 .308 2.559-.291 2.541-.871 2.505V3.485C-.218 3.448 .435 3.431 1.089 3.431 1.089 4.955 1.07 5.971 1.034 6.48H2.232C2.158 6.045 2.123 5.028 2.123 3.431 2.667 3.431 3.247 3.448 3.864 3.485V2.505C3.247 2.541 2.667 2.559 2.123 2.559V.545C2.376 .689 2.648 .871 2.939 1.089 3.592 .218 4.009-.436 4.191-.871 3.791-1.089 3.483-1.307 3.266-1.525 3.084-1.017 2.703-.436 2.123 .218V-3.812C2.123-4.574 2.141-5.391 2.177-6.262H.98C1.052-5.391 1.089-4.574 1.089-3.812V.218C.798-.799 .253-1.87-.544-2.995-.762-2.524-1.034-2.197-1.361-2.015-.816-1.435-.363-.762 0 0M4.082 5.01C4.88 4.973 5.624 4.955 6.314 4.955H10.559C10.414 3.431 10.169 2.114 9.824 1.007 9.479-.1 8.853-1.307 7.947-2.614 8.382-3.195 8.908-3.667 9.525-4.03 10.142-4.393 10.849-4.702 11.648-4.955 11.139-5.354 10.831-5.718 10.722-6.045 9.887-5.645 9.18-5.209 8.6-4.738 8.019-4.266 7.566-3.812 7.239-3.376 6.767-3.921 6.277-4.402 5.769-4.819 5.261-5.236 4.553-5.718 3.647-6.262 3.501-5.899 3.211-5.554 2.776-5.228 3.32-5.046 3.937-4.756 4.627-4.356 5.315-3.957 5.969-3.376 6.586-2.614 6.259-2.178 5.933-1.48 5.606-.517 5.28 .444 5.025 1.96 4.844 4.03H4.082ZM6.45 .299C6.613-.336 6.894-1.017 7.293-1.743 7.729-1.089 8.146-.282 8.545 .681 8.944 1.642 9.198 2.777 9.307 4.084H5.878C6.096 2.196 6.287 .934 6.45 .299" fill="#ffffff"/>
<path transform="matrix(1,0,0,-1,136.053,321.7339)" d="M0 0C.617 1.144 1.089 2.296 1.415 3.458 1.777 3.24 2.14 3.077 2.504 2.968 2.213 2.495 1.832 1.606 1.361 .299V-6.29C1.361-7.488 1.379-8.359 1.415-8.903H.326C.362-8.286 .381-7.397 .381-6.235V-1.498C.018-2.079-.345-2.641-.708-3.186-.962-2.787-1.234-2.496-1.524-2.314-1.125-1.915-.617-1.144 0 0M3.81 1.552C3.81 2.169 3.791 2.641 3.756 2.968H4.844C4.807 2.641 4.79 2.169 4.79 1.552V.082C5.188 .082 5.642 .099 6.15 .136V-.844C5.533-.808 5.08-.79 4.79-.79V-2.75H6.15C6.114-3.259 6.096-3.985 6.096-4.928 6.096-5.873 6.114-6.581 6.15-7.052H5.116V-6.507H3.429V-7.651H2.395C2.431-7.143 2.449-6.326 2.449-5.2 2.449-4.076 2.431-3.259 2.395-2.75H3.81V-.79C3.157-.79 2.613-.808 2.177-.844V.136C2.576 .099 3.12 .082 3.81 .082ZM5.116-3.567H3.4290002V-5.691H5.116ZM6.722 0C7.103 1.035 7.383 2.132 7.565 3.295 7.928 3.149 8.363 3.004 8.872 2.859 8.617 2.604 8.291 1.806 7.892 .463H9.198C9.887 .463 10.45 .481 10.886 .517V-.354C10.523-.318 10.214-.299 9.96-.299 9.996-2.551 9.669-4.511 8.981-6.181 9.597-7.052 10.287-7.651 11.049-7.978 10.649-8.304 10.377-8.612 10.232-8.903 9.652-8.504 9.016-7.869 8.327-6.997 7.71-7.76 6.894-8.468 5.878-9.121 5.661-8.83 5.388-8.558 5.062-8.304 6.005-7.941 6.894-7.234 7.729-6.181 7.293-5.346 6.948-4.076 6.695-2.369L6.477-2.859C6.259-2.605 5.987-2.369 5.661-2.151 5.987-1.752 6.341-1.035 6.722 0M7.457-1.443C7.747-3.331 8.037-4.566 8.327-5.146 8.726-4.094 8.944-2.496 8.981-.354H7.62C7.511-.645 7.348-1.062 7.13-1.606Z" fill="#ffffff"/>
<path transform="matrix(1,0,0,-1,244.0995,324.9739)" d="M0 0C-.509-.146-1.107-.345-1.796-.599V-4.465C-1.833-4.828-1.959-5.137-2.177-5.391-2.395-5.645-2.993-5.844-3.973-5.99-4.082-5.554-4.227-5.137-4.409-4.738-3.538-4.738-3.067-4.674-2.993-4.547-2.921-4.42-2.885-4.284-2.885-4.139V-.926C-3.574-1.144-4.137-1.361-4.572-1.579-4.717-1.18-4.863-.799-5.007-.436-4.645-.363-3.938-.182-2.885 .109V2.941C-3.647 2.941-4.319 2.904-4.898 2.832V3.921C-4.354 3.884-3.683 3.866-2.885 3.866-2.885 4.919-2.903 5.881-2.939 6.752H-1.687C-1.76 5.953-1.796 4.991-1.796 3.866-.962 3.866-.345 3.884 .054 3.921V2.886C-.418 2.922-1.034 2.941-1.796 2.941V.381C-1.397 .49-.835 .689-.109 .98-.109 .653-.073 .327 0 0M7.457 6.262V5.119C6.876 5.155 6.422 5.173 6.096 5.173H1.959V2.723H6.804C6.767 2.142 6.749 1.379 6.749 .436 6.749-.472 6.767-1.18 6.804-1.688H1.959V-4.247H6.15C6.695-4.247 7.202-4.23 7.674-4.193V-5.282C7.202-5.282 6.712-5.263 6.205-5.228H.816C.889-4.574 .925-3.866 .925-3.104V4.139C.925 4.828 .907 5.518 .871 6.208H6.042C6.404 6.244 6.876 6.262 7.457 6.262M5.661 1.797H1.9599998V-.76199999H5.661ZM5.661-.762" fill="#ffffff"/>
<path transform="matrix(1,0,0,-1,257.6913,329.1125)" d="M0 0C-.472-.109-1.152-.264-2.041-.463-2.931-.662-3.72-.889-4.409-1.144-4.482-.708-4.572-.272-4.681 .163-3.701 .272-2.894 .381-2.259 .49-1.624 .599-.871 .744 0 .926-.037 .526-.037 .218 0 0M-.925 7.678C-.635 7.46-.237 7.224 .272 6.97-.091 6.716-.481 6.28-.898 5.663-1.316 5.046-2.014 4.156-2.994 2.995-1.579 3.14-.635 3.249-.163 3.322-.163 3.031-.128 2.704-.054 2.342-.672 2.305-1.298 2.25-1.932 2.178-2.567 2.105-3.23 1.978-3.919 1.797-4.101 2.268-4.264 2.65-4.409 2.941-4.047 3.158-3.629 3.521-3.157 4.03-2.686 4.538-2.268 5.1-1.905 5.718-2.486 5.718-2.958 5.691-3.32 5.636-3.683 5.582-3.992 5.5-4.245 5.391-4.354 5.754-4.482 6.117-4.626 6.48-4.3 6.698-3.91 7.233-3.456 8.087-3.003 8.939-2.631 9.82-2.34 10.728-2.087 10.51-1.687 10.292-1.143 10.074-1.434 9.747-1.761 9.257-2.123 8.604-2.486 7.95-2.921 7.243-3.429 6.48-3.139 6.48-2.486 6.516-1.47 6.589-1.252 6.988-1.071 7.351-.925 7.678M2.776 9.312H6.422C5.733 8.041 5.243 7.097 4.953 6.48H7.239C7.202 5.899 7.184 5.318 7.184 4.738V3.322C7.184 2.849 7.202 2.359 7.239 1.851H6.205V2.505H1.851V.109C1.851-.508 2.213-.817 2.939-.817H5.878C6.24-.817 6.485-.698 6.613-.463 6.74-.227 6.839 .127 6.912 .599 7.275 .417 7.692 .272 8.164 .163 7.91-.671 7.628-1.189 7.321-1.389 7.012-1.588 6.658-1.688 6.259-1.688H2.558C1.433-1.688 .871-1.234 .871-.327V4.683C.871 5.263 .852 5.862 .816 6.48H3.81C4.281 7.351 4.608 8.005 4.79 8.441H2.34C1.759 7.605 1.324 6.988 1.034 6.589 .78 6.807 .49 7.006 .163 7.188 .599 7.768 1.007 8.359 1.388 8.958 1.769 9.557 2.104 10.219 2.395 10.945 2.794 10.728 3.175 10.528 3.538 10.346 3.32 10.092 3.066 9.747 2.776 9.312M3.538 5.609H1.8510001V3.3220003H3.538ZM6.205 5.609H4.463V3.3220003H6.205ZM6.205 3.322" fill="#ffffff"/>
<path transform="matrix(1,0,0,-1,268.4529,321.7339)" d="M0 0C.617 1.144 1.089 2.296 1.415 3.458 1.777 3.24 2.141 3.077 2.504 2.968 2.213 2.495 1.832 1.606 1.361 .299V-6.29C1.361-7.488 1.379-8.359 1.415-8.903H.327C.362-8.286 .381-7.397 .381-6.235V-1.498C.018-2.079-.345-2.641-.707-3.186-.962-2.787-1.234-2.496-1.524-2.314-1.125-1.915-.617-1.144 0 0M3.81 1.552C3.81 2.169 3.791 2.641 3.756 2.968H4.844C4.808 2.641 4.79 2.169 4.79 1.552V.082C5.189 .082 5.642 .099 6.15 .136V-.844C5.533-.808 5.08-.79 4.79-.79V-2.75H6.15C6.114-3.259 6.096-3.985 6.096-4.928 6.096-5.873 6.114-6.581 6.15-7.052H5.116V-6.507H3.429V-7.651H2.395C2.431-7.143 2.449-6.326 2.449-5.2 2.449-4.076 2.431-3.259 2.395-2.75H3.81V-.79C3.157-.79 2.613-.808 2.177-.844V.136C2.576 .099 3.12 .082 3.81 .082ZM5.116-3.567H3.4290002V-5.691H5.116ZM6.722 0C7.103 1.035 7.384 2.132 7.566 3.295 7.928 3.149 8.363 3.004 8.872 2.859 8.618 2.604 8.291 1.806 7.892 .463H9.199C9.887 .463 10.45 .481 10.886 .517V-.354C10.523-.318 10.214-.299 9.96-.299 9.996-2.551 9.67-4.511 8.981-6.181 9.597-7.052 10.287-7.651 11.049-7.978 10.649-8.304 10.377-8.612 10.233-8.903 9.652-8.504 9.017-7.869 8.328-6.997 7.71-7.76 6.894-8.468 5.878-9.121 5.661-8.83 5.389-8.558 5.062-8.304 6.005-7.941 6.894-7.234 7.729-6.181 7.294-5.346 6.948-4.076 6.695-2.369L6.477-2.859C6.259-2.605 5.987-2.369 5.661-2.151 5.987-1.752 6.341-1.035 6.722 0M7.457-1.443C7.747-3.331 8.037-4.566 8.328-5.146 8.726-4.094 8.944-2.496 8.981-.354H7.62C7.511-.645 7.348-1.062 7.13-1.606Z" fill="#ffffff"/>
<path transform="matrix(1,0,0,-1,66.2807,345.87159)" stroke-width="1.2" stroke-linecap="butt" stroke-miterlimit="10" stroke-linejoin="miter" fill="none" stroke="#ffffff" d="M0 0C-.091 6.249 4.949 11.291 11.1 11.341H106.274C112.519 11.291 117.558 6.249 117.558 .029 117.558-6.191 112.519-11.233 106.274-11.341H11.1C4.949-11.233-.091-6.191 0 0"/>
<path transform="matrix(1,0,0,-1,94.3929,349.8932)" d="M0 0C-.509-.327-1.197-.78-2.068-1.361-2.25-1.07-2.486-.798-2.776-.545-1.652 .036-.563 .708 .49 1.47 .634 1.252 .889 .98 1.252 .653 .925 .545 .508 .327 0 0M-1.415 8.767V7.569C-1.415 7.097-1.397 6.589-1.361 6.044H-2.395C-2.359 6.589-2.34 7.097-2.34 7.569V8.767C-2.34 9.348-2.359 9.838-2.395 10.238H-1.361C-1.397 9.874-1.415 9.384-1.415 8.767M5.388 5.936C5.715 5.609 6.042 5.318 6.368 5.064 5.933 4.919 5.342 4.646 4.599 4.247 3.855 3.848 2.63 3.249 .925 2.45 2.267 2.486 3.973 2.577 6.042 2.723 5.715 3.085 5.461 3.34 5.279 3.485 5.388 3.521 5.642 3.739 6.042 4.139 6.767 3.448 7.529 2.632 8.327 1.688 8.073 1.543 7.783 1.325 7.457 1.035L6.695 1.96C5.824 1.887 4.79 1.815 3.592 1.743V-.381C3.592-.926 3.392-1.261 2.994-1.389 2.594-1.515 2.014-1.634 1.252-1.743 1.179-1.379 1.034-.98 .816-.545 1.47-.58 1.913-.58 2.15-.545 2.385-.508 2.504-.327 2.504 0V1.688C.471 1.651-.98 1.506-1.851 1.252-1.924 1.724-2.05 2.087-2.232 2.342-1.687 2.414-1.098 2.55-.463 2.75 .172 2.949 .997 3.303 2.014 3.812 1.578 3.812 1.015 3.775 .326 3.703-.363 3.63-.925 3.557-1.361 3.485-1.47 3.848-1.597 4.174-1.742 4.465-1.234 4.501-.653 4.683 0 5.01 .653 5.337 1.215 5.736 1.687 6.208 1.832 5.99 2.104 5.718 2.504 5.391 2.286 5.354 2.05 5.263 1.796 5.119 1.542 4.973 1.233 4.792 .871 4.574L3.483 4.629C4.209 5.064 4.844 5.5 5.388 5.936M1.034 9.421V7.406C1.034 7.115 1.052 6.589 1.089 5.827H0C.036 6.48 .054 7.006 .054 7.406V9.584C.054 9.838 .036 10.255 0 10.837H1.089C1.052 10.437 1.034 9.965 1.034 9.421M8.491 10.292C8.273 9.82 7.982 9.348 7.62 8.876 7.257 8.404 6.767 7.914 6.15 7.406 6.839 6.97 7.838 6.625 9.144 6.371 8.853 6.08 8.6 5.736 8.382 5.337 7.838 5.518 7.275 5.736 6.695 5.99 6.114 6.244 5.624 6.516 5.225 6.807 4.572 6.407 3.701 6.008 2.613 5.609 2.431 5.899 2.177 6.208 1.851 6.535 3.011 6.752 3.864 7.042 4.409 7.406 3.682 8.095 3.157 8.803 2.83 9.53L2.014 9.475V10.346C2.558 10.31 3.102 10.292 3.647 10.292ZM3.864 9.53C4.263 8.876 4.735 8.332 5.279 7.896 5.86 8.295 6.386 8.839 6.858 9.53ZM8.545-.545C8.254-.762 7.982-1.052 7.729-1.416 6.858-.617 5.842 .145 4.681 .871 4.971 1.161 5.189 1.416 5.334 1.634 6.386 .98 7.457 .254 8.545-.545" fill="#ffffff"/>
<path transform="matrix(1,0,0,-1,105.9709,350.9278)" d="M0 0C-.291 .146-.653 .272-1.089 .381-.69 1.107-.272 2.105 .163 3.376 .49 3.231 .834 3.122 1.197 3.049ZM3.483 10.837H8.981C8.799 10.619 8.563 10.337 8.273 9.993 7.982 9.647 7.656 9.257 7.293 8.822H10.069C10.033 8.277 10.015 7.533 10.015 6.589 10.015 5.681 10.033 4.882 10.069 4.193H2.667C2.05 4.193 1.342 4.156 .544 4.084V5.119C1.342 5.082 2.05 5.064 2.667 5.064H8.926V6.099H2.612C2.068 6.099 1.433 6.08 .708 6.045V6.97C1.433 6.934 2.068 6.916 2.612 6.916H8.926V8.059H3.592C2.648 8.059 1.886 8.041 1.306 8.005V8.549C.798 8.114 .344 7.714-.054 7.351-.345 7.678-.635 7.932-.925 8.114-.237 8.549 .471 9.148 1.197 9.911 1.923 10.673 2.539 11.49 3.048 12.361 3.447 12.143 3.9 11.961 4.409 11.817 4.009 11.526 3.701 11.199 3.483 10.837M5.987 8.822C6.422 9.257 6.767 9.674 7.021 10.074H2.776C2.413 9.639 2.014 9.221 1.578 8.822ZM3.374 1.96C3.374 1.597 3.383 1.297 3.402 1.062 3.42 .826 3.61 .708 3.973 .708H6.912C7.166 .708 7.383 .808 7.565 1.007 7.747 1.207 7.873 1.597 7.947 2.178L9.144 1.743C8.89 .871 8.617 .354 8.327 .191 8.037 .027 7.62-.054 7.076-.054H3.483C2.866-.018 2.512 .163 2.422 .49 2.331 .817 2.294 1.207 2.313 1.661 2.331 2.114 2.322 2.723 2.286 3.485H3.429C3.392 2.832 3.374 2.323 3.374 1.96M6.749 2.396C6.422 2.25 6.096 2.069 5.769 1.851 5.443 2.396 5.098 2.904 4.735 3.376 4.989 3.557 5.243 3.721 5.497 3.866 5.896 3.431 6.314 2.941 6.749 2.396M11.648 1.634C11.357 1.416 11.049 1.144 10.722 .817 10.105 1.724 9.397 2.559 8.6 3.322 8.781 3.503 8.998 3.703 9.253 3.921 10.196 3.049 10.995 2.287 11.648 1.634" fill="#ffffff"/>
<path transform="matrix(1,0,0,-1,131.1014,340.3635)" d="M0 0C-.653 .036-1.216 .054-1.687 .054H-4.899C-5.153-.454-5.461-1.017-5.824-1.634V-8.441C-5.824-9.167-5.806-9.983-5.769-10.891H-6.967C-6.931-10.02-6.912-9.203-6.912-8.441V-3.104C-8.037-4.665-9.562-6.099-11.484-7.406-11.775-6.97-12.047-6.662-12.301-6.48-11.575-6.153-10.613-5.455-9.416-4.384-8.219-3.313-7.112-1.834-6.096 .054H-9.688C-10.378 .054-11.103 .036-11.865 0V1.089C-10.777 1.052-9.942 1.035-9.362 1.035H-1.742C-1.271 1.035-.69 1.052 0 1.089ZM-4.844-3.213C-4.554-2.959-4.318-2.705-4.137-2.45-3.266-3.25-2.522-3.948-1.905-4.547-1.288-5.146-.707-5.736-.163-6.317-.526-6.608-.853-6.916-1.143-7.243-1.833-6.371-3.067-5.029-4.844-3.213" fill="#ffffff"/>
<path transform="matrix(1,0,0,-1,139.4138,340.4724)" d="M0 0V-1.144H3.756C4.263-1.144 4.88-1.126 5.606-1.089V-2.069C4.88-2.034 4.263-2.015 3.756-2.015H0V-2.941H3.756C3.719-3.485 3.701-4.157 3.701-4.955 3.701-5.754 3.719-6.444 3.756-7.025H0V-7.95H2.449C3.102-7.95 3.791-7.933 4.518-7.896V-8.767C3.828-8.732 3.157-8.713 2.504-8.713H0V-9.693H3.538C4.154-9.693 4.825-9.674 5.552-9.639V-10.564C4.825-10.528 4.172-10.51 3.592-10.51H-4.245C-4.972-10.51-5.715-10.528-6.477-10.564V-9.639C-5.715-9.674-4.99-9.693-4.3-9.693H-1.089V-8.713H-2.994C-3.864-8.713-4.663-8.732-5.388-8.767V-7.896C-4.445-7.933-3.629-7.95-2.939-7.95H-1.089V-7.025H-4.735C-4.7-6.118-4.681-5.428-4.681-4.955-4.681-4.484-4.7-3.812-4.735-2.941H-1.089V-2.015H-4.79C-5.298-2.015-5.897-2.034-6.586-2.069V-1.089C-5.897-1.126-5.298-1.144-4.79-1.144H-1.089V-.054C-1.815-.091-3.157-.182-5.116-.327-5.225 0-5.371 .308-5.552 .599-3.52 .635-1.715 .735-.136 .899 1.442 1.062 2.576 1.252 3.266 1.47 3.41 1.107 3.682 .744 4.082 .381 2.05 .199 .689 .072 0 0M-1.089-3.812H-3.647V-4.574H-1.089ZM-1.089-5.445H-3.647V-6.1530005H-1.089ZM2.667-3.812H0V-4.574H2.667ZM2.613-5.445H0V-6.1530005H2.613ZM2.613-6.153" fill="#ffffff"/>
<path transform="matrix(1,0,0,-1,156.9246,339.1655)" d="M0 0C.544 0 1.161 .018 1.851 .054V-.871C1.161-.836 .544-.817 0-.817H-2.177V-2.233H.871C.834-2.85 .816-3.431 .816-3.975 .816-4.52 .834-5.083 .871-5.663H-4.898C-4.5-5.918-4.191-6.118-3.973-6.262-4.3-6.48-4.536-6.68-4.681-6.861H.435C1.015-6.861 1.633-6.826 2.286-6.752V-7.787C1.633-7.751 .997-7.733 .381-7.733H-1.197C-1.561-8.35-2.05-9.022-2.667-9.747-1.034-10.183 .508-10.655 1.959-11.163 1.596-11.417 1.306-11.726 1.089-12.089-.291-11.471-1.815-10.927-3.484-10.455-3.992-10.819-4.636-11.145-5.416-11.436-6.196-11.726-6.94-11.926-7.647-12.035-8.355-12.143-8.999-12.234-9.579-12.307-9.688-11.835-9.925-11.453-10.287-11.163-9.598-11.199-8.872-11.181-8.11-11.109-7.348-11.036-6.659-10.9-6.042-10.7-5.425-10.501-4.935-10.292-4.572-10.074-5.769-9.784-6.949-9.53-8.11-9.312-7.566-8.767-7.058-8.241-6.586-7.733H-8.872C-9.489-7.733-10.088-7.751-10.668-7.787V-6.807C-9.943-6.844-9.344-6.861-8.872-6.861H-5.987C-5.625-6.426-5.334-6.027-5.116-5.663H-9.144C-9.108-5.083-9.09-4.52-9.09-3.975-9.09-3.431-9.108-2.85-9.144-2.233H-6.15V-.817H-8.273C-8.891-.817-9.544-.836-10.233-.871V.054C-9.544 .018-8.908 0-8.328 0ZM-6.15-3.104H-8.055V-4.847H-6.15ZM-3.701-9.421C-3.266-8.985-2.813-8.423-2.34-7.733H-5.28C-5.606-8.059-5.933-8.405-6.259-8.767-5.679-8.876-4.826-9.094-3.701-9.421M-3.157-.817H-5.116V-2.233H-3.157ZM-3.157-3.104H-5.116V-4.847H-3.157ZM-.218-3.104H-2.177V-4.847H-.218ZM-.218-4.847" fill="#ffffff"/>
<path transform="matrix(1,0,0,-1,200.894,276.9725)" stroke-width="1.2" stroke-linecap="butt" stroke-miterlimit="10" stroke-linejoin="miter" fill="none" stroke="#ffffff" d="M0 0C-.038 6.273 5.001 11.315 11.336 11.341H106.274C112.571 11.315 117.611 6.273 117.611 .053 117.611-6.167 112.571-11.209 106.274-11.105H11.336C5.001-11.209-.038-6.167 0 0"/>
<path transform="matrix(1,0,0,-1,232.483,272.3943)" d="M0 0V-1.144H3.756C4.263-1.144 4.88-1.126 5.606-1.089V-2.069C4.88-2.034 4.263-2.015 3.756-2.015H0V-2.941H3.756C3.719-3.485 3.701-4.157 3.701-4.955 3.701-5.754 3.719-6.444 3.756-7.025H0V-7.95H2.449C3.102-7.95 3.791-7.933 4.517-7.896V-8.767C3.828-8.732 3.157-8.713 2.504-8.713H0V-9.693H3.538C4.155-9.693 4.826-9.674 5.552-9.639V-10.564C4.826-10.528 4.172-10.51 3.592-10.51H-4.245C-4.972-10.51-5.715-10.528-6.477-10.564V-9.639C-5.715-9.674-4.99-9.693-4.3-9.693H-1.089V-8.713H-2.994C-3.864-8.713-4.663-8.732-5.388-8.767V-7.896C-4.445-7.933-3.629-7.95-2.939-7.95H-1.089V-7.025H-4.735C-4.7-6.118-4.681-5.428-4.681-4.955-4.681-4.484-4.7-3.812-4.735-2.941H-1.089V-2.015H-4.79C-5.298-2.015-5.897-2.034-6.586-2.069V-1.089C-5.897-1.126-5.298-1.144-4.79-1.144H-1.089V-.054C-1.815-.091-3.157-.182-5.116-.327-5.225 0-5.371 .308-5.552 .599-3.52 .635-1.714 .735-.136 .898 1.442 1.062 2.576 1.252 3.266 1.47 3.41 1.107 3.682 .744 4.082 .381 2.05 .199 .689 .072 0 0M-1.089-3.812H-3.647V-4.574H-1.089ZM-1.089-5.446H-3.647V-6.1540005H-1.089ZM2.667-3.812H0V-4.574H2.667ZM2.613-5.446H0V-6.1540005H2.613ZM2.613-6.153" fill="#ffffff"/>
<path transform="matrix(1,0,0,-1,249.9935,271.0873)" d="M0 0C.544 0 1.161 .018 1.851 .054V-.871C1.161-.836 .544-.817 0-.817H-2.177V-2.233H.871C.834-2.85 .817-3.431 .817-3.975 .817-4.52 .834-5.083 .871-5.663H-4.898C-4.5-5.918-4.191-6.118-3.973-6.262-4.3-6.48-4.536-6.68-4.681-6.861H.435C1.015-6.861 1.633-6.826 2.286-6.752V-7.787C1.633-7.751 .998-7.733 .381-7.733H-1.197C-1.561-8.35-2.05-9.022-2.667-9.747-1.034-10.183 .508-10.655 1.959-11.163 1.596-11.417 1.306-11.726 1.089-12.089-.291-11.471-1.815-10.927-3.483-10.455-3.992-10.819-4.636-11.145-5.416-11.436-6.196-11.726-6.94-11.926-7.647-12.035-8.355-12.143-8.999-12.234-9.579-12.307-9.688-11.835-9.925-11.453-10.287-11.163-9.598-11.199-8.872-11.181-8.11-11.109-7.348-11.036-6.659-10.9-6.042-10.7-5.425-10.501-4.935-10.292-4.572-10.074-5.769-9.784-6.949-9.53-8.11-9.312-7.566-8.767-7.058-8.241-6.586-7.733H-8.872C-9.489-7.733-10.088-7.751-10.668-7.787V-6.807C-9.942-6.843-9.344-6.861-8.872-6.861H-5.987C-5.625-6.426-5.334-6.027-5.116-5.663H-9.144C-9.108-5.083-9.089-4.52-9.089-3.975-9.089-3.431-9.108-2.85-9.144-2.233H-6.15V-.817H-8.273C-8.891-.817-9.544-.836-10.233-.871V.054C-9.544 .018-8.908 0-8.327 0ZM-6.15-3.104H-8.055V-4.847H-6.15ZM-3.701-9.421C-3.266-8.985-2.812-8.423-2.34-7.733H-5.279C-5.606-8.059-5.933-8.405-6.259-8.767-5.679-8.876-4.826-9.094-3.701-9.421M-3.157-.817H-5.116V-2.233H-3.157ZM-3.157-3.104H-5.116V-4.847H-3.157ZM-.218-3.104H-2.177V-4.847H-.218ZM-.218-4.846" fill="#ffffff"/>
<path transform="matrix(1,0,0,-1,265.7627,272.2853)" d="M0 0C-.653 .036-1.216 .054-1.687 .054H-4.898C-5.153-.454-5.461-1.017-5.824-1.634V-8.441C-5.824-9.167-5.806-9.983-5.769-10.891H-6.967C-6.931-10.02-6.912-9.203-6.912-8.441V-3.104C-8.037-4.665-9.561-6.099-11.484-7.406-11.775-6.97-12.047-6.662-12.301-6.48-11.575-6.153-10.613-5.455-9.416-4.384-8.219-3.313-7.112-1.834-6.096 .054H-9.688C-10.378 .054-11.103 .036-11.865 0V1.089C-10.777 1.053-9.942 1.035-9.362 1.035H-1.742C-1.27 1.035-.69 1.053 0 1.089ZM-4.844-3.213C-4.554-2.959-4.319-2.705-4.137-2.451-3.266-3.249-2.522-3.948-1.905-4.547-1.288-5.146-.707-5.736-.163-6.317-.526-6.608-.853-6.916-1.143-7.243-1.833-6.371-3.067-5.029-4.844-3.213" fill="#ffffff"/>
<path transform="matrix(1,0,0,-1,270.6459,281.815)" d="M0 0C-.509-.327-1.197-.78-2.068-1.361-2.25-1.07-2.486-.798-2.776-.545-1.651 .036-.563 .708 .49 1.47 .635 1.252 .889 .98 1.252 .653 .925 .545 .508 .327 0 0M-1.415 8.767V7.569C-1.415 7.097-1.397 6.589-1.361 6.045H-2.395C-2.359 6.589-2.34 7.097-2.34 7.569V8.767C-2.34 9.348-2.359 9.838-2.395 10.238H-1.361C-1.397 9.874-1.415 9.384-1.415 8.767M5.389 5.936C5.715 5.609 6.042 5.318 6.368 5.064 5.933 4.919 5.343 4.647 4.599 4.247 3.855 3.848 2.63 3.249 .925 2.451 2.267 2.486 3.973 2.577 6.042 2.723 5.715 3.085 5.461 3.34 5.28 3.485 5.389 3.521 5.642 3.739 6.042 4.139 6.767 3.449 7.529 2.632 8.328 1.688 8.073 1.543 7.783 1.325 7.457 1.035L6.695 1.96C5.824 1.887 4.79 1.815 3.592 1.743V-.381C3.592-.926 3.393-1.261 2.994-1.389 2.594-1.515 2.014-1.634 1.252-1.743 1.179-1.379 1.034-.98 .817-.545 1.47-.58 1.914-.58 2.15-.545 2.386-.508 2.504-.327 2.504 0V1.688C.471 1.652-.98 1.506-1.851 1.252-1.924 1.724-2.05 2.087-2.232 2.342-1.687 2.414-1.098 2.55-.463 2.75 .172 2.949 .998 3.303 2.014 3.812 1.578 3.812 1.016 3.775 .327 3.703-.363 3.63-.925 3.557-1.361 3.485-1.469 3.848-1.597 4.174-1.742 4.465-1.234 4.501-.653 4.683 0 5.01 .653 5.337 1.215 5.736 1.687 6.208 1.832 5.99 2.104 5.718 2.504 5.391 2.286 5.354 2.05 5.263 1.796 5.119 1.542 4.973 1.233 4.792 .871 4.574L3.484 4.629C4.209 5.064 4.844 5.5 5.389 5.936M1.034 9.421V7.406C1.034 7.115 1.052 6.589 1.089 5.827H0C.036 6.48 .054 7.006 .054 7.406V9.584C.054 9.838 .036 10.255 0 10.837H1.089C1.052 10.437 1.034 9.965 1.034 9.421M8.491 10.292C8.273 9.82 7.982 9.348 7.62 8.876 7.257 8.404 6.767 7.914 6.15 7.406 6.839 6.97 7.838 6.625 9.144 6.371 8.853 6.08 8.6 5.736 8.382 5.337 7.838 5.518 7.275 5.736 6.695 5.99 6.114 6.244 5.624 6.516 5.225 6.807 4.572 6.407 3.701 6.008 2.613 5.609 2.431 5.899 2.177 6.208 1.851 6.535 3.011 6.752 3.864 7.043 4.409 7.406 3.682 8.095 3.157 8.803 2.83 9.53L2.014 9.475V10.346C2.558 10.31 3.103 10.292 3.647 10.292ZM3.864 9.53C4.263 8.876 4.735 8.332 5.28 7.896 5.86 8.295 6.386 8.84 6.858 9.53ZM8.545-.545C8.255-.762 7.982-1.053 7.729-1.416 6.858-.617 5.842 .145 4.681 .871 4.971 1.161 5.189 1.416 5.334 1.634 6.386 .98 7.457 .254 8.545-.545" fill="#ffffff"/>
<path transform="matrix(1,0,0,-1,282.2238,282.8496)" d="M0 0C-.291 .145-.653 .272-1.088 .381-.69 1.107-.272 2.105 .163 3.376 .49 3.231 .834 3.122 1.198 3.049ZM3.484 10.837H8.981C8.799 10.619 8.563 10.337 8.273 9.993 7.982 9.647 7.656 9.257 7.294 8.822H10.069C10.033 8.277 10.015 7.533 10.015 6.589 10.015 5.681 10.033 4.882 10.069 4.193H2.667C2.05 4.193 1.342 4.156 .544 4.084V5.119C1.342 5.082 2.05 5.064 2.667 5.064H8.926V6.099H2.613C2.068 6.099 1.433 6.08 .708 6.045V6.97C1.433 6.934 2.068 6.916 2.613 6.916H8.926V8.059H3.592C2.648 8.059 1.886 8.041 1.306 8.005V8.549C.798 8.114 .345 7.714-.054 7.351-.345 7.678-.635 7.932-.925 8.114-.236 8.549 .471 9.148 1.198 9.911 1.923 10.673 2.54 11.49 3.048 12.361 3.447 12.143 3.9 11.961 4.409 11.817 4.009 11.526 3.701 11.199 3.484 10.837M5.987 8.822C6.423 9.257 6.767 9.674 7.021 10.074H2.776C2.413 9.639 2.014 9.221 1.579 8.822ZM3.375 1.96C3.375 1.597 3.383 1.298 3.402 1.062 3.42 .826 3.61 .708 3.973 .708H6.913C7.166 .708 7.384 .808 7.566 1.007 7.747 1.207 7.873 1.597 7.947 2.178L9.144 1.743C8.89 .871 8.618 .354 8.328 .191 8.037 .027 7.62-.054 7.076-.054H3.484C2.866-.018 2.512 .163 2.422 .49 2.331 .817 2.294 1.207 2.313 1.661 2.331 2.114 2.322 2.723 2.286 3.485H3.429C3.392 2.832 3.375 2.323 3.375 1.96M6.749 2.396C6.423 2.251 6.096 2.069 5.769 1.851 5.443 2.396 5.098 2.904 4.735 3.376 4.989 3.557 5.243 3.721 5.497 3.866 5.896 3.431 6.314 2.941 6.749 2.396M11.648 1.634C11.357 1.416 11.049 1.144 10.722 .817 10.105 1.724 9.397 2.559 8.6 3.322 8.781 3.503 8.999 3.703 9.253 3.921 10.196 3.049 10.995 2.287 11.648 1.634" fill="#ffffff"/>
<path transform="matrix(1,0,0,-1,200.894,344.9265)" stroke-width="1.2" stroke-linecap="butt" stroke-miterlimit="10" stroke-linejoin="miter" fill="none" stroke="#ffffff" d="M0 0C-.038 6.257 5.001 11.299 11.336 11.341H106.274C112.571 11.299 117.611 6.257 117.611 .037 117.611-6.183 112.571-11.225 106.274-11.341H11.336C5.001-11.225-.038-6.183 0 0"/>
<path transform="matrix(1,0,0,-1,231.1123,340.3635)" d="M0 0C-.653 .036-1.216 .054-1.687 .054H-4.898C-5.153-.454-5.461-1.017-5.824-1.634V-8.441C-5.824-9.167-5.806-9.983-5.769-10.891H-6.967C-6.931-10.02-6.912-9.203-6.912-8.441V-3.104C-8.037-4.665-9.561-6.099-11.484-7.406-11.775-6.97-12.047-6.662-12.301-6.48-11.575-6.153-10.613-5.455-9.416-4.384-8.219-3.313-7.112-1.834-6.096 .054H-9.688C-10.378 .054-11.103 .036-11.865 0V1.089C-10.777 1.052-9.942 1.035-9.362 1.035H-1.742C-1.27 1.035-.69 1.052 0 1.089ZM-4.844-3.213C-4.554-2.959-4.319-2.705-4.137-2.45-3.266-3.25-2.522-3.948-1.905-4.547-1.288-5.146-.707-5.736-.163-6.317-.526-6.608-.853-6.916-1.143-7.243-1.833-6.371-3.067-5.029-4.844-3.213" fill="#ffffff"/>
<path transform="matrix(1,0,0,-1,239.4246,340.4724)" d="M0 0V-1.144H3.756C4.263-1.144 4.88-1.126 5.606-1.089V-2.069C4.88-2.034 4.263-2.015 3.756-2.015H0V-2.941H3.756C3.719-3.485 3.701-4.157 3.701-4.955 3.701-5.754 3.719-6.444 3.756-7.025H0V-7.95H2.449C3.102-7.95 3.791-7.933 4.517-7.896V-8.767C3.828-8.732 3.157-8.713 2.504-8.713H0V-9.693H3.538C4.155-9.693 4.826-9.674 5.552-9.639V-10.564C4.826-10.528 4.172-10.51 3.592-10.51H-4.245C-4.972-10.51-5.715-10.528-6.477-10.564V-9.639C-5.715-9.674-4.99-9.693-4.3-9.693H-1.089V-8.713H-2.994C-3.864-8.713-4.663-8.732-5.388-8.767V-7.896C-4.445-7.933-3.629-7.95-2.939-7.95H-1.089V-7.025H-4.735C-4.7-6.118-4.681-5.428-4.681-4.955-4.681-4.484-4.7-3.812-4.735-2.941H-1.089V-2.015H-4.79C-5.298-2.015-5.897-2.034-6.586-2.069V-1.089C-5.897-1.126-5.298-1.144-4.79-1.144H-1.089V-.054C-1.815-.091-3.157-.182-5.116-.327-5.225 0-5.371 .308-5.552 .599-3.52 .635-1.714 .735-.136 .899 1.442 1.062 2.576 1.252 3.266 1.47 3.41 1.107 3.682 .744 4.082 .381 2.05 .199 .689 .072 0 0M-1.089-3.812H-3.647V-4.574H-1.089ZM-1.089-5.445H-3.647V-6.1530005H-1.089ZM2.667-3.812H0V-4.574H2.667ZM2.613-5.445H0V-6.1530005H2.613ZM2.613-6.153" fill="#ffffff"/>
<path transform="matrix(1,0,0,-1,256.9354,339.1655)" d="M0 0C.544 0 1.161 .018 1.851 .054V-.871C1.161-.836 .544-.817 0-.817H-2.177V-2.233H.871C.834-2.85 .817-3.431 .817-3.975 .817-4.52 .834-5.083 .871-5.663H-4.898C-4.5-5.918-4.191-6.118-3.973-6.262-4.3-6.48-4.536-6.68-4.681-6.861H.435C1.016-6.861 1.633-6.826 2.286-6.752V-7.787C1.633-7.751 .998-7.733 .381-7.733H-1.197C-1.561-8.35-2.05-9.022-2.667-9.747-1.034-10.183 .508-10.655 1.959-11.163 1.596-11.417 1.306-11.726 1.089-12.089-.291-11.471-1.815-10.927-3.483-10.455-3.992-10.819-4.636-11.145-5.416-11.436-6.196-11.726-6.94-11.926-7.647-12.035-8.355-12.143-8.999-12.234-9.579-12.307-9.688-11.835-9.925-11.453-10.287-11.163-9.598-11.199-8.872-11.181-8.11-11.109-7.348-11.036-6.659-10.9-6.042-10.7-5.425-10.501-4.935-10.292-4.572-10.074-5.769-9.784-6.949-9.53-8.11-9.312-7.566-8.767-7.058-8.241-6.586-7.733H-8.872C-9.489-7.733-10.088-7.751-10.668-7.787V-6.807C-9.942-6.844-9.344-6.861-8.872-6.861H-5.987C-5.625-6.426-5.334-6.027-5.116-5.663H-9.144C-9.108-5.083-9.089-4.52-9.089-3.975-9.089-3.431-9.108-2.85-9.144-2.233H-6.15V-.817H-8.273C-8.891-.817-9.543-.836-10.232-.871V.054C-9.543 .018-8.908 0-8.327 0ZM-6.15-3.104H-8.055V-4.847H-6.15ZM-3.701-9.421C-3.266-8.985-2.812-8.423-2.34-7.733H-5.279C-5.606-8.059-5.933-8.405-6.259-8.767-5.679-8.876-4.826-9.094-3.701-9.421M-3.157-.817H-5.116V-2.233H-3.157ZM-3.157-3.104H-5.116V-4.847H-3.157ZM-.218-3.104H-2.177V-4.847H-.218ZM-.218-4.847" fill="#ffffff"/>
<path transform="matrix(1,0,0,-1,272.7043,340.3635)" d="M0 0C-.653 .036-1.216 .054-1.687 .054H-4.898C-5.153-.454-5.461-1.017-5.824-1.634V-8.441C-5.824-9.167-5.806-9.983-5.769-10.891H-6.967C-6.931-10.02-6.912-9.203-6.912-8.441V-3.104C-8.037-4.665-9.561-6.099-11.484-7.406-11.775-6.97-12.047-6.662-12.301-6.48-11.575-6.153-10.613-5.455-9.416-4.384-8.219-3.313-7.112-1.834-6.096 .054H-9.688C-10.378 .054-11.103 .036-11.865 0V1.089C-10.777 1.052-9.942 1.035-9.362 1.035H-1.742C-1.27 1.035-.69 1.052 0 1.089ZM-4.844-3.213C-4.554-2.959-4.319-2.705-4.137-2.45-3.266-3.25-2.522-3.948-1.905-4.547-1.288-5.146-.707-5.736-.163-6.317-.526-6.608-.853-6.916-1.143-7.243-1.833-6.371-3.067-5.029-4.844-3.213" fill="#ffffff"/>
<path transform="matrix(1,0,0,-1,277.5875,349.8932)" d="M0 0C-.509-.327-1.197-.78-2.068-1.361-2.25-1.07-2.486-.798-2.776-.545-1.651 .036-.563 .708 .49 1.47 .635 1.252 .889 .98 1.252 .653 .925 .545 .508 .327 0 0M-1.415 8.767V7.569C-1.415 7.097-1.397 6.589-1.361 6.044H-2.395C-2.359 6.589-2.34 7.097-2.34 7.569V8.767C-2.34 9.348-2.359 9.838-2.395 10.238H-1.361C-1.397 9.874-1.415 9.384-1.415 8.767M5.389 5.936C5.715 5.609 6.042 5.318 6.368 5.064 5.933 4.919 5.343 4.646 4.599 4.247 3.855 3.848 2.63 3.249 .925 2.45 2.267 2.486 3.973 2.577 6.042 2.723 5.715 3.085 5.461 3.34 5.28 3.485 5.389 3.521 5.642 3.739 6.042 4.139 6.767 3.448 7.529 2.632 8.328 1.688 8.073 1.543 7.783 1.325 7.457 1.035L6.695 1.96C5.824 1.887 4.79 1.815 3.592 1.743V-.381C3.592-.926 3.393-1.261 2.994-1.389 2.594-1.515 2.014-1.634 1.252-1.743 1.179-1.379 1.034-.98 .817-.545 1.47-.58 1.914-.58 2.15-.545 2.386-.508 2.504-.327 2.504 0V1.688C.471 1.651-.98 1.506-1.851 1.252-1.924 1.724-2.05 2.087-2.232 2.342-1.687 2.414-1.098 2.55-.463 2.75 .172 2.949 .998 3.303 2.014 3.812 1.578 3.812 1.016 3.775 .327 3.703-.363 3.63-.925 3.557-1.361 3.485-1.469 3.848-1.597 4.174-1.742 4.465-1.234 4.501-.653 4.683 0 5.01 .653 5.337 1.215 5.736 1.687 6.208 1.832 5.99 2.104 5.718 2.504 5.391 2.286 5.354 2.05 5.263 1.796 5.119 1.542 4.973 1.233 4.792 .871 4.574L3.484 4.629C4.209 5.064 4.844 5.5 5.389 5.936M1.034 9.421V7.406C1.034 7.115 1.052 6.589 1.089 5.827H0C.036 6.48 .054 7.006 .054 7.406V9.584C.054 9.838 .036 10.255 0 10.837H1.089C1.052 10.437 1.034 9.965 1.034 9.421M8.491 10.292C8.273 9.82 7.982 9.348 7.62 8.876 7.257 8.404 6.767 7.914 6.15 7.406 6.839 6.97 7.838 6.625 9.144 6.371 8.853 6.08 8.6 5.736 8.382 5.337 7.838 5.518 7.275 5.736 6.695 5.99 6.114 6.244 5.624 6.516 5.225 6.807 4.572 6.407 3.701 6.008 2.613 5.609 2.431 5.899 2.177 6.208 1.851 6.535 3.011 6.752 3.864 7.042 4.409 7.406 3.682 8.095 3.157 8.803 2.83 9.53L2.014 9.475V10.346C2.558 10.31 3.103 10.292 3.647 10.292ZM3.864 9.53C4.263 8.876 4.735 8.332 5.28 7.896 5.86 8.295 6.386 8.839 6.858 9.53ZM8.545-.545C8.255-.762 7.982-1.052 7.729-1.416 6.858-.617 5.842 .145 4.681 .871 4.971 1.161 5.189 1.416 5.334 1.634 6.386 .98 7.457 .254 8.545-.545" fill="#ffffff"/>
<path transform="matrix(1,0,0,-1,289.1657,350.9278)" d="M0 0C-.291 .146-.653 .272-1.088 .381-.69 1.107-.272 2.105 .163 3.376 .49 3.231 .834 3.122 1.198 3.049ZM3.483 10.837H8.981C8.799 10.619 8.563 10.337 8.273 9.993 7.982 9.647 7.656 9.257 7.294 8.822H10.069C10.033 8.277 10.015 7.533 10.015 6.589 10.015 5.681 10.033 4.882 10.069 4.193H2.667C2.05 4.193 1.342 4.156 .544 4.084V5.119C1.342 5.082 2.05 5.064 2.667 5.064H8.926V6.099H2.613C2.068 6.099 1.433 6.08 .708 6.045V6.97C1.433 6.934 2.068 6.916 2.613 6.916H8.926V8.059H3.592C2.648 8.059 1.886 8.041 1.306 8.005V8.549C.798 8.114 .344 7.714-.054 7.351-.345 7.678-.635 7.932-.925 8.114-.236 8.549 .471 9.148 1.198 9.911 1.923 10.673 2.54 11.49 3.048 12.361 3.447 12.143 3.9 11.961 4.409 11.817 4.009 11.526 3.701 11.199 3.483 10.837M5.987 8.822C6.423 9.257 6.767 9.674 7.021 10.074H2.776C2.413 9.639 2.014 9.221 1.578 8.822ZM3.375 1.96C3.375 1.597 3.383 1.297 3.402 1.062 3.42 .826 3.61 .708 3.973 .708H6.913C7.166 .708 7.384 .808 7.566 1.007 7.747 1.207 7.873 1.597 7.947 2.178L9.144 1.743C8.89 .871 8.618 .354 8.328 .191 8.037 .027 7.62-.054 7.076-.054H3.483C2.866-.018 2.512 .163 2.422 .49 2.331 .817 2.294 1.207 2.313 1.661 2.331 2.114 2.322 2.723 2.286 3.485H3.429C3.392 2.832 3.375 2.323 3.375 1.96M6.749 2.396C6.423 2.25 6.096 2.069 5.769 1.851 5.443 2.396 5.098 2.904 4.735 3.376 4.989 3.557 5.243 3.721 5.497 3.866 5.896 3.431 6.314 2.941 6.749 2.396M11.648 1.634C11.357 1.416 11.049 1.144 10.722 .817 10.105 1.724 9.397 2.559 8.6 3.322 8.781 3.503 8.999 3.703 9.253 3.921 10.196 3.049 10.995 2.287 11.648 1.634" fill="#ffffff"/>
<path transform="matrix(1,0,0,-1,191.1317,336.2539)" d="M0 0C-13.121 0-23.795 10.68-23.795 23.806-23.795 36.933-13.121 47.613 0 47.613 13.121 47.613 23.795 36.933 23.795 23.806 23.795 10.68 13.121 0 0 0M0 46.038C-12.252 46.038-22.22 36.065-22.22 23.806-22.22 11.548-12.252 1.575 0 1.575 12.252 1.575 22.22 11.548 22.22 23.806 22.22 36.065 12.252 46.038 0 46.038" fill="#ffffff"/>
</g>
<path transform="matrix(1,0,0,-1,182.8014,308.6522)" d="M0 0V8.649L-2.191 6.744V8.861L0 10.766H1.965V0Z" fill="#ffffff"/>
<g clip-path="url(#clip_7)">
<path transform="matrix(1,0,0,-1,197.4813,307.9323)" d="M0 0V1.769L4.02 6.441C4.413 6.91 4.579 7.243 4.579 7.742 4.579 8.543 4.111 9.088 3.28 9.088 2.63 9.088 1.965 8.755 1.965 7.712H0C0 9.677 1.436 10.857 3.28 10.857 5.184 10.857 6.544 9.662 6.544 7.727 6.544 6.683 6.136 6.124 5.396 5.262L2.388 1.769H6.544V0Z" fill="#ffffff"/>
<path transform="matrix(1,0,0,-1,182.6758,328.5959)" d="M0 0C-1.753 0-3.401 .922-3.431 3.175H-1.466C-1.436 2.207-.771 1.769 0 1.769 .846 1.769 1.451 2.298 1.451 3.266 1.451 4.158 .907 4.748-.06 4.748H-.348V6.457H-.06C.892 6.457 1.3 7.046 1.3 7.802 1.3 8.71 .695 9.178-.015 9.178-.756 9.178-1.3 8.694-1.345 7.878H-3.31C-3.265 9.798-1.829 10.947-.015 10.947 1.889 10.947 3.265 9.677 3.265 7.863 3.265 6.698 2.736 6.033 2.025 5.655 2.796 5.247 3.416 4.506 3.416 3.205 3.416 1.058 1.844 0 0 0" fill="#ffffff"/>
</g>
<path transform="matrix(1,0,0,-1,203.0499,327.7255)" d="M0 0V-1.527H-1.889V0H-6.287V1.86L-2.599 9.239H-.453L-4.141 1.86H-1.889V3.871H0V1.86H.983V0Z" fill="#ffffff"/>
<g clip-path="url(#clip_8)">
<path transform="matrix(1,0,0,-1,116.1807,300.0468)" d="M0 0C-.454-1.326-.88-2.442-1.279-3.349H.952C1.606-3.349 2.331-3.331 3.13-3.295V-4.384C2.331-4.347 1.696-4.329 1.225-4.329H-7.429C-8.047-4.329-8.646-4.347-9.226-4.384V-3.295C-8.646-3.331-8.065-3.349-7.484-3.349H-2.422C-1.805-1.933-1.325-.663-.98 .463-.635 1.588-.39 2.532-.245 3.295 .009 3.112 .463 2.931 1.116 2.75 .825 2.241 .453 1.325 0 0M.572 4.983C.861 4.983 1.406 5 2.204 5.037V4.002C1.442 4.038 .753 4.057 .136 4.057H-6.395C-6.831 4.057-7.484 4.038-8.355 4.002V5.037C-7.484 5-6.831 4.983-6.395 4.983ZM-3.892-2.423C-4.146-2.569-4.527-2.75-5.035-2.968-5.434-1.843-5.815-.871-6.178-.054-6.541 .762-6.922 1.57-7.321 2.369-6.994 2.55-6.632 2.731-6.232 2.913-5.035 .481-4.255-1.298-3.892-2.423M-2.422 5.799C-2.713 5.617-3.057 5.418-3.456 5.2-3.71 5.817-4.092 6.471-4.599 7.161-4.273 7.342-3.946 7.542-3.619 7.76-2.894 6.671-2.495 6.017-2.422 5.799" fill="#ffffff"/>
<path transform="matrix(1,0,0,-1,126.3164,294.4107)" d="M0 0C.653 0 1.288 .036 1.905 .109V-.98C1.396-.944 .762-.926 0-.926H-2.504C-2.25-1.144-1.942-1.344-1.578-1.525-1.942-1.67-2.295-1.952-2.64-2.369-2.985-2.787-3.393-3.195-3.864-3.594-3.357-3.558-2.921-3.531-2.558-3.512-2.196-3.495-1.778-3.467-1.306-3.431-1.089-3.25-.898-3.041-.735-2.804-.572-2.569-.4-2.269-.218-1.906 .109-2.16 .49-2.415 .925-2.668 .634-2.886 .308-3.213-.054-3.648-.418-4.084-.844-4.547-1.333-5.037-1.823-5.527-2.35-6.017-2.912-6.507-3.475-6.997-4.137-7.497-4.899-8.005-5.116-7.606-5.388-7.279-5.715-7.025-5.026-6.735-4.364-6.344-3.728-5.854-3.094-5.364-2.468-4.829-1.851-4.248-2.721-4.356-3.375-4.457-3.81-4.547-4.245-4.638-4.572-4.738-4.79-4.847-4.972-4.411-5.189-4.03-5.443-3.703-4.863-3.34-4.364-2.905-3.946-2.396-3.529-1.888-3.211-1.398-2.994-.926H-3.919C-4.572-.926-5.207-.944-5.824-.98V.109C-5.207 .036-4.591 0-3.973 0ZM1.17-5.745C.861-6.09 .471-6.517 0-7.025 .399-7.279 .789-7.569 1.17-7.896 1.551-8.223 1.959-8.568 2.395-8.931 2.177-9.148 1.832-9.439 1.361-9.802 1.07-9.439 .771-9.085 .463-8.74 .154-8.396-.218-8.059-.653-7.733-1.452-8.386-2.15-8.903-2.749-9.285-3.347-9.666-4.046-10.129-4.844-10.673-5.026-10.201-5.279-9.856-5.606-9.639-4.663-9.24-3.837-8.795-3.13-8.304-2.422-7.814-1.805-7.324-1.279-6.834-.753-6.344-.345-5.9-.054-5.5 .236-5.101 .49-4.683 .708-4.248L1.905-5.01C1.723-5.155 1.478-5.401 1.17-5.745M-1.279 1.443C-1.152 1.171-1.016 .871-.871 .545-1.234 .436-1.633 .29-2.068 .109-2.177 .471-2.295 .78-2.422 1.035-2.55 1.288-2.686 1.543-2.83 1.797-2.395 1.942-2.014 2.105-1.687 2.287-1.543 1.996-1.407 1.715-1.279 1.443M4.028-1.743V-5.772C4.028-6.354 4.063-6.953 4.137-7.569H2.776C2.848-7.061 2.885-6.462 2.885-5.772V-1.579C2.885-1.071 2.866-.581 2.83-.109H4.082C4.046-.618 4.028-1.162 4.028-1.743M6.804 0V-9.04C6.804-9.584 6.668-9.938 6.395-10.101 6.123-10.265 5.497-10.419 4.518-10.564 4.409-9.983 4.245-9.53 4.028-9.203 4.753-9.24 5.206-9.24 5.388-9.203 5.57-9.167 5.661-8.967 5.661-8.604V0C5.661 .545 5.642 1.161 5.606 1.851H6.912C6.839 1.343 6.804 .726 6.804 0" fill="#ffffff"/>
<path transform="matrix(1,0,0,-1,136.0438,295.8538)" d="M0 0C.617 1.144 1.089 2.296 1.415 3.458 1.777 3.24 2.14 3.077 2.504 2.968 2.213 2.495 1.832 1.606 1.361 .299V-6.29C1.361-7.488 1.379-8.359 1.415-8.903H.326C.362-8.286 .381-7.397 .381-6.235V-1.497C.018-2.079-.345-2.641-.708-3.186-.962-2.787-1.234-2.496-1.524-2.314-1.125-1.915-.617-1.144 0 0M3.81 1.552C3.81 2.169 3.791 2.641 3.756 2.968H4.844C4.807 2.641 4.79 2.169 4.79 1.552V.082C5.188 .082 5.642 .099 6.15 .136V-.844C5.533-.808 5.08-.79 4.79-.79V-2.75H6.15C6.114-3.259 6.096-3.985 6.096-4.928 6.096-5.873 6.114-6.581 6.15-7.052H5.116V-6.507H3.429V-7.651H2.395C2.43-7.143 2.449-6.326 2.449-5.2 2.449-4.076 2.43-3.259 2.395-2.75H3.81V-.79C3.157-.79 2.613-.808 2.177-.844V.136C2.576 .099 3.12 .082 3.81 .082ZM5.116-3.567H3.4290002V-5.691H5.116ZM6.722 0C7.103 1.035 7.383 2.132 7.565 3.295 7.928 3.149 8.363 3.004 8.872 2.859 8.617 2.604 8.291 1.806 7.892 .463H9.198C9.887 .463 10.45 .481 10.886 .517V-.354C10.523-.318 10.214-.299 9.96-.299 9.996-2.551 9.669-4.511 8.981-6.181 9.597-7.052 10.287-7.651 11.049-7.978 10.649-8.304 10.377-8.612 10.232-8.903 9.652-8.504 9.016-7.869 8.327-6.997 7.71-7.76 6.894-8.468 5.878-9.121 5.661-8.83 5.388-8.558 5.062-8.304 6.005-7.941 6.894-7.234 7.729-6.181 7.293-5.346 6.948-4.076 6.695-2.369L6.477-2.859C6.259-2.605 5.987-2.369 5.661-2.151 5.987-1.752 6.341-1.035 6.722 0M7.457-1.443C7.747-3.331 8.037-4.566 8.327-5.146 8.726-4.094 8.944-2.496 8.981-.354H7.62C7.511-.645 7.348-1.062 7.13-1.606Z" fill="#ffffff"/>
<path transform="matrix(1,0,0,-1,240.9879,293.92073)" d="M0 0C0 .617-.019 1.144-.054 1.579H1.088C1.052 1.179 1.034 .671 1.034 .054V-1.416C1.578-1.416 2.123-1.398 2.667-1.361V-2.342C2.123-2.306 1.578-2.287 1.034-2.287V-4.738C1.505-4.484 1.923-4.247 2.286-4.03 2.286-4.321 2.304-4.647 2.34-5.01 2.014-5.192 1.578-5.428 1.034-5.718V-9.747C.961-10.255 .78-10.573 .49-10.7 .199-10.827-.309-10.927-1.034-11-1.034-10.564-1.143-10.146-1.361-9.747-.816-9.783-.454-9.783-.272-9.747-.091-9.712 0-9.548 0-9.257V-6.099C-.435-6.281-.944-6.553-1.524-6.916-1.669-6.444-1.833-6.081-2.014-5.827-1.361-5.682-.69-5.446 0-5.119V-2.287C-.653-2.287-1.216-2.306-1.687-2.342V-1.361C-1.216-1.398-.653-1.416 0-1.416ZM8.981-4.574C9.597-4.574 10.196-4.556 10.777-4.52V-5.5C10.232-5.464 9.652-5.446 9.035-5.446H7.13V-6.97H7.947C8.6-6.97 9.216-6.952 9.797-6.916V-7.896C9.216-7.86 8.618-7.842 8.001-7.842H7.13V-9.584C7.529-9.657 8.073-9.693 8.763-9.693 9.452-9.693 10.178-9.639 10.94-9.53 10.795-9.783 10.649-10.183 10.505-10.728 9.416-10.728 8.472-10.718 7.674-10.7 6.876-10.682 6.186-10.546 5.606-10.292 5.025-10.038 4.481-9.675 3.973-9.203 3.647-9.892 3.102-10.546 2.34-11.163 2.086-10.872 1.777-10.637 1.415-10.455 2.177-9.983 2.73-9.339 3.075-8.522 3.42-7.705 3.592-6.898 3.592-6.099 4.028-6.281 4.427-6.39 4.79-6.426 4.681-6.644 4.535-7.225 4.354-8.168 4.825-8.786 5.406-9.185 6.096-9.366V-5.446H4.898C4.137-5.446 3.392-5.464 2.667-5.5V-4.52C3.392-4.556 4.154-4.574 4.953-4.574ZM9.688-1.252C9.688-2.269 9.706-3.049 9.743-3.594H3.538C3.574-2.868 3.592-2.088 3.592-1.252 3.592-.381 3.574 .436 3.538 1.198H9.743C9.706 .617 9.688-.2 9.688-1.252M8.708 .272H4.571V-.708H8.708ZM8.708-1.634H4.571V-2.723H8.708ZM8.708-2.723" fill="#ffffff"/>
<path transform="matrix(1,0,0,-1,262.6077,293.3217)" d="M0 0C-.2-.327-.427-.708-.68-1.144H1.551C2.059-1.144 2.621-1.126 3.238-1.089V-2.124C2.658-2.052 2.022-2.015 1.333-2.015H-7.266C-8.21-2.015-9.008-2.052-9.661-2.124V-1.089C-8.899-1.126-8.101-1.144-7.266-1.144H-1.769C-1.152 .018-.808 .798-.735 1.198-.336 .98 .099 .817 .572 .708 .389 .562 .199 .327 0 0M-4.681-10.537C-4.482-10.518-4.381-10.382-4.381-10.129V-8.441H-7.321V-11.762H-8.464C-8.391-11.109-8.355-10.382-8.355-9.584V-5.228C-8.355-4.502-8.373-3.812-8.409-3.158H-3.293C-3.329-3.776-3.347-4.448-3.347-5.173V-10.673C-3.347-11.036-3.493-11.272-3.783-11.381-4.074-11.49-4.563-11.599-5.252-11.708-5.361-11.308-5.507-10.927-5.688-10.564-5.217-10.564-4.881-10.555-4.681-10.537M-4.381-3.975H-7.3199999V-5.4449999H-4.381ZM-4.381-6.262H-7.3199999V-7.623H-4.381ZM-6.395 .653C-5.997 .835-5.67 1.016-5.415 1.198-4.908 .545-4.527 0-4.273-.436-4.599-.581-4.962-.762-5.361-.98-5.507-.581-5.851-.037-6.395 .653M-1.987-9.094C-1.951-8.549-1.932-8.078-1.932-7.678V-5.173C-1.932-4.593-1.951-4.084-1.987-3.648H-.844C-.88-4.084-.898-4.593-.898-5.173V-7.624C-.898-8.168-.88-8.658-.844-9.094ZM.544-10.51C.708-10.473 .789-10.311 .789-10.02V-4.356C.789-3.921 .77-3.449 .735-2.941H1.878C1.841-3.413 1.823-3.885 1.823-4.356V-10.401C1.823-10.872 1.705-11.181 1.47-11.327 1.233-11.471 .68-11.58-.19-11.653-.263-11.181-.427-10.8-.68-10.51-.027-10.546 .381-10.546 .544-10.51" fill="#ffffff"/>
<path transform="matrix(1,0,0,-1,268.4437,295.8538)" d="M0 0C.617 1.144 1.089 2.296 1.415 3.458 1.777 3.24 2.141 3.077 2.504 2.968 2.213 2.495 1.832 1.606 1.361 .299V-6.29C1.361-7.488 1.379-8.359 1.415-8.903H.327C.362-8.286 .381-7.397 .381-6.235V-1.497C.018-2.079-.345-2.641-.707-3.186-.962-2.787-1.234-2.496-1.524-2.314-1.125-1.915-.617-1.144 0 0M3.81 1.552C3.81 2.169 3.791 2.641 3.756 2.968H4.844C4.808 2.641 4.79 2.169 4.79 1.552V.082C5.189 .082 5.642 .099 6.15 .136V-.844C5.533-.808 5.08-.79 4.79-.79V-2.75H6.15C6.114-3.259 6.096-3.985 6.096-4.928 6.096-5.873 6.114-6.581 6.15-7.052H5.116V-6.507H3.429V-7.651H2.395C2.431-7.143 2.449-6.326 2.449-5.2 2.449-4.076 2.431-3.259 2.395-2.75H3.81V-.79C3.157-.79 2.613-.808 2.177-.844V.136C2.576 .099 3.12 .082 3.81 .082ZM5.116-3.567H3.4290002V-5.691H5.116ZM6.722 0C7.103 1.035 7.384 2.132 7.566 3.295 7.928 3.149 8.363 3.004 8.872 2.859 8.618 2.604 8.291 1.806 7.892 .463H9.199C9.887 .463 10.45 .481 10.886 .517V-.354C10.523-.318 10.214-.299 9.96-.299 9.996-2.551 9.67-4.511 8.981-6.181 9.597-7.052 10.287-7.651 11.049-7.978 10.649-8.304 10.377-8.612 10.233-8.903 9.652-8.504 9.016-7.869 8.328-6.997 7.71-7.76 6.894-8.468 5.878-9.121 5.661-8.83 5.389-8.558 5.062-8.304 6.005-7.941 6.894-7.234 7.729-6.181 7.294-5.346 6.948-4.076 6.695-2.369L6.477-2.859C6.259-2.605 5.987-2.369 5.661-2.151 5.987-1.752 6.341-1.035 6.722 0M7.457-1.443C7.747-3.331 8.037-4.566 8.328-5.146 8.726-4.094 8.944-2.496 8.981-.354H7.62C7.511-.645 7.348-1.062 7.13-1.606Z" fill="#ffffff"/>
<path transform="matrix(1,0,0,-1,58.851,180.41861)" d="M0 0H6.15C6.73 0 7.384 .018 8.11 .054V-.926C7.384-.89 6.73-.871 6.15-.871H-.49L-1.47-2.124C-1.833-2.559-2.268-3.032-2.776-3.54-3.03-3.249-3.339-3.014-3.701-2.832-3.157-2.433-2.577-1.843-1.959-1.062-1.343-.282-.853 .545-.49 1.416-.054 1.161 .327 .98 .653 .871 .399 .617 .181 .327 0 0M6.912-2.069C6.839-2.796 6.785-3.504 6.749-4.193L6.695-5.228C7.275-5.228 7.91-5.21 8.6-5.173V-6.153C8.055-6.118 7.402-6.099 6.64-6.099L6.531-8.604C6.93-8.604 7.402-8.586 7.947-8.549V-9.53C7.511-9.494 7.021-9.475 6.477-9.475 6.44-10.238 6.259-10.728 5.933-10.945 5.606-11.163 5.043-11.327 4.245-11.436 4.172-11.072 4.009-10.691 3.756-10.292 4.626-10.292 5.134-10.238 5.279-10.129 5.424-10.02 5.497-9.802 5.497-9.475H-1.415L-1.197-7.624-1.089-6.099H-1.687C-2.34-6.099-2.867-6.118-3.266-6.153V-5.173C-2.649-5.21-2.123-5.228-1.687-5.228H-1.034L-.925-3.866-.816-2.069ZM-.163-6.099-.381-8.604H5.606L5.715-6.099H1.959C2.866-6.861 3.501-7.351 3.864-7.569 3.573-7.86 3.32-8.15 3.102-8.441 2.558-7.896 1.959-7.351 1.306-6.807 1.487-6.517 1.651-6.281 1.796-6.099ZM.054-2.941-.109-5.228H2.994C2.594-4.792 2.294-4.484 2.096-4.302 1.896-4.121 1.669-3.921 1.415-3.703 1.56-3.485 1.723-3.232 1.905-2.941ZM2.694-3.458C2.93-3.658 3.301-3.994 3.81-4.465 3.592-4.756 3.392-5.01 3.211-5.228H5.769L5.878-2.941H2.014C2.232-3.086 2.458-3.259 2.694-3.458" fill="#ffffff"/>
<path transform="matrix(1,0,0,-1,77.9945,179.7651)" d="M0 0C.653 0 1.306 .018 1.959 .054V-1.089C1.306-1.053 .653-1.035 0-1.035H-2.232V-3.975H1.252C1.941-3.975 2.558-3.957 3.102-3.921V-5.064C2.594-5.029 1.995-5.01 1.306-5.01H-2.068C-1.561-6.39-.835-7.569 .109-8.549 1.052-9.53 2.267-10.202 3.756-10.564 3.247-10.963 2.939-11.327 2.83-11.653 1.705-11.254 .671-10.628-.272-9.775-1.216-8.922-2.033-7.697-2.721-6.099-3.157-7.588-3.846-8.777-4.79-9.666-5.734-10.556-6.912-11.308-8.328-11.926-8.473-11.562-8.782-11.218-9.253-10.891-8.201-10.601-7.094-9.993-5.933-9.067-4.772-8.141-3.955-6.789-3.483-5.01H-6.477C-7.276-5.01-7.947-5.029-8.491-5.064V-3.921C-7.911-3.957-7.239-3.975-6.477-3.975H-3.32V-1.035H-5.606C-6.368-1.035-7.021-1.053-7.565-1.089V.054C-6.986 .018-6.332 0-5.606 0Z" fill="#ffffff"/>
<path transform="matrix(1,0,0,-1,91.3828,186.1442)" d="M0 0-2.104-4.294H-4.069L-2.007-.195C-2.243-.293-2.508-.321-2.745-.321-4.083-.321-5.365 .781-5.365 2.621-5.365 4.573-4.027 5.716-2.271 5.716-.516 5.716 .822 4.615 .822 2.649 .822 1.743 .446 .906 0 0M-2.271 4.085C-3.01 4.085-3.553 3.555-3.553 2.635-3.553 1.757-3.038 1.185-2.271 1.185-1.533 1.185-.989 1.715-.989 2.635-.989 3.555-1.533 4.085-2.271 4.085" fill="#ffffff"/>
</g>
<path transform="matrix(1,0,0,-1,0,595.276)" d="M94.141 410.679H96.202999V408.616H94.141ZM94.141 406.901H96.202999V404.838H94.141Z" fill="#ffffff"/>
<g clip-path="url(#clip_9)">
<path transform="matrix(1,0,0,-1,100.9271,190.522)" d="M0 0C-1.616 0-3.024 1.06-3.024 2.956V7.138C-3.024 9.034-1.616 10.094 0 10.094 1.616 10.094 3.01 9.034 3.01 7.138V2.956C3.01 1.06 1.616 0 0 0M1.198 7.11C1.198 7.947 .711 8.463 0 8.463-.711 8.463-1.212 7.947-1.212 7.11V2.97C-1.212 2.133-.711 1.631 0 1.631 .711 1.631 1.198 2.133 1.198 2.97Z" fill="#ffffff"/>
<path transform="matrix(1,0,0,-1,108.465,190.522)" d="M0 0C-1.616 0-3.024 1.06-3.024 2.956V7.138C-3.024 9.034-1.616 10.094 0 10.094 1.616 10.094 3.01 9.034 3.01 7.138V2.956C3.01 1.06 1.616 0 0 0M1.198 7.11C1.198 7.947 .711 8.463 0 8.463-.711 8.463-1.212 7.947-1.212 7.11V2.97C-1.212 2.133-.711 1.631 0 1.631 .711 1.631 1.198 2.133 1.198 2.97Z" fill="#ffffff"/>
</g>
<path transform="matrix(1,0,0,-1,0,595.276)" d="M113.035 409.662H117.327V407.97499H113.035Z" fill="#ffffff"/>
<path transform="matrix(1,0,0,-1,121.5766,190.4383)" d="M0 0V7.975L-2.021 6.218V8.17L0 9.927H1.811V0Z" fill="#ffffff"/>
<g clip-path="url(#clip_10)">
<path transform="matrix(1,0,0,-1,126.481,190.4383)" d="M0 0V1.631L3.707 5.939C4.069 6.371 4.222 6.678 4.222 7.138 4.222 7.877 3.79 8.379 3.024 8.379 2.425 8.379 1.812 8.072 1.812 7.11H0C0 8.923 1.324 10.01 3.024 10.01 4.78 10.01 6.034 8.909 6.034 7.124 6.034 6.162 5.657 5.647 4.975 4.852L2.202 1.631H6.034V0Z" fill="#ffffff"/>
</g>
<path transform="matrix(1,0,0,-1,0,595.276)" d="M134.493 410.679H136.555V408.616H134.493ZM134.493 406.901H136.555V404.838H134.493Z" fill="#ffffff"/>
<g clip-path="url(#clip_11)">
<path transform="matrix(1,0,0,-1,141.2786,190.522)" d="M0 0C-1.616 0-3.024 1.06-3.024 2.956V7.138C-3.024 9.034-1.616 10.094 0 10.094 1.616 10.094 3.01 9.034 3.01 7.138V2.956C3.01 1.06 1.616 0 0 0M1.198 7.11C1.198 7.947 .711 8.463 0 8.463-.711 8.463-1.212 7.947-1.212 7.11V2.97C-1.212 2.133-.711 1.631 0 1.631 .711 1.631 1.198 2.133 1.198 2.97Z" fill="#ffffff"/>
<path transform="matrix(1,0,0,-1,148.8168,190.522)" d="M0 0C-1.616 0-3.024 1.06-3.024 2.956V7.138C-3.024 9.034-1.616 10.094 0 10.094 1.616 10.094 3.01 9.034 3.01 7.138V2.956C3.01 1.06 1.616 0 0 0M1.198 7.11C1.198 7.947 .711 8.463 0 8.463-.711 8.463-1.212 7.947-1.212 7.11V2.97C-1.212 2.133-.711 1.631 0 1.631 .711 1.631 1.198 2.133 1.198 2.97Z" fill="#ffffff"/>
<path transform="matrix(1,0,0,-1,157.3024,190.4383)" d="M0 0V.627C-.488 .139-.948-.07-1.784-.07-2.606-.07-3.205 .139-3.637 .572-4.027 .976-4.236 1.561-4.236 2.203-4.236 3.36-3.442 4.308-1.756 4.308H-.042V4.671C-.042 5.465-.432 5.814-1.394 5.814-2.09 5.814-2.411 5.647-2.787 5.214L-3.943 6.344C-3.233 7.124-2.536 7.347-1.324 7.347 .711 7.347 1.77 6.483 1.77 4.782V0ZM-.042 3.067H-1.477C-2.132 3.067-2.494 2.76-2.494 2.245-2.494 1.743-2.16 1.408-1.449 1.408-.948 1.408-.627 1.45-.307 1.757-.112 1.938-.042 2.231-.042 2.677Z" fill="#ffffff"/>
<path transform="matrix(1,0,0,-1,169.4389,190.4383)" d="M0 0V4.392C0 5.382-.627 5.716-1.198 5.716-1.756 5.716-2.411 5.382-2.411 4.434V0H-4.222V4.392C-4.222 5.382-4.849 5.716-5.42 5.716-5.992 5.716-6.633 5.382-6.633 4.392V0H-8.444V7.264H-6.675V6.595C-6.201 7.083-5.532 7.347-4.863 7.347-4.055 7.347-3.4 7.055-2.94 6.427-2.327 7.069-1.672 7.347-.766 7.347-.042 7.347 .613 7.11 1.017 6.706 1.602 6.12 1.812 5.437 1.812 4.643V0Z" fill="#ffffff"/>
<path transform="matrix(1,0,0,-1,193.6413,202.0437)" d="M0 0H6.15C6.73 0 7.384 .018 8.11 .054V-.926C7.384-.89 6.73-.871 6.15-.871H-.49L-1.47-2.124C-1.833-2.559-2.268-3.032-2.776-3.54-3.03-3.249-3.339-3.014-3.701-2.832-3.157-2.433-2.577-1.843-1.959-1.062-1.343-.282-.853 .545-.49 1.416-.054 1.161 .327 .98 .653 .871 .399 .617 .181 .327 0 0M6.912-2.069C6.839-2.796 6.785-3.504 6.749-4.193L6.695-5.228C7.275-5.228 7.91-5.21 8.6-5.173V-6.153C8.055-6.118 7.402-6.099 6.64-6.099L6.531-8.604C6.93-8.604 7.402-8.586 7.947-8.549V-9.53C7.511-9.494 7.021-9.475 6.477-9.475 6.44-10.238 6.259-10.728 5.933-10.945 5.606-11.163 5.043-11.327 4.245-11.436 4.172-11.072 4.009-10.691 3.756-10.292 4.626-10.292 5.134-10.238 5.28-10.129 5.424-10.02 5.497-9.802 5.497-9.475H-1.415L-1.197-7.624-1.089-6.099H-1.687C-2.34-6.099-2.867-6.118-3.266-6.153V-5.173C-2.649-5.21-2.123-5.228-1.687-5.228H-1.034L-.925-3.866-.816-2.069ZM-.163-6.099-.381-8.604H5.606L5.715-6.099H1.959C2.866-6.861 3.501-7.351 3.864-7.569 3.574-7.86 3.32-8.15 3.102-8.441 2.558-7.896 1.959-7.351 1.306-6.807 1.487-6.517 1.651-6.281 1.796-6.099ZM.055-2.941-.109-5.228H2.994C2.594-4.792 2.294-4.484 2.096-4.302 1.896-4.121 1.669-3.921 1.415-3.703 1.56-3.485 1.723-3.232 1.905-2.941ZM2.694-3.458C2.93-3.658 3.301-3.994 3.81-4.465 3.592-4.756 3.392-5.01 3.211-5.228H5.769L5.878-2.941H2.014C2.232-3.086 2.458-3.259 2.694-3.458" fill="#ffffff"/>
<path transform="matrix(1,0,0,-1,215.1796,203.78632)" d="M0 0V-8.168C-.036-8.785-.218-9.157-.544-9.285-.871-9.411-1.597-9.511-2.721-9.584-2.758-9.293-2.903-8.912-3.157-8.441-2.177-8.476-1.57-8.449-1.333-8.359-1.098-8.269-.998-8.078-1.034-7.787V1.579H-8.872C-8.872-1.252-8.908-3.168-8.981-4.166-9.054-5.165-9.208-6.136-9.443-7.079-9.68-8.024-10.015-8.876-10.45-9.639-10.668-9.384-11.031-9.094-11.539-8.767-10.994-8.114-10.596-7.225-10.341-6.099-10.088-4.974-9.943-3.821-9.906-2.641-9.87-1.462-9.888 .236-9.96 2.45H.054C.018 1.688 0 .871 0 0M-5.661 1.252H-4.572C-4.609 .817-4.626 .399-4.626 0-3.683 0-2.939 .018-2.395 .054V-.98C-2.903-.944-3.647-.926-4.626-.926V-2.178C-3.538-2.178-2.54-2.16-1.633-2.124V-3.158C-2.577-3.123-3.375-3.104-4.028-3.104H-6.15C-6.768-3.104-7.511-3.123-8.382-3.158V-2.124C-7.511-2.16-6.586-2.178-5.606-2.178V-.926C-6.333-.926-7.076-.944-7.838-.98V.054C-7.112 .018-6.368 0-5.606 0-5.606 .508-5.625 .926-5.661 1.252M-7.674-7.569C-7.639-7.134-7.62-6.68-7.62-6.208V-5.228C-7.62-4.901-7.639-4.52-7.674-4.084H-2.558C-2.595-4.375-2.612-4.72-2.612-5.119V-6.371C-2.612-6.771-2.595-7.17-2.558-7.569ZM-3.647-4.955H-6.586V-6.698H-3.647ZM-3.647-6.698" fill="#ffffff"/>
<path transform="matrix(1,0,0,-1,227.5197,206.23679)" d="M0 0C.943 0 1.796 .018 2.558 .054V-1.361C1.796-1.326 .961-1.307 .054-1.307H-7.13C-8.074-1.307-8.981-1.326-9.852-1.361V.054C-8.981 .018-8.074 0-7.13 0Z" fill="#ffffff"/>
</g>
<path transform="matrix(1,0,0,-1,232.4396,213.0951)" d="M0 0H-1.7L2.271 11.99H3.971Z" fill="#ffffff"/>
<g clip-path="url(#clip_12)">
<path transform="matrix(1,0,0,-1,249.3954,212.49912)" d="M0 0C-.653 .037-1.234 .054-1.742 .054H-10.233C-10.813 .054-11.484 .037-12.246 0V1.198C-11.557 1.161-10.886 1.144-10.233 1.144H-1.742C-1.197 1.144-.617 1.179 0 1.252ZM-11.103 10.455C-10.378 10.419-9.707 10.401-9.089 10.401H-3.048C-2.359 10.401-1.724 10.419-1.143 10.455V9.312C-1.687 9.348-2.322 9.366-3.048 9.366H-9.144C-9.761 9.366-10.415 9.348-11.103 9.312ZM-8.545 5.01C-9.089 5.01-9.67 4.991-10.287 4.955V6.153C-9.707 6.117-9.126 6.099-8.545 6.099H-3.864C-3.32 6.099-2.721 6.117-2.068 6.153V4.955C-2.795 4.991-3.393 5.01-3.864 5.01Z" fill="#ffffff"/>
</g>
<path transform="matrix(1,0,0,-1,251.8865,213.0951)" d="M0 0H-1.7L2.271 11.99H3.971Z" fill="#ffffff"/>
<g clip-path="url(#clip_13)">
<path transform="matrix(1,0,0,-1,266.6017,202.0437)" d="M0 0C.508 0 .997 .018 1.47 .054V-.926C.997-.89 .526-.871 .054-.871H-3.973L-4.3-3.757H-.054C-.128-4.193-.163-4.738-.163-5.391L-.272-9.366C.889-9.366 1.723-9.348 2.232-9.312V-10.455C1.723-10.419 .98-10.401 0-10.401H-7.838C-8.709-10.401-9.398-10.437-9.906-10.51V-9.312C-9.362-9.348-8.709-9.366-7.947-9.366H-6.15L-5.497-4.629H-6.804C-7.457-4.629-7.983-4.647-8.382-4.683V-3.703C-7.947-3.74-7.421-3.757-6.804-3.757H-5.334L-5.007-.871H-7.457C-8.038-.871-8.582-.89-9.09-.926V.054C-8.618 .018-8.074 0-7.457 0ZM-1.361-9.366-1.198-4.629H-4.409L-5.062-9.366Z" fill="#ffffff"/>
</g>
<path transform="matrix(1,0,0,-1,276.3011,212.0635)" d="M0 0V7.975L-2.021 6.218V8.17L0 9.927H1.812V0Z" fill="#ffffff"/>
<path transform="matrix(1,0,0,-1,0,595.276)" d="M281.679 389.054H283.741V386.991H281.679ZM281.679 385.276H283.741V383.213H281.679Z" fill="#ffffff"/>
<g clip-path="url(#clip_14)">
<path transform="matrix(1,0,0,-1,288.4649,212.1471)" d="M0 0C-1.616 0-3.024 1.06-3.024 2.956V7.138C-3.024 9.034-1.616 10.094 0 10.094 1.617 10.094 3.01 9.034 3.01 7.138V2.956C3.01 1.06 1.617 0 0 0M1.198 7.11C1.198 7.947 .711 8.463 0 8.463-.711 8.463-1.212 7.947-1.212 7.11V2.97C-1.212 2.133-.711 1.631 0 1.631 .711 1.631 1.198 2.133 1.198 2.97Z" fill="#ffffff"/>
<path transform="matrix(1,0,0,-1,296.0031,212.1471)" d="M0 0C-1.616 0-3.024 1.06-3.024 2.956V7.138C-3.024 9.034-1.616 10.094 0 10.094 1.617 10.094 3.01 9.034 3.01 7.138V2.956C3.01 1.06 1.617 0 0 0M1.198 7.11C1.198 7.947 .711 8.463 0 8.463-.711 8.463-1.212 7.947-1.212 7.11V2.97C-1.212 2.133-.711 1.631 0 1.631 .711 1.631 1.198 2.133 1.198 2.97Z" fill="#ffffff"/>
</g>
<path transform="matrix(1,0,0,-1,0,595.276)" d="M300.573 388.036H304.865V386.349H300.573Z" fill="#ffffff"/>
<g clip-path="url(#clip_15)">
<path transform="matrix(1,0,0,-1,306.481,212.0635)" d="M0 0V1.631L3.707 5.939C4.069 6.371 4.222 6.678 4.222 7.138 4.222 7.877 3.79 8.379 3.024 8.379 2.425 8.379 1.812 8.072 1.812 7.11H0C0 8.923 1.324 10.01 3.024 10.01 4.78 10.01 6.034 8.909 6.034 7.124 6.034 6.162 5.658 5.646 4.975 4.852L2.202 1.631H6.034V0Z" fill="#ffffff"/>
</g>
<path transform="matrix(1,0,0,-1,0,595.276)" d="M314.493 389.054H316.55503V386.991H314.493ZM314.493 385.276H316.55503V383.213H314.493Z" fill="#ffffff"/>
<g clip-path="url(#clip_16)">
<path transform="matrix(1,0,0,-1,321.2786,212.1471)" d="M0 0C-1.616 0-3.024 1.06-3.024 2.956V7.138C-3.024 9.034-1.616 10.094 0 10.094 1.617 10.094 3.01 9.034 3.01 7.138V2.956C3.01 1.06 1.617 0 0 0M1.198 7.11C1.198 7.947 .711 8.463 0 8.463-.711 8.463-1.212 7.947-1.212 7.11V2.97C-1.212 2.133-.711 1.631 0 1.631 .711 1.631 1.198 2.133 1.198 2.97Z" fill="#ffffff"/>
<path transform="matrix(1,0,0,-1,328.8167,212.1471)" d="M0 0C-1.616 0-3.024 1.06-3.024 2.956V7.138C-3.024 9.034-1.616 10.094 0 10.094 1.617 10.094 3.01 9.034 3.01 7.138V2.956C3.01 1.06 1.617 0 0 0M1.198 7.11C1.198 7.947 .711 8.463 0 8.463-.711 8.463-1.212 7.947-1.212 7.11V2.97C-1.212 2.133-.711 1.631 0 1.631 .711 1.631 1.198 2.133 1.198 2.97Z" fill="#ffffff"/>
<path transform="matrix(1,0,0,-1,338.9188,211.49179)" d="M0 0C-.404-.404-1.059-.655-1.77-.655-2.508-.655-3.052-.46-3.526 .07V-3.235H-5.337V6.692H-3.581V6.009C-3.079 6.567-2.536 6.776-1.77 6.776-1.059 6.776-.404 6.525 0 6.12 .725 5.395 .739 4.155 .739 3.067 .739 1.98 .725 .725 0 0M-2.299 5.145C-3.386 5.145-3.526 4.252-3.526 3.067-3.526 1.882-3.386 .976-2.299 .976-1.212 .976-1.073 1.882-1.073 3.067-1.073 4.252-1.212 5.145-2.299 5.145" fill="#ffffff"/>
<path transform="matrix(1,0,0,-1,349.8011,212.0635)" d="M0 0V4.392C0 5.382-.627 5.716-1.198 5.716-1.756 5.716-2.411 5.382-2.411 4.433V0H-4.222V4.392C-4.222 5.382-4.849 5.716-5.421 5.716-5.992 5.716-6.633 5.382-6.633 4.392V0H-8.444V7.264H-6.675V6.594C-6.201 7.083-5.532 7.347-4.863 7.347-4.055 7.347-3.4 7.055-2.94 6.427-2.327 7.069-1.672 7.347-.766 7.347-.042 7.347 .613 7.11 1.017 6.706 1.603 6.12 1.812 5.437 1.812 4.643V0Z" fill="#ffffff"/>
<path transform="matrix(1,0,0,-1,128.3071,194.72769)" d="M0 0C0 1.305-1.057 2.363-2.362 2.363-3.666 2.363-4.723 1.305-4.723 0-4.723-1.305-3.666-2.363-2.362-2.363-1.057-2.363 0-1.305 0 0M-1.574 0H-3.148V-50.128H-1.574ZM-1.574-50.128" fill="#ffffff"/>
<path transform="matrix(1,0,0,-1,261.3463,217.41062)" d="M0 0C0 1.305-1.057 2.363-2.362 2.363-3.666 2.363-4.723 1.305-4.723 0-4.723-1.305-3.666-2.363-2.362-2.363-1.057-2.363 0-1.305 0 0M-1.574 0H-3.148V-27.445H-1.574ZM-1.574-27.445" fill="#ffffff"/>
</g>
</g>
</g>
</svg>
