<svg xmlns="http://www.w3.org/2000/svg" xmlns:xlink="http://www.w3.org/1999/xlink" xmlns:inkscape="http://www.inkscape.org/namespaces/inkscape" version="1.1" width="411.024" height="595.276" viewBox="0 0 411.024 595.276">
<defs>
<clipPath id="clip_1">
<path transform="matrix(1,0,0,-1,0,595.276)" d="M0 0H411.024V595.276H0Z"/>
</clipPath>
<clipPath id="clip_2">
<path transform="matrix(1,0,0,-1,0,595.276)" d="M0 0H411.024V595.276H0Z"/>
</clipPath>
<path id="font_3_3" d="M.32998658 0V.71191409H.2579956L.125 .5969238V.51493838L.2579956 .63191226V0H.32998658Z"/>
<path id="font_3_6" d="M.48199464 .11273193V.17773438H.394989V.37979127H.32398988V.17773438H.116989139L.37399293 .71191409H.29699708L.039993287 .17773438V.11273193H.32398988V0H.394989V.11273193H.48199464Z"/>
<path id="font_3_4" d="M.46099855 0V.06399536H.15499878L.4039917 .38186646C.44299317 .43185426 .46099855 .46884156 .46099855 .5258179 .46099855 .6427765 .38198854 .71777346 .2649994 .71777346 .1459961 .71777346 .068984989 .6367645 .068984989 .5248108H.14099121C.14099121 .6167755 .19898987 .6537628 .2649994 .6537628 .34298707 .6537628 .3889923 .6027832 .3889923 .5258179 .3889923 .48683167 .37599183 .45584107 .34899903 .42085267L.067993167 .06399536V0H.46099855Z"/>
<clipPath id="clip_4">
<path transform="matrix(1,0,0,-1,0,595.276)" d="M0 0H411.024V595.276H0Z"/>
</clipPath>
<clipPath id="clip_5">
<path transform="matrix(1,0,0,-1,0,595.276)" d="M0 0H411.024V595.276H0Z"/>
</clipPath>
<clipPath id="clip_6">
<path transform="matrix(1,0,0,-1,0,595.276)" d="M0 0H411.024V595.276H0Z"/>
</clipPath>
<clipPath id="clip_7">
<path transform="matrix(1,0,0,-1,0,595.276)" d="M0 0H411.024V595.276H0Z"/>
</clipPath>
<clipPath id="clip_8">
<path transform="matrix(1,0,0,-1,0,595.276)" d="M0 0H411.024V595.276H0Z"/>
</clipPath>
<clipPath id="clip_9">
<path transform="matrix(1,0,0,-1,0,595.276)" d="M0 0H411.024V595.276H0Z"/>
</clipPath>
<clipPath id="clip_10">
<path transform="matrix(1,0,0,-1,0,595.276)" d="M0 0H411.024V595.276H0Z"/>
</clipPath>
<clipPath id="clip_11">
<path transform="matrix(1,0,0,-1,0,595.276)" d="M0 0H411.024V595.276H0Z"/>
</clipPath>
<clipPath id="clip_12">
<path transform="matrix(1,0,0,-1,0,595.276)" d="M0 0H411.024V595.276H0Z"/>
</clipPath>
<clipPath id="clip_13">
<path transform="matrix(1,0,0,-1,0,595.276)" d="M0 0H411.024V595.276H0Z"/>
</clipPath>
<clipPath id="clip_14">
<path transform="matrix(1,0,0,-1,0,595.276)" d="M0 0H411.024V595.276H0Z"/>
</clipPath>
<clipPath id="clip_15">
<path transform="matrix(1,0,0,-1,0,595.276)" d="M0 0H411.024V595.276H0Z"/>
</clipPath>
<clipPath id="clip_16">
<path transform="matrix(1,0,0,-1,0,595.276)" d="M0 0H411.024V595.276H0Z"/>
</clipPath>
<clipPath id="clip_17">
<path transform="matrix(1,0,0,-1,0,595.276)" d="M0 0H411.024V595.276H0Z"/>
</clipPath>
</defs>
<g clip-path="url(#clip_1)">
<g clip-path="url(#clip_2)">
<use data-text="1" xlink:href="#font_3_3" transform="matrix(9,0,0,-9,35.4331,567.547)" fill="#f43040"/>
<use data-text="4" xlink:href="#font_3_6" transform="matrix(9,0,0,-9,39.0331,567.547)" fill="#f43040"/>
<use data-text="2" xlink:href="#font_3_4" transform="matrix(9,0,0,-9,42.6331,567.547)" fill="#f43040"/>
<path transform="matrix(1,0,0,-1,0,595.276)" d="M0 0H411.024V595.275H0Z" fill="#f43040"/>
<path transform="matrix(1,0,0,-1,352.9015,286.4338)" stroke-width="1.246" stroke-linecap="butt" stroke-miterlimit="8" stroke-linejoin="miter" fill="none" stroke="#ffffff" d="M0 0H-296.209"/>
<g clip-path="url(#clip_4)">
<path transform="matrix(1,0,0,-1,135.7208,286.4023)" d="M0 0C-.094 2.022 1.573 3.69 3.629 3.69 5.686 3.69 7.353 2.022 7.353-.035 7.353-2.093 5.686-3.761 3.629-3.761 1.573-3.761-.094-2.093 0 0" fill="#ffffff"/>
</g>
<path transform="matrix(1,0,0,-1,0,595.276)" d="M127.346 303.932H154.619V287.818H127.346Z" fill="#f43040"/>
<g clip-path="url(#clip_5)">
<path transform="matrix(1,0,0,-1,135.6017,293.957)" d="M0 0C.356-.03 .696-.06 1.023-.089 .963-.475 .948-1.172 .978-2.18H2.268C2.89-2.18 3.571-2.165 4.313-2.135V-2.98C3.542-2.951 2.86-2.936 2.268-2.936H1.023C1.052-4.063 1.245-5.293 1.601-6.628 2.163-5.768 2.608-4.775 2.934-3.647 3.23-3.885 3.571-4.092 3.957-4.27 3.719-4.537 3.453-4.982 3.157-5.605 2.86-6.227 2.474-6.88 2.001-7.562 2.268-8.096 2.556-8.518 2.868-8.83 3.179-9.141 3.393-9.274 3.512-9.23 3.63-9.185 3.749-8.674 3.868-7.695 4.164-7.933 4.475-8.111 4.802-8.229 4.594-9.445 4.364-10.12 4.113-10.253 3.86-10.386 3.557-10.386 3.201-10.253 2.845-10.12 2.512-9.867 2.201-9.497 1.89-9.126 1.63-8.718 1.423-8.274 .711-9.045-.193-9.771-1.289-10.453-1.438-10.186-1.66-9.949-1.956-9.741-1.364-9.475-.793-9.119-.245-8.674 .304-8.229 .711-7.814 .978-7.428 .77-6.866 .593-6.176 .445-5.36 .296-4.545 .207-3.736 .178-2.936H-3.646V-4.493H-.756C-.816-5.026-.86-5.576-.889-6.138L-1.023-7.918C-1.052-8.481-1.208-8.823-1.489-8.941-1.771-9.06-2.253-9.149-2.934-9.208-2.964-8.941-3.083-8.615-3.29-8.229-2.549-8.259-2.12-8.214-2.001-8.096-1.883-7.978-1.808-7.636-1.778-7.073L-1.689-5.293H-3.646C-3.646-6.45-3.735-7.414-3.912-8.185-4.09-8.956-4.417-9.667-4.891-10.32-5.217-10.082-5.513-9.919-5.78-9.83-5.395-9.356-5.128-8.904-4.979-8.474-4.832-8.044-4.72-7.577-4.646-7.073-4.572-6.569-4.528-5.857-4.513-4.937-4.498-4.019-4.506-3.099-4.535-2.18H.089C.059-1.32 .029-.594 0 0M3.868-1.423C3.601-1.631 3.364-1.839 3.157-2.046 2.801-1.572 2.326-1.083 1.734-.578 1.941-.4 2.134-.208 2.312 0 2.905-.475 3.423-.949 3.868-1.423" fill="#ffffff"/>
<path transform="matrix(1,0,0,-1,146.1625,296.2701)" d="M0 0V.89C0 1.364-.015 1.808-.044 2.224H.934C.904 1.897 .889 1.468 .889 .934V0H3.379C3.883 0 4.475 .015 5.157 .044V-.801C4.505-.772 3.927-.756 3.423-.756H1.601C2.015-2.12 2.615-3.196 3.401-3.981 4.186-4.767 4.905-5.293 5.557-5.56 5.291-5.768 5.039-6.049 4.802-6.405 3.794-5.723 2.971-4.945 2.334-4.07 1.696-3.196 1.215-2.18 .889-1.023V-5.204H1.467C1.941-5.204 2.43-5.19 2.934-5.16V-6.005C2.43-5.976 1.926-5.961 1.423-5.961H.889C.889-6.643 .904-7.339 .934-8.051H-.044C-.015-7.339 0-6.643 0-5.961H-.578C-1.052-5.961-1.527-5.976-2.001-6.005V-5.16C-1.527-5.19-1.052-5.204-.578-5.204H0V-1.112C-.474-2.328-1-3.351-1.578-4.181-2.156-5.012-2.934-5.842-3.912-6.672-4.15-6.346-4.431-6.109-4.757-5.961-3.779-5.368-2.964-4.626-2.312-3.736-1.66-2.847-1.141-1.854-.756-.756H-2.712C-3.187-.756-3.69-.772-4.224-.801V.044C-3.69 .015-3.201 0-2.757 0Z" fill="#ffffff"/>
<path transform="matrix(1,0,0,-1,140.0048,231.5463)" d="M0 0C.029 .785 .14 1.408 .333 1.868 .526 2.328 .8 2.706 1.156 3.003 1.512 3.299 1.949 3.447 2.468 3.447 2.986 3.447 3.438 3.232 3.824 2.802 4.208 2.372 4.461 1.831 4.579 1.179 4.697 .526 4.735-.222 4.691-1.068 4.646-1.913 4.497-2.602 4.246-3.136 3.994-3.67 3.616-4.041 3.112-4.248 2.608-4.456 2.104-4.434 1.601-4.181 1.096-3.93 .741-3.596 .534-3.18 .326-2.766 .178-2.328 .089-1.868 0-1.409-.03-.786 0 0M.934 .267C.845-.549 .874-1.275 1.023-1.913 1.171-2.551 1.415-3.003 1.756-3.269 2.097-3.536 2.445-3.588 2.801-3.425 3.157-3.262 3.416-2.936 3.579-2.447 3.742-1.957 3.824-1.423 3.824-.845 3.824-.267 3.801 .259 3.757 .734 3.712 1.208 3.579 1.638 3.357 2.024 3.134 2.409 2.838 2.609 2.468 2.624 2.097 2.639 1.771 2.453 1.489 2.068 1.207 1.683 1.023 1.082 .934 .267" fill="#ffffff"/>
</g>
<path transform="matrix(1,0,0,-1,0,595.276)" d="M146.218 359.437H147.241V360.415H146.218Z" fill="#ffffff"/>
<g clip-path="url(#clip_6)">
<path transform="matrix(1,0,0,-1,152.0328,233.70362)" d="M0 0C.207-.801 .563-1.245 1.067-1.334 1.571-1.423 1.979-1.372 2.29-1.179 2.601-.986 2.823-.734 2.957-.423 3.09-.111 3.149 .237 3.135 .623 3.119 1.008 3.016 1.334 2.823 1.601 2.63 1.868 2.386 2.046 2.09 2.135 1.793 2.224 1.46 2.224 1.089 2.135 .718 2.046 .415 1.838 .178 1.512L-.578 1.601C-.519 1.779-.237 3.054 .267 5.427H3.779V4.626H.934C.785 3.825 .637 3.187 .489 2.713 .934 2.921 1.348 3.017 1.734 3.003 2.119 2.987 2.49 2.898 2.845 2.736 3.201 2.572 3.46 2.35 3.623 2.068 3.786 1.786 3.905 1.505 3.979 1.223 4.053 .941 4.083 .637 4.068 .311 4.053-.015 3.986-.349 3.868-.689 3.749-1.031 3.571-1.312 3.335-1.535 3.097-1.757 2.808-1.935 2.468-2.068 2.127-2.202 1.734-2.254 1.289-2.224 .845-2.195 .422-2.032 .022-1.735-.378-1.439-.652-.934-.8-.222Z" fill="#ffffff"/>
</g>
<path transform="matrix(1,0,0,-1,287.7574,405.4924)" stroke-width="1.246" stroke-linecap="butt" stroke-miterlimit="8" stroke-linejoin="miter" fill="none" stroke="#ffffff" d="M0 0V228.054M-148.499 126.092V165.398M-173.107 120.643V165.398"/>
<g clip-path="url(#clip_7)">
<path transform="matrix(1,0,0,-1,105.6616,231.5463)" d="M0 0C.029 .785 .14 1.408 .333 1.868 .526 2.328 .8 2.706 1.156 3.003 1.512 3.299 1.949 3.447 2.468 3.447 2.986 3.447 3.438 3.232 3.824 2.802 4.208 2.372 4.461 1.831 4.579 1.179 4.697 .526 4.735-.222 4.69-1.068 4.646-1.913 4.497-2.602 4.246-3.136 3.994-3.67 3.616-4.041 3.112-4.248 2.608-4.456 2.104-4.434 1.601-4.181 1.096-3.93 .741-3.596 .534-3.18 .326-2.766 .178-2.328 .089-1.868 0-1.409-.03-.786 0 0M.934 .267C.845-.549 .874-1.275 1.023-1.913 1.171-2.551 1.415-3.003 1.756-3.269 2.097-3.536 2.445-3.588 2.801-3.425 3.157-3.262 3.416-2.936 3.579-2.447 3.742-1.957 3.824-1.423 3.824-.845 3.824-.267 3.801 .259 3.757 .734 3.712 1.208 3.579 1.638 3.357 2.024 3.134 2.409 2.838 2.609 2.468 2.624 2.097 2.639 1.771 2.453 1.489 2.068 1.207 1.683 1.023 1.082 .934 .267" fill="#ffffff"/>
</g>
<path transform="matrix(1,0,0,-1,0,595.276)" d="M111.875 359.437H112.898V360.415H111.875Z" fill="#ffffff"/>
<g clip-path="url(#clip_8)">
<path transform="matrix(1,0,0,-1,117.1561,233.887)" d="M0 0 .8 .133C.918-.252 1.112-.57 1.378-.821 1.645-1.072 1.979-1.191 2.379-1.176 2.779-1.161 3.097-.998 3.334-.688 3.571-.377 3.675-.022 3.646 .377 3.616 .776 3.46 1.087 3.179 1.309 2.897 1.531 2.445 1.686 1.823 1.775V2.351C2.445 2.41 2.897 2.573 3.179 2.839 3.46 3.105 3.586 3.453 3.557 3.882 3.527 4.31 3.334 4.621 2.979 4.813 2.623 5.005 2.245 5.028 1.845 4.88 1.445 4.732 1.126 4.318 .889 3.638L.089 3.771C.267 4.303 .511 4.747 .823 5.102 1.134 5.457 1.556 5.663 2.09 5.723 2.623 5.782 3.09 5.715 3.49 5.523 3.89 5.33 4.172 5.035 4.335 4.636 4.497 4.237 4.52 3.8 4.401 3.327 4.283 2.854 3.942 2.44 3.379 2.085 3.794 1.908 4.113 1.641 4.335 1.286 4.557 .932 4.631 .466 4.557-.111 4.483-.688 4.224-1.153 3.779-1.508 3.334-1.863 2.83-2.034 2.267-2.018 1.704-2.004 1.215-1.827 .8-1.486 .385-1.147 .118-.651 0 0" fill="#ffffff"/>
</g>
<path transform="matrix(1,0,0,-1,85.2842,285.2384)" stroke-width="1.246" stroke-linecap="butt" stroke-miterlimit="8" stroke-linejoin="miter" fill="none" stroke="#ffffff" d="M0 0V107.022"/>
<path transform="matrix(1,0,0,-1,0,595.276)" d="M94.704 332.723H133.574V316.824H94.704Z" fill="#f43040"/>
<g clip-path="url(#clip_9)">
<path transform="matrix(1,0,0,-1,99.6243,272.678)" d="M0 0C.415 .118 .889 .296 1.423 .534 1.393 .207 1.378-.089 1.378-.356 .874-.534 .304-.727-.333-.934-.971-1.142-1.512-1.364-1.956-1.601-2.045-1.305-2.194-.994-2.401-.667-1.956-.549-1.453-.4-.889-.222V3.692C-1.453 3.692-1.912 3.677-2.267 3.647V4.493C-1.912 4.463-1.453 4.448-.889 4.448V5.872C-.889 6.376-.904 6.879-.934 7.384H.044C.015 6.998 0 6.494 0 5.872V4.448C.534 4.448 .963 4.463 1.289 4.493V3.647C.963 3.677 .534 3.692 0 3.692ZM.8 3.247C1.126 3.306 1.526 3.425 2.001 3.603V4.626C2.001 5.16 1.985 5.767 1.956 6.45H2.845C2.816 5.827 2.801 5.234 2.801 4.671V3.87L4.135 4.359V6.138C4.135 6.642 4.12 7.146 4.09 7.651H5.024C4.994 7.295 4.98 6.776 4.98 6.094V4.626C5.424 4.744 6.195 4.997 7.291 5.382 7.262 5.026 7.247 4.507 7.247 3.825V2.091C7.276 1.319 7.136 .83 6.825 .623 6.513 .415 6.12 .252 5.646 .133 5.557 .429 5.424 .741 5.246 1.068 5.78 1.127 6.113 1.208 6.247 1.312 6.38 1.416 6.431 1.749 6.402 2.313V4.226C5.898 4.077 5.424 3.929 4.98 3.781V.801C4.98 .267 4.994-.178 5.024-.534H4.09C4.12 0 4.135 .445 4.135 .801V3.514L2.801 3.025V-.667C2.801-1.261 3.008-1.557 3.423-1.557H6.269C6.565-1.557 6.758-1.461 6.847-1.268 6.936-1.075 7.025-.742 7.114-.267 7.41-.475 7.736-.608 8.092-.667 7.914-1.32 7.721-1.757 7.514-1.979 7.306-2.202 6.98-2.313 6.536-2.313H3.023C2.371-2.313 2.03-1.913 2.001-1.112V2.758C1.645 2.639 1.378 2.52 1.201 2.402 1.052 2.758 .918 3.039 .8 3.247" fill="#ffffff"/>
<path transform="matrix(1,0,0,-1,111.1633,269.2974)" d="M0 0C-.267-.297-.46-.578-.578-.845-1.141-.4-1.808 .015-2.579 .4-2.431 .667-2.267 .934-2.09 1.201-1.408 .815-.711 .415 0 0M-1.2-3.581C-.786-2.943-.356-2.15 .089-1.201 .356-1.498 .607-1.72 .845-1.868 .518-2.402 .104-3.107-.4-3.981-.904-4.856-1.23-5.411-1.378-5.649-1.616-5.411-1.942-5.204-2.356-5.026-2.001-4.7-1.616-4.219-1.2-3.581M.222 1.69C-.519 2.342-1.156 2.817-1.689 3.114-1.482 3.351-1.289 3.603-1.112 3.87-.549 3.484 .104 3.009 .845 2.447 .578 2.209 .37 1.957 .222 1.69M3.201 3.069C3.082 2.862 2.934 2.595 2.757 2.269H7.647C7.617 1.794 7.587 1.141 7.558 .311L7.425-4.537C7.365-5.1 7.18-5.478 6.869-5.671 6.558-5.864 5.958-6.02 5.068-6.138 5.039-5.872 4.905-5.53 4.668-5.115 5.35-5.115 5.831-5.063 6.113-4.96 6.395-4.856 6.536-4.597 6.536-4.181L6.713 1.512H2.49C2.104 .771 1.704 .104 1.289-.489 1.082-.252 .815-.06 .489 .089 .874 .474 1.274 1.082 1.689 1.913 2.104 2.743 2.401 3.499 2.579 4.181 2.934 3.973 3.275 3.81 3.601 3.692 3.453 3.484 3.319 3.276 3.201 3.069M3.268-1.29C2.986-1.795 2.682-2.284 2.356-2.758L4.535-2.669C4.416-2.284 4.283-1.913 4.135-1.557 4.342-1.498 4.624-1.379 4.98-1.201 5.335-2.091 5.646-2.936 5.913-3.736 5.557-3.855 5.261-3.974 5.024-4.092 4.935-3.736 4.861-3.485 4.802-3.336 4.06-3.396 3.423-3.455 2.89-3.514 2.356-3.574 1.912-3.692 1.556-3.87 1.467-3.603 1.319-3.277 1.112-2.891 1.378-2.891 1.682-2.58 2.023-1.957 2.363-1.334 2.682-.549 2.979 .4 3.334 .163 3.66 0 3.957-.089 3.779-.386 3.549-.786 3.268-1.29" fill="#ffffff"/>
<path transform="matrix(1,0,0,-1,122.8355,269.4753)" d="M0 0C-.238-.297-.385-.564-.445-.801-1.127-.356-1.808 .015-2.49 .311-2.372 .578-2.238 .83-2.09 1.068-1.438 .771-.741 .415 0 0M-.667-3.914C-1.023-4.775-1.319-5.427-1.556-5.872-1.764-5.634-2.075-5.441-2.49-5.293-2.105-4.849-1.734-4.256-1.378-3.514-1.023-2.773-.771-2.135-.622-1.601-.326-1.809-.06-1.973 .178-2.091-.03-2.447-.311-3.055-.667-3.914M.622 2.58C.385 2.372 .192 2.12 .044 1.824-.549 2.298-1.171 2.728-1.823 3.114L-1.289 3.825C-.667 3.44-.03 3.025 .622 2.58M3.512 2.713C3.512 3.098 3.497 3.603 3.468 4.226H4.401C4.372 3.603 4.357 3.098 4.357 2.713V1.824H7.158C7.128 1.112 7.114 .563 7.114 .178V-4.092C7.114-4.419 7.128-4.982 7.158-5.783H6.269V-4.849H1.601V-5.783H.711C.741-5.011 .756-4.433 .756-4.048V.133C.756 .518 .741 1.082 .711 1.824H3.512ZM3.512 1.112H1.6000002V-1.112H3.512ZM3.512-1.824H1.6000002V-4.137H3.512ZM6.269 1.112H4.3570005V-1.112H6.269ZM6.269-1.824H4.3570005V-4.137H6.269ZM6.269-4.137" fill="#ffffff"/>
</g>
<path transform="matrix(1,0,0,-1,0,595.276)" d="M62.921 349.481H101.791V333.582H62.921Z" fill="#f43040"/>
<g clip-path="url(#clip_10)">
<path transform="matrix(1,0,0,-1,67.1299,257.3994)" d="M0 0C-.638-.193-1.119-.348-1.445-.467-1.505-.111-1.578 .245-1.667 .6-1.223 .63-.838 .66-.511 .689-.185 .719 .111 .749 .378 .778V3.269H-.467V2.335H-1.267C-1.238 2.987-1.223 3.521-1.223 3.937V5.138C-1.223 5.642-1.238 6.22-1.267 6.872H.378V8.073C.378 8.281 .363 8.592 .334 9.008H1.178C1.148 8.652 1.134 8.31 1.134 7.984V6.872H2.779C2.749 6.22 2.734 5.642 2.734 5.138V4.426C2.734 4.04 2.749 3.506 2.779 2.825H1.979V3.269H1.134V.956L2.112 1.223C2.023 1.519 1.904 1.816 1.756 2.113 2.023 2.172 2.29 2.275 2.556 2.424 2.675 2.038 2.779 1.66 2.868 1.29 2.957 .919 3.075 .482 3.223-.022 2.986-.082 2.734-.17 2.468-.289 2.379 .126 2.304 .407 2.245 .556 1.385 .378 .637 .193 0 0M.378 6.161H-.46700005V3.9809998H.378ZM1.979 6.161H1.134V3.9809998H1.979ZM6.113 1.89C6.558 1.89 6.958 1.905 7.314 1.935V1.09C6.928 1.149 6.513 1.179 6.069 1.179H3.801C3.535 1.179 3.268 1.149 3.001 1.09V1.935C3.268 1.905 3.712 1.89 4.335 1.89ZM6.424 4.026C6.484 4.677 6.543 5.263 6.602 5.783 6.661 6.301 6.72 6.917 6.78 7.629H4.735C4.113 7.629 3.579 7.613 3.134 7.584V8.385C3.579 8.355 4.113 8.34 4.735 8.34H7.714C7.654 8.014 7.587 7.599 7.514 7.095 7.439 6.59 7.38 6.064 7.336 5.516 7.291 4.967 7.254 4.47 7.225 4.026H8.514C8.454 3.521 8.388 2.795 8.314 1.846 8.24 .897 8.158 .229 8.069-.156 7.981-.541 7.825-.808 7.603-.956 7.38-1.104 6.809-1.238 5.891-1.357 5.802-1.06 5.653-.749 5.446-.423 6.336-.452 6.869-.423 7.047-.334 7.225-.245 7.336 .059 7.38 .578 7.425 1.097 7.492 2.009 7.58 3.314H3.401C3.49 3.848 3.564 4.426 3.623 5.049 3.683 5.671 3.727 6.294 3.757 6.917L4.735 6.694C4.616 6.339 4.527 5.908 4.468 5.405 4.409 4.9 4.349 4.44 4.29 4.026Z" fill="#ffffff"/>
<path transform="matrix(1,0,0,-1,78.9135,254.08551)" d="M0 0H-.8V-.979H-1.69C-1.66-.297-1.645 .252-1.645 .667V1.913C-1.645 2.387-1.66 2.936-1.69 3.559H0V4.715C0 5.011-.015 5.367-.044 5.783H.845C.815 5.397 .8 5.056 .8 4.76V3.559H2.49C2.46 2.936 2.445 2.387 2.445 1.913V1.245C2.445 .771 2.46 .178 2.49-.534H1.645V0H.8V-2.402C1.274-2.343 1.748-2.269 2.223-2.18 2.134-1.943 2.015-1.646 1.867-1.29 2.193-1.172 2.46-1.083 2.668-1.023 2.815-1.409 2.941-1.757 3.045-2.068 3.149-2.38 3.275-2.743 3.423-3.158 3.216-3.247 2.949-3.366 2.623-3.514L2.401-2.847C1.956-2.907 1.563-2.966 1.223-3.025 .882-3.085 .504-3.151 .089-3.225-.327-3.299-.949-3.44-1.778-3.647-1.867-3.322-1.972-3.01-2.09-2.713-1.467-2.654-.771-2.58 0-2.491ZM0 2.891H-.8V.66700008H0ZM1.645 2.891H.79999998V.66700008H1.645ZM2.623 1.69C2.979 2.105 3.253 2.506 3.446 2.891 3.638 3.276 3.801 3.654 3.935 4.026 4.068 4.396 4.172 4.722 4.246 5.004 4.319 5.286 4.386 5.589 4.446 5.916 4.772 5.797 5.157 5.694 5.602 5.605 5.424 5.338 5.268 5.049 5.135 4.737 5.002 4.426 4.891 4.151 4.802 3.914H7.202C7.676 3.914 8.092 3.929 8.447 3.959V3.114C8.181 3.143 7.765 3.158 7.202 3.158H5.469V1.201H6.98C7.454 1.201 7.839 1.216 8.136 1.245V.445C7.78 .474 7.395 .489 6.98 .489H5.469V-1.557H7.069C7.603-1.557 8.047-1.542 8.403-1.512V-2.313C8.047-2.284 7.617-2.269 7.114-2.269H5.469V-3.292C5.469-3.884 5.483-4.329 5.513-4.626H4.579C4.608-4.299 4.624-3.855 4.624-3.292V3.114H4.401C4.224 2.728 4.046 2.38 3.868 2.068 3.69 1.757 3.482 1.423 3.245 1.068 3.038 1.334 2.83 1.542 2.623 1.69" fill="#ffffff"/>
<path transform="matrix(1,0,0,-1,92.5197,252.1283)" d="M0 0C.4 .415 .615 .83 .645 1.245H-2.423V-6.361H-3.357C-3.328-5.856-3.312-5.338-3.312-4.804V.578C-3.312 1.052-3.328 1.512-3.357 1.957H.689C.689 2.639 .674 3.187 .645 3.603 .971 3.603 1.356 3.588 1.801 3.559 1.682 3.321 1.608 3.062 1.578 2.78 1.549 2.498 1.534 2.224 1.534 1.957H5.624C5.594 1.512 5.58 1.157 5.58 .89V-5.16C5.55-5.634 5.357-5.931 5.002-6.049 4.646-6.168 4.172-6.272 3.579-6.361 3.549-6.064 3.386-5.738 3.09-5.382 4.127-5.441 4.661-5.293 4.691-4.937V1.245H1.534C1.504 1.068 1.46 .89 1.401 .712 2.112 .445 3.001-.015 4.068-.667 3.801-.816 3.579-1.053 3.401-1.379 2.838-.816 2.082-.327 1.134 .089 .452-.742-.333-1.32-1.223-1.646-1.341-1.379-1.564-1.157-1.89-.979-1.03-.742-.4-.416 0 0M1.134-2.535C2.171-3.069 3.03-3.588 3.712-4.092 3.386-4.33 3.179-4.567 3.09-4.804 2.616-4.33 1.845-3.781 .778-3.158 .245-3.9-.363-4.508-1.045-4.982-1.253-4.745-1.505-4.567-1.801-4.448-.941-3.944-.289-3.358 .156-2.691 .6-2.024 .852-1.483 .911-1.068 1.118-1.216 1.445-1.35 1.89-1.468 1.623-1.735 1.371-2.091 1.134-2.535" fill="#ffffff"/>
</g>
<path transform="matrix(1,0,0,-1,169.5612,403.1573)" stroke-width="1.246" stroke-linecap="butt" stroke-miterlimit="8" stroke-linejoin="miter" fill="none" stroke="#ffffff" d="M0 0V114.027M22.225 37.75V114.027M54.725 37.36V113.983"/>
<path transform="matrix(1,0,0,-1,0,595.276)" d="M171.799 261.391H222.265V245.49199H171.799Z" fill="#f43040"/>
<g clip-path="url(#clip_11)">
<path transform="matrix(1,0,0,-1,175.7615,345.0564)" d="M0 0V3.736C-.386 3.736-.786 3.721-1.201 3.692V4.448C-.786 4.418-.371 4.404 .044 4.404H6.98C7.514 4.404 8.032 4.418 8.536 4.448V3.692C8.032 3.721 7.514 3.736 6.98 3.736H3.468V.578L4.09 .756C4.09 .489 4.105 .267 4.135 .089 3.897 .029 3.675-.015 3.468-.044 3.468-.578 3.482-1.097 3.512-1.601H2.668C2.697-1.097 2.712-.623 2.712-.178 2.385-.238 1.904-.334 1.267-.467 .629-.601-.06-.756-.8-.934-.889-.608-.993-.341-1.112-.133-.875-.104-.504-.06 0 0M7.069 7.073V6.272C7.069 5.945 7.084 5.575 7.113 5.16H.311C.34 5.575 .356 5.945 .356 6.272V7.073C.356 7.399 .34 7.754 .311 8.14H7.113C7.084 7.754 7.069 7.399 7.069 7.073M2.712 3.736H.7559999V2.98H2.712ZM2.712 2.358H.7559999V1.602H2.712ZM2.712 .4V1.023H.756V.133ZM6.224 7.562H1.1560001V6.9389998H6.224ZM6.224 6.316H1.1560001V5.738H6.224ZM3.912 3.025C4.446 2.995 4.935 2.98 5.38 2.98H7.603C7.276 1.735 6.891 .771 6.447 .089 7.187-.386 7.898-.682 8.581-.801 8.314-1.008 8.151-1.245 8.092-1.512 7.35-1.275 6.654-.89 6.002-.356 5.617-.771 5.098-1.201 4.446-1.646 4.327-1.468 4.119-1.29 3.824-1.112 4.446-.904 4.979-.534 5.424 0 4.92 .504 4.535 1.29 4.268 2.358H3.912ZM5.869 .489C6.224 .993 6.491 1.616 6.669 2.358H4.979C5.098 1.646 5.394 1.023 5.869 .489" fill="#ffffff"/>
<path transform="matrix(1,0,0,-1,188.4564,337.7837)" d="M0 0C-.089-.4-.178-.794-.267-1.179H1.956C1.808-2.068 1.645-2.869 1.467-3.581 1.289-4.292 1.007-5.034 .622-5.805 1.096-6.22 1.645-6.724 2.267-7.317 2.001-7.525 1.763-7.747 1.556-7.984 1.112-7.422 .652-6.932 .178-6.517-.208-6.991-.593-7.414-.978-7.784-1.364-8.155-1.764-8.503-2.179-8.83-2.297-8.622-2.52-8.399-2.845-8.162-2.401-7.895-1.979-7.592-1.578-7.251-1.178-6.91-.8-6.487-.445-5.983-.978-5.568-1.556-5.167-2.179-4.782-1.794-3.892-1.482-2.929-1.245-1.89-1.719-1.89-2.134-1.906-2.49-1.935V-1.134C-2.134-1.164-1.66-1.179-1.067-1.179-.889-.467-.741 .378-.622 1.357-.326 1.268 .015 1.179 .4 1.09 .222 .763 .089 .4 0 0M-.044-5.271C.163-4.915 .356-4.441 .533-3.848 .711-3.255 .859-2.602 .978-1.89H-.4C-.667-2.869-.934-3.73-1.2-4.47-.756-4.767-.371-5.034-.044-5.271M7.291 .289V-.512C6.995-.749 6.669-1.008 6.313-1.29 5.958-1.572 5.587-1.876 5.202-2.202V-3.581H6.402C6.787-3.581 7.217-3.566 7.692-3.536V-4.381C7.217-4.352 6.787-4.337 6.402-4.337H5.202V-7.54C5.202-8.103 5.031-8.458 4.69-8.607 4.349-8.755 3.883-8.874 3.29-8.963 3.201-8.636 3.068-8.296 2.89-7.94 3.542-7.94 3.949-7.902 4.113-7.829 4.275-7.755 4.357-7.54 4.357-7.184V-4.337H3.69C3.068-4.337 2.46-4.352 1.867-4.381V-3.536C2.46-3.566 3.023-3.581 3.557-3.581H4.357C4.357-3.136 4.349-2.788 4.335-2.535 4.32-2.284 4.283-2.084 4.224-1.935 4.49-1.757 4.802-1.528 5.157-1.245 5.513-.964 5.824-.689 6.091-.423H3.423C3.127-.423 2.727-.438 2.223-.467V.334C2.727 .304 3.127 .289 3.423 .289Z" fill="#ffffff"/>
<path transform="matrix(1,0,0,-1,199.8174,338.6511)" d="M0 0H2.001C1.971-.505 1.956-1.142 1.956-1.913V-5.827C1.956-6.272 1.971-6.91 2.001-7.74H1.112V-6.85H-1.156V-7.829H-2.045C-2.016-6.88-2.001-6.287-2.001-6.05V-1.957C-2.001-1.157-2.016-.505-2.045 0H-.756C-.608 .682-.489 1.394-.4 2.135 .015 1.986 .356 1.883 .622 1.824 .474 1.557 .267 .949 0 0M1.112-.756H-1.155V-2.98H1.112ZM1.112-3.736H-1.155V-6.094H1.112ZM7.025-6.717C6.965-7.251 6.684-7.606 6.18-7.784 5.676-7.962 5.113-8.08 4.49-8.14 4.461-7.813 4.327-7.473 4.09-7.117 4.683-7.146 5.15-7.132 5.491-7.073 5.831-7.013 6.047-6.88 6.136-6.672 6.225-6.465 6.291-5.857 6.336-4.849 6.38-3.841 6.417-2.432 6.447-.623H3.868C3.631-1.186 3.29-1.854 2.846-2.624 2.638-2.417 2.386-2.254 2.09-2.135 2.356-1.779 2.608-1.35 2.846-.845 3.082-.341 3.29 .207 3.468 .801 3.646 1.394 3.749 1.853 3.779 2.18 4.194 2.002 4.55 1.868 4.846 1.779 4.698 1.542 4.572 1.282 4.468 1.001 4.364 .719 4.253 .445 4.135 .178H7.292C7.261-.445 7.247-1.023 7.247-1.557 7.217-3.366 7.143-5.086 7.025-6.717M4.624-3.381C4.802-3.736 5.009-4.197 5.246-4.76 5.039-4.849 4.757-4.997 4.402-5.204 4.194-4.641 4.001-4.159 3.824-3.759 3.646-3.358 3.468-3.025 3.29-2.758 3.497-2.64 3.764-2.491 4.09-2.313Z" fill="#ffffff"/>
<path transform="matrix(1,0,0,-1,211.3562,340.8307)" d="M0 0C-.237-.297-.385-.564-.444-.801-1.127-.356-1.808 .015-2.49 .311-2.372 .578-2.238 .83-2.09 1.068-1.438 .771-.741 .415 0 0M-.667-3.914C-1.022-4.775-1.319-5.427-1.556-5.872-1.764-5.634-2.075-5.441-2.49-5.293-2.105-4.848-1.734-4.256-1.378-3.514-1.022-2.773-.771-2.135-.622-1.601-.326-1.809-.06-1.973 .178-2.091-.03-2.446-.311-3.055-.667-3.914M.623 2.58C.385 2.372 .193 2.12 .044 1.824-.549 2.298-1.171 2.728-1.823 3.114L-1.289 3.825C-.667 3.44-.03 3.025 .623 2.58M3.512 2.713C3.512 3.098 3.497 3.603 3.468 4.226H4.402C4.372 3.603 4.357 3.098 4.357 2.713V1.824H7.158C7.128 1.112 7.114 .563 7.114 .178V-4.092C7.114-4.419 7.128-4.982 7.158-5.783H6.269V-4.848H1.601V-5.783H.711C.741-5.011 .756-4.433 .756-4.048V.133C.756 .518 .741 1.082 .711 1.824H3.512ZM3.512 1.112H1.6000002V-1.112H3.512ZM3.512-1.824H1.6000002V-4.137H3.512ZM6.269 1.112H4.3570005V-1.112H6.269ZM6.269-1.824H4.3570005V-4.137H6.269ZM6.269-4.137" fill="#ffffff"/>
</g>
<path transform="matrix(1,0,0,-1,0,595.276)" d="M140.23 279.439H190.696V263.54H140.23Z" fill="#f43040"/>
<g clip-path="url(#clip_12)">
<path transform="matrix(1,0,0,-1,144.2047,326.9532)" d="M0 0V3.736C-.386 3.736-.786 3.721-1.201 3.692V4.448C-.786 4.418-.371 4.404 .044 4.404H6.98C7.514 4.404 8.032 4.418 8.536 4.448V3.692C8.032 3.721 7.514 3.736 6.98 3.736H3.468V.578L4.09 .756C4.09 .489 4.105 .267 4.135 .089 3.897 .029 3.675-.015 3.468-.044 3.468-.578 3.482-1.097 3.512-1.601H2.668C2.697-1.097 2.712-.623 2.712-.178 2.385-.238 1.904-.334 1.267-.467 .629-.6-.06-.756-.8-.934-.889-.608-.993-.341-1.112-.133-.875-.104-.504-.06 0 0M7.069 7.073V6.272C7.069 5.945 7.084 5.575 7.113 5.16H.311C.34 5.575 .356 5.945 .356 6.272V7.073C.356 7.399 .34 7.754 .311 8.14H7.113C7.084 7.754 7.069 7.399 7.069 7.073M2.712 3.736H.7559999V2.98H2.712ZM2.712 2.358H.7559999V1.602H2.712ZM2.712 .4V1.023H.756V.133ZM6.224 7.562H1.1560001V6.9389998H6.224ZM6.224 6.316H1.1560001V5.738H6.224ZM3.912 3.025C4.446 2.995 4.935 2.98 5.38 2.98H7.603C7.276 1.735 6.891 .771 6.447 .089 7.187-.386 7.898-.682 8.581-.801 8.314-1.008 8.151-1.245 8.092-1.512 7.35-1.275 6.654-.89 6.002-.356 5.617-.771 5.098-1.201 4.446-1.646 4.327-1.468 4.119-1.29 3.823-1.112 4.446-.904 4.979-.534 5.424 0 4.92 .504 4.535 1.29 4.268 2.358H3.912ZM5.869 .489C6.224 .993 6.491 1.616 6.669 2.358H4.979C5.098 1.646 5.394 1.023 5.869 .489" fill="#ffffff"/>
<path transform="matrix(1,0,0,-1,156.8996,319.6804)" d="M0 0C-.089-.4-.178-.794-.267-1.179H1.956C1.808-2.068 1.645-2.869 1.467-3.581 1.289-4.293 1.007-5.034 .622-5.805 1.096-6.221 1.645-6.724 2.267-7.317 2.001-7.525 1.763-7.747 1.556-7.984 1.112-7.422 .652-6.932 .178-6.517-.208-6.991-.593-7.414-.978-7.784-1.364-8.155-1.764-8.503-2.179-8.83-2.297-8.622-2.52-8.4-2.845-8.162-2.401-7.896-1.979-7.592-1.578-7.251-1.178-6.91-.8-6.487-.445-5.983-.978-5.568-1.556-5.167-2.179-4.782-1.794-3.892-1.482-2.929-1.245-1.89-1.719-1.89-2.134-1.906-2.49-1.935V-1.134C-2.134-1.164-1.66-1.179-1.067-1.179-.889-.467-.741 .378-.622 1.357-.326 1.268 .015 1.179 .4 1.09 .222 .763 .089 .4 0 0M-.044-5.271C.162-4.915 .356-4.441 .533-3.848 .711-3.255 .859-2.602 .978-1.89H-.4C-.667-2.869-.934-3.73-1.2-4.47-.756-4.767-.371-5.034-.044-5.271M7.291 .289V-.512C6.995-.749 6.669-1.008 6.313-1.29 5.958-1.572 5.587-1.876 5.202-2.202V-3.581H6.402C6.787-3.581 7.217-3.566 7.692-3.536V-4.381C7.217-4.352 6.787-4.337 6.402-4.337H5.202V-7.54C5.202-8.103 5.031-8.458 4.69-8.607 4.349-8.755 3.883-8.874 3.29-8.963 3.201-8.636 3.068-8.296 2.89-7.94 3.542-7.94 3.949-7.902 4.113-7.829 4.275-7.755 4.357-7.54 4.357-7.184V-4.337H3.69C3.068-4.337 2.46-4.352 1.867-4.381V-3.536C2.46-3.566 3.023-3.581 3.557-3.581H4.357C4.357-3.136 4.349-2.788 4.335-2.535 4.32-2.284 4.283-2.084 4.224-1.935 4.49-1.757 4.802-1.528 5.157-1.246 5.513-.964 5.824-.689 6.091-.423H3.423C3.127-.423 2.727-.438 2.223-.467V.334C2.727 .304 3.127 .289 3.423 .289Z" fill="#ffffff"/>
<path transform="matrix(1,0,0,-1,168.2606,320.5479)" d="M0 0H2.001C1.971-.505 1.956-1.142 1.956-1.913V-5.827C1.956-6.272 1.971-6.91 2.001-7.74H1.112V-6.85H-1.156V-7.829H-2.045C-2.016-6.88-2.001-6.287-2.001-6.05V-1.957C-2.001-1.157-2.016-.505-2.045 0H-.756C-.608 .682-.489 1.394-.4 2.135 .015 1.986 .356 1.883 .622 1.824 .474 1.557 .267 .949 0 0M1.112-.756H-1.155V-2.98H1.112ZM1.112-3.736H-1.155V-6.094H1.112ZM7.025-6.717C6.965-7.251 6.684-7.606 6.18-7.784 5.676-7.962 5.113-8.08 4.49-8.14 4.461-7.813 4.327-7.473 4.09-7.117 4.683-7.146 5.15-7.132 5.491-7.073 5.831-7.013 6.047-6.88 6.136-6.672 6.224-6.465 6.291-5.857 6.336-4.849 6.38-3.841 6.417-2.432 6.447-.623H3.868C3.631-1.186 3.29-1.854 2.845-2.624 2.638-2.417 2.386-2.254 2.09-2.135 2.356-1.779 2.608-1.35 2.845-.845 3.082-.341 3.29 .207 3.468 .801 3.646 1.394 3.749 1.853 3.779 2.18 4.194 2.002 4.55 1.868 4.846 1.779 4.698 1.542 4.572 1.282 4.468 1.001 4.364 .719 4.253 .445 4.135 .178H7.291C7.262-.445 7.247-1.023 7.247-1.557 7.217-3.366 7.143-5.086 7.025-6.717M4.624-3.381C4.802-3.736 5.009-4.197 5.246-4.76 5.039-4.849 4.757-4.997 4.402-5.204 4.194-4.641 4.001-4.159 3.824-3.759 3.646-3.358 3.468-3.025 3.29-2.758 3.497-2.64 3.764-2.491 4.09-2.313Z" fill="#ffffff"/>
<path transform="matrix(1,0,0,-1,185.9795,318.9465)" d="M0 0C.445 0 .845 .015 1.2 .044V-.801C.785-.772 .385-.756 0-.756H-3.557C-3.676-1.023-3.868-1.528-4.135-2.269H.445C.415-2.832 .4-3.41 .4-4.003V-7.829C.4-8.481 .415-9.059 .445-9.564H-.445V-8.941H-6.98V-9.564H-7.869C-7.84-9.178-7.825-8.615-7.825-7.873V-3.914C-7.825-3.351-7.84-2.802-7.869-2.269H-4.979C-4.713-1.587-4.55-1.083-4.49-.756H-7.291C-7.736-.756-8.181-.772-8.625-.801V.044C-8.151 .015-7.707 0-7.291 0ZM-5.469-2.98H-6.981V-8.229H-5.469ZM-2.712-2.98H-4.713V-4.225H-2.712ZM-2.712-4.893H-4.713V-6.094H-2.712ZM-2.712-6.761H-4.713V-8.229H-2.712ZM-.445-2.98H-1.957V-8.229H-.445ZM-.445-8.229" fill="#ffffff"/>
</g>
<path transform="matrix(1,0,0,-1,0,595.276)" d="M203.152 283.951H253.618V268.052H203.152Z" fill="#f43040"/>
<g clip-path="url(#clip_13)">
<path transform="matrix(1,0,0,-1,207.1036,315.3628)" d="M0 0V-8.896H-.845C-.816-8.274-.8-7.666-.8-7.073V-1.334C-.8-.712-.816-.03-.845 .712H2.845C2.667 .178 2.467-.393 2.245-1.001 2.023-1.609 1.793-2.209 1.556-2.802 1.912-3.307 2.179-3.752 2.356-4.137 2.534-4.522 2.623-4.923 2.623-5.338 2.623-5.723 2.497-6.035 2.245-6.272 1.993-6.51 1.496-6.672 .756-6.761 .696-6.465 .563-6.168 .356-5.872 .918-5.872 1.312-5.82 1.534-5.716 1.756-5.612 1.845-5.39 1.8-5.049 1.756-4.708 1.637-4.367 1.445-4.026 1.252-3.685 .993-3.307 .667-2.891 1.082-1.913 1.437-.949 1.734 0ZM7.736-7.117C7.647-7.769 7.417-8.177 7.047-8.34 6.676-8.503 6.061-8.629 5.202-8.718 5.142-8.363 5.024-8.007 4.846-7.651 5.498-7.681 5.987-7.673 6.313-7.629 6.639-7.584 6.847-7.325 6.936-6.85L7.291-3.603H4.757C4.727-4.167 4.646-4.723 4.513-5.271 4.379-5.82 4.157-6.391 3.846-6.984 3.534-7.577 3.038-8.244 2.356-8.985 2.119-8.718 1.852-8.511 1.556-8.363 2.179-7.829 2.674-7.266 3.045-6.672 3.416-6.079 3.66-5.464 3.779-4.826 3.897-4.189 3.957-3.559 3.957-2.936V-1.157C3.541-1.157 3.097-1.172 2.623-1.201V-.4C3.216-.43 3.69-.445 4.046-.445H7.647C8.032-.445 8.462-.43 8.936-.4V-1.245C8.492-1.216 8.062-1.201 7.647-1.201H4.757V-2.847H8.269C8.21-3.174 8.136-3.722 8.047-4.493ZM4.891 1.201C5.216 1.319 5.498 1.468 5.735 1.646 6.061 1.023 6.313 .534 6.491 .178 6.253 .059 5.958-.074 5.602-.222 5.424 .311 5.187 .785 4.891 1.201" fill="#ffffff"/>
<path transform="matrix(1,0,0,-1,217.9756,320.1668)" d="M0 0C-.208 .296-.43 .563-.667 .801-.163 .949 .682 1.586 1.867 2.713 1.985 2.506 2.134 2.269 2.312 2.002 1.334 1.171 .563 .504 0 0M1.601 3.736C1.423 3.559 1.274 3.321 1.156 3.025 .652 3.351 .059 3.632-.622 3.87-.445 4.107-.311 4.344-.222 4.582 .34 4.374 .948 4.092 1.601 3.736M4.668-.712C5.35-1.542 6.113-2.135 6.958-2.491 7.803-2.847 8.714-3.025 9.692-3.025 9.307-3.351 9.084-3.677 9.025-4.003 7.987-3.855 7.084-3.573 6.313-3.158 5.542-2.743 4.89-2.18 4.357-1.468 3.883-2.269 3.275-2.862 2.534-3.247 1.793-3.632 .934-3.929-.044-4.137-.074-3.899-.267-3.603-.622-3.247 .029-3.187 .615-3.084 1.134-2.936 1.652-2.788 2.096-2.58 2.467-2.313 2.838-2.046 3.157-1.69 3.423-1.246 3.69-.801 3.853-.238 3.913 .445 4.297 .326 4.653 .252 4.979 .222 4.831-.193 4.727-.505 4.668-.712M2.09 5.471C1.882 5.234 1.719 4.997 1.601 4.76 1.126 5.145 .607 5.456 .044 5.694 .222 5.961 .356 6.198 .445 6.405 .978 6.109 1.526 5.797 2.09 5.471M1.2-2.002C.934-1.884 .652-1.765 .356-1.646 .74-1.201 1.023-.697 1.2-.133 1.467-.252 1.778-.356 2.134-.445 1.837-.772 1.526-1.29 1.2-2.002M8.714 5.916V5.204C8.151 5.145 7.587 4.982 7.025 4.715 6.461 4.448 5.853 4.151 5.202 3.825H9.381C9.292 3.262 9.21 2.706 9.137 2.157 9.062 1.608 8.981 1.193 8.892 .912 8.803 .63 8.625 .452 8.358 .378 8.092 .304 7.721 .207 7.247 .089 7.217 .385 7.098 .682 6.891 .979 7.306 .979 7.595 .993 7.758 1.023 7.921 1.052 8.04 1.156 8.114 1.334 8.188 1.512 8.299 2.105 8.447 3.114H7.202C6.817 1.986 6.239 1.052 5.469 .311 5.231 .459 4.935 .578 4.579 .667 5.35 1.23 5.942 2.046 6.358 3.114H5.202C4.994 2.609 4.675 2.105 4.246 1.601 3.816 1.097 3.408 .696 3.023 .4 2.845 .637 2.579 .801 2.223 .89 2.816 1.245 3.282 1.616 3.623 2.002 3.964 2.387 4.194 2.758 4.313 3.114 3.957 3.114 3.571 3.098 3.157 3.069L3.068 3.825C3.719 3.885 4.313 4.048 4.846 4.315 5.38 4.582 5.942 4.878 6.536 5.204H4.49C4.075 5.204 3.601 5.189 3.068 5.16V5.961C3.601 5.931 4.06 5.916 4.446 5.916ZM7.069-1.957C6.832-1.779 6.565-1.646 6.269-1.557 6.565-1.201 6.832-.756 7.069-.222 7.306-.341 7.603-.445 7.958-.534 7.662-.949 7.365-1.423 7.069-1.957" fill="#ffffff"/>
<path transform="matrix(1,0,0,-1,230.1369,315.1404)" d="M0 0C0 .504-.015 .934-.044 1.29H.889C.859 .963 .845 .548 .845 .044V-1.157C1.289-1.157 1.734-1.142 2.179-1.112V-1.913C1.734-1.884 1.289-1.868 .845-1.868V-3.87C1.23-3.663 1.571-3.47 1.867-3.292 1.867-3.529 1.882-3.796 1.912-4.092 1.645-4.241 1.289-4.434 .845-4.671V-7.962C.785-8.377 .637-8.636 .4-8.741 .163-8.844-.252-8.926-.845-8.985-.845-8.629-.934-8.288-1.111-7.962-.667-7.991-.371-7.991-.222-7.962-.074-7.933 0-7.8 0-7.562V-4.982C-.356-5.131-.771-5.353-1.245-5.649-1.364-5.264-1.497-4.967-1.645-4.76-1.111-4.641-.563-4.448 0-4.181V-1.868C-.533-1.868-.993-1.884-1.378-1.913V-1.112C-.993-1.142-.533-1.157 0-1.157ZM7.336-3.736C7.839-3.736 8.329-3.722 8.803-3.692V-4.493C8.359-4.464 7.884-4.448 7.38-4.448H5.824V-5.694H6.491C7.025-5.694 7.528-5.679 8.003-5.649V-6.45C7.528-6.421 7.039-6.405 6.536-6.405H5.824V-7.829C6.15-7.889 6.595-7.918 7.158-7.918 7.721-7.918 8.314-7.873 8.936-7.784 8.818-7.991 8.699-8.318 8.581-8.763 7.692-8.763 6.92-8.755 6.269-8.741 5.617-8.725 5.053-8.614 4.58-8.407 4.105-8.199 3.66-7.903 3.246-7.517 2.979-8.08 2.534-8.614 1.912-9.119 1.704-8.881 1.452-8.689 1.156-8.54 1.778-8.155 2.23-7.629 2.512-6.961 2.793-6.294 2.934-5.634 2.934-4.982 3.29-5.131 3.616-5.22 3.913-5.249 3.824-5.427 3.705-5.901 3.557-6.672 3.942-7.177 4.416-7.503 4.98-7.651V-4.448H4.001C3.379-4.448 2.771-4.464 2.179-4.493V-3.692C2.771-3.722 3.394-3.736 4.046-3.736ZM7.914-1.023C7.914-1.854 7.928-2.491 7.958-2.936H2.89C2.919-2.343 2.934-1.706 2.934-1.023 2.934-.311 2.919 .356 2.89 .979H7.958C7.928 .504 7.914-.163 7.914-1.023M7.114 .222H3.735V-.579H7.114ZM7.114-1.334H3.735V-2.224H7.114ZM7.114-2.224" fill="#ffffff"/>
<path transform="matrix(1,0,0,-1,248.7892,317.6758)" d="M0 0C.385 0 .859 .015 1.423 .044V-.845C.859-.786 .37-.756-.044-.756H-2.979V-5.56C-2.979-5.886-3.15-6.131-3.49-6.294-3.831-6.457-4.298-6.568-4.89-6.628-4.92-6.331-5.068-5.99-5.335-5.605-4.802-5.634-4.417-5.627-4.179-5.582-3.942-5.538-3.824-5.382-3.824-5.115V-.756H-6.713C-7.307-.756-7.84-.772-8.314-.801V.044C-7.81 .015-7.277 0-6.713 0ZM-6.269-3.825C-6.624-4.419-7.025-5.026-7.469-5.649-7.707-5.412-7.988-5.249-8.314-5.16-7.84-4.626-7.425-4.07-7.069-3.492-6.713-2.914-6.402-2.328-6.135-1.735-5.839-1.913-5.543-2.061-5.246-2.18-5.573-2.684-5.913-3.232-6.269-3.825M-1.334 3.069C-.919 3.069-.445 3.084 .089 3.114V2.269C-.445 2.298-.919 2.313-1.334 2.313H-5.424C-6.046 2.313-6.595 2.298-7.069 2.269V3.114C-6.595 3.084-6.046 3.069-5.424 3.069ZM1.334-4.937C1.007-5.115 .741-5.293 .534-5.471 .089-4.789-.711-3.736-1.867-2.313-1.63-2.195-1.408-2.031-1.2-1.824-.074-3.129 .77-4.167 1.334-4.937" fill="#ffffff"/>
</g>
<path transform="matrix(1,0,0,-1,0,595.276)" d="M276.381 370.967H298.71504V355.06803H276.381Z" fill="#f43040"/>
<g clip-path="url(#clip_14)">
<path transform="matrix(1,0,0,-1,290.5284,235.6163)" d="M0 0C.029 .445 .237 .845 .622 1.201 1.007 1.557 1.496 2.113 2.09 2.869 2.682 3.625 3.068 4.21 3.245 4.626 3.423 5.041 3.49 5.397 3.446 5.694 3.401 5.99 3.26 6.234 3.023 6.428 2.786 6.62 2.512 6.701 2.201 6.672 1.889 6.642 1.593 6.523 1.312 6.316 1.029 6.109 .815 5.797 .667 5.382L-.178 5.516C.059 6.198 .363 6.694 .734 7.006 1.104 7.317 1.541 7.487 2.045 7.517 2.341 7.547 2.608 7.54 2.845 7.495 3.082 7.451 3.327 7.346 3.579 7.184 3.83 7.02 4.038 6.776 4.201 6.45 4.364 6.123 4.424 5.73 4.379 5.271 4.335 4.811 4.105 4.263 3.69 3.625 3.275 2.987 2.474 1.986 1.289 .623H4.49V-.178H0Z" fill="#ffffff"/>
<path transform="matrix(1,0,0,-1,266.6533,284.2763)" d="M0 0C-.018 12.609 10.246 22.879 22.908 22.879 35.57 22.879 45.834 12.609 45.834-.059 45.834-12.727 35.57-22.996 22.908-22.996 10.246-22.996-.018-12.727 0 0" fill="#f43040"/>
<path transform="matrix(1,0,0,-1,292.5746,293.272)" stroke-width="1" stroke-linecap="butt" stroke-miterlimit="10" stroke-linejoin="miter" fill="none" stroke="#ffffff" d="M0 0C.575 0 1.041-.482 1.041-1.076 1.041-1.67 .575-2.151 0-2.151-.575-2.151-1.041-1.67-1.041-1.076-1.041-.482-.575 0 0 0ZM-5.689 3.695C-5.929 3.602-6.135 3.415-6.246 3.156-6.476 2.63-6.253 2.018-5.752 1.78-5.243 1.55-4.651 1.78-4.421 2.299-4.198 2.817-4.421 3.436-4.922 3.667-5.173 3.786-5.448 3.787-5.689 3.695ZM-13.997 4.248C-13.62 4.396-13.189 4.394-12.796 4.207-12.001 3.839-11.653 2.874-12.008 2.053-12.363 1.238-13.298 .871-14.092 1.238-14.88 1.613-15.235 2.578-14.88 3.393-14.698 3.803-14.374 4.1-13.997 4.248ZM-6.114 4.856C-5.586 5.06-4.982 5.057-4.428 4.797-3.32 4.286-2.825 2.932-3.327 1.787-3.828 .642-5.138 .131-6.246 .65-7.354 1.168-7.842 2.522-7.34 3.667-7.093 4.239-6.642 4.652-6.114 4.856ZM10.989 6.57C11.322 6.57 11.592 6.293 11.592 5.951 11.592 5.609 11.322 5.332 10.989 5.332 10.656 5.332 10.386 5.609 10.386 5.951 10.386 6.293 10.656 6.57 10.989 6.57ZM6.697 10.259C7.052 10.259 7.34 9.961 7.34 9.593 7.34 9.225 7.052 8.926 6.697 8.926 6.341 8.926 6.053 9.225 6.053 9.593 6.053 9.961 6.341 10.259 6.697 10.259ZM3.257 10.471C3.028 10.471 2.847 10.276 2.847 10.038 2.847 9.807 3.028 9.612 3.257 9.612 3.487 9.612 3.667 9.807 3.667 10.038 3.667 10.276 3.487 10.471 3.257 10.471ZM3.257 10.983C3.758 10.983 4.168 10.557 4.168 10.038 4.168 9.518 3.758 9.099 3.257 9.099 2.757 9.099 2.354 9.518 2.354 10.038 2.354 10.557 2.757 10.983 3.257 10.983ZM11.592 11.781C12.056 11.781 12.433 11.391 12.433 10.91 12.433 10.429 12.056 10.039 11.592 10.039 11.127 10.039 10.75 10.429 10.75 10.91 10.75 11.391 11.127 11.781 11.592 11.781ZM-10.958 12.069C-10.343 12.069-9.843 11.551-9.843 10.912-9.843 10.273-10.343 9.755-10.958 9.755-11.574 9.755-12.073 10.273-12.073 10.912-12.073 11.551-11.574 12.069-10.958 12.069ZM-15.858 12.941C-15.397 12.941-15.022 12.552-15.022 12.072-15.022 11.592-15.397 11.204-15.858 11.204-16.32 11.204-16.695 11.592-16.695 12.072-16.695 12.552-16.32 12.941-15.858 12.941ZM12.754 15.537 9.66 14.175C10.099 13.966 10.399 13.505 10.399 12.979 10.399 12.251 9.827 11.66 9.131 11.66 8.427 11.66 7.855 12.251 7.855 12.979 7.855 13.13 7.883 13.274 7.925 13.411L-.227 9.816 7.145 6.567C7.277 6.934 7.612 7.193 8.002 7.193 8.503 7.193 8.915 6.768 8.915 6.25 8.915 6.106 8.88 5.961 8.817 5.832L12.761 4.095C13.506 5.875 13.897 7.806 13.897 9.802 13.897 11.812 13.499 13.75 12.754 15.537ZM-5.969 17.742C-5.1 17.742-4.396 17.013-4.396 16.113-4.396 15.213-5.1 14.483-5.969 14.483-6.838 14.483-7.543 15.213-7.543 16.113-7.543 17.013-6.838 17.742-5.969 17.742ZM-15.111 19.159C-15.661 19.159-16.114 18.69-16.114 18.121-16.114 17.552-15.661 17.084-15.111 17.084-14.56 17.084-14.107 17.552-14.107 18.121-14.107 18.69-14.56 19.159-15.111 19.159ZM15.889 20.681C17.882 17.561 19.046 13.822 19.046 9.802 19.046 5.781 17.882 2.049 15.889-1.07L-8.86 9.816 15.889 20.681ZM-3.352 22.523C-2.775 22.523-2.308 22.041-2.308 21.447-2.308 20.853-2.775 20.371-3.352 20.371-3.929 20.371-4.396 20.853-4.396 21.447-4.396 22.041-3.929 22.523-3.352 22.523ZM-5.508 29.533C1.146 29.533 7 26.018 10.421 20.679L5.571 18.546C5.195 19.051 4.791 19.533 4.345 19.987 1.711 22.711-1.787 24.209-5.508 24.209-7.209 24.209-8.86 23.899-10.4 23.301-10.268 23.071-10.191 22.804-10.191 22.523-10.191 21.688-10.846 21.018-11.655 21.018-12.261 21.018-12.783 21.399-13.006 21.954-13.689 21.5-14.344 20.974-14.951 20.391-13.808 20.311-12.909 19.324-12.909 18.121-12.909 16.868-13.898 15.845-15.111 15.845-16.142 15.845-17.006 16.579-17.25 17.567-18.679 15.275-19.445 12.595-19.445 9.8-19.445 5.953-17.996 2.336-15.362-.387-12.728-3.104-9.23-4.602-5.508-4.602-1.787-4.602 1.711-3.104 4.345-.387 4.791 .074 5.195 .556 5.571 1.061L10.421-1.072C7-6.411 1.146-9.934-5.508-9.934-16.052-9.934-24.595-1.094-24.595 9.8-24.595 20.701-16.052 29.533-5.508 29.533"/>
</g>
<path transform="matrix(1,0,0,-1,0,595.276)" d="M274.663 282.876H301.936V266.762H274.663Z" fill="#f43040"/>
<g clip-path="url(#clip_15)">
<path transform="matrix(1,0,0,-1,279.9772,319.42073)" d="M0 0C-.238-.297-.385-.564-.444-.801-1.127-.356-1.808 .015-2.49 .311-2.372 .578-2.238 .83-2.09 1.068-1.438 .771-.741 .415 0 0M-.667-3.914C-1.022-4.775-1.319-5.427-1.556-5.872-1.764-5.634-2.075-5.441-2.49-5.293-2.105-4.849-1.734-4.256-1.378-3.514-1.022-2.773-.771-2.135-.622-1.601-.326-1.809-.06-1.973 .178-2.091-.03-2.446-.311-3.055-.667-3.914M.623 2.58C.385 2.372 .193 2.12 .044 1.824-.549 2.298-1.171 2.728-1.823 3.114L-1.289 3.825C-.667 3.44-.03 3.025 .623 2.58M3.512 2.713C3.512 3.098 3.497 3.603 3.468 4.226H4.402C4.372 3.603 4.357 3.098 4.357 2.713V1.824H7.158C7.128 1.112 7.114 .563 7.114 .178V-4.092C7.114-4.419 7.128-4.982 7.158-5.783H6.269V-4.849H1.601V-5.783H.711C.741-5.011 .756-4.433 .756-4.048V.133C.756 .518 .741 1.082 .711 1.824H3.512ZM3.512 1.112H1.6000002V-1.112H3.512ZM3.512-1.824H1.6000002V-4.137H3.512ZM6.269 1.112H4.3570005V-1.112H6.269ZM6.269-1.824H4.3570005V-4.137H6.269ZM6.269-4.137" fill="#ffffff"/>
<path transform="matrix(1,0,0,-1,290.2714,317.7749)" d="M0 0C-.297-.623-.682-1.246-1.156-1.868-1.305-1.601-1.482-1.364-1.689-1.157-1.334-.772-1-.222-.689 .489-.378 1.201-.163 1.913-.044 2.624 .311 2.446 .667 2.313 1.023 2.224 .874 2.046 .734 1.824 .6 1.557 .467 1.29 .356 1.023 .267 .756H2.579C2.401 .193 2.208-.505 2.001-1.334 1.615-1.275 1.334-1.246 1.156-1.246 1.274-.801 1.393-.386 1.512 0ZM.756-2.624V-5.204C1.171-4.878 1.571-4.493 1.956-4.048 2.045-4.404 2.179-4.715 2.356-4.982 1.971-5.249 1.585-5.553 1.2-5.894 .815-6.235 .474-6.612 .178-7.028-.03-6.731-.238-6.465-.445-6.227-.208-5.901-.089-5.442-.089-4.849V-2.624C-.089-2.18-.104-1.795-.133-1.468H.845C.785-1.765 .756-2.15 .756-2.624M7.202-2.713H7.869C8.254-2.713 8.595-2.699 8.892-2.669V-3.514C8.536-3.485 8.24-3.47 8.003-3.47H7.202V-6.094C7.202-6.746 7.217-7.251 7.247-7.606H6.313C6.342-7.28 6.358-6.776 6.358-6.094V-3.47H4.891C4.802-4.567 4.602-5.375 4.29-5.894 3.979-6.413 3.423-7.028 2.623-7.74 2.326-7.443 2.015-7.206 1.689-7.028 2.401-6.642 2.964-6.183 3.379-5.649 3.794-5.115 4.016-4.389 4.046-3.47 3.157-3.47 2.579-3.499 2.312-3.559V-2.669C2.549-2.699 3.127-2.713 4.046-2.713V-.445C3.719-.445 3.319-.46 2.846-.489V.356C3.171 .326 3.512 .311 3.868 .311H6.002C6.298 .993 6.565 1.824 6.802 2.802 7.158 2.624 7.514 2.461 7.869 2.313 7.662 2.135 7.484 1.875 7.336 1.535 7.187 1.193 7.009 .785 6.802 .311H7.603C7.869 .311 8.151 .326 8.447 .356V-.489C8.181-.46 7.765-.445 7.202-.445ZM5.246 .979C4.891 .89 4.594 .756 4.357 .578 4.09 1.26 3.808 1.853 3.512 2.358 3.779 2.446 4.06 2.58 4.357 2.758 4.564 2.313 4.861 1.719 5.246 .979M6.358-.445H4.891V-2.714H6.358ZM6.358-2.713" fill="#ffffff"/>
</g>
<path transform="matrix(1,0,0,-1,94.4705,207.34741)" d="M0 0V2.149 4.297L-4.295 2.149ZM187.062 2.865H-1.0740051V1.433H187.062Z" fill="#ffffff"/>
<path transform="matrix(1,0,0,-1,280.2003,379.2963)" d="M0 0V2.149 4.297L4.295 2.149ZM-108.339 2.865H1.0740051V1.433H-108.339Z" fill="#ffffff"/>
<path transform="matrix(1,0,0,-1,0,595.276)" d="M62.276 370.967H94.703V355.06803H62.276Z" fill="#f43040"/>
<g clip-path="url(#clip_16)">
<path transform="matrix(1,0,0,-1,76.2701,231.5463)" d="M0 0C.029 .785 .14 1.408 .333 1.868 .526 2.328 .8 2.706 1.156 3.003 1.512 3.299 1.949 3.447 2.468 3.447 2.986 3.447 3.438 3.232 3.823 2.802 4.208 2.372 4.461 1.831 4.579 1.179 4.697 .526 4.735-.222 4.69-1.068 4.646-1.913 4.497-2.602 4.246-3.136 3.994-3.67 3.616-4.041 3.112-4.248 2.608-4.456 2.104-4.434 1.601-4.181 1.096-3.93 .741-3.596 .534-3.18 .326-2.766 .178-2.328 .089-1.868 0-1.409-.03-.786 0 0M.934 .267C.845-.549 .874-1.275 1.023-1.913 1.171-2.551 1.415-3.003 1.756-3.269 2.097-3.536 2.445-3.588 2.801-3.425 3.157-3.262 3.416-2.936 3.579-2.447 3.742-1.957 3.823-1.423 3.823-.845 3.823-.267 3.801 .259 3.757 .734 3.712 1.208 3.579 1.638 3.357 2.024 3.134 2.409 2.838 2.609 2.468 2.624 2.097 2.639 1.771 2.453 1.489 2.068 1.207 1.683 1.023 1.082 .934 .267" fill="#ffffff"/>
</g>
<path transform="matrix(1,0,0,-1,0,595.276)" d="M82.484 359.437H83.506008V360.415H82.484Z" fill="#ffffff"/>
<g clip-path="url(#clip_17)">
<path transform="matrix(1,0,0,-1,89.8098,229.65579)" d="M0 0C-.386-.386-.875-.756-1.467-1.112V-.267C-.727 .237-.119 .83 .356 1.512H.889V-6.138H0Z" fill="#ffffff"/>
<path transform="matrix(1,0,0,-1,140.0698,180.88751)" d="M0 0C-.4-.815-.675-1.386-.822-1.713-1.119-1.416-1.445-1.163-1.801-.956-1.475-.66-1.105-.149-.689 .578-.274 1.305 .096 2.009 .422 2.691 .629 2.424 .852 2.202 1.089 2.024 .763 1.49 .4 .815 0 0M.734 4.248C.556 4.04 .363 3.773 .156 3.447-.408 3.951-1 4.381-1.623 4.737-1.445 4.915-1.267 5.152-1.089 5.449-.408 5.004 .2 4.604 .734 4.248M1.089 7.006C.823 6.798 .615 6.576 .467 6.339-.038 6.931-.586 7.406-1.178 7.762-.971 7.969-.763 8.192-.556 8.429 .156 7.895 .704 7.421 1.089 7.006M5.935 6.694C6.498 6.694 7.15 6.709 7.892 6.739V5.894C7.091 5.923 6.454 5.938 5.98 5.938H5.091V3.492H5.935C6.439 3.492 7.032 3.506 7.714 3.536V2.691C7.061 2.72 6.469 2.736 5.935 2.736H5.091V-.512H6.202C6.913-.512 7.654-.497 8.425-.467V-1.312C7.654-1.282 6.928-1.268 6.247-1.268H3.001C2.23-1.268 1.593-1.282 1.089-1.312V-.467C1.563-.497 2.215-.512 3.046-.512H4.201V2.736H3.49C2.927 2.736 2.393 2.72 1.89 2.691V3.536C2.393 3.506 2.941 3.492 3.535 3.492H4.201V5.938H3.357C2.763 5.938 2.171 5.923 1.578 5.894V6.739C2.171 6.709 2.779 6.694 3.401 6.694ZM3.979 8.83C4.364 8.503 4.838 8.029 5.402 7.406 5.164 7.228 4.927 7.035 4.691 6.828 4.186 7.451 3.742 7.94 3.357 8.296 3.564 8.444 3.771 8.622 3.979 8.83" fill="#ffffff"/>
<path transform="matrix(1,0,0,-1,155.2322,173.57032)" d="M0 0V-.934H3.068C3.482-.934 3.986-.92 4.579-.89V-1.69C3.986-1.661 3.482-1.646 3.068-1.646H0V-2.402H3.068C3.038-2.847 3.023-3.396 3.023-4.048 3.023-4.7 3.038-5.264 3.068-5.738H0V-6.494H2.001C2.534-6.494 3.097-6.48 3.69-6.45V-7.162C3.127-7.132 2.579-7.117 2.045-7.117H0V-7.918H2.89C3.394-7.918 3.942-7.902 4.535-7.873V-8.629C3.942-8.6 3.408-8.585 2.934-8.585H-3.468C-4.061-8.585-4.668-8.6-5.291-8.629V-7.873C-4.668-7.902-4.076-7.918-3.512-7.918H-.889V-7.117H-2.445C-3.157-7.117-3.809-7.132-4.401-7.162V-6.45C-3.631-6.48-2.964-6.494-2.401-6.494H-.889V-5.738H-3.868C-3.839-4.997-3.824-4.434-3.824-4.048-3.824-3.663-3.839-3.114-3.868-2.402H-.889V-1.646H-3.912C-4.328-1.646-4.817-1.661-5.38-1.69V-.89C-4.817-.92-4.328-.934-3.912-.934H-.889V-.044C-1.482-.074-2.579-.149-4.179-.267-4.268 0-4.387 .252-4.535 .489-2.875 .518-1.4 .6-.111 .734 1.178 .867 2.104 1.023 2.668 1.201 2.786 .904 3.008 .607 3.335 .311 1.674 .163 .563 .059 0 0M-.889-3.114H-2.9789999V-3.737H-.889ZM-.889-4.448H-2.9789999V-5.026H-.889ZM2.179-3.114H0V-3.737H2.179ZM2.134-4.448H0V-5.026H2.134ZM2.134-5.026" fill="#ffffff"/>
<path transform="matrix(1,0,0,-1,164.726,174.77121)" d="M0 0V-4.092C0-4.626 .015-5.22 .044-5.872H-.8V-5.338H-2.356V-6.494H-3.201C-3.172-5.694-3.157-4.967-3.157-4.315V0C-3.157 .623-3.172 1.245-3.201 1.868H.044C.015 1.245 0 .623 0 0M-.8 1.201H-2.356V-.17799998H-.8ZM-.8-.89H-2.356V-2.402H-.8ZM-.8-3.069H-2.356V-4.67H-.8ZM5.469 .667V-.667C5.469-1.112 5.483-1.69 5.513-2.402H3.468C3.527-3.025 3.749-3.677 4.135-4.359 4.461-4.092 4.742-3.841 4.979-3.603 5.216-3.366 5.469-3.055 5.735-2.669 5.913-2.907 6.15-3.158 6.447-3.425 6.269-3.514 5.987-3.73 5.602-4.07 5.216-4.411 4.861-4.73 4.535-5.026 4.713-5.323 4.986-5.635 5.357-5.961 5.728-6.287 6.165-6.569 6.669-6.806 6.224-7.043 5.958-7.28 5.869-7.517 5.186-7.073 4.653-6.621 4.268-6.161 3.883-5.701 3.549-5.153 3.268-4.515 2.986-3.878 2.786-3.174 2.668-2.402H1.778V-6.227C2.163-5.931 2.49-5.649 2.757-5.382 2.786-5.649 2.919-5.946 3.157-6.272 2.979-6.361 2.69-6.561 2.29-6.872 1.89-7.184 1.571-7.488 1.334-7.784 1.126-7.517 .904-7.295 .667-7.117 .934-6.85 1.052-6.494 1.023-6.05V.222C1.023 .904 1.007 1.571 .978 2.224H5.513C5.483 1.69 5.469 1.171 5.469 .667M4.668 1.557H1.7780001V.311H4.668ZM4.668-.4H1.7780001V-1.6899999H4.668ZM4.668-1.69" fill="#ffffff"/>
<path transform="matrix(1,0,0,-1,180.3774,172.94751)" d="M0 0C-.163-.267-.349-.578-.556-.934H1.267C1.682-.934 2.141-.92 2.645-.89V-1.735C2.171-1.676 1.652-1.646 1.089-1.646H-5.935C-6.706-1.646-7.358-1.676-7.892-1.735V-.89C-7.269-.92-6.618-.934-5.935-.934H-1.445C-.941 .015-.66 .652-.6 .979-.274 .801 .081 .667 .467 .578 .318 .459 .162 .267 0 0M-3.824-8.607C-3.661-8.592-3.579-8.481-3.579-8.274V-6.895H-5.98V-9.608H-6.914C-6.854-9.074-6.825-8.481-6.825-7.829V-4.27C-6.825-3.677-6.84-3.114-6.869-2.58H-2.69C-2.72-3.085-2.734-3.633-2.734-4.226V-8.718C-2.734-9.014-2.853-9.208-3.09-9.297-3.328-9.386-3.728-9.475-4.29-9.564-4.379-9.237-4.498-8.925-4.646-8.629-4.261-8.629-3.987-8.622-3.824-8.607M-3.579-3.247H-5.98V-4.448H-3.579ZM-3.579-5.115H-5.98V-6.2269999H-3.579ZM-5.224 .534C-4.898 .682-4.631 .83-4.424 .979-4.009 .445-3.698 0-3.49-.356-3.757-.475-4.054-.623-4.379-.801-4.498-.475-4.779-.03-5.224 .534M-1.623-7.428C-1.594-6.984-1.578-6.599-1.578-6.272V-4.226C-1.578-3.752-1.594-3.336-1.623-2.98H-.689C-.719-3.336-.734-3.752-.734-4.226V-6.227C-.734-6.672-.719-7.073-.689-7.428ZM.445-8.585C.578-8.555 .645-8.422 .645-8.185V-3.559C.645-3.203 .629-2.818 .6-2.402H1.534C1.504-2.788 1.489-3.174 1.489-3.559V-8.496C1.489-8.881 1.393-9.133 1.2-9.252 1.007-9.37 .556-9.459-.156-9.519-.215-9.133-.349-8.822-.556-8.585-.022-8.614 .311-8.614 .445-8.585" fill="#ffffff"/>
<path transform="matrix(1,0,0,-1,189.7156,178.68561)" d="M0 0C-.208-.178-.43-.4-.667-.667-1.082-.044-1.512 .504-1.956 .979V-2.313C-1.956-3.025-1.942-3.559-1.912-3.914H-2.89C-2.861-3.529-2.846-2.995-2.846-2.313V.801C-3.172 .178-3.483-.341-3.779-.756-4.076-1.172-4.461-1.661-4.935-2.224-5.113-1.928-5.365-1.676-5.691-1.468-5.039-.934-4.454-.26-3.935 .556-3.417 1.371-3.083 2.031-2.934 2.535H-3.779C-4.49 2.535-5.009 2.52-5.335 2.491V3.336C-4.98 3.306-4.461 3.292-3.779 3.292H-2.846V5.026C-3.439 4.908-4.076 4.789-4.757 4.671-4.846 4.967-4.965 5.249-5.113 5.516-4.609 5.545-3.913 5.649-3.023 5.827-2.134 6.005-1.289 6.227-.489 6.494-.341 6.138-.149 5.827 .089 5.56-.504 5.471-1.186 5.352-1.956 5.204V3.292H-1.201C-.578 3.292-.03 3.306 .445 3.336V2.491C-.03 2.52-.563 2.535-1.156 2.535H-1.956V2.002C-1.305 1.408-.652 .741 0 0M1.956 3.158V.356C1.956-.267 1.971-.801 2.001-1.246H1.023C1.052-.712 1.067-.178 1.067 .356V3.158C1.067 3.632 1.052 4.107 1.023 4.582H2.001C1.971 4.226 1.956 3.751 1.956 3.158M4.001 4.893V-2.891C4.001-3.247 3.86-3.477 3.579-3.581 3.297-3.684 2.801-3.796 2.09-3.914 2.001-3.47 1.896-3.114 1.778-2.847 2.401-2.876 2.779-2.861 2.912-2.802 3.045-2.743 3.112-2.624 3.112-2.447V4.937C3.112 5.352 3.097 5.842 3.068 6.405H4.046C4.016 6.109 4.001 5.605 4.001 4.893" fill="#ffffff"/>
<path transform="matrix(1,0,0,-1,198.5202,176.97312)" d="M0 0C-.489-.341-.956-.645-1.4-.912H5.802C5.772-1.387 5.758-1.965 5.758-2.647V-4.515C6.409-4.515 6.958-4.5 7.403-4.47V-5.36C6.869-5.33 6.32-5.316 5.758-5.316H-1.223C-1.964-5.316-2.601-5.33-3.134-5.36V-4.47C-2.72-4.5-2.172-4.515-1.489-4.515V-2.558C-1.489-1.935-1.505-1.416-1.534-1.001-1.712-1.15-1.919-1.283-2.156-1.401-2.334-1.105-2.556-.853-2.823-.645-2.379-.467-1.853-.186-1.245 .2-.638 .585-.037 1.06 .556 1.624 .823 1.327 1.118 1.045 1.445 .778 .971 .6 .489 .341 0 0M4.357 3.825C4.224 3.514 4.053 3.18 3.846 2.825H4.646C5.505 2.825 6.261 2.839 6.913 2.869V2.024C6.261 2.053 5.505 2.068 4.646 2.068H-.067C-.808 2.068-1.653 2.053-2.601 2.024V2.869C-1.86 2.839-1.016 2.825-.067 2.825H2.957C3.075 3.091 3.201 3.417 3.335 3.803 3.468 4.188 3.608 4.559 3.757 4.915L4.824 4.559C4.646 4.381 4.49 4.137 4.357 3.825M.645-1.624H-.689V-4.515H.645ZM1.134 3.314C.867 3.225 .57 3.091 .245 2.914 .007 3.536-.274 4.07-.6 4.515-.363 4.604-.082 4.737 .245 4.915 .511 4.53 .807 3.996 1.134 3.314M2.823-1.624H1.4V-4.515H2.823ZM5.135 .778C5.758 .512 6.35 .259 6.913 .022 6.676-.215 6.469-.512 6.291-.867 5.669-.512 5.053-.193 4.446 .089 3.838 .37 3.312 .585 2.868 .734 3.016 .941 3.179 1.208 3.357 1.535 3.919 1.297 4.513 1.045 5.135 .778M4.957-1.624H3.5789998V-4.515H4.957ZM4.957-4.515" fill="#ffffff"/>
<path transform="matrix(1,0,0,-1,209.5035,174.37091)" d="M0 0H2.001C1.971-.505 1.956-1.142 1.956-1.913V-5.827C1.956-6.272 1.971-6.91 2.001-7.74H1.111V-6.85H-1.156V-7.829H-2.045C-2.016-6.88-2.001-6.287-2.001-6.05V-1.957C-2.001-1.157-2.016-.505-2.045 0H-.756C-.608 .682-.489 1.393-.4 2.135 .015 1.986 .356 1.883 .622 1.824 .474 1.557 .267 .949 0 0M1.111-.756H-1.157V-2.98H1.111ZM1.111-3.736H-1.157V-6.094H1.111ZM7.025-6.717C6.965-7.251 6.684-7.606 6.18-7.784 5.675-7.962 5.113-8.08 4.49-8.14 4.461-7.813 4.327-7.473 4.09-7.117 4.683-7.146 5.15-7.132 5.491-7.073 5.831-7.014 6.047-6.88 6.135-6.672 6.224-6.465 6.291-5.857 6.336-4.849 6.38-3.841 6.417-2.432 6.447-.623H3.868C3.63-1.186 3.29-1.854 2.845-2.624 2.638-2.417 2.385-2.254 2.09-2.135 2.356-1.779 2.608-1.35 2.845-.845 3.082-.341 3.29 .207 3.468 .801 3.646 1.393 3.749 1.853 3.779 2.18 4.194 2.002 4.55 1.868 4.846 1.779 4.697 1.542 4.572 1.282 4.468 1.001 4.364 .719 4.253 .445 4.135 .178H7.291C7.261-.445 7.247-1.023 7.247-1.557 7.217-3.366 7.143-5.086 7.025-6.717M4.624-3.381C4.802-3.736 5.009-4.197 5.246-4.76 5.038-4.849 4.757-4.997 4.401-5.204 4.194-4.641 4.001-4.159 3.824-3.759 3.646-3.358 3.468-3.025 3.29-2.758 3.497-2.64 3.764-2.491 4.09-2.313Z" fill="#ffffff"/>
<path transform="matrix(1,0,0,-1,221.1755,179.57529)" d="M0 0C.652 .83 1.104 1.683 1.356 2.558 1.608 3.432 1.749 4.248 1.778 5.004 1.808 5.76 1.793 6.553 1.734 7.384 2.06 7.354 2.43 7.324 2.845 7.295 2.757 6.82 2.712 6.331 2.712 5.827 2.712 5.323 2.741 4.744 2.801 4.092 2.86 3.44 3.282 2.453 4.068 1.134 4.853-.186 6.002-1.172 7.514-1.824 7.158-2.18 6.92-2.476 6.802-2.713 4.727-1.706 3.246 .118 2.357 2.758 1.763 .415 .326-1.453-1.956-2.847-2.134-2.609-2.386-2.358-2.712-2.091-1.556-1.528-.652-.831 0 0" fill="#ffffff"/>
<path transform="matrix(1,0,0,-1,159.4822,185.7742)" d="M0 0V-.89C-.297-.86-.8-.845-1.512-.845H-7.647V-4.804C-7.647-5.813-7.758-6.732-7.981-7.562-8.203-8.392-8.522-9.208-8.936-10.008-9.174-9.771-9.485-9.578-9.87-9.43-9.366-8.689-9.025-7.984-8.847-7.317-8.67-6.65-8.566-5.902-8.536-5.071V-1.735C-8.566-1.112-8.596-.549-8.625-.044H-1.512C-.86-.044-.356-.03 0 0M-4.357-4.003V-2.669C-4.357-2.195-4.372-1.795-4.401-1.468H-3.379C-3.439-1.706-3.468-2.121-3.468-2.713V-4.003H-1.867C-1.245-4.003-.786-3.989-.489-3.959V-4.937C-.786-4.908-1.245-4.893-1.867-4.893H-3.468V-8.54H-1.512C-.771-8.54-.208-8.526 .178-8.496V-9.43C-.208-9.4-.756-9.386-1.467-9.386H-6.002C-6.773-9.386-7.321-9.4-7.647-9.43V-8.496C-7.203-8.526-6.654-8.54-6.002-8.54H-4.357V-4.893H-5.38C-6.151-4.893-6.669-4.908-6.936-4.937V-3.959C-6.462-3.989-5.943-4.003-5.38-4.003ZM-.845-7.206C-1.171-7.384-1.467-7.562-1.734-7.74-2.031-7.117-2.356-6.554-2.712-6.05-2.445-5.902-2.208-5.738-2.001-5.56-1.527-6.183-1.141-6.732-.845-7.206" fill="#ffffff"/>
<path transform="matrix(1,0,0,-1,162.0625,190.4448)" d="M0 0C.34 .652 .556 1.245 .645 1.779H.156C-.022 1.779-.304 1.764-.689 1.735V2.491C-.304 2.461-.022 2.447 .156 2.447H.734V3.736C.734 4.121 .718 4.493 .689 4.849H1.667C1.637 4.493 1.623 4.121 1.623 3.736V2.447C1.919 2.447 2.245 2.461 2.601 2.491V1.735C2.245 1.764 1.919 1.779 1.623 1.779V-3.914C1.623-4.359 1.637-4.804 1.667-5.249H.689C.718-4.893 .734-4.448 .734-3.914V-.178C.556-.534 .385-.897 .222-1.268 .059-1.639-.156-2.046-.422-2.491-.571-2.135-.763-1.854-1-1.646-.675-1.201-.341-.653 0 0M2.779 .222C2.927 .044 3.104-.178 3.312-.445 3.075-.623 2.868-.801 2.69-.979L2.245-.311C2.126-.133 1.949 .089 1.712 .356 1.89 .504 2.097 .637 2.334 .756ZM6.024 5.026C6.32 4.433 6.498 4.033 6.558 3.825H9.048C9.018 3.559 9.003 3.276 9.003 2.98 9.003 2.713 9.018 2.447 9.048 2.18H8.203V3.158H3.89V2.091H3.001C3.03 2.417 3.045 2.698 3.045 2.936 3.045 3.173 3.03 3.47 3.001 3.825H5.58C5.491 4.121 5.357 4.418 5.18 4.715 5.535 4.804 5.817 4.908 6.024 5.026M5.535 .178H7.536C8.099 .178 8.617 .193 9.092 .222V-.534C8.617-.505 8.099-.489 7.536-.489H5.935V-1.334H7.358C7.773-1.334 8.232-1.32 8.736-1.29V-2.046C8.262-2.017 7.803-2.002 7.358-2.002H5.935V-2.891H7.403C7.876-2.891 8.381-2.877 8.914-2.847V-3.647C8.381-3.618 7.876-3.603 7.403-3.603H5.935V-3.959C5.935-4.315 5.95-4.744 5.98-5.249H5.046C5.075-4.893 5.091-4.463 5.091-3.959V-.623C4.883-.949 4.661-1.239 4.424-1.49 4.186-1.742 3.919-1.987 3.623-2.224 3.475-1.957 3.282-1.72 3.045-1.512 3.579-1.157 4.008-.734 4.335-.245 4.661 .245 4.957 .815 5.224 1.468 5.55 1.29 5.846 1.157 6.113 1.068 5.905 .801 5.713 .504 5.535 .178M4.891 1.446C4.638 1.163 4.335 .845 3.979 .489 3.801 .726 3.608 .919 3.401 1.068 3.668 1.275 3.912 1.497 4.135 1.735 4.357 1.972 4.572 2.283 4.779 2.669 5.046 2.491 5.298 2.342 5.535 2.224 5.357 1.986 5.142 1.727 4.891 1.446M7.647 2.113C7.899 1.89 8.158 1.63 8.425 1.334 8.276 1.245 8.054 1.052 7.758 .756 7.55 1.052 7.12 1.527 6.469 2.18L6.958 2.669C7.165 2.52 7.395 2.335 7.647 2.113" fill="#ffffff"/>
<path transform="matrix(1,0,0,-1,175.0907,187.9093)" d="M0 0V-5.916C0-6.717 .015-7.369 .044-7.873H-.845C-.845-7.369-.83-6.717-.8-5.916V-1.423C-1.156-2.076-1.482-2.595-1.778-2.98-1.927-2.773-2.179-2.565-2.534-2.358-1.912-1.676-1.378-.875-.934 .044-.489 .963-.193 1.779-.044 2.491 .34 2.313 .682 2.194 .978 2.135 .8 1.838 .474 1.127 0 0M4.49 1.646C5.291 .252 6.461-.786 8.003-1.468 7.736-1.706 7.514-1.973 7.336-2.269 6.091-1.557 5.009-.489 4.09 .934 3.319-.46 2.312-1.617 1.067-2.535 .918-2.328 .711-2.106 .445-1.868 1.541-1.157 2.341-.371 2.846 .489 3.349 1.349 3.646 2.002 3.735 2.447 4.208 2.209 4.55 2.061 4.757 2.002ZM2.979-4.782C2.89-5.954 2.297-6.998 1.201-7.918 1.023-7.651 .785-7.428 .489-7.251 1.585-6.48 2.171-5.553 2.245-4.47 2.319-3.388 2.341-2.535 2.312-1.913 2.697-1.973 3.008-2.002 3.246-2.002 3.157-2.684 3.068-3.611 2.979-4.782M6.047-3.647V-6.45C6.047-6.895 6.061-7.369 6.091-7.873H5.157C5.187-7.369 5.202-6.879 5.202-6.405V-3.381C5.202-3.055 5.187-2.565 5.157-1.913H6.091C6.061-2.565 6.047-3.144 6.047-3.647" fill="#ffffff"/>
<path transform="matrix(1,0,0,-1,186.5408,187.9538)" d="M0 0V-5.872C0-6.494 .015-7.087 .044-7.651H-.889C-.86-7.146-.845-6.599-.845-6.005V-1.423C-1.2-2.017-1.527-2.491-1.823-2.847-2.06-2.521-2.283-2.269-2.49-2.091-2.194-1.795-1.786-1.223-1.267-.378-.749 .467-.341 1.423-.044 2.491 .37 2.283 .726 2.135 1.023 2.046 .785 1.779 .445 1.097 0 0M3.601 1.245V2.402C3.957 2.372 4.357 2.342 4.802 2.313 4.653 2.105 4.564 1.749 4.535 1.245H6.18C6.684 1.245 7.128 1.26 7.514 1.29V.489C7.098 .518 6.654 .534 6.18 .534H4.49L4.402-.445H6.669C6.639-.801 6.625-1.275 6.625-1.868V-6.405C7.217-6.405 7.647-6.391 7.914-6.361V-7.162C7.528-7.132 6.995-7.117 6.313-7.117H2.134C1.452-7.117 .889-7.132 .445-7.162V-6.361C.711-6.391 1.126-6.405 1.689-6.405V-1.868C1.689-1.305 1.674-.831 1.645-.445H3.468L3.557 .534H2.757C2.015 .534 1.437 .518 1.023 .489V1.29C1.407 1.26 1.985 1.245 2.757 1.245ZM5.824-1.068H2.534V-1.958H5.824ZM5.824-2.624H2.534V-3.4250003H5.824ZM5.824-4.092H2.534V-4.893H5.824ZM5.824-5.56H2.534V-6.4049999H5.824ZM5.824-6.405" fill="#ffffff"/>
<path transform="matrix(1,0,0,-1,202.2144,191.20099)" d="M0 0C.8 0 1.512 .029 2.134 .089V-.845C1.541-.786 .83-.756 0-.756H-.978V-3.425H1.734C2.593-3.425 3.29-3.396 3.824-3.336V-4.27C3.319-4.21 2.652-4.181 1.823-4.181H-4.046C-5.202-4.181-6.032-4.21-6.536-4.27V-3.336C-5.973-3.396-5.113-3.425-3.957-3.425H-1.956V-.756H-3.068C-3.868-.756-4.565-.786-5.157-.845V.089C-4.595 .029-3.853 0-2.934 0ZM-3.712 1.446C-4.29 1.015-4.95 .578-5.691 .133-5.869 .4-6.091 .667-6.358 .934-5.795 1.171-5.246 1.475-4.713 1.846-4.179 2.216-3.72 2.624-3.334 3.069-3.038 2.802-2.712 2.55-2.356 2.313-2.683 2.164-3.134 1.875-3.712 1.446M2.179 2.358V3.559H-5.113V2.224H-6.091C-6.062 2.52-6.046 2.861-6.046 3.247-6.046 3.662-6.062 4.033-6.091 4.359H-1.645C-1.823 4.774-2.031 5.189-2.267 5.605-1.971 5.753-1.645 5.886-1.289 6.005-1.052 5.471-.845 5.011-.667 4.626-.963 4.537-1.245 4.448-1.512 4.359H3.201C3.171 4.092 3.157 3.736 3.157 3.292 3.157 2.876 3.171 2.565 3.201 2.358ZM1.312 2.224C1.89 1.957 2.579 1.586 3.379 1.112 3.082 .785 2.875 .504 2.757 .267 2.193 .623 1.645 .949 1.112 1.246 .578 1.542 0 1.838-.622 2.135-.474 2.313-.297 2.55-.089 2.847 .267 2.698 .734 2.491 1.312 2.224" fill="#ffffff"/>
<path transform="matrix(1,0,0,-1,207.4846,195.56009)" d="M0 0C.059 .594 .089 1.216 .089 1.868V6.539C.089 7.162 .059 7.68 0 8.096H1.022C.993 7.651 .978 7.221 .978 6.806V1.824C.978 1.23 .993 .623 1.022 0ZM2.979 8.674C2.652 8.525 2.341 8.363 2.045 8.185 1.748 8.777 1.378 9.341 .934 9.875 1.259 10.112 1.526 10.275 1.734 10.364 2.001 10.008 2.415 9.445 2.979 8.674M6.891 5.783V3.425C6.891 3.039 6.906 2.58 6.936 2.046H2.445C2.474 2.58 2.49 3.054 2.49 3.47V5.783C2.49 6.198 2.474 6.687 2.445 7.251H6.936C6.906 6.687 6.891 6.198 6.891 5.783M6.047 6.539H3.335V5.116H6.047ZM6.047 4.404H3.335V2.758H6.047ZM9.337 9.608C9.307 9.044 9.292 8.481 9.292 7.918V1.379C9.321 .697 9.136 .282 8.736 .133 8.336-.015 7.898-.118 7.425-.178 7.395 .178 7.276 .534 7.069 .89 7.632 .86 7.995 .89 8.158 .979 8.321 1.068 8.403 1.26 8.403 1.557V8.852H5.735C5.024 8.852 4.357 8.837 3.735 8.807V9.652C4.357 9.623 5.024 9.608 5.735 9.608Z" fill="#ffffff"/>
<path transform="matrix(1,0,0,-1,185.844,393.24983)" d="M0 0C-.4-.815-.675-1.386-.823-1.713-1.119-1.416-1.445-1.163-1.801-.956-1.475-.66-1.105-.149-.689 .578-.274 1.305 .096 2.009 .422 2.691 .629 2.424 .852 2.202 1.089 2.024 .763 1.49 .4 .815 0 0M.734 4.248C.556 4.04 .363 3.773 .156 3.447-.408 3.951-1 4.381-1.623 4.737-1.445 4.915-1.267 5.152-1.089 5.449-.408 5.004 .2 4.604 .734 4.248M1.089 7.006C.822 6.798 .615 6.576 .467 6.339-.038 6.932-.586 7.406-1.178 7.762-.971 7.969-.763 8.192-.556 8.429 .156 7.896 .704 7.421 1.089 7.006M5.935 6.695C6.498 6.695 7.15 6.709 7.892 6.739V5.894C7.091 5.923 6.454 5.938 5.98 5.938H5.091V3.492H5.935C6.439 3.492 7.032 3.507 7.714 3.536V2.691C7.061 2.72 6.469 2.736 5.935 2.736H5.091V-.512H6.202C6.913-.512 7.654-.497 8.425-.467V-1.312C7.654-1.282 6.928-1.268 6.247-1.268H3.001C2.23-1.268 1.593-1.282 1.089-1.312V-.467C1.563-.497 2.215-.512 3.045-.512H4.201V2.736H3.49C2.927 2.736 2.393 2.72 1.89 2.691V3.536C2.393 3.507 2.941 3.492 3.534 3.492H4.201V5.938H3.357C2.763 5.938 2.171 5.923 1.578 5.894V6.739C2.171 6.709 2.779 6.695 3.401 6.695ZM3.979 8.83C4.364 8.503 4.838 8.029 5.402 7.406 5.164 7.228 4.927 7.035 4.69 6.828 4.186 7.451 3.742 7.94 3.357 8.296 3.564 8.444 3.771 8.622 3.979 8.83" fill="#ffffff"/>
<path transform="matrix(1,0,0,-1,201.0063,385.93263)" d="M0 0V-.934H3.068C3.482-.934 3.986-.919 4.579-.89V-1.69C3.986-1.661 3.482-1.646 3.068-1.646H0V-2.402H3.068C3.038-2.847 3.023-3.396 3.023-4.048 3.023-4.7 3.038-5.264 3.068-5.738H0V-6.494H2.001C2.534-6.494 3.097-6.48 3.69-6.45V-7.162C3.127-7.132 2.579-7.117 2.045-7.117H0V-7.918H2.89C3.394-7.918 3.942-7.902 4.535-7.873V-8.629C3.942-8.6 3.408-8.585 2.934-8.585H-3.468C-4.061-8.585-4.668-8.6-5.291-8.629V-7.873C-4.668-7.902-4.076-7.918-3.512-7.918H-.889V-7.117H-2.445C-3.157-7.117-3.809-7.132-4.401-7.162V-6.45C-3.631-6.48-2.964-6.494-2.401-6.494H-.889V-5.738H-3.868C-3.839-4.997-3.824-4.434-3.824-4.048-3.824-3.663-3.839-3.114-3.868-2.402H-.889V-1.646H-3.912C-4.328-1.646-4.817-1.661-5.38-1.69V-.89C-4.817-.919-4.328-.934-3.912-.934H-.889V-.044C-1.482-.074-2.579-.149-4.179-.267-4.268 0-4.387 .252-4.535 .489-2.875 .518-1.4 .6-.111 .734 1.178 .867 2.104 1.023 2.668 1.201 2.786 .904 3.008 .607 3.335 .311 1.674 .163 .563 .059 0 0M-.889-3.114H-2.9789999V-3.737H-.889ZM-.889-4.448H-2.9789999V-5.026H-.889ZM2.179-3.114H0V-3.737H2.179ZM2.134-4.448H0V-5.026H2.134ZM2.134-5.026" fill="#ffffff"/>
<path transform="matrix(1,0,0,-1,209.4777,388.77943)" d="M0 0V2.936C0 3.203-.015 3.588-.044 4.092H.934C.904 3.529 .889 3.158 .889 2.98V0H6.269C6.654 0 7.069 .015 7.514 .044V-.845C6.95-.816 6.431-.801 5.958-.801H3.379C3.586-1.394 3.905-1.973 4.335-2.535 4.764-3.099 5.275-3.566 5.869-3.937 6.461-4.308 6.995-4.567 7.469-4.715 7.084-4.953 6.787-5.249 6.58-5.605 5.958-5.278 5.38-4.893 4.846-4.448 4.313-4.003 3.838-3.463 3.423-2.825 3.008-2.187 2.697-1.512 2.49-.801H.889V-4.315C1.748-3.781 2.326-3.381 2.623-3.114 2.83-3.44 3.038-3.736 3.245-4.003 2.682-4.27 2.119-4.604 1.556-5.004 .993-5.405 .578-5.738 .311-6.005 .074-5.678-.149-5.397-.356-5.16-.119-4.923 0-4.611 0-4.226V-.801H-1.023C-1.438-.801-1.912-.816-2.445-.845V.044C-1.912 .015-1.467 0-1.112 0ZM4.157 2.024C3.519 1.386 2.89 .771 2.267 .178 2.001 .534 1.778 .771 1.6 .89 2.104 1.245 2.667 1.749 3.29 2.402 3.912 3.054 4.386 3.618 4.713 4.092 4.95 3.885 5.246 3.647 5.602 3.381 5.275 3.114 4.794 2.661 4.157 2.024" fill="#ffffff"/>
<path transform="matrix(1,0,0,-1,219.8826,393.24983)" d="M0 0C-.311-.43-.615-.808-.911-1.134-1.208-.927-1.46-.763-1.667-.645-1.401-.438-1.119-.149-.823 .222-.526 .593-.289 .956-.111 1.312L.778 .778C.57 .689 .311 .43 0 0M-.422 8.607H.511C.482 8.014 .467 7.524 .467 7.139H2.467C2.467 7.702 2.452 8.192 2.423 8.607H3.401C3.371 8.103 3.357 7.613 3.357 7.139 3.564 7.139 3.83 7.154 4.157 7.184V6.428C3.86 6.457 3.594 6.472 3.357 6.472V2.246C3.594 2.246 3.86 2.261 4.157 2.291V1.535C3.594 1.564 3.046 1.579 2.512 1.579H.111C-.541 1.579-1.104 1.564-1.578 1.535V2.291C-1.134 2.261-.734 2.246-.378 2.246V6.472C-.645 6.472-.956 6.457-1.312 6.428V7.184C-.986 7.154-.675 7.139-.378 7.139-.378 7.584-.393 8.073-.422 8.607M2.467 6.472H.46600009V5.493H2.467ZM2.467 4.826H.46600009V3.8920003H2.467ZM2.467 3.225H.46600009V2.2459999H2.467ZM1.89 .778C2.067 .897 2.26 1.074 2.467 1.312 2.823 .956 3.238 .512 3.712-.022 3.475-.2 3.238-.408 3.001-.645 2.527 .067 2.156 .541 1.89 .778M7.58-.2V2.291H5.624C5.564 1.579 5.402 .897 5.135 .245 4.868-.408 4.483-1.016 3.979-1.579 3.772-1.312 3.49-1.119 3.134-1.001 3.638-.497 4.016 .037 4.268 .601 4.52 1.163 4.668 1.727 4.713 2.291 4.757 2.854 4.779 3.773 4.779 5.049 4.779 6.353 4.764 7.391 4.735 8.162H8.514C8.484 7.599 8.47 6.917 8.47 6.116V-.423C8.47-.838 8.336-1.119 8.069-1.268 7.803-1.416 7.447-1.519 7.003-1.579 7.003-1.252 6.884-.912 6.647-.556 7.328-.645 7.64-.526 7.58-.2M7.58 7.495H5.668V5.493H7.58ZM7.58 4.826H5.668V2.9580003H7.58ZM7.58 2.958" fill="#ffffff"/>
<path transform="matrix(1,0,0,-1,237.7127,386.9112)" d="M0 0C.474 0 1.067 .015 1.778 .044V-.801C1.067-.772 .474-.756 0-.756H-2.356V-2.98H-.578C-.104-2.98 .459-2.966 1.112-2.936V-3.781C.459-3.752-.104-3.736-.578-3.736H-2.356V-6.583H.445C.978-6.583 1.6-6.569 2.312-6.539V-7.384C1.6-7.354 .978-7.339 .445-7.339H-7.825V-6.494C-7.114-6.554-6.477-6.583-5.913-6.583H-3.29V-3.736H-5.024C-5.498-3.736-6.062-3.752-6.713-3.781V-2.936C-6.002-2.966-5.439-2.98-5.024-2.98H-3.29V-.756H-5.513C-6.135-.756-6.743-.772-7.336-.801V.044C-6.684 .015-6.062 0-5.469 0ZM-4.179 1.824C-3.883 2.031-3.646 2.224-3.468 2.402-2.845 1.69-2.356 1.082-2.001 .578-2.179 .489-2.445 .326-2.801 .089-3.157 .623-3.616 1.201-4.179 1.824" fill="#ffffff"/>
<path transform="matrix(1,0,0,-1,251.4302,393.8059)" d="M0 0C-.297-.326-.504-.682-.623-1.068-2.283-.534-3.794 .311-5.157 1.468-6.195 .518-7.647-.326-9.514-1.068-9.692-.712-9.885-.4-10.092-.133-8.433 .282-6.996 1.023-5.78 2.091-6.847 3.306-7.81 5.204-8.67 7.784-8.463 7.784-8.181 7.902-7.825 8.14-7.055 5.708-6.136 3.929-5.068 2.802-3.972 4.077-3.083 5.931-2.401 8.363-1.956 8.155-1.616 8.021-1.378 7.962-1.586 7.458-1.949 6.59-2.467 5.36-2.987 4.129-3.631 3.054-4.402 2.135-3.334 1.186-1.867 .474 0 0M-4.179 6.539C-4.535 6.42-4.832 6.301-5.068 6.183-5.365 7.043-5.751 7.932-6.224 8.852-5.958 8.941-5.691 9.074-5.424 9.252-4.891 8.274-4.476 7.369-4.179 6.539" fill="#ffffff"/>
<path transform="matrix(1,0,0,-1,255.2777,386.7333)" d="M0 0H2.001C1.971-.505 1.956-1.142 1.956-1.913V-5.827C1.956-6.272 1.971-6.91 2.001-7.74H1.111V-6.85H-1.156V-7.829H-2.045C-2.016-6.88-2.001-6.287-2.001-6.049V-1.957C-2.001-1.157-2.016-.505-2.045 0H-.756C-.608 .682-.489 1.394-.4 2.135 .014 1.986 .356 1.883 .622 1.824 .474 1.557 .267 .949 0 0M1.111-.756H-1.157V-2.98H1.111ZM1.111-3.736H-1.157V-6.094H1.111ZM7.025-6.717C6.965-7.251 6.684-7.606 6.18-7.784 5.675-7.962 5.113-8.08 4.49-8.14 4.461-7.813 4.327-7.473 4.09-7.117 4.683-7.146 5.15-7.132 5.491-7.073 5.831-7.013 6.047-6.88 6.135-6.672 6.224-6.465 6.291-5.857 6.335-4.848 6.38-3.841 6.417-2.432 6.447-.623H3.868C3.63-1.186 3.29-1.854 2.845-2.624 2.638-2.417 2.385-2.254 2.09-2.135 2.356-1.779 2.608-1.35 2.845-.845 3.082-.341 3.29 .207 3.468 .801 3.646 1.394 3.749 1.853 3.779 2.18 4.194 2.002 4.549 1.868 4.846 1.779 4.697 1.542 4.572 1.282 4.468 1.001 4.364 .719 4.253 .445 4.135 .178H7.291C7.261-.445 7.247-1.023 7.247-1.557 7.217-3.366 7.143-5.086 7.025-6.717M4.624-3.381C4.801-3.736 5.009-4.197 5.246-4.76 5.038-4.848 4.757-4.997 4.401-5.204 4.194-4.641 4.001-4.159 3.824-3.759 3.646-3.358 3.468-3.025 3.29-2.758 3.497-2.64 3.764-2.491 4.09-2.313Z" fill="#ffffff"/>
<path transform="matrix(1,0,0,-1,266.9497,391.93763)" d="M0 0C.652 .83 1.104 1.683 1.356 2.558 1.608 3.432 1.749 4.248 1.778 5.004 1.808 5.76 1.793 6.553 1.734 7.384 2.06 7.354 2.43 7.324 2.845 7.295 2.757 6.82 2.712 6.331 2.712 5.827 2.712 5.322 2.741 4.744 2.801 4.092 2.86 3.44 3.282 2.453 4.068 1.134 4.853-.185 6.002-1.172 7.514-1.824 7.158-2.18 6.92-2.476 6.802-2.713 4.727-1.706 3.246 .118 2.356 2.758 1.763 .415 .326-1.453-1.956-2.847-2.134-2.609-2.386-2.358-2.712-2.091-1.556-1.528-.652-.83 0 0" fill="#ffffff"/>
<path transform="matrix(1,0,0,-1,197.8315,401.6951)" d="M0 0C-.06-.534-.089-1.008-.089-1.423V-4.226C.859-4.967 2.23-5.33 4.024-5.316 5.817-5.3 7.187-5.175 8.136-4.937 7.988-5.293 7.899-5.664 7.869-6.049 6.802-6.138 5.883-6.198 5.113-6.227 4.342-6.257 3.475-6.205 2.512-6.072 1.549-5.938 .837-5.738 .378-5.471-.082-5.204-.46-5.182-.756-5.405-1.052-5.627-1.378-5.945-1.734-6.361-1.942-6.034-2.164-5.767-2.401-5.56-1.867-5.086-1.378-4.715-.934-4.448V-.845C-1.319-.845-1.734-.86-2.179-.89V.044C-1.705 .015-1.275 0-.889 0ZM.267 1.646C-.089 1.616-.415 1.512-.711 1.334-.8 1.838-1.052 2.595-1.467 3.603-1.171 3.662-.86 3.736-.534 3.825-.149 2.847 .118 2.12 .267 1.646M6.847 1.646C6.847 .785 6.861 .059 6.891-.534H2.356V-3.559C2.949-3.232 3.453-2.966 3.868-2.758 3.927-3.025 4.016-3.321 4.135-3.647 3.66-3.825 2.83-4.241 1.645-4.893L1.067-4.048C1.334-3.841 1.467-3.544 1.467-3.158V2.135C1.467 2.698 1.452 3.262 1.423 3.825H6.891C6.861 3.262 6.847 2.535 6.847 1.646M6.002 3.069H2.356V2.046H6.002ZM6.002 1.29H2.356V.26699997H6.002ZM5.869-2.58C6.817-3.262 7.425-3.707 7.691-3.914 7.365-4.122 7.114-4.375 6.936-4.671 6.372-4.167 5.728-3.641 5.002-3.091 4.275-2.543 3.601-2.046 2.979-1.601 3.186-1.423 3.408-1.231 3.646-1.023 4.446-1.557 4.979-1.943 5.246-2.18 5.661-1.824 6.091-1.35 6.536-.756 6.802-.964 7.128-1.157 7.514-1.334 6.684-1.868 6.135-2.284 5.869-2.58" fill="#ffffff"/>
<path transform="matrix(1,0,0,-1,210.1707,406.588)" d="M0 0C-.445-.445-.816-.86-1.111-1.245-1.319-.949-1.556-.726-1.823-.578-1.586-.252-1.467 .059-1.467 .356V4.671C-2.06 4.671-2.549 4.655-2.934 4.626V5.427C-2.579 5.397-2.223 5.382-1.867 5.382H-.533C-.563 4.878-.578 4.374-.578 3.87V.578C-.311 .785 .104 1.201 .667 1.824 .785 1.586 .934 1.319 1.112 1.023 .815 .785 .445 .445 0 0M-.178 6.895C-.385 6.746-.608 6.583-.845 6.405-1.289 6.968-1.764 7.517-2.267 8.051-2.09 8.199-1.897 8.377-1.689 8.585-1.245 8.199-.741 7.636-.178 6.895M3.868 6.984V5.338H5.38C5.854 5.338 6.284 5.352 6.669 5.382V4.582C6.313 4.611 5.898 4.626 5.424 4.626H3.868V-.311H5.335C5.987-.311 6.565-.282 7.069-.222V-1.068C6.565-1.038 5.987-1.023 5.335-1.023H2.045C1.452-1.023 .904-1.038 .4-1.068V-.222C.904-.282 1.437-.311 2.001-.311H2.979V7.028C2.979 7.502 2.964 7.991 2.934 8.496H3.913C3.883 7.932 3.868 7.428 3.868 6.984" fill="#ffffff"/>
<path transform="matrix(1,0,0,-1,220.865,400.2717)" d="M0 0V-5.916C0-6.717 .015-7.369 .044-7.873H-.845C-.845-7.369-.83-6.717-.8-5.916V-1.423C-1.156-2.076-1.482-2.595-1.778-2.98-1.927-2.773-2.179-2.565-2.534-2.358-1.912-1.676-1.378-.875-.934 .044-.489 .963-.193 1.779-.044 2.491 .34 2.313 .681 2.194 .978 2.135 .8 1.838 .474 1.127 0 0M4.491 1.646C5.291 .252 6.461-.786 8.003-1.468 7.736-1.706 7.514-1.973 7.336-2.269 6.091-1.557 5.009-.489 4.09 .934 3.319-.46 2.312-1.617 1.067-2.535 .918-2.328 .711-2.106 .445-1.868 1.541-1.157 2.341-.371 2.845 .489 3.349 1.349 3.646 2.002 3.735 2.446 4.208 2.209 4.549 2.061 4.757 2.002ZM2.979-4.782C2.89-5.954 2.297-6.998 1.2-7.918 1.023-7.651 .785-7.428 .489-7.251 1.585-6.48 2.171-5.553 2.245-4.47 2.319-3.388 2.341-2.535 2.312-1.913 2.697-1.973 3.008-2.002 3.245-2.002 3.157-2.684 3.068-3.611 2.979-4.782M6.047-3.648V-6.45C6.047-6.895 6.061-7.369 6.091-7.873H5.157C5.187-7.369 5.202-6.879 5.202-6.405V-3.381C5.202-3.055 5.187-2.565 5.157-1.913H6.091C6.061-2.565 6.047-3.144 6.047-3.648" fill="#ffffff"/>
<path transform="matrix(1,0,0,-1,232.3148,400.3161)" d="M0 0V-5.872C0-6.494 .015-7.087 .044-7.651H-.889C-.86-7.146-.845-6.599-.845-6.005V-1.423C-1.2-2.017-1.527-2.491-1.823-2.847-2.06-2.521-2.283-2.269-2.49-2.091-2.194-1.795-1.786-1.223-1.267-.378-.749 .467-.341 1.423-.044 2.491 .37 2.283 .726 2.135 1.023 2.046 .785 1.779 .445 1.097 0 0M3.601 1.245V2.402C3.957 2.372 4.357 2.342 4.802 2.313 4.653 2.105 4.564 1.749 4.535 1.245H6.18C6.684 1.245 7.128 1.26 7.514 1.29V.489C7.098 .518 6.654 .534 6.18 .534H4.491L4.402-.445H6.669C6.639-.801 6.625-1.275 6.625-1.868V-6.405C7.217-6.405 7.647-6.391 7.914-6.361V-7.162C7.528-7.132 6.995-7.117 6.313-7.117H2.134C1.452-7.117 .889-7.132 .445-7.162V-6.361C.711-6.391 1.126-6.405 1.689-6.405V-1.868C1.689-1.305 1.674-.83 1.645-.445H3.468L3.557 .534H2.757C2.015 .534 1.437 .518 1.023 .489V1.29C1.407 1.26 1.986 1.245 2.757 1.245ZM5.824-1.068H2.534V-1.958H5.824ZM5.824-2.624H2.534V-3.4250003H5.824ZM5.824-4.092H2.534V-4.893H5.824ZM5.824-5.56H2.534V-6.4049999H5.824ZM5.824-6.405" fill="#ffffff"/>
<path transform="matrix(1,0,0,-1,247.9886,403.5633)" d="M0 0C.8 0 1.512 .029 2.134 .089V-.845C1.541-.786 .829-.756 0-.756H-.978V-3.425H1.734C2.593-3.425 3.29-3.396 3.824-3.336V-4.27C3.319-4.21 2.652-4.181 1.823-4.181H-4.046C-5.202-4.181-6.032-4.21-6.535-4.27V-3.336C-5.973-3.396-5.113-3.425-3.957-3.425H-1.956V-.756H-3.068C-3.868-.756-4.565-.786-5.157-.845V.089C-4.595 .029-3.853 0-2.934 0ZM-3.712 1.446C-4.29 1.016-4.95 .578-5.691 .133-5.869 .4-6.091 .667-6.358 .934-5.795 1.171-5.246 1.475-4.713 1.846-4.179 2.217-3.72 2.624-3.334 3.069-3.039 2.802-2.712 2.55-2.356 2.313-2.683 2.164-3.134 1.875-3.712 1.446M2.179 2.358V3.559H-5.113V2.224H-6.091C-6.062 2.52-6.047 2.862-6.047 3.247-6.047 3.662-6.062 4.033-6.091 4.359H-1.645C-1.823 4.774-2.03 5.189-2.267 5.605-1.971 5.753-1.645 5.886-1.289 6.005-1.052 5.471-.845 5.011-.667 4.626-.964 4.537-1.245 4.448-1.512 4.359H3.201C3.171 4.092 3.157 3.736 3.157 3.292 3.157 2.876 3.171 2.565 3.201 2.358ZM1.312 2.224C1.89 1.957 2.579 1.586 3.379 1.112 3.082 .785 2.875 .504 2.757 .267 2.193 .623 1.645 .949 1.112 1.245 .578 1.542 0 1.838-.622 2.135-.474 2.313-.297 2.55-.089 2.847 .267 2.698 .734 2.491 1.312 2.224" fill="#ffffff"/>
<path transform="matrix(1,0,0,-1,253.2588,407.9225)" d="M0 0C.059 .594 .089 1.216 .089 1.868V6.539C.089 7.162 .059 7.68 0 8.096H1.022C.993 7.651 .978 7.221 .978 6.806V1.824C.978 1.23 .993 .623 1.022 0ZM2.979 8.674C2.652 8.525 2.341 8.363 2.045 8.185 1.748 8.778 1.378 9.341 .934 9.875 1.259 10.112 1.526 10.275 1.734 10.364 2.001 10.008 2.415 9.445 2.979 8.674M6.891 5.783V3.425C6.891 3.039 6.906 2.58 6.936 2.046H2.445C2.474 2.58 2.49 3.054 2.49 3.47V5.783C2.49 6.198 2.474 6.687 2.445 7.251H6.936C6.906 6.687 6.891 6.198 6.891 5.783M6.047 6.539H3.335V5.116H6.047ZM6.047 4.404H3.335V2.758H6.047ZM9.337 9.608C9.307 9.044 9.292 8.481 9.292 7.918V1.379C9.321 .697 9.136 .282 8.736 .133 8.336-.015 7.898-.118 7.425-.178 7.395 .178 7.276 .534 7.069 .89 7.632 .86 7.995 .89 8.158 .979 8.321 1.068 8.403 1.26 8.403 1.557V8.852H5.735C5.024 8.852 4.357 8.837 3.735 8.807V9.653C4.357 9.623 5.024 9.608 5.735 9.608Z" fill="#ffffff"/>
<path transform="matrix(1,0,0,-1,70.089,235.93592)" d="M0 0H.909V1.77H2.729V2.299H.909V3.03H2.729V3.549H1.139L2.979 7.129H2.059L1.179 5.209C.949 4.719 .739 4.229 .499 3.699H.449C.21 4.229 0 4.719-.22 5.209L-1.09 7.129H-2.05L-.23 3.549H-1.8V3.03H0V2.299H-1.8V1.77H0Z" fill="#ffffff"/>
<path transform="matrix(1,0,0,-1,100.1939,235.40561)" d="M0 0H.909V1.77H2.729V2.299H.909V3.03H2.729V3.549H1.139L2.979 7.129H2.059L1.179 5.209C.949 4.719 .739 4.229 .499 3.699H.449C.21 4.229 0 4.719-.22 5.209L-1.09 7.129H-2.05L-.23 3.549H-1.8V3.03H0V2.299H-1.8V1.77H0Z" fill="#ffffff"/>
<path transform="matrix(1,0,0,-1,135.5094,235.40561)" d="M0 0H.909V1.77H2.729V2.299H.909V3.03H2.729V3.549H1.139L2.979 7.129H2.059L1.179 5.209C.949 4.719 .739 4.229 .499 3.699H.449C.21 4.229 0 4.719-.22 5.209L-1.09 7.129H-2.05L-.23 3.549H-1.8V3.03H0V2.299H-1.8V1.77H0Z" fill="#ffffff"/>
<path transform="matrix(1,0,0,-1,283.7874,235.93592)" d="M0 0H.909V1.77H2.729V2.299H.909V3.03H2.729V3.549H1.139L2.979 7.129H2.059L1.179 5.209C.949 4.719 .739 4.229 .499 3.699H.449C.21 4.229 0 4.719-.22 5.209L-1.09 7.129H-2.05L-.23 3.549H-1.8V3.03H0V2.299H-1.8V1.77H0Z" fill="#ffffff"/>
</g>
</g>
</g>
</svg>
