<svg xmlns="http://www.w3.org/2000/svg" xmlns:xlink="http://www.w3.org/1999/xlink" xmlns:inkscape="http://www.inkscape.org/namespaces/inkscape" version="1.1" width="411.024" height="595.276" viewBox="0 0 411.024 595.276">
<defs>
<clipPath id="clip_1">
<path transform="matrix(1,0,0,-1,0,595.276)" d="M0 0H411.024V595.276H0Z"/>
</clipPath>
<clipPath id="clip_2">
<path transform="matrix(1,0,0,-1,0,595.276)" d="M0 0H411.024V595.276H0Z"/>
</clipPath>
<path id="font_3_5" d="M.45999146 .19407654C.45999146 .28303529 .4229889 .34100343 .35099793 .36799623 .4149933 .39700318 .44699098 .450943 .44699098 .52586367 .44699098 .64175418 .36698915 .71875 .25099183 .71875 .14299011 .71875 .05899048 .6507416 .050994874 .53585818H.12298584C.12998963 .60879519 .17599488 .6547394 .25099183 .6547394 .31999208 .6547394 .375 .609787 .375 .5248718 .375 .4449463 .33499146 .3959961 .24798584 .3959961H.23298645V.3330078H.24798584C.34498597 .3330078 .3880005 .28103639 .3880005 .19508362 .3880005 .10812378 .32798768 .057159425 .25099183 .057159425 .18299866 .057159425 .11999512 .09213257 .11399841 .18109131H.041992189C.04798889 .05215454 .13899231-.0068359377 .25099183-.0068359377 .36698915-.0068359377 .45999146 .06315613 .45999146 .19407654Z"/>
<path id="font_3_10" d="M.47099305 .19602967C.47099305 .27897645 .4249878 .33493043 .36499024 .368927 .42099 .40092469 .45700074 .45289613 .45700074 .52685549 .45700074 .6377716 .37399293 .71777346 .26098634 .71777346 .147995 .71777346 .06498718 .6377716 .06498718 .52685549 .06498718 .45289613 .101989749 .40092469 .1579895 .368927 .09799194 .33493043 .050994874 .27897645 .050994874 .19602967 .050994874 .0761261 .14299011-.005859375 .26098634-.005859375 .3789978-.005859375 .47099305 .0761261 .47099305 .19602967M.39898683 .19703675C.39898683 .11808777 .33898927 .058135988 .26098634 .058135988 .18299866 .058135988 .12298584 .11808777 .12298584 .19703675 .12298584 .27597047 .18299866 .3359375 .26098634 .3359375 .33898927 .3359375 .39898683 .27597047 .39898683 .19703675M.3849945 .5258484C.3849945 .45089723 .33399964 .39892579 .26098634 .39892579 .18798828 .39892579 .13699341 .45089723 .13699341 .5258484 .13699341 .59980776 .18798828 .6537628 .26098634 .6537628 .33399964 .6537628 .3849945 .59980776 .3849945 .5258484Z"/>
<path id="font_3_7" d="M.46199037 .23516846C.46199037 .30218507 .45498658 .37419129 .40299989 .42619325 .375 .45419313 .33299256 .4711914 .27999879 .4711914 .22399903 .4711914 .17999268 .4532013 .1519928 .42219544V.64790347H.44699098V.71191409H.08699036V.33818055H.1519928C.1659851 .380188 .20799256 .40820313 .269989 .40820313 .37298585 .40820313 .3899994 .32218934 .3899994 .23516846 .3899994 .18417359 .3880005 .12716675 .35099793 .090164188 .32998658 .06915283 .2979889 .057159425 .2630005 .057159425 .18798828 .057159425 .15098572 .09716797 .14199829 .16816712H.069992069C.07398987 .11715698 .08898926 .076156619 .11999512 .044158937 .15098572 .013153076 .20098877-.0068359377 .2630005-.0068359377 .32598878-.0068359377 .37199403 .013153076 .40499879 .046157838 .45599366 .09716797 .46199037 .16416931 .46199037 .23516846Z"/>
<clipPath id="clip_4">
<path transform="matrix(1,0,0,-1,0,595.276)" d="M0 0H411.024V595.276H0Z"/>
</clipPath>
<clipPath id="clip_5">
<path transform="matrix(1,0,0,-1,0,595.276)" d="M0 0H411.024V595.276H0Z"/>
</clipPath>
<clipPath id="clip_6">
<path transform="matrix(1,0,0,-1,0,595.276)" d="M0 0H411.024V595.276H0Z"/>
</clipPath>
<clipPath id="clip_7">
<path transform="matrix(1,0,0,-1,0,595.276)" d="M0 0H411.024V595.276H0Z"/>
</clipPath>
<clipPath id="clip_8">
<path transform="matrix(1,0,0,-1,0,595.276)" d="M0 0H411.024V595.276H0Z"/>
</clipPath>
<clipPath id="clip_9">
<path transform="matrix(1,0,0,-1,0,595.276)" d="M0 0H411.024V595.276H0Z"/>
</clipPath>
<clipPath id="clip_10">
<path transform="matrix(1,0,0,-1,0,595.276)" d="M0 0H411.024V595.276H0Z"/>
</clipPath>
<clipPath id="clip_11">
<path transform="matrix(1,0,0,-1,0,595.276)" d="M0 0H411.024V595.276H0Z"/>
</clipPath>
</defs>
<g clip-path="url(#clip_1)">
<g clip-path="url(#clip_2)">
<use data-text="3" xlink:href="#font_3_5" transform="matrix(9,0,0,-9,363.685,567.547)" fill="#f43040"/>
<use data-text="8" xlink:href="#font_3_10" transform="matrix(9,0,0,-9,367.285,567.547)" fill="#f43040"/>
<use data-text="5" xlink:href="#font_3_7" transform="matrix(9,0,0,-9,370.885,567.547)" fill="#f43040"/>
<g clip-path="url(#clip_4)">
<path transform="matrix(1,0,0,-1,135.3142,264.9157)" d="M0 0C-8.212 0-14.893 6.684-14.893 14.9-14.893 23.116-8.212 29.801 0 29.801 8.212 29.801 14.893 23.116 14.893 14.9 14.893 6.684 8.212 0 0 0M0 28.782C-7.65 28.782-13.875 22.555-13.875 14.9-13.875 7.246-7.65 1.019 0 1.019 7.651 1.019 13.875 7.246 13.875 14.9 13.875 22.555 7.651 28.782 0 28.782" fill="#f43040"/>
<path transform="matrix(1,0,0,-1,138.297,252.6753)" d="M0 0C0-.879-.277-1.576-.83-2.091-1.384-2.607-2.139-2.865-3.093-2.865-4.047-2.865-4.792-2.598-5.326-2.063-5.861-1.528-6.128-.859-6.128-.057V.344H-4.811V0C-4.811-.573-4.639-1.013-4.295-1.318-3.952-1.624-3.551-1.776-3.093-1.776-2.482-1.776-2.033-1.614-1.747-1.289-1.46-.965-1.317-.573-1.317-.115-1.317 .267-1.489 .62-1.833 .945-2.176 1.27-2.673 1.566-3.322 1.834-4.238 2.177-4.897 2.559-5.298 2.98-5.698 3.399-5.899 3.896-5.899 4.469-5.899 5.272-5.622 5.921-5.068 6.418-4.516 6.914-3.857 7.162-3.093 7.162-2.1 7.162-1.384 6.866-.945 6.274-.507 5.682-.286 5.042-.286 4.355H-1.604C-1.566 4.775-1.681 5.157-1.947 5.501-2.215 5.845-2.597 6.016-3.093 6.016-3.551 6.016-3.914 5.892-4.181 5.644-4.448 5.395-4.582 5.061-4.582 4.641-4.582 4.297-4.477 4.001-4.267 3.753-4.057 3.504-3.513 3.209-2.634 2.865-1.795 2.521-1.145 2.11-.687 1.633-.229 1.155 0 .611 0 0" fill="#2c292a"/>
<path transform="matrix(1,0,0,-1,135.3142,319.3326)" d="M0 0C-8.212 0-14.893 6.684-14.893 14.9-14.893 23.116-8.212 29.801 0 29.801 8.212 29.801 14.893 23.116 14.893 14.9 14.893 6.684 8.212 0 0 0M0 28.782C-7.65 28.782-13.875 22.555-13.875 14.9-13.875 7.246-7.65 1.019 0 1.019 7.651 1.019 13.875 7.246 13.875 14.9 13.875 22.555 7.651 28.782 0 28.782" fill="#2c292a"/>
</g>
<path transform="matrix(1,0,0,-1,138.6979,300.0503)" d="M0 0-1.26-9.913H-2.405L-3.436-2.578H-3.551L-4.582-9.913H-5.727L-6.987 0H-5.727L-5.097-6.246H-4.983L-4.124 0H-2.864L-2.005-6.246H-1.89L-1.26 0Z" fill="#2c292a"/>
<g clip-path="url(#clip_5)">
<path transform="matrix(1,0,0,-1,290.2875,264.9157)" d="M0 0C-8.212 0-14.893 6.684-14.893 14.9-14.893 23.116-8.212 29.801 0 29.801 8.212 29.801 14.893 23.116 14.893 14.9 14.893 6.684 8.212 0 0 0M0 28.782C-7.65 28.782-13.875 22.555-13.875 14.9-13.875 7.246-7.65 1.019 0 1.019 7.651 1.019 13.875 7.246 13.875 14.9 13.875 22.555 7.651 28.782 0 28.782" fill="#f43040"/>
<path transform="matrix(1,0,0,-1,293.3837,250.4979)" d="M0 0C0-1.796-.277-3.085-.831-3.868-1.384-4.651-2.158-5.042-3.15-5.042-4.143-5.042-4.925-4.651-5.498-3.868-6.071-3.085-6.357-1.796-6.357 0-6.357 1.795-6.071 3.074-5.498 3.839-4.925 4.603-4.143 4.985-3.15 4.985-2.158 4.985-1.384 4.603-.831 3.839-.277 3.074 0 1.795 0 0M-1.375 0C-1.375 1.604-1.546 2.655-1.89 3.151-2.234 3.647-2.654 3.896-3.15 3.896-3.647 3.896-4.076 3.647-4.439 3.151-4.802 2.655-4.983 1.604-4.983 0-4.983-1.604-4.802-2.664-4.439-3.18-4.076-3.696-3.647-3.954-3.15-3.954-2.654-3.954-2.234-3.696-1.89-3.18-1.546-2.664-1.375-1.604-1.375 0" fill="#2c292a"/>
<path transform="matrix(1,0,0,-1,290.2875,322.0973)" d="M0 0C-8.212 0-14.893 6.684-14.893 14.9-14.893 23.116-8.212 29.801 0 29.801 8.212 29.801 14.893 23.116 14.893 14.9 14.893 6.684 8.212 0 0 0M0 28.782C-7.65 28.782-13.875 22.555-13.875 14.9-13.875 7.246-7.65 1.019 0 1.019 7.651 1.019 13.875 7.246 13.875 14.9 13.875 22.555 7.651 28.782 0 28.782" fill="#2c292a"/>
</g>
<path transform="matrix(1,0,0,-1,293.1545,303.9084)" d="M0 0H-2.291V-8.71H-3.608V0H-5.899V1.089H0Z" fill="#2c292a"/>
<g clip-path="url(#clip_6)">
<path transform="matrix(1,0,0,-1,127.6478,270.6904)" d="M0 0C.445 .857 .727 1.602 .845 2.236 1.079 2.095 1.373 1.966 1.725 1.849 1.514 1.638 1.267 1.121 .986 .299V-4.243C.986-4.948 .997-5.476 1.021-5.828H.282C.305-5.499 .317-4.983 .317-4.279V-.898C.012-1.415-.305-1.884-.634-2.307-.751-2.095-.915-1.908-1.126-1.743-.822-1.438-.446-.857 0 0M5.385-5.018C5.573-5.066 5.749-5.083 5.913-5.071 6.077-5.06 6.2-5.007 6.283-4.913 6.365-4.819 6.453-4.502 6.547-3.962 6.711-4.126 6.969-4.256 7.321-4.349 7.18-4.866 7.045-5.206 6.916-5.37 6.787-5.534 6.582-5.628 6.3-5.652H5.209C4.717-5.652 4.47-5.37 4.47-4.807V-.792H4.013C3.895-3.093 3.203-4.784 1.936-5.863 1.771-5.652 1.537-5.499 1.232-5.406 2.452-4.56 3.144-3.023 3.309-.792H2.675C2.159-.792 1.725-.804 1.373-.828V-.194C1.725-.217 2.159-.229 2.675-.229H3.344C3.344 .945 3.332 1.743 3.309 2.166 3.473 2.118 3.743 2.083 4.118 2.06 4.048 1.708 4.013 .945 4.013-.229H5.913C6.171-.229 6.512-.217 6.934-.194V-.828C6.535-.804 6.206-.792 5.948-.792H5.139V-4.596C5.115-4.831 5.197-4.972 5.385-5.018M5.843 1.373C5.984 1.174 6.124 .992 6.265 .828 6.077 .71 5.878 .557 5.667 .37 5.526 .651 5.256 1.05 4.857 1.567 5.021 1.684 5.209 1.825 5.421 1.99 5.561 1.778 5.702 1.573 5.843 1.373" fill="#2c292a"/>
<path transform="matrix(1,0,0,-1,137.951,271.3066)" d="M0 0V-1.303C-.024-1.562-.158-1.726-.405-1.796-.651-1.866-.962-1.937-1.338-2.007-1.361-1.749-1.455-1.491-1.619-1.233-1.103-1.256-.81-1.245-.739-1.197-.669-1.151-.634-1.01-.634-.775V-.141C-1.22-.305-1.713-.446-2.112-.563-2.182-.305-2.288-.094-2.429 .07-2.006 .117-1.408 .223-.634 .387V1.197C-1.291 1.197-1.795 1.185-2.147 1.162V1.796C-1.795 1.772-1.291 1.761-.634 1.761-.634 2.183-.646 2.523-.669 2.782H.106C.035 2.547 0 2.206 0 1.761 .234 1.761 .528 1.772 .88 1.796V1.162C.528 1.185 .234 1.197 0 1.197V.528C.282 .575 .563 .646 .845 .74 .821 .575 .81 .387 .81 .176 .434 .082 .164 .023 0 0M1.056-2.359C1.079-2.172 1.091-1.972 1.091-1.761 1.419-1.831 1.677-1.879 1.866-1.902 1.818-2.019 1.783-2.172 1.76-2.359H4.752C4.728-2.688 4.687-3.081 4.629-3.539 4.57-3.997 4.493-4.338 4.4-4.56 4.306-4.783 4.147-4.93 3.925-5.001 3.701-5.071 3.273-5.141 2.64-5.212 2.616-4.977 2.487-4.719 2.253-4.437 2.98-4.484 3.414-4.467 3.555-4.384 3.696-4.302 3.789-4.168 3.837-3.979 3.883-3.792 3.93-3.44 3.977-2.923H1.654C1.396-3.651 .986-4.173 .422-4.49-.141-4.807-.833-5.083-1.654-5.318-1.748-5.059-1.924-4.836-2.182-4.648-1.572-4.578-.968-4.414-.37-4.155 .229-3.897 .657-3.486 .915-2.923H-.563C-1.009-2.923-1.432-2.935-1.83-2.958V-2.324C-1.432-2.348-1.009-2.359-.563-2.359ZM1.971-.176C1.807-.059 1.572 .07 1.267 .211 1.431 .352 1.549 .516 1.619 .704L2.182 .352C2.229 .54 2.276 .845 2.323 1.268 1.971 1.268 1.654 1.244 1.373 1.197L1.302 1.761H2.323C2.323 2.206 2.299 2.571 2.253 2.852 2.464 2.805 2.733 2.77 3.062 2.747 2.992 2.512 2.957 2.195 2.957 1.796L4.681 1.831C4.611 1.361 4.564 .88 4.541 .387 4.517-.106 4.558-.482 4.664-.74 4.769-.998 4.875-1.145 4.981-1.18 5.086-1.215 5.139-.939 5.139-.352 5.326-.54 5.573-.658 5.878-.704 5.737-1.268 5.62-1.62 5.526-1.761 5.432-1.902 5.303-1.984 5.139-2.007 4.974-2.031 4.746-1.914 4.453-1.655 4.159-1.397 3.977-1.021 3.907-.528 3.837-.035 3.837 .575 3.907 1.303L2.957 1.268C2.909 .751 2.863 .34 2.816 .035 3.003-.083 3.238-.223 3.52-.387 3.309-.552 3.144-.716 3.027-.88 2.863-.74 2.71-.622 2.569-.528 2.217-.975 1.783-1.373 1.267-1.726 1.103-1.562 .868-1.421 .563-1.303 1.197-1.069 1.666-.693 1.971-.176" fill="#2c292a"/>
<path transform="matrix(1,0,0,-1,132.3,323.9276)" d="M0 0V-1.761C.305-1.62 .569-1.461 .792-1.285 1.015-1.109 1.267-.869 1.549-.563 1.76-.798 1.971-.986 2.182-1.127 1.877-1.362 1.566-1.591 1.25-1.814 .933-2.037 .621-2.219 .317-2.359 .012-2.5-.364-2.636-.81-2.764-1.256-2.894-1.713-2.999-2.182-3.081-2.652-3.164-3.18-3.252-3.766-3.345-3.813-3.087-3.954-2.841-4.189-2.606-3.203-2.535-2.446-2.447-1.918-2.342-1.39-2.236-.986-2.137-.704-2.043V0C-.704 .446-.728 .786-.774 1.021H.07C.023 .786 0 .446 0 0M-.106-4.332C-.246-4.872-.434-5.294-.669-5.599-.904-5.905-1.244-6.192-1.69-6.462-2.136-6.732-2.745-6.996-3.52-7.254-3.59-6.973-3.755-6.726-4.013-6.515-3.051-6.35-2.329-6.098-1.848-5.758-1.367-5.418-1.033-4.942-.845-4.332H-1.83C-2.558-4.332-3.11-4.344-3.485-4.367V-3.662C-2.945-3.686-2.393-3.698-1.83-3.698H-.704C-.657-3.486-.634-3.181-.634-2.782-.446-2.806-.141-2.865 .282-2.958 .164-3.193 .07-3.44 0-3.698H3.133C3.062-4.496 3.015-5.042 2.992-5.335 2.968-5.629 2.927-5.94 2.869-6.268 2.81-6.597 2.616-6.802 2.288-6.885 1.959-6.967 1.537-7.031 1.021-7.078 1.021-6.773 .938-6.468 .774-6.163 1.384-6.186 1.76-6.186 1.901-6.163 2.042-6.14 2.13-6.039 2.165-5.863 2.2-5.687 2.229-5.465 2.253-5.194 2.276-4.925 2.288-4.637 2.288-4.332ZM-2.024-.933C-2.318-1.297-2.652-1.667-3.027-2.043-3.238-1.831-3.449-1.667-3.661-1.549-3.379-1.338-3.104-1.08-2.833-.775-2.564-.47-2.323-.118-2.112 .282-1.924 .141-1.654 0-1.302-.141-1.49-.305-1.731-.57-2.024-.933M3.027-.299C3.309-.546 3.602-.81 3.907-1.092 3.696-1.256 3.496-1.444 3.309-1.655 3.027-1.327 2.745-1.039 2.464-.792 2.182-.546 1.877-.294 1.549-.035 1.736 .129 1.912 .305 2.077 .493 2.429 .211 2.745-.053 3.027-.299" fill="#2c292a"/>
<path transform="matrix(1,0,0,-1,139.3298,325.7236)" d="M0 0V-1.303C-.024-1.562-.158-1.726-.405-1.796-.651-1.866-.962-1.937-1.337-2.007-1.361-1.749-1.455-1.491-1.619-1.233-1.103-1.256-.81-1.245-.739-1.197-.669-1.151-.634-1.01-.634-.775V-.141C-1.22-.305-1.713-.446-2.112-.563-2.182-.305-2.288-.094-2.429 .07-2.006 .117-1.408 .223-.634 .387V1.197C-1.291 1.197-1.795 1.185-2.147 1.162V1.796C-1.795 1.772-1.291 1.761-.634 1.761-.634 2.183-.646 2.523-.669 2.782H.106C.035 2.547 0 2.206 0 1.761 .234 1.761 .528 1.772 .88 1.796V1.162C.528 1.185 .234 1.197 0 1.197V.528C.282 .575 .563 .645 .845 .74 .821 .575 .81 .387 .81 .176 .434 .082 .164 .023 0 0M1.056-2.359C1.079-2.172 1.091-1.972 1.091-1.761 1.419-1.831 1.677-1.879 1.866-1.902 1.818-2.019 1.783-2.172 1.76-2.359H4.752C4.728-2.688 4.687-3.081 4.629-3.539 4.57-3.997 4.493-4.338 4.4-4.56 4.306-4.783 4.147-4.93 3.925-5.001 3.701-5.071 3.273-5.141 2.64-5.212 2.616-4.977 2.487-4.719 2.253-4.437 2.98-4.484 3.414-4.467 3.555-4.384 3.696-4.302 3.789-4.168 3.837-3.979 3.883-3.792 3.93-3.44 3.977-2.923H1.654C1.396-3.651 .986-4.173 .422-4.49-.141-4.807-.833-5.083-1.654-5.318-1.748-5.059-1.924-4.836-2.182-4.648-1.572-4.578-.968-4.414-.37-4.155 .229-3.897 .657-3.486 .915-2.923H-.563C-1.009-2.923-1.432-2.935-1.83-2.958V-2.324C-1.432-2.348-1.009-2.359-.563-2.359ZM1.971-.176C1.807-.059 1.572 .07 1.267 .211 1.431 .352 1.549 .516 1.619 .704L2.182 .352C2.229 .54 2.276 .845 2.323 1.268 1.971 1.268 1.654 1.244 1.373 1.197L1.302 1.761H2.323C2.323 2.206 2.299 2.571 2.253 2.852 2.464 2.805 2.733 2.77 3.062 2.747 2.992 2.512 2.957 2.195 2.957 1.796L4.681 1.831C4.611 1.361 4.564 .88 4.541 .387 4.517-.106 4.558-.482 4.664-.74 4.769-.998 4.875-1.145 4.981-1.18 5.086-1.215 5.139-.939 5.139-.352 5.327-.54 5.573-.658 5.878-.704 5.737-1.268 5.62-1.62 5.526-1.761 5.432-1.902 5.303-1.984 5.139-2.007 4.975-2.031 4.746-1.914 4.453-1.655 4.159-1.397 3.977-1.021 3.907-.528 3.837-.035 3.837 .575 3.907 1.303L2.957 1.268C2.909 .751 2.863 .34 2.816 .035 3.003-.083 3.238-.223 3.52-.387 3.309-.552 3.144-.716 3.027-.88 2.863-.74 2.71-.622 2.569-.528 2.217-.975 1.783-1.373 1.267-1.726 1.103-1.562 .868-1.421 .563-1.303 1.197-1.069 1.666-.693 1.971-.176" fill="#2c292a"/>
<path transform="matrix(1,0,0,-1,286.4625,273.1379)" d="M0 0C-.164-.141-.364-.294-.598-.458-.739-.153-.986 .258-1.337 .775V-1.796C-1.337-2.266-1.326-2.794-1.302-3.381H-2.077C-2.054-2.794-2.041-2.266-2.041-1.796V.458C-2.159 .106-2.288-.229-2.429-.546-2.569-.863-2.769-1.221-3.027-1.62-3.238-1.385-3.426-1.197-3.59-1.056-3.403-.845-3.156-.435-2.851 .176-2.546 .786-2.312 1.467-2.147 2.219H-2.358C-2.687 2.219-3.015 2.195-3.344 2.148V2.817C-3.015 2.794-2.699 2.782-2.393 2.782H-2.041V3.486C-2.041 3.862-2.054 4.214-2.077 4.543H-1.267C-1.314 4.308-1.337 3.956-1.337 3.486V2.782H-.95C-.692 2.782-.399 2.794-.07 2.817V2.183C-.587 2.207-1.009 2.219-1.337 2.219V.81C-1.197 .927-1.033 1.056-.845 1.197-.47 .681-.188 .282 0 0M3.273 2.395V-2.183C3.273-2.489 3.344-2.653 3.485-2.676 3.625-2.7 3.743-2.705 3.837-2.694 3.93-2.682 3.995-2.6 4.03-2.447 4.065-2.295 4.083-2.066 4.083-1.761 4.294-1.878 4.541-1.972 4.822-2.042 4.728-2.536 4.634-2.864 4.541-3.029 4.447-3.193 4.294-3.275 4.083-3.275H3.344C3.062-3.275 2.857-3.21 2.728-3.081 2.599-2.952 2.546-2.688 2.57-2.289V3.486H1.232C1.232 2.148 1.214 1.109 1.179 .37 1.144-.37 1.038-1.039 .862-1.638 .686-2.236 .34-2.84-.176-3.451-.294-3.31-.505-3.122-.81-2.888-.481-2.63-.217-2.313-.018-1.937 .182-1.562 .317-1.174 .387-.775 .458-.376 .504 .047 .528 .493 .551 .939 .563 1.502 .563 2.183 .563 2.888 .551 3.522 .528 4.085H3.309C3.285 3.427 3.273 2.864 3.273 2.395" fill="#2c292a"/>
<path transform="matrix(1,0,0,-1,300.18,271.6588)" d="M0 0C-.211-.188-.376-.399-.493-.634-2.089 .094-3.297 1.033-4.118 2.183-5.221 .939-6.43-.059-7.744-.81-7.979-.482-8.178-.282-8.342-.211-7.474 .094-6.647 .599-5.861 1.303-5.075 2.007-4.541 2.653-4.259 3.24-4.048 3.099-3.801 2.97-3.52 2.852L-3.731 2.641C-2.91 1.467-1.666 .587 0 0M-6.054-4.05C-4.505-4.003-3.309-3.956-2.464-3.909-2.675-3.674-2.992-3.369-3.414-2.993-3.25-2.852-3.086-2.7-2.922-2.536-2.593-2.841-2.276-3.14-1.971-3.434-1.666-3.727-1.314-4.085-.915-4.508-1.08-4.648-1.279-4.825-1.514-5.036-1.725-4.73-1.901-4.519-2.042-4.402-2.582-4.425-3.456-4.472-4.664-4.543-5.873-4.613-6.653-4.695-7.004-4.789-7.122-4.484-7.216-4.249-7.286-4.085-6.911-3.968-6.465-3.669-5.949-3.187-5.433-2.706-5.069-2.313-4.857-2.007H-5.878C-6.512-2.007-7.099-2.019-7.638-2.043V-1.444C-7.075-1.468-6.5-1.479-5.913-1.479H-2.394C-1.807-1.479-1.232-1.468-.669-1.444V-2.043C-1.232-2.019-1.854-2.007-2.534-2.007H-4.646C-4.459-2.195-4.283-2.336-4.118-2.43-4.283-2.548-4.928-3.087-6.054-4.05M-3.485 .141C-2.969 .141-2.546 .152-2.218 .176V-.458C-2.57-.435-2.992-.423-3.485-.423H-4.998C-5.444-.423-5.82-.435-6.125-.458V.176C-5.82 .152-5.456 .141-5.033 .141Z" fill="#2c292a"/>
<path transform="matrix(1,0,0,-1,282.9427,333.3468)" d="M0 0C.211 .352 .37 .716 .475 1.092 .581 1.467 .669 1.843 .739 2.219 .81 2.594 .856 3.128 .88 3.821 .903 4.513 .903 5.341 .88 6.304H4.963C4.939 7.008 4.904 7.489 4.857 7.747 5.115 7.7 5.385 7.677 5.667 7.677 5.643 7.372 5.643 6.914 5.667 6.304H6.617C7.016 6.304 7.462 6.315 7.955 6.339V5.67C7.485 5.693 7.04 5.705 6.617 5.705H5.702C5.749 5.188 5.802 4.724 5.861 4.314 5.919 3.903 6.042 3.322 6.23 2.571 6.347 2.852 6.47 3.205 6.6 3.627 6.728 4.05 6.828 4.519 6.899 5.036 7.157 4.918 7.462 4.825 7.814 4.754 7.673 4.566 7.52 4.249 7.356 3.803 7.192 3.357 6.922 2.676 6.547 1.761 7.04 .821 7.35 .481 7.48 .74 7.608 .998 7.696 1.233 7.744 1.444 7.931 1.209 8.142 1.044 8.377 .951 8.119 .223 7.825-.17 7.497-.229 7.168-.287 6.723 .153 6.16 1.092 5.925 .763 5.708 .487 5.509 .264 5.309 .041 5.08-.199 4.822-.458 4.634-.293 4.411-.164 4.153-.07 4.435 .141 4.722 .399 5.016 .704 5.309 1.009 5.584 1.385 5.843 1.831 5.561 2.535 5.368 3.228 5.262 3.909 5.157 4.59 5.08 5.188 5.033 5.705H1.549V3.592C1.455 2.347 1.325 1.455 1.161 .916 .997 .376 .821-.047 .634-.352 .469-.188 .258-.07 0 0M2.745 3.592C2.839 3.897 2.909 4.155 2.957 4.367 2.745 4.367 2.405 4.355 1.936 4.332V4.965C2.381 4.942 2.886 4.93 3.449 4.93 4.013 4.93 4.47 4.942 4.822 4.965V4.332C4.447 4.355 4.059 4.367 3.661 4.367 3.567 4.108 3.485 3.85 3.414 3.592H4.963C4.798 2.864 4.587 2.254 4.329 1.761 4.564 1.643 4.81 1.491 5.068 1.303 4.928 1.138 4.798 .962 4.681 .775 4.47 .916 4.235 1.056 3.977 1.197 3.625 .845 3.32 .587 3.062 .423 2.804 .259 2.487 .083 2.112-.106 1.971 .083 1.807 .27 1.619 .458 1.971 .551 2.288 .681 2.569 .845 2.851 1.009 3.12 1.209 3.379 1.444 2.863 1.702 2.429 1.89 2.077 2.007 2.241 2.336 2.393 2.676 2.534 3.029 2.276 3.029 2.006 3.016 1.725 2.993V3.627C2.006 3.603 2.346 3.592 2.745 3.592M3.731 1.972C3.918 2.254 4.048 2.606 4.118 3.029H3.133C3.039 2.793 2.921 2.547 2.781 2.289ZM7.392 6.937C7.157 6.843 6.945 6.726 6.758 6.585 6.594 6.89 6.429 7.16 6.265 7.395 6.453 7.512 6.652 7.618 6.864 7.712 7.075 7.43 7.251 7.172 7.392 6.937" fill="#2c292a"/>
<path transform="matrix(1,0,0,-1,294.0203,332.9418)" d="M0 0C.141 .011 .223 .158 .246 .44V2.201H-.915C-.962 1.638-1.015 1.197-1.074 .88-1.132 .563-1.203 .27-1.285 0-1.367-.27-1.467-.534-1.584-.792-1.795-.604-1.995-.475-2.182-.405-1.995-.076-1.836 .317-1.707 .775-1.578 1.233-1.49 1.837-1.443 2.588V5.617C-1.443 5.992-1.455 6.356-1.478 6.709H.88C.856 6.239 .845 5.769 .845 5.3V.018C.845-.475 .422-.745-.422-.792-.446-.557-.505-.287-.598 .018-.341-.006-.141-.012 0 0M.246 6.145H-.88000008V4.736H.246ZM.246 4.173H-.88000008V2.764H.246ZM1.971 2.888C1.877 2.453 1.736 2.001 1.549 1.532 1.314 1.625 1.114 1.684 .95 1.708 1.161 2.224 1.296 2.611 1.355 2.87 1.413 3.128 1.466 3.469 1.514 3.891 1.748 3.844 1.971 3.797 2.182 3.75 2.135 3.61 2.065 3.322 1.971 2.888M2.851 5.969C2.851 6.274 2.839 6.661 2.816 7.131 3.074 7.084 3.332 7.061 3.59 7.061 3.567 6.92 3.543 6.702 3.52 6.409 3.496 6.115 3.485 5.734 3.485 5.265H5.139C5.092 4.913 5.056 4.513 5.033 4.067L4.857 .018C4.81-.358 4.681-.581 4.47-.651 4.259-.722 3.965-.792 3.59-.863 3.496-.581 3.391-.335 3.273-.123 3.719-.146 3.989-.152 4.083-.141 4.176-.129 4.235-.029 4.259 .158L4.435 4.701H3.449C3.402 4.114 3.349 3.574 3.291 3.081 3.232 2.588 3.138 2.113 3.009 1.655 2.88 1.197 2.71 .769 2.499 .37 2.288-.029 2.006-.452 1.654-.898 1.466-.733 1.243-.604 .986-.511 1.361-.159 1.666 .234 1.901 .669 2.135 1.103 2.317 1.561 2.446 2.042 2.575 2.523 2.663 2.987 2.71 3.434 2.757 3.879 2.792 4.302 2.816 4.701H2.288C2.1 4.701 1.83 4.689 1.478 4.666V5.3C1.971 5.276 2.253 5.265 2.323 5.265H2.851ZM5.948 3.011C6.042 2.659 6.125 2.283 6.195 1.884 5.96 1.837 5.76 1.778 5.596 1.708 5.526 2.13 5.456 2.488 5.385 2.782 5.315 3.075 5.232 3.398 5.139 3.75 5.303 3.774 5.491 3.832 5.702 3.927 5.772 3.668 5.854 3.363 5.948 3.011" fill="#2c292a"/>
<path transform="matrix(1,0,0,-1,302.58,349.4281)" d="M0 0H-26.065C-29.939 0-33.091 3.153-33.091 7.029V127.063C-33.091 130.939-29.939 134.092-26.065 134.092H0C3.874 134.092 7.026 130.939 7.026 127.063V7.029C7.026 3.153 3.874 0 0 0M-26.065 133.073C-29.377 133.073-32.072 130.377-32.072 127.063V7.029C-32.072 3.715-29.377 1.019-26.065 1.019H0C3.312 1.019 6.007 3.715 6.007 7.029V127.063C6.007 130.377 3.312 133.073 0 133.073Z" fill="#2c292a"/>
<path transform="matrix(1,0,0,-1,95.629,267.5959)" d="M0 0C.369 .56 .566 1.261 .592 2.101H-2.004V-4.393H-2.883C-2.832-3.883-2.806-3.451-2.806-3.094V1.146C-2.806 1.655-2.819 2.19-2.844 2.75H.63C.63 3.438 .617 3.947 .592 4.278 .999 4.253 1.317 4.24 1.546 4.24 1.419 3.909 1.355 3.412 1.355 2.75H4.945C4.893 2.216 4.868 1.681 4.868 1.146V-3.514C4.868-3.896 4.715-4.132 4.41-4.221 4.104-4.31 3.685-4.393 3.15-4.469 3.074-4.215 2.895-3.935 2.615-3.629 3.226-3.629 3.621-3.61 3.799-3.572 3.977-3.534 4.066-3.413 4.066-3.209V2.101H1.317C1.317 1.643 1.279 1.197 1.203 .764 1.432 .586 1.839 .273 2.424-.172 3.01-.618 3.43-.968 3.685-1.222 3.404-1.452 3.188-1.656 3.035-1.834 2.602-1.324 1.915-.688 .974 .076 .516-.713-.083-1.452-.821-2.139-1.126-1.885-1.419-1.719-1.699-1.643-.935-1.108-.369-.56 0 0" fill="#2c292a"/>
<path transform="matrix(1,0,0,-1,95.4954,274.0517)" d="M0 0C-.153-.076-.293-.153-.42-.229 .649-.229 1.323-.217 1.604-.191V-.917C1.425-.917 1.082-.904 .573-.879L1.222-1.184C1.043-1.465 .789-1.961 .458-2.674 1.069-2.674 1.54-2.661 1.871-2.636V-3.362C1.54-3.337 1.209-3.323 .878-3.323H-1.985C-2.444-3.323-2.825-3.337-3.131-3.362V-2.636C-2.953-2.661-2.469-2.674-1.68-2.674-1.858-2.241-2.087-1.795-2.367-1.337-2.164-1.236-1.947-1.121-1.718-.993-1.464-1.35-1.197-1.795-.916-2.33-1.171-2.458-1.362-2.573-1.489-2.674H-.267C.063-1.885 .267-1.286 .344-.879H-.573C-1.744-.879-2.507-.892-2.864-.917V-.191C-2.558-.217-1.871-.229-.802-.229-1.006 .178-1.209 .497-1.413 .726-1.184 .853-.98 .98-.802 1.108-.395 .598-.128 .229 0 0M1.146-5.997C1.146-6.584 1.158-7.194 1.184-7.831H.42V-7.067H-1.642V-7.831H-2.405C-2.38-7.296-2.367-6.736-2.367-6.15-2.367-5.539-2.38-4.903-2.405-4.24H1.184C1.158-4.826 1.146-5.412 1.146-5.997M.42-4.851H-1.6420001V-6.455H.42ZM5.364-4.183C5.58-4.578 5.676-4.979 5.651-5.386 5.625-5.794 5.453-6.106 5.135-6.322 4.817-6.539 4.34-6.685 3.704-6.761 3.652-6.481 3.538-6.176 3.36-5.845 3.971-5.845 4.372-5.775 4.563-5.634 4.754-5.495 4.842-5.31 4.83-5.081 4.817-4.851 4.683-4.533 4.429-4.126 4.174-3.719 3.881-3.349 3.551-3.018 3.754-2.559 4.022-1.681 4.353-.382H2.978V-7.907H2.215C2.24-7.373 2.253-6.761 2.253-6.074V-1.413C2.253-.854 2.227-.293 2.176 .267H5.384C4.976-1.057 4.632-2.114 4.353-2.903 4.811-3.362 5.148-3.788 5.364-4.183" fill="#2c292a"/>
<path transform="matrix(1,0,0,-1,93.51,289.79)" d="M0 0V3.4C-.687 3.4-1.159 3.387-1.413 3.362V4.126C-1.159 4.1-.853 4.087-.496 4.087H.764C.738 3.578 .726 3.069 .726 2.559V.115C1.005 .369 1.336 .7 1.718 1.108 1.82 .955 1.96 .738 2.138 .458 1.68 .051 1.304-.281 1.012-.535 .719-.79 .433-1.07 .153-1.375 0-1.095-.191-.854-.42-.649-.14-.471 0-.255 0 0M1.26 5.539C1.031 5.386 .827 5.22 .649 5.042 .369 5.449-.051 5.934-.611 6.494-.458 6.621-.28 6.786-.076 6.991 .229 6.736 .674 6.252 1.26 5.539M7.254 5.883C6.745 5.908 5.994 5.921 5.002 5.921V2.254H6.185C6.745 2.254 7.241 2.266 7.674 2.292V1.566C7.267 1.591 6.771 1.604 6.185 1.604H5.002V-.688C5.002-1.197 5.014-1.643 5.04-2.025H4.2C4.225-1.541 4.238-1.095 4.238-.688V1.604H2.94C2.482 1.604 2.049 1.591 1.642 1.566V2.292C2.049 2.266 2.482 2.254 2.94 2.254H4.238V5.921C3.143 5.921 2.38 5.908 1.947 5.883V6.609C2.38 6.583 2.825 6.57 3.284 6.57H5.804C6.262 6.57 6.745 6.583 7.254 6.609ZM3.513 3.132C3.207 3.03 2.953 2.916 2.749 2.789 2.494 3.629 2.215 4.303 1.909 4.813 2.163 4.89 2.392 4.991 2.596 5.119 3.029 4.278 3.334 3.616 3.513 3.132M6.453 5.195C6.732 5.119 7.038 5.017 7.369 4.89 7.318 4.838 7.178 4.571 6.949 4.087 6.72 3.603 6.516 3.157 6.338 2.75 6.083 2.878 5.842 2.966 5.613 3.018 5.994 3.833 6.274 4.558 6.453 5.195" fill="#2c292a"/>
<path transform="matrix(1,0,0,-1,94.2736,294.7942)" d="M0 0V-5.081C0-5.768 .013-6.328 .038-6.761H-.725C-.725-6.328-.713-5.768-.687-5.081V-1.222C-.993-1.783-1.273-2.229-1.527-2.559-1.655-2.382-1.871-2.203-2.176-2.025-1.642-1.439-1.184-.751-.802 .038-.42 .827-.166 1.528-.038 2.139 .292 1.986 .585 1.884 .84 1.834 .687 1.579 .407 .968 0 0M3.856 1.413C4.544 .216 5.549-.675 6.873-1.261 6.644-1.465 6.453-1.694 6.3-1.948 5.231-1.337 4.301-.42 3.513 .802 2.851-.395 1.985-1.388 .916-2.177 .789-2 .611-1.809 .382-1.604 1.323-.993 2.01-.319 2.444 .42 2.876 1.159 3.131 1.719 3.207 2.101 3.614 1.897 3.907 1.77 4.085 1.719ZM2.558-4.107C2.482-5.113 1.972-6.01 1.031-6.8 .878-6.57 .674-6.379 .42-6.227 1.361-5.565 1.864-4.769 1.928-3.839 1.991-2.91 2.01-2.177 1.985-1.643 2.316-1.694 2.583-1.719 2.787-1.719 2.711-2.305 2.635-3.101 2.558-4.107M5.193-3.132V-5.539C5.193-5.921 5.205-6.328 5.231-6.761H4.429C4.454-6.328 4.467-5.908 4.467-5.501V-2.903C4.467-2.623 4.454-2.203 4.429-1.643H5.231C5.205-2.203 5.193-2.7 5.193-3.132" fill="#2c292a"/>
<path transform="matrix(1,0,0,-1,149.1279,349.4281)" d="M0 0H-26.065C-29.939 0-33.091 3.153-33.091 7.029V127.063C-33.091 130.939-29.939 134.092-26.065 134.092H0C3.874 134.092 7.026 130.939 7.026 127.063V7.029C7.026 3.153 3.874 0 0 0M-26.065 133.073C-29.377 133.073-32.072 130.377-32.072 127.063V7.029C-32.072 3.715-29.377 1.019-26.065 1.019H0C3.312 1.019 6.007 3.715 6.007 7.029V127.063C6.007 130.377 3.312 133.073 0 133.073Z" fill="#2c292a"/>
</g>
<path transform="matrix(1,0,0,-1,0,595.276)" d="M124.683 386.518H149.577V373.224H124.683Z" fill="#ffffff"/>
<g clip-path="url(#clip_7)">
<path transform="matrix(1,0,0,-1,129.3641,212.3183)" d="M0 0C-.217-.42-.503-.974-.859-1.662-.63-1.662-.21-1.649 .401-1.623 .655-1.14 .833-.682 .935-.248 1.113-.401 1.394-.554 1.775-.707 1.546-1.038 1.285-1.446 .993-1.929 .7-2.413 .299-3.05-.21-3.839 .604-3.738 1.253-3.661 1.737-3.61V-4.259C1.406-4.285 .974-4.336 .439-4.412-.095-4.488-.605-4.591-1.088-4.718-1.114-4.463-1.203-4.196-1.355-3.915-1.076-3.814-.815-3.61-.573-3.304-.331-2.999-.095-2.617 .134-2.158-.019-2.158-.236-2.177-.515-2.216-.796-2.254-1.063-2.337-1.317-2.464-1.419-2.158-1.521-1.891-1.623-1.662-1.394-1.407-1.145-.993-.878-.42-.611 .153-.388 .77-.21 1.432 .07 1.28 .363 1.152 .668 1.051 .439 .77 .216 .42 0 0M1.661-6.055C1.151-6.131 .643-6.227 .134-6.341-.376-6.456-.847-6.602-1.279-6.78-1.355-6.551-1.457-6.271-1.585-5.94-.897-5.864-.433-5.8-.191-5.749 .051-5.698 .668-5.584 1.661-5.405ZM7.388-6.971C7.006-6.946 6.548-6.933 6.013-6.933H3.035C2.526-6.933 2.081-6.946 1.699-6.971V-6.246C2.03-6.271 2.31-6.284 2.539-6.284V-.554C2.539 .057 2.513 .49 2.463 .745H6.472C6.446 .516 6.434 .082 6.434-.554V-6.284C6.764-6.284 7.083-6.271 7.388-6.246ZM5.708 .134H3.2640002V-1.5469999H5.708ZM5.708-2.158H3.2640002V-3.724H5.708ZM5.708-4.374H3.2640002V-6.284H5.708ZM5.708-6.284" fill="#2c292a"/>
<path transform="matrix(1,0,0,-1,140.5321,214.1901)" d="M0 0C-.357-.472-.84-1.127-1.451-1.967-.509-1.891 .229-1.814 .764-1.738 .687-1.942 .636-2.184 .611-2.464 .356-2.464-.07-2.496-.668-2.559-1.267-2.623-1.82-2.719-2.329-2.846-2.457-2.54-2.558-2.26-2.635-2.005-2.355-1.878-2.081-1.662-1.814-1.356-1.546-1.051-1.286-.682-1.031-.248-1.235-.274-1.483-.3-1.775-.325-2.068-.35-2.342-.427-2.596-.554-2.673-.274-2.775-.007-2.902 .248-2.648 .426-2.342 .84-1.985 1.49-1.629 2.139-1.375 2.782-1.222 3.419-.942 3.291-.649 3.164-.344 3.037-.573 2.731-.815 2.355-1.069 1.91-1.324 1.464-1.629 .91-1.985 .248-1.782 .248-1.349 .261-.687 .286-.382 .77-.153 1.216 0 1.624 .178 1.496 .445 1.33 .802 1.127 .623 .846 .356 .471 0 0M-.649-4.45C-1.311-4.603-1.922-4.781-2.482-4.985-2.609-4.679-2.737-4.387-2.864-4.106-2.304-4.03-1.814-3.96-1.394-3.896-.974-3.833-.242-3.674 .802-3.419 .75-3.648 .712-3.903 .687-4.183 .458-4.209 .013-4.297-.649-4.45M2.024-4.068C1.616-4.552 1.184-5.01 .725-5.443 .521-5.214 .331-5.036 .153-4.909 .356-4.756 .623-4.508 .955-4.164 1.285-3.82 1.68-3.292 2.138-2.578 2.316-2.783 2.558-2.96 2.864-3.113 2.711-3.266 2.43-3.585 2.024-4.068M5.231 1.012V-.248C5.231-.809 5.243-1.305 5.269-1.738H1.336C1.361-1.305 1.375-.809 1.375-.248V1.051C1.375 1.763 1.361 2.349 1.336 2.808H5.269C5.243 2.349 5.231 1.751 5.231 1.012M4.467 2.158H2.138V-1.089H4.467ZM5.288-3.648C5.58-4.056 5.867-4.475 6.147-4.909 5.892-5.01 5.663-5.163 5.46-5.367 5.282-5.061 4.995-4.641 4.601-4.106 4.206-3.572 3.933-3.215 3.78-3.037 3.958-2.91 4.174-2.757 4.429-2.578 4.709-2.884 4.995-3.241 5.288-3.648" fill="#2c292a"/>
</g>
<path transform="matrix(1,0,0,-1,0,595.276)" d="M277.866 385.907H302.76V372.613H277.866Z" fill="#ffffff"/>
<g clip-path="url(#clip_8)">
<path transform="matrix(1,0,0,-1,283.3713,211.9578)" d="M0 0C.254 0 .547 .013 .878 .038V-.649C.547-.624 .254-.611 0-.611H-.267V-2.445C.089-2.445 .483-2.432 .916-2.407V-3.094C.458-3.069 .063-3.056-.267-3.056V-5.233C-.038-5.183 .343-5.03 .878-4.775 .878-4.979 .891-5.221 .916-5.501 .153-5.781-.427-5.985-.821-6.112-1.216-6.24-1.642-6.405-2.1-6.609-2.202-6.354-2.329-6.087-2.482-5.806-2.304-5.806-1.795-5.692-.955-5.463V-3.056C-1.388-3.056-1.795-3.082-2.176-3.132V-2.407C-1.795-2.432-1.388-2.445-.955-2.445V-.611H-1.298C-1.629-.611-1.96-.624-2.291-.649V.038C-1.96 .013-1.642 0-1.336 0ZM5.04 0C5.422 0 5.854 .013 6.338 .038V-.688C5.905-.663 5.472-.649 5.04-.649H4.314C4.085-1.465 3.933-2.025 3.856-2.33V-6.991C3.856-7.5 3.869-7.958 3.894-8.366H3.093C3.118-7.984 3.131-7.525 3.131-6.991V-3.935C2.596-4.979 1.947-5.858 1.184-6.57 1.031-6.418 .802-6.252 .496-6.074 .852-5.82 1.19-5.495 1.508-5.1 1.826-4.705 2.138-4.24 2.443-3.705 2.749-3.171 2.972-2.674 3.112-2.216 3.251-1.757 3.385-1.236 3.513-.649H2.443C2.036-.649 1.616-.663 1.184-.688V.038C1.616 .013 2.036 0 2.443 0ZM6.567-5.233C6.312-5.386 6.071-5.539 5.842-5.692 5.46-5.004 5.16-4.495 4.944-4.164 4.728-3.833 4.467-3.476 4.162-3.094 4.391-2.967 4.594-2.814 4.773-2.636 5.561-3.705 6.16-4.571 6.567-5.233" fill="#2c292a"/>
<path transform="matrix(1,0,0,-1,292.1147,218.31812)" d="M0 0C-.484-.191-.866-.376-1.145-.554-1.273-.223-1.375 .057-1.451 .286-1.222 .312-1.025 .35-.859 .401-.694 .452-.535 .503-.382 .554V3.763C-.637 3.763-.942 3.737-1.298 3.686V4.374C-.942 4.348-.637 4.336-.382 4.336V5.711C-.382 5.965-.395 6.271-.42 6.628H.305C.28 6.246 .267 5.94 .267 5.711V4.336C.471 4.336 .75 4.348 1.107 4.374V3.686C.75 3.737 .471 3.763 .267 3.763V.783C.649 .91 .993 1.037 1.298 1.165 1.323 .987 1.361 .77 1.413 .516 .955 .363 .483 .191 0 0M6.262-1.28C6.44-1.28 6.554-1.184 6.605-.993 6.656-.802 6.707-.605 6.758-.401 6.987-.605 7.254-.732 7.56-.783 7.356-1.471 7.146-1.834 6.93-1.872 6.713-1.91 6.529-1.929 6.376-1.929H5.269C4.683-1.929 4.403-1.649 4.429-1.089V.439H3.665C3.563-.223 3.277-.745 2.806-1.127 2.335-1.509 1.68-1.827 .84-2.082 .764-1.827 .623-1.572 .42-1.318 1.336-1.19 1.972-.968 2.329-.649 2.685-.331 2.902 .032 2.978 .439H1.794C1.82 .974 1.833 1.458 1.833 1.891 1.833 2.349 1.82 2.808 1.794 3.266H6.567C6.541 2.884 6.529 2.451 6.529 1.967 6.529 1.483 6.541 .974 6.567 .439H5.154V-.783C5.129-1.139 5.256-1.305 5.536-1.28ZM3.665 4.641C3.461 4.539 3.258 4.437 3.055 4.336H4.658C4.759 4.616 4.862 5.01 4.964 5.52H2.94C2.38 5.52 1.922 5.507 1.565 5.482V6.131C1.896 6.105 2.354 6.093 2.94 6.093H3.933C3.907 6.373 3.843 6.64 3.742 6.895 3.945 6.92 4.225 6.971 4.582 7.048 4.658 6.691 4.721 6.373 4.773 6.093H5.613C6.071 6.093 6.503 6.105 6.911 6.131V5.482C6.503 5.507 6.083 5.52 5.651 5.52H5.04C5.269 5.418 5.523 5.303 5.804 5.176 5.625 4.947 5.472 4.666 5.345 4.336H6.147C6.554 4.336 6.949 4.348 7.331 4.374V3.686C6.949 3.737 6.554 3.763 6.147 3.763H2.673C2.215 3.763 1.794 3.737 1.413 3.686V4.374C1.794 4.348 2.201 4.336 2.634 4.336H2.978C2.876 4.666 2.749 4.921 2.596 5.1 2.8 5.201 3.003 5.316 3.207 5.443 3.334 5.239 3.487 4.972 3.665 4.641M5.88 2.731H2.558V2.12H5.88ZM5.88 1.585H2.558V.97400006H5.88ZM5.88 .974" fill="#2c292a"/>
<path transform="matrix(1,0,0,-1,326.5895,264.4635)" d="M0 0C-.089-.229-.185-.458-.286-.688H2.081C1.953-1.604 1.781-2.382 1.565-3.018 1.349-3.655 1.082-4.215 .764-4.699 .445-5.183 .07-5.648-.363-6.093-.796-6.539-1.317-6.952-1.928-7.334-2.107-7.054-2.336-6.863-2.615-6.761-2.03-6.507-1.483-6.144-.974-5.673-.465-5.202-.095-4.75 .134-4.317-.197-3.96-.63-3.591-1.165-3.209-.987-3.056-.821-2.878-.668-2.674-.159-3.082 .235-3.4 .516-3.629 .693-3.273 .834-2.903 .935-2.521 1.037-2.139 1.126-1.745 1.203-1.337H-.515C-.668-1.668-.866-2.038-1.107-2.445-1.349-2.852-1.661-3.26-2.043-3.667-2.17-3.489-2.361-3.311-2.615-3.132-2.183-2.725-1.846-2.311-1.604-1.891-1.362-1.471-1.165-1.045-1.012-.611-.859-.178-.706 .356-.554 .993-.274 .865 .032 .764 .363 .688 .21 .458 .089 .229 0 0M3.494-.153V-6.036C3.494-6.52 3.506-7.016 3.532-7.525H2.692C2.717-7.016 2.73-6.52 2.73-6.036V-.153C2.73 .254 2.717 .662 2.692 1.07H3.532C3.506 .662 3.494 .254 3.494-.153M5.231-2.655C5.676-3.177 6.052-3.667 6.357-4.126 6.102-4.278 5.886-4.444 5.708-4.622 5.479-4.215 5.16-3.757 4.754-3.247 4.346-2.738 3.977-2.305 3.646-1.948 3.799-1.795 3.99-1.643 4.219-1.49 4.448-1.745 4.785-2.133 5.231-2.655" fill="#2c292a"/>
<path transform="matrix(1,0,0,-1,327.4105,274.0517)" d="M0 0C-.153-.076-.293-.153-.42-.229 .649-.229 1.323-.217 1.604-.191V-.917C1.425-.917 1.082-.904 .573-.879L1.222-1.184C1.043-1.465 .789-1.961 .458-2.674 1.069-2.674 1.54-2.661 1.871-2.636V-3.362C1.54-3.337 1.209-3.323 .878-3.323H-1.986C-2.444-3.323-2.825-3.337-3.131-3.362V-2.636C-2.953-2.661-2.469-2.674-1.68-2.674-1.858-2.241-2.087-1.795-2.367-1.337-2.164-1.236-1.947-1.121-1.718-.993-1.464-1.35-1.197-1.795-.916-2.33-1.171-2.458-1.362-2.573-1.489-2.674H-.267C.063-1.885 .267-1.286 .344-.879H-.573C-1.744-.879-2.507-.892-2.864-.917V-.191C-2.558-.217-1.871-.229-.802-.229-1.006 .178-1.209 .497-1.413 .726-1.184 .853-.98 .98-.802 1.108-.395 .598-.128 .229 0 0M1.145-5.997C1.145-6.584 1.158-7.194 1.184-7.831H.42V-7.067H-1.642V-7.831H-2.405C-2.38-7.296-2.367-6.736-2.367-6.15-2.367-5.539-2.38-4.903-2.405-4.24H1.184C1.158-4.826 1.145-5.412 1.145-5.997M.42-4.851H-1.6420001V-6.455H.42ZM5.364-4.183C5.58-4.578 5.676-4.979 5.651-5.386 5.625-5.794 5.453-6.106 5.135-6.322 4.817-6.539 4.339-6.685 3.703-6.761 3.652-6.481 3.538-6.176 3.36-5.845 3.971-5.845 4.372-5.775 4.563-5.634 4.754-5.495 4.842-5.31 4.83-5.081 4.817-4.851 4.683-4.533 4.429-4.126 4.174-3.719 3.881-3.349 3.551-3.018 3.754-2.559 4.021-1.681 4.353-.382H2.978V-7.907H2.214C2.239-7.373 2.253-6.761 2.253-6.074V-1.413C2.253-.854 2.227-.293 2.176 .267H5.384C4.976-1.057 4.632-2.114 4.353-2.903 4.811-3.362 5.148-3.788 5.364-4.183" fill="#2c292a"/>
<path transform="matrix(1,0,0,-1,325.425,289.79)" d="M0 0V3.4C-.687 3.4-1.159 3.387-1.413 3.362V4.126C-1.159 4.1-.853 4.087-.496 4.087H.764C.738 3.578 .725 3.069 .725 2.559V.115C1.005 .369 1.336 .7 1.718 1.108 1.82 .955 1.96 .738 2.138 .458 1.68 .051 1.304-.281 1.012-.535 .719-.79 .433-1.07 .153-1.375 0-1.095-.191-.854-.42-.649-.14-.471 0-.255 0 0M1.26 5.539C1.031 5.386 .827 5.22 .649 5.042 .369 5.449-.051 5.934-.611 6.494-.458 6.621-.28 6.786-.076 6.991 .229 6.736 .674 6.252 1.26 5.539M7.254 5.883C6.745 5.908 5.994 5.921 5.002 5.921V2.254H6.185C6.745 2.254 7.241 2.266 7.674 2.292V1.566C7.267 1.591 6.771 1.604 6.185 1.604H5.002V-.688C5.002-1.197 5.014-1.643 5.04-2.025H4.2C4.225-1.541 4.238-1.095 4.238-.688V1.604H2.94C2.482 1.604 2.049 1.591 1.642 1.566V2.292C2.049 2.266 2.482 2.254 2.94 2.254H4.238V5.921C3.143 5.921 2.38 5.908 1.947 5.883V6.609C2.38 6.583 2.825 6.57 3.284 6.57H5.804C6.262 6.57 6.745 6.583 7.254 6.609ZM3.513 3.132C3.207 3.03 2.952 2.916 2.749 2.789 2.494 3.629 2.215 4.303 1.909 4.813 2.163 4.89 2.392 4.991 2.596 5.119 3.029 4.278 3.334 3.616 3.513 3.132M6.453 5.195C6.732 5.119 7.038 5.017 7.369 4.89 7.318 4.838 7.178 4.571 6.949 4.087 6.72 3.603 6.516 3.157 6.338 2.75 6.083 2.878 5.842 2.966 5.613 3.018 5.994 3.833 6.274 4.558 6.453 5.195" fill="#2c292a"/>
<path transform="matrix(1,0,0,-1,326.1887,294.7942)" d="M0 0V-5.081C0-5.768 .013-6.328 .038-6.761H-.725C-.725-6.328-.713-5.768-.687-5.081V-1.222C-.993-1.783-1.273-2.229-1.527-2.559-1.655-2.382-1.871-2.203-2.176-2.025-1.642-1.439-1.184-.751-.802 .038-.42 .827-.166 1.528-.038 2.139 .292 1.986 .585 1.884 .84 1.834 .687 1.579 .407 .968 0 0M3.856 1.413C4.544 .216 5.549-.675 6.873-1.261 6.643-1.465 6.453-1.694 6.3-1.948 5.231-1.337 4.301-.42 3.513 .802 2.85-.395 1.985-1.388 .916-2.177 .789-2 .611-1.809 .382-1.604 1.323-.993 2.01-.319 2.444 .42 2.876 1.159 3.131 1.719 3.207 2.101 3.614 1.897 3.907 1.77 4.085 1.719ZM2.558-4.107C2.482-5.113 1.972-6.01 1.031-6.8 .878-6.57 .674-6.379 .42-6.227 1.361-5.565 1.864-4.769 1.928-3.839 1.991-2.91 2.01-2.177 1.985-1.643 2.316-1.694 2.583-1.719 2.787-1.719 2.711-2.305 2.634-3.101 2.558-4.107M5.193-3.132V-5.539C5.193-5.921 5.205-6.328 5.231-6.761H4.429C4.454-6.328 4.467-5.908 4.467-5.501V-2.903C4.467-2.623 4.454-2.203 4.429-1.643H5.231C5.205-2.203 5.193-2.7 5.193-3.132" fill="#2c292a"/>
</g>
<path transform="matrix(1,0,0,-1,0,595.276)" d="M193.104 403.937H235.867V391.56H193.104Z" fill="#ffffff"/>
<g clip-path="url(#clip_9)">
<path transform="matrix(1,0,0,-1,200.2246,195.33069)" d="M0 0C-.07-.188-.206-.47-.405-.845-.604-1.221-.81-1.562-1.021-1.866V-5.036C-1.021-5.411-1.009-5.763-.986-6.092H-1.725C-1.702-5.763-1.69-5.411-1.69-5.036V-2.676C-1.807-2.817-1.966-2.976-2.165-3.152-2.364-3.328-2.605-3.545-2.886-3.803-3.004-3.616-3.145-3.393-3.309-3.134-2.722-2.759-2.259-2.354-1.918-1.919-1.578-1.485-1.291-1.045-1.056-.599H-2.077C-2.523-.599-2.886-.611-3.168-.634V.07C-2.886 .023-2.523 0-2.077 0ZM-.634 .916C-.915 .868-1.174 .798-1.408 .704-1.455 1.103-1.584 1.514-1.795 1.937-1.537 2.007-1.291 2.078-1.056 2.148-.892 1.702-.751 1.291-.634 .916M.528-3.029C.317-3.146 .106-3.299-.106-3.486-.27-3.087-.54-2.653-.915-2.183-.774-2.113-.587-1.984-.352-1.796 .047-2.289 .34-2.7 .528-3.029M2.112 1.233C2.112 1.678 2.1 2.007 2.077 2.219H2.886C2.839 1.984 2.816 1.667 2.816 1.268V-.528C3.543-.528 4.118-.517 4.541-.493V-1.197C4.141-1.174 3.567-1.162 2.816-1.162V-4.789H3.977C4.376-4.789 4.728-4.778 5.033-4.754V-5.423C4.728-5.4 4.388-5.388 4.013-5.388H1.126C.657-5.388 .246-5.4-.106-5.423V-4.754C.27-4.778 .68-4.789 1.126-4.789H2.112V-1.162C1.29-1.162 .716-1.174 .387-1.197V-.493C.716-.517 1.29-.528 2.112-.528Z" fill="#2c292a"/>
<path transform="matrix(1,0,0,-1,214.1885,196.38712)" d="M0 0C-.211-.188-.376-.399-.493-.634-2.089 .094-3.297 1.033-4.118 2.183-5.221 .939-6.43-.059-7.744-.81-7.978-.481-8.178-.282-8.342-.211-7.474 .094-6.647 .599-5.86 1.303-5.075 2.007-4.541 2.653-4.259 3.24-4.048 3.099-3.801 2.97-3.52 2.852L-3.731 2.641C-2.91 1.467-1.666 .587 0 0M-6.054-4.05C-4.505-4.003-3.309-3.956-2.464-3.909-2.675-3.674-2.992-3.369-3.414-2.993-3.25-2.852-3.086-2.7-2.921-2.536-2.593-2.841-2.276-3.14-1.971-3.434-1.666-3.727-1.314-4.085-.915-4.508-1.079-4.648-1.279-4.825-1.514-5.036-1.725-4.73-1.901-4.519-2.041-4.402-2.582-4.425-3.455-4.472-4.664-4.543-5.873-4.613-6.652-4.695-7.004-4.789-7.122-4.484-7.216-4.249-7.286-4.085-6.911-3.968-6.465-3.668-5.949-3.187-5.433-2.706-5.068-2.313-4.857-2.007H-5.878C-6.512-2.007-7.098-2.019-7.638-2.043V-1.444C-7.075-1.467-6.5-1.479-5.913-1.479H-2.393C-1.807-1.479-1.232-1.467-.669-1.444V-2.043C-1.232-2.019-1.854-2.007-2.534-2.007H-4.646C-4.459-2.195-4.283-2.336-4.118-2.43-4.283-2.548-4.928-3.087-6.054-4.05M-3.485 .141C-2.969 .141-2.546 .152-2.217 .176V-.458C-2.569-.435-2.992-.423-3.485-.423H-4.998C-5.444-.423-5.82-.435-6.124-.458V.176C-5.82 .152-5.456 .141-5.033 .141Z" fill="#2c292a"/>
<path transform="matrix(1,0,0,-1,222.6262,195.43631)" d="M0 0V-3.874C0-4.484 .012-5.141 .035-5.846H-.669V-5.212H-6.476V-5.916H-7.18C-7.157-5.259-7.145-4.578-7.145-3.874V0C-7.145 .634-7.157 1.268-7.18 1.902H.035C.012 1.315 0 .681 0 0M-.669 1.338H-6.477V-4.613H-.669ZM-3.907-.352C-3.907 .234-3.919 .669-3.942 .951-3.684 .927-3.414 .916-3.133 .916-3.203 .657-3.238 .423-3.238 .211V-.352H-2.429C-2.054-.352-1.619-.341-1.126-.317V-.986C-1.619-.963-2.054-.951-2.429-.951H-3.273C-3.297-1.115-3.344-1.35-3.414-1.655-3.133-1.82-2.828-2.031-2.499-2.289-2.171-2.548-1.737-2.9-1.197-3.345-1.385-3.51-1.584-3.71-1.795-3.944-2.03-3.662-2.318-3.358-2.657-3.029-2.998-2.7-3.309-2.43-3.59-2.219-3.755-2.524-3.99-2.829-4.294-3.134-4.599-3.44-4.975-3.757-5.421-4.085-5.561-3.874-5.761-3.698-6.019-3.557-5.339-3.252-4.84-2.876-4.523-2.43-4.206-1.984-4.025-1.491-3.977-.951H-4.611C-5.033-.951-5.479-.963-5.948-.986V-.317C-5.479-.341-5.045-.352-4.646-.352Z" fill="#2c292a"/>
<path transform="matrix(1,0,0,-1,227.6496,193.9573)" d="M0 0C0 .117-.012 .34-.035 .669H.704C.68 .387 .669 .164 .669 0H2.534C2.909 0 3.285 .012 3.661 .035V-.599C3.285-.576 2.922-.563 2.57-.563H.669V-1.162H2.077C2.405-1.162 2.781-1.151 3.203-1.127V-1.69C2.804-1.667 2.429-1.655 2.077-1.655H.669V-2.219H3.097C3.426-2.219 3.801-2.207 4.224-2.183V-2.782C3.801-2.759 3.426-2.747 3.097-2.747H.352C.094-2.958-.246-3.193-.669-3.451-.059-3.428 .54-3.404 1.126-3.381 1.384-3.287 1.69-3.099 2.042-2.817 2.299-3.005 2.534-3.169 2.745-3.31 2.346-3.451 1.901-3.651 1.408-3.909L-.176-4.684C.669-4.637 1.607-4.578 2.64-4.508 2.522-4.344 2.393-4.214 2.253-4.12 2.44-4.027 2.616-3.909 2.781-3.768 3.344-4.332 3.754-4.754 4.013-5.036 3.801-5.177 3.59-5.33 3.379-5.494 3.238-5.259 3.121-5.095 3.027-5.001 2.018-5.048 1.29-5.095 .845-5.141V-6.48C.868-6.832 .774-7.049 .563-7.131 .352-7.213 .035-7.29-.387-7.36-.458-7.149-.575-6.902-.739-6.621-.434-6.621-.206-6.608-.053-6.585 .1-6.562 .176-6.457 .176-6.268V-5.177C-.153-5.2-.628-5.242-1.25-5.3-1.872-5.359-2.3-5.412-2.534-5.458-2.581-5.224-2.652-5.013-2.745-4.825-2.393-4.801-2.059-4.754-1.742-4.684-1.426-4.613-1.115-4.525-.81-4.42-.505-4.314-.153-4.144 .246-3.909-.364-3.933-.804-3.956-1.073-3.979-1.344-4.003-1.654-4.038-2.006-4.085-2.054-3.803-2.124-3.58-2.217-3.416-1.866-3.416-1.566-3.358-1.32-3.24-1.073-3.123-.833-2.958-.598-2.747H-2.358C-2.734-2.747-3.133-2.759-3.555-2.782V-2.183C-3.133-2.207-2.745-2.219-2.393-2.219H0V-1.655H-1.373C-1.702-1.655-2.065-1.667-2.464-1.69V-1.127C-2.065-1.151-1.713-1.162-1.408-1.162H0V-.563H-1.725C-2.077-.563-2.464-.576-2.886-.599V.035C-2.464 .012-2.077 0-1.725 0ZM-1.813-6.48C-2.177-6.691-2.581-6.902-3.027-7.114-3.121-6.902-3.285-6.703-3.52-6.515-3.097-6.398-2.687-6.239-2.288-6.039-1.889-5.84-1.561-5.647-1.302-5.458-1.138-5.67-.974-5.846-.81-5.987-1.115-6.104-1.449-6.268-1.813-6.48M4.118-6.409C3.954-6.621 3.825-6.843 3.731-7.078 3.027-6.656 2.346-6.316 1.69-6.057 1.83-5.893 1.936-5.705 2.006-5.494 2.663-5.752 3.367-6.057 4.118-6.409" fill="#2c292a"/>
</g>
<path transform="matrix(1,0,0,-1,111.0492,285.7392)" d="M0 0V1.528 3.056L3.054 1.528ZM-6.906 2.037H.76399996V1.0179999H-6.906Z" fill="#2c292a"/>
<path transform="matrix(1,0,0,-1,314.3803,285.7392)" d="M0 0V1.528 3.056L-3.054 1.528ZM6.906 2.037H-.76399996V1.0179999H6.906Z" fill="#2c292a"/>
<path transform="matrix(1,0,0,-1,213.2279,210.5918)" d="M0 0H1.527 3.055L1.527-3.056ZM2.036-.764H1.018V6.91H2.036Z" fill="#2c292a"/>
<g clip-path="url(#clip_10)">
<path transform="matrix(1,0,0,-1,191.1306,254.80609)" d="M0 0H.917C.917 .527 .906 .938 .885 1.234H1.613C1.591 .959 1.581 .548 1.581 0H2.055C2.477 0 2.856 .01 3.193 .032V-.538C2.898-.517 2.529-.506 2.087-.506H1.581V-1.424H2.371C2.688-1.424 3.025-1.413 3.383-1.392V-1.93H1.581V-2.784H3.288C3.267-3.037 3.251-3.385 3.241-3.828 3.23-4.271 3.22-4.571 3.209-4.729 3.198-4.888 3.109-5.004 2.941-5.077 2.772-5.151 2.529-5.22 2.213-5.283 2.171-5.051 2.097-4.808 1.992-4.555 2.266-4.555 2.435-4.54 2.498-4.508 2.561-4.476 2.593-4.313 2.593-4.018V-3.29H1.581V-5.03C1.581-5.388 1.591-5.694 1.613-5.947H.885C.906-5.546 .917-5.241 .917-5.03V-3.29H-.063V-5.283H-.727C-.706-5.009-.696-4.724-.696-4.429V-3.733C-.696-3.333-.706-3.016-.727-2.784H.917V-1.93H-.095C-.474-1.93-.801-1.941-1.075-1.961V-1.392C-.801-1.413-.474-1.424-.095-1.424H.917V-.506H-.19C-.295-.759-.401-.97-.506-1.139-.696-1.012-.885-.907-1.075-.823-.928-.612-.801-.369-.696-.095-.59 .179-.496 .485-.411 .822-.201 .738 .042 .664 .316 .601 .19 .39 .084 .19 0 0M4.521-.569V-3.195C4.521-3.491 4.532-3.849 4.553-4.271H3.858C3.899-3.912 3.921-3.554 3.921-3.195V-.569C3.921-.359 3.899-.095 3.858 .221H4.553C4.532-.074 4.521-.338 4.521-.569M6.039 .253V-5.22C6.039-5.515 5.928-5.699 5.707-5.773 5.486-5.847 5.164-5.916 4.743-5.979 4.68-5.705 4.595-5.462 4.49-5.251 4.848-5.251 5.091-5.241 5.217-5.22 5.344-5.199 5.407-5.061 5.407-4.808V.253C5.407 .611 5.396 .917 5.375 1.17H6.071C6.05 .959 6.039 .653 6.039 .253" fill="#2c292a"/>
<path transform="matrix(1,0,0,-1,203.226,256.1031)" d="M0 0C.4 0 .811 .01 1.233 .032V-.569C.854-.549 .4-.538-.126-.538H-.822V-1.803H.506C.738-1.803 1.064-1.793 1.486-1.772V-2.373C1.064-2.352 .727-2.341 .474-2.341H-.822V-3.828C.063-3.934 1.117-3.923 2.34-3.796 2.171-4.07 2.066-4.323 2.024-4.555 1.18-4.555 .485-4.544-.063-4.524-.612-4.502-1.075-4.439-1.454-4.334-1.834-4.228-2.171-4.07-2.466-3.859-2.762-3.649-3.035-3.396-3.288-3.1-3.626-3.712-4.016-4.239-4.458-4.682-4.648-4.492-4.859-4.355-5.091-4.271-4.501-3.807-4.068-3.258-3.794-2.626-3.521-1.993-3.373-1.508-3.352-1.17-3.141-1.297-2.888-1.392-2.593-1.455-2.656-1.54-2.725-1.672-2.798-1.851-2.872-2.03-2.962-2.257-3.067-2.531-2.92-2.721-2.698-2.937-2.403-3.179-2.108-3.422-1.792-3.596-1.454-3.701V-.538H-2.466C-2.825-.538-3.183-.549-3.541-.569V.032C-3.183 .01-2.762 0-2.277 0ZM1.929 .791C1.929 .643 1.939 .443 1.96 .19H1.296V.949H-3.763V.19H-4.427C-4.406 .358-4.395 .548-4.395 .759-4.395 .97-4.406 1.202-4.427 1.455H1.96C1.939 1.16 1.929 .938 1.929 .791M-1.391 2.752C-1.16 2.478-.949 2.161-.759 1.803-1.054 1.677-1.265 1.571-1.391 1.487-1.434 1.677-1.623 1.993-1.96 2.436-1.771 2.499-1.581 2.604-1.391 2.752" fill="#2c292a"/>
<path transform="matrix(1,0,0,-1,206.3731,257.0838)" d="M0 0C.527 .042 1.101 .127 1.723 .253 2.345 .38 2.846 .548 3.225 .759 2.74 1.16 2.34 1.518 2.024 1.835 1.771 1.582 1.475 1.307 1.138 1.012 .949 1.181 .78 1.297 .632 1.36 1.454 1.993 2.097 2.784 2.561 3.733 2.772 3.606 2.993 3.501 3.225 3.417L2.972 3.163C2.909 3.1 2.803 2.974 2.656 2.784H6.166C5.976 2.425 5.728 2.072 5.423 1.724 5.117 1.376 4.753 1.044 4.332 .728 4.669 .559 5.159 .422 5.802 .316 6.445 .211 7.008 .179 7.494 .221 7.367 .01 7.272-.211 7.209-.443 6.45-.359 5.818-.269 5.312-.174 4.806-.079 4.289 .105 3.763 .38 3.172 .105 2.556-.106 1.913-.253 1.27-.401 .748-.517 .348-.601 .305-.411 .19-.211 0 0M6.102-2.088C6.102-2.805 6.113-3.364 6.134-3.764H5.533V-3.353H1.96V-3.764H1.36C1.38-3.364 1.391-2.805 1.391-2.088 1.391-1.35 1.38-.791 1.36-.411H6.134C6.113-.791 6.102-1.35 6.102-2.088M3.446-.886H1.9600002V-1.645H3.446ZM3.446-2.119H1.9600002V-2.847H3.446ZM3.826 1.044C4.269 1.318 4.732 1.75 5.217 2.341H2.435L2.34 2.246C2.782 1.824 3.277 1.424 3.826 1.044M5.533-.886H4.015V-1.645H5.533ZM5.533-2.119H4.015V-2.847H5.533ZM5.533-2.847" fill="#2c292a"/>
<path transform="matrix(1,0,0,-1,216.2867,257.6216)" d="M0 0V-1.708C.548-2.151 1.423-2.394 2.624-2.436 3.826-2.478 4.838-2.425 5.66-2.278 5.554-2.383 5.449-2.626 5.344-3.005 4.036-3.026 3.093-3.016 2.514-2.974 1.934-2.931 1.444-2.852 1.043-2.736 .643-2.62 .327-2.488 .095-2.341-.137-2.194-.337-2.209-.506-2.388-.675-2.567-.865-2.794-1.075-3.069-1.223-2.899-1.413-2.763-1.644-2.657-1.413-2.404-1.065-2.109-.601-1.772V.696C-.917 .696-1.254 .685-1.613 .664V1.234C-1.212 1.212-.664 1.202 .032 1.202 .01 .759 0 .358 0 0M.127 2.278C-.063 2.214-.253 2.14-.443 2.056-.527 2.309-.738 2.784-1.075 3.48-.885 3.543-.675 3.617-.443 3.701-.169 3.069 .021 2.594 .127 2.278M1.581 2.91H2.624C2.624 3.332 2.614 3.733 2.593 4.112H3.32C3.277 3.817 3.257 3.417 3.257 2.91 3.994 2.931 4.521 2.942 4.838 2.942V2.404C4.479 2.425 3.952 2.436 3.257 2.436V1.329H4.332C4.648 1.329 4.964 1.339 5.28 1.36V.791C4.964 .812 4.479 .822 3.826 .822V-.917C3.826-1.128 3.941-1.234 4.174-1.234H4.553C4.7-1.15 4.785-.907 4.806-.506 5.017-.633 5.238-.717 5.47-.759 5.344-1.476 5.122-1.835 4.806-1.835H3.952C3.467-1.835 3.225-1.613 3.225-1.17V.822H2.593C2.593 .19 2.477-.348 2.245-.791 2.013-1.234 1.697-1.645 1.296-2.025 1.149-1.877 .938-1.761 .664-1.677 1.191-1.297 1.544-.923 1.723-.554 1.902-.185 1.992 .274 1.992 .822 1.36 .822 .885 .812 .569 .791V1.392C.906 1.349 1.202 1.329 1.454 1.329H2.624V2.436H1.423C1.317 2.183 1.233 1.94 1.17 1.708 .938 1.792 .727 1.866 .537 1.93 .854 2.478 1.085 3.132 1.233 3.891 1.444 3.828 1.686 3.764 1.96 3.701 1.813 3.469 1.686 3.205 1.581 2.91" fill="#2c292a"/>
<path transform="matrix(1,0,0,-1,224.3664,255.0592)" d="M0 0C.759 0 1.317 .021 1.676 .063V-.538C1.317-.517 .769-.506 .032-.506V-1.803H1.328C1.307-2.267 1.296-2.763 1.296-3.29 1.296-3.796 1.307-4.355 1.328-4.967H.696V-4.46H-.917V-5.061H-1.549C-1.529-4.513-1.518-3.965-1.518-3.417-1.518-2.847-1.529-2.309-1.549-1.803H-.601C-.601-.074-.612 1.044-.632 1.55H.032C.01 1.065 0 .548 0 0M.727-2.309H-.91700008V-3.922H.727ZM4.506-2.673C4.305-3.064 4.058-3.469 3.763-3.891 4.121-4.503 4.416-4.851 4.648-4.935 4.88-5.019 5.069-4.735 5.217-4.081 5.386-4.271 5.586-4.44 5.818-4.587 5.522-5.24 5.19-5.594 4.822-5.647 4.453-5.699 3.963-5.262 3.352-4.334 3.099-4.608 2.84-4.851 2.577-5.061 2.313-5.272 1.981-5.515 1.581-5.789 1.455-5.62 1.296-5.451 1.107-5.283 1.36-5.177 1.686-4.977 2.087-4.682 2.487-4.387 2.814-4.081 3.067-3.764 2.961-3.554 2.846-3.201 2.719-2.705 2.593-2.209 2.508-1.761 2.466-1.36 2.087-1.424 1.718-1.498 1.36-1.582 1.317-1.371 1.275-1.181 1.233-1.012 1.549-.97 1.939-.907 2.403-.822 2.361 .084 2.319 .896 2.277 1.613 2.53 1.592 2.761 1.582 2.972 1.582 2.93 .97 2.93 .2 2.972-.728 3.436-.664 4.216-.517 5.312-.285 5.312-.475 5.333-.664 5.375-.854 4.89-.939 4.111-1.076 3.035-1.265 3.141-2.109 3.288-2.773 3.478-3.258 3.689-2.963 3.847-2.679 3.952-2.404 4.058-2.13 4.163-1.835 4.269-1.518 4.521-1.666 4.753-1.772 4.964-1.835 4.858-2.004 4.706-2.283 4.506-2.673M4.838 .348C4.648 .221 4.469 .074 4.3-.095 4.174 .116 3.921 .443 3.541 .886 3.71 .991 3.878 1.107 4.047 1.234 4.447 .77 4.711 .475 4.838 .348" fill="#2c292a"/>
<path transform="matrix(1,0,0,-1,233.8058,255.6286)" d="M0 0V-2.847C0-3.206 .01-3.638 .032-4.144H-.537V-3.733H-2.213V-4.334H-2.814C-2.772-3.997-2.751-3.617-2.751-3.195V0C-2.751 .485-2.772 .917-2.814 1.297H.032C.01 .812 0 .38 0 0M-1.644 .823H-2.213V-.917H-1.644ZM-1.644-1.424H-2.213V-3.227H-1.644ZM-.537 .823H-1.106V-.917H-.537ZM-.537-1.424H-1.106V-3.227H-.537ZM1.676 1.297H3.794C3.668 .896 3.494 .495 3.273 .095 3.051-.306 2.803-.654 2.53-.949 2.761-1.16 3.051-1.324 3.399-1.439 3.747-1.556 4.079-1.635 4.395-1.677 4.226-1.909 4.11-2.12 4.047-2.309 3.752-2.246 3.425-2.135 3.067-1.977 2.708-1.819 2.392-1.613 2.118-1.36 1.95-1.487 1.728-1.645 1.454-1.835 1.18-2.025 .832-2.214 .411-2.404 .327-2.194 .21-2.004 .063-1.835 .379-1.729 .659-1.619 .901-1.503 1.143-1.387 1.433-1.192 1.771-.917 1.644-.749 1.528-.569 1.423-.38 1.317-.19 1.222-.011 1.138 .158 1.012-.074 .832-.359 .601-.696 .516-.569 .337-.443 .063-.316 .358 0 .617 .395 .838 .87 1.059 1.344 1.212 1.792 1.296 2.214 1.528 2.109 1.781 2.014 2.055 1.93 1.929 1.803 1.802 1.592 1.676 1.297M3.605-3.1V-4.334C3.605-4.608 3.615-4.903 3.636-5.22H3.035V-4.619H1.391V-5.251H.79C.811-4.892 .822-4.566 .822-4.271V-3.132C.822-2.815 .811-2.52 .79-2.246H3.636C3.615-2.499 3.605-2.784 3.605-3.1M3.035-2.752H1.391V-4.0810005H3.035ZM3.004 .823H1.454C1.623 .295 1.866-.158 2.182-.538 2.498-.179 2.772 .274 3.004 .823" fill="#2c292a"/>
<path transform="matrix(1,0,0,-1,187.7299,294.0051)" d="M0 0C.759 0 1.317 .021 1.676 .063V-.538C1.317-.517 .769-.506 .032-.506V-1.803H1.328C1.307-2.267 1.296-2.763 1.296-3.29 1.296-3.796 1.307-4.355 1.328-4.967H.696V-4.46H-.917V-5.061H-1.549C-1.529-4.513-1.518-3.965-1.518-3.417-1.518-2.847-1.529-2.309-1.549-1.803H-.601C-.601-.074-.612 1.044-.632 1.55H.032C.01 1.065 0 .548 0 0M.727-2.309H-.91700008V-3.922H.727ZM4.506-2.673C4.305-3.064 4.058-3.469 3.763-3.891 4.121-4.503 4.416-4.851 4.648-4.935 4.88-5.019 5.069-4.735 5.217-4.081 5.386-4.271 5.586-4.44 5.818-4.587 5.522-5.24 5.19-5.594 4.822-5.647 4.453-5.699 3.963-5.262 3.352-4.334 3.099-4.608 2.84-4.851 2.577-5.061 2.313-5.272 1.981-5.515 1.581-5.789 1.454-5.62 1.296-5.452 1.107-5.283 1.36-5.177 1.686-4.977 2.087-4.682 2.487-4.387 2.814-4.081 3.067-3.764 2.961-3.554 2.846-3.2 2.719-2.705 2.593-2.209 2.508-1.761 2.466-1.36 2.087-1.424 1.718-1.498 1.36-1.582 1.317-1.371 1.275-1.181 1.233-1.012 1.549-.97 1.939-.907 2.403-.823 2.36 .084 2.318 .896 2.277 1.613 2.529 1.592 2.761 1.582 2.972 1.582 2.93 .97 2.93 .2 2.972-.728 3.436-.664 4.216-.517 5.312-.285 5.312-.475 5.333-.664 5.375-.854 4.89-.939 4.11-1.076 3.035-1.265 3.141-2.109 3.288-2.773 3.478-3.258 3.689-2.963 3.847-2.678 3.952-2.404 4.058-2.13 4.163-1.835 4.268-1.518 4.521-1.666 4.753-1.772 4.964-1.835 4.858-2.004 4.706-2.283 4.506-2.673M4.838 .348C4.648 .221 4.469 .074 4.3-.095 4.174 .116 3.921 .443 3.541 .886 3.71 .991 3.878 1.107 4.047 1.234 4.447 .77 4.711 .474 4.838 .348" fill="#2c292a"/>
<path transform="matrix(1,0,0,-1,197.1693,294.57463)" d="M0 0V-2.847C0-3.206 .01-3.638 .032-4.144H-.537V-3.733H-2.213V-4.334H-2.814C-2.772-3.997-2.751-3.617-2.751-3.195V0C-2.751 .485-2.772 .917-2.814 1.297H.032C.01 .812 0 .38 0 0M-1.644 .822H-2.213V-.918H-1.644ZM-1.644-1.424H-2.213V-3.227H-1.644ZM-.537 .822H-1.106V-.918H-.537ZM-.537-1.424H-1.106V-3.227H-.537ZM1.676 1.297H3.794C3.668 .896 3.494 .495 3.272 .095 3.051-.306 2.803-.654 2.529-.949 2.761-1.16 3.051-1.324 3.399-1.439 3.747-1.555 4.079-1.635 4.395-1.677 4.226-1.909 4.11-2.12 4.047-2.309 3.752-2.246 3.425-2.135 3.067-1.977 2.708-1.819 2.392-1.613 2.118-1.36 1.949-1.487 1.728-1.645 1.454-1.835 1.18-2.025 .832-2.214 .411-2.404 .327-2.194 .21-2.004 .063-1.835 .379-1.729 .659-1.619 .901-1.503 1.143-1.387 1.433-1.192 1.771-.917 1.644-.749 1.528-.569 1.423-.38 1.317-.19 1.222-.011 1.138 .158 1.012-.074 .832-.359 .601-.696 .516-.569 .337-.443 .063-.316 .358 0 .617 .395 .838 .87 1.059 1.344 1.212 1.792 1.296 2.214 1.528 2.109 1.781 2.014 2.055 1.93 1.929 1.803 1.802 1.592 1.676 1.297M3.605-3.1V-4.334C3.605-4.608 3.615-4.903 3.636-5.22H3.035V-4.619H1.391V-5.251H.79C.811-4.892 .822-4.566 .822-4.271V-3.132C.822-2.815 .811-2.52 .79-2.246H3.636C3.615-2.499 3.605-2.784 3.605-3.1M3.035-2.752H1.391V-4.0810005H3.035ZM3.004 .822H1.454C1.623 .295 1.866-.158 2.182-.538 2.498-.179 2.772 .274 3.004 .822" fill="#2c292a"/>
<path transform="matrix(1,0,0,-1,203.4466,298.1808)" d="M0 0V2.815C-.569 2.815-.959 2.805-1.17 2.784V3.416C-.959 3.395-.706 3.385-.411 3.385H.632C.611 2.963 .601 2.541 .601 2.119V.095C.832 .305 1.107 .58 1.423 .917 1.507 .791 1.623 .611 1.771 .38 1.391 .042 1.08-.232 .838-.443 .595-.654 .358-.886 .127-1.139 0-.907-.158-.707-.348-.538-.116-.391 0-.211 0 0M1.043 4.587C.854 4.46 .685 4.323 .538 4.176 .305 4.513-.042 4.914-.506 5.378-.379 5.483-.232 5.62-.063 5.789 .19 5.578 .558 5.177 1.043 4.587M6.008 4.872C5.586 4.892 4.964 4.903 4.142 4.903V1.866H5.122C5.586 1.866 5.997 1.877 6.355 1.898V1.297C6.018 1.318 5.607 1.329 5.122 1.329H4.142V-.569C4.142-.991 4.152-1.36 4.174-1.677H3.478C3.499-1.276 3.51-.907 3.51-.569V1.329H2.435C2.055 1.329 1.697 1.318 1.36 1.297V1.898C1.697 1.877 2.055 1.866 2.435 1.866H3.51V4.903C2.603 4.903 1.971 4.892 1.613 4.872V5.473C1.971 5.452 2.34 5.441 2.719 5.441H4.806C5.185 5.441 5.586 5.452 6.008 5.473ZM2.909 2.594C2.656 2.51 2.445 2.415 2.277 2.309 2.066 3.005 1.834 3.564 1.581 3.986 1.791 4.049 1.981 4.133 2.15 4.239 2.508 3.543 2.761 2.994 2.909 2.594M5.344 4.302C5.575 4.239 5.828 4.155 6.102 4.049 6.06 4.007 5.944 3.785 5.755 3.385 5.565 2.984 5.396 2.615 5.249 2.278 5.038 2.383 4.838 2.457 4.648 2.499 4.964 3.174 5.196 3.775 5.344 4.302" fill="#2c292a"/>
<path transform="matrix(1,0,0,-1,212.1904,294.3215)" d="M0 0V-3.828C0-4.482 .01-4.987 .032-5.346H-.664C-.622-4.967-.601-4.471-.601-3.859V-.981C-.896-1.466-1.17-1.866-1.423-2.183-1.486-2.036-1.613-1.846-1.802-1.613-1.549-1.318-1.238-.844-.869-.19-.501 .464-.232 1.139-.063 1.835 .105 1.75 .369 1.645 .727 1.518 .538 1.307 .295 .801 0 0M2.625 .127V.854C2.625 1.128 2.603 1.424 2.561 1.74H3.32C3.278 1.424 3.257 1.139 3.257 .886V.127H4.427C4.827 .127 5.196 .137 5.533 .158V-.443C5.238-.422 4.869-.411 4.427-.411H3.257V-1.866H4.901C4.88-2.457 4.869-3.048 4.869-3.638 4.869-4.207 4.88-4.745 4.901-5.251H4.269V-4.65H1.644V-5.315H1.012C1.033-4.745 1.043-4.176 1.043-3.606 1.043-3.037 1.033-2.457 1.012-1.866H2.625V-.411H1.676C1.233-.411 .843-.422 .506-.443V.158C.843 .137 1.222 .127 1.644 .127ZM4.269-2.404H1.645V-4.112H4.269ZM4.269-4.112" fill="#2c292a"/>
<path transform="matrix(1,0,0,-1,222.9261,297.2951)" d="M0 0C.379 0 .727 .01 1.043 .032V-.601C.727-.58 .453-.569 .221-.569H-2.814C-3.194-.569-3.594-.58-4.016-.601V.032C-3.594 .01-3.194 0-2.814 0ZM2.118-1.582C2.055-1.919 1.876-2.14 1.581-2.246 1.286-2.351 .854-2.425 .285-2.467 .263-2.278 .158-2.035-.032-1.74 .579-1.761 .969-1.75 1.138-1.708 1.307-1.666 1.417-1.571 1.47-1.424 1.523-1.276 1.633-.38 1.802 1.265H-3.225C-2.951 2.952-2.804 4.155-2.782 4.872-2.509 4.829-2.256 4.797-2.024 4.777-2.108 4.524-2.182 4.165-2.245 3.701H1.549C1.971 3.701 2.35 3.712 2.688 3.733V3.132C2.35 3.153 1.992 3.163 1.612 3.163H-2.308L-2.498 1.772H2.529C2.487 1.518 2.445 1.223 2.403 .886Z" fill="#2c292a"/>
<path transform="matrix(1,0,0,-1,228.5079,296.5675)" d="M0 0V-1.708C.548-2.151 1.423-2.394 2.624-2.436 3.826-2.478 4.838-2.425 5.66-2.278 5.554-2.383 5.449-2.626 5.344-3.005 4.036-3.026 3.093-3.016 2.514-2.974 1.934-2.931 1.444-2.852 1.043-2.736 .643-2.62 .327-2.488 .095-2.341-.137-2.194-.337-2.21-.506-2.388-.675-2.567-.865-2.794-1.075-3.069-1.223-2.899-1.412-2.763-1.644-2.657-1.412-2.404-1.065-2.109-.601-1.772V.696C-.917 .696-1.254 .685-1.613 .664V1.234C-1.212 1.213-.664 1.202 .032 1.202 .01 .759 0 .358 0 0M.127 2.278C-.063 2.214-.253 2.14-.443 2.056-.527 2.309-.738 2.784-1.075 3.48-.885 3.543-.675 3.617-.443 3.701-.169 3.069 .021 2.594 .127 2.278M1.581 2.91H2.624C2.624 3.332 2.614 3.733 2.593 4.112H3.32C3.277 3.817 3.257 3.417 3.257 2.91 3.994 2.931 4.521 2.942 4.838 2.942V2.404C4.479 2.425 3.952 2.436 3.257 2.436V1.329H4.332C4.648 1.329 4.964 1.339 5.28 1.36V.791C4.964 .812 4.479 .822 3.826 .822V-.917C3.826-1.128 3.941-1.234 4.174-1.234H4.553C4.7-1.15 4.785-.907 4.806-.506 5.017-.633 5.238-.717 5.47-.759 5.344-1.476 5.122-1.835 4.806-1.835H3.952C3.467-1.835 3.225-1.613 3.225-1.17V.822H2.593C2.593 .19 2.477-.348 2.245-.791 2.013-1.234 1.697-1.645 1.296-2.025 1.149-1.877 .938-1.761 .664-1.677 1.191-1.297 1.544-.923 1.723-.554 1.902-.185 1.992 .274 1.992 .822 1.36 .822 .885 .812 .569 .791V1.392C.906 1.349 1.202 1.329 1.454 1.329H2.624V2.436H1.423C1.317 2.183 1.233 1.94 1.17 1.708 .938 1.792 .727 1.866 .538 1.93 .854 2.478 1.085 3.132 1.233 3.891 1.444 3.828 1.686 3.764 1.96 3.701 1.813 3.469 1.686 3.206 1.581 2.91" fill="#2c292a"/>
<path transform="matrix(1,0,0,-1,237.2833,296.0297)" d="M0 0C-.232-.084-.453-.179-.664-.285V-2.752C-.707-3.111-.822-3.327-1.012-3.401-1.202-3.474-1.507-3.543-1.929-3.606-1.95-3.353-2.003-3.069-2.087-2.752-1.581-2.795-1.318-2.763-1.296-2.657V-.538C-1.718-.749-2.003-.907-2.15-1.012-2.235-.759-2.34-.517-2.466-.285-2.256-.243-1.866-.127-1.296 .063V1.582C-1.676 1.582-2.003 1.571-2.276 1.55V2.151C-2.024 2.13-1.697 2.119-1.296 2.119-1.296 2.583-1.307 3.089-1.328 3.638H-.632C-.654 3.132-.664 2.626-.664 2.119-.432 2.119-.127 2.13 .253 2.151V1.55C-.084 1.571-.39 1.582-.664 1.582V.316C-.453 .4-.243 .495-.032 .601-.032 .411-.021 .211 0 0M2.055 .38H2.782C2.761 .105 2.751-.158 2.751-.411 3.277-.411 3.783-.401 4.269-.38V-.949C3.699-.928 3.193-.917 2.751-.917V-1.866C3.425-1.866 4.131-1.856 4.869-1.835V-2.404C4.279-2.383 3.573-2.373 2.751-2.373 2.751-3.111 2.761-3.595 2.782-3.828H2.055C2.097-3.595 2.118-3.111 2.118-2.373 .959-2.373 .221-2.383-.095-2.404V-1.835C.242-1.856 .98-1.866 2.118-1.866V-.917C1.338-.917 .811-.928 .537-.949V-.38C.896-.401 1.423-.411 2.118-.411 2.118-.158 2.097 .105 2.055 .38M.664 3.417C.959 3.417 1.317 3.406 1.739 3.385H4.458C4.226 2.921 4.021 2.551 3.842 2.278 3.662 2.003 3.372 1.677 2.972 1.297 3.246 1.128 3.536 1.012 3.842 .949 4.147 .886 4.553 .833 5.059 .791 4.848 .559 4.722 .337 4.68 .127 4.152 .232 3.731 .343 3.415 .459 3.099 .574 2.793 .738 2.498 .949 2.182 .759 1.886 .606 1.613 .49 1.338 .374 .98 .253 .537 .127 .495 .295 .348 .474 .095 .664 .474 .728 .811 .801 1.107 .886 1.402 .97 1.697 1.107 1.992 1.297 1.528 1.782 1.212 2.309 1.043 2.879H.664ZM2.498 1.613C2.666 1.74 2.84 1.903 3.02 2.104 3.198 2.304 3.372 2.562 3.541 2.879H1.613C1.866 2.246 2.16 1.824 2.498 1.613" fill="#2c292a"/>
<path transform="matrix(1,0,0,-1,195.8713,330.2234)" d="M0 0C.759 0 1.317 .021 1.676 .063V-.538C1.317-.517 .769-.506 .032-.506V-1.803H1.328C1.307-2.267 1.296-2.763 1.296-3.29 1.296-3.796 1.307-4.355 1.328-4.967H.696V-4.46H-.917V-5.061H-1.549C-1.529-4.513-1.518-3.965-1.518-3.417-1.518-2.847-1.529-2.309-1.549-1.803H-.601C-.601-.074-.612 1.044-.632 1.55H.032C.01 1.065 0 .548 0 0M.727-2.309H-.91700008V-3.922H.727ZM4.506-2.673C4.305-3.064 4.058-3.469 3.763-3.891 4.121-4.503 4.416-4.851 4.648-4.935 4.88-5.019 5.069-4.735 5.217-4.081 5.385-4.271 5.586-4.44 5.818-4.587 5.522-5.24 5.19-5.594 4.822-5.647 4.453-5.699 3.963-5.262 3.352-4.334 3.099-4.608 2.84-4.851 2.577-5.061 2.313-5.272 1.981-5.515 1.581-5.789 1.454-5.62 1.296-5.452 1.107-5.283 1.36-5.177 1.686-4.977 2.087-4.682 2.487-4.387 2.814-4.081 3.067-3.764 2.961-3.554 2.846-3.2 2.719-2.705 2.593-2.209 2.508-1.761 2.466-1.36 2.087-1.424 1.718-1.498 1.36-1.582 1.317-1.371 1.275-1.181 1.233-1.012 1.549-.97 1.939-.907 2.403-.823 2.36 .084 2.318 .896 2.277 1.613 2.529 1.592 2.761 1.582 2.972 1.582 2.93 .97 2.93 .2 2.972-.728 3.436-.664 4.216-.517 5.312-.285 5.312-.475 5.333-.664 5.375-.854 4.89-.939 4.11-1.076 3.035-1.265 3.141-2.109 3.288-2.773 3.478-3.258 3.689-2.963 3.847-2.678 3.952-2.404 4.058-2.13 4.163-1.835 4.268-1.518 4.521-1.666 4.753-1.772 4.964-1.835 4.858-2.004 4.706-2.283 4.506-2.673M4.838 .348C4.648 .221 4.469 .074 4.3-.095 4.174 .116 3.921 .443 3.541 .886 3.71 .991 3.878 1.107 4.047 1.234 4.447 .77 4.711 .474 4.838 .348" fill="#2c292a"/>
<path transform="matrix(1,0,0,-1,205.3106,330.79283)" d="M0 0V-2.847C0-3.206 .01-3.638 .032-4.144H-.538V-3.733H-2.213V-4.334H-2.814C-2.772-3.997-2.751-3.617-2.751-3.195V0C-2.751 .485-2.772 .917-2.814 1.297H.032C.01 .812 0 .38 0 0M-1.644 .822H-2.213V-.918H-1.644ZM-1.644-1.424H-2.213V-3.227H-1.644ZM-.538 .822H-1.107V-.918H-.538ZM-.538-1.424H-1.107V-3.227H-.538ZM1.676 1.297H3.794C3.668 .896 3.494 .495 3.272 .095 3.051-.306 2.803-.654 2.529-.949 2.761-1.16 3.051-1.324 3.399-1.439 3.747-1.555 4.079-1.635 4.395-1.677 4.226-1.909 4.11-2.119 4.047-2.309 3.752-2.246 3.425-2.135 3.067-1.977 2.708-1.819 2.392-1.613 2.118-1.36 1.949-1.487 1.728-1.645 1.454-1.835 1.18-2.025 .832-2.214 .411-2.404 .327-2.194 .21-2.004 .063-1.835 .379-1.729 .659-1.619 .901-1.503 1.143-1.387 1.433-1.192 1.771-.917 1.644-.749 1.528-.569 1.423-.38 1.317-.19 1.222-.011 1.138 .158 1.012-.074 .832-.359 .601-.696 .516-.569 .337-.443 .063-.316 .358 0 .617 .395 .838 .87 1.059 1.344 1.212 1.792 1.296 2.214 1.528 2.109 1.781 2.014 2.055 1.93 1.929 1.803 1.802 1.592 1.676 1.297M3.604-3.1V-4.334C3.604-4.608 3.615-4.903 3.636-5.22H3.035V-4.619H1.391V-5.251H.79C.811-4.892 .822-4.566 .822-4.271V-3.132C.822-2.815 .811-2.52 .79-2.246H3.636C3.615-2.499 3.604-2.784 3.604-3.1M3.035-2.752H1.391V-4.0810005H3.035ZM3.004 .822H1.454C1.623 .295 1.866-.158 2.182-.538 2.498-.179 2.772 .274 3.004 .822" fill="#2c292a"/>
<path transform="matrix(1,0,0,-1,212.3468,330.2234)" d="M0 0H1.423C1.402-.359 1.391-.812 1.391-1.36V-4.144C1.391-4.46 1.402-4.914 1.423-5.504H.791V-4.872H-.822V-5.568H-1.454C-1.434-4.893-1.423-4.471-1.423-4.302V-1.392C-1.423-.823-1.434-.359-1.454 0H-.537C-.432 .485-.348 .991-.285 1.518 .01 1.413 .253 1.339 .443 1.297 .337 1.107 .19 .675 0 0M.791-.538H-.822V-2.12H.791ZM.791-2.657H-.822V-4.334H.791ZM4.996-4.777C4.953-5.156 4.753-5.409 4.395-5.536 4.036-5.663 3.636-5.747 3.194-5.789 3.172-5.557 3.077-5.315 2.909-5.061 3.33-5.082 3.662-5.072 3.905-5.03 4.147-4.988 4.3-4.893 4.363-4.745 4.427-4.598 4.474-4.165 4.506-3.448 4.537-2.731 4.563-1.729 4.585-.443H2.751C2.582-.844 2.34-1.318 2.024-1.866 1.876-1.719 1.697-1.603 1.486-1.518 1.676-1.265 1.855-.96 2.024-.601 2.192-.243 2.34 .147 2.466 .569 2.593 .991 2.666 1.318 2.688 1.55 2.983 1.424 3.236 1.329 3.446 1.265 3.341 1.096 3.251 .912 3.178 .712 3.104 .511 3.025 .316 2.94 .127H5.186C5.164-.316 5.154-.728 5.154-1.107 5.133-2.394 5.08-3.617 4.996-4.777M3.288-2.404C3.415-2.657 3.562-2.984 3.731-3.385 3.583-3.448 3.383-3.554 3.13-3.701 2.983-3.301 2.846-2.958 2.719-2.673 2.593-2.388 2.466-2.151 2.34-1.961 2.487-1.877 2.677-1.772 2.909-1.645Z" fill="#2c292a"/>
<path transform="matrix(1,0,0,-1,219.6045,335.2849)" d="M0 0C.147 0 .221 .063 .221 .19V2.214C-.201 2.003-.527 1.824-.759 1.677-.801 1.845-.896 2.109-1.043 2.467-.77 2.51-.348 2.636 .221 2.847V4.271C-.221 4.271-.612 4.26-.949 4.239V4.84C-.632 4.819-.243 4.808 .221 4.808 .221 5.483 .21 6.084 .19 6.612H.822C.801 6.147 .79 5.546 .79 4.808 .959 4.808 1.222 4.819 1.581 4.84V4.239C1.243 4.26 .98 4.271 .79 4.271V3.1C.917 3.142 1.17 3.247 1.549 3.417 1.549 3.227 1.56 3.037 1.581 2.847 1.454 2.784 1.191 2.657 .79 2.467V.063C.769-.19 .69-.369 .553-.475 .416-.58 .095-.664-.411-.728-.411-.453-.464-.2-.569 .032-.338 .011-.148 0 0 0M6.482 .443C6.25-.169 6.023-.543 5.802-.68 5.581-.817 5.328-.606 5.043-.047 4.759 .511 4.605 1.197 4.585 2.009 4.563 2.82 4.563 3.648 4.585 4.492H3.731C3.689 3.67 3.625 2.994 3.541 2.467 3.731 2.341 4.005 2.119 4.363 1.803 4.174 1.634 4.015 1.444 3.889 1.234 3.72 1.444 3.562 1.624 3.415 1.772 3.119 1.118 2.835 .627 2.561 .301 2.287-.026 1.992-.358 1.676-.696 1.57-.527 1.349-.348 1.012-.158 1.475 .095 1.87 .432 2.197 .854 2.524 1.276 2.751 1.729 2.877 2.214 2.624 2.404 2.329 2.615 1.992 2.847 2.118 2.994 2.245 3.153 2.371 3.322 2.561 3.195 2.772 3.058 3.004 2.91 3.046 3.311 3.077 3.838 3.099 4.492 2.719 4.492 2.36 4.481 2.024 4.46V5.061C2.36 5.04 2.719 5.03 3.099 5.03 3.099 5.641 3.088 6.189 3.067 6.675 3.257 6.654 3.488 6.643 3.763 6.643 3.741 6.053 3.731 5.515 3.731 5.03H5.154C5.111 4.186 5.095 3.332 5.106 2.467 5.117 1.602 5.233 .933 5.454 .459 5.676-.016 5.828 .105 5.913 .822 6.06 .696 6.25 .569 6.482 .443" fill="#2c292a"/>
<path transform="matrix(1,0,0,-1,228.9016,331.3306)" d="M0 0C-.095-.169-.227-.38-.395-.633V-3.48C-.395-3.754-.385-4.176-.364-4.745H-1.028C-1.007-4.112-.996-3.638-.996-3.322V-1.297C-1.186-1.613-1.439-1.93-1.755-2.246-1.903-2.035-2.039-1.856-2.166-1.708-1.681-1.245-1.302-.802-1.028-.38-.754 .042-.511 .443-.3 .822-.09 .696 .153 .559 .427 .411 .237 .305 .095 .169 0 0M-.522 1.661C-.796 1.228-1.175 .748-1.66 .221-1.786 .39-1.924 .548-2.071 .696-1.734 1.033-1.428 1.397-1.154 1.787-.88 2.177-.68 2.52-.553 2.815-.343 2.689-.111 2.531 .142 2.341-.027 2.32-.248 2.093-.522 1.661M4.221 .032C4.621 .032 4.99 .042 5.328 .063V-.569C4.99-.549 4.632-.538 4.253-.538H3.81V-3.986C3.831-4.239 3.752-4.413 3.573-4.508 3.394-4.603 3.04-4.682 2.514-4.745 2.471-4.492 2.356-4.239 2.166-3.986 2.524-4.028 2.777-4.044 2.925-4.033 3.072-4.022 3.156-3.912 3.178-3.701V-.538H1.913C1.512-.538 1.133-.549 .775-.569V.063C1.154 .042 1.534 .032 1.913 .032ZM3.684 2.183C4.042 2.183 4.411 2.193 4.79 2.214V1.613C4.411 1.634 4.021 1.645 3.62 1.645H2.45C1.987 1.645 1.586 1.634 1.249 1.613V2.214C1.586 2.193 1.987 2.183 2.45 2.183Z" fill="#2c292a"/>
</g>
<path transform="matrix(1,0,0,-1,213.2279,283.782)" d="M0 0H1.527 3.055L1.527-3.056ZM2.036-.764H1.018V19.459H2.036Z" fill="#2c292a"/>
<path transform="matrix(1,0,0,-1,213.2279,321.9773)" d="M0 0H1.527 3.055L1.527-3.056ZM2.036-.764H1.018V19.459H2.036Z" fill="#2c292a"/>
<path transform="matrix(1,0,0,-1,180.3874,258.7477)" d="M0 0V1.528 3.056L3.054 1.528ZM-21.112 2.037H.7630005V1.0179999H-21.112Z" fill="#2c292a"/>
<path transform="matrix(1,0,0,-1,180.3874,296.511)" d="M0 0V1.528 3.056L3.054 1.528ZM-21.112 2.037H.7630005V1.0179999H-21.112Z" fill="#2c292a"/>
<path transform="matrix(1,0,0,-1,247.6536,258.7477)" d="M0 0V1.528 3.056L-3.054 1.528ZM20.457 2.037H-.7629986V1.0179999H20.457Z" fill="#2c292a"/>
<path transform="matrix(1,0,0,-1,247.6536,296.511)" d="M0 0V1.528 3.056L-3.054 1.528ZM20.457 2.037H-.7629986V1.0179999H20.457Z" fill="#2c292a"/>
<g clip-path="url(#clip_11)">
<path transform="matrix(1,0,0,-1,181.6669,216.6979)" stroke-width="1.2" stroke-linecap="butt" stroke-dasharray="3.411,2.211" stroke-miterlimit="4" stroke-linejoin="miter" fill="none" stroke="#2c292a" d="M0 0C-3.744-.984-9.013-3.625-10.105-10.797"/>
<path transform="matrix(1,0,0,-1,171.3588,234.6354)" stroke-width="1.2" stroke-linecap="butt" stroke-dasharray="3.687,2.487" stroke-miterlimit="4" stroke-linejoin="miter" fill="none" stroke="#2c292a" d="M0 0V-97.531"/>
<path transform="matrix(1,0,0,-1,171.9325,339.1198)" stroke-width="1.2" stroke-linecap="butt" stroke-dasharray="3.411,2.211" stroke-miterlimit="4" stroke-linejoin="miter" fill="none" stroke="#2c292a" d="M0 0C.979-3.75 3.628-9.016 10.799-10.109"/>
<path transform="matrix(1,0,0,-1,189.6431,349.4323)" stroke-width="1.2" stroke-linecap="butt" stroke-dasharray="3.541,2.341" stroke-miterlimit="4" stroke-linejoin="miter" fill="none" stroke="#2c292a" d="M0 0H51.763"/>
<path transform="matrix(1,0,0,-1,248.2116,348.8541)" stroke-width="1.2" stroke-linecap="butt" stroke-dasharray="3.411,2.211" stroke-miterlimit="4" stroke-linejoin="miter" fill="none" stroke="#2c292a" d="M0 0C3.744 .969 9.013 3.625 10.105 10.797"/>
<path transform="matrix(1,0,0,-1,258.5197,330.9323)" stroke-width="1.2" stroke-linecap="butt" stroke-dasharray="3.687,2.487" stroke-miterlimit="4" stroke-linejoin="miter" fill="none" stroke="#2c292a" d="M0 0V97.547"/>
<path transform="matrix(1,0,0,-1,257.946,226.43231)" stroke-width="1.2" stroke-linecap="butt" stroke-dasharray="3.411,2.211" stroke-miterlimit="4" stroke-linejoin="miter" fill="none" stroke="#2c292a" d="M0 0C-.979 3.75-3.628 9.016-10.799 10.109"/>
<path transform="matrix(1,0,0,-1,240.2354,216.11981)" stroke-width="1.2" stroke-linecap="butt" stroke-dasharray="3.541,2.341" stroke-miterlimit="4" stroke-linejoin="miter" fill="none" stroke="#2c292a" d="M0 0H-51.763"/>
<path transform="matrix(1,0,0,-1,171.431,228.5885)" stroke-width="1.2" stroke-linecap="butt" stroke-miterlimit="4" stroke-linejoin="miter" fill="none" stroke="#2c292a" d="M0 0C-.047-.547-.072-1.125-.072-1.703V-3.547M-.072-104.828V-106.672C-.072-106.672-.072-107.328 .071-108.375M12.398-120.766C12.942-120.813 13.509-120.844 14.101-120.844H15.871M71.145-120.844H72.915C72.915-120.844 73.577-120.844 74.614-120.703M87.017-108.375C87.064-107.828 87.089-107.266 87.089-106.672V-104.828M87.089-3.547V-1.703C87.089-1.703 87.089-1.047 86.946-.016M74.619 12.391C74.075 12.438 73.508 12.469 72.915 12.469H71.145M15.871 12.469H14.101C14.101 12.469 13.44 12.469 12.403 12.313"/>
</g>
</g>
</g>
</svg>
